<svg width="36" height="31" viewBox="0 0 36 31" fill="none" xmlns="http://www.w3.org/2000/svg">
<g filter="url(#filter0_d_336_26715)">
<g clip-path="url(#clip0_336_26715)">
<path d="M6 3H30V21H6V3Z" fill="white"/>
<path d="M6 12H30V21H6V12ZM9 12C9 13.5913 9.63214 15.1174 10.7574 16.2426C11.8826 17.3679 13.4087 18 15 18C16.5913 18 18.1174 17.3679 19.2426 16.2426C20.3679 15.1174 21 13.5913 21 12C21 10.4087 20.3679 8.88258 19.2426 7.75736C18.1174 6.63214 16.5913 6 15 6C13.4087 6 11.8826 6.63214 10.7574 7.75736C9.63214 8.88258 9 10.4087 9 12" fill="#D00C33"/>
</g>
</g>
<defs>
<filter id="filter0_d_336_26715" x="0" y="-2" width="36" height="36" filterUnits="userSpaceOnUse" color-interpolation-filters="sRGB">
<feFlood flood-opacity="0" result="BackgroundImageFix"/>
<feColorMatrix in="SourceAlpha" type="matrix" values="0 0 0 0 0 0 0 0 0 0 0 0 0 0 0 0 0 0 127 0" result="hardAlpha"/>
<feOffset dy="4"/>
<feGaussianBlur stdDeviation="3"/>
<feComposite in2="hardAlpha" operator="out"/>
<feColorMatrix type="matrix" values="0 0 0 0 0 0 0 0 0 0 0 0 0 0 0 0 0 0 0.16 0"/>
<feBlend mode="normal" in2="BackgroundImageFix" result="effect1_dropShadow_336_26715"/>
<feBlend mode="normal" in="SourceGraphic" in2="effect1_dropShadow_336_26715" result="shape"/>
</filter>
<clipPath id="clip0_336_26715">
<rect width="24" height="18" fill="white" transform="translate(6 3)"/>
</clipPath>
</defs>
</svg>
