<svg width="36" height="31" viewBox="0 0 36 31" fill="none" xmlns="http://www.w3.org/2000/svg">
<g filter="url(#filter0_d_336_33389)">
<g clip-path="url(#clip0_336_33389)">
<path d="M6 3H30V21H6V3Z" fill="white"/>
<path d="M13.6609 14.8117C13.6609 14.8117 13.6422 14.6767 13.8934 14.583C14.1409 14.4855 14.1634 14.1255 14.1109 13.8855C14.1109 13.8855 13.9834 14.1105 13.8222 14.1892C13.8222 14.1892 13.5672 14.3242 13.5522 14.5792C13.5522 14.5792 13.5522 14.673 13.5334 14.748C13.5222 14.7855 13.4059 14.4255 13.6234 14.1555C13.8484 13.8817 13.9084 13.6567 13.7322 13.218C13.7322 13.218 13.7134 13.4805 13.5409 13.6342C13.3647 13.7842 13.3422 13.7992 13.3459 14.1592C13.3459 14.1592 13.3459 14.2867 13.2822 14.328C13.2822 14.328 13.1472 14.1292 13.1097 13.998C13.0722 13.8667 13.0572 13.8105 13.2147 13.6605C13.2147 13.6605 13.7097 13.3342 13.3534 12.633C13.3534 12.633 13.3422 12.873 13.1659 13.0155C12.9972 13.1617 13.0084 13.2555 13.0009 13.503C12.9934 13.7542 12.9784 13.7355 12.9597 13.773C12.9597 13.773 12.6409 13.188 12.8847 12.8805C13.1284 12.5692 13.2672 12.5055 12.9972 11.928C12.9972 11.928 13.0084 12.228 12.7909 12.3705C12.5772 12.5205 12.6259 12.858 12.6259 12.858C12.6259 12.858 12.6409 12.9892 12.5959 13.083C12.5959 13.083 12.2922 12.4867 12.5809 12.168C12.8284 11.8942 12.8434 11.703 12.7122 11.3205C12.7122 11.3205 12.6972 11.4967 12.5622 11.5942C12.4234 11.6917 12.3147 11.7855 12.3409 12.1567C12.3409 12.1567 12.3522 12.4192 12.3184 12.4942C12.3184 12.4942 12.1909 12.2542 12.1534 12.1005C12.1159 11.943 12.1047 11.853 12.1984 11.6992C12.2922 11.5455 12.6672 11.0992 12.2209 10.4617C12.2209 10.4617 12.2097 10.668 12.0934 10.8555C11.9809 11.043 12.0334 11.2642 12.0559 11.433C12.0822 11.6017 11.9997 11.7667 11.9997 11.7667C11.9997 11.7667 11.8047 11.4105 11.8497 11.0017C11.8872 10.5892 11.7222 10.2517 11.3434 10.0117C11.3434 10.0117 11.0697 10.6492 11.4447 10.9755C11.4447 10.9755 11.7634 11.2905 11.8459 11.673C11.8459 11.673 11.6022 11.6505 11.3847 11.223C11.1634 10.7955 10.7097 10.863 10.6797 10.8592C10.6797 10.8592 10.7547 11.5192 11.4522 11.7067C11.4522 11.7067 11.9022 11.7817 11.9847 12.1117C11.9847 12.1117 12.0597 12.3367 12.0897 12.4567C12.0897 12.4567 11.9472 12.4005 11.8159 12.2055C11.6847 12.018 11.7034 11.9917 11.2609 11.9467C11.2609 11.9467 11.0847 11.928 10.9909 11.8005C10.9909 11.8005 11.1784 12.498 11.6547 12.4942C11.6547 12.4942 12.0897 12.4455 12.3297 13.0192L12.2209 12.9442C12.1572 12.903 11.9959 12.8205 11.6772 12.858C11.3584 12.8955 11.2684 12.843 11.1897 12.8205C11.1897 12.8205 11.5122 13.4092 11.9659 13.233C12.4234 13.0567 12.6409 13.698 12.6484 13.7092C12.6484 13.7092 12.5847 13.6642 12.5059 13.5855C12.4234 13.5067 12.2584 13.4092 11.9434 13.5105C11.9434 13.5105 11.7147 13.5967 11.4822 13.5255C11.4822 13.5255 11.7072 13.9567 12.2247 13.8817C12.3609 13.8548 12.5023 13.879 12.6219 13.9495C12.7415 14.02 12.831 14.132 12.8734 14.2642C12.8734 14.2642 12.8059 14.2267 12.7609 14.1892C12.7122 14.1517 12.5359 14.0505 12.1609 14.1592C11.7859 14.2717 11.6509 14.1442 11.6509 14.1442C11.6509 14.1442 11.8572 14.5192 12.2584 14.568C12.2584 14.568 12.4834 14.5642 12.5734 14.5305C12.6672 14.493 12.9184 14.4367 13.0909 14.688C13.0909 14.688 13.0422 14.6955 12.9709 14.6617C12.9709 14.6617 12.7084 14.568 12.5022 14.7367C12.5022 14.7367 12.3222 14.9205 12.0672 14.8867C12.0672 14.8867 12.3972 15.2055 12.9222 14.9355C12.9222 14.9355 13.0984 14.808 13.2297 14.9055C13.3609 15.0067 13.6609 14.808 13.6609 14.808V14.8117Z" fill="#369443" stroke="#010002" stroke-width="0.125116" stroke-miterlimit="10"/>
<path d="M16.5809 6.88887C16.5809 6.88887 16.5209 6.34512 16.9559 6.28887C17.1813 6.24947 17.4128 6.26491 17.6309 6.33387L17.8372 6.73137L17.7622 7.00137L17.4847 7.12887C17.4847 7.12887 17.5334 6.71637 17.1547 6.70887C17.0572 6.70887 17.0047 6.74637 16.8509 6.72012C16.6972 6.69387 16.6147 6.86262 16.5809 6.88887Z" fill="#F4C53D" stroke="#010002" stroke-width="0.125116" stroke-miterlimit="10"/>
<path d="M19.6411 8.23478C19.5736 8.31728 19.3148 8.34728 19.3148 8.34728C19.3148 8.34728 19.5811 8.55353 19.6973 8.84603C19.8098 9.13478 16.6073 8.84603 16.6073 8.84603C16.6073 8.84603 16.7498 8.74853 16.8436 8.56103C16.8436 8.56103 16.7011 8.61353 16.5586 8.47103C16.5586 8.47103 16.6636 8.50853 16.8023 8.29853C16.8023 8.29853 17.0086 8.03603 17.1548 7.96103C17.1548 7.96103 17.0873 8.00603 16.9261 7.91603C16.9261 7.91603 17.2036 7.87853 17.3011 7.40978C17.3011 7.40978 17.3198 7.30478 17.4248 7.14728C17.5298 6.99728 17.5073 7.18103 17.7023 6.94478C17.7023 6.94478 17.7923 6.77978 17.7136 6.68228C17.6386 6.57728 17.5523 6.61478 17.3911 6.51728C17.2261 6.41978 17.1548 6.36728 17.2111 6.21728C17.2673 6.06728 17.4098 6.08978 17.4323 6.08978C17.4548 6.08978 17.4623 5.95853 17.6386 5.86853C17.8148 5.77853 18.2911 5.81978 18.3586 5.85728C18.4336 5.89478 18.7148 5.98103 18.8836 6.40103C19.0486 6.82103 18.8386 6.97853 19.2886 7.61603C19.2886 7.61603 19.1086 7.65353 18.9923 7.61603C18.9923 7.61603 19.2286 8.03603 19.6411 8.23478V8.23478Z" fill="#F4C53D" stroke="#010002" stroke-width="0.125116" stroke-miterlimit="10"/>
<path d="M17.6633 6.45769C17.288 6.43892 17.4344 6.08984 17.4344 6.08984" stroke="#010002" stroke-width="0.125116" stroke-miterlimit="10"/>
<path d="M18.2975 6.50536C18.2975 6.50536 18.2337 6.47536 18.1775 6.40036C18.1025 6.29911 17.9263 6.25036 17.8363 6.34786C17.8363 6.34786 17.7425 6.45286 17.6562 6.46036C17.6562 6.46036 17.7538 6.48661 17.8175 6.54661C17.8813 6.60661 17.9487 6.65161 18.0462 6.63661C18.1437 6.62536 18.1588 6.57286 18.2038 6.54286C18.2525 6.51286 18.2975 6.50536 18.2975 6.50536Z" fill="#F4C53D" stroke="#010002" stroke-width="0.125116" stroke-miterlimit="10"/>
<path d="M13.6055 15.6183C13.6055 15.6183 13.598 15.3783 13.898 15.3633L14.7792 16.5895C14.7792 16.5895 14.7455 16.6683 14.348 16.6608C14.348 16.6608 14.303 16.6608 14.2805 16.7058C14.2467 16.7808 13.6055 15.6183 13.6055 15.6183V15.6183Z" fill="#369443" stroke="#010002" stroke-width="0.125116" stroke-miterlimit="10"/>
<path d="M14.5738 14.1897C14.5738 14.1897 14.2921 14.673 13.9516 14.6809C13.9516 14.6809 13.3662 14.6098 13.2008 14.7628C13.085 14.8695 12.967 14.9575 12.9185 15.2302C12.8711 15.5029 13.0116 15.5616 13.0449 15.5735C13.0449 15.5735 13.0709 15.7682 13.2634 15.7174C13.2634 15.7174 13.2747 15.9207 13.6146 15.823C13.955 15.7253 14.0962 15.7564 14.1622 15.4177C14.2294 15.0783 14.2909 15.084 14.3513 15.0433C14.4326 14.9886 14.5856 14.9372 14.6991 14.8717C14.8007 14.813 15.1914 14.6143 15.3246 14.599C15.4579 14.5832 15.4285 14.135 15.4285 14.135H15.0841L14.9176 13.8894L14.5732 14.1897H14.5738ZM15.6577 11.7655C15.6577 11.7655 15.3133 12.0461 15.0243 11.7655C15.0243 11.7655 14.908 11.9055 14.6743 11.8649C14.4417 11.8236 14.4027 11.7011 14.3807 11.6311C14.3807 11.6311 14.1786 11.7486 14.0081 11.6554C13.8387 11.5628 13.8387 11.4222 13.8387 11.4222C13.8387 11.4222 13.5423 11.481 13.3904 11.28C13.2386 11.0796 13.3312 10.8808 13.413 10.8571C13.413 10.8571 13.0929 10.9412 13.0054 10.6663C12.9821 10.6049 12.9785 10.5378 12.9951 10.4742C13.0117 10.4107 13.0477 10.3539 13.098 10.3117C13.098 10.3117 12.4239 10.3084 12.1473 10.0972C12.1473 10.0972 11.9175 9.95269 12.0547 9.80082C12.0547 9.80082 11.4478 9.70371 11.2959 9.46208C11.2959 9.46208 11.2293 9.39546 11.2513 9.2786C11.2513 9.2786 11.2553 9.21255 11.3219 9.20859C11.3219 9.20859 10.6297 9.10133 10.4299 8.87324C10.4299 8.87324 10.3339 8.76823 10.3819 8.62766C10.3819 8.62766 10.3921 8.59096 10.4084 8.56556C10.4084 8.56556 9.77838 8.43288 9.46787 8.1523C9.46787 8.1523 9.28834 7.99253 9.38093 7.77799C9.38093 7.77799 8.32802 7.49007 8.57191 7.02599C8.57191 7.02599 8.07961 6.86622 8.23543 6.42191C8.23543 6.42191 7.82838 6.21528 8.00565 5.88784C8.17559 5.5745 8.69781 5.9426 9.31544 6.11366C9.31544 6.11366 10.9888 6.63983 11.8125 6.77985L14.1532 10.2649L15.5188 10.7911L15.6572 11.7655H15.6577Z" fill="#F4C53D" stroke="#010002" stroke-width="0.125575"/>
<path d="M15.6755 9.19903C15.6755 9.19903 15.4559 9.03417 15.0646 9.22782C15.0646 9.22782 14.9331 9.31871 14.8292 9.21935C14.8067 9.19786 14.7892 9.17164 14.778 9.14258C14.7669 9.11352 14.7623 9.08234 14.7646 9.0513C14.7669 9.02025 14.7761 8.99011 14.7915 8.96303C14.8068 8.93596 14.828 8.91263 14.8535 8.89473C15.1454 8.6785 15.2532 8.02982 14.8094 7.76052C14.8094 7.76052 14.1658 7.37888 11.8043 6.77818C11.8043 6.77818 11.6067 6.72286 11.5005 6.74939C11.4492 6.76249 11.4023 6.78924 11.365 6.82682C11.3276 6.86439 11.3011 6.91138 11.2883 6.96279C11.2883 6.96279 11.1821 7.26371 11.5378 7.4359C11.5378 7.4359 11.6981 7.50929 11.8636 7.55671C11.8636 7.55671 11.6818 7.51719 11.6039 7.69673C11.5305 7.86835 11.6377 8.04393 11.9708 8.15684C11.9708 8.15684 12.0612 8.19185 12.1893 8.2229C12.1893 8.2229 11.9042 8.30476 12.0414 8.5351C12.0414 8.5351 12.1633 8.77673 12.5947 8.81964C12.5947 8.81964 12.2729 8.85464 12.4998 9.16064C12.4998 9.16064 12.5997 9.32831 12.9142 9.39041C12.9142 9.39041 12.676 9.39832 12.7956 9.61229C12.9165 9.82682 13.1993 9.94764 13.4782 9.9674C13.4782 9.9674 13.6289 9.9753 13.7345 9.95159C13.7345 9.95159 13.4692 10.0843 13.625 10.3061C13.625 10.3061 13.7396 10.4642 14.0264 10.4563C14.0264 10.4563 13.9524 10.7047 14.1625 10.7984C14.3262 10.8718 14.4622 10.7544 14.4622 10.7544C14.4622 10.7544 14.4069 11.0203 14.6457 11.114C14.6457 11.114 14.7648 11.1756 14.9427 11.114C14.9427 11.114 15.0782 11.4183 15.5614 11.2044C16.0447 10.9915 15.6755 9.19959 15.6755 9.19959V9.19903ZM15.7037 11.962C15.7037 11.962 15.6331 12.3425 15.0714 12.8213C15.0714 12.8213 14.6378 13.2035 14.6485 13.6438C14.6598 14.0927 14.5712 14.1429 14.4007 14.2948C14.4007 14.2948 14.7524 14.3224 14.9224 14.0881C14.9224 14.0881 14.915 14.4777 14.8631 14.5133C14.8631 14.5133 14.9737 14.52 15.1335 14.3456C15.1335 14.3456 15.2295 14.244 15.3187 14.205C15.3187 14.205 15.2148 14.4743 15.2961 14.7238C15.2961 14.7238 15.3221 14.6262 15.4593 14.5833C15.4593 14.5833 15.7077 14.5324 15.8036 14.174C15.8036 14.174 15.8663 13.9368 16.2553 13.7257C16.2553 13.7257 16.6956 13.5597 16.6844 13.3429C16.6731 13.1256 15.7043 11.962 15.7043 11.962H15.7037Z" fill="#F4C53D" stroke="#010002" stroke-width="0.125575"/>
<path d="M17.7433 16.8684C17.7433 16.8684 17.6423 17.3133 17.2917 17.2777C17.2917 17.2777 17.0438 17.254 17.0625 16.8408C17.0625 16.8408 16.696 17.0361 16.6368 16.5528C16.6368 16.5528 16.3037 16.6302 16.3076 16.1785C16.3076 16.1785 15.9971 16.2327 16.0338 15.8313C16.0338 15.8313 15.6968 15.9216 15.6968 15.5434C15.6968 15.5434 14.9086 15.4124 16.5515 13.9141L18.0171 14.7869L17.7433 16.8684V16.8684Z" fill="#F4C53D" stroke="#010002" stroke-width="0.125575" stroke-miterlimit="10"/>
<path d="M17.9089 14.8694C17.9089 14.8694 17.6645 15.0862 17.4906 14.7621C17.4906 14.7621 17.2535 14.7508 17.2168 14.5713C17.2168 14.5713 17.0242 14.5521 16.987 14.3686C16.987 14.3686 16.7245 14.3415 16.7318 14.1196C16.7318 14.1196 16.2542 14.0824 16.7318 13.5415C17.2094 13.0007 18.0196 14.4392 18.0196 14.4392L17.9089 14.8694ZM18.181 14.735C18.4182 14.735 18.6863 16.2142 18.6169 17.1056C18.5915 17.4291 18.4182 17.6933 18.181 17.6933C17.9439 17.6933 17.7712 17.4291 17.7463 17.1056C17.6763 16.2142 17.9445 14.735 18.181 14.735Z" fill="#F4C53D" stroke="#010002" stroke-width="0.125575"/>
<path d="M18.179 15.2093C18.3599 15.2093 18.5065 14.992 18.5065 14.7238C18.5065 14.4557 18.3599 14.2383 18.179 14.2383C17.9982 14.2383 17.8516 14.4557 17.8516 14.7238C17.8516 14.992 17.9982 15.2093 18.179 15.2093Z" fill="#F4C53D" stroke="#010002" stroke-width="0.125575"/>
<path d="M17.0643 16.8402C17.0643 16.8402 17.1016 16.0572 17.7802 14.9342M16.6387 16.5523C16.6387 16.5523 16.5331 16.1001 17.49 14.7626C17.49 14.7626 17.3788 14.4436 17.7192 14.2387M16.3095 16.178C16.3095 16.178 16.2796 15.6885 17.2162 14.5718C17.2162 14.5718 17.1332 14.2839 17.4725 14.0535M16.0357 15.8308C16.0357 15.8308 16.0707 15.3362 16.9864 14.3691C16.9864 14.3691 16.9413 14.0733 17.2687 13.8898M15.6992 15.5428C15.6992 15.5428 15.7653 14.9777 16.7312 14.1201C16.7312 14.1201 16.6979 13.8977 17.0197 13.6719" stroke="#010002" stroke-width="0.125575" stroke-miterlimit="10"/>
<path d="M8.23438 6.42188C8.23438 6.42188 8.99258 6.8611 11.3558 7.30033M8.57085 7.02596C8.57085 7.02596 10.6242 7.69553 11.5805 7.77795M9.37931 7.77795C9.37931 7.77795 10.5841 8.15621 11.9949 8.39502M10.4074 8.56608C10.4074 8.56608 11.768 8.89296 12.4183 8.94716M11.3208 9.20856C11.3208 9.20856 12.472 9.44849 12.7633 9.47729M12.0536 9.80078C12.0536 9.80078 12.8937 9.92837 13.2279 9.9216M13.097 10.3111C13.097 10.3111 13.4368 10.2953 13.6 10.2682M13.4114 10.8571C13.4114 10.8571 13.7005 10.7792 13.8704 10.6702M13.8371 11.4222C13.8371 11.4222 14.0595 11.3364 14.1668 11.1027M14.3796 11.6311C14.3796 11.6311 14.5513 11.477 14.5626 11.3053M15.0232 11.7655C15.0232 11.7655 14.9589 11.7096 15.0029 11.4679M14.9402 11.1134C14.9402 11.1134 14.9064 11.0445 14.9177 10.935M13.7264 7.65319C13.7264 7.65319 14.1149 7.809 14.2441 8.02354C14.374 8.23807 14.2887 8.4464 14.2441 8.56552C14.2221 8.62593 13.9483 9.15379 14.2701 9.536M13.7315 9.95039C13.7315 9.95039 13.7338 9.9487 13.8704 9.90523M12.9118 9.38922C12.9118 9.38922 13.1432 9.43551 13.3708 9.43777M12.5917 8.81788C12.5917 8.81788 12.8638 8.84554 13.1195 8.84159M12.1869 8.2217C12.1869 8.2217 12.5792 8.29961 12.7898 8.30356M11.8611 7.55665C11.8611 7.55665 12.345 7.6944 12.7046 7.74352M13.504 8.02806C13.504 8.02806 13.1562 8.35155 13.5746 8.6519C13.5746 8.6519 13.4007 8.92458 13.7485 9.20912M13.6559 9.34349C13.6559 9.34349 13.6039 9.86401 14.2408 9.86401C14.2408 9.86401 14.1182 10.3275 14.7331 10.3123C14.7331 10.3123 14.8031 10.6826 15.2468 10.6081M14.2695 14.6814C14.2695 14.6814 14.1685 14.704 13.95 14.6814M13.3358 14.9541C13.3358 14.9541 13.0286 14.9072 13.0433 15.574M13.5209 15.106C13.5209 15.106 13.2432 15.071 13.2612 15.718M16.2009 13.5472C16.2009 13.5472 16.0677 13.5743 15.9751 13.6799C15.8831 13.7849 15.7052 13.7651 15.7052 13.7651C15.7052 13.7651 15.8012 13.6872 15.8351 13.4925C15.8678 13.2977 15.9757 13.239 15.9757 13.239M15.6578 13.0549C15.6578 13.0549 15.5246 13.082 15.432 13.187C15.3394 13.2926 15.1616 13.2728 15.1616 13.2728C15.1616 13.2728 15.2575 13.1949 15.2914 13.0002C15.3247 12.8054 15.432 12.7467 15.432 12.7467M15.5658 13.8109C15.5658 13.8109 15.4495 13.8351 15.3688 13.9266C15.288 14.0186 15.1328 14.0017 15.1328 14.0017C15.1328 14.0017 15.2174 13.9339 15.2457 13.7634C15.275 13.5935 15.3688 13.5421 15.3688 13.5421" stroke="#010002" stroke-width="0.125575"/>
<path d="M21.6958 14.1897C21.6958 14.1897 21.9775 14.673 22.3179 14.6809C22.3179 14.6809 22.9034 14.6098 23.0688 14.7628C23.1845 14.8695 23.3025 14.9575 23.3511 15.2302C23.3985 15.5029 23.2579 15.5616 23.2246 15.5735C23.2246 15.5735 23.1986 15.7682 23.0061 15.7174C23.0061 15.7174 22.9948 15.9207 22.655 15.823C22.3145 15.7253 22.1734 15.7564 22.1073 15.4177C22.0401 15.0783 21.9786 15.084 21.9182 15.0433C21.8369 14.9886 21.6839 14.9372 21.5704 14.8717C21.4688 14.813 21.0781 14.6143 20.9449 14.599C20.8117 14.5832 20.841 14.135 20.841 14.135H21.1854L21.3519 13.8894L21.6963 14.1897H21.6958ZM20.6118 11.7655C20.6118 11.7655 20.9562 12.0461 21.2452 11.7655C21.2452 11.7655 21.3615 11.9055 21.5953 11.8649C21.8279 11.8236 21.8668 11.7011 21.8888 11.6311C21.8888 11.6311 22.091 11.7486 22.2615 11.6554C22.4308 11.5628 22.4308 11.4222 22.4308 11.4222C22.4308 11.4222 22.7272 11.481 22.8791 11.28C23.0309 11.0796 22.9384 10.8808 22.8565 10.8571C22.8565 10.8571 23.1766 10.9412 23.2641 10.6663C23.2874 10.6049 23.291 10.5378 23.2744 10.4742C23.2578 10.4107 23.2219 10.3539 23.1715 10.3117C23.1715 10.3117 23.8456 10.3084 24.1222 10.0972C24.1222 10.0972 24.352 9.95269 24.2148 9.80082C24.2148 9.80082 24.8217 9.70371 24.9736 9.46208C24.9736 9.46208 25.0402 9.39546 25.0182 9.2786C25.0182 9.2786 25.0143 9.21255 24.9476 9.20859C24.9476 9.20859 25.6398 9.10133 25.8396 8.87324C25.8396 8.87324 25.9356 8.76823 25.8876 8.62766C25.8876 8.62766 25.8775 8.59096 25.8611 8.56556C25.8611 8.56556 26.4912 8.43288 26.8017 8.1523C26.8017 8.1523 26.9812 7.99253 26.8886 7.77799C26.8886 7.77799 27.9415 7.49007 27.6976 7.02599C27.6976 7.02599 28.1899 6.86622 28.0341 6.42191C28.0341 6.42191 28.4412 6.21528 28.2639 5.88784C28.0939 5.5745 27.5717 5.9426 26.9541 6.11366C26.9541 6.11366 25.2807 6.63983 24.457 6.77985L22.1164 10.2649L20.7507 10.7911L20.6124 11.7655H20.6118Z" fill="#F4C53D" stroke="#010002" stroke-width="0.125575"/>
<path d="M20.5941 9.19903C20.5941 9.19903 20.8137 9.03417 21.2049 9.22782C21.2049 9.22782 21.3365 9.31871 21.4403 9.21935C21.4629 9.19786 21.4803 9.17164 21.4915 9.14258C21.5027 9.11352 21.5073 9.08234 21.5049 9.0513C21.5026 9.02025 21.4934 8.99011 21.4781 8.96303C21.4627 8.93596 21.4415 8.91263 21.4161 8.89473C21.1242 8.6785 21.0163 8.02982 21.4601 7.76052C21.4601 7.76052 22.1037 7.37888 24.4653 6.77818C24.4653 6.77818 24.6629 6.72286 24.769 6.74939C24.8203 6.76249 24.8672 6.78924 24.9046 6.82682C24.9419 6.86439 24.9684 6.91138 24.9813 6.96279C24.9813 6.96279 25.0874 7.26371 24.7317 7.4359C24.7317 7.4359 24.5714 7.50929 24.406 7.55671C24.406 7.55671 24.5878 7.51719 24.6657 7.69673C24.7391 7.86835 24.6318 8.04393 24.2987 8.15684C24.2987 8.15684 24.2084 8.19185 24.0802 8.2229C24.0802 8.2229 24.3653 8.30476 24.2281 8.5351C24.2281 8.5351 24.1062 8.77673 23.6749 8.81964C23.6749 8.81964 23.9967 8.85464 23.7697 9.16064C23.7697 9.16064 23.6698 9.32831 23.3553 9.39041C23.3553 9.39041 23.5936 9.39832 23.4739 9.61229C23.3531 9.82682 23.0702 9.94764 22.7913 9.9674C22.7913 9.9674 22.6406 9.9753 22.535 9.95159C22.535 9.95159 22.8004 10.0843 22.6445 10.3061C22.6445 10.3061 22.5299 10.4642 22.2431 10.4563C22.2431 10.4563 22.3171 10.7047 22.1071 10.7984C21.9434 10.8718 21.8073 10.7544 21.8073 10.7544C21.8073 10.7544 21.8626 11.0203 21.6238 11.114C21.6238 11.114 21.5047 11.1756 21.3269 11.114C21.3269 11.114 21.1914 11.4183 20.7081 11.2044C20.2248 10.9915 20.5941 9.19959 20.5941 9.19959V9.19903ZM20.5658 11.962C20.5658 11.962 20.6364 12.3425 21.1981 12.8213C21.1981 12.8213 21.6317 13.2035 21.621 13.6438C21.6097 14.0927 21.6983 14.1429 21.8688 14.2948C21.8688 14.2948 21.5171 14.3224 21.3472 14.0881C21.3472 14.0881 21.3545 14.4777 21.4065 14.5133C21.4065 14.5133 21.2958 14.52 21.136 14.3456C21.136 14.3456 21.0401 14.244 20.9509 14.205C20.9509 14.205 21.0547 14.4743 20.9734 14.7238C20.9734 14.7238 20.9475 14.6262 20.8103 14.5833C20.8103 14.5833 20.5619 14.5324 20.4659 14.174C20.4659 14.174 20.4032 13.9368 20.0142 13.7257C20.0142 13.7257 19.5739 13.5597 19.5852 13.3429C19.5965 13.1256 20.5653 11.962 20.5653 11.962H20.5658Z" fill="#F4C53D" stroke="#010002" stroke-width="0.125575"/>
<path d="M18.5262 16.8684C18.5262 16.8684 18.6273 17.3133 18.9779 17.2777C18.9779 17.2777 19.2257 17.254 19.2071 16.8408C19.2071 16.8408 19.5735 17.0361 19.6328 16.5528C19.6328 16.5528 19.9659 16.6302 19.9619 16.1785C19.9619 16.1785 20.2724 16.2327 20.2357 15.8313C20.2357 15.8313 20.5728 15.9216 20.5728 15.5434C20.5728 15.5434 21.3609 15.4124 19.718 13.9141L18.2524 14.7869L18.5262 16.8684V16.8684Z" fill="#F4C53D" stroke="#010002" stroke-width="0.125575" stroke-miterlimit="10"/>
<path d="M18.3606 14.8694C18.3606 14.8694 18.6051 15.0862 18.779 14.7621C18.779 14.7621 19.0161 14.7508 19.0528 14.5713C19.0528 14.5713 19.2453 14.5521 19.2825 14.3686C19.2825 14.3686 19.5451 14.3415 19.5377 14.1196C19.5377 14.1196 20.0153 14.0824 19.5377 13.5415C19.0601 13.0007 18.25 14.4392 18.25 14.4392L18.3606 14.8694ZM18.0885 14.735C17.8514 14.735 17.5832 16.2142 17.6527 17.1056C17.6781 17.4291 17.8514 17.6933 18.0885 17.6933C18.3256 17.6933 18.4984 17.4291 18.5232 17.1056C18.5932 16.2142 18.325 14.735 18.0885 14.735Z" fill="#F4C53D" stroke="#010002" stroke-width="0.125575"/>
<path d="M18.0905 15.2093C17.9097 15.2093 17.7631 14.992 17.7631 14.7238C17.7631 14.4557 17.9097 14.2383 18.0905 14.2383C18.2714 14.2383 18.418 14.4557 18.418 14.7238C18.418 14.992 18.2714 15.2093 18.0905 15.2093Z" fill="#F4C53D" stroke="#010002" stroke-width="0.125575"/>
<path d="M19.2052 16.8402C19.2052 16.8402 19.1679 16.0572 18.4893 14.9342M19.6309 16.5523C19.6309 16.5523 19.7365 16.1001 18.7795 14.7626C18.7795 14.7626 18.8907 14.4436 18.5503 14.2387M19.96 16.178C19.96 16.178 19.9899 15.6885 19.0533 14.5718C19.0533 14.5718 19.1363 14.2839 18.797 14.0535M20.2338 15.8308C20.2338 15.8308 20.1988 15.3362 19.2831 14.3691C19.2831 14.3691 19.3283 14.0733 19.0008 13.8898M20.5703 15.5428C20.5703 15.5428 20.5043 14.9777 19.5383 14.1201C19.5383 14.1201 19.5716 13.8977 19.2498 13.6719" stroke="#010002" stroke-width="0.125575" stroke-miterlimit="10"/>
<path d="M28.0352 6.42188C28.0352 6.42188 27.2769 6.8611 24.9137 7.30033M27.6987 7.02596C27.6987 7.02596 25.6454 7.69553 24.689 7.77795M26.8902 7.77795C26.8902 7.77795 25.6854 8.15621 24.2746 8.39502M25.8622 8.56608C25.8622 8.56608 24.5016 8.89296 23.8512 8.94716M24.9487 9.20856C24.9487 9.20856 23.7976 9.44849 23.5062 9.47729M24.2159 9.80078C24.2159 9.80078 23.3758 9.92837 23.0416 9.9216M23.1726 10.3111C23.1726 10.3111 22.8327 10.2953 22.6696 10.2682M22.8581 10.8571C22.8581 10.8571 22.5691 10.7792 22.3991 10.6702M22.4324 11.4222C22.4324 11.4222 22.21 11.3364 22.1027 11.1027M21.8899 11.6311C21.8899 11.6311 21.7183 11.477 21.707 11.3053M21.2463 11.7655C21.2463 11.7655 21.3107 11.7096 21.2666 11.4679M21.3293 11.1134C21.3293 11.1134 21.3632 11.0445 21.3519 10.935M22.5431 7.65319C22.5431 7.65319 22.1547 7.809 22.0254 8.02354C21.8955 8.23807 21.9808 8.4464 22.0254 8.56552C22.0474 8.62593 22.3212 9.15379 21.9994 9.536M22.538 9.95039C22.538 9.95039 22.5358 9.9487 22.3991 9.90523M23.3578 9.38922C23.3578 9.38922 23.1263 9.43551 22.8988 9.43777M23.6779 8.81788C23.6779 8.81788 23.4057 8.84554 23.15 8.84159M24.0827 8.2217C24.0827 8.2217 23.6903 8.29961 23.4797 8.30356M24.4084 7.55665C24.4084 7.55665 23.9246 7.6944 23.565 7.74352M22.7655 8.02806C22.7655 8.02806 23.1133 8.35155 22.695 8.6519C22.695 8.6519 22.8688 8.92458 22.5211 9.20912M22.6137 9.34349C22.6137 9.34349 22.6656 9.86401 22.0288 9.86401C22.0288 9.86401 22.1513 10.3275 21.5365 10.3123C21.5365 10.3123 21.4665 10.6826 21.0227 10.6081M22 14.6814C22 14.6814 22.101 14.704 22.3195 14.6814M22.9338 14.9541C22.9338 14.9541 23.2409 14.9072 23.2262 15.574M22.7486 15.106C22.7486 15.106 23.0264 15.071 23.0083 15.718M20.0686 13.5472C20.0686 13.5472 20.2019 13.5743 20.2944 13.6799C20.3865 13.7849 20.5643 13.7651 20.5643 13.7651C20.5643 13.7651 20.4683 13.6872 20.4345 13.4925C20.4017 13.2977 20.2939 13.239 20.2939 13.239M20.6117 13.0549C20.6117 13.0549 20.745 13.082 20.8376 13.187C20.9301 13.2926 21.108 13.2728 21.108 13.2728C21.108 13.2728 21.012 13.1949 20.9781 13.0002C20.9448 12.8054 20.8376 12.7467 20.8376 12.7467M20.7037 13.8109C20.7037 13.8109 20.82 13.8351 20.9008 13.9266C20.9815 14.0186 21.1368 14.0017 21.1368 14.0017C21.1368 14.0017 21.0521 13.9339 21.0239 13.7634C20.9945 13.5935 20.9008 13.5421 20.9008 13.5421" stroke="#010002" stroke-width="0.125575"/>
<path d="M23.4763 12.5995L22.94 14.9133L22.7188 14.7558L23.2437 12.5358L22.8763 12.5433L23.7425 10.957L23.7988 12.7833L23.4763 12.5995ZM24.8638 13.087L23.2513 14.992L23.0788 14.797L24.6838 12.9145L24.3575 12.742L25.8275 11.767L25.0663 13.4095L24.8638 13.087Z" fill="#0081C6" stroke="#010002" stroke-width="0.125116" stroke-miterlimit="10"/>
<path d="M24.4708 12.0757L23.027 14.8507L22.8058 14.7195L24.257 11.952L23.9045 11.862L25.1308 10.5645L24.737 12.3457L24.4708 12.0757ZM22.6708 15.6982L22.562 16.137L22.862 16.437L22.442 18.1995L22.067 17.7007L21.5195 17.9557L21.9358 16.1932L22.3258 16.0807L22.4233 15.642C22.4233 15.642 22.5433 15.597 22.6708 15.6982V15.6982Z" fill="#0081C6" stroke="#010002" stroke-width="0.125116" stroke-miterlimit="10"/>
<path d="M22.7741 15.4052L22.5603 15.8027L22.7741 16.1664L21.9341 17.7602L21.6978 17.1752L21.1016 17.2727L21.9416 15.6827H22.3428L22.5491 15.2852C22.5491 15.2852 22.6991 15.2852 22.7741 15.4052Z" fill="#0081C6" stroke="#010002" stroke-width="0.125116" stroke-miterlimit="10"/>
<path d="M22.8066 15.5212L22.2441 16.2413L22.3716 16.6463L21.2128 17.9963L21.1078 17.3737L20.5078 17.3288L21.6628 15.9788L22.0528 16.0725L22.6528 15.3075C22.6528 15.3075 22.8178 15.39 22.8066 15.5212ZM8.45531 13.8337C8.59031 13.7775 8.68781 13.725 8.68781 13.5825C8.68781 13.545 8.66906 13.47 8.63156 13.3538L7.72406 10.575C7.69369 10.4737 7.6561 10.3747 7.61156 10.2788C7.57031 10.2038 7.49156 10.17 7.38281 10.1288H8.53406C8.41031 10.185 8.29406 10.23 8.29781 10.365C8.29781 10.4137 8.31281 10.485 8.33906 10.5788L9.03656 12.7538L9.73031 10.5788C9.75438 10.5099 9.76828 10.4379 9.77156 10.365C9.77156 10.2262 9.65156 10.1775 9.53531 10.125H10.6528C10.5516 10.1663 10.4653 10.2 10.4278 10.2788C10.3823 10.376 10.3435 10.4762 10.3116 10.5788L9.40406 13.35C9.37902 13.4246 9.3602 13.5011 9.34781 13.5788C9.34781 13.5788 9.30656 13.755 9.58031 13.83H8.45531V13.8337ZM27.7791 13.5487V10.41C27.7791 10.3575 27.7678 10.3163 27.7491 10.2863C27.7303 10.2563 27.6553 10.1738 27.5428 10.1288H28.5816C28.4983 10.1588 28.4263 10.2138 28.3753 10.2863C28.3566 10.3163 28.3491 10.3575 28.3491 10.41V13.5487C28.3491 13.605 28.3566 13.6463 28.3753 13.6763C28.3941 13.7063 28.4691 13.7812 28.5816 13.8337H27.5428C27.6553 13.7812 27.7303 13.7063 27.7491 13.6763C27.7678 13.6463 27.7791 13.605 27.7791 13.5487Z" fill="#0081C6" stroke="#010002" stroke-width="0.125116" stroke-miterlimit="10"/>
<path d="M18.1808 14.6171C18.1808 14.6171 20.9633 13.3834 20.967 10.5371H15.3945C15.402 13.3871 18.1808 14.6171 18.1808 14.6171Z" fill="white" stroke="#010002" stroke-width="0.125116"/>
<path d="M15.8242 10.537V12.3557C15.8242 12.3557 16.0342 12.7795 16.2517 13.042V10.537H15.8242ZM16.6792 10.537V13.537C16.6792 13.537 16.9492 13.7995 17.1067 13.927V10.537H16.6792ZM17.538 10.537V14.2457C17.538 14.2457 17.8417 14.4407 17.9655 14.5082V10.5332H17.538V10.537ZM20.538 10.537V12.3557C20.538 12.3557 20.3242 12.7795 20.1067 13.042V10.537H20.538ZM19.6792 10.537V13.537C19.6792 13.537 19.413 13.7995 19.2517 13.927V10.537H19.6792ZM18.8242 10.537V14.2457C18.8242 14.2457 18.5167 14.4407 18.393 14.5082V10.5332H18.8242V10.537Z" fill="#A60032" stroke="#010002" stroke-width="0.125116"/>
<path d="M20.967 8.4682C20.967 8.4682 19.602 9.1807 18.1808 8.4082C16.7595 9.1807 15.3945 8.4682 15.3945 8.4682V10.5382H20.967V8.4682Z" fill="#162667" stroke="#010002" stroke-width="0.125116" stroke-miterlimit="10"/>
</g>
</g>
<defs>
<filter id="filter0_d_336_33389" x="0" y="-2" width="36" height="36" filterUnits="userSpaceOnUse" color-interpolation-filters="sRGB">
<feFlood flood-opacity="0" result="BackgroundImageFix"/>
<feColorMatrix in="SourceAlpha" type="matrix" values="0 0 0 0 0 0 0 0 0 0 0 0 0 0 0 0 0 0 127 0" result="hardAlpha"/>
<feOffset dy="4"/>
<feGaussianBlur stdDeviation="3"/>
<feComposite in2="hardAlpha" operator="out"/>
<feColorMatrix type="matrix" values="0 0 0 0 0 0 0 0 0 0 0 0 0 0 0 0 0 0 0.16 0"/>
<feBlend mode="normal" in2="BackgroundImageFix" result="effect1_dropShadow_336_33389"/>
<feBlend mode="normal" in="SourceGraphic" in2="effect1_dropShadow_336_33389" result="shape"/>
</filter>
<clipPath id="clip0_336_33389">
<rect width="24" height="18" fill="white" transform="translate(6 3)"/>
</clipPath>
</defs>
</svg>
