<svg width="36" height="31" viewBox="0 0 36 31" fill="none" xmlns="http://www.w3.org/2000/svg">
<g filter="url(#filter0_d_336_32737)">
<g clip-path="url(#clip0_336_32737)">
<path fill-rule="evenodd" clip-rule="evenodd" d="M4.5 15.002H31.5V18.0008H4.5V15.002Z" fill="#FFE700"/>
<path fill-rule="evenodd" clip-rule="evenodd" d="M4.5 12H31.5V14.9988H4.5V12Z" fill="black"/>
<path fill-rule="evenodd" clip-rule="evenodd" d="M4.5 9.00195H31.5V12.0008H4.5V9.00195Z" fill="#DE3908"/>
<path fill-rule="evenodd" clip-rule="evenodd" d="M4.5 6.00195H31.5V9.00078H4.5V6.00195Z" fill="#FFE700"/>
<path fill-rule="evenodd" clip-rule="evenodd" d="M4.5 3H31.5V5.99883H4.5V3Z" fill="black"/>
<path fill-rule="evenodd" clip-rule="evenodd" d="M20.8031 11.9992C20.8031 12.7423 20.5079 13.455 19.9825 13.9805C19.457 14.506 18.7443 14.8012 18.0012 14.8012C17.258 14.8012 16.5454 14.506 16.0199 13.9805C15.4944 13.455 15.1992 12.7423 15.1992 11.9992C15.1992 11.2561 15.4944 10.5434 16.0199 10.0179C16.5454 9.49247 17.258 9.19727 18.0012 9.19727C18.7443 9.19727 19.457 9.49247 19.9825 10.0179C20.5079 10.5434 20.8031 11.2561 20.8031 11.9992V11.9992Z" fill="#FFFDFF" stroke="black" stroke-width="0.078125"/>
<path fill-rule="evenodd" clip-rule="evenodd" d="M17.507 9.85117L17.3242 9.51719C17.3945 9.44687 17.5105 9.39062 17.7004 9.39062L17.6793 9.75977L17.5035 9.85117H17.507Z" fill="#DE3108" stroke="black" stroke-width="0.078125"/>
<path fill-rule="evenodd" clip-rule="evenodd" d="M17.6832 9.76022L17.7078 9.39108C17.7078 9.39108 18.084 9.36998 18.2879 9.61608L18.0875 9.90436L17.6797 9.76373L17.6832 9.76022Z" fill="#FFE700" stroke="black" stroke-width="0.078125"/>
<path fill-rule="evenodd" clip-rule="evenodd" d="M18.0898 9.90156L18.2762 9.61328C18.3992 9.74336 18.452 9.83477 18.4695 9.97539C18.473 9.97891 18.1777 10.0492 18.1777 10.0457L18.0898 9.90156V9.90156Z" fill="#DE3108" stroke="black" stroke-width="0.078125"/>
<path fill-rule="evenodd" clip-rule="evenodd" d="M17.6004 14.6403C17.6004 14.6403 17.9484 14.243 18.6234 14.3274C18.5214 14.1622 18.191 14.1833 18.191 14.1833C18.191 14.1833 18.0925 13.4098 18.1699 13.3676C18.2472 13.3254 18.5918 13.3711 18.5918 13.3711C18.6339 13.3711 18.7113 13.2516 18.648 13.1743C18.5882 13.0969 18.4089 12.8051 18.4828 12.7454C18.5566 12.6891 18.9539 12.7805 18.9539 12.7805L17.8289 11.3391C17.8289 11.3391 17.7129 10.7942 17.9449 10.5305C18.2226 10.302 18.191 10.0524 18.1839 10.0559C18.1453 9.80279 17.7621 9.62349 17.5019 9.85552C17.3507 10.0383 17.4527 10.179 17.4527 10.179C17.4527 10.179 17.0484 10.2879 17.0343 10.3583C17.0168 10.4286 17.4879 10.3477 17.4879 10.3477L17.4421 10.6676C17.4421 10.6676 16.5281 11.4973 17.2312 12.2145L17.2523 12.1864C17.2523 12.1864 17.4984 12.4887 17.755 12.5555C18.0011 12.8016 17.9765 12.7665 17.9765 12.7665C17.9765 12.7665 18.0222 13.1567 17.9765 13.234C17.9168 13.2165 17.298 13.1919 17.2066 13.227C17.1222 13.2551 16.8058 13.2376 16.8832 13.7579L16.9992 13.4942C16.9992 13.4942 16.9886 13.6805 17.066 13.7473C17.0519 13.5504 17.1398 13.4169 17.1398 13.4169C17.1398 13.4169 17.1539 13.6348 17.2031 13.6629C17.2523 13.6981 17.2523 13.3114 17.5195 13.3465C17.7796 13.3782 17.973 13.3676 17.973 13.3676C17.973 13.3676 18.0609 14.12 18.0328 14.1903C17.8429 14.1446 17.3859 14.2079 17.3578 14.3239C17.625 14.3063 17.748 14.3379 17.748 14.3379C17.748 14.3379 17.5336 14.5313 17.6004 14.6403V14.6403Z" fill="black" stroke="black" stroke-width="0.0703125" stroke-linecap="round" stroke-linejoin="round"/>
<path fill-rule="evenodd" clip-rule="evenodd" d="M17.7065 10.5523C17.7065 10.5523 17.042 11.2836 17.3303 11.8426C17.3444 11.7652 17.3373 11.716 17.3479 11.7195C17.3303 11.709 17.4288 11.7863 17.4217 11.7723C17.4217 11.7301 17.3936 11.6422 17.3936 11.6422L17.4815 11.6668L17.4288 11.5684L17.5588 11.5824C17.5588 11.5824 17.5131 11.4629 17.5272 11.4629L17.6327 11.4699C17.4428 11.1324 17.6221 10.8512 17.7065 10.5488V10.5523Z" fill="#9CA69C" stroke="#9CA69C" stroke-width="0.0703125" stroke-linecap="round" stroke-linejoin="round"/>
<path fill-rule="evenodd" clip-rule="evenodd" d="M17.9367 9.92188C17.9367 9.92188 17.9718 10.175 17.8312 10.2453C17.8136 10.2629 17.7257 10.291 17.7398 10.3438C17.7539 10.4141 17.7925 10.4 17.8453 10.3859C17.9894 10.3613 18.1582 10.0555 17.9367 9.92188Z" fill="#9CA69C" stroke="#9CA69C" stroke-width="0.078125"/>
<path fill-rule="evenodd" clip-rule="evenodd" d="M17.6914 10.1367C17.6914 10.1507 17.6859 10.1641 17.676 10.174C17.6661 10.1839 17.6527 10.1895 17.6387 10.1895C17.6247 10.1895 17.6113 10.1839 17.6014 10.174C17.5915 10.1641 17.5859 10.1507 17.5859 10.1367C17.5859 10.1227 17.5915 10.1093 17.6014 10.0994C17.6113 10.0895 17.6247 10.084 17.6387 10.084C17.6527 10.084 17.6661 10.0895 17.676 10.0994C17.6859 10.1093 17.6914 10.1227 17.6914 10.1367V10.1367Z" fill="white"/>
<path fill-rule="evenodd" clip-rule="evenodd" d="M17.4745 10.3477C17.4394 10.3793 17.2566 10.5691 17.4394 10.6395C17.6257 10.5902 17.573 10.5551 17.6152 10.5129C17.6152 10.425 17.5238 10.4039 17.4745 10.3512V10.3477Z" fill="#DE3108" stroke="black" stroke-width="0.078125"/>
<path fill-rule="evenodd" clip-rule="evenodd" d="M17.8806 12.1582C17.87 12.2004 17.8278 12.3551 17.8841 12.4746C18.0458 12.4043 18.1196 12.4254 18.1724 12.4605C18.0423 12.3551 17.9896 12.3094 17.8806 12.1582V12.1582Z" fill="#9CA69C" stroke="#9CA69C" stroke-width="0.0703125" stroke-linecap="round" stroke-linejoin="round"/>
<path fill-rule="evenodd" clip-rule="evenodd" d="M18.1562 12.8828L18.1633 13.2414C18.1633 13.2414 18.2898 13.2625 18.3461 13.2414C18.4023 13.2203 18.3461 12.9953 18.1562 12.8828Z" fill="white" stroke="white" stroke-width="0.0703125" stroke-linecap="round" stroke-linejoin="round"/>
<path fill-rule="evenodd" clip-rule="evenodd" d="M19.0567 12.9288C19.0567 12.9288 18.8282 12.3733 18.2411 12.2327C17.6539 12.0921 17.7313 11.4663 17.777 11.4276C17.8051 11.3749 17.8227 11.2905 17.9914 11.3714C18.1602 11.4522 18.9407 11.8425 19.0532 11.8636C19.1657 11.8846 19.0672 12.9429 19.0602 12.9288H19.0567Z" fill="#9CA69C" stroke="black" stroke-width="0.078125"/>
<path fill-rule="evenodd" clip-rule="evenodd" d="M18.4996 12.2277C18.4891 12.2348 19.2836 12.6988 19.0445 13.0961C19.2695 12.9449 19.1992 12.6848 19.1992 12.6848C19.1992 12.6848 19.382 13.1664 18.932 13.402C18.9812 13.4441 19.0129 13.4371 19.0129 13.4371L18.9355 13.5109C18.9355 13.5109 18.9004 13.5707 19.2027 13.423C19.1219 13.4898 19.1148 13.5391 19.1148 13.5391C19.1148 13.5391 19.1359 13.6023 19.3328 13.4301C19.1746 13.6023 19.1395 13.6902 19.1395 13.6867C19.5719 13.6516 20.5105 12.2453 18.8441 11.834L18.918 11.9113L18.4961 12.2277H18.4996Z" fill="#DE3108" stroke="black" stroke-width="0.0703125" stroke-linejoin="round"/>
<path fill-rule="evenodd" clip-rule="evenodd" d="M18.5349 12.0917C18.6404 12.1691 18.6791 12.1972 18.6931 12.2323C18.5947 12.2112 18.5068 12.2183 18.5068 12.2183C18.5068 12.2183 18.2924 12.0144 18.2537 11.9968C18.2256 11.9968 18.0568 11.8913 18.0568 11.8913C17.9759 11.8491 17.8986 11.5644 18.2045 11.6452C18.3218 11.7064 18.4427 11.7604 18.5666 11.807L18.9427 11.9265L19.1607 12.1691C19.1607 12.1691 18.774 11.9792 18.7248 11.9757C18.8302 12.0601 18.89 12.1796 18.89 12.1796C18.767 12.1445 18.6615 12.1093 18.5349 12.0917V12.0917Z" fill="white" stroke="black" stroke-width="0.0703125" stroke-linecap="round" stroke-linejoin="round"/>
<path d="M17.0312 10.3796C17.0312 10.3796 17.4004 10.2882 17.4461 10.3023" stroke="white" stroke-width="0.0703125" stroke-linecap="round"/>
<path fill-rule="evenodd" clip-rule="evenodd" d="M4.5 18.002H31.5V21.0008H4.5V18.002Z" fill="#DE3908"/>
</g>
</g>
<defs>
<filter id="filter0_d_336_32737" x="0" y="-2" width="36" height="36" filterUnits="userSpaceOnUse" color-interpolation-filters="sRGB">
<feFlood flood-opacity="0" result="BackgroundImageFix"/>
<feColorMatrix in="SourceAlpha" type="matrix" values="0 0 0 0 0 0 0 0 0 0 0 0 0 0 0 0 0 0 127 0" result="hardAlpha"/>
<feOffset dy="4"/>
<feGaussianBlur stdDeviation="3"/>
<feComposite in2="hardAlpha" operator="out"/>
<feColorMatrix type="matrix" values="0 0 0 0 0 0 0 0 0 0 0 0 0 0 0 0 0 0 0.16 0"/>
<feBlend mode="normal" in2="BackgroundImageFix" result="effect1_dropShadow_336_32737"/>
<feBlend mode="normal" in="SourceGraphic" in2="effect1_dropShadow_336_32737" result="shape"/>
</filter>
<clipPath id="clip0_336_32737">
<rect width="24" height="18" fill="white" transform="translate(6 3)"/>
</clipPath>
</defs>
</svg>
