<svg width="36" height="31" viewBox="0 0 36 31" fill="none" xmlns="http://www.w3.org/2000/svg">
<g filter="url(#filter0_d_336_17012)">
<g clip-path="url(#clip0_336_17012)">
<path fill-rule="evenodd" clip-rule="evenodd" d="M6 3H30V21H6V3Z" fill="#229E45"/>
<path fill-rule="evenodd" clip-rule="evenodd" d="M18.0519 19.3504L29.3581 12.0116L17.9844 4.65039L6.64062 12.0266L18.0519 19.3504Z" fill="#F8E509"/>
<path fill-rule="evenodd" clip-rule="evenodd" d="M22.9808 12C22.9808 14.6362 20.8395 16.7737 18.1958 16.7737C17.251 16.7723 16.328 16.4907 15.5432 15.9647C14.7585 15.4387 14.1473 14.6918 13.7869 13.8185C13.4266 12.9451 13.3333 11.9846 13.5188 11.0582C13.7043 10.1319 14.1602 9.28132 14.8291 8.61408C15.4979 7.94683 16.3495 7.49286 17.2763 7.30955C18.2031 7.12624 19.1634 7.22182 20.0359 7.58421C20.9084 7.9466 21.6538 8.55953 22.178 9.34552C22.7021 10.1315 22.9815 11.0553 22.9808 12V12Z" fill="#2B49A3"/>
<path fill-rule="evenodd" clip-rule="evenodd" d="M16.6236 14.8611L16.4736 14.7748L16.3236 14.8498L16.3573 14.6811L16.2373 14.5536L16.4061 14.5348L16.4886 14.3848L16.5598 14.5423L16.7248 14.5723L16.6011 14.6848M19.8261 15.6711L19.6798 15.5848L19.5298 15.6598L19.5598 15.4911L19.4436 15.3673L19.6123 15.3486L19.6911 15.1948L19.7661 15.3523L19.9311 15.3823L19.8036 15.4986M18.4461 14.3736L18.3186 14.2986L18.1873 14.3661L18.2173 14.2198L18.1123 14.1111L18.2623 14.0961L18.3298 13.9611L18.3898 14.0998L18.5361 14.1261L18.4236 14.2273M21.6861 13.9086L21.5586 13.8336L21.4273 13.9011L21.4573 13.7548L21.3561 13.6498L21.5023 13.6348L21.5698 13.5036L21.6298 13.6386L21.7723 13.6648L21.6636 13.7623M18.3898 12.9373L18.2398 12.8548L18.0898 12.9298L18.1198 12.7573L18.0036 12.6336L18.1723 12.6148L18.2511 12.4611L18.3261 12.6186L18.4911 12.6486L18.3636 12.7686M14.4411 11.4561L14.2911 11.3736L14.1411 11.4486L14.1786 11.2761L14.0548 11.1523L14.2273 11.1336L14.3023 10.9798L14.3773 11.1373L14.5423 11.1673L14.4186 11.2836M14.9173 13.4286L14.7673 13.3423L14.6173 13.4173L14.6511 13.2486L14.5311 13.1248L14.6998 13.1023L14.7786 12.9523L14.8536 13.1098L15.0186 13.1398L14.8948 13.2561M19.8448 10.7323L19.7098 10.6573L19.5748 10.7248L19.6048 10.5748L19.4998 10.4623L19.6498 10.4436L19.7211 10.3086L19.7848 10.4511L19.9348 10.4773L19.8223 10.5786M19.5711 12.0148L19.4698 11.9548L19.3611 12.0073L19.3836 11.8873L19.3011 11.8011L19.4211 11.7861L19.4773 11.6811L19.5261 11.7936L19.6386 11.8123L19.5561 11.8948M14.2236 13.7848L14.1223 13.7286L14.0211 13.7773L14.0436 13.6648L13.9648 13.5823L14.0773 13.5673L14.1298 13.4661L14.1786 13.5711L14.2911 13.5936L14.2048 13.6686M21.7123 14.2423L21.6298 14.2011L21.5473 14.2386L21.5661 14.1523L21.5023 14.0923L21.5923 14.0811L21.6373 14.0061L21.6748 14.0811L21.7686 14.0998L21.6973 14.1561" fill="#FFFFEF"/>
<path fill-rule="evenodd" clip-rule="evenodd" d="M14.2236 13.7855L14.1223 13.7293L14.0211 13.778L14.0436 13.6655L13.9648 13.583L14.0773 13.568L14.1298 13.4668L14.1786 13.5718L14.2911 13.5943L14.2048 13.6693" fill="#FFFFEF"/>
<path fill-rule="evenodd" clip-rule="evenodd" d="M14.2236 13.7848L14.1223 13.7286L14.0211 13.7773L14.0436 13.6648L13.9648 13.5823L14.0773 13.5673L14.1298 13.4661L14.1786 13.5711L14.2911 13.5936L14.2048 13.6686M15.7911 13.7811L15.6936 13.7286L15.5923 13.7773L15.6148 13.6648L15.5361 13.5823L15.6486 13.5673L15.7011 13.4661L15.7498 13.5711L15.8623 13.5898L15.7761 13.6686M15.5961 14.3061L15.4986 14.2498L15.3973 14.3023L15.4198 14.1898L15.3411 14.1036L15.4536 14.0886L15.5061 13.9873L15.5548 14.0923L15.6673 14.1148L15.5811 14.1898M18.8586 13.3573L18.7611 13.2973L18.6561 13.3498L18.6786 13.2373L18.6036 13.1511L18.7161 13.1398L18.7686 13.0386L18.8136 13.1436L18.9261 13.1623L18.8436 13.2411M17.9023 13.3536L17.8011 13.2973L17.6998 13.3498L17.7223 13.2373L17.6473 13.1511L17.7598 13.1398L17.8123 13.0348L17.8573 13.1436L17.9698 13.1623L17.8873 13.2411M15.3073 13.0236L15.2436 12.9861L15.1798 13.0161L15.1948 12.9448L15.1461 12.8923L15.2173 12.8848L15.2473 12.8211L15.2773 12.8886L15.3486 12.8998L15.2961 12.9486M21.5886 14.6511L21.4911 14.5948L21.3898 14.6473L21.4123 14.5348L21.3336 14.4486L21.4461 14.4336L21.4986 14.3323L21.5473 14.4373L21.6598 14.4598L21.5736 14.5348M20.7936 14.7598L20.7111 14.7073L20.6248 14.7523L20.6436 14.6548L20.5798 14.5873L20.6736 14.5761L20.7186 14.4898L20.7561 14.5798L20.8498 14.5948L20.7786 14.6623M21.1686 14.7486L21.0936 14.7036L21.0148 14.7411L21.0298 14.6548L20.9698 14.5911L21.0561 14.5798L21.0973 14.5048L21.1348 14.5798L21.2211 14.5986L21.1573 14.6586M22.2486 13.8036L22.1736 13.7661L22.0986 13.8036L22.1173 13.7173L22.0573 13.6536L22.1436 13.6423L22.1811 13.5673L22.2186 13.6461L22.2973 13.6611L22.2373 13.7211M20.7823 15.2886L20.6886 15.2361L20.5873 15.2811L20.6098 15.1761L20.5348 15.1011L20.6473 15.0898L20.6961 14.9961L20.7411 15.0936L20.8536 15.1123L20.7673 15.1836M20.7898 15.7161L20.6998 15.6636L20.6098 15.7123L20.6323 15.6073L20.5611 15.5323L20.6623 15.5173L20.7073 15.4236L20.7486 15.5211L20.8498 15.5398L20.7748 15.6148M20.0623 14.7486L19.9911 14.7036L19.9161 14.7411L19.9311 14.6586L19.8748 14.5948L19.9573 14.5873L19.9948 14.5123L20.0323 14.5873L20.1148 14.6023L20.0548 14.6623M19.3873 14.7486L19.3123 14.7036L19.2373 14.7411L19.2561 14.6586L19.1961 14.5948L19.2823 14.5873L19.3198 14.5123L19.3573 14.5873L19.4361 14.6023L19.3761 14.6623M18.2361 13.7398L18.1611 13.6986L18.0861 13.7361L18.1048 13.6498L18.0448 13.5898L18.1273 13.5786L18.1648 13.5036L18.2023 13.5786L18.2848 13.5973L18.2248 13.6536M18.3636 15.7911L18.3036 15.7573L18.2361 15.7911L18.2511 15.7161L18.2023 15.6636L18.2736 15.6561L18.3073 15.5923L18.3373 15.6598L18.4086 15.6711L18.3561 15.7198M16.6236 12.4723L16.4736 12.3861L16.3236 12.4611L16.3573 12.2923L16.2373 12.1686L16.4061 12.1461L16.4886 11.9961L16.5598 12.1536L16.7248 12.1836L16.6011 12.2998" fill="#FFFFEF"/>
<path fill-rule="evenodd" clip-rule="evenodd" d="M22.6658 13.7184C22.7587 13.4773 22.8314 13.229 22.8833 12.9759C20.3408 10.7447 17.5095 9.60091 13.932 9.83716C13.8023 10.0882 13.6956 10.3506 13.6133 10.6209C17.8508 10.2159 20.9633 12.0909 22.6658 13.7184Z" fill="white"/>
<path d="M21.5261 12.4646L21.6123 12.5134C21.5995 12.5388 21.5955 12.5679 21.6011 12.5959C21.6099 12.623 21.6286 12.6458 21.6536 12.6596C21.6798 12.6784 21.7061 12.6896 21.7286 12.6859C21.7511 12.6859 21.7661 12.6746 21.7773 12.6596C21.7839 12.6497 21.7865 12.6376 21.7848 12.6259C21.7818 12.612 21.7753 12.5991 21.7661 12.5884C21.7586 12.5771 21.7398 12.5509 21.7098 12.5209C21.679 12.489 21.6559 12.4505 21.6423 12.4084C21.633 12.3764 21.6354 12.3422 21.6492 12.3119C21.6629 12.2816 21.6871 12.2573 21.7173 12.2434C21.7446 12.232 21.7748 12.2294 21.8036 12.2359C21.8388 12.244 21.872 12.2593 21.9011 12.2809C21.9536 12.3184 21.9873 12.3559 21.9986 12.4009C22.0038 12.4219 22.0045 12.4438 22.0006 12.4651C21.9967 12.4865 21.9884 12.5067 21.9761 12.5246L21.8861 12.4684C21.8973 12.4459 21.9011 12.4234 21.8936 12.4046C21.8898 12.3859 21.8748 12.3671 21.8486 12.3521C21.8293 12.3366 21.8058 12.3274 21.7811 12.3259C21.7743 12.3256 21.7676 12.3273 21.7616 12.3306C21.7557 12.3339 21.7507 12.3387 21.7473 12.3446C21.7398 12.3559 21.7398 12.3671 21.7436 12.3821C21.7473 12.3971 21.7661 12.4271 21.8036 12.4646C21.8411 12.5021 21.8636 12.5359 21.8786 12.5584C21.892 12.5829 21.898 12.6108 21.896 12.6388C21.8941 12.6667 21.8841 12.6934 21.8673 12.7159C21.8498 12.7414 21.825 12.761 21.7961 12.7721C21.768 12.7851 21.7365 12.789 21.7061 12.7834C21.6723 12.7759 21.6386 12.7609 21.6011 12.7346C21.5448 12.6971 21.5111 12.6559 21.4998 12.6109C21.4876 12.5598 21.4957 12.5061 21.5223 12.4609L21.5261 12.4646ZM21.0911 12.1796L21.1848 12.2284C21.1732 12.2543 21.1706 12.2833 21.1773 12.3109C21.1869 12.3366 21.2056 12.3579 21.2298 12.3709C21.2598 12.3896 21.2823 12.3971 21.3048 12.3934C21.3273 12.3934 21.3423 12.3821 21.3536 12.3634C21.3593 12.3544 21.3619 12.3439 21.3611 12.3334C21.3611 12.3221 21.3536 12.3071 21.3423 12.2959C21.3231 12.2727 21.3031 12.2502 21.2823 12.2284C21.2411 12.1871 21.2148 12.1534 21.2073 12.1234C21.2012 12.1041 21.1994 12.0837 21.202 12.0636C21.2046 12.0435 21.2115 12.0242 21.2223 12.0071C21.2366 11.984 21.2575 11.9657 21.2823 11.9546C21.3081 11.9427 21.3368 11.9388 21.3648 11.9434C21.3995 11.9492 21.4327 11.962 21.4623 11.9809C21.5186 12.0184 21.5523 12.0559 21.5636 12.0971C21.5704 12.1182 21.5726 12.1405 21.57 12.1625C21.5674 12.1845 21.5601 12.2057 21.5486 12.2246L21.4548 12.1721C21.4661 12.1459 21.4698 12.1271 21.4623 12.1084C21.4548 12.0896 21.4398 12.0709 21.4136 12.0559C21.3928 12.041 21.3679 12.0331 21.3423 12.0334C21.3362 12.0338 21.3302 12.0357 21.325 12.039C21.3198 12.0422 21.3154 12.0468 21.3123 12.0521C21.3048 12.0634 21.3048 12.0746 21.3086 12.0896C21.3123 12.1046 21.3348 12.1346 21.3723 12.1721C21.4098 12.2096 21.4361 12.2396 21.4473 12.2621C21.4624 12.2856 21.4704 12.313 21.4704 12.3409C21.4704 12.3688 21.4624 12.3961 21.4473 12.4196C21.4312 12.4458 21.4077 12.4666 21.3798 12.4796C21.3517 12.4926 21.3203 12.4965 21.2898 12.4909C21.2512 12.4843 21.2143 12.4703 21.1811 12.4496C21.1326 12.4238 21.0953 12.3811 21.0761 12.3296C21.0616 12.2795 21.067 12.2258 21.0911 12.1796V12.1796ZM20.5586 12.0371L20.8323 11.5871L21.1623 11.7934L21.1173 11.8684L20.8773 11.7184L20.8173 11.8196L21.0423 11.9584L20.9936 12.0334L20.7686 11.8946L20.6936 12.0184L20.9448 12.1684L20.8998 12.2434L20.5623 12.0371H20.5586ZM19.7823 11.3996L19.8236 11.3246L20.0261 11.4259L19.9323 11.6134C19.9023 11.6209 19.8648 11.6246 19.8198 11.6209C19.7766 11.6161 19.7347 11.6034 19.6961 11.5834C19.6507 11.5613 19.6119 11.5276 19.5836 11.4859C19.5578 11.447 19.5447 11.4012 19.5461 11.3546C19.548 11.3061 19.5608 11.2587 19.5836 11.2159C19.6061 11.1708 19.6397 11.1321 19.6811 11.1034C19.7207 11.076 19.7679 11.0615 19.8161 11.0621C19.8536 11.0621 19.8911 11.0734 19.9361 11.0996C19.9961 11.1259 20.0336 11.1634 20.0523 11.2046C20.0718 11.2456 20.0758 11.2922 20.0636 11.3359L19.9623 11.3059C19.9685 11.2807 19.9659 11.2543 19.9548 11.2309C19.9436 11.2084 19.9248 11.1934 19.8948 11.1784C19.8774 11.1684 19.858 11.1622 19.8379 11.1603C19.8179 11.1583 19.7977 11.1607 19.7786 11.1671C19.7411 11.1784 19.7073 11.2121 19.6811 11.2646C19.6548 11.3171 19.6436 11.3659 19.6548 11.4071C19.66 11.4267 19.6694 11.4449 19.6824 11.4604C19.6953 11.476 19.7115 11.4885 19.7298 11.4971C19.7486 11.5084 19.7711 11.5159 19.7936 11.5159C19.816 11.5193 19.8387 11.5193 19.8611 11.5159L19.8911 11.4559L19.7823 11.3996V11.3996ZM16.3998 10.5634L16.4748 10.0384L16.6323 10.0646L16.6736 10.4321L16.8198 10.0946L16.9773 10.1171L16.9023 10.6346L16.8011 10.6196L16.8648 10.2109L16.6998 10.6046L16.5986 10.5896L16.5573 10.1659L16.4973 10.5784L16.3998 10.5634V10.5634ZM15.8711 10.4996L15.9198 9.97461L16.3061 10.0121L16.2986 10.1021L16.0173 10.0759L16.0061 10.1884L16.2686 10.2146L16.2573 10.3046L15.9948 10.2784L15.9836 10.4209L16.2761 10.4471L16.2686 10.5371L15.8711 10.4996V10.4996Z" fill="#309E3A"/>
<path d="M14.1181 10.1743C14.1181 10.118 14.1293 10.0768 14.1443 10.0393C14.1575 10.0126 14.1753 9.9885 14.1968 9.96805C14.2161 9.94865 14.239 9.93334 14.2643 9.92305C14.3018 9.9118 14.3393 9.9043 14.3768 9.9043C14.4556 9.9043 14.5156 9.9343 14.5643 9.9793C14.5875 10.008 14.6048 10.041 14.6151 10.0764C14.6254 10.1118 14.6285 10.1489 14.6243 10.1855C14.6243 10.268 14.5981 10.3355 14.5493 10.3843C14.5243 10.4075 14.4946 10.4251 14.4623 10.4361C14.43 10.4471 14.3958 10.4511 14.3618 10.448C14.3283 10.4484 14.2951 10.4419 14.2641 10.429C14.2332 10.4161 14.2052 10.3971 14.1818 10.373C14.1352 10.3178 14.1122 10.2464 14.1181 10.1743V10.1743Z" fill="#309E3A"/>
<path d="M14.2266 10.1742C14.2266 10.2305 14.2378 10.2755 14.2641 10.3092C14.2903 10.3392 14.3241 10.358 14.3691 10.358C14.3885 10.3593 14.4081 10.3563 14.4262 10.3492C14.4444 10.3421 14.4607 10.331 14.4741 10.3167C14.5003 10.2867 14.5116 10.2417 14.5153 10.178C14.5153 10.118 14.5078 10.073 14.4778 10.043C14.4656 10.0278 14.4502 10.0156 14.4327 10.0072C14.4152 9.99877 14.396 9.99433 14.3766 9.99421C14.3568 9.99358 14.3372 9.99728 14.3191 10.0051C14.3009 10.0128 14.2847 10.0245 14.2716 10.0392C14.2416 10.0692 14.2303 10.1142 14.2266 10.1742V10.1742Z" fill="#F7FFFF"/>
<path d="M14.7383 10.443L14.7458 9.91797H14.9708C15.027 9.91797 15.0645 9.92547 15.0908 9.93672C15.117 9.94422 15.1358 9.96297 15.1508 9.98547C15.1658 10.008 15.1733 10.038 15.1733 10.0717C15.1736 10.1078 15.1602 10.1426 15.1358 10.1692C15.1081 10.1952 15.0724 10.211 15.0345 10.2142L15.0908 10.2592C15.1058 10.2742 15.1245 10.3042 15.147 10.3455L15.2108 10.4505H15.0833L15.0083 10.3305L14.9558 10.2555C14.9467 10.2452 14.9351 10.2374 14.922 10.233C14.905 10.228 14.8873 10.2255 14.8695 10.2255H14.847V10.443H14.7383V10.443Z" fill="#309E3A"/>
<path d="M14.8516 10.1428H14.9266C14.9791 10.1428 15.0128 10.1428 15.0241 10.1353C15.0353 10.1353 15.0466 10.1241 15.0541 10.1166C15.0616 10.1091 15.0653 10.0903 15.0653 10.0791C15.0653 10.0566 15.0616 10.0416 15.0503 10.0341C15.0428 10.0228 15.0278 10.0153 15.0128 10.0116H14.9378L14.8516 10.0078V10.1391V10.1428Z" fill="white"/>
<path d="M15.3387 9.94531L15.5337 9.95656C15.575 9.95656 15.6087 9.96031 15.6312 9.96781C15.6604 9.9784 15.6863 9.99651 15.7062 10.0203C15.7279 10.0465 15.7432 10.0773 15.7512 10.1103C15.7625 10.1441 15.7662 10.1853 15.7625 10.2341C15.7625 10.2723 15.7561 10.3103 15.7437 10.3466C15.7287 10.3841 15.7063 10.4141 15.68 10.4366C15.6582 10.4546 15.6325 10.4674 15.605 10.4741C15.5825 10.4816 15.5488 10.4816 15.5113 10.4816L15.3125 10.4703L15.3387 9.94531V9.94531Z" fill="#309E3A"/>
<path d="M15.4406 10.0391L15.4219 10.3878H15.5644C15.5831 10.3878 15.5981 10.3803 15.6094 10.3691C15.6206 10.3578 15.6319 10.3428 15.6394 10.3203C15.6469 10.2978 15.6544 10.2641 15.6544 10.2228L15.6506 10.1291C15.6453 10.1093 15.6349 10.0912 15.6206 10.0766C15.6082 10.064 15.5927 10.055 15.5756 10.0503C15.5473 10.044 15.5184 10.0402 15.4894 10.0391H15.4406V10.0391Z" fill="white"/>
<path d="M17.9102 10.883L18.0339 10.373L18.1989 10.4105L18.3189 10.448C18.3452 10.463 18.3677 10.4855 18.3789 10.5193C18.3939 10.5493 18.3939 10.583 18.3864 10.6243C18.3789 10.6543 18.3677 10.6805 18.3489 10.6993C18.3352 10.7158 18.3179 10.729 18.2985 10.7381C18.2791 10.7471 18.2579 10.7518 18.2364 10.7518C18.2102 10.7518 18.1727 10.7443 18.1239 10.733L18.0602 10.7143L18.0152 10.9093L17.9102 10.883V10.883Z" fill="#309E3A"/>
<path d="M18.112 10.4863L18.082 10.6288L18.1383 10.6438C18.1758 10.6513 18.2058 10.6588 18.2208 10.6551C18.2354 10.6531 18.249 10.6466 18.2597 10.6365C18.2705 10.6264 18.2778 10.6133 18.2808 10.5988C18.2808 10.5801 18.2808 10.5651 18.2733 10.5501C18.2651 10.5348 18.2518 10.5229 18.2358 10.5163L18.1645 10.4976L18.1158 10.4863H18.112Z" fill="white"/>
<path d="M18.3984 11.0282L18.5747 10.5332L18.7809 10.6082C18.8372 10.627 18.8709 10.6457 18.8934 10.6607C18.9122 10.6795 18.9272 10.6982 18.9309 10.7282C18.9347 10.7582 18.9384 10.7845 18.9309 10.8145C18.9159 10.852 18.8934 10.8782 18.8634 10.897C18.8334 10.912 18.7959 10.9157 18.7509 10.9082C18.7659 10.927 18.7809 10.9457 18.7884 10.9682L18.8184 11.0695L18.8409 11.1857L18.7247 11.1445L18.6872 11.0095C18.6804 10.9789 18.6716 10.9489 18.6609 10.9195C18.656 10.9078 18.6482 10.8975 18.6384 10.8895C18.6309 10.8782 18.6159 10.8707 18.5897 10.8632L18.5709 10.8557L18.4959 11.0657L18.3984 11.0282V11.0282Z" fill="#309E3A"/>
<path d="M18.6014 10.7761L18.6727 10.8023C18.7214 10.8211 18.7514 10.8286 18.7664 10.8286C18.7777 10.8286 18.7889 10.8286 18.8002 10.8173C18.8114 10.8098 18.8189 10.7986 18.8227 10.7836C18.8302 10.7686 18.8302 10.7536 18.8227 10.7386C18.8171 10.7241 18.8064 10.7121 18.7927 10.7048L18.7177 10.6786L18.6427 10.6523L18.5977 10.7761H18.6014Z" fill="white"/>
<path d="M19.0135 11.0091C19.0264 10.9652 19.0481 10.9244 19.0772 10.8891C19.0962 10.8665 19.119 10.8475 19.1447 10.8329C19.168 10.8198 19.1934 10.8109 19.2197 10.8066C19.2572 10.8066 19.2947 10.8066 19.336 10.8216C19.3695 10.8299 19.4009 10.8453 19.428 10.8666C19.4552 10.8879 19.4775 10.9148 19.4935 10.9454C19.5235 11.0054 19.5235 11.0766 19.501 11.1591C19.4824 11.23 19.4366 11.2907 19.3735 11.3279C19.3172 11.3616 19.2497 11.3654 19.1785 11.3429C19.145 11.3344 19.1138 11.319 19.0866 11.2977C19.0595 11.2763 19.0372 11.2496 19.021 11.2191C19.0059 11.1864 18.9976 11.1509 18.9963 11.1149C18.995 11.0789 19.0008 11.0429 19.0135 11.0091V11.0091Z" fill="#309E3A"/>
<path d="M19.1182 11.039C19.1032 11.0953 19.0994 11.144 19.1182 11.1815C19.1369 11.219 19.1632 11.2415 19.2044 11.2565C19.2419 11.2678 19.2794 11.264 19.3169 11.2415C19.3544 11.2228 19.3769 11.1815 19.3957 11.1215C19.4144 11.0653 19.4144 11.0203 19.3957 10.9828C19.3883 10.965 19.377 10.949 19.3628 10.9361C19.3485 10.9231 19.3316 10.9135 19.3132 10.9078C19.2947 10.9014 19.2751 10.8991 19.2557 10.9011C19.2363 10.903 19.2175 10.9091 19.2007 10.919C19.1632 10.9415 19.1369 10.979 19.1182 11.039V11.039Z" fill="white"/>
<path d="M20.0352 11.7404L20.2752 11.2754L20.4739 11.3766C20.5114 11.3946 20.5456 11.4187 20.5752 11.4479C20.5939 11.4666 20.6052 11.4891 20.6052 11.5191C20.6052 11.5491 20.6052 11.5754 20.5902 11.6016C20.5757 11.6354 20.5489 11.6622 20.5152 11.6766C20.4777 11.6841 20.4402 11.6841 20.3989 11.6691C20.4139 11.6916 20.4214 11.7141 20.4289 11.7329C20.4364 11.7554 20.4402 11.7891 20.4439 11.8379L20.4514 11.9579L20.3389 11.9016L20.3239 11.7629C20.3221 11.7314 20.3184 11.7001 20.3127 11.6691C20.3101 11.6551 20.3036 11.6421 20.2939 11.6316L20.2489 11.6054L20.2302 11.5941L20.1289 11.7891L20.0352 11.7404V11.7404Z" fill="#309E3A"/>
<path d="M20.2695 11.5184L20.3408 11.5559C20.3858 11.5784 20.4158 11.5934 20.427 11.5934C20.4383 11.5934 20.4533 11.5934 20.4645 11.5859C20.4758 11.5822 20.4833 11.5709 20.4908 11.5559C20.4983 11.5409 20.502 11.5259 20.4983 11.5109C20.4937 11.496 20.4845 11.4829 20.472 11.4734C20.4501 11.46 20.4276 11.4475 20.4045 11.4359L20.3295 11.3984L20.2695 11.5184V11.5184Z" fill="white"/>
<path d="M21.9776 12.7018C22.0018 12.6633 22.0337 12.6301 22.0713 12.6043C22.0965 12.5882 22.1245 12.5767 22.1538 12.5706C22.181 12.565 22.2091 12.565 22.2363 12.5706C22.2738 12.5781 22.3076 12.5931 22.3413 12.6156C22.3705 12.6338 22.3956 12.6578 22.4149 12.6862C22.4343 12.7146 22.4476 12.7468 22.4538 12.7806C22.4651 12.8443 22.4463 12.9156 22.4013 12.9868C22.3637 13.0488 22.303 13.0933 22.2326 13.1106C22.199 13.1178 22.1643 13.1179 22.1307 13.1108C22.097 13.1037 22.0653 13.0896 22.0376 13.0693C22.0084 13.0511 21.9833 13.0271 21.9639 12.9987C21.9446 12.9703 21.9313 12.9381 21.9251 12.9043C21.9138 12.8368 21.9326 12.7693 21.9776 12.7018Z" fill="#309E3A"/>
<path d="M22.0708 12.762C22.0333 12.8107 22.022 12.8557 22.0295 12.897C22.0323 12.916 22.0391 12.9342 22.0494 12.9503C22.0598 12.9665 22.0734 12.9803 22.0895 12.9907C22.127 13.017 22.1645 13.0245 22.202 13.0132C22.2395 13.002 22.277 12.9757 22.3108 12.9232C22.3445 12.8707 22.3595 12.8257 22.352 12.7882C22.3483 12.7507 22.3258 12.717 22.292 12.6907C22.2583 12.6645 22.217 12.6607 22.1795 12.672C22.142 12.6795 22.1045 12.7095 22.067 12.762H22.0708Z" fill="white"/>
<path d="M17.3164 10.6683L17.4027 10.3008L17.6727 10.3645L17.6614 10.4245L17.4627 10.3795L17.4439 10.462L17.6277 10.5033L17.6127 10.567L17.4289 10.522L17.4064 10.6233L17.6127 10.672L17.5977 10.732L17.3164 10.6683V10.6683Z" fill="#309E3A"/>
</g>
</g>
<defs>
<filter id="filter0_d_336_17012" x="0" y="-2" width="36" height="36" filterUnits="userSpaceOnUse" color-interpolation-filters="sRGB">
<feFlood flood-opacity="0" result="BackgroundImageFix"/>
<feColorMatrix in="SourceAlpha" type="matrix" values="0 0 0 0 0 0 0 0 0 0 0 0 0 0 0 0 0 0 127 0" result="hardAlpha"/>
<feOffset dy="4"/>
<feGaussianBlur stdDeviation="3"/>
<feComposite in2="hardAlpha" operator="out"/>
<feColorMatrix type="matrix" values="0 0 0 0 0 0 0 0 0 0 0 0 0 0 0 0 0 0 0.16 0"/>
<feBlend mode="normal" in2="BackgroundImageFix" result="effect1_dropShadow_336_17012"/>
<feBlend mode="normal" in="SourceGraphic" in2="effect1_dropShadow_336_17012" result="shape"/>
</filter>
<clipPath id="clip0_336_17012">
<rect width="24" height="18" fill="white" transform="translate(6 3)"/>
</clipPath>
</defs>
</svg>
