<svg width="36" height="31" viewBox="0 0 36 31" fill="none" xmlns="http://www.w3.org/2000/svg">
<g filter="url(#filter0_d_336_33089)">
<g clip-path="url(#clip0_336_33089)">
<path fill-rule="evenodd" clip-rule="evenodd" d="M6 3H40.2V4.38516H6V3ZM6 5.77031H40.2V7.15547H6V5.77031ZM6 8.53711H40.2V9.92578H6V8.53711ZM6 11.3074H40.2V12.6926H6V11.3074ZM6 14.0777H40.2V15.4629H6V14.0777ZM6 16.8445H40.2V18.2297H6V16.8445ZM6 19.6148H40.2V21H6V19.6148Z" fill="#BD3D44"/>
<path fill-rule="evenodd" clip-rule="evenodd" d="M6 4.38477H40.2V5.76992H6V4.38477ZM6 7.15508H40.2V8.53672H6V7.15508ZM6 9.92188H40.2V11.307H6V9.92188ZM6 12.6922H40.2V14.0773H6V12.6922ZM6 15.4625H40.2V16.8477H6V15.4625ZM6 18.2293H40.2V19.6145H6V18.2293Z" fill="white"/>
<path fill-rule="evenodd" clip-rule="evenodd" d="M6 3H19.6793V12.6926H6V3Z" fill="#192F5D"/>
<path fill-rule="evenodd" clip-rule="evenodd" d="M7.14063 3.41406L7.26719 3.79727H7.66797L7.34453 4.03281L7.46758 4.41953L7.14063 4.18047L6.81719 4.41602L6.94023 4.03281L6.61328 3.79727H7.02109L7.14063 3.41406ZM9.42227 3.41406L9.54531 3.79727H9.94961L9.62266 4.03281L9.7457 4.41953L9.42227 4.18047L9.09531 4.41602L9.21836 4.03281L8.89492 3.79727H9.2957L9.42227 3.41406ZM11.7004 3.41406L11.827 3.79727H12.2242L11.9008 4.03281L12.0238 4.41953L11.6969 4.18047L11.3734 4.41602L11.4965 4.03281L11.1695 3.79727H11.5738L11.7004 3.41406ZM13.982 3.41406L14.1051 3.79727H14.5094L14.1824 4.03281L14.309 4.41953L13.982 4.18047L13.6551 4.41602L13.7816 4.03281L13.4547 3.79727H13.8555L13.982 3.41406ZM16.2602 3.41406L16.3867 3.79727H16.7875L16.4641 4.03281L16.5871 4.41953L16.2602 4.18047L15.9367 4.41602L16.0598 4.03281L15.7363 3.79727H16.1371L16.2602 3.41406ZM18.5418 3.41406L18.6648 3.79727H19.0691L18.7422 4.03281L18.8687 4.41953L18.5418 4.18047L18.2148 4.41602L18.3414 4.03281L18.0145 3.79727H18.4187L18.5418 3.41406ZM8.2832 4.38438L8.40625 4.76758H8.81055L8.48359 5.00313L8.60312 5.38633L8.28672 5.15078L7.95977 5.38633L8.07578 5.00313L7.75937 4.76758H8.16016L8.2832 4.38438ZM10.5613 4.38438L10.6879 4.76758H11.0887L10.7617 5.00313L10.8883 5.38633L10.5613 5.15078L10.2344 5.38633L10.3609 5.00313L10.034 4.76758H10.4383L10.5613 4.38438ZM12.843 4.38438L12.966 4.76758H13.3703L13.0434 5.00313L13.1664 5.38633L12.843 5.15078L12.516 5.38633L12.6391 5.00313L12.3156 4.76758H12.7164L12.843 4.38438ZM15.1211 4.38438L15.2477 4.76758H15.6484L15.3215 5.00313L15.448 5.38633L15.1211 5.15078L14.7977 5.38633L14.9207 5.00313L14.5937 4.76758H15.0016L15.1211 4.38438ZM17.4027 4.38438L17.5258 4.76758H17.9301L17.6031 5.00313L17.7262 5.38633L17.4027 5.15078L17.0758 5.38633L17.1988 5.00313L16.8754 4.76758H17.2762L17.4027 4.38438ZM7.14063 5.35117L7.26719 5.74141H7.66797L7.34453 5.97695L7.46758 6.36016L7.14063 6.12109L6.81719 6.36016L6.94023 5.97344L6.61328 5.73789H7.02109L7.14063 5.35117ZM9.42227 5.35117L9.54531 5.73789H9.94961L9.62266 5.97344L9.7457 6.35664L9.42227 6.11758L9.09531 6.35664L9.21836 5.96992L8.89492 5.73438H9.2957L9.42227 5.35117ZM11.7004 5.35117L11.827 5.73789H12.2242L11.9008 5.97344L12.0238 6.35664L11.6969 6.11758L11.3734 6.35664L11.4965 5.96992L11.1695 5.73438H11.5738L11.7004 5.35117ZM13.982 5.35117L14.1051 5.73789H14.5094L14.1824 5.97344L14.309 6.35664L13.982 6.11758L13.6551 6.35664L13.7816 5.96992L13.4547 5.73438H13.8555L13.982 5.35117ZM16.2602 5.35117L16.3867 5.73789H16.7875L16.4641 5.97344L16.5871 6.35664L16.2602 6.11758L15.9367 6.35664L16.0598 5.96992L15.7363 5.73438H16.1371L16.2602 5.35117ZM18.5418 5.35117L18.6648 5.73789H19.0691L18.7422 5.97344L18.8687 6.35664L18.5418 6.11758L18.2148 6.35664L18.3414 5.96992L18.0145 5.73438H18.4187L18.5418 5.35117ZM8.2832 6.32148L8.40625 6.70469H8.81055L8.48359 6.94023L8.60664 7.32695L8.2832 7.08789L7.95625 7.32344L8.0793 6.94023L7.75586 6.70469H8.15664L8.2832 6.32148ZM10.5613 6.32148L10.6879 6.70469H11.0887L10.7617 6.94023L10.8883 7.32695L10.5613 7.08789L10.2344 7.32344L10.3609 6.94023L10.034 6.70469H10.4383L10.5613 6.32148ZM12.843 6.32148L12.966 6.70469H13.3703L13.0434 6.94023L13.1664 7.32695L12.843 7.08789L12.516 7.32344L12.6391 6.94023L12.3156 6.70469H12.7164L12.843 6.32148ZM15.1211 6.32148L15.2477 6.70469H15.6484L15.325 6.94023L15.448 7.32695L15.1211 7.08789L14.7977 7.32344L14.9207 6.94023L14.5937 6.70469H15.0016L15.1211 6.32148ZM17.4027 6.32148L17.5258 6.70469H17.9301L17.6031 6.94023L17.7262 7.32695L17.4027 7.08789L17.0758 7.32344L17.1988 6.94023L16.8754 6.70469H17.2762L17.4027 6.32148ZM7.14063 7.2918L7.26719 7.675H7.66797L7.34453 7.91055L7.46758 8.29727L7.14063 8.0582L6.81719 8.29375L6.94023 7.91055L6.61328 7.675H7.02109L7.14063 7.2918ZM9.42227 7.2918L9.54531 7.675H9.94961L9.62266 7.91055L9.7457 8.29375L9.42227 8.0582L9.09531 8.29375L9.21836 7.91055L8.89492 7.675H9.2957L9.42227 7.2918ZM11.7004 7.2918L11.827 7.675H12.2242L11.9008 7.91055L12.0238 8.29727L11.6969 8.0582L11.3734 8.29375L11.4965 7.91055L11.1695 7.675H11.5738L11.7004 7.2918ZM13.982 7.2918L14.1051 7.675H14.5094L14.1824 7.91055L14.309 8.29727L13.982 8.0582L13.6551 8.29375L13.7816 7.91055L13.4547 7.675H13.8555L13.982 7.2918ZM16.2602 7.2918L16.3867 7.675H16.7875L16.4641 7.91055L16.5871 8.29727L16.2602 8.0582L15.9367 8.29375L16.0598 7.91055L15.7363 7.675H16.1371L16.2602 7.2918ZM18.5418 7.2918L18.6648 7.675H19.0691L18.7422 7.91055L18.8687 8.29727L18.5418 8.0582L18.2148 8.29375L18.3414 7.91055L18.0145 7.675H18.4187L18.5418 7.2918ZM8.2832 8.26211L8.40625 8.64531H8.81055L8.48359 8.88086L8.60664 9.26406L8.2832 9.025L7.95625 9.26406L8.0793 8.87734L7.75586 8.6418H8.15664L8.2832 8.26211ZM10.5613 8.26211L10.6879 8.64531H11.0887L10.7617 8.88086L10.8883 9.26406L10.5613 9.025L10.2344 9.26406L10.3609 8.87734L10.034 8.6418H10.4383L10.5613 8.26211ZM12.843 8.26211L12.966 8.64531H13.3703L13.0434 8.88086L13.1664 9.26406L12.843 9.025L12.516 9.26406L12.6391 8.87734L12.3156 8.6418H12.7164L12.843 8.26211ZM15.1211 8.26211L15.2477 8.64531H15.6484L15.325 8.88086L15.448 9.26406L15.1211 9.025L14.7977 9.26406L14.9207 8.87734L14.5937 8.6418H15.0016L15.1211 8.26211ZM17.4027 8.26211L17.5258 8.64531H17.9301L17.6031 8.88086L17.7262 9.26406L17.4027 9.025L17.0758 9.26406L17.1988 8.87734L16.8754 8.6418H17.2762L17.4027 8.26211ZM7.14063 9.22891L7.26719 9.61562H7.66797L7.34453 9.85117L7.46758 10.2309L7.14063 9.99531L6.81719 10.2309L6.94023 9.84766L6.61328 9.61211H7.02109L7.14063 9.22891ZM9.42227 9.22891L9.54531 9.61562H9.94961L9.62266 9.85117L9.74922 10.2309L9.42227 9.99531L9.09531 10.2309L9.22187 9.84766L8.89492 9.61211H9.2957L9.42227 9.22891ZM11.7004 9.22891L11.827 9.61562H12.2242L11.9008 9.85117L12.0238 10.2309L11.6969 9.99531L11.3734 10.2309L11.4965 9.84766L11.1695 9.61211H11.5738L11.7004 9.22891ZM13.982 9.22891L14.1051 9.61562H14.5094L14.1824 9.85117L14.309 10.2309L13.982 9.99531L13.6551 10.2309L13.7816 9.84766L13.4547 9.61211H13.8555L13.982 9.22891ZM16.2602 9.22891L16.3867 9.61562H16.7875L16.4641 9.85117L16.5871 10.2309L16.2602 9.99531L15.9367 10.2309L16.0598 9.84766L15.7363 9.61211H16.1371L16.2602 9.22891ZM18.5418 9.22891L18.6648 9.61562H19.0691L18.7422 9.85117L18.8687 10.2309L18.5418 9.99531L18.2148 10.2309L18.3414 9.84766L18.0145 9.61211H18.4187L18.5418 9.22891ZM8.2832 10.1992L8.40625 10.5824H8.81055L8.48359 10.818L8.60664 11.2047L8.2832 10.9656L7.95625 11.2012L8.0793 10.818L7.75586 10.5824H8.15664L8.2832 10.1992ZM10.5613 10.1992L10.6879 10.5824H11.0887L10.7617 10.818L10.8883 11.2047L10.5613 10.9656L10.2344 11.2012L10.3609 10.818L10.034 10.5824H10.4383L10.5613 10.1992ZM12.843 10.1992L12.966 10.5824H13.3703L13.0434 10.818L13.1664 11.2047L12.843 10.9656L12.516 11.2012L12.6391 10.818L12.3156 10.5824H12.7164L12.843 10.1992ZM15.1211 10.1992L15.2477 10.5824H15.6484L15.325 10.818L15.448 11.2047L15.1211 10.9656L14.7977 11.2012L14.9207 10.818L14.5937 10.5824H15.0016L15.1211 10.1992ZM17.4027 10.1992L17.5258 10.5824H17.9301L17.6031 10.818L17.7262 11.2047L17.4027 10.9656L17.0758 11.2012L17.1988 10.818L16.8754 10.5824H17.2762L17.4027 10.1992ZM7.14063 11.1695L7.26719 11.5527H7.66797L7.34453 11.7883L7.46758 12.1715L7.14063 11.9359L6.81719 12.1715L6.94023 11.7848L6.61328 11.5492H7.02109L7.14063 11.1695ZM9.42227 11.1695L9.54531 11.5527H9.94961L9.62266 11.7883L9.74922 12.1715L9.42227 11.9359L9.09531 12.1715L9.22187 11.7848L8.89492 11.5492H9.2957L9.42227 11.1695ZM11.7004 11.1695L11.827 11.5527H12.2242L11.9078 11.7883L12.0309 12.1715L11.7039 11.9359L11.3805 12.1715L11.5035 11.7848L11.1766 11.5492H11.5809L11.7004 11.1695ZM13.982 11.1695L14.1051 11.5527H14.5094L14.1824 11.7883L14.309 12.1715L13.982 11.9359L13.6551 12.1715L13.7816 11.7848L13.4547 11.5492H13.8555L13.982 11.1695ZM16.2602 11.1695L16.3867 11.5527H16.7875L16.4641 11.7883L16.5871 12.1715L16.2602 11.9359L15.9367 12.1715L16.0598 11.7848L15.7363 11.5492H16.1371L16.2602 11.1695ZM18.5418 11.1695L18.6648 11.5527H19.0691L18.7422 11.7883L18.8687 12.1715L18.5418 11.9359L18.2148 12.1715L18.3414 11.7848L18.0145 11.5492H18.4187L18.5418 11.1695Z" fill="white"/>
</g>
</g>
<defs>
<filter id="filter0_d_336_33089" x="0" y="-2" width="36" height="36" filterUnits="userSpaceOnUse" color-interpolation-filters="sRGB">
<feFlood flood-opacity="0" result="BackgroundImageFix"/>
<feColorMatrix in="SourceAlpha" type="matrix" values="0 0 0 0 0 0 0 0 0 0 0 0 0 0 0 0 0 0 127 0" result="hardAlpha"/>
<feOffset dy="4"/>
<feGaussianBlur stdDeviation="3"/>
<feComposite in2="hardAlpha" operator="out"/>
<feColorMatrix type="matrix" values="0 0 0 0 0 0 0 0 0 0 0 0 0 0 0 0 0 0 0.16 0"/>
<feBlend mode="normal" in2="BackgroundImageFix" result="effect1_dropShadow_336_33089"/>
<feBlend mode="normal" in="SourceGraphic" in2="effect1_dropShadow_336_33089" result="shape"/>
</filter>
<clipPath id="clip0_336_33089">
<rect width="24" height="18" fill="white" transform="translate(6 3)"/>
</clipPath>
</defs>
</svg>
