<svg width="36" height="31" viewBox="0 0 36 31" fill="none" xmlns="http://www.w3.org/2000/svg">
<g filter="url(#filter0_d_336_28182)">
<g clip-path="url(#clip0_336_28182)">
<path fill-rule="evenodd" clip-rule="evenodd" d="M4.5 16.5H31.5V21H4.5V16.5ZM4.5 3H31.5V7.5H4.5V3Z" fill="#EE161F"/>
<path fill-rule="evenodd" clip-rule="evenodd" d="M4.5 7.5H31.5V16.5H4.5V7.5Z" fill="white"/>
<path d="M17.8633 7.56992C17.5891 8.11484 17.4063 8.11484 16.9492 8.48398C16.7664 8.66328 16.4922 8.75469 16.8578 8.94102C16.4887 9.12031 16.3059 9.21172 16.123 9.57734L16.2145 9.66875C16.2145 9.66875 16.566 9.5 16.5801 9.57734C16.6434 9.65117 16.123 9.92891 16.0562 9.97461L15.6695 10.2207C15.209 10.5828 14.9312 10.4914 14.6605 11.0398L15.5746 10.9484C15.7574 11.5883 15.1176 11.6797 14.6605 11.9539L13.9258 12.4109C14.1121 13.0508 14.6605 12.6852 15.1176 12.5023L15.209 12.5937V12.7766L14.2949 13.2336C14.2949 13.2336 13.2121 13.8523 13.1945 13.8734C13.1875 13.9086 13.1945 14.0562 13.1945 14.0562C13.5602 14.1477 14.1086 14.2391 14.4777 14.0562C14.9348 13.8734 15.0262 13.6906 15.5746 13.6906C15.0467 14.1025 14.4128 14.3561 13.7465 14.4219V14.7875C14.2949 14.7875 14.6605 14.7875 15.1176 14.6961L16.3059 14.3305C16.5801 14.3305 16.8578 14.6047 16.7629 14.8789C16.4922 15.8844 15.3918 15.7016 15.0262 16.5242L16.4887 15.9723C16.8543 15.7895 17.2199 15.6102 17.677 15.7016C18.2254 15.8844 18.2254 16.25 18.9566 16.4328L18.7738 15.9758C18.9566 16.0672 19.1395 16.0672 19.3258 16.1586C19.7828 16.3414 19.8742 16.5242 20.4227 16.4328C19.9656 15.8844 19.8742 15.9758 19.5086 15.6102C19.143 15.0617 18.9566 14.2391 19.5086 14.1477L20.1484 14.3305C20.7883 14.4219 20.7883 14.2391 21.7023 14.6047C22.2543 14.7875 22.4371 15.0617 23.0734 14.8789C22.8027 14.2391 21.7973 13.782 21.1539 13.5992C21.8887 13.1422 21.7023 13.782 22.7113 13.5078V13.325C21.9836 12.773 21.7059 12.316 20.7004 12.316L22.2578 12.1332V11.9504C22.2578 11.9504 20.7215 11.5496 20.6863 11.532C20.6969 11.4863 20.7355 11.416 20.8375 11.3738C21.1293 11.5637 22.0082 11.5426 22.0609 11.5391C22.0328 11.3141 21.6145 11.1277 21.2523 10.9449C21.2523 10.9449 19.6809 9.97812 19.6738 9.89375C19.7055 9.64766 20.3172 9.93242 20.9746 10.1223C20.7918 9.75664 20.4262 9.57383 20.0605 9.48242L20.609 9.39102C20.2434 8.56836 19.3293 8.65977 18.7809 8.29414C18.4117 8.01992 18.4117 7.83711 17.8633 7.56641V7.56992Z" fill="#00A850"/>
<path fill-rule="evenodd" clip-rule="evenodd" d="M16.8742 13.6517C16.941 13.4373 17.0289 13.2439 16.6211 13.0576C16.2133 12.8713 16.825 13.7994 16.8742 13.6553V13.6517ZM17.3559 13.2193C17.275 13.2299 17.2293 13.5287 17.3945 13.6131C17.5773 13.6412 17.4297 13.2228 17.3559 13.2193ZM17.8305 13.1842C17.7461 13.2123 17.7426 13.6342 18.0414 13.5568C18.3438 13.483 18.0414 13.1525 17.8305 13.1877V13.1842ZM18.3859 12.1049C18.4492 11.9994 18.3824 11.5775 18.1258 11.7533C17.8656 11.9326 18.3016 12.133 18.3859 12.1049ZM17.8234 11.7533C17.9043 11.7217 17.9113 11.4615 17.6828 11.5318C17.4613 11.5986 17.7637 11.806 17.8234 11.7533ZM17.3172 11.8553C17.3172 11.8553 17.159 11.6373 17.0359 11.683C16.8848 11.8307 17.3277 11.8588 17.3172 11.8553ZM15.5734 12.5514C15.6402 12.5584 16.1359 12.4705 16.3082 12.2771C16.4805 12.0838 15.4258 12.358 15.4258 12.3615C15.4258 12.365 15.5242 12.5338 15.5734 12.5514V12.5514ZM20.534 11.3209C20.5586 11.2752 20.2703 11.0713 20.098 11.1521C20.0523 11.3033 20.534 11.3525 20.534 11.3209ZM19.5566 10.8287C19.6129 10.7514 19.4336 10.4314 19.075 10.6107C18.7164 10.7865 19.4512 10.9553 19.5566 10.8322V10.8287ZM18.4281 10.6424C18.4281 10.6424 18.516 10.3541 18.7305 10.4103C18.9766 10.5967 18.4387 10.6529 18.4281 10.6424ZM18.2172 10.4244C18.182 10.3435 17.9605 10.3892 17.7039 10.5615C17.4438 10.7267 18.2945 10.6107 18.2172 10.4209V10.4244ZM18.8746 9.64745C18.8746 9.64745 19.1031 9.54198 19.1734 9.64745C19.2684 9.79862 18.8711 9.64745 18.8746 9.64745ZM18.6812 9.5455C18.6355 9.45409 18.3824 9.44354 18.3895 9.58065C18.3473 9.68612 18.7199 9.66503 18.6812 9.5455ZM18.0766 9.5455C18.052 9.49276 17.6898 9.5455 17.5844 9.76347C17.7602 9.84784 18.1574 9.68261 18.0766 9.5455ZM17.3031 9.76698C17.3031 9.76698 16.832 10.0588 16.8004 10.2697C16.8145 10.4525 17.391 9.93925 17.391 9.93925C17.391 9.93925 17.4402 9.73534 17.3066 9.76698H17.3031ZM16.7793 9.50331C16.7934 9.44354 17.0148 9.30644 17.0324 9.31698C17.05 9.37675 16.8531 9.53847 16.7793 9.50331ZM16.9305 10.6142C16.941 10.5264 16.368 10.5334 16.5824 10.7971C16.7652 11.0185 16.9691 10.6529 16.9305 10.6142ZM16.4031 10.9904C16.375 10.9342 16.3328 10.7795 16.2555 10.7654C16.1887 10.7654 15.8441 10.8357 15.816 10.892C15.802 10.9377 15.9602 11.2225 16.0129 11.2295C16.0762 11.2541 16.3961 11.0185 16.4066 10.9904H16.4031ZM19.5109 12.931C19.5285 12.8678 20.1191 12.6674 20.3195 12.8607C20.5586 13.1877 19.4969 13.0365 19.5109 12.931ZM21.1281 13.3142C21.2582 13.0963 20.7309 12.8361 20.5094 13.0857C20.5867 13.3846 21.0227 13.4935 21.1281 13.3142Z" fill="white" stroke="white" stroke-width="0.250546" stroke-linecap="round" stroke-linejoin="round"/>
</g>
</g>
<defs>
<filter id="filter0_d_336_28182" x="0" y="-2" width="36" height="36" filterUnits="userSpaceOnUse" color-interpolation-filters="sRGB">
<feFlood flood-opacity="0" result="BackgroundImageFix"/>
<feColorMatrix in="SourceAlpha" type="matrix" values="0 0 0 0 0 0 0 0 0 0 0 0 0 0 0 0 0 0 127 0" result="hardAlpha"/>
<feOffset dy="4"/>
<feGaussianBlur stdDeviation="3"/>
<feComposite in2="hardAlpha" operator="out"/>
<feColorMatrix type="matrix" values="0 0 0 0 0 0 0 0 0 0 0 0 0 0 0 0 0 0 0.16 0"/>
<feBlend mode="normal" in2="BackgroundImageFix" result="effect1_dropShadow_336_28182"/>
<feBlend mode="normal" in="SourceGraphic" in2="effect1_dropShadow_336_28182" result="shape"/>
</filter>
<clipPath id="clip0_336_28182">
<rect width="24" height="18" fill="white" transform="translate(6 3)"/>
</clipPath>
</defs>
</svg>
