<svg width="36" height="31" viewBox="0 0 36 31" fill="none" xmlns="http://www.w3.org/2000/svg">
<g filter="url(#filter0_d_336_29077)">
<g clip-path="url(#clip0_336_29077)">
<path d="M6 3H30V21H6V3Z" fill="white"/>
<path d="M30 10.1992H6V13.7992H30V10.1992Z" fill="#CC0000"/>
<path d="M19.8008 21V3H16.2008V21H19.8008Z" fill="#CC0000"/>
<path fill-rule="evenodd" clip-rule="evenodd" d="M19.3194 8.49781C19.4319 8.31781 19.3644 8.19781 19.1919 8.16406C19.1919 8.16406 18.6332 8.34406 18.0294 8.36281C17.4294 8.38156 16.7169 8.21281 16.7169 8.21281C16.5857 8.29156 16.6157 8.48281 16.6794 8.60281C16.6794 8.60281 17.3094 8.81281 18.0294 8.79031C18.4134 8.774 18.7932 8.70459 19.1582 8.58406C19.2969 8.53906 19.3194 8.50156 19.3194 8.49781V8.49781Z" fill="#EBEAE3" stroke="black" stroke-width="0.0421875"/>
<path d="M18.0011 16.41L16.8423 14.0025L14.1836 14.205L15.6836 12L14.1836 9.795L16.8461 9.9975L18.0011 7.59375L19.1598 9.99375L21.8186 9.795L20.3186 12L21.8186 14.205L19.1561 14.0025L18.0011 16.41Z" fill="white" stroke="#161111" stroke-width="0.135"/>
<path fill-rule="evenodd" clip-rule="evenodd" d="M17.9805 7.58165C19.4355 7.82165 19.383 7.88915 19.383 7.88915L19.7617 6.75665C19.7617 6.75665 19.803 6.53165 19.698 6.39665C19.593 6.26165 19.3042 6.33665 19.3042 6.33665C19.3042 6.33665 19.2667 6.1529 19.1355 6.11165C19.008 6.06665 18.5355 6.2804 18.3855 6.32915C18.2355 6.3779 18.1605 6.4229 17.9542 6.41915C17.748 6.41915 17.3767 6.23165 17.3055 6.19415C17.2417 6.1604 17.1405 6.12665 17.0467 6.1304C16.9567 6.1304 16.8592 6.15665 16.8105 6.2204C16.7655 6.28415 16.7655 6.36665 16.7655 6.36665C16.7655 6.36665 16.6905 6.3179 16.5705 6.3179C16.4505 6.3179 16.383 6.3329 16.3267 6.39665C16.2705 6.4604 16.1992 6.6404 16.1992 6.6404L16.3342 6.9479L16.3417 7.37165L16.623 7.82165L17.9805 7.58165V7.58165Z" fill="#B02320" stroke="black" stroke-width="0.109687"/>
<path fill-rule="evenodd" clip-rule="evenodd" d="M19.3374 8.22469C19.3374 8.22469 19.4123 8.31094 19.4086 8.34469C19.4048 8.37469 19.3711 8.40094 19.3711 8.40094C19.3711 8.40094 19.3973 8.42344 19.3898 8.45719C19.3861 8.49469 19.3374 8.49469 19.3374 8.49469C19.3374 8.49469 19.3486 8.52469 19.3186 8.53969C19.2924 8.55469 19.1761 8.57719 19.1761 8.57719C19.1761 8.57719 18.6136 8.41969 18.0136 8.41969C17.4136 8.41969 16.7011 8.61469 16.7011 8.61469C16.7011 8.61469 16.6261 8.58844 16.6261 8.53969C16.6186 8.49469 16.6298 8.46094 16.6298 8.46094C16.6298 8.46094 16.5923 8.46094 16.5811 8.42719C16.5661 8.37844 16.5848 8.34094 16.5848 8.34094C16.5848 8.34094 16.5586 8.34844 16.5886 8.28469C16.6111 8.23594 16.6448 8.22094 16.6448 8.22094C16.6448 8.22094 17.2748 7.99594 17.9948 7.99219C18.7111 7.99219 19.3374 8.21719 19.3374 8.22469V8.22469Z" fill="#EBEAE3" stroke="black" stroke-width="0.0421875"/>
<path d="M16.3564 6.8061C16.3564 6.8061 16.3339 6.7236 16.3864 6.65235C16.4069 6.62668 16.4348 6.60789 16.4663 6.59851C16.4978 6.58912 16.5314 6.58959 16.5626 6.59985C16.5926 6.61485 16.5889 6.6486 16.6264 6.6561C16.6639 6.66735 16.6939 6.63735 16.6939 6.63735" stroke="black" stroke-width="0.0928125"/>
<path fill-rule="evenodd" clip-rule="evenodd" d="M19.8677 6.99812L19.6502 7.44812L19.5639 7.46312C19.5639 7.46312 19.5114 7.43312 19.3614 7.44437C19.2564 7.45187 19.2227 7.48187 19.2227 7.48187L19.4177 7.03187C19.4177 7.03187 19.4327 7.12562 19.4552 7.18187C19.4852 7.25687 19.5939 7.32062 19.5939 7.32062C19.5939 7.32062 19.6089 7.23437 19.5789 7.13312C19.5503 7.03954 19.5153 6.94806 19.4739 6.85938L19.8677 6.99812V6.99812Z" fill="#FFCC00" fill-opacity="0.9" stroke="black" stroke-width="0.10125"/>
<path d="M17.8672 5.5957H18.1109V6.63445H17.8672V5.5957Z" fill="#121116" stroke="#121116" stroke-width="0.10125" stroke-linejoin="round"/>
<path fill-rule="evenodd" clip-rule="evenodd" d="M16.3711 7.50789L16.5248 7.84539C16.5248 7.84539 17.1961 7.58289 17.9836 7.59039C19.1648 7.59789 19.5023 7.83414 19.5023 7.83414L19.6748 7.41789L19.5436 7.49289L19.4086 7.57914L19.2586 7.63539L19.0711 7.62414L18.9061 7.50414L18.8236 7.32789L18.6848 7.45539L18.4373 7.50789L18.1973 7.44789L17.9873 7.18164C17.9873 7.18164 17.8298 7.47789 17.6273 7.49664C17.3386 7.51914 17.1736 7.35789 17.1736 7.35789C17.1736 7.35789 17.0648 7.59789 16.8886 7.63914C16.6073 7.71039 16.3748 7.50789 16.3711 7.50789V7.50789Z" fill="#F6CA1F" stroke="black" stroke-width="0.084375"/>
<path d="M19.0638 5.46328C19.0638 5.53078 19.0113 5.59078 18.9401 5.59078C18.9233 5.59078 18.9067 5.58748 18.8913 5.58108C18.8758 5.57467 18.8617 5.56528 18.8499 5.55344C18.8381 5.5416 18.8287 5.52754 18.8223 5.51207C18.8159 5.4966 18.8126 5.48002 18.8126 5.46328C18.8121 5.44622 18.815 5.42924 18.8212 5.41334C18.8273 5.39743 18.8367 5.38293 18.8485 5.37069C18.8604 5.35845 18.8747 5.34872 18.8904 5.34208C18.9061 5.33544 18.923 5.33202 18.9401 5.33203C18.9732 5.33301 19.0047 5.34687 19.0278 5.37068C19.0509 5.39448 19.0638 5.42636 19.0638 5.45953" fill="#EEEEEE"/>
<path d="M19.0638 5.46328C19.0638 5.53078 19.0113 5.59078 18.9401 5.59078C18.9233 5.59078 18.9067 5.58748 18.8913 5.58108C18.8758 5.57467 18.8617 5.56528 18.8499 5.55344C18.8381 5.5416 18.8287 5.52754 18.8223 5.51207C18.8159 5.4966 18.8126 5.48002 18.8126 5.46328C18.8121 5.44622 18.815 5.42924 18.8212 5.41334C18.8273 5.39743 18.8367 5.38293 18.8485 5.37069C18.8604 5.35845 18.8747 5.34872 18.8904 5.34208C18.9061 5.33544 18.923 5.33202 18.9401 5.33203C18.9732 5.33301 19.0047 5.34687 19.0278 5.37068C19.0509 5.39448 19.0638 5.42636 19.0638 5.45953" stroke="#1E1E1E" stroke-width="0.10125" stroke-linejoin="round"/>
<path fill-rule="evenodd" clip-rule="evenodd" d="M18.8828 5.52742C18.8828 5.52742 18.9841 5.52742 18.9953 5.48617C19.0066 5.44117 18.9878 5.38867 18.9878 5.38867C18.9878 5.38867 19.0366 5.44117 19.0253 5.48242C19.0103 5.52367 18.9953 5.53492 18.9616 5.54617C18.9351 5.54898 18.9086 5.54234 18.8866 5.52742H18.8828Z" fill="#A3AFB8"/>
<path d="M18.7629 5.60592C18.7629 5.67342 18.7066 5.73342 18.6354 5.73342C18.6186 5.73342 18.602 5.73012 18.5866 5.72371C18.5711 5.7173 18.5571 5.70791 18.5452 5.69607C18.5334 5.68423 18.524 5.67018 18.5176 5.65471C18.5112 5.63924 18.5079 5.62266 18.5079 5.60592C18.5074 5.58854 18.5104 5.57124 18.5168 5.55508C18.5232 5.53892 18.5329 5.52425 18.5452 5.51195C18.5574 5.49966 18.5721 5.49001 18.5883 5.4836C18.6044 5.47719 18.6217 5.47415 18.6391 5.47467C18.6723 5.47465 18.7042 5.48757 18.728 5.51067C18.7518 5.53378 18.7656 5.56526 18.7666 5.59842" fill="#EEEEEE"/>
<path d="M18.7629 5.60592C18.7629 5.67342 18.7066 5.73342 18.6354 5.73342C18.6186 5.73342 18.602 5.73012 18.5866 5.72371C18.5711 5.7173 18.5571 5.70791 18.5452 5.69607C18.5334 5.68423 18.524 5.67018 18.5176 5.65471C18.5112 5.63924 18.5079 5.62266 18.5079 5.60592C18.5074 5.58854 18.5104 5.57124 18.5168 5.55508C18.5232 5.53892 18.5329 5.52425 18.5452 5.51195C18.5574 5.49966 18.5721 5.49001 18.5883 5.4836C18.6044 5.47719 18.6217 5.47415 18.6391 5.47467C18.6723 5.47465 18.7042 5.48757 18.728 5.51067C18.7518 5.53378 18.7656 5.56526 18.7666 5.59842" stroke="#1E1E1E" stroke-width="0.10125" stroke-linejoin="round"/>
<path fill-rule="evenodd" clip-rule="evenodd" d="M18.5742 5.67C18.5742 5.67 18.6792 5.67 18.6867 5.62875C18.698 5.5875 18.6792 5.53125 18.6792 5.53125C18.6792 5.53125 18.728 5.5875 18.7167 5.62875C18.7017 5.66625 18.6867 5.68125 18.653 5.68875C18.6265 5.69156 18.6 5.68491 18.578 5.67H18.5742Z" fill="#A3AFB8"/>
<path d="M19.423 5.3775C19.423 5.44875 19.363 5.505 19.2955 5.505C19.2617 5.505 19.2292 5.49157 19.2053 5.46766C19.1814 5.44375 19.168 5.41132 19.168 5.3775C19.168 5.34432 19.1809 5.31245 19.204 5.28864C19.2271 5.26484 19.2586 5.25098 19.2917 5.25C19.3255 5.25 19.358 5.26343 19.3819 5.28734C19.4058 5.31125 19.4192 5.34368 19.4192 5.3775" fill="#EEEEEE"/>
<path d="M19.423 5.3775C19.423 5.44875 19.363 5.505 19.2955 5.505C19.2617 5.505 19.2292 5.49157 19.2053 5.46766C19.1814 5.44375 19.168 5.41132 19.168 5.3775C19.168 5.34432 19.1809 5.31245 19.204 5.28864C19.2271 5.26484 19.2586 5.25098 19.2917 5.25C19.3255 5.25 19.358 5.26343 19.3819 5.28734C19.4058 5.31125 19.4192 5.34368 19.4192 5.3775" stroke="#1E1E1E" stroke-width="0.10125" stroke-linejoin="round"/>
<path fill-rule="evenodd" clip-rule="evenodd" d="M19.2383 5.44539C19.2383 5.44539 19.3395 5.44539 19.3508 5.40039C19.362 5.35914 19.3433 5.30664 19.3433 5.30664C19.3433 5.30664 19.392 5.35914 19.3808 5.40039C19.3658 5.44164 19.3508 5.45289 19.317 5.46039C19.291 5.4643 19.2645 5.459 19.242 5.44539H19.2383Z" fill="#A3AFB8"/>
<path d="M19.8216 5.45953C19.8216 5.52703 19.7653 5.58703 19.6978 5.58703C19.664 5.58703 19.6316 5.5736 19.6077 5.54969C19.5837 5.52578 19.5703 5.49335 19.5703 5.45953C19.5703 5.42572 19.5837 5.39329 19.6077 5.36938C19.6316 5.34546 19.664 5.33203 19.6978 5.33203C19.7303 5.33297 19.7613 5.34632 19.7843 5.36932C19.8073 5.39233 19.8206 5.42326 19.8216 5.45578" fill="#EEEEEE"/>
<path d="M19.8216 5.45953C19.8216 5.52703 19.7653 5.58703 19.6978 5.58703C19.664 5.58703 19.6316 5.5736 19.6077 5.54969C19.5837 5.52578 19.5703 5.49335 19.5703 5.45953C19.5703 5.42572 19.5837 5.39329 19.6077 5.36938C19.6316 5.34546 19.664 5.33203 19.6978 5.33203C19.7303 5.33297 19.7613 5.34632 19.7843 5.36932C19.8073 5.39233 19.8206 5.42326 19.8216 5.45578" stroke="#1E1E1E" stroke-width="0.10125" stroke-linejoin="round"/>
<path fill-rule="evenodd" clip-rule="evenodd" d="M19.6367 5.52352C19.6367 5.52352 19.738 5.52352 19.7492 5.48227C19.7605 5.43727 19.7417 5.38477 19.7417 5.38477C19.7417 5.38477 19.7905 5.43727 19.7792 5.48227C19.7642 5.51977 19.7492 5.53102 19.7155 5.54227C19.6878 5.546 19.6597 5.53932 19.6367 5.52352Z" fill="#A3AFB8"/>
<path d="M20.13 5.71148C20.13 5.77898 20.0737 5.83898 20.0025 5.83898C19.9687 5.83898 19.9363 5.82555 19.9123 5.80164C19.8884 5.77773 19.875 5.7453 19.875 5.71148C19.875 5.67767 19.8884 5.64524 19.9123 5.62133C19.9363 5.59742 19.9687 5.58398 20.0025 5.58398C20.0357 5.58397 20.0676 5.59689 20.0914 5.61999C20.1152 5.6431 20.129 5.67457 20.13 5.70773" fill="#EEEEEE"/>
<path d="M20.13 5.71148C20.13 5.77898 20.0737 5.83898 20.0025 5.83898C19.9687 5.83898 19.9363 5.82555 19.9123 5.80164C19.8884 5.77773 19.875 5.7453 19.875 5.71148C19.875 5.67767 19.8884 5.64524 19.9123 5.62133C19.9363 5.59742 19.9687 5.58398 20.0025 5.58398C20.0357 5.58397 20.0676 5.59689 20.0914 5.61999C20.1152 5.6431 20.129 5.67457 20.13 5.70773" stroke="#1E1E1E" stroke-width="0.10125" stroke-linejoin="round"/>
<path fill-rule="evenodd" clip-rule="evenodd" d="M19.9453 5.77547C19.9453 5.77547 20.0466 5.77547 20.0578 5.73422C20.0653 5.69297 20.0503 5.63672 20.0503 5.63672C20.0503 5.63672 20.0991 5.69297 20.0841 5.73422C20.0691 5.77172 20.0578 5.78672 20.0203 5.79422C19.9978 5.79797 19.9641 5.79047 19.9453 5.77547Z" fill="#A3AFB8"/>
<path d="M20.2591 6.12359C20.2591 6.19484 20.2028 6.25109 20.1316 6.25109C20.0984 6.25012 20.0669 6.23626 20.0438 6.21245C20.0207 6.18864 20.0078 6.15677 20.0078 6.12359C20.0078 6.09042 20.0207 6.05854 20.0438 6.03474C20.0669 6.01093 20.0984 5.99707 20.1316 5.99609C20.1654 5.99609 20.1978 6.00953 20.2217 6.03344C20.2456 6.05735 20.2591 6.08978 20.2591 6.12359Z" fill="#EEEEEE" stroke="#1E1E1E" stroke-width="0.10125" stroke-linejoin="round"/>
<path fill-rule="evenodd" clip-rule="evenodd" d="M20.0781 6.18758C20.0781 6.18758 20.1794 6.18758 20.1906 6.14633C20.1981 6.10508 20.1831 6.04883 20.1831 6.04883C20.1831 6.04883 20.2319 6.10508 20.2169 6.14633C20.2019 6.18383 20.1906 6.19883 20.1531 6.20633C20.1267 6.20913 20.1001 6.20249 20.0781 6.18758V6.18758Z" fill="#A3AFB8"/>
<path d="M20.2122 6.53961C20.2122 6.61461 20.156 6.66711 20.0847 6.66711C20.0522 6.66617 20.0213 6.65283 19.9983 6.62982C19.9753 6.60681 19.9619 6.57588 19.961 6.54336C19.9605 6.52661 19.9633 6.50993 19.9693 6.49427C19.9752 6.47861 19.9842 6.46428 19.9957 6.45209C20.0072 6.4399 20.0209 6.4301 20.0362 6.42324C20.0515 6.41638 20.068 6.41259 20.0847 6.41211C20.1186 6.41211 20.151 6.42554 20.1749 6.44945C20.1988 6.47336 20.2122 6.50579 20.2122 6.53961" fill="#EEEEEE"/>
<path d="M20.2122 6.53961C20.2122 6.61461 20.156 6.66711 20.0847 6.66711C20.0522 6.66617 20.0213 6.65283 19.9983 6.62982C19.9753 6.60681 19.9619 6.57588 19.961 6.54336C19.9605 6.52661 19.9633 6.50993 19.9693 6.49427C19.9752 6.47861 19.9842 6.46428 19.9957 6.45209C20.0072 6.4399 20.0209 6.4301 20.0362 6.42324C20.0515 6.41638 20.068 6.41259 20.0847 6.41211C20.1186 6.41211 20.151 6.42554 20.1749 6.44945C20.1988 6.47336 20.2122 6.50579 20.2122 6.53961" stroke="#1E1E1E" stroke-width="0.10125" stroke-linejoin="round"/>
<path fill-rule="evenodd" clip-rule="evenodd" d="M20.0234 6.6075C20.0234 6.6075 20.1284 6.6075 20.1359 6.5625C20.1472 6.525 20.1322 6.46875 20.1322 6.46875C20.1322 6.46875 20.1809 6.52125 20.1659 6.5625C20.1509 6.60375 20.1397 6.615 20.1022 6.6225C20.0762 6.62641 20.0497 6.62111 20.0272 6.6075H20.0234Z" fill="#A3AFB8"/>
<path d="M20.0247 6.9068C20.0247 6.97805 19.9684 7.0343 19.9009 7.0343C19.8671 7.0343 19.8347 7.02086 19.8108 6.99695C19.7869 6.97304 19.7734 6.94061 19.7734 6.9068C19.7734 6.87298 19.7869 6.84055 19.8108 6.81664C19.8347 6.79273 19.8671 6.7793 19.9009 6.7793C19.9341 6.78027 19.9656 6.79414 19.9887 6.81794C20.0118 6.84175 20.0247 6.87362 20.0247 6.9068" fill="#EEEEEE"/>
<path d="M20.0247 6.9068C20.0247 6.97805 19.9684 7.0343 19.9009 7.0343C19.8671 7.0343 19.8347 7.02086 19.8108 6.99695C19.7869 6.97304 19.7734 6.94061 19.7734 6.9068C19.7734 6.87298 19.7869 6.84055 19.8108 6.81664C19.8347 6.79273 19.8671 6.7793 19.9009 6.7793C19.9341 6.78027 19.9656 6.79414 19.9887 6.81794C20.0118 6.84175 20.0247 6.87362 20.0247 6.9068" stroke="#1E1E1E" stroke-width="0.10125" stroke-linejoin="round"/>
<path fill-rule="evenodd" clip-rule="evenodd" d="M19.8398 6.97469C19.8398 6.97469 19.9411 6.97469 19.9523 6.92969C19.9636 6.89219 19.9448 6.83594 19.9448 6.83594C19.9448 6.83594 19.9936 6.88844 19.9823 6.92969C19.9673 6.97094 19.9523 6.98219 19.9186 6.98969C19.8926 6.9936 19.8661 6.98829 19.8436 6.97469H19.8398Z" fill="#A3AFB8"/>
<path d="M18.4622 5.71539C18.4622 5.78664 18.4059 5.84289 18.3384 5.84289C18.3046 5.84289 18.2722 5.82946 18.2483 5.80555C18.2244 5.78164 18.2109 5.74921 18.2109 5.71539C18.2109 5.68222 18.2238 5.65034 18.2469 5.62653C18.2701 5.60273 18.3015 5.58887 18.3347 5.58789C18.3685 5.58789 18.4009 5.60132 18.4248 5.62523C18.4488 5.64915 18.4622 5.68158 18.4622 5.71539Z" fill="#EEEEEE" stroke="#1E1E1E" stroke-width="0.10125" stroke-linejoin="round"/>
<path fill-rule="evenodd" clip-rule="evenodd" d="M18.2773 5.78133C18.2773 5.78133 18.3786 5.78133 18.3898 5.73633C18.4011 5.69508 18.3823 5.64258 18.3823 5.64258C18.3823 5.64258 18.4311 5.69508 18.4198 5.73633C18.4048 5.77758 18.3898 5.78883 18.3561 5.79633C18.3298 5.80383 18.2961 5.79633 18.2773 5.78133V5.78133Z" fill="#A3AFB8"/>
<path d="M18.0773 5.68117C18.0778 5.69527 18.0754 5.70933 18.0704 5.72251C18.0653 5.73568 18.0577 5.7477 18.0479 5.75785C18.0381 5.76801 18.0263 5.77608 18.0133 5.78159C18.0003 5.7871 17.9864 5.78993 17.9723 5.78992C17.9581 5.78993 17.9442 5.7871 17.9312 5.78159C17.9182 5.77608 17.9065 5.76801 17.8966 5.75785C17.8868 5.7477 17.8792 5.73568 17.8741 5.72251C17.8691 5.70933 17.8668 5.69527 17.8673 5.68117C17.8673 5.65332 17.8783 5.62662 17.898 5.60693C17.9177 5.58723 17.9444 5.57617 17.9723 5.57617C18.0001 5.57617 18.0268 5.58723 18.0465 5.60693C18.0662 5.62662 18.0773 5.65332 18.0773 5.68117" fill="#EEEEEE"/>
<path d="M18.0773 5.68117C18.0778 5.69527 18.0754 5.70933 18.0704 5.72251C18.0653 5.73568 18.0577 5.7477 18.0479 5.75785C18.0381 5.76801 18.0263 5.77608 18.0133 5.78159C18.0003 5.7871 17.9864 5.78993 17.9723 5.78992C17.9581 5.78993 17.9442 5.7871 17.9312 5.78159C17.9182 5.77608 17.9065 5.76801 17.8966 5.75785C17.8868 5.7477 17.8792 5.73568 17.8741 5.72251C17.8691 5.70933 17.8668 5.69527 17.8673 5.68117C17.8673 5.65332 17.8783 5.62662 17.898 5.60693C17.9177 5.58723 17.9444 5.57617 17.9723 5.57617C18.0001 5.57617 18.0268 5.58723 18.0465 5.60693C18.0662 5.62662 18.0773 5.65332 18.0773 5.68117" stroke="#1E1E1E" stroke-width="0.10125" stroke-linejoin="round"/>
<path fill-rule="evenodd" clip-rule="evenodd" d="M17.9219 5.7375C17.9219 5.7375 18.0081 5.7375 18.0156 5.7C18.0269 5.66625 18.0119 5.625 18.0119 5.625C18.0119 5.625 18.0494 5.66625 18.0419 5.7C18.0269 5.7375 18.0156 5.745 17.9894 5.7525C17.9658 5.75628 17.9416 5.75092 17.9219 5.7375V5.7375Z" fill="#A3AFB8"/>
<path d="M18.0814 5.81203C18.0824 5.82644 18.0804 5.8409 18.0756 5.85452C18.0708 5.86814 18.0632 5.88062 18.0534 5.89117C18.0435 5.90173 18.0316 5.91015 18.0184 5.91589C18.0051 5.92163 17.9908 5.92457 17.9764 5.92453C17.9619 5.92457 17.9476 5.92163 17.9344 5.91589C17.9211 5.91015 17.9092 5.90173 17.8993 5.89117C17.8895 5.88062 17.8819 5.86814 17.8771 5.85452C17.8723 5.8409 17.8703 5.82644 17.8714 5.81203C17.8714 5.79824 17.8741 5.78459 17.8794 5.77185C17.8846 5.75911 17.8924 5.74754 17.9021 5.73779C17.9119 5.72804 17.9234 5.7203 17.9362 5.71502C17.9489 5.70975 17.9626 5.70703 17.9764 5.70703C18.0042 5.70703 18.0309 5.71809 18.0506 5.73779C18.0703 5.75748 18.0814 5.78418 18.0814 5.81203" fill="#EEEEEE"/>
<path d="M18.0814 5.81203C18.0824 5.82644 18.0804 5.8409 18.0756 5.85452C18.0708 5.86814 18.0632 5.88062 18.0534 5.89117C18.0435 5.90173 18.0316 5.91015 18.0184 5.91589C18.0051 5.92163 17.9908 5.92457 17.9764 5.92453C17.9619 5.92457 17.9476 5.92163 17.9344 5.91589C17.9211 5.91015 17.9092 5.90173 17.8993 5.89117C17.8895 5.88062 17.8819 5.86814 17.8771 5.85452C17.8723 5.8409 17.8703 5.82644 17.8714 5.81203C17.8714 5.79824 17.8741 5.78459 17.8794 5.77185C17.8846 5.75911 17.8924 5.74754 17.9021 5.73779C17.9119 5.72804 17.9234 5.7203 17.9362 5.71502C17.9489 5.70975 17.9626 5.70703 17.9764 5.70703C18.0042 5.70703 18.0309 5.71809 18.0506 5.73779C18.0703 5.75748 18.0814 5.78418 18.0814 5.81203" stroke="#1E1E1E" stroke-width="0.10125" stroke-linejoin="round"/>
<path fill-rule="evenodd" clip-rule="evenodd" d="M17.9258 5.86836C17.9258 5.86836 18.012 5.86836 18.0233 5.83086C18.0308 5.80086 18.0158 5.75586 18.0158 5.75586C18.0158 5.75586 18.0533 5.80086 18.0458 5.83086C18.0345 5.86836 18.0233 5.87586 17.9933 5.88336C17.9709 5.88619 17.9483 5.88086 17.9295 5.86836H17.9258Z" fill="#A3AFB8"/>
<path d="M18.0888 6.01116C18.0888 6.03901 18.0778 6.06572 18.0581 6.08541C18.0384 6.1051 18.0117 6.11616 17.9838 6.11616C17.9697 6.11667 17.9557 6.11432 17.9425 6.10927C17.9293 6.10422 17.9173 6.09657 17.9071 6.08677C17.897 6.07697 17.8889 6.06522 17.8834 6.05223C17.8779 6.03924 17.8751 6.02527 17.8751 6.01116C17.8745 5.99674 17.877 5.98236 17.8823 5.96893C17.8876 5.9555 17.8955 5.9433 17.9058 5.9331C17.916 5.92289 17.9282 5.9149 17.9416 5.90962C17.955 5.90434 17.9694 5.90189 17.9838 5.90241C17.9979 5.9024 18.0119 5.90524 18.0249 5.91075C18.0379 5.91626 18.0496 5.92433 18.0594 5.93448C18.0692 5.94463 18.0769 5.95665 18.0819 5.96983C18.087 5.983 18.0893 5.99706 18.0888 6.01116Z" fill="#EEEEEE" stroke="#1E1E1E" stroke-width="0.10125" stroke-linejoin="round"/>
<path fill-rule="evenodd" clip-rule="evenodd" d="M17.9336 6.06742C17.9336 6.06742 18.0161 6.06742 18.0273 6.02992C18.0348 5.99242 18.0198 5.95117 18.0198 5.95117C18.0198 5.95117 18.0573 5.99617 18.0498 6.02617C18.0386 6.06367 18.0273 6.07492 17.9973 6.07867C17.9754 6.08261 17.9528 6.07862 17.9336 6.06742V6.06742Z" fill="#A3AFB8"/>
<path d="M18.1001 6.21781C18.1006 6.2329 18.0981 6.24793 18.0926 6.26202C18.0872 6.2761 18.079 6.28895 18.0685 6.2998C18.058 6.31064 18.0454 6.31927 18.0315 6.32516C18.0176 6.33104 18.0027 6.33407 17.9876 6.33406C17.9725 6.33457 17.9575 6.33203 17.9434 6.3266C17.9293 6.32117 17.9165 6.31297 17.9056 6.30247C17.8948 6.29197 17.8861 6.2794 17.8803 6.2655C17.8744 6.2516 17.8713 6.23666 17.8713 6.22156C17.8703 6.20617 17.8725 6.19073 17.8777 6.1762C17.8828 6.16168 17.891 6.14837 17.9015 6.13712C17.9121 6.12587 17.9248 6.1169 17.939 6.11078C17.9531 6.10467 17.9684 6.10153 17.9838 6.10156C17.9989 6.10155 18.0139 6.10458 18.0278 6.11047C18.0417 6.11636 18.0543 6.12498 18.0647 6.13583C18.0752 6.14668 18.0835 6.15952 18.0889 6.17361C18.0943 6.18769 18.0968 6.20273 18.0963 6.21781" fill="#EEEEEE"/>
<path d="M18.1001 6.21781C18.1006 6.2329 18.0981 6.24793 18.0926 6.26202C18.0872 6.2761 18.079 6.28895 18.0685 6.2998C18.058 6.31064 18.0454 6.31927 18.0315 6.32516C18.0176 6.33104 18.0027 6.33407 17.9876 6.33406C17.9725 6.33457 17.9575 6.33203 17.9434 6.3266C17.9293 6.32117 17.9165 6.31297 17.9056 6.30247C17.8948 6.29197 17.8861 6.2794 17.8803 6.2655C17.8744 6.2516 17.8713 6.23666 17.8713 6.22156C17.8703 6.20617 17.8725 6.19073 17.8777 6.1762C17.8828 6.16168 17.891 6.14837 17.9015 6.13712C17.9121 6.12587 17.9248 6.1169 17.939 6.11078C17.9531 6.10467 17.9684 6.10153 17.9838 6.10156C17.9989 6.10155 18.0139 6.10458 18.0278 6.11047C18.0417 6.11636 18.0543 6.12498 18.0647 6.13583C18.0752 6.14668 18.0835 6.15952 18.0889 6.17361C18.0943 6.18769 18.0968 6.20273 18.0963 6.21781" stroke="#1E1E1E" stroke-width="0.10125" stroke-linejoin="round"/>
<path fill-rule="evenodd" clip-rule="evenodd" d="M17.9297 6.27805C17.9297 6.27805 18.0234 6.27805 18.0309 6.24055C18.0384 6.20305 18.0234 6.1543 18.0234 6.1543C18.0234 6.1543 18.0684 6.20305 18.0572 6.24055C18.0422 6.27805 18.0309 6.28555 18.0009 6.29305C17.9761 6.29744 17.9506 6.29206 17.9297 6.27805V6.27805Z" fill="#A3AFB8"/>
<path d="M18.1107 6.49844C18.1107 6.56594 18.0544 6.62594 17.9832 6.62594C17.95 6.62496 17.9185 6.6111 17.8954 6.58729C17.8723 6.56349 17.8594 6.53161 17.8594 6.49844C17.8589 6.48169 17.8617 6.46501 17.8677 6.44935C17.8736 6.43369 17.8826 6.41936 17.8941 6.40717C17.9056 6.39498 17.9194 6.38517 17.9347 6.37831C17.95 6.37145 17.9664 6.36767 17.9832 6.36719C18.017 6.36719 18.0494 6.38062 18.0733 6.40453C18.0972 6.42844 18.1107 6.46087 18.1107 6.49469" fill="#EEEEEE"/>
<path d="M18.1107 6.49844C18.1107 6.56594 18.0544 6.62594 17.9832 6.62594C17.95 6.62496 17.9185 6.6111 17.8954 6.58729C17.8723 6.56349 17.8594 6.53161 17.8594 6.49844C17.8589 6.48169 17.8617 6.46501 17.8677 6.44935C17.8736 6.43369 17.8826 6.41936 17.8941 6.40717C17.9056 6.39498 17.9194 6.38517 17.9347 6.37831C17.95 6.37145 17.9664 6.36767 17.9832 6.36719C18.017 6.36719 18.0494 6.38062 18.0733 6.40453C18.0972 6.42844 18.1107 6.46087 18.1107 6.49469" stroke="#1E1E1E" stroke-width="0.10125" stroke-linejoin="round"/>
<path fill-rule="evenodd" clip-rule="evenodd" d="M17.9258 6.56258C17.9258 6.56258 18.0308 6.56258 18.0383 6.52133C18.0495 6.48008 18.0345 6.42383 18.0345 6.42383C18.0345 6.42383 18.0833 6.48008 18.0683 6.52133C18.0533 6.55883 18.042 6.57383 18.0045 6.58133C17.9781 6.58413 17.9515 6.57749 17.9295 6.56258H17.9258Z" fill="#A3AFB8"/>
<path d="M18.0994 7.06922C18.0994 7.13672 18.0469 7.18922 17.9794 7.18922C17.9475 7.18922 17.917 7.17658 17.8945 7.15407C17.872 7.13157 17.8594 7.10104 17.8594 7.06922C17.8594 7.00547 17.9119 6.94922 17.9794 6.94922C18.0112 6.94922 18.0417 6.96186 18.0642 6.98437C18.0867 7.00687 18.0994 7.03739 18.0994 7.06922" fill="#EEEEEE"/>
<path d="M18.0994 7.06922C18.0994 7.13672 18.0469 7.18922 17.9794 7.18922C17.9475 7.18922 17.917 7.17658 17.8945 7.15407C17.872 7.13157 17.8594 7.10104 17.8594 7.06922C17.8594 7.00547 17.9119 6.94922 17.9794 6.94922C18.0112 6.94922 18.0417 6.96186 18.0642 6.98437C18.0867 7.00687 18.0994 7.03739 18.0994 7.06922" stroke="#1E1E1E" stroke-width="0.10125" stroke-linejoin="round"/>
<path fill-rule="evenodd" clip-rule="evenodd" d="M17.9219 7.1332C17.9219 7.1332 18.0194 7.1332 18.0269 7.09195C18.0381 7.05445 18.0231 7.00195 18.0231 7.00195C18.0231 7.00195 18.0681 7.0507 18.0531 7.09195C18.0419 7.12945 18.0269 7.1407 17.9969 7.1482C17.9744 7.15195 17.9406 7.14445 17.9219 7.1332Z" fill="#A3AFB8"/>
<path d="M17.7589 5.71148C17.7589 5.78273 17.6989 5.83898 17.6314 5.83898C17.5976 5.83898 17.5652 5.82555 17.5413 5.80164C17.5173 5.77773 17.5039 5.7453 17.5039 5.71148C17.5039 5.67767 17.5173 5.64524 17.5413 5.62133C17.5652 5.59742 17.5976 5.58398 17.6314 5.58398C17.6652 5.58398 17.6977 5.59742 17.7216 5.62133C17.7455 5.64524 17.7589 5.67767 17.7589 5.71148Z" fill="#EEEEEE" stroke="#1E1E1E" stroke-width="0.10125" stroke-linejoin="round"/>
<path fill-rule="evenodd" clip-rule="evenodd" d="M17.5703 5.77562C17.5703 5.77562 17.6716 5.77562 17.6828 5.73812C17.6941 5.69312 17.6753 5.64062 17.6753 5.64062C17.6753 5.64062 17.7241 5.69313 17.7128 5.73438C17.6978 5.77563 17.6828 5.78687 17.6491 5.79437C17.6231 5.79829 17.5965 5.79298 17.5741 5.77937L17.5703 5.77562Z" fill="#A3AFB8"/>
<path d="M17.4466 5.58648C17.4466 5.65773 17.3903 5.71398 17.3191 5.71398C17.2859 5.71301 17.2544 5.69915 17.2313 5.67534C17.2082 5.65153 17.1953 5.61966 17.1953 5.58648C17.1953 5.55331 17.2082 5.52143 17.2313 5.49763C17.2544 5.47382 17.2859 5.45996 17.3191 5.45898C17.3529 5.45898 17.3853 5.47242 17.4092 5.49633C17.4331 5.52024 17.4466 5.55267 17.4466 5.58648Z" fill="#EEEEEE" stroke="#1E1E1E" stroke-width="0.10125" stroke-linejoin="round"/>
<path fill-rule="evenodd" clip-rule="evenodd" d="M17.2617 5.65438C17.2617 5.65438 17.363 5.65438 17.3742 5.60938C17.3817 5.57188 17.3667 5.51562 17.3667 5.51562C17.3667 5.51562 17.4155 5.56813 17.4042 5.60938C17.3855 5.65063 17.3742 5.66187 17.3367 5.66937C17.3142 5.67687 17.2805 5.66938 17.2617 5.65438V5.65438Z" fill="#A3AFB8"/>
<path d="M17.1458 5.44766C17.1458 5.51516 17.0896 5.57516 17.0221 5.57516C16.9883 5.57516 16.9558 5.56172 16.9319 5.53781C16.908 5.5139 16.8946 5.48147 16.8946 5.44766C16.8941 5.43091 16.8969 5.41423 16.9028 5.39857C16.9088 5.38291 16.9178 5.36858 16.9293 5.35639C16.9408 5.3442 16.9545 5.33439 16.9698 5.32753C16.9851 5.32067 17.0016 5.31689 17.0183 5.31641C17.0522 5.31641 17.0846 5.32984 17.1085 5.35375C17.1324 5.37766 17.1458 5.41009 17.1458 5.44391" fill="#EEEEEE"/>
<path d="M17.1458 5.44766C17.1458 5.51516 17.0896 5.57516 17.0221 5.57516C16.9883 5.57516 16.9558 5.56172 16.9319 5.53781C16.908 5.5139 16.8946 5.48147 16.8946 5.44766C16.8941 5.43091 16.8969 5.41423 16.9028 5.39857C16.9088 5.38291 16.9178 5.36858 16.9293 5.35639C16.9408 5.3442 16.9545 5.33439 16.9698 5.32753C16.9851 5.32067 17.0016 5.31689 17.0183 5.31641C17.0522 5.31641 17.0846 5.32984 17.1085 5.35375C17.1324 5.37766 17.1458 5.41009 17.1458 5.44391" stroke="#1E1E1E" stroke-width="0.10125" stroke-linejoin="round"/>
<path fill-rule="evenodd" clip-rule="evenodd" d="M16.9609 5.5118C16.9609 5.5118 17.0622 5.5118 17.0734 5.47055C17.0847 5.4293 17.0659 5.37305 17.0659 5.37305C17.0659 5.37305 17.1147 5.4293 17.1034 5.47055C17.0884 5.50805 17.0734 5.52305 17.0397 5.53055C17.012 5.53428 16.984 5.5276 16.9609 5.5118Z" fill="#A3AFB8"/>
<path d="M16.7982 5.37344C16.7982 5.44469 16.7457 5.50094 16.6744 5.50094C16.6406 5.50094 16.6082 5.4875 16.5843 5.46359C16.5604 5.43968 16.5469 5.40725 16.5469 5.37344C16.5464 5.35638 16.5494 5.3394 16.5555 5.32349C16.5617 5.30759 16.571 5.29309 16.5829 5.28085C16.5948 5.26861 16.609 5.25888 16.6248 5.25224C16.6405 5.2456 16.6574 5.24218 16.6744 5.24219C16.7082 5.24219 16.7407 5.25562 16.7646 5.27953C16.7885 5.30344 16.8019 5.33587 16.8019 5.36969" fill="#EEEEEE"/>
<path d="M16.7982 5.37344C16.7982 5.44469 16.7457 5.50094 16.6744 5.50094C16.6406 5.50094 16.6082 5.4875 16.5843 5.46359C16.5604 5.43968 16.5469 5.40725 16.5469 5.37344C16.5464 5.35638 16.5494 5.3394 16.5555 5.32349C16.5617 5.30759 16.571 5.29309 16.5829 5.28085C16.5948 5.26861 16.609 5.25888 16.6248 5.25224C16.6405 5.2456 16.6574 5.24218 16.6744 5.24219C16.7082 5.24219 16.7407 5.25562 16.7646 5.27953C16.7885 5.30344 16.8019 5.33587 16.8019 5.36969" stroke="#1E1E1E" stroke-width="0.10125" stroke-linejoin="round"/>
<path fill-rule="evenodd" clip-rule="evenodd" d="M16.6172 5.43758C16.6172 5.43758 16.7184 5.43758 16.7297 5.39633C16.7409 5.35508 16.7222 5.29883 16.7222 5.29883C16.7222 5.29883 16.7709 5.35508 16.7597 5.39633C16.7447 5.43383 16.7297 5.44883 16.6959 5.45633C16.6695 5.45913 16.6429 5.45249 16.6209 5.43758H16.6172Z" fill="#A3AFB8"/>
<path d="M16.3958 5.46734C16.3958 5.54234 16.3396 5.59484 16.2721 5.59859C16.2383 5.59859 16.2058 5.58516 16.1819 5.56125C16.158 5.53734 16.1446 5.50491 16.1446 5.47109C16.1441 5.45404 16.147 5.43705 16.1532 5.42115C16.1594 5.40524 16.1687 5.39074 16.1806 5.3785C16.1925 5.36626 16.2067 5.35654 16.2224 5.34989C16.2381 5.34325 16.255 5.33984 16.2721 5.33984C16.3052 5.34082 16.3367 5.35468 16.3598 5.37849C16.3829 5.40229 16.3959 5.43417 16.3958 5.46734Z" fill="#EEEEEE" stroke="#1E1E1E" stroke-width="0.10125" stroke-linejoin="round"/>
<path fill-rule="evenodd" clip-rule="evenodd" d="M16.2109 5.53523C16.2109 5.53523 16.3122 5.53523 16.3234 5.49398C16.3347 5.44898 16.3159 5.39648 16.3159 5.39648C16.3159 5.39648 16.3647 5.44898 16.3534 5.49023C16.3384 5.53148 16.3234 5.54273 16.2897 5.55398C16.2633 5.55679 16.2367 5.55015 16.2147 5.53523H16.2109Z" fill="#A3AFB8"/>
<path d="M16.1106 5.75641C16.1106 5.82766 16.0544 5.88391 15.9831 5.88391C15.95 5.88293 15.9185 5.86907 15.8954 5.84526C15.8723 5.82146 15.8594 5.78958 15.8594 5.75641C15.8594 5.72323 15.8723 5.69136 15.8954 5.66755C15.9185 5.64374 15.95 5.62988 15.9831 5.62891C16.0169 5.62891 16.0494 5.64234 16.0733 5.66625C16.0972 5.69016 16.1106 5.72259 16.1106 5.75641Z" fill="#EEEEEE" stroke="#1E1E1E" stroke-width="0.10125" stroke-linejoin="round"/>
<path fill-rule="evenodd" clip-rule="evenodd" d="M15.9258 5.82039C15.9258 5.82039 16.027 5.82039 16.0383 5.77914C16.0458 5.73789 16.0308 5.68164 16.0308 5.68164C16.0308 5.68164 16.0795 5.73789 16.0645 5.77914C16.0495 5.81664 16.0383 5.83164 16.0008 5.83914C15.9744 5.84195 15.9478 5.8353 15.9258 5.82039V5.82039Z" fill="#A3AFB8"/>
<path d="M15.9895 6.1568C15.9895 6.22805 15.9333 6.2843 15.8658 6.2843C15.832 6.2843 15.7995 6.27086 15.7756 6.24695C15.7517 6.22304 15.7383 6.19061 15.7383 6.1568C15.7383 6.12362 15.7512 6.09175 15.7743 6.06794C15.7974 6.04414 15.8289 6.03027 15.862 6.0293C15.8952 6.02928 15.9271 6.0422 15.9509 6.06531C15.9747 6.08841 15.9886 6.11989 15.9895 6.15305" fill="#EEEEEE"/>
<path d="M15.9895 6.1568C15.9895 6.22805 15.9333 6.2843 15.8658 6.2843C15.832 6.2843 15.7995 6.27086 15.7756 6.24695C15.7517 6.22304 15.7383 6.19061 15.7383 6.1568C15.7383 6.12362 15.7512 6.09175 15.7743 6.06794C15.7974 6.04414 15.8289 6.03027 15.862 6.0293C15.8952 6.02928 15.9271 6.0422 15.9509 6.06531C15.9747 6.08841 15.9886 6.11989 15.9895 6.15305" stroke="#1E1E1E" stroke-width="0.10125" stroke-linejoin="round"/>
<path fill-rule="evenodd" clip-rule="evenodd" d="M15.8047 6.22453C15.8047 6.22453 15.9059 6.22078 15.9172 6.17953C15.9284 6.13828 15.9097 6.08203 15.9097 6.08203C15.9097 6.08203 15.9584 6.13828 15.9472 6.17953C15.9322 6.21703 15.9172 6.23203 15.8834 6.23953C15.8558 6.24327 15.8277 6.23659 15.8047 6.22078V6.22453Z" fill="#A3AFB8"/>
<path d="M16.0404 6.57281C16.0404 6.64781 15.9841 6.70406 15.9166 6.70406C15.8828 6.70406 15.8504 6.69063 15.8265 6.66672C15.8026 6.64281 15.7891 6.61038 15.7891 6.57656C15.7886 6.55982 15.7914 6.54314 15.7974 6.52748C15.8033 6.51182 15.8123 6.49748 15.8238 6.48529C15.8353 6.4731 15.8491 6.4633 15.8644 6.45644C15.8796 6.44958 15.8961 6.4458 15.9129 6.44531C15.9467 6.44531 15.9791 6.45875 16.003 6.48266C16.0269 6.50657 16.0404 6.539 16.0404 6.57281Z" fill="#EEEEEE" stroke="#1E1E1E" stroke-width="0.10125" stroke-linejoin="round"/>
<path fill-rule="evenodd" clip-rule="evenodd" d="M15.8594 6.6407C15.8594 6.6407 15.9606 6.6407 15.9719 6.5957C15.9831 6.5582 15.9644 6.50195 15.9644 6.50195C15.9644 6.50195 16.0131 6.55445 16.0019 6.5957C15.9869 6.63695 15.9719 6.6482 15.9381 6.65945C15.9117 6.66226 15.8851 6.65562 15.8631 6.6407H15.8594Z" fill="#A3AFB8"/>
<path d="M16.2357 6.95547C16.2357 7.02297 16.1794 7.08297 16.1082 7.08297C16.075 7.08199 16.0435 7.06813 16.0204 7.04432C15.9973 7.02052 15.9844 6.98864 15.9844 6.95547C15.9839 6.93872 15.9867 6.92204 15.9927 6.90638C15.9986 6.89072 16.0076 6.87639 16.0191 6.8642C16.0306 6.85201 16.0444 6.8422 16.0597 6.83534C16.075 6.82848 16.0914 6.8247 16.1082 6.82422C16.1249 6.82422 16.1415 6.82752 16.157 6.83392C16.1724 6.84033 16.1865 6.84972 16.1983 6.86156C16.2102 6.8734 16.2196 6.88746 16.226 6.90293C16.2324 6.9184 16.2357 6.93498 16.2357 6.95172" fill="#EEEEEE"/>
<path d="M16.2357 6.95547C16.2357 7.02297 16.1794 7.08297 16.1082 7.08297C16.075 7.08199 16.0435 7.06813 16.0204 7.04432C15.9973 7.02052 15.9844 6.98864 15.9844 6.95547C15.9839 6.93872 15.9867 6.92204 15.9927 6.90638C15.9986 6.89072 16.0076 6.87639 16.0191 6.8642C16.0306 6.85201 16.0444 6.8422 16.0597 6.83534C16.075 6.82848 16.0914 6.8247 16.1082 6.82422C16.1249 6.82422 16.1415 6.82752 16.157 6.83392C16.1724 6.84033 16.1865 6.84972 16.1983 6.86156C16.2102 6.8734 16.2196 6.88746 16.226 6.90293C16.2324 6.9184 16.2357 6.93498 16.2357 6.95172" stroke="#1E1E1E" stroke-width="0.10125" stroke-linejoin="round"/>
<path fill-rule="evenodd" clip-rule="evenodd" d="M16.0508 7.01961C16.0508 7.01961 16.1558 7.01961 16.1633 6.97836C16.1745 6.93711 16.1595 6.88086 16.1595 6.88086C16.1595 6.88086 16.2083 6.93336 16.197 6.97461C16.1783 7.01586 16.167 7.02711 16.1333 7.03836C16.1056 7.0421 16.0775 7.03541 16.0545 7.01961H16.0508Z" fill="#A3AFB8"/>
<path d="M16.4553 7.43145C16.4639 7.46369 16.4643 7.49678 16.4562 7.52355C16.4482 7.55033 16.4324 7.56865 16.4124 7.57457C16.3919 7.58004 16.3689 7.57235 16.3483 7.55319C16.3276 7.53403 16.3112 7.50497 16.3024 7.47241C16.2938 7.44016 16.2935 7.40708 16.3015 7.38031C16.3095 7.35353 16.3253 7.3352 16.3454 7.32929C16.3658 7.32382 16.3888 7.33151 16.4095 7.35067C16.4301 7.36982 16.4466 7.39888 16.4553 7.43145" fill="#EEEEEE"/>
<path d="M16.4553 7.43145C16.4639 7.46369 16.4643 7.49678 16.4562 7.52355C16.4482 7.55033 16.4324 7.56865 16.4124 7.57457C16.3919 7.58004 16.3689 7.57235 16.3483 7.55319C16.3276 7.53403 16.3112 7.50497 16.3024 7.47241C16.2938 7.44016 16.2935 7.40708 16.3015 7.38031C16.3095 7.35353 16.3253 7.3352 16.3454 7.32929C16.3658 7.32382 16.3888 7.33151 16.4095 7.35067C16.4301 7.36982 16.4466 7.39888 16.4553 7.43145" stroke="#1E1E1E" stroke-width="0.0975823" stroke-linejoin="round"/>
<path fill-rule="evenodd" clip-rule="evenodd" d="M16.3594 7.525C16.3594 7.525 16.4194 7.50625 16.4156 7.465C16.4156 7.42375 16.3894 7.375 16.3894 7.375C16.3894 7.375 16.4306 7.41625 16.4344 7.46125C16.4344 7.49875 16.4306 7.51375 16.4119 7.52875C16.4006 7.53625 16.3744 7.53625 16.3594 7.525Z" fill="#A3AFB8"/>
<path d="M19.7208 7.45627C19.7128 7.48868 19.6971 7.51782 19.6772 7.53739C19.6572 7.55696 19.6346 7.5654 19.6141 7.56088C19.5936 7.55581 19.5771 7.53795 19.5683 7.51122C19.5595 7.48449 19.5591 7.45108 19.5672 7.41835C19.5752 7.38594 19.5909 7.3568 19.6108 7.33723C19.6308 7.31766 19.6534 7.30922 19.6739 7.31374C19.6944 7.31881 19.7109 7.33667 19.7197 7.3634C19.7285 7.39013 19.7289 7.42354 19.7208 7.45627" fill="#EEEEEE"/>
<path d="M19.7208 7.45627C19.7128 7.48868 19.6971 7.51782 19.6772 7.53739C19.6572 7.55696 19.6346 7.5654 19.6141 7.56088C19.5936 7.55581 19.5771 7.53795 19.5683 7.51122C19.5595 7.48449 19.5591 7.45108 19.5672 7.41835C19.5752 7.38594 19.5909 7.3568 19.6108 7.33723C19.6308 7.31766 19.6534 7.30922 19.6739 7.31374C19.6944 7.31881 19.7109 7.33667 19.7197 7.3634C19.7285 7.39013 19.7289 7.42354 19.7208 7.45627" stroke="#1E1E1E" stroke-width="0.0975829" stroke-linejoin="round"/>
<path fill-rule="evenodd" clip-rule="evenodd" d="M19.5859 7.49305C19.5859 7.49305 19.6497 7.50805 19.6647 7.4668C19.6834 7.4293 19.6834 7.37305 19.6834 7.37305C19.6834 7.37305 19.7022 7.43305 19.6834 7.47055C19.6647 7.50805 19.6534 7.5193 19.6309 7.5193C19.6159 7.52305 19.5934 7.50805 19.5859 7.49305V7.49305Z" fill="#A3AFB8"/>
<path fill-rule="evenodd" clip-rule="evenodd" d="M17.8749 5.01742L17.8862 5.23117C17.8862 5.23117 17.6312 5.25367 17.6237 5.27617C17.5712 5.38867 17.6799 5.53867 17.6799 5.53867C17.6799 5.53867 17.7662 5.47117 17.9799 5.47117C18.1862 5.47117 18.2912 5.52367 18.2912 5.52367C18.2912 5.52367 18.3437 5.43742 18.3437 5.37367C18.3437 5.30992 18.3212 5.24617 18.3212 5.24617L18.1862 5.23117H18.0924L18.0849 5.01367L17.8749 5.01742V5.01742Z" fill="#B3A192" stroke="black" stroke-width="0.10125"/>
<path d="M18.2389 5.34742C18.2389 5.37367 18.2164 5.39242 18.1939 5.39242C18.1677 5.39242 18.1452 5.37367 18.1452 5.35117C18.1452 5.32492 18.1677 5.30617 18.1902 5.30617C18.2164 5.30617 18.2352 5.32492 18.2389 5.34742ZM18.3402 5.37367C18.3402 5.39617 18.3214 5.41867 18.2952 5.41867C18.2689 5.41867 18.2464 5.39617 18.2464 5.37367C18.2464 5.34742 18.2689 5.32867 18.2952 5.32867C18.3214 5.32867 18.3402 5.34742 18.3402 5.37367M18.1339 5.34742C18.1339 5.36992 18.1114 5.39242 18.0889 5.39242C18.0627 5.39242 18.0439 5.36992 18.0439 5.34742C18.0439 5.32492 18.0627 5.30242 18.0852 5.30242C18.1114 5.30242 18.1339 5.32492 18.1339 5.34742M17.9239 5.34742C17.9239 5.37367 17.9014 5.39617 17.8752 5.39617C17.8489 5.39617 17.8302 5.37367 17.8302 5.35117C17.8302 5.32492 17.8489 5.30617 17.8752 5.30617C17.9014 5.30617 17.9239 5.32492 17.9239 5.35117M17.8077 5.35867C17.8077 5.38117 17.7852 5.40367 17.7589 5.40367C17.7327 5.40367 17.7139 5.38492 17.7139 5.35867C17.7139 5.33242 17.7327 5.31367 17.7589 5.31367C17.7852 5.31367 17.8077 5.33242 17.8077 5.35867ZM18.0214 5.22742C18.0214 5.24992 18.0027 5.26492 17.9839 5.26492C17.9784 5.26605 17.9727 5.26592 17.9672 5.26455C17.9618 5.26317 17.9567 5.26059 17.9524 5.25699C17.9481 5.25339 17.9446 5.24886 17.9423 5.24374C17.9399 5.23862 17.9388 5.23305 17.9389 5.22742C17.9389 5.20492 17.9577 5.18992 17.9802 5.18992C18.0027 5.18992 18.0177 5.20492 18.0177 5.22742M18.0177 5.05117C18.0177 5.06992 18.0027 5.08867 17.9802 5.08867C17.9702 5.08867 17.9607 5.08472 17.9536 5.07769C17.9466 5.07066 17.9427 5.06112 17.9427 5.05117C17.9427 5.02867 17.9577 5.01367 17.9802 5.01367C18.0027 5.01367 18.0177 5.02867 18.0177 5.05117ZM18.0177 5.14492C18.0177 5.16742 18.0027 5.18242 17.9802 5.18242C17.9577 5.18242 17.9427 5.16742 17.9427 5.14492C17.9427 5.12617 17.9577 5.10742 17.9802 5.10742C18.0027 5.10742 18.0177 5.12242 18.0177 5.14492ZM17.6877 5.38867C17.6877 5.41492 17.6689 5.43367 17.6427 5.43367C17.6202 5.43367 17.5977 5.41492 17.5977 5.38867C17.5977 5.36617 17.6164 5.34742 17.6427 5.34742C17.6689 5.34742 17.6877 5.36617 17.6877 5.38867Z" fill="#F0DDCB"/>
<path d="M18.3402 5.37367C18.3402 5.39617 18.3214 5.41867 18.2952 5.41867C18.2689 5.41867 18.2464 5.39617 18.2464 5.37367C18.2464 5.34742 18.2689 5.32867 18.2952 5.32867C18.3214 5.32867 18.3402 5.34742 18.3402 5.37367M18.1339 5.34742C18.1339 5.36992 18.1114 5.39242 18.0889 5.39242C18.0627 5.39242 18.0439 5.36992 18.0439 5.34742C18.0439 5.32492 18.0627 5.30242 18.0852 5.30242C18.1114 5.30242 18.1339 5.32492 18.1339 5.34742M17.9239 5.34742C17.9239 5.37367 17.9014 5.39617 17.8752 5.39617C17.8489 5.39617 17.8302 5.37367 17.8302 5.35117C17.8302 5.32492 17.8489 5.30617 17.8752 5.30617C17.9014 5.30617 17.9239 5.32492 17.9239 5.35117M18.0214 5.22742C18.0214 5.24992 18.0027 5.26492 17.9839 5.26492C17.9784 5.26605 17.9727 5.26592 17.9672 5.26455C17.9618 5.26317 17.9567 5.26059 17.9524 5.25699C17.9481 5.25339 17.9446 5.24886 17.9423 5.24374C17.9399 5.23862 17.9388 5.23305 17.9389 5.22742C17.9389 5.20492 17.9577 5.18992 17.9802 5.18992C18.0027 5.18992 18.0177 5.20492 18.0177 5.22742M18.2389 5.34742C18.2389 5.37367 18.2164 5.39242 18.1939 5.39242C18.1677 5.39242 18.1452 5.37367 18.1452 5.35117C18.1452 5.32492 18.1677 5.30617 18.1902 5.30617C18.2164 5.30617 18.2352 5.32492 18.2389 5.34742ZM17.8077 5.35867C17.8077 5.38117 17.7852 5.40367 17.7589 5.40367C17.7327 5.40367 17.7139 5.38492 17.7139 5.35867C17.7139 5.33242 17.7327 5.31367 17.7589 5.31367C17.7852 5.31367 17.8077 5.33242 17.8077 5.35867ZM18.0177 5.05117C18.0177 5.06992 18.0027 5.08867 17.9802 5.08867C17.9702 5.08867 17.9607 5.08472 17.9536 5.07769C17.9466 5.07066 17.9427 5.06112 17.9427 5.05117C17.9427 5.02867 17.9577 5.01367 17.9802 5.01367C18.0027 5.01367 18.0177 5.02867 18.0177 5.05117ZM18.0177 5.14492C18.0177 5.16742 18.0027 5.18242 17.9802 5.18242C17.9577 5.18242 17.9427 5.16742 17.9427 5.14492C17.9427 5.12617 17.9577 5.10742 17.9802 5.10742C18.0027 5.10742 18.0177 5.12242 18.0177 5.14492ZM17.6877 5.38867C17.6877 5.41492 17.6689 5.43367 17.6427 5.43367C17.6202 5.43367 17.5977 5.41492 17.5977 5.38867C17.5977 5.36617 17.6164 5.34742 17.6427 5.34742C17.6689 5.34742 17.6877 5.36617 17.6877 5.38867Z" stroke="#121116" stroke-width="0.050625" stroke-linejoin="round"/>
<path d="M18.0348 5.33977C18.0348 5.36602 18.0123 5.38477 17.9823 5.38477C17.97 5.3848 17.9582 5.38018 17.9491 5.37184C17.9401 5.36349 17.9345 5.35203 17.9336 5.33977C17.9336 5.31352 17.9561 5.29102 17.9823 5.29102C18.0086 5.29102 18.0311 5.31352 18.0311 5.33977" fill="#916C68"/>
<path d="M18.0348 5.33977C18.0348 5.36602 18.0123 5.38477 17.9823 5.38477C17.97 5.3848 17.9582 5.38018 17.9491 5.37184C17.9401 5.36349 17.9345 5.35203 17.9336 5.33977C17.9336 5.31352 17.9561 5.29102 17.9823 5.29102C18.0086 5.29102 18.0311 5.31352 18.0311 5.33977" stroke="#4D3126" stroke-width="0.050625" stroke-linejoin="round"/>
<path d="M18.0744 4.70687C18.0745 4.7311 18.0651 4.7544 18.0483 4.77187C18.0316 4.78935 18.0087 4.79966 17.9845 4.80062C17.9721 4.80062 17.9599 4.7982 17.9486 4.79349C17.9372 4.78878 17.9269 4.78187 17.9182 4.77317C17.9095 4.76446 17.9025 4.75413 17.8978 4.74275C17.8931 4.73138 17.8907 4.71919 17.8907 4.70687C17.8902 4.69425 17.8922 4.68166 17.8967 4.66985C17.9012 4.65804 17.908 4.64725 17.9168 4.63815C17.9256 4.62904 17.9361 4.6218 17.9477 4.61685C17.9593 4.61191 17.9718 4.60936 17.9845 4.60938C18.0093 4.60938 18.0332 4.61925 18.0507 4.63683C18.0683 4.65442 18.0782 4.67826 18.0782 4.70313" fill="#EEEEEE"/>
<path d="M18.0744 4.70687C18.0745 4.7311 18.0651 4.7544 18.0483 4.77187C18.0316 4.78935 18.0087 4.79966 17.9845 4.80062C17.9721 4.80062 17.9599 4.7982 17.9486 4.79349C17.9372 4.78878 17.9269 4.78187 17.9182 4.77317C17.9095 4.76446 17.9025 4.75413 17.8978 4.74275C17.8931 4.73138 17.8907 4.71919 17.8907 4.70687C17.8902 4.69425 17.8922 4.68166 17.8967 4.66985C17.9012 4.65804 17.908 4.64725 17.9168 4.63815C17.9256 4.62904 17.9361 4.6218 17.9477 4.61685C17.9593 4.61191 17.9718 4.60936 17.9845 4.60938C18.0093 4.60938 18.0332 4.61925 18.0507 4.63683C18.0683 4.65442 18.0782 4.67826 18.0782 4.70313" stroke="#1E1E1E" stroke-width="0.10125" stroke-linejoin="round"/>
<path fill-rule="evenodd" clip-rule="evenodd" d="M17.9414 4.75539C17.9414 4.75539 18.0164 4.75539 18.0239 4.71789C18.0314 4.69164 18.0202 4.65039 18.0202 4.65039C18.0202 4.65039 18.0577 4.68789 18.0464 4.72164C18.0352 4.75164 18.0239 4.75914 18.0014 4.76664C17.9807 4.7707 17.9592 4.76667 17.9414 4.75539V4.75539Z" fill="#A3AFB8"/>
<path fill-rule="evenodd" clip-rule="evenodd" d="M16.5 7.87849C16.5 7.87849 16.5825 7.95724 16.605 8.02849C16.6275 8.09599 16.6612 8.28349 16.6612 8.28349C16.6612 8.28349 17.5312 8.03974 17.9587 8.05849C18.3862 8.08099 19.3725 8.29474 19.3725 8.29474L19.41 8.08099C19.4288 7.96849 19.5112 7.84474 19.5112 7.84474C19.5112 7.84474 18.57 7.55224 17.9737 7.58224C17.6285 7.5852 17.2848 7.62926 16.95 7.71349C16.7987 7.76477 16.6486 7.81979 16.5 7.87849V7.87849Z" fill="#FFCC00" stroke="black" stroke-width="0.0421875"/>
<path fill-rule="evenodd" clip-rule="evenodd" d="M17.8023 4.34961H18.1773C18.1773 4.34961 18.0836 4.41336 18.0648 4.47711C18.0498 4.52961 18.0536 4.61586 18.0536 4.61586C18.0536 4.61586 18.1548 4.61586 18.2036 4.57836C18.2488 4.54074 18.295 4.50447 18.3423 4.46961V4.94586C18.3423 4.94586 18.2486 4.85961 18.1923 4.82961C18.1509 4.80773 18.1068 4.79134 18.0611 4.78086C18.0611 4.78086 18.0611 4.85586 18.0911 4.90461C18.1211 4.95336 18.2523 5.12211 18.2523 5.12211L17.7161 5.14086C17.7161 5.14086 17.8436 5.00961 17.8961 4.91211C17.9298 4.84836 17.9148 4.78086 17.9148 4.78086C17.9148 4.78086 17.8248 4.78086 17.7798 4.81461C17.7311 4.84461 17.6523 4.93836 17.6523 4.93836V4.48086C17.6523 4.48086 17.6898 4.57086 17.7648 4.60461C17.8398 4.63836 17.9073 4.61961 17.9073 4.61961C17.9073 4.61961 17.9223 4.52961 17.8923 4.46961C17.8623 4.41336 17.7948 4.34961 17.8023 4.35336V4.34961Z" fill="#FFCC00" stroke="black" stroke-width="0.10125"/>
<path fill-rule="evenodd" clip-rule="evenodd" d="M17.7731 5.86784C17.7731 5.86784 17.5069 5.86409 17.2781 5.72909C17.0494 5.59409 16.8169 5.45159 16.4794 5.53034C16.4119 5.54909 16.1569 5.66159 16.0444 6.02534C15.9856 6.26212 16.0177 6.51234 16.1344 6.72659C16.1956 6.82538 16.2659 6.91828 16.3444 7.00409L16.4831 6.91034C16.4831 6.91034 16.1344 6.61034 16.1756 6.22784C16.2131 5.84159 16.4081 5.75159 16.4081 5.75159C16.4081 5.75159 16.6481 5.56409 16.9669 5.74034C17.2626 5.90158 17.5833 6.01187 17.9156 6.06659C17.9381 6.06284 17.7656 5.86409 17.7731 5.86784V5.86784Z" fill="#FFCC00" stroke="#121116" stroke-width="0.10125"/>
<path fill-rule="evenodd" clip-rule="evenodd" d="M16.2948 7.31164L16.1523 7.03414L16.5798 6.86914C16.5798 6.86914 16.4748 7.00414 16.4523 7.10164C16.4223 7.22164 16.4336 7.32289 16.4336 7.32289C16.4336 7.32289 16.4711 7.29289 16.5198 7.21414C16.5573 7.15789 16.6173 6.94039 16.6173 6.94039L16.8086 7.55164C16.8086 7.55164 16.7111 7.45414 16.6398 7.44289C16.5648 7.42789 16.4673 7.45414 16.4673 7.45414L16.3548 7.49164L16.2948 7.31164V7.31164Z" fill="#FFCC00" stroke="black" stroke-width="0.10125"/>
<path fill-rule="evenodd" clip-rule="evenodd" d="M18.2506 5.86058C18.2506 5.86058 18.5169 5.86058 18.7456 5.72183C18.9744 5.58683 19.2031 5.44808 19.5444 5.52683C19.6119 5.54183 19.8669 5.65433 19.9794 6.01808C20.037 6.25532 20.0036 6.50556 19.8856 6.71933C19.8428 6.79439 19.7978 6.86818 19.7506 6.94058L19.5856 6.88058C19.5856 6.88058 19.8894 6.60683 19.8481 6.22058C19.8069 5.83433 19.6156 5.74433 19.6156 5.74433C19.6156 5.74433 19.3756 5.55683 19.0569 5.73683C18.7381 5.91308 18.4269 5.99183 18.4269 5.99183C18.4269 5.99183 18.1344 6.06683 18.1081 6.05933C18.0819 6.05933 18.2581 5.85683 18.2506 5.86058V5.86058Z" fill="#FFCC00" stroke="#121116" stroke-width="0.10125"/>
<path d="M18.1133 5.5993H18.2258V6.63805H18.1133V5.5993ZM17.7383 5.5918H17.8695V6.63055H17.7383V5.5918Z" fill="#FFCC00" stroke="#121116" stroke-width="0.10125" stroke-linejoin="round"/>
<path d="M18.3447 5.35133C18.3447 5.53883 18.1834 5.68883 17.9809 5.68883C17.7822 5.68883 17.6172 5.53883 17.6172 5.35133C17.6172 5.16758 17.7784 5.01758 17.9772 5.01758C18.1797 5.01758 18.3447 5.16758 18.3447 5.35133" fill="#FFCC00"/>
<path d="M18.3447 5.35133C18.3447 5.53883 18.1834 5.68883 17.9809 5.68883C17.7822 5.68883 17.6172 5.53883 17.6172 5.35133C17.6172 5.16758 17.7784 5.01758 17.9772 5.01758C18.1797 5.01758 18.3447 5.16758 18.3447 5.35133" stroke="#121116" stroke-width="0.10125" stroke-linejoin="round"/>
<path fill-rule="evenodd" clip-rule="evenodd" d="M17.6573 6.63055L18.2836 6.62305C18.2836 6.62305 18.2086 6.66805 18.1448 6.78055C18.0848 6.89305 18.0923 6.96055 18.0923 6.96055C18.0923 6.96055 18.1861 6.96055 18.2536 6.9118C18.3057 6.87055 18.3535 6.82405 18.3961 6.77305V7.3468C18.3961 7.3468 18.3473 7.2718 18.2723 7.2343C18.1973 7.18555 18.0923 7.18555 18.0923 7.18555H17.8786C17.8786 7.18555 17.7811 7.19305 17.7398 7.22305C17.6903 7.25907 17.6439 7.29921 17.6011 7.34305L17.5898 6.79555C17.5898 6.79555 17.6198 6.89305 17.7211 6.93055C17.8223 6.96805 17.8786 6.96805 17.8786 6.96805C17.8786 6.96805 17.8786 6.84055 17.8261 6.78055C17.7745 6.72551 17.718 6.6753 17.6573 6.63055V6.63055Z" fill="#FFCC00" stroke="black" stroke-width="0.084375"/>
<path fill-rule="evenodd" clip-rule="evenodd" d="M18.0056 7.07977C18.0056 7.07977 18.0956 7.29352 18.2044 7.38727C18.2644 7.44352 18.4519 7.48477 18.5344 7.46227C18.7219 7.41352 18.8569 7.26352 18.8569 7.26352C18.8569 7.26352 18.8494 7.42852 18.9694 7.52227C19.0856 7.61227 19.1794 7.63477 19.2769 7.60852C19.3781 7.58227 19.6519 7.37602 19.6519 7.37602L19.7119 7.42477C19.7119 7.42477 19.5506 7.58227 19.3856 7.66102C19.2994 7.70602 19.0369 7.67977 18.9544 7.61227C18.8681 7.54477 18.8194 7.38352 18.8194 7.38352C18.8194 7.38352 18.7669 7.48852 18.6544 7.52602C18.5419 7.56352 18.3919 7.56352 18.2456 7.51852C18.1519 7.48852 18.0244 7.35727 18.0019 7.31227C17.9794 7.27102 17.9869 7.24477 17.9869 7.24477C17.9869 7.24477 17.9119 7.44727 17.7694 7.50352C17.6308 7.55372 17.4799 7.55897 17.3381 7.51852C17.2031 7.48102 17.1919 7.40227 17.1919 7.40227C17.1919 7.40227 17.1844 7.61602 16.8919 7.67602C16.5919 7.73602 16.3594 7.52227 16.3594 7.52227L16.4006 7.45852C16.4006 7.45852 16.5656 7.64602 16.8206 7.63102C17.0756 7.61227 17.1581 7.28602 17.1581 7.28602C17.1581 7.28602 17.2706 7.45477 17.5706 7.45852C17.8669 7.46227 17.9531 7.07227 17.9531 7.07227L18.0056 7.07977V7.07977Z" fill="#F6CA1F" stroke="black" stroke-width="0.0759375"/>
<path fill-rule="evenodd" clip-rule="evenodd" d="M17.2728 7.20307C17.2728 7.20307 17.2728 7.10182 17.2991 7.06807C17.3291 7.02682 17.3741 7.02307 17.3966 7.03057C17.4228 7.03807 17.4491 7.06057 17.4453 7.13557C17.4416 7.20682 17.4191 7.24057 17.4453 7.27057C17.4641 7.29682 17.4678 7.31557 17.5091 7.30807C17.5466 7.30057 17.5691 7.28932 17.5578 7.25182C17.5466 7.21432 17.5391 7.25182 17.5316 7.22182C17.5241 7.18807 17.5691 7.04932 17.5616 6.96307C17.5541 6.88057 17.5241 6.81307 17.4566 6.79432C17.3966 6.77932 17.3441 6.77932 17.2878 6.82057C17.2353 6.85807 17.1641 6.98932 17.1641 6.98932V7.27057L17.2766 7.26307V7.20307H17.2728Z" fill="#FFCC00" stroke="black" stroke-width="0.0928125"/>
<path fill-rule="evenodd" clip-rule="evenodd" d="M17.0634 7.27743C17.0634 7.27743 17.0184 7.18368 16.9884 7.16493C16.9729 7.15445 16.9546 7.14885 16.9359 7.14885C16.9172 7.14885 16.8989 7.15445 16.8834 7.16493C16.8609 7.18368 16.8459 7.21743 16.8797 7.28118C16.9097 7.34493 16.9434 7.37118 16.9322 7.40493C16.9247 7.43868 16.9322 7.45743 16.8909 7.46868C16.8497 7.47993 16.8272 7.47243 16.8197 7.43118C16.8122 7.39368 16.8422 7.43118 16.8347 7.39368C16.8309 7.36368 16.7297 7.25493 16.7034 7.17243C16.6772 7.09368 16.6809 7.01868 16.7334 6.97743C16.7822 6.93993 16.8272 6.91743 16.8947 6.93243C16.9622 6.94743 17.0784 7.04118 17.0784 7.04118L17.1909 7.29618L17.0859 7.33368L17.0634 7.27743V7.27743Z" fill="#FFCC00" stroke="black" stroke-width="0.0928125"/>
<path fill-rule="evenodd" clip-rule="evenodd" d="M17.0426 6.45312C17.0426 6.45312 16.9301 6.64063 16.9564 6.78313C16.9826 6.92563 17.1289 7.23313 17.1289 7.23313V7.27063L17.2114 7.26313L17.1926 7.22188C17.1926 7.22188 17.2301 6.85437 17.2076 6.73812C17.1656 6.6362 17.1101 6.54035 17.0426 6.45312V6.45312ZM17.2189 7.30438C17.2189 7.30438 17.2751 7.36813 17.3389 7.40188C17.4139 7.43563 17.4439 7.43938 17.4701 7.41313C17.4926 7.39813 17.4851 7.33063 17.4589 7.31188C17.4364 7.29313 17.4064 7.30438 17.4026 7.32313C17.3951 7.35313 17.3876 7.35313 17.3651 7.33813C17.3276 7.32313 17.2526 7.27438 17.2526 7.27438L17.2189 7.30438V7.30438ZM17.1326 7.31938C17.1326 7.31938 17.1101 7.40188 17.0651 7.45813C17.0126 7.51813 16.9864 7.53313 16.9526 7.52188C16.9264 7.51813 16.9039 7.45438 16.9189 7.42438C16.9339 7.39813 16.9639 7.39438 16.9751 7.40938C16.9939 7.43563 17.0014 7.43188 17.0164 7.40938L17.0914 7.30813L17.1326 7.31563V7.31938Z" fill="#FFCC00" stroke="black" stroke-width="0.0928125"/>
<path d="M17.3413 7.251C17.3488 7.2735 17.2738 7.30725 17.18 7.32225C17.0863 7.33725 17.0075 7.3335 17 7.30725C17 7.28475 17.0713 7.251 17.165 7.23225C17.2588 7.21725 17.3375 7.22475 17.3413 7.251" fill="#FFCC00"/>
<path d="M17.3413 7.251C17.3488 7.2735 17.2738 7.30725 17.18 7.32225C17.0863 7.33725 17.0075 7.3335 17 7.30725C17 7.28475 17.0713 7.251 17.165 7.23225C17.2588 7.21725 17.3375 7.22475 17.3413 7.251" stroke="black" stroke-width="0.0928125" stroke-linejoin="round"/>
<path fill-rule="evenodd" clip-rule="evenodd" d="M18.9597 7.24534C18.9597 7.24534 18.9972 7.15159 19.0347 7.12909C19.0759 7.09909 19.1172 7.11034 19.1359 7.12909C19.1584 7.14034 19.1734 7.17409 19.1472 7.24159C19.1172 7.30534 19.0872 7.33159 19.0947 7.36534C19.1059 7.40284 19.1022 7.41784 19.1434 7.42534C19.1847 7.43659 19.2072 7.42909 19.2109 7.38784C19.2147 7.35034 19.1922 7.38784 19.1959 7.35034C19.1959 7.32034 19.2934 7.20409 19.3159 7.12534C19.3384 7.03909 19.3309 6.96784 19.2784 6.92659C19.2259 6.88909 19.1772 6.87409 19.1097 6.89284C19.0459 6.91159 18.9334 7.00909 18.9334 7.00909L18.8359 7.27159L18.9447 7.30534L18.9597 7.24534Z" fill="#FFCC00" stroke="black" stroke-width="0.0928125"/>
<path fill-rule="evenodd" clip-rule="evenodd" d="M18.7377 7.24106C18.7377 7.24106 18.7302 7.13981 18.7039 7.10981C18.6702 7.06856 18.6289 7.06856 18.6064 7.07231C18.5802 7.08356 18.5539 7.10981 18.5614 7.18106C18.5689 7.25606 18.5914 7.28606 18.5727 7.31606C18.5502 7.34606 18.5502 7.36106 18.5089 7.35731C18.4677 7.35731 18.4452 7.34231 18.4527 7.30481C18.4602 7.26731 18.4752 7.30481 18.4827 7.27106C18.4864 7.24106 18.4339 7.10231 18.4377 7.01606C18.4377 6.93356 18.4677 6.86606 18.5314 6.84356C18.5914 6.82481 18.6439 6.82106 18.7002 6.86231C18.7564 6.89981 18.8352 7.02356 18.8352 7.02356L18.8502 7.30106H18.7377V7.24106V7.24106Z" fill="#FFCC00" stroke="black" stroke-width="0.0928125"/>
<path fill-rule="evenodd" clip-rule="evenodd" d="M19.0037 6.46094C19.0037 6.46094 18.835 6.59594 18.8087 6.73844C18.7825 6.88094 18.8125 7.21844 18.8125 7.21844L18.8012 7.25594L18.8762 7.27844V7.23344C18.8762 7.23344 19.0412 6.90344 19.06 6.78344C19.056 6.67387 19.0371 6.56536 19.0037 6.46094ZM18.8725 7.31969C18.8725 7.31969 18.9025 7.39844 18.9512 7.45094C19.0075 7.51094 19.0337 7.52219 19.0675 7.51094C19.0937 7.50344 19.1087 7.43594 19.0937 7.41344C19.0787 7.38719 19.0487 7.38719 19.0375 7.40219C19.0187 7.42844 19.0112 7.42094 18.9962 7.40219C18.968 7.37029 18.9405 7.33779 18.9137 7.30469L18.8725 7.31969V7.31969ZM18.7862 7.30094C18.7862 7.30094 18.7375 7.37219 18.6737 7.40594C18.6025 7.44719 18.5725 7.45094 18.5425 7.42844C18.52 7.41719 18.5237 7.34969 18.5462 7.32719C18.5725 7.30844 18.5987 7.31594 18.6062 7.33469C18.6137 7.36469 18.625 7.36094 18.6437 7.34969L18.7487 7.27469L18.7862 7.30094V7.30094Z" fill="#FFCC00" stroke="black" stroke-width="0.0928125"/>
<path d="M19.0094 7.31133C19.0056 7.33758 18.9231 7.34133 18.8294 7.32258C18.7356 7.30383 18.6644 7.27008 18.6681 7.24758C18.6719 7.22133 18.7544 7.21758 18.8481 7.23633C18.9419 7.25508 19.0131 7.28883 19.0094 7.31133Z" fill="#FFCC00" stroke="black" stroke-width="0.0928125" stroke-linejoin="round"/>
<path fill-rule="evenodd" clip-rule="evenodd" d="M16.4626 7.87121C16.4626 7.87121 16.4851 7.94621 16.5264 7.90871C16.5714 7.86746 17.1751 7.62746 18.0264 7.62746C18.8776 7.62746 19.4326 7.86371 19.4664 7.87871C19.5001 7.88996 19.5151 7.90871 19.5414 7.87871C19.5714 7.84121 19.5151 7.79246 19.5151 7.79246C19.5151 7.79246 18.9226 7.54121 18.0001 7.54496C17.0739 7.54871 16.4776 7.81121 16.4776 7.81121C16.4776 7.81121 16.4401 7.84121 16.4664 7.87121H16.4626Z" fill="#CCA715" stroke="black" stroke-width="0.0421875"/>
<path fill-rule="evenodd" clip-rule="evenodd" d="M17.5447 8.22382C17.5447 8.22382 17.5709 8.14882 17.6197 8.13382C17.6572 8.12257 17.7134 8.16007 17.7134 8.16007C17.7134 8.16007 17.6422 8.15257 17.6197 8.16757C17.6009 8.17882 17.5934 8.21257 17.5934 8.21257C17.5934 8.21257 17.6084 8.18257 17.6647 8.18632H17.7247C17.7247 8.18632 17.6309 8.19757 17.6122 8.22382C17.5897 8.25007 17.6984 8.26132 17.6984 8.26132C17.6984 8.26132 17.5297 8.26132 17.5109 8.25382C17.4884 8.24257 17.4734 8.20882 17.4359 8.21632C17.3984 8.23132 17.3609 8.26507 17.3609 8.26507C17.3609 8.26507 17.4022 8.19007 17.4284 8.19007C17.4547 8.19007 17.4734 8.19007 17.4959 8.20132L17.5447 8.22382V8.22382ZM16.9147 8.35882C16.9147 8.35882 16.9259 8.28382 16.9709 8.25757C17.0084 8.23882 17.0722 8.26507 17.0722 8.26507C17.0722 8.26507 16.9972 8.27257 16.9784 8.28757C16.9634 8.30257 16.9634 8.34007 16.9634 8.34007C16.9634 8.34007 16.9747 8.31007 17.0272 8.30257C17.0472 8.29906 17.0672 8.29531 17.0872 8.29132C17.0872 8.29132 16.9972 8.31757 16.9822 8.34757C16.9634 8.37757 17.0759 8.37007 17.0759 8.37007C17.0759 8.37007 16.9109 8.40007 16.8884 8.39632C16.8622 8.38882 16.8434 8.35882 16.8097 8.37757C16.7722 8.39257 16.7422 8.43382 16.7422 8.43382C16.7422 8.43382 16.7722 8.35507 16.7984 8.34757C16.8247 8.34382 16.8359 8.34007 16.8659 8.34757L16.9147 8.35882V8.35882ZM18.0734 8.19757C18.0734 8.19757 18.1034 8.12257 18.1484 8.11132C18.1897 8.10007 18.2497 8.14132 18.2497 8.14132C18.2497 8.14132 18.1747 8.13007 18.1522 8.14132C18.1334 8.15257 18.1259 8.18632 18.1259 8.18632C18.1259 8.18632 18.1409 8.16007 18.1972 8.16757L18.2572 8.17132C18.2572 8.17132 18.1634 8.17132 18.1409 8.20132C18.1184 8.22382 18.2272 8.24257 18.2272 8.24257C18.2272 8.24257 18.0584 8.23507 18.0397 8.22382C18.0172 8.21257 18.0022 8.17882 17.9647 8.18632C17.9272 8.19382 17.8897 8.22382 17.8897 8.22382C17.8897 8.22382 17.9347 8.15632 17.9609 8.15632C17.9872 8.15632 18.0022 8.15632 18.0284 8.17132L18.0734 8.19757V8.19757ZM18.6022 8.25757C18.6022 8.25757 18.6397 8.18632 18.6922 8.18257C18.7297 8.17507 18.7822 8.22007 18.7822 8.22007C18.7822 8.22007 18.7147 8.20507 18.6884 8.21257C18.6659 8.22007 18.6547 8.25007 18.6547 8.25007C18.6547 8.25007 18.6734 8.22757 18.7297 8.23882L18.7897 8.25382C18.7897 8.25382 18.6959 8.24632 18.6697 8.26882C18.6434 8.29132 18.7484 8.32132 18.7484 8.32132C18.7484 8.32132 18.5834 8.29132 18.5609 8.28007C18.5459 8.26507 18.5347 8.22757 18.4972 8.23132C18.4597 8.23507 18.4147 8.26132 18.4147 8.26132C18.4147 8.26132 18.4709 8.20132 18.4972 8.20507C18.5234 8.20507 18.5384 8.20882 18.5609 8.22382L18.6022 8.25757V8.25757ZM19.1272 8.35132C19.1272 8.35132 19.1647 8.29882 19.2059 8.29507C19.2397 8.29507 19.2772 8.33632 19.2772 8.33632C19.2772 8.33632 19.2209 8.31757 19.2022 8.32132C19.1834 8.32507 19.1722 8.35132 19.1722 8.35132C19.1722 8.35132 19.1909 8.33257 19.2322 8.34757L19.2809 8.36257C19.2809 8.36257 19.2059 8.34757 19.1834 8.36257C19.1609 8.38132 19.2434 8.41507 19.2434 8.41507C19.2434 8.41507 19.1122 8.37757 19.0934 8.36632C19.0822 8.35507 19.0784 8.32507 19.0484 8.32507C19.0147 8.32507 18.9772 8.34382 18.9772 8.34382C18.9772 8.34382 19.0259 8.29507 19.0484 8.30257C19.0672 8.30257 19.0822 8.31007 19.0972 8.32132L19.1309 8.35132H19.1272Z" fill="black"/>
<path d="M17.4387 7.86323C17.4537 7.92698 17.3787 7.99448 17.2737 8.01323C17.1687 8.03573 17.0749 8.00198 17.0637 7.93823C17.0524 7.87823 17.1237 7.81073 17.2287 7.78823C17.3337 7.76573 17.4274 7.79948 17.4387 7.86323Z" fill="#0F6545" stroke="black" stroke-width="0.0590625" stroke-linejoin="round"/>
<path d="M17.2034 7.85273C17.2034 7.86773 17.1884 7.88648 17.1659 7.89023C17.1434 7.89398 17.1209 7.88648 17.1172 7.87148C17.1172 7.85648 17.1322 7.84148 17.1547 7.83398C17.1772 7.83398 17.1997 7.83773 17.2034 7.85273Z" fill="#CECFC1"/>
<path d="M18.9048 7.9434C18.8861 8.0034 18.7923 8.0259 18.6873 7.9959C18.5861 7.96215 18.5223 7.88715 18.5373 7.82715C18.5598 7.76715 18.6573 7.7409 18.7586 7.77465C18.8598 7.80465 18.9273 7.87965 18.9086 7.93965L18.9048 7.9434Z" fill="#0F6545" stroke="black" stroke-width="0.0590625" stroke-linejoin="round"/>
<path d="M18.7042 7.81795C18.6967 7.83295 18.6779 7.84045 18.6554 7.83295C18.6329 7.82545 18.6179 7.8067 18.6217 7.79545C18.6254 7.7767 18.6479 7.77295 18.6704 7.7767C18.6929 7.7842 18.7079 7.80295 18.7042 7.8142V7.81795Z" fill="#CECFC1"/>
<path d="M17.7969 7.72461H18.1756V7.91211H17.7969V7.72461Z" fill="#1F2D86" stroke="black" stroke-width="0.084375" stroke-linejoin="round"/>
<path d="M17.9578 7.76305C17.9578 7.7743 17.9428 7.7818 17.9203 7.7818C17.8978 7.7818 17.8828 7.7743 17.8828 7.76305C17.8828 7.75555 17.9016 7.74805 17.9203 7.74805C17.9391 7.74805 17.9578 7.75555 17.9578 7.76305Z" fill="#707C8B"/>
<path fill-rule="evenodd" clip-rule="evenodd" d="M16.7255 7.91233L16.7855 8.09983L16.673 8.16358C16.673 8.16358 16.6168 8.20108 16.5605 8.17108C16.508 8.14483 16.478 8.05858 16.508 8.02108C16.5643 7.95358 16.7218 7.90858 16.7218 7.91233H16.7255Z" fill="#9F1209" stroke="black" stroke-width="0.0421875"/>
<path d="M16.6283 8.04844C16.6283 8.07844 16.602 8.10469 16.572 8.10469C16.542 8.10469 16.5195 8.07844 16.5195 8.04844C16.5195 8.01469 16.542 7.99219 16.572 7.99219C16.602 7.99219 16.6283 8.01469 16.6283 8.04844Z" fill="#8F322F"/>
<path d="M16.5731 8.02429C16.574 8.02895 16.5738 8.03376 16.5725 8.03832C16.5712 8.04288 16.5688 8.04707 16.5656 8.05054C16.5629 8.05267 16.5596 8.05383 16.5562 8.05383C16.5528 8.05383 16.5495 8.05267 16.5468 8.05054C16.5432 8.04862 16.5399 8.04596 16.5374 8.04273C16.5348 8.03951 16.5329 8.03578 16.5318 8.03179C16.5309 8.02713 16.5311 8.02233 16.5324 8.01776C16.5337 8.0132 16.5361 8.00901 16.5393 8.00554C16.5415 8.00283 16.5446 8.00098 16.548 8.00029C16.5514 7.99961 16.555 8.00014 16.5581 8.00179C16.5656 8.00179 16.5731 8.01304 16.5731 8.02429Z" fill="#E2A494"/>
<path fill-rule="evenodd" clip-rule="evenodd" d="M19.2708 7.93945L19.207 8.10445L19.357 8.17945C19.357 8.17945 19.4208 8.20945 19.462 8.1757C19.4995 8.1457 19.507 8.0707 19.477 8.03695C19.4508 7.99945 19.267 7.93945 19.2708 7.93945V7.93945Z" fill="#9F1209" stroke="black" stroke-width="0.0421875"/>
<path d="M19.4492 8.0707C19.4492 8.0932 19.4267 8.1082 19.4005 8.1082C19.3742 8.1082 19.3555 8.0932 19.3555 8.0707C19.3555 8.0482 19.378 8.0332 19.4005 8.0332C19.4267 8.0332 19.4492 8.05195 19.4492 8.0707Z" fill="#AA675D"/>
<path d="M19.4044 8.06156C19.4044 8.07281 19.4006 8.08406 19.3931 8.08781C19.3899 8.09025 19.3859 8.09156 19.3819 8.09156C19.3778 8.09156 19.3739 8.09025 19.3706 8.08781C19.3672 8.0851 19.3645 8.08168 19.3625 8.0778C19.3606 8.07391 19.3595 8.06965 19.3594 8.06531C19.3594 8.05406 19.3631 8.04656 19.3706 8.04281C19.3739 8.04038 19.3778 8.03906 19.3819 8.03906C19.3859 8.03906 19.3899 8.04038 19.3931 8.04281C19.4006 8.04281 19.4044 8.05406 19.4044 8.06531V8.06156Z" fill="#E2A494"/>
<path d="M18.3229 7.73914C18.3229 7.74293 18.3221 7.74668 18.3206 7.75013C18.319 7.75359 18.3168 7.75667 18.3139 7.75917C18.3111 7.76166 18.3077 7.76351 18.3041 7.76458C18.3004 7.76566 18.2966 7.76593 18.2929 7.76539C18.2859 7.76539 18.2792 7.76263 18.2743 7.7577C18.2694 7.75278 18.2666 7.7461 18.2666 7.73914C18.2666 7.73218 18.2694 7.7255 18.2743 7.72058C18.2792 7.71566 18.2859 7.71289 18.2929 7.71289C18.3079 7.71289 18.3229 7.72414 18.3229 7.73914ZM18.4841 7.74664C18.4841 7.75009 18.4834 7.7535 18.4821 7.75669C18.4808 7.75987 18.4789 7.76276 18.4764 7.7652C18.474 7.76764 18.4711 7.76957 18.4679 7.77089C18.4647 7.77221 18.4613 7.77289 18.4579 7.77289C18.4541 7.77343 18.4503 7.77316 18.4467 7.77208C18.443 7.77101 18.4397 7.76916 18.4368 7.76667C18.434 7.76417 18.4317 7.76109 18.4302 7.75763C18.4286 7.75418 18.4278 7.75043 18.4279 7.74664C18.4283 7.74318 18.4295 7.73984 18.4312 7.73683C18.433 7.73381 18.4353 7.73118 18.4381 7.72909C18.4409 7.72699 18.4441 7.72548 18.4475 7.72463C18.4509 7.72378 18.4544 7.72361 18.4579 7.72414C18.4691 7.72414 18.4841 7.73164 18.4841 7.74664ZM18.4016 7.81039C18.4016 7.82914 18.3866 7.84414 18.3641 7.84414C18.3416 7.84414 18.3341 7.82914 18.3341 7.81039C18.3341 7.79164 18.3491 7.77664 18.3679 7.77664C18.3866 7.77664 18.4016 7.79164 18.4016 7.81414V7.81039ZM18.4766 7.91539C18.4767 7.92175 18.4744 7.92792 18.4703 7.93274C18.4662 7.93757 18.4604 7.94073 18.4541 7.94164C18.4504 7.94218 18.4465 7.94191 18.4429 7.94083C18.4393 7.93976 18.4359 7.93791 18.4331 7.93542C18.4302 7.93292 18.428 7.92984 18.4264 7.92638C18.4249 7.92293 18.4241 7.91918 18.4241 7.91539C18.4241 7.90843 18.4269 7.90175 18.4318 7.89683C18.4367 7.89191 18.4434 7.88914 18.4504 7.88914C18.4691 7.88914 18.4804 7.90039 18.4804 7.91539H18.4766ZM18.3229 7.89664C18.3229 7.9036 18.3201 7.91028 18.3152 7.9152C18.3103 7.92012 18.3036 7.92289 18.2966 7.92289C18.2897 7.92289 18.283 7.92012 18.2781 7.9152C18.2731 7.91028 18.2704 7.9036 18.2704 7.89664C18.2704 7.88968 18.2731 7.883 18.2781 7.87808C18.283 7.87316 18.2897 7.87039 18.2966 7.87039C18.3116 7.87039 18.3229 7.88164 18.3229 7.89664ZM17.5391 7.76539C17.5403 7.77183 17.539 7.77847 17.5356 7.78402C17.5321 7.78957 17.5267 7.79363 17.5204 7.79539C17.5169 7.79653 17.5133 7.79694 17.5097 7.7966C17.5061 7.79626 17.5026 7.79517 17.4994 7.79341C17.4962 7.79165 17.4934 7.78925 17.4912 7.78636C17.489 7.78348 17.4875 7.78017 17.4866 7.77664C17.4861 7.77319 17.4863 7.76967 17.4871 7.76628C17.488 7.76289 17.4895 7.75971 17.4916 7.75691C17.4937 7.75412 17.4963 7.75177 17.4993 7.75001C17.5023 7.74824 17.5057 7.7471 17.5091 7.74664C17.5156 7.74546 17.5222 7.74673 17.5277 7.7502C17.5333 7.75367 17.5374 7.75909 17.5391 7.76539V7.76539ZM17.7004 7.73914C17.7009 7.74259 17.7007 7.74612 17.6999 7.7495C17.699 7.75289 17.6975 7.75607 17.6954 7.75887C17.6933 7.76166 17.6907 7.76401 17.6877 7.76577C17.6847 7.76754 17.6813 7.76868 17.6779 7.76914C17.6714 7.77032 17.6648 7.76905 17.6592 7.76558C17.6537 7.76211 17.6496 7.75669 17.6479 7.75039C17.6467 7.74395 17.648 7.73731 17.6514 7.73176C17.6549 7.72621 17.6603 7.72215 17.6666 7.72039C17.6701 7.71925 17.6737 7.71884 17.6773 7.71918C17.6809 7.71952 17.6844 7.72061 17.6876 7.72237C17.6908 7.72413 17.6935 7.72653 17.6957 7.72942C17.6979 7.7323 17.6995 7.73561 17.7004 7.73914V7.73914ZM17.6329 7.81789C17.6366 7.83664 17.6254 7.85539 17.6104 7.85539C17.6019 7.85774 17.5929 7.8567 17.5852 7.8525C17.5775 7.8483 17.5717 7.84127 17.5691 7.83289C17.5654 7.81789 17.5766 7.79539 17.5954 7.79539C17.6033 7.79408 17.6114 7.79562 17.6183 7.79975C17.6251 7.80387 17.6303 7.8103 17.6329 7.81789V7.81789ZM17.7341 7.90414C17.7353 7.91058 17.734 7.91722 17.7306 7.92277C17.7271 7.92832 17.7217 7.93238 17.7154 7.93414C17.7119 7.93528 17.7083 7.93569 17.7047 7.93535C17.7011 7.93501 17.6976 7.93392 17.6944 7.93216C17.6912 7.9304 17.6884 7.928 17.6862 7.92511C17.684 7.92223 17.6825 7.91892 17.6816 7.91539C17.6804 7.90895 17.6817 7.90231 17.6852 7.89676C17.6886 7.89121 17.6941 7.88715 17.7004 7.88539C17.7038 7.88425 17.7075 7.88384 17.7111 7.88418C17.7147 7.88452 17.7182 7.88561 17.7214 7.88737C17.7245 7.88913 17.7273 7.89153 17.7295 7.89442C17.7317 7.8973 17.7333 7.90061 17.7341 7.90414ZM17.5766 7.91914C17.5778 7.92558 17.5765 7.93222 17.5731 7.93777C17.5696 7.94332 17.5642 7.94738 17.5579 7.94914C17.5544 7.95028 17.5508 7.95069 17.5472 7.95035C17.5436 7.95001 17.5401 7.94893 17.5369 7.94716C17.5337 7.9454 17.5309 7.943 17.5287 7.94011C17.5265 7.93723 17.525 7.93392 17.5241 7.93039C17.5236 7.92694 17.5238 7.92342 17.5246 7.92003C17.5255 7.91664 17.527 7.91346 17.5291 7.91066C17.5312 7.90787 17.5338 7.90552 17.5368 7.90376C17.5398 7.90199 17.5432 7.90085 17.5466 7.90039C17.5531 7.89921 17.5597 7.90048 17.5652 7.90395C17.5708 7.90742 17.5749 7.91284 17.5766 7.91914V7.91914ZM16.8566 7.91164C16.8585 7.91503 16.8595 7.91878 16.8598 7.92263C16.86 7.92648 16.8593 7.93033 16.8579 7.93391C16.8565 7.93749 16.8543 7.94071 16.8515 7.94334C16.8486 7.94598 16.8453 7.94796 16.8416 7.94914C16.8351 7.95159 16.828 7.95139 16.8217 7.94858C16.8153 7.94577 16.8104 7.94058 16.8079 7.93414C16.806 7.93075 16.805 7.927 16.8047 7.92315C16.8045 7.9193 16.8051 7.91545 16.8066 7.91187C16.808 7.90829 16.8102 7.90507 16.813 7.90244C16.8158 7.89981 16.8192 7.89783 16.8229 7.89664C16.8263 7.8948 16.83 7.89373 16.8339 7.89351C16.8377 7.89328 16.8416 7.89391 16.8451 7.89534C16.8487 7.89677 16.8519 7.89897 16.8546 7.90179C16.8572 7.90461 16.8592 7.90797 16.8604 7.91164H16.8566ZM17.0104 7.86289C17.0122 7.86628 17.0133 7.87003 17.0135 7.87388C17.0137 7.87773 17.0131 7.88158 17.0117 7.88516C17.0102 7.88874 17.008 7.89196 17.0052 7.89459C17.0024 7.89723 16.999 7.89921 16.9954 7.90039C16.9919 7.90153 16.9883 7.90194 16.9847 7.9016C16.9811 7.90126 16.9776 7.90017 16.9744 7.89841C16.9712 7.89665 16.9684 7.89425 16.9662 7.89136C16.964 7.88848 16.9625 7.88517 16.9616 7.88164C16.9592 7.87517 16.9594 7.868 16.9622 7.86168C16.965 7.85536 16.9702 7.85041 16.9766 7.84789C16.98 7.84605 16.9838 7.84498 16.9876 7.84476C16.9915 7.84453 16.9953 7.84516 16.9989 7.84659C17.0025 7.84802 17.0057 7.85022 17.0083 7.85304C17.011 7.85586 17.0129 7.85922 17.0141 7.86289H17.0104ZM16.9579 7.95289C16.9594 7.96034 16.9584 7.9681 16.955 7.97491C16.9516 7.98171 16.946 7.98717 16.9391 7.99039C16.9316 7.99322 16.9233 7.99326 16.9157 7.99051C16.9082 7.98776 16.9018 7.9824 16.8979 7.97539C16.8953 7.96741 16.8958 7.95877 16.8993 7.95115C16.9028 7.94353 16.9089 7.93747 16.9166 7.93414C16.9246 7.93159 16.9332 7.9321 16.9409 7.93556C16.9485 7.93903 16.9545 7.94521 16.9579 7.95289ZM17.0704 8.02039C17.0722 8.02378 17.0733 8.02753 17.0735 8.03138C17.0737 8.03523 17.0731 8.03908 17.0717 8.04266C17.0702 8.04624 17.068 8.04946 17.0652 8.05209C17.0624 8.05473 17.059 8.05671 17.0554 8.05789C17.0404 8.05789 17.0254 8.05414 17.0179 8.03914C17.0104 8.02414 17.0216 8.01289 17.0366 8.00539C17.0431 8.00294 17.0503 8.00314 17.0566 8.00595C17.0629 8.00876 17.0679 8.01395 17.0704 8.02039V8.02039ZM16.9166 8.05789C16.9185 8.06128 16.9195 8.06503 16.9198 8.06888C16.92 8.07273 16.9193 8.07658 16.9179 8.08016C16.9165 8.08374 16.9143 8.08696 16.9115 8.08959C16.9086 8.09223 16.9053 8.09421 16.9016 8.09539C16.8982 8.09723 16.8945 8.0983 16.8906 8.09853C16.8868 8.09875 16.8829 8.09812 16.8793 8.09669C16.8758 8.09526 16.8725 8.09306 16.8699 8.09024C16.8673 8.08742 16.8653 8.08406 16.8641 8.08039C16.8623 8.07675 16.8614 8.07274 16.8614 8.06868C16.8614 8.06461 16.8623 8.0606 16.8641 8.05697C16.866 8.05333 16.8686 8.05017 16.8718 8.04772C16.8751 8.04528 16.8789 8.04363 16.8829 8.04289C16.8863 8.04105 16.89 8.03998 16.8939 8.03976C16.8977 8.03953 16.9016 8.04016 16.9051 8.04159C16.9087 8.04302 16.9119 8.04522 16.9146 8.04804C16.9172 8.05086 16.9192 8.05422 16.9204 8.05789H16.9166ZM19.0241 7.84039C19.0204 7.85539 19.0054 7.86289 18.9866 7.85914C18.9792 7.85658 18.9731 7.85122 18.9696 7.84421C18.9661 7.8372 18.9655 7.8291 18.9679 7.82164C18.9679 7.81039 18.9866 7.80289 19.0054 7.80664C19.0166 7.80664 19.0279 7.82539 19.0241 7.84039ZM19.1891 7.88914C19.1891 7.90414 19.1704 7.91539 19.1554 7.91164C19.1514 7.91077 19.1476 7.90909 19.1442 7.9067C19.1409 7.90432 19.1381 7.90127 19.136 7.89776C19.1339 7.89424 19.1325 7.89034 19.132 7.88627C19.1315 7.88221 19.1317 7.87808 19.1329 7.87414C19.1366 7.86289 19.1516 7.85164 19.1704 7.85539C19.1854 7.85914 19.1929 7.87414 19.1891 7.89289V7.88914ZM19.0879 7.93414C19.0853 7.94273 19.0797 7.9501 19.0721 7.95491C19.0645 7.95973 19.0555 7.96167 19.0466 7.96039C19.0373 7.95857 19.0291 7.9533 19.0235 7.94565C19.018 7.938 19.0155 7.92853 19.0166 7.91914C19.0193 7.90979 19.0254 7.90182 19.0338 7.89693C19.0422 7.89203 19.0522 7.89058 19.0616 7.89289C19.0804 7.89664 19.0916 7.91539 19.0879 7.93414V7.93414ZM19.1441 8.06539C19.1404 8.08039 19.1254 8.08789 19.1066 8.08414C19.1 8.08162 19.0945 8.07686 19.0911 8.07068C19.0877 8.06451 19.0865 8.05732 19.0879 8.05039C19.0879 8.03539 19.1066 8.02789 19.1216 8.03164C19.1366 8.03539 19.1479 8.05039 19.1441 8.06914V8.06539ZM18.9829 8.00539C18.9829 8.02039 18.9641 8.02789 18.9491 8.02414C18.9425 8.02162 18.937 8.01686 18.9336 8.01068C18.9302 8.00451 18.929 7.99732 18.9304 7.99039C18.9304 7.97539 18.9491 7.96789 18.9641 7.97164C18.9791 7.97164 18.9866 7.99039 18.9829 8.00539Z" fill="#F5D8BC"/>
<path d="M19.349 6.33719C19.349 6.33719 19.274 6.40844 19.1802 6.40844C19.1174 6.40973 19.0562 6.38844 19.0077 6.34844C18.9777 6.32969 19.0152 6.27344 19.0152 6.27344" stroke="black" stroke-width="0.10125"/>
<path d="M17.7343 6.48057C17.7343 6.48057 17.5956 6.45432 17.5356 6.43557C17.4793 6.41682 17.4943 6.37932 17.4231 6.38307C17.3593 6.38682 17.2918 6.43557 17.3068 6.50307C17.3218 6.57057 17.3706 6.57807 17.4193 6.56682C17.4643 6.55182 17.4493 6.46932 17.3893 6.47682C17.3256 6.47682 17.3781 6.53307 17.3781 6.53307" stroke="black" stroke-width="0.0928125"/>
<path d="M16.7734 6.37445C16.7734 6.37445 16.8109 6.4307 16.9122 6.41945C17.0134 6.41195 17.0509 6.35945 17.0547 6.3332C17.0622 6.3107 17.0547 6.2657 17.0359 6.24695C17.0172 6.2282 16.9497 6.2207 16.9497 6.2207" stroke="black" stroke-width="0.084375"/>
<path d="M18.7192 13.1402C18.8129 13.0464 18.9629 12.9452 19.0454 12.7277C19.1204 12.5177 19.1579 12.1389 19.2329 11.9477C19.3267 11.6177 19.5142 11.2952 19.2892 11.3177C19.0754 11.3402 19.0079 11.5427 18.9292 11.6927C18.8917 11.7489 18.8054 11.8689 18.7904 11.9364C18.7867 11.8239 18.7267 11.4902 18.7154 11.1564C18.7042 10.8414 18.7154 10.5189 18.7042 10.3952C18.6967 10.2339 18.6967 10.0839 18.6592 9.96766C18.6404 9.91141 18.5617 9.85516 18.5167 9.85891C18.4342 9.85891 18.3817 9.93391 18.3667 10.0052L18.3592 10.1102C18.3517 10.2002 18.3592 10.3164 18.3517 10.4214C18.3479 10.5339 18.3592 10.6539 18.3517 10.7589C18.3442 10.9614 18.3292 11.1527 18.3217 11.1902C18.3217 11.1152 18.2842 10.7514 18.2729 10.4064L18.2654 10.0314C18.2654 9.93391 18.2654 9.82891 18.2579 9.75391C18.2392 9.62641 18.1979 9.56641 18.1079 9.56641C18.0404 9.56641 17.9504 9.61516 17.9204 9.75391C17.9092 9.83266 17.9054 9.92641 17.9092 10.0314L17.9167 10.3314C17.9092 10.7252 17.9017 11.1377 17.8867 11.2614C17.8867 11.2239 17.8454 11.0177 17.8342 10.7402L17.8192 10.3802L17.8079 10.0202C17.8079 9.96016 17.7817 9.78766 17.6692 9.79516C17.6054 9.78766 17.5417 9.83266 17.5192 9.99391C17.5042 10.0877 17.5042 10.2414 17.5004 10.3652C17.4967 10.5902 17.4854 10.7927 17.5004 10.9989L17.5042 11.2877C17.5042 11.3027 17.4704 11.1789 17.4554 11.0102L17.4254 10.6877C17.4254 10.6014 17.4217 10.4739 17.4142 10.3689C17.4067 10.2902 17.4104 10.2002 17.3204 10.2077C17.2304 10.2114 17.1779 10.2452 17.1592 10.3952C17.1442 10.4964 17.1442 10.7139 17.1404 10.7889C17.1479 10.9877 17.0954 11.4527 17.0729 11.5839C17.0654 11.6777 17.0279 11.7977 17.0129 11.9289C16.9872 12.1868 16.9999 12.4472 17.0504 12.7014C17.1254 12.9639 17.3129 13.0839 17.3054 13.2639C17.2942 13.4439 17.3054 13.7627 17.3054 13.9014C17.3054 14.0439 17.4292 14.0514 17.6804 13.9989C18.1004 13.9089 18.3292 14.0889 18.6704 13.9539C18.6292 13.5639 18.7117 13.3277 18.7079 13.1852L18.7192 13.1402ZM18.4754 12.2139C18.5617 11.9739 18.6704 11.8802 18.7754 11.8314Z" fill="#CC0000"/>
<path d="M18.4754 12.2139C18.5617 11.9739 18.6704 11.8802 18.7754 11.8314M18.7192 13.1402C18.8129 13.0464 18.9629 12.9452 19.0454 12.7277C19.1204 12.5177 19.1579 12.1389 19.2329 11.9477C19.3267 11.6177 19.5142 11.2952 19.2892 11.3177C19.0754 11.3402 19.0079 11.5427 18.9292 11.6927C18.8917 11.7489 18.8054 11.8689 18.7904 11.9364C18.7867 11.8239 18.7267 11.4902 18.7154 11.1564C18.7042 10.8414 18.7154 10.5189 18.7042 10.3952C18.6967 10.2339 18.6967 10.0839 18.6592 9.96766C18.6404 9.91141 18.5617 9.85516 18.5167 9.85891C18.4342 9.85891 18.3817 9.93391 18.3667 10.0052L18.3592 10.1102C18.3517 10.2002 18.3592 10.3164 18.3517 10.4214C18.3479 10.5339 18.3592 10.6539 18.3517 10.7589C18.3442 10.9614 18.3292 11.1527 18.3217 11.1902C18.3217 11.1152 18.2842 10.7514 18.2729 10.4064L18.2654 10.0314C18.2654 9.93391 18.2654 9.82891 18.2579 9.75391C18.2392 9.62641 18.1979 9.56641 18.1079 9.56641C18.0404 9.56641 17.9504 9.61516 17.9204 9.75391C17.9092 9.83266 17.9054 9.92641 17.9092 10.0314L17.9167 10.3314C17.9092 10.7252 17.9017 11.1377 17.8867 11.2614C17.8867 11.2239 17.8454 11.0177 17.8342 10.7402L17.8192 10.3802L17.8079 10.0202C17.8079 9.96016 17.7817 9.78766 17.6692 9.79516C17.6054 9.78766 17.5417 9.83266 17.5192 9.99391C17.5042 10.0877 17.5042 10.2414 17.5004 10.3652C17.4967 10.5902 17.4854 10.7927 17.5004 10.9989L17.5042 11.2877C17.5042 11.3027 17.4704 11.1789 17.4554 11.0102L17.4254 10.6877C17.4254 10.6014 17.4217 10.4739 17.4142 10.3689C17.4067 10.2902 17.4104 10.2002 17.3204 10.2077C17.2304 10.2114 17.1779 10.2452 17.1592 10.3952C17.1442 10.4964 17.1442 10.7139 17.1404 10.7889C17.1479 10.9877 17.0954 11.4527 17.0729 11.5839C17.0654 11.6777 17.0279 11.7977 17.0129 11.9289C16.9872 12.1868 16.9999 12.4472 17.0504 12.7014C17.1254 12.9639 17.3129 13.0839 17.3054 13.2639C17.2942 13.4439 17.3054 13.7627 17.3054 13.9014C17.3054 14.0439 17.4292 14.0514 17.6804 13.9989C18.1004 13.9089 18.3292 14.0889 18.6704 13.9539C18.6292 13.5639 18.7117 13.3277 18.7079 13.1852L18.7192 13.1402Z" stroke="#161111" stroke-width="0.135"/>
<path d="M17.5256 11.9696C17.6569 11.9171 17.7881 11.8796 17.9231 11.8346C18.0844 11.7896 18.2419 11.7221 18.4106 11.6996C18.4856 11.6809 18.5681 11.6621 18.6506 11.6621M17.2969 13.2371C17.3119 13.2259 17.3344 13.2446 17.3494 13.2484C17.3719 13.2559 17.3981 13.2634 17.4244 13.2596C17.4744 13.2587 17.5244 13.2587 17.5744 13.2596C17.6381 13.2596 17.6869 13.2521 17.7356 13.2221M18.1106 13.2446L18.1706 13.2784C18.2006 13.2896 18.2381 13.2934 18.4444 13.2784C18.5756 13.2859 18.6881 13.1734 18.7219 13.1434" stroke="#161111" stroke-width="0.135"/>
</g>
</g>
<defs>
<filter id="filter0_d_336_29077" x="0" y="-2" width="36" height="36" filterUnits="userSpaceOnUse" color-interpolation-filters="sRGB">
<feFlood flood-opacity="0" result="BackgroundImageFix"/>
<feColorMatrix in="SourceAlpha" type="matrix" values="0 0 0 0 0 0 0 0 0 0 0 0 0 0 0 0 0 0 127 0" result="hardAlpha"/>
<feOffset dy="4"/>
<feGaussianBlur stdDeviation="3"/>
<feComposite in2="hardAlpha" operator="out"/>
<feColorMatrix type="matrix" values="0 0 0 0 0 0 0 0 0 0 0 0 0 0 0 0 0 0 0.16 0"/>
<feBlend mode="normal" in2="BackgroundImageFix" result="effect1_dropShadow_336_29077"/>
<feBlend mode="normal" in="SourceGraphic" in2="effect1_dropShadow_336_29077" result="shape"/>
</filter>
<clipPath id="clip0_336_29077">
<rect width="24" height="18" fill="white" transform="translate(6 3)"/>
</clipPath>
</defs>
</svg>
