<svg width="36" height="31" viewBox="0 0 36 31" fill="none" xmlns="http://www.w3.org/2000/svg">
<g filter="url(#filter0_d_336_33274)">
<g clip-path="url(#clip0_336_33274)">
<path d="M6 3H30V21H6V3Z" fill="#000066"/>
<path d="M6 3H18V12H6V3Z" fill="#012169"/>
<path d="M7.40625 3L11.9813 6.39375L16.5375 3H18V4.1625L13.5 7.51875L18 10.8563V12H16.5L12 8.64375L7.51875 12H6V10.875L10.4813 7.5375L6 4.2V3H7.40625Z" fill="white"/>
<path d="M13.95 8.26875L18 11.25V12L12.9188 8.26875H13.95ZM10.5 8.64375L10.6125 9.3L7.0125 12H6L10.5 8.64375ZM18 3V3.05625L13.3313 6.58125L13.3688 5.75625L17.0625 3H18ZM6 3L10.4813 6.3H9.35625L6 3.7875V3Z" fill="#C8102E"/>
<path d="M10.5188 3V12H13.5188V3H10.5188ZM6 6V9H18V6H6Z" fill="white"/>
<path d="M6 6.61875V8.41875H18V6.61875H6ZM11.1188 3V12H12.9188V3H11.1188Z" fill="#C8102E"/>
<path d="M20.4035 6.8328L27.6804 6.80664L27.6659 13.2873C27.6659 13.2873 27.9216 14.2754 24.6145 15.7721C25.8031 15.65 27.0992 14.3829 27.0992 14.3829C27.0992 14.3829 27.6252 13.7058 27.8839 14.0836C28.1396 14.4614 28.3808 14.6532 28.5697 14.8014C28.7586 14.9467 28.9068 15.3536 28.6249 15.65C28.3401 15.9493 27.8955 15.9871 27.7734 15.6239C27.5845 15.7198 26.425 17.1234 24.0478 17.1903C21.6299 17.1496 20.3076 15.6093 20.3076 15.6093C20.3076 15.6093 19.985 16.1237 19.5229 15.7198C19.0783 15.1908 19.4154 14.8537 19.4154 14.8537C19.4154 14.8537 19.7932 14.6387 19.9036 14.4905C20.078 14.287 20.1332 14.0168 20.4267 14.0168C20.7813 14.0458 20.9149 14.3277 20.9149 14.3277C20.9149 14.3277 22.1297 15.6093 23.4404 15.7721C20.4848 14.3539 20.3744 13.4762 20.3889 13.2612L20.4035 6.8357V6.8328Z" fill="white"/>
<path d="M20.5769 7.00944L27.5168 6.96875V13.2053C27.5313 14.019 26.1654 14.8415 24.0323 15.8935C21.8324 14.7601 20.5624 14.0713 20.5508 13.1908L20.5769 7.00944V7.00944Z" fill="#006129" stroke="black" stroke-width="0.122818"/>
<path d="M21.5234 7.93165L21.9303 7.33008L22.3459 7.93455" stroke="#FFC72C" stroke-width="0.122818"/>
<path d="M22.0145 7.70449C22.0145 7.7261 22.0059 7.74681 21.9906 7.76209C21.9753 7.77736 21.9546 7.78594 21.933 7.78594C21.9114 7.78594 21.8907 7.77736 21.8754 7.76209C21.8601 7.74681 21.8516 7.7261 21.8516 7.70449C21.8516 7.68289 21.8601 7.66218 21.8754 7.6469C21.8907 7.63163 21.9114 7.62305 21.933 7.62305C21.9546 7.62305 21.9753 7.63163 21.9906 7.6469C22.0059 7.66218 22.0145 7.68289 22.0145 7.70449V7.70449Z" fill="#FFC72C" stroke="black" stroke-width="0.0581768"/>
<path d="M21.5986 8.3761H22.235C22.235 8.3761 22.2437 8.29473 22.1682 8.24533C22.5024 8.19883 22.4152 7.90821 22.6913 7.89078C22.7494 7.8995 22.546 8.01574 22.546 8.01574C22.546 8.01574 22.3803 8.13199 22.4588 8.19302C22.5169 8.24242 22.546 8.16395 22.5518 8.10583C22.5605 8.04771 22.822 8.00993 22.7843 7.84428C22.7232 7.70769 22.3571 7.93728 22.3571 7.93728L22.0955 7.93437C22.0781 7.90531 22.0083 7.78906 21.9328 7.78906C21.8456 7.78906 21.7816 7.93437 21.7816 7.93437H21.1917C21.1917 7.93437 21.1714 8.08839 21.4707 8.11746C21.5375 8.20464 21.5898 8.22789 21.6509 8.25114C21.6102 8.28311 21.5986 8.32379 21.5986 8.3761V8.3761ZM21.6451 8.24823H22.174Z" fill="#FFC72C"/>
<path d="M21.6451 8.24823H22.174M21.5986 8.3761H22.235C22.235 8.3761 22.2437 8.29473 22.1682 8.24533C22.5024 8.19883 22.4152 7.90821 22.6913 7.89078C22.7494 7.8995 22.546 8.01574 22.546 8.01574C22.546 8.01574 22.3803 8.13199 22.4588 8.19302C22.5169 8.24242 22.546 8.16395 22.5518 8.10583C22.5605 8.04771 22.822 8.00993 22.7843 7.84428C22.7232 7.70769 22.3571 7.93728 22.3571 7.93728L22.0955 7.93437C22.0781 7.90531 22.0083 7.78906 21.9328 7.78906C21.8456 7.78906 21.7816 7.93437 21.7816 7.93437H21.1917C21.1917 7.93437 21.1714 8.08839 21.4707 8.11746C21.5375 8.20464 21.5898 8.22789 21.6509 8.25114C21.6102 8.28311 21.5986 8.32379 21.5986 8.3761V8.3761Z" stroke="black" stroke-width="0.0581768"/>
<path d="M21.4023 7.9375C21.4023 7.9375 21.4431 8.18475 21.6409 8.24293Z" fill="#FFC72C"/>
<path d="M21.4023 7.9375C21.4023 7.9375 21.4431 8.18475 21.6409 8.24293" stroke="black" stroke-width="0.0581768"/>
<path d="M21.3707 7.93141C21.3881 7.83842 21.4259 7.82098 21.4637 7.69892C21.4695 7.58268 21.3707 7.59721 21.3997 7.52455C21.4521 7.44028 21.4259 7.36181 21.3271 7.30078C21.3474 7.40831 21.1992 7.51002 21.1992 7.59721C21.1992 7.68439 21.2748 7.66695 21.2661 7.80064C21.2719 7.8762 21.2457 7.85876 21.237 7.93141H21.3707Z" fill="url(#paint0_linear_336_33274)" stroke="black" stroke-width="0.0581768"/>
<path d="M22.0067 7.34711C22.0067 7.36717 21.9988 7.38641 21.9846 7.40059C21.9704 7.41478 21.9512 7.42274 21.9311 7.42274C21.911 7.42274 21.8918 7.41478 21.8776 7.40059C21.8634 7.38641 21.8555 7.36717 21.8555 7.34711C21.8555 7.32706 21.8634 7.30782 21.8776 7.29364C21.8918 7.27945 21.911 7.27148 21.9311 7.27148C21.9512 7.27148 21.9704 7.27945 21.9846 7.29364C21.9988 7.30782 22.0067 7.32706 22.0067 7.34711V7.34711Z" fill="#FFC72C" stroke="black" stroke-width="0.0581768"/>
<path d="M21.5 9.13282L21.9069 8.53125L22.3224 9.13573" stroke="#FFC72C" stroke-width="0.122818"/>
<path d="M21.991 8.90567C21.991 8.92727 21.9824 8.94798 21.9672 8.96326C21.9519 8.97853 21.9312 8.98711 21.9096 8.98711C21.888 8.98711 21.8673 8.97853 21.852 8.96326C21.8367 8.94798 21.8281 8.92727 21.8281 8.90567C21.8281 8.88407 21.8367 8.86335 21.852 8.84807C21.8673 8.8328 21.888 8.82422 21.9096 8.82422C21.9312 8.82422 21.9519 8.8328 21.9672 8.84807C21.9824 8.86335 21.991 8.88407 21.991 8.90567V8.90567Z" fill="#FFC72C" stroke="black" stroke-width="0.0581768"/>
<path d="M21.5751 9.57727H22.2116C22.2116 9.57727 22.2203 9.4959 22.1447 9.4465C22.4789 9.4 22.3917 9.10939 22.6678 9.09195C22.7259 9.10067 22.5225 9.21691 22.5225 9.21691C22.5225 9.21691 22.3569 9.33316 22.4353 9.39419C22.4935 9.44359 22.5225 9.36513 22.5283 9.307C22.5371 9.24888 22.7986 9.2111 22.7608 9.04545C22.6998 8.90886 22.3336 9.13845 22.3336 9.13845L22.0721 9.13554C22.0546 9.10648 21.9849 8.99023 21.9093 8.99023C21.8221 8.99023 21.7582 9.13554 21.7582 9.13554H21.1683C21.1683 9.13554 21.1479 9.28957 21.4472 9.31863C21.5141 9.40581 21.5664 9.42906 21.6274 9.45231C21.5867 9.48428 21.5751 9.52496 21.5751 9.57727V9.57727ZM21.6216 9.4494H22.1505Z" fill="#FFC72C"/>
<path d="M21.6216 9.4494H22.1505M21.5751 9.57727H22.2116C22.2116 9.57727 22.2203 9.4959 22.1447 9.4465C22.4789 9.4 22.3917 9.10939 22.6678 9.09195C22.7259 9.10067 22.5225 9.21691 22.5225 9.21691C22.5225 9.21691 22.3569 9.33316 22.4353 9.39419C22.4935 9.44359 22.5225 9.36513 22.5283 9.307C22.5371 9.24888 22.7986 9.2111 22.7608 9.04545C22.6998 8.90886 22.3336 9.13845 22.3336 9.13845L22.0721 9.13554C22.0546 9.10648 21.9849 8.99023 21.9093 8.99023C21.8221 8.99023 21.7582 9.13554 21.7582 9.13554H21.1683C21.1683 9.13554 21.1479 9.28957 21.4472 9.31863C21.5141 9.40581 21.5664 9.42906 21.6274 9.45231C21.5867 9.48428 21.5751 9.52496 21.5751 9.57727V9.57727Z" stroke="black" stroke-width="0.0581768"/>
<path d="M21.3789 9.13867C21.3789 9.13867 21.4196 9.38592 21.6174 9.4441Z" fill="#FFC72C"/>
<path d="M21.3789 9.13867C21.3789 9.13867 21.4196 9.38592 21.6174 9.4441" stroke="black" stroke-width="0.0581768"/>
<path d="M21.3472 9.13258C21.3647 9.03959 21.4025 9.02215 21.4402 8.90009C21.4461 8.78385 21.3472 8.79838 21.3763 8.72573C21.4286 8.64145 21.4025 8.56298 21.3037 8.50195C21.324 8.60948 21.1758 8.71119 21.1758 8.79838C21.1758 8.88556 21.2513 8.86813 21.2426 9.00181C21.2484 9.07737 21.2223 9.05993 21.2136 9.13258H21.3472Z" fill="url(#paint1_linear_336_33274)" stroke="black" stroke-width="0.0581768"/>
<path d="M21.9833 8.54829C21.9833 8.56834 21.9753 8.58758 21.9611 8.60176C21.947 8.61595 21.9277 8.62392 21.9077 8.62392C21.8876 8.62392 21.8684 8.61595 21.8542 8.60176C21.84 8.58758 21.832 8.56834 21.832 8.54829C21.832 8.52823 21.84 8.50899 21.8542 8.49481C21.8684 8.48062 21.8876 8.47266 21.9077 8.47266C21.9277 8.47266 21.947 8.48062 21.9611 8.49481C21.9753 8.50899 21.9833 8.52823 21.9833 8.54829V8.54829Z" fill="#FFC72C" stroke="black" stroke-width="0.0581768"/>
<path d="M21.4922 10.3145L21.899 9.71289L22.3146 10.3174" stroke="#FFC72C" stroke-width="0.122818"/>
<path d="M21.9832 10.0873C21.9832 10.1089 21.9746 10.1296 21.9594 10.1449C21.9441 10.1602 21.9234 10.1688 21.9018 10.1688C21.8802 10.1688 21.8594 10.1602 21.8442 10.1449C21.8289 10.1296 21.8203 10.1089 21.8203 10.0873C21.8203 10.0657 21.8289 10.045 21.8442 10.0297C21.8594 10.0144 21.8802 10.0059 21.9018 10.0059C21.9234 10.0059 21.9441 10.0144 21.9594 10.0297C21.9746 10.045 21.9832 10.0657 21.9832 10.0873V10.0873Z" fill="#FFC72C" stroke="black" stroke-width="0.0581768"/>
<path d="M21.5673 10.7589H22.2037C22.2037 10.7589 22.2125 10.6775 22.1369 10.6281C22.4711 10.5816 22.3839 10.291 22.66 10.2736C22.7181 10.2823 22.5147 10.3986 22.5147 10.3986C22.5147 10.3986 22.3491 10.5148 22.4275 10.5758C22.4856 10.6252 22.5147 10.5468 22.5205 10.4886C22.5292 10.4305 22.7908 10.3927 22.753 10.2271C22.692 10.0905 22.3258 10.3201 22.3258 10.3201L22.0643 10.3172C22.0468 10.2881 21.9771 10.1719 21.9015 10.1719C21.8143 10.1719 21.7504 10.3172 21.7504 10.3172H21.1604C21.1604 10.3172 21.1401 10.4712 21.4394 10.5003C21.5063 10.5875 21.5586 10.6107 21.6196 10.634C21.5789 10.6659 21.5673 10.7066 21.5673 10.7589V10.7589ZM21.6138 10.631H22.1427Z" fill="#FFC72C"/>
<path d="M21.6138 10.631H22.1427M21.5673 10.7589H22.2037C22.2037 10.7589 22.2125 10.6775 22.1369 10.6281C22.4711 10.5816 22.3839 10.291 22.66 10.2736C22.7181 10.2823 22.5147 10.3986 22.5147 10.3986C22.5147 10.3986 22.3491 10.5148 22.4275 10.5758C22.4856 10.6252 22.5147 10.5468 22.5205 10.4886C22.5292 10.4305 22.7908 10.3927 22.753 10.2271C22.692 10.0905 22.3258 10.3201 22.3258 10.3201L22.0643 10.3172C22.0468 10.2881 21.9771 10.1719 21.9015 10.1719C21.8143 10.1719 21.7504 10.3172 21.7504 10.3172H21.1604C21.1604 10.3172 21.1401 10.4712 21.4394 10.5003C21.5063 10.5875 21.5586 10.6107 21.6196 10.634C21.5789 10.6659 21.5673 10.7066 21.5673 10.7589V10.7589Z" stroke="black" stroke-width="0.0581768"/>
<path d="M21.3711 10.3203C21.3711 10.3203 21.4118 10.5676 21.6096 10.6257Z" fill="#FFC72C"/>
<path d="M21.3711 10.3203C21.3711 10.3203 21.4118 10.5676 21.6096 10.6257" stroke="black" stroke-width="0.0581768"/>
<path d="M21.3394 10.3142C21.3569 10.2212 21.3946 10.2038 21.4324 10.0817C21.4382 9.96549 21.3394 9.98002 21.3685 9.90737C21.4208 9.82309 21.3946 9.74462 21.2958 9.68359C21.3162 9.79112 21.168 9.89284 21.168 9.98002C21.168 10.0672 21.2435 10.0498 21.2348 10.1834C21.2406 10.259 21.2145 10.2416 21.2057 10.3142H21.3394Z" fill="url(#paint2_linear_336_33274)" stroke="black" stroke-width="0.0581768"/>
<path d="M21.9755 9.72993C21.9755 9.74998 21.9675 9.76922 21.9533 9.78341C21.9391 9.79759 21.9199 9.80556 21.8998 9.80556C21.8798 9.80556 21.8606 9.79759 21.8464 9.78341C21.8322 9.76922 21.8242 9.74998 21.8242 9.72993C21.8242 9.70987 21.8322 9.69063 21.8464 9.67645C21.8606 9.66226 21.8798 9.6543 21.8998 9.6543C21.9199 9.6543 21.9391 9.66226 21.9533 9.67645C21.9675 9.69063 21.9755 9.70987 21.9755 9.72993V9.72993Z" fill="#FFC72C" stroke="black" stroke-width="0.0581768"/>
<path d="M22.2656 11.5957L22.6725 10.9941L23.0881 11.5986" stroke="#FFC72C" stroke-width="0.122818"/>
<path d="M22.7566 11.3686C22.7566 11.3902 22.7481 11.4109 22.7328 11.4261C22.7175 11.4414 22.6968 11.45 22.6752 11.45C22.6536 11.45 22.6329 11.4414 22.6176 11.4261C22.6023 11.4109 22.5938 11.3902 22.5938 11.3686C22.5938 11.347 22.6023 11.3262 22.6176 11.311C22.6329 11.2957 22.6536 11.2871 22.6752 11.2871C22.6968 11.2871 22.7175 11.2957 22.7328 11.311C22.7481 11.3262 22.7566 11.347 22.7566 11.3686V11.3686Z" fill="#FFC72C" stroke="black" stroke-width="0.0581768"/>
<path d="M22.3407 12.0402H22.9772C22.9772 12.0402 22.9859 11.9588 22.9103 11.9094C23.2446 11.8629 23.1574 11.5723 23.4335 11.5548C23.4916 11.5636 23.2881 11.6798 23.2881 11.6798C23.2881 11.6798 23.1225 11.796 23.201 11.8571C23.2591 11.9065 23.2881 11.828 23.294 11.7699C23.3027 11.7118 23.5642 11.674 23.5264 11.5083C23.4654 11.3718 23.0992 11.6013 23.0992 11.6013L22.8377 11.5984C22.8203 11.5694 22.7505 11.4531 22.675 11.4531C22.5878 11.4531 22.5238 11.5984 22.5238 11.5984H21.9339C21.9339 11.5984 21.9135 11.7525 22.2129 11.7815C22.2797 11.8687 22.332 11.892 22.3931 11.9152C22.3524 11.9472 22.3407 11.9879 22.3407 12.0402V12.0402ZM22.3872 11.9123H22.9162Z" fill="#FFC72C"/>
<path d="M22.3872 11.9123H22.9162M22.3407 12.0402H22.9772C22.9772 12.0402 22.9859 11.9588 22.9103 11.9094C23.2446 11.8629 23.1574 11.5723 23.4335 11.5548C23.4916 11.5636 23.2881 11.6798 23.2881 11.6798C23.2881 11.6798 23.1225 11.796 23.201 11.8571C23.2591 11.9065 23.2881 11.828 23.294 11.7699C23.3027 11.7118 23.5642 11.674 23.5264 11.5083C23.4654 11.3718 23.0992 11.6013 23.0992 11.6013L22.8377 11.5984C22.8203 11.5694 22.7505 11.4531 22.675 11.4531C22.5878 11.4531 22.5238 11.5984 22.5238 11.5984H21.9339C21.9339 11.5984 21.9135 11.7525 22.2129 11.7815C22.2797 11.8687 22.332 11.892 22.3931 11.9152C22.3524 11.9472 22.3407 11.9879 22.3407 12.0402V12.0402Z" stroke="black" stroke-width="0.0581768"/>
<path d="M22.1445 11.6016C22.1445 11.6016 22.1853 11.8488 22.3831 11.907Z" fill="#FFC72C"/>
<path d="M22.1445 11.6016C22.1445 11.6016 22.1853 11.8488 22.3831 11.907" stroke="black" stroke-width="0.0581768"/>
<path d="M22.1129 11.5955C22.1303 11.5025 22.1681 11.485 22.2059 11.363C22.2117 11.2467 22.1129 11.2613 22.1419 11.1886C22.1942 11.1043 22.1681 11.0259 22.0693 10.9648C22.0896 11.0724 21.9414 11.1741 21.9414 11.2613C21.9414 11.3485 22.017 11.331 22.0082 11.4647C22.0141 11.5403 21.9879 11.5228 21.9792 11.5955H22.1129Z" fill="url(#paint3_linear_336_33274)" stroke="black" stroke-width="0.0581768"/>
<path d="M22.7489 11.0112C22.7489 11.0312 22.7409 11.0505 22.7268 11.0647C22.7126 11.0788 22.6933 11.0868 22.6733 11.0868C22.6532 11.0868 22.634 11.0788 22.6198 11.0647C22.6056 11.0505 22.5977 11.0312 22.5977 11.0112C22.5977 10.9911 22.6056 10.9719 22.6198 10.9577C22.634 10.9435 22.6532 10.9355 22.6733 10.9355C22.6933 10.9355 22.7126 10.9435 22.7268 10.9577C22.7409 10.9719 22.7489 10.9911 22.7489 11.0112V11.0112Z" fill="#FFC72C" stroke="black" stroke-width="0.0581768"/>
<path d="M21.3906 12.6465L21.7975 12.0449L22.2131 12.6494" stroke="#FFC72C" stroke-width="0.122818"/>
<path d="M21.8816 12.4193C21.8816 12.4409 21.8731 12.4617 21.8578 12.4769C21.8425 12.4922 21.8218 12.5008 21.8002 12.5008C21.7786 12.5008 21.7579 12.4922 21.7426 12.4769C21.7273 12.4617 21.7188 12.4409 21.7188 12.4193C21.7188 12.3977 21.7273 12.377 21.7426 12.3617C21.7579 12.3465 21.7786 12.3379 21.8002 12.3379C21.8218 12.3379 21.8425 12.3465 21.8578 12.3617C21.8731 12.377 21.8816 12.3977 21.8816 12.4193V12.4193Z" fill="#FFC72C" stroke="black" stroke-width="0.0581768"/>
<path d="M21.4657 13.0909H22.1022C22.1022 13.0909 22.1109 13.0096 22.0353 12.9602C22.3696 12.9137 22.2824 12.6231 22.5585 12.6056C22.6166 12.6143 22.4131 12.7306 22.4131 12.7306C22.4131 12.7306 22.2475 12.8468 22.326 12.9079C22.3841 12.9573 22.4131 12.8788 22.419 12.8207C22.4277 12.7626 22.6892 12.7248 22.6514 12.5591C22.5904 12.4225 22.2242 12.6521 22.2242 12.6521L21.9627 12.6492C21.9453 12.6202 21.8755 12.5039 21.8 12.5039C21.7128 12.5039 21.6488 12.6492 21.6488 12.6492H21.0589C21.0589 12.6492 21.0385 12.8032 21.3379 12.8323C21.4047 12.9195 21.457 12.9427 21.5181 12.966C21.4774 12.9979 21.4657 13.0386 21.4657 13.0909V13.0909ZM21.5122 12.9631H22.0412Z" fill="#FFC72C"/>
<path d="M21.5122 12.9631H22.0412M21.4657 13.0909H22.1022C22.1022 13.0909 22.1109 13.0096 22.0353 12.9602C22.3696 12.9137 22.2824 12.6231 22.5585 12.6056C22.6166 12.6143 22.4131 12.7306 22.4131 12.7306C22.4131 12.7306 22.2475 12.8468 22.326 12.9079C22.3841 12.9573 22.4131 12.8788 22.419 12.8207C22.4277 12.7626 22.6892 12.7248 22.6514 12.5591C22.5904 12.4225 22.2242 12.6521 22.2242 12.6521L21.9627 12.6492C21.9453 12.6202 21.8755 12.5039 21.8 12.5039C21.7128 12.5039 21.6488 12.6492 21.6488 12.6492H21.0589C21.0589 12.6492 21.0385 12.8032 21.3379 12.8323C21.4047 12.9195 21.457 12.9427 21.5181 12.966C21.4774 12.9979 21.4657 13.0386 21.4657 13.0909V13.0909Z" stroke="black" stroke-width="0.0581768"/>
<path d="M21.2695 12.6523C21.2695 12.6523 21.3103 12.8996 21.5081 12.9578Z" fill="#FFC72C"/>
<path d="M21.2695 12.6523C21.2695 12.6523 21.3103 12.8996 21.5081 12.9578" stroke="black" stroke-width="0.0581768"/>
<path d="M21.2379 12.6463C21.2553 12.5533 21.2931 12.5358 21.3309 12.4138C21.3367 12.2975 21.2379 12.3121 21.2669 12.2394C21.3192 12.1551 21.2931 12.0767 21.1943 12.0156C21.2146 12.1232 21.0664 12.2249 21.0664 12.3121C21.0664 12.3992 21.142 12.3818 21.1332 12.5155C21.1391 12.591 21.1129 12.5736 21.1042 12.6463H21.2379Z" fill="url(#paint4_linear_336_33274)" stroke="black" stroke-width="0.0581768"/>
<path d="M21.8739 12.062C21.8739 12.082 21.8659 12.1013 21.8518 12.1154C21.8376 12.1296 21.8183 12.1376 21.7983 12.1376C21.7782 12.1376 21.759 12.1296 21.7448 12.1154C21.7306 12.1013 21.7227 12.082 21.7227 12.062C21.7227 12.0419 21.7306 12.0227 21.7448 12.0085C21.759 11.9943 21.7782 11.9863 21.7983 11.9863C21.8183 11.9863 21.8376 11.9943 21.8518 12.0085C21.8659 12.0227 21.8739 12.0419 21.8739 12.062V12.062Z" fill="#FFC72C" stroke="black" stroke-width="0.0581768"/>
<path d="M21.4141 13.8828L21.8209 13.2812L22.2365 13.8857" stroke="#FFC72C" stroke-width="0.122818"/>
<path d="M21.9051 13.6557C21.9051 13.6773 21.8965 13.698 21.8812 13.7133C21.866 13.7285 21.8452 13.7371 21.8236 13.7371C21.802 13.7371 21.7813 13.7285 21.766 13.7133C21.7508 13.698 21.7422 13.6773 21.7422 13.6557C21.7422 13.6341 21.7508 13.6133 21.766 13.5981C21.7813 13.5828 21.802 13.5742 21.8236 13.5742C21.8452 13.5742 21.866 13.5828 21.8812 13.5981C21.8965 13.6133 21.9051 13.6341 21.9051 13.6557V13.6557Z" fill="#FFC72C" stroke="black" stroke-width="0.0581768"/>
<path d="M21.4892 14.3273H22.1256C22.1256 14.3273 22.1343 14.2459 22.0588 14.1965C22.393 14.15 22.3058 13.8594 22.5819 13.8419C22.64 13.8507 22.4366 13.9669 22.4366 13.9669C22.4366 13.9669 22.2709 14.0832 22.3494 14.1442C22.4075 14.1936 22.4366 14.1151 22.4424 14.057C22.4511 13.9989 22.7127 13.9611 22.6749 13.7955C22.6139 13.6589 22.2477 13.8884 22.2477 13.8884L21.9861 13.8855C21.9687 13.8565 21.8989 13.7402 21.8234 13.7402C21.7362 13.7402 21.6723 13.8855 21.6723 13.8855H21.0823C21.0823 13.8855 21.062 14.0396 21.3613 14.0686C21.4282 14.1558 21.4805 14.1791 21.5415 14.2023C21.5008 14.2343 21.4892 14.275 21.4892 14.3273V14.3273ZM21.5357 14.1994H22.0646Z" fill="#FFC72C"/>
<path d="M21.5357 14.1994H22.0646M21.4892 14.3273H22.1256C22.1256 14.3273 22.1343 14.2459 22.0588 14.1965C22.393 14.15 22.3058 13.8594 22.5819 13.8419C22.64 13.8507 22.4366 13.9669 22.4366 13.9669C22.4366 13.9669 22.2709 14.0832 22.3494 14.1442C22.4075 14.1936 22.4366 14.1151 22.4424 14.057C22.4511 13.9989 22.7127 13.9611 22.6749 13.7955C22.6139 13.6589 22.2477 13.8884 22.2477 13.8884L21.9861 13.8855C21.9687 13.8565 21.8989 13.7402 21.8234 13.7402C21.7362 13.7402 21.6723 13.8855 21.6723 13.8855H21.0823C21.0823 13.8855 21.062 14.0396 21.3613 14.0686C21.4282 14.1558 21.4805 14.1791 21.5415 14.2023C21.5008 14.2343 21.4892 14.275 21.4892 14.3273V14.3273Z" stroke="black" stroke-width="0.0581768"/>
<path d="M21.293 13.8887C21.293 13.8887 21.3337 14.1359 21.5315 14.1941Z" fill="#FFC72C"/>
<path d="M21.293 13.8887C21.293 13.8887 21.3337 14.1359 21.5315 14.1941" stroke="black" stroke-width="0.0581768"/>
<path d="M21.2613 13.8826C21.2787 13.7896 21.3165 13.7722 21.3543 13.6501C21.3601 13.5338 21.2613 13.5484 21.2904 13.4757C21.3427 13.3914 21.3165 13.313 21.2177 13.252C21.2381 13.3595 21.0898 13.4612 21.0898 13.5484C21.0898 13.6356 21.1654 13.6181 21.1567 13.7518C21.1625 13.8274 21.1363 13.8099 21.1276 13.8826H21.2613Z" fill="url(#paint5_linear_336_33274)" stroke="black" stroke-width="0.0581768"/>
<path d="M21.8974 13.2983C21.8974 13.3183 21.8894 13.3376 21.8752 13.3518C21.861 13.3659 21.8418 13.3739 21.8217 13.3739C21.8017 13.3739 21.7824 13.3659 21.7682 13.3518C21.7541 13.3376 21.7461 13.3183 21.7461 13.2983C21.7461 13.2782 21.7541 13.259 21.7682 13.2448C21.7824 13.2306 21.8017 13.2227 21.8217 13.2227C21.8418 13.2227 21.861 13.2306 21.8752 13.2448C21.8894 13.259 21.8974 13.2782 21.8974 13.2983V13.2983Z" fill="#FFC72C" stroke="black" stroke-width="0.0581768"/>
<path d="M25.7734 7.95313L26.1803 7.35156L26.5959 7.95604" stroke="#FFC72C" stroke-width="0.122818"/>
<path d="M26.2645 7.72598C26.2645 7.74758 26.2559 7.7683 26.2406 7.78357C26.2253 7.79885 26.2046 7.80743 26.183 7.80743C26.1614 7.80743 26.1407 7.79885 26.1254 7.78357C26.1101 7.7683 26.1016 7.74758 26.1016 7.72598C26.1016 7.70438 26.1101 7.68366 26.1254 7.66839C26.1407 7.65311 26.1614 7.64453 26.183 7.64453C26.2046 7.64453 26.2253 7.65311 26.2406 7.66839C26.2559 7.68366 26.2645 7.70438 26.2645 7.72598V7.72598Z" fill="#FFC72C" stroke="black" stroke-width="0.0581768"/>
<path d="M25.8486 8.39759H26.485C26.485 8.39759 26.4937 8.31622 26.4182 8.26681C26.7524 8.22031 26.6652 7.9297 26.9413 7.91226C26.9994 7.92098 26.796 8.03723 26.796 8.03723C26.796 8.03723 26.6303 8.15347 26.7088 8.2145C26.7669 8.2639 26.796 8.18544 26.8018 8.12732C26.8105 8.06919 27.072 8.03141 27.0343 7.86576C26.9732 7.72918 26.6071 7.95876 26.6071 7.95876L26.3455 7.95585C26.3281 7.92679 26.2583 7.81055 26.1828 7.81055C26.0956 7.81055 26.0316 7.95585 26.0316 7.95585H25.4417C25.4417 7.95585 25.4214 8.10988 25.7207 8.13894C25.7875 8.22612 25.8398 8.24937 25.9009 8.27262C25.8602 8.30459 25.8486 8.34528 25.8486 8.39759V8.39759ZM25.8951 8.26972H26.424Z" fill="#FFC72C"/>
<path d="M25.8951 8.26972H26.424M25.8486 8.39759H26.485C26.485 8.39759 26.4937 8.31622 26.4182 8.26681C26.7524 8.22031 26.6652 7.9297 26.9413 7.91226C26.9994 7.92098 26.796 8.03723 26.796 8.03723C26.796 8.03723 26.6303 8.15347 26.7088 8.2145C26.7669 8.2639 26.796 8.18544 26.8018 8.12732C26.8105 8.06919 27.072 8.03141 27.0343 7.86576C26.9732 7.72918 26.6071 7.95876 26.6071 7.95876L26.3455 7.95585C26.3281 7.92679 26.2583 7.81055 26.1828 7.81055C26.0956 7.81055 26.0316 7.95585 26.0316 7.95585H25.4417C25.4417 7.95585 25.4214 8.10988 25.7207 8.13894C25.7875 8.22612 25.8398 8.24937 25.9009 8.27262C25.8602 8.30459 25.8486 8.34528 25.8486 8.39759V8.39759Z" stroke="black" stroke-width="0.0581768"/>
<path d="M25.6523 7.95898C25.6523 7.95898 25.6931 8.20624 25.8909 8.26441Z" fill="#FFC72C"/>
<path d="M25.6523 7.95898C25.6523 7.95898 25.6931 8.20624 25.8909 8.26441" stroke="black" stroke-width="0.0581768"/>
<path d="M25.6207 7.9529C25.6381 7.8599 25.6759 7.84246 25.7137 7.72041C25.7195 7.60416 25.6207 7.61869 25.6497 7.54604C25.7021 7.46176 25.6759 7.38329 25.5771 7.32227C25.5974 7.42979 25.4492 7.53151 25.4492 7.61869C25.4492 7.70588 25.5248 7.68844 25.5161 7.82212C25.5219 7.89768 25.4957 7.88024 25.487 7.9529H25.6207Z" fill="url(#paint6_linear_336_33274)" stroke="black" stroke-width="0.0581768"/>
<path d="M26.2567 7.3686C26.2567 7.38866 26.2488 7.40789 26.2346 7.42208C26.2204 7.43626 26.2012 7.44423 26.1811 7.44423C26.161 7.44423 26.1418 7.43626 26.1276 7.42208C26.1134 7.40789 26.1055 7.38866 26.1055 7.3686C26.1055 7.34854 26.1134 7.3293 26.1276 7.31512C26.1418 7.30094 26.161 7.29297 26.1811 7.29297C26.2012 7.29297 26.2204 7.30094 26.2346 7.31512C26.2488 7.3293 26.2567 7.34854 26.2567 7.3686V7.3686Z" fill="#FFC72C" stroke="black" stroke-width="0.0581768"/>
<path d="M25.7344 9.12891L26.1412 8.52734L26.5568 9.13182" stroke="#FFC72C" stroke-width="0.122818"/>
<path d="M26.2254 8.90176C26.2254 8.92336 26.2168 8.94408 26.2015 8.95935C26.1863 8.97463 26.1656 8.98321 26.1439 8.98321C26.1223 8.98321 26.1016 8.97463 26.0864 8.95935C26.0711 8.94408 26.0625 8.92336 26.0625 8.90176C26.0625 8.88016 26.0711 8.85944 26.0864 8.84417C26.1016 8.82889 26.1223 8.82031 26.1439 8.82031C26.1656 8.82031 26.1863 8.82889 26.2015 8.84417C26.2168 8.85944 26.2254 8.88016 26.2254 8.90176V8.90176Z" fill="#FFC72C" stroke="black" stroke-width="0.0581768"/>
<path d="M25.8095 9.57337H26.4459C26.4459 9.57337 26.4547 9.492 26.3791 9.44259C26.7133 9.39609 26.6261 9.10548 26.9022 9.08804C26.9603 9.09676 26.7569 9.21301 26.7569 9.21301C26.7569 9.21301 26.5912 9.32925 26.6697 9.39028C26.7278 9.43969 26.7569 9.36122 26.7627 9.3031C26.7714 9.24497 27.033 9.20719 26.9952 9.04155C26.9342 8.90496 26.568 9.13454 26.568 9.13454L26.3064 9.13164C26.289 9.10257 26.2193 8.98633 26.1437 8.98633C26.0565 8.98633 25.9926 9.13164 25.9926 9.13164H25.4026C25.4026 9.13164 25.3823 9.28566 25.6816 9.31472C25.7485 9.40191 25.8008 9.42516 25.8618 9.4484C25.8211 9.48037 25.8095 9.52106 25.8095 9.57337V9.57337ZM25.856 9.4455H26.3849Z" fill="#FFC72C"/>
<path d="M25.856 9.4455H26.3849M25.8095 9.57337H26.4459C26.4459 9.57337 26.4547 9.492 26.3791 9.44259C26.7133 9.39609 26.6261 9.10548 26.9022 9.08804C26.9603 9.09676 26.7569 9.21301 26.7569 9.21301C26.7569 9.21301 26.5912 9.32925 26.6697 9.39028C26.7278 9.43969 26.7569 9.36122 26.7627 9.3031C26.7714 9.24497 27.033 9.20719 26.9952 9.04155C26.9342 8.90496 26.568 9.13454 26.568 9.13454L26.3064 9.13164C26.289 9.10257 26.2193 8.98633 26.1437 8.98633C26.0565 8.98633 25.9926 9.13164 25.9926 9.13164H25.4026C25.4026 9.13164 25.3823 9.28566 25.6816 9.31472C25.7485 9.40191 25.8008 9.42516 25.8618 9.4484C25.8211 9.48037 25.8095 9.52106 25.8095 9.57337V9.57337Z" stroke="black" stroke-width="0.0581768"/>
<path d="M25.6133 9.13477C25.6133 9.13477 25.654 9.38202 25.8518 9.44019Z" fill="#FFC72C"/>
<path d="M25.6133 9.13477C25.6133 9.13477 25.654 9.38202 25.8518 9.44019" stroke="black" stroke-width="0.0581768"/>
<path d="M25.5816 9.12868C25.5991 9.03568 25.6368 9.01825 25.6746 8.89619C25.6804 8.77994 25.5816 8.79447 25.6107 8.72182C25.663 8.63754 25.6368 8.55908 25.538 8.49805C25.5584 8.60557 25.4102 8.70729 25.4102 8.79447C25.4102 8.88166 25.4857 8.86422 25.477 8.9979C25.4828 9.07346 25.4567 9.05603 25.4479 9.12868H25.5816Z" fill="url(#paint7_linear_336_33274)" stroke="black" stroke-width="0.0581768"/>
<path d="M26.2177 8.54438C26.2177 8.56444 26.2097 8.58367 26.1955 8.59786C26.1813 8.61204 26.1621 8.62001 26.142 8.62001C26.122 8.62001 26.1027 8.61204 26.0886 8.59786C26.0744 8.58367 26.0664 8.56444 26.0664 8.54438C26.0664 8.52432 26.0744 8.50508 26.0886 8.4909C26.1027 8.47672 26.122 8.46875 26.142 8.46875C26.1621 8.46875 26.1813 8.47672 26.1955 8.4909C26.2097 8.50508 26.2177 8.52432 26.2177 8.54438V8.54438Z" fill="#FFC72C" stroke="black" stroke-width="0.0581768"/>
<path d="M25.6797 10.3359L26.0865 9.73438L26.5021 10.3389" stroke="#FFC72C" stroke-width="0.122818"/>
<path d="M26.1707 10.1088C26.1707 10.1304 26.1621 10.1511 26.1469 10.1664C26.1316 10.1817 26.1109 10.1902 26.0893 10.1902C26.0677 10.1902 26.0469 10.1817 26.0317 10.1664C26.0164 10.1511 26.0078 10.1304 26.0078 10.1088C26.0078 10.0872 26.0164 10.0665 26.0317 10.0512C26.0469 10.0359 26.0677 10.0273 26.0893 10.0273C26.1109 10.0273 26.1316 10.0359 26.1469 10.0512C26.1621 10.0665 26.1707 10.0872 26.1707 10.1088V10.1088Z" fill="#FFC72C" stroke="black" stroke-width="0.0581768"/>
<path d="M25.7548 10.7804H26.3912C26.3912 10.7804 26.4 10.699 26.3244 10.6496C26.6586 10.6031 26.5714 10.3125 26.8475 10.2951C26.9056 10.3038 26.7022 10.42 26.7022 10.42C26.7022 10.42 26.5366 10.5363 26.615 10.5973C26.6731 10.6467 26.7022 10.5683 26.708 10.5101C26.7167 10.452 26.9783 10.4142 26.9405 10.2486C26.8795 10.112 26.5133 10.3416 26.5133 10.3416L26.2518 10.3387C26.2343 10.3096 26.1646 10.1934 26.089 10.1934C26.0018 10.1934 25.9379 10.3387 25.9379 10.3387H25.3479C25.3479 10.3387 25.3276 10.4927 25.6269 10.5218C25.6938 10.6089 25.7461 10.6322 25.8071 10.6554C25.7664 10.6874 25.7548 10.7281 25.7548 10.7804V10.7804ZM25.8013 10.6525H26.3302Z" fill="#FFC72C"/>
<path d="M25.8013 10.6525H26.3302M25.7548 10.7804H26.3912C26.3912 10.7804 26.4 10.699 26.3244 10.6496C26.6586 10.6031 26.5714 10.3125 26.8475 10.2951C26.9056 10.3038 26.7022 10.42 26.7022 10.42C26.7022 10.42 26.5366 10.5363 26.615 10.5973C26.6731 10.6467 26.7022 10.5683 26.708 10.5101C26.7167 10.452 26.9783 10.4142 26.9405 10.2486C26.8795 10.112 26.5133 10.3416 26.5133 10.3416L26.2518 10.3387C26.2343 10.3096 26.1646 10.1934 26.089 10.1934C26.0018 10.1934 25.9379 10.3387 25.9379 10.3387H25.3479C25.3479 10.3387 25.3276 10.4927 25.6269 10.5218C25.6938 10.6089 25.7461 10.6322 25.8071 10.6554C25.7664 10.6874 25.7548 10.7281 25.7548 10.7804V10.7804Z" stroke="black" stroke-width="0.0581768"/>
<path d="M25.5586 10.3418C25.5586 10.3418 25.5993 10.589 25.7971 10.6472Z" fill="#FFC72C"/>
<path d="M25.5586 10.3418C25.5586 10.3418 25.5993 10.589 25.7971 10.6472" stroke="black" stroke-width="0.0581768"/>
<path d="M25.5269 10.3357C25.5444 10.2427 25.5821 10.2253 25.6199 10.1032C25.6257 9.98697 25.5269 10.0015 25.556 9.92885C25.6083 9.84457 25.5821 9.76611 25.4833 9.70508C25.5037 9.81261 25.3555 9.91432 25.3555 10.0015C25.3555 10.0887 25.431 10.0713 25.4223 10.2049C25.4281 10.2805 25.402 10.2631 25.3932 10.3357H25.5269Z" fill="url(#paint8_linear_336_33274)" stroke="black" stroke-width="0.0581768"/>
<path d="M26.163 9.75141C26.163 9.77147 26.155 9.79071 26.1408 9.80489C26.1266 9.81907 26.1074 9.82704 26.0873 9.82704C26.0673 9.82704 26.0481 9.81907 26.0339 9.80489C26.0197 9.79071 26.0117 9.77147 26.0117 9.75141C26.0117 9.73135 26.0197 9.71212 26.0339 9.69793C26.0481 9.68375 26.0673 9.67578 26.0873 9.67578C26.1074 9.67578 26.1266 9.68375 26.1408 9.69793C26.155 9.71212 26.163 9.73135 26.163 9.75141V9.75141Z" fill="#FFC72C" stroke="black" stroke-width="0.0581768"/>
<path d="M25.7422 11.5176L26.149 10.916L26.5646 11.5205" stroke="#FFC72C" stroke-width="0.122818"/>
<path d="M26.2332 11.2904C26.2332 11.312 26.2246 11.3327 26.2094 11.348C26.1941 11.3633 26.1734 11.3719 26.1518 11.3719C26.1302 11.3719 26.1094 11.3633 26.0942 11.348C26.0789 11.3327 26.0703 11.312 26.0703 11.2904C26.0703 11.2688 26.0789 11.2481 26.0942 11.2328C26.1094 11.2176 26.1302 11.209 26.1518 11.209C26.1734 11.209 26.1941 11.2176 26.2094 11.2328C26.2246 11.2481 26.2332 11.2688 26.2332 11.2904V11.2904Z" fill="#FFC72C" stroke="black" stroke-width="0.0581768"/>
<path d="M25.8173 11.962H26.4537C26.4537 11.962 26.4625 11.8807 26.3869 11.8313C26.7211 11.7848 26.6339 11.4942 26.91 11.4767C26.9681 11.4854 26.7647 11.6017 26.7647 11.6017C26.7647 11.6017 26.5991 11.7179 26.6775 11.779C26.7356 11.8284 26.7647 11.7499 26.7705 11.6918C26.7792 11.6336 27.0408 11.5959 27.003 11.4302C26.942 11.2936 26.5758 11.5232 26.5758 11.5232L26.3143 11.5203C26.2968 11.4912 26.2271 11.375 26.1515 11.375C26.0643 11.375 26.0004 11.5203 26.0004 11.5203H25.4104C25.4104 11.5203 25.3901 11.6743 25.6894 11.7034C25.7563 11.7906 25.8086 11.8138 25.8696 11.8371C25.8289 11.869 25.8173 11.9097 25.8173 11.962V11.962ZM25.8638 11.8342H26.3927Z" fill="#FFC72C"/>
<path d="M25.8638 11.8342H26.3927M25.8173 11.962H26.4537C26.4537 11.962 26.4625 11.8807 26.3869 11.8313C26.7211 11.7848 26.6339 11.4942 26.91 11.4767C26.9681 11.4854 26.7647 11.6017 26.7647 11.6017C26.7647 11.6017 26.5991 11.7179 26.6775 11.779C26.7356 11.8284 26.7647 11.7499 26.7705 11.6918C26.7792 11.6336 27.0408 11.5959 27.003 11.4302C26.942 11.2936 26.5758 11.5232 26.5758 11.5232L26.3143 11.5203C26.2968 11.4912 26.2271 11.375 26.1515 11.375C26.0643 11.375 26.0004 11.5203 26.0004 11.5203H25.4104C25.4104 11.5203 25.3901 11.6743 25.6894 11.7034C25.7563 11.7906 25.8086 11.8138 25.8696 11.8371C25.8289 11.869 25.8173 11.9097 25.8173 11.962V11.962Z" stroke="black" stroke-width="0.0581768"/>
<path d="M25.6211 11.5234C25.6211 11.5234 25.6618 11.7707 25.8596 11.8289Z" fill="#FFC72C"/>
<path d="M25.6211 11.5234C25.6211 11.5234 25.6618 11.7707 25.8596 11.8289" stroke="black" stroke-width="0.0581768"/>
<path d="M25.5894 11.5174C25.6069 11.4244 25.6446 11.4069 25.6824 11.2849C25.6882 11.1686 25.5894 11.1831 25.6185 11.1105C25.6708 11.0262 25.6446 10.9477 25.5458 10.8867C25.5662 10.9942 25.418 11.096 25.418 11.1831C25.418 11.2703 25.4935 11.2529 25.4848 11.3866C25.4906 11.4621 25.4645 11.4447 25.4557 11.5174H25.5894Z" fill="url(#paint9_linear_336_33274)" stroke="black" stroke-width="0.0581768"/>
<path d="M26.2255 10.9331C26.2255 10.9531 26.2175 10.9723 26.2033 10.9865C26.1891 11.0007 26.1699 11.0087 26.1498 11.0087C26.1298 11.0087 26.1106 11.0007 26.0964 10.9865C26.0822 10.9723 26.0742 10.9531 26.0742 10.9331C26.0742 10.913 26.0822 10.8938 26.0964 10.8796C26.1106 10.8654 26.1298 10.8574 26.1498 10.8574C26.1699 10.8574 26.1891 10.8654 26.2033 10.8796C26.2175 10.8938 26.2255 10.913 26.2255 10.9331V10.9331Z" fill="#FFC72C" stroke="black" stroke-width="0.0581768"/>
<path d="M25.7266 12.7031L26.1334 12.1016L26.549 12.706" stroke="#FFC72C" stroke-width="0.122818"/>
<path d="M26.2176 12.476C26.2176 12.4976 26.209 12.5183 26.1937 12.5336C26.1785 12.5488 26.1577 12.5574 26.1361 12.5574C26.1145 12.5574 26.0938 12.5488 26.0785 12.5336C26.0633 12.5183 26.0547 12.4976 26.0547 12.476C26.0547 12.4544 26.0633 12.4337 26.0785 12.4184C26.0938 12.4031 26.1145 12.3945 26.1361 12.3945C26.1577 12.3945 26.1785 12.4031 26.1937 12.4184C26.209 12.4337 26.2176 12.4544 26.2176 12.476V12.476Z" fill="#FFC72C" stroke="black" stroke-width="0.0581768"/>
<path d="M25.8017 13.1476H26.4381C26.4381 13.1476 26.4468 13.0662 26.3713 13.0168C26.7055 12.9703 26.6183 12.6797 26.8944 12.6623C26.9525 12.671 26.7491 12.7872 26.7491 12.7872C26.7491 12.7872 26.5834 12.9035 26.6619 12.9645C26.72 13.0139 26.7491 12.9354 26.7549 12.8773C26.7636 12.8192 27.0252 12.7814 26.9874 12.6158C26.9264 12.4792 26.5602 12.7088 26.5602 12.7088L26.2986 12.7059C26.2812 12.6768 26.2114 12.5605 26.1359 12.5605C26.0487 12.5605 25.9848 12.7059 25.9848 12.7059H25.3948C25.3948 12.7059 25.3745 12.8599 25.6738 12.8889C25.7407 12.9761 25.793 12.9994 25.854 13.0226C25.8133 13.0546 25.8017 13.0953 25.8017 13.1476V13.1476ZM25.8482 13.0197H26.3771Z" fill="#FFC72C"/>
<path d="M25.8482 13.0197H26.3771M25.8017 13.1476H26.4381C26.4381 13.1476 26.4468 13.0662 26.3713 13.0168C26.7055 12.9703 26.6183 12.6797 26.8944 12.6623C26.9525 12.671 26.7491 12.7872 26.7491 12.7872C26.7491 12.7872 26.5834 12.9035 26.6619 12.9645C26.72 13.0139 26.7491 12.9354 26.7549 12.8773C26.7636 12.8192 27.0252 12.7814 26.9874 12.6158C26.9264 12.4792 26.5602 12.7088 26.5602 12.7088L26.2986 12.7059C26.2812 12.6768 26.2114 12.5605 26.1359 12.5605C26.0487 12.5605 25.9848 12.7059 25.9848 12.7059H25.3948C25.3948 12.7059 25.3745 12.8599 25.6738 12.8889C25.7407 12.9761 25.793 12.9994 25.854 13.0226C25.8133 13.0546 25.8017 13.0953 25.8017 13.1476V13.1476Z" stroke="black" stroke-width="0.0581768"/>
<path d="M25.6055 12.709C25.6055 12.709 25.6462 12.9562 25.844 13.0144Z" fill="#FFC72C"/>
<path d="M25.6055 12.709C25.6055 12.709 25.6462 12.9562 25.844 13.0144" stroke="black" stroke-width="0.0581768"/>
<path d="M25.5738 12.7029C25.5912 12.6099 25.629 12.5925 25.6668 12.4704C25.6726 12.3542 25.5738 12.3687 25.6029 12.296C25.6552 12.2118 25.629 12.1333 25.5302 12.0723C25.5506 12.1798 25.4023 12.2815 25.4023 12.3687C25.4023 12.4559 25.4779 12.4384 25.4692 12.5721C25.475 12.6477 25.4488 12.6302 25.4401 12.7029H25.5738Z" fill="url(#paint10_linear_336_33274)" stroke="black" stroke-width="0.0581768"/>
<path d="M26.2099 12.1186C26.2099 12.1387 26.2019 12.1579 26.1877 12.1721C26.1735 12.1863 26.1543 12.1942 26.1342 12.1942C26.1142 12.1942 26.0949 12.1863 26.0807 12.1721C26.0666 12.1579 26.0586 12.1387 26.0586 12.1186C26.0586 12.0985 26.0666 12.0793 26.0807 12.0651C26.0949 12.0509 26.1142 12.043 26.1342 12.043C26.1543 12.043 26.1735 12.0509 26.1877 12.0651C26.2019 12.0793 26.2099 12.0985 26.2099 12.1186V12.1186Z" fill="#FFC72C" stroke="black" stroke-width="0.0581768"/>
<path d="M25.7344 13.8945L26.1412 13.293L26.5568 13.8974" stroke="#FFC72C" stroke-width="0.122818"/>
<path d="M26.2254 13.6674C26.2254 13.689 26.2168 13.7097 26.2015 13.725C26.1863 13.7403 26.1656 13.7488 26.1439 13.7488C26.1223 13.7488 26.1016 13.7403 26.0864 13.725C26.0711 13.7097 26.0625 13.689 26.0625 13.6674C26.0625 13.6458 26.0711 13.6251 26.0864 13.6098C26.1016 13.5945 26.1223 13.5859 26.1439 13.5859C26.1656 13.5859 26.1863 13.5945 26.2015 13.6098C26.2168 13.6251 26.2254 13.6458 26.2254 13.6674V13.6674Z" fill="#FFC72C" stroke="black" stroke-width="0.0581768"/>
<path d="M25.8095 14.339H26.4459C26.4459 14.339 26.4547 14.2576 26.3791 14.2082C26.7133 14.1617 26.6261 13.8711 26.9022 13.8537C26.9603 13.8624 26.7569 13.9786 26.7569 13.9786C26.7569 13.9786 26.5912 14.0949 26.6697 14.1559C26.7278 14.2053 26.7569 14.1268 26.7627 14.0687C26.7714 14.0106 27.033 13.9728 26.9952 13.8072C26.9342 13.6706 26.568 13.9002 26.568 13.9002L26.3064 13.8973C26.289 13.8682 26.2193 13.752 26.1437 13.752C26.0565 13.752 25.9926 13.8973 25.9926 13.8973H25.4026C25.4026 13.8973 25.3823 14.0513 25.6816 14.0803C25.7485 14.1675 25.8008 14.1908 25.8618 14.214C25.8211 14.246 25.8095 14.2867 25.8095 14.339V14.339ZM25.856 14.2111H26.3849Z" fill="#FFC72C"/>
<path d="M25.856 14.2111H26.3849M25.8095 14.339H26.4459C26.4459 14.339 26.4547 14.2576 26.3791 14.2082C26.7133 14.1617 26.6261 13.8711 26.9022 13.8537C26.9603 13.8624 26.7569 13.9786 26.7569 13.9786C26.7569 13.9786 26.5912 14.0949 26.6697 14.1559C26.7278 14.2053 26.7569 14.1268 26.7627 14.0687C26.7714 14.0106 27.033 13.9728 26.9952 13.8072C26.9342 13.6706 26.568 13.9002 26.568 13.9002L26.3064 13.8973C26.289 13.8682 26.2193 13.752 26.1437 13.752C26.0565 13.752 25.9926 13.8973 25.9926 13.8973H25.4026C25.4026 13.8973 25.3823 14.0513 25.6816 14.0803C25.7485 14.1675 25.8008 14.1908 25.8618 14.214C25.8211 14.246 25.8095 14.2867 25.8095 14.339V14.339Z" stroke="black" stroke-width="0.0581768"/>
<path d="M25.6133 13.9004C25.6133 13.9004 25.654 14.1476 25.8518 14.2058Z" fill="#FFC72C"/>
<path d="M25.6133 13.9004C25.6133 13.9004 25.654 14.1476 25.8518 14.2058" stroke="black" stroke-width="0.0581768"/>
<path d="M25.5816 13.8943C25.5991 13.8013 25.6368 13.7839 25.6746 13.6618C25.6804 13.5456 25.5816 13.5601 25.6107 13.4874C25.663 13.4032 25.6368 13.3247 25.538 13.2637C25.5584 13.3712 25.4102 13.4729 25.4102 13.5601C25.4102 13.6473 25.4857 13.6298 25.477 13.7635C25.4828 13.8391 25.4567 13.8217 25.4479 13.8943H25.5816Z" fill="url(#paint11_linear_336_33274)" stroke="black" stroke-width="0.0581768"/>
<path d="M26.2177 13.31C26.2177 13.3301 26.2097 13.3493 26.1955 13.3635C26.1813 13.3777 26.1621 13.3856 26.142 13.3856C26.122 13.3856 26.1027 13.3777 26.0886 13.3635C26.0744 13.3493 26.0664 13.3301 26.0664 13.31C26.0664 13.2899 26.0744 13.2707 26.0886 13.2565C26.1027 13.2423 26.122 13.2344 26.142 13.2344C26.1621 13.2344 26.1813 13.2423 26.1955 13.2565C26.2097 13.2707 26.2177 13.2899 26.2177 13.31V13.31Z" fill="#FFC72C" stroke="black" stroke-width="0.0581768"/>
<path d="M24.4594 14.4556C24.4594 14.4556 24.625 14.8392 24.8139 14.6009C25.0028 14.3684 24.936 14.2667 24.936 14.2667L24.5117 14.0371L24.3867 14.2987L24.4594 14.4556V14.4556Z" fill="#FFC72C" stroke="black" stroke-width="0.0581768"/>
<path d="M24.8251 14.406C24.8251 14.406 24.8542 14.4089 24.8745 14.3682C24.8978 14.3275 24.8251 14.3101 24.7902 14.2636L24.7554 14.3362L24.8251 14.406ZM23.8661 14.3014L23.4941 14.5048C23.4941 14.5048 23.3081 14.5426 23.2965 14.5048C23.282 14.4699 23.2994 14.438 23.3982 14.4321C23.4941 14.4292 23.7557 14.188 23.7557 14.188L23.8661 14.3043V14.3014ZM23.8719 7.67827L23.8835 7.81196C23.8893 7.85845 23.8109 7.95726 23.808 7.95145C23.8022 7.94564 23.7644 7.95726 23.7702 7.98342C23.7731 8.01248 23.8283 8.0212 23.8283 8.0212C23.8283 8.0212 23.808 8.1171 23.8283 8.12291C23.8516 8.12582 23.7702 8.24497 23.8283 8.27694C23.8893 8.30891 23.9911 8.3525 24.0376 8.34378C24.0841 8.33216 24.0376 8.52105 24.0376 8.52105L23.9068 8.79714L24.6159 8.72448L24.4706 8.49199C24.4706 8.49199 24.4008 8.44259 24.4183 8.30891C24.4386 8.17813 24.4095 7.57365 24.4095 7.57365L23.9039 7.50391L23.8719 7.67827V7.67827ZM23.7411 8.7303C23.7411 8.7303 23.5115 8.83492 23.5203 9.11972C23.4621 9.3958 23.4302 9.67188 23.4302 9.67188C23.4302 9.67188 23.157 9.97994 23.0756 10.0933C22.9914 10.2037 22.8664 10.4275 22.8228 10.4885C22.7763 10.5466 22.5961 10.7442 22.599 10.8198C22.6048 10.8925 22.5583 11.2209 22.7385 11.2557C22.785 11.2761 22.9332 10.8779 22.9332 10.8779C22.9332 10.8779 22.9419 10.7094 22.8896 10.6745C22.8402 10.6454 23.0001 10.535 23.0001 10.535L23.3779 10.2531C23.4476 10.195 23.6365 9.98575 23.6365 9.98575L23.7411 8.7303V8.7303Z" fill="#FFC6B5" stroke="black" stroke-width="0.0581768"/>
<path d="M24.0064 8.51235C24.0064 8.51235 24.0646 8.67509 24.1983 8.64603C24.3319 8.61697 24.4889 8.49491 24.4889 8.49491C24.4889 8.49491 24.6138 8.4891 24.6313 8.50944C24.6487 8.52688 24.9684 8.83493 24.9568 8.93083C24.948 9.02964 24.8114 9.00058 24.7591 9.06451C24.7097 9.12845 24.6255 9.29119 24.6487 9.41325C24.672 9.52949 24.7417 9.68643 24.733 9.74745C24.7243 9.80558 24.6749 9.82592 24.6749 9.85789C24.6749 9.88695 24.7155 9.94507 24.7155 10.0032C24.7155 10.0642 24.6574 10.1514 24.669 10.2124C24.6778 10.2706 24.6807 10.4449 24.6807 10.4449L24.669 11.2586C24.669 11.2586 24.7155 11.2848 24.7185 11.3313C24.7243 11.3749 25.0323 12.7146 25.0323 12.7146C25.0323 12.7146 25.0178 12.7582 24.9858 12.7524C24.9539 12.7466 25.1108 12.9587 25.1137 13.0198C25.1195 13.0779 25.2764 13.5487 25.2706 13.6126C25.2677 13.6766 25.2416 13.8219 25.2299 13.8248C25.2154 13.8306 25.3316 14.1212 25.3113 14.1648C25.2939 14.2113 25.1079 14.2084 25.1079 14.2084L25.0556 14.1968C25.0556 14.1968 25.0585 14.2578 25.0236 14.2636C24.9858 14.2665 24.7155 14.2491 24.7155 14.2491C24.7155 14.2491 24.6371 14.3682 24.5906 14.3653C24.5441 14.3595 24.4831 14.2781 24.4714 14.2897C24.4569 14.3043 24.5121 14.3827 24.5005 14.406C24.4831 14.4292 24.2506 14.4786 24.2041 14.3682C24.1576 14.2578 24.2331 14.2868 24.2157 14.2636C24.2041 14.2403 24.0994 14.1793 24.0646 14.1968C24.0355 14.2171 24.1489 14.2432 24.143 14.2897C24.1401 14.3362 24.0413 14.406 24.0064 14.406C23.9687 14.406 23.8815 14.2345 23.7507 14.252C23.6228 14.2723 23.5415 14.3043 23.5415 14.3043C23.5415 14.3043 23.3874 14.3682 23.3235 14.3537C23.2596 14.3421 23.2305 14.2897 23.2305 14.2636C23.2305 14.2345 23.277 14.1154 23.2741 14.0776C23.2683 14.0427 23.2305 14.0049 23.2305 13.9497C23.2305 13.8916 23.338 13.7056 23.338 13.7056L23.3322 12.857C23.3322 12.857 23.2363 12.857 23.2305 12.7989C23.2276 12.7408 23.3787 11.4592 23.4049 11.3749L23.4862 10.9971C23.4862 10.9971 23.4165 11.032 23.4107 10.9971C23.4078 10.968 23.6199 10.2357 23.6199 10.2357C23.6199 10.2357 23.6548 9.86951 23.6548 9.77361C23.6548 9.67771 23.6374 9.54402 23.6374 9.54402C23.6374 9.54402 23.4485 9.46265 23.4427 9.3406C23.4252 9.14588 23.6228 9.03836 23.6461 8.97442L23.7391 8.71287C23.7391 8.71287 23.8408 8.5385 24.0064 8.51235V8.51235Z" fill="white" stroke="black" stroke-width="0.0581768"/>
<path d="M23.9359 14.3598C23.9359 14.3598 23.4884 14.5923 23.4244 14.6126C23.3605 14.63 23.3198 14.5341 23.3837 14.5167C23.4477 14.4964 23.5494 14.4876 23.5494 14.4876C23.5494 14.4876 23.3983 14.3685 23.4041 14.3627L23.6133 14.2871C23.6191 14.2871 23.6773 14.4034 23.7179 14.3975C23.7757 14.3695 23.8302 14.3354 23.8807 14.2958L23.9359 14.3598V14.3598Z" fill="#FFC72C" stroke="black" stroke-width="0.0581768"/>
<path d="M24.5625 14.4878C24.6061 14.5431 24.6207 14.6362 24.7196 14.5809C24.8156 14.5256 24.6701 14.4238 24.6701 14.4238L24.5625 14.4878Z" fill="#FFC6B5" stroke="black" stroke-width="0.0581768"/>
<path d="M24.7419 14.4777C24.7419 14.4777 24.7884 14.5155 24.8291 14.4719C24.8698 14.4312 24.7477 14.344 24.7477 14.344L24.6867 14.4138L24.7419 14.4777ZM24.9395 8.95312C24.9454 8.95312 25.0907 9.40648 25.111 9.52273C25.1284 9.63897 25.1895 10.0981 25.1662 10.1621C25.143 10.226 24.9076 10.5341 24.8814 10.6125C24.8524 10.691 24.6867 10.9903 24.6867 10.9903C24.6867 10.9903 24.646 11.2868 24.6286 11.2984C24.6082 11.3129 24.6751 11.3856 24.6693 11.4088C24.6606 11.4379 24.5356 11.5657 24.4804 11.5541C24.4223 11.5396 24.3351 11.4757 24.3351 11.4146C24.3264 11.3565 24.3351 11.156 24.3787 11.1066C24.4193 11.0543 24.6373 10.5457 24.6489 10.5137C24.6635 10.4788 24.8465 10.0778 24.8524 10.011C24.8582 9.94121 24.7942 9.78137 24.7303 9.72325C24.585 9.29605 24.6431 9.04031 24.9395 8.95312V8.95312Z" fill="#FFC6B5" stroke="black" stroke-width="0.0581768"/>
<path d="M23.8547 7.65159C23.8547 7.65159 23.9594 7.66612 24.0146 7.63415C24.0698 7.60218 24.1337 7.58765 24.1802 7.65159C24.2267 7.71552 24.2587 7.70971 24.2587 7.70971C24.2587 7.70971 24.189 7.88408 24.2587 7.90151C24.3255 7.91895 24.3604 7.91895 24.3633 7.9422C24.3691 7.96545 24.3052 8.01485 24.3226 8.0381C24.3401 8.06135 24.372 8.08751 24.3778 8.10785C24.3808 8.12529 24.3372 8.20375 24.3488 8.2241C24.3633 8.24153 24.4069 8.31419 24.4331 8.31419C24.4621 8.31419 24.4418 8.43043 24.5261 8.40137C24.6074 8.37231 24.6045 8.29965 24.6045 8.29965C24.6045 8.29965 24.6917 8.28803 24.715 8.20956C24.7353 8.1311 24.7905 8.11076 24.7905 8.11076C24.7905 8.11076 24.901 8.05263 24.7556 7.95964C24.7556 7.31447 24.3314 7.38422 24.3314 7.38422C24.3314 7.38422 24.2819 7.26798 24.1977 7.28251C24.1163 7.29704 24.1105 7.39294 24.0524 7.38422C23.9913 7.3755 23.9768 7.33482 23.9739 7.33772C23.9681 7.34354 23.9158 7.43653 23.9158 7.45688C23.9158 7.48012 23.7559 7.42781 23.7705 7.54406C23.785 7.66612 23.8635 7.6603 23.8576 7.65159H23.8547Z" fill="#9C5100" stroke="black" stroke-width="0.0581768"/>
<path d="M24.6058 8.69122C24.6058 8.69122 24.1961 8.95277 24.2048 9.04577M24.6988 8.73772C24.6988 8.73772 24.6058 8.83943 24.6 8.83943M24.8209 8.84815C24.8209 8.84815 24.6174 9.0138 24.6494 9.11842M23.8648 8.66797C23.8648 8.66797 23.8037 8.79293 23.8183 8.83362C23.8299 8.8743 23.9345 9.03124 23.9461 9.12714C23.9607 9.22595 23.9461 9.29279 23.9461 9.29279M23.7572 8.89755C23.7572 8.89755 23.7747 9.04286 23.8037 9.07192C23.8328 9.10098 23.9054 9.22595 23.9142 9.27535M23.7195 9.51075C23.7195 9.51075 23.8415 9.56887 23.9519 9.33929M24.1292 9.17945C24.1263 9.17945 24.042 9.40322 24.1902 9.4875C24.3356 9.57178 24.4489 9.56015 24.5099 9.5369C24.5768 9.51656 24.6465 9.47297 24.6465 9.47297M24.0653 9.45553C24.0653 9.45553 24.074 9.75777 24.5215 10.0571M24.0856 9.74033C24.0856 9.74033 24.0798 10.0077 24.2542 10.1268M23.9926 9.42647C23.9926 9.42647 23.8589 9.82461 23.7514 9.86239M23.9519 9.71708C23.9519 9.71708 23.9461 10.0019 23.9084 10.1036M23.8735 10.1733C23.8735 10.1733 23.9636 10.2896 24.0653 10.278C24.167 10.2693 24.2106 10.1501 24.2774 10.1675C24.3472 10.1879 24.4111 10.2431 24.571 10.2286M24.3414 10.3477C24.3414 10.3477 24.3414 10.5831 24.385 10.6064C24.4256 10.6296 24.4053 10.8447 24.4053 10.8447M23.7805 10.2373C23.7805 10.2373 23.7747 10.4581 23.7485 10.5366C23.7195 10.6151 23.6642 10.7488 23.6759 10.865M23.4986 10.9929C23.5218 10.9842 23.6003 10.9144 23.6003 10.9144M23.641 10.9638C23.641 10.9638 23.4434 11.8124 23.4986 12.3181M23.6875 11.0074C23.6875 11.0074 23.5858 11.6409 23.6323 11.763M23.6381 10.9871L24.0246 11.0161M24.0798 10.9638C24.0798 10.9638 24.1844 11.0219 24.3326 11.0103M24.0333 11.2748C24.0333 11.2748 24.0159 12.3588 23.9868 12.6M24.6 11.5218C24.6 11.5218 24.7192 12.475 24.7889 12.5622M24.3704 11.6409C24.3704 11.6409 24.4431 12.4837 24.4867 12.5593M23.3242 12.8528C23.3242 12.8528 23.4695 12.8063 23.5974 12.6697C23.7427 12.8673 23.9694 12.6784 23.9694 12.6784C23.9694 12.6784 24.3181 12.9167 24.475 12.6494C24.7163 12.8063 24.8354 12.6261 24.8354 12.6261C24.8354 12.6261 24.9226 12.7598 24.9865 12.7453M24.6058 12.8383C24.6058 12.8383 24.7831 13.6811 25.0505 13.9194" stroke="black" stroke-width="0.0581768"/>
<path d="M23.6807 12.7513C23.6807 12.7513 23.7011 13.4546 23.7418 13.9516M23.6459 13.5476C23.6459 13.5476 23.6226 14.0068 23.5965 14.0417M23.3756 14.0853C23.3756 14.0853 23.425 14.2858 23.6778 14.0998C23.9307 13.9167 23.9365 14.1695 23.9452 14.1957C23.9539 14.2248 23.9946 14.4224 24.0905 14.2567M24.2939 13.9865C24.2939 13.9865 24.2532 14.3933 24.6165 14.0969C24.9798 13.7976 25.0408 14.0911 25.0524 14.1841M24.2997 7.49414C24.2997 7.49414 24.2678 7.69757 24.4828 7.67723C24.4538 7.79057 24.541 7.82544 24.541 7.82544M24.6979 7.9504C24.7037 7.9504 24.7967 8.00853 24.6979 8.08409M24.3869 8.11024C24.3869 8.11024 24.4334 8.16836 24.4828 8.15383C24.5351 8.1393 24.6165 8.20324 24.6165 8.20324C24.6165 8.20324 24.6863 8.22649 24.695 8.21196M24.105 8.28461C24.105 8.28461 24.262 8.34564 24.3666 8.09862M23.8173 8.02306L23.9074 8.02887M22.7944 10.9292L22.8031 11.1297M22.6055 10.9118C22.6055 10.9118 22.7362 11.1297 22.7217 11.2431" stroke="black" stroke-width="0.0581768"/>
<path d="M23.8281 8.11523H23.9124L23.8398 8.1472M24.3396 11.3643C24.3396 11.3643 24.4355 11.3527 24.4326 11.5154C24.4936 11.312 24.6186 11.3091 24.6186 11.3091" stroke="black" stroke-width="0.0581768" stroke-linejoin="round"/>
<path d="M23.9453 7.85831C23.9599 7.85831 24.0093 7.84085 24.018 7.8554C24.0297 7.86703 23.9628 7.87867 23.9453 7.85831Z" stroke="black" stroke-width="0.10989" stroke-linejoin="round"/>
<path d="M24.0054 15.9752C25.2185 15.9178 26.3612 15.3891 27.1905 14.5018C27.1789 14.4902 27.4491 14.1124 27.6642 14.1647C27.8792 14.2199 28.1902 14.8535 28.568 14.9901C28.7569 15.2865 28.5157 15.5568 28.4343 15.6091C28.3529 15.6643 27.9868 15.8125 27.9344 15.5974C27.8792 15.3795 27.7717 15.4231 27.7717 15.4231C27.7717 15.4231 26.0426 17.1086 24.046 17.0418C21.9827 17.0534 20.2797 15.4202 20.2797 15.4202L20.1315 15.5829C20.1315 15.5829 19.9687 15.7573 19.8874 15.7457C19.806 15.7311 19.4543 15.5015 19.4282 15.272C19.3991 15.0424 19.6432 14.8942 19.6432 14.8942C19.6432 14.8942 20.239 14.435 20.3058 14.1938C20.4424 14.0572 20.6982 14.2868 20.6982 14.2868C20.6982 14.2868 22.2646 16.0828 24.0054 15.9723V15.9752Z" fill="#FFC72C" stroke="black" stroke-width="0.122818"/>
<path d="M19.6055 14.9283C19.6055 14.9283 19.7653 14.8876 19.8234 14.9544C19.8816 15.0213 20.2884 15.4194 20.2884 15.4194" stroke="black" stroke-width="0.122818"/>
<path d="M19.9713 15.117L19.8086 15.2361C19.8086 15.2361 20.2155 15.3175 20.1225 15.5849M28.4224 14.9165C28.4224 14.9165 28.3439 14.8729 28.219 14.9659C28.0911 15.0618 27.7743 15.4163 27.7743 15.4163" stroke="black" stroke-width="0.122818"/>
<path d="M28.0629 15.1055L28.2373 15.2392C28.2373 15.2392 27.874 15.2653 27.9525 15.6082" stroke="black" stroke-width="0.122818"/>
<path d="M21.6653 15.3596C21.6536 15.3886 21.6246 15.3596 21.6013 15.3654C21.5432 15.3654 21.4909 15.406 21.4386 15.4351L20.9038 15.7461C20.8864 15.7403 20.8893 15.7257 20.8951 15.7112L21.0404 15.0428C21.0462 15.005 21.0579 14.9556 21.0201 14.9265C21.0056 14.9149 21.0288 14.8946 21.0404 14.9149L21.3136 15.1096C21.3049 15.1358 21.2875 15.1154 21.2729 15.1067C21.2351 15.0689 21.1886 15.1038 21.1916 15.1503L21.0927 15.5891C21.2148 15.5194 21.3369 15.4496 21.4589 15.3741C21.4996 15.3566 21.5316 15.2985 21.488 15.2636C21.4705 15.252 21.4415 15.2259 21.4705 15.2201L21.6653 15.3596V15.3596ZM21.8571 16.2895C21.8512 16.307 21.8425 16.3099 21.828 16.2982L21.5083 16.1239C21.5112 16.1035 21.5199 16.1006 21.5345 16.1122C21.5635 16.1326 21.61 16.1413 21.6333 16.1064L21.7495 15.8943L21.9123 15.5979C21.9355 15.5601 21.9094 15.5165 21.8745 15.502C21.8629 15.4961 21.8454 15.4903 21.86 15.4787C21.8658 15.47 21.8832 15.4874 21.8919 15.4903L22.2 15.6589C22.1971 15.6763 22.1884 15.6792 22.1738 15.6676C22.1448 15.6473 22.0983 15.6385 22.075 15.6734L21.9588 15.8856L21.796 16.182C21.7728 16.2169 21.7989 16.2634 21.8338 16.2779L21.8571 16.2895ZM23.0951 15.9989L23.0079 16.243C22.9701 16.2401 22.9963 16.1936 22.9846 16.1704C22.9789 16.1147 22.9563 16.0621 22.92 16.0196C22.8837 15.977 22.8353 15.9465 22.7812 15.9321C22.694 15.9088 22.6068 15.9524 22.5545 16.0222C22.4786 16.1255 22.4342 16.2487 22.4267 16.3767C22.424 16.4132 22.4312 16.4497 22.4476 16.4825C22.464 16.5152 22.4889 16.5429 22.5197 16.5627C22.5709 16.5947 22.6308 16.6099 22.6911 16.6063L22.7521 16.4232C22.7609 16.3825 22.7173 16.3564 22.6853 16.3476C22.6795 16.336 22.6911 16.3186 22.7056 16.3331L23.0253 16.4494C23.0253 16.4871 22.9788 16.4435 22.9527 16.461C22.9149 16.4755 22.912 16.522 22.8945 16.5569L22.8568 16.6673C22.7115 16.676 22.5662 16.647 22.4383 16.5743C22.3191 16.4988 22.2349 16.3505 22.261 16.2052C22.2784 16.0803 22.3569 15.964 22.4703 15.9088C22.5749 15.8507 22.7027 15.8536 22.8132 15.8972C22.8713 15.9175 22.9236 15.9553 22.9701 15.996C22.9992 16.0338 23.0515 16.0338 23.0747 15.9931L23.0951 15.9989M23.6153 16.8359C23.6153 16.8475 23.6153 16.862 23.5978 16.8533L23.2317 16.7981C23.2317 16.7836 23.2317 16.7719 23.2491 16.7807C23.2782 16.7865 23.3247 16.7865 23.3363 16.7516C23.3537 16.7022 23.3566 16.6499 23.3653 16.6005L23.4293 16.1762C23.438 16.1471 23.4293 16.1122 23.3973 16.1006C23.377 16.0919 23.3595 16.0919 23.3392 16.0861C23.3392 16.0745 23.3392 16.0628 23.3566 16.0686L23.7228 16.1268C23.7228 16.1384 23.7228 16.15 23.7054 16.1442C23.6763 16.1355 23.6327 16.1384 23.6182 16.1733C23.6007 16.2198 23.5978 16.2721 23.5891 16.3215L23.5252 16.7458C23.5165 16.7748 23.5252 16.8126 23.5601 16.8242L23.6182 16.8359H23.6153ZM24.6092 16.5976L24.5946 16.8562L23.9379 16.8882C23.9349 16.8736 23.9379 16.8649 23.9553 16.8678C23.9873 16.8678 24.0308 16.8533 24.0367 16.8155L24.0279 16.6237L24.0076 16.2343C24.0105 16.1965 23.9785 16.1675 23.9408 16.1704C23.9291 16.1646 23.8972 16.182 23.9001 16.1616C23.8943 16.1442 23.9204 16.1529 23.9291 16.15L24.2953 16.1297C24.2953 16.1471 24.2953 16.1558 24.275 16.1529C24.243 16.1529 24.1994 16.1587 24.1878 16.1994C24.1849 16.2546 24.1907 16.3099 24.1936 16.3651L24.2139 16.7719C24.2139 16.8039 24.243 16.8359 24.2779 16.8301C24.3302 16.8271 24.3854 16.8301 24.4377 16.8155C24.5104 16.7952 24.5481 16.7225 24.5685 16.6557C24.583 16.6383 24.5685 16.5918 24.5975 16.5976H24.6092M25.1177 15.964C25.1003 15.964 25.109 15.9873 25.1032 15.9989C25.0742 16.2169 25.048 16.4348 25.016 16.6499C25.0102 16.6993 24.9986 16.7545 24.9521 16.7777C24.9347 16.7865 24.9492 16.8126 24.9666 16.7981L25.1846 16.7312C25.1817 16.6964 25.1381 16.7312 25.1148 16.7225C25.0654 16.7225 25.0567 16.6615 25.0654 16.6237C25.0654 16.5947 25.0712 16.5714 25.0742 16.5453L25.3241 16.4697C25.356 16.5104 25.3909 16.5482 25.42 16.5918C25.4432 16.6324 25.3909 16.6499 25.3619 16.6586C25.3444 16.6586 25.356 16.6877 25.3706 16.676L25.699 16.5772C25.699 16.5394 25.6525 16.5772 25.6321 16.5482C25.5682 16.5046 25.5246 16.4406 25.4752 16.3825L25.1177 15.964V15.964ZM25.1177 16.2256L25.2921 16.4377L25.08 16.5017L25.1177 16.2256ZM26.2395 15.4758L26.3354 15.6502C26.3064 15.6792 26.2889 15.6182 26.2628 15.6095C26.2411 15.5905 26.2139 15.5789 26.1852 15.5763C26.1565 15.5737 26.1277 15.5802 26.1029 15.5949L26.0448 15.6269L26.3296 16.1587C26.3441 16.2023 26.3994 16.211 26.4371 16.1878C26.4488 16.1762 26.4633 16.1704 26.4662 16.1907C26.4197 16.2198 26.3645 16.2459 26.3151 16.2721L26.1262 16.3738C26.1116 16.3593 26.1204 16.3505 26.1378 16.3447C26.1481 16.341 26.1573 16.3349 26.1648 16.327C26.1723 16.3191 26.1778 16.3095 26.1809 16.299C26.184 16.2886 26.1846 16.2775 26.1827 16.2668C26.1808 16.2561 26.1763 16.2459 26.1698 16.2372L25.8879 15.7141C25.8356 15.7432 25.7716 15.7664 25.7571 15.8303C25.7426 15.8739 25.7629 15.9233 25.7629 15.9582C25.7484 15.9757 25.7426 15.9524 25.7338 15.9408L25.6554 15.7897L26.2395 15.4758V15.4758ZM26.6842 15.2113L26.8643 15.4525C26.905 15.4235 26.9399 15.377 26.9283 15.3247C26.9341 15.284 26.876 15.2375 26.8963 15.2084C26.9079 15.2026 26.9166 15.2317 26.9254 15.2404L27.1346 15.5165C27.1055 15.5455 27.0881 15.4845 27.059 15.4758C27.0184 15.4467 26.9631 15.4322 26.9195 15.4642C26.8876 15.4758 26.8905 15.4932 26.9108 15.5136C26.9573 15.5746 27.0038 15.6414 27.0561 15.7025C27.0852 15.7315 27.1259 15.7025 27.152 15.6792C27.2218 15.6327 27.2828 15.5572 27.2799 15.47C27.2857 15.4293 27.2596 15.3886 27.2596 15.3537C27.277 15.3334 27.2799 15.3654 27.2886 15.377L27.3874 15.5514L26.876 15.9379C26.8556 15.9233 26.876 15.9117 26.8905 15.903C26.937 15.8739 26.9225 15.8129 26.8905 15.7809L26.5592 15.3479C26.5301 15.3101 26.4778 15.3305 26.4517 15.3566C26.4371 15.3741 26.4226 15.3421 26.4429 15.3392L26.9225 14.9759L27.0532 15.1503C27.0242 15.1794 26.9951 15.1125 26.9631 15.1096C26.8992 15.0747 26.8236 15.1009 26.7713 15.1445L26.6812 15.2113" fill="black"/>
</g>
</g>
<defs>
<filter id="filter0_d_336_33274" x="0" y="-2" width="36" height="36" filterUnits="userSpaceOnUse" color-interpolation-filters="sRGB">
<feFlood flood-opacity="0" result="BackgroundImageFix"/>
<feColorMatrix in="SourceAlpha" type="matrix" values="0 0 0 0 0 0 0 0 0 0 0 0 0 0 0 0 0 0 127 0" result="hardAlpha"/>
<feOffset dy="4"/>
<feGaussianBlur stdDeviation="3"/>
<feComposite in2="hardAlpha" operator="out"/>
<feColorMatrix type="matrix" values="0 0 0 0 0 0 0 0 0 0 0 0 0 0 0 0 0 0 0.16 0"/>
<feBlend mode="normal" in2="BackgroundImageFix" result="effect1_dropShadow_336_33274"/>
<feBlend mode="normal" in="SourceGraphic" in2="effect1_dropShadow_336_33274" result="shape"/>
</filter>
<linearGradient id="paint0_linear_336_33274" x1="21.2806" y1="7.75439" x2="20.9501" y2="7.70567" gradientUnits="userSpaceOnUse">
<stop stop-color="#FF0000"/>
<stop offset="1" stop-color="#FFFF00"/>
</linearGradient>
<linearGradient id="paint1_linear_336_33274" x1="21.2572" y1="8.95557" x2="20.9267" y2="8.90684" gradientUnits="userSpaceOnUse">
<stop stop-color="#FF0000"/>
<stop offset="1" stop-color="#FFFF00"/>
</linearGradient>
<linearGradient id="paint2_linear_336_33274" x1="21.2494" y1="10.1372" x2="20.9188" y2="10.0885" gradientUnits="userSpaceOnUse">
<stop stop-color="#FF0000"/>
<stop offset="1" stop-color="#FFFF00"/>
</linearGradient>
<linearGradient id="paint3_linear_336_33274" x1="22.0228" y1="11.4185" x2="21.6923" y2="11.3697" gradientUnits="userSpaceOnUse">
<stop stop-color="#FF0000"/>
<stop offset="1" stop-color="#FFFF00"/>
</linearGradient>
<linearGradient id="paint4_linear_336_33274" x1="21.1478" y1="12.4692" x2="20.8173" y2="12.4205" gradientUnits="userSpaceOnUse">
<stop stop-color="#FF0000"/>
<stop offset="1" stop-color="#FFFF00"/>
</linearGradient>
<linearGradient id="paint5_linear_336_33274" x1="21.1713" y1="13.7056" x2="20.8407" y2="13.6568" gradientUnits="userSpaceOnUse">
<stop stop-color="#FF0000"/>
<stop offset="1" stop-color="#FFFF00"/>
</linearGradient>
<linearGradient id="paint6_linear_336_33274" x1="25.5306" y1="7.77588" x2="25.2001" y2="7.72715" gradientUnits="userSpaceOnUse">
<stop stop-color="#FF0000"/>
<stop offset="1" stop-color="#FFFF00"/>
</linearGradient>
<linearGradient id="paint7_linear_336_33274" x1="25.4916" y1="8.95166" x2="25.161" y2="8.90293" gradientUnits="userSpaceOnUse">
<stop stop-color="#FF0000"/>
<stop offset="1" stop-color="#FFFF00"/>
</linearGradient>
<linearGradient id="paint8_linear_336_33274" x1="25.4369" y1="10.1587" x2="25.1063" y2="10.11" gradientUnits="userSpaceOnUse">
<stop stop-color="#FF0000"/>
<stop offset="1" stop-color="#FFFF00"/>
</linearGradient>
<linearGradient id="paint9_linear_336_33274" x1="25.4994" y1="11.3403" x2="25.1688" y2="11.2916" gradientUnits="userSpaceOnUse">
<stop stop-color="#FF0000"/>
<stop offset="1" stop-color="#FFFF00"/>
</linearGradient>
<linearGradient id="paint10_linear_336_33274" x1="25.4838" y1="12.5259" x2="25.1532" y2="12.4772" gradientUnits="userSpaceOnUse">
<stop stop-color="#FF0000"/>
<stop offset="1" stop-color="#FFFF00"/>
</linearGradient>
<linearGradient id="paint11_linear_336_33274" x1="25.4916" y1="13.7173" x2="25.161" y2="13.6686" gradientUnits="userSpaceOnUse">
<stop stop-color="#FF0000"/>
<stop offset="1" stop-color="#FFFF00"/>
</linearGradient>
<clipPath id="clip0_336_33274">
<rect width="24" height="18" fill="white" transform="translate(6 3)"/>
</clipPath>
</defs>
</svg>
