<svg width="36" height="31" viewBox="0 0 36 31" fill="none" xmlns="http://www.w3.org/2000/svg">
<g filter="url(#filter0_d_336_27291)">
<g clip-path="url(#clip0_336_27291)">
<path d="M6 3H30V21H6V3Z" fill="#DA000C"/>
<path d="M6 3H30V15.06H6V3Z" fill="white"/>
<path d="M13.8242 11.1797H18.3242V14.2734H13.8242V11.1797Z" fill="black"/>
<path d="M16.1586 13.8234H13.4164L12.8047 14.2242V14.6461H16.1586M15.0125 12.0445C15.4062 12.0445 15.7297 12.375 15.7297 12.7828V13.8164H16.243V9.87891H13.4094V13.8164H14.2953V12.7828C14.2953 12.3891 14.6117 12.0445 15.0125 12.0445V12.0445Z" fill="#DA000C"/>
<path d="M16.1586 13.8234H13.4164L12.8047 14.2242V14.6461H16.1586M15.0125 12.0445C15.4062 12.0445 15.7297 12.375 15.7297 12.7828V13.8164H16.243V9.87891H13.4094V13.8164H14.2953V12.7828C14.2953 12.3891 14.6117 12.0445 15.0125 12.0445V12.0445Z" stroke="black" stroke-width="0.158203" stroke-linecap="square"/>
<path d="M14.3789 7.2207H15.6867V9.61133H14.3789V7.2207Z" fill="black"/>
<path d="M15.6797 9.23828H14.5406V8.83047H13.7039V9.23828H13.1414V8.83047H12.7969V9.56172H15.6797M13.1344 9.56172H15.5953V9.87813H13.1344V9.56172ZM14.1188 6.34844V8.8375H14.5406V8.15547C14.5406 7.90234 14.7164 7.69141 14.9695 7.67734H14.9977C15.0604 7.67734 15.1226 7.68971 15.1806 7.71374C15.2386 7.73777 15.2913 7.77299 15.3357 7.81738C15.3801 7.86178 15.4154 7.91449 15.4394 7.9725C15.4634 8.03051 15.4758 8.09268 15.4758 8.15547V8.8375H15.8766V6.34844H14.1188ZM13.957 6.01094V6.34844H16.0172V6.01094H13.957ZM13.6969 5.37109V6.01094H16.1578V5.37109H15.7852V5.70156H15.3211V5.37109H14.618V5.70156H14.1609V5.37109H13.6969ZM12.7969 14.2234H16.1719ZM18.3516 14.0266H16.0734L15.3844 14.357V14.8492H18.3516" fill="#DA000C"/>
<path d="M15.6797 9.23828H14.5406V8.83047H13.7039V9.23828H13.1414V8.83047H12.7969V9.56172H15.6797M12.7969 14.2234H16.1719M18.3516 14.0266H16.0734L15.3844 14.357V14.8492H18.3516M13.1344 9.56172H15.5953V9.87813H13.1344V9.56172ZM14.1188 6.34844V8.8375H14.5406V8.15547C14.5406 7.90234 14.7164 7.69141 14.9695 7.67734H14.9977C15.0604 7.67734 15.1226 7.68971 15.1806 7.71374C15.2386 7.73777 15.2913 7.77299 15.3357 7.81738C15.3801 7.86178 15.4154 7.91449 15.4394 7.9725C15.4634 8.03051 15.4758 8.09268 15.4758 8.15547V8.8375H15.8766V6.34844H14.1188ZM13.957 6.01094V6.34844H16.0172V6.01094H13.957ZM13.6969 5.37109V6.01094H16.1578V5.37109H15.7852V5.70156H15.3211V5.37109H14.618V5.70156H14.1609V5.37109H13.6969Z" stroke="black" stroke-width="0.158203" stroke-linecap="square"/>
<path d="M15.3828 14.3574H18.4203Z" fill="#DA000C"/>
<path d="M15.3828 14.3574H18.4203" stroke="black" stroke-width="0.158203"/>
<path d="M22.1758 11.1797H17.6758V14.2734H22.1758V11.1797Z" fill="black"/>
<path d="M19.8414 13.8234H22.5836L23.1953 14.2242V14.6461H19.8414M20.9875 12.0445C20.5938 12.0445 20.2703 12.375 20.2703 12.7828V13.8164H19.757V9.87891H22.5906V13.8164H21.7047V12.7828C21.7047 12.3891 21.3883 12.0445 20.9875 12.0445V12.0445Z" fill="#DA000C"/>
<path d="M19.8414 13.8234H22.5836L23.1953 14.2242V14.6461H19.8414M20.9875 12.0445C20.5938 12.0445 20.2703 12.375 20.2703 12.7828V13.8164H19.757V9.87891H22.5906V13.8164H21.7047V12.7828C21.7047 12.3891 21.3883 12.0445 20.9875 12.0445V12.0445Z" stroke="black" stroke-width="0.158203" stroke-linecap="square"/>
<path d="M21.6211 7.2207H20.3133V9.61133H21.6211V7.2207Z" fill="black"/>
<path d="M20.3203 9.23828H21.4594V8.83047H22.2961V9.23828H22.8586V8.83047H23.2031V9.56172H20.3203M22.8656 9.56172H20.4047V9.87813H22.8656V9.56172ZM21.8812 6.34844V8.8375H21.4594V8.15547C21.4594 7.90234 21.2836 7.69141 21.0305 7.67734H21.0023C20.9396 7.67734 20.8774 7.68971 20.8194 7.71374C20.7614 7.73777 20.7087 7.77299 20.6643 7.81738C20.6199 7.86178 20.5846 7.91449 20.5606 7.9725C20.5366 8.03051 20.5242 8.09268 20.5242 8.15547V8.8375H20.1234V6.34844H21.8812ZM22.043 6.01094V6.34844H19.9828V6.01094H22.043ZM22.3031 5.37109V6.01094H19.8422V5.37109H20.2148V5.70156H20.6789V5.37109H21.382V5.70156H21.8391V5.37109H22.3031ZM23.2031 14.2234H19.8281ZM17.6484 14.0266H19.9266L20.6156 14.357V14.8492H17.6484" fill="#DA000C"/>
<path d="M20.3203 9.23828H21.4594V8.83047H22.2961V9.23828H22.8586V8.83047H23.2031V9.56172H20.3203M23.2031 14.2234H19.8281M17.6484 14.0266H19.9266L20.6156 14.357V14.8492H17.6484M22.8656 9.56172H20.4047V9.87813H22.8656V9.56172ZM21.8812 6.34844V8.8375H21.4594V8.15547C21.4594 7.90234 21.2836 7.69141 21.0305 7.67734H21.0023C20.9396 7.67734 20.8774 7.68971 20.8194 7.71374C20.7614 7.73777 20.7087 7.77299 20.6643 7.81738C20.6199 7.86178 20.5846 7.91449 20.5606 7.9725C20.5366 8.03051 20.5242 8.09268 20.5242 8.15547V8.8375H20.1234V6.34844H21.8812ZM22.043 6.01094V6.34844H19.9828V6.01094H22.043ZM22.3031 5.37109V6.01094H19.8422V5.37109H20.2148V5.70156H20.6789V5.37109H21.382V5.70156H21.8391V5.37109H22.3031Z" stroke="black" stroke-width="0.158203" stroke-linecap="square"/>
<path d="M20.6172 14.3574H17.5797Z" fill="#DA000C"/>
<path d="M20.6172 14.3574H17.5797" stroke="black" stroke-width="0.158203"/>
<path d="M19.2135 13.5469C19.0237 13.6172 18.862 13.7156 18.6862 13.8141C18.4674 13.939 18.2583 14.08 18.0604 14.2359C17.9901 14.2852 17.9198 14.3344 17.8706 14.4047C17.8002 14.4609 17.7299 14.5453 17.744 14.6508C17.744 14.693 17.8002 14.5945 17.8424 14.5875C17.9092 14.5518 17.9868 14.5418 18.0604 14.5594C18.1518 14.4609 18.2713 14.3977 18.3698 14.3203C18.6564 14.1129 18.9625 13.9339 19.2838 13.7859L19.2135 13.5469Z" fill="#F8D80E" stroke="black" stroke-width="0.126562" stroke-linecap="round"/>
<path d="M18.3086 14.0668V14.341ZM18.4773 13.9473V14.2215ZM18.6461 13.8418V14.109ZM18.8219 13.7363V14.0176Z" fill="#F8D80E"/>
<path d="M18.3086 14.0668V14.341M18.4773 13.9473V14.2215M18.6461 13.8418V14.109M18.8219 13.7363V14.0176" stroke="black" stroke-width="0.158203" stroke-linecap="round"/>
<path d="M16.7953 13.5605L16.7109 13.7926C17.0995 13.9416 17.4718 14.1301 17.8219 14.3551C17.9414 14.4395 18.068 14.5168 18.1594 14.6293C18.1805 14.6855 18.1242 14.7348 18.068 14.7137C18.0187 14.6996 17.9625 14.6785 17.9133 14.7137C17.8359 14.7488 17.7656 14.8684 17.8781 14.9035C18.0469 15.016 18.307 14.9668 18.3844 14.777C18.4266 14.6785 18.4336 14.552 18.3492 14.4676C18.2086 14.3059 18.0117 14.1863 17.8289 14.0668C17.5006 13.8667 17.1546 13.6973 16.7953 13.5605V13.5605Z" fill="#F8D80E" stroke="black" stroke-width="0.126562" stroke-linecap="round"/>
<path d="M17.857 14.1086L17.8359 14.3477ZM18.0539 14.2281L17.9977 14.4602ZM18.2648 14.3898L18.1383 14.5727ZM18.3281 14.8258L18.1453 14.7273ZM18.3844 14.6289L18.1734 14.65ZM18.1172 14.9313L18.1031 14.7484ZM18.0328 14.7273L17.8641 14.8539ZM17.2031 13.75V13.968ZM17.6461 13.9891V14.2352ZM17.4211 13.8695V14.1016Z" fill="#F8D80E"/>
<path d="M17.857 14.1086L17.8359 14.3477M18.0539 14.2281L17.9977 14.4602M18.2648 14.3898L18.1383 14.5727M18.3281 14.8258L18.1453 14.7273M18.3844 14.6289L18.1734 14.65M18.1172 14.9313L18.1031 14.7484M18.0328 14.7273L17.8641 14.8539M17.2031 13.75V13.968M17.6461 13.9891V14.2352M17.4211 13.8695V14.1016" stroke="black" stroke-width="0.158203" stroke-linecap="round"/>
<path d="M16.5781 19.0039V19.5664H16.9297V19.2852H17.4148V19.5664H17.7945V19.0039H16.5781ZM16.5781 19.7773V20.3398H17.7875V19.7773H17.4078V20.0586H16.9227V19.7773H16.5781Z" fill="#F8D80E" stroke="black" stroke-width="0.158203"/>
<path d="M17.7891 16.6191H18.1406V20.6973H17.7891V16.6191Z" fill="#F8D80E" stroke="black" stroke-width="0.158203"/>
<path d="M17.7859 16.9719H18.1375V20.4875H17.7859V16.9719ZM17.9688 15.6148L18.7141 16.0508L17.9688 16.4867L17.2164 16.0508L17.9688 15.6148ZM16.9633 15.8961H16.7734V16.2055H16.9633L17.9688 16.7891L18.9672 16.2055H19.1641V15.8961H18.9672L17.9688 15.3125L16.9633 15.8961Z" fill="#F8D80E" stroke="black" stroke-width="0.158203"/>
<path d="M17.9495 14.5527C17.8677 14.5694 17.7944 14.6146 17.7429 14.6803C17.6914 14.746 17.6649 14.8279 17.6683 14.9113V15.6988C17.6747 15.7825 17.7109 15.861 17.7702 15.9203C17.8295 15.9797 17.9081 16.0158 17.9917 16.0223C18.0613 16.0275 18.1308 16.0115 18.191 15.9763C18.2513 15.9411 18.2995 15.8885 18.3292 15.8254L18.2097 15.7551C18.1931 15.7963 18.1635 15.8309 18.1254 15.8538C18.0874 15.8766 18.0429 15.8864 17.9987 15.8816C17.8862 15.8816 17.7948 15.7691 17.8089 15.6637V14.8762C17.8142 14.8246 17.839 14.777 17.8782 14.743C17.9173 14.7091 17.968 14.6913 18.0198 14.6934C18.062 14.6793 18.1253 14.7426 18.1534 14.6934C18.1956 14.6301 18.1253 14.5879 18.0831 14.5527H17.9495V14.5527ZM18.3573 14.827C18.323 14.8751 18.277 14.9138 18.2237 14.9395V15.4668L18.3643 15.5441V14.827H18.3573Z" fill="#F8D80E" stroke="black" stroke-width="0.158203"/>
<path d="M16.9297 5.70117H18.9898V9.4418H16.9297V5.70117Z" fill="black"/>
<path d="M16.7891 5.70078V8.82969H17.443V7.90156C17.443 7.69063 17.5836 7.38828 17.9984 7.38828C18.4133 7.38828 18.5609 7.69063 18.5609 7.90156V8.83672H19.2078V5.70078H16.7891ZM17.9 6.05234H18.0969V7.12109H17.9V6.05234ZM17.3164 6.26328H17.5273V7.04375H17.3164V6.26328ZM18.4766 6.26328H18.6805V7.04375H18.4695L18.4766 6.26328ZM16.5641 5.25078V5.69375H19.4328V5.25078H16.5641ZM16.2969 4.73047V5.25078H19.707V4.73047H19.2781V5.01172H18.7859V4.73047H18.2375V5.01172H17.7594V4.73047H17.2039V5.01172H16.7328V4.73047H16.2969ZM15.6641 9.87734V10.2008H20.3398V9.87734H15.6641Z" fill="#DA000C" stroke="black" stroke-width="0.158203"/>
<path d="M15.4688 8.83008V9.88477H20.5312V8.83008H20.0531V9.23789H19.4062V8.83008H18.5484V9.23789H17.4375V8.83008H16.5797V9.23789H15.9469V8.83008H15.4688Z" fill="#DA000C" stroke="black" stroke-width="0.158203"/>
<path d="M16.082 10.2012V14.0262H16.982V12.5918C16.982 11.9238 17.432 11.6074 18.0016 11.6074C18.55 11.6074 19.0211 11.9238 19.0211 12.5918V14.0262H19.9211V10.2012H16.082Z" fill="#DA000C" stroke="black" stroke-width="0.158203" stroke-linejoin="round"/>
</g>
</g>
<defs>
<filter id="filter0_d_336_27291" x="0" y="-2" width="36" height="36" filterUnits="userSpaceOnUse" color-interpolation-filters="sRGB">
<feFlood flood-opacity="0" result="BackgroundImageFix"/>
<feColorMatrix in="SourceAlpha" type="matrix" values="0 0 0 0 0 0 0 0 0 0 0 0 0 0 0 0 0 0 127 0" result="hardAlpha"/>
<feOffset dy="4"/>
<feGaussianBlur stdDeviation="3"/>
<feComposite in2="hardAlpha" operator="out"/>
<feColorMatrix type="matrix" values="0 0 0 0 0 0 0 0 0 0 0 0 0 0 0 0 0 0 0.16 0"/>
<feBlend mode="normal" in2="BackgroundImageFix" result="effect1_dropShadow_336_27291"/>
<feBlend mode="normal" in="SourceGraphic" in2="effect1_dropShadow_336_27291" result="shape"/>
</filter>
<clipPath id="clip0_336_27291">
<rect width="24" height="18" fill="white" transform="translate(6 3)"/>
</clipPath>
</defs>
</svg>
