<svg width="36" height="31" viewBox="0 0 36 31" fill="none" xmlns="http://www.w3.org/2000/svg">
<g filter="url(#filter0_d_336_27083)">
<g clip-path="url(#clip0_336_27083)">
<path fill-rule="evenodd" clip-rule="evenodd" d="M6 3H30V21H6V3Z" fill="#BE0027"/>
<path fill-rule="evenodd" clip-rule="evenodd" d="M6.96094 4.02344H29.0672V20.0884H6.96094V4.02344Z" fill="#3B5AA3"/>
<path fill-rule="evenodd" clip-rule="evenodd" d="M17.7898 18.4942C17.8389 18.5177 17.8925 18.5302 17.9469 18.5308C18.0013 18.5314 18.0552 18.5203 18.1048 18.498C23.2723 15.7492 23.2723 8.21175 18.1086 5.5005C18.0572 5.47708 18.0011 5.4656 17.9446 5.4669C17.8881 5.46819 17.8326 5.48224 17.7823 5.508C12.7461 8.2605 12.7311 15.7117 17.7861 18.4942H17.7898Z" fill="#CBE0E5"/>
<path fill-rule="evenodd" clip-rule="evenodd" d="M17.7883 18.6335C17.8633 18.6973 18.0283 18.6898 18.1033 18.6335C21.9095 15.7835 21.9283 14.0098 21.7633 14.0098H14.2258C14.1133 14.0098 14.2933 15.8173 17.7883 18.6335Z" fill="#ADD2D9"/>
<path fill-rule="evenodd" clip-rule="evenodd" d="M14.8248 15.4197C15.1696 15.3117 15.542 15.3344 15.8711 15.4835C16.1561 15.6335 16.3211 15.6335 16.6286 15.6335C16.9511 15.641 17.2023 15.8772 17.5511 15.8885C18.1923 15.9035 18.4623 16.2222 17.9636 16.226C17.7311 16.226 17.2248 16.0647 16.9811 16.0985C16.4711 16.151 16.1486 16.2635 15.6686 16.7997L16.2236 17.1747C16.7036 16.9835 16.7823 16.7622 17.0486 16.7547C17.3486 16.7435 17.4498 16.5597 17.7986 16.5597C18.215 16.5945 18.6342 16.5539 19.0361 16.4397C19.5911 16.3122 19.3286 15.9222 18.9911 15.7835C18.7173 15.6672 18.2111 15.7797 17.8961 15.6635C17.6561 15.5697 17.8511 15.4197 17.9823 15.3897C18.1098 15.3635 18.2486 15.4085 18.4098 15.4347C18.6986 15.4572 19.0623 15.431 19.3136 15.3897C19.8386 15.311 19.8161 15.1572 20.0636 15.1535C20.2511 15.1422 20.3898 15.0897 20.5136 14.9997C20.6636 14.8985 20.8173 14.6997 20.9973 14.7072L21.4736 14.726L20.7986 16.241L18.8973 18.1797L17.9111 18.5547L15.7436 17.141L14.6523 15.4647L14.8286 15.4197H14.8248Z" fill="#FDF9A1"/>
<path fill-rule="evenodd" clip-rule="evenodd" d="M17.3162 13.9504L21.6662 13.9279L21.7412 13.5416C21.7412 13.5416 21.5875 13.5191 21.46 13.5116C21.3062 13.5004 21.0362 13.6766 20.86 13.6729C20.7287 13.6729 20.5862 13.4479 20.4587 13.4479C20.2337 13.4479 20.2187 13.6466 20.0087 13.6541C19.84 13.6466 19.7687 13.5191 19.5475 13.5341C19.3225 13.5454 19.3375 13.6729 19.0487 13.6654C18.6662 13.6541 18.5125 13.3241 18.205 13.3204C17.695 13.3129 17.68 13.8079 17.3125 13.9466L17.3162 13.9504Z" fill="#179A3B"/>
<path fill-rule="evenodd" clip-rule="evenodd" d="M17.3159 14.0409L21.7934 14.0184V13.8984L17.2109 13.9209L17.3122 14.0409H17.3159Z" fill="#FDF9A1"/>
<path fill-rule="evenodd" clip-rule="evenodd" d="M19.1534 15.3856C19.2247 15.6481 19.2959 15.7381 19.5734 15.8094C19.8472 15.8731 20.2672 15.6069 20.0084 15.3481C19.7609 15.1081 19.4984 15.0481 19.2772 14.8306C18.8084 14.3694 18.1034 13.2369 18.1034 12.4381C18.1034 11.7519 18.0359 10.3456 18.0359 9.01438C18.0359 8.92813 17.7734 9.25438 17.7734 9.34438C17.7884 10.5181 17.7884 11.4069 17.8334 12.5919C17.9084 13.4581 18.3209 14.0431 18.6847 14.5681C18.8459 14.8231 19.0822 15.0931 19.1534 15.3856Z" fill="#A79270"/>
<path d="M17.2672 12.6788C17.2447 12.6101 17.2151 12.5486 17.1784 12.4942C17.1424 12.4391 17.0992 12.3922 17.0489 12.3534C16.9992 12.3146 16.9428 12.285 16.8795 12.2646C16.8163 12.2442 16.7469 12.234 16.6714 12.234C16.5476 12.234 16.4351 12.266 16.3337 12.3299C16.2324 12.3939 16.1518 12.4881 16.0919 12.6125C16.0321 12.737 16.0022 12.8897 16.0022 13.0706C16.0022 13.2515 16.0324 13.4042 16.093 13.5286C16.1535 13.6531 16.2354 13.7473 16.3388 13.8112C16.4422 13.8752 16.5585 13.9071 16.6877 13.9071C16.8074 13.9071 16.9128 13.8816 17.004 13.8306C17.0958 13.7789 17.1672 13.7061 17.2182 13.6123C17.2699 13.5178 17.2957 13.4066 17.2957 13.2787L17.3733 13.295H16.7449V13.0706H17.5406V13.295C17.5406 13.4671 17.5039 13.6167 17.4304 13.7439C17.3576 13.8711 17.257 13.9697 17.1284 14.0397C17.0006 14.1091 16.8537 14.1438 16.6877 14.1438C16.5027 14.1438 16.3402 14.1003 16.2001 14.0132C16.0607 13.9262 15.9518 13.8024 15.8736 13.6419C15.7961 13.4814 15.7573 13.2909 15.7573 13.0706C15.7573 12.9053 15.7794 12.7567 15.8236 12.6248C15.8685 12.4921 15.9318 12.3792 16.0134 12.2861C16.095 12.1929 16.1916 12.1215 16.3031 12.0718C16.4147 12.0222 16.5374 11.9974 16.6714 11.9974C16.7816 11.9974 16.8843 12.014 16.9795 12.0473C17.0754 12.08 17.1607 12.1266 17.2356 12.1871C17.311 12.247 17.374 12.3187 17.4243 12.4024C17.4746 12.4853 17.5093 12.5775 17.5283 12.6788H17.2672Z" fill="#BD0728"/>
<path d="M17.2672 12.6788L17.1818 12.7067L17.2021 12.7686H17.2672V12.6788ZM17.1784 12.4942L17.1033 12.5433L17.104 12.5444L17.1784 12.4942ZM17.0489 12.3534L16.9936 12.4242L16.9941 12.4245L17.0489 12.3534ZM16.8795 12.2646L16.9071 12.1792L16.9071 12.1792L16.8795 12.2646ZM16.0919 12.6125L16.1728 12.6514L16.1728 12.6514L16.0919 12.6125ZM16.093 13.5286L16.0122 13.5679L16.0122 13.5679L16.093 13.5286ZM16.3388 13.8112L16.2916 13.8876L16.3388 13.8112ZM17.004 13.8306L17.0478 13.9089L17.048 13.9088L17.004 13.8306ZM17.2182 13.6123L17.1394 13.5692L17.1393 13.5694L17.2182 13.6123ZM17.2957 13.2787L17.3142 13.1908L17.206 13.1681V13.2787H17.2957ZM17.3733 13.295V13.3848L17.3918 13.2072L17.3733 13.295ZM16.7449 13.295H16.6551V13.3848H16.7449V13.295ZM16.7449 13.0706V12.9808H16.6551V13.0706H16.7449ZM17.5406 13.0706H17.6304V12.9808H17.5406V13.0706ZM17.4304 13.7439L17.3527 13.699L17.3525 13.6993L17.4304 13.7439ZM17.1284 14.0397L17.1712 14.1187L17.1714 14.1186L17.1284 14.0397ZM16.2001 14.0132L16.1525 14.0894L16.1527 14.0895L16.2001 14.0132ZM15.8736 13.6419L15.7928 13.6809L15.7929 13.6812L15.8736 13.6419ZM15.8236 12.6248L15.7386 12.596L15.7385 12.5962L15.8236 12.6248ZM16.0134 12.2861L16.0809 12.3452L16.0809 12.3452L16.0134 12.2861ZM16.3031 12.0718L16.2666 11.9898L16.3031 12.0718ZM16.9795 12.0473L16.9498 12.1321L16.9506 12.1323L16.9795 12.0473ZM17.2356 12.1871L17.1791 12.2569L17.1798 12.2575L17.2356 12.1871ZM17.4243 12.4024L17.3474 12.4486L17.3475 12.4489L17.4243 12.4024ZM17.5283 12.6788V12.7686H17.6366L17.6166 12.6623L17.5283 12.6788ZM17.3525 12.651C17.3277 12.5751 17.2947 12.5059 17.2528 12.444L17.104 12.5444C17.1356 12.5913 17.1617 12.6452 17.1818 12.7067L17.3525 12.651ZM17.2535 12.445C17.2122 12.3818 17.1622 12.3274 17.1036 12.2823L16.9941 12.4245C17.0362 12.4569 17.0726 12.4963 17.1033 12.5433L17.2535 12.445ZM17.1041 12.2826C17.0457 12.237 16.9798 12.2027 16.9071 12.1792L16.852 12.3501C16.9057 12.3674 16.9527 12.3922 16.9936 12.4242L17.1041 12.2826ZM16.9071 12.1792C16.8338 12.1556 16.755 12.1443 16.6714 12.1443V12.3238C16.7388 12.3238 16.7987 12.3329 16.852 12.3501L16.9071 12.1792ZM16.6714 12.1443C16.5313 12.1443 16.402 12.1807 16.2858 12.254L16.3816 12.4059C16.4681 12.3513 16.564 12.3238 16.6714 12.3238V12.1443ZM16.2858 12.254C16.1682 12.3282 16.0771 12.4363 16.011 12.5736L16.1728 12.6514C16.2265 12.5398 16.2966 12.4595 16.3816 12.4059L16.2858 12.254ZM16.011 12.5736C15.9438 12.7134 15.9124 12.8802 15.9124 13.0706H16.0919C16.0919 12.8991 16.1204 12.7606 16.1728 12.6514L16.011 12.5736ZM15.9124 13.0706C15.9124 13.2611 15.9442 13.428 16.0122 13.5679L16.1737 13.4894C16.1207 13.3803 16.0919 13.2419 16.0919 13.0706H15.9124ZM16.0122 13.5679C16.0791 13.7055 16.1718 13.8135 16.2916 13.8876L16.386 13.7349C16.299 13.6811 16.2278 13.6007 16.1737 13.4894L16.0122 13.5679ZM16.2916 13.8876C16.4101 13.9608 16.5429 13.9969 16.6877 13.9969V13.8173C16.5741 13.8173 16.4743 13.7895 16.386 13.7349L16.2916 13.8876ZM16.6877 13.9969C16.8205 13.9969 16.9414 13.9685 17.0478 13.9089L16.9601 13.7523C16.8842 13.7947 16.7943 13.8173 16.6877 13.8173V13.9969ZM17.048 13.9088C17.1547 13.8487 17.2381 13.7636 17.2971 13.6552L17.1393 13.5694C17.0963 13.6487 17.0368 13.7091 16.9599 13.7524L17.048 13.9088ZM17.297 13.6554C17.3571 13.5454 17.3855 13.4188 17.3855 13.2787H17.206C17.206 13.3943 17.1827 13.4902 17.1394 13.5692L17.297 13.6554ZM17.2772 13.3665L17.3548 13.3829L17.3918 13.2072L17.3142 13.1908L17.2772 13.3665ZM17.3733 13.2052H16.7449V13.3848H17.3733V13.2052ZM16.8346 13.295V13.0706H16.6551V13.295H16.8346ZM16.7449 13.1604H17.5406V12.9808H16.7449V13.1604ZM17.4508 13.0706V13.295H17.6304V13.0706H17.4508ZM17.4508 13.295C17.4508 13.4541 17.417 13.5876 17.3527 13.699L17.5081 13.7888C17.5907 13.6458 17.6304 13.4801 17.6304 13.295H17.4508ZM17.3525 13.6993C17.288 13.8121 17.1994 13.8988 17.0855 13.9609L17.1714 14.1186C17.3146 14.0406 17.4273 13.9301 17.5083 13.7885L17.3525 13.6993ZM17.0856 13.9608C16.9727 14.0221 16.8408 14.054 16.6877 14.054V14.2336C16.8665 14.2336 17.0285 14.1961 17.1712 14.1187L17.0856 13.9608ZM16.6877 14.054C16.5174 14.054 16.3717 14.0141 16.2475 13.937L16.1527 14.0895C16.3087 14.1864 16.4881 14.2336 16.6877 14.2336V14.054ZM16.2476 13.9371C16.1237 13.8597 16.0258 13.7493 15.9543 13.6025L15.7929 13.6812C15.8779 13.8555 15.9976 13.9926 16.1525 14.0894L16.2476 13.9371ZM15.9545 13.6028C15.884 13.457 15.8471 13.2805 15.8471 13.0706H15.6676C15.6676 13.3013 15.7082 13.5057 15.7928 13.6809L15.9545 13.6028ZM15.8471 13.0706C15.8471 12.9132 15.8682 12.7745 15.9088 12.6533L15.7385 12.5962C15.6907 12.7389 15.6676 12.8974 15.6676 13.0706H15.8471ZM15.9087 12.6535C15.9503 12.5306 16.008 12.4284 16.0809 12.3452L15.9459 12.2269C15.8555 12.3301 15.7868 12.4536 15.7386 12.596L15.9087 12.6535ZM16.0809 12.3452C16.1541 12.2617 16.2401 12.1981 16.3396 12.1538L16.2666 11.9898C16.143 12.0448 16.0359 12.1241 15.9459 12.2269L16.0809 12.3452ZM16.3396 12.1538C16.4386 12.1098 16.5488 12.0871 16.6714 12.0871V11.9076C16.5261 11.9076 16.3907 11.9346 16.2666 11.9898L16.3396 12.1538ZM16.6714 12.0871C16.7724 12.0871 16.865 12.1024 16.9498 12.1321L17.0091 11.9626C16.9036 11.9257 16.7907 11.9076 16.6714 11.9076V12.0871ZM16.9506 12.1323C17.037 12.1618 17.1129 12.2034 17.1791 12.2569L17.292 12.1173C17.2086 12.0498 17.1138 11.9982 17.0084 11.9624L16.9506 12.1323ZM17.1798 12.2575C17.2467 12.3105 17.3025 12.3741 17.3474 12.4486L17.5012 12.3561C17.4454 12.2633 17.3754 12.1834 17.2913 12.1168L17.1798 12.2575ZM17.3475 12.4489C17.3919 12.5221 17.4229 12.604 17.4401 12.6954L17.6166 12.6623C17.5957 12.551 17.5573 12.4486 17.501 12.3558L17.3475 12.4489ZM17.5283 12.5891H17.2672V12.7686H17.5283V12.5891Z" fill="white"/>
<path d="M18.3546 12.0298H18.6076V13.4132C18.6076 13.556 18.5739 13.6835 18.5066 13.7957C18.4399 13.9073 18.3457 13.9954 18.224 14.06C18.1023 14.1239 17.9594 14.1559 17.7955 14.1559C17.6316 14.1559 17.4888 14.1239 17.3671 14.06C17.2453 13.9954 17.1508 13.9073 17.0834 13.7957C17.0168 13.6835 16.9835 13.556 16.9835 13.4132V12.0298H17.2365V13.3928C17.2365 13.4948 17.2589 13.5856 17.3038 13.6652C17.3487 13.7441 17.4126 13.8063 17.4956 13.8519C17.5793 13.8967 17.6792 13.9192 17.7955 13.9192C17.9118 13.9192 18.0118 13.8967 18.0955 13.8519C18.1791 13.8063 18.243 13.7441 18.2872 13.6652C18.3321 13.5856 18.3546 13.4948 18.3546 13.3928V12.0298Z" fill="#BD0728"/>
<path d="M18.3546 12.0298V11.9401H18.2648V12.0298H18.3546ZM18.6076 12.0298H18.6974V11.9401H18.6076V12.0298ZM18.5066 13.7957L18.4296 13.7496L18.4295 13.7497L18.5066 13.7957ZM18.224 14.06L18.2657 14.1395L18.2661 14.1393L18.224 14.06ZM17.3671 14.06L17.325 14.1393L17.3253 14.1395L17.3671 14.06ZM17.0834 13.7957L17.0063 13.8416L17.0066 13.8421L17.0834 13.7957ZM16.9835 12.0298V11.9401H16.8937V12.0298H16.9835ZM17.2365 12.0298H17.3262V11.9401H17.2365V12.0298ZM17.3038 13.6652L17.2256 13.7093L17.2258 13.7096L17.3038 13.6652ZM17.4956 13.8519L17.4524 13.9305L17.4531 13.931L17.4956 13.8519ZM18.0955 13.8519L18.1379 13.931L18.1384 13.9307L18.0955 13.8519ZM18.2872 13.6652L18.2091 13.6211L18.2089 13.6213L18.2872 13.6652ZM18.3546 12.1196H18.6076V11.9401H18.3546V12.1196ZM18.5178 12.0298V13.4132H18.6974V12.0298H18.5178ZM18.5178 13.4132C18.5178 13.5413 18.4878 13.6526 18.4296 13.7496L18.5836 13.8419C18.66 13.7145 18.6974 13.5707 18.6974 13.4132H18.5178ZM18.4295 13.7497C18.3718 13.8463 18.2901 13.9233 18.1819 13.9807L18.2661 14.1393C18.4014 14.0675 18.5081 13.9683 18.5836 13.8418L18.4295 13.7497ZM18.1823 13.9805C18.0756 14.0365 17.9477 14.0661 17.7955 14.0661V14.2456C17.9712 14.2456 18.1289 14.2113 18.2657 14.1395L18.1823 13.9805ZM17.7955 14.0661C17.6434 14.0661 17.5154 14.0365 17.4088 13.9805L17.3253 14.1395C17.4622 14.2113 17.6199 14.2456 17.7955 14.2456V14.0661ZM17.4091 13.9807C17.3009 13.9232 17.2187 13.8462 17.1603 13.7494L17.0066 13.8421C17.0828 13.9684 17.1897 14.0675 17.325 14.1393L17.4091 13.9807ZM17.1606 13.7499C17.103 13.6528 17.0732 13.5414 17.0732 13.4132H16.8937C16.8937 13.5706 16.9306 13.7142 17.0063 13.8416L17.1606 13.7499ZM17.0732 13.4132V12.0298H16.8937V13.4132H17.0732ZM16.9835 12.1196H17.2365V11.9401H16.9835V12.1196ZM17.1467 12.0298V13.3928H17.3262V12.0298H17.1467ZM17.1467 13.3928C17.1467 13.5084 17.1723 13.6147 17.2256 13.7093L17.382 13.6211C17.3456 13.5565 17.3262 13.4812 17.3262 13.3928H17.1467ZM17.2258 13.7096C17.2792 13.8035 17.3555 13.8773 17.4524 13.9305L17.5388 13.7732C17.4697 13.7352 17.4181 13.6846 17.3818 13.6208L17.2258 13.7096ZM17.4531 13.931C17.5525 13.9843 17.6677 14.009 17.7955 14.009V13.8294C17.6907 13.8294 17.606 13.8092 17.538 13.7727L17.4531 13.931ZM17.7955 14.009C17.9233 14.009 18.0386 13.9843 18.1379 13.931L18.053 13.7727C17.985 13.8092 17.9003 13.8294 17.7955 13.8294V14.009ZM18.1384 13.9307C18.2361 13.8775 18.3126 13.8035 18.3656 13.709L18.2089 13.6213C18.1734 13.6846 18.1221 13.7351 18.0525 13.773L18.1384 13.9307ZM18.3654 13.7093C18.4188 13.6147 18.4444 13.5084 18.4444 13.3928H18.2648C18.2648 13.4812 18.2455 13.5565 18.2091 13.6211L18.3654 13.7093ZM18.4444 13.3928V12.0298H18.2648V13.3928H18.4444Z" fill="white"/>
<path d="M18.4598 14.1191H18.1945L18.9617 12.0298H19.2229L19.99 14.1191H19.7248L19.1005 12.3604H19.0841L18.4598 14.1191ZM18.5577 13.303H19.6269V13.5274H18.5577V13.303Z" fill="#BD0728"/>
<path d="M18.4598 14.1191V14.2089H18.5232L18.5444 14.1492L18.4598 14.1191ZM18.1945 14.1191L18.1103 14.0882L18.0659 14.2089H18.1945V14.1191ZM18.9617 12.0298V11.9401H18.899L18.8774 11.9989L18.9617 12.0298ZM19.2229 12.0298L19.3072 11.9989L19.2855 11.9401H19.2229V12.0298ZM19.99 14.1191V14.2089H20.1186L20.0743 14.0882L19.99 14.1191ZM19.7248 14.1191L19.6402 14.1492L19.6614 14.2089H19.7248V14.1191ZM19.1005 12.3604L19.1851 12.3303L19.1639 12.2706H19.1005V12.3604ZM19.0841 12.3604V12.2706H19.0207L18.9995 12.3303L19.0841 12.3604ZM18.5577 13.303V13.2132H18.468V13.303H18.5577ZM19.6269 13.303H19.7166V13.2132H19.6269V13.303ZM19.6269 13.5274V13.6172H19.7166V13.5274H19.6269ZM18.5577 13.5274H18.468V13.6172H18.5577V13.5274ZM18.4598 14.0294H18.1945V14.2089H18.4598V14.0294ZM18.2788 14.1501L19.046 12.0608L18.8774 11.9989L18.1103 14.0882L18.2788 14.1501ZM18.9617 12.1196H19.2229V11.9401H18.9617V12.1196ZM19.1386 12.0608L19.9058 14.1501L20.0743 14.0882L19.3072 11.9989L19.1386 12.0608ZM19.99 14.0294H19.7248V14.2089H19.99V14.0294ZM19.8094 14.0891L19.1851 12.3303L19.0159 12.3904L19.6402 14.1492L19.8094 14.0891ZM19.1005 12.2706H19.0841V12.4501H19.1005V12.2706ZM18.9995 12.3303L18.3752 14.0891L18.5444 14.1492L19.1687 12.3904L18.9995 12.3303ZM18.5577 13.3928H19.6269V13.2132H18.5577V13.3928ZM19.5371 13.303V13.5274H19.7166V13.303H19.5371ZM19.6269 13.4377H18.5577V13.6172H19.6269V13.4377ZM18.6475 13.5274V13.303H18.468V13.5274H18.6475Z" fill="white"/>
<path d="M19.5499 12.0259H19.8518L20.5619 13.7602H20.5864L21.2964 12.0259H21.5984V14.1152H21.3617V12.5278H21.3413L20.6884 14.1152H20.4599L19.807 12.5278H19.7866V14.1152H19.5499V12.0259Z" fill="#BD0728"/>
<path d="M19.5499 12.0259V11.9362H19.4601V12.0259H19.5499ZM19.8518 12.0259L19.9349 11.9919L19.9121 11.9362H19.8518V12.0259ZM20.5619 13.7602L20.4788 13.7942L20.5016 13.85H20.5619V13.7602ZM20.5864 13.7602V13.85H20.6466L20.6695 13.7942L20.5864 13.7602ZM21.2964 12.0259V11.9362H21.2362L21.2133 11.9919L21.2964 12.0259ZM21.5984 12.0259H21.6882V11.9362H21.5984V12.0259ZM21.5984 14.1152V14.205H21.6882V14.1152H21.5984ZM21.3617 14.1152H21.2719V14.205H21.3617V14.1152ZM21.3617 12.5278H21.4515V12.4381H21.3617V12.5278ZM21.3413 12.5278V12.4381H21.2811L21.2583 12.4937L21.3413 12.5278ZM20.6884 14.1152V14.205H20.7485L20.7714 14.1494L20.6884 14.1152ZM20.4599 14.1152L20.3768 14.1494L20.3997 14.205H20.4599V14.1152ZM19.807 12.5278L19.89 12.4937L19.8671 12.4381H19.807V12.5278ZM19.7866 12.5278V12.4381H19.6968V12.5278H19.7866ZM19.7866 14.1152V14.205H19.8763V14.1152H19.7866ZM19.5499 14.1152H19.4601V14.205H19.5499V14.1152ZM19.5499 12.1157H19.8518V11.9362H19.5499V12.1157ZM19.7688 12.0599L20.4788 13.7942L20.645 13.7262L19.9349 11.9919L19.7688 12.0599ZM20.5619 13.85H20.5864V13.6704H20.5619V13.85ZM20.6695 13.7942L21.3795 12.0599L21.2133 11.9919L20.5033 13.7262L20.6695 13.7942ZM21.2964 12.1157H21.5984V11.9362H21.2964V12.1157ZM21.5086 12.0259V14.1152H21.6882V12.0259H21.5086ZM21.5984 14.0255H21.3617V14.205H21.5984V14.0255ZM21.4515 14.1152V12.5278H21.2719V14.1152H21.4515ZM21.3617 12.4381H21.3413V12.6176H21.3617V12.4381ZM21.2583 12.4937L20.6054 14.0811L20.7714 14.1494L21.4243 12.562L21.2583 12.4937ZM20.6884 14.0255H20.4599V14.205H20.6884V14.0255ZM20.5429 14.0811L19.89 12.4937L19.7239 12.562L20.3768 14.1494L20.5429 14.0811ZM19.807 12.4381H19.7866V12.6176H19.807V12.4381ZM19.6968 12.5278V14.1152H19.8763V12.5278H19.6968ZM19.7866 14.0255H19.5499V14.205H19.7866V14.0255ZM19.6397 14.1152V12.0259H19.4601V14.1152H19.6397Z" fill="white"/>
<path fill-rule="evenodd" clip-rule="evenodd" d="M15.7368 9.03356C15.6806 9.14606 15.8718 8.99981 15.9168 8.98481C16.1681 8.89481 16.2656 8.57981 16.6968 8.77106C17.0343 8.91731 17.4881 8.83106 17.2518 8.98106C16.9593 9.15731 16.3706 9.35231 16.3593 10.2261C16.4081 10.3086 16.4118 10.2973 16.4531 10.2036C16.5431 10.0011 16.9668 9.44981 17.1768 9.49481C17.2631 9.51731 17.5106 9.24356 17.5143 9.32231C17.5406 9.53981 17.1768 9.98231 17.1843 10.5711C17.1843 10.7098 17.3531 10.7548 17.4318 10.6573C17.5143 10.5711 17.5593 10.4848 17.7018 10.3723C17.9493 10.1698 17.8818 9.29981 17.9118 9.34106C18.0881 9.56606 18.1143 10.2148 18.3768 10.4773C18.5981 10.6986 18.7743 10.5898 18.7256 10.2898C18.6318 9.67481 18.3431 9.85106 18.2043 9.21731C18.1743 9.09356 18.1668 8.98481 18.3318 9.03356C18.5306 9.09356 18.6506 9.18356 18.7968 9.40856C18.9468 9.62606 19.2243 9.83231 19.3856 9.95606C19.6668 10.1736 19.7681 9.98606 19.6331 9.70856C19.4616 9.3934 19.1819 9.15096 18.8456 9.02606C18.6131 8.94356 18.5306 8.93606 18.3281 8.89856C18.2718 8.88731 18.2156 8.77106 18.3131 8.70731C18.53 8.55092 18.7827 8.45162 19.0481 8.41856C19.2993 8.41106 19.4981 8.61356 19.6743 8.66606C20.0268 8.75606 20.0268 8.53481 19.8693 8.36606C19.7418 8.22731 19.4718 7.99106 19.2206 8.02481C18.7143 8.08856 18.7481 8.07356 18.4331 8.27981C18.3206 8.34731 18.1931 8.42231 18.2418 8.33981C18.3543 8.13356 18.2493 8.17106 18.4256 7.96106C18.5606 7.81106 18.6618 7.69856 18.8006 7.66106C18.9281 7.62731 19.1006 7.49231 19.1493 7.42106C19.2768 7.24856 19.1681 7.14731 18.9731 7.20731C18.8006 7.25231 18.7106 7.36481 18.5981 7.39481C18.3206 7.48481 18.0993 8.10731 18.0656 8.19731C18.0243 8.30231 17.9756 8.24981 17.9831 8.15981C18.0206 7.72106 18.0581 6.97856 17.9081 6.67481C17.6681 6.22481 17.6906 6.43481 17.6006 6.64856C17.4656 6.98606 17.5143 7.30481 17.6006 7.63481C17.6381 7.79981 17.7731 7.98731 17.7993 8.11856C17.8181 8.21981 17.7393 8.08856 17.6943 8.02481C17.5481 7.79981 17.4393 7.64981 17.1993 7.52606C16.9596 7.42743 16.6962 7.40135 16.4418 7.45106C16.3743 7.47356 16.5168 7.57106 16.5731 7.61606C16.7343 7.74356 17.0381 7.78481 17.2481 7.91231C17.4206 8.02106 17.5556 8.08856 17.6156 8.23856C17.6381 8.35106 17.6756 8.51606 17.6006 8.51231C17.4093 8.50106 17.1131 8.33231 16.4981 8.39981C16.1831 8.44481 15.9131 8.71106 15.7368 9.03356V9.03356Z" fill="#239E46"/>
<path fill-rule="evenodd" clip-rule="evenodd" d="M17.0742 14.6484H17.2505V14.9447H17.0742V14.6484Z" fill="black"/>
<path fill-rule="evenodd" clip-rule="evenodd" d="M16.1888 12.6719C16.8938 13.6469 18.0262 14.2169 18.0487 14.6594H15.8438C16.35 14.0519 16.6613 13.6394 16.1888 12.6719Z" fill="#FDF9FF"/>
<path fill-rule="evenodd" clip-rule="evenodd" d="M15.547 14.6804C16.507 14.8941 17.6507 15.0141 18.382 14.6504C18.3895 14.8641 18.1457 15.1754 17.9432 15.1754H16.1057C16.3195 15.1416 16.4432 15.0779 16.7882 15.0629L15.8132 15.0704C15.7007 15.0741 15.5132 14.7854 15.547 14.6804Z" fill="#A68861"/>
<path fill-rule="evenodd" clip-rule="evenodd" d="M17.7223 18.9386C17.8198 18.9949 17.9736 18.9911 18.0598 18.9461C23.6023 15.9949 23.6061 7.90612 18.0673 4.99612C18.0119 4.97044 17.9513 4.95778 17.8902 4.95908C17.8291 4.96037 17.7692 4.97561 17.7148 5.00362C12.3148 7.95862 12.2998 15.9536 17.7223 18.9424V18.9386ZM17.7486 18.2749C17.7952 18.2978 17.8463 18.31 17.8982 18.3106C17.9501 18.3113 18.0015 18.3004 18.0486 18.2786C22.6836 15.5486 22.7398 8.33737 18.0523 5.75362C17.9623 5.68612 17.8311 5.70862 17.7411 5.75362C13.3011 8.38237 13.0536 15.2974 17.7486 18.2749Z" fill="#BE0027"/>
<path d="M16.0797 11.4531C16.1647 11.4531 16.2397 11.4706 16.3047 11.5056C16.3922 11.5506 16.4459 11.6331 16.4659 11.7531H16.3497C16.3347 11.6881 16.3022 11.6381 16.2522 11.6031C16.2072 11.5731 16.1484 11.5581 16.0759 11.5581C15.9934 11.5581 15.9222 11.5919 15.8622 11.6594C15.8047 11.7219 15.7759 11.8169 15.7759 11.9444C15.7759 12.0494 15.7997 12.1369 15.8472 12.2069C15.8972 12.2744 15.9759 12.3081 16.0834 12.3081C16.1659 12.3081 16.2334 12.2844 16.2859 12.2369C16.3434 12.1894 16.3722 12.1119 16.3722 12.0044H16.0872V11.9031H16.4847V12.3906H16.4059L16.3759 12.2706C16.3359 12.3181 16.2984 12.3519 16.2634 12.3719C16.2084 12.4019 16.1397 12.4169 16.0572 12.4169C15.9497 12.4169 15.8559 12.3819 15.7759 12.3119C15.6909 12.2219 15.6484 12.1006 15.6484 11.9481C15.6484 11.7956 15.6897 11.6744 15.7722 11.5844C15.8522 11.4969 15.9547 11.4531 16.0797 11.4531Z" fill="#BD0728"/>
<path d="M16.9634 11.4784V12.0484C16.9634 12.1134 16.9759 12.1671 17.0009 12.2096C17.0359 12.2771 17.0984 12.3109 17.1884 12.3109C17.2909 12.3109 17.3622 12.2759 17.4022 12.2059C17.4222 12.1659 17.4322 12.1134 17.4322 12.0484V11.4746H17.5597V11.9921C17.5597 12.1021 17.5422 12.1896 17.5072 12.2546C17.4547 12.3621 17.3522 12.4159 17.1997 12.4159C17.0422 12.4159 16.9359 12.3609 16.8809 12.2509C16.8509 12.1884 16.8359 12.1021 16.8359 11.9921V11.4746L16.9634 11.4784Z" fill="#BD0728"/>
<path d="M18.6881 12.0184L18.5494 11.6171L18.3994 12.0184H18.6881ZM18.4856 11.4746H18.6244L18.9619 12.3934H18.8194L18.7294 12.1196H18.3656L18.2644 12.3934H18.1406L18.4856 11.4746Z" fill="#BD0728"/>
<path d="M19.3867 11.4746H19.5705L19.8292 12.2509L20.0917 11.4746H20.268V12.3896H20.148V11.6171L19.8855 12.3896H19.7692L19.5067 11.6171V12.3896H19.3867V11.4746Z" fill="#BD0728"/>
</g>
</g>
<defs>
<filter id="filter0_d_336_27083" x="0" y="-2" width="36" height="36" filterUnits="userSpaceOnUse" color-interpolation-filters="sRGB">
<feFlood flood-opacity="0" result="BackgroundImageFix"/>
<feColorMatrix in="SourceAlpha" type="matrix" values="0 0 0 0 0 0 0 0 0 0 0 0 0 0 0 0 0 0 127 0" result="hardAlpha"/>
<feOffset dy="4"/>
<feGaussianBlur stdDeviation="3"/>
<feComposite in2="hardAlpha" operator="out"/>
<feColorMatrix type="matrix" values="0 0 0 0 0 0 0 0 0 0 0 0 0 0 0 0 0 0 0.16 0"/>
<feBlend mode="normal" in2="BackgroundImageFix" result="effect1_dropShadow_336_27083"/>
<feBlend mode="normal" in="SourceGraphic" in2="effect1_dropShadow_336_27083" result="shape"/>
</filter>
<clipPath id="clip0_336_27083">
<rect width="24" height="18" fill="white" transform="translate(6 3)"/>
</clipPath>
</defs>
</svg>
