<svg width="36" height="31" viewBox="0 0 36 31" fill="none" xmlns="http://www.w3.org/2000/svg">
<g filter="url(#filter0_d_336_16714)">
<g clip-path="url(#clip0_336_16714)">
<path fill-rule="evenodd" clip-rule="evenodd" d="M6 3H42.0038V14.9566H6V3Z" fill="#B20000"/>
<path fill-rule="evenodd" clip-rule="evenodd" d="M6 14.957H42.0038V21.0004H6V14.957Z" fill="#429F00"/>
<path fill-rule="evenodd" clip-rule="evenodd" d="M6 3H9.98714V21H6V3Z" fill="white"/>
<path fill-rule="evenodd" clip-rule="evenodd" d="M6.19141 3.30586H6.38127V3.61172H6.19141V3.30586ZM6.761 3.30586H7.33059V3.61172H6.761V3.30586ZM6.95086 3H7.14073V3.30586H6.95086V3ZM7.90018 3H8.09005V3.30586H7.90018V3ZM8.65964 3.30586H9.22923V3.61172H8.65964V3.30586ZM8.8495 3H9.03937V3.30586H8.8495V3ZM6.57113 3.61172H6.95086V3.91406H6.57113V3.61172ZM7.14073 3.61172H7.52045V3.91406H7.14073V3.61172ZM8.46977 3.61172H8.8495V3.91406H8.46977V3.61172ZM9.03937 3.61172H9.41909V3.91406H9.03937V3.61172ZM6.38127 3.91406H6.761V4.21992H6.38127V3.91406ZM7.33059 3.91406H7.71032V4.21992H7.33059V3.91406ZM8.27991 3.91406H8.65964V4.21992H8.27991V3.91406ZM9.22923 3.91406H9.60896V4.21992H9.22923V3.91406ZM9.60896 3.30586H9.79882V3.61172H9.60896V3.30586ZM6.19141 4.21992H6.57113V4.52578H6.19141V4.21992ZM7.52045 4.21992H7.90018V4.52578H7.52045V4.21992ZM9.41909 4.21992H9.79882V4.52578H9.41909V4.21992ZM6.38127 5.13398H6.761V5.43984H6.38127V5.13398ZM6.57113 5.43984H6.95086V5.7457H6.57113V5.43984ZM7.33059 5.1375H7.71032V5.43984H7.33059V5.1375ZM7.14073 5.43984H7.52045V5.7457H7.14073V5.43984ZM6.761 5.7457H7.33059V6.05156H6.761V5.7457Z" fill="#B20000"/>
<path fill-rule="evenodd" clip-rule="evenodd" d="M6.94932 6.05078H7.13918V6.35664H6.94932V6.05078ZM8.27837 5.13672H8.6581V5.43906H8.27837V5.13672ZM8.46823 5.43906H8.84796V5.74492H8.46823V5.43906ZM9.22769 5.13672H9.60742V5.43906H9.22769V5.13672ZM9.03782 5.43906H9.41755V5.74492H9.03782V5.43906ZM8.6581 5.74492H9.22769V6.05078H8.6581V5.74492ZM8.84796 6.05078H9.03782V6.35664H8.84796V6.05078ZM7.89864 5.74141H8.0885V6.04727H7.89864V5.74141ZM6 5.74141H6.18986V6.04727H6V5.74141ZM9.79728 5.74141H9.98714V6.04727H9.79728V5.74141ZM6.94932 7.26719H7.13918V7.57305H6.94932V7.26719ZM6.75946 7.57656H7.32905V7.87891H6.75946V7.57656ZM6.56959 7.87891H7.51891V8.18477H6.56959V7.87891ZM8.84796 7.2707H9.03782V7.57656H8.84796V7.2707ZM8.6581 7.57656H9.22769V7.87891H8.6581V7.57656ZM8.46823 7.87891H9.41755V8.18477H8.46823V7.87891ZM8.6581 9.40469H9.60742V9.71055H8.6581V9.40469ZM8.27837 8.18477H9.60742V8.49062H8.27837V8.18477ZM6.37973 8.18477H7.70878V8.49062H6.37973V8.18477ZM6.56959 9.71055H7.13918V10.0164H6.56959V9.71055ZM6.37973 9.40469H7.32905V9.71055H6.37973V9.40469ZM9.03782 8.8H9.98714V9.10586H9.03782V8.8ZM8.84796 9.71406H9.41755V10.0199H8.84796V9.71406Z" fill="#B20000"/>
<path fill-rule="evenodd" clip-rule="evenodd" d="M6.75946 10.018H6.94932V10.3238H6.75946V10.018ZM9.03782 10.018H9.22769V10.3238H9.03782V10.018ZM6 8.79805H6.94932V9.10391H6V8.79805ZM7.70878 9.40625H8.27837V9.71211H7.70878V9.40625ZM7.89864 9.71563H8.0885V10.0215H7.89864V9.71563ZM7.32905 8.80156H8.6581V9.10742H7.32905V8.80156ZM8.0885 4.2207H8.46823V4.52656H8.0885V4.2207ZM7.70878 4.52656H8.27837V4.83242H7.70878V4.52656ZM7.51891 4.83242H7.89864V5.13477H7.51891V4.83242ZM8.0885 4.83242H8.46823V5.13477H8.0885V4.83242ZM6 4.52656H6.37973V4.83242H6V4.52656ZM6.18986 4.83242H6.56959V5.13477H6.18986V4.83242ZM9.60742 4.52656H9.98714V4.82891H9.60742V4.52656ZM9.41755 4.82891H9.79728V5.13125H9.41755V4.82891ZM6 7.57109H6.18986V7.87695H6V7.57109ZM9.79728 7.57109H9.98714V7.87695H9.79728V7.57109ZM7.70878 10.0145H8.27837V10.3203H7.70878V10.0145ZM7.51891 10.3203H7.89864V10.6227H7.51891V10.3203ZM8.0885 10.3203H8.46823V10.6227H8.0885V10.3203ZM7.32905 10.6227H7.70878V10.9285H7.32905V10.6227ZM8.27837 10.6227H8.6581V10.9285H8.27837V10.6227ZM7.13918 10.9285H7.51891V11.2344H7.13918V10.9285ZM8.46823 10.9285H8.84796V11.2344H8.46823V10.9285ZM6.94932 11.2379H7.32905V11.5438H6.94932V11.2379ZM8.6581 11.2379H9.03782V11.5438H8.6581V11.2379ZM6.56959 11.5438H7.13918V11.8496H6.56959V11.5438ZM8.84796 11.5438H9.41755V11.8496H8.84796V11.5438ZM9.22769 11.2379H9.60742V11.5438H9.22769V11.2379ZM9.41755 10.932H9.79728V11.2379H9.41755V10.932ZM9.60742 10.6262H9.98714V10.932H9.60742V10.6262ZM6.37973 11.2379H6.75946V11.5438H6.37973V11.2379ZM6.18986 10.932H6.56959V11.2379H6.18986V10.932ZM6 10.6297H6.37973V10.9355H6V10.6297ZM6.75946 11.8531H6.94932V12.1555H6.75946V11.8531ZM9.03782 11.8531H9.22769V12.1555H9.03782V11.8531ZM7.89864 10.9391H8.0885V11.2414H7.89864V10.9391ZM7.32905 11.8531H7.51891V12.1555H7.32905V11.8531ZM8.46823 11.8531H8.6581V12.1555H8.46823V11.8531ZM7.89864 11.8531H8.0885V12.1555H7.89864V11.8531ZM6 11.8531H6.18986V12.1555H6L6 11.8531ZM9.79728 11.8531H9.98714V12.1555H9.79728V11.8531ZM7.89864 7.57812H8.0885V7.88047H7.89864V7.57812ZM6.94932 4.52656H7.13918V4.83242H6.94932V4.52656ZM8.84796 4.52656H9.03782V4.83242H8.84796V4.52656ZM7.70878 6.66055H8.27837V6.96641H7.70878V6.66055ZM7.32905 6.96641H7.89864V7.27227H7.32905V6.96641ZM7.51891 7.27227H7.70878V7.57812H7.51891V7.27227ZM7.13918 6.66055H7.51891V6.96641H7.13918V6.66055ZM7.32905 6.3582H7.89864V6.66055H7.32905V6.3582ZM7.51891 6.05234H7.70878V6.3582H7.51891V6.05234ZM8.0885 6.3582H8.6581V6.66055H8.0885V6.3582ZM8.27837 6.05234H8.46823V6.3582H8.27837V6.05234ZM8.46823 6.66055H8.84796V6.96641H8.46823V6.66055ZM8.0885 6.96641H8.6581V7.27227H8.0885V6.96641ZM8.27837 7.27227H8.46823V7.57812H8.27837V7.27227ZM9.03782 6.66055H9.41755V6.96641H9.03782V6.66055ZM9.22769 6.3582H9.79728V6.66055H9.22769V6.3582ZM9.60742 6.66055H9.98714V6.96641H9.60742V6.66055ZM9.22769 6.96641H9.79728V7.27227H9.22769V6.96641ZM9.41755 7.27227H9.60742V7.57812H9.41755V7.27227ZM9.41755 6.05234H9.60742V6.3582H9.41755V6.05234ZM6 6.65703H6.37973V6.96289H6V6.65703ZM6.18986 6.35469H6.75946V6.65703H6.18986V6.35469ZM6.56959 6.65703H6.94932V6.96289H6.56959V6.65703ZM6.18986 6.96289H6.75946V7.26875H6.18986V6.96289Z" fill="#B20000"/>
<path fill-rule="evenodd" clip-rule="evenodd" d="M6.37973 7.2707H6.56959V7.57656H6.37973V7.2707ZM6.37973 6.05078H6.56959V6.35664H6.37973V6.05078ZM6.18986 8.49063H6.94932V8.79648H6.18986V8.49063ZM7.13918 8.49063H7.89864V8.79648H7.13918V8.49063ZM8.0885 8.49063H8.84796V8.79648H8.0885V8.49063ZM9.03782 8.49063H9.79728V8.79648H9.03782V8.49063ZM7.51891 9.10234H8.46823V9.40469H7.51891V9.10234ZM6.18986 9.10234H7.13918V9.40469H6.18986V9.10234ZM8.84796 9.10234H9.79728V9.40469H8.84796V9.10234ZM9.79728 10.3223H9.98714V10.6246H9.79728V10.3223ZM6 10.3223H6.18986V10.6246H6V10.3223ZM6.18986 20.6934H6.37973V20.391H6.18986V20.6934ZM6.75946 20.6934H7.32905V20.391H6.75946V20.6934ZM6.94932 20.9992H7.13918V20.6934H6.94932V20.9992ZM7.89864 20.9992H8.0885V20.6934H7.89864V20.9992ZM8.6581 20.6934H9.22769V20.3875H8.6581V20.6934ZM8.84796 20.9992H9.03782V20.6934H8.84796V20.9992ZM6.56959 20.3875H6.94932V20.0852H6.56959V20.3875ZM7.13918 20.3875H7.51891V20.0852H7.13918V20.3875ZM8.46823 20.3875H8.84796V20.0852H8.46823V20.3875ZM9.03782 20.3875H9.41755V20.0852H9.03782V20.3875ZM7.32905 20.0852H7.70878V19.7793H7.32905V20.0852ZM8.27837 20.0852H8.6581V19.7793H8.27837V20.0852ZM9.22769 20.0852H9.60742V19.7793H9.22769V20.0852ZM9.60742 20.6934H9.79728V20.3875H9.60742V20.6934ZM6.18986 19.7793H6.56959V19.4734H6.18986V19.7793ZM7.51891 19.7793H7.89864V19.4734H7.51891V19.7793ZM9.41755 19.7793H9.79728V19.4734H9.41755V19.7793ZM6.37973 18.8652H6.75946V18.5594H6.37973V18.8652ZM6.56959 18.5594H6.94932V18.2535H6.56959V18.5594ZM7.32905 18.8652H7.70878V18.5594H7.32905V18.8652ZM7.13918 18.5594H7.51891V18.2535H7.13918V18.5594ZM6.75946 18.2535H7.32905V17.9477H6.75946V18.2535ZM6.94932 17.9477H7.13918V17.6453H6.94932V17.9477ZM8.27837 18.8617H8.6581V18.5594H8.27837V18.8617ZM8.46823 18.5594H8.84796V18.2535H8.46823V18.5594ZM9.22769 18.8652H9.60742V18.5594H9.22769V18.8652ZM9.03782 18.5594H9.41755V18.2535H9.03782V18.5594ZM8.6581 18.2535H9.22769V17.9477H8.6581V18.2535ZM8.84796 17.9477H9.03782V17.6453H8.84796V17.9477ZM7.89864 18.257H8.0885V17.9512H7.89864V18.257ZM6 18.257H6.18986V17.9512H6V18.257ZM9.79728 18.257H9.98714V17.9512H9.79728V18.257ZM6.94932 16.7313H7.13918V16.4254H6.94932V16.7313ZM6.75946 16.4219H7.32905V16.1195H6.75946V16.4219ZM6.56959 16.1195H7.51891V15.8137H6.56959V16.1195ZM8.84796 16.7277H9.03782V16.4219H8.84796V16.7277Z" fill="#B20000"/>
<path fill-rule="evenodd" clip-rule="evenodd" d="M8.6581 16.423H9.22769V16.1207H8.6581V16.423ZM8.46823 16.1207H9.41755V15.8148H8.46823V16.1207ZM8.6581 14.5949H9.60742V14.2855H8.6581V14.5949ZM8.27837 15.8148H9.60742V15.509H8.27837V15.8148ZM6.37973 15.8148H7.70878V15.509H6.37973V15.8148ZM6.56959 14.2891H7.13918V13.9832H6.56959V14.2891ZM6.37973 14.5949H7.32905V14.2855H6.37973V14.5949ZM9.03782 15.1996H9.98714V14.8937H9.03782V15.1996ZM8.84796 14.2855H9.41755V13.9797H8.84796V14.2855ZM6 15.1996H6.94932V14.8937H6V15.1996ZM7.70878 14.5914H8.27837V14.2855H7.70878V14.5914ZM7.89864 14.2855H8.0885V13.9797H7.89864V14.2855ZM7.32905 15.1996H8.6581V14.8937H7.32905V15.1996ZM8.0885 19.777H8.46823V19.4711H8.0885V19.777ZM7.70878 19.4711H8.27837V19.1723H7.70878V19.4711ZM7.51891 19.1652H7.89864V18.8594H7.51891V19.1652ZM8.0885 19.1652H8.46823V18.8594H8.0885V19.1652ZM6 19.4746H6.37973V19.1723H6V19.4746ZM6.18986 19.1688H6.56959V18.8664H6.18986V19.1688ZM9.60742 19.4746H9.98714V19.1723H9.60742V19.4746ZM9.41755 19.1688H9.79728V18.8664H9.41755V19.1688ZM6 16.4301H6.18986V16.1242H6V16.4301ZM9.79728 16.4301H9.98714V16.1242H9.79728V16.4301ZM7.51891 13.6809H7.89864V13.3785H7.51891V13.6809ZM8.0885 13.6809H8.46823V13.3785H8.0885V13.6809ZM7.32905 13.3785H7.70878V13.0727H7.32905V13.3785ZM8.27837 13.3785H8.6581V13.0727H8.27837V13.3785ZM7.13918 13.0727H7.51891V12.7668H7.13918V13.0727ZM8.46823 13.0727H8.84796V12.7668H8.46823V13.0727ZM6.94932 12.7633H7.32905V12.4574H6.94932V12.7633ZM8.6581 12.7633H9.03782V12.4574H8.6581V12.7633ZM6.56959 12.4574H7.13918V12.1516H6.56959V12.4574ZM8.84796 12.4574H9.41755V12.1516H8.84796V12.4574ZM9.22769 12.7633H9.60742V12.4574H9.22769V12.7633ZM9.41755 13.0691H9.79728V12.7633H9.41755V13.0691ZM9.60742 13.375H9.98714V13.0691H9.60742V13.375ZM6.37973 12.7633H6.75946V12.4574H6.37973V12.7633ZM6.18986 13.0691H6.56959V12.7633H6.18986V13.0691ZM6 13.3715H6.37973V13.0656H6V13.3715ZM6.75946 12.148H6.94932V11.8457H6.75946V12.148ZM7.89864 13.0621H8.0885V12.7598H7.89864V13.0621ZM7.89864 16.4195H8.0885V16.1172H7.89864V16.4195ZM6.94932 19.4711H7.13918V19.1723H6.94932V19.4711ZM8.84796 19.4711H9.03782V19.1723H8.84796V19.4711ZM7.70878 17.3441H8.27837V17.0383H7.70878V17.3441ZM7.32905 17.0383H7.89864V16.7324H7.32905V17.0383ZM7.51891 16.7324H7.70878V16.4266H7.51891V16.7324ZM7.13918 17.3441H7.51891V17.0383H7.13918V17.3441ZM7.32905 17.643H7.89864V17.3441H7.32905V17.643ZM7.51891 17.9488H7.70878V17.6465H7.51891V17.9488ZM8.0885 17.643H8.6581V17.3441H8.0885V17.643ZM8.27837 17.9488H8.46823V17.6465H8.27837V17.9488ZM8.46823 17.3406H8.84796V17.0348H8.46823V17.3406ZM8.0885 17.0348H8.6581V16.7289H8.0885V17.0348ZM8.27837 16.7289H8.46823V16.423H8.27837V16.7289ZM9.03782 17.3441H9.41755V17.0383H9.03782V17.3441ZM9.22769 17.643H9.79728V17.3441H9.22769V17.643ZM9.60742 17.3406H9.98714V17.0348H9.60742V17.3406ZM9.22769 17.0348H9.79728V16.7289H9.22769V17.0348ZM9.41755 16.7289H9.60742V16.423H9.41755V16.7289ZM9.41755 17.9488H9.60742V17.6465H9.41755V17.9488ZM6 17.3441H6.37973V17.0383H6V17.3441ZM6.18986 17.643H6.75946V17.3441H6.18986V17.643Z" fill="#B20000"/>
<path fill-rule="evenodd" clip-rule="evenodd" d="M6.56959 17.3402H6.94932V17.0344H6.56959V17.3402ZM6.18986 17.0344H6.75946V16.7285H6.18986V17.0344ZM6.37973 16.7285H6.56959V16.4227H6.37973V16.7285ZM6.37973 17.9484H6.56959V17.6461H6.37973V17.9484ZM6.18986 15.5086H6.94932V15.2027H6.18986V15.5086ZM7.13918 15.5086H7.89864V15.2027H7.13918V15.5086ZM8.0885 15.5086H8.84796V15.2027H8.0885V15.5086ZM9.03782 15.5086H9.79728V15.2027H9.03782V15.5086ZM7.51891 14.8969H8.46823V14.5945H7.51891V14.8969ZM6.18986 14.8969H7.13918V14.5945H6.18986V14.8969ZM8.84796 14.8969H9.79728V14.5945H8.84796V14.8969ZM9.79728 13.6805H9.98714V13.3711H9.79728V13.6805ZM6 13.6805H6.18986V13.3711H6V13.6805ZM7.70878 12.1512H7.89864V12.457H7.70878V12.1512ZM8.0885 12.1512H8.27837V12.457H8.0885V12.1512ZM8.0885 11.543H8.27837V11.8488H8.0885V11.543ZM7.70878 11.543H7.89864V11.8488H7.70878V11.543ZM6.37973 19.7801H6.75946V20.0859H6.37973V19.7801ZM9.03782 13.9828H9.22769V13.677H9.03782V13.9828ZM6.75946 13.9828H6.94932V13.677H6.75946V13.9828ZM7.70878 13.677H8.27837V13.9828H7.70878V13.677Z" fill="#B20000"/>
</g>
</g>
<defs>
<filter id="filter0_d_336_16714" x="0" y="-2" width="36" height="36" filterUnits="userSpaceOnUse" color-interpolation-filters="sRGB">
<feFlood flood-opacity="0" result="BackgroundImageFix"/>
<feColorMatrix in="SourceAlpha" type="matrix" values="0 0 0 0 0 0 0 0 0 0 0 0 0 0 0 0 0 0 127 0" result="hardAlpha"/>
<feOffset dy="4"/>
<feGaussianBlur stdDeviation="3"/>
<feComposite in2="hardAlpha" operator="out"/>
<feColorMatrix type="matrix" values="0 0 0 0 0 0 0 0 0 0 0 0 0 0 0 0 0 0 0.16 0"/>
<feBlend mode="normal" in2="BackgroundImageFix" result="effect1_dropShadow_336_16714"/>
<feBlend mode="normal" in="SourceGraphic" in2="effect1_dropShadow_336_16714" result="shape"/>
</filter>
<clipPath id="clip0_336_16714">
<rect width="24" height="18" fill="white" transform="translate(6 3)"/>
</clipPath>
</defs>
</svg>
