<svg width="36" height="31" viewBox="0 0 36 31" fill="none" xmlns="http://www.w3.org/2000/svg">
<g filter="url(#filter0_d_336_28207)">
<g clip-path="url(#clip0_336_28207)">
<path d="M0 3H36V21H0V3Z" fill="#239E46"/>
<path d="M0 3H36V16.5H0V3Z" fill="black"/>
<path d="M0 3H36V7.5H0V3Z" fill="#E70013"/>
<path d="M19.5908 10.4088C19.2985 10.2002 18.9544 10.0762 18.5962 10.0503C18.2381 10.0244 17.8797 10.0977 17.5604 10.2621C17.2412 10.4264 16.9734 10.6756 16.7864 10.9822C16.5994 11.2888 16.5005 11.6409 16.5005 12C16.5005 12.3591 16.5994 12.7113 16.7864 13.0178C16.9734 13.3244 17.2412 13.5736 17.5604 13.7379C17.8797 13.9023 18.2381 13.9756 18.5962 13.9497C18.9544 13.9238 19.2985 13.7998 19.5908 13.5912C19.2761 13.9058 18.8752 14.12 18.4387 14.2068C18.0023 14.2936 17.5499 14.249 17.1388 14.0787C16.7277 13.9084 16.3764 13.62 16.1292 13.25C15.8819 12.88 15.75 12.445 15.75 12C15.75 11.555 15.8819 11.12 16.1292 10.75C16.3764 10.38 16.7277 10.0916 17.1388 9.92133C17.5499 9.75101 18.0023 9.70642 18.4387 9.79319C18.8752 9.87996 19.2761 10.0942 19.5908 10.4088M19.094 12L22.1216 11.0172L20.2496 13.5912V10.4088L22.1216 12.9828L19.094 12Z" fill="white"/>
</g>
</g>
<defs>
<filter id="filter0_d_336_28207" x="0" y="-2" width="36" height="36" filterUnits="userSpaceOnUse" color-interpolation-filters="sRGB">
<feFlood flood-opacity="0" result="BackgroundImageFix"/>
<feColorMatrix in="SourceAlpha" type="matrix" values="0 0 0 0 0 0 0 0 0 0 0 0 0 0 0 0 0 0 127 0" result="hardAlpha"/>
<feOffset dy="4"/>
<feGaussianBlur stdDeviation="3"/>
<feComposite in2="hardAlpha" operator="out"/>
<feColorMatrix type="matrix" values="0 0 0 0 0 0 0 0 0 0 0 0 0 0 0 0 0 0 0.16 0"/>
<feBlend mode="normal" in2="BackgroundImageFix" result="effect1_dropShadow_336_28207"/>
<feBlend mode="normal" in="SourceGraphic" in2="effect1_dropShadow_336_28207" result="shape"/>
</filter>
<clipPath id="clip0_336_28207">
<rect width="24" height="18" fill="white" transform="translate(6 3)"/>
</clipPath>
</defs>
</svg>
