<svg width="36" height="31" viewBox="0 0 36 31" fill="none" xmlns="http://www.w3.org/2000/svg">
<g filter="url(#filter0_d_336_17305)">
<g clip-path="url(#clip0_336_17305)">
<path d="M6 3H30V21H6V3Z" fill="#008000"/>
<path d="M18.0012 14.5005C19.3827 14.5005 20.5025 13.3807 20.5025 11.9993C20.5025 10.6179 19.3827 9.49805 18.0012 9.49805C16.6198 9.49805 15.5 10.6179 15.5 11.9993C15.5 13.3807 16.6198 14.5005 18.0012 14.5005Z" fill="#FFE000"/>
<path d="M18.7814 14.0589C19.9184 14.0589 20.8402 13.1372 20.8402 12.0002C20.8402 10.8631 19.9184 9.94141 18.7814 9.94141C17.6444 9.94141 16.7227 10.8631 16.7227 12.0002C16.7227 13.1372 17.6444 14.0589 18.7814 14.0589Z" fill="#008000"/>
<path d="M10.1175 12.1159C11.5631 12.1159 12.735 10.944 12.735 9.49836C12.735 8.05275 11.5631 6.88086 10.1175 6.88086C8.67189 6.88086 7.5 8.05275 7.5 9.49836C7.5 10.944 8.67189 12.1159 10.1175 12.1159Z" fill="#FFE000"/>
<path d="M9.9375 11.4754H10.5938C10.5938 11.4754 10.62 11.4154 10.5863 11.3854C10.5488 11.3554 10.41 11.3479 10.4475 11.2429C10.5225 11.0254 10.5375 11.0929 10.5863 10.5754C10.6219 10.1323 10.6469 9.68843 10.6613 9.24414H10.5637C10.5637 9.24414 10.5825 9.49539 10.5262 9.82539C10.4737 10.1554 10.455 10.1816 10.395 10.4366C10.3667 10.5801 10.3253 10.7207 10.2713 10.8566C10.2188 11.0066 10.2112 11.0104 10.1287 11.1491C10.0425 11.2841 10.0725 11.2316 10.0275 11.3141C10.0013 11.3554 9.975 11.3441 9.95625 11.3741C9.94125 11.4041 9.9375 11.4754 9.9375 11.4754V11.4754Z" fill="#802000" stroke="#7B3100" stroke-width="0.124219"/>
<path d="M10.4344 7.59375C10.443 7.71061 10.4277 7.828 10.3894 7.93875C10.3374 8.05461 10.3081 8.17936 10.3031 8.30625C10.2356 8.32875 10.1644 8.16 10.0969 8.26125C10.1456 8.4 10.2619 8.50875 10.3369 8.6325C10.3519 8.67 10.4644 8.77125 10.3969 8.79375C10.2356 8.7375 10.1944 8.53125 10.0969 8.4075C10.0398 8.30077 9.95651 8.21034 9.85481 8.14473C9.75312 8.07912 9.63638 8.0405 9.51563 8.0325C9.42188 8.03625 9.12563 8.01375 9.20063 8.17125C9.31313 8.24625 9.45562 8.29875 9.56812 8.385C9.65437 8.3925 9.80438 8.535 9.79688 8.5875C9.64688 8.5275 9.57938 8.45625 9.42188 8.3925C9.20438 8.31 8.90813 8.35875 8.78438 8.5725C8.76563 8.62875 8.73188 8.79 8.80313 8.80875C8.88563 8.68125 9.00187 8.535 9.17437 8.57625C9.30937 8.5875 9.02438 8.8275 9.13313 8.77875C9.17063 8.76375 9.24562 8.71125 9.30562 8.70375C9.36187 8.70375 9.39188 8.74125 9.43313 8.74875C9.51938 8.76 9.54563 8.79375 9.53438 8.81625C9.52688 8.83875 9.49688 8.81625 9.41063 8.84625C9.36938 8.86125 9.34688 8.89875 9.29813 8.9175C9.24563 8.9325 9.14063 8.93625 9.10313 8.9175C8.96438 8.86125 8.73938 8.86875 8.69813 9.04125C8.69813 9.11625 8.63063 9.03375 8.60063 9.0675C8.57438 9.15 8.57063 9.2325 8.45063 9.225C8.37563 9.3 8.30063 9.3825 8.20312 9.43875C8.25938 9.56625 8.47688 9.31125 8.46563 9.42C8.37188 9.55125 8.51813 9.5775 8.57813 9.47625C8.68688 9.36375 8.82188 9.225 8.97938 9.34125C9.05438 9.4125 9.09937 9.30375 9.15562 9.30375C9.19312 9.3975 9.23438 9.31125 9.27563 9.285C9.33938 9.2775 9.32063 9.3675 9.39563 9.31125C9.54938 9.21 9.73687 9.29625 9.88687 9.19875C10.0481 9.12375 9.90937 9.255 9.86812 9.3075C9.79687 9.4425 9.85688 9.6225 9.70688 9.705C9.64313 9.86625 9.77812 10.08 9.64312 10.2C9.62437 10.275 9.81562 10.2675 9.86812 10.2975C9.96562 10.2975 9.86812 10.08 9.96187 10.05C10.0894 10.125 10.0819 9.9075 10.0556 9.84C10.0706 9.69 10.0781 9.5175 10.1531 9.37875C10.2356 9.21 10.3106 9.45 10.2206 9.5175C10.1681 9.67125 10.0931 9.87 10.2094 10.0163C10.2469 10.0238 10.2731 10.1063 10.3144 10.1288C10.3594 10.155 10.4194 10.125 10.4269 10.05C10.4869 9.825 10.4569 9.585 10.5394 9.36375C10.5956 9.29625 10.6744 9.3525 10.7081 9.41625C10.8206 9.5475 10.8994 9.70875 11.0344 9.8175C11.1622 9.86976 11.2663 9.9672 11.3269 10.0913C11.3269 10.1888 11.6044 10.2038 11.5219 10.0913C11.4431 9.99 11.4956 9.88125 11.5744 9.81C11.6194 9.82125 11.6081 9.7425 11.5744 9.7725C11.5181 9.76125 11.5144 9.66 11.5894 9.70875C11.7206 9.75 11.5819 9.615 11.5331 9.61125C11.4244 9.54375 11.3006 9.46875 11.2481 9.34875C11.3906 9.34875 11.5369 9.4275 11.6794 9.3825C11.7956 9.3225 11.9119 9.3825 11.9531 9.4875C12.0431 9.4725 12.0056 9.3825 11.9531 9.3525C12.0169 9.32625 12.0656 9.27 11.9831 9.22125C11.9456 9.16875 12.0394 9.07125 11.9194 9.07875C11.9231 8.985 11.8894 8.9025 11.7881 8.86875C11.6869 8.78625 11.3906 8.99625 11.4019 8.805C11.3719 8.7 11.5219 8.79 11.5631 8.7375C11.6044 8.625 11.3569 8.64 11.4394 8.55C11.4919 8.52 11.7431 8.47125 11.5481 8.43375C11.504 8.44667 11.4576 8.44968 11.4123 8.44255C11.3669 8.43541 11.3236 8.41832 11.2856 8.3925C11.2144 8.50875 11.0156 8.325 11.0494 8.535C11.0231 8.61375 10.8431 8.82 10.7944 8.6625C10.8319 8.53875 11.0494 8.50125 10.9819 8.3325C10.9706 8.23125 10.8844 8.35125 10.8469 8.34375C10.8244 8.28 10.9069 8.20125 10.9669 8.18625C11.0794 8.27625 11.0794 8.07375 11.1919 8.0925C11.2706 8.07375 11.1656 8.04 11.1431 8.025C11.1656 7.96875 11.2894 7.93875 11.1694 7.88625C11.0606 7.81125 10.9819 7.965 10.8956 7.9725C10.8131 7.87875 10.9706 7.83375 11.0156 7.785C11.0194 7.7475 10.9256 7.77375 10.9519 7.74C10.9781 7.69875 11.1469 7.695 11.0644 7.6275C10.9383 7.58902 10.8026 7.597 10.6819 7.65C10.6069 7.6725 10.5881 7.8375 10.5244 7.83C10.4981 7.755 10.5356 7.6125 10.4344 7.59375V7.59375ZM10.9969 9.18C11.0869 9.165 10.9969 9.31875 10.9594 9.315C10.9594 9.2625 10.8244 9.26625 10.9106 9.2175C10.937 9.20012 10.9662 9.18743 10.9969 9.18V9.18Z" fill="#008000"/>
<path d="M24.0038 15.1445L24.169 15.6584L24.6739 15.4672L24.3753 15.917L24.8396 16.1925L24.3014 16.2394L24.3755 16.7743L24.0038 16.3828L23.6318 16.774L23.7059 16.2394L23.168 16.1923L23.6323 15.9168L23.3335 15.467L23.8383 15.6582L24.0038 15.1445Z" fill="#FFE000"/>
<path d="M21.0038 10.3926L21.169 10.9065L21.6739 10.7152L21.3753 11.1651L21.8396 11.4406L21.3014 11.4875L21.3755 12.0223L21.0038 11.6308L20.6318 12.0221L20.7059 11.4875L20.168 11.4403L20.6323 11.1648L20.3335 10.715L20.8383 10.9062L21.0038 10.3926Z" fill="#FFE000"/>
<path d="M24.0038 7.14258L24.169 7.65645L24.6739 7.46524L24.3753 7.91506L24.8396 8.19057L24.3014 8.23748L24.3755 8.77231L24.0038 8.38083L23.6318 8.77207L23.7059 8.23748L23.168 8.19033L23.6323 7.91482L23.3335 7.465L23.8383 7.65621L24.0038 7.14258Z" fill="#FFE000"/>
<path d="M26.6718 9.59375L26.837 10.1076L27.3418 9.91641L27.0432 10.3662L27.5076 10.6417L26.9694 10.6886L27.0435 11.2235L26.6718 10.832L26.2998 11.2232L26.3739 10.6886L25.8359 10.6415L26.3003 10.366L26.0014 9.91617L26.5063 10.1074L26.6718 9.59375Z" fill="#FFE000"/>
<path d="M25.2062 12L25.337 12.3203L25.6818 12.3455L25.4175 12.5689L25.5001 12.9046L25.2062 12.7222L24.9124 12.9049L24.9948 12.5691L24.7305 12.3458L25.0758 12.3205L25.2062 12Z" fill="#FFE000"/>
</g>
</g>
<defs>
<filter id="filter0_d_336_17305" x="0" y="-2" width="36" height="36" filterUnits="userSpaceOnUse" color-interpolation-filters="sRGB">
<feFlood flood-opacity="0" result="BackgroundImageFix"/>
<feColorMatrix in="SourceAlpha" type="matrix" values="0 0 0 0 0 0 0 0 0 0 0 0 0 0 0 0 0 0 127 0" result="hardAlpha"/>
<feOffset dy="4"/>
<feGaussianBlur stdDeviation="3"/>
<feComposite in2="hardAlpha" operator="out"/>
<feColorMatrix type="matrix" values="0 0 0 0 0 0 0 0 0 0 0 0 0 0 0 0 0 0 0.16 0"/>
<feBlend mode="normal" in2="BackgroundImageFix" result="effect1_dropShadow_336_17305"/>
<feBlend mode="normal" in="SourceGraphic" in2="effect1_dropShadow_336_17305" result="shape"/>
</filter>
<clipPath id="clip0_336_17305">
<rect width="24" height="18" fill="white" transform="translate(6 3)"/>
</clipPath>
</defs>
</svg>
