<svg width="36" height="31" viewBox="0 0 36 31" fill="none" xmlns="http://www.w3.org/2000/svg">
<g filter="url(#filter0_d_336_28033)">
<g clip-path="url(#clip0_336_28033)">
<path d="M6 3H30V21H6V3Z" fill="white"/>
<path fill-rule="evenodd" clip-rule="evenodd" d="M3 3V4.2L16.14 12L3.06 19.8V21H4.98L18.06 13.2L31.08 21H33V19.8L19.98 12L33.06 4.2V3H31.08L18 10.8L4.98 3H3.06H3Z" fill="#DF112D"/>
<path d="M19.561 5.69944C19.981 7.25944 19.741 9.17944 18.001 10.2594C16.261 9.17944 16.021 7.25944 16.441 5.69944C16.861 5.33944 18.721 5.09944 19.561 5.69944Z" fill="#E8112D"/>
<path d="M18.0012 5.39992C18.6012 5.39992 19.0812 5.51992 19.5612 5.75992C19.6476 5.24011 19.853 4.74729 20.1612 4.31992C19.8612 4.31992 19.7412 4.43992 19.7412 4.61992C19.6812 4.43992 19.3812 4.43992 19.2612 4.55992C19.6212 4.73992 19.3812 5.15992 19.0812 5.09992C18.9012 5.03992 18.8413 4.91992 18.8413 4.79992C18.8858 4.7924 18.9258 4.76843 18.9535 4.73277C18.9811 4.69711 18.9944 4.65236 18.9906 4.60739C18.9868 4.56241 18.9663 4.5205 18.9331 4.48995C18.8999 4.45939 18.8564 4.44244 18.8112 4.44244C18.7661 4.44244 18.7226 4.45939 18.6894 4.48995C18.6562 4.5205 18.6357 4.56241 18.6319 4.60739C18.6281 4.65236 18.6414 4.69711 18.669 4.73277C18.6967 4.76843 18.7367 4.7924 18.7812 4.79992C18.6705 4.91297 18.5195 4.97767 18.3612 4.97992C18.2923 4.94734 18.2336 4.89662 18.1913 4.8332C18.149 4.76979 18.1248 4.69606 18.1212 4.61992C18.1212 4.31992 18.4813 4.25992 18.5413 4.31992C18.5413 4.13992 18.1812 3.89992 18.1212 4.13992C18.1832 4.02342 18.205 3.88973 18.1833 3.75958C18.1616 3.62942 18.0976 3.51004 18.0012 3.41992C17.9178 3.50547 17.8618 3.614 17.8404 3.73159C17.819 3.84917 17.8332 3.97047 17.8812 4.07992C17.7612 3.89992 17.4613 4.07992 17.4613 4.31992C17.5213 4.25992 17.8212 4.31992 17.8212 4.61992C17.8212 4.73992 17.8213 4.91992 17.6413 4.91992C17.5678 4.94873 17.4869 4.95258 17.411 4.9309C17.3351 4.90922 17.2684 4.8632 17.2212 4.79992L17.3413 4.73992C17.3756 4.72011 17.4024 4.68953 17.4175 4.65292C17.4327 4.61631 17.4354 4.57572 17.4251 4.53745C17.4149 4.49918 17.3923 4.46536 17.3608 4.44123C17.3294 4.41711 17.2909 4.40404 17.2512 4.40404C17.2116 4.40404 17.1731 4.41711 17.1417 4.44123C17.1102 4.46536 17.0876 4.49918 17.0774 4.53745C17.0671 4.57572 17.0698 4.61631 17.085 4.65292C17.1001 4.68953 17.1269 4.72011 17.1613 4.73992C17.1613 4.91992 17.0412 5.03992 16.9212 5.03992C16.8583 5.03992 16.7969 5.02011 16.7458 4.98329C16.6948 4.94648 16.6566 4.89452 16.6366 4.83479C16.6167 4.77506 16.6161 4.71057 16.6349 4.65047C16.6537 4.59037 16.6909 4.5377 16.7413 4.49992C16.6213 4.37992 16.3213 4.37992 16.2613 4.61992C16.2613 4.43992 16.1412 4.31992 15.7812 4.31992C16.0895 4.74729 16.2949 5.24011 16.3812 5.75992C16.8799 5.49865 17.4389 5.37442 18.0012 5.39992V5.39992Z" fill="#F9DD16"/>
<path d="M19.38 6.95917H19.26H19.44C19.5 6.95917 19.56 6.89917 19.5 6.83917H19.62L19.5 6.71917H19.62L19.5 6.59917H19.56C19.5495 6.58092 19.5439 6.56023 19.5439 6.53917C19.5439 6.5181 19.5495 6.49741 19.56 6.47917H19.14L18.84 6.41917L19.2 6.23917C19.2 6.11917 19.02 5.93917 18.72 6.05917L18.06 5.99917L18.48 5.87917L18.96 5.81917H18.54C18.36 5.81917 17.94 5.75917 17.94 5.99917C17.94 6.23917 18.36 6.17917 18.78 6.11917L19.14 6.17917L18.78 6.29917C18.6023 6.25814 18.4177 6.25814 18.24 6.29917H17.82C17.7 6.29917 17.52 6.29917 17.4 6.17917C17.4 6.17917 17.16 6.29917 17.16 6.41917V6.59917C17.28 6.71917 17.16 6.65917 17.04 6.65917L16.74 6.59917C16.68 6.47917 16.62 6.41917 16.5 6.47917V6.59917H16.62C16.6018 6.58863 16.5811 6.58309 16.56 6.58309C16.5389 6.58309 16.5182 6.58863 16.5 6.59917V6.71917H16.68H16.56V6.77917H16.8C16.7682 6.77917 16.7377 6.79181 16.7151 6.81431C16.6926 6.83682 16.68 6.86734 16.68 6.89917C16.74 6.83917 16.8 6.89917 16.92 6.89917L16.8 6.95917C16.86 6.95917 17.22 7.01917 17.22 6.89917V6.95917C17.22 6.95917 17.4 6.95917 17.4 6.83917V6.95917C17.4 6.95917 17.52 6.95917 17.58 6.83917V6.71917H17.88C18 6.59917 18.06 6.71917 18.12 6.65917H18.24C18.3 6.65917 18.36 6.65917 18.42 6.53917C18.54 6.59917 18.72 6.65917 19.08 6.59917C19.26 6.59917 19.38 6.65917 19.38 6.77917H19.08C19.08 6.77917 19.02 6.83917 19.08 6.89917C19.14 6.95917 19.08 6.89917 19.14 6.89917C19.14 6.89917 19.08 6.95917 19.14 7.01917L19.32 6.95917H19.38ZM16.98 5.93917V5.99917L17.04 6.11917L17.1 5.93917H16.98Z" fill="#F9DD16"/>
<path d="M17.4023 5.99945C17.4623 5.93945 17.5223 5.93945 17.5223 5.99945L17.4623 6.11945L17.4023 5.93945V5.99945Z" fill="#F9DD16"/>
<path d="M17.2205 5.87891C17.4005 5.87891 17.4605 5.99891 17.4605 6.11891L17.3405 6.35891L17.2205 6.41891L17.1005 6.35891C17.1005 6.17891 16.9805 6.23891 16.9805 6.11891C16.9805 5.99891 16.9805 5.87891 17.2205 5.87891V5.87891Z" fill="#F9DD16"/>
<path d="M16.7414 6.36008H16.6214C16.6814 6.36008 16.6814 6.48008 16.8614 6.48008H16.7414C16.8014 6.48008 16.8614 6.60008 17.0414 6.60008C17.1014 6.60008 17.0414 6.60008 17.0414 6.60008C17.0414 6.66008 17.1614 6.60008 17.2214 6.72008C17.2214 6.66008 17.1014 6.54008 17.2214 6.42008C16.9814 6.42008 16.9214 6.30008 16.8614 6.24008C16.7414 6.18008 16.7414 6.06008 16.6814 5.94008C16.6814 5.94008 16.6214 5.82008 16.5614 5.88008V6.00008H16.5014C16.5614 6.00008 16.5014 6.12008 16.6214 6.18008C16.5614 6.12008 16.5014 6.06008 16.4414 6.12008H16.5014L16.7414 6.36008V6.36008ZM18.3014 6.96008H18.6014L18.7214 6.90008V6.78008C18.6614 6.78008 18.6014 6.72008 18.6614 6.66008C18.4814 6.42008 18.1214 6.54008 18.1214 6.66008L18.3614 6.78008H18.4214H18.0014L18.0614 6.84008L17.9414 6.90008C17.9414 7.02008 18.0614 6.90008 18.0614 6.90008V6.96008C18.0614 6.96008 18.0614 7.02008 18.1214 6.96008C18.1602 6.94636 18.2026 6.94636 18.2414 6.96008H18.3014Z" fill="#F9DD16"/>
<path d="M17.2216 6.36023H17.2816V6.24023H17.1016V6.30023L17.2216 6.36023V6.36023Z" fill="#FF0016"/>
<path d="M16.5628 5.88018C16.5628 5.82018 16.4428 5.88018 16.4428 5.88018H16.5628ZM16.5628 5.94018L16.3828 6.00018H16.5028L16.5628 5.94018ZM16.5628 6.12018H16.3828H16.5028H16.5628ZM16.5628 6.54018C16.5028 6.54018 16.4428 6.54018 16.4428 6.66018C16.4428 6.60018 16.5028 6.66018 16.5628 6.66018V6.54018ZM16.5628 6.66018L16.4428 6.78018L16.5628 6.72018V6.60018V6.66018ZM16.5628 6.72018C16.5628 6.72018 16.5028 6.78018 16.5628 6.84018V6.66018V6.72018ZM18.0628 6.90018C18.0028 6.90018 17.9428 6.90018 17.9428 7.02018L18.0628 6.96018V6.90018V6.90018ZM18.1228 6.90018C18.0628 6.90018 18.0028 7.02018 18.0628 7.08018L18.1228 7.02018V6.96018V6.90018ZM18.1228 6.78018C18.0028 6.78018 17.9428 6.78018 17.9428 6.90018L18.0628 6.84018L18.1228 6.78018ZM19.0828 6.90018C19.0828 6.90018 18.9628 6.96018 19.0228 7.02018L19.0828 6.96018V6.90018V6.90018ZM19.0828 6.84018L18.9628 6.90018H19.0828V6.72018V6.84018ZM19.0828 6.96018C19.0828 6.96018 19.0228 7.08018 19.0828 7.08018H19.1428V6.90018L19.0828 6.96018ZM17.2828 6.36018V6.60018C17.1628 6.60018 17.1628 6.60018 17.1628 6.48018V6.36018H17.2228H17.2828Z" fill="#0051BA"/>
<path d="M19.1411 8.22023H19.2611C19.2611 8.22023 19.3211 8.22023 19.2611 8.16023H19.3811L19.3211 8.04023H19.3811L19.3211 7.92023C19.3106 7.90199 19.305 7.8813 19.305 7.86023C19.305 7.83917 19.3106 7.81848 19.3211 7.80023H19.0211L18.7211 7.74023C18.9011 7.80023 19.0811 7.68023 19.0811 7.56023C19.0811 7.44023 18.9011 7.32023 18.6611 7.44023L18.0011 7.38023L18.3611 7.26023H18.8411L18.4211 7.20023C18.2411 7.14023 17.8811 7.20023 17.8811 7.38023C17.8811 7.56023 18.3011 7.56023 18.6611 7.50023H18.9611L18.6611 7.62023C18.5031 7.58423 18.3391 7.58423 18.1811 7.62023L17.7611 7.68023C17.7011 7.68023 17.5211 7.68023 17.4011 7.56023L17.1611 7.74023L17.2211 7.98023C17.2811 8.04023 17.2211 7.98023 17.1011 7.98023H16.8011C16.8011 7.86023 16.6811 7.80023 16.6211 7.86023V7.92023H16.7411C16.7229 7.9097 16.7022 7.90416 16.6811 7.90416C16.66 7.90416 16.6393 7.9097 16.6211 7.92023V8.04023H16.7411H16.6811C16.8011 8.04023 16.8011 8.16023 16.8611 8.10023C16.8414 8.09515 16.8208 8.09515 16.8011 8.10023C16.8011 8.10023 16.9211 8.22023 16.9811 8.16023L16.9211 8.28023C16.9211 8.22023 17.2811 8.28023 17.2811 8.16023V8.28023C17.2811 8.28023 17.4011 8.28023 17.4611 8.16023H17.5811V8.04023H17.7011L17.8811 7.98023H18.1811C18.2411 7.98023 18.3011 7.98023 18.3611 7.86023C18.4811 7.92023 18.6011 7.98023 18.9611 7.92023C19.0811 7.92023 19.1411 7.92023 19.1411 8.04023V8.10023H18.9011V8.22023C18.9011 8.28023 18.9611 8.22023 19.0211 8.22023C18.9611 8.22023 18.9011 8.22023 18.9611 8.28023H19.0211L19.1411 8.22023V8.22023ZM17.1011 7.32023H16.9811L17.0411 7.50023L17.1011 7.32023V7.32023Z" fill="#F9DD16"/>
<path d="M17.4023 7.32031H17.5223L17.4623 7.50031L17.4023 7.32031Z" fill="#F9DD16"/>
<path d="M17.283 7.25977C17.463 7.25977 17.463 7.37977 17.463 7.49977C17.463 7.61977 17.403 7.49977 17.343 7.67977L17.223 7.73977H17.163C17.163 7.55977 17.043 7.55977 17.043 7.49977C17.043 7.43977 17.043 7.25977 17.283 7.25977V7.25977Z" fill="#F9DD16"/>
<path d="M16.8025 7.67977H16.7425C16.7425 7.67977 16.7425 7.79977 16.9225 7.79977H16.8025L17.0425 7.91977C17.1625 7.91977 17.0425 7.91977 17.0425 7.91977L17.2825 8.03977C17.2825 7.91977 17.1625 7.85977 17.2225 7.73977C17.0425 7.73977 16.9825 7.61977 16.9225 7.55977C16.8025 7.55977 16.8025 7.43977 16.8025 7.31977L16.6825 7.25977C16.6825 7.25977 16.6225 7.25977 16.6825 7.25977V7.37977H16.6225L16.6825 7.49977H16.5625C16.6825 7.49977 16.7425 7.67977 16.8025 7.67977V7.67977ZM18.2425 8.21977H18.1825H18.6625V8.09977C18.6025 8.09977 18.5425 8.03977 18.6025 7.91977C18.4225 7.73977 18.1225 7.85977 18.1225 7.91977L18.3625 8.03977C18.3625 8.03977 18.4825 8.03977 18.3625 8.09977H18.2425C18.1225 8.09977 18.0625 8.03977 18.0025 8.09977V8.21977H18.0625C18.0625 8.21977 18.0625 8.27977 18.1225 8.21977C18.1613 8.20604 18.2037 8.20604 18.2425 8.21977V8.21977Z" fill="#F9DD16"/>
<path d="M17.2802 7.74055V7.68055C17.2802 7.68055 17.3402 7.62055 17.2802 7.56055C17.3402 7.62055 17.2802 7.62055 17.2802 7.56055C17.2802 7.62055 17.1602 7.62055 17.1602 7.56055V7.68055H17.2802V7.74055Z" fill="#FF0016"/>
<path d="M17.2216 7.62055L17.1016 7.56055ZM17.2216 7.56055H17.1016ZM17.2216 7.56055L17.1016 7.62055ZM17.2816 7.62055L17.4016 7.56055ZM17.2816 7.56055H17.4016ZM17.2816 7.56055L17.4016 7.62055Z" fill="black"/>
<path d="M16.68 7.19922L16.56 7.25922H16.68V7.19922ZM16.68 7.31922L16.5 7.37922H16.62L16.68 7.31922ZM16.62 7.49922C16.62 7.43922 16.5 7.49922 16.5 7.49922H16.62ZM16.62 7.85922L16.5 7.91922H16.68L16.62 7.85922ZM16.62 7.97922C16.62 7.97922 16.5 7.97922 16.62 8.09922V7.97922ZM16.74 7.97922L16.62 8.15922L16.74 8.09922V8.03922V7.97922ZM17.94 8.15922C17.94 8.15922 17.88 8.15922 17.94 8.27922L18 8.21922V8.15922H17.94ZM18.06 8.21922C18.06 8.21922 17.94 8.27922 18 8.33922L18.06 8.27922V8.21922ZM18.06 8.03922C18 8.03922 17.88 8.09922 17.94 8.15922H18V8.09922L18.06 8.03922ZM18.9 8.21922C18.9 8.21922 18.84 8.21922 18.9 8.27922V8.15922V8.21922ZM18.9 8.09922L18.84 8.15922H18.96V8.09922H18.9ZM18.96 8.27922C18.96 8.27922 18.9 8.27922 18.96 8.33922V8.27922ZM17.28 7.67922V7.91922V7.79922C17.28 7.73922 17.28 7.67922 17.22 7.73922V7.67922H17.28Z" fill="#0051BA"/>
<path d="M19.1419 9.25753C19.1083 9.25753 19.1083 9.30253 19.0999 9.30253C19.1671 9.30253 19.2007 9.27553 19.2175 9.23953V9.29353C19.2679 9.27553 19.2847 9.23053 19.2679 9.20353L19.3267 9.22153C19.2931 9.19453 19.3183 9.13153 19.2595 9.09553C19.2763 9.09553 19.3099 9.11353 19.3267 9.14053C19.3183 9.07753 19.3099 9.04153 19.2595 9.00553H19.3015C19.2905 8.99771 19.2816 8.98695 19.2757 8.97432C19.2698 8.96169 19.2671 8.94763 19.2679 8.93353C19.2679 8.89753 19.2511 8.89753 19.2175 8.90653L19.0663 8.91553C18.9823 8.91553 18.8983 8.91553 18.8311 8.86153C18.9403 8.91553 19.0831 8.80753 19.0831 8.72653C19.0831 8.63653 18.9655 8.54653 18.7471 8.60053C18.5287 8.65453 18.2599 8.63653 18.2599 8.55553C18.2599 8.47453 18.4531 8.46553 18.5539 8.48353C18.6547 8.50153 18.7219 8.51053 18.9067 8.43853C18.8647 8.45653 18.7135 8.46553 18.5959 8.42953C18.4783 8.39353 18.1927 8.39353 18.1927 8.55553C18.1927 8.72653 18.4951 8.70853 18.7639 8.66353C18.9151 8.64553 18.9991 8.66353 18.9991 8.70853C18.9991 8.76253 18.8563 8.78053 18.7471 8.77153C18.6318 8.75488 18.5145 8.76407 18.4027 8.79853C18.2935 8.83453 18.2179 8.79853 18.1003 8.82553C18.0415 8.82553 17.8987 8.82553 17.8315 8.69953C17.7895 8.73553 17.6635 8.79853 17.6383 8.87053C17.6131 8.92453 17.6383 8.98753 17.6719 9.05053C17.7223 9.12253 17.6467 9.11353 17.5879 9.11353C17.5207 9.11353 17.4199 9.11353 17.3695 9.04153C17.3191 8.98753 17.2603 8.94253 17.2099 8.97853C17.1847 9.00553 17.2099 9.03253 17.2267 9.02353L17.2939 9.04153C17.2804 9.03495 17.2655 9.03232 17.2507 9.0339C17.236 9.03548 17.2219 9.04122 17.2099 9.05053C17.1847 9.06853 17.2099 9.10453 17.2351 9.09553C17.2519 9.08653 17.2939 9.07753 17.3191 9.09553C17.2939 9.09553 17.2603 9.09553 17.2519 9.11353C17.2435 9.13153 17.2519 9.14953 17.2771 9.14953C17.3275 9.14953 17.3359 9.18553 17.3863 9.17653C17.3745 9.17722 17.3631 9.18083 17.3529 9.18708C17.3427 9.19333 17.334 9.20204 17.3275 9.21253C17.3779 9.18553 17.4199 9.24853 17.4787 9.23053C17.4619 9.23953 17.4199 9.26653 17.4199 9.28453C17.4535 9.23953 17.6887 9.32053 17.6887 9.22153L17.6803 9.29353C17.7055 9.27553 17.7979 9.26653 17.8315 9.20353C17.8315 9.22153 17.8315 9.24853 17.8147 9.25753C17.8399 9.25753 17.8819 9.23953 17.9239 9.17653C17.9407 9.14953 17.9407 9.13153 17.9407 9.11353C17.9827 9.11353 18.0079 9.10453 18.0415 9.07753C18.0751 9.05053 18.1087 9.10453 18.1675 9.05953C18.2179 9.02353 18.2683 9.05953 18.3019 9.04153C18.3271 9.02353 18.3691 9.04153 18.4027 9.02353C18.4363 9.00553 18.4867 9.03253 18.5371 8.98753C18.6211 9.02353 18.7303 9.07753 18.9739 9.03253C19.1083 9.00553 19.1587 9.05953 19.1587 9.12253C19.1587 9.17653 19.1251 9.17653 19.1083 9.17653C19.0243 9.18553 18.9991 9.14953 18.9655 9.15853C18.9487 9.16753 18.9319 9.20353 18.9655 9.22153C18.9403 9.23053 18.9403 9.25753 18.9571 9.26653C18.9739 9.27553 18.9991 9.26653 19.0243 9.25753C18.9907 9.26653 18.9655 9.29353 18.9823 9.32053C18.9907 9.33853 19.0159 9.34753 19.0411 9.32053C19.0663 9.28453 19.1083 9.25753 19.1419 9.25753V9.25753ZM17.5795 8.53753C17.5123 8.51053 17.4955 8.51053 17.5039 8.57353C17.5039 8.60053 17.5291 8.63653 17.5459 8.65453C17.5459 8.62753 17.5543 8.56453 17.5795 8.54653V8.53753Z" fill="#F9DD16" stroke="black" stroke-width="0.0188388"/>
<path d="M17.8047 8.54581C17.8719 8.50981 17.8971 8.50981 17.8803 8.57281C17.8803 8.59981 17.8551 8.63581 17.8383 8.65381C17.8383 8.62681 17.8383 8.56381 17.8047 8.54581Z" fill="#F9DD16" stroke="black" stroke-width="0.0188388"/>
<path d="M17.6981 8.50195C17.8325 8.50195 17.8493 8.57395 17.8409 8.65495C17.8409 8.74495 17.7989 8.70895 17.7737 8.83495C17.7653 8.87095 17.7317 8.87995 17.6897 8.87995C17.6645 8.87995 17.6309 8.87995 17.6141 8.82595C17.5889 8.70895 17.5469 8.73595 17.5469 8.64595C17.5469 8.57395 17.5637 8.50195 17.6981 8.50195V8.50195Z" fill="#F9DD16" stroke="black" stroke-width="0.0188388"/>
<path d="M17.3519 8.83362C17.3183 8.81562 17.2931 8.83362 17.2763 8.83362C17.3267 8.84262 17.3267 8.90562 17.4275 8.92362C17.4023 8.92362 17.3939 8.94162 17.3687 8.92362C17.4107 8.95962 17.4527 9.00462 17.5535 9.00462C17.6123 9.00462 17.5703 9.03162 17.5367 9.01362C17.5703 9.05862 17.6459 9.02262 17.6963 9.10362C17.6963 9.04062 17.6123 8.95062 17.6543 8.88762C17.5115 8.87862 17.5031 8.79762 17.4275 8.73462C17.3603 8.68062 17.3519 8.62662 17.3267 8.52762C17.3183 8.48262 17.2679 8.45562 17.2427 8.46462C17.2175 8.46462 17.2007 8.49162 17.2259 8.50962C17.2427 8.52762 17.2763 8.52762 17.2763 8.57262C17.2511 8.53662 17.2091 8.52762 17.1923 8.54562C17.1839 8.56362 17.1923 8.59062 17.2091 8.59062C17.2511 8.59062 17.2259 8.64462 17.2679 8.68062C17.2259 8.63562 17.1923 8.62662 17.1671 8.65362C17.1587 8.67162 17.1671 8.69862 17.2007 8.69862C17.2427 8.69862 17.2847 8.80662 17.3519 8.83362V8.83362ZM18.4439 9.24761C18.4271 9.24761 18.4355 9.29261 18.4019 9.29261C18.4691 9.29261 18.5111 9.27461 18.5363 9.24761L18.5195 9.29261C18.5531 9.26561 18.6455 9.25662 18.6875 9.26562C18.7295 9.27462 18.7379 9.25662 18.7547 9.22962C18.7715 9.19362 18.7547 9.17562 18.7295 9.15762C18.7043 9.13062 18.6959 9.09462 18.7043 9.04062C18.5867 8.86062 18.3683 8.95062 18.3683 9.02262C18.4439 9.12162 18.4523 9.11262 18.5195 9.12162C18.5783 9.13962 18.6203 9.13962 18.5783 9.17562C18.5615 9.19362 18.4943 9.17562 18.4523 9.18462C18.3431 9.18462 18.2843 9.10362 18.2591 9.14862C18.2339 9.18462 18.2591 9.20262 18.3095 9.20262C18.2759 9.20262 18.2255 9.20262 18.2339 9.23862C18.2507 9.30162 18.3011 9.22961 18.3263 9.24761C18.3095 9.24761 18.2759 9.25662 18.2759 9.27462C18.2759 9.29262 18.3179 9.31962 18.3599 9.27462C18.3843 9.25581 18.4139 9.2463 18.4439 9.24761V9.24761Z" fill="#F9DD16" stroke="black" stroke-width="0.0188388"/>
<path d="M18.534 8.9881C18.5004 8.9701 18.4584 8.96109 18.4164 8.97009M17.946 8.97009C17.9124 9.0421 17.9292 9.0781 17.9376 9.1141M17.6016 8.61009C17.6184 8.62809 17.6352 8.5921 17.6688 8.6281C17.6604 8.6191 17.6436 8.6551 17.6184 8.6281M17.7864 8.61909C17.7612 8.61909 17.7444 8.5921 17.7108 8.6281C17.7192 8.6191 17.736 8.6551 17.7612 8.6281M17.7108 8.6281V8.65509C17.7192 8.71809 17.736 8.74509 17.6856 8.74509C17.6436 8.74509 17.6604 8.71809 17.6688 8.65509V8.6281" stroke="black" stroke-width="0.0188388"/>
<path d="M17.6944 8.85333C17.728 8.85333 17.7448 8.85333 17.7448 8.79933C17.7448 8.78133 17.77 8.77233 17.7532 8.73633C17.77 8.77233 17.6944 8.77233 17.6944 8.75433C17.6944 8.77233 17.6104 8.77233 17.6272 8.73633C17.6188 8.77233 17.644 8.78133 17.6356 8.79933C17.6356 8.85333 17.6524 8.85333 17.6944 8.85333V8.85333Z" fill="#FF0016" stroke="black" stroke-width="0.0188388"/>
<path d="M17.6543 8.74575L17.5703 8.71875ZM17.6543 8.74575H17.5703ZM17.6543 8.75475L17.5787 8.78175ZM17.7215 8.74575L17.8055 8.71875ZM17.7215 8.74575H17.8223ZM17.7215 8.75475L17.8055 8.78175Z" fill="black"/>
<path d="M17.6543 8.74575L17.5703 8.71875M17.6543 8.74575H17.5703M17.6543 8.75475L17.5787 8.78175M17.7215 8.74575L17.8055 8.71875M17.7215 8.74575H17.8223M17.7215 8.75475L17.8055 8.78175" stroke="black" stroke-width="0.0188388"/>
<path d="M16.9794 8.51953H17.0394H16.9794ZM16.9794 8.57953H16.8594H16.9794ZM16.9794 8.69953H16.8594H16.9194H16.9794ZM16.9794 9.05953C16.9794 8.99953 16.9194 9.05953 16.9194 9.05953H16.9794ZM16.9794 9.05953C16.9794 9.05953 16.9194 9.17953 16.9794 9.17953V9.11953V9.05953ZM17.9994 9.23953C17.9994 9.23953 17.8794 9.29953 17.9394 9.35953V9.23953H17.9994ZM17.9994 9.29953V9.41953V9.35953V9.29953ZM17.9994 9.17953L17.9394 9.23953H17.9994V9.17953ZM18.6594 9.29953V9.35953V9.29953ZM18.6594 9.23953C18.6594 9.23953 18.5994 9.23953 18.6594 9.23953V9.23953ZM18.6594 9.35953V9.41953H18.7194V9.35953H18.6594ZM17.4594 8.87953V9.05953V8.87953Z" fill="#0051BA"/>
</g>
</g>
<defs>
<filter id="filter0_d_336_28033" x="0" y="-2" width="36" height="36" filterUnits="userSpaceOnUse" color-interpolation-filters="sRGB">
<feFlood flood-opacity="0" result="BackgroundImageFix"/>
<feColorMatrix in="SourceAlpha" type="matrix" values="0 0 0 0 0 0 0 0 0 0 0 0 0 0 0 0 0 0 127 0" result="hardAlpha"/>
<feOffset dy="4"/>
<feGaussianBlur stdDeviation="3"/>
<feComposite in2="hardAlpha" operator="out"/>
<feColorMatrix type="matrix" values="0 0 0 0 0 0 0 0 0 0 0 0 0 0 0 0 0 0 0.16 0"/>
<feBlend mode="normal" in2="BackgroundImageFix" result="effect1_dropShadow_336_28033"/>
<feBlend mode="normal" in="SourceGraphic" in2="effect1_dropShadow_336_28033" result="shape"/>
</filter>
<clipPath id="clip0_336_28033">
<rect width="24" height="18" fill="white" transform="translate(6 3)"/>
</clipPath>
</defs>
</svg>
