<svg width="36" height="31" viewBox="0 0 36 31" fill="none" xmlns="http://www.w3.org/2000/svg">
<g filter="url(#filter0_d_336_28330)">
<g clip-path="url(#clip0_336_28330)">
<path fill-rule="evenodd" clip-rule="evenodd" d="M6 3H30V21H6V3Z" fill="#F41408"/>
<path fill-rule="evenodd" clip-rule="evenodd" d="M6 15H30V21H6V15Z" fill="#21873B"/>
<path fill-rule="evenodd" clip-rule="evenodd" d="M6 3H30V9H6V3Z" fill="black"/>
<path fill-rule="evenodd" clip-rule="evenodd" d="M14.2695 8.28789C15.1058 6.44289 17.4382 5.55789 19.4745 6.31914C19.9524 6.48115 20.392 6.73945 20.7661 7.07807C21.1402 7.4167 21.4408 7.82846 21.6495 8.28789H14.2695ZM13.2945 8.52789C12.6328 8.48284 11.9757 8.38503 11.3295 8.23539C11.1758 8.18664 11.1683 8.10039 11.187 8.03664C11.2058 7.97289 11.3033 7.90164 11.4195 7.92414C11.6295 7.97664 12.4995 8.18664 13.2945 8.52789V8.52789ZM17.967 5.30664C17.8095 4.51914 17.772 3.65664 17.787 3.50664C17.802 3.36039 17.8882 3.33789 17.9632 3.33789C18.0382 3.33789 18.1395 3.40539 18.1395 3.51414C18.1395 3.71289 18.1357 4.52664 17.967 5.31414V5.30664ZM18.402 5.32539C18.3398 4.72467 18.336 4.11934 18.3907 3.51789C18.4207 3.37164 18.5107 3.35289 18.582 3.36039C18.657 3.36414 18.7508 3.43914 18.7395 3.54789C18.7208 3.74664 18.642 4.55664 18.402 5.32539ZM18.792 5.37414C18.7845 4.57539 18.9045 3.71289 18.9458 3.57414C18.987 3.42789 19.0808 3.41664 19.152 3.42789C19.227 3.43914 19.3132 3.52164 19.2945 3.62664C19.257 3.82539 19.0995 4.62414 18.792 5.37414V5.37414ZM19.2045 5.45664C19.272 4.66164 19.4782 3.81414 19.5345 3.67539C19.5907 3.53664 19.6845 3.53289 19.752 3.54789C19.827 3.56664 19.902 3.65289 19.8757 3.75789C19.8157 3.94914 19.587 4.73289 19.2083 5.45664H19.2045ZM19.6132 5.57664C19.7595 4.78914 20.0445 3.96039 20.112 3.82539C20.1832 3.69414 20.2732 3.69414 20.3445 3.71664C20.412 3.73914 20.4833 3.83664 20.4458 3.93414C20.2199 4.50632 19.9412 5.05619 19.6132 5.57664V5.57664ZM19.992 5.71914C20.2095 4.94289 20.5732 4.14414 20.6557 4.01289C20.7382 3.88539 20.8283 3.89664 20.8958 3.92664C20.9633 3.95289 21.0232 4.05414 20.9745 4.15164C20.8807 4.33164 20.5057 5.06664 19.992 5.71914ZM20.367 5.89539C20.59 5.3221 20.8662 4.77095 21.192 4.24914C21.282 4.12914 21.3758 4.14789 21.4395 4.18164C21.4584 4.19282 21.4748 4.20765 21.4879 4.22526C21.501 4.24287 21.5104 4.26291 21.5156 4.28421C21.5209 4.30551 21.5218 4.32764 21.5184 4.3493C21.515 4.37097 21.5073 4.39174 21.4958 4.41039C21.3833 4.58289 20.937 5.28789 20.367 5.89539ZM20.7195 6.10164C21.0832 5.37414 21.5933 4.63914 21.6983 4.52664C21.8033 4.41414 21.8932 4.44039 21.9532 4.47789C21.9711 4.49056 21.9863 4.50667 21.9979 4.52528C22.0095 4.54389 22.0173 4.56463 22.0208 4.58627C22.0243 4.60792 22.0234 4.63004 22.0183 4.65135C22.0131 4.67267 22.0038 4.69274 21.9907 4.71039C21.8595 4.87539 21.3457 5.53914 20.7157 6.09789L20.7195 6.10164ZM21.0495 6.33414C21.4845 5.63664 22.062 4.94664 22.1782 4.84539C22.2907 4.74039 22.3807 4.77039 22.437 4.81539C22.4534 4.82966 22.4668 4.84711 22.4762 4.86667C22.4857 4.88624 22.4912 4.90752 22.4922 4.92924C22.4933 4.95096 22.4899 4.97267 22.4824 4.99306C22.4748 5.01345 22.4632 5.0321 22.4483 5.04789C22.3058 5.20164 21.732 5.82414 21.0495 6.33414ZM21.3608 6.59289C21.7412 6.09134 22.1654 5.62452 22.6282 5.19789C22.752 5.10414 22.8345 5.14164 22.887 5.18664C22.9025 5.20249 22.9147 5.22139 22.9226 5.24213C22.9305 5.26288 22.934 5.28504 22.9329 5.30722C22.9319 5.3294 22.9263 5.35112 22.9164 5.37103C22.9066 5.39093 22.8927 5.40859 22.8758 5.42289C22.722 5.56539 22.0883 6.13914 21.3608 6.59289ZM21.6458 6.87414C22.0707 6.40393 22.5377 5.97341 23.0407 5.58789C23.1757 5.50164 23.2545 5.54664 23.3032 5.59914C23.3482 5.64789 23.3595 5.76414 23.2657 5.83164C22.7559 6.22393 22.214 6.57266 21.6458 6.87414V6.87414ZM21.8895 7.16664C22.3584 6.73018 22.864 6.33496 23.4008 5.98539C23.5395 5.91039 23.6145 5.96289 23.6557 6.01914C23.7007 6.07164 23.697 6.18789 23.6032 6.24789C23.4232 6.36039 22.692 6.83289 21.8895 7.16664V7.16664ZM22.1108 7.47789C22.6179 7.08221 23.1573 6.72973 23.7233 6.42414C23.8733 6.36039 23.9445 6.41664 23.982 6.47289C24.0195 6.53289 24.0045 6.64539 23.907 6.69789C23.3292 7.00646 22.7272 7.26733 22.107 7.47789H22.1108ZM22.3133 7.83789C22.8595 7.48593 23.4339 7.17989 24.0307 6.92289C24.1845 6.87039 24.2482 6.93414 24.2782 6.99414C24.312 7.05414 24.2895 7.16664 24.1807 7.21164C23.982 7.29414 23.1682 7.63914 22.3133 7.83789ZM22.4708 8.18289C23.0485 7.8742 23.6505 7.61333 24.2708 7.40289C24.4283 7.36539 24.4845 7.43289 24.5108 7.49664C24.5333 7.55664 24.4995 7.66914 24.3907 7.70289C24.1845 7.77414 23.3408 8.05164 22.4708 8.18289ZM22.5983 8.55039C23.2026 8.28896 23.8271 8.07702 24.4657 7.91664C24.6232 7.89414 24.6757 7.96164 24.6945 8.02914C24.7132 8.09289 24.6682 8.19789 24.5557 8.22789C24.342 8.27664 23.4758 8.49039 22.5983 8.55039V8.55039ZM17.5432 5.32539C17.3654 4.74591 17.2436 4.15067 17.1795 3.54789C17.1795 3.40164 17.2657 3.36789 17.337 3.36039C17.412 3.35664 17.5245 3.41664 17.532 3.52164C17.5507 3.72039 17.6295 4.53039 17.547 5.32539H17.5432ZM17.1307 5.37414C16.8962 4.81283 16.7166 4.23011 16.5945 3.63414C16.5795 3.48414 16.662 3.44664 16.7333 3.43539C16.8083 3.42414 16.9207 3.47289 16.9432 3.57789C17.0606 4.16965 17.1233 4.77092 17.1307 5.37414V5.37414ZM16.7182 5.45664C16.4303 4.91517 16.1942 4.34763 16.0132 3.76164C15.9832 3.61539 16.062 3.57039 16.1333 3.55164C16.2045 3.53664 16.3208 3.57414 16.3545 3.67914C16.4108 3.87039 16.6433 4.65414 16.7145 5.45289L16.7182 5.45664ZM16.3245 5.56914C15.9894 5.05314 15.7032 4.50703 15.4695 3.93789C15.4283 3.79539 15.4995 3.74289 15.567 3.72039C15.6383 3.69789 15.7582 3.72789 15.7995 3.82539C15.8745 4.01289 16.182 4.77789 16.3245 5.56539V5.56914ZM15.9458 5.70039C15.5614 5.2137 15.2224 4.69276 14.9333 4.14414C14.8808 4.00539 14.9482 3.94539 15.0157 3.91914C15.0832 3.88914 15.2033 3.91164 15.2558 4.00914C15.3495 4.18914 15.7245 4.92789 15.9458 5.70039ZM15.5595 5.88789C15.1283 5.43411 14.7392 4.94209 14.397 4.41789C14.3333 4.28664 14.3933 4.22289 14.457 4.18914C14.5208 4.15539 14.6445 4.16664 14.7045 4.26039C14.817 4.43289 15.267 5.13414 15.5595 5.88789ZM15.207 6.09039C14.736 5.6707 14.3031 5.21015 13.9133 4.71414C13.8345 4.58664 13.887 4.51914 13.9508 4.47789C14.007 4.44039 14.1383 4.44039 14.202 4.53039C14.3295 4.69164 14.8433 5.35539 15.207 6.08664V6.09039ZM14.8808 6.31539C14.371 5.93375 13.8954 5.50838 13.4595 5.04414C13.3695 4.92414 13.4183 4.85664 13.4745 4.81164C13.5141 4.78708 13.5609 4.77667 13.6072 4.78212C13.6535 4.78757 13.6966 4.80855 13.7295 4.84164C13.872 4.99164 14.4495 5.61789 14.8808 6.31539ZM14.562 6.57789C14.0175 6.23882 13.5031 5.85366 13.0245 5.42664C12.9195 5.31414 12.9608 5.23914 13.0133 5.19039C13.0512 5.16243 13.0975 5.14829 13.1446 5.15034C13.1917 5.15238 13.2366 5.17049 13.272 5.20164C13.4295 5.34039 14.0595 5.91414 14.562 6.57414V6.57789ZM14.2845 6.84039C13.7104 6.54453 13.1622 6.20081 12.6458 5.81289C12.5333 5.70789 12.567 5.63289 12.6158 5.58039C12.6608 5.52789 12.7845 5.50164 12.8745 5.56914C13.3806 5.95246 13.8523 6.37907 14.2845 6.84414V6.84039ZM14.022 7.14789C13.4208 6.89893 12.8413 6.6004 12.2895 6.25539C12.1658 6.16164 12.192 6.07914 12.2333 6.02664C12.2745 5.97039 12.3945 5.93289 12.492 5.99289C12.672 6.10914 13.4033 6.57414 14.022 7.14789ZM13.7858 7.47789C12.9533 7.21539 12.102 6.81789 11.9708 6.73164C11.8358 6.64914 11.8583 6.56664 11.892 6.50664C11.9258 6.44664 12.042 6.40164 12.147 6.45414C12.3345 6.55539 13.1145 6.96039 13.7858 7.47789V7.47789ZM13.587 7.81539C12.732 7.61664 11.8508 7.29039 11.7083 7.21539C11.5695 7.14039 11.577 7.05789 11.6108 6.99789C11.6408 6.93789 11.7495 6.88164 11.8583 6.92289C12.057 7.00914 12.8708 7.35039 13.587 7.81539ZM13.4295 8.15289C12.7758 8.05238 12.1312 7.89939 11.502 7.69539C11.352 7.63539 11.3595 7.54914 11.382 7.48914C11.4083 7.42539 11.5133 7.36164 11.622 7.39539C11.832 7.46664 12.672 7.74414 13.4295 8.15289Z" fill="#F31509"/>
<path fill-rule="evenodd" clip-rule="evenodd" d="M13.2945 8.52792C12.6328 8.48285 11.9757 8.38504 11.3295 8.23542C11.1758 8.18667 11.1683 8.10042 11.187 8.03667C11.2058 7.97292 11.3033 7.90167 11.4195 7.92417C11.6295 7.97667 12.4995 8.18667 13.2945 8.52792V8.52792Z" fill="#F31509"/>
<path fill-rule="evenodd" clip-rule="evenodd" d="M10.8516 8.30664H25.1466V8.77914H10.8516V8.30664Z" fill="black"/>
</g>
</g>
<defs>
<filter id="filter0_d_336_28330" x="0" y="-2" width="36" height="36" filterUnits="userSpaceOnUse" color-interpolation-filters="sRGB">
<feFlood flood-opacity="0" result="BackgroundImageFix"/>
<feColorMatrix in="SourceAlpha" type="matrix" values="0 0 0 0 0 0 0 0 0 0 0 0 0 0 0 0 0 0 127 0" result="hardAlpha"/>
<feOffset dy="4"/>
<feGaussianBlur stdDeviation="3"/>
<feComposite in2="hardAlpha" operator="out"/>
<feColorMatrix type="matrix" values="0 0 0 0 0 0 0 0 0 0 0 0 0 0 0 0 0 0 0.16 0"/>
<feBlend mode="normal" in2="BackgroundImageFix" result="effect1_dropShadow_336_28330"/>
<feBlend mode="normal" in="SourceGraphic" in2="effect1_dropShadow_336_28330" result="shape"/>
</filter>
<clipPath id="clip0_336_28330">
<rect width="24" height="18" fill="white" transform="translate(6 3)"/>
</clipPath>
</defs>
</svg>
