<svg width="36" height="31" viewBox="0 0 36 31" fill="none" xmlns="http://www.w3.org/2000/svg">
<g filter="url(#filter0_d_336_26235)">
<g clip-path="url(#clip0_336_26235)">
<path d="M6 3H30V21H6V3Z" fill="#003399"/>
<path d="M17.9971 5.86328L17.7305 6.75217L18.1749 6.84106L17.9971 5.86328Z" fill="#FFCC00"/>
<path d="M17.999 5.86328L18.2656 6.75217L17.8212 6.84106L17.999 5.86328Z" fill="#FFCC00"/>
<path d="M18.8441 6.47822L17.9163 6.49929L17.9691 6.94945L18.8441 6.47822Z" fill="#FFCC00"/>
<path d="M18.8434 6.47881L18.0804 7.0071L17.8585 6.61188L18.8434 6.47881Z" fill="#FFCC00"/>
<path d="M18.5225 7.4712L18.2158 6.59533L17.804 6.78465L18.5225 7.4712Z" fill="#FFCC00"/>
<path d="M18.5204 7.47021L17.7822 6.90783L18.0895 6.57468L18.5204 7.47021Z" fill="#FFCC00"/>
<path d="M17.152 6.47822L18.0798 6.49929L18.027 6.94945L17.152 6.47822Z" fill="#FFCC00"/>
<path d="M17.1527 6.47881L17.9157 7.0071L18.1376 6.61188L17.1527 6.47881Z" fill="#FFCC00"/>
<path d="M17.4736 7.4712L17.7803 6.59533L18.1921 6.78465L17.4736 7.4712Z" fill="#FFCC00"/>
<path d="M17.4718 7.47021L18.21 6.90783L17.9027 6.57468L17.4718 7.47021Z" fill="#FFCC00"/>
<path d="M17.9971 16.5293L17.7305 17.4182L18.1749 17.5071L17.9971 16.5293Z" fill="#FFCC00"/>
<path d="M17.999 16.5293L18.2656 17.4182L17.8212 17.5071L17.999 16.5293Z" fill="#FFCC00"/>
<path d="M18.8441 17.1442L17.9163 17.1653L17.9691 17.6155L18.8441 17.1442Z" fill="#FFCC00"/>
<path d="M18.8434 17.1448L18.0804 17.6731L17.8585 17.2779L18.8434 17.1448Z" fill="#FFCC00"/>
<path d="M18.5225 18.1372L18.2158 17.2613L17.804 17.4507L18.5225 18.1372Z" fill="#FFCC00"/>
<path d="M18.5243 18.1362L17.7861 17.5738L18.0934 17.2407L18.5243 18.1362Z" fill="#FFCC00"/>
<path d="M17.152 17.1442L18.0798 17.1653L18.027 17.6155L17.152 17.1442Z" fill="#FFCC00"/>
<path d="M17.1527 17.1448L17.9157 17.6731L18.1376 17.2779L17.1527 17.1448Z" fill="#FFCC00"/>
<path d="M17.4736 18.1372L17.7803 17.2613L18.1921 17.4507L17.4736 18.1372Z" fill="#FFCC00"/>
<path d="M17.4718 18.1362L18.21 17.5738L17.9027 17.2407L17.4718 18.1362Z" fill="#FFCC00"/>
<path d="M12.6651 11.1973L12.3984 12.0862L12.8429 12.175L12.6651 11.1973Z" fill="#FFCC00"/>
<path d="M12.6669 11.1973L12.9336 12.0862L12.4891 12.175L12.6669 11.1973Z" fill="#FFCC00"/>
<path d="M13.5121 11.8122L12.5843 11.8333L12.6371 12.2834L13.5121 11.8122Z" fill="#FFCC00"/>
<path d="M13.5113 11.8128L12.7484 12.3411L12.5265 11.9459L13.5113 11.8128Z" fill="#FFCC00"/>
<path d="M13.1905 12.8052L12.8838 11.9293L12.472 12.1186L13.1905 12.8052Z" fill="#FFCC00"/>
<path d="M13.1923 12.8042L12.4541 12.2418L12.7614 11.9087L13.1923 12.8042Z" fill="#FFCC00"/>
<path d="M11.8199 11.8122L12.7477 11.8333L12.6949 12.2834L11.8199 11.8122Z" fill="#FFCC00"/>
<path d="M11.8207 11.8128L12.5837 12.3411L12.8055 11.9459L11.8207 11.8128Z" fill="#FFCC00"/>
<path d="M12.1415 12.8052L12.4483 11.9293L12.8601 12.1186L12.1415 12.8052Z" fill="#FFCC00"/>
<path d="M12.1397 12.8042L12.8779 12.2418L12.5706 11.9087L12.1397 12.8042Z" fill="#FFCC00"/>
<path d="M14.8741 8.22607L15.6123 7.66369L15.305 7.33054L14.8741 8.22607Z" fill="#FFCC00"/>
<path d="M14.8759 8.22706L15.1826 7.35119L15.5944 7.54051L14.8759 8.22706Z" fill="#FFCC00"/>
<path d="M14.5512 7.23271L15.3141 7.76101L15.536 7.36579L14.5512 7.23271Z" fill="#FFCC00"/>
<path d="M14.5504 7.23213L15.4782 7.2532L15.4254 7.70336L14.5504 7.23213Z" fill="#FFCC00"/>
<path d="M15.3995 6.61719L15.1328 7.50608L15.5773 7.59497L15.3995 6.61719Z" fill="#FFCC00"/>
<path d="M15.3974 6.61719L15.6641 7.50608L15.2196 7.59497L15.3974 6.61719Z" fill="#FFCC00"/>
<path d="M15.9228 8.22607L15.1846 7.66369L15.4919 7.33054L15.9228 8.22607Z" fill="#FFCC00"/>
<path d="M15.921 8.22706L15.6142 7.35119L15.2024 7.54051L15.921 8.22706Z" fill="#FFCC00"/>
<path d="M16.2418 7.23271L15.4788 7.76101L15.257 7.36579L16.2418 7.23271Z" fill="#FFCC00"/>
<path d="M16.2426 7.23213L15.3148 7.2532L15.3676 7.70336L16.2426 7.23213Z" fill="#FFCC00"/>
<path d="M13.9444 10.2036L13.6377 9.32775L13.2259 9.51707L13.9444 10.2036Z" fill="#FFCC00"/>
<path d="M13.9462 10.2046L13.208 9.6422L13.5153 9.30905L13.9462 10.2046Z" fill="#FFCC00"/>
<path d="M12.8975 10.2026L13.6358 9.64025L13.3284 9.3071L12.8975 10.2026Z" fill="#FFCC00"/>
<path d="M12.8993 10.2036L13.2061 9.32775L13.6179 9.51707L12.8993 10.2036Z" fill="#FFCC00"/>
<path d="M12.5746 9.20928L13.3376 9.73757L13.5595 9.34235L12.5746 9.20928Z" fill="#FFCC00"/>
<path d="M12.5738 9.20869L13.5016 9.22976L13.4488 9.67992L12.5738 9.20869Z" fill="#FFCC00"/>
<path d="M14.2692 9.20928L13.5062 9.73757L13.2843 9.34235L14.2692 9.20928Z" fill="#FFCC00"/>
<path d="M14.2699 9.20869L13.3421 9.22976L13.3949 9.67992L14.2699 9.20869Z" fill="#FFCC00"/>
<path d="M13.4208 8.59375L13.6875 9.48264L13.2431 9.57153L13.4208 8.59375Z" fill="#FFCC00"/>
<path d="M13.419 8.59375L13.1523 9.48264L13.5968 9.57153L13.419 8.59375Z" fill="#FFCC00"/>
<path d="M14.266 14.5563L13.3382 14.5774L13.391 15.0276L14.266 14.5563Z" fill="#FFCC00"/>
<path d="M14.2653 14.5569L13.5023 15.0852L13.2804 14.69L14.2653 14.5569Z" fill="#FFCC00"/>
<path d="M13.9444 15.5493L13.6377 14.6735L13.2259 14.8628L13.9444 15.5493Z" fill="#FFCC00"/>
<path d="M13.9462 15.5483L13.208 14.986L13.5153 14.6528L13.9462 15.5483Z" fill="#FFCC00"/>
<path d="M12.8975 15.5503L13.6358 14.9879L13.3284 14.6548L12.8975 15.5503Z" fill="#FFCC00"/>
<path d="M12.8993 15.5513L13.2061 14.6754L13.6179 14.8647L12.8993 15.5513Z" fill="#FFCC00"/>
<path d="M13.4208 13.9414L13.6875 14.8303L13.2431 14.9192L13.4208 13.9414Z" fill="#FFCC00"/>
<path d="M13.4229 13.9414L13.1562 14.8303L13.6007 14.9192L13.4229 13.9414Z" fill="#FFCC00"/>
<path d="M12.5778 14.5563L13.5055 14.5774L13.4527 15.0276L12.5778 14.5563Z" fill="#FFCC00"/>
<path d="M12.5785 14.5569L13.3415 15.0852L13.5634 14.69L12.5785 14.5569Z" fill="#FFCC00"/>
<path d="M16.1957 16.3454L15.2679 16.3665L15.3207 16.8166L16.1957 16.3454Z" fill="#FFCC00"/>
<path d="M16.1949 16.346L15.432 16.8743L15.2101 16.4791L16.1949 16.346Z" fill="#FFCC00"/>
<path d="M15.8741 17.3384L15.5674 16.4625L15.1556 16.6518L15.8741 17.3384Z" fill="#FFCC00"/>
<path d="M15.8759 17.3394L15.1377 16.777L15.445 16.4438L15.8759 17.3394Z" fill="#FFCC00"/>
<path d="M14.8272 17.3394L15.5654 16.777L15.2581 16.4438L14.8272 17.3394Z" fill="#FFCC00"/>
<path d="M14.829 17.3384L15.1358 16.4625L15.5476 16.6518L14.829 17.3384Z" fill="#FFCC00"/>
<path d="M15.3505 15.7305L15.6172 16.6194L15.1727 16.7082L15.3505 15.7305Z" fill="#FFCC00"/>
<path d="M15.3487 15.7305L15.082 16.6194L15.5265 16.7082L15.3487 15.7305Z" fill="#FFCC00"/>
<path d="M14.5074 16.3454L15.4352 16.3665L15.3824 16.8166L14.5074 16.3454Z" fill="#FFCC00"/>
<path d="M14.5082 16.346L15.2712 16.8743L15.493 16.4791L14.5082 16.346Z" fill="#FFCC00"/>
<path d="M23.3349 11.1973L23.6016 12.0862L23.1571 12.175L23.3349 11.1973Z" fill="#FFCC00"/>
<path d="M23.3331 11.1973L23.0664 12.0862L23.5109 12.175L23.3331 11.1973Z" fill="#FFCC00"/>
<path d="M22.4879 11.8122L23.4157 11.8333L23.3629 12.2834L22.4879 11.8122Z" fill="#FFCC00"/>
<path d="M22.4887 11.8128L23.2516 12.3411L23.4735 11.9459L22.4887 11.8128Z" fill="#FFCC00"/>
<path d="M22.8095 12.8052L23.1162 11.9293L23.528 12.1186L22.8095 12.8052Z" fill="#FFCC00"/>
<path d="M22.8077 12.8042L23.5459 12.2418L23.2386 11.9087L22.8077 12.8042Z" fill="#FFCC00"/>
<path d="M24.1801 11.8122L23.2523 11.8333L23.3051 12.2834L24.1801 11.8122Z" fill="#FFCC00"/>
<path d="M24.1793 11.8128L23.4163 12.3411L23.1945 11.9459L24.1793 11.8128Z" fill="#FFCC00"/>
<path d="M23.8585 12.8052L23.5517 11.9293L23.1399 12.1186L23.8585 12.8052Z" fill="#FFCC00"/>
<path d="M23.8603 12.8042L23.1221 12.2418L23.4294 11.9087L23.8603 12.8042Z" fill="#FFCC00"/>
<path d="M21.1259 8.22607L20.3877 7.66369L20.695 7.33054L21.1259 8.22607Z" fill="#FFCC00"/>
<path d="M21.1241 8.22706L20.8174 7.35119L20.4056 7.54051L21.1241 8.22706Z" fill="#FFCC00"/>
<path d="M21.4488 7.23271L20.6859 7.76101L20.464 7.36579L21.4488 7.23271Z" fill="#FFCC00"/>
<path d="M21.4496 7.23213L20.5218 7.2532L20.5746 7.70336L21.4496 7.23213Z" fill="#FFCC00"/>
<path d="M20.6005 6.61719L20.8672 7.50608L20.4227 7.59497L20.6005 6.61719Z" fill="#FFCC00"/>
<path d="M20.6026 6.61719L20.3359 7.50608L20.7804 7.59497L20.6026 6.61719Z" fill="#FFCC00"/>
<path d="M20.0772 8.22607L20.8154 7.66369L20.5081 7.33054L20.0772 8.22607Z" fill="#FFCC00"/>
<path d="M20.079 8.22706L20.3858 7.35119L20.7976 7.54051L20.079 8.22706Z" fill="#FFCC00"/>
<path d="M19.7543 7.23271L20.5173 7.76101L20.7391 7.36579L19.7543 7.23271Z" fill="#FFCC00"/>
<path d="M19.7535 7.23213L20.6813 7.2532L20.6285 7.70336L19.7535 7.23213Z" fill="#FFCC00"/>
<path d="M22.0556 10.2036L22.3623 9.32775L22.7741 9.51707L22.0556 10.2036Z" fill="#FFCC00"/>
<path d="M22.0538 10.2046L22.792 9.6422L22.4847 9.30905L22.0538 10.2046Z" fill="#FFCC00"/>
<path d="M23.1025 10.2026L22.3642 9.64025L22.6716 9.3071L23.1025 10.2026Z" fill="#FFCC00"/>
<path d="M23.1007 10.2017L22.7939 9.3258L22.3821 9.51512L23.1007 10.2017Z" fill="#FFCC00"/>
<path d="M23.4215 9.20928L22.6585 9.73757L22.4366 9.34235L23.4215 9.20928Z" fill="#FFCC00"/>
<path d="M23.4222 9.20869L22.4945 9.22976L22.5473 9.67992L23.4222 9.20869Z" fill="#FFCC00"/>
<path d="M21.7308 9.20928L22.4938 9.73757L22.7157 9.34235L21.7308 9.20928Z" fill="#FFCC00"/>
<path d="M21.7301 9.20869L22.6579 9.22976L22.6051 9.67992L21.7301 9.20869Z" fill="#FFCC00"/>
<path d="M22.5792 8.59375L22.3125 9.48264L22.7569 9.57153L22.5792 8.59375Z" fill="#FFCC00"/>
<path d="M22.581 8.59375L22.8477 9.48264L22.4032 9.57153L22.581 8.59375Z" fill="#FFCC00"/>
<path d="M21.734 14.5563L22.6618 14.5774L22.609 15.0276L21.734 14.5563Z" fill="#FFCC00"/>
<path d="M21.7347 14.5569L22.4977 15.0852L22.7196 14.69L21.7347 14.5569Z" fill="#FFCC00"/>
<path d="M22.0556 15.5493L22.3623 14.6735L22.7741 14.8628L22.0556 15.5493Z" fill="#FFCC00"/>
<path d="M22.0538 15.5503L22.792 14.9879L22.4847 14.6548L22.0538 15.5503Z" fill="#FFCC00"/>
<path d="M23.1025 15.5503L22.3642 14.9879L22.6716 14.6548L23.1025 15.5503Z" fill="#FFCC00"/>
<path d="M23.1007 15.5493L22.7939 14.6735L22.3821 14.8628L23.1007 15.5493Z" fill="#FFCC00"/>
<path d="M22.5792 13.9414L22.3125 14.8303L22.7569 14.9192L22.5792 13.9414Z" fill="#FFCC00"/>
<path d="M22.581 13.9414L22.8477 14.8303L22.4032 14.9192L22.581 13.9414Z" fill="#FFCC00"/>
<path d="M23.4222 14.5563L22.4945 14.5774L22.5473 15.0276L23.4222 14.5563Z" fill="#FFCC00"/>
<path d="M23.4215 14.5569L22.6585 15.0852L22.4366 14.69L23.4215 14.5569Z" fill="#FFCC00"/>
<path d="M19.8043 16.3454L20.7321 16.3665L20.6793 16.8166L19.8043 16.3454Z" fill="#FFCC00"/>
<path d="M19.8051 16.346L20.568 16.8743L20.7899 16.4791L19.8051 16.346Z" fill="#FFCC00"/>
<path d="M20.1259 17.3384L20.4326 16.4625L20.8444 16.6518L20.1259 17.3384Z" fill="#FFCC00"/>
<path d="M20.1241 17.3394L20.8623 16.777L20.555 16.4438L20.1241 17.3394Z" fill="#FFCC00"/>
<path d="M21.1728 17.3394L20.4346 16.777L20.7419 16.4438L21.1728 17.3394Z" fill="#FFCC00"/>
<path d="M21.171 17.3384L20.8642 16.4625L20.4524 16.6518L21.171 17.3384Z" fill="#FFCC00"/>
<path d="M20.6495 15.7305L20.3828 16.6194L20.8273 16.7082L20.6495 15.7305Z" fill="#FFCC00"/>
<path d="M20.6474 15.7305L20.9141 16.6194L20.4696 16.7082L20.6474 15.7305Z" fill="#FFCC00"/>
<path d="M21.4926 16.3454L20.5648 16.3665L20.6176 16.8166L21.4926 16.3454Z" fill="#FFCC00"/>
<path d="M21.4918 16.346L20.7288 16.8743L20.507 16.4791L21.4918 16.346Z" fill="#FFCC00"/>
</g>
</g>
<defs>
<filter id="filter0_d_336_26235" x="0" y="-2" width="36" height="36" filterUnits="userSpaceOnUse" color-interpolation-filters="sRGB">
<feFlood flood-opacity="0" result="BackgroundImageFix"/>
<feColorMatrix in="SourceAlpha" type="matrix" values="0 0 0 0 0 0 0 0 0 0 0 0 0 0 0 0 0 0 127 0" result="hardAlpha"/>
<feOffset dy="4"/>
<feGaussianBlur stdDeviation="3"/>
<feComposite in2="hardAlpha" operator="out"/>
<feColorMatrix type="matrix" values="0 0 0 0 0 0 0 0 0 0 0 0 0 0 0 0 0 0 0.16 0"/>
<feBlend mode="normal" in2="BackgroundImageFix" result="effect1_dropShadow_336_26235"/>
<feBlend mode="normal" in="SourceGraphic" in2="effect1_dropShadow_336_26235" result="shape"/>
</filter>
<clipPath id="clip0_336_26235">
<rect width="24" height="18" fill="white" transform="translate(6 3)"/>
</clipPath>
</defs>
</svg>
