<svg width="36" height="31" viewBox="0 0 36 31" fill="none" xmlns="http://www.w3.org/2000/svg">
<g filter="url(#filter0_d_336_29240)">
<g clip-path="url(#clip0_336_29240)">
<path d="M6 3H30V21H6V3Z" fill="#009543"/>
<path d="M6 3H30V15H6V3Z" fill="#ED4135"/>
<path d="M6 3H30V9H6V3Z" fill="#0035AD"/>
<path d="M15.0003 17.8991C18.2581 17.8991 20.8991 15.2581 20.8991 12.0003C20.8991 8.74252 18.2581 6.10156 15.0003 6.10156C11.7425 6.10156 9.10156 8.74252 9.10156 12.0003C9.10156 15.2581 11.7425 17.8991 15.0003 17.8991Z" fill="#FAE600" stroke="black" stroke-width="0.442001"/>
<path d="M14 12.8804H15.9987ZM14 11.3991H15.9987ZM15.0012 6.11914V16.1991Z" fill="black"/>
<path d="M14 12.8804H15.9987M14 11.3991H15.9987M15.0012 6.11914V16.1991" stroke="black" stroke-width="0.533737"/>
<path d="M12.6211 17.415C15.0286 18.4013 17.2861 17.4788 17.2861 17.4788C17.2861 17.4788 16.4348 16.5563 15.9998 16.1963C15.5723 15.8438 14.3198 15.8588 13.8923 16.1963C13.4493 16.5819 13.0251 16.9886 12.6211 17.415V17.415Z" fill="black"/>
<path d="M14.9998 15.6778C15.3644 15.6778 15.6598 15.248 15.6598 14.7178C15.6598 14.1876 15.3644 13.7578 14.9998 13.7578C14.6353 13.7578 14.3398 14.1876 14.3398 14.7178C14.3398 15.248 14.6353 15.6778 14.9998 15.6778Z" fill="black"/>
<path d="M15.0019 12.6453C15.443 12.6453 15.8006 12.4187 15.8006 12.1391C15.8006 11.8595 15.443 11.6328 15.0019 11.6328C14.5607 11.6328 14.2031 11.8595 14.2031 12.1391C14.2031 12.4187 14.5607 12.6453 15.0019 12.6453Z" fill="black"/>
<path d="M15.0019 10.5975C15.443 10.5975 15.8006 10.2399 15.8006 9.79875C15.8006 9.35761 15.443 9 15.0019 9C14.5607 9 14.2031 9.35761 14.2031 9.79875C14.2031 10.2399 14.5607 10.5975 15.0019 10.5975Z" fill="black"/>
<path d="M15.9603 6.82211C15.9603 6.82211 16.0278 6.93461 15.8853 7.19711C15.1878 8.45336 14.4866 8.47961 14.3553 8.58836C14.2053 8.70836 14.1453 8.70086 14.1453 8.70086C14.1566 8.59211 14.1641 8.15336 14.1716 8.11211C14.2803 7.52336 15.1653 7.53086 15.8591 6.93086C15.9678 6.83711 15.9603 6.81836 15.9603 6.81836V6.82211ZM13.6203 9.52211C13.6203 9.52211 13.7816 9.97211 13.8003 10.4221C13.8378 11.1421 14.5278 11.1609 15.0003 11.1609V10.7596C14.6441 10.7596 14.3366 10.7071 14.0816 10.1821C13.9474 9.94905 13.7931 9.72821 13.6203 9.52211V9.52211ZM13.6016 15.3196C13.6016 15.3196 13.8528 15.0084 14.1491 14.2809C14.2991 13.9021 14.6666 13.6809 15.0003 13.6809V13.1184C14.2391 13.1184 13.8753 13.3996 13.8378 13.8159C13.7901 14.3215 13.7112 14.8237 13.6016 15.3196V15.3196Z" fill="black"/>
<path d="M16.38 9.52148C16.38 9.52148 16.2187 9.97148 16.2 10.4215C16.1625 11.1415 15.4725 11.1602 15 11.1602V10.7627C15.3562 10.7627 15.6637 10.7102 15.9187 10.1815C16.0537 9.94898 16.2075 9.72773 16.38 9.52148ZM16.3987 15.3227C16.3987 15.3227 16.1475 15.0077 15.8513 14.2802C15.7013 13.9015 15.3337 13.6802 15 13.6802V13.1252C15.7612 13.1252 16.125 13.4065 16.1625 13.8227C16.2104 14.3271 16.2893 14.8281 16.3987 15.3227V15.3227Z" fill="black"/>
</g>
</g>
<defs>
<filter id="filter0_d_336_29240" x="0" y="-2" width="36" height="36" filterUnits="userSpaceOnUse" color-interpolation-filters="sRGB">
<feFlood flood-opacity="0" result="BackgroundImageFix"/>
<feColorMatrix in="SourceAlpha" type="matrix" values="0 0 0 0 0 0 0 0 0 0 0 0 0 0 0 0 0 0 127 0" result="hardAlpha"/>
<feOffset dy="4"/>
<feGaussianBlur stdDeviation="3"/>
<feComposite in2="hardAlpha" operator="out"/>
<feColorMatrix type="matrix" values="0 0 0 0 0 0 0 0 0 0 0 0 0 0 0 0 0 0 0.16 0"/>
<feBlend mode="normal" in2="BackgroundImageFix" result="effect1_dropShadow_336_29240"/>
<feBlend mode="normal" in="SourceGraphic" in2="effect1_dropShadow_336_29240" result="shape"/>
</filter>
<clipPath id="clip0_336_29240">
<rect width="24" height="18" fill="white" transform="translate(6 3)"/>
</clipPath>
</defs>
</svg>
