<svg width="36" height="32" viewBox="0 0 36 32" fill="none" xmlns="http://www.w3.org/2000/svg">
<g filter="url(#filter0_d_336_14415)">
<g clip-path="url(#clip0_336_14415)">
<path d="M6 3H30V21.1132H6V3Z" fill="#FF0000"/>
<path d="M16.2005 6.52148C16.028 6.52148 15.7392 6.57809 15.743 6.71016C15.2555 6.63092 15.2067 6.83092 15.2367 7.01205C15.2817 6.94035 15.338 6.89884 15.383 6.89507C15.4467 6.88375 15.5142 6.90639 15.5855 6.9479C15.6527 6.99032 15.7133 7.04245 15.7655 7.10262C15.593 7.14413 15.458 7.11771 15.323 7.09507C15.2467 7.07871 15.1742 7.04798 15.1092 7.0045C15.053 6.96677 15.0342 6.92903 14.948 6.84224C14.8467 6.73658 14.738 6.76677 14.7717 6.92903C14.8505 7.07997 14.9817 7.1479 15.1467 7.17809C15.2255 7.18941 15.3455 7.21582 15.4805 7.21582C15.6155 7.21582 15.7655 7.19696 15.848 7.21582C15.7992 7.24601 15.743 7.30262 15.6305 7.32148C15.518 7.34413 15.3492 7.25356 15.2442 7.23092C15.2555 7.31771 15.368 7.40073 15.5855 7.44601C15.9455 7.52148 16.2417 7.58186 16.4405 7.6913C16.5976 7.77948 16.7364 7.89736 16.8492 8.03847C17.0255 8.24601 17.0367 8.40828 17.0442 8.44601C17.0817 8.77809 16.9655 8.96677 16.748 9.02714C16.643 9.05356 16.448 9.00073 16.3805 8.91771C16.3055 8.83469 16.2417 8.6913 16.2605 8.46488C16.2792 8.38186 16.3767 8.15167 16.2942 8.10639C15.9032 7.89016 15.4986 7.69982 15.083 7.53658C14.9892 7.49884 14.9142 7.62714 14.8842 7.67997C14.6073 7.64113 14.3425 7.54072 14.109 7.38602C13.8755 7.23132 13.6791 7.02623 13.5342 6.78564C13.3767 6.49884 13.1105 6.78564 13.1555 7.06111C13.2267 7.36299 13.4555 7.58186 13.733 7.74035C14.0142 7.89507 14.3705 8.04979 14.7267 8.04224C14.9217 8.07998 14.918 8.32903 14.6892 8.37809C14.2355 8.37809 13.8717 8.37054 13.5305 8.03847C13.2717 7.80073 13.1292 8.08375 13.2005 8.24224C13.328 8.73658 14.0292 8.8762 14.738 8.71771C15.0155 8.67243 14.8505 8.96677 14.7755 8.97054C14.4755 9.18564 13.9467 9.39318 13.478 8.97054C13.2642 8.8045 13.118 8.94035 13.2005 9.17809C13.4067 9.80073 14.2017 9.66865 14.7455 9.36677C14.8842 9.28752 15.0117 9.46865 14.843 9.60828C14.1642 10.0837 13.8267 10.0913 13.5192 9.91016C13.1367 9.75545 13.1067 10.1819 13.3317 10.3253C13.583 10.4762 14.2242 10.363 14.6967 10.0611C14.8992 9.91016 14.9067 10.1479 14.7792 10.2422C14.2205 10.729 13.9992 10.8573 13.418 10.7781C13.1292 10.7554 13.133 11.1139 13.358 11.2536C13.6692 11.446 14.2767 11.129 14.7455 10.7328C14.9442 10.6271 14.978 10.8007 14.8805 11.0083C14.6729 11.3039 14.3907 11.5383 14.063 11.6875C13.8005 11.7894 13.553 11.7743 13.3767 11.7139C13.1592 11.6385 13.133 11.8649 13.253 12.0687C13.3242 12.1932 13.6205 12.2309 13.943 12.1177C14.2655 12.0045 14.6105 11.7328 14.8467 11.4196C15.053 11.2347 15.0305 11.48 14.933 11.6536C14.4605 12.4083 14.0255 12.6875 13.4517 12.6422C13.2005 12.597 13.1405 12.7932 13.3017 12.9819C13.5867 13.2158 13.9392 13.2083 14.2542 12.9743C14.528 12.7102 15.0567 12.129 15.3342 11.8196C15.5292 11.6649 15.593 11.8196 15.533 12.1366C15.4805 12.3177 15.353 12.5139 14.9967 12.6498C14.753 12.7894 14.9367 12.9819 15.1167 12.9894C15.218 12.9894 15.4205 12.8687 15.578 12.6951C15.7805 12.4611 15.7955 12.3064 15.908 11.9441C16.013 11.7705 16.2042 11.8536 16.2042 12.0347C16.1105 12.397 16.0355 12.4611 15.848 12.6083C15.6717 12.7781 15.9717 12.8347 16.073 12.763C16.3655 12.5668 16.4705 12.3102 16.568 12.0762C16.643 11.9102 16.8455 11.9894 16.748 12.2649C16.523 12.9215 16.148 13.1781 15.4992 13.3139C15.4355 13.3253 15.3942 13.363 15.4167 13.4385L15.6792 13.7026C15.278 13.8234 14.9517 13.8913 14.5467 14.0045L13.9917 13.6347C13.943 13.5139 13.9167 13.3253 13.6242 13.4573C13.4292 13.3668 13.3355 13.4007 13.2267 13.4951C13.3842 13.4951 13.4517 13.5404 13.5155 13.6121C13.598 13.8271 13.7855 13.8498 13.9767 13.7894C14.1005 13.8913 14.1642 13.9743 14.2917 14.08L13.6655 14.0611C13.4405 13.8234 13.268 13.8347 13.1105 14.0234C12.9867 14.0422 12.938 14.0422 12.8555 14.1894C12.983 14.1366 13.0655 14.1215 13.1217 14.1781C13.358 14.3177 13.5117 14.2875 13.628 14.1781L14.2842 14.2196C14.2017 14.2951 14.0892 14.3328 14.003 14.4007C13.6655 14.3026 13.4855 14.4385 13.4255 14.7139C13.3781 14.8244 13.3625 14.946 13.3805 15.0649C13.4105 14.9517 13.4667 14.8573 13.5642 14.8007C13.8642 14.8762 13.9767 14.7517 13.9955 14.5705C14.1455 14.4498 14.363 14.4234 14.5092 14.3026C14.6817 14.3554 14.7642 14.3894 14.9367 14.446C14.9967 14.6347 15.1355 14.7064 15.3605 14.6573C15.623 14.6649 15.578 14.7781 15.6005 14.8649C15.6755 14.7404 15.6717 14.6158 15.5067 14.5026C15.4467 14.3404 15.3117 14.2649 15.1392 14.3592C14.9742 14.3139 14.933 14.246 14.768 14.197C15.1805 14.0649 15.473 14.0347 15.8855 13.9026L16.1742 14.1592C16.2305 14.1932 16.283 14.2007 16.3167 14.1592C16.5755 13.7819 16.6917 13.4536 16.928 13.2045C17.0217 13.0988 17.138 12.963 17.2655 12.929C17.3292 12.9102 17.408 12.9215 17.4605 12.9781C17.5092 13.0309 17.5505 13.1328 17.5355 13.2875C17.5092 13.5026 17.4567 13.5743 17.3967 13.7026C17.333 13.8347 17.2617 13.9139 17.183 14.0158C17.033 14.2158 16.8305 14.3328 16.7105 14.4121C16.4705 14.5668 16.373 14.4988 16.1855 14.4875C15.9455 14.5139 15.8855 14.6309 16.0805 14.7932C16.2605 14.8913 16.4255 14.9026 16.5605 14.8762C16.673 14.8536 16.808 14.7064 16.9055 14.6271C17.0105 14.5026 17.1905 14.6498 17.0667 14.797C16.8455 15.0611 16.628 15.2347 16.3542 15.2309C16.0655 15.2687 16.1217 15.4309 16.3092 15.5102C16.6542 15.6498 16.9617 15.3856 17.1192 15.2083C17.2392 15.0762 17.3255 15.0724 17.3067 15.28C17.183 15.6536 17.0217 15.797 16.7517 15.8158C16.5342 15.7932 16.5305 15.9668 16.6917 16.08C17.0517 16.329 17.3142 15.8988 17.438 15.6422C17.5242 15.4083 17.6592 15.5177 17.6742 15.7102C17.6742 15.9705 17.5617 16.1781 17.2505 16.4422C17.4867 16.8234 17.7642 17.2121 18.0005 17.5932L18.7205 9.51771L18.0005 8.24601C17.9255 8.17809 17.6705 7.8762 17.6067 7.83092C17.5805 7.80828 17.5692 7.79318 17.603 7.77809C17.6367 7.76299 17.7155 7.7479 17.7717 7.74035C17.6217 7.58564 17.4867 7.53658 17.198 7.45356C17.2692 7.42337 17.3367 7.43847 17.5467 7.43092C17.4179 7.2567 17.2422 7.12315 17.0405 7.04601C17.198 6.9328 17.228 6.92526 17.3855 6.79318C17.137 6.77387 16.8917 6.72575 16.6542 6.64979C16.5124 6.58197 16.3603 6.5386 16.2042 6.52148H16.2005ZM16.2305 6.83847C16.373 6.83847 16.4592 6.88752 16.4592 6.9479C16.4592 7.00828 16.373 7.05733 16.2305 7.05733C16.088 7.05733 15.998 7.00073 15.998 6.94413C15.998 6.88375 16.088 6.83847 16.2305 6.83847V6.83847Z" fill="black"/>
<path d="M19.7995 6.52148C19.972 6.52148 20.2608 6.57809 20.257 6.71016C20.7445 6.63092 20.7933 6.83092 20.7633 7.01205C20.7183 6.94035 20.662 6.89884 20.617 6.89507C20.5533 6.88375 20.4858 6.90639 20.4145 6.9479C20.3473 6.99032 20.2867 7.04245 20.2345 7.10262C20.407 7.14413 20.542 7.11771 20.677 7.09507C20.7533 7.07871 20.8258 7.04798 20.8908 7.0045C20.947 6.96677 20.9658 6.92903 21.052 6.84224C21.1533 6.73658 21.262 6.76677 21.2283 6.92903C21.1495 7.07997 21.0183 7.1479 20.8533 7.17809C20.7745 7.18941 20.6545 7.21582 20.5195 7.21582C20.3845 7.21582 20.2345 7.19696 20.152 7.21582C20.2008 7.24601 20.257 7.30262 20.3695 7.32148C20.482 7.34413 20.6508 7.25356 20.7558 7.23092C20.7445 7.31771 20.632 7.40073 20.4145 7.44601C20.0545 7.52148 19.7583 7.58186 19.5595 7.6913C19.4024 7.77948 19.2636 7.89736 19.1508 8.03847C18.9745 8.24601 18.9633 8.40828 18.9558 8.44601C18.9183 8.77809 19.0345 8.96677 19.252 9.02714C19.357 9.05356 19.552 9.00073 19.6195 8.91771C19.6945 8.83469 19.7583 8.6913 19.7395 8.46488C19.7208 8.38186 19.6233 8.15167 19.7058 8.10639C20.0968 7.89016 20.5014 7.69982 20.917 7.53658C21.0108 7.49884 21.0858 7.62714 21.1158 7.67997C21.3927 7.64113 21.6575 7.54072 21.891 7.38602C22.1245 7.23132 22.3209 7.02623 22.4658 6.78564C22.6233 6.49884 22.8895 6.78564 22.8445 7.06111C22.7733 7.36299 22.5445 7.58186 22.267 7.74035C21.9858 7.89507 21.6295 8.04979 21.2733 8.04224C21.0783 8.07998 21.082 8.32903 21.3108 8.37809C21.7645 8.37809 22.1283 8.37054 22.4695 8.03847C22.7283 7.80073 22.8708 8.08375 22.7995 8.24224C22.672 8.73658 21.9708 8.8762 21.262 8.71771C20.9845 8.67243 21.1495 8.96677 21.2245 8.97054C21.5245 9.18564 22.0533 9.39318 22.522 8.97054C22.7358 8.8045 22.882 8.94035 22.7995 9.17809C22.5933 9.80073 21.7983 9.66865 21.2545 9.36677C21.1158 9.28752 20.9883 9.46865 21.157 9.60828C21.8358 10.0837 22.1733 10.0913 22.4808 9.91016C22.8633 9.75545 22.8933 10.1819 22.6683 10.3253C22.417 10.4762 21.7758 10.363 21.3033 10.0611C21.1008 9.91016 21.0933 10.1479 21.2208 10.2422C21.7795 10.729 22.0008 10.8573 22.582 10.7781C22.8708 10.7554 22.867 11.1139 22.642 11.2536C22.3308 11.446 21.7233 11.129 21.2545 10.7328C21.0558 10.6271 21.022 10.8007 21.1195 11.0083C21.3271 11.3039 21.6093 11.5383 21.937 11.6875C22.1995 11.7894 22.447 11.7743 22.6233 11.7139C22.8408 11.6385 22.867 11.8649 22.747 12.0687C22.6758 12.1932 22.3795 12.2309 22.057 12.1177C21.7345 12.0045 21.3895 11.7328 21.1533 11.4196C20.947 11.2347 20.9695 11.48 21.067 11.6536C21.5395 12.4083 21.9745 12.6875 22.5483 12.6422C22.7995 12.597 22.8595 12.7932 22.6983 12.9819C22.4133 13.2158 22.0608 13.2083 21.7458 12.9743C21.472 12.7102 20.9433 12.129 20.6658 11.8196C20.4708 11.6649 20.407 11.8196 20.467 12.1366C20.5195 12.3177 20.647 12.5139 21.0033 12.6498C21.247 12.7894 21.0633 12.9819 20.8833 12.9894C20.782 12.9894 20.5795 12.8687 20.422 12.6951C20.2195 12.4611 20.2045 12.3064 20.092 11.9441C19.987 11.7705 19.7958 11.8536 19.7958 12.0347C19.8895 12.397 19.9645 12.4611 20.152 12.6083C20.3283 12.7781 20.0283 12.8347 19.927 12.763C19.6345 12.5668 19.5295 12.3102 19.432 12.0762C19.357 11.9102 19.1545 11.9894 19.252 12.2649C19.477 12.9215 19.852 13.1781 20.5008 13.3139C20.5645 13.3253 20.6058 13.363 20.5833 13.4385L20.3208 13.7026C20.722 13.8234 21.0483 13.8913 21.4533 14.0045L22.0083 13.6347C22.057 13.5139 22.0833 13.3253 22.3758 13.4573C22.5708 13.3668 22.6645 13.4007 22.7733 13.4951C22.6158 13.4951 22.5483 13.5404 22.4845 13.6121C22.402 13.8271 22.2145 13.8498 22.0233 13.7894C21.8995 13.8913 21.8358 13.9743 21.7083 14.08L22.3345 14.0611C22.5595 13.8234 22.732 13.8347 22.8895 14.0234C23.0133 14.0422 23.062 14.0422 23.1445 14.1894C23.017 14.1366 22.9345 14.1215 22.8783 14.1781C22.642 14.3177 22.4883 14.2875 22.372 14.1781L21.7158 14.2196C21.7983 14.2951 21.9108 14.3328 21.997 14.4007C22.3345 14.3026 22.5145 14.4385 22.5745 14.7139C22.6219 14.8244 22.6375 14.946 22.6195 15.0649C22.5895 14.9517 22.5333 14.8573 22.4358 14.8007C22.1358 14.8762 22.0233 14.7517 22.0045 14.5705C21.8545 14.4498 21.637 14.4234 21.4908 14.3026C21.3183 14.3554 21.2358 14.3894 21.0633 14.446C21.0033 14.6347 20.8645 14.7064 20.6395 14.6573C20.377 14.6649 20.422 14.7781 20.3995 14.8649C20.3245 14.7404 20.3283 14.6158 20.4933 14.5026C20.5533 14.3404 20.6883 14.2649 20.8608 14.3592C21.0258 14.3139 21.067 14.246 21.232 14.197C20.8195 14.0649 20.527 14.0347 20.1145 13.9026L19.8258 14.1592C19.7695 14.1932 19.717 14.2007 19.6833 14.1592C19.4245 13.7819 19.3083 13.4536 19.072 13.2045C18.9783 13.0988 18.862 12.963 18.7345 12.929C18.6708 12.9102 18.592 12.9215 18.5395 12.9781C18.4908 13.0309 18.4495 13.1328 18.4645 13.2875C18.4908 13.5026 18.5433 13.5743 18.6033 13.7026C18.667 13.8347 18.7383 13.9139 18.817 14.0158C18.967 14.2158 19.1695 14.3328 19.2895 14.4121C19.5295 14.5668 19.627 14.4988 19.8145 14.4875C20.0545 14.5139 20.1145 14.6309 19.9195 14.7932C19.7395 14.8913 19.5745 14.9026 19.4395 14.8762C19.327 14.8536 19.192 14.7064 19.0945 14.6271C18.9895 14.5026 18.8095 14.6498 18.9333 14.797C19.1545 15.0611 19.372 15.2347 19.6458 15.2309C19.9345 15.2687 19.8783 15.4309 19.6908 15.5102C19.3458 15.6498 19.0383 15.3856 18.8808 15.2083C18.7608 15.0762 18.6745 15.0724 18.6933 15.28C18.817 15.6536 18.9783 15.797 19.2483 15.8158C19.4658 15.7932 19.4695 15.9668 19.3083 16.08C18.9483 16.329 18.6858 15.8988 18.562 15.6422C18.4758 15.4083 18.3408 15.5177 18.3258 15.7102C18.3258 15.9705 18.4383 16.1781 18.7495 16.4422C18.5133 16.8234 18.2358 17.2121 17.9995 17.5932L17.2795 9.51771L17.9995 8.24601C18.0745 8.17809 18.3295 7.8762 18.3933 7.83092C18.4195 7.80828 18.4308 7.79318 18.397 7.77809C18.3633 7.76299 18.2845 7.7479 18.2283 7.74035C18.3783 7.58564 18.5133 7.53658 18.802 7.45356C18.7308 7.42337 18.6633 7.43847 18.4533 7.43092C18.5821 7.2567 18.7578 7.12315 18.9595 7.04601C18.802 6.9328 18.772 6.92526 18.6145 6.79318C18.863 6.77387 19.1083 6.72575 19.3458 6.64979C19.4876 6.58197 19.6397 6.5386 19.7958 6.52148H19.7995ZM19.7695 6.83847C19.627 6.83847 19.5408 6.88752 19.5408 6.9479C19.5408 7.00828 19.627 7.05733 19.7695 7.05733C19.912 7.05733 20.002 7.00073 20.002 6.94413C20.002 6.88375 19.912 6.83847 19.7695 6.83847V6.83847Z" fill="black"/>
</g>
</g>
<defs>
<filter id="filter0_d_336_14415" x="0" y="-2" width="36" height="36" filterUnits="userSpaceOnUse" color-interpolation-filters="sRGB">
<feFlood flood-opacity="0" result="BackgroundImageFix"/>
<feColorMatrix in="SourceAlpha" type="matrix" values="0 0 0 0 0 0 0 0 0 0 0 0 0 0 0 0 0 0 127 0" result="hardAlpha"/>
<feOffset dy="4"/>
<feGaussianBlur stdDeviation="3"/>
<feComposite in2="hardAlpha" operator="out"/>
<feColorMatrix type="matrix" values="0 0 0 0 0 0 0 0 0 0 0 0 0 0 0 0 0 0 0.16 0"/>
<feBlend mode="normal" in2="BackgroundImageFix" result="effect1_dropShadow_336_14415"/>
<feBlend mode="normal" in="SourceGraphic" in2="effect1_dropShadow_336_14415" result="shape"/>
</filter>
<clipPath id="clip0_336_14415">
<rect width="24" height="18.1132" fill="white" transform="translate(6 3)"/>
</clipPath>
</defs>
</svg>
