<svg width="36" height="31" viewBox="0 0 36 31" fill="none" xmlns="http://www.w3.org/2000/svg">
<g filter="url(#filter0_d_336_32294)">
<g clip-path="url(#clip0_336_32294)">
<path d="M6 3H33V21H6V3Z" fill="#FF0000"/>
<path d="M6 3H19.5V12H6V3Z" fill="#000095"/>
<path d="M11.7734 7.75953L11.6797 8.11953L12.0322 8.21703L11.9647 7.95078L11.7734 7.75953ZM13.5322 7.95078L13.4647 8.21703L13.8172 8.11953L13.7234 7.75953L13.5322 7.95078ZM11.9647 7.05078L11.7734 7.24203L11.8447 7.50078L11.9647 7.05078Z" fill="white"/>
<path d="M11.8447 7.5L11.7734 7.75875L11.9647 7.95L11.8447 7.5Z" fill="white"/>
<path d="M11.7744 7.24023L11.5156 7.49898L11.7744 7.75773L11.8456 7.49898L11.7744 7.24023ZM12.2994 8.28273L12.4906 8.47398L12.7494 8.40273L12.2994 8.28273ZM13.0081 8.47398L13.3681 8.56773L13.4656 8.21523L13.1994 8.28273L13.0081 8.47398Z" fill="white"/>
<path d="M13.2014 8.28297L13.4677 8.21547L13.5352 7.94922L13.2014 8.28297ZM12.0352 8.21547L12.1327 8.56797L12.4927 8.47422L12.3014 8.28297L12.0352 8.21547ZM12.7514 8.40297L13.0102 8.47422L13.2014 8.28297L12.7514 8.40297Z" fill="white"/>
<path d="M12.4897 8.47445L12.7484 8.7332L13.0072 8.47445L12.7484 8.4032L12.4897 8.47445ZM12.0322 6.7832L11.6797 6.8807L11.7734 7.2407L11.9647 7.04945L12.0322 6.7832ZM11.9647 7.94945L12.0322 8.2157L12.2984 8.2832L11.9647 7.94945ZM13.6522 7.49945L13.7234 7.2407L13.5322 7.04945L13.6522 7.49945Z" fill="white"/>
<path d="M12.2986 6.7168L12.0323 6.7843L11.9648 7.05055L12.2986 6.7168ZM13.5323 7.05055L13.4648 6.7843L13.1986 6.7168L13.5323 7.05055ZM13.7236 7.7593L13.9823 7.50055L13.7236 7.2418L13.6523 7.50055L13.7236 7.7593Z" fill="white"/>
<path d="M13.5352 7.04945L13.2014 6.7157L12.7514 6.5957L12.3014 6.7157L11.9677 7.04945L11.8477 7.49945L11.9677 7.94945L12.3014 8.2832L12.7514 8.4032L13.2014 8.2832L13.5352 7.94945L13.6552 7.49945L13.5352 7.04945Z" fill="white"/>
<path d="M13.5352 7.95039L13.7264 7.75914L13.6552 7.50039L13.5352 7.95039ZM13.7264 7.24164L13.8202 6.88164L13.4677 6.78414L13.5352 7.05039L13.7264 7.24164ZM13.4677 6.78414L13.3702 6.43164L13.0102 6.52539L13.2014 6.71664L13.4677 6.78414ZM12.4927 6.52539L12.1327 6.43164L12.0352 6.78414L12.3014 6.71664L12.4927 6.52539ZM12.7514 6.59664L12.4927 6.52539L12.3014 6.71664L12.7514 6.59664Z" fill="white"/>
<path d="M13.0097 6.52438L12.7509 6.26562L12.4922 6.52438L12.7509 6.59563L13.0097 6.52438Z" fill="white"/>
<path d="M13.1994 6.71664L13.0081 6.52539L12.7494 6.59664L13.1994 6.71664ZM12.4906 8.47539L12.1306 8.56914L12.2994 9.19164L12.7494 8.73414L12.4906 8.47539ZM12.2994 9.19164L12.7494 10.8754L13.1994 9.19164L12.7494 8.73414L12.2994 9.19164ZM12.0331 8.21664L11.6806 8.11914L11.5156 8.73414L12.1306 8.56914L12.0331 8.21664Z" fill="white"/>
<path d="M11.5155 8.73297L11.0655 10.4242L12.2992 9.19047L12.1305 8.56797L11.5155 8.73297ZM11.0655 7.94922L9.82422 9.19047L11.5155 8.73297L11.6805 8.11797L11.0655 7.94922Z" fill="white"/>
<path d="M11.7752 7.75836L11.5164 7.49961L11.0664 7.94961L11.6814 8.11836L11.7752 7.75836ZM11.7752 7.24086L11.6814 6.88086L11.0664 7.04961L11.5164 7.49961L11.7752 7.24086Z" fill="white"/>
<path d="M11.0663 7.05078L9.375 7.50078L11.0663 7.95078L11.5163 7.50078L11.0663 7.05078ZM14.4413 7.95078L13.8188 8.11953L13.9838 8.73453L15.675 9.19203L14.4413 7.95078Z" fill="white"/>
<path d="M13.4663 8.21625L13.3687 8.56875L13.9837 8.73375L13.8187 8.11875L13.4663 8.21625ZM13.0087 8.475L12.75 8.73375L13.2 9.19125L13.3687 8.56875L13.0087 8.475ZM13.725 7.75875L13.8187 8.11875L14.4413 7.95L13.9837 7.5L13.725 7.75875Z" fill="white"/>
<path d="M13.1992 9.19063L14.4405 10.4244L13.983 8.73313L13.368 8.56813L13.1992 9.19063ZM13.4655 6.78313L13.818 6.88063L13.983 6.26562L13.368 6.43063L13.4655 6.78313Z" fill="white"/>
<path d="M14.4405 7.04922L15.6742 5.81547L13.983 6.26547L13.818 6.88047L14.4405 7.04922ZM13.983 6.26547L14.4405 4.57422L13.1992 5.81547L13.368 6.43047L13.983 6.26547ZM14.4405 7.94922L16.1242 7.49922L14.4405 7.04922L13.983 7.49922L14.4405 7.94922Z" fill="white"/>
<path d="M13.7252 7.24047L13.9839 7.49922L14.4414 7.04922L13.8189 6.88047L13.7252 7.24047ZM12.3002 5.81547L11.0664 4.57422L11.5164 6.26547L12.1314 6.43047L12.3002 5.81547Z" fill="white"/>
<path d="M12.0331 6.78313L12.1306 6.43063L11.5156 6.26562L11.6806 6.88063L12.0331 6.78313Z" fill="white"/>
<path d="M11.5155 6.26641L9.82422 5.81641L11.0655 7.05016L11.6805 6.88141L11.5155 6.26641ZM13.008 6.52516L13.368 6.43141L13.1992 5.81641L12.7492 6.26641L13.008 6.52516Z" fill="white"/>
<path d="M13.2008 5.81625L12.7508 4.125L12.3008 5.81625L12.7508 6.26625L13.2008 5.81625Z" fill="white"/>
<path d="M12.4928 6.52516L12.7516 6.26641L12.3016 5.81641L12.1328 6.43141L12.4928 6.52516Z" fill="white"/>
<path d="M12.7483 9.41648C13.8066 9.41648 14.6645 8.55855 14.6645 7.50023C14.6645 6.44192 13.8066 5.58398 12.7483 5.58398C11.69 5.58398 10.832 6.44192 10.832 7.50023C10.832 8.55855 11.69 9.41648 12.7483 9.41648Z" fill="#000095"/>
<path d="M12.7498 9.19109C13.6839 9.19109 14.4411 8.4339 14.4411 7.49984C14.4411 6.56579 13.6839 5.80859 12.7498 5.80859C11.8158 5.80859 11.0586 6.56579 11.0586 7.49984C11.0586 8.4339 11.8158 9.19109 12.7498 9.19109Z" fill="white"/>
</g>
</g>
<defs>
<filter id="filter0_d_336_32294" x="0" y="-2" width="36" height="36" filterUnits="userSpaceOnUse" color-interpolation-filters="sRGB">
<feFlood flood-opacity="0" result="BackgroundImageFix"/>
<feColorMatrix in="SourceAlpha" type="matrix" values="0 0 0 0 0 0 0 0 0 0 0 0 0 0 0 0 0 0 127 0" result="hardAlpha"/>
<feOffset dy="4"/>
<feGaussianBlur stdDeviation="3"/>
<feComposite in2="hardAlpha" operator="out"/>
<feColorMatrix type="matrix" values="0 0 0 0 0 0 0 0 0 0 0 0 0 0 0 0 0 0 0.16 0"/>
<feBlend mode="normal" in2="BackgroundImageFix" result="effect1_dropShadow_336_32294"/>
<feBlend mode="normal" in="SourceGraphic" in2="effect1_dropShadow_336_32294" result="shape"/>
</filter>
<clipPath id="clip0_336_32294">
<rect width="24" height="18" fill="white" transform="translate(6 3)"/>
</clipPath>
</defs>
</svg>
