<svg width="36" height="32" viewBox="0 0 36 32" fill="none" xmlns="http://www.w3.org/2000/svg">
<g filter="url(#filter0_d_336_15753)">
<g clip-path="url(#clip0_336_15753)">
<path fill-rule="evenodd" clip-rule="evenodd" d="M6 3H30V12.1925H6V3Z" fill="#FF0000"/>
<path fill-rule="evenodd" clip-rule="evenodd" d="M6 11.9199H30V21.1124H6V11.9199Z" fill="black"/>
<path fill-rule="evenodd" clip-rule="evenodd" d="M14.578 8.59259C20.773 10.2265 16.7905 18.2379 11.9042 14.902L11.5742 15.4152C14.4505 17.4756 17.2967 15.8152 18.0992 13.6643C18.9317 11.4454 17.8142 8.32466 14.6267 8.00391L14.578 8.59259V8.59259Z" fill="#FFEC00"/>
<path fill-rule="evenodd" clip-rule="evenodd" d="M12.3747 15.4828L13.1884 15.8639L12.8059 16.6866L11.9922 16.3017L12.3747 15.4828ZM17.9622 11.7281H18.8622V12.6337H17.9622V11.7281ZM17.5234 10.2602L18.3597 9.93563L18.6859 10.7771L17.8497 11.1054L17.5234 10.2602ZM16.5484 9.16204L17.1897 8.52431L17.8234 9.16582L17.1859 9.80355L16.5484 9.16204ZM15.5659 7.66016L16.4059 7.97714L16.0872 8.82242L15.2472 8.50544L15.5659 7.66016ZM17.8497 13.1885L18.6859 13.5243L18.3484 14.362L17.5159 14.0262L17.8497 13.1885ZM15.2284 15.83L16.0534 15.479L16.4097 16.3092L15.5847 16.6639L15.2284 15.83ZM13.7472 15.9356H14.6472V16.8413H13.7472V15.9356ZM15.2959 11.5583L14.5347 10.9922L13.7734 11.5432L14.0734 10.6753L13.3122 10.1092H14.2309L14.5497 9.25638L14.8422 10.113L15.7684 10.1017L15.0334 10.679L15.2959 11.562V11.5583Z" fill="#FFEC00"/>
<path fill-rule="evenodd" clip-rule="evenodd" d="M18.5981 16.0723C18.5531 16.0874 18.3656 16.5402 18.2344 16.7591L18.3731 16.7968C18.8831 16.9779 19.1381 17.144 19.3556 17.4572C19.4059 17.5065 19.472 17.5362 19.5421 17.541C19.6121 17.5459 19.6816 17.5255 19.7381 17.4836C19.7381 17.4836 19.8431 17.4459 19.9781 17.2949C20.0906 17.1251 20.0606 16.993 19.9256 16.876C19.5131 16.5742 19.0669 16.3477 18.5981 16.0723V16.0723Z" fill="#FFEE00"/>
<path fill-rule="evenodd" clip-rule="evenodd" d="M19.6991 17.068C19.6991 17.1115 19.6819 17.1533 19.6513 17.1841C19.6207 17.2148 19.5792 17.2321 19.5359 17.2321C19.4927 17.2321 19.4512 17.2148 19.4206 17.1841C19.39 17.1533 19.3728 17.1115 19.3728 17.068C19.3728 17.0249 19.3898 16.9837 19.42 16.9532C19.4503 16.9228 19.4913 16.9057 19.5341 16.9057C19.5768 16.9057 19.6178 16.9228 19.6481 16.9532C19.6783 16.9837 19.6953 17.0249 19.6953 17.068H19.6991ZM18.8966 16.5548C18.8966 16.5983 18.8794 16.6401 18.8488 16.6708C18.8182 16.7016 18.7767 16.7189 18.7334 16.7189C18.6902 16.7189 18.6487 16.7016 18.6181 16.6708C18.5875 16.6401 18.5703 16.5983 18.5703 16.5548C18.5703 16.5112 18.5875 16.4695 18.6181 16.4387C18.6487 16.4079 18.6902 16.3906 18.7334 16.3906C18.7767 16.3906 18.8182 16.4079 18.8488 16.4387C18.8794 16.4695 18.8966 16.5112 18.8966 16.5548ZM19.3053 16.8189C19.3053 16.8625 19.2881 16.9042 19.2575 16.935C19.2269 16.9658 19.1855 16.9831 19.1422 16.9831C19.0989 16.9831 19.0574 16.9658 19.0268 16.935C18.9962 16.9042 18.9791 16.8625 18.9791 16.8189C18.9791 16.7754 18.9962 16.7336 19.0268 16.7029C19.0574 16.6721 19.0989 16.6548 19.1422 16.6548C19.1855 16.6548 19.2269 16.6721 19.2575 16.7029C19.2881 16.7336 19.3053 16.7754 19.3053 16.8189V16.8189Z" fill="black"/>
<path fill-rule="evenodd" clip-rule="evenodd" d="M18.1683 16.725C16.5708 15.808 14.8946 14.8194 13.2933 13.9024C12.5921 13.4609 12.5583 12.642 13.0308 12.0194C13.0758 11.9326 13.1358 11.9514 13.1583 12.0005C13.2146 12.3024 13.3833 12.6156 13.5858 12.8118C15.2479 13.8639 16.8943 14.9407 18.5246 16.042C18.3971 16.2609 18.2996 16.5062 18.1683 16.7212V16.725Z" fill="#FFEE00"/>
<path fill-rule="evenodd" clip-rule="evenodd" d="M17.1469 14.5273L17.8144 15.1311L17.2144 15.8028L16.5469 15.199L17.1469 14.5273Z" fill="#FFEC00"/>
<path d="M18.4297 16.1616L13.7422 13.3125M17.8522 15.505L16.2734 14.4748M16.9559 16.0861L15.3472 15.1502" stroke="black" stroke-width="0.252343"/>
</g>
</g>
<defs>
<filter id="filter0_d_336_15753" x="0" y="-2" width="36" height="36" filterUnits="userSpaceOnUse" color-interpolation-filters="sRGB">
<feFlood flood-opacity="0" result="BackgroundImageFix"/>
<feColorMatrix in="SourceAlpha" type="matrix" values="0 0 0 0 0 0 0 0 0 0 0 0 0 0 0 0 0 0 127 0" result="hardAlpha"/>
<feOffset dy="4"/>
<feGaussianBlur stdDeviation="3"/>
<feComposite in2="hardAlpha" operator="out"/>
<feColorMatrix type="matrix" values="0 0 0 0 0 0 0 0 0 0 0 0 0 0 0 0 0 0 0.16 0"/>
<feBlend mode="normal" in2="BackgroundImageFix" result="effect1_dropShadow_336_15753"/>
<feBlend mode="normal" in="SourceGraphic" in2="effect1_dropShadow_336_15753" result="shape"/>
</filter>
<clipPath id="clip0_336_15753">
<rect width="24" height="18.1132" fill="white" transform="translate(6 3)"/>
</clipPath>
</defs>
</svg>
