<svg width="36" height="32" viewBox="0 0 36 32" fill="none" xmlns="http://www.w3.org/2000/svg">
<g filter="url(#filter0_d_336_14498)">
<g clip-path="url(#clip0_336_14498)">
<path d="M6 3H30V21.1132H6V3Z" fill="#D0103A"/>
<path d="M6 3H22.32V21.1132H6V3Z" fill="#FEDF00"/>
<path d="M6 3H13.68V21.1132H6V3Z" fill="#0018A8"/>
<path d="M17.2659 8.1543C17.5547 8.1543 17.6747 8.40335 17.9634 8.40335C18.1397 8.40335 18.2447 8.34675 18.4022 8.25618C18.5109 8.19581 18.5784 8.16184 18.7022 8.16184C18.8297 8.16184 18.9084 8.19958 18.9759 8.31279C19.0134 8.37316 19.0434 8.49769 19.0247 8.56562C19.0024 8.67342 18.9684 8.77845 18.9234 8.87883C18.8972 8.9392 18.8747 8.97316 18.8747 9.03732C18.8747 9.19203 19.0847 9.24486 19.2272 9.24864C19.2572 9.24864 19.5159 9.24864 19.6772 9.09015C19.5909 9.08637 19.4934 9.01467 19.4934 8.92788C19.4934 8.82977 19.5609 8.76562 19.6547 8.73543C19.6734 8.73166 19.7034 8.74675 19.7184 8.73543C19.7447 8.72411 19.7334 8.69769 19.7559 8.6826C19.8009 8.64486 19.8309 8.62222 19.8909 8.62222C19.9284 8.62222 19.9509 8.62599 19.9847 8.64864C19.9997 8.66373 20.0072 8.67882 20.0222 8.67882C20.0672 8.67882 20.0897 8.64864 20.1347 8.64864C20.1648 8.6491 20.1944 8.65686 20.2209 8.67128C20.2434 8.6826 20.2434 8.72788 20.2734 8.72788C20.2884 8.72788 20.3634 8.69392 20.4047 8.69392C20.4872 8.69392 20.5322 8.72411 20.5847 8.78826C20.5997 8.80713 20.6072 8.84109 20.6222 8.84109C20.659 8.84423 20.6945 8.85613 20.7258 8.87582C20.7571 8.8955 20.7833 8.9224 20.8022 8.9543C20.8134 8.96939 20.8284 9.00713 20.8434 9.0109C20.8659 9.02222 20.8809 9.01845 20.9072 9.03732C20.9379 9.05675 20.9635 9.08337 20.9818 9.11491C21.0001 9.14645 21.0105 9.18197 21.0122 9.21845C21.0122 9.24486 21.0009 9.27882 20.9934 9.30147C20.9259 9.54675 20.7572 9.62599 20.5884 9.84109C20.5134 9.93166 20.4572 10.0034 20.4572 10.1203C20.4572 10.1467 20.4947 10.1996 20.5059 10.2222C20.4984 10.1694 20.5247 10.1015 20.5809 10.0977C20.6182 10.0975 20.6543 10.1113 20.682 10.1364C20.7098 10.1616 20.7272 10.1962 20.7309 10.2335C20.7318 10.2567 20.728 10.2798 20.7197 10.3015C20.7651 10.2728 20.8164 10.2548 20.8697 10.2486H20.9409C21.0647 10.2486 21.2034 10.3203 21.2897 10.392C21.3799 10.47 21.4514 10.5676 21.4989 10.6774C21.5463 10.7872 21.5683 10.9064 21.5634 11.026C21.5334 11.2222 21.5522 11.5845 21.0459 11.7279C21.1397 11.7656 21.2034 11.8411 21.2034 11.9241C21.2044 11.9467 21.2009 11.9693 21.1931 11.9905C21.1853 12.0118 21.1734 12.0312 21.158 12.0477C21.1427 12.0643 21.1242 12.0775 21.1036 12.0868C21.0831 12.096 21.0609 12.101 21.0384 12.1015C21.014 12.103 20.9896 12.099 20.9669 12.0899C20.9442 12.0808 20.9238 12.0667 20.9072 12.0486C20.8022 12.1543 20.7834 12.2637 20.7834 12.4147C20.7834 12.5052 20.7984 12.5581 20.8359 12.6411C20.8734 12.7241 20.9034 12.7732 20.9747 12.8335C21.0122 12.7769 21.0534 12.7354 21.1247 12.7354C21.1884 12.7354 21.2447 12.7581 21.2709 12.8184C21.2784 12.8373 21.2709 12.8524 21.2822 12.8713C21.2934 12.8939 21.3122 12.8977 21.3234 12.9203C21.3422 12.9581 21.3234 12.9883 21.3422 13.0222C21.3534 13.0486 21.3759 13.0524 21.3872 13.0751C21.4022 13.1128 21.4059 13.1354 21.4059 13.1769C21.4059 13.2901 21.3047 13.3732 21.1922 13.3732C21.1547 13.3732 21.1397 13.3581 21.1059 13.3618C21.1697 13.426 21.2184 13.4562 21.2672 13.5317C21.3437 13.6464 21.383 13.7822 21.3797 13.9203C21.3827 14.0681 21.3464 14.214 21.2747 14.343C21.2187 14.4725 21.1278 14.5836 21.0122 14.6637C20.8353 14.7933 20.6291 14.8763 20.4122 14.9052C20.2762 14.9332 20.1383 14.9508 19.9997 14.9581L19.4709 14.9883C19.2009 15.0034 19.0134 15.0449 18.8222 15.2373C18.9122 15.3015 18.9722 15.3694 18.9722 15.4788C18.9722 15.592 18.9047 15.6788 18.7959 15.7128C18.7697 15.7203 18.7509 15.7128 18.7247 15.7279C18.6984 15.743 18.6984 15.7769 18.6722 15.792C18.63 15.8198 18.58 15.8331 18.5297 15.8298C18.4852 15.833 18.4406 15.8262 18.3991 15.8098C18.3576 15.7935 18.3202 15.7681 18.2897 15.7354C18.2072 15.8034 18.1772 15.8637 18.0834 15.9203C18.0534 15.9354 18.0384 15.9581 18.0047 15.9581C17.9484 15.9581 17.9222 15.9203 17.8772 15.8901C17.8159 15.8472 17.7605 15.7965 17.7122 15.7392C17.6259 15.7883 17.5772 15.8298 17.4759 15.8298C17.4233 15.8326 17.371 15.8195 17.3259 15.792C17.3034 15.7732 17.2959 15.7467 17.2697 15.7317C17.2434 15.7128 17.2209 15.7203 17.1909 15.7052C17.0784 15.6562 17.0034 15.5732 17.0034 15.4486C17.0034 15.3392 17.0709 15.2713 17.1684 15.2222C16.9809 15.0335 16.7934 15.0034 16.5309 14.9883L16.0059 14.9581C15.8409 14.9467 15.7509 14.9317 15.5934 14.9052C15.4697 14.8864 15.3984 14.8788 15.2859 14.826C14.9034 14.6449 14.6559 14.3996 14.6109 13.9769C14.6034 13.9392 14.6034 13.9203 14.6034 13.8826C14.6034 13.6637 14.6897 13.5279 14.8434 13.3732C14.8059 13.3618 14.7797 13.3732 14.7384 13.3618C14.6447 13.3241 14.5734 13.26 14.5734 13.1543C14.5734 13.1166 14.5734 13.0901 14.5922 13.0562C14.6072 13.0335 14.6297 13.0298 14.6372 13.0034C14.6447 12.9656 14.6372 12.943 14.6522 12.909C14.6634 12.8901 14.6822 12.8864 14.6897 12.8637C14.7272 12.792 14.7647 12.7354 14.8434 12.7354C14.9109 12.7354 14.9559 12.7732 14.9859 12.8298C15.0534 12.7996 15.0684 12.7505 15.1059 12.6901C15.1514 12.6157 15.1796 12.532 15.1887 12.4452C15.1978 12.3583 15.1875 12.2706 15.1584 12.1883C15.1434 12.1317 15.1359 12.0939 15.0909 12.0486C15.0534 12.0864 15.0159 12.1015 14.9634 12.1015C14.8547 12.1015 14.7759 12.0071 14.7759 11.9015C14.7748 11.8644 14.785 11.8279 14.8051 11.7969C14.8252 11.7658 14.8543 11.7418 14.8884 11.7279C14.8284 11.6751 14.7759 11.6713 14.7122 11.6298C14.6147 11.5694 14.5809 11.5015 14.5172 11.4034C14.4722 11.343 14.4609 11.2977 14.4422 11.226C14.4094 11.1316 14.3966 11.0313 14.4047 10.9317C14.4272 10.743 14.4609 10.6298 14.5772 10.4826C14.6447 10.3958 14.6897 10.343 14.7947 10.2977C14.8809 10.26 14.9334 10.2335 15.0272 10.2335L15.1022 10.2373C15.1389 10.2397 15.1747 10.25 15.2072 10.2675C15.2222 10.2751 15.2484 10.3015 15.2484 10.2826C15.2484 10.2637 15.2372 10.2524 15.2372 10.2335C15.2372 10.1581 15.2934 10.0826 15.3722 10.0826C15.4284 10.0826 15.4509 10.1354 15.4809 10.1845C15.4959 10.1543 15.5072 10.1317 15.5072 10.0977C15.5072 9.96939 15.4359 9.90147 15.3572 9.79958C15.1809 9.58071 14.9634 9.47882 14.9634 9.19581C14.9634 9.11279 15.0009 9.05618 15.0759 9.0109C15.0947 8.99958 15.1247 9.0109 15.1434 8.99958C15.1622 8.98826 15.1584 8.96184 15.1697 8.94675C15.1884 8.92033 15.2072 8.90901 15.2297 8.88637C15.2672 8.84864 15.3047 8.86373 15.3459 8.82977C15.3684 8.81467 15.3759 8.79203 15.3909 8.77694C15.4397 8.71656 15.4847 8.68637 15.5634 8.68637C15.6009 8.68637 15.6234 8.68637 15.6572 8.70147L15.6947 8.72033C15.7059 8.71279 15.7247 8.69015 15.7509 8.67882C15.7757 8.66338 15.8043 8.65552 15.8334 8.65618C15.8747 8.65618 15.9009 8.67882 15.9459 8.67882C15.9572 8.67882 15.9609 8.66373 15.9759 8.65618C16.0134 8.62977 16.0322 8.61845 16.0772 8.61845C16.1222 8.61845 16.1447 8.62977 16.1822 8.65618C16.2197 8.67505 16.2197 8.70524 16.2572 8.72411C16.2759 8.73543 16.2947 8.73166 16.3134 8.7392C16.4109 8.77316 16.4822 8.83732 16.4822 8.9392C16.4822 8.99581 16.4709 9.03354 16.4297 9.07128C16.3959 9.09769 16.3659 9.09392 16.3247 9.10901C16.444 9.2059 16.5956 9.25315 16.7484 9.24109C16.9059 9.24109 17.0972 9.17694 17.0972 9.01845C17.0972 8.94298 17.0597 8.90524 17.0297 8.83732C16.9787 8.73812 16.9517 8.62823 16.9509 8.51656C16.9509 8.4109 16.9622 8.34675 17.0222 8.26373C17.0822 8.17694 17.1572 8.1543 17.2659 8.1543V8.1543Z" fill="#C7B37F"/>
<path d="M16.2148 9.00091C16.2213 9.02229 16.2329 9.04174 16.2486 9.05754C16.2643 9.07334 16.2836 9.08499 16.3048 9.09148C16.3348 9.1028 16.4061 9.09903 16.4473 9.03865C16.4848 8.99337 16.4848 8.93299 16.4698 8.88771C16.4574 8.8542 16.4352 8.82526 16.4061 8.80469L16.2148 9.00091Z" stroke="#703D29" stroke-width="0.0583333" stroke-linejoin="round"/>
<path d="M21.0356 11.9095C20.9906 11.8001 20.8743 11.8491 20.8706 11.9095C20.8518 12.0491 20.9718 12.0906 21.0581 12.068C21.078 12.0626 21.0967 12.0531 21.1128 12.0401C21.1289 12.0271 21.1422 12.0109 21.1518 11.9925C21.1743 11.9548 21.1818 11.902 21.1668 11.8529C21.1606 11.8311 21.1504 11.8106 21.1368 11.7925C21.1234 11.7746 21.1069 11.7593 21.0881 11.7473C21.0543 11.7246 21.0168 11.7246 20.9606 11.7246C20.7543 11.7246 20.5706 11.9699 20.5106 12.2303C20.4881 12.3133 20.4618 12.5057 20.4993 12.6831C20.5305 12.8438 20.6074 12.9919 20.7206 13.1095C20.8264 13.2097 20.9533 13.2845 21.0918 13.3284C21.1407 13.3426 21.1923 13.3439 21.2418 13.3322C21.3618 13.3057 21.4181 13.1888 21.3543 13.068C21.3056 12.9737 21.1556 12.9171 21.0843 13.0454C21.0806 13.0567 21.0693 13.0793 21.0693 13.102C21.0693 13.1359 21.0843 13.1774 21.1068 13.1925C21.1631 13.2265 21.2493 13.2152 21.2456 13.1171" stroke="#703D29" stroke-width="0.0583333" stroke-linecap="round"/>
<path d="M20.39 13.3405C20.4541 13.2667 20.5415 13.2174 20.6375 13.2009C20.75 13.1858 20.8475 13.2197 20.945 13.2763C21.0669 13.3325 21.17 13.4229 21.2419 13.5368C21.3137 13.6506 21.3513 13.783 21.35 13.9178C21.35 14.0537 21.3125 14.2009 21.275 14.2726C21.245 14.3367 21.1625 14.6122 20.7013 14.8009C20.435 14.9141 20.0262 14.9367 19.7375 14.9518C19.3475 14.9631 18.9875 14.9782 18.7812 15.2386" stroke="#703D29" stroke-width="0.0666667"/>
<path d="M20.4868 13.7818C20.4756 13.7441 20.4868 13.7026 20.5168 13.6573C20.5618 13.5969 20.6556 13.578 20.7418 13.6195C20.7789 13.6397 20.811 13.6681 20.8356 13.7026L20.8768 13.7629C20.9031 13.8044 20.9143 13.8384 20.9143 13.8573C21.0081 14.1214 20.8618 14.4044 20.6706 14.5214C20.5206 14.612 20.3443 14.6497 20.1306 14.6724C20.0368 14.6875 19.9806 14.6837 19.8868 14.6912H19.5268C19.4369 14.6866 19.3467 14.6866 19.2568 14.6912C19.1481 14.7026 19.0693 14.7063 18.9718 14.7214C18.9118 14.729 18.8443 14.7403 18.7693 14.7592C18.7468 14.7592 18.7243 14.7667 18.7018 14.7743L18.6568 14.7856C18.5218 14.8271 18.3943 14.8761 18.2893 14.9441C18.2593 14.9629 18.2218 14.9818 18.1956 15.0082L18.1468 15.0535C18.0718 15.129 18.0006 15.2044 17.9818 15.3063V15.3667C17.9818 15.4346 18.0343 15.529 18.1843 15.5554M18.3906 9.14029C18.4206 9.19312 18.4393 9.22708 18.4206 9.28746C18.3981 9.35161 18.3531 9.39312 18.2856 9.39312C18.1356 9.39312 18.0493 9.21199 18.1168 9.09878C18.2368 8.89878 18.4656 9.01199 18.6793 9.1101C18.6681 9.06105 18.6493 9.04218 18.6531 8.97803C18.6568 8.81954 18.7731 8.75161 18.8218 8.60067C18.8481 8.51388 18.8593 8.4384 18.7956 8.37425C18.7393 8.3252 18.6756 8.3252 18.6043 8.35161C18.4618 8.40822 18.2856 8.57425 17.9818 8.57803C17.6743 8.57425 17.5018 8.40822 17.3556 8.35161C17.2806 8.3252 17.2206 8.3252 17.1643 8.37803C17.1006 8.4384 17.1118 8.51388 17.1381 8.60444C17.1868 8.74784 17.3031 8.81954 17.3068 8.9818C17.3068 9.04218 17.2918 9.05727 17.2806 9.1101C17.4943 9.01199 17.7306 8.88746 17.8431 9.09878C17.9068 9.21954 17.8243 9.38935 17.6743 9.38935C17.6068 9.38935 17.5618 9.35161 17.5393 9.28746C17.5243 9.23086 17.5393 9.1818 17.5693 9.13652" stroke="#703D29" stroke-width="0.0583333"/>
<path d="M17.7962 9.03516C17.8271 9.05517 17.8518 9.0834 17.8677 9.1167C17.8836 9.15001 17.89 9.18709 17.8862 9.22384C17.8787 9.31818 17.8562 9.34082 17.7812 9.39365M17.8712 9.25025C17.8675 9.30685 17.845 9.34459 17.785 9.36723" stroke="#703D29" stroke-width="0.0583333" stroke-linecap="round"/>
<path d="M16.3753 8.78516L16.4016 8.80402L16.4316 8.83421L16.4503 8.87195L16.4578 8.90214V8.97384L16.4503 9.00402L16.4316 9.02667L16.4091 9.04931L16.3753 9.06818L16.3378 9.07572L16.3003 9.08327L16.2628 9.0644L16.2291 9.04176L16.2103 9.01157L16.1953 8.97384V8.95874L16.3753 8.78516V8.78516Z" fill="#C7B37F"/>
<path d="M16.3184 8.93259C16.3071 8.86844 16.2359 8.85712 16.2059 8.89485C16.1646 8.95146 16.1946 9.0458 16.2809 9.07221C16.3077 9.07768 16.3356 9.07565 16.3613 9.06634C16.3871 9.05703 16.4099 9.04079 16.4271 9.01938C16.4646 8.97033 16.4609 8.91372 16.4459 8.86844C16.4339 8.83469 16.4116 8.80563 16.3821 8.78542C16.2809 8.70995 16.1159 8.72504 16.0596 8.86089C15.9921 9.02693 16.1421 9.15523 16.2846 9.24957C16.4571 9.37033 16.6596 9.39297 16.8096 9.39297C17.1546 9.38919 17.4171 9.22316 17.5859 9.12882C17.6234 9.10617 17.6646 9.10995 17.6871 9.13636C17.6984 9.15165 17.7034 9.17064 17.7013 9.18952C17.6993 9.20841 17.6902 9.22581 17.6759 9.23825" stroke="#703D29" stroke-width="0.0583333" stroke-linecap="round"/>
<path d="M15.2973 13.6113L15.2223 13.6377L15.1473 13.6981L15.1098 13.7472L15.0686 13.8226L15.0498 13.8793L15.0348 13.9472L15.0273 14M15.7398 13.6189L15.7361 13.6868L15.7248 13.7321L15.6873 13.8151L15.6386 13.883L15.5823 13.9283L15.5411 13.9472L15.4811 13.9623" stroke="#703D29" stroke-width="0.0583333"/>
<path d="M17.9869 15.4199C17.9756 15.4841 17.9156 15.5558 17.7881 15.5784L17.7656 15.586" stroke="#703D29" stroke-width="0.0666667"/>
<path d="M21.1559 13.4238C21.2238 13.4897 21.2775 13.5689 21.3137 13.6565C21.3498 13.7442 21.3676 13.8384 21.3659 13.9333C21.3659 14.0691 21.3284 14.2163 21.2909 14.288C21.2609 14.3521 21.1784 14.6276 20.7172 14.8163C20.4067 14.9157 20.083 14.9666 19.7572 14.9672C19.3709 14.9785 19.0147 14.9936 18.8047 15.2427" stroke="#703D29" stroke-width="0.075"/>
<path d="M20.5312 13.6766C20.5613 13.6388 20.6625 13.586 20.7487 13.6351C20.7833 13.6526 20.8129 13.6785 20.835 13.7105" stroke="#703D29" stroke-width="0.05"/>
<path d="M21.0586 13.3325L21.1111 13.3513C21.16 13.366 21.2122 13.366 21.2611 13.3513C21.3661 13.3212 21.4336 13.223 21.3811 13.091C21.365 13.0596 21.3419 13.0325 21.3136 13.0117" stroke="#703D29" stroke-width="0.075"/>
<path d="M15.008 10.5402C14.933 10.5818 14.8842 10.5931 14.828 10.6572C14.7845 10.7381 14.7518 10.8244 14.7305 10.9138M16.4555 8.96289C16.4555 9.03082 16.4105 9.06855 16.343 9.08365" stroke="#703D29" stroke-width="0.0583333" stroke-linecap="round"/>
<path d="M20.8906 10.2461C20.9855 10.248 21.079 10.269 21.1658 10.3078C21.2525 10.3466 21.3306 10.4024 21.3956 10.472C21.4605 10.5416 21.511 10.6236 21.5441 10.7131C21.5772 10.8026 21.5921 10.8979 21.5881 10.9933C21.5881 11.597 21.2169 11.6914 21.0706 11.7329" stroke="#703D29" stroke-width="0.05"/>
<path d="M20.9375 10.2465C21.2412 10.2352 21.5562 10.4616 21.5712 11.0276C21.5825 11.4691 21.2712 11.6691 21.1212 11.7069" stroke="#703D29" stroke-width="0.0583333"/>
<path d="M20.7653 12.3746L20.7691 12.3142L20.7916 12.2199L20.8178 12.1444L20.8516 12.084L20.8891 12.035M21.1816 11.9067V11.9633L21.1628 12.001L21.1366 12.0425L21.1066 12.0652L21.0616 12.084H21.0203L20.9903 12.0802M20.4541 10.0878L20.4653 10.0236L20.4953 9.96327L20.5328 9.90666L20.5928 9.82364L20.6453 9.77081L20.7203 9.68779L20.7953 9.6161L20.8366 9.56704L20.8928 9.49534L20.9453 9.41987L20.9753 9.35572L20.9941 9.2727L20.9978 9.17081L20.9903 9.14062M20.5291 13.9784L20.5891 13.9633L20.6341 13.9406L20.6603 13.9142L20.6791 13.884L20.6903 13.8387V13.8048M14.7578 13.3482H14.8591L14.9191 13.3255M15.1066 11.9482L15.0991 12.001L15.0841 12.0236L15.0691 12.0463L15.0428 12.0652L15.0166 12.0765L14.9791 12.0802H14.9566M15.3278 11.4953L15.3166 11.5746L15.2978 11.6123L15.2678 11.6576L15.2228 11.6916L15.1778 11.7142L15.0916 11.7331M15.6653 10.235L15.6466 10.284L15.6278 10.3218L15.5978 10.3595L15.5603 10.3972L15.5153 10.4161L15.4741 10.4274L15.4516 10.4236M15.4628 10.1897V10.2274" stroke="#703D29" stroke-width="0.05"/>
<path d="M15.5358 11.4531C15.513 11.4755 15.4863 11.4934 15.457 11.506M21.1008 13.1965L21.1195 13.2041C21.172 13.2343 21.277 13.1965 21.247 13.1135" stroke="#703D29" stroke-width="0.05" stroke-linecap="round"/>
<path d="M20.917 12.0425C20.9545 12.0916 21.0258 12.1067 21.082 12.0916C21.102 12.0862 21.1206 12.0767 21.1367 12.0637C21.1529 12.0507 21.1662 12.0345 21.1758 12.0161C21.1983 11.9784 21.2058 11.9255 21.1908 11.8765C21.1834 11.8544 21.172 11.8339 21.157 11.8161C21.1436 11.7949 21.1272 11.7759 21.1083 11.7595L21.0933 11.752M21.3333 13.035C21.3353 13.0263 21.3366 13.0175 21.337 13.0086C21.3373 12.9873 21.3331 12.9662 21.3247 12.9467C21.3163 12.9272 21.3039 12.9097 21.2883 12.8954L21.2583 12.8652M21.2733 12.884C21.2733 12.8161 21.217 12.7633 21.1458 12.752M20.9883 12.8576L20.9395 12.8199C20.8368 12.7107 20.7792 12.5664 20.7783 12.4161C20.7783 12.2576 20.8383 12.0991 20.9133 12.0387M18.7945 15.2274L18.862 15.167L18.907 15.1293L18.9933 15.0765L19.0758 15.0387L19.1358 15.0199L19.2483 14.9972L19.3833 14.9746M18.277 15.7067C18.2064 15.8097 18.1073 15.8898 17.992 15.9369C17.8775 15.8885 17.7788 15.8087 17.707 15.7067" stroke="#703D29" stroke-width="0.05"/>
<path d="M17.7895 15.5508C17.7751 15.6095 17.7468 15.6639 17.707 15.7093" stroke="#703D29" stroke-width="0.05" stroke-linecap="round"/>
<path d="M17.7986 15.4713L17.7836 15.5544M17.6973 15.7166L17.6598 15.7544L17.5961 15.7883L17.5211 15.811M17.3111 9.10152C17.3223 9.07134 17.3298 9.04869 17.3298 9.00341C17.3261 8.84492 17.2098 8.77322 17.1611 8.62605C17.1348 8.53926 17.1236 8.46379 17.1873 8.39964C17.2398 8.34681 17.3073 8.34681 17.3748 8.377C17.5248 8.4336 17.6973 8.59586 18.0011 8.60341C17.6973 8.59586 17.5211 8.4336 17.3786 8.377C17.3036 8.34681 17.2361 8.33926 17.1798 8.39586C17.1161 8.45624 17.1348 8.53926 17.1611 8.62605C17.2098 8.77322 17.3186 8.84492 17.3223 9.00341C17.3223 9.04869 17.3111 9.07134 17.3036 9.10152M17.9973 8.58454C18.2973 8.56945 18.5561 8.36567 18.6386 8.34681C18.7136 8.33171 18.7511 8.33926 18.8073 8.38832C18.7548 8.33926 18.6948 8.34303 18.6198 8.36945C18.4773 8.42605 18.3048 8.58832 17.9973 8.59586M20.9823 12.8562C20.9102 12.8018 20.8516 12.7311 20.8112 12.6499C20.7709 12.5687 20.7498 12.4791 20.7498 12.3883C20.7498 12.2336 20.8136 12.0713 20.8848 12.011M18.2598 15.694C18.2111 15.7694 18.0986 15.8827 17.9748 15.9279C17.8598 15.8785 17.761 15.7974 17.6898 15.694" stroke="#703D29" stroke-width="0.05"/>
<path d="M17.5 9.1772L17.5862 9.12815C17.6237 9.10551 17.6725 9.10928 17.695 9.1357C17.7175 9.16211 17.7212 9.21117 17.6875 9.24136" stroke="#703D29" stroke-width="0.05" stroke-linecap="round"/>
<path d="M17.0514 9.38879C17.2577 9.34351 17.4264 9.25294 17.5539 9.18124M18.7614 15.3775C18.7802 15.3888 18.7914 15.4152 18.7914 15.4152C18.7952 15.4228 18.8027 15.4341 18.8027 15.4454C18.8139 15.502 18.7764 15.536 18.7277 15.5435C18.6639 15.5511 18.6152 15.5133 18.5964 15.468M17.0402 9.37747C17.2464 9.33596 17.4152 9.24162 17.5427 9.16992M21.2027 13.2039C21.1652 13.219 21.1427 13.2152 21.0902 13.1963L21.0227 13.1586C20.8859 13.0802 20.776 12.9617 20.7077 12.819C20.679 12.7642 20.6575 12.7058 20.6439 12.6454C20.6319 12.605 20.6256 12.5631 20.6252 12.5209C20.6211 12.3144 20.6828 12.1121 20.8014 11.9435C20.8427 11.8831 20.8802 11.8492 20.9589 11.8454M15.5702 10.3624C15.6024 10.388 15.6283 10.4207 15.6458 10.458C15.6634 10.4953 15.6721 10.5362 15.6714 10.5775C15.6714 10.6945 15.5739 10.8869 15.3339 10.9548C15.2543 10.9767 15.1693 10.9658 15.0977 10.9246" stroke="#703D29" stroke-width="0.05"/>
<path d="M15.6111 10.7598C15.6523 10.79 15.6711 10.8239 15.6711 10.8843C15.6711 10.922 15.6448 10.9749 15.5998 11.0239C15.5577 11.07 15.5067 11.1072 15.4501 11.1331C15.3934 11.159 15.3321 11.1732 15.2698 11.1749C15.1948 11.1749 15.1198 11.1598 15.0448 11.1107C14.9734 11.0634 14.9225 10.9906 14.9023 10.9069" stroke="#703D29" stroke-width="0.05"/>
<path d="M15.6059 11.0111C15.6547 11.0564 15.6697 11.113 15.6697 11.1847C15.6697 11.2866 15.6284 11.3658 15.5309 11.4488C15.5084 11.4715 15.4859 11.4866 15.4559 11.5054M20.3122 10.6715V10.8035M20.3009 10.6375V10.8262M20.3122 10.23V10.479M20.3009 10.1771V10.513M20.2297 13.6073C20.1909 13.6871 20.1374 13.7588 20.0722 13.8186C20.0097 13.8831 19.9359 13.9355 19.8547 13.9734C19.7765 14.0127 19.6932 14.0406 19.6072 14.0564C19.5236 14.0766 19.4381 14.088 19.3522 14.0903C19.2584 14.0903 19.2059 14.0903 19.1122 14.0828C19.0147 14.0752 18.9622 14.0602 18.8609 14.0526C18.7784 14.0451 18.7334 14.0375 18.6509 14.0413C18.5103 14.0362 18.3701 14.0593 18.2384 14.1092C18.1409 14.1469 18.0247 14.2224 18.0022 14.2526C17.9309 14.1914 17.8497 14.1429 17.7622 14.1092C17.7008 14.0839 17.6366 14.0662 17.5709 14.0564C17.4847 14.0413 17.4397 14.0413 17.3534 14.0413C17.2709 14.0413 17.2259 14.0451 17.1434 14.0526C17.0459 14.0639 16.9934 14.0752 16.8922 14.0828C16.7984 14.0903 16.7459 14.0941 16.6522 14.0903C16.4787 14.0885 16.3074 14.0499 16.1497 13.9771C16.0581 13.9341 15.9764 13.8724 15.9097 13.796M17.4884 15.8111L17.5559 15.8035M18.6922 15.713L18.7597 15.7092L18.8234 15.6828L18.8684 15.6526L18.9322 15.5771L18.9434 15.5545L18.9547 15.4903V15.4602M20.7172 10.3017C20.7434 10.2035 20.7097 10.0979 20.6122 10.1017M15.6622 11.8564C15.6416 11.9297 15.5949 11.9929 15.5309 12.0337M15.6659 10.2715C15.6555 10.3049 15.638 10.3356 15.6147 10.3617C15.5914 10.3877 15.5628 10.4084 15.5309 10.4224C15.4597 10.4526 15.3809 10.4224 15.3359 10.3922" stroke="#703D29" stroke-width="0.05"/>
<path d="M15.1406 10.6384C15.1969 10.6686 15.2569 10.6233 15.2456 10.5479C15.2404 10.526 15.2285 10.5063 15.2118 10.4915C15.195 10.4766 15.1741 10.4673 15.1519 10.4648" stroke="#703D29" stroke-width="0.05" stroke-linecap="round"/>
<path d="M15.3812 13.8161C15.3924 13.8274 15.3962 13.8425 15.4112 13.8463C15.4374 13.8539 15.4562 13.8614 15.4824 13.8274C15.5124 13.7859 15.4937 13.7218 15.4637 13.6803C15.4361 13.6516 15.4001 13.6326 15.361 13.6258C15.322 13.619 15.2818 13.6249 15.2462 13.6425C15.2162 13.6614 15.1824 13.6803 15.1487 13.7256L15.1074 13.7859C15.0812 13.8274 15.0699 13.8614 15.0662 13.8765C14.9912 14.0991 15.0812 14.3293 15.2199 14.469" stroke="#703D29" stroke-width="0.05"/>
<path d="M18.7548 15.3711L18.7811 15.4013L18.7886 15.4352C18.7998 15.4918 18.7623 15.5258 18.7136 15.5334C18.6536 15.5409 18.6086 15.5032 18.5898 15.4579" stroke="#703D29" stroke-width="0.05" stroke-linecap="round"/>
<path d="M20.6005 8.8418C20.6642 8.85138 20.7226 8.88297 20.7657 8.93117C20.8088 8.97937 20.8339 9.04116 20.8367 9.10595C20.8367 9.27199 20.7805 9.33236 20.6942 9.45312C20.6005 9.58142 20.293 9.81538 20.293 10.0833C20.293 10.2456 20.338 10.3475 20.4542 10.4003C20.5292 10.438 20.6155 10.4003 20.6567 10.3626C20.7542 10.272 20.713 10.1173 20.6117 10.0984C20.4917 10.0758 20.4655 10.272 20.5855 10.2607M21.2567 12.8644C21.2507 12.8328 21.2339 12.8042 21.2093 12.7836C21.1847 12.763 21.1537 12.7515 21.1217 12.7512C21.0849 12.7512 21.0496 12.7659 21.0236 12.7921C20.9976 12.8183 20.983 12.8538 20.983 12.8909C20.983 12.9286 20.998 12.9663 21.0205 12.989" stroke="#703D29" stroke-width="0.05"/>
<path d="M20.3934 10.3633C20.3612 10.3889 20.3353 10.4216 20.3177 10.4589C20.3001 10.4962 20.2914 10.5371 20.2921 10.5784C20.2921 10.6954 20.3896 10.8878 20.6296 10.9557C20.7196 10.9821 20.8096 10.9784 20.8621 10.9444M15.0121 10.5557C14.9395 10.579 14.8763 10.6254 14.8321 10.6878C14.7428 10.8303 14.7131 11.0026 14.7496 11.1671C14.7646 11.2424 14.7938 11.3142 14.8359 11.3784C14.8469 11.3947 14.8594 11.4098 14.8734 11.4237L14.9184 11.4614M17.3184 14.9331C17.5021 15.0123 17.6334 15.0727 17.7459 15.2538C17.7763 15.3106 17.7918 15.3743 17.7909 15.4388C17.7909 15.5406 17.7534 15.6538 17.6671 15.7255C17.6332 15.7558 17.5932 15.7782 17.5498 15.7912C17.5064 15.8042 17.4607 15.8076 17.4159 15.801C17.3446 15.7935 17.2771 15.7406 17.2659 15.7029M15.5221 11.4576C15.6234 11.5406 15.6684 11.6161 15.6684 11.7406C15.6706 11.797 15.6579 11.8529 15.6316 11.9027C15.6052 11.9524 15.5661 11.9942 15.5184 12.0237" stroke="#703D29" stroke-width="0.05"/>
<path d="M15.4297 11.9219C15.5797 12.1143 15.6659 12.2275 15.6697 12.454C15.6734 12.669 15.6059 12.8162 15.4822 12.9709" stroke="#703D29" stroke-width="0.05" stroke-linecap="round"/>
<path d="M18.3672 9.38826C18.3946 9.36765 18.4144 9.33844 18.4234 9.30524C18.4422 9.24864 18.4422 9.19958 18.4159 9.1543C18.4534 9.20713 18.4534 9.24864 18.4422 9.30524C18.4384 9.34298 18.4122 9.36184 18.3822 9.39203M20.3134 12.6411V13.2524L20.3097 13.3467C20.3065 13.3682 20.3027 13.3896 20.2984 13.4109" stroke="#703D29" stroke-width="0.05"/>
<path d="M20.2991 12.586V13.337L20.2803 13.4351M20.2991 11.8124V12.3634M20.3103 11.8577V12.303M20.3103 11.2917V11.6238M20.2991 11.2502V11.6653M20.3103 10.9483V11.0804M20.2991 10.9219V11.1106M20.2316 13.5709L20.2166 13.5973C20.1793 13.6782 20.1271 13.7512 20.0628 13.8124C19.9989 13.8759 19.9239 13.9271 19.8416 13.9634C19.7646 14.0024 19.6825 14.0303 19.5978 14.0464C19.4966 14.069 19.4403 14.0766 19.3391 14.0804C19.2453 14.0804 19.1928 14.0804 19.1028 14.0728C19.0016 14.0653 18.9491 14.054 18.8478 14.0426C18.7653 14.0351 18.7203 14.0313 18.6378 14.0313C18.5553 14.0313 18.5066 14.0313 18.4241 14.0464C18.3572 14.0559 18.2917 14.0737 18.2291 14.0992C18.1278 14.1407 18.0153 14.2124 17.9891 14.2426C17.9666 14.2124 17.8503 14.1407 17.7528 14.0992C17.6902 14.0737 17.6247 14.0559 17.5578 14.0464C17.4753 14.0313 17.4266 14.0313 17.3403 14.0313C17.2578 14.0313 17.2128 14.0351 17.1303 14.0426C17.0328 14.054 16.9803 14.0653 16.8791 14.0728C16.7853 14.0804 16.7328 14.0841 16.6428 14.0804C16.468 14.079 16.2955 14.0405 16.1366 13.9672C16.0553 13.9294 15.9815 13.877 15.9191 13.8124C15.8849 13.78 15.8535 13.7446 15.8253 13.7068M15.7503 13.586C15.7565 13.6378 15.752 13.6903 15.7371 13.7403C15.7223 13.7903 15.6974 13.8367 15.6641 13.8766C15.6341 13.9106 15.5666 13.9747 15.4766 13.9747C15.3378 13.9747 15.2966 13.8804 15.2891 13.854" stroke="#703D29" stroke-width="0.05"/>
<path d="M15.5839 13.5254C15.6102 13.5518 15.6327 13.582 15.6552 13.6197C15.6927 13.6877 15.6777 13.8009 15.6514 13.8537C15.6479 13.8589 15.6442 13.864 15.6402 13.8688M14.8789 14.548C14.9652 14.6386 15.0927 14.7367 15.2877 14.816C15.5539 14.9292 15.9664 14.9518 16.2514 14.9669C16.6264 14.9782 16.9752 14.9933 17.1889 15.2311M17.8377 15.0801C17.9065 15.1333 17.9586 15.2054 17.9877 15.2877M17.7139 15.7216C17.7057 15.7309 17.6969 15.7398 17.6877 15.748C17.6542 15.7777 17.6148 15.7998 17.5721 15.8129C17.5294 15.8259 17.4844 15.8295 17.4402 15.8235C17.3652 15.816 17.2977 15.7631 17.2789 15.7254M17.0764 15.616L17.0877 15.6311C17.1375 15.6848 17.206 15.7172 17.2789 15.7216M18.2914 15.7216C18.2182 15.8238 18.1183 15.9035 18.0027 15.9518C17.8881 15.9034 17.7894 15.8237 17.7177 15.7216L17.7064 15.7027M18.2914 15.7178L18.3177 15.7443C18.3516 15.7745 18.3916 15.7969 18.435 15.8099C18.4784 15.823 18.5241 15.8263 18.5689 15.8197C18.5993 15.8162 18.6285 15.8059 18.6545 15.7896C18.6804 15.7732 18.7024 15.7513 18.7189 15.7254L18.7377 15.699" stroke="#703D29" stroke-width="0.05"/>
<path d="M18.7108 15.7031L18.6845 15.7484L18.6433 15.7861L18.5795 15.8126H18.5195" stroke="#703D29" stroke-width="0.05"/>
<path d="M18.8603 15.2753C18.8988 15.3037 18.9298 15.3413 18.9503 15.3848C18.9616 15.4112 18.9653 15.4414 18.9691 15.4716C18.9705 15.5004 18.9663 15.5293 18.9567 15.5565C18.947 15.5837 18.9321 15.6087 18.9128 15.63C18.8869 15.6582 18.8556 15.6807 18.8208 15.6962C18.786 15.7118 18.7484 15.7201 18.7103 15.7206C18.7053 15.7208 18.7003 15.7208 18.6953 15.7206M18.7028 15.7131C18.6663 15.7141 18.63 15.7072 18.5963 15.6929C18.5627 15.6786 18.5325 15.6571 18.5078 15.63M20.8966 13.0678C20.8234 12.9981 20.7626 12.9164 20.7166 12.8263C20.6882 12.7726 20.6667 12.7156 20.6528 12.6565C20.6408 12.616 20.6345 12.5741 20.6341 12.5319C20.6299 12.326 20.6903 12.124 20.8066 11.9546C20.8328 11.9244 20.8591 11.8866 20.8853 11.8716M20.8366 9.0074C20.9303 9.01495 21.0166 9.12061 21.0166 9.22249C21.0166 9.36589 20.9678 9.43004 20.8516 9.57344C20.7541 9.69419 20.4541 9.91306 20.4653 10.1206C20.4653 10.1583 20.4841 10.1961 20.5066 10.2263M20.3866 10.3583C20.4083 10.3802 20.4337 10.3981 20.4616 10.4112C20.4876 10.4215 20.5156 10.4259 20.5435 10.4239C20.5714 10.4219 20.5985 10.4137 20.6228 10.3999M19.8353 8.77344C19.8717 8.79744 19.9003 8.83151 19.9178 8.87155C19.9853 9.04136 19.8353 9.16966 19.6928 9.264C19.599 9.32718 19.4929 9.36963 19.3816 9.38853" stroke="#703D29" stroke-width="0.05"/>
<path d="M19.6722 9.09889C19.6499 9.09825 19.6281 9.09288 19.608 9.08313C19.588 9.07337 19.5702 9.05945 19.5559 9.04228C19.545 9.0314 19.5361 9.01862 19.5297 9.00455M18.9672 9.18945C18.9502 9.17955 18.9349 9.16679 18.9222 9.15172C18.8847 9.11398 18.8659 9.06492 18.8922 8.98568C18.9147 8.91398 19.0309 8.71398 19.0347 8.57436C19.0422 8.36304 18.9597 8.23474 18.8359 8.18945" stroke="#703D29" stroke-width="0.05"/>
<path d="M19.0209 8.5293L19.0172 8.60477L18.9947 8.68779L18.9572 8.80099L18.9197 8.87269L18.8897 8.94439L18.8747 8.99345L18.8672 9.03118L18.8709 9.06515M20.2959 13.8312L20.3184 13.8614C20.3447 13.8991 20.4384 13.9746 20.5247 13.9746C20.6634 13.9746 20.6972 13.8765 20.7009 13.8538C20.7197 13.7444 20.6822 13.718 20.6259 13.684C20.6259 13.684 20.5959 13.6689 20.5547 13.6765" stroke="#703D29" stroke-width="0.05" stroke-linecap="round"/>
<path d="M14.8869 13.3543C14.8415 13.367 14.7935 13.367 14.7481 13.3543C14.6394 13.3203 14.5531 13.2185 14.5981 13.0902M15.1006 11.8902C15.1119 11.9015 15.1156 11.9166 15.1156 11.9279C15.1306 12.0713 15.0106 12.109 14.9281 12.0864C14.8818 12.0714 14.842 12.0408 14.8156 11.9996C14.7995 11.9734 14.7905 11.9435 14.7894 11.9128M15.6144 11.0222C15.6369 11.0411 15.6519 11.06 15.6631 11.0864M15.6219 10.7656C15.6406 10.7807 15.6556 10.7996 15.6631 10.8147" stroke="#703D29" stroke-width="0.05"/>
<path d="M15.6712 10.9441C15.6565 10.9775 15.6362 11.0082 15.6112 11.0347C15.5691 11.0808 15.5182 11.1179 15.4615 11.1438C15.4048 11.1698 15.3435 11.184 15.2812 11.1856C15.2062 11.1856 15.1312 11.1705 15.0562 11.1215C14.9818 11.0724 14.9282 10.997 14.9062 10.9102" stroke="#703D29" stroke-width="0.05" stroke-linecap="round"/>
<path d="M15.5742 10.3711C15.6152 10.4049 15.6463 10.4492 15.6642 10.4994" stroke="#703D29" stroke-width="0.05"/>
<path d="M15.6677 10.668C15.6339 10.7812 15.5364 10.917 15.3452 10.9661C15.2552 10.9887 15.1352 10.9585 15.0977 10.9283" stroke="#703D29" stroke-width="0.05" stroke-linecap="round"/>
<path d="M15 10.6451C15.0112 10.7433 15.075 10.8187 15.2025 10.8187C15.3787 10.8225 15.4875 10.5659 15.33 10.3848" stroke="#703D29" stroke-width="0.05"/>
<path d="M14.6016 11.5094C14.6278 11.5433 14.6578 11.5735 14.6916 11.5999C14.7573 11.6565 14.8339 11.6989 14.9166 11.7244M15.1116 11.7433C15.2691 11.7244 15.3591 11.6037 15.3366 11.4678C15.3253 11.3622 15.2316 11.2792 15.1641 11.2754" stroke="#703D29" stroke-width="0.05" stroke-linecap="round"/>
<path d="M15.3672 10.0977C15.4384 10.0977 15.4797 10.158 15.4759 10.2109" stroke="#703D29" stroke-width="0.05"/>
<path d="M15.3516 9.15234C15.3866 9.24611 15.4529 9.32478 15.5391 9.37499M20.9466 10.5448C21.0103 10.6316 20.9691 10.8089 20.7966 10.8089C20.7627 10.8093 20.7294 10.8008 20.6998 10.7843C20.6702 10.7677 20.6454 10.7437 20.6278 10.7146" stroke="#703D29" stroke-width="0.05" stroke-linecap="round"/>
<path d="M20.3125 9.38086V9.98086" stroke="#703D29" stroke-width="0.05"/>
<path d="M15.1408 10.6352C15.1933 10.673 15.2645 10.6088 15.2345 10.5371C15.2158 10.4918 15.152 10.439 15.0583 10.5032C14.9533 10.5749 14.9833 10.7975 15.1783 10.8013C15.3545 10.8013 15.4633 10.5447 15.3058 10.3635C15.1558 10.1899 14.882 10.2277 14.7058 10.3711C14.57 10.4844 14.4751 10.6396 14.4358 10.8126C14.412 10.9271 14.412 11.0453 14.4358 11.1598C14.4546 11.2606 14.4929 11.3567 14.5483 11.4428L14.597 11.5069C14.627 11.5371 14.6345 11.5522 14.672 11.5824C14.7797 11.6771 14.9191 11.7271 15.062 11.722C15.2345 11.7145 15.3358 11.5937 15.317 11.4466C15.302 11.3032 15.1595 11.2315 15.0658 11.2994C15.002 11.3447 14.9795 11.4843 15.092 11.5183C15.152 11.5371 15.2083 11.4541 15.167 11.405M20.0233 8.69561C20.1245 8.64278 20.2033 8.65033 20.2595 8.73334C20.3136 8.81275 20.3351 8.91008 20.3195 9.00504C20.305 9.09214 20.2581 9.17041 20.1883 9.22391" stroke="#703D29" stroke-width="0.05" stroke-linecap="round"/>
<path d="M20.2656 8.73624C20.3819 8.66077 20.5094 8.69474 20.5769 8.79662C20.6256 8.87209 20.6406 8.93247 20.6369 9.02681C20.6333 9.09814 20.6118 9.16739 20.5744 9.2281C20.5371 9.28881 20.485 9.339 20.4231 9.37398" stroke="#703D29" stroke-width="0.05" stroke-linecap="round"/>
<path d="M20.809 9.00781C20.9065 9.01536 20.9815 9.10215 20.9815 9.20027C20.9815 9.34366 20.944 9.40781 20.8315 9.55121C20.7303 9.67574 20.434 9.89083 20.4415 10.1022C20.4415 10.1814 20.509 10.2531 20.5653 10.2606" stroke="#703D29" stroke-width="0.05"/>
<path d="M20.8258 10.6352C20.7695 10.6729 20.702 10.6125 20.732 10.5446C20.7508 10.4993 20.8145 10.439 20.9083 10.5031C21.0095 10.5748 20.9833 10.7975 20.7845 10.8012C20.6083 10.8012 20.4845 10.5522 20.657 10.3635C20.807 10.1899 21.0958 10.2239 21.2758 10.3673C21.3508 10.4276 21.5045 10.5937 21.5383 10.8201C21.5758 11.0842 21.572 11.4088 21.2983 11.6125C21.1858 11.6918 21.0358 11.7295 20.9008 11.7258C20.7283 11.7182 20.627 11.5937 20.6458 11.4465C20.6645 11.3031 20.7958 11.2427 20.897 11.2993C21.002 11.3559 20.9833 11.5031 20.8708 11.5182C20.807 11.5258 20.7545 11.4541 20.7958 11.405" stroke="#703D29" stroke-width="0.05" stroke-linecap="round"/>
<path d="M20.7305 10.5438C20.7605 10.4117 20.8692 10.4004 20.963 10.4004C21.2067 10.4042 21.3792 10.7023 21.383 10.9853C21.383 11.3438 21.233 11.5589 20.9705 11.5702C20.8992 11.5702 20.783 11.54 20.783 11.457" stroke="#703D29" stroke-width="0.05"/>
<path d="M20.8856 10.4844C21.1444 10.5448 21.2344 10.7787 21.2344 11.0051C21.2344 11.19 21.2156 11.4429 20.8594 11.5297" stroke="#703D29" stroke-width="0.05" stroke-linecap="square"/>
<path d="M21.314 13.0109C21.3182 12.9854 21.3156 12.9592 21.3065 12.935C21.2974 12.9108 21.2821 12.8894 21.2622 12.873C21.2423 12.8567 21.2184 12.8459 21.1931 12.8417C21.1677 12.8376 21.1417 12.8403 21.1176 12.8495C21.0936 12.8587 21.0724 12.8741 21.0562 12.8942C21.04 12.9143 21.0293 12.9383 21.0253 12.9639C21.0212 12.9894 21.0239 13.0156 21.0332 13.0398C21.0424 13.0639 21.0578 13.0852 21.0777 13.1015" stroke="#703D29" stroke-width="0.05"/>
<path d="M20.7892 12.7891C20.8417 12.8645 20.9017 12.9438 21.0254 13.0155M20.9767 13.4117C20.8567 13.3287 20.6204 13.223 20.4142 13.3287C20.3766 13.3431 20.3425 13.3653 20.314 13.3939C20.2856 13.4225 20.2635 13.4569 20.2492 13.4947C20.2294 13.5553 20.2252 13.62 20.237 13.6827C20.2488 13.7454 20.2762 13.8041 20.3167 13.8532C20.3504 13.8909 20.4179 13.9513 20.5042 13.9551C20.6467 13.9551 20.6804 13.857 20.6842 13.8343C20.6992 13.7287 20.6392 13.6872 20.6092 13.6796C20.5829 13.6683 20.5042 13.6721 20.4892 13.7287C20.4817 13.7476 20.4817 13.7777 20.4967 13.8042" stroke="#703D29" stroke-width="0.05" stroke-linecap="round"/>
<path d="M18.7664 15.3932C18.8039 15.4763 18.7589 15.514 18.7064 15.5215C18.6239 15.5329 18.5827 15.4687 18.5789 15.4083C18.5774 15.3859 18.5804 15.3634 18.5878 15.3422C18.5951 15.321 18.6067 15.3015 18.6218 15.2849C18.6369 15.2683 18.6551 15.255 18.6755 15.2457C18.6958 15.2364 18.7178 15.2314 18.7402 15.231C18.8264 15.231 18.8939 15.2876 18.9277 15.363C18.9389 15.3895 18.9464 15.4197 18.9464 15.4536C18.9494 15.5101 18.9306 15.5655 18.8939 15.6083C18.8683 15.6371 18.8372 15.6603 18.8024 15.6766C18.7675 15.6928 18.7298 15.7017 18.6914 15.7027C18.5339 15.7064 18.4102 15.5593 18.4102 15.4083C18.4102 15.1178 18.8377 14.9555 19.0102 14.9178C19.23 14.8634 19.4551 14.833 19.6814 14.8272C19.8127 14.8234 19.9139 14.8272 20.0602 14.8083C20.1914 14.797 20.2627 14.7895 20.3977 14.7593C20.5736 14.7221 20.7366 14.6388 20.8702 14.5178C20.9789 14.4159 21.0389 14.348 21.0914 14.2083C21.1206 14.1224 21.1314 14.0312 21.123 13.9408C21.1146 13.8504 21.0872 13.7628 21.0427 13.6838C21.0014 13.6147 20.9453 13.5558 20.8785 13.5114C20.8116 13.467 20.7357 13.4382 20.6564 13.4272C20.5177 13.4083 20.3939 13.4687 20.3189 13.6083C20.2814 13.6763 20.2964 13.7895 20.3227 13.8423C20.3411 13.8746 20.3672 13.9019 20.3986 13.9216C20.43 13.9413 20.4657 13.953 20.5027 13.9555C20.6452 13.9555 20.6789 13.8574 20.6827 13.8347C20.6977 13.7291 20.6377 13.6876 20.6077 13.6763C20.5814 13.6687 20.5027 13.6725 20.4877 13.7291C20.4802 13.748 20.4802 13.7781 20.4952 13.8046" stroke="#703D29" stroke-width="0.05" stroke-linecap="round"/>
<path d="M18.6444 14.9316C18.4644 15.0109 18.3294 15.0713 18.2169 15.2524C18.1863 15.3091 18.1708 15.3728 18.1719 15.4373C18.1719 15.5392 18.2132 15.6524 18.2957 15.7241C18.3296 15.7543 18.3696 15.7767 18.413 15.7898C18.4564 15.8028 18.5021 15.8061 18.5469 15.7996C18.6219 15.792 18.6857 15.7392 18.6969 15.7015" stroke="#703D29" stroke-width="0.05" stroke-linecap="round"/>
<path d="M20.4395 11.457C20.3532 11.4872 20.2932 11.6155 20.2932 11.7401C20.291 11.7964 20.3037 11.8523 20.33 11.9021C20.3564 11.9518 20.3955 11.9936 20.4432 12.0231" stroke="#703D29" stroke-width="0.05"/>
<path d="M20.533 11.9219C20.383 12.1143 20.2967 12.2275 20.293 12.454C20.293 12.669 20.3567 12.8162 20.4842 12.9709" stroke="#703D29" stroke-width="0.05" stroke-linecap="round"/>
<path d="M19.7188 8.7369L19.73 8.71804C19.7938 8.62747 19.9063 8.60105 19.9888 8.66143C20.0863 8.7369 20.1125 8.86521 20.0863 9.00105C20.0675 9.08407 20.0113 9.15577 19.9363 9.2086" stroke="#703D29" stroke-width="0.05"/>
<path d="M15.9408 8.69013C15.8433 8.64485 15.7645 8.65239 15.7045 8.72786C15.6753 8.76597 15.6549 8.81005 15.6445 8.857C15.6341 8.90395 15.6341 8.95262 15.6445 8.99956C15.667 9.10145 15.697 9.14296 15.7758 9.21843" stroke="#703D29" stroke-width="0.05" stroke-linecap="round"/>
<path d="M15.6971 8.73681C15.673 8.7193 15.6456 8.70694 15.6166 8.70048C15.5876 8.69402 15.5576 8.69361 15.5285 8.69927C15.4993 8.70493 15.4716 8.71653 15.4471 8.73337C15.4226 8.75021 15.4017 8.77193 15.3858 8.79719C15.3392 8.86427 15.3179 8.9459 15.3258 9.02738C15.3333 9.18587 15.4308 9.31417 15.5433 9.37455" stroke="#703D29" stroke-width="0.05"/>
<path d="M15.3617 8.8418C15.3007 8.84906 15.2443 8.87825 15.203 8.92402C15.1616 8.96978 15.1381 9.02902 15.1367 9.09085C15.1367 9.26066 15.1742 9.32859 15.268 9.45312C15.3617 9.58142 15.6692 9.81538 15.6692 10.0833C15.6692 10.2456 15.6242 10.3475 15.508 10.4003C15.433 10.438 15.3467 10.4003 15.3055 10.3626C15.208 10.272 15.2492 10.1173 15.3505 10.0984C15.4742 10.0758 15.4967 10.272 15.3767 10.2607" stroke="#703D29" stroke-width="0.05"/>
<path d="M15.1484 9.00781C15.0547 9.01536 14.9609 9.0946 14.9609 9.19649C14.9609 9.33989 15.0172 9.40781 15.1334 9.55121C15.2309 9.67574 15.5122 9.89083 15.5047 10.0984C15.5047 10.1739 15.4484 10.272 15.3959 10.2606" stroke="#703D29" stroke-width="0.05"/>
<path d="M14.9229 11.9095C14.9716 11.8001 15.0879 11.8491 15.0954 11.9095C15.1104 12.0491 14.9904 12.0906 14.9041 12.068C14.8842 12.0626 14.8656 12.0531 14.8494 12.0401C14.8333 12.0271 14.82 12.0109 14.8104 11.9925C14.7988 11.9714 14.7915 11.9482 14.7889 11.9242C14.7863 11.9003 14.7885 11.876 14.7954 11.8529C14.8028 11.8308 14.8142 11.8103 14.8291 11.7925C14.8415 11.775 14.8567 11.7597 14.8741 11.7473C14.9116 11.7246 14.9454 11.7246 15.0016 11.7246C15.2079 11.7246 15.3916 11.9699 15.4516 12.2303C15.4741 12.3133 15.5004 12.5057 15.4629 12.6831C15.4328 12.8434 15.3573 12.9915 15.2454 13.1095C15.1385 13.2101 15.0102 13.2849 14.8704 13.3284C14.823 13.3436 14.7723 13.3449 14.7241 13.3322C14.6191 13.2982 14.5516 13.2001 14.6041 13.068C14.6491 12.9699 14.8066 12.9171 14.8779 13.0454C14.8854 13.0567 14.8929 13.0793 14.8929 13.102C14.8929 13.1359 14.8779 13.1774 14.8554 13.1925C14.8029 13.2265 14.7166 13.2152 14.7204 13.1171" stroke="#703D29" stroke-width="0.05" stroke-linecap="round"/>
<path d="M14.7672 13.2042C14.8047 13.2193 14.8272 13.2155 14.876 13.1966L14.9435 13.1589C15.041 13.1023 15.1535 13.0155 15.2585 12.8155C15.2868 12.7619 15.3083 12.7048 15.3222 12.6457C15.3335 12.608 15.341 12.5627 15.3447 12.5212C15.3477 12.3143 15.2846 12.1119 15.1647 11.9438C15.1235 11.8834 15.0897 11.8495 15.0072 11.8457M14.651 13.0155C14.6462 12.99 14.6482 12.9636 14.6569 12.9391C14.6655 12.9146 14.6804 12.8929 14.7001 12.8761C14.7198 12.8593 14.7436 12.848 14.769 12.8434C14.7944 12.8389 14.8206 12.8412 14.8448 12.8501C14.8691 12.859 14.8906 12.8742 14.9071 12.8942C14.9236 12.9142 14.9346 12.9382 14.9389 12.9638C14.9432 12.9894 14.9407 13.0157 14.9316 13.0401C14.9225 13.0644 14.9072 13.0859 14.8872 13.1023" stroke="#703D29" stroke-width="0.05"/>
<path d="M14.707 12.8652C14.7132 12.8329 14.7305 12.8038 14.7559 12.7831C14.7813 12.7624 14.8131 12.7514 14.8458 12.752C14.8819 12.753 14.9163 12.7681 14.9415 12.7942C14.9667 12.8203 14.9808 12.8552 14.9808 12.8916C14.9811 12.9279 14.9677 12.963 14.9433 12.9897" stroke="#703D29" stroke-width="0.05"/>
<path d="M14.9766 12.8609C15.0488 12.8064 15.1073 12.7358 15.1477 12.6546C15.1881 12.5733 15.2091 12.4838 15.2091 12.393C15.2091 12.2383 15.1491 12.076 15.0741 12.0156" stroke="#703D29" stroke-width="0.05"/>
<path d="M15.1738 12.7891C15.1165 12.8844 15.035 12.9626 14.9375 13.0155" stroke="#703D29" stroke-width="0.05" stroke-linecap="round"/>
<path d="M15.5472 13.3278C15.5097 13.2448 15.4422 13.207 15.3297 13.1957C15.2172 13.1844 15.1235 13.2146 15.0222 13.2674C14.9006 13.3239 14.7978 13.4145 14.7259 13.5282C14.6541 13.642 14.6164 13.7742 14.6172 13.9089C14.6187 14.0322 14.6442 14.154 14.6922 14.2674C14.726 14.3278 14.8047 14.607 15.266 14.7957C15.5779 14.8936 15.9029 14.9432 16.2297 14.9429C16.6197 14.958 16.9797 14.9731 17.1897 15.2297" stroke="#703D29" stroke-width="0.05"/>
<path d="M14.9883 13.4125C15.112 13.3295 15.3445 13.2239 15.5545 13.3295C15.591 13.3451 15.624 13.3678 15.6517 13.3963C15.6793 13.4248 15.7011 13.4585 15.7158 13.4955C15.7356 13.5562 15.7398 13.6209 15.728 13.6835C15.7161 13.7462 15.6887 13.8049 15.6483 13.854C15.6145 13.8918 15.547 13.9522 15.4608 13.9559C15.3183 13.9559 15.2845 13.8578 15.2808 13.8352C15.2658 13.7295 15.3258 13.688 15.3558 13.6767C15.382 13.6691 15.4608 13.6729 15.4758 13.7295C15.4833 13.7484 15.4833 13.7786 15.4683 13.805" stroke="#703D29" stroke-width="0.05" stroke-linecap="round"/>
<path d="M15.4758 13.7811C15.487 13.7434 15.4833 13.6981 15.4458 13.6566C15.4173 13.6268 15.38 13.6071 15.3395 13.6003C15.2989 13.5935 15.2573 13.6 15.2208 13.6189C15.1945 13.6377 15.1608 13.6566 15.1308 13.7019C15.1158 13.717 15.0933 13.7434 15.0858 13.7623C15.0595 13.8038 15.0483 13.8377 15.0483 13.8566C14.9545 14.1207 15.1045 14.4 15.292 14.5207C15.457 14.6264 15.622 14.6566 15.832 14.6717C15.9258 14.683 15.982 14.683 16.0758 14.6906H16.4358C16.5257 14.6859 16.6158 14.6859 16.7058 14.6906C16.8183 14.7019 16.897 14.7056 16.9908 14.7207C17.0508 14.7283 17.122 14.7396 17.1933 14.7585C17.2158 14.7585 17.2383 14.766 17.2608 14.7736L17.3058 14.7849C17.4408 14.8264 17.5683 14.8755 17.6733 14.9434C17.7033 14.9623 17.7408 14.9811 17.767 15.0075L17.8158 15.0528C17.8908 15.1283 17.9658 15.2038 17.9808 15.3056V15.366C17.9808 15.434 17.9283 15.5283 17.782 15.5547" stroke="#703D29" stroke-width="0.05"/>
<path d="M17.1941 15.3932C17.1566 15.4763 17.2016 15.514 17.2541 15.5215C17.3366 15.5329 17.3779 15.4687 17.3854 15.4083C17.3869 15.3856 17.3838 15.3628 17.3762 15.3413C17.3686 15.3198 17.3567 15.3002 17.3412 15.2835C17.3257 15.2669 17.307 15.2536 17.2862 15.2446C17.2654 15.2356 17.243 15.2309 17.2204 15.231C17.1796 15.2319 17.1401 15.2449 17.1067 15.2684C17.0734 15.2919 17.0477 15.3249 17.0329 15.363C17.0213 15.3919 17.0149 15.4225 17.0141 15.4536C17.0111 15.5101 17.0299 15.5655 17.0666 15.6083C17.0922 15.6371 17.1233 15.6603 17.1582 15.6766C17.193 15.6928 17.2307 15.7017 17.2691 15.7027C17.4266 15.7064 17.5504 15.5593 17.5504 15.4083C17.5504 15.1178 17.1229 14.9555 16.9504 14.9178C16.7305 14.8634 16.5054 14.833 16.2791 14.8272C16.1479 14.8234 16.0466 14.8272 15.9004 14.8083C15.7691 14.797 15.6979 14.7895 15.5629 14.7593C15.3883 14.7214 15.2267 14.6382 15.0941 14.5178C14.9693 14.4248 14.8825 14.2891 14.85 14.1362C14.8176 13.9833 14.8417 13.8238 14.9179 13.6876C14.9587 13.6178 15.0146 13.5581 15.0815 13.5131C15.1484 13.468 15.2244 13.4386 15.3041 13.4272C15.4466 13.4083 15.5666 13.4687 15.6416 13.6083C15.6791 13.6763 15.6641 13.7895 15.6379 13.8423C15.6194 13.8746 15.5934 13.9019 15.562 13.9216C15.5306 13.9413 15.4948 13.953 15.4579 13.9555C15.3154 13.9555 15.2816 13.8574 15.2779 13.8347C15.2629 13.7291 15.3229 13.6876 15.3529 13.6763C15.3791 13.6687 15.4579 13.6725 15.4729 13.7291C15.4804 13.748 15.4804 13.7781 15.4654 13.8046" stroke="#703D29" stroke-width="0.05"/>
<path d="M16.2464 8.7369L16.2314 8.71804C16.1677 8.62747 16.0552 8.60105 15.9727 8.66143C15.8752 8.7369 15.8489 8.86521 15.8789 9.00105C15.9 9.08732 15.9539 9.16182 16.0289 9.2086" stroke="#703D29" stroke-width="0.05" stroke-linecap="round"/>
<path d="M19.7548 9.02309C19.6048 9.18912 19.4511 9.24195 19.2261 9.2495C19.1511 9.2495 19.0198 9.22686 18.9411 9.17025C18.8923 9.13252 18.8361 9.07214 18.8698 8.96271C18.8923 8.89101 19.0086 8.69101 19.0123 8.55139C19.0236 8.34007 18.9411 8.22308 18.8136 8.1778C18.5811 8.09478 18.3261 8.32875 18.1761 8.38158C18.0973 8.40799 18.0561 8.41176 17.9848 8.41176C17.9098 8.41176 17.8723 8.40799 17.7898 8.38158C17.6398 8.32875 17.3886 8.09478 17.1523 8.1778C17.0248 8.22308 16.9461 8.34007 16.9536 8.55516C16.9573 8.69101 17.0736 8.89478 17.0961 8.96271C17.1336 9.07214 17.0773 9.13252 17.0248 9.17025C16.9498 9.22686 16.8111 9.2495 16.7436 9.24573C16.5186 9.24195 16.3648 9.18912 16.2148 9.02309" stroke="#703D29" stroke-width="0.05"/>
<path d="M17.1484 14.8652C17.1784 14.8766 17.1559 14.8577 17.3472 14.9407C17.5218 15.0017 17.6711 15.12 17.7709 15.2766C17.8148 15.3613 17.8268 15.4591 17.8047 15.552" stroke="#703D29" stroke-width="0.05" stroke-linecap="round"/>
<path d="M17.1602 15.6788C17.1974 15.6985 17.2382 15.71 17.2802 15.7128C17.4377 15.7166 17.5614 15.5694 17.5614 15.4184C17.5614 15.3128 17.5052 15.2222 17.4264 15.1543" stroke="#703D29" stroke-width="0.05"/>
<path d="M17.1963 15.3938C17.1588 15.4806 17.2113 15.5259 17.2638 15.5334C17.3463 15.541 17.3913 15.4806 17.3988 15.4202C17.4011 15.3887 17.3945 15.3571 17.38 15.3291C17.3654 15.3011 17.3433 15.2778 17.3163 15.2617" stroke="#703D29" stroke-width="0.05" stroke-linecap="round"/>
<path d="M20.6253 8.8418C20.7453 8.8418 20.8503 8.97765 20.8503 9.11349C20.8503 9.27576 20.7678 9.37387 20.7041 9.44557C20.6553 9.50595 20.6028 9.55878 20.5391 9.62293" stroke="#703D29" stroke-width="0.05"/>
<path d="M20.4862 8.71338C20.5271 8.73596 20.5628 8.76679 20.5913 8.80395C20.64 8.87942 20.655 8.94357 20.6513 9.03791C20.6438 9.1964 20.5313 9.30584 20.4263 9.37754M20.25 8.71338L20.2725 8.7398C20.3438 8.82282 20.3475 8.94357 20.3325 9.0115C20.3241 9.05355 20.3071 9.09338 20.2825 9.12846C20.258 9.16354 20.2265 9.1931 20.19 9.21527M20.0025 8.67188C20.1 8.74735 20.13 8.87565 20.0962 9.0115C20.0737 9.10584 20.0138 9.16244 19.9388 9.20772M20.355 10.7587C20.3662 10.7964 20.3887 10.8077 20.4112 10.8341C20.4756 10.8983 20.5559 10.9439 20.6438 10.9662C20.7338 10.9926 20.8162 10.9738 20.88 10.9323M14.7675 12.97C14.8125 12.97 14.8613 13.004 14.8913 13.0568C14.895 13.0643 14.9063 13.087 14.9063 13.1134C14.9063 13.1473 14.8913 13.1813 14.8688 13.1964C14.8125 13.2341 14.7188 13.2153 14.7188 13.1209" stroke="#703D29" stroke-width="0.05" stroke-linecap="round"/>
<path d="M15.0538 11.7285C15.2413 11.7663 15.4175 11.9889 15.4738 12.2304C15.4963 12.3172 15.5225 12.5059 15.485 12.6832C15.4535 12.8457 15.3752 12.9953 15.26 13.1134C15.2358 13.1395 15.2095 13.1635 15.1812 13.1851L15.1437 13.2115M14.8438 12.7549C14.9187 12.7549 14.9863 12.8266 14.9863 12.9059C14.9865 12.9422 14.9731 12.9772 14.9488 13.004" stroke="#703D29" stroke-width="0.05"/>
<path d="M14.7969 12.8379C14.8756 12.8379 14.9506 12.9134 14.9506 12.9964C14.9507 13.018 14.946 13.0393 14.9369 13.0589C14.9278 13.0784 14.9146 13.0957 14.8981 13.1096" stroke="#703D29" stroke-width="0.05"/>
<path d="M15.5214 12.0391C15.5915 12.1229 15.6404 12.2226 15.6639 12.3296M15.6639 12.6504C15.6514 12.7028 15.6325 12.7535 15.6077 12.8013C15.5728 12.8676 15.5272 12.9276 15.4727 12.9787" stroke="#703D29" stroke-width="0.05" stroke-linecap="round"/>
<path d="M15.5352 11.4648C15.6027 11.5214 15.6477 11.5781 15.6664 11.646" stroke="#703D29" stroke-width="0.05"/>
<path d="M15.6678 11.2839C15.643 11.353 15.5987 11.4134 15.5403 11.4575M15.1953 10.8084L15.2778 10.7858L15.3266 10.7481L15.3566 10.7066L15.3828 10.6386L15.3941 10.582" stroke="#703D29" stroke-width="0.05" stroke-linecap="round"/>
<path d="M15.0373 10.5215C15.0111 10.529 14.9773 10.5366 14.9436 10.5517C14.8908 10.5773 14.8456 10.6163 14.8123 10.6649C14.7234 10.8075 14.6938 10.9797 14.7298 11.1441C14.7448 11.2195 14.7741 11.2913 14.8161 11.3554L14.8536 11.4083C14.9061 11.4573 14.9511 11.4837 15.0261 11.4724" stroke="#703D29" stroke-width="0.05"/>
<path d="M15.4875 10.1621C15.4762 10.2112 15.45 10.2715 15.375 10.264" stroke="#703D29" stroke-width="0.05" stroke-linecap="round"/>
<path d="M15.211 10.4916C15.136 10.4199 14.986 10.4011 14.8322 10.4992L14.7722 10.5482C14.7524 10.5661 14.7348 10.5864 14.7197 10.6086C14.68 10.6663 14.6496 10.73 14.6297 10.7973C14.6035 10.9105 14.6035 11.0086 14.6072 11.035C14.6072 11.0727 14.6147 11.1067 14.6185 11.1369C14.641 11.2426 14.671 11.318 14.7047 11.3709C14.7385 11.4275 14.8172 11.5595 14.9935 11.5746C15.061 11.5784 15.1735 11.5482 15.181 11.4614" stroke="#703D29" stroke-width="0.05"/>
<path d="M19.6414 8.92504C19.6526 8.86467 19.7276 8.85335 19.7539 8.88731C19.7989 8.94768 19.7689 9.0458 19.6789 9.07221C19.6526 9.07696 19.6255 9.07457 19.6005 9.06529C19.5754 9.056 19.5533 9.04015 19.5364 9.01938C19.4989 8.97033 19.5026 8.91372 19.5176 8.86844C19.5251 8.83825 19.5514 8.81184 19.5814 8.78542C19.6826 8.70995 19.8476 8.72504 19.9039 8.86089C19.9714 9.02693 19.8214 9.15523 19.6789 9.24957C19.5064 9.37033 19.3039 9.39297 19.1539 9.38919C18.8089 9.38919 18.5501 9.22316 18.3776 9.12504C18.3401 9.10618 18.2989 9.10995 18.2764 9.13636C18.2652 9.15165 18.2601 9.17064 18.2622 9.18952C18.2643 9.20841 18.2734 9.22581 18.2876 9.23825" stroke="#703D29" stroke-width="0.05" stroke-linecap="round"/>
<path d="M19.7102 8.86914C19.7477 8.86914 19.7552 8.88424 19.7664 8.89933C19.8114 8.95593 19.7777 9.05405 19.6914 9.08423M20.3589 11.0276C20.2277 11.171 20.3514 11.4163 20.4489 11.4729C20.4827 11.4993 20.4977 11.4842 20.5239 11.4993" stroke="#703D29" stroke-width="0.05" stroke-linecap="round"/>
<path d="M20.363 10.7509C20.3217 10.7811 20.3067 10.8151 20.303 10.8755C20.3009 10.9029 20.3045 10.9305 20.3136 10.9564C20.3226 10.9824 20.3369 11.0062 20.3555 11.0264C20.4506 11.1146 20.5748 11.1643 20.7042 11.166C20.7792 11.166 20.8542 11.1509 20.9292 11.1019C21.0007 11.0546 21.0516 10.9817 21.0717 10.8981M20.2917 13.2302L20.2842 13.3245C20.2765 13.4166 20.251 13.5063 20.2092 13.5887C20.1704 13.6685 20.117 13.7402 20.0517 13.8C19.9878 13.8635 19.9128 13.9147 19.8305 13.9509C19.7537 13.9912 19.6716 14.0205 19.5867 14.0377C19.4238 14.0704 19.2569 14.0781 19.0917 14.0604C18.9905 14.0528 18.938 14.0415 18.8367 14.0302C18.7542 14.0264 18.7092 14.0189 18.6267 14.0189C18.4871 14.0155 18.3482 14.0398 18.218 14.0906C18.1167 14.1283 18.0042 14.2038 17.978 14.234C17.9555 14.2 17.8392 14.1283 17.7417 14.0906C17.6793 14.0637 17.6138 14.0447 17.5467 14.034C17.4642 14.0189 17.4155 14.0189 17.3292 14.0189C17.2467 14.0189 17.2017 14.0264 17.1192 14.034C17.0217 14.0415 16.9692 14.0566 16.868 14.0604C16.7742 14.0679 16.7217 14.0717 16.6317 14.0679C16.5434 14.0673 16.4554 14.0572 16.3692 14.0377C16.2845 14.0217 16.2025 13.9937 16.1255 13.9547C16.0442 13.9169 15.9705 13.8645 15.908 13.8C15.8423 13.739 15.7889 13.666 15.7505 13.5849C15.7092 13.5037 15.6838 13.4153 15.6755 13.3245C15.668 13.2868 15.668 13.2302 15.668 13.2302V9.38867H20.288V13.2302H20.2917Z" stroke="#703D29" stroke-width="0.05"/>
<path d="M15.3 13.7783C15.3 13.7533 15.3099 13.7293 15.3275 13.7116C15.345 13.6939 15.3689 13.6839 15.3937 13.6839C15.4186 13.6839 15.4425 13.6939 15.46 13.7116C15.4776 13.7293 15.4875 13.7533 15.4875 13.7783C15.4875 13.8033 15.4776 13.8273 15.46 13.845C15.4425 13.8627 15.4186 13.8726 15.3937 13.8726C15.3689 13.8726 15.345 13.8627 15.3275 13.845C15.3099 13.8273 15.3 13.8033 15.3 13.7783ZM14.7188 13.1141C14.7188 13.0651 14.7488 13.0273 14.7863 13.0273C14.8238 13.0273 14.85 13.0651 14.85 13.1141C14.85 13.1594 14.82 13.1972 14.7863 13.1972C14.7488 13.1972 14.7188 13.1594 14.7188 13.1141Z" fill="#C7B37F" stroke="#C7B37F" stroke-width="0.025"/>
<path d="M15.0469 11.438C15.0469 11.4003 15.0769 11.3701 15.1106 11.3701C15.1481 11.3701 15.1744 11.4003 15.1744 11.438C15.1744 11.4758 15.1481 11.5059 15.1106 11.5059C15.0731 11.5059 15.0469 11.4758 15.0469 11.438ZM16.1981 8.96255C16.1981 8.92481 16.2169 8.88708 16.2506 8.88708C16.2844 8.8833 16.3144 8.90972 16.3181 8.94745C16.3181 8.98519 16.2994 9.02293 16.2656 9.02293C16.2319 9.0267 16.2056 9.00028 16.1981 8.96255Z" fill="#C7B37F"/>
<path d="M14.9741 11.832C14.9591 11.8358 14.9516 11.8396 14.9441 11.8509C14.9328 11.8622 14.9291 11.866 14.9216 11.8849L14.9141 11.9301M15.0903 12.9377L15.1278 12.9L15.1503 12.8622L15.1691 12.8245L15.1953 12.7754M15.1466 13.3037L15.0903 13.3301L15.0491 13.3528C15.0324 13.3621 15.0161 13.3722 15.0003 13.383L14.9553 13.4207M15.5178 11.9905L15.4878 11.9603L15.4503 11.9301L15.4166 11.9" stroke="#C7B37F" stroke-width="0.05" stroke-linecap="round"/>
<path d="M15.5309 11.4922L15.4859 11.5111C15.4679 11.5177 15.4489 11.5215 15.4297 11.5224" stroke="#C7B37F" stroke-width="0.05"/>
<path d="M14.9023 10.8651C14.9098 10.8877 14.9098 10.9028 14.9211 10.9217C14.9286 10.9481 14.9398 10.9632 14.9548 10.9858C14.9792 11.0268 15.0125 11.0617 15.0523 11.0877L15.1086 11.1179M15.0711 10.899L15.1198 10.9217C15.1554 10.937 15.1937 10.9447 15.2323 10.9443L15.2998 10.9406M15.5698 9.4047L15.4948 9.35942C15.4611 9.34055 15.4461 9.32546 15.4198 9.30282C15.4046 9.28777 15.3908 9.27135 15.3786 9.25376L15.3486 9.2047M15.6298 9.03112L15.6523 9.09527C15.6658 9.12304 15.6835 9.14851 15.7048 9.17074C15.7423 9.20848 15.7686 9.2198 15.8098 9.25376M15.8623 9.02734C15.8736 9.05376 15.8736 9.06508 15.8886 9.08772C15.8961 9.10659 15.9036 9.11791 15.9186 9.133L15.9673 9.18206C15.9936 9.2047 16.0123 9.20848 16.0423 9.22357" stroke="#C7B37F" stroke-width="0.05" stroke-linecap="round"/>
<path d="M18.4966 8.72027C18.4966 8.65612 18.4329 8.65234 18.4066 8.65234C18.3391 8.65234 18.3204 8.69385 18.2341 8.73914C18.1598 8.78904 18.0723 8.81534 17.9829 8.81461C17.8936 8.81511 17.8061 8.78883 17.7316 8.73914C17.6454 8.69385 17.6304 8.65234 17.5591 8.65234C17.5478 8.65283 17.5367 8.65556 17.5264 8.66037C17.5161 8.66519 17.5069 8.672 17.4992 8.68041C17.4916 8.68882 17.4856 8.69867 17.4818 8.7094C17.4779 8.72012 17.4761 8.73151 17.4766 8.74291V8.77687L17.4879 8.78442C17.4879 8.75423 17.4916 8.73914 17.5066 8.72027C17.514 8.71129 17.5231 8.70396 17.5335 8.69876C17.5438 8.69356 17.5551 8.6906 17.5666 8.69008C17.6341 8.69008 17.6604 8.73536 17.7466 8.78065C17.8591 8.84102 17.9041 8.85234 17.9979 8.85612C18.0885 8.85737 18.1774 8.83107 18.2529 8.78065C18.3391 8.73536 18.3654 8.68631 18.4329 8.68631C18.4554 8.68631 18.4704 8.7014 18.4816 8.72404V8.758L18.4891 8.76178C18.4891 8.75046 18.4966 8.74668 18.4966 8.72404V8.72027Z" fill="#703D29" stroke="#703D29" stroke-width="0.0166667"/>
<path d="M15.9156 14.0945C15.9344 14.0757 15.9494 14.0832 15.9531 14.0719C15.9531 14.0644 15.9531 14.0644 15.9419 14.0606L15.9081 14.053L15.8781 14.0379C15.8744 14.0379 15.8631 14.0304 15.8594 14.0379C15.8556 14.053 15.8969 14.053 15.8819 14.0908C15.8749 14.1077 15.8647 14.1231 15.8519 14.1361L15.7544 14.2493L15.7469 14.253V14.0908L15.7506 14.0228C15.7581 14.0078 15.7806 14.0228 15.7844 14.0078C15.7844 14.004 15.7844 14.0002 15.7731 13.9964C15.7656 13.9964 15.7544 13.9964 15.7319 13.9851L15.6944 13.9662C15.6869 13.9662 15.6756 13.9587 15.6719 13.9662L15.6756 13.9776C15.6906 13.9851 15.6944 13.9927 15.6944 14.0153V14.2945C15.6944 14.3134 15.6981 14.3172 15.7019 14.321C15.7056 14.321 15.7094 14.321 15.7169 14.3096L15.9156 14.0945V14.0945Z" fill="#703D29"/>
<path d="M16.0327 14.1398C16.0439 14.0983 16.0702 14.1247 16.0702 14.1096C16.0739 14.102 16.0702 14.102 16.0627 14.0983L16.0139 14.0832C15.9989 14.0832 15.9839 14.0719 15.9689 14.0681C15.9689 14.0681 15.9577 14.0643 15.9539 14.0681C15.9502 14.087 15.9952 14.087 15.9839 14.1247L15.9202 14.3322C15.9089 14.37 15.8827 14.3549 15.8789 14.37V14.3737L15.9239 14.3888L15.9839 14.4077H15.9952C16.0027 14.3926 15.9502 14.3964 15.9689 14.3436L16.0327 14.1398V14.1398ZM16.1714 14.1775C16.1789 14.1549 16.1902 14.1586 16.2052 14.1624C16.2427 14.1737 16.2577 14.2115 16.2427 14.2568C16.2352 14.2794 16.2277 14.302 16.1677 14.287C16.1564 14.2832 16.1414 14.2794 16.1452 14.2681L16.1714 14.1813V14.1775ZM16.0664 14.3662C16.0477 14.419 16.0214 14.3964 16.0177 14.4115C16.0177 14.419 16.0252 14.419 16.0289 14.4228L16.0889 14.4379L16.1189 14.4492H16.1339C16.1377 14.4303 16.0964 14.4379 16.1077 14.3926L16.1302 14.3171C16.1339 14.302 16.1339 14.2983 16.1527 14.3058C16.1752 14.3096 16.1789 14.3171 16.1827 14.336L16.1939 14.4115C16.2014 14.4454 16.2052 14.4756 16.2314 14.487C16.2502 14.487 16.2764 14.487 16.2839 14.4719L16.2764 14.4643H16.2652C16.2652 14.4643 16.2539 14.4643 16.2539 14.453L16.2277 14.3171C16.2277 14.3096 16.2427 14.3096 16.2577 14.3058C16.267 14.3008 16.2752 14.2938 16.2816 14.2853C16.2881 14.2769 16.2927 14.2671 16.2952 14.2568C16.2989 14.2379 16.3102 14.1737 16.2277 14.1473L16.1489 14.1285L16.1039 14.1134H16.0927C16.0889 14.1322 16.1339 14.1285 16.1189 14.1775L16.0627 14.3662H16.0664ZM16.3814 14.4605C16.3664 14.5134 16.3289 14.4794 16.3252 14.4983C16.3252 14.5058 16.3289 14.5096 16.3364 14.5096L16.3927 14.5209L16.4452 14.536C16.4564 14.536 16.4639 14.5436 16.4677 14.5322C16.4677 14.5209 16.4189 14.5209 16.4302 14.4643L16.4789 14.2681C16.4789 14.2454 16.4864 14.2454 16.5014 14.2492L16.5389 14.2568C16.5802 14.2681 16.5577 14.3134 16.5764 14.3171C16.5839 14.3171 16.5839 14.302 16.5839 14.2945L16.5877 14.2568V14.2417L16.4639 14.2153L16.3439 14.1851C16.3402 14.1851 16.3364 14.1851 16.3364 14.1926L16.3177 14.2492C16.3139 14.253 16.3102 14.2643 16.3177 14.2643C16.3364 14.2681 16.3364 14.2077 16.3814 14.219L16.4152 14.2266C16.4302 14.2303 16.4339 14.2341 16.4302 14.2568L16.3814 14.4605V14.4605ZM16.8577 14.336C16.8727 14.3134 16.8877 14.3171 16.8914 14.3096C16.8914 14.302 16.8839 14.302 16.8764 14.2983H16.8427L16.8089 14.287C16.8052 14.287 16.7939 14.2832 16.7939 14.2907C16.7902 14.3058 16.8314 14.2983 16.8239 14.3398C16.8239 14.3473 16.8202 14.3624 16.8014 14.3888L16.7264 14.5134L16.7152 14.5209V14.5134L16.6889 14.3624C16.6839 14.3402 16.6826 14.3172 16.6852 14.2945C16.6852 14.2756 16.7114 14.287 16.7114 14.2756C16.7114 14.2681 16.7114 14.2681 16.6964 14.2643L16.6552 14.2605C16.6402 14.2605 16.6289 14.253 16.6177 14.2492C16.6102 14.2492 16.5989 14.2454 16.5952 14.253L16.5989 14.2605C16.6177 14.2681 16.6214 14.2756 16.6252 14.2945L16.6739 14.57C16.6777 14.5888 16.6814 14.5964 16.6852 14.5964C16.6889 14.5964 16.6927 14.5964 16.7002 14.5851L16.8577 14.336V14.336ZM16.8802 14.5926C16.8802 14.6039 16.8802 14.6039 16.8877 14.6115C16.9102 14.619 16.9252 14.6341 16.9514 14.6379C17.0039 14.6454 17.0489 14.6115 17.0564 14.5549C17.0677 14.4983 17.0452 14.4756 17.0039 14.4454C16.9552 14.4115 16.9364 14.4039 16.9402 14.37C16.9439 14.3436 16.9664 14.3322 16.9927 14.3322C17.0602 14.3436 17.0527 14.4303 17.0602 14.4303C17.0714 14.4303 17.0714 14.4266 17.0714 14.4153L17.0789 14.3549V14.3398H17.0564C17.0414 14.3398 17.0302 14.3209 16.9964 14.3134C16.9514 14.3058 16.9102 14.3398 16.9027 14.3888C16.8952 14.4341 16.9177 14.4568 16.9477 14.4794C17.0077 14.5209 17.0302 14.5322 17.0227 14.57C17.0189 14.6077 16.9889 14.6228 16.9589 14.619C16.9139 14.6115 16.8989 14.5662 16.8914 14.5209C16.8914 14.5134 16.8914 14.5096 16.8839 14.5096C16.8764 14.5096 16.8764 14.5209 16.8764 14.5285V14.5926H16.8802ZM17.4727 14.4228C17.4839 14.3964 17.5027 14.4002 17.5027 14.3888C17.5027 14.3813 17.4989 14.3851 17.4877 14.3813H17.4539L17.4202 14.3775C17.4164 14.3775 17.4052 14.3775 17.4052 14.3851C17.4052 14.4002 17.4427 14.3851 17.4427 14.4266C17.4427 14.4341 17.4389 14.4492 17.4239 14.4794L17.3564 14.6115L17.3527 14.6228L17.3489 14.6115L17.3077 14.4605C17.3009 14.4411 17.2971 14.4207 17.2964 14.4002C17.2964 14.3813 17.3227 14.3888 17.3227 14.3775C17.3227 14.37 17.3227 14.37 17.3077 14.37H17.2627L17.2252 14.3624C17.2177 14.3624 17.2064 14.3587 17.2027 14.3662L17.2102 14.3737C17.2252 14.3813 17.2327 14.3851 17.2364 14.4039L17.3152 14.6719L17.3302 14.6983C17.3339 14.6983 17.3377 14.6983 17.3414 14.6832L17.4727 14.419V14.4228Z" fill="#703D29"/>
<path d="M17.5372 14.6415C17.5372 14.6867 17.4997 14.6792 17.4997 14.6981C17.4997 14.7056 17.5034 14.7018 17.5109 14.7018H17.5934L17.6084 14.6981C17.6084 14.6754 17.5559 14.7056 17.5559 14.6226V14.4641L17.5597 14.4603L17.5672 14.4641L17.7584 14.7018L17.7697 14.7056L17.7772 14.6943V14.4415C17.7772 14.3924 17.8147 14.4037 17.8147 14.3924C17.8147 14.3924 17.8147 14.3849 17.8034 14.3849H17.7172C17.7097 14.3849 17.7097 14.3886 17.7097 14.3924C17.7097 14.4075 17.7584 14.3999 17.7584 14.4415V14.5924L17.7547 14.6075L17.7397 14.5962L17.5822 14.3962C17.5747 14.3849 17.5784 14.3849 17.5672 14.3849H17.4997L17.4922 14.3886C17.4922 14.4113 17.5372 14.3811 17.5372 14.4679V14.6415V14.6415ZM17.9272 14.4339C17.9272 14.3924 17.9572 14.4075 17.9572 14.3924C17.9572 14.3886 17.9572 14.3849 17.9422 14.3849H17.8447C17.8447 14.3849 17.8334 14.3849 17.8334 14.3924C17.8334 14.4075 17.8747 14.3924 17.8747 14.4377V14.6528C17.8747 14.6943 17.8447 14.683 17.8447 14.6981C17.8447 14.6981 17.8447 14.7056 17.8522 14.7056H17.9572C17.9647 14.7056 17.9684 14.7056 17.9684 14.6981C17.9684 14.683 17.9234 14.7056 17.9234 14.649L17.9272 14.4339V14.4339ZM18.0959 14.6415C18.0959 14.6981 18.0509 14.6792 18.0509 14.6943C18.0509 14.7018 18.0584 14.7018 18.0659 14.7018H18.1784C18.1897 14.7018 18.1972 14.7018 18.1972 14.6905C18.1972 14.6792 18.1447 14.6905 18.1447 14.6377V14.4339C18.1447 14.4113 18.1447 14.4113 18.1634 14.4113H18.2009C18.2459 14.4075 18.2309 14.4565 18.2497 14.4565C18.2572 14.4565 18.2534 14.4415 18.2534 14.4339L18.2497 14.3962C18.2497 14.3886 18.2497 14.3811 18.2422 14.3811L18.1184 14.3849H17.9947L17.9872 14.3962L17.9834 14.4565L17.9872 14.4716C18.0059 14.4716 17.9947 14.4113 18.0397 14.4113H18.0734C18.0884 14.4113 18.0922 14.4113 18.0959 14.4339V14.6452V14.6415ZM18.3322 14.5584H18.3172L18.3209 14.5396L18.3472 14.4565V14.449L18.3547 14.4528L18.3922 14.532L18.3997 14.5471C18.3997 14.5547 18.3922 14.5547 18.3847 14.5547H18.3322V14.5584ZM18.3997 14.5773C18.4109 14.5773 18.4109 14.5773 18.4297 14.615L18.4372 14.6452C18.4372 14.6716 18.4109 14.6679 18.4109 14.683C18.4109 14.6867 18.4184 14.6867 18.4259 14.683H18.4709L18.5197 14.6792C18.5309 14.6792 18.5347 14.6792 18.5347 14.6716C18.5347 14.6565 18.5122 14.6716 18.4972 14.6452L18.3697 14.3811L18.3584 14.366C18.3509 14.366 18.3509 14.3735 18.3472 14.3811L18.2647 14.6603C18.2572 14.6867 18.2347 14.6867 18.2384 14.6981H18.3247C18.3322 14.6943 18.3434 14.6981 18.3434 14.6867C18.3434 14.6754 18.2984 14.6867 18.2947 14.6528L18.3022 14.615C18.3097 14.5849 18.3172 14.5849 18.3247 14.5849L18.4034 14.5773H18.3997ZM18.7109 14.3886C18.7072 14.3584 18.7109 14.3584 18.7559 14.3509C18.8309 14.3433 18.8084 14.3999 18.8309 14.3962C18.8384 14.3962 18.8309 14.3811 18.8309 14.3735L18.8272 14.332C18.8272 14.3282 18.8234 14.3245 18.8159 14.3245C18.7784 14.3245 18.7522 14.332 18.7259 14.3358L18.6209 14.3509C18.6134 14.3509 18.6097 14.3509 18.6097 14.3584C18.6134 14.3773 18.6584 14.3584 18.6622 14.3962L18.6884 14.6037C18.6959 14.6603 18.6622 14.6415 18.6659 14.6603C18.6659 14.6603 18.6659 14.6641 18.6734 14.6603L18.7259 14.6565L18.7709 14.6528C18.7822 14.6528 18.7897 14.6528 18.7897 14.6415C18.7897 14.6301 18.7447 14.6452 18.7372 14.5962L18.7297 14.532C18.7259 14.5056 18.7259 14.4981 18.7409 14.4943H18.7709C18.8122 14.4867 18.8084 14.5358 18.8197 14.532C18.8309 14.532 18.8272 14.5169 18.8234 14.5132L18.8122 14.4339C18.8122 14.4226 18.8047 14.4226 18.8047 14.4226C18.7934 14.4226 18.8009 14.4641 18.7672 14.4679L18.7409 14.4716C18.7222 14.4754 18.7222 14.4716 18.7184 14.4528L18.7109 14.3886V14.3886ZM18.8609 14.4943C18.8759 14.5811 18.9397 14.6339 19.0184 14.6188C19.1459 14.5924 19.1497 14.483 19.1384 14.4188C19.1197 14.3245 19.0522 14.2792 18.9734 14.2943C18.8797 14.3132 18.8422 14.3962 18.8609 14.4943ZM18.9022 14.4565C18.8909 14.3962 18.9022 14.3282 18.9659 14.3169C19.0184 14.3056 19.0784 14.3471 19.0934 14.4452C19.1047 14.5207 19.0934 14.5811 19.0259 14.5962C18.9547 14.6113 18.9134 14.5207 18.9022 14.4603V14.4565ZM19.2134 14.3018C19.2097 14.2754 19.2209 14.2716 19.2359 14.2679C19.2734 14.2603 19.3034 14.2867 19.3147 14.3282C19.3222 14.3547 19.3259 14.3811 19.2659 14.3962C19.2547 14.3962 19.2397 14.3999 19.2359 14.3886L19.2172 14.3018H19.2134ZM19.2134 14.5169C19.2284 14.5698 19.1947 14.566 19.1947 14.5773C19.1984 14.5886 19.2059 14.5849 19.2097 14.5811C19.2322 14.5811 19.2472 14.5698 19.2697 14.566L19.3072 14.5584C19.3147 14.5584 19.3147 14.5547 19.3147 14.5509C19.3147 14.5358 19.2772 14.5622 19.2659 14.5132L19.2472 14.4377C19.2472 14.4226 19.2397 14.4226 19.2622 14.4188C19.2809 14.4113 19.2884 14.415 19.3034 14.4301L19.3522 14.4905C19.3709 14.5132 19.3897 14.5396 19.4197 14.532C19.4384 14.5282 19.4572 14.5132 19.4572 14.4981L19.4497 14.4943L19.4384 14.4981C19.4384 14.4981 19.4272 14.5018 19.4234 14.4981L19.3334 14.3886L19.3522 14.366C19.3597 14.3509 19.3672 14.332 19.3597 14.3056C19.3559 14.2867 19.3334 14.2264 19.2472 14.2452L19.1684 14.2679L19.1234 14.2754C19.1159 14.2754 19.1122 14.2792 19.1159 14.283C19.1159 14.3018 19.1572 14.2754 19.1684 14.3207L19.2134 14.5169V14.5169ZM19.5397 14.4415C19.5509 14.4943 19.5022 14.4867 19.5059 14.5018C19.5059 14.5132 19.5172 14.5094 19.5247 14.5094L19.5772 14.4905L19.6334 14.4792C19.6447 14.4792 19.6522 14.4792 19.6484 14.4641C19.6484 14.4528 19.5997 14.4792 19.5847 14.4264L19.5359 14.2264C19.5284 14.2075 19.5359 14.2037 19.5472 14.1999L19.5847 14.1924C19.6259 14.1773 19.6259 14.2301 19.6409 14.2264C19.6522 14.2264 19.6409 14.2075 19.6409 14.1999L19.6259 14.1622C19.6259 14.1622 19.6259 14.1509 19.6184 14.1547L19.4984 14.1886L19.3784 14.215V14.2264L19.3822 14.2867C19.3822 14.2943 19.3822 14.3018 19.3934 14.3018C19.4122 14.2981 19.3822 14.2415 19.4309 14.2301L19.4609 14.2226C19.4759 14.2188 19.4834 14.2226 19.4872 14.2415L19.5397 14.4415V14.4415ZM19.7459 14.166C19.7347 14.1282 19.7684 14.132 19.7609 14.1169H19.7497L19.6972 14.132L19.6522 14.1433C19.6522 14.1433 19.6409 14.1433 19.6409 14.1509C19.6447 14.166 19.6859 14.1433 19.6972 14.1811L19.7572 14.3924C19.7647 14.4301 19.7347 14.4301 19.7384 14.4415C19.7384 14.4452 19.7384 14.449 19.7459 14.4452L19.7872 14.4339L19.8472 14.4188C19.8584 14.4188 19.8584 14.415 19.8584 14.4075C19.8547 14.3962 19.8172 14.4264 19.8022 14.3735L19.7459 14.166V14.166ZM19.8322 14.2679C19.8584 14.3547 19.9297 14.3962 20.0084 14.3698C20.1284 14.3282 20.1209 14.215 20.0984 14.1547C20.0684 14.0641 19.9934 14.0301 19.9184 14.0528C19.8284 14.0867 19.7984 14.1735 19.8322 14.2679V14.2679ZM19.8697 14.2301C19.8472 14.166 19.8472 14.0981 19.9109 14.0792C19.9597 14.0603 20.0234 14.0943 20.0572 14.1886C20.0797 14.2565 20.0759 14.3245 20.0122 14.3471C19.9447 14.3698 19.8922 14.2905 19.8697 14.2264V14.2301ZM20.1547 14.0226C20.1472 13.9962 20.1547 13.9924 20.1697 13.9849C20.2072 13.9735 20.2447 13.9962 20.2597 14.0377C20.2672 14.0603 20.2747 14.0867 20.2184 14.1094C20.2072 14.1094 20.1922 14.1169 20.1884 14.1094L20.1547 14.0226V14.0226ZM20.1847 14.2339C20.2072 14.2867 20.1697 14.2867 20.1772 14.2981C20.1772 14.3094 20.1847 14.3018 20.1922 14.3018L20.2484 14.2754L20.2822 14.2679C20.2897 14.2641 20.2897 14.2603 20.2897 14.2565C20.2822 14.2415 20.2522 14.2716 20.2372 14.2264L20.2072 14.1547C20.1997 14.1396 20.1997 14.1358 20.2184 14.1282C20.2372 14.1207 20.2447 14.1245 20.2597 14.1396L20.3197 14.1924C20.3384 14.2113 20.3609 14.2339 20.3947 14.2226C20.4059 14.215 20.4284 14.1962 20.4209 14.1849L20.4134 14.1811L20.4059 14.1886H20.3872L20.2822 14.0943L20.2972 14.0679C20.3013 14.0583 20.3034 14.0481 20.3034 14.0377C20.3034 14.0273 20.3013 14.017 20.2972 14.0075C20.2934 13.9849 20.2597 13.932 20.1809 13.9622L20.1059 13.9962L20.0609 14.0113L20.0534 14.0188C20.0609 14.0339 20.0947 14.0037 20.1134 14.049L20.1884 14.2377L20.1847 14.2339Z" fill="#703D29"/>
<path d="M15.9062 9.625H17.8766V11.6054H15.9062V9.625Z" fill="#D52B1E"/>
<path d="M16.8305 11.1827C16.8305 11.1827 16.8305 11.2551 16.8113 11.3107C16.7873 11.3759 16.7873 11.3759 16.7657 11.4073C16.7424 11.4456 16.7113 11.4785 16.6745 11.5039C16.6265 11.5329 16.5785 11.5474 16.5305 11.5425C16.4009 11.5329 16.3385 11.388 16.3097 11.272C16.2785 11.1489 16.1897 11.0788 16.1297 11.1271C16.0961 11.1513 16.0961 11.1948 16.1225 11.2382C16.1484 11.2696 16.1825 11.293 16.2209 11.3058L16.1513 11.3952C16.1513 11.3952 16.0001 11.3759 15.9713 11.2165C15.9593 11.1561 15.9881 11.045 16.0889 11.0112C16.2161 10.9677 16.2953 11.0595 16.3361 11.1368C16.3889 11.2431 16.4129 11.4363 16.5617 11.4073C16.6433 11.3904 16.6817 11.272 16.6817 11.2165L16.7393 11.1537L16.8281 11.1827H16.8305V11.1827Z" fill="white"/>
<path d="M16.9507 11.1827C16.9507 11.1827 16.9507 11.2551 16.9699 11.3107C16.9939 11.3759 16.9939 11.3759 17.0155 11.4073C17.0388 11.4456 17.0699 11.4785 17.1067 11.5039C17.1547 11.5329 17.2027 11.5474 17.2507 11.5425C17.3803 11.5329 17.4427 11.388 17.4715 11.272C17.5027 11.1489 17.5915 11.0788 17.6515 11.1271C17.6851 11.1513 17.6851 11.1948 17.6587 11.2382C17.6329 11.2696 17.5988 11.293 17.5603 11.3058L17.6299 11.3952C17.6299 11.3952 17.7811 11.3759 17.8099 11.2165C17.8219 11.1561 17.7931 11.045 17.6923 11.0112C17.5651 10.9677 17.4859 11.0595 17.4451 11.1368C17.3923 11.2431 17.3683 11.4363 17.2195 11.4073C17.1379 11.3904 17.0995 11.272 17.0995 11.2165L17.0419 11.1537L16.9531 11.1827H16.9507V11.1827Z" fill="white"/>
<path d="M17.0681 10.3421L17.3273 10.0595C17.3273 10.0595 17.3657 10.0281 17.3657 9.97738L17.3128 9.98704L17.3008 9.95806L17.2985 9.93149L17.3705 9.91459V9.88319L17.3777 9.8518L17.3008 9.85663L17.3081 9.82281L17.3201 9.79866L17.3657 9.789H17.4113C17.4545 9.70689 17.632 9.63444 17.7568 9.76485C17.848 9.86146 17.8288 10.0353 17.7088 10.0836C17.682 10.0956 17.6523 10.0995 17.6233 10.0948C17.5943 10.0901 17.5674 10.077 17.5457 10.0571L17.5937 9.96047C17.6585 10.0015 17.7136 9.95323 17.7088 9.90251C17.704 9.8373 17.6609 9.79866 17.6057 9.79383C17.5505 9.789 17.5097 9.81798 17.4857 9.86629C17.4713 9.89768 17.4785 9.91942 17.4737 9.95323C17.4689 9.98946 17.4737 10.0088 17.4617 10.045C17.4499 10.0784 17.4301 10.1082 17.4041 10.1319L17.1401 10.4218L16.1081 11.5424L16.0312 11.4699L17.0681 10.3421V10.3421Z" fill="#FEDF00"/>
<path d="M16.311 10.4381C16.311 10.4381 16.3758 10.7618 16.5966 11.2472C16.7094 11.2061 16.7742 11.1796 16.8942 11.1796C17.0118 11.1796 17.0766 11.2037 17.1894 11.2472C17.3123 10.9882 17.408 10.7171 17.475 10.4381L16.8942 9.68945L16.3086 10.4381H16.311Z" fill="white"/>
<path d="M16.9496 9.94141L17.3528 10.4655C17.3528 10.4655 17.3 10.7191 17.1368 11.1007C17.072 11.0862 17.0168 11.0741 16.9496 11.0693V9.94141ZM16.8368 9.94141L16.4336 10.4655C16.4336 10.4655 16.4864 10.7191 16.6496 11.1007C16.7144 11.0862 16.7696 11.0741 16.8368 11.0693V9.94141Z" fill="#FEDF00"/>
<path d="M18.0859 9.62305H20.0584V11.6042H18.0859V9.62305Z" fill="#FEDF00"/>
<path d="M18.3633 9.62305H18.6558V11.6042H18.3633V9.62305ZM18.9258 9.62305H19.2183V11.6042H18.9258V9.62305ZM19.4883 9.62305H19.7845V11.6042H19.4883V9.62305Z" fill="#D52B1E"/>
<path d="M15.9098 13.3202C15.9136 13.358 15.9286 13.4184 15.9623 13.4825C15.9998 13.5391 15.9848 13.5353 16.0636 13.6259C16.1074 13.6703 16.158 13.7073 16.2136 13.7353C16.3908 13.8121 16.5835 13.8457 16.7761 13.8335C16.8773 13.8297 16.9561 13.8184 17.0236 13.807C17.1603 13.7888 17.2982 13.7812 17.4361 13.7844C17.4923 13.7844 17.5486 13.7957 17.6123 13.807C17.7436 13.8335 17.8748 13.8825 17.8748 13.8825V11.8184H15.9023V13.2259L15.9098 13.3165V13.3202Z" fill="#FEDF00"/>
<path d="M16.1367 13.6824L16.2305 13.739L16.358 13.7843V11.8145H16.1367V13.6824ZM17.2317 13.7729V11.8145H17.0142V13.8069L17.2317 13.7805V13.7729ZM17.6705 11.8145H17.453V13.7805C17.5242 13.788 17.5955 13.8031 17.6705 13.8182V11.8182V11.8145ZM16.793 11.8145V13.8295C16.793 13.8295 16.6505 13.8371 16.5755 13.8295V11.8145H16.793Z" fill="#D52B1E" stroke="#D52B1E" stroke-width="0.025"/>
<path d="M20.0515 13.3215C20.043 13.3772 20.0251 13.4311 19.9987 13.4809C19.9627 13.5364 19.9747 13.5364 19.8955 13.6258C19.8097 13.7109 19.7014 13.7696 19.5835 13.7948C19.4537 13.8293 19.3191 13.8423 19.1851 13.8335C19.0819 13.8286 19.0051 13.8166 18.9379 13.8093C18.8467 13.7948 18.7771 13.7876 18.6739 13.7852C18.6244 13.7827 18.5747 13.7827 18.5251 13.7852C18.3754 13.8022 18.2281 13.8362 18.0859 13.8866V11.8145H20.0587V13.2273L20.0515 13.3191V13.3215Z" fill="#FEDF00"/>
<path d="M18.5904 11.9833L18.576 11.9882L18.5568 12.0075C18.5472 12.0172 18.54 12.0196 18.528 12.0268L18.5136 12.0389C18.5064 12.0461 18.5136 12.0534 18.5064 12.063C18.504 12.0727 18.4992 12.0775 18.492 12.0872C18.4824 12.0969 18.4752 12.0993 18.468 12.1113L18.4392 12.1355L18.432 12.1379H18.4176C18.408 12.1427 18.4056 12.1524 18.3984 12.1572L18.4056 12.1717L18.4248 12.2055C18.4296 12.2128 18.4296 12.2224 18.4368 12.2249C18.4488 12.2297 18.4584 12.2297 18.468 12.2273C18.4872 12.2321 18.4992 12.2321 18.516 12.2393L18.552 12.2587C18.564 12.2659 18.5712 12.2683 18.5832 12.2707H18.6264V12.278L18.6744 12.3021C18.6733 12.3052 18.6724 12.3085 18.672 12.3118C18.6696 12.319 18.6672 12.3287 18.6696 12.3311C18.684 12.377 18.6984 12.4036 18.7056 12.4084C18.72 12.4132 18.7248 12.4301 18.732 12.4446L18.7248 12.4519C18.7104 12.4664 18.696 12.476 18.684 12.4953C18.6672 12.5243 18.6552 12.5243 18.6768 12.563L18.7128 12.6209C18.7224 12.6378 18.7272 12.6499 18.732 12.6692C18.7368 12.6861 18.7392 12.6982 18.7392 12.7175L18.7632 12.7248L18.78 12.7103L18.7944 12.6813V12.6572C18.7896 12.6547 18.7872 12.6475 18.7896 12.6403C18.7896 12.6306 18.8016 12.633 18.8064 12.6258C18.8136 12.6137 18.7968 12.6064 18.7896 12.5992C18.7752 12.5823 18.756 12.5775 18.7512 12.5533C18.7512 12.5485 18.7512 12.5436 18.7608 12.5364L18.8088 12.4929C18.8136 12.4953 18.8232 12.4978 18.8328 12.4953L18.864 12.505C18.8784 12.5098 18.8856 12.505 18.8928 12.505H18.9024L18.9048 12.5195C18.9072 12.5436 18.9024 12.592 18.9096 12.604L18.9168 12.6185L18.9216 12.633V12.6813L18.9168 12.7224C18.9168 12.732 18.912 12.7393 18.9048 12.7465C18.9 12.7562 18.8904 12.7562 18.8808 12.7634V12.7876L18.9072 12.7996L18.9384 12.8069L18.9552 12.7996L18.9576 12.7852L18.9696 12.7731C18.9792 12.7683 18.9888 12.7731 18.9912 12.7707C18.996 12.7634 18.9912 12.761 18.9912 12.7513C18.9912 12.7369 18.9864 12.7272 18.984 12.7127C18.9806 12.6903 18.9798 12.6676 18.9816 12.6451C18.9816 12.6306 18.9816 12.6209 18.9864 12.6089C18.9888 12.5847 18.996 12.575 19.0008 12.5557C19.008 12.5316 19.008 12.5171 19.0104 12.4953C19.0914 12.5076 19.1739 12.5027 19.2528 12.4809C19.272 12.4978 19.2936 12.5098 19.3176 12.5195V12.5436C19.3176 12.5509 19.3176 12.5533 19.3224 12.5606L19.3296 12.5678C19.3368 12.5678 19.3416 12.5678 19.3464 12.563C19.3512 12.5581 19.3512 12.5533 19.3512 12.5461V12.5292H19.3944V12.5557C19.3968 12.563 19.4016 12.5654 19.4064 12.5654C19.4087 12.5665 19.4111 12.567 19.4136 12.567C19.4161 12.567 19.4186 12.5665 19.4208 12.5654C19.428 12.5606 19.4256 12.5509 19.428 12.5412V12.5243L19.452 12.5147C19.4527 12.5219 19.4527 12.5292 19.452 12.5364L19.4448 12.5581C19.44 12.5726 19.4328 12.5775 19.4256 12.592C19.416 12.6064 19.4136 12.6161 19.4016 12.6282L19.3872 12.6451L19.3728 12.6668L19.3512 12.691C19.3344 12.7055 19.3224 12.6958 19.3032 12.7127L19.296 12.7369L19.3296 12.7513L19.3608 12.7562L19.3704 12.7513C19.3704 12.7441 19.3704 12.7369 19.3776 12.732C19.3824 12.7248 19.3872 12.7248 19.3944 12.7224C19.404 12.7224 19.4136 12.7224 19.4184 12.7175C19.428 12.7103 19.428 12.6934 19.4352 12.6813C19.4529 12.6455 19.4774 12.6135 19.5072 12.5871L19.548 12.5533C19.5528 12.5436 19.56 12.5412 19.56 12.5292L19.5552 12.5147L19.5504 12.4905C19.5864 12.5074 19.5744 12.5074 19.5792 12.5243C19.5864 12.5388 19.5792 12.5485 19.5816 12.5654C19.584 12.5847 19.5936 12.5919 19.5936 12.6113C19.596 12.633 19.5912 12.6451 19.5864 12.6668C19.584 12.6861 19.584 12.6982 19.5744 12.7151C19.5688 12.7292 19.5597 12.7417 19.548 12.7513L19.5336 12.7634L19.5312 12.7876L19.5576 12.7972L19.596 12.8069L19.6056 12.7996C19.6104 12.7827 19.6056 12.7586 19.6152 12.7586C19.6248 12.7562 19.632 12.7586 19.6344 12.7513V12.7344L19.6512 12.6258L19.6608 12.5799L19.6704 12.5388C19.6872 12.4905 19.6656 12.4833 19.6464 12.4519C19.6344 12.435 19.6296 12.4277 19.6296 12.4156V12.3456C19.6289 12.3231 19.6289 12.3005 19.6296 12.278L19.6392 12.2732C19.668 12.2563 19.68 12.2514 19.6968 12.2128C19.7019 12.2014 19.7044 12.189 19.704 12.1766V12.1524L19.6944 12.1283C19.6907 12.1211 19.6858 12.1146 19.68 12.1089C19.6632 12.0848 19.6392 12.0824 19.6152 12.0727C19.5792 12.0606 19.5552 12.063 19.5192 12.0606C19.476 12.0558 19.4544 12.0558 19.4136 12.0606C19.3656 12.0606 19.3392 12.0703 19.2912 12.0775L19.1736 12.0872C19.1184 12.0872 19.068 12.0751 19.0344 12.0775C18.9768 12.0824 18.9744 12.0969 18.8856 12.1041C18.8553 12.1066 18.8249 12.1082 18.7944 12.1089L18.7416 12.092C18.7632 12.0848 18.768 12.0799 18.7776 12.0679C18.7848 12.0582 18.7824 12.051 18.792 12.0413L18.8088 12.0172C18.8025 12.0123 18.7951 12.009 18.7872 12.0075H18.7632C18.7532 12.0079 18.7434 12.0103 18.7344 12.0147L18.7152 12.0292L18.6624 12.0003C18.6399 11.9887 18.6155 11.9814 18.5904 11.9785V11.9833Z" fill="#D52B1E"/>
<path d="M19.6519 12.285L19.6327 12.2922C19.6111 12.3019 19.5943 12.3019 19.5703 12.3043C19.5079 12.3091 19.4671 12.2777 19.4023 12.2825C19.3687 12.285 19.3543 12.3115 19.3183 12.3212C19.3049 12.3241 19.2912 12.3257 19.2775 12.326L19.2895 12.3019C19.2895 12.3019 19.2607 12.3091 19.2415 12.3091C19.2285 12.3089 19.2157 12.3073 19.2031 12.3043L19.2271 12.2801L19.1959 12.2753C19.1871 12.2709 19.179 12.2652 19.1719 12.2584C19.1856 12.2566 19.1992 12.2541 19.2127 12.2512C19.2487 12.2415 19.2607 12.2222 19.3063 12.2173C19.3327 12.2173 19.3783 12.2173 19.4887 12.2367C19.5607 12.2487 19.5943 12.2415 19.6207 12.2294C19.6399 12.2222 19.6447 12.2053 19.6471 12.1859C19.6495 12.1666 19.6375 12.1521 19.6279 12.1425C19.6255 12.1425 19.6159 12.1352 19.6015 12.1328" stroke="#FEDF00" stroke-width="0.0533333" stroke-linecap="round"/>
<path d="M18.5946 12.0703C18.5825 12.0703 18.5729 12.0703 18.5632 12.0776C18.5511 12.0848 18.5487 12.0945 18.5391 12.1041C18.5511 12.1065 18.5584 12.1138 18.568 12.1114C18.5777 12.1114 18.5801 12.1065 18.5874 12.0993C18.5946 12.0896 18.597 12.0824 18.597 12.0703H18.5946V12.0703Z" fill="#FCD900" stroke="#FEDF00" stroke-width="0.0266667"/>
<path d="M18.8649 12.3898C18.8712 12.4091 18.8792 12.4277 18.8889 12.4454C18.8937 12.4647 18.8889 12.4744 18.8937 12.4937V12.5323M19.0569 12.3633L19.0497 12.3947L19.0257 12.4792V12.4961M18.7617 12.3995C18.7833 12.4043 18.7761 12.4792 18.8073 12.4961" stroke="#FEDF00" stroke-width="0.0533333" stroke-linecap="round"/>
<path d="M19.4453 12.5331L19.4549 12.5259C19.4792 12.5159 19.5012 12.5011 19.5197 12.4824" stroke="#FEDF00" stroke-width="0.0533333"/>
<path d="M19.2578 12.4905C19.3418 12.4688 19.3994 12.4277 19.4402 12.4205M19.3442 12.3843H19.3634C19.3994 12.377 19.4042 12.3987 19.4282 12.4132C19.4738 12.4374 19.4786 12.4688 19.5314 12.4953L19.541 12.4978L19.5602 12.5074" stroke="#FEDF00" stroke-width="0.0533333" stroke-linecap="round"/>
<path d="M18.4258 12.165H18.4427L18.462 12.1602C18.4693 12.1602 18.4741 12.1602 18.4789 12.165C18.4837 12.165 18.4837 12.1674 18.4862 12.1722C18.4862 12.1771 18.491 12.1795 18.4886 12.1843C18.4886 12.1891 18.4813 12.194 18.4741 12.194C18.4693 12.194 18.4644 12.194 18.462 12.1867C18.4613 12.1852 18.461 12.1836 18.461 12.1819C18.461 12.1802 18.4613 12.1786 18.462 12.1771C18.4586 12.1788 18.4549 12.1796 18.4511 12.1796C18.4474 12.1796 18.4436 12.1788 18.4403 12.1771C18.4372 12.1761 18.4343 12.1746 18.4318 12.1725C18.4293 12.1704 18.4273 12.1679 18.4258 12.165V12.165Z" fill="#FCD900" stroke="#FEDF00" stroke-width="0.0266667"/>
<path d="M18.6036 12.3991L18.5556 12.3773C18.5652 12.3725 18.5724 12.3725 18.5796 12.3653C18.5868 12.3556 18.5868 12.3459 18.5916 12.3339C18.5964 12.3218 18.5964 12.3097 18.6084 12.3001C18.6156 12.2952 18.6276 12.2952 18.6348 12.2976C18.6444 12.2976 18.654 12.3073 18.6564 12.3145C18.6564 12.329 18.6516 12.3387 18.6492 12.3508C18.6492 12.3653 18.642 12.3725 18.6444 12.3846C18.6444 12.3942 18.6492 12.3991 18.654 12.4087L18.606 12.3991H18.6036ZM18.5796 12.4232C18.5792 12.4204 18.5796 12.4175 18.5808 12.4149C18.5819 12.4124 18.5839 12.4102 18.5863 12.4087C18.5887 12.4072 18.5915 12.4065 18.5943 12.4066C18.5971 12.4067 18.5999 12.4076 18.6022 12.4093C18.6045 12.4109 18.6063 12.4132 18.6073 12.4159C18.6083 12.4185 18.6085 12.4214 18.6079 12.4242C18.6073 12.427 18.6058 12.4295 18.6038 12.4315C18.6017 12.4335 18.5992 12.4348 18.5964 12.4353C18.5943 12.4357 18.5922 12.4355 18.5901 12.435C18.5881 12.4344 18.5862 12.4334 18.5846 12.432C18.583 12.4306 18.5817 12.4289 18.5809 12.427C18.58 12.425 18.5796 12.4229 18.5796 12.4208V12.4232ZM18.5388 12.0223H18.534C18.5244 12.0127 18.5244 12.003 18.5196 11.9933C18.5157 11.9841 18.5133 11.9743 18.5124 11.9644V11.9161C18.5124 11.9088 18.5124 11.9016 18.5076 11.8943C18.5076 11.8895 18.498 11.8871 18.5004 11.8847C18.5004 11.8822 18.5076 11.8847 18.51 11.8847C18.5196 11.8847 18.5244 11.8871 18.534 11.8943C18.5412 11.9016 18.546 11.9088 18.5484 11.9185L18.558 11.9547L18.5652 11.974L18.5772 11.9885L18.5604 12.0078L18.5388 12.0223V12.0223ZM18.6252 12.2783L18.678 12.3025C18.7141 12.2806 18.7433 12.2487 18.762 12.2107C18.7836 12.1672 18.786 12.1455 18.7956 12.1044L18.7524 12.0924H18.7428C18.7308 12.1358 18.726 12.1576 18.7044 12.1938C18.6852 12.2252 18.6636 12.2493 18.642 12.2662L18.6252 12.2783ZM18.7452 12.7179L18.7644 12.6865L18.798 12.6599H18.8076C18.8073 12.683 18.8032 12.7058 18.7956 12.7275L18.786 12.7517L18.774 12.7638C18.762 12.7444 18.7428 12.7324 18.7428 12.7155L18.7452 12.7179ZM19.5372 12.7613L19.5708 12.7758L19.6068 12.7976V12.8096L19.5708 12.8145C19.5604 12.8153 19.55 12.8153 19.5396 12.8145H19.5156L19.5012 12.8048C19.5132 12.7879 19.5204 12.7662 19.5348 12.7613H19.5372ZM19.302 12.713L19.3356 12.7251L19.3716 12.7493C19.3716 12.7517 19.374 12.7565 19.3716 12.7589C19.3505 12.7646 19.3286 12.7671 19.3068 12.7662L19.2828 12.7638L19.266 12.7565C19.2804 12.7396 19.2876 12.7155 19.302 12.713V12.713ZM18.8844 12.7638L18.9204 12.7758L18.9564 12.8V12.8121C18.9344 12.8172 18.9117 12.8188 18.8892 12.8169H18.8652L18.8508 12.8072C18.8628 12.7903 18.87 12.7686 18.8844 12.7638ZM18.6684 12.0441C18.654 12.0368 18.6444 12.0199 18.654 12.0054C18.6564 12.0006 18.6636 12.0006 18.6684 11.9958C18.6732 11.9885 18.6708 11.9837 18.6684 11.9764L18.666 11.9523L18.6612 11.9281C18.6612 11.9136 18.6612 11.904 18.6708 11.8895C18.6756 11.8822 18.6876 11.875 18.69 11.875C18.6948 11.8774 18.69 11.8871 18.69 11.8943C18.69 11.9064 18.6924 11.9112 18.6972 11.9233L18.714 11.9547C18.7188 11.9692 18.7236 11.974 18.7236 11.9885C18.7236 12.0006 18.7236 12.0054 18.7188 12.0175C18.7157 12.0251 18.7107 12.0317 18.7044 12.0368C18.6988 12.0414 18.6922 12.0448 18.6852 12.0465C18.6805 12.0478 18.6755 12.0478 18.6708 12.0465L18.6684 12.0441Z" fill="#0065BD"/>
<path d="M18.5904 12.8662L18.576 12.871L18.5568 12.8903C18.5472 12.9 18.54 12.9024 18.528 12.9096L18.5136 12.9217C18.5064 12.929 18.5136 12.9362 18.5064 12.9459C18.504 12.9555 18.4992 12.9603 18.492 12.97C18.4824 12.9797 18.4752 12.9821 18.468 12.9942L18.4392 13.0183L18.432 13.0207H18.4176C18.408 13.0256 18.4056 13.0352 18.3984 13.04L18.4056 13.0545L18.4248 13.0883C18.4296 13.0956 18.4296 13.1053 18.4368 13.1077C18.4488 13.1125 18.4584 13.1125 18.468 13.1101C18.4872 13.1149 18.4992 13.1149 18.516 13.1222L18.552 13.1415C18.564 13.1487 18.5712 13.1511 18.5832 13.1536H18.6264V13.1608L18.6744 13.185C18.6733 13.1881 18.6724 13.1913 18.672 13.1946C18.6696 13.2019 18.6672 13.2115 18.6696 13.2139C18.684 13.2598 18.6984 13.2864 18.7056 13.2912C18.72 13.296 18.7248 13.313 18.732 13.3274L18.7248 13.3347C18.7104 13.3492 18.696 13.3588 18.684 13.3782C18.6672 13.4071 18.6552 13.4071 18.6768 13.4458L18.7128 13.5037C18.7224 13.5206 18.7272 13.5327 18.732 13.552C18.7368 13.569 18.7392 13.581 18.7392 13.6003L18.7632 13.6076L18.78 13.5931L18.7944 13.5641V13.54C18.7896 13.5376 18.7872 13.5303 18.7896 13.5231C18.7896 13.5134 18.8016 13.5158 18.8064 13.5086C18.8136 13.4965 18.7968 13.4893 18.7896 13.482C18.7752 13.4651 18.756 13.4603 18.7512 13.4361C18.7512 13.4313 18.7512 13.4265 18.7608 13.4192L18.8088 13.3757C18.8136 13.3782 18.8232 13.3806 18.8328 13.3782L18.864 13.3878C18.8784 13.3926 18.8856 13.3878 18.8928 13.3878H18.9024L18.9048 13.4023C18.9072 13.4265 18.9024 13.4748 18.9096 13.4868L18.9168 13.5013L18.9216 13.5158V13.5641L18.9168 13.6052C18.9168 13.6148 18.912 13.6221 18.9048 13.6293C18.9 13.639 18.8904 13.639 18.8808 13.6462V13.6704L18.9072 13.6825L18.9384 13.6897L18.9552 13.6825L18.9576 13.668L18.9696 13.6559C18.9792 13.6511 18.9888 13.6559 18.9912 13.6535C18.996 13.6462 18.9912 13.6438 18.9912 13.6342C18.9912 13.6197 18.9864 13.61 18.984 13.5955C18.9806 13.5732 18.9798 13.5505 18.9816 13.5279C18.9816 13.5134 18.9816 13.5037 18.9864 13.4917C18.9888 13.4675 18.996 13.4579 19.0008 13.4385C19.008 13.4144 19.008 13.3999 19.0104 13.3782C19.0914 13.3904 19.1739 13.3855 19.2528 13.3637C19.272 13.3806 19.2936 13.3926 19.3176 13.4023V13.4265C19.3176 13.4337 19.3176 13.4361 19.3224 13.4434L19.3296 13.4506C19.3368 13.4506 19.3416 13.4506 19.3464 13.4458C19.3512 13.441 19.3512 13.4361 19.3512 13.4289V13.412H19.3944V13.4385C19.3968 13.4458 19.4016 13.4482 19.4064 13.4482C19.4087 13.4493 19.4111 13.4498 19.4136 13.4498C19.4161 13.4498 19.4186 13.4493 19.4208 13.4482C19.428 13.4434 19.4256 13.4337 19.428 13.424V13.4071L19.452 13.3975C19.4527 13.4047 19.4527 13.412 19.452 13.4192L19.4448 13.441C19.44 13.4554 19.4328 13.4603 19.4256 13.4748C19.416 13.4893 19.4136 13.4989 19.4016 13.511L19.3872 13.5279L19.3728 13.5496L19.3512 13.5738C19.3344 13.5883 19.3224 13.5786 19.3032 13.5955L19.296 13.6197L19.3296 13.6342L19.3608 13.639L19.3704 13.6342C19.3704 13.6269 19.3704 13.6197 19.3776 13.6148C19.3824 13.6076 19.3872 13.6076 19.3944 13.6052C19.404 13.6052 19.4136 13.6052 19.4184 13.6003C19.428 13.5931 19.428 13.5762 19.4352 13.5641C19.4529 13.5283 19.4774 13.4963 19.5072 13.4699L19.548 13.4361C19.5528 13.4265 19.56 13.424 19.56 13.412L19.5552 13.3975L19.5504 13.3733C19.5864 13.3902 19.5744 13.3902 19.5792 13.4071C19.5864 13.4216 19.5792 13.4313 19.5816 13.4482C19.584 13.4675 19.5936 13.4748 19.5936 13.4941C19.596 13.5158 19.5912 13.5279 19.5864 13.5496C19.584 13.569 19.584 13.581 19.5744 13.5979C19.5688 13.612 19.5597 13.6245 19.548 13.6342L19.5336 13.6462L19.5312 13.6704L19.5576 13.68L19.596 13.6897L19.6056 13.6825C19.6104 13.6656 19.6056 13.6414 19.6152 13.6414C19.6248 13.639 19.632 13.6414 19.6344 13.6342V13.6173L19.6512 13.5086L19.6608 13.4627L19.6704 13.4216C19.6872 13.3733 19.6656 13.3661 19.6464 13.3347C19.6344 13.3178 19.6296 13.3105 19.6296 13.2985V13.2284C19.6289 13.2059 19.6289 13.1833 19.6296 13.1608L19.6392 13.156C19.668 13.1391 19.68 13.1342 19.6968 13.0956C19.7019 13.0842 19.7044 13.0718 19.704 13.0594V13.0352L19.6944 13.0111C19.6907 13.0039 19.6858 12.9974 19.68 12.9917C19.6632 12.9676 19.6392 12.9652 19.6152 12.9555C19.5792 12.9434 19.5552 12.9459 19.5192 12.9434C19.476 12.9386 19.4544 12.9386 19.4136 12.9434C19.3656 12.9434 19.3392 12.9531 19.2912 12.9603L19.1736 12.97C19.1184 12.97 19.068 12.9579 19.0344 12.9603C18.9768 12.9652 18.9744 12.9797 18.8856 12.9869C18.8553 12.9894 18.8249 12.991 18.7944 12.9917L18.7416 12.9748C18.7632 12.9676 18.768 12.9628 18.7776 12.9507C18.7848 12.941 18.7824 12.9338 18.792 12.9241L18.8088 12.9C18.8025 12.8951 18.7951 12.8918 18.7872 12.8903H18.7632C18.7532 12.8907 18.7434 12.8932 18.7344 12.8976L18.7152 12.912L18.6624 12.8831C18.6399 12.8715 18.6155 12.8642 18.5904 12.8613V12.8662Z" fill="#D52B1E"/>
<path d="M19.6519 13.1678L19.6327 13.175C19.6111 13.1847 19.5943 13.1847 19.5703 13.1871C19.5079 13.1919 19.4671 13.1605 19.4023 13.1654C19.3687 13.1678 19.3543 13.1943 19.3183 13.204C19.3049 13.2069 19.2912 13.2085 19.2775 13.2088L19.2895 13.1847C19.2895 13.1847 19.2607 13.1919 19.2415 13.1919C19.2285 13.1917 19.2157 13.1901 19.2031 13.1871L19.2271 13.1629L19.1959 13.1581C19.1871 13.1537 19.179 13.148 19.1719 13.1412C19.1856 13.1394 19.1992 13.137 19.2127 13.134C19.2487 13.1243 19.2607 13.105 19.3063 13.1002C19.3327 13.1002 19.3783 13.1002 19.4887 13.1195C19.5607 13.1315 19.5943 13.1243 19.6207 13.1122C19.6399 13.105 19.6447 13.0881 19.6471 13.0688C19.6495 13.0494 19.6375 13.0349 19.6279 13.0253C19.6255 13.0253 19.6159 13.018 19.6015 13.0156" stroke="#FEDF00" stroke-width="0.0533333" stroke-linecap="round"/>
<path d="M18.5946 12.9531C18.5825 12.9531 18.5729 12.9531 18.5632 12.9604C18.5511 12.9676 18.5487 12.9773 18.5391 12.9869C18.5511 12.9894 18.5584 12.9966 18.568 12.9942C18.5777 12.9942 18.5801 12.9894 18.5874 12.9821C18.5946 12.9724 18.597 12.9652 18.597 12.9531H18.5946V12.9531Z" fill="#FCD900" stroke="#FEDF00" stroke-width="0.0266667"/>
<path d="M18.8649 13.2727C18.8712 13.2919 18.8792 13.3105 18.8889 13.3282C18.8937 13.3475 18.8889 13.3572 18.8937 13.3765V13.4152M19.0569 13.2461L19.0497 13.2775L19.0257 13.362V13.3789M18.7617 13.2823C18.7833 13.2872 18.7761 13.362 18.8073 13.3789" stroke="#FEDF00" stroke-width="0.0533333" stroke-linecap="round"/>
<path d="M19.4453 13.416L19.4549 13.4087C19.4792 13.3987 19.5012 13.3839 19.5197 13.3652" stroke="#FEDF00" stroke-width="0.0533333"/>
<path d="M19.2578 13.3733C19.3418 13.3516 19.3994 13.3105 19.4402 13.3033M19.3442 13.2671H19.3634C19.3994 13.2598 19.4042 13.2816 19.4282 13.296C19.4738 13.3202 19.4786 13.3516 19.5314 13.3782L19.541 13.3806L19.5602 13.3902" stroke="#FEDF00" stroke-width="0.0533333" stroke-linecap="round"/>
<path d="M18.4258 13.0478H18.4427L18.462 13.043C18.4693 13.043 18.4741 13.043 18.4789 13.0478C18.4837 13.0478 18.4837 13.0502 18.4862 13.055C18.4862 13.0599 18.491 13.0623 18.4886 13.0671C18.4886 13.0719 18.4813 13.0768 18.4741 13.0768C18.4693 13.0768 18.4644 13.0768 18.462 13.0695C18.4613 13.068 18.461 13.0664 18.461 13.0647C18.461 13.063 18.4613 13.0614 18.462 13.0599C18.4586 13.0616 18.4549 13.0625 18.4511 13.0625C18.4474 13.0625 18.4436 13.0616 18.4403 13.0599C18.4372 13.0589 18.4343 13.0574 18.4318 13.0553C18.4293 13.0532 18.4273 13.0507 18.4258 13.0478V13.0478Z" fill="#FCD900" stroke="#FEDF00" stroke-width="0.0266667"/>
<path d="M18.6036 13.2819L18.5556 13.2602C18.5652 13.2553 18.5724 13.2553 18.5796 13.2481C18.5868 13.2384 18.5868 13.2288 18.5916 13.2167C18.5964 13.2046 18.5964 13.1925 18.6084 13.1829C18.6156 13.178 18.6276 13.178 18.6348 13.1805C18.6444 13.1805 18.654 13.1901 18.6564 13.1974C18.6564 13.2119 18.6516 13.2215 18.6492 13.2336C18.6492 13.2481 18.642 13.2553 18.6444 13.2674C18.6444 13.2771 18.6492 13.2819 18.654 13.2915L18.606 13.2819H18.6036ZM18.5796 13.306C18.5792 13.3032 18.5796 13.3003 18.5808 13.2978C18.5819 13.2952 18.5839 13.293 18.5863 13.2915C18.5887 13.29 18.5915 13.2893 18.5943 13.2894C18.5971 13.2895 18.5999 13.2904 18.6022 13.2921C18.6045 13.2937 18.6063 13.296 18.6073 13.2987C18.6083 13.3013 18.6085 13.3042 18.6079 13.307C18.6073 13.3098 18.6058 13.3123 18.6038 13.3143C18.6017 13.3163 18.5992 13.3176 18.5964 13.3181C18.5943 13.3185 18.5922 13.3184 18.5901 13.3178C18.5881 13.3172 18.5862 13.3162 18.5846 13.3148C18.583 13.3134 18.5817 13.3117 18.5809 13.3098C18.58 13.3079 18.5796 13.3057 18.5796 13.3036V13.306ZM18.5388 12.9051H18.534C18.5244 12.8955 18.5244 12.8858 18.5196 12.8762C18.5157 12.8669 18.5133 12.8571 18.5124 12.8472V12.7989C18.5124 12.7916 18.5124 12.7844 18.5076 12.7771C18.5076 12.7723 18.498 12.7699 18.5004 12.7675C18.5004 12.7651 18.5076 12.7675 18.51 12.7675C18.5196 12.7675 18.5244 12.7699 18.534 12.7771C18.5412 12.7844 18.546 12.7916 18.5484 12.8013L18.558 12.8375L18.5652 12.8568L18.5772 12.8713L18.5604 12.8906L18.5388 12.9051V12.9051ZM18.6252 13.1611L18.678 13.1853C18.7141 13.1634 18.7433 13.1315 18.762 13.0935C18.7836 13.05 18.786 13.0283 18.7956 12.9872L18.7524 12.9752H18.7428C18.7308 13.0186 18.726 13.0404 18.7044 13.0766C18.6852 13.108 18.6636 13.1322 18.642 13.1491L18.6252 13.1611ZM18.7452 13.6007L18.7644 13.5693L18.798 13.5427H18.8076C18.8073 13.5658 18.8032 13.5886 18.7956 13.6103L18.786 13.6345L18.774 13.6466C18.762 13.6272 18.7428 13.6152 18.7428 13.5983L18.7452 13.6007ZM19.5372 13.6442L19.5708 13.6586L19.6068 13.6804V13.6925L19.5708 13.6973C19.5604 13.6981 19.55 13.6981 19.5396 13.6973H19.5156L19.5012 13.6876C19.5132 13.6707 19.5204 13.649 19.5348 13.6442H19.5372ZM19.302 13.5959L19.3356 13.6079L19.3716 13.6321C19.3716 13.6345 19.374 13.6393 19.3716 13.6417C19.3505 13.6474 19.3286 13.6499 19.3068 13.649L19.2828 13.6466L19.266 13.6393C19.2804 13.6224 19.2876 13.5983 19.302 13.5959V13.5959ZM18.8844 13.6466L18.9204 13.6586L18.9564 13.6828V13.6949C18.9344 13.7 18.9117 13.7016 18.8892 13.6997H18.8652L18.8508 13.69C18.8628 13.6731 18.87 13.6514 18.8844 13.6466ZM18.6684 12.9269C18.654 12.9196 18.6444 12.9027 18.654 12.8882C18.6564 12.8834 18.6636 12.8834 18.6684 12.8786C18.6732 12.8713 18.6708 12.8665 18.6684 12.8592L18.666 12.8351L18.6612 12.8109C18.6612 12.7965 18.6612 12.7868 18.6708 12.7723C18.6756 12.7651 18.6876 12.7578 18.69 12.7578C18.6948 12.7602 18.69 12.7699 18.69 12.7771C18.69 12.7892 18.6924 12.794 18.6972 12.8061L18.714 12.8375C18.7188 12.852 18.7236 12.8568 18.7236 12.8713C18.7236 12.8834 18.7236 12.8882 18.7188 12.9003C18.7157 12.9079 18.7107 12.9145 18.7044 12.9196C18.6988 12.9243 18.6922 12.9276 18.6852 12.9293C18.6805 12.9306 18.6755 12.9306 18.6708 12.9293L18.6684 12.9269Z" fill="#0065BD"/>
<path d="M15.9023 9.62305H17.8748V11.6042H15.9023V9.62305ZM18.0848 9.62305H20.0573V11.6042H18.0848V9.62305ZM15.9098 13.3212C15.9136 13.3589 15.9286 13.4193 15.9623 13.4834C15.9998 13.54 15.9848 13.5363 16.0636 13.6268C16.1074 13.6712 16.158 13.7082 16.2136 13.7363C16.3908 13.813 16.5835 13.8467 16.7761 13.8344C16.8773 13.8306 16.9561 13.8193 17.0236 13.808C17.1603 13.7897 17.2982 13.7821 17.4361 13.7853C17.4923 13.7853 17.5486 13.7966 17.6123 13.808C17.7436 13.8344 17.8748 13.8834 17.8748 13.8834V11.8193H15.9023V13.2268L15.9098 13.3174V13.3212ZM20.0498 13.3212C20.0419 13.3779 20.0241 13.4328 19.9973 13.4834C19.9598 13.54 19.9748 13.5363 19.8961 13.6268C19.8523 13.6712 19.8016 13.7081 19.7461 13.7363C19.6973 13.7627 19.6598 13.774 19.5811 13.7966C19.4515 13.831 19.3173 13.8438 19.1836 13.8344C19.0823 13.8306 19.0036 13.8155 18.9398 13.808C18.8503 13.7958 18.7602 13.7882 18.6698 13.7853C18.6211 13.7829 18.5723 13.7829 18.5236 13.7853C18.4673 13.7853 18.4111 13.7966 18.3473 13.808C18.2161 13.8344 18.0848 13.8834 18.0848 13.8834V11.8155H20.0611V13.2306L20.0536 13.3212H20.0498Z" stroke="#703D29" stroke-width="0.0416667"/>
</g>
</g>
<defs>
<filter id="filter0_d_336_14498" x="0" y="-2" width="36" height="36" filterUnits="userSpaceOnUse" color-interpolation-filters="sRGB">
<feFlood flood-opacity="0" result="BackgroundImageFix"/>
<feColorMatrix in="SourceAlpha" type="matrix" values="0 0 0 0 0 0 0 0 0 0 0 0 0 0 0 0 0 0 127 0" result="hardAlpha"/>
<feOffset dy="4"/>
<feGaussianBlur stdDeviation="3"/>
<feComposite in2="hardAlpha" operator="out"/>
<feColorMatrix type="matrix" values="0 0 0 0 0 0 0 0 0 0 0 0 0 0 0 0 0 0 0.16 0"/>
<feBlend mode="normal" in2="BackgroundImageFix" result="effect1_dropShadow_336_14498"/>
<feBlend mode="normal" in="SourceGraphic" in2="effect1_dropShadow_336_14498" result="shape"/>
</filter>
<clipPath id="clip0_336_14498">
<rect width="24" height="18.1132" fill="white" transform="translate(6 3)"/>
</clipPath>
</defs>
</svg>
