<svg width="36" height="31" viewBox="0 0 36 31" fill="none" xmlns="http://www.w3.org/2000/svg">
<g filter="url(#filter0_d_336_27334)">
<g clip-path="url(#clip0_336_27334)">
<path fill-rule="evenodd" clip-rule="evenodd" d="M6 3H30V4.99875H6V3Z" fill="#0D5EAF"/>
<path fill-rule="evenodd" clip-rule="evenodd" d="M6 4.99805H30V7.00055H6V4.99805Z" fill="white"/>
<path fill-rule="evenodd" clip-rule="evenodd" d="M6 7.00195H30V9.0007H6V7.00195Z" fill="#0D5EAF"/>
<path fill-rule="evenodd" clip-rule="evenodd" d="M6 9H30V10.9987H6V9Z" fill="white"/>
<path d="M6 3H16.0012V13.0012H6V3Z" fill="#0D5EAF"/>
<path fill-rule="evenodd" clip-rule="evenodd" d="M6 10.998H30V13.0005H6V10.998Z" fill="#0D5EAF"/>
<path fill-rule="evenodd" clip-rule="evenodd" d="M6 13.002H30V15.0007H6V13.002Z" fill="white"/>
<path fill-rule="evenodd" clip-rule="evenodd" d="M6 15H30V16.9987H6V15Z" fill="#0D5EAF"/>
<path fill-rule="evenodd" clip-rule="evenodd" d="M6 16.998H30V19.0005H6V16.998Z" fill="white"/>
<path fill-rule="evenodd" clip-rule="evenodd" d="M10 3H11.9988V13.0012H10V3Z" fill="white"/>
<path fill-rule="evenodd" clip-rule="evenodd" d="M6 7.00195H16.0012V9.0007H6V7.00195Z" fill="white"/>
<path d="M6 19.002H30V21.0007H6V19.002Z" fill="#0D5EAF"/>
</g>
</g>
<defs>
<filter id="filter0_d_336_27334" x="0" y="-2" width="36" height="36" filterUnits="userSpaceOnUse" color-interpolation-filters="sRGB">
<feFlood flood-opacity="0" result="BackgroundImageFix"/>
<feColorMatrix in="SourceAlpha" type="matrix" values="0 0 0 0 0 0 0 0 0 0 0 0 0 0 0 0 0 0 127 0" result="hardAlpha"/>
<feOffset dy="4"/>
<feGaussianBlur stdDeviation="3"/>
<feComposite in2="hardAlpha" operator="out"/>
<feColorMatrix type="matrix" values="0 0 0 0 0 0 0 0 0 0 0 0 0 0 0 0 0 0 0.16 0"/>
<feBlend mode="normal" in2="BackgroundImageFix" result="effect1_dropShadow_336_27334"/>
<feBlend mode="normal" in="SourceGraphic" in2="effect1_dropShadow_336_27334" result="shape"/>
</filter>
<clipPath id="clip0_336_27334">
<rect width="24" height="18" fill="white" transform="translate(6 3)"/>
</clipPath>
</defs>
</svg>
