<svg width="36" height="31" viewBox="0 0 36 31" fill="none" xmlns="http://www.w3.org/2000/svg">
<g filter="url(#filter0_d_336_30760)">
<g clip-path="url(#clip0_336_30760)">
<path fill-rule="evenodd" clip-rule="evenodd" d="M6 3H33V12H17.9988L6 3Z" fill="#ED2939"/>
<path fill-rule="evenodd" clip-rule="evenodd" d="M6 21H33V12H17.9988L6 21Z" fill="#002395"/>
<path fill-rule="evenodd" clip-rule="evenodd" d="M6 3L17.9988 12L6 21V3Z" fill="white"/>
<path d="M12.0582 9.79297L12.0617 9.65234C12.0617 9.65234 11.9879 9.53281 12.0758 9.40625C12.0758 9.40625 11.8895 9.30781 11.9352 9.15313C11.9352 9.15313 11.7664 9.11094 11.777 8.92813C11.777 8.92813 11.6012 8.91758 11.5801 8.76289C11.5801 8.76289 11.4008 8.79102 11.3199 8.64336C11.3199 8.64336 11.1441 8.67852 11.0949 8.55547C11.0949 8.55547 10.9227 8.61172 10.8242 8.46758C10.8242 8.46758 10.6414 8.54141 10.5676 8.4043C10.4937 8.54141 10.3109 8.46758 10.3109 8.46758C10.2125 8.61172 10.0402 8.55195 10.0402 8.55195C9.99102 8.675 9.81875 8.63984 9.81875 8.63984C9.73789 8.79102 9.55859 8.75938 9.55859 8.75938C9.54102 8.91406 9.36172 8.92813 9.36172 8.92813C9.36679 8.97788 9.35402 9.02782 9.32569 9.06903C9.29736 9.11024 9.2553 9.14005 9.20703 9.15313C9.25273 9.3043 9.06641 9.40273 9.06641 9.40273C9.15781 9.53281 9.08398 9.64883 9.08398 9.64883L9.08047 9.77891L12.0582 9.79297" fill="#FFFF00"/>
<path d="M12.0608 9.79231V9.65129C12.0608 9.65129 11.9883 9.53041 12.0769 9.40953C12.0769 9.40953 11.8915 9.3088 11.9359 9.15569C11.9359 9.15569 11.7666 9.1154 11.7787 8.93005C11.7787 8.93005 11.5973 8.91796 11.5772 8.76485C11.5772 8.76485 11.3998 8.79306 11.3233 8.64397C11.3233 8.64397 11.1459 8.67621 11.0976 8.55533C11.0976 8.55533 10.9243 8.61577 10.8235 8.47072C10.8235 8.47072 10.6421 8.54324 10.5696 8.40625C10.493 8.54324 10.3116 8.47072 10.3116 8.47072C10.2149 8.61174 10.0416 8.5513 10.0416 8.5513C9.99325 8.67621 9.81995 8.64397 9.81995 8.64397C9.73934 8.79306 9.55798 8.76485 9.55798 8.76485C9.54186 8.91393 9.3605 8.92602 9.3605 8.92602C9.36716 8.97531 9.35572 9.02533 9.3283 9.06682C9.30087 9.10831 9.25933 9.13846 9.21137 9.15166C9.25168 9.30477 9.07031 9.40148 9.07031 9.40148C9.15898 9.53041 9.0824 9.65129 9.0824 9.65129V9.78023L12.0608 9.79231V9.79231Z" stroke="black" stroke-width="0.0269526"/>
<path d="M11.9879 9.61562C11.5203 9.56992 10.9824 9.45742 10.5676 9.69297C10.2863 9.52773 9.89961 9.53828 9.56914 9.56992C9.38984 9.60508 9.17891 9.60508 8.98906 9.6332L8.96094 9.63672C8.61992 9.66133 8.31055 9.55937 8.01172 9.42578C8.11016 9.96016 8.21211 10.5051 8.26484 11.0641C8.37734 11.8937 7.87461 12.5863 8.075 13.4055C8.19805 13.7992 8.63047 14.0277 9.02422 14.0734C9.40502 14.0975 9.78345 14.1504 10.1562 14.2316C10.2226 14.248 10.2873 14.2703 10.3496 14.2984C10.4376 14.3368 10.5166 14.3931 10.5816 14.4637C10.7926 14.2422 11.109 14.1789 11.4148 14.1473C11.9703 14.0805 12.6559 14.1156 12.9969 13.6129V13.5848C13.1832 13.3035 13.1586 12.8816 13.0777 12.5652C13.0707 12.4562 13.0426 12.3578 13.025 12.2523C12.6875 11.3559 12.9793 10.3469 13.1234 9.43984C12.9414 9.53136 12.7473 9.59646 12.5469 9.6332C12.3887 9.6543 12.2129 9.64727 12.0547 9.63672L11.9844 9.61914" fill="#FF0000"/>
<path d="M12.6883 12.1937C12.6883 12.25 12.7199 12.2992 12.7305 12.352C12.7973 12.7457 12.857 13.266 12.4563 13.5086C12.0063 13.7898 11.4227 13.6703 10.9059 13.8215C10.8004 13.8496 10.6598 13.9445 10.5895 14.0113C10.5402 13.9797 10.4945 13.934 10.4348 13.9059C10.0094 13.6809 9.45391 13.7547 8.97578 13.6316C8.7332 13.5578 8.48359 13.368 8.42031 13.1219C8.26563 12.475 8.63828 11.923 8.59609 11.2797C8.56797 10.7875 8.48359 10.3199 8.37109 9.85938C8.74727 10.0352 9.17969 10.0633 9.60156 9.97891C9.92696 9.91917 10.2625 9.94957 10.5719 10.0668C10.7336 9.99648 10.9234 9.96484 11.0992 9.94727C11.4262 9.98242 11.7813 10.0387 12.1223 10.0387C12.3508 10.0246 12.5582 9.96133 12.7551 9.87344C12.6391 10.6328 12.4105 11.4273 12.6883 12.1937Z" fill="#80CFE1"/>
<path d="M12.0133 12.3441V11.627H12.0977L11.0078 10.9238L11.0043 10.5547H11.1098L10.5613 10.168L10.0199 10.5547H10.1254V10.9238L9.03906 11.627H9.12695V12.3406H12.0133" fill="white"/>
<path d="M12.0134 12.3458V11.6286H12.0981L11.0099 10.9235L11.0059 10.5609H11.1106L10.5625 10.166L10.0184 10.5569H10.1232L10.1272 10.9235L9.03906 11.6286H9.12773V12.3418H12.0134V12.3458Z" stroke="black" stroke-width="0.107811"/>
<path d="M12.3473 13.2828V13.5043H8.82812V13.2793H12.3438" fill="white"/>
<path d="M12.3506 13.2853V13.5069H8.82812V13.2812H12.3506V13.2853Z" stroke="black" stroke-width="0.107811"/>
<path d="M9.06328 13.2688V12.5129H9.20391L9.19687 13.2758L9.20391 12.5164L9 12.5129V12.3477L12.143 12.3547V12.5129H11.9531V13.2793L11.9496 12.5129H12.0902L12.0973 13.2723" fill="white"/>
<path d="M9.06436 13.2683V12.5108H9.20542L9.19736 13.2763L9.20542 12.5188L9.00391 12.5108V12.3496L12.1475 12.3536V12.5148H11.9541L11.9581 13.2804L11.9501 12.5148H12.0952L12.0992 13.2723" stroke="black" stroke-width="0.107811"/>
<path d="M9.73971 13.0825V12.5547H9.3125V13.0785L9.73568 13.0825" stroke="black" stroke-width="0.107811"/>
<path d="M9.43372 12.6634V12.9696H9.62717V12.6634H9.42969M11.8076 13.0824L11.8035 12.5586H11.3844V13.0824H11.8076Z" stroke="black" stroke-width="0.107811"/>
<path d="M11.4958 12.6682V12.9744H11.6892V12.6682H11.4958ZM11.8021 12.225V11.7012H11.3789V12.225H11.8021Z" stroke="black" stroke-width="0.107811"/>
<path d="M11.4929 11.8101V12.1163H11.6864V11.8101H11.4929ZM9.73568 12.2251V11.6973H9.3125V12.2211H9.73568V12.2251Z" stroke="black" stroke-width="0.107811"/>
<path d="M10.5018 12.2251V11.6973H10.0786V12.2211H10.5018M9.42969 11.8061V12.1123H9.62314V11.8061H9.42969Z" stroke="black" stroke-width="0.107811"/>
<path d="M10.1914 11.8061V12.1123H10.3849V11.8061H10.1914ZM11.0902 12.2251V11.7013L10.667 11.6973V12.2211L11.0902 12.2251Z" stroke="black" stroke-width="0.107811"/>
<path d="M10.7812 11.8066V12.1129H10.9787V11.8066H10.7812Z" stroke="black" stroke-width="0.107811"/>
<path d="M11.1922 12.0625L11.1992 13.2789H9.97227L9.96875 12.0625H11.1887" fill="white"/>
<path d="M9.96764 12.41H11.2009M10.1208 13.2803V12.418M11.0518 13.2803V12.4221M11.1969 12.0634L11.2009 13.2803H9.97973L9.9757 12.0634H11.1969ZM11.6443 11.5437L10.9591 11.044H10.1812L9.49609 11.5437H11.6443ZM10.2417 10.625V10.9312H10.8946V10.625H10.2417Z" stroke="black" stroke-width="0.107811"/>
<path d="M10.5618 10.2715L10.9246 10.5294H10.2031L10.5659 10.2715M10.4167 10.7026V10.8557H10.715V10.7026H10.4167Z" stroke="black" stroke-width="0.107811"/>
<path d="M12.0273 10.1016C12.1293 10.1016 12.1539 10.5234 12.1539 10.7344C12.2453 10.7625 12.4387 10.8855 12.5266 10.9945H11.5352C11.6195 10.8855 11.8129 10.7625 11.9008 10.7379C11.9008 10.527 11.9219 10.098 12.0273 10.1051" fill="white"/>
<path d="M10.8333 12.096H10.9219L10.8937 12.1484C10.8937 12.1484 10.9381 12.2008 10.8937 12.2653L10.9179 12.3056H10.8373L10.8575 12.2653C10.8575 12.2653 10.8172 12.1927 10.8575 12.1444L10.8333 12.1001M12.0263 10.1016C12.131 10.1016 12.1552 10.5246 12.1552 10.7382C12.2439 10.7624 12.4414 10.8873 12.526 10.9961H11.5346C11.6192 10.8873 11.8167 10.7624 11.9013 10.7382C11.9013 10.5246 11.9255 10.1016 12.0263 10.1016ZM10.0312 12.096H10.1199L10.0957 12.1444C10.0957 12.1444 10.136 12.2008 10.0957 12.2653L10.1199 12.3056H10.0312L10.0554 12.2653C10.0554 12.2653 10.0151 12.1927 10.0554 12.1444L10.0312 12.096ZM10.2126 12.096H10.3013L10.2771 12.1444C10.2771 12.1444 10.3174 12.2008 10.2771 12.2653L10.3013 12.3056H10.2126L10.2368 12.2653C10.2368 12.2653 10.1965 12.1927 10.2368 12.1444L10.2126 12.096ZM10.4141 12.096H10.4988L10.4746 12.1444C10.4746 12.1444 10.5149 12.2008 10.4746 12.2653L10.4988 12.3056H10.4141L10.4343 12.2653C10.4343 12.2653 10.394 12.1927 10.4343 12.1444L10.4101 12.096H10.4141ZM10.6358 12.096H10.7245L10.6963 12.1484C10.6963 12.1484 10.7406 12.2008 10.6963 12.2653L10.7204 12.3056H10.6358L10.66 12.2653C10.66 12.2653 10.6197 12.1927 10.66 12.1444L10.6358 12.1001V12.096ZM11.0308 12.1001H11.1194L11.0912 12.1484C11.0912 12.1484 11.1356 12.2008 11.0912 12.2653L11.1154 12.3056H11.0348L11.055 12.2653C11.055 12.2653 11.0146 12.1927 11.055 12.1444L11.0308 12.1001Z" stroke="black" stroke-width="0.107811"/>
<path d="M10.5871 14.8414C11.0441 14.8414 11.6066 14.7465 11.8703 14.6129L12.4504 14.5602L12.4645 15.2668C11.9723 15.5375 10.8402 15.5973 10.5906 15.5938C10.341 15.5938 9.19492 15.5375 8.69922 15.2668L8.70625 14.5566L9.28633 14.6094C9.70089 14.7699 10.1426 14.8487 10.5871 14.8414" fill="#FFFF00"/>
<path d="M10.5894 14.8406C11.0489 14.8406 11.6091 14.748 11.8751 14.611L12.4514 14.5626L12.4635 15.2677C11.9759 15.5377 10.8393 15.5981 10.5935 15.5941C10.3436 15.5941 9.19495 15.5377 8.69922 15.2637L8.70728 14.5586L9.28764 14.611C9.55365 14.748 10.134 14.8406 10.5894 14.8406" stroke="black" stroke-width="0.0269526"/>
<path d="M7.20849 11.8242L7.71825 11.9859L7.56357 12.8121L7.08193 12.8895C7.08193 12.8895 7.00107 12.4535 7.20849 11.8242Z" fill="#FFFF00"/>
<path d="M7.21452 11.8262L7.72234 11.9873L7.56919 12.8133L7.08555 12.8899C7.08555 12.8899 7.00494 12.4547 7.21452 11.8262Z" stroke="black" stroke-width="0.0269526"/>
<path d="M7.56367 12.8047L7.08203 12.8891L7.38789 12.4531L7.56367 12.8047Z" fill="#7E7E7E"/>
<path d="M7.56958 12.8056L7.08594 12.8862L7.39224 12.4551L7.56958 12.8056Z" stroke="black" stroke-width="0.0269526"/>
<path d="M6.90248 12.4219L7.39466 12.457C7.40521 12.8719 7.45794 14.4609 9.35638 14.5488L9.29662 15.1289C6.98685 15.15 6.81107 13.1777 6.90599 12.4219" fill="#FFFF00"/>
<path d="M8.71095 15.2464L9.29131 15.1215M6.90537 12.4219L7.39706 12.4541C7.40915 12.8732 7.45752 14.4607 9.35983 14.5493L9.29937 15.1295C6.98597 15.1537 6.81267 13.1794 6.90537 12.4219V12.4219Z" stroke="black" stroke-width="0.0269526"/>
<path d="M13.9242 11.832L13.418 11.9938L13.5797 12.8164L14.0648 12.8937C14.0648 12.8937 14.1422 12.4613 13.9242 11.832Z" fill="#FFFF00"/>
<path d="M13.9297 11.8301L13.4219 11.9912L13.5831 12.8172L14.0667 12.8978C14.0667 12.8978 14.1473 12.4627 13.9297 11.8301Z" stroke="black" stroke-width="0.0269526"/>
<path d="M13.5816 12.809L14.0633 12.8969L13.7539 12.4609L13.5781 12.809" fill="#7E7E7E"/>
<path d="M13.582 12.8094L14.0657 12.894L13.7553 12.4629L13.582 12.8094Z" stroke="black" stroke-width="0.0269526"/>
<path d="M14.2371 12.4258L13.7449 12.4609C13.7379 12.8758 13.6992 14.4648 11.8008 14.5527L11.8711 15.1293C14.1809 15.1574 14.3391 13.1816 14.2406 12.4258" fill="#FFFF00"/>
<path d="M12.4576 15.2463L11.8772 15.1254M14.239 12.4258L13.7473 12.458C13.7392 12.8771 13.707 14.4686 11.8047 14.5532L11.8692 15.1294C14.1826 15.1576 14.3398 13.1833 14.239 12.4298V12.4258Z" stroke="black" stroke-width="0.0269526"/>
<path d="M10.2831 15.1893C10.269 15.1964 10.248 15.1999 10.2304 15.1964L10.139 15.1928L10.146 15.0768L10.2374 15.0839C10.255 15.0839 10.2726 15.0874 10.2796 15.0944C10.2972 15.1014 10.3042 15.119 10.3042 15.1436C10.3042 15.1647 10.2937 15.1788 10.2796 15.1893M10.1284 15.3651L10.1355 15.228L10.2409 15.235C10.2761 15.2385 10.3042 15.228 10.3218 15.2104C10.3394 15.1964 10.3499 15.1753 10.3499 15.1471C10.3517 15.1346 10.3507 15.1218 10.3471 15.1097C10.3434 15.0975 10.3372 15.0863 10.3288 15.0768C10.3098 15.0583 10.2849 15.0471 10.2585 15.0452L10.1038 15.0346L10.0827 15.3651H10.1284ZM10.4589 15.0944H10.5714L10.6101 15.1014C10.6276 15.112 10.6347 15.126 10.6347 15.1507C10.6347 15.1718 10.6312 15.1858 10.6171 15.1964C10.602 15.2044 10.5849 15.2081 10.5679 15.2069H10.4589V15.0944M10.4589 15.3827V15.2421L10.5644 15.2456C10.5819 15.2456 10.5995 15.2456 10.6065 15.2526C10.6206 15.2596 10.6312 15.2737 10.6312 15.2948V15.3757L10.6382 15.3862H10.6944V15.3792C10.691 15.3774 10.688 15.3749 10.6856 15.3719C10.6832 15.3688 10.6814 15.3653 10.6804 15.3616C10.6781 15.3524 10.6769 15.343 10.6769 15.3335V15.2878C10.6769 15.2667 10.6698 15.2526 10.6628 15.2456C10.6558 15.2359 10.646 15.2285 10.6347 15.2245C10.6487 15.2175 10.6628 15.2069 10.6698 15.1964C10.6769 15.1823 10.6839 15.1682 10.6839 15.1471C10.6839 15.112 10.6663 15.0839 10.6347 15.0698C10.6147 15.061 10.5932 15.0562 10.5714 15.0557H10.4132V15.3862H10.4589M10.8105 15.3159C10.7894 15.2899 10.7771 15.2579 10.7753 15.2245C10.7753 15.1788 10.7823 15.1436 10.8034 15.119C10.8141 15.1074 10.8272 15.0982 10.8417 15.0922C10.8563 15.0861 10.872 15.0833 10.8878 15.0839C10.9031 15.0821 10.9185 15.0837 10.9331 15.0886C10.9477 15.0935 10.961 15.1014 10.9722 15.112C10.9968 15.1331 11.0073 15.1647 11.0108 15.2034C11.0136 15.2376 11.0062 15.2718 10.9898 15.3018C10.9722 15.33 10.944 15.3475 10.9019 15.3475C10.8597 15.3475 10.8315 15.3405 10.8069 15.3159M10.7542 15.1085C10.7339 15.1436 10.7241 15.1839 10.7261 15.2245C10.7296 15.2737 10.7437 15.3159 10.7753 15.344C10.7919 15.3603 10.8118 15.3728 10.8336 15.3807C10.8554 15.3885 10.8787 15.3916 10.9019 15.3897C10.9259 15.3894 10.9495 15.3836 10.9709 15.3726C10.9922 15.3616 11.0107 15.3458 11.0249 15.3264C11.0498 15.2891 11.0621 15.2447 11.0601 15.1999C11.0588 15.1598 11.044 15.1213 11.0179 15.0909C10.9862 15.0557 10.9405 15.0382 10.8808 15.0417C10.8245 15.0417 10.7823 15.0663 10.7542 15.1085M12.3011 14.6339C12.3362 14.6303 12.3644 14.6303 12.389 14.6374C12.4241 14.6514 12.4487 14.676 12.4663 14.7182L12.4206 14.7253C12.4129 14.7052 12.3978 14.6889 12.3784 14.6796C12.3562 14.6704 12.3317 14.668 12.3081 14.6725C12.2939 14.6749 12.2803 14.6802 12.2682 14.6881C12.2561 14.696 12.2458 14.7062 12.2378 14.7182C12.2202 14.7428 12.2132 14.778 12.2202 14.8237C12.224 14.858 12.2388 14.89 12.2624 14.9151C12.2835 14.9362 12.3151 14.9432 12.3538 14.9397C12.3812 14.9359 12.4062 14.9221 12.4241 14.901C12.4452 14.88 12.4487 14.8518 12.4417 14.8132L12.3362 14.8307L12.3327 14.7956L12.4804 14.771L12.5085 14.9468H12.4769L12.4593 14.9116L12.4241 14.9468C12.4065 14.9643 12.3819 14.9714 12.3538 14.9784C12.3145 14.9854 12.2741 14.9765 12.2413 14.9538C12.2227 14.9393 12.2073 14.9213 12.1958 14.9008C12.1843 14.8803 12.1771 14.8576 12.1745 14.8343C12.1688 14.8104 12.168 14.7856 12.1722 14.7614C12.1765 14.7372 12.1856 14.7141 12.1991 14.6936C12.2113 14.6766 12.2271 14.6624 12.2453 14.6521C12.2635 14.6418 12.2837 14.6356 12.3046 14.6339M12.6351 14.6093L12.7405 14.5706C12.7546 14.5635 12.7687 14.5635 12.7792 14.5635C12.8003 14.5635 12.8144 14.5776 12.8214 14.5987C12.8284 14.6198 12.8284 14.6374 12.8214 14.6514C12.8108 14.662 12.7968 14.6725 12.7757 14.6796L12.6773 14.7147L12.6351 14.6093M12.7405 14.88L12.6913 14.7499L12.7898 14.7147C12.8018 14.7088 12.815 14.7052 12.8284 14.7042C12.846 14.7077 12.8601 14.7182 12.8706 14.7393L12.8917 14.7885L12.9023 14.8132L12.9093 14.8237L12.962 14.8026V14.7956C12.9515 14.7956 12.9444 14.7921 12.9409 14.7815C12.9339 14.778 12.9304 14.7675 12.9269 14.7569L12.9093 14.7147C12.9023 14.6971 12.8917 14.6866 12.8847 14.6796C12.8736 14.6747 12.8616 14.6723 12.8495 14.6725L12.8706 14.6303C12.8706 14.6163 12.8706 14.5987 12.8636 14.5811C12.8495 14.546 12.8284 14.5249 12.7933 14.5249C12.7705 14.5235 12.7477 14.5271 12.7265 14.5354L12.5788 14.5882L12.6983 14.8975L12.7405 14.8835M13.1273 14.7182L12.9409 14.444L13.1448 14.3104L13.1694 14.3456L13.0007 14.451L13.0569 14.5354L13.2151 14.437L13.2362 14.4686L13.078 14.5671L13.1413 14.662L13.3171 14.5495L13.3382 14.5846L13.1273 14.7182M13.2925 14.2331L13.3452 14.1733C13.3733 14.1452 13.398 14.1346 13.4261 14.1382C13.4577 14.1382 13.4858 14.1557 13.5175 14.1839C13.5398 14.2026 13.5568 14.2268 13.5667 14.2542C13.5737 14.2753 13.5702 14.2928 13.5667 14.3104C13.5603 14.3233 13.552 14.3352 13.5421 14.3456L13.4894 14.4018L13.2925 14.2331M13.5773 14.3596C13.6159 14.3175 13.623 14.2753 13.6019 14.219C13.5872 14.1906 13.5668 14.1655 13.5421 14.1452C13.5123 14.117 13.4739 14.0997 13.4331 14.096C13.3909 14.0925 13.3558 14.1065 13.3241 14.1417L13.2327 14.2401L13.4858 14.4616L13.5773 14.3632M13.7741 14.1065L13.4823 13.9307L13.5069 13.8956L13.7987 14.0678L13.7741 14.103M13.8901 13.9061L13.5737 13.7796L13.6651 13.5581L13.7038 13.5721L13.63 13.755L13.7249 13.7901L13.7952 13.6249L13.8304 13.6389L13.7601 13.8077L13.8655 13.8499L13.9464 13.6671L13.9815 13.6811L13.8901 13.9061M14.0308 13.5194L13.7003 13.4491L13.7144 13.3964L14.0202 13.2909L13.7495 13.2311L13.7601 13.1925L14.0905 13.2628L14.08 13.312L13.7741 13.4175L14.0448 13.4772L14.0343 13.5194M14.0062 13.0975L14.0097 13.0553C14.0308 13.0553 14.0448 13.0553 14.0589 13.0483C14.0835 13.0343 14.094 13.0096 14.1011 12.9745C14.1031 12.958 14.1019 12.9413 14.0976 12.9253C14.0905 12.9007 14.0765 12.8831 14.0519 12.8831C14.0308 12.8796 14.0167 12.8831 14.0097 12.8936C13.9991 12.9042 13.9921 12.9218 13.9851 12.9464L13.9675 12.9885C13.9605 13.0167 13.9499 13.0378 13.9394 13.0483C13.9253 13.0694 13.9042 13.0764 13.8761 13.0729C13.8626 13.0722 13.8494 13.0687 13.8373 13.0627C13.8252 13.0566 13.8144 13.0481 13.8058 13.0378C13.7847 13.0167 13.7776 12.985 13.7812 12.9464C13.7847 12.9112 13.7952 12.8831 13.8163 12.862C13.8339 12.8409 13.862 12.8268 13.9007 12.8339L13.8972 12.876C13.8796 12.876 13.862 12.876 13.855 12.8866C13.8339 12.8971 13.8233 12.9218 13.8198 12.9534C13.8198 12.978 13.8198 12.9956 13.8339 13.0096C13.8444 13.0237 13.855 13.0307 13.869 13.0307C13.8866 13.0307 13.9007 13.0307 13.9077 13.0167L13.9323 12.9569L13.9464 12.9112C13.9534 12.8901 13.964 12.876 13.9745 12.862C13.9921 12.8444 14.0167 12.8374 14.0448 12.8374C14.0835 12.8409 14.1116 12.8585 14.1222 12.8866C14.1362 12.9147 14.1433 12.9428 14.1398 12.9815C14.1378 13.0162 14.1227 13.0489 14.0976 13.0729C14.073 13.094 14.0448 13.101 14.0062 13.0975M7.1296 13.0764L7.14014 13.1186C7.11905 13.1221 7.10499 13.1292 7.09444 13.1397C7.07686 13.1573 7.06983 13.1854 7.07686 13.2241C7.07928 13.2388 7.08403 13.2531 7.09092 13.2663C7.10499 13.2909 7.12608 13.3014 7.15069 13.2979C7.16827 13.2944 7.17881 13.2874 7.18585 13.2733L7.19639 13.2171V13.1714C7.19639 13.1432 7.20342 13.1186 7.20694 13.1081C7.21749 13.087 7.23858 13.0729 7.2667 13.0659C7.29483 13.0624 7.32295 13.0659 7.34405 13.087C7.36866 13.101 7.38272 13.1292 7.38975 13.1643C7.39659 13.1951 7.39287 13.2273 7.3792 13.2557C7.36514 13.2839 7.34405 13.2979 7.30538 13.305L7.29835 13.2663C7.31133 13.2616 7.32328 13.2545 7.3335 13.2452C7.35108 13.2276 7.3546 13.203 7.35108 13.1714C7.34405 13.1432 7.33702 13.1257 7.32295 13.1186C7.31708 13.114 7.31027 13.1106 7.303 13.1088C7.29572 13.107 7.28814 13.1067 7.28077 13.1081C7.27301 13.1077 7.26536 13.1099 7.259 13.1144C7.25264 13.1188 7.24793 13.1253 7.24561 13.1327L7.2421 13.196L7.23858 13.2417C7.23844 13.2613 7.23362 13.2806 7.22452 13.2979C7.21881 13.3093 7.21037 13.3192 7.19994 13.3265C7.18951 13.3339 7.17742 13.3386 7.16475 13.3401C7.1296 13.3471 7.09444 13.3366 7.07686 13.312C7.05537 13.2882 7.04079 13.2591 7.03467 13.2276C7.03068 13.2103 7.03017 13.1924 7.03319 13.1749C7.03621 13.1574 7.04269 13.1406 7.05225 13.1257C7.06098 13.1128 7.07244 13.1021 7.08581 13.0942C7.09918 13.0863 7.11413 13.0814 7.1296 13.08M7.1085 13.5124L7.43545 13.4139L7.50928 13.6425L7.47061 13.6565L7.40733 13.4702L7.30889 13.4983L7.36866 13.6741L7.32999 13.6846L7.27374 13.5089L7.16124 13.544L7.22452 13.7339L7.18936 13.7444L7.1085 13.5124M7.25264 13.9096L7.55147 13.7514L7.58663 13.8077L7.3792 14.0221L7.67803 13.9729L7.70967 14.0257L7.41085 14.1839L7.38975 14.1487L7.56553 14.0538L7.59717 14.0397L7.64288 14.0151L7.34405 14.0678L7.32295 14.0292L7.52686 13.8112L7.51631 13.8182L7.48116 13.8358C7.47106 13.8424 7.46048 13.8483 7.44952 13.8534L7.27374 13.9448L7.25264 13.9096M7.80811 14.3491C7.79405 14.3456 7.77999 14.335 7.76592 14.321L7.70264 14.2577L7.78702 14.1803L7.8503 14.2436C7.86082 14.2535 7.8692 14.2655 7.87491 14.2788C7.88194 14.2964 7.87491 14.3139 7.85733 14.3315C7.83975 14.3456 7.82217 14.3526 7.80811 14.3491ZM7.56905 14.3772L7.67452 14.2823L7.74483 14.3561C7.77295 14.3807 7.79756 14.3913 7.82217 14.3913C7.84828 14.3909 7.87334 14.3809 7.89249 14.3632C7.91024 14.344 7.92026 14.319 7.92061 14.2928C7.92061 14.2718 7.91006 14.2471 7.88897 14.226L7.7835 14.1206L7.53741 14.3456L7.57256 14.3807M7.86788 14.6444L8.04717 14.3632L8.25811 14.4897L8.23702 14.5249L8.06124 14.4194L8.0085 14.5073L8.1667 14.6022L8.14913 14.6374L7.98741 14.5389L7.92764 14.6339L8.10342 14.7393L8.08233 14.7745L7.86788 14.6444ZM8.39522 14.5882L8.5042 14.6233L8.53936 14.6409C8.55342 14.655 8.55694 14.6725 8.54639 14.6936C8.53936 14.7147 8.53233 14.7288 8.51475 14.7323L8.46202 14.7288L8.36006 14.6936L8.39522 14.5882M8.30381 14.8659L8.34952 14.7323L8.44795 14.7639C8.46553 14.7675 8.48311 14.7745 8.48663 14.7815C8.49717 14.7921 8.50069 14.8096 8.49717 14.8307L8.4796 14.8835L8.47608 14.9081V14.9186L8.52881 14.9362V14.9292L8.52178 14.9046L8.52881 14.88L8.54288 14.8378C8.54639 14.8167 8.54991 14.8026 8.54288 14.7956C8.54288 14.785 8.53233 14.7745 8.52178 14.7639C8.53936 14.7639 8.55694 14.7569 8.56749 14.7464C8.57803 14.7358 8.58858 14.7218 8.5921 14.7042C8.60616 14.669 8.59913 14.6374 8.571 14.6163C8.55428 14.6025 8.53523 14.5918 8.51475 14.5846L8.36358 14.5389L8.25811 14.8518L8.30381 14.8659" fill="#009FC5"/>
<path d="M8.75911 9.17289C8.79426 9.07797 9.15637 8.82133 10.3341 8.93383C10.3341 8.93383 10.5345 9.05688 10.6505 9.0393C10.7208 9.03227 10.6154 9.04633 10.524 8.9725C10.4361 8.90219 10.4185 8.75102 10.6189 8.75805C10.8228 8.76157 11.5786 8.80375 11.5927 8.87407C11.6068 8.94086 11.1919 8.96899 11.0407 8.96547C10.8861 8.96196 10.9001 9.0393 11.0548 9.03578C11.5365 9.01469 12.0603 8.84594 12.6122 9.23969C12.679 9.28539 12.447 9.29242 12.2677 9.2186C12.2677 9.2186 11.7755 9.24321 11.5646 9.20805C11.5646 9.20805 11.4064 9.34164 11.1919 9.32758C11.22 9.39789 11.1146 9.65102 10.4536 9.45766C10.3411 9.49281 9.94387 9.55961 9.98606 9.44008C9.88059 9.44008 9.69778 9.47524 9.66965 9.41547C9.64153 9.35571 9.99309 9.26782 10.0564 9.20453C10.0564 9.20453 9.31106 9.21156 9.17044 9.15883C9.17044 9.15883 8.73098 9.25727 8.75911 9.17289" fill="#BC715F"/>
<path d="M8.99724 10.2138C9.01131 10.1927 9.01834 10.1505 9.05349 10.154C9.12381 10.1716 9.17654 10.3087 9.26443 10.2208C9.29959 10.2138 9.31014 10.256 9.33474 10.263C9.35232 10.3368 9.4156 10.2454 9.45779 10.2524C9.55623 10.2102 9.67224 10.1997 9.78826 10.2173C9.78826 10.2946 9.73201 10.3755 9.6617 10.4177C9.6617 10.488 9.73201 10.5372 9.72849 10.611C9.71795 10.6392 9.72849 10.6813 9.68631 10.6919C9.63006 10.6813 9.58084 10.6778 9.53513 10.6462C9.5281 10.6427 9.52459 10.6321 9.51404 10.6356C9.50701 10.6602 9.5492 10.6849 9.56326 10.7095C9.53514 10.7552 9.49295 10.713 9.45428 10.713C9.44373 10.7411 9.45428 10.7727 9.42615 10.7903C9.38045 10.7903 9.3699 10.7376 9.34178 10.713C9.31013 10.7446 9.36287 10.7622 9.3699 10.7868C9.34881 10.8852 9.35232 10.9802 9.2574 11.0435L9.1906 11.0751C9.17303 11.0259 9.18357 10.952 9.17303 10.8993C9.13787 10.9626 9.10271 11.0188 9.04998 11.0716C8.97967 11.0505 8.94451 10.9731 8.93045 10.9063C8.91611 10.8695 8.9128 10.8293 8.92091 10.7906C8.92903 10.7519 8.94822 10.7164 8.97615 10.6884C8.95857 10.6532 8.88826 10.6602 8.87771 10.604C8.77224 10.5337 8.71951 10.72 8.65271 10.6251C8.64236 10.5782 8.64334 10.5295 8.65557 10.483C8.66779 10.4365 8.69092 10.3936 8.72303 10.3579C8.70545 10.3227 8.65623 10.3298 8.6281 10.3087C8.56482 10.2524 8.4699 10.1962 8.47693 10.0977C8.56517 10.0658 8.6607 10.0598 8.75227 10.0803C8.84383 10.1009 8.92761 10.1472 8.99373 10.2138" fill="#008737"/>
<path d="M9.09072 10.2031C9.0872 10.284 9.14345 10.2242 9.18915 10.2734C9.154 10.2594 9.12939 10.3332 9.09423 10.291L9.07314 10.3121C9.0872 10.3402 9.1083 10.3438 9.0872 10.3754C9.05205 10.3895 9.0415 10.3402 9.02392 10.3227C9.02392 10.3156 9.03095 10.3016 9.01689 10.2945C8.9958 10.3121 8.9747 10.3191 8.94658 10.3156C8.93955 10.3016 8.92197 10.2805 8.93954 10.2664C8.96767 10.2313 9.00986 10.2805 9.03095 10.2559C9.03447 10.2313 9.01337 10.2031 9.0415 10.1855C9.05908 10.1891 9.08369 10.1785 9.09072 10.2031M9.30869 10.2699C9.3122 10.284 9.30165 10.3051 9.32275 10.3191C9.35087 10.3051 9.379 10.3156 9.39306 10.3402C9.39306 10.3543 9.39658 10.3754 9.379 10.3824L9.33681 10.3719C9.34033 10.3648 9.32626 10.3613 9.32275 10.3508C9.30517 10.3473 9.29111 10.3613 9.28056 10.3719C9.29111 10.3859 9.31572 10.3965 9.30869 10.4141C9.28408 10.4387 9.27353 10.393 9.2454 10.407C9.22431 10.4 9.24892 10.3613 9.22079 10.3473C9.18564 10.3473 9.21025 10.4035 9.16454 10.3824C9.15048 10.3648 9.13642 10.3402 9.15048 10.3227C9.16089 10.3165 9.17301 10.3138 9.18505 10.3151C9.19708 10.3164 9.20838 10.3215 9.21728 10.3297C9.2454 10.298 9.2454 10.1855 9.3122 10.2699M9.03798 10.3859C9.05556 10.4141 9.03095 10.4492 9.05556 10.4773C9.09072 10.407 9.12587 10.4914 9.16806 10.4844C9.18212 10.502 9.17158 10.523 9.17509 10.5406C9.12236 10.5547 9.05908 10.5723 9.01337 10.5301L8.99931 10.5441C9.02744 10.5688 9.05204 10.6004 9.03095 10.6426C8.99228 10.6496 8.929 10.6531 8.91142 10.6109C8.90087 10.5758 8.93603 10.5547 8.89736 10.5266C8.87275 10.5617 8.87275 10.6039 8.82001 10.5723C8.80492 10.564 8.79357 10.5503 8.78833 10.534C8.7831 10.5176 8.78437 10.4998 8.79189 10.4844C8.82704 10.4281 8.89033 10.4844 8.92548 10.4598C8.93251 10.4105 8.91494 10.3684 8.96064 10.3438C8.99579 10.3367 9.01337 10.3648 9.03798 10.3859" fill="#FFFF00"/>
<path d="M9.18359 10.4187C9.16602 10.4996 9.10625 10.4152 9.07812 10.4117C9.11328 10.3413 9.13789 10.4328 9.18359 10.4187ZM9.37344 10.5066C9.33125 10.5171 9.33828 10.4644 9.31719 10.4433L9.33477 10.4292C9.34883 10.4468 9.35938 10.482 9.37344 10.5066" fill="white"/>
<path d="M9.31953 10.4876C9.33008 10.5157 9.29141 10.5403 9.32656 10.5579L9.35469 10.5333C9.38633 10.5403 9.41797 10.5473 9.43906 10.5755C9.46016 10.6352 9.40039 10.6352 9.36875 10.6528H9.33359C9.34063 10.6317 9.31602 10.6247 9.3125 10.6176C9.30575 10.6152 9.29843 10.615 9.29151 10.6169C9.2846 10.6187 9.27843 10.6227 9.27383 10.6282C9.28086 10.6633 9.32656 10.6985 9.28086 10.7301C9.23867 10.7301 9.17539 10.7442 9.17891 10.688C9.16484 10.6528 9.22109 10.6071 9.16133 10.6036C9.14023 10.6493 9.11914 10.688 9.06641 10.6493L9.07344 10.586C9.12266 10.586 9.18242 10.5965 9.20352 10.5403C9.21758 10.5016 9.17891 10.463 9.21406 10.4348C9.2668 10.4208 9.29492 10.4559 9.31953 10.4876" fill="#FFFF00"/>
<path d="M9.2858 10.5794C9.29638 10.6111 9.26464 10.6146 9.247 10.6288C9.22584 10.6288 9.21173 10.6217 9.19762 10.6076C9.18704 10.5723 9.21526 10.5653 9.23289 10.5512C9.25758 10.5406 9.26816 10.5688 9.2858 10.5794" fill="black"/>
<path d="M9.25087 10.6005C9.24735 10.6075 9.23676 10.604 9.22971 10.6075L9.22266 10.5723C9.24029 10.5723 9.25793 10.5758 9.25087 10.6005Z" fill="white"/>
</g>
</g>
<defs>
<filter id="filter0_d_336_30760" x="0" y="-2" width="36" height="36" filterUnits="userSpaceOnUse" color-interpolation-filters="sRGB">
<feFlood flood-opacity="0" result="BackgroundImageFix"/>
<feColorMatrix in="SourceAlpha" type="matrix" values="0 0 0 0 0 0 0 0 0 0 0 0 0 0 0 0 0 0 127 0" result="hardAlpha"/>
<feOffset dy="4"/>
<feGaussianBlur stdDeviation="3"/>
<feComposite in2="hardAlpha" operator="out"/>
<feColorMatrix type="matrix" values="0 0 0 0 0 0 0 0 0 0 0 0 0 0 0 0 0 0 0.16 0"/>
<feBlend mode="normal" in2="BackgroundImageFix" result="effect1_dropShadow_336_30760"/>
<feBlend mode="normal" in="SourceGraphic" in2="effect1_dropShadow_336_30760" result="shape"/>
</filter>
<clipPath id="clip0_336_30760">
<rect width="24" height="18" fill="white" transform="translate(6 3)"/>
</clipPath>
</defs>
</svg>
