<svg width="36" height="32" viewBox="0 0 36 32" fill="none" xmlns="http://www.w3.org/2000/svg">
<g filter="url(#filter0_d_336_14277)">
<path fill-rule="evenodd" clip-rule="evenodd" d="M6 3H30V21.5806H6V3Z" fill="black"/>
<path fill-rule="evenodd" clip-rule="evenodd" d="M22 3H29.9987V21.5806H22V3Z" fill="#009900"/>
<path fill-rule="evenodd" clip-rule="evenodd" d="M14 3H22.0025V21.5806H14V3Z" fill="#BF0000"/>
<path fill-rule="evenodd" clip-rule="evenodd" d="M18.78 13.3516H19.111C19.111 13.4833 19.1907 13.6233 19.2904 13.7015H18.6523C18.752 13.6109 18.78 13.4956 18.78 13.3516Z" fill="white" stroke="#BD6B00" stroke-width="0.0443108"/>
<path fill-rule="evenodd" clip-rule="evenodd" d="M16.6719 11.4053L16.8553 11.6111L19.1285 11.6193L19.3119 11.4135L18.7297 11.4011L18.4505 11.1953H17.5333L17.2701 11.4053H16.6719V11.4053Z" fill="white"/>
<path fill-rule="evenodd" clip-rule="evenodd" d="M17.6005 11.1649H18.3861C18.4898 11.1073 18.5257 10.9221 18.5257 10.8191C18.5257 10.5145 18.3144 10.3663 18.107 10.3581C18.0751 10.3581 18.0392 10.3334 18.0312 10.3046C18.0113 10.2387 18.0153 10.1934 17.9913 10.1975C17.9754 10.1975 17.9794 10.2387 17.9634 10.2963C17.9514 10.3293 17.9195 10.3581 17.8837 10.3622C17.6284 10.3745 17.4609 10.568 17.4649 10.8191C17.4689 10.9838 17.4888 11.0826 17.6005 11.1649Z" fill="white" stroke="#BD6B00" stroke-width="0.0443108"/>
<path fill-rule="evenodd" clip-rule="evenodd" d="M16.3126 14.0519H19.6744L19.3753 13.8008H16.6077L16.3086 14.0519H16.3126Z" fill="white"/>
<path fill-rule="evenodd" clip-rule="evenodd" d="M17.8561 13.1001L17.916 13.2895H18.0555L17.9439 13.1001H17.8561ZM17.7764 13.2895L17.8163 13.4789H17.9758L17.916 13.2895H17.7764ZM18.0555 13.2895L18.1672 13.4789H18.4025L18.219 13.2895H18.0555V13.2895ZM16.6797 13.7176C16.8033 13.5982 16.8831 13.4994 16.8831 13.3554H17.1862C17.1862 13.4377 17.2141 13.483 17.2579 13.4789H17.565V13.2936H17.3417V12.2768C17.3337 11.9145 17.7644 11.7087 17.9399 11.7087H16.8911V11.6758H19.0964V11.7087H18.0396C18.3546 11.7087 18.6577 12.0175 18.6617 12.2768V12.565H18.6218L18.6178 12.2809C18.6178 11.9969 18.2709 11.7334 17.9917 11.7416C17.7525 11.7458 17.3776 11.9845 17.3816 12.2768V12.3674L17.9519 12.3715L17.9479 12.4744L18.0356 12.532L18.2151 12.5897V12.7461L18.3427 12.7832V12.9355L18.4942 13.0054V13.1619L18.5939 13.2236L18.5899 13.3842L18.7215 13.4789H18.4105L18.6059 13.7053H18.3148L18.1712 13.4789H17.9838L18.0675 13.7012H17.8681L17.8163 13.4789H17.569V13.7176H16.6837H16.6797ZM17.565 13.1001V13.2895H17.7764L17.7365 13.1001H17.561H17.565Z" fill="white" stroke="#BD6B00" stroke-width="0.0443108"/>
<path fill-rule="evenodd" clip-rule="evenodd" d="M17.5781 12.7715H17.7097V13.0843H17.5781V12.7715Z" stroke="#BD6B00" stroke-width="0.0443108"/>
<path fill-rule="evenodd" clip-rule="evenodd" d="M17.3906 13.1045H17.5182V12.874C17.5182 12.7752 17.606 12.6723 17.6459 12.6682C17.6937 12.6682 17.7615 12.7628 17.7655 12.8657V13.1045H17.9011V12.5117H17.3906V13.1045V13.1045ZM18.4115 13.2404H18.5711V13.3721H18.4115V13.2404ZM18.3158 13.0222H18.4754V13.1498H18.3158V13.0222ZM18.1603 12.7999H18.3198V12.9275H18.1603V12.7999ZM18.0287 12.6146H18.1882V12.7422H18.0287V12.6146Z" stroke="#BD6B00" stroke-width="0.0443108"/>
<path fill-rule="evenodd" clip-rule="evenodd" d="M17.9219 13.1043L18.0894 13.1125L18.3805 13.376V13.2196L18.2808 13.1455V13.022L18.1372 12.9396V12.8038L17.9976 12.7544V12.5774L17.9299 12.5156L17.9259 13.1084L17.9219 13.1043Z" stroke="#BD6B00" stroke-width="0.0443108"/>
<path fill-rule="evenodd" clip-rule="evenodd" d="M18.6133 12.7129H18.6534V13.0052H18.6133V12.7129Z" fill="white" stroke="#BD6B00" stroke-width="0.0443108"/>
<path fill-rule="evenodd" clip-rule="evenodd" d="M16.2961 11.7342C16.2482 11.6519 16.1884 11.8495 15.985 11.9936C15.8933 12.0594 15.8255 12.2365 15.8255 12.3517C15.8255 12.4341 15.8335 12.5123 15.8255 12.5905C15.8215 12.6358 15.7697 12.7469 15.8056 12.7757C15.8933 12.8416 16.0089 12.998 16.0608 13.0516C16.1086 13.0927 16.1485 12.8334 16.1804 12.7222C16.2203 12.5987 16.2044 12.4464 16.308 12.3353C16.3798 12.2529 16.5633 12.1788 16.5473 12.1459L16.2961 11.7342Z" fill="white" stroke="#BD6B00" stroke-width="0.0443108"/>
<path fill-rule="evenodd" clip-rule="evenodd" d="M16.2877 12.3674C16.2718 12.3286 16.2503 12.2925 16.2239 12.2604C16.1984 12.2279 16.1655 12.2024 16.1281 12.1863C16.0914 12.1751 16.0583 12.1537 16.0324 12.1246C16.0172 12.1069 16.0062 12.0857 16.0005 12.0628C15.996 12.0356 15.996 12.0077 16.0005 11.9805L15.9886 11.9928C15.8968 12.0587 15.8291 12.2357 15.8291 12.351C15.8278 12.3825 15.8278 12.4141 15.8291 12.4456C15.837 12.4662 15.841 12.4868 15.853 12.4992L15.8968 12.5321L16.0045 12.5609C16.0448 12.5796 16.0803 12.6078 16.1082 12.6432C16.1372 12.675 16.1614 12.7111 16.18 12.7503L16.188 12.7173C16.2199 12.6062 16.2159 12.4745 16.2917 12.3674H16.2877Z" fill="#BF0000" stroke="#BD6B00" stroke-width="0.0443108"/>
<path d="M15.9998 11.9766C15.9798 12.1124 16.0556 12.1618 16.1274 12.1865C16.1992 12.2153 16.259 12.2935 16.2869 12.3676M15.8203 12.4294C15.8522 12.5529 15.932 12.5364 16.0038 12.5611C16.0755 12.5899 16.1513 12.6846 16.1832 12.7587" stroke="#BD6B00" stroke-width="0.0443108"/>
<path fill-rule="evenodd" clip-rule="evenodd" d="M16.2305 11.6517L16.2703 11.627L16.9762 12.8578L16.9363 12.8825L16.2305 11.6475V11.6517Z" fill="white" stroke="#BD6B00" stroke-width="0.0443108"/>
<path fill-rule="evenodd" clip-rule="evenodd" d="M16.3041 11.6034C16.3041 11.6252 16.2956 11.6462 16.2807 11.6616C16.2657 11.677 16.2454 11.6857 16.2243 11.6857C16.2031 11.6857 16.1829 11.677 16.1679 11.6616C16.1529 11.6462 16.1445 11.6252 16.1445 11.6034C16.1445 11.5815 16.1529 11.5606 16.1679 11.5452C16.1829 11.5297 16.2031 11.521 16.2243 11.521C16.2454 11.521 16.2657 11.5297 16.2807 11.5452C16.2956 11.5606 16.3041 11.5815 16.3041 11.6034ZM16.9102 10.6154H17.1974V10.6813H16.9102V10.6154ZM16.9102 10.743H17.1974V11.3111H16.9102V10.743ZM16.8943 10.5372H17.2133C17.2213 10.426 17.1136 10.3066 17.0538 10.3066C16.99 10.3108 16.8903 10.4301 16.8943 10.5372Z" fill="white" stroke="#BD6B00" stroke-width="0.0443108"/>
<path fill-rule="evenodd" clip-rule="evenodd" d="M17.7057 10.4703C17.6459 10.495 17.5981 10.565 17.5701 10.6474C17.5422 10.7297 17.5303 10.8244 17.5462 10.8985C17.5462 10.9273 17.5582 10.9438 17.5661 10.9602C17.5741 10.9726 17.5821 10.9808 17.5901 10.9808C17.602 10.9808 17.614 10.9808 17.618 10.9685L17.626 10.9355C17.622 10.8532 17.622 10.7791 17.6379 10.7132C17.6557 10.6401 17.6981 10.5759 17.7576 10.5321C17.7695 10.5239 17.7735 10.5115 17.7775 10.5033C17.7774 10.4924 17.7731 10.4821 17.7655 10.4745C17.7496 10.4621 17.7257 10.458 17.7057 10.4703ZM17.7137 10.4868C17.7297 10.4786 17.7456 10.4868 17.7536 10.4909L17.7576 10.4992C17.7576 10.5033 17.7576 10.5074 17.7456 10.5156C17.6843 10.562 17.6406 10.629 17.622 10.705C17.6054 10.7806 17.6014 10.8585 17.61 10.9355C17.61 10.9444 17.6072 10.9531 17.602 10.9602C17.602 10.9602 17.602 10.9643 17.5941 10.9602C17.5941 10.9602 17.5861 10.9602 17.5781 10.9479C17.5702 10.9324 17.5648 10.9157 17.5622 10.8985C17.5502 10.8244 17.5622 10.7338 17.5901 10.6515C17.618 10.5774 17.6619 10.5115 17.7097 10.4868H17.7137Z" fill="#BD6B00"/>
<path fill-rule="evenodd" clip-rule="evenodd" d="M17.8111 10.5492C17.7513 10.578 17.7114 10.6439 17.6915 10.7221C17.6703 10.8012 17.6662 10.8841 17.6795 10.965C17.6875 11.0185 17.7194 11.0473 17.7433 11.0473C17.7553 11.0514 17.7673 11.0473 17.7752 11.035C17.7832 11.0226 17.7872 11.0103 17.7832 10.9938C17.7673 10.9279 17.7633 10.8538 17.7712 10.7839C17.7832 10.7139 17.8111 10.6521 17.859 10.6151C17.8709 10.6027 17.8789 10.5945 17.8789 10.5821C17.8793 10.5777 17.8788 10.5732 17.8774 10.5689C17.876 10.5647 17.8738 10.5608 17.8709 10.5574C17.855 10.5451 17.8311 10.541 17.8111 10.5492ZM17.8191 10.5698C17.8351 10.5616 17.851 10.5657 17.859 10.5698L17.863 10.5821L17.851 10.5986C17.8242 10.6208 17.802 10.6482 17.7856 10.6793C17.7691 10.7104 17.7588 10.7445 17.7553 10.7797C17.7433 10.8538 17.7513 10.9321 17.7633 10.9938C17.7673 11.0103 17.7633 11.0185 17.7633 11.0267L17.7433 11.0308C17.7314 11.0308 17.7035 11.0103 17.6955 10.9609C17.6835 10.8909 17.6875 10.8003 17.7074 10.7262C17.7274 10.6521 17.7673 10.5904 17.8191 10.5698V10.5698Z" fill="#BD6B00"/>
<path fill-rule="evenodd" clip-rule="evenodd" d="M16.8949 11.7715H17.2139V12.2243H16.8949V11.7715ZM16.9148 12.4878H17.2219V12.5866H16.9148V12.4878ZM16.9068 12.6566H17.2259V13.0147H16.9068V12.6566ZM16.8829 13.0888H17.2298V13.2905H16.8829V13.0888ZM16.9268 12.4054H17.2059L17.2618 12.3066H16.8789L16.9268 12.4054V12.4054ZM17.3016 12.0514L17.3056 11.8044H17.497C17.4148 11.8705 17.348 11.955 17.3016 12.0514V12.0514Z" fill="white" stroke="#BD6B00" stroke-width="0.0443108"/>
<path fill-rule="evenodd" clip-rule="evenodd" d="M16.9492 12.155C16.9492 12.2085 17.009 12.1879 17.009 12.1591V11.9286C17.009 11.8874 17.1047 11.8957 17.1047 11.9245V12.1715C17.1047 12.2126 17.1725 12.2085 17.1686 12.1715V11.8833C17.1686 11.7927 16.9492 11.7969 16.9492 11.8792V12.155ZM16.9492 12.7025H17.1765V12.9907H16.9492V12.7025Z" stroke="#BD6B00" stroke-width="0.0443108"/>
<path fill-rule="evenodd" clip-rule="evenodd" d="M17.0926 12.8251H17.1723V12.8663H17.0926V12.8251ZM16.953 12.8251H17.0327V12.8663H16.953V12.8251ZM17.0327 12.7016H17.0926V12.8251H17.0327V12.7016ZM17.0327 12.8663H17.0926V12.9939H17.0327V12.8663ZM15.7685 9.77885C15.7845 10.0053 15.7127 10.1329 15.5971 10.1123C15.5652 9.9888 15.6369 9.90235 15.7685 9.77885ZM15.5093 10.2852C15.4056 10.2317 15.4814 9.81178 15.5213 9.63477C15.5492 9.86118 15.6011 10.1823 15.5093 10.2852Z" fill="white" stroke="#BD6B00" stroke-width="0.0443108"/>
<path fill-rule="evenodd" clip-rule="evenodd" d="M15.546 10.3061C15.7215 10.3679 15.8651 10.1744 15.9089 9.94799C15.7654 10.1538 15.5301 10.1538 15.55 10.3061H15.546ZM15.4144 10.5161C15.2788 10.479 15.3586 10.0344 15.3865 9.85742C15.4144 10.0427 15.5101 10.4543 15.4144 10.5161ZM15.4623 10.5037C15.4703 10.3514 15.6178 10.3926 15.7215 10.3103C15.7016 10.3926 15.6417 10.5243 15.4623 10.5037ZM15.2948 10.7096C15.1592 10.6684 15.239 10.1909 15.231 9.99327C15.2709 10.1662 15.3985 10.6643 15.2948 10.7096ZM15.3586 10.689C15.4703 10.726 15.6178 10.6478 15.6298 10.512C15.5301 10.5819 15.3785 10.5284 15.3586 10.689Z" fill="white" stroke="#BD6B00" stroke-width="0.0443108"/>
<path fill-rule="evenodd" clip-rule="evenodd" d="M15.1894 10.9185C15.0618 10.9308 15.1176 10.5233 15.1176 10.1445C15.1655 10.4986 15.2971 10.8238 15.1894 10.9185Z" fill="white" stroke="#BD6B00" stroke-width="0.0443108"/>
<path fill-rule="evenodd" clip-rule="evenodd" d="M15.2383 10.9022C15.326 10.9433 15.4815 10.8734 15.5254 10.721C15.3659 10.791 15.2622 10.721 15.2383 10.9022ZM16.2592 9.98828C16.2353 10.19 16.1555 10.3053 16.0399 10.2847C16.008 10.1612 16.1037 10.0788 16.2592 9.98828ZM15.9481 10.4987C16.1436 10.5276 16.2113 10.3752 16.3469 10.1735C16.1595 10.3135 15.9402 10.3382 15.9481 10.5029V10.4987Z" fill="white" stroke="#BD6B00" stroke-width="0.0443108"/>
<path fill-rule="evenodd" clip-rule="evenodd" d="M15.8876 10.4795C15.7839 10.3478 15.8876 10.179 15.9674 10.0391C15.9514 10.249 16.0192 10.3684 15.8876 10.4795ZM15.8477 10.6977C15.8318 10.566 16.0471 10.5372 16.1428 10.4672C16.107 10.5413 16.0631 10.743 15.8438 10.6977H15.8477Z" fill="white" stroke="#BD6B00" stroke-width="0.0443108"/>
<path fill-rule="evenodd" clip-rule="evenodd" d="M15.7989 10.697C15.6514 10.6806 15.7112 10.4212 15.8189 10.2812C15.775 10.4788 15.8986 10.6147 15.7989 10.697Z" fill="white" stroke="#BD6B00" stroke-width="0.0443108"/>
<path fill-rule="evenodd" clip-rule="evenodd" d="M15.6872 10.9142C15.5198 10.8319 15.6274 10.6178 15.6872 10.4902C15.6633 10.659 15.7989 10.7866 15.6872 10.9101V10.9142Z" fill="white" stroke="#BD6B00" stroke-width="0.0443108"/>
<path fill-rule="evenodd" clip-rule="evenodd" d="M15.7185 10.8898C15.8063 11.0133 15.9777 10.8569 16.0136 10.6758C15.8661 10.8034 15.7544 10.7828 15.7185 10.894V10.8898ZM15.3357 11.7255C15.3197 11.5485 15.4473 11.2315 15.3556 11.0586C15.3436 11.0339 15.3835 10.9722 15.4114 11.0092C15.4513 11.071 15.4912 11.2439 15.5111 11.178C15.5271 11.108 15.5311 10.9886 15.5909 10.9639C15.6308 10.9516 15.6826 10.9392 15.6667 11.0051C15.6507 11.0627 15.6188 11.1451 15.6547 11.1492C15.6747 11.1492 15.7345 11.0669 15.7863 11.0257C15.8262 10.9928 15.89 11.0504 15.8262 11.0998C15.6348 11.2645 15.4473 11.3427 15.3357 11.7255V11.7255ZM14.9887 14.3807C14.9648 14.3807 14.9369 14.3684 14.9648 14.4054C15.1921 14.6936 15.2559 14.7759 15.5869 14.7348C15.9179 14.6895 15.9977 14.5948 16.233 14.459C16.3011 14.422 16.3756 14.3993 16.4523 14.3922C16.529 14.3851 16.6062 14.3938 16.6796 14.4178C16.7434 14.4384 16.7833 14.4384 16.7355 14.389C16.6876 14.3437 16.6358 14.2778 16.5759 14.2325C16.4272 14.1298 16.2458 14.09 16.0695 14.1214C15.8302 14.1626 15.6268 14.3231 15.3835 14.3849C15.2532 14.412 15.119 14.412 14.9887 14.3849V14.3807ZM16.895 14.8953C16.9349 14.9035 16.9628 14.9859 16.9867 14.9324C17.0186 14.8377 16.9947 14.7677 16.9548 14.7718C16.9069 14.7842 16.8312 14.8953 16.895 14.8953Z" fill="white" stroke="#BD6B00" stroke-width="0.0443108"/>
<path fill-rule="evenodd" clip-rule="evenodd" d="M14.8332 11.5897C14.7853 11.532 14.7973 11.5156 14.873 11.5115C14.9289 11.5115 15.0405 11.5526 15.0844 11.5156C15.1243 11.4868 15.1043 11.3633 15.1243 11.3097C15.1322 11.2727 15.1522 11.2274 15.204 11.3015C15.3476 11.5403 15.5231 11.8284 15.6028 12.1084C15.6427 12.2648 15.6028 12.5118 15.4672 12.6765C15.4672 12.5365 15.4194 12.4418 15.3596 12.3224C15.2798 12.1701 14.9967 11.7461 14.8332 11.5856V11.5897Z" fill="white"/>
<path fill-rule="evenodd" clip-rule="evenodd" d="M15.4291 12.8424C15.5887 12.8424 15.6166 12.6242 15.6166 12.5625C15.5368 12.579 15.4012 12.7148 15.4291 12.8424ZM16.805 14.979C16.9166 15.0037 16.9127 14.7237 16.797 14.6043C16.8489 14.7855 16.7172 14.9501 16.801 14.9748L16.805 14.979ZM16.7571 14.9748C16.7651 15.1066 16.4381 14.9584 16.3583 14.8513C16.5498 14.9378 16.7492 14.8678 16.7571 14.9748ZM16.6175 14.7855C16.6295 14.9131 16.3384 14.7978 16.2467 14.699C16.4421 14.7649 16.6056 14.6784 16.6175 14.7814V14.7855ZM16.6694 14.8019C16.785 14.8308 16.7651 14.5385 16.6534 14.4397C16.7093 14.6332 16.5817 14.7731 16.6694 14.8019ZM16.5498 14.6249C16.6654 14.6537 16.5976 14.4026 16.5139 14.3038C16.5298 14.485 16.474 14.6126 16.5537 14.6249H16.5498ZM16.4899 14.6249C16.5019 14.7567 16.2746 14.6579 16.1868 14.5302C16.3783 14.592 16.478 14.5179 16.4899 14.6249ZM16.4301 14.522C16.5019 14.4685 16.4261 14.3244 16.2826 14.3326C16.2985 14.4191 16.3464 14.5755 16.4301 14.522ZM16.9884 15.1272C16.9924 15.2589 16.6694 15.193 16.5657 15.0531C16.7731 15.0942 16.9765 15.0201 16.9844 15.1272H16.9884ZM15.6963 14.8884C15.7083 15.0201 15.3534 14.8719 15.2656 14.7484C15.4531 14.8143 15.6844 14.7814 15.6963 14.8884ZM15.9117 14.9419C15.9874 14.8884 15.8359 14.7484 15.7123 14.7155C15.7282 14.8019 15.8319 14.9954 15.9117 14.946V14.9419ZM15.9356 15.0366C15.9436 15.156 15.5567 15.0901 15.457 14.979C15.788 15.0407 15.9236 14.9337 15.9356 15.0366Z" fill="white" stroke="#BD6B00" stroke-width="0.0443108"/>
<path fill-rule="evenodd" clip-rule="evenodd" d="M16.1189 15.1141C16.1587 15.2253 15.7879 15.1964 15.6562 15.1347C15.8676 15.1347 16.087 15.0359 16.1189 15.1141Z" fill="white" stroke="#BD6B00" stroke-width="0.0443108"/>
<path fill-rule="evenodd" clip-rule="evenodd" d="M16.2909 15.1968C16.3308 15.2956 15.9878 15.2956 15.8203 15.2379C16.0436 15.2379 16.251 15.098 16.2909 15.1968ZM16.5421 15.2503C16.6059 15.3697 16.239 15.3779 16.1234 15.3203C16.3308 15.2914 16.4903 15.1556 16.5421 15.2503ZM16.1154 15.0486C15.9998 15.1227 16.0077 14.9004 15.916 14.748C16.0596 14.8839 16.1952 14.9786 16.1154 15.0486Z" fill="white" stroke="#BD6B00" stroke-width="0.0443108"/>
<path fill-rule="evenodd" clip-rule="evenodd" d="M16.3223 15.1302C16.2265 15.2167 16.1468 14.912 16.0591 14.7391C16.2026 14.9038 16.41 15.0561 16.3223 15.1261V15.1302ZM16.5934 15.2126C16.5137 15.3114 16.2744 14.9244 16.1867 14.7186C16.3183 14.8791 16.6572 15.1302 16.5934 15.2126ZM16.3621 15.509C16.3223 15.6572 15.7161 15.369 15.6443 15.2167C15.9952 15.406 16.3701 15.3649 16.3621 15.5048V15.509ZM14.42 12.4709C14.404 12.4503 14.3642 12.4709 14.3721 12.5162C14.3841 12.5779 14.4718 12.8949 14.6234 13.0019C14.7311 13.0843 15.3013 13.2119 15.5566 13.2695C15.7001 13.2983 15.8158 13.3724 15.9115 13.4877C15.8787 13.3511 15.8388 13.2164 15.7919 13.0843C15.744 12.9608 15.6164 12.829 15.4808 12.8249C15.2375 12.8126 14.9185 12.792 14.6832 12.6891C14.5766 12.6427 14.4843 12.5673 14.416 12.4709H14.42Z" fill="white" stroke="#BD6B00" stroke-width="0.0443108"/>
<path fill-rule="evenodd" clip-rule="evenodd" d="M15.8265 13.7271C15.9062 13.7847 15.99 13.5748 15.8943 13.373C15.8903 13.5665 15.7427 13.6324 15.8265 13.7271Z" fill="white" stroke="#BD6B00" stroke-width="0.0443108"/>
<path fill-rule="evenodd" clip-rule="evenodd" d="M15.9048 13.9207C16.0125 13.9536 16.0444 13.756 15.9766 13.5996C15.9885 13.7684 15.8051 13.8713 15.9048 13.9207Z" fill="white" stroke="#BD6B00" stroke-width="0.0443108"/>
<path fill-rule="evenodd" clip-rule="evenodd" d="M15.9877 14.0774C16.0914 14.131 16.1272 13.9292 16.0555 13.7852C16.0634 13.9704 15.9079 14.028 15.9877 14.0733V14.0774Z" fill="white" stroke="#BD6B00" stroke-width="0.0443108"/>
<path fill-rule="evenodd" clip-rule="evenodd" d="M15.944 14.0884C15.9042 14.2119 15.6649 13.9772 15.625 13.8496C15.7726 14.0019 15.972 13.9813 15.944 14.0843V14.0884Z" fill="white" stroke="#BD6B00" stroke-width="0.0443108"/>
<path fill-rule="evenodd" clip-rule="evenodd" d="M15.8366 13.8953C15.7888 14.0188 15.4897 13.6894 15.4219 13.5371C15.5694 13.6894 15.8685 13.8047 15.8366 13.8911V13.8953Z" fill="white" stroke="#BD6B00" stroke-width="0.0443108"/>
<path fill-rule="evenodd" clip-rule="evenodd" d="M15.7752 13.7014C15.7273 13.8454 15.4043 13.4626 15.3086 13.3267C15.4681 13.4749 15.8111 13.5984 15.7752 13.7014ZM15.7632 13.5614C15.8829 13.5367 15.7592 13.4379 15.6157 13.2773C15.6117 13.4461 15.6356 13.5655 15.7632 13.5614Z" fill="white" stroke="#BD6B00" stroke-width="0.0443108"/>
<path fill-rule="evenodd" clip-rule="evenodd" d="M15.5676 13.4639C15.6195 13.4104 15.5238 13.3857 15.4041 13.2457C15.3842 13.3404 15.5158 13.5133 15.5716 13.4639H15.5676ZM16.126 14.0896C16.1898 14.1308 16.2297 13.9949 16.1539 13.8755C16.1339 14.0073 16.0701 14.0402 16.126 14.0896ZM14.7621 13.2539C14.6305 13.3363 14.4191 13.0069 14.3633 12.8711C14.4789 13.0275 14.786 13.1675 14.7621 13.2539Z" fill="white" stroke="#BD6B00" stroke-width="0.0443108"/>
<path fill-rule="evenodd" clip-rule="evenodd" d="M14.879 13.4429C14.8032 13.5253 14.5719 13.2989 14.4922 13.1836C14.6118 13.2947 14.9109 13.3071 14.879 13.4429Z" fill="white" stroke="#BD6B00" stroke-width="0.0443108"/>
<path fill-rule="evenodd" clip-rule="evenodd" d="M15.0012 13.6152C14.9772 13.7305 14.6423 13.4712 14.5625 13.3477C14.7061 13.4917 15.0251 13.4794 15.0012 13.6152Z" fill="white" stroke="#BD6B00" stroke-width="0.0443108"/>
<path fill-rule="evenodd" clip-rule="evenodd" d="M14.9495 13.7437C14.8977 13.8466 14.6225 13.5873 14.5547 13.4556C14.7262 13.6038 14.9934 13.6408 14.9535 13.7437H14.9495ZM14.8099 13.2374C14.8937 13.1427 14.8578 13.0974 14.794 12.9492C14.7621 13.1015 14.7102 13.1633 14.8099 13.2374ZM14.9256 13.4144C15.0851 13.4226 14.9256 13.225 14.8857 13.0563C14.9016 13.2456 14.8458 13.3979 14.9256 13.4144Z" fill="white" stroke="#BD6B00" stroke-width="0.0443108"/>
<path fill-rule="evenodd" clip-rule="evenodd" d="M15.0246 13.5701C15.1323 13.5454 15.1044 13.3849 15.0166 13.1914C15.0366 13.4014 14.9249 13.5207 15.0246 13.5701ZM14.9847 13.8871C14.9449 14.0106 14.6338 13.7225 14.5859 13.6072C14.7455 13.7472 15.0127 13.7924 14.9847 13.8871Z" fill="white" stroke="#BD6B00" stroke-width="0.0443108"/>
<path fill-rule="evenodd" clip-rule="evenodd" d="M15.1737 14.0842C15.1298 14.2077 14.8028 13.9525 14.7031 13.8125C14.8985 13.9772 15.1976 13.9607 15.1737 14.0842Z" fill="white" stroke="#BD6B00" stroke-width="0.0443108"/>
<path fill-rule="evenodd" clip-rule="evenodd" d="M15.3656 14.2866C15.3138 14.4636 14.9708 14.1795 14.8711 14.0396C15.0864 14.2125 15.3895 14.1631 15.3656 14.2866ZM15.0466 13.8337C15.1383 13.879 15.1742 13.6114 15.1223 13.418C15.1223 13.6238 14.9349 13.7802 15.0426 13.8296L15.0466 13.8337Z" fill="white" stroke="#BD6B00" stroke-width="0.0443108"/>
<path fill-rule="evenodd" clip-rule="evenodd" d="M15.2014 14.0478C15.3131 14.0807 15.2812 13.7884 15.1815 13.5949C15.1695 13.7884 15.0898 13.9654 15.2014 14.0478ZM15.4008 14.2495C15.5205 14.2536 15.4407 13.9984 15.337 13.8543C15.353 14.0395 15.2972 14.2248 15.4008 14.2495ZM15.1815 14.3565C15.1416 14.4224 15.0539 14.303 14.9023 14.2124C15.0379 14.2536 15.1975 14.2948 15.1815 14.3565ZM15.1097 12.1871C15.2294 12.0965 15.1376 11.9318 15.1097 11.7754C15.0698 11.9236 14.9741 12.1212 15.1097 12.1871ZM15.1097 12.4052C14.9303 12.3847 14.9582 12.1541 14.9502 12.0059C15.006 12.2076 15.1496 12.2406 15.1097 12.4093V12.4052ZM15.1336 12.3764C15.2812 12.3682 15.2732 12.1953 15.2812 12.0224C15.2054 12.1829 15.1217 12.2076 15.1336 12.3764Z" fill="white" stroke="#BD6B00" stroke-width="0.0443108"/>
<path fill-rule="evenodd" clip-rule="evenodd" d="M15.1291 12.5896C15.0094 12.6019 14.9536 12.4825 14.9297 12.3014C15.0374 12.4702 15.1331 12.4167 15.1291 12.5896ZM15.169 12.5772C15.3165 12.5978 15.2886 12.4208 15.2886 12.2891C15.2407 12.4126 15.1211 12.4537 15.169 12.5772Z" fill="white" stroke="#BD6B00" stroke-width="0.0443108"/>
<path fill-rule="evenodd" clip-rule="evenodd" d="M14.9375 12.5039C14.9495 12.6192 15.0212 12.8168 15.1369 12.7715C15.1808 12.6315 15.0332 12.6027 14.9375 12.5039Z" fill="white" stroke="#BD6B00" stroke-width="0.0443108"/>
<path fill-rule="evenodd" clip-rule="evenodd" d="M15.1705 12.7841C15.1226 12.6853 15.2901 12.6317 15.322 12.5C15.342 12.6894 15.326 12.8129 15.1705 12.7882V12.7841ZM14.6959 11.582C14.7876 11.4832 14.7079 11.3185 14.6799 11.1621C14.6401 11.3103 14.5802 11.5079 14.6959 11.582ZM14.6959 11.7714C14.5364 11.792 14.4965 11.4544 14.4766 11.3062C14.5324 11.5079 14.7158 11.5944 14.6959 11.7755V11.7714ZM14.7278 11.7714C14.8395 11.7096 14.8155 11.5779 14.8474 11.4832C14.7757 11.6026 14.7039 11.6191 14.7278 11.7714Z" fill="white" stroke="#BD6B00" stroke-width="0.0443108"/>
<path fill-rule="evenodd" clip-rule="evenodd" d="M14.6892 11.9929C14.5256 12.0052 14.4259 11.6306 14.418 11.4824C14.4698 11.6841 14.7131 11.7912 14.6931 11.9929H14.6892ZM14.725 11.9846C14.8846 11.9476 14.8646 11.8406 14.8407 11.6718C14.7889 11.8447 14.7011 11.8076 14.725 11.9846Z" fill="white" stroke="#BD6B00" stroke-width="0.0443108"/>
<path fill-rule="evenodd" clip-rule="evenodd" d="M14.6901 12.2086C14.5067 12.2416 14.5186 11.9369 14.3711 11.7188C14.4987 11.8834 14.73 12.0892 14.6901 12.2086ZM14.73 12.1963C14.8736 12.2045 14.8895 11.9863 14.8816 11.8958C14.8457 11.9863 14.6822 12.0687 14.734 12.2004L14.73 12.1963Z" fill="white" stroke="#BD6B00" stroke-width="0.0443108"/>
<path fill-rule="evenodd" clip-rule="evenodd" d="M14.4023 11.9727C14.4701 12.2073 14.5698 12.442 14.6895 12.4255C14.7493 12.2896 14.5738 12.2732 14.4023 11.9727Z" fill="white" stroke="#BD6B00" stroke-width="0.0443108"/>
<path fill-rule="evenodd" clip-rule="evenodd" d="M14.7363 12.3895C14.6884 12.2866 14.8559 12.2372 14.8878 12.1055C14.9078 12.2948 14.8918 12.4183 14.7363 12.3895ZM14.4531 12.2413C14.5528 12.4513 14.5967 12.6941 14.7323 12.6571C14.7841 12.4924 14.5807 12.4595 14.4531 12.2413Z" fill="white" stroke="#BD6B00" stroke-width="0.0443108"/>
<path fill-rule="evenodd" clip-rule="evenodd" d="M14.7584 12.62C14.6986 12.5047 14.8661 12.4677 14.91 12.3154C14.9299 12.513 14.91 12.657 14.7584 12.6159V12.62ZM15.0456 11.1998C15.1413 11.2245 15.245 11.1133 15.2091 10.9445C15.0974 10.9692 15.0496 11.0763 15.0456 11.1998ZM14.7305 11.1133C14.7385 11.1627 14.7983 11.1668 14.7784 11.0968C14.7635 11.0515 14.7635 11.0023 14.7784 10.9569C14.7976 10.8953 14.7976 10.8291 14.7784 10.7675C14.7624 10.7263 14.7066 10.751 14.7305 10.784C14.7545 10.821 14.7584 10.8992 14.7385 10.9363C14.7146 10.9898 14.7226 11.0598 14.7305 11.1133ZM15.6438 11.772C15.6039 11.8255 15.5281 11.7884 15.5879 11.7102C15.6358 11.6485 15.7076 11.595 15.7076 11.5291C15.7156 11.4468 15.7594 11.3233 15.8033 11.278C15.8472 11.2327 15.899 11.2944 15.8512 11.3274C15.7993 11.3603 15.7634 11.5085 15.7674 11.5661C15.7634 11.6485 15.6876 11.7102 15.6438 11.772ZM15.5241 11.6773C15.4843 11.7349 15.4284 11.6979 15.4603 11.6073C15.4882 11.5456 15.4922 11.4632 15.5241 11.4179C15.572 11.348 15.6438 11.2903 15.6876 11.245C15.7355 11.2039 15.7674 11.245 15.7275 11.2862C15.6786 11.3366 15.6346 11.3918 15.5959 11.4509C15.5401 11.5414 15.564 11.6155 15.5241 11.6773V11.6773ZM14.898 11.3809C14.894 11.4632 14.9578 11.4797 14.9539 11.3644C14.9539 11.2409 14.8661 11.1257 14.914 10.9404C14.9459 10.8498 14.9459 10.6811 14.9299 10.5946C14.914 10.5041 14.8502 10.5617 14.8781 10.6317C14.902 10.714 14.8741 10.8622 14.8542 10.9404C14.7943 11.1627 14.902 11.2697 14.894 11.3809H14.898ZM15.0695 10.9281C15.0615 11.0063 14.9977 11.0104 15.0177 10.9075C15.0336 10.8251 15.0336 10.7593 15.0177 10.6893C14.9937 10.6028 15.0017 10.4547 15.0177 10.3929C15.0376 10.327 15.0974 10.3641 15.0735 10.4135C15.0457 10.4913 15.0415 10.576 15.0615 10.6564C15.0855 10.7387 15.0815 10.854 15.0695 10.9322V10.9281ZM14.4474 12.4553C14.4793 12.4924 14.5271 12.4677 14.4873 12.4142C14.4474 12.373 14.4593 12.3648 14.4354 12.3154C14.4115 12.2577 14.4155 12.2289 14.3876 12.1919C14.3596 12.1507 14.3238 12.1919 14.3477 12.2207C14.3796 12.2618 14.3716 12.2865 14.3876 12.3236C14.4274 12.3853 14.4155 12.4183 14.4474 12.4553V12.4553ZM15.2609 13.468C15.3097 13.4958 15.3511 13.5355 15.3817 13.5835C15.4123 13.6316 15.431 13.6866 15.4364 13.7438C15.4406 13.8463 15.4679 13.9464 15.5162 14.0361C15.4364 14.0155 15.3965 13.8838 15.3846 13.7562C15.3726 13.6244 15.3048 13.5709 15.2649 13.468H15.2609ZM15.4643 13.7109C15.5321 13.8385 15.6238 13.8879 15.6318 13.9826C15.6398 14.0937 15.6478 14.0979 15.6757 14.2049C15.5959 14.1843 15.576 14.1761 15.556 14.0114C15.5441 13.8961 15.4524 13.8179 15.4643 13.7109V13.7109Z" fill="white" stroke="#BD6B00" stroke-width="0.0443108"/>
<path fill-rule="evenodd" clip-rule="evenodd" d="M17.5615 14.8965C17.6014 14.9706 17.6412 15.0818 17.721 15.0612C17.721 15.0077 17.6373 14.9665 17.5615 14.8965ZM17.6811 14.9212C17.8287 14.9871 17.9603 14.9706 17.9802 15.0694C17.8367 15.0859 17.7808 15.0283 17.6771 14.9212H17.6811ZM17.0391 14.3984C17.1382 14.478 17.2084 14.5896 17.2385 14.7154C17.2706 14.8292 17.319 14.9374 17.382 15.0365C17.2783 14.9646 17.2033 14.8564 17.1707 14.7319C17.1428 14.6084 17.1069 14.5137 17.0391 14.4026V14.3984ZM17.1627 14.3984C17.2744 14.489 17.378 14.596 17.4099 14.7237C17.4418 14.843 17.4618 14.9336 17.5376 15.053C17.4179 14.9748 17.3741 14.8595 17.3382 14.7319C17.3102 14.6084 17.2385 14.5178 17.1627 14.4026V14.3984ZM17.5296 14.699C17.528 14.6887 17.5299 14.6781 17.535 14.6691C17.5401 14.6601 17.5481 14.6532 17.5575 14.6496C17.5916 14.6371 17.6262 14.6261 17.6612 14.6166C17.7011 14.6043 17.725 14.6331 17.725 14.6537V14.736C17.725 14.7648 17.717 14.7689 17.6971 14.773C17.6692 14.7772 17.6293 14.7813 17.6014 14.8019C17.5774 14.8183 17.5535 14.806 17.5415 14.7813L17.5296 14.699V14.699ZM17.9523 14.699C17.9523 14.6743 17.9443 14.6537 17.9284 14.6496C17.8981 14.6366 17.8654 14.631 17.8327 14.6331C17.7928 14.6331 17.7888 14.6413 17.7888 14.6578V14.7442C17.7888 14.7772 17.7888 14.7772 17.8048 14.7854C17.8327 14.7854 17.8765 14.7854 17.9045 14.8101C17.9244 14.8224 17.9443 14.8101 17.9483 14.7854L17.9523 14.699V14.699Z" fill="white"/>
<path fill-rule="evenodd" clip-rule="evenodd" d="M19.7039 11.7342C19.7518 11.6519 19.8116 11.8495 20.015 11.9936C20.1067 12.0594 20.1745 12.2365 20.1745 12.3517C20.1745 12.4341 20.1665 12.5123 20.1745 12.5905C20.1785 12.6358 20.2303 12.7469 20.1944 12.7757C20.1067 12.8416 19.9911 12.998 19.9392 13.0516C19.8914 13.0927 19.8515 12.8334 19.8196 12.7222C19.7797 12.5987 19.7956 12.4464 19.692 12.3353C19.6202 12.2529 19.4367 12.1788 19.4527 12.1459L19.7039 11.7342Z" fill="white" stroke="#BD6B00" stroke-width="0.0443108"/>
<path fill-rule="evenodd" clip-rule="evenodd" d="M19.7123 12.3674C19.7282 12.3286 19.7497 12.2925 19.7761 12.2604C19.8016 12.2279 19.8345 12.2024 19.8719 12.1863C19.9086 12.1751 19.9417 12.1537 19.9676 12.1246C19.9828 12.1069 19.9938 12.0857 19.9995 12.0628C20.004 12.0356 20.004 12.0077 19.9995 11.9805L20.0114 11.9928C20.1032 12.0587 20.1709 12.2357 20.1709 12.351C20.1722 12.3825 20.1722 12.4141 20.1709 12.4456C20.163 12.4662 20.159 12.4868 20.147 12.4992L20.1032 12.5321L19.9955 12.5609C19.9552 12.5796 19.9197 12.6078 19.8918 12.6432C19.8628 12.675 19.8386 12.7111 19.82 12.7503L19.812 12.7173C19.7801 12.6062 19.7841 12.4745 19.7083 12.3674H19.7123Z" fill="#BF0000" stroke="#BD6B00" stroke-width="0.0443108"/>
<path d="M20.0002 11.9766C20.0202 12.1124 19.9444 12.1618 19.8726 12.1865C19.8008 12.2153 19.741 12.2935 19.7131 12.3676M20.1797 12.4294C20.1478 12.5529 20.068 12.5364 19.9962 12.5611C19.9245 12.5899 19.8487 12.6846 19.8168 12.7587" stroke="#BD6B00" stroke-width="0.0443108"/>
<path fill-rule="evenodd" clip-rule="evenodd" d="M19.7695 11.6517L19.7297 11.627L19.0238 12.8578L19.0637 12.8825L19.7695 11.6475V11.6517Z" fill="white" stroke="#BD6B00" stroke-width="0.0443108"/>
<path fill-rule="evenodd" clip-rule="evenodd" d="M19.6959 11.6034C19.6959 11.6252 19.7044 11.6462 19.7193 11.6616C19.7343 11.677 19.7546 11.6857 19.7757 11.6857C19.7969 11.6857 19.8171 11.677 19.8321 11.6616C19.8471 11.6462 19.8555 11.6252 19.8555 11.6034C19.8555 11.5815 19.8471 11.5606 19.8321 11.5452C19.8171 11.5297 19.7969 11.521 19.7757 11.521C19.7546 11.521 19.7343 11.5297 19.7193 11.5452C19.7044 11.5606 19.6959 11.5815 19.6959 11.6034ZM19.0898 10.6154H18.8026V10.6813H19.0898V10.6154ZM19.0898 10.743H18.8026V11.3111H19.0898V10.743ZM19.1057 10.5372H18.7867C18.7787 10.426 18.8864 10.3066 18.9462 10.3066C19.01 10.3108 19.1097 10.4301 19.1057 10.5372Z" fill="white" stroke="#BD6B00" stroke-width="0.0443108"/>
<path fill-rule="evenodd" clip-rule="evenodd" d="M18.2943 10.4703C18.3541 10.495 18.4019 10.565 18.4299 10.6474C18.4578 10.7297 18.4697 10.8244 18.4538 10.8985C18.4538 10.9273 18.4418 10.9438 18.4339 10.9602C18.4259 10.9726 18.4179 10.9808 18.4099 10.9808C18.398 10.9808 18.386 10.9808 18.382 10.9685L18.374 10.9355C18.378 10.8532 18.378 10.7791 18.3621 10.7132C18.3443 10.6401 18.3019 10.5759 18.2424 10.5321C18.2305 10.5239 18.2265 10.5115 18.2225 10.5033C18.2226 10.4924 18.2269 10.4821 18.2345 10.4745C18.2504 10.4621 18.2743 10.458 18.2943 10.4703ZM18.2863 10.4868C18.2703 10.4786 18.2544 10.4868 18.2464 10.4909L18.2424 10.4992C18.2424 10.5033 18.2424 10.5074 18.2544 10.5156C18.3157 10.562 18.3594 10.629 18.378 10.705C18.3946 10.7806 18.3986 10.8585 18.39 10.9355C18.39 10.9444 18.3928 10.9531 18.398 10.9602C18.398 10.9602 18.398 10.9643 18.4059 10.9602C18.4059 10.9602 18.4139 10.9602 18.4219 10.9479C18.4298 10.9324 18.4352 10.9157 18.4378 10.8985C18.4498 10.8244 18.4378 10.7338 18.4099 10.6515C18.382 10.5774 18.3381 10.5115 18.2903 10.4868H18.2863Z" fill="#BD6B00"/>
<path fill-rule="evenodd" clip-rule="evenodd" d="M18.1889 10.5492C18.2487 10.578 18.2886 10.6439 18.3085 10.7221C18.3297 10.8012 18.3338 10.8841 18.3205 10.965C18.3125 11.0185 18.2806 11.0473 18.2567 11.0473C18.2447 11.0514 18.2327 11.0473 18.2248 11.035C18.2168 11.0226 18.2128 11.0103 18.2168 10.9938C18.2327 10.9279 18.2367 10.8538 18.2288 10.7839C18.2168 10.7139 18.1889 10.6521 18.141 10.6151C18.1291 10.6027 18.1211 10.5945 18.1211 10.5821C18.1207 10.5777 18.1212 10.5732 18.1226 10.5689C18.124 10.5647 18.1262 10.5608 18.1291 10.5574C18.145 10.5451 18.1689 10.541 18.1889 10.5492ZM18.1809 10.5698C18.1649 10.5616 18.149 10.5657 18.141 10.5698L18.137 10.5821L18.149 10.5986C18.1758 10.6208 18.198 10.6482 18.2144 10.6793C18.2309 10.7104 18.2412 10.7445 18.2447 10.7797C18.2567 10.8538 18.2487 10.9321 18.2367 10.9938C18.2327 11.0103 18.2367 11.0185 18.2367 11.0267L18.2567 11.0308C18.2686 11.0308 18.2965 11.0103 18.3045 10.9609C18.3165 10.8909 18.3125 10.8003 18.2926 10.7262C18.2726 10.6521 18.2327 10.5904 18.1809 10.5698V10.5698Z" fill="#BD6B00"/>
<path fill-rule="evenodd" clip-rule="evenodd" d="M19.1051 11.7715H18.7861V12.2243H19.1051V11.7715ZM19.0852 12.4878H18.7781V12.5866H19.0852V12.4878ZM19.0932 12.6566H18.7741V13.0147H19.0932V12.6566ZM19.1171 13.0888H18.7702V13.2905H19.1171V13.0888ZM19.0732 12.4054H18.7941L18.7382 12.3066H19.1211L19.0732 12.4054V12.4054ZM18.6984 12.0514L18.6944 11.8044H18.503C18.5852 11.8705 18.652 11.955 18.6984 12.0514V12.0514Z" fill="white" stroke="#BD6B00" stroke-width="0.0443108"/>
<path fill-rule="evenodd" clip-rule="evenodd" d="M19.0508 12.155C19.0508 12.2085 18.991 12.1879 18.991 12.1591V11.9286C18.991 11.8874 18.8953 11.8957 18.8953 11.9245V12.1715C18.8953 12.2126 18.8275 12.2085 18.8314 12.1715V11.8833C18.8314 11.7927 19.0508 11.7969 19.0508 11.8792V12.155ZM19.0508 12.7025H18.8235V12.9907H19.0508V12.7025Z" stroke="#BD6B00" stroke-width="0.0443108"/>
<path fill-rule="evenodd" clip-rule="evenodd" d="M18.9074 12.8251H18.8277V12.8663H18.9074V12.8251ZM19.047 12.8251H18.9673V12.8663H19.047V12.8251ZM18.9673 12.7016H18.9074V12.8251H18.9673V12.7016ZM18.9673 12.8663H18.9074V12.9939H18.9673V12.8663ZM20.2315 9.77885C20.2155 10.0053 20.2873 10.1329 20.4029 10.1123C20.4348 9.9888 20.3631 9.90235 20.2315 9.77885ZM20.4907 10.2852C20.5944 10.2317 20.5186 9.81178 20.4787 9.63477C20.4508 9.86118 20.3989 10.1823 20.4907 10.2852Z" fill="white" stroke="#BD6B00" stroke-width="0.0443108"/>
<path fill-rule="evenodd" clip-rule="evenodd" d="M20.454 10.3061C20.2785 10.3679 20.1349 10.1744 20.0911 9.94799C20.2346 10.1538 20.4699 10.1538 20.45 10.3061H20.454ZM20.5856 10.5161C20.7212 10.479 20.6414 10.0344 20.6135 9.85742C20.5856 10.0427 20.4899 10.4543 20.5856 10.5161ZM20.5377 10.5037C20.5297 10.3514 20.3822 10.3926 20.2785 10.3103C20.2984 10.3926 20.3583 10.5243 20.5377 10.5037ZM20.7052 10.7096C20.8408 10.6684 20.761 10.1909 20.769 9.99327C20.7291 10.1662 20.6015 10.6643 20.7052 10.7096ZM20.6414 10.689C20.5297 10.726 20.3822 10.6478 20.3702 10.512C20.4699 10.5819 20.6215 10.5284 20.6414 10.689Z" fill="white" stroke="#BD6B00" stroke-width="0.0443108"/>
<path fill-rule="evenodd" clip-rule="evenodd" d="M20.8106 10.9185C20.9382 10.9308 20.8824 10.5233 20.8824 10.1445C20.8345 10.4986 20.7029 10.8238 20.8106 10.9185Z" fill="white" stroke="#BD6B00" stroke-width="0.0443108"/>
<path fill-rule="evenodd" clip-rule="evenodd" d="M20.7617 10.9022C20.674 10.9433 20.5185 10.8734 20.4746 10.721C20.6341 10.791 20.7378 10.721 20.7617 10.9022ZM19.7408 9.98828C19.7647 10.19 19.8445 10.3053 19.9601 10.2847C19.992 10.1612 19.8963 10.0788 19.7408 9.98828ZM20.0519 10.4987C19.8564 10.5276 19.7887 10.3752 19.6531 10.1735C19.8405 10.3135 20.0598 10.3382 20.0519 10.5029V10.4987Z" fill="white" stroke="#BD6B00" stroke-width="0.0443108"/>
<path fill-rule="evenodd" clip-rule="evenodd" d="M20.1124 10.4795C20.2161 10.3478 20.1124 10.179 20.0326 10.0391C20.0486 10.249 19.9808 10.3684 20.1124 10.4795ZM20.1523 10.6977C20.1682 10.566 19.9529 10.5372 19.8572 10.4672C19.893 10.5413 19.9369 10.743 20.1562 10.6977H20.1523Z" fill="white" stroke="#BD6B00" stroke-width="0.0443108"/>
<path fill-rule="evenodd" clip-rule="evenodd" d="M20.2011 10.697C20.3486 10.6806 20.2888 10.4212 20.1811 10.2812C20.225 10.4788 20.1014 10.6147 20.2011 10.697Z" fill="white" stroke="#BD6B00" stroke-width="0.0443108"/>
<path fill-rule="evenodd" clip-rule="evenodd" d="M20.3128 10.9142C20.4802 10.8319 20.3726 10.6178 20.3128 10.4902C20.3367 10.659 20.2011 10.7866 20.3128 10.9101V10.9142Z" fill="white" stroke="#BD6B00" stroke-width="0.0443108"/>
<path fill-rule="evenodd" clip-rule="evenodd" d="M20.2815 10.8898C20.1937 11.0133 20.0223 10.8569 19.9864 10.6758C20.1339 10.8034 20.2456 10.7828 20.2815 10.894V10.8898ZM20.6643 11.7255C20.6803 11.5485 20.5527 11.2315 20.6444 11.0586C20.6564 11.0339 20.6165 10.9722 20.5886 11.0092C20.5487 11.071 20.5088 11.2439 20.4889 11.178C20.4729 11.108 20.4689 10.9886 20.4091 10.9639C20.3692 10.9516 20.3174 10.9392 20.3333 11.0051C20.3493 11.0627 20.3812 11.1451 20.3453 11.1492C20.3253 11.1492 20.2655 11.0669 20.2137 11.0257C20.1738 10.9928 20.11 11.0504 20.1738 11.0998C20.3652 11.2645 20.5527 11.3427 20.6643 11.7255V11.7255ZM21.0113 14.3807C21.0352 14.3807 21.0631 14.3684 21.0352 14.4054C20.8079 14.6936 20.7441 14.7759 20.4131 14.7348C20.0821 14.6895 20.0023 14.5948 19.767 14.459C19.6989 14.422 19.6244 14.3993 19.5477 14.3922C19.471 14.3851 19.3938 14.3938 19.3204 14.4178C19.2566 14.4384 19.2167 14.4384 19.2645 14.389C19.3124 14.3437 19.3642 14.2778 19.4241 14.2325C19.5728 14.1298 19.7542 14.09 19.9305 14.1214C20.1698 14.1626 20.3732 14.3231 20.6165 14.3849C20.7468 14.412 20.881 14.412 21.0113 14.3849V14.3807ZM19.105 14.8953C19.0651 14.9035 19.0372 14.9859 19.0133 14.9324C18.9814 14.8377 19.0053 14.7677 19.0452 14.7718C19.0931 14.7842 19.1688 14.8953 19.105 14.8953Z" fill="white" stroke="#BD6B00" stroke-width="0.0443108"/>
<path fill-rule="evenodd" clip-rule="evenodd" d="M21.1668 11.5897C21.2147 11.532 21.2027 11.5156 21.127 11.5115C21.0711 11.5115 20.9595 11.5526 20.9156 11.5156C20.8757 11.4868 20.8957 11.3633 20.8757 11.3097C20.8678 11.2727 20.8478 11.2274 20.796 11.3015C20.6524 11.5403 20.4769 11.8284 20.3972 12.1084C20.3573 12.2648 20.3972 12.5118 20.5328 12.6765C20.5328 12.5365 20.5806 12.4418 20.6404 12.3224C20.7202 12.1701 21.0033 11.7461 21.1668 11.5856V11.5897Z" fill="white"/>
<path fill-rule="evenodd" clip-rule="evenodd" d="M20.5709 12.8424C20.4113 12.8424 20.3834 12.6242 20.3834 12.5625C20.4632 12.579 20.5988 12.7148 20.5709 12.8424ZM19.195 14.979C19.0834 15.0037 19.0873 14.7237 19.203 14.6043C19.1511 14.7855 19.2828 14.9501 19.199 14.9748L19.195 14.979ZM19.2429 14.9748C19.2349 15.1066 19.5619 14.9584 19.6417 14.8513C19.4502 14.9378 19.2508 14.8678 19.2429 14.9748ZM19.3825 14.7855C19.3705 14.9131 19.6616 14.7978 19.7533 14.699C19.5579 14.7649 19.3944 14.6784 19.3825 14.7814V14.7855ZM19.3306 14.8019C19.215 14.8308 19.2349 14.5385 19.3466 14.4397C19.2907 14.6332 19.4183 14.7731 19.3306 14.8019ZM19.4502 14.6249C19.3346 14.6537 19.4024 14.4026 19.4861 14.3038C19.4702 14.485 19.526 14.6126 19.4463 14.6249H19.4502ZM19.5101 14.6249C19.4981 14.7567 19.7254 14.6579 19.8132 14.5302C19.6217 14.592 19.522 14.5179 19.5101 14.6249ZM19.5699 14.522C19.4981 14.4685 19.5739 14.3244 19.7174 14.3326C19.7015 14.4191 19.6536 14.5755 19.5699 14.522ZM19.0116 15.1272C19.0076 15.2589 19.3306 15.193 19.4343 15.0531C19.2269 15.0942 19.0235 15.0201 19.0156 15.1272H19.0116ZM20.3037 14.8884C20.2917 15.0201 20.6466 14.8719 20.7344 14.7484C20.5469 14.8143 20.3156 14.7814 20.3037 14.8884ZM20.0883 14.9419C20.0126 14.8884 20.1641 14.7484 20.2877 14.7155C20.2718 14.8019 20.1681 14.9954 20.0883 14.946V14.9419ZM20.0644 15.0366C20.0564 15.156 20.4433 15.0901 20.543 14.979C20.212 15.0407 20.0764 14.9337 20.0644 15.0366Z" fill="white" stroke="#BD6B00" stroke-width="0.0443108"/>
<path fill-rule="evenodd" clip-rule="evenodd" d="M19.8811 15.1141C19.8413 15.2253 20.2121 15.1964 20.3438 15.1347C20.1324 15.1347 19.913 15.0359 19.8811 15.1141Z" fill="white" stroke="#BD6B00" stroke-width="0.0443108"/>
<path fill-rule="evenodd" clip-rule="evenodd" d="M19.7091 15.1968C19.6692 15.2956 20.0122 15.2956 20.1797 15.2379C19.9564 15.2379 19.749 15.098 19.7091 15.1968ZM19.4579 15.2503C19.3941 15.3697 19.761 15.3779 19.8766 15.3203C19.6692 15.2914 19.5097 15.1556 19.4579 15.2503ZM19.8846 15.0486C20.0002 15.1227 19.9923 14.9004 20.084 14.748C19.9404 14.8839 19.8048 14.9786 19.8846 15.0486Z" fill="white" stroke="#BD6B00" stroke-width="0.0443108"/>
<path fill-rule="evenodd" clip-rule="evenodd" d="M19.6777 15.1302C19.7735 15.2167 19.8532 14.912 19.9409 14.7391C19.7974 14.9038 19.59 15.0561 19.6777 15.1261V15.1302ZM19.4066 15.2126C19.4863 15.3114 19.7256 14.9244 19.8133 14.7186C19.6817 14.8791 19.3428 15.1302 19.4066 15.2126ZM19.6379 15.509C19.6777 15.6572 20.2839 15.369 20.3557 15.2167C20.0048 15.406 19.6299 15.3649 19.6379 15.5048V15.509ZM21.58 12.4709C21.596 12.4503 21.6358 12.4709 21.6279 12.5162C21.6159 12.5779 21.5282 12.8949 21.3766 13.0019C21.2689 13.0843 20.6987 13.2119 20.4434 13.2695C20.2999 13.2983 20.1842 13.3724 20.0885 13.4877C20.1213 13.3511 20.1612 13.2164 20.2081 13.0843C20.256 12.9608 20.3836 12.829 20.5192 12.8249C20.7625 12.8126 21.0815 12.792 21.3168 12.6891C21.4234 12.6427 21.5157 12.5673 21.584 12.4709H21.58Z" fill="white" stroke="#BD6B00" stroke-width="0.0443108"/>
<path fill-rule="evenodd" clip-rule="evenodd" d="M20.1735 13.7271C20.0938 13.7847 20.01 13.5748 20.1057 13.373C20.1097 13.5665 20.2573 13.6324 20.1735 13.7271Z" fill="white" stroke="#BD6B00" stroke-width="0.0443108"/>
<path fill-rule="evenodd" clip-rule="evenodd" d="M20.0952 13.9207C19.9875 13.9536 19.9556 13.756 20.0234 13.5996C20.0115 13.7684 20.1949 13.8713 20.0952 13.9207Z" fill="white" stroke="#BD6B00" stroke-width="0.0443108"/>
<path fill-rule="evenodd" clip-rule="evenodd" d="M20.0123 14.0774C19.9086 14.131 19.8728 13.9292 19.9445 13.7852C19.9366 13.9704 20.0921 14.028 20.0123 14.0733V14.0774Z" fill="white" stroke="#BD6B00" stroke-width="0.0443108"/>
<path fill-rule="evenodd" clip-rule="evenodd" d="M20.056 14.0884C20.0958 14.2119 20.3351 13.9772 20.375 13.8496C20.2274 14.0019 20.028 13.9813 20.056 14.0843V14.0884Z" fill="white" stroke="#BD6B00" stroke-width="0.0443108"/>
<path fill-rule="evenodd" clip-rule="evenodd" d="M20.1634 13.8953C20.2112 14.0188 20.5103 13.6894 20.5781 13.5371C20.4306 13.6894 20.1315 13.8047 20.1634 13.8911V13.8953Z" fill="white" stroke="#BD6B00" stroke-width="0.0443108"/>
<path fill-rule="evenodd" clip-rule="evenodd" d="M20.2248 13.7014C20.2727 13.8454 20.5957 13.4626 20.6914 13.3267C20.5319 13.4749 20.1889 13.5984 20.2248 13.7014ZM20.2368 13.5614C20.1171 13.5367 20.2408 13.4379 20.3843 13.2773C20.3883 13.4461 20.3644 13.5655 20.2368 13.5614Z" fill="white" stroke="#BD6B00" stroke-width="0.0443108"/>
<path fill-rule="evenodd" clip-rule="evenodd" d="M20.4324 13.4639C20.3805 13.4104 20.4762 13.3857 20.5959 13.2457C20.6158 13.3404 20.4842 13.5133 20.4284 13.4639H20.4324ZM19.874 14.0896C19.8102 14.1308 19.7703 13.9949 19.8461 13.8755C19.8661 14.0073 19.9299 14.0402 19.874 14.0896ZM21.2379 13.2539C21.3695 13.3363 21.5809 13.0069 21.6367 12.8711C21.5211 13.0275 21.214 13.1675 21.2379 13.2539Z" fill="white" stroke="#BD6B00" stroke-width="0.0443108"/>
<path fill-rule="evenodd" clip-rule="evenodd" d="M21.121 13.4429C21.1968 13.5253 21.4281 13.2989 21.5078 13.1836C21.3882 13.2947 21.0891 13.3071 21.121 13.4429Z" fill="white" stroke="#BD6B00" stroke-width="0.0443108"/>
<path fill-rule="evenodd" clip-rule="evenodd" d="M20.9988 13.6152C21.0228 13.7305 21.3577 13.4712 21.4375 13.3477C21.2939 13.4917 20.9749 13.4794 20.9988 13.6152Z" fill="white" stroke="#BD6B00" stroke-width="0.0443108"/>
<path fill-rule="evenodd" clip-rule="evenodd" d="M21.0505 13.7437C21.1023 13.8466 21.3775 13.5873 21.4453 13.4556C21.2738 13.6038 21.0066 13.6408 21.0465 13.7437H21.0505ZM21.1901 13.2374C21.1063 13.1427 21.1422 13.0974 21.206 12.9492C21.2379 13.1015 21.2898 13.1633 21.1901 13.2374ZM21.0744 13.4144C20.9149 13.4226 21.0744 13.225 21.1143 13.0563C21.0984 13.2456 21.1542 13.3979 21.0744 13.4144Z" fill="white" stroke="#BD6B00" stroke-width="0.0443108"/>
<path fill-rule="evenodd" clip-rule="evenodd" d="M20.9754 13.5701C20.8677 13.5454 20.8956 13.3849 20.9834 13.1914C20.9634 13.4014 21.0751 13.5207 20.9754 13.5701ZM21.0153 13.8871C21.0551 14.0106 21.3662 13.7225 21.4141 13.6072C21.2545 13.7472 20.9873 13.7924 21.0153 13.8871Z" fill="white" stroke="#BD6B00" stroke-width="0.0443108"/>
<path fill-rule="evenodd" clip-rule="evenodd" d="M20.8263 14.0842C20.8702 14.2077 21.1972 13.9525 21.2969 13.8125C21.1015 13.9772 20.8024 13.9607 20.8263 14.0842Z" fill="white" stroke="#BD6B00" stroke-width="0.0443108"/>
<path fill-rule="evenodd" clip-rule="evenodd" d="M20.6344 14.2866C20.6862 14.4636 21.0292 14.1795 21.1289 14.0396C20.9136 14.2125 20.6105 14.1631 20.6344 14.2866ZM20.9534 13.8337C20.8617 13.879 20.8258 13.6114 20.8777 13.418C20.8777 13.6238 21.0651 13.7802 20.9574 13.8296L20.9534 13.8337Z" fill="white" stroke="#BD6B00" stroke-width="0.0443108"/>
<path fill-rule="evenodd" clip-rule="evenodd" d="M20.7986 14.0478C20.6869 14.0807 20.7188 13.7884 20.8185 13.5949C20.8305 13.7884 20.9102 13.9654 20.7986 14.0478ZM20.5992 14.2495C20.4795 14.2536 20.5593 13.9984 20.663 13.8543C20.647 14.0395 20.7028 14.2248 20.5992 14.2495ZM20.8185 14.3565C20.8584 14.4224 20.9461 14.303 21.0977 14.2124C20.9621 14.2536 20.8025 14.2948 20.8185 14.3565ZM20.8903 12.1871C20.7706 12.0965 20.8624 11.9318 20.8903 11.7754C20.9302 11.9236 21.0259 12.1212 20.8903 12.1871ZM20.8903 12.4052C21.0697 12.3847 21.0418 12.1541 21.0498 12.0059C20.994 12.2076 20.8504 12.2406 20.8903 12.4093V12.4052ZM20.8664 12.3764C20.7188 12.3682 20.7268 12.1953 20.7188 12.0224C20.7946 12.1829 20.8783 12.2076 20.8664 12.3764Z" fill="white" stroke="#BD6B00" stroke-width="0.0443108"/>
<path fill-rule="evenodd" clip-rule="evenodd" d="M20.8709 12.5896C20.9906 12.6019 21.0464 12.4825 21.0703 12.3014C20.9626 12.4702 20.8669 12.4167 20.8709 12.5896ZM20.831 12.5772C20.6835 12.5978 20.7114 12.4208 20.7114 12.2891C20.7593 12.4126 20.8789 12.4537 20.831 12.5772Z" fill="white" stroke="#BD6B00" stroke-width="0.0443108"/>
<path fill-rule="evenodd" clip-rule="evenodd" d="M21.0625 12.5039C21.0505 12.6192 20.9788 12.8168 20.8631 12.7715C20.8192 12.6315 20.9668 12.6027 21.0625 12.5039Z" fill="white" stroke="#BD6B00" stroke-width="0.0443108"/>
<path fill-rule="evenodd" clip-rule="evenodd" d="M20.8295 12.7841C20.8774 12.6853 20.7099 12.6317 20.678 12.5C20.658 12.6894 20.674 12.8129 20.8295 12.7882V12.7841ZM21.3041 11.582C21.2124 11.4832 21.2921 11.3185 21.3201 11.1621C21.3599 11.3103 21.4198 11.5079 21.3041 11.582ZM21.3041 11.7714C21.4636 11.792 21.5035 11.4544 21.5234 11.3062C21.4676 11.5079 21.2842 11.5944 21.3041 11.7755V11.7714ZM21.2722 11.7714C21.1605 11.7096 21.1845 11.5779 21.1526 11.4832C21.2243 11.6026 21.2961 11.6191 21.2722 11.7714Z" fill="white" stroke="#BD6B00" stroke-width="0.0443108"/>
<path fill-rule="evenodd" clip-rule="evenodd" d="M21.3108 11.9929C21.4744 12.0052 21.5741 11.6306 21.582 11.4824C21.5302 11.6841 21.2869 11.7912 21.3069 11.9929H21.3108ZM21.275 11.9846C21.1154 11.9476 21.1354 11.8406 21.1593 11.6718C21.2111 11.8447 21.2989 11.8076 21.275 11.9846Z" fill="white" stroke="#BD6B00" stroke-width="0.0443108"/>
<path fill-rule="evenodd" clip-rule="evenodd" d="M21.3099 12.2086C21.4933 12.2416 21.4814 11.9369 21.6289 11.7188C21.5013 11.8834 21.27 12.0892 21.3099 12.2086ZM21.27 12.1963C21.1264 12.2045 21.1105 11.9863 21.1184 11.8958C21.1543 11.9863 21.3178 12.0687 21.266 12.2004L21.27 12.1963Z" fill="white" stroke="#BD6B00" stroke-width="0.0443108"/>
<path fill-rule="evenodd" clip-rule="evenodd" d="M21.5977 11.9727C21.5299 12.2073 21.4302 12.442 21.3105 12.4255C21.2507 12.2896 21.4262 12.2732 21.5977 11.9727Z" fill="white" stroke="#BD6B00" stroke-width="0.0443108"/>
<path fill-rule="evenodd" clip-rule="evenodd" d="M21.2637 12.3895C21.3116 12.2866 21.1441 12.2372 21.1122 12.1055C21.0922 12.2948 21.1082 12.4183 21.2637 12.3895ZM21.5469 12.2413C21.4472 12.4513 21.4033 12.6941 21.2677 12.6571C21.2159 12.4924 21.4193 12.4595 21.5469 12.2413Z" fill="white" stroke="#BD6B00" stroke-width="0.0443108"/>
<path fill-rule="evenodd" clip-rule="evenodd" d="M21.2416 12.62C21.3014 12.5047 21.1339 12.4677 21.09 12.3154C21.0701 12.513 21.09 12.657 21.2416 12.6159V12.62ZM20.9544 11.1998C20.8587 11.2245 20.755 11.1133 20.7909 10.9445C20.9026 10.9692 20.9504 11.0763 20.9544 11.1998ZM21.2695 11.1133C21.2615 11.1627 21.2017 11.1668 21.2216 11.0968C21.2365 11.0515 21.2365 11.0023 21.2216 10.9569C21.2024 10.8953 21.2024 10.8291 21.2216 10.7675C21.2376 10.7263 21.2934 10.751 21.2695 10.784C21.2455 10.821 21.2416 10.8992 21.2615 10.9363C21.2854 10.9898 21.2774 11.0598 21.2695 11.1133ZM20.3562 11.772C20.3961 11.8255 20.4719 11.7884 20.4121 11.7102C20.3642 11.6485 20.2924 11.595 20.2924 11.5291C20.2844 11.4468 20.2406 11.3233 20.1967 11.278C20.1528 11.2327 20.101 11.2944 20.1488 11.3274C20.2007 11.3603 20.2366 11.5085 20.2326 11.5661C20.2366 11.6485 20.3124 11.7102 20.3562 11.772ZM20.4759 11.6773C20.5157 11.7349 20.5716 11.6979 20.5397 11.6073C20.5118 11.5456 20.5078 11.4632 20.4759 11.4179C20.428 11.348 20.3562 11.2903 20.3124 11.245C20.2645 11.2039 20.2326 11.245 20.2725 11.2862C20.3214 11.3366 20.3654 11.3918 20.4041 11.4509C20.4599 11.5414 20.436 11.6155 20.4759 11.6773V11.6773ZM21.102 11.3809C21.106 11.4632 21.0422 11.4797 21.0461 11.3644C21.0461 11.2409 21.1339 11.1257 21.086 10.9404C21.0541 10.8498 21.0541 10.6811 21.0701 10.5946C21.086 10.5041 21.1498 10.5617 21.1219 10.6317C21.098 10.714 21.1259 10.8622 21.1458 10.9404C21.2057 11.1627 21.098 11.2697 21.106 11.3809H21.102ZM20.9305 10.9281C20.9385 11.0063 21.0023 11.0104 20.9823 10.9075C20.9664 10.8251 20.9664 10.7593 20.9823 10.6893C21.0063 10.6028 20.9983 10.4547 20.9823 10.3929C20.9624 10.327 20.9026 10.3641 20.9265 10.4135C20.9543 10.4913 20.9585 10.576 20.9385 10.6564C20.9145 10.7387 20.9185 10.854 20.9305 10.9322V10.9281ZM21.5526 12.4553C21.5207 12.4924 21.4729 12.4677 21.5127 12.4142C21.5526 12.373 21.5407 12.3648 21.5646 12.3154C21.5885 12.2577 21.5845 12.2289 21.6124 12.1919C21.6404 12.1507 21.6762 12.1919 21.6523 12.2207C21.6204 12.2618 21.6284 12.2865 21.6124 12.3236C21.5726 12.3853 21.5845 12.4183 21.5526 12.4553V12.4553ZM20.7391 13.468C20.6903 13.4958 20.6489 13.5355 20.6183 13.5835C20.5877 13.6316 20.569 13.6866 20.5636 13.7438C20.5594 13.8463 20.5321 13.9464 20.4838 14.0361C20.5636 14.0155 20.6035 13.8838 20.6154 13.7562C20.6274 13.6244 20.6952 13.5709 20.7351 13.468H20.7391ZM20.5357 13.7109C20.4679 13.8385 20.3762 13.8879 20.3682 13.9826C20.3602 14.0937 20.3522 14.0979 20.3243 14.2049C20.4041 14.1843 20.424 14.1761 20.444 14.0114C20.4559 13.8961 20.5476 13.8179 20.5357 13.7109V13.7109Z" fill="white" stroke="#BD6B00" stroke-width="0.0443108"/>
<path fill-rule="evenodd" clip-rule="evenodd" d="M18.4385 14.8965C18.3986 14.9706 18.3588 15.0818 18.279 15.0612C18.279 15.0077 18.3627 14.9665 18.4385 14.8965ZM18.3189 14.9212C18.1713 14.9871 18.0397 14.9706 18.0198 15.0694C18.1633 15.0859 18.2192 15.0283 18.3229 14.9212H18.3189ZM18.9609 14.3984C18.8618 14.478 18.7916 14.5896 18.7615 14.7154C18.7294 14.8292 18.681 14.9374 18.618 15.0365C18.7217 14.9646 18.7967 14.8564 18.8293 14.7319C18.8572 14.6084 18.8931 14.5137 18.9609 14.4026V14.3984ZM18.8373 14.3984C18.7256 14.489 18.622 14.596 18.5901 14.7237C18.5582 14.843 18.5382 14.9336 18.4624 15.053C18.5821 14.9748 18.6259 14.8595 18.6618 14.7319C18.6898 14.6084 18.7615 14.5178 18.8373 14.4026V14.3984ZM18.4704 14.699C18.472 14.6887 18.4701 14.6781 18.465 14.6691C18.4599 14.6601 18.4519 14.6532 18.4425 14.6496C18.4084 14.6371 18.3738 14.6261 18.3388 14.6166C18.2989 14.6043 18.275 14.6331 18.275 14.6537V14.736C18.275 14.7648 18.283 14.7689 18.3029 14.773C18.3308 14.7772 18.3707 14.7813 18.3986 14.8019C18.4226 14.8183 18.4465 14.806 18.4585 14.7813L18.4704 14.699V14.699ZM18.0477 14.699C18.0477 14.6743 18.0557 14.6537 18.0716 14.6496C18.1019 14.6366 18.1346 14.631 18.1673 14.6331C18.2072 14.6331 18.2112 14.6413 18.2112 14.6578V14.7442C18.2112 14.7772 18.2112 14.7772 18.1952 14.7854C18.1673 14.7854 18.1235 14.7854 18.0955 14.8101C18.0756 14.8224 18.0557 14.8101 18.0517 14.7854L18.0477 14.699V14.699Z" fill="white"/>
<path fill-rule="evenodd" clip-rule="evenodd" d="M19.1377 15.8548C19.1377 15.9042 19.1456 15.9453 19.1775 15.9824C18.9951 15.9255 18.7986 15.9417 18.6272 16.0277C18.5554 16.0606 18.4677 15.9865 18.5514 15.9165C18.6711 15.8218 18.9383 15.8753 19.1377 15.8548V15.8548ZM16.8446 15.8548C16.848 15.8966 16.8426 15.9388 16.8286 15.9783C17.0041 15.9083 17.1915 15.97 17.371 16.0441C17.4906 16.0976 17.5026 16.003 17.4827 15.9741C17.4606 15.9397 17.4311 15.911 17.3965 15.8903C17.3619 15.8696 17.3232 15.8574 17.2833 15.8548H16.8446V15.8548ZM16.9961 14.9615C16.9443 14.9409 16.8884 14.9615 16.8366 15.0191C16.6651 15.192 16.4617 15.3608 16.2982 15.4966C16.2384 15.5501 16.1786 15.6489 16.4338 15.7436C16.4458 15.7518 16.6332 15.8259 16.7529 15.8259C16.8047 15.8259 16.8047 15.9 16.7927 15.9206C16.7728 15.9618 16.7887 15.9783 16.7489 16.0153C16.705 16.0565 16.7489 16.1018 16.7887 16.0688C16.9323 15.9371 17.1716 16.0235 17.3989 16.0976C17.4547 16.1141 17.5505 16.11 17.5505 16.0318C17.5505 15.9494 17.6103 15.8918 17.6462 15.8877C17.7419 15.9042 18.2045 15.9083 18.3441 15.8918C18.4238 15.8795 18.4318 16.0112 18.4757 16.0565C18.5076 16.0935 18.6232 16.1018 18.707 16.0647C18.8665 15.9906 19.1058 15.9906 19.2055 16.0647C19.2453 16.0935 19.2812 16.0647 19.2573 16.0359C19.2254 15.9947 19.2294 15.97 19.2134 15.9371C19.1736 15.8548 19.2055 15.8383 19.2453 15.8342C19.684 15.7724 19.8276 15.6201 19.692 15.4925C19.5165 15.3361 19.3251 15.1755 19.1576 14.9903C19.1097 14.9409 19.0778 14.9203 18.9861 14.9615C18.6685 15.1101 18.3257 15.1926 17.9772 15.2043C17.6395 15.1818 17.3079 15.1011 16.9961 14.9656V14.9615Z" fill="white"/>
<path fill-rule="evenodd" clip-rule="evenodd" d="M19.0606 14.9863L18.9968 15.0028C18.6379 15.1345 18.3108 15.2251 17.9719 15.2251C17.6409 15.2251 17.2939 15.1263 16.9789 14.9946C16.9595 14.9877 16.9384 14.9877 16.919 14.9946C16.8991 14.9987 16.8792 15.011 16.8672 15.0234C16.7198 15.1755 16.5626 15.3172 16.3966 15.4474C16.3687 15.468 16.3727 15.5215 16.4165 15.538C16.7475 15.6615 17.0706 15.8879 17.9958 15.8796C18.933 15.8714 19.264 15.6491 19.5591 15.5462C19.579 15.538 19.599 15.5256 19.6109 15.505C19.6138 15.5001 19.6156 15.4947 19.6163 15.489C19.617 15.4833 19.6165 15.4776 19.6149 15.4721C19.6098 15.4592 19.6015 15.4479 19.591 15.4392C19.4195 15.2951 19.24 15.1798 19.1204 15.011C19.1084 14.9904 19.0845 14.9863 19.0606 14.9904V14.9863ZM19.0606 15.0069C19.0805 15.0069 19.1005 15.0069 19.1044 15.0193C19.2241 15.1963 19.4115 15.3074 19.579 15.4515L19.595 15.4803C19.5961 15.4829 19.5966 15.4857 19.5966 15.4886C19.5966 15.4914 19.5961 15.4942 19.595 15.4968C19.591 15.5091 19.571 15.5215 19.5551 15.5256C19.252 15.6326 18.929 15.8549 17.9998 15.8632C17.0746 15.8714 16.7555 15.645 16.4245 15.5215C16.3926 15.505 16.3966 15.4721 16.4086 15.4639C16.5761 15.3321 16.7356 15.1839 16.8792 15.0357C16.8915 15.0238 16.9066 15.0153 16.923 15.011H16.9709C17.2861 15.1524 17.6244 15.2306 17.9679 15.2416C18.3148 15.2416 18.6458 15.151 19.0047 15.0234C19.024 15.0155 19.0441 15.01 19.0646 15.0069H19.0606Z" fill="#BD6B00"/>
<path fill-rule="evenodd" clip-rule="evenodd" d="M16.7915 8.77407C16.7915 8.71644 16.8712 8.71232 16.8633 8.79054C16.8513 8.88522 17.0427 9.13222 17.0587 9.28453C17.0706 9.38745 16.9989 9.4739 16.9311 9.53153C16.892 9.56011 16.846 9.57714 16.7983 9.58077C16.7505 9.58439 16.7026 9.57449 16.6599 9.55211C16.624 9.51918 16.5921 9.41626 16.62 9.3751C16.628 9.36275 16.6718 9.52741 16.7676 9.52741C16.8992 9.52741 17.0068 9.4245 17.0068 9.33393C17.0148 9.1775 16.7955 8.9305 16.7915 8.77407ZM17.1703 9.16103C17.1943 9.14457 17.2262 9.21455 17.2022 9.23101C17.1823 9.24336 17.1424 9.1775 17.1703 9.15692V9.16103ZM17.2302 9.01695C17.2182 9.02518 17.1983 9.01695 17.2022 9.00872C17.2406 8.95375 17.2894 8.90751 17.3458 8.87287C17.3618 8.86464 17.3857 8.88934 17.3777 8.90168C17.337 8.9505 17.2867 8.9898 17.2302 9.01695V9.01695ZM17.7326 8.60529C17.7446 8.58059 17.8164 8.55177 17.8363 8.53531C17.8523 8.51472 17.8603 8.55177 17.8523 8.56412C17.8403 8.59294 17.7765 8.6341 17.7486 8.63822C17.7366 8.63822 17.7247 8.62175 17.7326 8.6094V8.60529ZM17.9041 8.61764C17.9251 8.5629 17.9595 8.51468 18.0038 8.47767C18.0238 8.46532 18.0557 8.47767 18.0477 8.49414C18.0206 8.54859 17.9809 8.59526 17.932 8.62999C17.9201 8.64234 17.9001 8.62999 17.9041 8.61764V8.61764ZM17.7566 8.72879C17.7446 8.73702 17.7526 8.7576 17.7606 8.76172C17.7845 8.76995 17.8204 8.76995 17.8403 8.76172C17.8643 8.74525 17.8523 8.64234 17.8204 8.69585C17.7965 8.72879 17.7805 8.72055 17.7566 8.72879ZM17.4655 8.95932C17.4136 8.91815 17.4814 8.86052 17.5333 8.90168C17.6409 8.98402 17.3737 9.30511 17.2302 9.45331C17.2023 9.48213 17.1783 9.41215 17.2142 9.3751C17.318 9.2853 17.4081 9.17982 17.4814 9.06223C17.4974 9.04165 17.5093 8.99637 17.4655 8.95932ZM18.0756 8.68762C18.0796 8.64645 18.0118 8.68762 18.0118 8.6341C18.0118 8.60529 18.0876 8.58471 18.1195 8.61764C18.1713 8.67527 18.1314 8.76995 18.0397 8.77819C17.9679 8.77819 17.8403 8.88934 17.8603 8.90992C17.8802 8.93873 18.0756 8.9552 18.1913 8.93873C18.2631 8.92638 18.2471 8.99225 18.1753 9.00048C18.1035 9.00872 18.0477 9.00048 17.9839 9.02518C17.9041 9.04577 17.8722 9.14868 17.8284 9.18985C17.8204 9.19808 17.7965 9.15692 17.8044 9.14045C17.8363 9.09105 17.8842 9.01695 17.94 8.99225C17.9719 8.9799 17.8443 8.97578 17.8044 8.96343C17.7725 8.9552 17.7805 8.90992 17.7925 8.88522C17.8084 8.85229 17.9281 8.72467 17.9799 8.72879C18.0238 8.72879 18.0716 8.71644 18.0756 8.68762V8.68762ZM18.275 8.69585C18.2989 8.67527 18.3149 8.64234 18.3348 8.62175C18.3468 8.60941 18.3707 8.62175 18.3667 8.65469C18.3628 8.6835 18.3269 8.70409 18.3069 8.72467C18.287 8.73702 18.267 8.7082 18.279 8.69585H18.275ZM18.5342 8.60117C18.5701 8.60117 18.5741 8.66704 18.5422 8.67527C18.5183 8.6835 18.5023 8.60529 18.5342 8.60117ZM18.4505 8.807C18.4505 8.86875 18.4784 8.86464 18.5302 8.86052C18.5821 8.86052 18.626 8.86052 18.626 8.81112C18.626 8.7576 18.598 8.7082 18.5861 8.74525C18.5821 8.77819 18.5741 8.83582 18.5542 8.81112C18.5382 8.79054 18.5462 8.78642 18.5143 8.81935C18.4944 8.83994 18.4944 8.81112 18.4824 8.79465C18.4744 8.7823 18.4505 8.80289 18.4505 8.81112V8.807ZM18.0836 9.1034C18.0716 9.18162 18.0836 9.28865 18.1195 9.28865C18.1673 9.28865 18.2631 9.12398 18.3109 9.03342C18.3388 8.98402 18.3827 8.97578 18.3628 9.0293C18.3348 9.10752 18.3388 9.2763 18.3628 9.3257C18.3787 9.3504 18.4824 9.301 18.4983 9.26395C18.5302 9.19396 18.5023 9.06635 18.5143 8.98813C18.5183 8.93873 18.5661 8.92638 18.5621 8.97578C18.5559 9.07857 18.5545 9.18161 18.5582 9.28453C18.5582 9.3257 18.6738 9.38333 18.6898 9.25983C18.6977 9.18573 18.7376 9.10752 18.6898 9.02518C18.6579 8.97167 18.7336 8.97578 18.7735 9.04988C18.8014 9.09928 18.7496 9.18162 18.7536 9.24336C18.7536 9.34216 18.6818 9.3998 18.6299 9.3998C18.5821 9.3998 18.5502 9.33805 18.5103 9.33805C18.4704 9.33805 18.4226 9.40803 18.3907 9.40391C18.2471 9.39568 18.3229 9.18573 18.279 9.18162C18.2311 9.18162 18.1793 9.38745 18.1195 9.38333C18.0637 9.3751 17.9998 9.21043 18.0278 9.14457C18.0477 9.0787 18.0876 9.06223 18.0836 9.1034V9.1034ZM18.7576 8.77407C18.6898 8.7329 18.7576 8.62176 18.7935 8.6588C18.8573 8.74114 18.9211 8.92638 18.9689 8.94285C18.9968 8.95108 18.9929 8.80289 19.0128 8.73702C19.0287 8.6835 19.0846 8.69997 19.0766 8.76584C19.0726 8.78642 18.9968 9.0293 19.0048 9.03753C19.0579 9.14027 19.102 9.24774 19.1364 9.35863C19.1484 9.40803 19.0926 9.3751 19.0846 9.36686C19.0487 9.30923 18.9889 9.09928 18.9889 9.11163L18.9211 9.42861C18.9131 9.46978 18.8533 9.46155 18.8692 9.38745C18.8812 9.32981 18.9609 9.04577 18.957 9.03342C18.9113 8.93192 18.8429 8.84304 18.7576 8.77407V8.77407Z" fill="white"/>
<path fill-rule="evenodd" clip-rule="evenodd" d="M18.8775 9.4571C18.8616 9.4571 18.8297 9.49827 18.9254 9.51885C19.049 9.54355 19.1886 9.49827 19.2285 9.37065C19.2803 9.21834 19.3082 9.07426 19.3362 9.02074C19.3681 8.95899 19.4079 8.96311 19.376 8.87254C19.3561 8.80256 19.3162 8.82314 19.3082 8.86019C19.2883 8.95488 19.2046 9.27185 19.1766 9.32537C19.1288 9.4324 19.0291 9.47357 18.8775 9.4571Z" fill="white"/>
<path fill-rule="evenodd" clip-rule="evenodd" d="M19.1349 8.95463C19.1189 8.92581 19.087 8.95463 19.095 8.98344C19.0969 8.99507 19.1028 9.00562 19.1116 9.01317C19.1203 9.02072 19.1314 9.02478 19.1429 9.02461C19.1708 9.02461 19.2306 9.02873 19.2306 8.98344C19.2306 8.95051 19.2027 8.9217 19.1867 8.95875C19.1668 8.99168 19.1469 8.98756 19.1349 8.95875V8.95463ZM19.1628 8.83113C19.1548 8.83936 19.1628 8.87641 19.1748 8.8723C19.2206 8.87263 19.2658 8.86132 19.3064 8.83936C19.3143 8.83113 19.3104 8.81055 19.2984 8.81055C19.2585 8.81055 19.1947 8.81055 19.1628 8.83113V8.83113ZM19.5137 8.92581C19.5457 8.87641 19.6254 8.8723 19.5935 8.94228C19.5116 9.11203 19.4278 9.28082 19.3423 9.44862C19.3104 9.50626 19.2864 9.47744 19.3104 9.43216C19.3383 9.37452 19.5058 8.93816 19.5137 8.92581Z" fill="white"/>
<path fill-rule="evenodd" clip-rule="evenodd" d="M19.205 9.53106C19.197 9.49812 19.1452 9.44872 19.1532 9.53929C19.1612 9.69572 19.3725 9.64632 19.4323 9.59281C19.4922 9.53929 19.4443 9.76982 19.5201 9.79452C19.5599 9.80687 19.6397 9.74924 19.6796 9.69572C19.7873 9.55164 19.859 9.34169 19.9587 9.20173C19.9986 9.14409 19.9388 9.10293 19.9189 9.14821C19.8232 9.30464 19.7115 9.62574 19.5879 9.70807C19.4882 9.77394 19.5201 9.62574 19.5161 9.57634C19.5121 9.54341 19.4722 9.49401 19.4204 9.53929C19.3787 9.57376 19.3262 9.59132 19.2728 9.58869C19.2449 9.58869 19.217 9.58869 19.205 9.53106Z" fill="white"/>
<path fill-rule="evenodd" clip-rule="evenodd" d="M19.5805 9.24421C19.5805 9.23186 19.5367 9.22774 19.5407 9.27302C19.5407 9.30595 19.5805 9.31419 19.5845 9.31419C19.6443 9.26479 19.5726 9.28949 19.5805 9.24009V9.24421ZM19.4888 9.42534C19.4769 9.42534 19.4649 9.4665 19.4968 9.47062L19.6523 9.46239C19.6683 9.46239 19.6763 9.42534 19.6364 9.42945C19.5885 9.42945 19.5287 9.4171 19.4888 9.42945V9.42534ZM17.0163 8.74198C17.0362 8.74198 17.0801 8.79961 17.0761 8.82019C17.0761 8.82843 17.0282 8.82019 17.0163 8.80784C17.0043 8.79549 17.0083 8.74198 17.0163 8.74198V8.74198ZM16.8049 9.17011C16.765 9.19481 16.8129 9.24009 16.8448 9.21951C16.9565 9.14129 17.1239 9.06307 17.1638 8.91076C17.1758 8.86136 17.2197 8.78314 17.2635 8.76668C17.3034 8.74609 17.3672 8.84489 17.4071 8.76668C17.431 8.72551 17.5148 8.79549 17.5347 8.75021C17.5586 8.6967 17.5467 8.66788 17.5467 8.61025C17.5467 8.57731 17.5188 8.56908 17.4988 8.6226C17.4908 8.6473 17.4988 8.672 17.4948 8.68846C17.4869 8.6967 17.4709 8.70493 17.4549 8.6967C17.447 8.68846 17.455 8.66788 17.431 8.65553C17.423 8.65553 17.4071 8.65141 17.3991 8.66376C17.3712 8.71728 17.3592 8.76668 17.3154 8.70493C17.2795 8.66376 17.2595 8.57731 17.2356 8.69258C17.2276 8.73374 17.1678 8.79138 17.1319 8.79138C17.0881 8.79138 17.1 8.66788 17.0043 8.68846C16.9525 8.70081 16.9565 8.79961 16.9644 8.83254C16.9764 8.88606 17.1239 8.84901 17.112 8.88194C17.0881 8.99309 16.9365 9.10424 16.8049 9.17011V9.17011ZM15.8996 9.7135C15.8957 9.73408 15.9196 9.78348 15.9435 9.7876C15.9674 9.7876 15.9834 9.73408 15.9754 9.7135C15.9674 9.70115 15.9036 9.70115 15.8996 9.7135ZM16.0312 9.91521C16.0153 9.89875 15.9674 9.94403 16.0073 9.97696C16.0273 9.99755 16.107 10.0222 16.127 9.9852C16.1589 9.9358 16.099 9.75878 16.127 9.7382C16.1469 9.71762 16.2386 9.85347 16.2865 9.8617C16.3941 9.87817 16.3662 9.67233 16.4859 9.6888C16.5616 9.69703 16.5696 9.59823 16.5577 9.53237C16.5497 9.47062 16.454 9.38417 16.4101 9.343C16.3543 9.2936 16.3264 9.38417 16.3622 9.40887C16.4101 9.45004 16.4938 9.52825 16.5058 9.57765C16.5098 9.60235 16.45 9.65175 16.4261 9.6394C16.3702 9.60647 16.3224 9.47474 16.2745 9.44592C16.2586 9.43769 16.2187 9.45827 16.2346 9.49944C16.2586 9.54472 16.3543 9.61059 16.3583 9.65998C16.3622 9.70115 16.3184 9.79172 16.2865 9.79172C16.2506 9.79172 16.1668 9.68057 16.1389 9.62705C16.123 9.60647 16.0791 9.60647 16.0711 9.64352C16.0685 9.71955 16.0752 9.79562 16.0911 9.86993C16.099 9.9358 16.0552 9.93991 16.0312 9.91521V9.91521ZM15.8717 9.56119C15.8558 9.57765 15.9036 9.61058 15.9116 9.60235C15.9276 9.58588 15.9954 9.50767 15.9834 9.47885C15.9714 9.45415 15.8797 9.39652 15.8637 9.42534C15.8358 9.47062 15.9515 9.49532 15.9315 9.50767C15.9092 9.52248 15.8891 9.5405 15.8717 9.56119V9.56119ZM16.0352 9.21539C16.0352 9.21539 16.0671 9.3183 16.0911 9.27302C16.107 9.24421 16.0352 9.21539 16.0352 9.21539ZM16.0831 9.38005C16.0751 9.38005 16.0432 9.40887 16.0631 9.42122C16.0951 9.43769 16.1788 9.45415 16.1589 9.3924C16.1469 9.35535 16.2865 9.3924 16.2506 9.2936C16.2362 9.26314 16.2123 9.23851 16.1828 9.22362C16.1668 9.22362 16.123 9.24421 16.1509 9.26067C16.1708 9.26891 16.2306 9.30596 16.2107 9.33065C16.1828 9.35535 16.1668 9.3183 16.1349 9.32654C16.119 9.32654 16.1309 9.37594 16.119 9.38829C16.119 9.39652 16.0911 9.37182 16.0831 9.37594V9.38005ZM16.3024 8.98898C16.2778 9.00996 16.2609 9.03902 16.2546 9.07131C16.2546 9.07954 16.2665 9.09601 16.2745 9.09189C16.2991 9.07265 16.3161 9.04486 16.3224 9.01368C16.3224 9.00133 16.3144 8.98074 16.3024 8.98898ZM16.4141 8.97663C16.3822 8.93546 16.454 8.86959 16.4819 8.95604C16.5018 9.00956 16.7012 9.28126 16.7411 9.37182C16.773 9.43357 16.7411 9.45827 16.7052 9.41299C16.6055 9.28126 16.5218 9.11659 16.4141 8.97663V8.97663ZM16.6215 8.98074C16.6574 8.93958 16.7291 8.85724 16.7092 8.81608C16.6932 8.77491 16.6494 8.77491 16.6414 8.78726C16.6015 8.84078 16.6733 8.82843 16.6613 8.84489C16.6414 8.88606 16.6215 8.91076 16.6095 8.95193C16.6055 8.96428 16.6135 8.98898 16.6215 8.98074ZM19.7241 9.11247C19.6962 9.09189 19.748 8.98898 19.7839 9.03014C19.8757 9.14129 19.9195 9.50767 19.9474 9.78348C19.9474 9.78348 19.9076 9.82053 19.9076 9.8123C19.9076 9.66822 19.8477 9.21951 19.7241 9.11247ZM17.6065 8.75844C17.5746 8.68435 17.6504 8.65965 17.6623 8.70905C17.7142 8.94781 17.8418 9.12894 17.9415 9.28949C17.9694 9.33889 17.9415 9.37182 17.8737 9.32242C17.8258 9.28949 17.774 9.16187 17.754 9.15776C17.7062 9.14952 17.6025 9.36359 17.3911 9.30184C17.3353 9.28537 17.3393 9.11659 17.3353 9.04249C17.3353 9.00544 17.3752 9.00133 17.3752 9.04249C17.3752 9.11247 17.3752 9.25656 17.4589 9.26479C17.5307 9.26479 17.6823 9.16599 17.7142 9.08366C17.7461 9.00133 17.6384 8.84078 17.6065 8.75433V8.75844Z" fill="white"/>
<path fill-rule="evenodd" clip-rule="evenodd" d="M19.781 9.75457C19.797 9.70517 20.0243 9.30997 20.0562 9.22352C20.0722 9.18236 20.136 9.29762 20.0722 9.35937C20.0163 9.40877 19.8528 9.6887 19.8209 9.7875C19.805 9.82867 19.7651 9.80808 19.781 9.75457V9.75457Z" fill="white"/>
<path fill-rule="evenodd" clip-rule="evenodd" d="M20.166 9.37946C20.2059 9.21479 20.3096 9.40416 20.2179 9.49472C20.0823 9.63469 20.0384 9.90227 19.8191 9.94343C19.7632 9.95578 19.6595 9.91462 19.6276 9.88992C19.6157 9.88168 19.6356 9.82405 19.6715 9.85287C19.7233 9.89403 19.835 9.90638 19.8948 9.85698C20.0251 9.72584 20.1188 9.56089 20.166 9.37946V9.37946ZM17.8929 9.90227C17.8809 9.91462 17.853 9.91462 17.849 9.93108C17.837 9.98872 17.849 10.0216 17.837 10.0793C17.8251 10.1369 17.7852 10.1369 17.7892 10.0916C17.7892 10.034 17.841 9.94755 17.8051 9.94343C17.7812 9.93932 17.7653 9.90638 17.7892 9.88992C17.833 9.8611 17.857 9.86522 17.8849 9.87345C17.8969 9.87757 17.9008 9.89403 17.8929 9.90227V9.90227Z" fill="white"/>
<path fill-rule="evenodd" clip-rule="evenodd" d="M17.8605 9.81998C17.8047 9.87761 17.7488 9.89819 17.697 9.96406C17.6731 9.98876 17.6771 10.0258 17.6611 10.0629C17.6491 10.0999 17.6053 10.104 17.5933 10.0999C17.5734 10.0834 17.5774 10.0176 17.5534 10.0505C17.5295 10.0876 17.5175 10.1328 17.4856 10.1328C17.4577 10.1328 17.4059 10.0711 17.4338 10.0711C17.5255 10.0587 17.5215 9.98876 17.5534 9.98052C17.5933 9.97641 17.5933 10.0423 17.6212 10.0299C17.6372 10.0217 17.6491 9.94347 17.6691 9.92289C17.7289 9.85702 17.7768 9.82409 17.8406 9.77469C17.8685 9.74999 17.8924 9.79528 17.8605 9.82409V9.81998ZM18.0719 10.0258C18.024 10.034 18.032 10.0958 18.0479 10.0999C18.0679 10.1123 18.1038 10.1164 18.1157 10.0464C18.1237 10.0176 18.1277 10.1905 18.1875 10.1246C18.2274 10.0834 18.3111 10.1328 18.347 10.0834C18.375 10.0464 18.3869 10.0217 18.363 9.97229C18.355 9.95994 18.3231 9.96406 18.3231 10.0011C18.3231 10.034 18.3032 10.0711 18.2713 10.067C18.2553 10.0629 18.2792 9.98876 18.2633 9.96817C18.2596 9.9644 18.2546 9.96229 18.2493 9.96229C18.2441 9.96229 18.2391 9.9644 18.2354 9.96817C18.2234 9.98464 18.2473 10.0587 18.2114 10.067C18.1636 10.0752 18.1875 10.0176 18.1716 10.0093C18.1038 9.97641 18.0998 10.0176 18.0719 10.0217V10.0258ZM18.4308 9.90231C18.4667 9.89407 18.4547 9.89407 18.5105 9.84879C18.5305 9.83232 18.5345 9.88172 18.5305 9.90231C18.5305 9.93112 18.4906 9.91054 18.4786 9.93936C18.4627 9.97641 18.4707 10.0629 18.4627 10.0958C18.4627 10.1123 18.4308 10.1123 18.4308 10.0958C18.4228 10.0546 18.4348 10.0135 18.4308 9.95994C18.4308 9.94347 18.4108 9.91466 18.4308 9.90642V9.90231ZM18.2314 9.79939C18.2234 9.83644 18.2234 9.86526 18.2234 9.89407C18.2234 9.91466 18.2633 9.90231 18.2633 9.89819C18.2633 9.86526 18.2713 9.81586 18.2633 9.80351C18.2553 9.79939 18.2354 9.79116 18.2314 9.79939Z" fill="white"/>
<path fill-rule="evenodd" clip-rule="evenodd" d="M17.9823 9.41602L17.9264 9.64655L17.8467 9.49011V9.65066L17.6712 9.4366L17.731 9.66713L17.5715 9.52716L17.6592 9.6836L17.3801 9.49835L17.5555 9.71241L17.3322 9.59715L17.4917 9.73711L17.1328 9.59715L17.4798 9.77416C17.6374 9.7001 17.8091 9.66352 17.9823 9.66713C18.1777 9.66713 18.3531 9.7083 18.4807 9.77416L18.8317 9.59715L18.4728 9.73711L18.6323 9.59715L18.413 9.71241L18.5844 9.49835L18.3053 9.6836L18.393 9.52716L18.2335 9.66301L18.2933 9.4366L18.1218 9.65066V9.49011L18.0421 9.64655L17.9823 9.41602V9.41602Z" fill="white"/>
<path d="M17.6753 14.4199L17.6641 14.5205H17.6491L17.6453 14.4508C17.6409 14.4296 17.6346 14.4089 17.6266 14.3889C17.6219 14.3715 17.6156 14.3547 17.6078 14.3386L17.5703 14.2844L17.6003 14.1992C17.6253 14.2256 17.6445 14.2573 17.6566 14.2921C17.6697 14.332 17.6761 14.3739 17.6753 14.416M17.9378 14.2534C17.9378 14.2805 17.9303 14.2999 17.9191 14.3115C17.9116 14.3231 17.8966 14.3347 17.8703 14.3386L17.8853 14.3966C17.8891 14.4223 17.8891 14.4484 17.8853 14.4741C17.8845 14.4909 17.8833 14.5076 17.8816 14.5244H17.8666C17.8666 14.5075 17.8654 14.4907 17.8628 14.4741C17.8615 14.4609 17.859 14.448 17.8553 14.4353L17.8403 14.3966C17.8329 14.3779 17.8241 14.3598 17.8141 14.3424L17.7766 14.2766L17.7991 14.1992L17.8366 14.2379C17.8478 14.2457 17.8591 14.2495 17.8741 14.2495C17.9041 14.2495 17.9191 14.2341 17.9191 14.1992H17.9341V14.2534M18.1741 14.4392L18.1553 14.5205C18.1403 14.5205 18.1328 14.5089 18.1253 14.4934L18.1103 14.4431C18.1076 14.4213 18.1063 14.3993 18.1066 14.3773C18.0944 14.3815 18.0818 14.3841 18.0691 14.385C18.0516 14.3859 18.0343 14.3804 18.0203 14.3695C18.0146 14.3649 18.0099 14.3591 18.0067 14.3524C18.0035 14.3457 18.0017 14.3383 18.0016 14.3308C18.0016 14.296 18.0128 14.265 18.0278 14.2418C18.0466 14.2147 18.0653 14.2031 18.0841 14.1992C18.1028 14.1992 18.1141 14.2031 18.1216 14.2147C18.128 14.2252 18.1318 14.2372 18.1328 14.2495V14.327C18.1328 14.3618 18.1366 14.385 18.1441 14.4005C18.1441 14.4121 18.1553 14.4237 18.1741 14.4392M18.0991 14.3037C18.0991 14.2805 18.0878 14.2728 18.0691 14.2728C18.0614 14.2716 18.0535 14.273 18.0466 14.2766C18.0391 14.2805 18.0391 14.2844 18.0391 14.2883C18.0391 14.2999 18.0503 14.3076 18.0766 14.3076L18.0991 14.3037ZM18.4253 14.4199L18.4141 14.5205C18.3953 14.505 18.3766 14.4818 18.3616 14.4431C18.341 14.3917 18.3247 14.3386 18.3128 14.2844C18.2941 14.3566 18.2716 14.4276 18.2453 14.4973C18.237 14.5081 18.2268 14.5173 18.2153 14.5244V14.4276C18.2378 14.4005 18.2491 14.385 18.2528 14.3695C18.2654 14.349 18.2755 14.3269 18.2828 14.3037L18.3016 14.1992H18.3166L18.3503 14.3037C18.3578 14.327 18.3691 14.3502 18.3841 14.3657L18.4216 14.4199" fill="white"/>
<path d="M19.1553 15.3632C19.1703 15.3786 19.1778 15.3941 19.1816 15.4096L19.1966 15.4715L19.1666 15.4754C19.1563 15.4546 19.1437 15.4351 19.1291 15.4173C19.116 15.4013 19.1022 15.3858 19.0878 15.3709C19.067 15.351 19.0458 15.3316 19.0241 15.3128C18.9999 15.2899 18.9749 15.268 18.9491 15.247C18.9341 15.2393 18.9266 15.2315 18.9266 15.2277C18.9206 15.2184 18.9167 15.2078 18.9153 15.1967C18.9114 15.1763 18.9089 15.1556 18.9078 15.1348L19.0091 15.2199C19.0413 15.2471 19.0726 15.2755 19.1028 15.3051L19.1553 15.3632M18.7991 15.1386L18.7916 15.2161H18.6753L18.6866 15.1386H18.7991M19.1141 15.4832L18.8291 15.5722L18.7803 15.4948L19.0241 15.4173L18.9978 15.3864C18.9881 15.3764 18.9767 15.3686 18.9641 15.3632C18.9642 15.3703 18.9629 15.3774 18.9603 15.3841C18.9577 15.3907 18.9539 15.3968 18.9491 15.4019C18.9391 15.4133 18.926 15.4214 18.9116 15.4251C18.8895 15.4313 18.8662 15.4313 18.8441 15.4251C18.8251 15.4228 18.8076 15.4131 18.7953 15.398C18.7786 15.3729 18.7695 15.3433 18.7691 15.3128C18.7691 15.2741 18.7803 15.2509 18.8028 15.2432C18.8291 15.2354 18.8703 15.2432 18.9153 15.2702C18.9595 15.2915 18.9981 15.3233 19.0278 15.3632L19.1141 15.4832ZM18.8966 15.3283C18.887 15.3233 18.877 15.3194 18.8666 15.3167C18.8592 15.3145 18.8514 15.3145 18.8441 15.3167C18.8403 15.3171 18.8367 15.3184 18.8335 15.3204C18.8302 15.3224 18.8274 15.3251 18.8253 15.3283C18.8229 15.3317 18.8216 15.3357 18.8216 15.3399C18.8216 15.3441 18.8229 15.3482 18.8253 15.3515L18.8441 15.3593H18.8666L18.8816 15.3477L18.8966 15.3283M18.5966 15.2664L18.5778 15.3438L18.4578 15.3322L18.4766 15.2548L18.5928 15.2664M18.8741 15.5644L18.8103 15.5799C18.7892 15.5835 18.7677 15.5835 18.7466 15.5799C18.7269 15.579 18.7077 15.5738 18.6903 15.5644C18.6791 15.5838 18.6603 15.6032 18.6341 15.6109C18.615 15.621 18.5949 15.6288 18.5741 15.6341L18.5291 15.6457L18.4916 15.5683L18.5328 15.5567C18.5494 15.5528 18.5657 15.5476 18.5816 15.5412L18.6153 15.5219L18.5778 15.5025H18.5516C18.5491 15.5019 18.5465 15.5019 18.5441 15.5025C18.5405 15.5055 18.5378 15.5095 18.5366 15.5141H18.5178C18.4991 15.4832 18.4953 15.4561 18.5066 15.4367C18.5178 15.4173 18.5403 15.4057 18.5816 15.398C18.6133 15.3889 18.6464 15.3863 18.6791 15.3902C18.7091 15.3941 18.7278 15.4057 18.7353 15.4251C18.7428 15.4328 18.7428 15.4444 18.7428 15.4522L18.7278 15.4986H18.7466C18.754 15.4998 18.7616 15.4998 18.7691 15.4986L18.8328 15.487L18.8703 15.5644M18.5703 15.6341L18.5103 15.6457C18.4819 15.6517 18.4524 15.6462 18.4278 15.6302C18.3976 15.6037 18.3755 15.5688 18.3641 15.5296L18.3341 15.4444C18.3284 15.4285 18.3179 15.4149 18.3041 15.4057C18.2935 15.398 18.2822 15.3915 18.2703 15.3864L18.2928 15.3051C18.3153 15.3167 18.3303 15.3283 18.3453 15.3438L18.3828 15.4096L18.4016 15.4677L18.4428 15.5528C18.4541 15.5644 18.4691 15.5683 18.4803 15.5644L18.5441 15.5567L18.5703 15.6341ZM18.3078 15.3438L18.2703 15.4173L18.1578 15.3902L18.1953 15.3167L18.3078 15.3438ZM18.3753 15.669L18.0941 15.6961L18.0791 15.6186L18.3116 15.5915C18.3064 15.5796 18.2987 15.5691 18.2891 15.5606C18.2771 15.5519 18.2646 15.5442 18.2516 15.5373L18.2703 15.4599C18.2966 15.4754 18.3153 15.4948 18.3303 15.5102C18.3416 15.5296 18.3528 15.5567 18.3603 15.5915L18.3753 15.669ZM18.1503 15.7077C18.1227 15.7069 18.0951 15.7044 18.0678 15.6999C18.0461 15.6953 18.0247 15.6889 18.0041 15.6806C17.9885 15.6878 17.9721 15.693 17.9553 15.6961C17.9341 15.6979 17.9128 15.6979 17.8916 15.6961H17.8166C17.8009 15.6961 17.7854 15.6921 17.7716 15.6844C17.7603 15.6767 17.7528 15.6651 17.7416 15.6457C17.7258 15.6628 17.7066 15.676 17.6853 15.6844L17.6216 15.6883H17.5578L17.5653 15.607H17.6291C17.6591 15.607 17.6853 15.607 17.7078 15.5915C17.7217 15.5862 17.7337 15.5767 17.7424 15.5643C17.7511 15.5519 17.756 15.5371 17.7566 15.5219L17.7828 15.5257C17.7812 15.5425 17.78 15.5593 17.7791 15.5761C17.7791 15.5877 17.7791 15.5954 17.7903 15.6032C17.8016 15.6109 17.8128 15.6148 17.8278 15.6148H17.8841C17.9216 15.6148 17.9441 15.6148 17.9591 15.607C17.9816 15.5993 17.9928 15.5877 17.9966 15.5644L18.0003 15.549C18.0003 15.549 18.0116 15.549 18.0191 15.5412L18.0378 15.5335V15.549C18.0379 15.5528 18.0379 15.5567 18.0378 15.5606L18.0266 15.6032C18.051 15.6117 18.0761 15.6182 18.1016 15.6225C18.1053 15.6148 18.1016 15.607 18.0978 15.5954L18.0866 15.5722C18.0866 15.568 18.0879 15.5639 18.0903 15.5606L18.1016 15.5528L18.1391 15.518L18.1578 15.5567V15.5954L18.1503 15.7077M17.7266 15.3709L17.6516 15.4212L17.6028 15.3864L17.5503 15.4251L17.4791 15.3864L17.5466 15.3361L17.6028 15.367L17.6591 15.3283L17.7266 15.367M17.6141 15.6844L17.3403 15.638L17.3703 15.5606L17.6028 15.5993C17.6028 15.5838 17.6028 15.5722 17.5953 15.5606C17.59 15.5497 17.5837 15.5393 17.5766 15.5296L17.6366 15.4638C17.6516 15.487 17.6591 15.5025 17.6628 15.5257C17.6628 15.5451 17.6553 15.5722 17.6441 15.607L17.6141 15.6844M17.3853 15.6457L17.3253 15.6341C17.2916 15.6264 17.2728 15.6109 17.2691 15.5877C17.2616 15.5644 17.2728 15.5296 17.2991 15.4793L17.3441 15.4019C17.3553 15.3825 17.3591 15.367 17.3553 15.3554C17.3531 15.3458 17.3493 15.3366 17.3441 15.3283L17.4266 15.2664C17.4378 15.2857 17.4378 15.3051 17.4378 15.3206C17.4378 15.3399 17.4266 15.3632 17.4116 15.3902L17.3816 15.4444C17.3647 15.4701 17.3532 15.4991 17.3478 15.5296C17.3478 15.5451 17.3553 15.5528 17.3666 15.5567L17.4266 15.5722L17.3853 15.6496M17.2428 15.3399L17.1491 15.3825L17.0816 15.3167L17.1791 15.278L17.2428 15.3438M17.2053 15.5993C17.1882 15.6205 17.1679 15.6388 17.1453 15.6535C17.1259 15.6659 17.1042 15.6738 17.0816 15.6767L16.9916 15.6728C16.9558 15.6674 16.9206 15.6583 16.8866 15.6457C16.8383 15.6318 16.7943 15.6051 16.7591 15.5683C16.7366 15.5373 16.7366 15.5102 16.7591 15.4832C16.7802 15.4579 16.8056 15.4369 16.8341 15.4212C16.8641 15.4019 16.9091 15.3825 16.9766 15.3593L16.9916 15.3786L16.8866 15.4251C16.8678 15.4367 16.8491 15.4483 16.8378 15.4638C16.8228 15.4793 16.8266 15.5025 16.8453 15.5257C16.913 15.5799 16.9959 15.6098 17.0816 15.6109C17.1266 15.6109 17.1566 15.5993 17.1678 15.5838C17.1791 15.5722 17.1828 15.5606 17.1866 15.5451L17.1941 15.4832L17.2878 15.4251C17.2883 15.4445 17.2871 15.464 17.2841 15.4832C17.276 15.5064 17.2633 15.5275 17.2466 15.5451L17.2016 15.5993" fill="#BF0000"/>
</g>
<defs>
<filter id="filter0_d_336_14277" x="0" y="-2" width="36" height="36" filterUnits="userSpaceOnUse" color-interpolation-filters="sRGB">
<feFlood flood-opacity="0" result="BackgroundImageFix"/>
<feColorMatrix in="SourceAlpha" type="matrix" values="0 0 0 0 0 0 0 0 0 0 0 0 0 0 0 0 0 0 127 0" result="hardAlpha"/>
<feOffset dy="4"/>
<feGaussianBlur stdDeviation="3"/>
<feComposite in2="hardAlpha" operator="out"/>
<feColorMatrix type="matrix" values="0 0 0 0 0 0 0 0 0 0 0 0 0 0 0 0 0 0 0.16 0"/>
<feBlend mode="normal" in2="BackgroundImageFix" result="effect1_dropShadow_336_14277"/>
<feBlend mode="normal" in="SourceGraphic" in2="effect1_dropShadow_336_14277" result="shape"/>
</filter>
</defs>
</svg>
