<svg width="36" height="31" viewBox="0 0 36 31" fill="none" xmlns="http://www.w3.org/2000/svg">
<g filter="url(#filter0_d_336_32836)">
<g clip-path="url(#clip0_336_32836)">
<path d="M6 15H30V21H6V15Z" fill="#1EB53A"/>
<path d="M6 3H30V9H6V3Z" fill="#0099B5"/>
<path d="M6 8.75977H30V15.2398H6V8.75977Z" fill="#CE1126"/>
<path d="M6 9.11914H30V14.8791H6V9.11914Z" fill="white"/>
<path d="M11.0389 8.0407C12.2318 8.0407 13.1989 7.07364 13.1989 5.8807C13.1989 4.68777 12.2318 3.7207 11.0389 3.7207C9.84597 3.7207 8.87891 4.68777 8.87891 5.8807C8.87891 7.07364 9.84597 8.0407 11.0389 8.0407Z" fill="white"/>
<path d="M11.7616 8.0407C12.9545 8.0407 13.9216 7.07364 13.9216 5.8807C13.9216 4.68777 12.9545 3.7207 11.7616 3.7207C10.5686 3.7207 9.60156 4.68777 9.60156 5.8807C9.60156 7.07364 10.5686 8.0407 11.7616 8.0407Z" fill="#0099B5"/>
<path d="M15.793 7.17578L15.6562 7.58618L15.865 7.65818" fill="white"/>
<path d="M15.7929 7.17578L15.9297 7.58618L15.7209 7.65818" fill="white"/>
<path d="M16.2024 7.47385L15.7698 7.47057L15.7659 7.6914" fill="white"/>
<path d="M16.2038 7.47341L15.8558 7.73034L15.7228 7.554" fill="white"/>
<path d="M15.3821 7.47341L15.7302 7.73034L15.8632 7.554" fill="white"/>
<path d="M15.3835 7.47385L15.8161 7.47057L15.82 7.6914" fill="white"/>
<path d="M16.0456 7.95736L15.915 7.54493L15.7038 7.60941" fill="white"/>
<path d="M16.0443 7.9567L15.6924 7.70509L15.819 7.52411" fill="white"/>
<path d="M15.5378 7.9567L15.8897 7.70509L15.7631 7.52411" fill="white"/>
<path d="M15.5365 7.95736L15.667 7.54493L15.8783 7.60941" fill="white"/>
<path d="M15.793 5.44922L15.6562 5.85962L15.865 5.93162" fill="white"/>
<path d="M15.7929 5.44922L15.9297 5.85962L15.7209 5.93162" fill="white"/>
<path d="M16.2024 5.74729L15.7698 5.74401L15.7659 5.96484" fill="white"/>
<path d="M16.2038 5.74685L15.8558 6.00377L15.7228 5.82744" fill="white"/>
<path d="M15.3821 5.74685L15.7302 6.00377L15.8632 5.82744" fill="white"/>
<path d="M15.3835 5.74729L15.8161 5.74401L15.82 5.96484" fill="white"/>
<path d="M16.0456 6.2308L15.915 5.81837L15.7038 5.88285" fill="white"/>
<path d="M16.0443 6.23014L15.6924 5.97853L15.819 5.79755" fill="white"/>
<path d="M15.5378 6.23014L15.8897 5.97853L15.7631 5.79755" fill="white"/>
<path d="M15.5365 6.2308L15.667 5.81837L15.8783 5.88285" fill="white"/>
<path d="M15.793 3.7207L15.6562 4.1311L15.865 4.2031" fill="white"/>
<path d="M15.7929 3.7207L15.9297 4.1311L15.7209 4.2031" fill="white"/>
<path d="M16.2024 4.01878L15.7698 4.01549L15.7659 4.23632" fill="white"/>
<path d="M16.2038 4.01833L15.8558 4.27526L15.7228 4.09893" fill="white"/>
<path d="M15.3821 4.01833L15.7302 4.27526L15.8632 4.09893" fill="white"/>
<path d="M15.3835 4.01878L15.8161 4.01549L15.82 4.23632" fill="white"/>
<path d="M16.0456 4.50228L15.915 4.08985L15.7038 4.15433" fill="white"/>
<path d="M16.0443 4.50162L15.6924 4.25001L15.819 4.06903" fill="white"/>
<path d="M15.5378 4.50162L15.8897 4.25001L15.7631 4.06903" fill="white"/>
<path d="M15.5365 4.50228L15.667 4.08985L15.8783 4.15433" fill="white"/>
<path d="M17.5196 7.17578L17.3828 7.58618L17.5916 7.65818" fill="white"/>
<path d="M17.5195 7.17578L17.6562 7.58618L17.4475 7.65818" fill="white"/>
<path d="M17.929 7.47385L17.4964 7.47057L17.4925 7.6914" fill="white"/>
<path d="M17.9304 7.47341L17.5823 7.73034L17.4493 7.554" fill="white"/>
<path d="M17.1087 7.47341L17.4567 7.73034L17.5897 7.554" fill="white"/>
<path d="M17.1101 7.47385L17.5427 7.47057L17.5466 7.6914" fill="white"/>
<path d="M17.7721 7.95736L17.6416 7.54493L17.4303 7.60941" fill="white"/>
<path d="M17.7708 7.9567L17.4189 7.70509L17.5455 7.52411" fill="white"/>
<path d="M17.2643 7.9567L17.6162 7.70509L17.4896 7.52411" fill="white"/>
<path d="M17.263 7.95736L17.3936 7.54493L17.6048 7.60941" fill="white"/>
<path d="M17.5196 5.44922L17.3828 5.85962L17.5916 5.93162" fill="white"/>
<path d="M17.5195 5.44922L17.6562 5.85962L17.4475 5.93162" fill="white"/>
<path d="M17.929 5.74729L17.4964 5.74401L17.4925 5.96484" fill="white"/>
<path d="M17.9304 5.74685L17.5823 6.00377L17.4493 5.82744" fill="white"/>
<path d="M17.1087 5.74685L17.4567 6.00377L17.5897 5.82744" fill="white"/>
<path d="M17.1101 5.74729L17.5427 5.74401L17.5466 5.96484" fill="white"/>
<path d="M17.7721 6.2308L17.6416 5.81837L17.4303 5.88285" fill="white"/>
<path d="M17.7708 6.23014L17.4189 5.97853L17.5455 5.79755" fill="white"/>
<path d="M17.2643 6.23014L17.6162 5.97853L17.4896 5.79755" fill="white"/>
<path d="M17.263 6.2308L17.3936 5.81837L17.6048 5.88285" fill="white"/>
<path d="M17.5196 3.7207L17.3828 4.1311L17.5916 4.2031" fill="white"/>
<path d="M17.5195 3.7207L17.6562 4.1311L17.4475 4.2031" fill="white"/>
<path d="M17.929 4.01878L17.4964 4.01549L17.4925 4.23632" fill="white"/>
<path d="M17.9304 4.01833L17.5823 4.27526L17.4493 4.09893" fill="white"/>
<path d="M17.1087 4.01833L17.4567 4.27526L17.5897 4.09893" fill="white"/>
<path d="M17.1101 4.01878L17.5427 4.01549L17.5466 4.23632" fill="white"/>
<path d="M17.7721 4.50228L17.6416 4.08985L17.4303 4.15433" fill="white"/>
<path d="M17.7708 4.50162L17.4189 4.25001L17.5455 4.06903" fill="white"/>
<path d="M17.2643 4.50162L17.6162 4.25001L17.4896 4.06903" fill="white"/>
<path d="M17.263 4.50228L17.3936 4.08985L17.6048 4.15433" fill="white"/>
<path d="M19.2501 7.17578L19.1133 7.58618L19.3221 7.65818" fill="white"/>
<path d="M19.2499 7.17578L19.3867 7.58618L19.1779 7.65818" fill="white"/>
<path d="M19.6595 7.47385L19.2269 7.47057L19.2229 7.6914" fill="white"/>
<path d="M19.6609 7.47341L19.3128 7.73034L19.1798 7.554" fill="white"/>
<path d="M18.8391 7.47341L19.1872 7.73034L19.3202 7.554" fill="white"/>
<path d="M18.8405 7.47385L19.2731 7.47057L19.2771 7.6914" fill="white"/>
<path d="M19.5026 7.95736L19.3721 7.54493L19.1608 7.60941" fill="white"/>
<path d="M19.5013 7.9567L19.1494 7.70509L19.276 7.52411" fill="white"/>
<path d="M18.9948 7.9567L19.3467 7.70509L19.2201 7.52411" fill="white"/>
<path d="M18.9935 7.95736L19.124 7.54493L19.3353 7.60941" fill="white"/>
<path d="M19.2501 5.44922L19.1133 5.85962L19.3221 5.93162" fill="white"/>
<path d="M19.2499 5.44922L19.3867 5.85962L19.1779 5.93162" fill="white"/>
<path d="M19.6595 5.74729L19.2269 5.74401L19.2229 5.96484" fill="white"/>
<path d="M19.6609 5.74685L19.3128 6.00377L19.1798 5.82744" fill="white"/>
<path d="M18.8391 5.74685L19.1872 6.00377L19.3202 5.82744" fill="white"/>
<path d="M18.8405 5.74729L19.2731 5.74401L19.2771 5.96484" fill="white"/>
<path d="M19.5026 6.2308L19.3721 5.81837L19.1608 5.88285" fill="white"/>
<path d="M19.5013 6.23014L19.1494 5.97853L19.276 5.79755" fill="white"/>
<path d="M18.9948 6.23014L19.3467 5.97853L19.2201 5.79755" fill="white"/>
<path d="M18.9935 6.2308L19.124 5.81837L19.3353 5.88285" fill="white"/>
<path d="M19.2501 3.7207L19.1133 4.1311L19.3221 4.2031" fill="white"/>
<path d="M19.2499 3.7207L19.3867 4.1311L19.1779 4.2031" fill="white"/>
<path d="M19.6595 4.01878L19.2269 4.01549L19.2229 4.23632" fill="white"/>
<path d="M19.6609 4.01833L19.3128 4.27526L19.1798 4.09893" fill="white"/>
<path d="M18.8391 4.01833L19.1872 4.27526L19.3202 4.09893" fill="white"/>
<path d="M18.8405 4.01878L19.2731 4.01549L19.2771 4.23632" fill="white"/>
<path d="M19.5026 4.50228L19.3721 4.08985L19.1608 4.15433" fill="white"/>
<path d="M19.5013 4.50162L19.1494 4.25001L19.276 4.06903" fill="white"/>
<path d="M18.9948 4.50162L19.3467 4.25001L19.2201 4.06903" fill="white"/>
<path d="M18.9935 4.50228L19.124 4.08985L19.3353 4.15433" fill="white"/>
<path d="M12.336 7.17578L12.1992 7.58618L12.408 7.65818" fill="white"/>
<path d="M12.3359 7.17578L12.4727 7.58618L12.2639 7.65818" fill="white"/>
<path d="M12.7454 7.47385L12.3128 7.47057L12.3089 7.6914" fill="white"/>
<path d="M12.7468 7.47341L12.3987 7.73034L12.2658 7.554" fill="white"/>
<path d="M11.9251 7.47341L12.2731 7.73034L12.4061 7.554" fill="white"/>
<path d="M11.9265 7.47385L12.3591 7.47057L12.363 7.6914" fill="white"/>
<path d="M12.5885 7.95736L12.458 7.54493L12.2467 7.60941" fill="white"/>
<path d="M12.5872 7.9567L12.2353 7.70509L12.3619 7.52411" fill="white"/>
<path d="M12.0807 7.9567L12.4326 7.70509L12.306 7.52411" fill="white"/>
<path d="M12.0794 7.95736L12.21 7.54493L12.4212 7.60941" fill="white"/>
<path d="M14.0626 7.17578L13.9258 7.58618L14.1346 7.65818" fill="white"/>
<path d="M14.0624 7.17578L14.1992 7.58618L13.9904 7.65818" fill="white"/>
<path d="M14.472 7.47385L14.0394 7.47057L14.0354 7.6914" fill="white"/>
<path d="M14.4734 7.47341L14.1253 7.73034L13.9923 7.554" fill="white"/>
<path d="M13.6516 7.47341L13.9997 7.73034L14.1327 7.554" fill="white"/>
<path d="M13.653 7.47385L14.0856 7.47057L14.0896 7.6914" fill="white"/>
<path d="M14.3151 7.95736L14.1846 7.54493L13.9733 7.60941" fill="white"/>
<path d="M14.3138 7.9567L13.9619 7.70509L14.0885 7.52411" fill="white"/>
<path d="M13.8073 7.9567L14.1592 7.70509L14.0326 7.52411" fill="white"/>
<path d="M13.806 7.95736L13.9365 7.54493L14.1478 7.60941" fill="white"/>
<path d="M14.0626 5.44922L13.9258 5.85962L14.1346 5.93162" fill="white"/>
<path d="M14.0624 5.44922L14.1992 5.85962L13.9904 5.93162" fill="white"/>
<path d="M14.472 5.74729L14.0394 5.74401L14.0354 5.96484" fill="white"/>
<path d="M14.4734 5.74685L14.1253 6.00377L13.9923 5.82744" fill="white"/>
<path d="M13.6516 5.74685L13.9997 6.00377L14.1327 5.82744" fill="white"/>
<path d="M13.653 5.74729L14.0856 5.74401L14.0896 5.96484" fill="white"/>
<path d="M14.3151 6.2308L14.1846 5.81837L13.9733 5.88285" fill="white"/>
<path d="M14.3138 6.23014L13.9619 5.97853L14.0885 5.79755" fill="white"/>
<path d="M13.8073 6.23014L14.1592 5.97853L14.0326 5.79755" fill="white"/>
<path d="M13.806 6.2308L13.9365 5.81837L14.1478 5.88285" fill="white"/>
</g>
</g>
<defs>
<filter id="filter0_d_336_32836" x="0" y="-2" width="36" height="36" filterUnits="userSpaceOnUse" color-interpolation-filters="sRGB">
<feFlood flood-opacity="0" result="BackgroundImageFix"/>
<feColorMatrix in="SourceAlpha" type="matrix" values="0 0 0 0 0 0 0 0 0 0 0 0 0 0 0 0 0 0 127 0" result="hardAlpha"/>
<feOffset dy="4"/>
<feGaussianBlur stdDeviation="3"/>
<feComposite in2="hardAlpha" operator="out"/>
<feColorMatrix type="matrix" values="0 0 0 0 0 0 0 0 0 0 0 0 0 0 0 0 0 0 0.16 0"/>
<feBlend mode="normal" in2="BackgroundImageFix" result="effect1_dropShadow_336_32836"/>
<feBlend mode="normal" in="SourceGraphic" in2="effect1_dropShadow_336_32836" result="shape"/>
</filter>
<clipPath id="clip0_336_32836">
<rect width="24" height="18" fill="white" transform="translate(6 3)"/>
</clipPath>
</defs>
</svg>
