<svg width="36" height="31" viewBox="0 0 36 31" fill="none" xmlns="http://www.w3.org/2000/svg">
<g filter="url(#filter0_d_336_28463)">
<g clip-path="url(#clip0_336_28463)">
<path d="M6 3H30V21H6V3Z" fill="#CC0000"/>
<path d="M6.01953 4.49609H29.982V5.93609H6.01953V4.49609ZM6.01953 7.44734H29.982V8.88734H6.01953V7.44734ZM6.01953 10.4023H29.982V11.8423H6.01953V10.4023Z" fill="white"/>
<path d="M6 3.01953H18V13.5195H6V3.01953Z" fill="#000066"/>
<path d="M13.7828 5.76828L14.0078 7.29453L14.8703 6.01953L14.4053 7.48953L15.7365 6.70953L14.6828 7.83453L16.2203 7.71453L14.784 8.26953L16.2203 8.82453L14.6828 8.70453L15.7365 9.82953L14.4053 9.04953L14.8665 10.5233L14.004 9.24453L13.779 10.7708L13.5578 9.24453L12.6953 10.5195L13.1603 9.04953L11.829 9.82953L12.879 8.70453L11.3415 8.82453L12.7815 8.26953L11.3453 7.71453L12.8828 7.83453L11.829 6.70953L13.1603 7.48953L12.6953 6.01578L13.5578 7.29453L13.7828 5.76828ZM12.534 5.83203C12.1281 5.6521 11.6837 5.57638 11.2411 5.61176C10.7985 5.64713 10.3718 5.79248 9.99958 6.03461C9.6274 6.27673 9.32158 6.60797 9.10988 6.99826C8.89817 7.38855 8.78729 7.82553 8.78729 8.26953C8.78729 8.71354 8.89817 9.15052 9.10988 9.5408C9.32158 9.93109 9.6274 10.2623 9.99958 10.5045C10.3718 10.7466 10.7985 10.8919 11.2411 10.9273C11.6837 10.9627 12.1281 10.887 12.534 10.707C12.0857 11.0287 11.5574 11.2205 11.0072 11.2613C10.4569 11.3021 9.90611 11.1904 9.41524 10.9385C8.92437 10.6865 8.5125 10.3041 8.22491 9.83322C7.93732 9.36235 7.78516 8.82128 7.78516 8.26953C7.78516 7.71778 7.93732 7.17672 8.22491 6.70584C8.5125 6.23497 8.92437 5.85253 9.41524 5.60058C9.90611 5.34863 10.4569 5.23692 11.0072 5.27776C11.5574 5.31859 12.0857 5.51038 12.534 5.83203V5.83203Z" fill="#FFCC00"/>
<path d="M6.01875 13.3574H29.9813V14.7974H6.01875V13.3574ZM6.01875 16.2899H29.9813V17.7299H6.01875V16.2899ZM6 19.5599H29.9625V20.9999H6V19.5599Z" fill="white"/>
</g>
</g>
<defs>
<filter id="filter0_d_336_28463" x="0" y="-2" width="36" height="36" filterUnits="userSpaceOnUse" color-interpolation-filters="sRGB">
<feFlood flood-opacity="0" result="BackgroundImageFix"/>
<feColorMatrix in="SourceAlpha" type="matrix" values="0 0 0 0 0 0 0 0 0 0 0 0 0 0 0 0 0 0 127 0" result="hardAlpha"/>
<feOffset dy="4"/>
<feGaussianBlur stdDeviation="3"/>
<feComposite in2="hardAlpha" operator="out"/>
<feColorMatrix type="matrix" values="0 0 0 0 0 0 0 0 0 0 0 0 0 0 0 0 0 0 0.16 0"/>
<feBlend mode="normal" in2="BackgroundImageFix" result="effect1_dropShadow_336_28463"/>
<feBlend mode="normal" in="SourceGraphic" in2="effect1_dropShadow_336_28463" result="shape"/>
</filter>
<clipPath id="clip0_336_28463">
<rect width="24" height="18" fill="white" transform="translate(6 3)"/>
</clipPath>
</defs>
</svg>
