<svg width="36" height="31" viewBox="0 0 36 31" fill="none" xmlns="http://www.w3.org/2000/svg">
<g filter="url(#filter0_d_336_17319)">
<g clip-path="url(#clip0_336_17319)">
<path d="M6 3H33.072V21.048H6V3Z" fill="#002B7F"/>
<path d="M6 14.2793H33.072V16.5353H6V14.2793Z" fill="#F9E814"/>
<path d="M9.00996 4.50391L9.31078 5.55679H10.5141L9.46119 6.00802L9.76201 7.06091L9.00996 6.60967L8.10749 7.21132L8.40831 6.15844L7.65625 5.55679H8.70913L9.00996 4.50391Z" fill="white"/>
<path d="M12.0161 7.01172L12.4172 8.41573H14.0218L12.6178 9.01744L13.019 10.4215L12.0161 9.81973L10.8127 10.622L11.2138 9.21802L10.2109 8.41573H11.6149L12.0161 7.01172Z" fill="white"/>
</g>
</g>
<defs>
<filter id="filter0_d_336_17319" x="0" y="-2" width="36" height="36" filterUnits="userSpaceOnUse" color-interpolation-filters="sRGB">
<feFlood flood-opacity="0" result="BackgroundImageFix"/>
<feColorMatrix in="SourceAlpha" type="matrix" values="0 0 0 0 0 0 0 0 0 0 0 0 0 0 0 0 0 0 127 0" result="hardAlpha"/>
<feOffset dy="4"/>
<feGaussianBlur stdDeviation="3"/>
<feComposite in2="hardAlpha" operator="out"/>
<feColorMatrix type="matrix" values="0 0 0 0 0 0 0 0 0 0 0 0 0 0 0 0 0 0 0.16 0"/>
<feBlend mode="normal" in2="BackgroundImageFix" result="effect1_dropShadow_336_17319"/>
<feBlend mode="normal" in="SourceGraphic" in2="effect1_dropShadow_336_17319" result="shape"/>
</filter>
<clipPath id="clip0_336_17319">
<rect width="24" height="18" fill="white" transform="translate(6 3)"/>
</clipPath>
</defs>
</svg>
