<svg width="36" height="31" viewBox="0 0 36 31" fill="none" xmlns="http://www.w3.org/2000/svg">
<g filter="url(#filter0_d_336_17267)">
<g clip-path="url(#clip0_336_17267)">
<path d="M6 3H30V21H6V3Z" fill="#0021AD"/>
<path d="M6 3H30V21L6 3Z" fill="#1C8A42"/>
<path d="M17.9995 14.167C19.1966 14.167 20.167 13.1966 20.167 11.9995C20.167 10.8025 19.1966 9.83203 17.9995 9.83203C16.8025 9.83203 15.832 10.8025 15.832 11.9995C15.832 13.1966 16.8025 14.167 17.9995 14.167Z" fill="#FFC639"/>
<path d="M16.678 11.0245C16.828 11.2308 17.053 11.572 17.233 11.482C17.3718 11.482 17.4468 11.4933 17.4655 11.587C17.7004 11.6103 17.9373 11.5732 18.1538 11.4794C18.3703 11.3855 18.5594 11.238 18.703 11.0508C18.703 11.0508 18.733 11.0508 18.7218 10.882C18.7218 10.807 18.8268 10.822 18.8268 10.8445C18.8418 10.882 18.8418 10.9083 18.8605 10.912C18.898 10.897 18.9618 10.7995 19.0105 10.7395C19.0218 10.7133 19.0143 10.6833 19.018 10.6495C19.0443 10.5858 19.108 10.6008 19.123 10.6345L19.1455 10.6945C19.213 10.7395 19.333 10.6945 19.3405 10.6945C19.3518 10.642 19.3855 10.6495 19.3855 10.6495C19.4305 10.6383 19.4118 10.642 19.4418 10.657C19.4155 10.9458 19.498 10.957 19.4905 11.107C19.4943 11.272 19.4418 11.317 19.4418 11.3808C19.4568 11.4558 19.7043 11.4595 19.6143 11.527C19.5393 11.5645 19.6143 11.6395 19.5018 11.6695C19.1718 11.8383 19.1118 11.9808 19.1118 11.9808C19.1118 11.9808 19.0293 12.1383 19.018 12.1383C18.9618 12.2433 18.8943 12.1833 18.853 12.2358C18.8343 12.2995 18.8155 12.442 18.853 12.5133C18.8718 12.6145 18.853 12.6708 18.8268 12.772C18.8043 12.982 18.7218 13.0158 18.7105 13.087C18.673 13.1695 18.718 13.537 18.6805 13.537C18.4368 13.5445 18.2493 13.492 18.1518 13.4733C18.2455 13.0645 18.208 12.7083 18.208 12.6708C18.1855 12.3783 17.773 12.4495 17.7093 12.4083C17.6568 12.4008 17.623 12.3595 17.608 12.3408C17.548 12.3333 17.5255 12.3183 17.4693 12.3145C17.4393 12.3295 17.458 12.3445 17.3943 12.3633C17.2255 12.382 17.1543 12.2208 17.1543 12.2208C17.1618 12.1645 16.783 12.232 16.5805 12.1833C16.4943 12.232 16.4568 12.3708 16.3893 12.3858C16.3893 12.427 16.2768 12.3483 16.2543 12.3108C16.2468 12.1833 16.3593 12.1308 16.3593 12.1308C16.4493 12.067 16.5018 12.0558 16.5468 12.0145C16.5655 11.9058 16.5543 11.827 16.603 11.7483C16.6405 11.6845 16.6968 11.7108 16.7343 11.6883C16.7755 11.6583 16.7943 11.4783 16.7568 11.4258L16.5805 11.2683C16.528 11.1145 16.6443 11.0133 16.678 11.0245V11.0245Z" fill="#1C8A42"/>
<path d="M27.0712 8.33972C26.9737 7.95347 26.0962 7.11347 25.4324 6.58097C25.2749 6.47597 25.1699 6.53972 25.1924 6.69347C25.2749 6.82847 25.3349 6.97847 25.4174 7.11722C25.4399 7.21097 25.4849 7.27472 25.5074 7.36472C25.5074 7.36472 25.5149 7.52222 25.5299 7.53722C25.7324 7.76222 25.7624 7.95347 25.7624 7.95347C25.8658 8.17524 26.0124 8.37413 26.1937 8.53847C26.4262 8.68472 26.2537 9.13847 26.2612 9.38222C26.2612 9.53222 26.1524 9.51722 26.0549 9.49472C25.3012 8.80097 24.5512 8.80097 23.8874 8.59847C23.6324 8.57222 23.6249 8.69597 23.7112 8.76347C24.1245 9.22382 24.6222 9.60063 25.1774 9.87347L25.4662 10.0535L25.7962 10.3272C26.0512 10.4922 26.07 10.6422 26.07 10.6572C26.0775 10.9647 25.9125 11.2047 25.8637 11.3022C25.7775 11.6285 25.6012 11.6847 25.6012 11.6847C24.1912 12.6372 23.4487 12.8847 21.1612 12.5885C21.1237 12.5735 20.9062 12.6072 21.1612 12.701C21.7424 12.896 23.1749 13.2072 24.5587 12.551C24.8962 12.3185 25.1137 12.3935 25.3574 12.251C25.7001 12.0388 26.0544 11.846 26.4187 11.6735C26.7299 11.5047 27.5924 11.321 27.7912 11.156C28.0199 11.1372 28.2562 11.1072 28.2712 10.9122C28.3462 10.8635 28.4587 10.901 28.5412 10.7397C28.7212 10.706 28.6912 10.6422 28.6912 10.6422C28.6462 10.5147 28.4737 10.4622 28.3537 10.3685C28.1737 10.3085 28.0537 10.2935 27.9224 10.3535L27.7987 10.4097C27.7987 10.4097 27.6075 10.3835 27.6075 10.3685C27.18 10.346 27.2212 8.93222 27.0712 8.34347V8.33972Z" fill="#FFC639"/>
<path d="M28.0722 10.6584C28.0692 10.6669 28.0636 10.6744 28.0558 10.6806C28.0479 10.6869 28.0379 10.6916 28.0264 10.6946C28.0149 10.6976 28.002 10.6989 27.9886 10.6982C27.9752 10.6976 27.9614 10.6951 27.9481 10.6909C27.9348 10.6868 27.9222 10.681 27.9111 10.6738C27.9 10.6667 27.8905 10.6585 27.8832 10.6495C27.8759 10.6406 27.871 10.6312 27.8687 10.6217C27.8664 10.6123 27.8667 10.6031 27.8697 10.5947C27.8758 10.5776 27.8923 10.5646 27.9156 10.5585C27.9389 10.5524 27.967 10.5537 27.9939 10.5621C28.0207 10.5706 28.0441 10.5855 28.0588 10.6035C28.0735 10.6216 28.0783 10.6413 28.0722 10.6584V10.6584Z" fill="#1C8A42"/>
<path d="M10.5179 10.5836L10.2107 10.2956L9.90113 10.5788L9.93473 10.1612L9.51953 10.094L9.86753 9.85882L9.66113 9.49402L10.0619 9.62122L10.2179 9.23242L10.3691 9.62362L10.7699 9.50362L10.5587 9.86362L10.9043 10.1036L10.4891 10.1636L10.5179 10.5812V10.5836Z" fill="white"/>
<path d="M11.6023 14.0516L11.2711 13.8332L10.9495 14.0636L11.0647 13.6916L10.7383 13.4636L11.1367 13.454L11.2567 13.082L11.3911 13.4492L11.7919 13.4468L11.4727 13.6796L11.5999 14.0492L11.6023 14.0516Z" fill="white"/>
<path d="M10.5765 17.0426L10.2693 16.7546L9.95972 17.0378L9.99332 16.6202L9.57812 16.553L9.92612 16.3178L9.71972 15.953L10.1205 16.0802L10.2765 15.6914L10.4277 16.0826L10.8285 15.9626L10.6173 16.3226L10.9629 16.5626L10.5477 16.6226L10.5765 17.0402V17.0426Z" fill="white"/>
<path d="M7.82652 13.5407L7.51932 13.2527L7.20972 13.5359L7.24332 13.1183L6.82812 13.0511L7.17612 12.8159L6.96972 12.4511L7.37052 12.5783L7.52652 12.1895L7.67772 12.5807L8.07852 12.4607L7.86732 12.8207L8.21292 13.0607L7.79772 13.1207L7.82652 13.5383V13.5407Z" fill="white"/>
<path d="M13.1195 12.6227L12.8123 12.3347L12.5027 12.6179L12.5363 12.2003L12.1211 12.1331L12.4691 11.8979L12.2627 11.5331L12.6635 11.6603L12.8195 11.2715L12.9707 11.6627L13.3715 11.5427L13.1603 11.9027L13.5059 12.1427L13.0907 12.2027L13.1195 12.6203V12.6227Z" fill="white"/>
</g>
</g>
<defs>
<filter id="filter0_d_336_17267" x="0" y="-2" width="36" height="36" filterUnits="userSpaceOnUse" color-interpolation-filters="sRGB">
<feFlood flood-opacity="0" result="BackgroundImageFix"/>
<feColorMatrix in="SourceAlpha" type="matrix" values="0 0 0 0 0 0 0 0 0 0 0 0 0 0 0 0 0 0 127 0" result="hardAlpha"/>
<feOffset dy="4"/>
<feGaussianBlur stdDeviation="3"/>
<feComposite in2="hardAlpha" operator="out"/>
<feColorMatrix type="matrix" values="0 0 0 0 0 0 0 0 0 0 0 0 0 0 0 0 0 0 0.16 0"/>
<feBlend mode="normal" in2="BackgroundImageFix" result="effect1_dropShadow_336_17267"/>
<feBlend mode="normal" in="SourceGraphic" in2="effect1_dropShadow_336_17267" result="shape"/>
</filter>
<clipPath id="clip0_336_17267">
<rect width="24" height="18" fill="white" transform="translate(6 3)"/>
</clipPath>
</defs>
</svg>
