<svg width="36" height="31" viewBox="0 0 36 31" fill="none" xmlns="http://www.w3.org/2000/svg">
<g filter="url(#filter0_d_336_17870)">
<g clip-path="url(#clip0_336_17870)">
<path d="M6 3H30V21H6V3Z" fill="#000066"/>
<path d="M6 3H18V12H6V3Z" fill="#012169"/>
<path d="M7.40625 3L11.9813 6.39375L16.5375 3H18V4.1625L13.5 7.51875L18 10.8563V12H16.5L12 8.64375L7.51875 12H6V10.875L10.4813 7.5375L6 4.2V3H7.40625Z" fill="white"/>
<path d="M13.95 8.26875L18 11.25V12L12.9188 8.26875H13.95ZM10.5 8.64375L10.6125 9.3L7.0125 12H6L10.5 8.64375ZM18 3V3.05625L13.3313 6.58125L13.3688 5.75625L17.0625 3H18ZM6 3L10.4813 6.3H9.35625L6 3.7875V3Z" fill="#C8102E"/>
<path d="M10.5188 3V12H13.5188V3H10.5188ZM6 6V9H18V6H6Z" fill="white"/>
<path d="M6 6.61875V8.41875H18V6.61875H6ZM11.1188 3V12H12.9188V3H11.1188Z" fill="#C8102E"/>
<path d="M26.8335 9.81772V12.8697C26.8335 15.5164 25.582 16.4248 23.9057 17.1437C22.2294 16.4248 20.9648 15.5164 20.9648 12.8697V9.81445H26.8335V9.81772Z" fill="white" stroke="white" stroke-width="0.692731" stroke-linejoin="round"/>
<path d="M19.1451 16.8966C19.2398 17.1449 19.9129 17.4749 20.6972 17.0534C21.2298 16.7528 21.5729 16.3346 21.9029 15.583C21.9944 15.3935 22.0434 15.1582 21.8245 15.0177C21.6513 14.8903 21.367 14.7498 21.2429 14.6256C21.1808 14.5602 21.1187 14.5145 21.0729 14.4688C21.1056 14.5014 21.135 14.5308 21.1644 14.5766C21.4781 14.9524 21.1514 15.5013 20.805 15.8313C20.5534 16.0666 20.1025 16.645 19.4424 16.096C19.3019 15.9718 18.9719 16.4881 19.1483 16.8966H19.1451ZM28.6668 16.8966C28.5557 17.1449 27.8826 17.4749 27.1147 17.0534C26.5854 16.7528 26.239 16.3346 25.8959 15.583C25.8175 15.3935 25.7685 15.1582 25.9874 15.0177C26.1606 14.8903 26.4449 14.7498 26.569 14.6256C26.6311 14.5602 26.6769 14.5145 26.739 14.4688C26.7063 14.5014 26.6769 14.5308 26.6475 14.5766C26.3338 14.9524 26.6605 15.5013 26.9906 15.8313C27.2422 16.0666 27.7094 16.645 28.3695 16.096C28.51 15.9718 28.8237 16.4881 28.6636 16.8966H28.6668Z" fill="#FCEA83" stroke="white" stroke-width="0.692731" stroke-linejoin="round"/>
<path d="M23.9048 18.2428C25.1562 18.2428 27.0841 17.6775 28.12 15.7039C28.2899 15.3771 28.12 15.204 27.9141 15.0961C27.6814 14.9789 27.4695 14.8244 27.2867 14.6387C27.5383 14.8903 27.4893 15.0635 27.3194 15.3445C26.5188 16.6777 25.4242 17.3508 23.9048 17.3508C22.3853 17.3508 21.2907 16.6777 20.4901 15.3445C20.3202 15.0635 20.2712 14.8903 20.5065 14.6419C20.3264 14.83 20.1139 14.9838 19.8791 15.0961C19.6765 15.204 19.5033 15.3771 19.6765 15.7039C20.709 17.6775 22.65 18.2428 23.9048 18.2428V18.2428Z" fill="#FCEA83" stroke="white" stroke-width="0.692731" stroke-linejoin="round"/>
<path d="M21.0076 15.5944C20.975 15.4375 20.7756 15.4996 20.7135 15.6892C20.629 15.5808 20.5546 15.4648 20.4913 15.3428C20.3051 15.0618 20.2724 14.8723 20.5404 14.6076C20.6645 14.4834 20.9161 14.3396 21.0861 14.4965C21.4455 14.7938 21.2592 15.2807 21.0076 15.5944V15.5944ZM26.788 15.5944C26.8207 15.4375 27.0396 15.4996 27.1017 15.6892C27.1801 15.5781 27.2585 15.4702 27.3206 15.3428C27.5069 15.0618 27.5396 14.8723 27.2553 14.6076C27.1474 14.4834 26.8958 14.3396 26.7096 14.4965C26.3632 14.7938 26.5364 15.2807 26.788 15.5944ZM19.1451 16.8949C18.9883 16.6596 18.8641 16.0453 18.8314 15.8917C18.7857 15.7512 18.7693 15.6238 18.9425 15.565C19.1157 15.4996 19.2693 15.7186 19.3477 15.9081C19.4261 16.0943 19.5535 16.3753 19.6941 16.7217C19.3477 16.5191 19.0667 16.6564 19.1451 16.8949ZM28.6669 16.8949C28.8074 16.6596 28.9316 16.0453 28.9806 15.8917C29.0132 15.7512 29.0427 15.6238 28.8695 15.565C28.6963 15.4996 28.5427 15.7186 28.4643 15.9081C28.3859 16.0943 28.2584 16.3753 28.1179 16.7217C28.4643 16.5191 28.729 16.6564 28.6669 16.8949V16.8949Z" fill="#C8102E" stroke="white" stroke-width="0.692731" stroke-linejoin="round"/>
<path d="M22.7019 9.8022C22.4993 9.84794 22.3588 9.86428 22.1693 9.6911C22.0451 9.56693 22.0745 9.348 22.202 9.26631C22.3425 9.17482 22.4666 9.11273 22.6398 9.15848C22.813 9.20749 23.2672 9.62901 23.1561 9.64535C23.045 9.64535 22.8751 9.75318 22.7019 9.8022ZM23.1855 9.05065C23.2509 9.00163 23.3293 8.97223 23.5319 8.95262C23.7214 8.93955 23.8586 8.93955 23.9076 9.08332C23.973 9.25324 24.0187 9.45583 24.1429 9.55059C24.0645 9.59634 23.6724 9.64535 23.5319 9.56693C23.3456 9.47217 23.2966 9.10946 23.1888 9.05065H23.1855ZM24.535 9.06699C24.5971 9.01797 24.6755 9.01797 24.8781 9.03431C25.0807 9.05065 25.1591 9.06699 25.2049 9.20749C25.2539 9.36434 25.2049 9.56693 25.3029 9.70744C25.2049 9.74011 24.8945 9.74011 24.7834 9.62901C24.6134 9.50484 24.6265 9.14214 24.535 9.06372V9.06699Z" fill="white" stroke="white" stroke-width="0.692731" stroke-linejoin="round"/>
<path d="M25.4715 9.15838C25.3309 9.12571 25.2362 9.11264 25.1774 9.15838C25.2525 9.25314 25.1904 9.62892 25.3473 9.75309C25.4551 9.83151 25.7394 9.85111 25.8015 9.67466C25.8799 9.51782 25.8799 9.28255 25.4747 9.15838H25.4715ZM23.8605 9.00154C23.9063 8.95579 24.001 8.93945 24.1873 8.93945C24.3931 8.93945 24.514 8.97213 24.5794 9.0963C24.6447 9.25314 24.6251 9.45573 24.7362 9.58317C24.6905 9.64525 24.2657 9.64525 24.1415 9.55049C23.9684 9.4394 23.952 9.07996 23.8605 9.00154V9.00154ZM22.5306 9.14204C22.5306 9.06362 22.6384 9.05055 22.9227 9.03421C23.2005 9.00154 23.2168 9.01788 23.3116 9.22047C23.3573 9.33156 23.4194 9.51782 23.5468 9.5799C23.2005 9.66159 23.0894 9.70734 22.9031 9.59624C22.7671 9.51117 22.6547 9.39316 22.5764 9.25314C22.56 9.2074 22.56 9.15838 22.5273 9.14204H22.5306Z" fill="#073163" stroke="white" stroke-width="0.692731" stroke-linejoin="round"/>
<path d="M22.5604 7.75021C22.4493 7.75021 22.3578 7.70446 22.2925 7.62604C22.1847 7.48226 21.8873 7.42018 21.7599 7.54762C21.7141 7.58029 21.652 7.58029 21.6063 7.59336C21.5279 7.59336 21.4331 7.67178 21.4625 7.82863C21.5279 7.77961 21.5409 7.82863 21.59 7.82863C21.6226 7.81229 21.6063 7.84497 21.6063 7.87438C21.6063 7.9528 21.7762 8.10964 21.9331 8.0933C22.1062 8.0933 22.1847 8.15866 22.2141 8.19133C22.2631 8.23381 22.2304 8.22074 22.2631 8.29916C22.3088 8.34491 22.3252 8.36125 22.2467 8.42333C22.2111 8.45308 22.1824 8.4903 22.1627 8.53237C22.143 8.57444 22.1328 8.62032 22.1328 8.66677C22.1328 8.71322 22.143 8.7591 22.1627 8.80117C22.1824 8.84323 22.2111 8.88046 22.2467 8.9102C22.4493 9.06378 22.9656 9.30232 23.5472 8.84485C24.1093 8.40699 24.985 8.6586 25.0503 8.81218C25.1288 8.97229 25.1582 9.06378 25.1745 9.1422C25.1908 9.20756 25.2693 9.26964 25.3804 9.2533C25.4882 9.2533 25.6124 9.29905 25.6745 9.34806C25.7561 9.39381 25.864 9.38074 25.8346 9.23696C25.7692 8.79911 25.5045 8.73702 25.4751 8.53443C25.6287 8.5475 25.7365 8.5475 25.8019 8.48542C25.8476 8.42333 25.9097 8.31223 25.9751 8.28283C26.0208 8.25015 26.0208 8.21747 25.9587 8.23381C25.8803 8.25015 25.8346 8.28283 25.6908 8.26649C24.9719 8.18806 22.9525 7.63911 22.5604 7.75021V7.75021Z" fill="#059334" stroke="white" stroke-width="0.692731" stroke-linejoin="round"/>
<path d="M25.7576 8.28212C25.6382 8.36639 25.5361 8.4729 25.457 8.59581C25.3034 8.7984 24.8329 9.00099 24.2513 9.00099C23.6892 9.00099 23.3461 8.9095 23.0945 8.70691C22.9871 8.62102 22.871 8.54655 22.7482 8.48471C22.5783 8.40629 22.5456 8.23311 22.5913 8.0926C22.5456 8.17102 22.5162 8.24945 22.4214 8.23311C22.3561 8.23311 22.2319 8.23311 22.2646 8.29846C22.2482 8.26578 22.2482 8.22004 22.2319 8.20043L22.1992 8.17102C22.2482 8.2037 22.3593 8.10894 22.4378 8.10894C22.4998 8.12528 22.5783 8.04685 22.5619 7.95209L22.5162 7.7495C22.6403 7.68415 24.2839 7.98477 24.614 8.01418C24.9407 8.03052 25.8818 8.17102 25.7576 8.28212V8.28212Z" fill="black" stroke="white" stroke-width="0.692731" stroke-linejoin="round"/>
<path d="M22.7803 7.68788C22.9371 7.53103 23.1234 7.45261 23.3129 7.49835H23.3587C23.4567 7.41993 23.6724 7.40359 23.7998 7.46568H23.8619C24.0481 7.40359 24.4076 7.46568 24.535 7.59311L24.5807 7.62579C25.0055 7.59311 25.2539 7.77937 25.5512 8.07999C25.5839 8.11266 25.6296 8.17148 25.7081 8.18782C25.8028 8.20416 25.8192 8.25317 25.7407 8.29892C25.6151 8.37662 25.5044 8.47622 25.414 8.593C25.2702 8.78252 24.816 8.97204 24.2507 8.97204C23.705 8.97204 23.375 8.87401 23.1234 8.68776C22.9829 8.57993 22.8751 8.51785 22.7966 8.46883C22.7019 8.43616 22.5777 8.31199 22.6235 8.18782C22.6561 8.06365 22.5777 7.9068 22.5156 7.74996C22.5614 7.71728 22.6855 7.67154 22.7476 7.70421L22.7803 7.68788Z" fill="#059334" stroke="white" stroke-width="0.692731" stroke-linejoin="round"/>
<path d="M25.5483 8.07999C25.2542 7.77937 25.0026 7.59312 24.5778 7.62252C24.5778 7.63886 24.5778 7.68788 24.5615 7.72055C24.8575 7.8534 25.1199 8.05105 25.3293 8.29892C25.3947 8.23356 25.5025 8.15841 25.5483 8.07999ZM24.532 7.59311C24.4046 7.46895 24.0452 7.40359 23.8589 7.46895C23.8589 7.53103 23.8589 7.62579 23.8262 7.68788C23.9373 7.73362 24.0288 7.84472 24.1236 7.95255C24.1889 7.93621 24.3425 7.89047 24.4209 7.87413C24.4677 7.78462 24.505 7.69043 24.532 7.59311V7.59311ZM23.7968 7.46568C23.6694 7.40359 23.4505 7.41993 23.3557 7.49835C23.323 7.56371 23.31 7.68788 23.31 7.74996C23.3753 7.74996 23.4668 7.79571 23.4962 7.82838C23.5942 7.79571 23.7184 7.73362 23.7642 7.68788C23.7805 7.62252 23.8099 7.53103 23.7968 7.46895V7.46568ZM22.7773 7.68788C22.9342 7.53103 23.1204 7.45261 23.31 7.49835C23.2773 7.54737 23.2642 7.63886 23.2642 7.73362C23.091 7.71728 22.8721 7.7663 22.7773 7.82838V7.68788Z" fill="#00493D" stroke="white" stroke-width="0.692731" stroke-linejoin="round"/>
<path d="M25.2687 8.32765C25.0718 8.09457 24.8265 7.90723 24.5498 7.7787C24.5498 7.79503 24.5171 7.85712 24.5008 7.90613C24.5956 8.04664 24.7818 8.36033 24.8602 8.53351C24.9387 8.50084 25.1576 8.40607 25.2687 8.32765V8.32765ZM24.0793 8.67402C24.1064 8.46045 24.1216 8.24555 24.125 8.0303C24.2034 8.01396 24.3603 7.96822 24.4224 7.95188C24.5008 8.07931 24.6903 8.40934 24.7687 8.56292C24.5792 8.60867 24.2655 8.68709 24.0793 8.67402ZM23.5303 7.92247C23.6087 7.88979 23.7198 7.82444 23.795 7.76562C23.8603 7.81137 23.9845 7.92247 24.0303 7.98455C24.0303 8.12506 23.9845 8.53351 23.9682 8.67075C23.844 8.67075 23.6414 8.64134 23.5303 8.57926C23.5467 8.34399 23.563 8.07931 23.5303 7.92247V7.92247ZM22.7461 8.10872C22.7624 8.07605 22.7788 7.96822 22.7788 7.92247C22.9029 7.84405 23.2166 7.76563 23.4519 7.88979C23.4682 8.04664 23.4519 8.43875 23.4356 8.53351C23.226 8.36308 22.9954 8.22031 22.7494 8.10872H22.7461Z" fill="#00493D" stroke="white" stroke-width="0.692731" stroke-linejoin="round"/>
<path d="M21.963 7.82391C21.9303 7.82391 21.9139 7.73242 21.8519 7.73242C21.8355 7.73242 21.7898 7.74876 21.7734 7.73242C21.7734 7.7651 21.7898 7.79777 21.8061 7.81084C21.8225 7.85659 21.9009 7.82718 21.963 7.82718V7.82391Z" fill="black"/>
<path d="M21.9649 8.09256C22.1512 8.09256 22.1838 7.8573 22.2786 7.84423M22.0727 8.1089C22.2132 8.17425 22.3243 7.84423 22.4322 7.8573M21.7917 7.70372C21.8375 7.70372 21.8701 7.63837 21.9486 7.71679C21.9812 7.74947 22.027 7.7658 22.0597 7.7658M22.027 7.93572C21.9616 8.03375 21.8538 8.09256 21.7917 8.06316M21.759 7.54688C21.7133 7.57955 21.6839 7.63837 21.6512 7.68738M21.6055 7.77887V7.8573" stroke="white" stroke-width="0.692731" stroke-linejoin="round"/>
<path d="M23.2808 7.54824C22.9508 7.29664 22.5587 7.06137 22.1992 7.01562C22.5743 7.26566 22.9303 7.54308 23.2645 7.8456" fill="black"/>
<path d="M23.2808 7.54824C22.9508 7.29664 22.5587 7.06137 22.1992 7.01562C22.5743 7.26566 22.9303 7.54308 23.2645 7.8456" stroke="white" stroke-width="0.692731" stroke-linejoin="round"/>
<path d="M23.4678 7.31229C23.0756 7.04435 22.6215 6.747 22.1836 6.71759C22.5934 6.95504 22.9583 7.26249 23.2619 7.62598M23.9677 6.87443C24.1446 6.47233 24.4066 6.11336 24.7356 5.82227C24.5787 6.15229 24.4088 6.82542 24.3271 7.09336" fill="black"/>
<path d="M23.4678 7.31229C23.0756 7.04435 22.6215 6.747 22.1836 6.71759C22.5934 6.95504 22.9583 7.26249 23.2619 7.62598M23.9677 6.87443C24.1446 6.47233 24.4066 6.11336 24.7356 5.82227C24.5787 6.15229 24.4088 6.82542 24.3271 7.09336" stroke="white" stroke-width="0.692731" stroke-linejoin="round"/>
<path d="M24.3125 6.79613C24.4639 6.42793 24.7486 6.13039 25.1098 5.96289C24.8385 6.30141 24.6364 6.69001 24.5151 7.10655" fill="black"/>
<path d="M24.3125 6.79613C24.4639 6.42793 24.7486 6.13039 25.1098 5.96289C24.8385 6.30141 24.6364 6.69001 24.5151 7.10655" stroke="white" stroke-width="0.692731" stroke-linejoin="round"/>
<path d="M24.4531 7.10678C24.7531 6.64754 25.1831 6.28807 25.6883 6.07422C25.2962 6.46633 24.7178 7.1852 24.5773 7.46948M24.6721 7.45315C24.9531 7.2963 25.5184 7.0447 25.9235 7.12639C25.6752 7.21788 24.9237 7.56098 24.5936 7.87793" fill="black"/>
<path d="M24.4531 7.10678C24.7531 6.64754 25.1831 6.28807 25.6883 6.07422C25.2962 6.46633 24.7178 7.1852 24.5773 7.46948M24.6721 7.45315C24.9531 7.2963 25.5184 7.0447 25.9235 7.12639C25.6752 7.21788 24.9237 7.56098 24.5936 7.87793" stroke="white" stroke-width="0.692731" stroke-linejoin="round"/>
<path d="M24.6104 7.34151C24.8751 7.0605 25.362 6.63898 25.8782 6.4658C25.5025 6.82523 24.7019 7.64213 24.5941 7.7663M23.8589 7.1716C23.6693 6.58997 23.3883 6.04428 22.9668 5.87109C23.3025 6.35111 23.5361 6.89496 23.653 7.46895M23.4962 7.15526C23.1857 6.77949 22.7609 6.40371 22.2773 6.32529C22.7512 6.63539 23.1256 7.07559 23.3557 7.59312" fill="black"/>
<path d="M24.6104 7.34151C24.8751 7.0605 25.362 6.63898 25.8782 6.4658C25.5025 6.82523 24.7019 7.64213 24.5941 7.7663M23.8589 7.1716C23.6693 6.58997 23.3883 6.04428 22.9668 5.87109C23.3025 6.35111 23.5361 6.89496 23.653 7.46895M23.4962 7.15526C23.1857 6.77949 22.7609 6.40371 22.2773 6.32529C22.7512 6.63539 23.1256 7.07559 23.3557 7.59312" stroke="white" stroke-width="0.692731" stroke-linejoin="round"/>
<path d="M23.6751 7.13845C23.283 6.43264 22.9824 6.30848 22.8125 6.16797C22.953 6.43264 23.2961 7.13845 23.4987 7.4358" fill="black"/>
<path d="M23.6751 7.13845C23.283 6.43264 22.9824 6.30848 22.8125 6.16797C22.953 6.43264 23.2961 7.13845 23.4987 7.4358" stroke="white" stroke-width="0.692731" stroke-linejoin="round"/>
<path d="M22.8906 7.09375C23.1141 7.23429 23.3056 7.4202 23.4527 7.63944" stroke="white" stroke-width="0.692731" stroke-linejoin="round"/>
<path d="M22.8906 7.42041C22.9821 7.49883 23.1553 7.59359 23.3121 7.7341ZM24.7532 7.65568C24.91 7.53151 25.2531 7.32892 25.4263 7.26356ZM24.6421 7.54785C24.7989 7.34199 25.1126 7.06097 25.2237 6.96621ZM25.0799 6.5741C24.8694 6.81007 24.6709 7.05655 24.4852 7.31258ZM24.6747 6.43359C24.5264 6.65295 24.3953 6.88346 24.2826 7.12306ZM23.4363 6.46627C23.5311 6.71787 23.7043 7.1394 23.7631 7.31258ZM23.2958 6.73095C23.3612 6.82897 23.4853 7.04463 23.5311 7.20148Z" fill="black"/>
<path d="M22.8906 7.42041C22.9821 7.49883 23.1553 7.59359 23.3121 7.7341M24.7532 7.65568C24.91 7.53151 25.2531 7.32892 25.4263 7.26356M24.6421 7.54785C24.7989 7.34199 25.1126 7.06097 25.2237 6.96621M25.0799 6.5741C24.8694 6.81007 24.6709 7.05655 24.4852 7.31258M24.6747 6.43359C24.5264 6.65295 24.3953 6.88346 24.2826 7.12306M23.4363 6.46627C23.5311 6.71787 23.7043 7.1394 23.7631 7.31258M23.2958 6.73095C23.3612 6.82897 23.4853 7.04463 23.5311 7.20148" stroke="white" stroke-width="0.692731" stroke-linejoin="round"/>
<path d="M23.8281 6.65151C23.8281 6.511 23.9229 6.35742 24.0176 6.35742C24.1255 6.35742 24.2039 6.54368 24.2039 6.65151C24.2039 6.77894 24.1091 6.88677 24.0176 6.88677C23.9196 6.88677 23.8281 6.79528 23.8281 6.65151Z" fill="black" stroke="white" stroke-width="0.692731" stroke-linejoin="round"/>
<path d="M23.6272 6.77865C23.6435 6.62181 23.7513 6.49764 23.8461 6.51071C23.9409 6.52705 23.9866 6.71657 23.9703 6.8244C23.9539 6.94857 23.8461 7.04333 23.7677 7.02699C23.6893 7.02699 23.6108 6.91916 23.6272 6.77865ZM24.0487 6.8244C24.016 6.68389 24.0814 6.53032 24.1761 6.51071C24.2676 6.49764 24.3624 6.65122 24.3787 6.77865C24.4114 6.90282 24.3297 7.02699 24.2513 7.02699C24.1761 7.04333 24.065 6.96491 24.0487 6.8244Z" fill="black" stroke="white" stroke-width="0.692731" stroke-linejoin="round"/>
<path d="M23.8125 6.94838C23.8125 6.7948 23.9073 6.6543 24.002 6.6543C24.1099 6.6543 24.1883 6.82421 24.1883 6.94838C24.1883 7.07582 24.0968 7.18365 24.002 7.18365C23.9073 7.18365 23.8125 7.09216 23.8125 6.94838Z" fill="black" stroke="white" stroke-width="0.692731" stroke-linejoin="round"/>
<path d="M23.5312 7.02804C23.5312 6.88754 23.6423 6.73396 23.7338 6.73396C23.8319 6.73396 23.9234 6.92021 23.9234 7.02804C23.9234 7.15548 23.8123 7.26331 23.7338 7.26331C23.6423 7.26331 23.5312 7.17182 23.5312 7.02804ZM24.1096 6.96596C24.1096 6.82545 24.2076 6.67188 24.2991 6.67188C24.407 6.67188 24.4854 6.85813 24.4854 6.96596C24.4854 7.0934 24.3939 7.20123 24.2991 7.20123C24.2044 7.20123 24.1096 7.10647 24.1096 6.96596Z" fill="black" stroke="white" stroke-width="0.692731" stroke-linejoin="round"/>
<path d="M24.0469 7.09227C24.0469 6.93543 24.158 6.79492 24.2495 6.79492C24.3475 6.79492 24.439 6.96484 24.439 7.08901C24.439 7.21644 24.3442 7.32754 24.2495 7.32754C24.158 7.32754 24.0469 7.22951 24.0469 7.09227V7.09227Z" fill="black" stroke="white" stroke-width="0.692731" stroke-linejoin="round"/>
<path d="M23.7984 7.23361C23.7984 7.07677 23.8899 6.93626 23.9846 6.93626C24.0957 6.93626 24.1741 7.12251 24.1741 7.23034C24.1741 7.36105 24.0761 7.46888 23.9846 7.46888C23.8899 7.46888 23.7951 7.37085 23.7951 7.23361H23.7984ZM23.4062 7.23361C23.4062 7.07677 23.4847 6.93626 23.5631 6.93626C23.6415 6.93626 23.7036 7.12251 23.7036 7.23034C23.7036 7.36105 23.6252 7.46888 23.5631 7.46888C23.4847 7.46888 23.4062 7.37085 23.4062 7.23361V7.23361ZM24.282 7.2042C24.282 7.06043 24.3604 6.91992 24.4388 6.91992C24.5172 6.91992 24.5957 7.0931 24.5957 7.20094C24.5957 7.34144 24.5009 7.4362 24.4388 7.4362C24.3604 7.4362 24.282 7.34144 24.282 7.20094V7.2042Z" fill="black" stroke="white" stroke-width="0.692731" stroke-linejoin="round"/>
<path d="M24.378 7.46458C24.4106 7.311 24.5021 7.18356 24.5642 7.20317C24.6296 7.21624 24.6426 7.40249 24.6132 7.51359C24.5969 7.6541 24.5021 7.73252 24.44 7.71618C24.3747 7.70311 24.3453 7.59201 24.3747 7.46785L24.378 7.46458Z" fill="black" stroke="white" stroke-width="0.692731" stroke-linejoin="round"/>
<path d="M24.0809 7.42027C24.0973 7.27977 24.1888 7.13926 24.2672 7.1556C24.3619 7.1556 24.4077 7.34185 24.3946 7.44968C24.3783 7.59345 24.2966 7.68822 24.2214 7.67188C24.143 7.67188 24.0646 7.56078 24.0809 7.42027V7.42027ZM23.6431 7.46602C23.5941 7.31244 23.4993 7.20461 23.4372 7.21768C23.3751 7.23402 23.3588 7.42027 23.3915 7.53137C23.4241 7.65554 23.5156 7.73396 23.5777 7.71762C23.6267 7.70455 23.6757 7.59345 23.6431 7.46929V7.46602Z" fill="black" stroke="white" stroke-width="0.692731" stroke-linejoin="round"/>
<path d="M23.5312 7.43531C23.5312 7.2948 23.6097 7.1543 23.6881 7.1543C23.7829 7.1543 23.8449 7.32748 23.8449 7.43531C23.8449 7.57582 23.7665 7.67058 23.6881 7.67058C23.6227 7.67058 23.5312 7.57582 23.5312 7.43531Z" fill="black" stroke="white" stroke-width="0.692731" stroke-linejoin="round"/>
<path d="M23.7657 7.49813C23.7657 7.34128 23.8604 7.20404 23.9519 7.20404C24.063 7.20404 24.1415 7.37396 24.1415 7.49813C24.1415 7.62556 24.0467 7.7334 23.9519 7.7334C23.8604 7.7334 23.7657 7.63864 23.7657 7.49813ZM23.8441 5.7761C23.8114 5.90027 23.7036 6.01137 23.7788 6.18455C23.6415 6.13554 23.5173 6.1192 23.4062 6.24664C23.5468 6.2303 23.6709 6.27931 23.733 6.37081C23.6088 6.35447 23.5468 6.41982 23.5141 6.49824C23.6252 6.46557 23.733 6.43289 23.782 6.44923C23.733 6.49824 23.6546 6.5734 23.6415 6.63875C23.733 6.56033 23.8441 6.5734 23.9062 6.52765C23.8604 6.63875 23.9519 6.74658 24.0304 6.85441C24.0173 6.70083 24.1088 6.593 24.063 6.51131C24.2035 6.54399 24.2199 6.66816 24.4225 6.66816C24.3441 6.62241 24.2983 6.46557 24.2035 6.46557C24.2493 6.44923 24.4388 6.43289 24.4715 6.46557C24.4388 6.40021 24.3277 6.3414 24.2656 6.3414C24.331 6.27605 24.4388 6.15188 24.5172 6.1192C24.4061 6.13554 24.2362 6.15188 24.1741 6.24664C24.3277 6.1192 24.2983 5.8872 24.4682 5.85453C24.3767 5.83819 24.2362 5.90027 24.1251 6.01137C24.1741 5.91661 24.1741 5.79244 24.2362 5.75977C24.1088 5.79244 23.9683 5.94929 23.9225 6.02771C23.9158 5.93899 23.8889 5.85296 23.8441 5.7761V5.7761Z" fill="black" stroke="white" stroke-width="0.692731" stroke-linejoin="round"/>
<path d="M23.9226 6.02806C23.9226 6.0738 23.9226 6.16856 23.9062 6.19797ZM24.1252 6.01172C24.0925 6.04439 24.0304 6.15223 24.0304 6.24699Z" fill="black"/>
<path d="M23.9226 6.02806C23.9226 6.0738 23.9226 6.16856 23.9062 6.19797M24.1252 6.01172C24.0925 6.04439 24.0304 6.15223 24.0304 6.24699" stroke="white" stroke-width="0.692731" stroke-linejoin="round"/>
<path d="M24.2205 6.19727C24.1666 6.22944 24.1269 6.2808 24.1094 6.34104" stroke="white" stroke-width="0.692731" stroke-linejoin="round"/>
<path d="M19.1451 16.8966C19.2398 17.1449 19.9129 17.4749 20.6972 17.0534C21.2298 16.7528 21.5729 16.3346 21.9029 15.583C21.9944 15.3935 22.0434 15.1582 21.8245 15.0177C21.6513 14.8903 21.367 14.7498 21.2429 14.6256C21.1808 14.5602 21.1187 14.5145 21.0729 14.4688C21.1056 14.5014 21.135 14.5308 21.1644 14.5766C21.4781 14.9524 21.1514 15.5013 20.805 15.8313C20.5534 16.0666 20.1025 16.645 19.4424 16.096C19.3019 15.9718 18.9719 16.4881 19.1483 16.8966H19.1451ZM28.6668 16.8966C28.5557 17.1449 27.8826 17.4749 27.1147 17.0534C26.5854 16.7528 26.239 16.3346 25.8959 15.583C25.8175 15.3935 25.7685 15.1582 25.9874 15.0177C26.1606 14.8903 26.4449 14.7498 26.569 14.6256C26.6311 14.5602 26.6769 14.5145 26.739 14.4688C26.7063 14.5014 26.6769 14.5308 26.6475 14.5766C26.3338 14.9524 26.6605 15.5013 26.9906 15.8313C27.2422 16.0666 27.7094 16.645 28.3695 16.096C28.51 15.9718 28.8237 16.4881 28.6636 16.8966H28.6668Z" fill="#FCEA83" stroke="black" stroke-width="0.101023"/>
<path d="M23.9048 18.2428C25.1562 18.2428 27.0841 17.6775 28.12 15.7039C28.2899 15.3771 28.12 15.204 27.9141 15.0961C27.6814 14.9789 27.4695 14.8244 27.2867 14.6387C27.5383 14.8903 27.4893 15.0635 27.3194 15.3445C26.5188 16.6777 25.4242 17.3508 23.9048 17.3508C22.3853 17.3508 21.2907 16.6777 20.4901 15.3445C20.3202 15.0635 20.2712 14.8903 20.5065 14.6419C20.3264 14.83 20.1139 14.9838 19.8791 15.0961C19.6765 15.204 19.5033 15.3771 19.6765 15.7039C20.709 17.6775 22.65 18.2428 23.9048 18.2428V18.2428Z" fill="#FCEA83" stroke="black" stroke-width="0.101023"/>
<path d="M21.0076 15.5963C20.975 15.4395 20.7756 15.5016 20.7135 15.6911C20.629 15.5827 20.5546 15.4668 20.4913 15.3447C20.3051 15.0637 20.2724 14.8742 20.5404 14.6095C20.6645 14.4854 20.9161 14.3416 21.0861 14.4984C21.4455 14.7958 21.2592 15.2827 21.0076 15.5963V15.5963ZM26.788 15.5963C26.8207 15.4395 27.0396 15.5016 27.1017 15.6911C27.1801 15.58 27.2585 15.4722 27.3206 15.3447C27.5069 15.0637 27.5396 14.8742 27.2553 14.6095C27.1474 14.4854 26.8958 14.3416 26.7096 14.4984C26.3632 14.7958 26.5364 15.2827 26.788 15.5963ZM19.1451 16.8968C18.9883 16.6616 18.8641 16.0473 18.8314 15.8937C18.7857 15.7532 18.7693 15.6258 18.9425 15.5669C19.1157 15.5016 19.2693 15.7205 19.3477 15.91C19.4261 16.0963 19.5535 16.3773 19.6941 16.7237C19.3477 16.5211 19.0667 16.6583 19.1451 16.8968ZM28.6669 16.8968C28.8074 16.6616 28.9316 16.0473 28.9806 15.8937C29.0132 15.7532 29.0427 15.6258 28.8695 15.5669C28.6963 15.5016 28.5427 15.7205 28.4643 15.91C28.3859 16.0963 28.2584 16.3773 28.1179 16.7237C28.4643 16.5211 28.729 16.6583 28.6669 16.8968V16.8968Z" fill="#C8102E" stroke="black" stroke-width="0.101023"/>
<path d="M20.0517 15.4838L19.9275 15.5492C19.8948 15.5623 19.8948 15.5949 19.8948 15.6113H19.8785L19.8164 15.4708H19.8327C19.8327 15.4838 19.8491 15.5034 19.8785 15.4838L20.1464 15.3433C20.1791 15.327 20.1791 15.3107 20.1628 15.2976L20.1758 15.2812L20.2543 15.4381H20.2412C20.2249 15.4218 20.2085 15.4054 20.1758 15.4218L20.068 15.4871L20.1138 15.5786L20.2412 15.5329C20.2739 15.5165 20.2543 15.4838 20.2543 15.4675H20.2706L20.336 15.6113C20.3196 15.5949 20.3033 15.5786 20.2706 15.5949L20.0059 15.7354C19.9733 15.7518 19.9733 15.7681 19.9896 15.7812L19.9733 15.7975L19.8948 15.657L19.9112 15.6407C19.9275 15.657 19.9438 15.6734 19.9765 15.657L20.1007 15.5917L20.0517 15.4838ZM20.3196 15.6897C20.3523 15.6734 20.3523 15.657 20.3327 15.6243H20.349L20.5059 15.8596L20.398 15.938V15.925C20.4601 15.876 20.4601 15.8139 20.4438 15.7975C20.4274 15.7812 20.4111 15.7649 20.4111 15.7518C20.398 15.7518 20.398 15.7354 20.3654 15.7681L20.2543 15.8465C20.2706 15.8596 20.2869 15.9086 20.3654 15.8596H20.3817L20.2085 15.9871V15.9707C20.2869 15.9054 20.2543 15.8596 20.2412 15.8465L20.1301 15.925C20.0974 15.938 20.0974 15.9576 20.0974 15.9707C20.1138 15.9707 20.1138 15.9871 20.1301 16.0034C20.1464 16.0361 20.1954 16.0655 20.2706 16.0361L20.2869 16.0491L20.1628 16.0949L20.0059 15.8465H20.0223C20.0353 15.8596 20.0549 15.8792 20.0843 15.8596L20.3196 15.6897ZM20.568 16.2844L20.4601 16.3759C20.4438 16.3922 20.4438 16.4249 20.4601 16.4412H20.4438L20.3327 16.3301L20.349 16.3138C20.3654 16.3301 20.3817 16.3465 20.4144 16.3138L20.617 16.1112C20.6496 16.0949 20.6496 16.0785 20.63 16.0459L20.7411 16.1766C20.7248 16.157 20.6954 16.157 20.6758 16.1766L20.5843 16.2681L20.6627 16.3465L20.7575 16.2681C20.7902 16.2354 20.7738 16.2223 20.7575 16.2027L20.7738 16.1896L20.8816 16.3138H20.8653C20.8522 16.3138 20.8326 16.3007 20.8032 16.3301L20.6006 16.5197C20.568 16.5523 20.568 16.5654 20.5843 16.5818V16.5981L20.4765 16.4707C20.4895 16.4707 20.5222 16.487 20.5385 16.4707L20.6464 16.3628L20.568 16.2844ZM20.8032 16.6144L20.8522 16.6602L20.9143 16.5197C20.9143 16.5197 20.8653 16.5327 20.7869 16.5818L20.8032 16.6144L20.7869 16.6275L20.7542 16.5948C20.7411 16.6112 20.7248 16.6112 20.7085 16.6275C20.6627 16.6602 20.6758 16.6765 20.6954 16.6929V16.7059L20.617 16.6275H20.63L20.6954 16.6112L21.0058 16.4412L21.0222 16.4543C21.0222 16.4543 21.0058 16.4707 20.8653 16.7843C20.8653 16.817 20.8522 16.8301 20.8653 16.8628L20.7411 16.7549L20.7575 16.7386C20.7738 16.7713 20.8032 16.7713 20.8196 16.7386C20.8196 16.7223 20.8359 16.6896 20.8359 16.6732L20.7869 16.6275L20.8032 16.6112V16.6144ZM20.9274 16.9249L20.9437 16.9085C20.9601 16.9249 20.9764 16.9249 21.0091 16.9085L21.2117 16.6438L21.1953 16.6275C21.1627 16.6112 21.1169 16.6112 21.0712 16.6602V16.6438L21.1332 16.5654L21.3685 16.7386L21.2901 16.8301H21.2738C21.3195 16.7843 21.3064 16.7223 21.2738 16.7059V16.6896L21.0712 16.9575C21.0385 16.9739 21.0548 17.0033 21.0712 17.0196H21.0548L20.9274 16.9249Z" fill="#00493D"/>
<path d="M21.3354 16.9886L21.257 17.0997C21.2406 17.1323 21.257 17.1454 21.2733 17.165L21.257 17.1781L21.1328 17.0833V17.067C21.1655 17.0833 21.1786 17.0833 21.1949 17.0539L21.3681 16.8187C21.3812 16.786 21.3681 16.7696 21.3517 16.7533L21.3681 16.7402L21.4922 16.8317V16.8481C21.4596 16.8317 21.4465 16.8317 21.4269 16.8644L21.3517 16.9755L21.4465 17.0376L21.5249 16.9265C21.538 16.8938 21.5249 16.8807 21.5086 16.8644L21.5249 16.8481L21.6491 16.9428V16.9592C21.6328 16.9428 21.6033 16.9428 21.5837 16.9755L21.4302 17.2238C21.3975 17.2402 21.4138 17.2565 21.4302 17.2729V17.2859L21.2897 17.1944H21.306C21.3191 17.1944 21.3387 17.1944 21.3517 17.1781L21.4302 17.0539L21.3354 16.9886ZM21.6491 17.4297L21.6654 17.4134C21.6818 17.4297 21.7112 17.4297 21.7275 17.397L21.8517 17.1323C21.868 17.0997 21.8517 17.0833 21.8353 17.067L22.1033 17.1944L22.0379 17.3186L22.0249 17.3023C22.0706 17.2402 22.0249 17.1781 22.0085 17.1618C21.9922 17.1618 21.9759 17.1454 21.9628 17.1454C21.9464 17.1454 21.9464 17.1454 21.9301 17.1781C21.9138 17.1944 21.868 17.2859 21.868 17.2859C21.8844 17.3023 21.9138 17.3349 21.9791 17.2532H21.9922L21.9007 17.4428L21.8844 17.4297C21.9301 17.3317 21.868 17.3186 21.8517 17.3186L21.7896 17.4428C21.7733 17.4754 21.7896 17.4918 21.8059 17.4918V17.5081L21.6491 17.4297ZM22.1033 17.6486C22.0575 17.616 22.0575 17.5212 22.1033 17.4297C22.136 17.3317 22.198 17.2565 22.2601 17.2859C22.3059 17.3023 22.2928 17.397 22.2601 17.4918C22.2111 17.5996 22.149 17.6617 22.1033 17.6486H22.087C22.1981 17.6944 22.2765 17.6323 22.3222 17.5212C22.368 17.4297 22.3549 17.3186 22.2569 17.2729C22.1654 17.2238 22.0706 17.2859 22.0249 17.397C21.9791 17.5081 21.9922 17.616 22.0902 17.6486H22.1033ZM22.5869 17.678L22.6522 17.4918C22.6653 17.4591 22.6522 17.4428 22.6359 17.4264L22.7143 17.4428V17.4591C22.698 17.4591 22.6817 17.4591 22.6653 17.4918L22.6032 17.678C22.5706 17.7565 22.5248 17.8185 22.4333 17.7891C22.368 17.7728 22.3222 17.6944 22.3549 17.616L22.4333 17.4134C22.4464 17.3807 22.4333 17.3643 22.417 17.348V17.3349L22.5575 17.397V17.4134C22.5411 17.397 22.5117 17.397 22.5117 17.4297L22.43 17.629C22.4137 17.6911 22.4137 17.7532 22.4627 17.7695C22.5085 17.7859 22.5542 17.7532 22.5836 17.6748L22.5869 17.678ZM22.7307 17.4754C22.7307 17.4591 22.7307 17.4591 22.7143 17.4591L22.8222 17.4754L22.9202 17.7728L22.9659 17.5833C22.979 17.5506 22.9659 17.5375 22.9496 17.5212L23.0411 17.5375L23.028 17.5539C23.0117 17.5539 22.9953 17.5539 22.979 17.5865L22.9006 17.9296H22.8875L22.7601 17.5539L22.6817 17.8055C22.6817 17.8512 22.698 17.8512 22.7143 17.8676V17.8839L22.6196 17.8512V17.8349C22.6359 17.8512 22.6653 17.8349 22.6653 17.8022L22.7437 17.5212L22.7307 17.4754ZM23.2633 17.7891C23.2306 17.9296 23.1653 17.9623 23.1359 17.9623H23.1032C23.1032 17.9623 23.0901 17.946 23.1032 17.9296L23.1522 17.616C23.1685 17.5996 23.1685 17.5833 23.1849 17.5996H23.2175C23.2469 17.5996 23.2764 17.665 23.2633 17.7891L23.309 17.8055C23.3417 17.6486 23.2764 17.5833 23.1979 17.5702C23.1359 17.5539 23.0411 17.5375 23.0411 17.5375V17.5539C23.0574 17.5702 23.0901 17.5702 23.0738 17.6192L23.028 17.897C23.0117 17.9296 22.9953 17.946 22.979 17.946H22.9659L23.1195 17.9787C23.1979 17.9917 23.2764 17.9787 23.309 17.8055L23.2633 17.7891ZM23.4038 17.6617C23.4038 17.629 23.3711 17.616 23.3548 17.616V17.5996L23.6391 17.6323L23.6227 17.7565C23.6227 17.678 23.5737 17.6486 23.5443 17.6486C23.528 17.6323 23.5116 17.6323 23.4953 17.6323C23.4822 17.6323 23.4822 17.6323 23.4822 17.678L23.4659 17.8055C23.4822 17.8055 23.528 17.8185 23.5606 17.727L23.5443 17.9296H23.528C23.528 17.8349 23.4822 17.8349 23.4626 17.8349L23.4495 17.9754C23.4495 18.0081 23.4495 18.0081 23.4659 18.0081L23.4986 18.0244C23.5443 18.0244 23.59 18.0081 23.6227 17.9133H23.6391L23.6064 18.0375L23.309 18.0048C23.3417 18.0048 23.3548 17.9917 23.3744 17.9623L23.4038 17.6617ZM23.9201 17.8512C23.9201 17.9917 23.8711 18.0375 23.8253 18.0375C23.809 18.0244 23.809 18.0244 23.7926 18.0244L23.7796 18.0081L23.7959 17.6813C23.7959 17.6617 23.7959 17.6617 23.809 17.6617H23.8417C23.8743 17.6617 23.9201 17.7107 23.9201 17.8512H23.9822C23.9822 17.6944 23.9037 17.6486 23.8253 17.6486C23.76 17.6323 23.6685 17.6323 23.6685 17.6323V17.6486C23.6848 17.6486 23.7175 17.6617 23.7175 17.6944L23.7011 17.9917C23.7011 18.0244 23.6848 18.0375 23.6685 18.0375V18.0538H23.809C23.8874 18.0538 23.9658 18.0211 23.9822 17.8512H23.9168H23.9201ZM24.3743 17.9754C24.3743 18.0081 24.3906 18.0081 24.42 18.0081V18.0244L24.2468 18.0375C24.2632 18.0244 24.2958 18.0048 24.2958 17.9754L24.2632 17.6813C24.2468 17.6486 24.2305 17.6486 24.2011 17.6486V17.6323L24.3743 17.616C24.3579 17.6323 24.3253 17.6486 24.3416 17.6813L24.3743 17.9754ZM24.5311 18.0081V17.9917C24.5475 17.9917 24.5638 17.9754 24.5638 17.946L24.4984 17.6192H24.4821C24.4494 17.6323 24.42 17.6617 24.4364 17.727H24.42L24.4037 17.616L24.688 17.5702L24.701 17.678H24.688C24.688 17.616 24.6389 17.5996 24.5899 17.5996H24.5769L24.6422 17.9264C24.6422 17.959 24.6553 17.9754 24.688 17.9754V17.9917L24.5311 18.0081ZM25.2042 17.6944L25.1389 17.5081C25.1389 17.4754 25.1095 17.4754 25.0931 17.4754V17.4591L25.1716 17.4264V17.4428C25.1552 17.4591 25.1552 17.4591 25.1552 17.4918L25.2206 17.6944C25.2337 17.7597 25.2337 17.8512 25.1422 17.8839C25.0768 17.897 25.0017 17.8676 24.9853 17.7728L24.92 17.5702C24.9069 17.5375 24.8906 17.5375 24.8742 17.5375L24.8579 17.5212L25.0147 17.4754V17.4918C25.0017 17.5081 24.982 17.5245 25.0017 17.5539L25.0474 17.7565C25.0637 17.8218 25.1128 17.8512 25.1552 17.8512C25.2042 17.8349 25.2206 17.7728 25.2042 17.6944ZM25.3774 17.5833C25.4526 17.5506 25.4395 17.5081 25.4232 17.4591C25.4068 17.4134 25.3774 17.3807 25.3447 17.397C25.3284 17.397 25.3121 17.4134 25.3284 17.4297L25.3774 17.5833L25.3905 17.5996L25.4232 17.727C25.4395 17.7597 25.4689 17.7597 25.4885 17.7401V17.7565L25.3447 17.8218L25.3284 17.8055C25.3611 17.7891 25.3611 17.7728 25.3611 17.7401L25.25 17.4754C25.2337 17.4297 25.2173 17.4428 25.1879 17.4428V17.4297L25.3447 17.3643C25.4101 17.3513 25.4689 17.3643 25.5016 17.4297C25.5179 17.5081 25.4853 17.5539 25.4232 17.5865C25.4068 17.5865 25.3905 17.5996 25.3905 17.5996L25.3774 17.5833Z" fill="#00493D"/>
<path d="M25.7656 17.6289C25.7199 17.6485 25.6578 17.5832 25.6088 17.4753C25.563 17.3806 25.563 17.2858 25.6088 17.2727C25.6578 17.2564 25.7199 17.3185 25.7656 17.4132C25.8147 17.508 25.8147 17.5995 25.7656 17.6322C25.8637 17.5995 25.8931 17.4917 25.8441 17.3806C25.7983 17.2858 25.7036 17.2237 25.6088 17.2564C25.5868 17.2674 25.5673 17.2828 25.5513 17.3015C25.5354 17.3203 25.5234 17.342 25.5161 17.3655C25.5088 17.389 25.5063 17.4137 25.5087 17.4382C25.5112 17.4627 25.5185 17.4864 25.5304 17.508C25.5794 17.6158 25.6741 17.6779 25.7656 17.6322V17.6289ZM25.782 17.1943H25.7526L25.8441 17.129L26.1283 17.2858L26.0303 17.1159C26.0172 17.0832 25.9846 17.0832 25.9715 17.0832V17.0669L26.0499 17.0342C26.0336 17.0538 26.0172 17.0669 26.0499 17.0996L26.2068 17.4132L26.1904 17.4296L25.8441 17.2401L25.9715 17.4753C25.9846 17.508 26.0172 17.508 26.0336 17.4917V17.508L25.9552 17.5538V17.5374C25.9715 17.5211 25.9715 17.5047 25.9552 17.4753L25.831 17.2237L25.782 17.1911V17.1943ZM26.4878 17.2401V17.2237C26.4878 17.2074 26.5041 17.1911 26.4878 17.1616L26.2983 16.897H26.2819C26.2492 16.91 26.2362 16.9754 26.2819 17.0211L26.2689 17.0375L26.2035 16.9264L26.4388 16.7695L26.5041 16.8676C26.4551 16.8185 26.4061 16.8185 26.3767 16.8349L26.3603 16.848L26.5499 17.1159C26.5662 17.1486 26.5956 17.1486 26.6152 17.1322V17.1453L26.4878 17.2401Z" fill="#00493D"/>
<path d="M26.6636 16.8636L26.7551 16.9747C26.7714 16.9878 26.8041 16.9878 26.8204 16.9747V16.9878L26.693 17.0989V17.0825C26.7093 17.0662 26.7093 17.0498 26.693 17.0204L26.5068 16.7852C26.4904 16.7525 26.4741 16.7688 26.4414 16.7688L26.5688 16.661V16.6773C26.5688 16.6904 26.5525 16.71 26.5688 16.7394L26.6473 16.8309L26.7388 16.7688L26.6636 16.661C26.6473 16.6283 26.6146 16.6447 26.5983 16.6447L26.7257 16.5336V16.5499C26.7093 16.5662 26.7093 16.5826 26.7257 16.6153L26.9119 16.8473C26.9283 16.8636 26.9446 16.8636 26.961 16.8473L26.974 16.8636L26.8499 16.9747L26.8335 16.9584C26.8499 16.942 26.8662 16.9257 26.8499 16.893L26.7551 16.7852L26.6636 16.8636ZM26.8041 16.5336C26.7878 16.5205 26.7551 16.5205 26.7388 16.5336V16.5205L26.9446 16.331L27.0394 16.4257H27.023C26.974 16.3604 26.9119 16.3931 26.8825 16.4094C26.8825 16.4257 26.8662 16.4257 26.8499 16.4421C26.8499 16.4421 26.8499 16.4551 26.8662 16.4878L26.961 16.5826C26.974 16.5662 27.023 16.5336 26.961 16.4551H26.974L27.1015 16.5989V16.612C27.023 16.5336 26.9904 16.5793 26.974 16.5989L27.0721 16.6904C27.0851 16.7231 27.1015 16.7231 27.1015 16.7231L27.1472 16.6773C27.1635 16.661 27.1799 16.612 27.1472 16.5205H27.1635L27.2256 16.6283L27.023 16.8309L27.0067 16.8178C27.023 16.8015 27.0394 16.7852 27.0067 16.7525L26.8041 16.5336ZM27.1799 16.0957C27.1635 16.112 27.1635 16.1447 27.193 16.1611C27.2256 16.1905 27.2583 16.1905 27.3204 16.1611C27.3531 16.1447 27.4119 16.1284 27.4609 16.1741C27.5393 16.2526 27.5066 16.3146 27.4936 16.3473C27.4772 16.3637 27.4446 16.38 27.4282 16.3931C27.4119 16.3931 27.4119 16.3931 27.4119 16.4094V16.4257L27.3041 16.331H27.3204C27.3825 16.3637 27.4446 16.3767 27.4772 16.331C27.5099 16.2983 27.4772 16.2656 27.4609 16.2526C27.4282 16.2199 27.3955 16.2199 27.3498 16.2526C27.3041 16.2689 27.242 16.2689 27.193 16.2362C27.1309 16.1741 27.1309 16.1284 27.1603 16.0794L27.2256 16.0336C27.242 16.0336 27.242 16.0336 27.2256 16.0009L27.3367 16.0794H27.3204C27.242 16.0467 27.193 16.0663 27.1799 16.0957ZM27.3204 15.9715C27.2877 15.9552 27.2714 15.9715 27.255 15.9879H27.242L27.4152 15.7363L27.523 15.8147L27.5066 15.831C27.4871 15.8142 27.4622 15.805 27.4364 15.805C27.4106 15.805 27.3857 15.8142 27.3661 15.831C27.3661 15.8474 27.3498 15.8637 27.3498 15.8768C27.3367 15.8768 27.3367 15.8931 27.3661 15.9095C27.3825 15.9258 27.4772 15.9879 27.4772 15.9879C27.4936 15.9715 27.523 15.9389 27.4609 15.8768V15.8604L27.6177 15.9879C27.523 15.9389 27.5066 15.9879 27.4936 16.0009L27.6014 16.0794C27.6341 16.0957 27.6471 16.0957 27.6471 16.0957C27.6471 16.0794 27.6635 16.063 27.6798 16.05C27.6962 16.0173 27.7125 15.9715 27.6471 15.9095L27.6635 15.8931L27.7419 15.9879L27.5851 16.2231H27.5687C27.5851 16.1905 27.5851 16.1741 27.5557 16.1447L27.3204 15.9715ZM27.7419 15.6905L27.6962 15.7689C27.6308 15.7036 27.6014 15.6578 27.6014 15.6578L27.7419 15.6905H27.7746C27.7909 15.6905 27.8203 15.7036 27.8367 15.7036C27.8824 15.7199 27.8693 15.7363 27.853 15.7689H27.8693L27.9478 15.6252C27.9151 15.6578 27.8988 15.6415 27.8693 15.6415C27.5393 15.5794 27.5099 15.5631 27.5099 15.5631V15.5794L27.7582 15.8604C27.7746 15.8768 27.7746 15.9095 27.7746 15.9258H27.7909L27.8367 15.8474L27.8203 15.831C27.804 15.8637 27.7877 15.8768 27.7582 15.831L27.7256 15.7984L27.7746 15.6905H27.7419ZM27.6471 15.3442C27.6341 15.3605 27.6341 15.3932 27.6798 15.4095C27.7256 15.4226 27.7452 15.4095 27.7909 15.3768C27.8367 15.3442 27.8824 15.3115 27.9445 15.3442C28.0425 15.3932 28.0229 15.4716 28.0099 15.501L27.9608 15.5664V15.5958L27.8367 15.5304C27.9151 15.5468 27.9772 15.5304 27.9935 15.4847C28.0099 15.452 27.9772 15.4226 27.9608 15.4062C27.9282 15.3932 27.8988 15.4062 27.853 15.4389C27.804 15.4847 27.755 15.5043 27.6962 15.4716C27.6308 15.4389 27.6014 15.3932 27.6308 15.3442C27.6308 15.3115 27.6635 15.2984 27.6798 15.2821C27.6798 15.2657 27.6798 15.2657 27.6635 15.2494V15.2363L27.7909 15.2984H27.7746C27.6962 15.2821 27.6471 15.3148 27.6471 15.3442V15.3442Z" fill="#00493D"/>
<path d="M22.7019 9.8022C22.4993 9.84794 22.3588 9.86428 22.1693 9.6911C22.0451 9.56693 22.0745 9.348 22.202 9.26631C22.3425 9.17482 22.4666 9.11273 22.6398 9.15848C22.813 9.20749 23.2672 9.62901 23.1561 9.64535C23.045 9.64535 22.8751 9.75318 22.7019 9.8022ZM23.1855 9.05065C23.2509 9.00163 23.3293 8.97223 23.5319 8.95262C23.7214 8.93955 23.8586 8.93955 23.9076 9.08332C23.973 9.25324 24.0187 9.45583 24.1429 9.55059C24.0645 9.59634 23.6724 9.64535 23.5319 9.56693C23.3456 9.47217 23.2966 9.10946 23.1888 9.05065H23.1855ZM24.535 9.06699C24.5971 9.01797 24.6755 9.01797 24.8781 9.03431C25.0807 9.05065 25.1591 9.06699 25.2049 9.20749C25.2539 9.36434 25.2049 9.56693 25.3029 9.70744C25.2049 9.74011 24.8945 9.74011 24.7834 9.62901C24.6134 9.50484 24.6265 9.14214 24.535 9.06372V9.06699Z" fill="white" stroke="black" stroke-width="0.101023"/>
<path d="M25.4715 9.15838C25.3309 9.12571 25.2362 9.11264 25.1774 9.15838C25.2525 9.25314 25.1904 9.62892 25.3473 9.75309C25.4551 9.83151 25.7394 9.85111 25.8015 9.67466C25.8799 9.51782 25.8799 9.28255 25.4747 9.15838H25.4715ZM23.8605 9.00154C23.9063 8.95579 24.001 8.93945 24.1873 8.93945C24.3931 8.93945 24.514 8.97213 24.5794 9.0963C24.6447 9.25314 24.6251 9.45573 24.7362 9.58317C24.6905 9.64525 24.2657 9.64525 24.1415 9.55049C23.9684 9.4394 23.952 9.07996 23.8605 9.00154V9.00154ZM22.5306 9.14204C22.5306 9.06362 22.6384 9.05055 22.9227 9.03421C23.2005 9.00154 23.2168 9.01788 23.3116 9.22047C23.3573 9.33156 23.4194 9.51782 23.5468 9.5799C23.2005 9.66159 23.0894 9.70734 22.9031 9.59624C22.7671 9.51117 22.6547 9.39316 22.5764 9.25314C22.56 9.2074 22.56 9.15838 22.5273 9.14204H22.5306Z" fill="#073163" stroke="black" stroke-width="0.101023"/>
<path d="M23.2808 7.54824C22.9508 7.29664 22.5587 7.06137 22.1992 7.01562C22.5743 7.26566 22.9303 7.54308 23.2645 7.8456" fill="#F9D050"/>
<path d="M23.2808 7.54824C22.9508 7.29664 22.5587 7.06137 22.1992 7.01562C22.5743 7.26566 22.9303 7.54308 23.2645 7.8456" stroke="black" stroke-width="0.0432957"/>
<path d="M23.4678 7.31229C23.0756 7.04435 22.6215 6.747 22.1836 6.71759C22.5934 6.95504 22.9583 7.26249 23.2619 7.62598M23.9677 6.87443C24.1446 6.47233 24.4066 6.11336 24.7356 5.82227C24.5787 6.15229 24.4088 6.82542 24.3271 7.09336" fill="#F9D050"/>
<path d="M23.4678 7.31229C23.0756 7.04435 22.6215 6.747 22.1836 6.71759C22.5934 6.95504 22.9583 7.26249 23.2619 7.62598M23.9677 6.87443C24.1446 6.47233 24.4066 6.11336 24.7356 5.82227C24.5787 6.15229 24.4088 6.82542 24.3271 7.09336" stroke="black" stroke-width="0.0432957"/>
<path d="M24.3125 6.79613C24.4639 6.42793 24.7486 6.13039 25.1098 5.96289C24.8385 6.30141 24.6364 6.69001 24.5151 7.10655" fill="#F9D050"/>
<path d="M24.3125 6.79613C24.4639 6.42793 24.7486 6.13039 25.1098 5.96289C24.8385 6.30141 24.6364 6.69001 24.5151 7.10655" stroke="black" stroke-width="0.0432957"/>
<path d="M24.4531 7.10678C24.7531 6.64754 25.1831 6.28807 25.6883 6.07422C25.2962 6.46633 24.7178 7.1852 24.5773 7.46948M24.6721 7.45315C24.9531 7.2963 25.5184 7.0447 25.9235 7.12639C25.6752 7.21788 24.9237 7.56098 24.5936 7.87793" fill="#F9D050"/>
<path d="M24.4531 7.10678C24.7531 6.64754 25.1831 6.28807 25.6883 6.07422C25.2962 6.46633 24.7178 7.1852 24.5773 7.46948M24.6721 7.45315C24.9531 7.2963 25.5184 7.0447 25.9235 7.12639C25.6752 7.21788 24.9237 7.56098 24.5936 7.87793" stroke="black" stroke-width="0.0432957"/>
<path d="M24.6104 7.34151C24.8751 7.0605 25.362 6.63898 25.8782 6.4658C25.5025 6.82523 24.7019 7.64213 24.5941 7.7663M23.8589 7.1716C23.6693 6.58997 23.3883 6.04428 22.9668 5.87109C23.3025 6.35111 23.5361 6.89496 23.653 7.46895M23.4962 7.15526C23.1857 6.77949 22.7609 6.40371 22.2773 6.32529C22.7512 6.63539 23.1256 7.07559 23.3557 7.59312" fill="#F9D050"/>
<path d="M24.6104 7.34151C24.8751 7.0605 25.362 6.63898 25.8782 6.4658C25.5025 6.82523 24.7019 7.64213 24.5941 7.7663M23.8589 7.1716C23.6693 6.58997 23.3883 6.04428 22.9668 5.87109C23.3025 6.35111 23.5361 6.89496 23.653 7.46895M23.4962 7.15526C23.1857 6.77949 22.7609 6.40371 22.2773 6.32529C22.7512 6.63539 23.1256 7.07559 23.3557 7.59312" stroke="black" stroke-width="0.0432957"/>
<path d="M23.6751 7.13845C23.283 6.43264 22.9824 6.30848 22.8125 6.16797C22.953 6.43264 23.2961 7.13845 23.4987 7.4358" fill="#F9D050"/>
<path d="M23.6751 7.13845C23.283 6.43264 22.9824 6.30848 22.8125 6.16797C22.953 6.43264 23.2961 7.13845 23.4987 7.4358" stroke="black" stroke-width="0.0432957"/>
<path d="M22.8906 7.09375C23.1141 7.23429 23.3056 7.4202 23.4527 7.63944" stroke="black" stroke-width="0.0432957"/>
<path d="M22.8906 7.42041C22.9821 7.49883 23.1553 7.59359 23.3121 7.7341ZM24.7532 7.65568C24.91 7.53151 25.2531 7.32892 25.4263 7.26356ZM24.6421 7.54785C24.7989 7.34199 25.1126 7.06097 25.2237 6.96621ZM25.0799 6.5741C24.8694 6.81007 24.6709 7.05655 24.4852 7.31258ZM24.6747 6.43359C24.5264 6.65295 24.3953 6.88346 24.2826 7.12306ZM23.4363 6.46627C23.5311 6.71787 23.7043 7.1394 23.7631 7.31258ZM23.2958 6.73095C23.3612 6.82897 23.4853 7.04463 23.5311 7.20148Z" fill="#F9D050"/>
<path d="M22.8906 7.42041C22.9821 7.49883 23.1553 7.59359 23.3121 7.7341M24.7532 7.65568C24.91 7.53151 25.2531 7.32892 25.4263 7.26356M24.6421 7.54785C24.7989 7.34199 25.1126 7.06097 25.2237 6.96621M25.0799 6.5741C24.8694 6.81007 24.6709 7.05655 24.4852 7.31258M24.6747 6.43359C24.5264 6.65295 24.3953 6.88346 24.2826 7.12306M23.4363 6.46627C23.5311 6.71787 23.7043 7.1394 23.7631 7.31258M23.2958 6.73095C23.3612 6.82897 23.4853 7.04463 23.5311 7.20148" stroke="black" stroke-width="0.0432957"/>
<path d="M23.8242 6.65151C23.8242 6.511 23.919 6.35742 24.0137 6.35742C24.1216 6.35742 24.2 6.54368 24.2 6.65151C24.2 6.77894 24.1052 6.88677 24.0137 6.88677C23.9157 6.88677 23.8242 6.79528 23.8242 6.65151Z" fill="#F9D050" stroke="black" stroke-width="0.0432957"/>
<path d="M23.6233 6.77865C23.6396 6.62181 23.7474 6.49764 23.8422 6.51071C23.937 6.52705 23.9827 6.71657 23.9664 6.8244C23.95 6.94857 23.8422 7.04333 23.7638 7.02699C23.6854 7.02699 23.6069 6.91916 23.6233 6.77865ZM24.0448 6.8244C24.0121 6.68389 24.0775 6.53032 24.1722 6.51071C24.2637 6.49764 24.3585 6.65122 24.3748 6.77865C24.4075 6.90282 24.3258 7.02699 24.2474 7.02699C24.1722 7.04333 24.0611 6.96491 24.0448 6.8244Z" fill="#F9D050" stroke="black" stroke-width="0.0432957"/>
<path d="M23.8086 6.94838C23.8086 6.7948 23.9034 6.6543 23.9981 6.6543C24.1059 6.6543 24.1844 6.82421 24.1844 6.94838C24.1844 7.07582 24.0929 7.18365 23.9981 7.18365C23.9034 7.18365 23.8086 7.09216 23.8086 6.94838Z" fill="#F9D050" stroke="black" stroke-width="0.0432957"/>
<path d="M23.5273 7.02804C23.5273 6.88754 23.6384 6.73396 23.7299 6.73396C23.828 6.73396 23.9195 6.92021 23.9195 7.02804C23.9195 7.15548 23.8084 7.26331 23.7299 7.26331C23.6384 7.26331 23.5273 7.17182 23.5273 7.02804ZM24.1057 6.96596C24.1057 6.82545 24.2037 6.67188 24.2952 6.67188C24.4031 6.67188 24.4815 6.85813 24.4815 6.96596C24.4815 7.0934 24.39 7.20123 24.2952 7.20123C24.2005 7.20123 24.1057 7.10647 24.1057 6.96596Z" fill="#F9D050" stroke="black" stroke-width="0.0432957"/>
<path d="M24.043 7.09227C24.043 6.93543 24.1541 6.79492 24.2456 6.79492C24.3436 6.79492 24.4351 6.96484 24.4351 7.08901C24.4351 7.21644 24.3403 7.32754 24.2456 7.32754C24.1541 7.32754 24.043 7.22951 24.043 7.09227V7.09227Z" fill="#F9D050" stroke="black" stroke-width="0.0432957"/>
<path d="M23.7945 7.23361C23.7945 7.07677 23.8859 6.93626 23.9807 6.93626C24.0918 6.93626 24.1702 7.12251 24.1702 7.23034C24.1702 7.36105 24.0722 7.46888 23.9807 7.46888C23.8859 7.46888 23.7912 7.37085 23.7912 7.23361H23.7945ZM23.4023 7.23361C23.4023 7.07677 23.4808 6.93626 23.5592 6.93626C23.6376 6.93626 23.6997 7.12251 23.6997 7.23034C23.6997 7.36105 23.6213 7.46888 23.5592 7.46888C23.4808 7.46888 23.4023 7.37085 23.4023 7.23361V7.23361ZM24.2781 7.2042C24.2781 7.06043 24.3565 6.91992 24.4349 6.91992C24.5133 6.91992 24.5918 7.0931 24.5918 7.20094C24.5918 7.34144 24.497 7.4362 24.4349 7.4362C24.3565 7.4362 24.2781 7.34144 24.2781 7.20094V7.2042Z" fill="#F9D050" stroke="black" stroke-width="0.0432957"/>
<path d="M24.3741 7.46458C24.4067 7.311 24.4982 7.18356 24.5603 7.20317C24.6257 7.21624 24.6387 7.40249 24.6093 7.51359C24.593 7.6541 24.4982 7.73252 24.4361 7.71618C24.3708 7.70311 24.3414 7.59201 24.3708 7.46785L24.3741 7.46458Z" fill="#F9D050" stroke="black" stroke-width="0.0432957"/>
<path d="M24.077 7.42027C24.0934 7.27977 24.1848 7.13926 24.2633 7.1556C24.358 7.1556 24.4038 7.34185 24.3907 7.44968C24.3744 7.59345 24.2927 7.68822 24.2175 7.67188C24.1391 7.67188 24.0607 7.56078 24.077 7.42027V7.42027ZM23.6392 7.46602C23.5901 7.31244 23.4954 7.20461 23.4333 7.21768C23.3712 7.23402 23.3549 7.42027 23.3876 7.53137C23.4202 7.65554 23.5117 7.73396 23.5738 7.71762C23.6228 7.70455 23.6718 7.59345 23.6392 7.46929V7.46602Z" fill="#F9D050" stroke="black" stroke-width="0.0432957"/>
<path d="M23.5273 7.43531C23.5273 7.2948 23.6058 7.1543 23.6842 7.1543C23.779 7.1543 23.841 7.32748 23.841 7.43531C23.841 7.57582 23.7626 7.67058 23.6842 7.67058C23.6188 7.67058 23.5273 7.57582 23.5273 7.43531Z" fill="#F9D050" stroke="black" stroke-width="0.0432957"/>
<path d="M23.7618 7.49813C23.7618 7.34128 23.8565 7.20404 23.948 7.20404C24.0591 7.20404 24.1376 7.37396 24.1376 7.49813C24.1376 7.62556 24.0428 7.7334 23.948 7.7334C23.8565 7.7334 23.7618 7.63864 23.7618 7.49813ZM23.8402 5.7761C23.8075 5.90027 23.6997 6.01137 23.7749 6.18455C23.6376 6.13554 23.5134 6.1192 23.4023 6.24664C23.5429 6.2303 23.667 6.27931 23.7291 6.37081C23.6049 6.35447 23.5429 6.41982 23.5102 6.49824C23.6213 6.46557 23.7291 6.43289 23.7781 6.44923C23.7291 6.49824 23.6507 6.5734 23.6376 6.63875C23.7291 6.56033 23.8402 6.5734 23.9023 6.52765C23.8565 6.63875 23.948 6.74658 24.0265 6.85441C24.0134 6.70083 24.1049 6.593 24.0591 6.51131C24.1996 6.54399 24.216 6.66816 24.4186 6.66816C24.3401 6.62241 24.2944 6.46557 24.1996 6.46557C24.2454 6.44923 24.4349 6.43289 24.4676 6.46557C24.4349 6.40021 24.3238 6.3414 24.2617 6.3414C24.3271 6.27605 24.4349 6.15188 24.5133 6.1192C24.4022 6.13554 24.2323 6.15188 24.1702 6.24664C24.3238 6.1192 24.2944 5.8872 24.4643 5.85453C24.3728 5.83819 24.2323 5.90027 24.1212 6.01137C24.1702 5.91661 24.1702 5.79244 24.2323 5.75977C24.1049 5.79244 23.9644 5.94929 23.9186 6.02771C23.9119 5.93899 23.885 5.85296 23.8402 5.7761V5.7761Z" fill="#F9D050" stroke="black" stroke-width="0.0432957"/>
<path d="M23.9187 6.02806C23.9187 6.0738 23.9187 6.16856 23.9023 6.19797ZM24.1213 6.01172C24.0886 6.04439 24.0265 6.15223 24.0265 6.24699Z" fill="#F9D050"/>
<path d="M23.9187 6.02806C23.9187 6.0738 23.9187 6.16856 23.9023 6.19797M24.1213 6.01172C24.0886 6.04439 24.0265 6.15223 24.0265 6.24699" stroke="black" stroke-width="0.0432957"/>
<path d="M24.2166 6.19727C24.1627 6.22944 24.123 6.2808 24.1055 6.34104" stroke="black" stroke-width="0.0432957"/>
<path d="M22.5604 7.75021C22.4493 7.75021 22.3578 7.70446 22.2925 7.62604C22.1847 7.48226 21.8873 7.42018 21.7599 7.54762C21.7141 7.58029 21.652 7.58029 21.6063 7.59336C21.5279 7.59336 21.4331 7.67178 21.4625 7.82863C21.5279 7.77961 21.5409 7.82863 21.59 7.82863C21.6226 7.81229 21.6063 7.84497 21.6063 7.87438C21.6063 7.9528 21.7762 8.10964 21.9331 8.0933C22.1062 8.0933 22.1847 8.15866 22.2141 8.19133C22.2631 8.23381 22.2304 8.22074 22.2631 8.29916C22.3088 8.34491 22.3252 8.36125 22.2467 8.42333C22.2111 8.45308 22.1824 8.4903 22.1627 8.53237C22.143 8.57444 22.1328 8.62032 22.1328 8.66677C22.1328 8.71322 22.143 8.7591 22.1627 8.80117C22.1824 8.84323 22.2111 8.88046 22.2467 8.9102C22.4493 9.06378 22.9656 9.30232 23.5472 8.84485C24.1093 8.40699 24.985 8.6586 25.0503 8.81218C25.1288 8.97229 25.1582 9.06378 25.1745 9.1422C25.1908 9.20756 25.2693 9.26964 25.3804 9.2533C25.4882 9.2533 25.6124 9.29905 25.6745 9.34806C25.7561 9.39381 25.864 9.38074 25.8346 9.23696C25.7692 8.79911 25.5045 8.73702 25.4751 8.53443C25.6287 8.5475 25.7365 8.5475 25.8019 8.48542C25.8476 8.42333 25.9097 8.31223 25.9751 8.28283C26.0208 8.25015 26.0208 8.21747 25.9587 8.23381C25.8803 8.25015 25.8346 8.28283 25.6908 8.26649C24.9719 8.18806 22.9525 7.63911 22.5604 7.75021V7.75021Z" fill="#059334" stroke="black" stroke-width="0.101023"/>
<path d="M25.7576 8.28212C25.6382 8.36639 25.5361 8.4729 25.457 8.59581C25.3034 8.7984 24.8329 9.00099 24.2513 9.00099C23.6892 9.00099 23.3461 8.9095 23.0945 8.70691C22.9871 8.62102 22.871 8.54655 22.7482 8.48471C22.5783 8.40629 22.5456 8.23311 22.5913 8.0926C22.5456 8.17102 22.5162 8.24945 22.4214 8.23311C22.3561 8.23311 22.2319 8.23311 22.2646 8.29846C22.2482 8.26578 22.2482 8.22004 22.2319 8.20043L22.1992 8.17102C22.2482 8.2037 22.3593 8.10894 22.4378 8.10894C22.4998 8.12528 22.5783 8.04685 22.5619 7.95209L22.5162 7.7495C22.6403 7.68415 24.2839 7.98477 24.614 8.01418C24.9407 8.03052 25.8818 8.17102 25.7576 8.28212V8.28212Z" fill="black" stroke="black" stroke-width="0.101023"/>
<path d="M22.7803 7.68788C22.9371 7.53103 23.1234 7.45261 23.3129 7.49835H23.3587C23.4567 7.41993 23.6724 7.40359 23.7998 7.46568H23.8619C24.0481 7.40359 24.4076 7.46568 24.535 7.59311L24.5807 7.62579C25.0055 7.59311 25.2539 7.77937 25.5512 8.07999C25.5839 8.11266 25.6296 8.17148 25.7081 8.18782C25.8028 8.20416 25.8192 8.25317 25.7407 8.29892C25.6151 8.37662 25.5044 8.47622 25.414 8.593C25.2702 8.78252 24.816 8.97204 24.2507 8.97204C23.705 8.97204 23.375 8.87401 23.1234 8.68776C22.9829 8.57993 22.8751 8.51785 22.7966 8.46883C22.7019 8.43616 22.5777 8.31199 22.6235 8.18782C22.6561 8.06365 22.5777 7.9068 22.5156 7.74996C22.5614 7.71728 22.6855 7.67154 22.7476 7.70421L22.7803 7.68788Z" fill="#059334" stroke="black" stroke-width="0.101023"/>
<path d="M25.5483 8.07999C25.2542 7.77937 25.0026 7.59312 24.5778 7.62252C24.5778 7.63886 24.5778 7.68788 24.5615 7.72055C24.8575 7.8534 25.1199 8.05105 25.3293 8.29892C25.3947 8.23356 25.5025 8.15841 25.5483 8.07999ZM24.532 7.59311C24.4046 7.46895 24.0452 7.40359 23.8589 7.46895C23.8589 7.53103 23.8589 7.62579 23.8262 7.68788C23.9373 7.73362 24.0288 7.84472 24.1236 7.95255C24.1889 7.93621 24.3425 7.89047 24.4209 7.87413C24.4677 7.78462 24.505 7.69043 24.532 7.59311V7.59311ZM23.7968 7.46568C23.6694 7.40359 23.4505 7.41993 23.3557 7.49835C23.323 7.56371 23.31 7.68788 23.31 7.74996C23.3753 7.74996 23.4668 7.79571 23.4962 7.82838C23.5942 7.79571 23.7184 7.73362 23.7642 7.68788C23.7805 7.62252 23.8099 7.53103 23.7968 7.46895V7.46568ZM22.7773 7.68788C22.9342 7.53103 23.1204 7.45261 23.31 7.49835C23.2773 7.54737 23.2642 7.63886 23.2642 7.73362C23.091 7.71728 22.8721 7.7663 22.7773 7.82838V7.68788Z" fill="#00493D" stroke="black" stroke-width="0.101023"/>
<path d="M25.2687 8.32765C25.0718 8.09457 24.8265 7.90723 24.5498 7.7787C24.5498 7.79503 24.5171 7.85712 24.5008 7.90613C24.5956 8.04664 24.7818 8.36033 24.8602 8.53351C24.9387 8.50084 25.1576 8.40607 25.2687 8.32765V8.32765ZM24.0793 8.67402C24.1064 8.46045 24.1216 8.24555 24.125 8.0303C24.2034 8.01396 24.3603 7.96822 24.4224 7.95188C24.5008 8.07931 24.6903 8.40934 24.7687 8.56292C24.5792 8.60867 24.2655 8.68709 24.0793 8.67402ZM23.5303 7.92247C23.6087 7.88979 23.7198 7.82444 23.795 7.76562C23.8603 7.81137 23.9845 7.92247 24.0303 7.98455C24.0303 8.12506 23.9845 8.53351 23.9682 8.67075C23.844 8.67075 23.6414 8.64134 23.5303 8.57926C23.5467 8.34399 23.563 8.07931 23.5303 7.92247V7.92247ZM22.7461 8.10872C22.7624 8.07605 22.7788 7.96822 22.7788 7.92247C22.9029 7.84405 23.2166 7.76563 23.4519 7.88979C23.4682 8.04664 23.4519 8.43875 23.4356 8.53351C23.226 8.36308 22.9954 8.22031 22.7494 8.10872H22.7461Z" fill="#00493D" stroke="black" stroke-width="0.101023"/>
<path d="M21.963 7.82391C21.9303 7.82391 21.9139 7.73242 21.8519 7.73242C21.8355 7.73242 21.7898 7.74876 21.7734 7.73242C21.7734 7.7651 21.7898 7.79777 21.8061 7.81084C21.8225 7.85659 21.9009 7.82718 21.963 7.82718V7.82391Z" fill="black"/>
<path d="M21.9649 8.09256C22.1512 8.09256 22.1838 7.8573 22.2786 7.84423M22.0727 8.1089C22.2132 8.17425 22.3243 7.84423 22.4322 7.8573M21.7917 7.70372C21.8375 7.70372 21.8701 7.63837 21.9486 7.71679C21.9812 7.74947 22.027 7.7658 22.0597 7.7658M22.027 7.93572C21.9616 8.03375 21.8538 8.09256 21.7917 8.06316M21.759 7.54688C21.7133 7.57955 21.6839 7.63837 21.6512 7.68738M21.6055 7.77887V7.8573" stroke="black" stroke-width="0.101023"/>
<path d="M26.8335 9.81772V12.8697C26.8335 15.5164 25.582 16.4248 23.9057 17.1437C22.2294 16.4248 20.9648 15.5164 20.9648 12.8697V9.81445H26.8335V9.81772Z" fill="white"/>
<path d="M23.905 12.3998C24.0456 12.3998 24.2645 12.2756 24.454 12.0861C24.6566 11.8671 25.003 11.792 25.3624 12.0861C25.7218 12.3834 25.9408 12.2593 26.1303 12.0861C26.3165 11.9162 26.4734 11.8508 26.8328 11.8508V9.81836H20.9609V11.8541C21.3204 11.8541 21.4772 11.9194 21.6667 12.0893C21.853 12.2625 22.0719 12.3867 22.4346 12.0893C22.8104 11.7953 23.1372 11.8704 23.3561 12.0893C23.5293 12.2789 23.7482 12.403 23.905 12.403V12.3998Z" fill="#C8102E"/>
<path d="M23.905 13.9677C24.0946 13.9677 24.4703 13.7618 24.5618 13.7161C24.9082 13.5102 25.1565 13.6997 25.3624 13.7945C25.5813 13.886 25.9865 13.9971 26.2381 13.7945C26.4897 13.5886 26.6302 13.605 26.8034 13.605C26.8361 13.3697 26.8361 13.1344 26.8361 12.8698V12.6802C26.6139 12.6345 26.5061 12.6966 26.2708 12.9024C26.0355 13.105 25.7676 13.0593 25.4212 12.9351C25.0945 12.7913 24.7677 12.543 24.4377 12.9351C24.3008 13.0881 24.1098 13.1818 23.905 13.1965C23.6698 13.1965 23.4672 13.0429 23.3724 12.9351C23.0293 12.543 22.7156 12.7913 22.3856 12.9351C22.0425 13.0593 21.7582 13.105 21.5262 12.9024C21.3073 12.6966 21.1962 12.6345 20.9609 12.6802V12.8698C20.9609 13.1344 20.9773 13.3697 21.0067 13.605C21.1799 13.605 21.3073 13.5886 21.5556 13.7945C21.8072 13.9971 22.2288 13.886 22.4346 13.7945C22.6536 13.6997 22.9019 13.5102 23.2483 13.7161C23.343 13.7618 23.7025 13.9644 23.905 13.9644V13.9677ZM23.905 14.6408C24.1764 14.6262 24.44 14.5454 24.6729 14.4055C24.9866 14.2324 25.2055 14.3075 25.5192 14.4676C25.846 14.6245 26.1139 14.5755 26.3035 14.4676C26.395 14.4023 26.4734 14.2781 26.676 14.3271C26.5845 14.7192 26.4407 15.0623 26.2708 15.3433C26.1373 15.3876 25.9963 15.4049 25.8561 15.3942C25.7159 15.3836 25.5792 15.3452 25.4539 15.2813C25.1271 15.1244 24.7187 15.0296 24.4997 15.1702C24.3222 15.2857 24.1167 15.3512 23.905 15.3597C23.7319 15.3597 23.5129 15.2943 23.3103 15.1702C23.0914 15.0296 22.683 15.1244 22.3562 15.2813C22.2312 15.3457 22.0945 15.3847 21.9543 15.3959C21.8141 15.4071 21.673 15.3904 21.5393 15.3466C21.3694 15.0623 21.2289 14.716 21.1341 14.3271C21.3367 14.2781 21.4151 14.4055 21.5099 14.4676C21.627 14.5338 21.7593 14.5685 21.8938 14.5685C22.0284 14.5685 22.1606 14.5338 22.2778 14.4676C22.6045 14.3108 22.8235 14.2324 23.1372 14.4023C23.3698 14.5433 23.6334 14.6252 23.905 14.6408V14.6408ZM23.905 17.1438C24.5107 16.9091 25.0762 16.5817 25.5813 16.1733C25.4539 16.1276 25.3787 16.157 25.2676 16.0785C25.1565 16.0001 24.8298 15.9707 24.5488 16.1276C24.3539 16.2412 24.1323 16.3011 23.9067 16.3011C23.6811 16.3011 23.4595 16.2412 23.2646 16.1276C22.9803 15.9707 22.6536 16.0001 22.5457 16.0785C22.4346 16.157 22.3562 16.1276 22.2288 16.1766C22.7319 16.5871 23.2979 16.9137 23.905 17.1438V17.1438Z" fill="#0B50A0"/>
<path d="M23.4977 10.5826C23.5141 10.6152 23.4847 10.6937 23.4977 10.7231C23.5304 10.7884 23.5304 10.8211 23.5761 10.8505H23.6872C24.0303 10.8505 24.4388 10.71 24.7819 10.71C25.1119 10.71 25.3145 10.8178 25.5008 10.8178C25.6119 10.8178 25.7066 10.7394 25.7066 10.661C25.7066 10.5826 25.5825 10.5368 25.3145 10.5368C24.9387 10.5368 24.7361 10.6316 24.4225 10.6316C23.9519 10.6316 23.8735 10.4584 23.8735 10.38C23.8735 10.3016 23.9519 10.1937 24.2035 10.1937C24.2819 10.1937 24.344 10.1774 24.3767 10.1447C24.393 10.112 24.4388 10.0499 24.5336 10.0042C24.6414 9.93885 24.8603 10.0042 24.9714 9.92578C24.9714 9.99113 24.8767 10.0826 24.7982 10.1153C24.9551 10.0663 25.125 10.0663 25.1577 10.1937C25.0792 10.1447 24.9551 10.1774 24.9093 10.1937C24.844 10.2068 24.8146 10.2264 24.7525 10.2395C24.8146 10.2231 24.8472 10.3473 24.9387 10.3473C24.8472 10.4257 24.6904 10.4257 24.5336 10.3636C24.4845 10.3473 24.3604 10.3016 24.2819 10.3016C24.1251 10.3016 24.0303 10.3342 24.0303 10.3963C24.0303 10.4747 24.1284 10.5205 24.4061 10.5205C24.6904 10.5205 24.8472 10.4421 25.2688 10.4421C25.2361 10.3963 25.2851 10.3473 25.223 10.3016C25.3799 10.3016 25.5498 10.3473 25.6151 10.4584C25.5988 10.3473 25.6903 10.2558 25.6609 10.161C25.7556 10.1774 25.8341 10.2689 25.8471 10.3473C25.8471 10.3016 25.9125 10.3016 25.9125 10.2558C25.9562 10.2794 25.9915 10.3159 26.0138 10.3604C26.036 10.4048 26.044 10.455 26.0366 10.5041C26.0824 10.4257 26.1314 10.4584 26.1608 10.3636C26.1935 10.429 26.1772 10.6152 26.0661 10.6773C26.1641 10.612 26.3013 10.612 26.3961 10.7231C26.3013 10.71 26.2556 10.7558 26.2098 10.7721C25.9818 10.8886 25.727 10.9427 25.4714 10.9289C25.223 10.9126 25.1903 10.8636 25.0335 10.8636C25.1283 10.8799 25.3145 11.0694 25.491 11.0694C25.5988 11.0694 25.6772 11.0694 25.723 11.0531C25.7687 11.0368 25.8471 11.0531 25.9092 11.0858C25.9582 11.1315 26.053 11.1773 26.1151 11.1642C26.0987 11.2263 26.0661 11.2557 26.0203 11.272C26.0987 11.321 26.053 11.3505 26.1314 11.4125C26.0987 11.4125 26.0661 11.4452 26.0203 11.4289C26.0661 11.4746 26.0661 11.54 26.1151 11.5694C26.0987 11.5694 26.0497 11.5857 26.0203 11.5694C26.0661 11.6347 26.0203 11.7099 26.0661 11.7426C26.1151 11.8079 26.0203 11.8831 25.9419 11.821C25.9582 11.8667 25.9092 11.9157 25.8635 11.8994C25.8177 11.8831 25.785 11.8341 25.7981 11.821C25.7981 11.8047 25.7981 11.8047 25.8177 11.7883C25.785 11.8373 25.723 11.8373 25.6903 11.821C25.6772 11.8047 25.6576 11.7883 25.6576 11.7752C25.5498 11.8079 25.504 11.7099 25.5204 11.6641C25.5334 11.6184 25.6282 11.5988 25.6609 11.6184C25.6936 11.6315 25.723 11.6511 25.7556 11.6184C25.7883 11.6021 25.8014 11.5694 25.8014 11.54C25.8014 11.491 25.7556 11.3505 25.5498 11.3668C25.3145 11.3831 24.9387 11.321 24.7525 11.2557C24.7361 11.2426 24.7198 11.2426 24.7035 11.223C24.7035 11.2884 24.6414 11.321 24.6414 11.3831C24.6414 11.4616 24.6741 11.5236 24.7688 11.553C24.7198 11.6315 24.6414 11.6184 24.612 11.5694C24.612 11.6184 24.5466 11.6478 24.5466 11.7099C24.5336 11.6772 24.5139 11.6641 24.5009 11.6315C24.4551 11.7426 24.3277 11.8047 24.2656 11.7752C24.1872 11.8373 24.0957 11.821 24.063 11.7589C24.0173 11.7916 23.9519 11.7916 23.9225 11.7589C23.9225 11.8047 23.8898 11.7916 23.8735 11.8537C23.8735 11.8863 23.8114 11.8994 23.782 11.8863C23.7493 11.8667 23.733 11.8047 23.7657 11.7752C23.7199 11.8079 23.6709 11.8079 23.6415 11.7752C23.6415 11.7426 23.6415 11.6968 23.6742 11.6772H23.7036C23.6709 11.6641 23.6252 11.6772 23.5925 11.6641C23.5598 11.6315 23.5598 11.5988 23.5761 11.5694C23.5925 11.553 23.6415 11.5236 23.6742 11.553L23.6872 11.5694C23.6872 11.5367 23.7036 11.5073 23.7199 11.5073C23.7526 11.491 23.7951 11.491 23.8441 11.54C23.8768 11.5857 23.9062 11.5857 24.0009 11.5727C24.0794 11.5727 24.2035 11.491 24.295 11.4125C24.0336 11.3668 24.1872 11.1936 24.2656 11.1315C24.2035 11.1152 24.1088 11.1152 24.0467 11.1479C23.7199 11.321 23.3736 11.5236 23.1546 11.4616C23.1577 11.4943 23.1689 11.5258 23.1873 11.553C23.1383 11.553 23.0435 11.553 23.0141 11.5073C22.9978 11.54 22.9684 11.6184 22.9978 11.6805C22.9651 11.6478 22.8736 11.6151 22.8246 11.6021C22.8573 11.6347 22.8246 11.6968 22.8409 11.7426C22.7952 11.6968 22.7168 11.6641 22.6841 11.6968C22.6514 11.7295 22.5893 11.7426 22.5436 11.7295C22.5131 11.7726 22.4696 11.8046 22.4194 11.821C22.4194 11.7883 22.4194 11.7426 22.4031 11.7262C22.3867 11.7752 22.3377 11.8373 22.2789 11.8667C22.2789 11.8341 22.2789 11.7883 22.2626 11.7589C22.2626 11.821 22.1384 11.8537 22.1221 11.8994C22.1384 11.8537 22.1384 11.8047 22.1384 11.7752C22.1211 11.803 22.0982 11.8269 22.0712 11.8455C22.0442 11.864 22.0137 11.8768 21.9816 11.8831C21.9946 11.8504 22.0142 11.8177 21.9946 11.7883C21.9816 11.8537 21.8868 11.8863 21.8084 11.8667C21.8084 11.8994 21.743 11.9452 21.6679 11.8994C21.6189 11.8831 21.5894 11.8341 21.6189 11.8047C21.5568 11.8047 21.4947 11.7426 21.5274 11.6968C21.5274 11.6805 21.5404 11.6641 21.5404 11.6478C21.4947 11.6151 21.4783 11.553 21.5274 11.5073C21.5404 11.491 21.5894 11.491 21.6189 11.491C21.6189 11.3668 21.73 11.3668 21.7757 11.4583C21.8084 11.5073 21.9031 11.5857 21.9816 11.5694C22.0142 11.5694 22.0273 11.553 22.06 11.553C22.2005 11.5066 22.3329 11.4382 22.4521 11.3505C22.4652 11.3047 22.4652 11.272 22.4652 11.2426C22.4031 11.2753 22.341 11.3047 22.3083 11.3505V11.3047C22.2626 11.3047 22.1841 11.2884 22.1515 11.2884C22.1678 11.272 22.1841 11.1936 22.2168 11.1773C22.1384 11.1936 22.06 11.1773 21.9946 11.1642C22.0273 11.1315 22.0273 11.0858 22.0436 11.0368C22.011 11.0531 21.9325 11.0237 21.8705 11.0368C21.8868 10.991 21.9031 10.9289 21.9489 10.9126C21.8835 10.9289 21.8084 10.9126 21.73 10.8799C21.7953 10.8799 21.8247 10.8015 21.8705 10.8015C21.7463 10.8015 21.7136 10.7394 21.6515 10.71C21.6973 10.7231 21.73 10.6773 21.7757 10.6773C21.73 10.661 21.6515 10.5826 21.6842 10.5368C21.6679 10.5532 21.6515 10.5826 21.6189 10.6022C21.5862 10.6152 21.5274 10.6022 21.4783 10.5532C21.4457 10.4878 21.462 10.4127 21.5274 10.3963C21.513 10.3954 21.4992 10.3904 21.4877 10.3819C21.4761 10.3734 21.4672 10.3617 21.462 10.3483C21.4569 10.3349 21.4557 10.3203 21.4586 10.3062C21.4615 10.2921 21.4683 10.2792 21.4783 10.2689C21.4947 10.2362 21.5568 10.1937 21.5894 10.2362L21.6352 10.3016C21.6189 10.2689 21.6189 10.2068 21.6189 10.161C21.6352 10.1153 21.6679 10.1153 21.7169 10.0957C21.7594 10.0957 21.792 10.1447 21.792 10.1937C21.792 10.2395 21.8084 10.2689 21.8247 10.3342L21.8378 10.2689C21.8378 10.2068 21.9162 10.2231 21.9652 10.2362C22.011 10.2558 22.0273 10.3473 21.9652 10.3963C21.9325 10.429 21.9489 10.4747 21.9816 10.5041C22.0894 10.6773 22.2756 10.8178 22.4358 10.8342C22.4358 10.7688 22.4684 10.71 22.5142 10.661C22.5142 10.6283 22.5272 10.5826 22.5469 10.5532C22.5599 10.4584 22.6057 10.4127 22.6678 10.4421C22.6547 10.4257 22.6351 10.4094 22.6351 10.3963C22.5893 10.3473 22.5436 10.2689 22.5763 10.2068C22.6089 10.1447 22.7004 10.161 22.7331 10.1937C22.7168 10.0957 22.8246 10.0205 22.8246 9.97153C22.8409 10.0205 22.8736 10.0826 22.8573 10.1284C22.8736 10.0663 22.9814 9.98787 23.0599 9.95846C23.0272 10.0042 23.1252 10.0826 23.1089 10.1284C23.1416 10.0499 23.2657 10.0042 23.3572 10.0042C23.3245 10.0369 23.3245 10.099 23.3245 10.1284C23.3736 10.1284 23.4552 10.1153 23.4847 10.0663C23.4847 10.1316 23.452 10.1937 23.4193 10.2231C23.4356 10.2068 23.4977 10.2068 23.5467 10.2068C23.4977 10.2558 23.5141 10.3048 23.4683 10.3342C23.5304 10.3016 23.6088 10.3016 23.6252 10.3669C23.6578 10.4127 23.6088 10.4911 23.5761 10.5368C23.5435 10.5532 23.5141 10.5826 23.4977 10.5826V10.5826Z" fill="#F9D050" stroke="black" stroke-width="0.101023"/>
<path d="M22.5312 10.7734C22.4201 10.8192 22.3874 10.9303 22.3711 10.9924" stroke="black" stroke-width="0.101023"/>
<path d="M22.5141 10.8809C22.3573 10.9789 22.2919 11.054 22.3246 11.2272M22.5893 11.3547C22.6873 11.322 22.7461 11.2893 22.8245 11.1488" stroke="black" stroke-width="0.101023"/>
<path d="M22.7801 11.2109C22.7474 11.2763 22.7801 11.3841 22.7344 11.4299C22.7764 11.4089 22.8127 11.3781 22.84 11.3399C22.8674 11.3017 22.8849 11.2575 22.8912 11.2109" stroke="black" stroke-width="0.101023"/>
<path d="M22.8125 11.3843C22.8746 11.3516 22.9693 11.2569 23.0151 11.149C22.9988 11.1948 23.0151 11.2732 22.9824 11.3222C23.0608 11.2438 23.0935 11.1948 23.1099 11.1164L23.1229 11.1817C23.1556 11.149 23.1883 11.1164 23.1883 11.0543M23.185 11.1V11.1784C23.2504 11.1327 23.2667 11.0706 23.2667 10.9922" stroke="black" stroke-width="0.101023"/>
<path d="M23.2487 11.0861C23.3435 11.0208 23.3565 10.9293 23.3565 10.7888M23.3565 10.9456C23.4219 10.8966 23.435 10.8672 23.435 10.7234M23.2324 10.3019C23.1997 10.3019 23.167 10.3182 23.167 10.3673C23.167 10.3967 23.1213 10.4424 23.1213 10.4914C23.1082 10.5535 23.0755 10.5698 23.0298 10.5535C22.9808 10.5208 22.9808 10.5208 22.9808 10.4751C22.9808 10.4097 23.0592 10.3967 23.0592 10.3346C23.0755 10.3019 23.0919 10.2562 23.1082 10.2562C23.0298 10.3019 22.9187 10.2692 22.9023 10.1777" stroke="black" stroke-width="0.101023"/>
<path d="M23.3738 10.3479C23.3411 10.3642 23.3084 10.3152 23.2659 10.3348C23.2496 10.3348 23.2006 10.3479 23.1875 10.3348" stroke="black" stroke-width="0.101023"/>
<path d="M23.1544 10.4252C23.1708 10.4416 23.2492 10.4743 23.3276 10.4416C23.2623 10.4579 23.2165 10.3795 23.2786 10.3338M23.0139 10.2684C22.9486 10.2684 22.9028 10.3174 22.9192 10.3664C22.9355 10.4122 22.9976 10.4122 23.0433 10.3795M22.9028 11.0526C22.9192 11.0363 22.9355 11.0069 22.9355 10.9873C22.9682 10.9873 23.0008 10.9742 23.0139 10.9579C23.076 10.9579 23.1217 10.9121 23.1381 10.8664C23.1708 10.8664 23.1871 10.788 23.2034 10.7553C23.2165 10.7716 23.2492 10.7553 23.2655 10.6899C23.2982 10.7095 23.3439 10.6899 23.357 10.6442M22.7166 10.5363C22.7166 10.5527 22.6839 10.5821 22.6512 10.6017C22.6676 10.6311 22.6512 10.7095 22.6218 10.7226C22.6381 10.7553 22.6218 10.801 22.6055 10.8337C22.6055 10.85 22.6218 10.899 22.6218 10.9121M22.7787 10.2227C22.746 10.3011 22.7623 10.3958 22.8244 10.4122" stroke="black" stroke-width="0.101023"/>
<path d="M22.8115 10.4722C22.7952 10.5539 22.7952 10.6618 22.7788 10.7108C22.7625 10.7434 22.7331 10.8513 22.8573 10.8807C22.9978 10.9134 23.0762 10.897 23.1546 10.6618M23.3899 11.2728C23.3899 11.2891 23.3735 11.3218 23.3441 11.3218M23.4977 11.2434C23.4977 11.2761 23.465 11.3218 23.452 11.3349M23.6088 11.2107C23.6088 11.2434 23.6088 11.2891 23.5761 11.3055M22.6547 10.2402C22.6677 10.2402 22.6873 10.2729 22.7004 10.3023C22.6547 10.2696 22.6057 10.3481 22.6351 10.3971M22.6057 10.5049L22.5436 10.5539M22.5599 10.6454C22.5436 10.6454 22.5272 10.6618 22.5142 10.6618M21.8084 10.3644C21.8084 10.3481 21.8084 10.3481 21.8247 10.3317M21.6679 10.3187C21.6515 10.3187 21.6515 10.3187 21.6352 10.3023M21.6809 10.5376H21.7136M21.6188 10.4428C21.594 10.4182 21.562 10.4021 21.5273 10.3971M22.4815 11.0245C22.3704 11.116 22.3246 11.1944 22.3083 11.3055M22.5893 11.0996C22.5616 11.1578 22.5187 11.2075 22.4651 11.2434M21.9815 11.5701C21.9292 11.587 21.8738 11.5917 21.8194 11.5837C21.765 11.5758 21.7132 11.5555 21.6679 11.5244C21.6515 11.5081 21.6352 11.5081 21.6188 11.4917M22.4488 11.3545C22.4357 11.4133 22.4161 11.4917 22.3867 11.5081C22.5142 11.4427 22.622 11.3512 22.6383 11.2107M21.5404 11.6486C21.5894 11.6322 21.6384 11.6649 21.6679 11.6322M24.2656 11.1323C24.2983 11.1486 24.344 11.165 24.3604 11.178C24.3767 11.1454 24.4388 11.0996 24.4845 11.0865M23.1546 11.4623C23.1383 11.397 23.1709 11.3218 23.2657 11.2891M22.5436 11.727C22.5599 11.6943 22.5599 11.6486 22.5762 11.6192M21.8541 11.776C21.8378 11.8087 21.8084 11.8381 21.8084 11.8675M21.6188 11.8054C21.6188 11.8054 21.6188 11.7891 21.6352 11.7891C21.6679 11.776 21.7136 11.7433 21.7299 11.7107M23.7493 11.5865C23.7166 11.6028 23.7036 11.5865 23.6872 11.5701M23.733 11.6649C23.733 11.6649 23.7199 11.6812 23.7003 11.6812M23.8114 11.7433C23.7951 11.7597 23.7787 11.776 23.7656 11.776M24.2656 11.776C24.2983 11.7597 24.3146 11.727 24.3309 11.6649M24.063 11.7597C24.1087 11.7433 24.1414 11.7107 24.1872 11.6649M24.5009 11.6322C24.5009 11.5996 24.5009 11.5701 24.5172 11.5407M25.6609 11.776C25.6282 11.7433 25.6282 11.6976 25.6772 11.6649C25.7099 11.6486 25.7229 11.6322 25.7556 11.6192" stroke="black" stroke-width="0.101023"/>
<path d="M24.703 11.2238C24.4547 11.116 24.471 10.9754 24.2652 10.9918M25.8173 11.7139C25.8336 11.727 25.8173 11.776 25.8173 11.7891M25.9578 11.7139C25.9415 11.7597 25.9415 11.776 25.9415 11.8218M24.7521 10.2402H24.6213M23.4352 10.7729C23.4352 10.8055 23.4842 10.8676 23.6084 10.8676C23.5921 10.8676 23.5757 10.8513 23.5757 10.8513M23.4973 10.5833C23.4842 10.5997 23.4646 10.5833 23.4646 10.5833C23.4352 10.5507 23.4842 10.4918 23.53 10.4592C23.4842 10.4755 23.4515 10.4755 23.4189 10.4755C23.3862 10.5703 23.2947 10.616 23.2326 10.5539C23.2163 10.616 23.1379 10.6944 23.0758 10.6781C23.0104 10.6454 22.9974 10.5997 23.0104 10.5539C22.9353 10.6454 22.8405 10.5866 22.8111 10.5539C22.7948 10.5212 22.8111 10.4428 22.8438 10.3481" stroke="black" stroke-width="0.101023"/>
<path d="M24.499 11.1777C24.4532 11.2104 24.4042 11.1777 24.3585 11.2267C24.3258 11.2594 24.3748 11.2725 24.4042 11.2725C24.3912 11.3215 24.3912 11.3378 24.4696 11.3378C24.4369 11.3836 24.5317 11.3999 24.5153 11.462C24.535 11.4416 24.5485 11.4161 24.5543 11.3883C24.5601 11.3606 24.5579 11.3317 24.548 11.3052C24.5317 11.2562 24.45 11.2267 24.499 11.1777Z" fill="black"/>
<path d="M23.075 10.6776C23.0097 10.645 22.9966 10.5992 23.0097 10.5535C22.9966 10.5861 22.9672 10.5992 22.9345 10.5992C22.8692 10.7397 22.794 10.8672 22.6992 10.8672C22.5881 10.8802 22.6045 10.9913 22.6829 10.9913C22.8561 11.024 22.9345 10.9586 23.075 10.6776V10.6776ZM21.5262 10.3019C21.5719 10.2561 21.5392 10.2071 21.5098 10.194C21.4608 10.1777 21.3693 10.194 21.3203 10.2692C21.3693 10.2561 21.4183 10.2561 21.4314 10.2855C21.4477 10.3182 21.4772 10.3509 21.5262 10.3019ZM21.6046 10.0208C21.7124 10.0208 21.7451 10.0372 21.7582 10.0829C21.7745 10.1156 21.7451 10.1614 21.7124 10.1614C21.6667 10.1614 21.6177 10.1287 21.634 10.1156C21.6503 10.0829 21.6503 10.0372 21.6013 10.0176L21.6046 10.0208ZM21.915 10.2692C21.9934 10.2855 22.0261 10.2365 21.9804 10.1777C21.964 10.1287 21.915 10.0993 21.8366 10.1123C21.915 10.1614 21.8366 10.2398 21.915 10.2692ZM21.3367 10.5371C21.3507 10.5649 21.3742 10.5868 21.403 10.5988C21.4318 10.6107 21.4639 10.6121 21.4935 10.6025C21.5392 10.5829 21.5588 10.5371 21.5392 10.5045C21.5066 10.4587 21.4608 10.4424 21.4477 10.5045C21.4151 10.5698 21.3693 10.5535 21.3367 10.5371ZM21.5719 11.4913C21.5392 11.4292 21.4477 11.4292 21.3693 11.4913C21.402 11.4749 21.4608 11.4913 21.4772 11.5239C21.4935 11.5566 21.5262 11.5566 21.5425 11.5566C21.5556 11.5403 21.5883 11.5239 21.5719 11.4913V11.4913ZM21.6961 11.3998C21.6961 11.3214 21.5883 11.3017 21.5262 11.3344C21.5588 11.3344 21.6046 11.3671 21.6046 11.3998C21.6177 11.4324 21.6503 11.4455 21.6667 11.4455C21.6994 11.4292 21.7124 11.4128 21.6994 11.3998H21.6961ZM21.5392 11.6808C21.4477 11.6644 21.3987 11.7755 21.3987 11.8507C21.4151 11.805 21.4641 11.7755 21.5098 11.7886C21.5556 11.7886 21.5719 11.7755 21.5719 11.7429C21.5883 11.7102 21.5719 11.6971 21.5392 11.6775V11.6808ZM21.5556 11.9455C21.5883 11.9618 21.6209 11.9291 21.634 11.8834C21.634 11.8507 21.6994 11.8507 21.7124 11.867C21.7451 11.8834 21.7451 11.9455 21.6961 11.9781C21.6634 11.9945 21.5883 12.0108 21.5556 11.9455ZM23.7318 11.4749C23.6991 11.4619 23.624 11.4292 23.5619 11.4749C23.6076 11.4619 23.6403 11.4913 23.6534 11.5239C23.6534 11.5566 23.7024 11.5697 23.7187 11.5403C23.7318 11.5239 23.7514 11.4913 23.7318 11.4749V11.4749ZM23.5913 11.586C23.5292 11.5534 23.4508 11.6318 23.4344 11.6971C23.4664 11.6711 23.5048 11.6541 23.5455 11.6481C23.5782 11.6644 23.6076 11.6481 23.6076 11.6154C23.624 11.6024 23.624 11.586 23.5913 11.586ZM23.673 11.7135C23.624 11.7135 23.5619 11.7755 23.5619 11.8376C23.575 11.805 23.6076 11.7886 23.6403 11.805C23.673 11.805 23.7187 11.7886 23.7187 11.7592C23.7187 11.7265 23.7024 11.7102 23.6697 11.7102L23.673 11.7135ZM23.8102 11.8376C23.7775 11.8213 23.7318 11.8376 23.7318 11.8834C23.7318 11.9291 23.7318 11.9781 23.7187 11.9945C23.7514 11.9618 23.7808 11.9455 23.8102 11.9291C23.8266 11.9161 23.8429 11.867 23.8102 11.8376V11.8376ZM25.5813 11.6971C25.5486 11.6644 25.5028 11.6808 25.4865 11.7102C25.4702 11.7429 25.4538 11.8213 25.4865 11.8834C25.4865 11.8507 25.5192 11.805 25.5519 11.805C25.5976 11.7886 25.6107 11.7265 25.5813 11.6971ZM25.676 11.7592C25.6107 11.7919 25.6107 11.8997 25.6597 11.9618C25.6597 11.9291 25.676 11.8834 25.7054 11.867C25.7544 11.867 25.7708 11.805 25.7544 11.7755C25.7218 11.7429 25.6891 11.7592 25.676 11.7592ZM25.8623 11.8213C25.8296 11.805 25.7969 11.8376 25.7969 11.867C25.7839 11.9161 25.8165 11.9781 25.8623 12.0075C25.8623 11.9749 25.8786 11.9455 25.895 11.9291C25.9407 11.8964 25.9276 11.8376 25.8623 11.8213ZM26.0028 11.805C25.9701 11.805 25.9407 11.8507 25.9701 11.8997C25.9864 11.9324 26.0191 11.9455 26.0812 11.9324C26.0649 11.9324 26.0355 11.8834 26.0485 11.867C26.0649 11.8344 26.0485 11.805 26.0028 11.805Z" fill="#073163"/>
<path d="M21.6509 14.7318L22.4352 12.3203L23.2194 14.7318L21.1641 13.245H23.7063L21.6509 14.7318Z" fill="#F9D050"/>
<path d="M21.8094 14.5137L23.4366 13.3243H21.4336L23.0445 14.5137L22.4367 12.6055L21.8094 14.5137Z" fill="#024919"/>
<path d="M24.5962 14.7318L25.3805 12.3203L26.1647 14.7318L24.1094 13.245H26.6516L24.5962 14.7318Z" fill="#F9D050"/>
<path d="M24.7547 14.5137L26.3819 13.3243H24.3789L25.9898 14.5137L25.3821 12.6055L24.7547 14.5137Z" fill="#024919"/>
<path d="M23.1197 16.4388L23.9039 14.0273L24.6881 16.4388L22.6328 14.9521H25.175L23.1197 16.4388Z" fill="#F9D050"/>
<path d="M23.2781 16.2208L24.9054 15.0314H22.9023L24.5133 16.2208L23.9055 14.3125L23.2781 16.2208Z" fill="#024919"/>
<path d="M26.8335 9.81772V12.8697C26.8335 15.5164 25.582 16.4248 23.9057 17.1437C22.2294 16.4248 20.9648 15.5164 20.9648 12.8697V9.81445H26.8335V9.81772Z" stroke="black" stroke-width="0.101023"/>
</g>
</g>
<defs>
<filter id="filter0_d_336_17870" x="0" y="-2" width="36" height="36" filterUnits="userSpaceOnUse" color-interpolation-filters="sRGB">
<feFlood flood-opacity="0" result="BackgroundImageFix"/>
<feColorMatrix in="SourceAlpha" type="matrix" values="0 0 0 0 0 0 0 0 0 0 0 0 0 0 0 0 0 0 127 0" result="hardAlpha"/>
<feOffset dy="4"/>
<feGaussianBlur stdDeviation="3"/>
<feComposite in2="hardAlpha" operator="out"/>
<feColorMatrix type="matrix" values="0 0 0 0 0 0 0 0 0 0 0 0 0 0 0 0 0 0 0.16 0"/>
<feBlend mode="normal" in2="BackgroundImageFix" result="effect1_dropShadow_336_17870"/>
<feBlend mode="normal" in="SourceGraphic" in2="effect1_dropShadow_336_17870" result="shape"/>
</filter>
<clipPath id="clip0_336_17870">
<rect width="24" height="18" fill="white" transform="translate(6 3)"/>
</clipPath>
</defs>
</svg>
