<svg width="36" height="31" viewBox="0 0 36 31" fill="none" xmlns="http://www.w3.org/2000/svg">
<g filter="url(#filter0_d_336_31469)">
<g clip-path="url(#clip0_336_31469)">
<path d="M6 3H30V21H6V3Z" fill="#000066"/>
<path d="M23.6638 15.938C23.6638 15.938 23.5663 16.193 23.5138 16.193C23.4538 16.193 23.2513 16.0805 23.2513 16.0805C23.2513 16.0805 23.105 16.3205 23.0263 16.3318C22.9513 16.3468 22.7488 16.298 22.7488 16.298C22.7488 16.298 22.5538 16.298 22.5463 16.2718C22.5388 16.2418 22.5538 16.1855 22.5538 16.1855C22.5538 16.1855 22.2725 16.4105 22.2125 16.3955C22.1488 16.3843 21.9388 16.118 21.9388 16.118L21.9013 16.2568L21.5038 16.2418L21.155 16.0168C21.155 16.0168 20.96 16.3393 20.9525 16.3318C20.945 16.328 20.6113 16.4105 20.6113 16.4105L20.5888 16.3468L20.3638 16.2155C20.3638 16.2155 20.54 15.9718 20.54 15.9643C20.54 15.9568 20.4575 15.9268 20.4575 15.9268L20.33 16.0318L20.0713 16.2005L19.8125 16.0805L19.925 15.8705L19.94 15.7205L20.1425 15.4093L22.625 12.998L23.8475 15.2555L23.6638 15.938Z" fill="#6A4C2D" stroke="black" stroke-width="0.0836044"/>
<path d="M25.4258 16.0799L26.0745 16.0574L25.797 15.9224L28.2608 15.8287L27.912 15.6974L27.6045 15.2774L26.3295 15.1837C26.3295 15.1837 26.232 15.1087 26.0783 15.1462C26.0708 15.0487 25.9508 14.9212 25.9508 14.9212L25.1633 14.8574L24.6758 15.1949L25.0058 16.0424L25.4258 16.0799Z" fill="white" stroke="black" stroke-width="0.0836044"/>
<path d="M22.9141 8.85094L22.9816 8.62594C22.9816 8.62594 23.0941 8.43844 23.0941 8.34844C23.0941 8.26594 23.1803 8.16469 23.1803 8.16469C23.1803 8.16469 23.4391 8.08969 23.4953 8.25094C23.7728 7.82719 24.1028 8.22844 24.1028 8.22844L24.1928 8.12344L24.3803 7.89844C24.3803 7.89844 24.6428 8.14219 24.6428 8.18344C24.6503 8.22844 24.6916 8.19844 24.6916 8.19844L24.9766 8.17594C24.9672 8.23221 24.9723 8.28992 24.9913 8.3437C25.0103 8.39747 25.0427 8.44555 25.0853 8.48344C25.1866 8.54344 25.2766 8.89594 25.2766 8.89594L22.9141 8.85094Z" fill="url(#paint0_linear_336_31469)" stroke="black" stroke-width="0.0836044"/>
<path d="M25.4269 11.4794C25.4794 11.4494 25.6331 11.4006 25.6144 11.1719C25.5956 10.9469 25.4006 10.9169 25.2881 10.9244C25.1756 10.9319 25.0819 11.0294 25.0819 11.0294L24.7144 10.7969C24.7144 10.7969 24.8981 9.64563 25.0894 9.57438C25.2769 9.44313 25.3069 9.38688 25.3069 9.35688C25.3069 9.32313 25.2394 9.24813 25.2394 9.24813L24.0506 9.10938L22.9256 9.24062C22.9256 9.24062 22.8431 9.37562 22.8506 9.42812C22.8656 9.48062 22.8694 9.53687 23.0681 9.69062C23.2931 9.86312 23.4431 10.8456 23.4431 10.8456C23.4431 10.8456 23.1319 11.0031 23.1094 10.9806C23.0906 10.9619 22.9969 10.9431 22.9481 10.9506C22.8994 10.9581 22.7344 11.0444 22.7344 11.2581C22.7344 11.4756 22.8994 11.5994 22.8994 11.5994C22.8994 11.5994 23.9719 11.4756 24.1331 11.7719C24.2869 11.4156 25.3069 11.5394 25.4306 11.4794H25.4269Z" fill="#656263" stroke="black" stroke-width="0.0836044"/>
<path d="M26.5853 10.2835C26.5853 10.2835 26.5966 10.1598 26.6866 10.0998C26.7766 10.0398 27.3691 10.0098 27.5116 10.0998C27.6541 10.1898 27.7066 10.6285 27.7066 10.6285C27.7066 10.6285 27.7966 10.7823 27.8041 10.8985C27.8078 11.011 27.8228 11.086 27.8228 11.086C27.8228 11.086 28.2953 11.7048 28.3028 12.2635C28.3553 12.6423 28.3441 13.6585 28.1941 14.0448C28.1951 14.3243 28.124 14.5994 27.9878 14.8435C27.9878 14.8435 28.0366 14.926 28.0291 15.016C28.0216 15.1023 27.9766 15.1885 27.9766 15.1885L28.6703 15.5298L28.4153 15.436L28.6703 15.6498L28.3816 15.5148L28.5503 15.6873C28.5466 15.6798 28.1303 15.496 28.1303 15.496L28.3178 15.6723L27.9991 15.5223C27.9991 15.5223 28.1866 15.7285 28.1866 15.7173C28.0959 15.6732 28.0033 15.6332 27.9091 15.5973L27.9241 15.6985C27.9241 15.6985 27.7066 15.6873 27.7066 15.526C27.6406 15.4882 27.5811 15.4401 27.5303 15.3835L27.0353 15.301L26.4766 13.6285L26.6078 10.8085L26.6453 10.666L26.5853 10.2835Z" fill="black" stroke="black" stroke-width="0.0836044" stroke-linejoin="round"/>
<path d="M26.2125 19.3056C26.2125 19.3056 25.9237 18.7056 25.7812 18.6944C25.6537 18.4469 26.2312 16.4444 27.345 16.3281C27.9562 16.3769 27.3937 17.0331 26.9925 16.8306C27.0542 16.9861 27.1389 17.1315 27.2437 17.2619C27.2437 17.2619 26.445 17.6069 26.2087 19.3056H26.2125ZM22.3762 19.3919C22.3762 19.3919 22.6125 18.7056 22.755 18.6981C22.9012 18.6906 22.3762 16.4144 21.2325 16.3994C20.6175 16.4481 21.1837 17.1081 21.5887 16.9056C21.5257 17.0613 21.4398 17.2067 21.3337 17.3369C21.3337 17.3369 22.14 17.6819 22.3762 19.3919Z" fill="#FFBB00" stroke="black" stroke-width="0.0836044"/>
<path d="M23.4208 15.1117C23.4208 15.1042 23.1358 15.198 23.3195 15.5055C23.3308 15.3855 23.4583 15.318 23.4583 15.318C23.4583 15.318 23.267 15.543 23.4695 15.7342C23.4958 15.5542 23.612 15.498 23.612 15.498C23.612 15.498 23.4658 15.918 23.612 16.0042C23.6308 15.8355 23.7358 15.7605 23.7358 15.7605C23.7358 15.7605 23.6083 16.1355 23.7245 16.2217C23.7358 16.0792 23.8333 16.0155 23.8333 16.0155C23.8333 16.0155 23.777 16.4092 23.927 16.4355C23.927 16.2967 24.0395 16.1617 24.0395 16.1617C24.0395 16.1617 23.9908 16.4805 24.227 16.4955C24.227 16.3755 24.272 16.2367 24.272 16.2367C24.272 16.2367 24.3808 16.5742 24.5345 16.5217V16.233C24.5345 16.233 24.6358 16.5555 24.8233 16.4955C24.797 16.4055 24.8345 16.2967 24.8345 16.2967C24.8345 16.2967 24.932 16.4992 25.112 16.4317C25.142 16.3717 25.1045 16.2517 25.1045 16.2517C25.1045 16.2517 25.367 16.5217 25.442 16.3605C25.5245 16.1992 25.2358 16.143 25.2358 16.143H25.4308C25.4308 16.143 25.367 15.978 25.1045 15.9405C25.1945 15.903 25.2883 15.933 25.2883 15.933C25.2883 15.933 25.232 15.7267 24.962 15.7042C25.067 15.6667 25.187 15.693 25.187 15.693C25.187 15.693 25.1495 15.498 24.8495 15.4417C24.8983 15.3892 25.0258 15.4042 25.0258 15.4042C25.0258 15.4042 24.9058 15.2205 24.7708 15.2317C24.6358 15.243 23.4208 15.108 23.4208 15.1117V15.1117Z" fill="#00713D" stroke="black" stroke-width="0.0836044"/>
<path d="M24.6233 16.1055C24.6233 16.1055 24.7358 16.158 24.7283 16.203M24.687 16.0192C24.687 16.0192 24.8258 16.1167 24.822 16.188M24.8108 15.9705C24.8108 15.9705 24.9195 16.038 24.9233 16.1467M24.9945 16.0117C24.9945 16.0117 25.047 16.1317 25.032 16.1542M25.1033 16.0755C25.1108 16.1692 25.0958 16.1805 25.0958 16.1805M23.7458 15.4867C23.7458 15.4867 23.877 15.5692 23.8658 15.6855M23.7383 15.5842C23.7383 15.5842 23.7983 15.6442 23.787 15.6817M23.8995 15.4867C23.8995 15.4867 23.9858 15.6067 23.9558 15.6892M24.0458 15.5655C24.0458 15.5655 24.0833 15.6405 24.0458 15.678M24.1133 15.5992C24.1133 15.5992 24.1583 15.6742 24.117 15.7005M24.0608 15.8467C24.0608 15.8467 24.1808 15.873 24.1995 15.963M24.132 15.7642C24.132 15.7642 24.2595 15.7717 24.2745 15.9067M24.3008 15.7155C24.3008 15.7155 24.387 15.8655 24.372 15.9105M24.462 15.7305C24.462 15.7305 24.4958 15.8692 24.4695 15.918M24.567 15.7867V15.948M24.4095 15.5655C24.4095 15.5655 24.4845 15.5955 24.4845 15.6742M24.4808 15.4942C24.4808 15.4942 24.582 15.5505 24.5745 15.663M24.6008 15.4492C24.6008 15.4492 24.687 15.5505 24.657 15.6667M24.7508 15.4717C24.7508 15.4717 24.7208 15.603 24.7358 15.6555M24.8483 15.5617C24.8483 15.5617 24.792 15.603 24.822 15.6592M24.3458 16.0642C24.3458 16.0642 24.3645 16.1617 24.3458 16.1767M24.222 16.0042C24.222 16.0042 24.282 16.1167 24.2595 16.1692M24.087 16.0005C24.087 16.0005 24.1583 16.083 24.1545 16.1505M23.9745 16.0155C23.9745 16.0155 24.042 16.0792 24.0345 16.1167M23.9183 16.113C23.9183 16.113 23.982 16.1805 23.9783 16.1917" stroke="#3EC26D" stroke-width="0.0836044" stroke-linecap="round"/>
<path d="M22.5469 11.5995L23.4581 11.5807C23.4581 11.5807 24.0581 11.5807 24.1219 11.7757C24.2344 11.517 24.7594 11.532 24.7594 11.532L25.6969 11.502L25.7156 13.7745C25.5281 14.6595 24.8906 15.282 24.1894 15.5482C23.7961 15.4144 23.4456 15.178 23.174 14.8636C22.9024 14.5492 22.7196 14.1681 22.6444 13.7595L22.5469 11.5995V11.5995Z" fill="white" stroke="black" stroke-width="0.0836044"/>
<path d="M22.8748 11.5867L24.1986 15.1192L25.3986 11.5117C25.0236 11.5342 24.2286 11.4517 24.1273 11.793C23.9773 11.4892 23.1373 11.6092 22.8711 11.5867H22.8748Z" fill="#006B00" stroke="black" stroke-width="0.0836044"/>
<path d="M23.775 13.5004C23.8275 13.5266 23.8238 12.5441 23.8913 12.5141L23.9437 12.3079C23.8875 12.2066 23.6287 12.2104 23.5312 12.3004L23.595 12.4804C23.7263 12.6904 23.7 13.5229 23.775 13.5004Z" fill="#FFC900" stroke="#006B00" stroke-width="0.0418022" stroke-linecap="round"/>
<path d="M23.4172 5.88661C23.4172 5.88661 23.5109 5.77786 23.5147 5.75536C23.5222 5.72911 23.9422 5.71036 24.1897 5.24161C24.3322 4.99786 24.1897 5.14036 24.1897 5.14036L24.1859 5.02411C24.1859 5.02411 24.3584 4.85911 24.2984 4.76911C24.2309 4.67911 24.2534 4.88161 24.1484 4.88161C24.0472 4.87786 24.1034 4.65661 24.1034 4.65661C24.1034 4.65661 24.0959 4.63411 24.0659 4.61911C24.0247 4.62661 24.0359 4.70161 23.9984 4.70911C23.9609 4.72036 23.9234 4.53286 23.9234 4.53286C23.9234 4.53286 23.8597 4.44661 23.8072 4.71286C23.8372 5.00161 24.0172 4.94536 24.0172 5.13286C24.0172 5.32036 23.8559 5.46286 23.8109 5.47036C23.7622 5.47036 23.7809 5.30911 23.7809 5.30911C23.7809 5.30911 23.7547 5.23411 23.7397 5.23411C23.7209 5.23411 23.8334 5.21536 23.8147 5.00536C23.7772 4.75036 23.7472 5.06536 23.6797 5.05036C23.6084 5.03911 23.6609 4.81786 23.6872 4.78786C23.7134 4.76536 23.6572 4.66036 23.5072 4.93036C23.4959 5.06536 23.4772 4.89661 23.4472 4.90786C23.3984 5.01286 23.4059 5.08786 23.4772 5.18536C23.5859 5.28661 23.6534 5.38411 23.6497 5.43286C23.6459 5.48536 23.5897 5.60161 23.5109 5.60161C23.4359 5.60161 23.5147 5.45911 23.5109 5.41411C23.5109 5.36536 23.3797 5.19661 23.3797 5.19661C23.3797 5.19661 23.2897 5.05036 23.3009 5.04661C23.3084 5.04286 23.2897 5.02036 23.2484 5.17036C23.2072 5.32036 23.1547 5.07286 23.1547 5.07286C23.1547 5.07286 23.0947 5.25661 23.2222 5.36536C23.1247 5.35411 23.1172 5.39161 23.1172 5.39161C23.1172 5.44411 23.2484 5.46661 23.2672 5.55286C23.2822 5.64286 23.1284 5.69536 23.1284 5.69536C23.1284 5.69536 23.1922 5.78161 23.3722 5.60911C23.3759 5.72161 23.3047 5.79661 23.3047 5.79661C23.3647 5.82286 23.4097 5.81911 23.4172 5.89036V5.88661Z" fill="#CDAD56" stroke="black" stroke-width="0.0836044" stroke-linejoin="round"/>
<path d="M22.8378 5.88752C22.8378 5.88752 22.7553 5.76752 22.7516 5.74502C22.7516 5.72252 22.3616 5.77502 22.1778 5.30252C22.0578 5.07752 22.1778 5.20877 22.1778 5.20877L22.1853 5.10002C22.1853 5.10002 22.0578 4.94627 22.1103 4.86377C22.1666 4.78127 22.1478 4.96877 22.2153 4.96877C22.3016 4.96502 22.2528 4.76627 22.2528 4.76627C22.2528 4.76627 22.2603 4.74377 22.2903 4.73252C22.3241 4.73627 22.3391 4.85252 22.3691 4.86002C22.4028 4.86752 22.4703 4.72502 22.4928 4.69502C22.5228 4.69127 22.5191 4.57502 22.5678 4.81877C22.5416 5.07752 22.3278 5.02502 22.3278 5.19377C22.3278 5.36627 22.4628 5.49752 22.5041 5.50127C22.5416 5.50877 22.5303 5.35877 22.5303 5.35877C22.5303 5.35877 22.5528 5.29127 22.5678 5.29127C22.5791 5.29127 22.4403 5.31752 22.4553 5.12252C22.4853 4.94252 22.5566 5.13377 22.6166 5.12252C22.6728 5.11127 22.6091 4.93502 22.6241 4.90502C22.6278 4.87502 22.7141 4.75877 22.7478 5.01752C22.7591 5.14127 22.8228 4.91627 22.8491 4.92377C22.8941 5.02127 22.8303 5.14877 22.7703 5.23877C22.6803 5.32877 22.6391 5.42627 22.6428 5.47127C22.6428 5.52002 22.6653 5.57627 22.7328 5.57627C22.7966 5.57627 22.7516 5.49377 22.7553 5.45252C22.7591 5.41127 22.8678 5.27252 22.8678 5.27252C22.8903 5.23502 22.8716 5.17502 22.8941 5.14502C22.9316 5.14502 22.9466 5.09627 22.9803 5.23127C23.0178 5.36627 23.0591 5.14127 23.0591 5.14127C23.0591 5.14127 23.1116 5.31002 23.0028 5.41127C23.0853 5.40002 23.0928 5.43377 23.0928 5.43377C23.0928 5.47877 23.0553 5.49752 23.0403 5.58377C23.0365 5.6062 23.0383 5.62922 23.0455 5.6508C23.0527 5.67238 23.0651 5.69186 23.0816 5.70752C23.0816 5.70752 23.0291 5.79002 22.8753 5.63252C22.8749 5.69407 22.8962 5.75379 22.9353 5.80127C22.8828 5.82752 22.8453 5.82377 22.8378 5.88752V5.88752Z" fill="#CDAD56" stroke="black" stroke-width="0.075244" stroke-linejoin="round"/>
<path d="M25.1719 12.1121C25.0969 12.0446 25.0856 12.1046 25.0444 12.0896C25.0256 12.0821 25.0106 12.0634 24.9956 12.0484C24.9806 12.0334 24.9619 12.0259 24.9431 12.0184L24.9206 12.0821C24.9131 12.1046 24.9431 12.1384 24.9431 12.1721C24.9356 12.2209 24.9169 12.2584 24.8569 12.2734C24.8756 12.2396 24.8831 12.2396 24.8794 12.1984C24.8794 12.1796 24.8194 12.1421 24.8269 12.1234C24.8344 12.0896 24.8531 12.0559 24.8419 12.0221C24.8156 12.0409 24.7856 12.0296 24.7594 12.0409C24.7406 12.0521 24.7369 12.0896 24.7106 12.1046C24.6806 12.1196 24.6169 12.1121 24.5606 12.0821C24.5944 12.0559 24.6206 12.0746 24.6544 12.0446C24.6694 12.0371 24.6694 11.9809 24.6881 11.9696L24.7594 11.9321C24.7444 11.9134 24.7444 11.8871 24.7294 11.8721C24.7144 11.8534 24.6506 11.8571 24.6356 11.8421C24.6056 11.8046 24.6094 11.7634 24.5831 11.7296C24.6581 11.7559 24.6469 11.7934 24.6656 11.7896C24.7031 11.7709 24.7406 11.7709 24.7594 11.7784C24.7781 11.7859 24.8119 11.8346 24.8344 11.8421L24.8569 11.7709C24.8644 11.7484 24.8269 11.7146 24.8306 11.6921C24.8456 11.6509 24.8831 11.6134 24.8981 11.5684L24.9131 11.6846C24.9169 11.7071 24.9581 11.7184 24.9581 11.7371C24.9619 11.7596 24.9394 11.8046 24.9394 11.8271C24.9619 11.8234 24.9956 11.8271 25.0144 11.8196C25.0406 11.8159 25.0519 11.7634 25.0744 11.7596C25.1194 11.7521 25.1494 11.7559 25.1981 11.7596C25.1606 11.7934 25.1381 11.7896 25.1194 11.8196C25.1006 11.8309 25.1231 11.8721 25.0781 11.9021C25.0594 11.9134 25.0106 11.9021 24.9956 11.9134L25.0406 11.9621C25.0556 11.9809 25.1194 11.9884 25.1344 12.0071C25.1644 12.0371 25.1794 12.0821 25.1719 12.1159V12.1121ZM23.1356 12.1496C23.2106 12.0784 23.2219 12.1421 23.2631 12.1234C23.2819 12.1159 23.2969 12.1009 23.3119 12.0859C23.3269 12.0671 23.3456 12.0634 23.3644 12.0521L23.3869 12.1196C23.3944 12.1384 23.3644 12.1759 23.3644 12.2059C23.3719 12.2546 23.3906 12.2921 23.4506 12.3109C23.4319 12.2734 23.4244 12.2734 23.4281 12.2359C23.4281 12.2134 23.4881 12.1759 23.4806 12.1571C23.4731 12.1271 23.4544 12.0896 23.4656 12.0596C23.4919 12.0746 23.5219 12.0671 23.5481 12.0746C23.5669 12.0859 23.5706 12.1234 23.5969 12.1384C23.6269 12.1534 23.6906 12.1459 23.7469 12.1159C23.7131 12.0896 23.6869 12.1084 23.6531 12.0821C23.6381 12.0709 23.6381 12.0146 23.6194 12.0071C23.6044 11.9921 23.5631 11.9771 23.5481 11.9659C23.5631 11.9471 23.5631 11.9209 23.5781 11.9059C23.5931 11.8871 23.6569 11.8909 23.6719 11.8759C23.7019 11.8384 23.6981 11.7971 23.7244 11.7634C23.6494 11.7896 23.6606 11.8271 23.6419 11.8234C23.6044 11.8084 23.5669 11.8046 23.5481 11.8121C23.5294 11.8196 23.4956 11.8684 23.4731 11.8759L23.4506 11.8046C23.4431 11.7859 23.4844 11.7484 23.4769 11.7296C23.4619 11.6846 23.4244 11.6471 23.4094 11.6021L23.3944 11.7221C23.3906 11.7409 23.3494 11.7521 23.3494 11.7709C23.3456 11.7934 23.3681 11.8421 23.3681 11.8609C23.3456 11.8571 23.3119 11.8609 23.2931 11.8534C23.2669 11.8534 23.2556 11.8009 23.2331 11.7934C23.1881 11.7859 23.1581 11.7896 23.1094 11.7971C23.1469 11.8271 23.1694 11.8271 23.1919 11.8534C23.2069 11.8684 23.1844 11.9096 23.2294 11.9359C23.2481 11.9471 23.2969 11.9359 23.3119 11.9471L23.2669 11.9996C23.2519 12.0146 23.1881 12.0221 23.1731 12.0371C23.1431 12.0746 23.1281 12.1121 23.1356 12.1496V12.1496Z" fill="#FFC900"/>
<path d="M25.1017 12.3451C25.0305 12.4014 24.5655 12.5176 24.5617 12.9189C24.558 13.3239 24.6442 13.4139 24.558 13.4251C24.3892 13.4251 24.3667 12.9751 24.3705 12.7764C24.3742 12.5776 24.3817 12.6076 24.3817 12.6076C24.3817 12.6076 24.4942 12.6376 24.4867 12.7351C24.4755 12.8326 24.5992 12.4951 24.558 12.4051C24.633 12.4801 24.7342 12.4501 24.7342 12.4426C24.7342 12.4426 24.678 12.3789 24.6517 12.3301C24.6292 12.2889 24.738 12.3601 24.738 12.3601C24.738 12.3601 24.7455 12.2851 24.648 12.2851C24.5242 12.2851 24.6667 12.2476 24.6667 12.2476C24.6667 12.2476 24.7417 12.3114 24.7867 12.2401C24.75 12.2037 24.7068 12.1744 24.6592 12.1539C24.6592 12.1539 24.5917 12.0264 24.5017 12.0039C24.3967 11.9776 24.408 12.0489 24.288 12.0376C24.2655 12.0826 24.2655 12.0901 24.3142 12.1051C24.2317 12.1614 24.2767 12.2701 24.2767 12.2701C24.2767 12.2701 24.4042 12.2176 24.4005 12.3076C24.3967 12.4014 24.3255 12.3826 24.2767 12.3264C24.2317 12.3039 24.2167 12.3526 24.2167 12.3526L24.2842 12.4276C24.2842 12.4276 24.1567 12.4201 24.123 12.5064C24.1942 12.5026 24.2355 12.5214 24.2355 12.5214C24.2355 12.5214 24.0855 12.5889 24.0705 12.6226C24.0555 12.6601 24.0517 12.5851 24.0442 12.5851L23.9017 12.5326L23.853 12.7539C23.853 12.7539 23.9505 12.8476 24.003 12.8176C24.0555 12.7876 24.153 12.6939 24.2092 12.7201C24.0405 12.8476 23.8717 13.0314 23.7817 13.0576C23.7592 13.0351 23.6767 12.9564 23.643 12.9976C23.6092 13.0351 23.6355 13.0876 23.6805 13.0839C23.718 13.0764 23.538 13.1214 23.5755 13.2001C23.613 13.2751 23.613 13.2714 23.643 13.2526C23.6805 13.2301 23.6167 13.2264 23.7405 13.1889C23.8642 13.1514 23.8605 13.1176 23.8605 13.1176C23.8605 13.1176 23.8342 13.1739 23.7667 13.1926C23.703 13.2039 23.6505 13.2039 23.6617 13.2264C23.6767 13.2451 23.7067 13.2826 23.6992 13.3014C23.688 13.3239 23.8342 13.1964 23.8755 13.2976C23.973 13.2901 24.0405 13.1701 23.9917 13.0989C23.9992 13.1739 24.0442 13.2001 24.018 13.2376C23.988 13.2714 24.243 13.1176 24.1192 13.0276C24.1492 13.1026 24.1567 13.1626 24.1567 13.1626C24.1567 13.1626 24.213 13.1626 24.228 13.1401C24.243 13.1176 24.198 13.1964 24.2167 13.2114C24.2355 13.2264 24.3292 13.3126 24.2917 13.3726C24.2655 13.3351 24.2617 13.2826 24.2317 13.2864C24.2017 13.2901 24.0817 13.3801 24.0105 13.3839C23.9392 13.3876 24.0967 13.6464 24.0967 13.6464C24.0967 13.6464 23.988 13.6351 23.973 13.6464C23.958 13.6539 23.8867 13.5526 23.8755 13.6126C23.8492 13.6876 23.898 13.6576 23.898 13.6576C23.898 13.6576 23.8342 13.6276 23.8005 13.6651C23.7667 13.7026 23.7367 13.7364 23.7592 13.7514C23.7817 13.7664 23.8867 13.7664 23.9017 13.7626C23.9167 13.7551 23.7817 13.7701 23.7742 13.7851C23.763 13.8001 23.7442 13.8601 23.7742 13.8789C23.8005 13.8976 23.8755 13.8676 23.8792 13.8526C23.883 13.8376 23.8867 13.9089 23.8867 13.9089C23.8867 13.9089 24.0105 13.9201 24.0105 13.7926C24.0105 13.6651 24.0217 13.8826 24.0217 13.8826C24.0217 13.8826 24.1455 13.9051 24.1492 13.7776C24.1567 13.6501 24.1642 13.8639 24.1642 13.8639C24.1642 13.8639 24.2467 13.8376 24.2467 13.8189C24.2467 13.7964 24.243 14.0701 24.183 14.1489C24.093 14.0889 24.033 14.1864 24.033 14.1864C24.033 14.1864 24.0405 14.3364 24.033 14.3739C24.0217 14.4114 24.093 14.3514 24.0967 14.3364C24.1042 14.3214 24.1905 14.2801 24.1942 14.2726L24.2242 14.2089C24.2242 14.2089 24.2017 14.2839 24.1717 14.2914C24.1342 14.3026 24.1042 14.3364 24.1192 14.3664C24.1305 14.4001 24.183 14.4189 24.2017 14.4489C24.2242 14.4789 24.288 14.2726 24.288 14.2726L24.2955 14.3176C24.2955 14.3176 24.3817 14.2951 24.3892 14.2539C24.4005 14.2164 24.2992 14.1789 24.3817 14.1114C24.4605 14.0476 24.3817 14.1751 24.3817 14.1751C24.3817 14.1751 24.408 14.2726 24.4267 14.2726C24.4492 14.2726 24.4942 14.0851 24.4492 14.0401C24.4005 13.9951 24.5205 14.0964 24.5205 14.0964C24.5205 14.0964 24.588 13.9089 24.513 13.8826L24.408 13.8451C24.408 13.8451 24.4455 13.7964 24.4267 13.7926C24.408 13.7851 24.528 13.9051 24.5467 13.8714C24.5655 13.8414 24.5955 13.7514 24.4567 13.6989C24.318 13.6501 24.453 13.5076 24.453 13.5076C24.453 13.5076 24.5392 13.6089 24.603 13.5526C24.663 13.4964 24.5955 13.4964 24.5955 13.4964C24.5955 13.4964 24.7717 13.3839 24.7792 13.3276C24.7417 13.3239 24.6855 13.3314 24.6855 13.3314C24.6855 13.3314 24.7867 13.2676 24.7605 13.1589C24.723 13.2151 24.6705 13.2151 24.6705 13.2151C24.6705 13.2151 24.7567 13.1289 24.7455 13.0464C24.693 13.0876 24.6967 13.1214 24.663 13.1101C24.6292 13.0989 24.573 12.7764 24.7042 12.7576C24.8392 12.7351 24.768 12.9151 24.7717 12.9151C24.7792 12.9151 24.9742 12.8326 24.7717 12.7014C24.8205 12.6864 24.9217 12.7764 24.9217 12.7764C24.9217 12.7764 24.8767 12.5514 24.6592 12.6901C24.7155 12.6339 24.7492 12.6001 24.7905 12.6076C24.8355 12.6189 24.9892 12.6039 24.9892 12.5589C24.9517 12.5289 24.8692 12.5739 24.8242 12.5589C24.783 12.5439 25.1317 12.5176 25.1017 12.3451V12.3451Z" fill="#FFC900" stroke="#006B00" stroke-width="0.0418022" stroke-linecap="round" stroke-linejoin="round"/>
<path d="M23.5859 12.4769C23.5859 12.4769 23.7772 12.3682 23.8709 12.5032M23.9497 12.7057C23.9459 12.7057 23.8822 12.7732 23.8672 12.7732M24.0772 12.9194C24.0772 12.9194 24.2572 12.9344 24.3697 12.7469" stroke="#006B00" stroke-width="0.0418022" stroke-linecap="round"/>
<path d="M24.2683 12.8633C24.2683 12.8633 24.2833 12.9645 24.3133 12.9645C24.3395 12.9645 24.2645 12.9908 24.2383 12.972C24.2683 13.017 24.287 13.0995 24.2383 13.1295" stroke="#006B00" stroke-width="0.0418022" stroke-linecap="round"/>
<path d="M24.1817 14.1484C24.1817 14.1484 24.1217 14.2197 24.043 14.2234Z" fill="#E80000"/>
<path d="M24.1817 14.1484C24.1817 14.1484 24.1217 14.2197 24.043 14.2234" stroke="#006B00" stroke-width="0.0418022" stroke-linecap="round"/>
<path d="M24.2527 13.8217C24.2527 13.8217 24.2152 13.6155 24.2377 13.5667C24.2527 13.4992 24.3127 13.473 24.3652 13.3867" stroke="#006B00" stroke-width="0.0418022" stroke-linecap="round"/>
<path d="M24.2314 13.6717C24.2314 13.6717 24.1827 13.7955 23.9727 13.7542M24.2877 13.368C24.2877 13.368 24.3027 13.5292 24.1114 13.4692M24.0552 12.6367C24.0552 12.6367 23.9802 12.7042 24.0064 12.8017" stroke="#006B00" stroke-width="0.0418022" stroke-linecap="round"/>
<path d="M24.3398 12.4537C24.3398 12.4537 24.4411 12.4162 24.4598 12.3937C24.4865 12.3679 24.5081 12.3374 24.5236 12.3037C24.5311 12.2737 24.4561 12.2287 24.4936 12.1612C24.5198 12.1275 24.5536 12.1237 24.6061 12.1612C24.6661 12.1987 24.5573 12.0487 24.5011 12.0412C24.4411 12.0375 24.4036 12.0825 24.3886 12.0712C24.3736 12.0637 24.3923 12.1125 24.3698 12.1125C24.3473 12.1125 24.4186 12.1537 24.4148 12.18C24.4073 12.2062 24.4898 12.2925 24.4861 12.3112C24.4786 12.3337 24.3661 12.45 24.3398 12.4537V12.4537Z" fill="#006B00"/>
<path d="M24.4141 12.1194C24.4592 12.1081 24.4667 12.1194 24.4592 12.157C24.4425 12.1482 24.4282 12.1352 24.4178 12.1194H24.4141Z" fill="#FFC900" stroke="#FFC900" stroke-width="0.0418022" stroke-linecap="round" stroke-linejoin="round"/>
<path d="M24.1139 14.3884C24.1139 14.3884 24.0951 14.4972 24.1326 14.5047C24.1326 14.4672 24.1439 14.4372 24.1514 14.4259L24.1139 14.3884ZM24.0201 14.2572C23.9826 14.2534 23.9264 14.2872 23.9451 14.3247C23.9714 14.2984 23.9976 14.3247 24.0201 14.2984V14.2609V14.2572ZM24.0201 14.1822C24.0201 14.1822 23.9639 14.1747 23.9564 14.2159C23.9939 14.2084 24.0089 14.2047 24.0201 14.2159V14.1822Z" fill="#E80000" stroke="#006B00" stroke-width="0.0418022" stroke-linejoin="round"/>
<path d="M23.7781 13.5833C23.7781 13.5833 23.8156 13.5946 23.8231 13.6321C23.8494 13.6171 23.8606 13.5346 23.7781 13.5833ZM23.6919 13.6733C23.6919 13.6733 23.7669 13.6283 23.7706 13.6733C23.7556 13.6846 23.7519 13.6958 23.7406 13.6996C23.7294 13.6996 23.7106 13.6696 23.6919 13.6733ZM23.6881 13.8196C23.6881 13.8196 23.7331 13.7821 23.7481 13.8046C23.7669 13.8346 23.7331 13.8308 23.7331 13.8308L23.6881 13.8196V13.8196ZM23.6244 12.9983C23.6244 12.9983 23.5681 12.9758 23.5456 13.0171C23.5831 13.0246 23.5944 13.0358 23.6131 13.0508C23.6056 13.0321 23.5981 13.0058 23.6244 12.9983ZM23.5156 13.3096C23.5156 13.3096 23.5156 13.2383 23.5531 13.2121C23.5681 13.2233 23.5719 13.2383 23.5831 13.2571C23.5606 13.2646 23.5306 13.2646 23.5156 13.3096V13.3096ZM23.6619 13.2608C23.6619 13.2608 23.6019 13.2908 23.6244 13.3246C23.6431 13.2983 23.6656 13.3058 23.6656 13.3058V13.2608H23.6619Z" fill="#E80000" stroke="#006B00" stroke-width="0.0501627" stroke-linejoin="round"/>
<path d="M23.576 12.5931C23.5534 12.6194 23.6023 12.6759 23.655 12.6683C23.67 12.6081 23.591 12.5743 23.5797 12.5931H23.576Z" fill="#FFC900" stroke="#006B00" stroke-width="0.0501627" stroke-linejoin="round"/>
<path d="M23.6328 12.5474C23.6328 12.5474 23.6441 12.5962 23.6891 12.5849C23.6833 12.5582 23.6703 12.5336 23.6516 12.5137C23.6516 12.5249 23.6553 12.5437 23.6328 12.5474ZM23.6628 12.6862C23.6628 12.6862 23.6891 12.7162 23.7378 12.6599C23.7153 12.6637 23.6778 12.6449 23.6778 12.6449C23.6778 12.6449 23.6778 12.6824 23.6628 12.6862V12.6862Z" fill="#E80000" stroke="#006B00" stroke-width="0.0501627" stroke-linejoin="round"/>
<path d="M23.572 12.4809C23.5532 12.5072 23.5833 12.5448 23.636 12.5373C23.6473 12.4734 23.5871 12.4621 23.572 12.4809Z" fill="#FFC900" stroke="#006B00" stroke-width="0.0501627" stroke-linejoin="round"/>
<path d="M23.5953 12.2371C23.5953 12.2371 23.8015 12.1771 23.9103 12.2671C24.0228 12.3534 24.0228 12.2746 24.0228 12.2746C24.0228 12.2746 24.1803 12.3346 24.2253 12.3196C24.2703 12.3084 24.1915 12.3271 24.2553 12.2859C24.319 12.2484 24.1278 12.2971 24.1128 12.2146C24.0828 12.1659 24.1128 12.1021 24.049 12.1246C24.004 12.0646 24.079 12.0234 24.0603 11.9596C24.0153 11.9971 23.989 11.9484 23.9515 12.0346C23.8653 12.0159 23.9403 11.8921 23.8428 11.8809C23.8428 11.9671 23.7715 11.9709 23.7678 12.0234C23.7265 12.0534 23.5428 12.1621 23.5953 12.2371V12.2371Z" fill="url(#paint1_linear_336_31469)"/>
<path d="M21.2239 18.9373C21.3589 18.8998 22.0827 19.0948 22.3602 19.3948C22.3002 18.8586 22.1539 18.4536 22.1539 18.4536C22.1539 18.4536 21.7227 18.3298 21.6664 18.3898C21.4984 18.5534 21.3499 18.7358 21.2239 18.9336V18.9373ZM21.0027 16.4736C20.9539 16.4811 20.9014 16.5148 20.8527 16.6011C20.7927 16.7436 20.7514 17.1073 20.6652 17.1936C20.5827 17.2761 20.5039 17.2836 20.5039 17.3623C20.5039 17.4373 20.5152 17.6136 20.7402 17.6811C20.9689 17.6923 21.3327 17.3173 21.3327 17.3173C21.3327 17.3173 21.5202 17.1148 21.5952 16.8973C21.1564 17.0473 20.8452 16.6423 21.0027 16.4736ZM27.3627 18.8511C26.9443 18.8783 26.5453 19.0371 26.2227 19.3048C26.2827 18.7761 26.4289 18.3673 26.4289 18.3673C26.4777 18.3561 26.8527 18.2473 26.9089 18.3073C26.9952 18.3973 27.2727 18.6711 27.3627 18.8511ZM27.5689 16.4023C27.6177 16.4098 27.6364 16.4773 27.6814 16.5598C27.7377 16.7061 27.7939 16.9123 27.8802 16.9948C27.9664 17.0811 28.0414 17.2048 28.0414 17.2798C28.0414 17.3548 28.0227 17.4598 27.7977 17.5273C27.5727 17.5348 27.2427 17.2423 27.2427 17.2423C27.2427 17.2423 27.0552 17.0436 26.9802 16.8223C27.4189 16.9723 27.7002 16.5861 27.5689 16.4023V16.4023Z" fill="#C01500" stroke="black" stroke-width="0.0836044"/>
<path d="M20.7538 18.4686C20.7538 18.4686 21.2075 18.7836 21.2188 18.9261C22.445 17.1074 25.5725 16.5411 27.3575 18.7986C27.5938 18.4874 27.8375 18.3861 27.8375 18.3861C25.9625 15.9336 22.2238 16.2374 20.75 18.4686H20.7538Z" fill="#FFBB00" stroke="black" stroke-width="0.0836044"/>
<path d="M25.4044 11.5135L25.5844 11.5098L25.2656 11.9148L25.6481 12.361L24.8944 13.3098L25.6069 14.1648C25.5342 14.3525 25.4357 14.5292 25.3144 14.6898L24.9056 14.2398L25.6519 13.3135L25.0444 12.6235L25.4044 11.5135ZM22.8506 11.596H22.6631L23.0194 11.986L22.6406 12.4585L23.4281 13.3135L22.7756 14.1873C22.8506 14.3748 22.9631 14.5923 23.0869 14.7498L23.4731 14.2585L22.6781 13.3735L23.2594 12.6348L22.8506 11.596Z" fill="#1E5AA6" stroke="black" stroke-width="0.0836044"/>
<path d="M23.737 13.8903L23.452 14.2653L24.457 15.4278C24.637 15.3378 24.7758 15.2366 24.9258 15.1128L24.4008 14.5091L24.6145 13.8828L24.922 14.2353L23.9658 15.4578C23.8045 15.3903 23.6283 15.2853 23.467 15.1503L23.9733 14.5091L23.737 13.8903ZM23.4258 13.3091L23.6058 13.5378L23.4895 13.2266L23.4258 13.3091ZM24.7345 13.5116L24.8845 13.3166L24.8283 13.2416L24.7345 13.5116Z" fill="#1E5AA6" stroke="black" stroke-width="0.0836044"/>
<path d="M26.8516 10.3121C26.8516 10.3121 27.0316 10.1621 27.1553 10.1621" stroke="#FFF700" stroke-width="0.0836044" stroke-linecap="round"/>
<path d="M26.875 10.293C26.8788 10.2892 27.9288 10.143 27.9625 10.1055M26.8787 10.3005L28.0563 10.1992M26.875 10.3042C26.875 10.3042 28.1237 10.248 28.1987 10.3117" stroke="#FFF700" stroke-width="0.0836044" stroke-linecap="round"/>
<path d="M26.8708 10.3008C26.8708 10.3008 28.0933 10.312 28.1158 10.3383M26.8745 10.3008L28.052 10.3983M26.8633 10.312C26.8633 10.312 28.0633 10.417 28.1758 10.567" stroke="#FFF700" stroke-width="0.0836044" stroke-linecap="round"/>
<path d="M28.2394 10.781C28.2394 10.7773 27.8344 10.2973 26.8594 10.3048" stroke="#FFF700" stroke-width="0.0836044" stroke-linecap="round"/>
<path d="M26.8633 10.3125C26.8633 10.3125 27.5383 10.3613 27.752 10.5975" stroke="#FFF700" stroke-width="0.0836044" stroke-linecap="round"/>
<path d="M26.875 10.3052C26.875 10.3052 27.3137 10.2227 27.7712 10.7739" stroke="#FFF700" stroke-width="0.0836044" stroke-linecap="round"/>
<path d="M26.6024 10.8066C26.6024 10.8066 27.2062 10.8291 27.2062 10.8891C27.2062 10.9491 26.7562 11.0616 26.7487 11.3091C26.7449 11.5604 27.0937 11.5791 27.1199 11.8941C27.1424 12.2091 26.8462 12.2541 26.7824 12.3404C26.7262 12.3779 26.5837 12.8279 26.6024 13.0904C26.6212 13.3491 26.6962 14.2341 26.8349 14.4141C26.9399 14.4966 27.0974 14.7629 27.2737 14.6766C27.4462 14.5979 27.3262 14.2941 27.3112 14.2116C27.2924 14.1291 27.3787 13.9904 27.3787 13.8666C27.3787 13.7391 27.3149 13.6416 27.3224 13.6116C27.3262 13.5816 27.8024 13.7241 27.7724 14.1929C27.7424 14.6616 27.5512 14.5191 27.5512 14.5191C27.5512 14.5191 27.6112 15.0966 27.4649 15.1716C27.1949 15.3141 26.9999 15.1416 26.9999 15.1416L27.0262 15.2616L26.8199 15.1566C26.8199 15.1566 26.5574 14.7816 26.5012 14.6129C26.4244 14.2619 26.3879 13.9034 26.3924 13.5441C26.4187 13.3829 26.4337 12.4454 26.4224 12.3966C26.4112 12.3516 26.3624 11.5679 26.3924 11.4479C26.4224 11.3279 26.6062 10.8066 26.6024 10.8066V10.8066Z" fill="url(#paint2_linear_336_31469)" stroke="black" stroke-width="0.0836044"/>
<path d="M25.9491 10.6492C25.9491 10.6492 26.3691 10.2404 26.6128 10.2892C26.7366 10.2892 26.6203 10.3792 26.6203 10.3792C26.6203 10.3792 26.8341 10.3942 26.8641 10.4917C26.8678 10.5292 26.7628 10.5442 26.7628 10.5442C26.7628 10.5442 26.8491 10.5629 26.8566 10.6379C26.8641 10.7167 25.9566 10.6567 25.9453 10.6529L25.9491 10.6492Z" fill="#FF7000" stroke="black" stroke-width="0.0836044"/>
<path d="M25.9727 10.636C25.9727 10.636 26.4227 10.576 26.6139 10.3848" stroke="black" stroke-width="0.0836044"/>
<path d="M26.4297 10.5117C26.4297 10.5117 26.7634 10.4967 26.7634 10.5492" stroke="black" stroke-width="0.0836044"/>
<path d="M27.6094 15.3704C27.6094 15.3704 27.8944 15.3029 27.9731 15.2016C28.0181 15.1641 28.2694 15.5766 27.6094 15.3704Z" fill="white" stroke="black" stroke-width="0.0836044" stroke-linejoin="round"/>
<path d="M27.537 13.0133C27.537 13.0133 27.5745 13.2308 27.4695 13.3808C27.417 13.4408 27.2558 13.542 27.2558 13.6133C27.2558 13.6845 27.3158 13.7783 27.3045 13.8608C27.2933 13.9433 27.2033 14.0295 27.207 14.1008C27.207 14.172 27.3083 14.5508 27.297 14.5583M27.012 12.3008C27.012 12.3008 26.787 12.3758 26.7383 12.6008" stroke="white" stroke-width="0.0836044" stroke-linecap="round"/>
<path d="M26.918 10.5111C26.918 10.5111 26.993 10.7248 27.2442 10.5223C27.083 10.3011 26.918 10.5148 26.918 10.5111Z" fill="#C75B00" stroke="black" stroke-width="0.0836044"/>
<path d="M27.0995 10.4993C27.0995 10.5106 27.0883 10.5219 27.0732 10.5219C27.0582 10.5219 27.0469 10.5106 27.0469 10.4993C27.0469 10.488 27.0582 10.4805 27.0732 10.4805C27.0883 10.4805 27.0995 10.488 27.0995 10.4993Z" fill="black"/>
<path d="M24.8788 10.0118C24.8788 10.0118 25.3512 10.5255 25.655 10.518C25.7112 10.668 25.5163 10.8105 25.4413 10.8743C25.2838 10.8255 25.1412 10.8855 24.7812 10.4393C24.8037 10.1543 24.8825 10.0268 24.8788 10.0118ZM25.5163 8.8193C25.58 8.6318 25.7038 8.4818 25.8088 8.46305C25.7788 8.32055 26.03 7.6793 26.7575 7.43555C26.8025 7.7618 26.4463 8.08805 26.4463 8.08805C26.4463 8.08805 27.5225 7.90055 27.74 7.63055C27.7175 7.75055 27.5 8.51555 26.3525 8.50805C26.7875 8.92055 26.2138 9.25055 25.97 9.1493C26.42 8.8043 25.8388 8.59805 25.52 8.8193H25.5163Z" fill="white" stroke="black" stroke-width="0.0836044"/>
<path d="M25.8828 8.55374C26.1003 8.41499 26.1791 8.41499 26.3591 8.44124L26.2278 8.46374C26.2278 8.46374 26.2166 8.48249 26.2953 8.55374C26.2053 8.53124 26.1303 8.47874 25.8828 8.55374Z" fill="#CCCCCD" stroke="#CCCCCC" stroke-width="0.0836044"/>
<path d="M25.8008 8.46453C25.8008 8.46453 26.2283 8.23953 26.4683 8.08203" stroke="black" stroke-width="0.0836044"/>
<path d="M25.4337 10.8752C25.4337 10.8752 26.0224 11.0365 26.0899 10.1927C25.9624 9.82524 25.7861 9.03024 26.0561 8.80524C25.8086 8.63274 25.5311 8.81274 25.5311 8.81274C25.5161 8.85024 25.2949 9.16899 25.5949 9.72399C24.8824 9.53649 25.1712 10.2115 25.1712 10.2115C25.2012 10.099 25.5799 10.0015 25.6736 10.5415C25.7111 10.6765 25.4187 10.879 25.4337 10.879V10.8752Z" fill="#0000FF" stroke="black" stroke-width="0.0836044"/>
<path d="M26.0969 10.1992C26.0969 10.1992 26.7194 9.86172 26.7044 9.07422C26.1719 9.08922 25.9844 9.77172 25.9844 9.77172L26.0969 10.1992Z" fill="#0000FF" stroke="black" stroke-width="0.0836044"/>
<path d="M23.3 10.1582C23.3 10.1582 22.8388 10.5595 22.5763 10.432C22.385 10.5445 22.1562 10.342 22.1562 10.342C22.1562 10.342 22.4188 11.3282 23.3788 10.6157C23.3694 10.461 23.3443 10.3077 23.3038 10.1582H23.3Z" fill="white" stroke="black" stroke-width="0.0836044"/>
<path d="M22.5725 10.4134C22.61 10.2071 22.7712 10.1059 22.9025 10.3009C23.075 10.3384 23.2475 9.62586 22.6325 9.74586C22.805 8.81961 22.2875 8.47461 22.2875 8.47461C22.2875 8.47461 22.1037 9.50211 22.19 9.68961C22.2725 9.87711 22.0662 9.34086 21.4025 9.18711C21.3912 9.96336 22.145 10.3234 22.145 10.3234C22.145 10.3234 22.355 10.5184 22.5725 10.4134Z" fill="#0000FF" stroke="black" stroke-width="0.0836044"/>
<path d="M22.6305 9.73898C22.6305 9.73898 22.3418 9.98648 22.4055 10.3202M22.1918 9.70898C22.1918 9.70898 22.1243 9.94523 22.2668 10.2865" stroke="black" stroke-width="0.0836044"/>
<path d="M22.1484 10.3643C22.1484 10.3643 22.2834 10.1468 22.5722 10.4243" stroke="black" stroke-width="0.0836044"/>
<path d="M22.2023 8.86211C22.2023 8.85461 21.7636 8.86211 22.0223 9.30836C21.8311 9.36836 21.3961 9.08336 21.6961 8.70836C20.7098 8.68211 20.3086 8.20961 20.3086 7.77461C20.5973 8.07461 21.2911 7.95461 21.5348 8.13836C21.2348 7.86086 21.2948 7.47461 21.2948 7.47461C21.2948 7.47461 22.1348 7.72586 22.2848 8.47211C22.2361 8.61836 22.2136 8.87336 22.2023 8.86211Z" fill="white" stroke="black" stroke-width="0.0836044"/>
<path d="M21.5234 8.11914C21.6884 8.28414 22.1047 8.33289 22.3147 8.51664" stroke="black" stroke-width="0.0836044"/>
<path d="M21.7188 8.60592C21.7188 8.60592 22.0637 8.56092 22.165 8.68092C22.03 8.68092 21.985 8.64717 21.79 8.71842C21.8425 8.69217 21.8275 8.64342 21.8575 8.64342C21.8875 8.64342 21.7338 8.60592 21.7188 8.60592Z" fill="#CCCCCD" stroke="#CCCCCC" stroke-width="0.0585231"/>
<path d="M23.4381 5.90675C23.4381 5.90675 23.6294 5.738 23.8356 5.888C23.7419 6.1655 23.4081 6.0605 23.4081 6.0605C23.4081 6.0605 23.4194 6.19925 23.3856 6.26675C23.4531 6.31925 23.5056 6.48425 23.5056 6.48425C23.5056 6.48425 23.8506 6.40175 23.9256 6.55175C24.0569 6.533 24.1506 6.55175 24.1506 6.55175C24.1506 6.55175 24.4206 6.48425 24.5144 6.48425C24.6081 6.48425 24.9081 6.55925 24.9381 6.61925C24.9644 6.67175 25.0656 7.04675 25.1331 7.03925C25.2006 7.0355 24.9719 7.12925 24.9081 7.0355C24.8481 6.94175 24.8669 7.15925 24.8669 7.15925C24.8669 7.15925 25.0544 7.358 25.0769 7.403C25.0994 7.448 24.9606 7.808 25.0656 8.05925C24.9719 8.06675 24.9644 8.16425 24.9644 8.16425C24.9606 8.27675 24.8219 8.303 24.8219 8.303L24.7844 8.153L24.6944 8.20925L24.7319 8.093C24.7319 8.093 24.8594 7.78175 24.8706 7.6805C24.8819 7.57925 24.7544 7.403 24.6531 7.403C24.5519 7.403 24.4806 7.72175 24.4806 7.72175C24.4806 7.72175 24.4319 7.958 24.4469 7.98425L24.3794 7.9055C24.3794 7.9055 24.3381 8.048 24.3044 8.093C24.2669 8.138 24.1956 8.153 24.1956 8.153C24.1956 8.153 24.1469 8.0105 24.1656 7.95425C24.1806 7.898 24.4356 7.6805 24.4131 7.52675C24.3906 7.36925 24.4131 7.40675 24.4094 7.403C24.4019 7.3955 24.2744 7.28675 24.2706 7.223C24.2631 7.163 24.1019 7.30175 23.8919 7.2605C23.8281 7.373 23.8169 7.65425 23.8169 7.65425C23.8169 7.65425 23.7981 7.99175 23.8394 8.02925C23.8844 8.0705 23.7269 8.153 23.7269 8.153L23.6181 8.303L23.5806 8.21675L23.5019 8.273L23.5469 8.1605C23.5431 8.07425 23.6556 7.8455 23.6556 7.6505C23.6556 7.4555 23.6669 7.2455 23.6669 7.2455C23.6669 7.2455 23.4644 7.23425 23.4681 7.448C23.4719 7.658 23.4194 7.673 23.4306 7.72925C23.4419 7.793 23.4944 7.9655 23.4794 8.01425C23.4644 8.06675 23.3969 8.08175 23.3969 8.08175L23.3781 8.108C23.3781 8.108 23.1719 8.2055 23.1794 8.243L23.1719 8.1305L23.1606 7.96925C23.1606 7.96925 23.2844 7.89425 23.2844 7.69925C23.2844 7.50425 23.2581 7.47425 23.2619 7.42925C23.2656 7.38425 23.2956 7.223 23.2881 7.20425C23.2844 7.18925 23.1756 7.253 23.1381 7.253C23.1044 7.253 23.2019 7.13675 23.2131 7.0505C23.2244 6.968 23.1006 7.12925 22.9994 7.0355C23.0481 6.93425 23.1156 6.9005 23.1269 6.8255C23.1381 6.74675 23.0519 6.88925 22.9731 6.833C22.9806 6.758 23.0556 6.69425 23.0556 6.69425C23.0556 6.69425 22.9919 6.68675 22.9656 6.69425C22.9169 6.67925 23.0219 6.6005 23.0294 6.488C23.0331 6.3755 22.9656 6.33425 22.9656 6.32675C22.9656 6.323 22.8531 6.22925 22.8381 6.188C22.8231 6.1505 22.8231 6.1055 22.8231 6.1055C22.8231 6.1055 22.6356 6.2405 22.4219 5.9555C22.6206 5.78675 22.8344 5.9105 22.8344 5.9105C22.8344 5.9105 22.8906 5.753 23.1456 5.76425C23.4006 5.7755 23.4531 5.92175 23.4419 5.90675H23.4381Z" fill="#923F00" stroke="black" stroke-width="0.0836044"/>
<path d="M24.8394 8.7832C24.8431 8.7832 25.3119 8.7982 25.3156 9.04945C25.3231 9.3007 25.1731 9.23695 25.1656 9.23695L24.8281 9.19195L24.8394 8.7832Z" fill="#0000FF" stroke="black" stroke-width="0.0836044"/>
<path d="M24.3867 8.71485C24.3867 8.71485 24.9717 8.7111 24.938 8.9661C24.9042 9.2211 24.758 9.1686 24.758 9.1686L24.473 9.1461L24.3867 8.71485Z" fill="#FFFEFF" stroke="black" stroke-width="0.0836044"/>
<path d="M24.0545 8.68945L24.392 8.7157C24.392 8.7157 24.5983 8.74195 24.587 8.9407C24.5795 9.13195 24.3808 9.1357 24.3808 9.1357L24.0508 9.11695L24.0545 8.68945Z" fill="#0000FF" stroke="black" stroke-width="0.0836044"/>
<path d="M23.2652 8.7832C23.2577 8.7832 22.7927 8.7982 22.7852 9.04945C22.7852 9.3007 22.9314 9.23695 22.9352 9.23695L23.2764 9.19195L23.2652 8.7832Z" fill="white" stroke="black" stroke-width="0.0836044"/>
<path d="M23.7206 8.71485C23.7206 8.71485 23.1356 8.7111 23.1694 8.9661C23.1994 9.2211 23.3494 9.1686 23.3494 9.1686L23.6306 9.1461L23.7206 8.71485Z" fill="#0000FF" stroke="black" stroke-width="0.0836044"/>
<path d="M24.0482 8.68945L23.7107 8.7157C23.7107 8.7157 23.5044 8.74195 23.5119 8.9407C23.5232 9.13195 23.7219 9.1357 23.7219 9.1357L24.0519 9.11695L24.0482 8.68945Z" fill="white" stroke="black" stroke-width="0.0836044"/>
<path d="M24.9511 11.5012C24.9511 11.5012 25.1948 11.145 25.2998 11.1825C25.3898 11.2125 25.3186 11.49 25.2773 11.5162L24.9511 11.5012ZM23.2861 11.565C23.2073 11.46 23.0986 11.1637 22.9936 11.2462C22.9036 11.2762 22.9711 11.5537 23.0161 11.58L23.2861 11.565Z" fill="#5E0043" stroke="black" stroke-width="0.0836044"/>
<path d="M23.4453 10.8561C23.4453 10.8561 23.9216 11.1486 24.0753 11.1561C24.2328 11.1636 24.7241 10.7773 24.7241 10.7773" stroke="black" stroke-width="0.0836044"/>
<path d="M23.4922 9.71211L23.5822 9.59961L24.0359 9.82461L24.5009 9.61836L24.5909 9.71586L24.0734 10.0796L23.4922 9.71211Z" fill="#5E0043" stroke="black" stroke-width="0.0836044"/>
<path d="M23.1309 9.70578C23.3077 9.90966 23.4394 10.1486 23.5172 10.407C23.5697 10.7033 23.4872 9.99828 23.4872 9.99828C23.4872 9.99828 23.8509 10.1783 23.8622 10.2908C23.8734 10.4033 24.0347 10.2833 24.0422 10.2645L22.9922 9.58203L23.1309 9.70578ZM24.9309 9.68703C24.9309 9.68703 24.5484 10.1895 24.5934 10.737C24.5147 10.4745 24.5784 10.0433 24.5784 10.0433L24.4959 10.0958C24.4959 10.0958 24.4059 10.467 24.2972 10.5233C24.2784 10.4783 24.2822 10.4633 24.2822 10.4633C24.2822 10.4633 24.1659 10.6133 24.1434 10.6283C24.1209 10.6433 24.1509 11.142 24.1509 11.142C24.1509 11.142 24.1884 11.502 24.2334 11.4983C24.1951 11.5179 24.1575 11.5392 24.1209 11.562L24.0722 10.602L24.1809 10.4933C24.1809 10.4933 24.3234 10.317 24.3347 10.1483C24.2747 10.2008 24.2034 10.2158 24.2034 10.2158C24.2034 10.2158 24.1847 10.4595 24.1284 10.4933C24.0684 10.5308 24.0684 10.5908 24.0684 10.5908L24.0534 10.272L24.9309 9.68703Z" fill="#474747" stroke="#474747" stroke-width="0.0836044" stroke-linejoin="round"/>
<path d="M24.0508 10.2676L24.1258 11.7863" stroke="black" stroke-width="0.0836044" stroke-linecap="round"/>
<path d="M23.1172 10.9941C23.1172 10.9941 23.2934 11.0954 23.3572 11.4066C23.9272 11.3654 24.1072 11.5641 24.1072 11.5641C24.1072 11.5641 24.5722 11.3391 24.7897 11.3841C24.8647 11.2229 25.0822 11.0204 25.0822 11.0204" stroke="black" stroke-width="0.0836044"/>
<path d="M22.8841 9.50642L24.0541 10.2714L25.1116 9.56267C25.1116 9.56267 25.3291 9.44267 25.3104 9.35642C25.2916 9.26642 25.2166 9.30017 25.1791 9.31892C25.1416 9.33017 24.0729 10.0877 24.0729 10.0877L22.9404 9.36767C22.9404 9.36767 22.8579 9.34142 22.8429 9.39767C22.8279 9.45017 22.8729 9.48017 22.8841 9.50642V9.50642Z" fill="#B4B6B9" stroke="black" stroke-width="0.0836044"/>
<path d="M24.9748 9.30805C24.9748 9.30805 24.6748 9.18055 24.6748 9.2893C24.6748 9.4018 24.6861 9.41305 24.7348 9.4843C24.7836 9.5518 24.6973 9.5968 24.6973 9.5968L24.6673 9.5218C24.6523 9.47305 24.4911 9.4393 24.4798 9.3793C24.4611 9.32305 24.5098 9.23305 24.4161 9.2218C24.3186 9.21055 24.2248 9.2593 24.2061 9.3718C24.168 9.49829 24.1191 9.62125 24.0598 9.7393L24.0786 9.1543C24.2886 9.1693 24.6786 9.2143 24.9823 9.2518C24.8923 9.2368 25.0198 9.25555 25.0123 9.2893C25.0048 9.3118 24.9748 9.31555 24.9748 9.30805V9.30805ZM23.9173 9.1618C23.7846 9.16676 23.6533 9.19075 23.5273 9.23305C23.4598 9.27055 23.6398 9.3343 23.6136 9.38305C23.5911 9.4393 23.5873 9.54805 23.5011 9.52555C23.4186 9.50305 23.1336 9.36055 23.1261 9.3118C23.1148 9.2668 23.0586 9.26305 23.0586 9.26305C23.0586 9.26305 23.8761 9.15055 23.9173 9.1618V9.1618Z" fill="#474747" stroke="#474747" stroke-width="0.0836044" stroke-linejoin="round"/>
<path d="M24.045 9.09359V9.80984M23.4937 8.24609L23.1562 8.79359" stroke="black" stroke-width="0.0836044"/>
<path d="M24.0977 8.23047C24.0977 8.23047 24.2402 8.42547 24.2252 8.48172C24.2814 8.52672 24.3489 8.70672 24.3489 8.70672" fill="url(#paint3_linear_336_31469)"/>
<path d="M24.0977 8.23047C24.0977 8.23047 24.2402 8.42547 24.2252 8.48172C24.2814 8.52672 24.3489 8.70672 24.3489 8.70672" stroke="black" stroke-width="0.0836044"/>
<path d="M24.6478 8.20117C24.6478 8.20117 24.3403 8.63617 24.3478 8.66992" stroke="black" stroke-width="0.0836044"/>
<path d="M23.0652 6.12675C23.0577 6.14925 23.0202 6.1605 22.979 6.14925C22.9377 6.13425 22.9077 6.10425 22.9152 6.08175C22.9227 6.0555 22.964 6.04425 23.0052 6.05925C23.0427 6.0705 23.0727 6.1005 23.0652 6.12675ZM23.1927 6.11925C23.2002 6.14175 23.2377 6.153 23.279 6.138C23.3202 6.12675 23.3502 6.09675 23.3427 6.0705C23.3352 6.048 23.294 6.03675 23.2527 6.05175C23.2152 6.063 23.1852 6.093 23.1927 6.11925Z" fill="black"/>
<path d="M26.8109 15.1504C26.8109 15.1504 26.6909 15.1691 26.6984 15.1804C26.6984 15.1916 26.3609 15.2029 26.3572 15.1916C26.3497 15.1804 26.3047 15.2479 26.3047 15.2479L26.3609 15.2141C26.3609 15.2141 26.4434 15.3004 26.4659 15.2929C26.4922 15.2891 26.4547 15.3304 26.4659 15.3341C26.4697 15.3416 26.4959 15.3191 26.4959 15.3191L27.0509 15.3116L26.8109 15.1504ZM27.0134 15.3191L26.5634 15.3341C26.5634 15.3341 26.4472 15.4391 26.4397 15.4616C26.4322 15.4879 26.5147 15.4954 26.5147 15.4954L26.5372 15.5816L26.5972 15.5591C26.5972 15.5591 26.9834 15.6154 27.3359 15.5366C27.5159 15.4766 27.5497 15.4016 27.4222 15.3529C27.2984 15.3079 27.0172 15.3229 27.0134 15.3191V15.3191Z" fill="#FF7000" stroke="black" stroke-width="0.0836044" stroke-linejoin="round"/>
<path d="M25.4641 16.2535L26.2778 16.216L26.1278 16.0885L28.3403 15.9985L28.2653 15.8223L25.7866 15.9235L26.0866 16.0623L25.4116 16.081L25.4341 16.1523L25.2578 16.1448C25.2578 16.1448 25.4566 16.2198 25.4603 16.2573L25.4641 16.2535Z" fill="url(#paint4_linear_336_31469)" stroke="black" stroke-width="0.0836044"/>
<path d="M26.3783 11.7346C26.3145 11.7008 26.0258 11.6596 25.707 11.8696L25.722 12.6046C25.722 12.6046 26.1908 12.3533 26.4158 12.4096C26.4045 12.1846 26.4045 11.8921 26.3783 11.7346V11.7346Z" fill="url(#paint5_linear_336_31469)" stroke="black" stroke-width="0.0836044"/>
<path d="M21.8494 13.9645L19.9219 15.877M22.7119 13.9757L21.1444 16.0382M22.6406 13.4395L20.5519 15.9707M20.4881 15.937L20.6906 15.697M23.0381 14.7107L22.2281 15.8282M22.1944 15.9745L22.2131 16.402M23.4094 15.1007L22.5469 16.1807M23.2556 16.0945L23.6044 15.5207M23.3906 15.412L22.9706 15.8845M23.2631 14.962L22.9781 15.3107M22.8919 14.452C22.8919 14.452 22.0181 15.7307 22.0331 15.8395M22.8019 14.287C22.7794 14.2982 22.0481 15.2695 22.0481 15.2695M22.0069 15.577L21.8719 15.7382M21.7031 15.982L21.5006 16.2482" stroke="black" stroke-width="0.0836044"/>
<path d="M21.7574 11.0175C21.7574 11.0175 21.6974 11.205 21.7574 11.2987C21.8174 11.3925 22.1887 12.1425 22.1887 12.1425C22.1887 12.1425 22.4437 11.8312 22.5374 11.8237C22.6274 11.8125 22.5862 12.6337 22.5862 12.6337C22.5862 12.6337 22.4362 12.7762 22.3424 12.7687C22.2487 12.7612 22.5674 13.0912 22.5599 13.3687C22.5524 13.65 22.1399 15.0375 21.9862 15.06C21.8362 15.0862 22.0537 14.8087 22.0462 14.73C22.0349 14.655 21.9937 14.7075 21.9599 14.6212C21.9262 14.5387 22.0124 14.4112 21.9974 14.325C21.9787 14.2425 21.8999 14.2575 21.8924 14.1975C21.8849 14.1375 21.9449 14.1225 21.9337 14.055C21.9262 13.9875 21.8324 14.0025 21.8437 13.9425C21.8512 13.8862 21.8587 13.9125 21.8512 13.8C21.8437 13.6912 21.8249 13.875 21.7312 13.8862C21.6374 13.8937 21.5624 14.1075 21.5624 14.1075C21.5624 14.1075 21.3749 14.37 21.1912 14.25C21.3037 14.4862 21.2174 14.5875 21.1724 14.595C21.1349 14.6062 21.2099 14.7825 21.1049 14.79C21.0037 14.7975 21.1799 15.1875 21.0674 15.2212C21.1912 15.2812 21.0899 15.3562 21.0899 15.3562C21.0899 15.3562 20.7974 15.3825 20.8612 15.765C19.9987 15.4575 19.5749 14.9362 19.5862 14.4C19.5937 13.8675 19.7624 13.3875 20.1749 13.2112C20.2949 12.7687 20.4974 12.2962 20.4974 12.2962C20.4974 12.2962 20.4637 12.1012 20.4899 11.9737C20.5176 11.8802 20.5663 11.7942 20.6324 11.7225C20.6324 11.7225 20.6174 11.415 20.6249 11.265C20.6324 11.115 20.6924 11.0437 20.6999 10.9612C20.7074 10.875 20.6737 10.4437 20.7599 10.3687C20.8424 10.2937 21.0037 10.3012 21.0899 10.2487C21.1724 10.2 21.2849 10.1062 21.3937 10.1137C21.5062 10.1212 21.5962 10.2 21.5962 10.2C21.5962 10.2 22.0087 10.2 22.0349 10.3575C22.0612 10.5187 21.9524 10.5825 21.9524 10.5825C21.9524 10.5825 22.0124 10.8075 21.7574 11.0175V11.0175Z" fill="#8A9396" stroke="#2B2B2B" stroke-width="0.0836044"/>
<path d="M21.3909 10.4321C21.4022 10.4583 21.3722 10.4996 21.3234 10.5258C21.2709 10.5521 21.2222 10.5558 21.2109 10.5333C21.1959 10.5071 21.2259 10.4658 21.2747 10.4396C21.3272 10.4096 21.3759 10.4096 21.3872 10.4321H21.3909Z" fill="#CECFCF" stroke="#2B2B2B" stroke-width="0.0836044"/>
<path d="M21.3179 10.4774C21.3179 10.4924 21.3028 10.5037 21.2878 10.5037C21.269 10.5037 21.2539 10.4924 21.2539 10.4774C21.2539 10.4586 21.269 10.4473 21.2878 10.4473C21.3028 10.4473 21.3179 10.4586 21.3179 10.4774Z" fill="black"/>
<path d="M21.9367 10.7545C21.9367 10.7545 22.038 11.212 21.918 11.5307M21.9705 10.5557C21.9705 10.5557 22.1692 10.8182 22.143 11.1482M21.9892 10.4995C21.993 10.4995 22.158 10.6382 22.1505 10.7357M22.0267 10.4395C22.0267 10.4395 22.1392 10.5145 22.1617 10.5932" stroke="#2B2B2B" stroke-width="0.0418022"/>
<path d="M21.975 10.3945C21.975 10.3945 21.5812 11.032 21.6337 11.4333" stroke="black" stroke-width="0.0836044"/>
<path d="M22.0016 10.373C22.0016 10.373 21.4766 10.6843 21.3828 11.7005" stroke="#2B2B2B" stroke-width="0.0418022"/>
<path d="M21.9444 10.5605L21.7344 10.718" stroke="black" stroke-width="0.0836044"/>
<path d="M21.1875 11.7568C21.1875 11.7568 21.48 10.5493 21.9938 10.373" stroke="#2B2B2B" stroke-width="0.0418022"/>
<path d="M22.1968 12.1659C22.1968 12.1659 22.4743 11.8171 22.5381 11.8284C22.6018 11.8434 22.5831 12.6384 22.5831 12.6384C22.5831 12.6384 22.3768 12.7921 22.3318 12.7884C22.2868 12.7809 22.5643 13.1634 22.5568 13.3021C22.5531 13.4446 22.5456 13.4446 22.5456 13.4446C22.5456 13.4446 22.5456 13.3621 22.4818 13.2271C22.4143 13.0884 22.4556 12.9346 22.0318 12.5896C21.9306 12.3796 22.2418 12.7209 22.3056 12.6684C22.3693 12.6196 22.1931 12.1734 22.1931 12.1659H22.1968Z" fill="#2B2B2B" stroke="#2B2B2B" stroke-width="0.0836044"/>
<path d="M21.6998 10.1992C21.6998 10.1992 21.5836 10.2292 21.5686 10.2742C21.5498 10.3267 21.4823 10.3717 21.4448 10.3567C21.4073 10.3417 21.3398 10.2817 21.3398 10.2817" stroke="#2B2B2B" stroke-width="0.0836044"/>
<path d="M21.0362 10.6094C21.0362 10.6094 20.86 10.7819 20.9462 10.8044C21.0325 10.8269 21.1225 10.6656 21.1225 10.6656C21.1225 10.6656 21.1225 10.9394 21.1975 10.8944C21.2725 10.8531 21.4862 10.6994 21.4862 10.6994C21.4862 10.6994 21.5612 10.6919 21.58 10.6994C21.595 10.7031 21.7787 10.8644 21.9025 10.8044C21.8312 10.9844 21.7525 11.0069 21.7525 11.0069C21.7525 11.0069 21.625 11.1719 21.46 11.1344C21.295 11.0969 21.2537 11.0294 21.2537 11.0294C21.2537 11.0294 21.115 11.0369 21.0737 10.9731L21.0137 10.8756C21.0137 10.8756 20.9387 10.9506 20.9125 10.9131C20.8937 10.8756 20.9125 10.6619 21.0362 10.6094V10.6094Z" fill="#2B2B2B" stroke="#2B2B2B" stroke-width="0.0836044" stroke-linejoin="round"/>
<path d="M22.0323 10.3651C22.0323 10.3651 21.7098 10.2676 21.5973 10.4289C21.4848 10.5864 21.5111 10.6764 21.5711 10.6914" stroke="#2B2B2B" stroke-width="0.0836044"/>
<path d="M22.0809 10.3546C22.0809 10.3921 22.0547 10.4259 22.0209 10.4259C21.9834 10.4259 21.9609 10.3921 21.9609 10.3546C21.9609 10.3171 21.9872 10.2871 22.0209 10.2871C22.0547 10.2871 22.0809 10.3171 22.0809 10.3546Z" fill="black"/>
<path d="M21.1378 11.1819C21.1378 11.1819 21.2691 11.3844 21.4266 11.4407C21.5841 11.4969 21.3141 11.5419 21.1603 11.4407C21.0478 11.2832 21.0778 11.1707 21.0778 11.1707C21.0778 11.1707 21.1078 11.1407 21.1378 11.1819V11.1819ZM22.2666 12.3782C22.2666 12.3782 21.8953 11.8644 21.7903 11.8344C21.6816 11.8082 21.8728 11.7857 21.9853 11.8944C22.0978 12.0069 21.9553 11.7182 21.9553 11.7182L22.2666 12.3782Z" fill="#2B2B2B" stroke="#2B2B2B" stroke-width="0.0836044"/>
<path d="M21.102 15.3599C21.2445 15.3224 21.867 15.7162 22.002 15.8137C22.1445 15.9149 22.437 15.8512 22.437 15.8512C22.437 15.8512 22.302 15.9337 22.2195 15.9524C22.1332 15.9712 22.467 15.9712 22.467 15.9712C22.467 15.9712 21.6757 16.1924 20.8695 15.7687C20.7945 15.4387 21.042 15.3637 21.102 15.3599V15.3599Z" fill="#2B2B2B" stroke="#2B2B2B" stroke-width="0.0836044" stroke-linejoin="round"/>
<path d="M22.0135 12.506C22.0135 12.506 21.9047 12.4872 21.8522 12.4272C21.7997 12.3635 21.7247 12.2135 21.646 12.1497C21.5672 12.0897 21.1735 11.8722 21.031 11.8872C20.8885 11.9022 20.8435 11.8722 20.8247 11.8535C20.8097 11.8347 20.7497 11.861 20.761 11.936C20.7722 12.011 20.6485 12.1722 20.6935 12.2472C20.7754 12.3896 20.8722 12.5228 20.9822 12.6447C21.0197 12.656 20.9972 12.8247 20.9972 12.8247C20.9972 12.8247 21.1772 13.0085 21.2222 13.016C21.2672 13.0272 21.316 13.061 21.3085 13.106C21.3047 13.1472 21.1097 13.3835 21.1097 13.3835C21.1097 13.3835 20.9035 13.496 20.8997 13.5522C20.8997 13.616 20.9522 13.7397 21.1172 13.781C21.3271 13.8146 21.5416 13.8044 21.7472 13.751C21.7697 13.7135 21.8072 13.4885 21.7922 13.4622C21.7772 13.4397 21.6685 13.3722 21.6122 13.3797C21.556 13.391 21.5035 13.436 21.511 13.4472C21.5147 13.4585 21.4322 13.4997 21.4322 13.4585C21.4322 13.421 21.5972 13.2335 21.6122 13.2522C21.6272 13.2672 21.8597 13.2897 21.9047 13.406C21.946 13.5222 21.946 13.6085 22.0697 13.5935C22.1897 13.5822 22.3622 13.4697 22.3772 13.2372C22.383 13.1594 22.37 13.0813 22.3394 13.0095C22.3087 12.9377 22.2612 12.8744 22.201 12.8247C22.1635 12.7985 22.036 12.7235 22.0247 12.686C22.0172 12.6485 21.9872 12.536 22.0097 12.506H22.0135Z" fill="#2B2B2B" stroke="#2B2B2B" stroke-width="0.0836044"/>
<path d="M19.8119 13.5371C19.8119 13.5371 20.2056 13.4358 20.3069 13.4396C20.4081 13.4396 20.7944 13.6196 20.9069 13.7283C21.0194 13.8408 21.2444 14.0958 21.3944 14.0733C21.5444 14.0508 21.5894 14.0208 21.5894 14.0208L21.5294 14.1333C21.5294 14.1333 21.4094 14.1671 21.3456 14.1521C21.2856 14.1371 21.1656 14.0958 21.0456 13.9796C20.9294 13.8671 20.5581 13.5483 20.2469 13.5708C19.9356 13.5933 19.7556 13.9008 19.7556 13.9008C19.7556 13.9008 19.7556 13.7508 19.7706 13.7171C19.7819 13.6871 19.7031 13.7921 19.7031 13.7921L19.8119 13.5371Z" fill="#2B2B2B" stroke="#2B2B2B" stroke-width="0.0836044"/>
<path d="M21.2623 13.8454C21.2623 13.8454 21.3598 13.8716 21.5248 13.8716C21.6861 13.8716 21.7723 13.8004 21.7723 13.8004L21.7611 13.7366L21.7873 13.6504C21.7873 13.6504 21.9111 13.7741 21.9111 13.8004C21.9111 13.8266 21.8586 13.8379 21.8586 13.8379L21.8398 13.7741L21.7986 13.8304C21.7986 13.8304 21.5623 14.0179 21.4311 13.9879C21.3036 13.9616 21.1836 13.8754 21.2173 13.8566C21.2511 13.8379 21.2661 13.8454 21.2623 13.8454ZM20.6886 14.1754C20.6886 14.1754 20.5461 14.1754 20.4823 14.2054C20.4186 14.2354 20.3961 14.2729 20.3511 14.2691C20.3098 14.2616 20.2761 14.2091 20.2873 14.1866C20.3061 14.1491 20.3923 14.1041 20.5498 14.1154C20.7111 14.1304 20.6886 14.1754 20.6886 14.1754V14.1754ZM21.1873 14.5616C21.1873 14.5541 21.1761 14.3554 21.0973 14.2729C21.0699 14.2438 21.0356 14.2221 20.9976 14.2097C20.9597 14.1972 20.9192 14.1945 20.8798 14.2016C20.8348 14.2129 21.0373 14.3029 21.0598 14.3591C21.0786 14.4191 21.1461 14.5841 21.1273 14.6216C21.1086 14.6591 21.0786 14.5091 20.9511 14.4641C20.8273 14.4191 20.6548 14.4454 20.6886 14.5016C20.7261 14.5541 20.8648 14.5016 20.9361 14.6254C20.9822 14.7041 21.0236 14.7855 21.0598 14.8691L21.0861 14.7829L21.1461 14.7679L21.1573 14.6029L21.1873 14.5616Z" fill="#2B2B2B" stroke="#2B2B2B" stroke-width="0.0836044"/>
<path d="M21.0876 15.2134L20.9563 14.9509C20.9563 14.9509 20.9188 14.7897 20.8063 14.7447C20.6938 14.6959 20.5513 14.7072 20.5513 14.7597C20.5476 14.8159 20.7838 14.8872 20.7988 14.9172C20.8138 14.9472 20.8063 14.9997 20.7876 15.0034C20.7651 15.0034 20.6601 14.9659 20.6076 14.9772C20.5551 14.9884 20.5251 15.0597 20.4463 15.0372C20.3676 15.0184 20.3001 14.7672 20.3338 14.7372C20.3601 14.7147 20.2738 14.7859 20.2551 14.7184C20.2363 14.6547 20.2813 14.4484 20.2513 14.4222C20.2213 14.3959 20.0713 14.3097 20.0713 14.2909C20.0676 14.2722 20.0788 13.2784 20.9076 14.1034C20.5513 13.6797 20.4126 13.7284 20.3451 13.7247C20.3001 13.7247 19.9738 13.7509 19.8951 14.1634C19.8126 14.5759 19.7151 14.3172 19.7151 14.3172C19.7151 14.3172 19.7001 14.4972 19.7863 14.5459C19.8726 14.5984 19.7451 14.7447 19.7451 14.7447C19.7451 14.7447 19.5876 14.3697 19.6138 14.2009C19.5801 14.3322 19.5838 14.6622 19.7788 15.0184C20.0575 15.3343 20.4071 15.5798 20.7988 15.7347C21.0988 15.2734 21.0876 15.2172 21.0876 15.2097V15.2134Z" fill="#2B2B2B" stroke="#2B2B2B" stroke-width="0.0836044" stroke-linejoin="round"/>
<path d="M20.544 15.2183C20.544 15.2183 20.709 15.2371 20.754 15.3233C20.8027 15.4096 20.8215 15.5408 20.8215 15.5408C20.8515 15.4846 20.859 15.4396 20.919 15.3983C20.9752 15.3571 21.0165 15.3496 21.0127 15.3233C21.0127 15.2896 20.8327 15.1058 20.7465 15.0946C20.6565 15.0833 20.5027 15.1921 20.5027 15.1921C20.5027 15.1921 20.4727 15.2296 20.5402 15.2183H20.544Z" fill="#8A9396" stroke="#2B2B2B" stroke-width="0.0836044" stroke-linejoin="round"/>
<path d="M20.9258 15.6523C20.9258 15.6523 21.3608 15.8511 22.0733 15.8623" stroke="#8A9396" stroke-width="0.0836044" stroke-linecap="round"/>
<path d="M22.3773 13.6348C22.3773 13.6348 22.3398 13.9985 22.0586 14.7223" stroke="#2B2B2B" stroke-width="0.0836044" stroke-linecap="round"/>
<path d="M22.3187 13.8594C22.3187 13.8594 22.2325 14.1219 22 14.3169" stroke="#2B2B2B" stroke-width="0.0836044"/>
<path d="M21.0469 18.3864L21.1219 18.3039L21.1444 18.3227L21.1406 18.3302L21.1331 18.3414V18.3489L21.1406 18.3564L21.2381 18.4427L21.2456 18.4502H21.2531L21.2569 18.4427C21.2669 18.4327 21.2731 18.4227 21.2756 18.4127C21.2806 18.4027 21.2819 18.3927 21.2794 18.3827C21.2794 18.3702 21.2744 18.3577 21.2644 18.3452L21.2944 18.3302L21.3394 18.4052L21.2194 18.5402L21.1969 18.5214L21.2044 18.5102L21.2081 18.5027V18.4952L21.2006 18.4877L21.1031 18.4014L21.0919 18.3939H21.0881L21.0769 18.4014L21.0694 18.4089L21.0469 18.3864ZM21.2119 18.2027L21.3506 18.0677L21.4181 18.1014L21.4069 18.1277L21.3694 18.1202L21.3469 18.1277C21.3394 18.1302 21.3319 18.1364 21.3244 18.1464L21.2981 18.1689L21.3356 18.2102L21.3469 18.2027C21.3544 18.1977 21.3581 18.1927 21.3581 18.1877V18.1802L21.3506 18.1689L21.3431 18.1614L21.3656 18.1389L21.4331 18.2102L21.4106 18.2289L21.4031 18.2252L21.3919 18.2139H21.3844L21.3694 18.2252L21.3619 18.2327L21.3994 18.2702L21.4069 18.2777H21.4106L21.4181 18.2702L21.4331 18.2589L21.4556 18.2289C21.4606 18.2189 21.4619 18.2064 21.4594 18.1914C21.4594 18.1814 21.4556 18.1702 21.4481 18.1577L21.4781 18.1427L21.5156 18.2289L21.3731 18.3677L21.3506 18.3452H21.3581L21.3656 18.3302V18.3227L21.3581 18.3114L21.2681 18.2214L21.2569 18.2139H21.2494L21.2419 18.2177L21.2344 18.2252L21.2119 18.2027V18.2027ZM21.5006 17.9252C21.5306 17.9002 21.5606 17.8889 21.5906 17.8914C21.6231 17.8939 21.6506 17.9089 21.6731 17.9364C21.6881 17.9539 21.6981 17.9727 21.7031 17.9927C21.7081 18.0152 21.7069 18.0352 21.6994 18.0527C21.6919 18.0727 21.6781 18.0914 21.6581 18.1089C21.6331 18.1314 21.6056 18.1427 21.5756 18.1427C21.5406 18.1427 21.5106 18.1277 21.4856 18.0977C21.4606 18.0727 21.4506 18.0439 21.4556 18.0114C21.4581 17.9789 21.4731 17.9502 21.5006 17.9252V17.9252ZM21.5269 17.9514C21.5144 17.9639 21.5081 17.9789 21.5081 17.9964C21.5081 18.0164 21.5169 18.0364 21.5344 18.0564C21.5519 18.0764 21.5706 18.0889 21.5906 18.0939C21.6056 18.0939 21.6194 18.0889 21.6319 18.0789C21.6469 18.0689 21.6544 18.0564 21.6544 18.0414C21.6544 18.0189 21.6444 17.9977 21.6244 17.9777C21.6144 17.9652 21.6019 17.9552 21.5869 17.9477C21.5769 17.9427 21.5656 17.9402 21.5531 17.9402C21.5431 17.9402 21.5344 17.9439 21.5269 17.9514V17.9514ZM21.7556 17.7189L21.7744 17.7077L21.7781 17.7114L21.8869 17.6364V17.6289L21.9019 17.6177L21.9731 17.6664L21.9544 17.6927L21.9281 17.6814C21.9181 17.6764 21.9081 17.6752 21.8981 17.6777L21.8831 17.6814L21.8794 17.6852V17.6927L21.9581 17.8052L21.9656 17.8164H21.9769L21.9956 17.8052L22.0106 17.8314L21.9206 17.8989L21.9019 17.8727L21.9056 17.8689L21.9169 17.8577V17.8502L21.9131 17.8389L21.8344 17.7264L21.8269 17.7189L21.8231 17.7227C21.8181 17.7252 21.8144 17.7302 21.8119 17.7377C21.8069 17.7452 21.8044 17.7539 21.8044 17.7639L21.8081 17.7939L21.7781 17.8014L21.7556 17.7189V17.7189ZM21.9656 17.5877L22.1306 17.4827L22.1944 17.5314L22.1719 17.5577L22.1419 17.5427H22.1156C22.1081 17.5427 22.0994 17.5464 22.0894 17.5539L22.0594 17.5727L22.0894 17.6214L22.0969 17.6139L22.1119 17.6064V17.5952L22.1081 17.5802L22.1044 17.5727L22.1306 17.5577L22.1794 17.6439L22.1531 17.6589L22.1494 17.6477L22.1381 17.6364H22.1306L22.1156 17.6439L22.1044 17.6477L22.1344 17.6964L22.1381 17.7039H22.1419L22.1531 17.7002L22.1681 17.6889L22.1981 17.6664L22.2094 17.6327V17.5952L22.2394 17.5877L22.2581 17.6777L22.0856 17.7827L22.0706 17.7564L22.0744 17.7527L22.0856 17.7414C22.0881 17.7414 22.0881 17.7389 22.0856 17.7339V17.7227L22.0181 17.6139L22.0069 17.6027H22.0031L21.9919 17.6064L21.9844 17.6102L21.9656 17.5839V17.5877ZM22.1981 17.4452L22.3294 17.3777L22.3556 17.3664C22.3656 17.3614 22.3769 17.3602 22.3894 17.3627C22.3994 17.3627 22.4081 17.3652 22.4156 17.3702L22.4344 17.3927C22.4444 17.4102 22.4456 17.4264 22.4381 17.4414C22.4331 17.4564 22.4231 17.4689 22.4081 17.4789L22.4756 17.5089H22.4794L22.4906 17.5127H22.5019L22.5094 17.5089L22.5206 17.5052L22.5319 17.5314L22.4681 17.5689L22.3556 17.5127L22.3369 17.5202L22.3594 17.5614L22.3669 17.5764H22.3856L22.3931 17.5689L22.4081 17.5989L22.3069 17.6514L22.2919 17.6214L22.3031 17.6177L22.3106 17.6102L22.3144 17.6027L22.3106 17.5914L22.2506 17.4752L22.2431 17.4677C22.2431 17.4652 22.2406 17.4652 22.2356 17.4677H22.2244L22.2169 17.4714L22.2019 17.4452H22.1981ZM22.2956 17.4377L22.3219 17.4902L22.3519 17.4752C22.3644 17.4702 22.3731 17.4639 22.3781 17.4564L22.3856 17.4414V17.4227L22.3706 17.4114H22.3556L22.3294 17.4189L22.2919 17.4377H22.2956ZM22.4606 17.3102L22.5956 17.2502L22.6219 17.2427H22.6556C22.6656 17.2427 22.6744 17.2452 22.6819 17.2502L22.7006 17.2764C22.7081 17.2914 22.7081 17.3064 22.7006 17.3214C22.6931 17.3364 22.6819 17.3489 22.6669 17.3589L22.7344 17.3927L22.7494 17.3964H22.7681L22.7756 17.3889L22.7906 17.4189L22.7231 17.4489L22.6106 17.3889L22.5956 17.3964L22.6144 17.4377L22.6219 17.4527H22.6369L22.6481 17.4489L22.6594 17.4752L22.5581 17.5239L22.5431 17.4939L22.5544 17.4902L22.5619 17.4827L22.5656 17.4752L22.5619 17.4639L22.5094 17.3439C22.5094 17.3389 22.5069 17.3352 22.5019 17.3327H22.4831L22.4756 17.3402L22.4644 17.3102H22.4606ZM22.5581 17.3102L22.5806 17.3664L22.6144 17.3514L22.6406 17.3364C22.6456 17.3314 22.6481 17.3252 22.6481 17.3177V17.3027L22.6369 17.2877H22.6181L22.5919 17.2952L22.5544 17.3102H22.5581ZM22.8131 17.1639L22.8619 17.1452L22.9894 17.2914L23.0044 17.3027H23.0231L23.0306 17.3327L22.9294 17.3702L22.9181 17.3402L22.9256 17.3364C22.9306 17.3364 22.9344 17.3339 22.9369 17.3289V17.3214L22.9294 17.3139L22.9144 17.2952L22.8506 17.3177V17.3552L22.8619 17.3589L22.8769 17.3552L22.8881 17.3852L22.8019 17.4152L22.7906 17.3852C22.7956 17.3852 22.7994 17.3827 22.8019 17.3777L22.8056 17.3739V17.3589L22.8131 17.1639V17.1639ZM22.8506 17.2839L22.8919 17.2689L22.8506 17.2164V17.2839V17.2839ZM22.9931 17.1002L23.0944 17.0702L23.1731 17.1939V17.0439L23.2781 17.0177L23.2856 17.0477L23.2744 17.0514C23.2694 17.0514 23.2656 17.0539 23.2631 17.0589V17.0739L23.3006 17.2014L23.3044 17.2089L23.3119 17.2127H23.3344L23.3419 17.2389L23.2331 17.2727L23.2256 17.2389H23.2331C23.2406 17.2389 23.2444 17.2364 23.2444 17.2314L23.2481 17.2277V17.2164L23.2106 17.0777L23.2069 17.2802L23.1769 17.2877L23.0719 17.1227L23.1094 17.2614L23.1131 17.2652L23.1206 17.2689H23.1319L23.1431 17.2652L23.1506 17.2952L23.0606 17.3214L23.0494 17.2914H23.0606L23.0719 17.2839V17.2652L23.0344 17.1414V17.1302L23.0269 17.1264H23.0044L22.9931 17.1002V17.1002ZM23.4581 16.9764L23.5781 16.9539H23.6156C23.6281 16.9539 23.6381 16.9564 23.6456 16.9614C23.6556 16.9664 23.6631 16.9727 23.6681 16.9802L23.6794 17.0064C23.6819 17.0264 23.6769 17.0439 23.6644 17.0589C23.6519 17.0764 23.6331 17.0877 23.6081 17.0927L23.5706 17.1002L23.5781 17.1414V17.1527H23.6081L23.6119 17.1827L23.4994 17.2052V17.1752H23.5031L23.5181 17.1677V17.1489L23.4956 17.0252V17.0102L23.4881 17.0064H23.4656L23.4581 16.9764V16.9764ZM23.5481 16.9989L23.5631 17.0627H23.5819L23.6081 17.0514L23.6194 17.0364V17.0177C23.6194 17.0077 23.6144 17.0002 23.6044 16.9952C23.5969 16.9927 23.5869 16.9927 23.5744 16.9952H23.5481V16.9989ZM23.7056 16.9314L23.8481 16.9127H23.8781L23.9081 16.9202C23.9181 16.9252 23.9256 16.9314 23.9306 16.9389C23.9381 16.9464 23.9419 16.9552 23.9419 16.9652C23.9444 16.9827 23.9406 16.9977 23.9306 17.0102C23.9181 17.0227 23.9044 17.0327 23.8894 17.0402L23.9419 17.0889L23.9531 17.0964L23.9606 17.1002H23.9831V17.1302L23.9119 17.1414L23.8256 17.0514H23.8069L23.8144 17.0964V17.1114L23.8219 17.1189H23.8444V17.1489L23.7319 17.1639V17.1302H23.7394L23.7506 17.1264L23.7581 17.1189V17.1077L23.7394 16.9764V16.9652H23.7094L23.7056 16.9314ZM23.7956 16.9577L23.8031 17.0177H23.8406L23.8669 17.0064L23.8819 16.9952V16.9764L23.8781 16.9614L23.8631 16.9539H23.8331L23.7956 16.9577V16.9577ZM24.1256 16.8864C24.1606 16.8839 24.1906 16.8927 24.2156 16.9127C24.2406 16.9352 24.2531 16.9639 24.2531 16.9989C24.2531 17.0239 24.2494 17.0452 24.2419 17.0627C24.2319 17.0802 24.2194 17.0952 24.2044 17.1077C24.1844 17.1177 24.1619 17.1239 24.1369 17.1264C24.1019 17.1264 24.0731 17.1189 24.0506 17.1039C24.0231 17.0814 24.0081 17.0514 24.0056 17.0139C24.0056 16.9789 24.0156 16.9489 24.0356 16.9239C24.0581 16.8989 24.0881 16.8864 24.1256 16.8864V16.8864ZM24.1256 16.9239C24.1081 16.9239 24.0956 16.9314 24.0881 16.9464C24.0731 16.9614 24.0669 16.9827 24.0694 17.0102C24.0694 17.0352 24.0769 17.0552 24.0919 17.0702C24.1019 17.0827 24.1156 17.0889 24.1331 17.0889C24.1506 17.0889 24.1644 17.0814 24.1744 17.0664C24.1869 17.0514 24.1919 17.0302 24.1894 17.0027C24.1894 16.9852 24.1856 16.9702 24.1781 16.9577C24.1731 16.9452 24.1656 16.9364 24.1556 16.9314C24.1456 16.9239 24.1356 16.9214 24.1256 16.9239V16.9239ZM24.2981 16.8827H24.4256L24.4631 16.8864L24.4894 16.9014L24.5044 16.9239L24.5119 16.9539C24.5119 16.9739 24.5044 16.9902 24.4894 17.0027C24.4744 17.0152 24.4531 17.0214 24.4256 17.0214H24.3881V17.0777L24.4031 17.0814H24.4144V17.1152H24.3019V17.0814H24.3206L24.3244 17.0777V17.0627L24.3281 16.9352V16.9202L24.3244 16.9164H24.3019V16.8789L24.2981 16.8827ZM24.3844 16.9202V16.9877H24.4069L24.4331 16.9839L24.4444 16.9727C24.4494 16.9677 24.4519 16.9614 24.4519 16.9539C24.4519 16.9414 24.4481 16.9327 24.4406 16.9277C24.4331 16.9227 24.4231 16.9202 24.4106 16.9202H24.3844ZM24.5531 16.8827L24.6956 16.8939L24.7256 16.8977L24.7556 16.9127C24.7631 16.9177 24.7694 16.9252 24.7744 16.9352L24.7781 16.9652C24.7781 16.9827 24.7706 16.9952 24.7556 17.0027C24.7431 17.0152 24.7281 17.0227 24.7106 17.0252L24.7556 17.0814V17.0852L24.7631 17.0964H24.7706L24.7819 17.1002H24.7931V17.1339L24.7181 17.1302L24.6469 17.0252H24.6281V17.0852H24.6506V17.1227L24.5381 17.1114V17.0814H24.5606L24.5681 17.0739V17.0627L24.5756 16.9314V16.9202L24.5644 16.9127H24.5494V16.8789L24.5531 16.8827ZM24.6356 16.9277L24.6319 16.9877H24.6656C24.6781 16.9902 24.6881 16.9902 24.6956 16.9877C24.7031 16.9877 24.7081 16.9852 24.7106 16.9802C24.7156 16.9752 24.7181 16.9689 24.7181 16.9614V16.9464L24.7031 16.9352L24.6731 16.9314H24.6356V16.9277ZM24.8381 16.9052L24.9506 16.9202V16.9539H24.9394C24.9319 16.9514 24.9269 16.9514 24.9244 16.9539L24.9169 16.9689L24.9019 17.0964V17.1114H24.9056L24.9169 17.1189H24.9281L24.9244 17.1527L24.8119 17.1377L24.8156 17.1039H24.8231C24.8306 17.1064 24.8356 17.1064 24.8381 17.1039H24.8419L24.8456 17.0927L24.8606 16.9614V16.9427H24.8456L24.8344 16.9389L24.8381 16.9052V16.9052ZM25.0819 16.9389L25.1344 16.9502L25.1719 17.1377C25.1719 17.1477 25.1744 17.1539 25.1794 17.1564L25.1944 17.1639L25.1869 17.1939L25.0781 17.1752L25.0856 17.1452H25.1044L25.1081 17.1414V17.1039L25.0331 17.0927L25.0219 17.1152V17.1227C25.0194 17.1252 25.0194 17.1277 25.0219 17.1302H25.0256L25.0406 17.1377L25.0369 17.1677L24.9469 17.1527L24.9506 17.1227H24.9656L24.9731 17.1189L24.9806 17.1077L25.0819 16.9389V16.9389ZM25.0519 17.0627L25.1006 17.0702L25.0894 17.0027L25.0519 17.0627ZM25.2731 16.9727L25.3744 16.9989L25.3819 17.1489L25.4569 17.0214L25.5581 17.0477L25.5506 17.0777H25.5394C25.5344 17.0727 25.5306 17.0727 25.5281 17.0777C25.5231 17.0777 25.5206 17.0814 25.5206 17.0889L25.4869 17.2164V17.2314L25.4981 17.2352L25.5094 17.2389L25.5019 17.2727L25.3931 17.2427L25.4006 17.2127H25.4119L25.4231 17.2164H25.4306V17.2014L25.4681 17.0627L25.3669 17.2389L25.3369 17.2277L25.3256 17.0364L25.2919 17.1714V17.1789L25.2956 17.1864H25.3069L25.3181 17.1902L25.3106 17.2239L25.2169 17.2014L25.2244 17.1677H25.2356L25.2469 17.1714H25.2506L25.2581 17.1564L25.2881 17.0289V17.0139L25.2769 17.0102L25.2656 17.0064L25.2731 16.9727V16.9727ZM25.7419 17.1039L25.8544 17.1452L25.8919 17.1639L25.9106 17.1864L25.9181 17.2127L25.9144 17.2427C25.9069 17.2602 25.8944 17.2727 25.8769 17.2802C25.8569 17.2877 25.8344 17.2877 25.8094 17.2802L25.7719 17.2652L25.7569 17.3027V17.3214L25.7681 17.3289H25.7794L25.7681 17.3627L25.6594 17.3252L25.6706 17.2914H25.6781L25.6931 17.2989H25.6969L25.7044 17.2839L25.7494 17.1639V17.1452L25.7381 17.1377H25.7306L25.7419 17.1039V17.1039ZM25.8056 17.1677L25.7831 17.2314L25.8019 17.2389L25.8281 17.2427L25.8469 17.2389L25.8581 17.2202C25.8606 17.2102 25.8594 17.2014 25.8544 17.1939C25.8494 17.1864 25.8419 17.1814 25.8319 17.1789L25.8056 17.1677V17.1677ZM25.9781 17.1902L26.1094 17.2502L26.1356 17.2652C26.1456 17.2702 26.1531 17.2777 26.1581 17.2877L26.1694 17.3139L26.1619 17.3439C26.1544 17.3614 26.1431 17.3727 26.1281 17.3777H26.0794L26.0981 17.4489L26.1056 17.4602L26.1094 17.4677L26.1206 17.4752H26.1281L26.1169 17.5089L26.0494 17.4789L26.0194 17.3552L26.0006 17.3477L25.9819 17.3889V17.4114L25.9894 17.4152L26.0006 17.4227L25.9856 17.4489L25.8844 17.4039L25.8956 17.3739L25.9069 17.3777L25.9181 17.3814H25.9256L25.9294 17.3702L25.9819 17.2502L25.9856 17.2389V17.2314L25.9781 17.2277H25.9706L25.9631 17.2239L25.9781 17.1902ZM26.0419 17.2614L26.0156 17.3177L26.0494 17.3289C26.0594 17.3364 26.0681 17.3402 26.0756 17.3402L26.0944 17.3364C26.0994 17.3339 26.1031 17.3289 26.1056 17.3214C26.1081 17.3164 26.1081 17.3114 26.1056 17.3064L26.1019 17.2914L26.0756 17.2764L26.0381 17.2614H26.0419ZM26.3606 17.3702C26.3931 17.3877 26.4144 17.4114 26.4244 17.4414C26.4344 17.4714 26.4306 17.5027 26.4131 17.5352C26.4031 17.5552 26.3894 17.5702 26.3719 17.5802C26.3544 17.5927 26.3344 17.5989 26.3119 17.5989C26.2919 17.5989 26.2706 17.5927 26.2481 17.5802C26.2181 17.5652 26.1969 17.5439 26.1844 17.5164C26.1719 17.4839 26.1756 17.4514 26.1956 17.4189C26.2106 17.3864 26.2344 17.3652 26.2669 17.3552C26.2969 17.3477 26.3281 17.3527 26.3606 17.3702V17.3702ZM26.3456 17.4039C26.3306 17.3939 26.3144 17.3927 26.2969 17.4002C26.2794 17.4077 26.2644 17.4239 26.2519 17.4489C26.2394 17.4714 26.2344 17.4927 26.2369 17.5127C26.2394 17.5277 26.2494 17.5402 26.2669 17.5502C26.2819 17.5577 26.2969 17.5577 26.3119 17.5502C26.3294 17.5427 26.3444 17.5277 26.3569 17.5052C26.3669 17.4877 26.3719 17.4727 26.3719 17.4602C26.3719 17.4452 26.3694 17.4327 26.3644 17.4227L26.3456 17.4039ZM26.5331 17.4602L26.5519 17.4714V17.4789L26.6644 17.5502L26.6681 17.5464L26.6869 17.5577L26.6681 17.6402L26.6381 17.6327V17.6027C26.6381 17.5927 26.6356 17.5839 26.6306 17.5764L26.6194 17.5614H26.6119L26.6081 17.5689L26.5369 17.6814L26.5294 17.6964V17.7002L26.5331 17.7039L26.5481 17.7152L26.5331 17.7414L26.4356 17.6814L26.4544 17.6552L26.4581 17.6589L26.4731 17.6664H26.4769L26.4881 17.6514L26.5631 17.5389V17.5277H26.5594C26.5544 17.5227 26.5469 17.5202 26.5369 17.5202L26.5144 17.5239L26.4881 17.5389L26.4656 17.5164L26.5331 17.4602V17.4602ZM26.7431 17.6027L26.9006 17.7152L26.8781 17.7902L26.8481 17.7827V17.7452L26.8406 17.7227C26.8356 17.7152 26.8281 17.7089 26.8181 17.7039L26.7919 17.6814L26.7544 17.7302L26.7656 17.7377L26.7806 17.7452H26.7919L26.7994 17.7302L26.8069 17.7227L26.8294 17.7414L26.7731 17.8202L26.7506 17.8052L26.7544 17.7977L26.7619 17.7827V17.7752L26.7469 17.7602L26.7356 17.7564L26.7056 17.7977L26.7019 17.8089L26.7094 17.8202L26.7244 17.8314L26.7619 17.8464C26.7719 17.8489 26.7819 17.8489 26.7919 17.8464C26.8044 17.8439 26.8169 17.8377 26.8294 17.8277L26.8444 17.8539L26.7694 17.9064L26.6081 17.7939L26.6269 17.7639L26.6306 17.7677L26.6456 17.7752H26.6531L26.6606 17.7639L26.7356 17.6589L26.7431 17.6477V17.6439L26.7319 17.6327L26.7244 17.6289L26.7431 17.6027V17.6027ZM27.0019 17.9327L27.0881 18.0077L27.0694 18.0302L27.0619 18.0264L27.0544 18.0189H27.0469L27.0356 18.0302L26.9906 18.0864L26.9644 18.0639L26.9681 18.0452L26.9306 18.0377L26.9044 18.0189C26.8869 18.0039 26.8744 17.9877 26.8669 17.9702C26.8619 17.9502 26.8619 17.9302 26.8669 17.9102C26.8669 17.8902 26.8744 17.8702 26.8894 17.8502C26.9044 17.8327 26.9219 17.8202 26.9419 17.8127C26.9619 17.8052 26.9819 17.8039 27.0019 17.8089C27.0219 17.8114 27.0406 17.8189 27.0581 17.8314L27.0769 17.8539L27.0919 17.8802L27.1031 17.8764L27.1219 17.8914L27.0881 17.9664L27.0581 17.9514V17.9102L27.0544 17.8839L27.0394 17.8652L27.0094 17.8539L26.9756 17.8614C26.9656 17.8664 26.9544 17.8764 26.9419 17.8914L26.9194 17.9289V17.9702C26.9219 17.9802 26.9281 17.9889 26.9381 17.9964L26.9569 18.0077H26.9756L26.9906 18.0002L26.9944 17.9927L27.0019 17.9814V17.9777L26.9906 17.9664L26.9831 17.9589L27.0019 17.9327V17.9327ZM27.2531 18.0077L27.2906 18.0452L27.2194 18.2252C27.2144 18.2327 27.2131 18.2389 27.2156 18.2439L27.2231 18.2552L27.2006 18.2814L27.1256 18.2064L27.1444 18.1802L27.1481 18.1877L27.1594 18.1914H27.1669L27.1744 18.1802L27.1819 18.1614L27.1294 18.1127L27.1069 18.1239L27.0994 18.1277V18.1389L27.1106 18.1502L27.0881 18.1727L27.0244 18.1127L27.0469 18.0902L27.0544 18.0977H27.0619L27.0769 18.0939L27.2531 18.0077V18.0077ZM27.1631 18.0939L27.1969 18.1277L27.2231 18.0639L27.1631 18.0939ZM27.4069 18.1464L27.4219 18.1614L27.4181 18.1689L27.5081 18.2627H27.5156L27.5306 18.2739L27.4931 18.3489L27.4631 18.3377L27.4706 18.3077V18.2814C27.4706 18.2739 27.4681 18.2677 27.4631 18.2627H27.4556L27.4481 18.2664L27.3544 18.3602L27.3431 18.3714V18.3789L27.3544 18.3939L27.3319 18.4164L27.2569 18.3339L27.2794 18.3114V18.3189L27.2944 18.3264H27.3019L27.3131 18.3189L27.4106 18.2252L27.4144 18.2177V18.2139L27.3956 18.2027H27.3694L27.3394 18.2102L27.3281 18.1802L27.4031 18.1427L27.4069 18.1464Z" fill="black"/>
<path d="M6 3H18V12H6V3Z" fill="#012169"/>
<path d="M7.40625 3L11.9813 6.39375L16.5375 3H18V4.1625L13.5 7.51875L18 10.8563V12H16.5L12 8.64375L7.51875 12H6V10.875L10.4813 7.5375L6 4.2V3H7.40625Z" fill="white"/>
<path d="M13.95 8.26875L18 11.25V12L12.9188 8.26875H13.95ZM10.5 8.64375L10.6125 9.3L7.0125 12H6L10.5 8.64375ZM18 3V3.05625L13.3313 6.58125L13.3688 5.75625L17.0625 3H18ZM6 3L10.4813 6.3H9.35625L6 3.7875V3Z" fill="#C8102E"/>
<path d="M10.5188 3V12H13.5188V3H10.5188ZM6 6V9H18V6H6Z" fill="white"/>
<path d="M6 6.61875V8.41875H18V6.61875H6ZM11.1188 3V12H12.9188V3H11.1188Z" fill="#C8102E"/>
</g>
</g>
<defs>
<filter id="filter0_d_336_31469" x="0" y="-2" width="36" height="36" filterUnits="userSpaceOnUse" color-interpolation-filters="sRGB">
<feFlood flood-opacity="0" result="BackgroundImageFix"/>
<feColorMatrix in="SourceAlpha" type="matrix" values="0 0 0 0 0 0 0 0 0 0 0 0 0 0 0 0 0 0 127 0" result="hardAlpha"/>
<feOffset dy="4"/>
<feGaussianBlur stdDeviation="3"/>
<feComposite in2="hardAlpha" operator="out"/>
<feColorMatrix type="matrix" values="0 0 0 0 0 0 0 0 0 0 0 0 0 0 0 0 0 0 0.16 0"/>
<feBlend mode="normal" in2="BackgroundImageFix" result="effect1_dropShadow_336_31469"/>
<feBlend mode="normal" in="SourceGraphic" in2="effect1_dropShadow_336_31469" result="shape"/>
</filter>
<linearGradient id="paint0_linear_336_31469" x1="25.3799" y1="8.60363" x2="25.3931" y2="7.74276" gradientUnits="userSpaceOnUse">
<stop stop-color="#474747"/>
<stop offset="1" stop-color="#FF5500"/>
</linearGradient>
<linearGradient id="paint1_linear_336_31469" x1="25.0859" y1="11.8349" x2="25.0874" y2="12.3213" gradientUnits="userSpaceOnUse">
<stop stop-color="#B50000"/>
<stop offset="1" stop-color="#FFC500"/>
</linearGradient>
<linearGradient id="paint2_linear_336_31469" x1="27.2206" y1="12.1304" x2="28.015" y2="12.12" gradientUnits="userSpaceOnUse">
<stop stop-color="#D5DFFF"/>
<stop offset="1" stop-color="white"/>
</linearGradient>
<linearGradient id="paint3_linear_336_31469" x1="25.2271" y1="8.4386" x2="25.5132" y2="8.4386" gradientUnits="userSpaceOnUse">
<stop stop-color="#474747"/>
<stop offset="1" stop-color="#FF5500"/>
</linearGradient>
<linearGradient id="paint4_linear_336_31469" x1="29.3676" y1="16.1269" x2="29.2284" y2="15.2617" gradientUnits="userSpaceOnUse">
<stop stop-color="#D5DFFF"/>
<stop offset="1" stop-color="white"/>
</linearGradient>
<linearGradient id="paint5_linear_336_31469" x1="27.414" y1="12.4285" x2="27.059" y2="11.856" gradientUnits="userSpaceOnUse">
<stop stop-color="#D5DFFF"/>
<stop offset="1" stop-color="white"/>
</linearGradient>
<clipPath id="clip0_336_31469">
<rect width="24" height="18" fill="white" transform="translate(6 3)"/>
</clipPath>
</defs>
</svg>
