<svg width="36" height="31" viewBox="0 0 36 31" fill="none" xmlns="http://www.w3.org/2000/svg">
<g filter="url(#filter0_d_336_31358)">
<g clip-path="url(#clip0_336_31358)">
<path d="M6 3H30V21H6V3Z" fill="#FFB700"/>
<path d="M7 12.0007L10.3 4.00195H13.6V19.9995H10.3L7 12.0007Z" fill="#FF5B00"/>
<path d="M7 4.00195H10.3V19.9995H7V4.00195Z" fill="#005641"/>
<path d="M14.5977 4.00195H29.0989V19.9995H14.5977V4.00195Z" fill="#8D2029"/>
<path d="M27.7227 18.3223C27.7227 18.3223 27.8577 18.596 28.0077 18.7123C28.2327 18.8773 28.6827 18.8623 28.8814 19.061C29.1102 19.2898 28.8627 19.5935 28.8627 19.6235L28.8777 19.781C28.8777 19.781 28.7202 19.781 28.6527 19.7923C28.5552 19.8073 28.5177 19.8898 28.3302 19.8785C27.8689 19.8485 27.8877 19.4285 27.8614 19.0723C27.8389 18.9373 27.7864 18.7573 27.7527 18.6223C27.7264 18.5098 27.7227 18.3223 27.7227 18.3223Z" fill="#FFB700" stroke="black" stroke-width="0.0919649"/>
<path d="M15.9766 18.3223C15.9766 18.3223 15.8416 18.596 15.6916 18.7123C15.4666 18.8773 15.0166 18.8623 14.8178 19.061C14.5891 19.2898 14.8366 19.5935 14.8366 19.6235L14.8216 19.781C14.8216 19.781 14.9791 19.781 15.0466 19.7923C15.1441 19.8073 15.1816 19.8898 15.3691 19.8785C15.8303 19.8485 15.8116 19.4285 15.8378 19.0723C15.8603 18.9373 15.9128 18.7573 15.9466 18.6223C15.9728 18.5098 15.9766 18.3223 15.9766 18.3223Z" fill="#FFB700" stroke="black" stroke-width="0.0919649"/>
<path d="M27.7227 5.67773C27.7227 5.67773 27.8577 5.40398 28.0077 5.28773C28.2327 5.12273 28.6827 5.13774 28.8814 4.93899C29.1102 4.71024 28.8627 4.40649 28.8627 4.37649L28.8777 4.21898C28.8777 4.21898 28.7202 4.21899 28.6527 4.20774C28.5552 4.19274 28.5177 4.11023 28.3302 4.12148C27.8689 4.15148 27.8877 4.57148 27.8614 4.92773C27.8389 5.06273 27.7864 5.24273 27.7527 5.37773C27.7264 5.49023 27.7227 5.67773 27.7227 5.67773Z" fill="#FFB700" stroke="black" stroke-width="0.0919649"/>
<path d="M15.9805 5.67773C15.9805 5.67773 15.8455 5.40398 15.6955 5.28773C15.4705 5.12273 15.0205 5.13774 14.8217 4.93899C14.593 4.71024 14.8405 4.40649 14.8405 4.37649L14.8255 4.21898C14.8255 4.21898 14.983 4.21899 15.0505 4.20774C15.148 4.19274 15.1855 4.11023 15.373 4.12148C15.8342 4.15148 15.8155 4.57148 15.8417 4.92773C15.8642 5.06273 15.9167 5.24273 15.9505 5.37773C15.9767 5.49023 15.9805 5.67773 15.9805 5.67773Z" fill="#FFB700" stroke="black" stroke-width="0.0919649"/>
<path d="M19.6292 15.7432L19.7155 15.6907L19.753 15.7432C19.8017 15.8107 19.9405 15.807 20.0305 15.7432L20.1017 15.687L20.1617 15.7395C20.2367 15.8107 20.3792 15.8107 20.473 15.7395C20.5367 15.6945 20.548 15.6907 20.5855 15.7282C20.6117 15.7507 20.6867 15.7732 20.7505 15.7845C20.8705 15.7995 20.8705 15.7995 20.938 15.6945C20.998 15.6082 21.0055 15.5745 20.9942 15.4882C20.9837 15.4223 20.9762 15.356 20.9717 15.2895C20.9642 15.192 20.968 15.192 21.1067 15.1395C21.1756 15.1183 21.2432 15.0933 21.3092 15.0645C21.3655 15.0307 21.523 14.847 21.523 14.8095C21.523 14.802 21.463 14.787 21.388 14.7795C21.088 14.742 21.0392 14.5845 21.2342 14.292C21.5455 13.8045 21.7367 13.3357 21.7367 13.0395C21.7367 12.9045 21.748 12.8595 21.763 12.8895C21.8342 13.0057 21.7067 13.5045 21.5192 13.8645L21.4442 14.007L21.5155 13.992C21.553 13.9807 21.793 13.8795 22.0405 13.767C22.723 13.4595 22.9555 13.3995 23.398 13.4182C23.7692 13.4332 23.923 13.5045 24.1855 13.7782C24.3242 13.9282 24.4592 14.0295 24.703 14.1832C25.2205 14.5057 25.243 14.5357 25.2692 14.9182C25.2955 15.3045 25.2805 15.327 24.988 15.3907C24.7367 15.447 24.5792 15.5632 24.538 15.7282C24.5155 15.8107 24.5642 15.8145 24.688 15.732L24.7817 15.672L24.823 15.732C24.8792 15.8107 24.9917 15.8107 25.0855 15.732L25.1605 15.6757L25.2355 15.732C25.348 15.8257 25.498 15.8032 25.543 15.687C25.5505 15.6682 25.573 15.672 25.618 15.7132C25.7042 15.7882 25.918 15.8182 25.9405 15.7582C25.948 15.7357 25.933 15.6832 25.903 15.6382C25.7792 15.4507 25.738 15.3645 25.738 15.2632C25.738 15.1207 25.7755 15.0495 25.9405 14.937C26.1355 14.7945 26.1955 14.6145 26.0455 14.6145C25.9555 14.6145 25.8617 14.532 25.8017 14.4007C25.6817 14.1307 25.708 13.8307 25.888 13.3282C26.026 13.0325 26.0952 12.7095 26.0905 12.3832C26.0905 12.1057 26.083 12.0607 26.023 11.907C25.976 11.8001 25.9182 11.6983 25.8505 11.6032L25.7455 11.4645L25.8767 11.352C26.2817 11.0182 26.1992 10.4707 25.7117 10.2607C25.5617 10.1932 25.5242 10.1895 25.2617 10.1895C25.1117 10.1895 24.868 10.212 24.7367 10.2382C24.5605 10.2661 24.3826 10.2811 24.2042 10.2832C23.9492 10.2832 23.9042 10.2757 23.8067 10.2232C23.7055 10.1707 23.6867 10.1445 23.668 10.017C23.6662 10.0049 23.6615 9.99354 23.6543 9.98374C23.6471 9.97395 23.6376 9.96604 23.6267 9.96071C23.5892 9.94946 23.4317 10.0882 23.4092 10.1482C23.3942 10.182 23.3867 10.1782 23.353 10.137C23.3212 10.0961 23.2959 10.0506 23.278 10.002C23.2405 9.87821 23.2892 9.78821 23.4355 9.71696L23.548 9.66446L23.4805 9.62321C23.3455 9.53696 23.113 9.59696 23.0305 9.73571C23.0042 9.77321 22.978 9.81071 22.9705 9.81071C22.963 9.81071 22.918 9.77321 22.873 9.72446C22.6967 9.55196 22.7567 9.29696 22.993 9.22196C23.1167 9.18071 23.2292 9.21071 23.2517 9.29696C23.2892 9.42071 23.3942 9.25571 23.3755 9.10196C23.3642 9.00071 23.3642 8.99696 23.4355 8.99696C23.533 8.99696 23.7355 9.12446 23.803 9.22196C23.878 9.33821 23.8705 9.52196 23.788 9.65696L23.7242 9.76196L23.8105 9.74696C23.9305 9.72071 24.0505 9.64571 24.1105 9.55196C24.1421 9.49225 24.1599 9.42618 24.1624 9.35867C24.165 9.29115 24.1524 9.22392 24.1255 9.16196C24.0692 9.06071 24.0767 9.04571 24.1592 9.07946C24.2942 9.13571 24.3692 9.19946 24.4217 9.30821C24.4742 9.40571 24.478 9.42821 24.4517 9.53321C24.4338 9.59714 24.4059 9.65787 24.3692 9.71321C24.3242 9.77321 24.3205 9.78446 24.358 9.78446C24.4255 9.78446 24.5605 9.72071 24.6092 9.67196C24.6355 9.64196 24.673 9.57821 24.6917 9.52196L24.7292 9.42821L24.7667 9.50321C24.823 9.60446 24.9355 9.69821 25.0705 9.75821C25.2167 9.81821 25.2767 9.82196 25.2017 9.76571C25.1492 9.72821 25.0517 9.44696 25.0855 9.42071C25.2473 9.51133 25.3951 9.62503 25.5242 9.75821C25.738 9.94946 25.873 10.0132 26.068 10.0132C26.3192 10.0132 26.4655 9.79571 26.353 9.58946C26.2892 9.46946 26.143 9.45071 26.053 9.55196C26.0155 9.60071 26.0042 9.63821 26.0155 9.69071C26.0305 9.75071 26.0267 9.75821 25.9705 9.75821C25.8955 9.75821 25.753 9.66446 25.498 9.45071C25.143 9.14524 24.735 8.90755 24.2942 8.74946C23.9956 8.68043 23.6872 8.66394 23.383 8.70071C23.143 8.74571 22.858 8.88446 22.7005 9.03071C22.4267 9.29321 22.423 9.64196 22.6892 9.96071L22.7642 10.0507L22.7155 10.1332C22.6788 10.1923 22.6606 10.261 22.6633 10.3305C22.666 10.4 22.6894 10.4671 22.7305 10.5232C22.768 10.5757 22.8055 10.617 22.8167 10.617C22.8242 10.617 22.8317 10.5832 22.8355 10.542C22.843 10.4407 22.888 10.3732 22.963 10.347C23.0305 10.3207 23.0755 10.3357 23.383 10.4595C23.7092 10.587 24.2455 10.5945 24.8155 10.482C25.0625 10.4249 25.3196 10.4275 25.5655 10.4895C25.8355 10.602 25.8955 10.8907 25.7005 11.1082C25.6142 11.2057 25.5355 11.2432 25.2617 11.3182C25.0234 11.3811 24.7756 11.4001 24.5305 11.3745C24.1255 11.3707 23.9792 11.3782 23.818 11.412C23.6342 11.4495 23.5255 11.4532 23.0005 11.442L22.3892 11.427L22.4567 11.4795C22.4929 11.5116 22.5318 11.5404 22.573 11.5657C22.6217 11.592 22.618 11.5957 22.5505 11.622C22.513 11.637 22.423 11.6482 22.3517 11.6482H22.228L22.213 11.7532C22.2029 11.8027 22.2029 11.8537 22.213 11.9032C22.228 11.9407 22.2205 11.9482 22.183 11.9332C22.1567 11.922 22.0855 11.9032 22.0217 11.892C21.9574 11.8782 21.8946 11.8581 21.8342 11.832C21.763 11.7945 21.7555 11.7945 21.7292 11.8432C21.7067 11.8807 21.4967 12.0382 21.4667 12.0382C21.4532 11.9409 21.4254 11.8462 21.3842 11.757C21.3467 11.6782 21.313 11.5882 21.3017 11.562C21.2905 11.5207 21.283 11.517 21.2642 11.5507C21.253 11.5695 21.238 11.6257 21.2267 11.6707C21.2136 11.7314 21.1908 11.7897 21.1592 11.8432L21.103 11.9257L21.0655 11.8545C21.028 11.7795 20.968 11.697 20.9455 11.697C20.938 11.697 20.9267 11.7195 20.9192 11.7532C20.9005 11.8132 20.7542 11.9895 20.7167 11.9895C20.7055 11.9895 20.6942 11.9407 20.6942 11.877C20.6942 11.8207 20.683 11.7682 20.668 11.7682C20.653 11.7682 20.6417 11.787 20.6417 11.8057C20.6417 11.8507 20.518 11.9932 20.473 11.9932C20.458 11.9932 20.428 12.0082 20.4092 12.0307C20.3642 12.0795 20.3267 12.072 20.3455 12.0157C20.3507 11.9677 20.3456 11.9191 20.3305 11.8732L20.293 11.7532C20.2855 11.7345 20.2405 11.742 20.143 11.772C19.993 11.8207 19.9405 11.8095 20.0192 11.7495C20.0492 11.727 20.0942 11.6482 20.1167 11.577C20.143 11.502 20.1805 11.4382 20.1992 11.4307C20.2255 11.4232 20.2255 11.4307 20.1917 11.4757C20.17 11.5042 20.1558 11.5378 20.1505 11.5732C20.1505 11.592 20.1317 11.6407 20.113 11.682C20.0905 11.7195 20.0755 11.757 20.0792 11.7607C20.083 11.7645 20.143 11.742 20.2105 11.712L20.3305 11.652V11.7045C20.3305 11.7345 20.3455 11.8095 20.3642 11.8732L20.398 11.9857L20.4805 11.9482C20.563 11.9107 20.6417 11.7757 20.6417 11.667C20.6417 11.6145 20.6717 11.622 20.6867 11.6782C20.6867 11.6932 20.7092 11.757 20.7242 11.817L20.7617 11.922L20.818 11.8545C20.8517 11.817 20.8892 11.742 20.9042 11.6932C20.9342 11.6032 20.9792 11.562 20.9792 11.6295C20.9792 11.6745 21.1067 11.847 21.1292 11.832C21.1442 11.8245 21.1667 11.7607 21.1855 11.6895C21.223 11.5395 21.2792 11.442 21.3167 11.4645C21.3317 11.472 21.3355 11.487 21.328 11.502C21.3205 11.5095 21.3505 11.607 21.3955 11.712C21.4281 11.7907 21.4606 11.8694 21.493 11.9482C21.508 11.9857 21.523 11.9857 21.6167 11.8995C21.673 11.847 21.7292 11.7907 21.733 11.772C21.7442 11.742 21.7555 11.7457 21.808 11.7795C21.9185 11.8379 22.0397 11.8736 22.1642 11.8845C22.1717 11.877 22.1792 11.8095 22.1792 11.7345L22.183 11.5957L22.258 11.6107C22.2955 11.622 22.3817 11.622 22.4455 11.6107L22.558 11.5957L22.4567 11.5207C22.4005 11.4832 22.3442 11.4345 22.3292 11.412C22.318 11.3895 22.2655 11.367 22.2092 11.3632C22.0555 11.3482 21.7817 11.1982 21.7817 11.1232C21.7817 11.1082 21.8192 11.1345 21.8642 11.1757C21.9692 11.2695 22.1117 11.3257 22.2392 11.3257H22.3292L22.273 11.2507C22.2329 11.1926 22.2072 11.1257 22.198 11.0557C22.1905 10.9432 22.1792 10.9282 22.063 10.8495C21.9956 10.8017 21.9328 10.7477 21.8755 10.6882L21.8117 10.617L21.778 10.7032C21.7592 10.752 21.7405 10.7895 21.7292 10.7895C21.7217 10.7895 21.6842 10.7595 21.6542 10.7257C21.6331 10.7013 21.6077 10.6809 21.5792 10.6657C21.568 10.6657 21.5417 10.7107 21.5117 10.767L21.4592 10.8682L21.4217 10.812C21.3884 10.766 21.3507 10.7233 21.3092 10.6845C21.2642 10.647 21.2455 10.617 21.2605 10.617C21.2755 10.617 21.3242 10.6545 21.373 10.7032L21.4555 10.7895L21.493 10.7257C21.5146 10.6815 21.5212 10.6315 21.5117 10.5832C21.4967 10.5157 21.5005 10.512 21.523 10.557C21.5553 10.5993 21.5931 10.6371 21.6355 10.6695L21.718 10.737L21.7742 10.6357C21.8305 10.5307 21.8305 10.5307 21.853 10.5945C21.8905 10.6732 22.1342 10.8757 22.3405 10.992C22.378 11.0107 22.363 10.9507 22.303 10.8045C22.285 10.7564 22.2748 10.7057 22.273 10.6545C22.273 10.587 22.2542 10.557 22.168 10.4895C22.1144 10.4552 22.0695 10.4088 22.0369 10.3542C22.0044 10.2995 21.985 10.2379 21.9805 10.1745C21.9692 10.1107 21.9467 10.0432 21.928 10.0207C21.9055 9.98321 21.898 10.0057 21.9055 10.1182C21.913 10.197 21.9017 10.2945 21.883 10.3357L21.853 10.4107L21.8305 10.347C21.8155 10.3132 21.7555 10.2532 21.6992 10.2157C21.643 10.1782 21.6017 10.1407 21.6092 10.1332C21.6167 10.1257 21.6767 10.1595 21.7405 10.2082C21.8417 10.287 21.8605 10.2945 21.8755 10.2607C21.8905 10.2232 21.8755 10.0507 21.8455 9.93071C21.8305 9.87071 21.8305 9.87071 21.9055 9.94571C21.958 9.99821 21.988 10.0657 22.0142 10.1782C22.0442 10.3207 22.0592 10.347 22.1905 10.4632C22.2692 10.5345 22.3405 10.587 22.3442 10.5832C22.3517 10.5757 22.3592 10.3957 22.3667 10.1782C22.3817 9.76196 22.3667 9.66071 22.2655 9.53321L22.213 9.46571L22.2955 9.37946C22.3879 9.29105 22.4496 9.17543 22.4717 9.04946L22.4867 8.94821L22.3967 9.03446C22.3217 9.10571 22.2842 9.12071 22.198 9.12071C22.1117 9.12071 22.078 9.10571 22.0217 9.04571C21.9341 8.96136 21.8273 8.89958 21.7105 8.86571C21.6655 8.85071 21.6505 8.85821 21.6505 8.88821C21.6505 8.91071 21.628 8.97071 21.598 9.02696L21.5455 9.12446L21.433 9.01196C21.3617 8.94821 21.283 8.89196 21.2192 8.87696C21.0655 8.83946 21.058 8.83946 21.058 8.95571C21.058 9.13196 20.983 9.16571 20.848 9.04946C20.743 8.95946 20.6605 8.93696 20.4617 8.96321L20.3117 8.97821L20.338 9.04571C20.3605 9.10196 20.3567 9.12821 20.308 9.19196C20.2292 9.29696 20.128 9.34196 19.9705 9.34196C19.8955 9.34196 19.8055 9.35696 19.768 9.37571C19.7305 9.39446 19.633 9.41321 19.5542 9.42071C19.4792 9.42821 19.393 9.44321 19.3667 9.45071C19.3292 9.46571 19.3292 9.45071 19.3405 9.36821C19.3592 9.24071 19.2655 9.14321 19.1267 9.14321C18.943 9.14321 18.8605 9.30821 18.9317 9.52571C18.9463 9.57263 18.9588 9.62018 18.9692 9.66821C19.0185 9.76198 19.0846 9.84588 19.1642 9.91571C19.2617 10.0132 19.3517 10.1145 19.3667 10.1407C19.3969 10.1798 19.4353 10.2118 19.4792 10.2345L19.5617 10.2795L19.5505 10.1895C19.5392 10.092 19.558 10.077 19.6105 10.1482C19.6292 10.1707 19.678 10.212 19.7155 10.2345C19.7792 10.272 19.7905 10.272 19.7905 10.242C19.7905 10.2195 19.8017 10.1707 19.8167 10.1332L19.843 10.0657L19.8917 10.1595C19.918 10.212 20.0042 10.3282 20.083 10.422C20.2367 10.5982 20.3342 10.797 20.2855 10.842C20.263 10.8607 20.2105 10.8607 20.098 10.8382C20.0155 10.8232 19.9105 10.812 19.8655 10.8195C19.7792 10.8307 19.7717 10.8195 19.828 10.752C19.8842 10.677 19.873 10.6657 19.7605 10.6657C19.6292 10.6657 19.303 10.602 19.1755 10.5532C19.0555 10.5045 19.0255 10.5157 18.988 10.632L18.9242 10.842L18.8867 10.9545L19.0217 10.9432C19.0913 10.9359 19.1603 10.9234 19.228 10.9057C19.2545 10.8969 19.2825 10.893 19.3105 10.8945C19.318 10.8982 19.2992 10.9432 19.273 10.9957L19.2205 11.0857L19.303 11.0707C19.348 11.0595 19.4155 11.037 19.453 11.0182C19.5205 10.9882 19.528 10.9882 19.5805 11.0745C19.6442 11.1757 19.693 11.172 19.7042 11.0632C19.7155 10.9507 19.753 10.9657 19.8242 11.1157C19.8917 11.2582 19.9592 11.3107 19.9742 11.2282C19.978 11.1982 20.0117 11.1532 20.053 11.1232C20.1355 11.067 20.1955 11.0857 20.2292 11.172C20.2667 11.2657 20.1842 11.3595 19.9517 11.502C19.7364 11.6208 19.5511 11.7874 19.4101 11.9889C19.2691 12.1904 19.176 12.4215 19.138 12.6645C19.0667 13.107 19.288 13.5645 19.723 13.8982C19.933 14.0557 20.2667 14.2207 20.2442 14.1607C20.1542 13.887 20.158 13.3732 20.248 13.287C20.263 13.272 20.2592 13.3245 20.2367 13.4032C20.1617 13.6995 20.1992 13.932 20.3867 14.4795C20.5517 14.9745 20.5292 15.1882 20.2892 15.327C20.2142 15.372 20.1655 15.3795 19.9592 15.3757C19.7342 15.3757 19.708 15.3757 19.6367 15.4357C19.5506 15.5237 19.4942 15.6365 19.4755 15.7582C19.4755 15.807 19.528 15.7995 19.6255 15.7432H19.6292Z" fill="#FFB700" stroke="black" stroke-width="0.468185"/>
<path d="M23.2677 15.7311L23.3615 15.6711L23.4252 15.7311C23.5077 15.8098 23.609 15.8061 23.6877 15.7273C23.7252 15.6898 23.7552 15.6673 23.759 15.6711L23.7927 15.7311C23.8115 15.7648 23.8527 15.7798 23.9277 15.7873C24.014 15.7911 24.0402 15.7873 24.0777 15.7348L24.1152 15.6711L24.209 15.7311C24.464 15.8961 24.599 15.7236 24.4827 15.3823C24.4265 15.2098 24.4602 15.1123 24.644 14.8948C24.7227 14.8011 24.7865 14.6998 24.7865 14.6698C24.7865 14.6286 24.7715 14.6211 24.6665 14.6248C24.569 14.6248 24.539 14.6136 24.4865 14.5573C24.4002 14.4636 24.4077 14.3548 24.5015 14.2348L24.5765 14.1411L24.4415 14.0511C24.3337 13.9715 24.2333 13.8824 24.1415 13.7848C24.0596 13.6882 23.9595 13.6087 23.8469 13.5508C23.7343 13.4929 23.6114 13.4577 23.4852 13.4473L23.309 13.4286V13.5636C23.309 13.7323 23.3915 13.8973 23.609 14.1748C23.8565 14.4898 23.8715 14.5386 23.8827 14.9511L23.894 15.2998L23.819 15.3673C23.7552 15.4273 23.729 15.4386 23.519 15.4498C23.3202 15.4611 23.2752 15.4723 23.219 15.5248C23.1531 15.5728 23.1077 15.6437 23.0915 15.7236C23.0802 15.7798 23.084 15.7911 23.1252 15.7911C23.1515 15.7911 23.2152 15.7648 23.2677 15.7311V15.7311ZM17.9352 14.8311C17.9579 14.7978 17.9709 14.7588 17.9727 14.7186C17.9727 14.6811 17.9952 14.6661 18.0927 14.6511L18.209 14.6361L18.134 14.5723C18.0402 14.4973 18.029 14.4411 18.1115 14.4411C18.194 14.4411 18.329 14.3586 18.3515 14.2948C18.3627 14.2648 18.3515 14.2273 18.3365 14.2086C18.2915 14.1561 18.2052 14.1636 18.1902 14.2236C18.1715 14.2836 18.1452 14.2836 18.0777 14.2236C17.984 14.1298 17.9802 13.9386 18.0777 13.8261C18.119 13.7736 18.119 13.7736 18.0627 13.7173C18.0027 13.6573 17.9577 13.5448 17.9877 13.5148C17.9952 13.5073 18.044 13.5148 18.0927 13.5336C18.1677 13.5561 18.194 13.5561 18.224 13.5336C18.3102 13.4623 18.2165 13.3723 18.074 13.3948C18.014 13.4023 17.9915 13.3948 17.984 13.3648C17.9765 13.3423 17.9277 13.3123 17.8715 13.2973C17.7702 13.2711 17.7702 13.2711 17.7702 13.3423C17.7702 13.4173 17.7252 13.4323 17.6427 13.3836C17.5752 13.3461 17.5115 13.3761 17.5115 13.4473C17.5115 13.5148 17.5752 13.5448 17.699 13.5373C17.789 13.5336 17.7927 13.6011 17.7065 13.6986L17.6427 13.7736L17.6915 13.8448C17.7665 13.9498 17.759 14.1261 17.6802 14.2161L17.6165 14.2836L17.5752 14.2273C17.5152 14.1523 17.4365 14.1561 17.414 14.2386C17.4027 14.2911 17.414 14.3136 17.4815 14.3736C17.5265 14.4111 17.594 14.4411 17.6277 14.4411C17.714 14.4411 17.7102 14.5123 17.6202 14.5798L17.5452 14.6361L17.6577 14.6511C17.7177 14.6623 17.7702 14.6773 17.7702 14.6886C17.7702 14.7373 17.8452 14.8836 17.8677 14.8836C17.8827 14.8836 17.9127 14.8573 17.9352 14.8273V14.8311Z" fill="#FFB700" stroke="black" stroke-width="0.468185"/>
<path d="M19.3677 14.2097C19.4689 14.1722 19.6864 13.9847 19.6864 13.9434C19.6864 13.9284 19.6264 13.8609 19.5514 13.7934C19.4014 13.6584 19.2327 13.4222 19.1877 13.2872C19.1652 13.2122 19.0564 13.0922 18.7489 12.7922L18.3402 12.3984L18.2239 12.4284C18.1564 12.4434 18.0777 12.4584 18.0477 12.4584C17.9914 12.4584 17.9914 12.4584 18.0664 12.5184L18.1414 12.5784L18.2539 12.5184C18.3552 12.4584 18.3589 12.4584 18.3702 12.5072C18.3777 12.5334 18.3627 12.5822 18.3327 12.6159C18.3064 12.6497 18.2914 12.6909 18.2952 12.7022C18.3064 12.7134 18.2802 12.7397 18.2389 12.7622C18.1639 12.7997 18.1077 12.9234 18.1677 12.9234C18.2239 12.9234 18.3439 12.7734 18.3289 12.7247C18.3214 12.6984 18.3289 12.6722 18.3364 12.6647C18.3852 12.6384 18.3814 12.7547 18.3364 12.8147C18.3064 12.8447 18.2914 12.8822 18.2989 12.8972C18.3064 12.9084 18.2802 12.9347 18.2389 12.9572C18.1639 12.9947 18.1077 13.1184 18.1677 13.1184C18.2277 13.1184 18.3439 12.9759 18.3327 12.9234C18.3252 12.8972 18.3252 12.8672 18.3364 12.8597C18.3702 12.8447 18.3852 12.9347 18.3589 12.9797C18.352 12.9923 18.3484 13.0065 18.3484 13.0209C18.3484 13.0353 18.352 13.0495 18.3589 13.0622C18.3852 13.1109 18.3589 13.2009 18.3102 13.2309C18.2914 13.2422 18.3027 13.2684 18.3552 13.3059C18.4302 13.3584 18.4302 13.3659 18.4302 13.6059C18.4302 13.8084 18.4377 13.8609 18.4752 13.8947C18.5127 13.9322 18.5202 13.9322 18.5202 13.8947C18.5202 13.8572 18.5952 13.8047 18.6514 13.8047C18.6702 13.8047 18.7789 13.8984 18.8952 14.0109C19.0114 14.1234 19.1352 14.2247 19.1689 14.2284L19.2514 14.2434C19.2627 14.2434 19.3152 14.2322 19.3677 14.2059V14.2097ZM18.1189 13.2309C18.1189 13.1672 17.9839 13.0959 17.8227 13.0809C17.6914 13.0622 17.6914 13.0659 17.6914 13.1297C17.6914 13.1822 17.7102 13.2047 17.8039 13.2422C17.9464 13.3059 18.1189 13.2984 18.1189 13.2309Z" fill="#FFB700" stroke="black" stroke-width="0.468185"/>
<path d="M18.2652 13.2222C18.3327 13.1622 18.3627 13.0947 18.3215 13.0947C18.2765 13.0947 18.1565 13.1997 18.1565 13.2447C18.1565 13.3047 18.179 13.3009 18.269 13.2222H18.2652ZM18.1265 13.0309C18.1302 12.9934 18.1077 12.9709 18.0402 12.9372C17.8902 12.8734 17.7177 12.8397 17.6765 12.8734C17.5977 12.9372 17.6502 13.0197 17.774 13.0347C17.8265 13.0384 17.894 13.0534 17.9277 13.0684C18.0252 13.1059 18.1152 13.0872 18.1265 13.0309V13.0309ZM18.1265 12.8322C18.134 12.7834 18.1002 12.7647 17.8265 12.6672C17.6202 12.5922 17.5302 12.6297 17.5977 12.7534C17.6202 12.7947 17.6577 12.8134 17.744 12.8284C17.8077 12.8359 17.894 12.8547 17.9352 12.8697C18.0477 12.9072 18.1152 12.8922 18.1227 12.8322H18.1265ZM18.2615 12.6484C18.3027 12.6072 18.3365 12.5584 18.3365 12.5359C18.3365 12.4797 18.1752 12.5847 18.1527 12.6597C18.1302 12.7459 18.1715 12.7422 18.2652 12.6484H18.2615ZM18.1265 12.6372C18.134 12.5772 18.0365 12.5247 17.8415 12.4834C17.6952 12.4497 17.6315 12.4684 17.6427 12.5359C17.6502 12.5734 17.699 12.5997 17.8302 12.6409C18.0515 12.7084 18.1152 12.7084 18.1265 12.6372V12.6372ZM18.314 12.3597C18.569 12.2472 18.5877 11.9659 18.3515 11.8909C18.254 11.8609 18.194 11.8797 18.1565 11.9434C18.1265 11.9959 18.1452 12.0859 18.1827 12.0859C18.1977 12.0859 18.209 12.1047 18.209 12.1234C18.209 12.2247 17.8265 12.2659 17.669 12.1872C17.6127 12.1609 17.594 12.0859 17.6352 12.0859C17.6727 12.0859 17.6952 12.0109 17.6765 11.9622C17.654 11.8872 17.579 11.8647 17.4777 11.8947C17.2415 11.9547 17.249 12.2322 17.489 12.3447C17.7545 12.4421 18.0451 12.4474 18.314 12.3597V12.3597Z" fill="#FFB700" stroke="black" stroke-width="0.468185"/>
<path d="M18.1619 12.1427C18.1769 12.1277 18.1694 12.1052 18.1469 12.0902C18.0944 12.0489 18.0981 11.9852 18.1544 11.9139C18.1994 11.8614 18.2031 11.7789 18.2181 10.9727C18.2444 9.58141 18.3494 8.53516 18.4844 8.28016C18.5406 8.18266 18.5331 8.18266 18.3906 8.28016C18.2037 8.41041 18.0527 8.58585 17.9519 8.79016C17.7194 9.22141 17.6406 9.80266 17.6406 11.0477C17.6406 11.7527 17.6444 11.8464 17.6856 11.9102C17.7231 11.9777 17.7231 12.0002 17.7006 12.0677C17.6819 12.1089 17.6744 12.1539 17.6819 12.1614C17.7344 12.2102 18.1094 12.1989 18.1619 12.1427ZM20.2656 10.8152C20.2769 10.8039 20.2581 10.7402 20.2281 10.6802C20.1831 10.5827 20.1644 10.5677 20.1006 10.5677C19.8008 10.5416 19.5083 10.4602 19.2381 10.3277C19.0469 10.2414 18.9756 10.2227 18.9569 10.2452C18.8969 10.3014 18.9944 10.4327 19.1444 10.5039C19.3651 10.5835 19.5963 10.6302 19.8306 10.6427C19.9319 10.6427 19.9356 10.6427 19.8756 10.7289L19.8381 10.7889H19.9506L20.1381 10.8114C20.2506 10.8377 20.2506 10.8377 20.2656 10.8152V10.8152Z" fill="#FFB700" stroke="black" stroke-width="0.468185"/>
<path d="M21.4477 11.442C21.4477 11.4045 21.339 11.3107 21.234 11.247C21.1477 11.1982 21.1327 11.1945 21.1327 11.2357C21.1327 11.2957 21.0802 11.4495 21.0577 11.4495C21.0465 11.4495 21.0277 11.4195 21.0202 11.3857C21.009 11.3482 20.9677 11.2732 20.9265 11.2245L20.8515 11.1307L20.799 11.217C20.7465 11.2995 20.6527 11.3782 20.6115 11.3782C20.604 11.3782 20.6002 11.3332 20.6115 11.2845C20.6152 11.2245 20.6115 11.1795 20.5927 11.172C20.5777 11.1607 20.5627 11.1645 20.5627 11.1795C20.5627 11.2095 20.4352 11.352 20.4127 11.352C20.3977 11.352 20.3827 11.3145 20.3752 11.262L20.3452 11.082C20.3377 11.037 20.3565 11.067 20.3827 11.157L20.4427 11.3107L20.5027 11.217C20.5299 11.1782 20.5502 11.1351 20.5627 11.0895C20.5627 11.0707 20.574 11.0632 20.589 11.0707C20.604 11.0782 20.6227 11.142 20.6302 11.2095L20.649 11.337L20.7165 11.262C20.7518 11.2243 20.7844 11.1842 20.814 11.142C20.8402 11.097 20.844 11.097 20.9002 11.142C20.9302 11.172 20.979 11.2357 21.009 11.2882C21.039 11.3407 21.0652 11.3782 21.069 11.3745L21.0915 11.2545L21.1065 11.142C21.1102 11.1232 21.309 11.2545 21.384 11.3182C21.429 11.3595 21.474 11.3895 21.4815 11.382C21.489 11.3745 21.4965 11.3145 21.4965 11.2432C21.4965 11.1382 21.4852 11.1082 21.4215 11.052C21.3465 10.9845 21.3465 10.9845 21.3165 11.0332C21.279 11.097 21.2377 11.097 21.2377 11.0332C21.2377 10.9882 21.0952 10.812 21.0615 10.812C21.0502 10.812 21.0202 10.8495 20.994 10.8982C20.9677 10.947 20.9377 10.9845 20.9302 10.9845C20.8927 10.9845 20.694 10.7595 20.694 10.722C20.694 10.692 20.709 10.6995 20.7427 10.752C20.7763 10.8012 20.8153 10.8465 20.859 10.887C20.934 10.9545 20.964 10.9395 20.994 10.8082C21.0052 10.7707 21.0202 10.7407 21.0315 10.7407C21.0615 10.7407 21.234 10.9245 21.2565 10.9845L21.2827 11.0445L21.3015 10.977C21.324 10.8945 21.3502 10.8945 21.3877 10.9695C21.4027 10.9995 21.4777 11.067 21.5527 11.112L21.6915 11.202L21.7177 11.112C21.7327 11.0632 21.7552 11.037 21.7627 11.052C21.7777 11.0707 21.7402 11.2207 21.714 11.2507C21.714 11.2545 21.6652 11.2282 21.6165 11.1945L21.5227 11.127V11.247C21.5227 11.3107 21.5152 11.3895 21.5077 11.4195C21.489 11.4795 21.444 11.4945 21.444 11.442H21.4477ZM20.754 10.4895C20.589 10.3545 20.5665 10.3245 20.5665 10.257L20.5702 10.1895L20.5815 10.2532C20.589 10.2907 20.634 10.3507 20.6865 10.3957L20.784 10.4707L20.8402 10.4032C20.874 10.3657 20.9002 10.3207 20.9002 10.3057C20.9002 10.2607 20.9077 10.2645 21.0202 10.362C21.1177 10.4482 21.1215 10.4482 21.1327 10.392C21.144 10.362 21.1402 10.302 21.1327 10.2607C21.0952 10.1482 21.1027 10.1332 21.1515 10.2007L21.2415 10.3057C21.279 10.347 21.2827 10.347 21.2977 10.2945C21.309 10.2607 21.3165 10.2045 21.3165 10.167V10.0957L21.4027 10.197C21.489 10.2945 21.4965 10.2982 21.519 10.2495C21.5377 10.2232 21.549 10.1595 21.549 10.1107C21.549 10.0432 21.5565 10.0282 21.5715 10.0507C21.6015 10.0957 21.5827 10.2082 21.5302 10.3057L21.4927 10.3807L21.444 10.302C21.3802 10.2045 21.3577 10.2045 21.3202 10.3095C21.2827 10.4107 21.2565 10.4182 21.219 10.3395C21.1965 10.2907 21.189 10.2982 21.174 10.4032L21.1552 10.5157L21.0427 10.4295L20.9302 10.3432L20.874 10.3995C20.8477 10.4332 20.8252 10.4745 20.8252 10.4895C20.8252 10.527 20.7952 10.527 20.754 10.4895V10.4895ZM22.2165 9.97945C22.1602 9.92695 22.119 9.87445 22.1265 9.86695C22.1377 9.8557 22.1452 9.85195 22.149 9.85945C22.1853 9.89813 22.2228 9.93565 22.2615 9.97195C22.389 10.107 22.3627 10.1107 22.2202 9.97945H22.2165ZM20.2665 9.77695C20.214 9.70195 20.2177 9.65695 20.2852 9.57445C20.3302 9.5182 20.3527 9.5107 20.4352 9.52195C20.4915 9.5257 20.6077 9.57445 20.694 9.62695C20.8186 9.70142 20.9613 9.74032 21.1065 9.73945L21.0427 9.63445C20.9602 9.5107 20.9602 9.4957 21.0577 9.5707C21.1552 9.64945 21.2715 9.67195 21.534 9.66445L21.6615 9.6607L21.5865 9.5857C21.4852 9.48445 21.5152 9.4732 21.6315 9.57445C21.7365 9.6682 21.7327 9.6757 21.504 9.6982C21.4086 9.70784 21.3123 9.7015 21.219 9.67945C21.0915 9.64195 21.084 9.6457 21.1102 9.68695C21.1252 9.7132 21.1477 9.73195 21.159 9.73195C21.174 9.73195 21.1852 9.74695 21.1852 9.76195C21.1852 9.8107 20.9077 9.7657 20.7727 9.70195C20.4727 9.5482 20.4352 9.5332 20.3602 9.5557C20.3403 9.56339 20.322 9.57497 20.3066 9.58978C20.2911 9.60459 20.2788 9.62232 20.2702 9.64195C20.2215 9.7657 20.3977 9.8632 20.469 9.75445C20.4915 9.7207 20.4877 9.70195 20.4502 9.6607C20.3977 9.6082 20.4052 9.6007 20.4727 9.6232C20.5215 9.64195 20.5252 9.7582 20.4802 9.8032C20.4315 9.85195 20.3115 9.8407 20.2665 9.77695Z" fill="black" stroke="black" stroke-width="0.468185"/>
<path d="M21.4636 9.47296C21.4261 9.43546 21.4561 9.42796 21.6248 9.42421C21.8348 9.42046 21.9623 9.38671 22.1123 9.28921C22.2323 9.21421 22.2661 9.22921 22.1498 9.30796C22.0486 9.38296 21.8873 9.43546 21.7261 9.45046L21.5348 9.47671C21.5048 9.48421 21.4711 9.48046 21.4598 9.47296H21.4636Z" fill="black" stroke="black" stroke-width="0.468185"/>
<path d="M19.6292 15.7432L19.7155 15.6907L19.753 15.7432C19.8017 15.8107 19.9405 15.807 20.0305 15.7432L20.1017 15.687L20.1617 15.7395C20.2367 15.8107 20.3792 15.8107 20.473 15.7395C20.5367 15.6945 20.548 15.6907 20.5855 15.7282C20.6117 15.7507 20.6867 15.7732 20.7505 15.7845C20.8705 15.7995 20.8705 15.7995 20.938 15.6945C20.998 15.6082 21.0055 15.5745 20.9942 15.4882C20.9837 15.4223 20.9762 15.356 20.9717 15.2895C20.9642 15.192 20.968 15.192 21.1067 15.1395C21.1756 15.1183 21.2432 15.0933 21.3092 15.0645C21.3655 15.0307 21.523 14.847 21.523 14.8095C21.523 14.802 21.463 14.787 21.388 14.7795C21.088 14.742 21.0392 14.5845 21.2342 14.292C21.5455 13.8045 21.7367 13.3357 21.7367 13.0395C21.7367 12.9045 21.748 12.8595 21.763 12.8895C21.8342 13.0057 21.7067 13.5045 21.5192 13.8645L21.4442 14.007L21.5155 13.992C21.553 13.9807 21.793 13.8795 22.0405 13.767C22.723 13.4595 22.9555 13.3995 23.398 13.4182C23.7692 13.4332 23.923 13.5045 24.1855 13.7782C24.3242 13.9282 24.4592 14.0295 24.703 14.1832C25.2205 14.5057 25.243 14.5357 25.2692 14.9182C25.2955 15.3045 25.2805 15.327 24.988 15.3907C24.7367 15.447 24.5792 15.5632 24.538 15.7282C24.5155 15.8107 24.5642 15.8145 24.688 15.732L24.7817 15.672L24.823 15.732C24.8792 15.8107 24.9917 15.8107 25.0855 15.732L25.1605 15.6757L25.2355 15.732C25.348 15.8257 25.498 15.8032 25.543 15.687C25.5505 15.6682 25.573 15.672 25.618 15.7132C25.7042 15.7882 25.918 15.8182 25.9405 15.7582C25.948 15.7357 25.933 15.6832 25.903 15.6382C25.7792 15.4507 25.738 15.3645 25.738 15.2632C25.738 15.1207 25.7755 15.0495 25.9405 14.937C26.1355 14.7945 26.1955 14.6145 26.0455 14.6145C25.9555 14.6145 25.8617 14.532 25.8017 14.4007C25.6817 14.1307 25.708 13.8307 25.888 13.3282C26.026 13.0325 26.0952 12.7095 26.0905 12.3832C26.0905 12.1057 26.083 12.0607 26.023 11.907C25.976 11.8001 25.9182 11.6983 25.8505 11.6032L25.7455 11.4645L25.8767 11.352C26.2817 11.0182 26.1992 10.4707 25.7117 10.2607C25.5617 10.1932 25.5242 10.1895 25.2617 10.1895C25.1117 10.1895 24.868 10.212 24.7367 10.2382C24.5605 10.2661 24.3826 10.2811 24.2042 10.2832C23.9492 10.2832 23.9042 10.2757 23.8067 10.2232C23.7055 10.1707 23.6867 10.1445 23.668 10.017C23.6662 10.0049 23.6615 9.99354 23.6543 9.98374C23.6471 9.97395 23.6376 9.96604 23.6267 9.96071C23.5892 9.94946 23.4317 10.0882 23.4092 10.1482C23.3942 10.182 23.3867 10.1782 23.353 10.137C23.3212 10.0961 23.2959 10.0506 23.278 10.002C23.2405 9.87821 23.2892 9.78821 23.4355 9.71696L23.548 9.66446L23.4805 9.62321C23.3455 9.53696 23.113 9.59696 23.0305 9.73571C23.0042 9.77321 22.978 9.81071 22.9705 9.81071C22.963 9.81071 22.918 9.77321 22.873 9.72446C22.6967 9.55196 22.7567 9.29696 22.993 9.22196C23.1167 9.18071 23.2292 9.21071 23.2517 9.29696C23.2892 9.42071 23.3942 9.25571 23.3755 9.10196C23.3642 9.00071 23.3642 8.99696 23.4355 8.99696C23.533 8.99696 23.7355 9.12446 23.803 9.22196C23.878 9.33821 23.8705 9.52196 23.788 9.65696L23.7242 9.76196L23.8105 9.74696C23.9305 9.72071 24.0505 9.64571 24.1105 9.55196C24.1421 9.49225 24.1599 9.42618 24.1624 9.35867C24.165 9.29115 24.1524 9.22392 24.1255 9.16196C24.0692 9.06071 24.0767 9.04571 24.1592 9.07946C24.2942 9.13571 24.3692 9.19946 24.4217 9.30821C24.4742 9.40571 24.478 9.42821 24.4517 9.53321C24.4338 9.59714 24.4059 9.65787 24.3692 9.71321C24.3242 9.77321 24.3205 9.78446 24.358 9.78446C24.4255 9.78446 24.5605 9.72071 24.6092 9.67196C24.6355 9.64196 24.673 9.57821 24.6917 9.52196L24.7292 9.42821L24.7667 9.50321C24.823 9.60446 24.9355 9.69821 25.0705 9.75821C25.2167 9.81821 25.2767 9.82196 25.2017 9.76571C25.1492 9.72821 25.0517 9.44696 25.0855 9.42071C25.2473 9.51133 25.3951 9.62503 25.5242 9.75821C25.738 9.94946 25.873 10.0132 26.068 10.0132C26.3192 10.0132 26.4655 9.79571 26.353 9.58946C26.2892 9.46946 26.143 9.45071 26.053 9.55196C26.0155 9.60071 26.0042 9.63821 26.0155 9.69071C26.0305 9.75071 26.0267 9.75821 25.9705 9.75821C25.8955 9.75821 25.753 9.66446 25.498 9.45071C25.143 9.14524 24.735 8.90755 24.2942 8.74946C23.9956 8.68043 23.6872 8.66394 23.383 8.70071C23.143 8.74571 22.858 8.88446 22.7005 9.03071C22.4267 9.29321 22.423 9.64196 22.6892 9.96071L22.7642 10.0507L22.7155 10.1332C22.6788 10.1923 22.6606 10.261 22.6633 10.3305C22.666 10.4 22.6894 10.4671 22.7305 10.5232C22.768 10.5757 22.8055 10.617 22.8167 10.617C22.8242 10.617 22.8317 10.5832 22.8355 10.542C22.843 10.4407 22.888 10.3732 22.963 10.347C23.0305 10.3207 23.0755 10.3357 23.383 10.4595C23.7092 10.587 24.2455 10.5945 24.8155 10.482C25.0625 10.4249 25.3196 10.4275 25.5655 10.4895C25.8355 10.602 25.8955 10.8907 25.7005 11.1082C25.6142 11.2057 25.5355 11.2432 25.2617 11.3182C25.0234 11.3811 24.7756 11.4001 24.5305 11.3745C24.1255 11.3707 23.9792 11.3782 23.818 11.412C23.6342 11.4495 23.5255 11.4532 23.0005 11.442L22.3892 11.427L22.4567 11.4795C22.4929 11.5116 22.5318 11.5404 22.573 11.5657C22.6217 11.592 22.618 11.5957 22.5505 11.622C22.513 11.637 22.423 11.6482 22.3517 11.6482H22.228L22.213 11.7532C22.2029 11.8027 22.2029 11.8537 22.213 11.9032C22.228 11.9407 22.2205 11.9482 22.183 11.9332C22.1567 11.922 22.0855 11.9032 22.0217 11.892C21.9574 11.8782 21.8946 11.8581 21.8342 11.832C21.763 11.7945 21.7555 11.7945 21.7292 11.8432C21.7067 11.8807 21.4967 12.0382 21.4667 12.0382C21.4532 11.9409 21.4254 11.8462 21.3842 11.757C21.3467 11.6782 21.313 11.5882 21.3017 11.562C21.2905 11.5207 21.283 11.517 21.2642 11.5507C21.253 11.5695 21.238 11.6257 21.2267 11.6707C21.2136 11.7314 21.1908 11.7897 21.1592 11.8432L21.103 11.9257L21.0655 11.8545C21.028 11.7795 20.968 11.697 20.9455 11.697C20.938 11.697 20.9267 11.7195 20.9192 11.7532C20.9005 11.8132 20.7542 11.9895 20.7167 11.9895C20.7055 11.9895 20.6942 11.9407 20.6942 11.877C20.6942 11.8207 20.683 11.7682 20.668 11.7682C20.653 11.7682 20.6417 11.787 20.6417 11.8057C20.6417 11.8507 20.518 11.9932 20.473 11.9932C20.458 11.9932 20.428 12.0082 20.4092 12.0307C20.3642 12.0795 20.3267 12.072 20.3455 12.0157C20.3507 11.9677 20.3456 11.9191 20.3305 11.8732L20.293 11.7532C20.2855 11.7345 20.2405 11.742 20.143 11.772C19.993 11.8207 19.9405 11.8095 20.0192 11.7495C20.0492 11.727 20.0942 11.6482 20.1167 11.577C20.143 11.502 20.1805 11.4382 20.1992 11.4307C20.2255 11.4232 20.2255 11.4307 20.1917 11.4757C20.17 11.5042 20.1558 11.5378 20.1505 11.5732C20.1505 11.592 20.1317 11.6407 20.113 11.682C20.0905 11.7195 20.0755 11.757 20.0792 11.7607C20.083 11.7645 20.143 11.742 20.2105 11.712L20.3305 11.652V11.7045C20.3305 11.7345 20.3455 11.8095 20.3642 11.8732L20.398 11.9857L20.4805 11.9482C20.563 11.9107 20.6417 11.7757 20.6417 11.667C20.6417 11.6145 20.6717 11.622 20.6867 11.6782C20.6867 11.6932 20.7092 11.757 20.7242 11.817L20.7617 11.922L20.818 11.8545C20.8517 11.817 20.8892 11.742 20.9042 11.6932C20.9342 11.6032 20.9792 11.562 20.9792 11.6295C20.9792 11.6745 21.1067 11.847 21.1292 11.832C21.1442 11.8245 21.1667 11.7607 21.1855 11.6895C21.223 11.5395 21.2792 11.442 21.3167 11.4645C21.3317 11.472 21.3355 11.487 21.328 11.502C21.3205 11.5095 21.3505 11.607 21.3955 11.712C21.4281 11.7907 21.4606 11.8694 21.493 11.9482C21.508 11.9857 21.523 11.9857 21.6167 11.8995C21.673 11.847 21.7292 11.7907 21.733 11.772C21.7442 11.742 21.7555 11.7457 21.808 11.7795C21.9185 11.8379 22.0397 11.8736 22.1642 11.8845C22.1717 11.877 22.1792 11.8095 22.1792 11.7345L22.183 11.5957L22.258 11.6107C22.2955 11.622 22.3817 11.622 22.4455 11.6107L22.558 11.5957L22.4567 11.5207C22.4005 11.4832 22.3442 11.4345 22.3292 11.412C22.318 11.3895 22.2655 11.367 22.2092 11.3632C22.0555 11.3482 21.7817 11.1982 21.7817 11.1232C21.7817 11.1082 21.8192 11.1345 21.8642 11.1757C21.9692 11.2695 22.1117 11.3257 22.2392 11.3257H22.3292L22.273 11.2507C22.2329 11.1926 22.2072 11.1257 22.198 11.0557C22.1905 10.9432 22.1792 10.9282 22.063 10.8495C21.9956 10.8017 21.9328 10.7477 21.8755 10.6882L21.8117 10.617L21.778 10.7032C21.7592 10.752 21.7405 10.7895 21.7292 10.7895C21.7217 10.7895 21.6842 10.7595 21.6542 10.7257C21.6331 10.7013 21.6077 10.6809 21.5792 10.6657C21.568 10.6657 21.5417 10.7107 21.5117 10.767L21.4592 10.8682L21.4217 10.812C21.3884 10.766 21.3507 10.7233 21.3092 10.6845C21.2642 10.647 21.2455 10.617 21.2605 10.617C21.2755 10.617 21.3242 10.6545 21.373 10.7032L21.4555 10.7895L21.493 10.7257C21.5146 10.6815 21.5212 10.6315 21.5117 10.5832C21.4967 10.5157 21.5005 10.512 21.523 10.557C21.5553 10.5993 21.5931 10.6371 21.6355 10.6695L21.718 10.737L21.7742 10.6357C21.8305 10.5307 21.8305 10.5307 21.853 10.5945C21.8905 10.6732 22.1342 10.8757 22.3405 10.992C22.378 11.0107 22.363 10.9507 22.303 10.8045C22.285 10.7564 22.2748 10.7057 22.273 10.6545C22.273 10.587 22.2542 10.557 22.168 10.4895C22.1144 10.4552 22.0695 10.4088 22.0369 10.3542C22.0044 10.2995 21.985 10.2379 21.9805 10.1745C21.9692 10.1107 21.9467 10.0432 21.928 10.0207C21.9055 9.98321 21.898 10.0057 21.9055 10.1182C21.913 10.197 21.9017 10.2945 21.883 10.3357L21.853 10.4107L21.8305 10.347C21.8155 10.3132 21.7555 10.2532 21.6992 10.2157C21.643 10.1782 21.6017 10.1407 21.6092 10.1332C21.6167 10.1257 21.6767 10.1595 21.7405 10.2082C21.8417 10.287 21.8605 10.2945 21.8755 10.2607C21.8905 10.2232 21.8755 10.0507 21.8455 9.93071C21.8305 9.87071 21.8305 9.87071 21.9055 9.94571C21.958 9.99821 21.988 10.0657 22.0142 10.1782C22.0442 10.3207 22.0592 10.347 22.1905 10.4632C22.2692 10.5345 22.3405 10.587 22.3442 10.5832C22.3517 10.5757 22.3592 10.3957 22.3667 10.1782C22.3817 9.76196 22.3667 9.66071 22.2655 9.53321L22.213 9.46571L22.2955 9.37946C22.3879 9.29105 22.4496 9.17543 22.4717 9.04946L22.4867 8.94821L22.3967 9.03446C22.3217 9.10571 22.2842 9.12071 22.198 9.12071C22.1117 9.12071 22.078 9.10571 22.0217 9.04571C21.9341 8.96136 21.8273 8.89958 21.7105 8.86571C21.6655 8.85071 21.6505 8.85821 21.6505 8.88821C21.6505 8.91071 21.628 8.97071 21.598 9.02696L21.5455 9.12446L21.433 9.01196C21.3617 8.94821 21.283 8.89196 21.2192 8.87696C21.0655 8.83946 21.058 8.83946 21.058 8.95571C21.058 9.13196 20.983 9.16571 20.848 9.04946C20.743 8.95946 20.6605 8.93696 20.4617 8.96321L20.3117 8.97821L20.338 9.04571C20.3605 9.10196 20.3567 9.12821 20.308 9.19196C20.2292 9.29696 20.128 9.34196 19.9705 9.34196C19.8955 9.34196 19.8055 9.35696 19.768 9.37571C19.7305 9.39446 19.633 9.41321 19.5542 9.42071C19.4792 9.42821 19.393 9.44321 19.3667 9.45071C19.3292 9.46571 19.3292 9.45071 19.3405 9.36821C19.3592 9.24071 19.2655 9.14321 19.1267 9.14321C18.943 9.14321 18.8605 9.30821 18.9317 9.52571C18.9463 9.57263 18.9588 9.62018 18.9692 9.66821C19.0185 9.76198 19.0846 9.84588 19.1642 9.91571C19.2617 10.0132 19.3517 10.1145 19.3667 10.1407C19.3969 10.1798 19.4353 10.2118 19.4792 10.2345L19.5617 10.2795L19.5505 10.1895C19.5392 10.092 19.558 10.077 19.6105 10.1482C19.6292 10.1707 19.678 10.212 19.7155 10.2345C19.7792 10.272 19.7905 10.272 19.7905 10.242C19.7905 10.2195 19.8017 10.1707 19.8167 10.1332L19.843 10.0657L19.8917 10.1595C19.918 10.212 20.0042 10.3282 20.083 10.422C20.2367 10.5982 20.3342 10.797 20.2855 10.842C20.263 10.8607 20.2105 10.8607 20.098 10.8382C20.0155 10.8232 19.9105 10.812 19.8655 10.8195C19.7792 10.8307 19.7717 10.8195 19.828 10.752C19.8842 10.677 19.873 10.6657 19.7605 10.6657C19.6292 10.6657 19.303 10.602 19.1755 10.5532C19.0555 10.5045 19.0255 10.5157 18.988 10.632L18.9242 10.842L18.8867 10.9545L19.0217 10.9432C19.0913 10.9359 19.1603 10.9234 19.228 10.9057C19.2545 10.8969 19.2825 10.893 19.3105 10.8945C19.318 10.8982 19.2992 10.9432 19.273 10.9957L19.2205 11.0857L19.303 11.0707C19.348 11.0595 19.4155 11.037 19.453 11.0182C19.5205 10.9882 19.528 10.9882 19.5805 11.0745C19.6442 11.1757 19.693 11.172 19.7042 11.0632C19.7155 10.9507 19.753 10.9657 19.8242 11.1157C19.8917 11.2582 19.9592 11.3107 19.9742 11.2282C19.978 11.1982 20.0117 11.1532 20.053 11.1232C20.1355 11.067 20.1955 11.0857 20.2292 11.172C20.2667 11.2657 20.1842 11.3595 19.9517 11.502C19.7364 11.6208 19.5511 11.7874 19.4101 11.9889C19.2691 12.1904 19.176 12.4215 19.138 12.6645C19.0667 13.107 19.288 13.5645 19.723 13.8982C19.933 14.0557 20.2667 14.2207 20.2442 14.1607C20.1542 13.887 20.158 13.3732 20.248 13.287C20.263 13.272 20.2592 13.3245 20.2367 13.4032C20.1617 13.6995 20.1992 13.932 20.3867 14.4795C20.5517 14.9745 20.5292 15.1882 20.2892 15.327C20.2142 15.372 20.1655 15.3795 19.9592 15.3757C19.7342 15.3757 19.708 15.3757 19.6367 15.4357C19.5506 15.5237 19.4942 15.6365 19.4755 15.7582C19.4755 15.807 19.528 15.7995 19.6255 15.7432H19.6292Z" fill="#FFB700"/>
<path d="M23.2677 15.7311L23.3615 15.6711L23.4252 15.7311C23.5077 15.8098 23.609 15.8061 23.6877 15.7273C23.7252 15.6898 23.7552 15.6673 23.759 15.6711L23.7927 15.7311C23.8115 15.7648 23.8527 15.7798 23.9277 15.7873C24.014 15.7911 24.0402 15.7873 24.0777 15.7348L24.1152 15.6711L24.209 15.7311C24.464 15.8961 24.599 15.7236 24.4827 15.3823C24.4265 15.2098 24.4602 15.1123 24.644 14.8948C24.7227 14.8011 24.7865 14.6998 24.7865 14.6698C24.7865 14.6286 24.7715 14.6211 24.6665 14.6248C24.569 14.6248 24.539 14.6136 24.4865 14.5573C24.4002 14.4636 24.4077 14.3548 24.5015 14.2348L24.5765 14.1411L24.4415 14.0511C24.3337 13.9715 24.2333 13.8824 24.1415 13.7848C24.0596 13.6882 23.9595 13.6087 23.8469 13.5508C23.7343 13.4929 23.6114 13.4577 23.4852 13.4473L23.309 13.4286V13.5636C23.309 13.7323 23.3915 13.8973 23.609 14.1748C23.8565 14.4898 23.8715 14.5386 23.8827 14.9511L23.894 15.2998L23.819 15.3673C23.7552 15.4273 23.729 15.4386 23.519 15.4498C23.3202 15.4611 23.2752 15.4723 23.219 15.5248C23.1531 15.5728 23.1077 15.6437 23.0915 15.7236C23.0802 15.7798 23.084 15.7911 23.1252 15.7911C23.1515 15.7911 23.2152 15.7648 23.2677 15.7311V15.7311ZM17.9352 14.8311C17.9579 14.7978 17.9709 14.7588 17.9727 14.7186C17.9727 14.6811 17.9952 14.6661 18.0927 14.6511L18.209 14.6361L18.134 14.5723C18.0402 14.4973 18.029 14.4411 18.1115 14.4411C18.194 14.4411 18.329 14.3586 18.3515 14.2948C18.3627 14.2648 18.3515 14.2273 18.3365 14.2086C18.2915 14.1561 18.2052 14.1636 18.1902 14.2236C18.1715 14.2836 18.1452 14.2836 18.0777 14.2236C17.984 14.1298 17.9802 13.9386 18.0777 13.8261C18.119 13.7736 18.119 13.7736 18.0627 13.7173C18.0027 13.6573 17.9577 13.5448 17.9877 13.5148C17.9952 13.5073 18.044 13.5148 18.0927 13.5336C18.1677 13.5561 18.194 13.5561 18.224 13.5336C18.3102 13.4623 18.2165 13.3723 18.074 13.3948C18.014 13.4023 17.9915 13.3948 17.984 13.3648C17.9765 13.3423 17.9277 13.3123 17.8715 13.2973C17.7702 13.2711 17.7702 13.2711 17.7702 13.3423C17.7702 13.4173 17.7252 13.4323 17.6427 13.3836C17.5752 13.3461 17.5115 13.3761 17.5115 13.4473C17.5115 13.5148 17.5752 13.5448 17.699 13.5373C17.789 13.5336 17.7927 13.6011 17.7065 13.6986L17.6427 13.7736L17.6915 13.8448C17.7665 13.9498 17.759 14.1261 17.6802 14.2161L17.6165 14.2836L17.5752 14.2273C17.5152 14.1523 17.4365 14.1561 17.414 14.2386C17.4027 14.2911 17.414 14.3136 17.4815 14.3736C17.5265 14.4111 17.594 14.4411 17.6277 14.4411C17.714 14.4411 17.7102 14.5123 17.6202 14.5798L17.5452 14.6361L17.6577 14.6511C17.7177 14.6623 17.7702 14.6773 17.7702 14.6886C17.7702 14.7373 17.8452 14.8836 17.8677 14.8836C17.8827 14.8836 17.9127 14.8573 17.9352 14.8273V14.8311Z" fill="#FFB700"/>
<path d="M19.3677 14.2097C19.4689 14.1722 19.6864 13.9847 19.6864 13.9434C19.6864 13.9284 19.6264 13.8609 19.5514 13.7934C19.4014 13.6584 19.2327 13.4222 19.1877 13.2872C19.1652 13.2122 19.0564 13.0922 18.7489 12.7922L18.3402 12.3984L18.2239 12.4284C18.1564 12.4434 18.0777 12.4584 18.0477 12.4584C17.9914 12.4584 17.9914 12.4584 18.0664 12.5184L18.1414 12.5784L18.2539 12.5184C18.3552 12.4584 18.3589 12.4584 18.3702 12.5072C18.3777 12.5334 18.3627 12.5822 18.3327 12.6159C18.3064 12.6497 18.2914 12.6909 18.2952 12.7022C18.3064 12.7134 18.2802 12.7397 18.2389 12.7622C18.1639 12.7997 18.1077 12.9234 18.1677 12.9234C18.2239 12.9234 18.3439 12.7734 18.3289 12.7247C18.3214 12.6984 18.3289 12.6722 18.3364 12.6647C18.3852 12.6384 18.3814 12.7547 18.3364 12.8147C18.3064 12.8447 18.2914 12.8822 18.2989 12.8972C18.3064 12.9084 18.2802 12.9347 18.2389 12.9572C18.1639 12.9947 18.1077 13.1184 18.1677 13.1184C18.2277 13.1184 18.3439 12.9759 18.3327 12.9234C18.3252 12.8972 18.3252 12.8672 18.3364 12.8597C18.3702 12.8447 18.3852 12.9347 18.3589 12.9797C18.352 12.9923 18.3484 13.0065 18.3484 13.0209C18.3484 13.0353 18.352 13.0495 18.3589 13.0622C18.3852 13.1109 18.3589 13.2009 18.3102 13.2309C18.2914 13.2422 18.3027 13.2684 18.3552 13.3059C18.4302 13.3584 18.4302 13.3659 18.4302 13.6059C18.4302 13.8084 18.4377 13.8609 18.4752 13.8947C18.5127 13.9322 18.5202 13.9322 18.5202 13.8947C18.5202 13.8572 18.5952 13.8047 18.6514 13.8047C18.6702 13.8047 18.7789 13.8984 18.8952 14.0109C19.0114 14.1234 19.1352 14.2247 19.1689 14.2284L19.2514 14.2434C19.2627 14.2434 19.3152 14.2322 19.3677 14.2059V14.2097ZM18.1189 13.2309C18.1189 13.1672 17.9839 13.0959 17.8227 13.0809C17.6914 13.0622 17.6914 13.0659 17.6914 13.1297C17.6914 13.1822 17.7102 13.2047 17.8039 13.2422C17.9464 13.3059 18.1189 13.2984 18.1189 13.2309Z" fill="#FFB700"/>
<path d="M18.2652 13.2222C18.3327 13.1622 18.3627 13.0947 18.3215 13.0947C18.2765 13.0947 18.1565 13.1997 18.1565 13.2447C18.1565 13.3047 18.179 13.3009 18.269 13.2222H18.2652ZM18.1265 13.0309C18.1302 12.9934 18.1077 12.9709 18.0402 12.9372C17.8902 12.8734 17.7177 12.8397 17.6765 12.8734C17.5977 12.9372 17.6502 13.0197 17.774 13.0347C17.8265 13.0384 17.894 13.0534 17.9277 13.0684C18.0252 13.1059 18.1152 13.0872 18.1265 13.0309V13.0309ZM18.1265 12.8322C18.134 12.7834 18.1002 12.7647 17.8265 12.6672C17.6202 12.5922 17.5302 12.6297 17.5977 12.7534C17.6202 12.7947 17.6577 12.8134 17.744 12.8284C17.8077 12.8359 17.894 12.8547 17.9352 12.8697C18.0477 12.9072 18.1152 12.8922 18.1227 12.8322H18.1265ZM18.2615 12.6484C18.3027 12.6072 18.3365 12.5584 18.3365 12.5359C18.3365 12.4797 18.1752 12.5847 18.1527 12.6597C18.1302 12.7459 18.1715 12.7422 18.2652 12.6484H18.2615ZM18.1265 12.6372C18.134 12.5772 18.0365 12.5247 17.8415 12.4834C17.6952 12.4497 17.6315 12.4684 17.6427 12.5359C17.6502 12.5734 17.699 12.5997 17.8302 12.6409C18.0515 12.7084 18.1152 12.7084 18.1265 12.6372V12.6372ZM18.314 12.3597C18.569 12.2472 18.5877 11.9659 18.3515 11.8909C18.254 11.8609 18.194 11.8797 18.1565 11.9434C18.1265 11.9959 18.1452 12.0859 18.1827 12.0859C18.1977 12.0859 18.209 12.1047 18.209 12.1234C18.209 12.2247 17.8265 12.2659 17.669 12.1872C17.6127 12.1609 17.594 12.0859 17.6352 12.0859C17.6727 12.0859 17.6952 12.0109 17.6765 11.9622C17.654 11.8872 17.579 11.8647 17.4777 11.8947C17.2415 11.9547 17.249 12.2322 17.489 12.3447C17.7545 12.4421 18.0451 12.4474 18.314 12.3597V12.3597Z" fill="#FFB700"/>
<path d="M18.1619 12.1427C18.1769 12.1277 18.1694 12.1052 18.1469 12.0902C18.0944 12.0489 18.0981 11.9852 18.1544 11.9139C18.1994 11.8614 18.2031 11.7789 18.2181 10.9727C18.2444 9.58141 18.3494 8.53516 18.4844 8.28016C18.5406 8.18266 18.5331 8.18266 18.3906 8.28016C18.2037 8.41041 18.0527 8.58585 17.9519 8.79016C17.7194 9.22141 17.6406 9.80266 17.6406 11.0477C17.6406 11.7527 17.6444 11.8464 17.6856 11.9102C17.7231 11.9777 17.7231 12.0002 17.7006 12.0677C17.6819 12.1089 17.6744 12.1539 17.6819 12.1614C17.7344 12.2102 18.1094 12.1989 18.1619 12.1427ZM20.2656 10.8152C20.2769 10.8039 20.2581 10.7402 20.2281 10.6802C20.1831 10.5827 20.1644 10.5677 20.1006 10.5677C19.8008 10.5416 19.5083 10.4602 19.2381 10.3277C19.0469 10.2414 18.9756 10.2227 18.9569 10.2452C18.8969 10.3014 18.9944 10.4327 19.1444 10.5039C19.3651 10.5835 19.5963 10.6302 19.8306 10.6427C19.9319 10.6427 19.9356 10.6427 19.8756 10.7289L19.8381 10.7889H19.9506L20.1381 10.8114C20.2506 10.8377 20.2506 10.8377 20.2656 10.8152V10.8152Z" fill="#FFB700"/>
<path d="M21.4477 11.442C21.4477 11.4045 21.339 11.3107 21.234 11.247C21.1477 11.1982 21.1327 11.1945 21.1327 11.2357C21.1327 11.2957 21.0802 11.4495 21.0577 11.4495C21.0465 11.4495 21.0277 11.4195 21.0202 11.3857C21.009 11.3482 20.9677 11.2732 20.9265 11.2245L20.8515 11.1307L20.799 11.217C20.7465 11.2995 20.6527 11.3782 20.6115 11.3782C20.604 11.3782 20.6002 11.3332 20.6115 11.2845C20.6152 11.2245 20.6115 11.1795 20.5927 11.172C20.5777 11.1607 20.5627 11.1645 20.5627 11.1795C20.5627 11.2095 20.4352 11.352 20.4127 11.352C20.3977 11.352 20.3827 11.3145 20.3752 11.262L20.3452 11.082C20.3377 11.037 20.3565 11.067 20.3827 11.157L20.4427 11.3107L20.5027 11.217C20.5299 11.1782 20.5502 11.1351 20.5627 11.0895C20.5627 11.0707 20.574 11.0632 20.589 11.0707C20.604 11.0782 20.6227 11.142 20.6302 11.2095L20.649 11.337L20.7165 11.262C20.7518 11.2243 20.7844 11.1842 20.814 11.142C20.8402 11.097 20.844 11.097 20.9002 11.142C20.9302 11.172 20.979 11.2357 21.009 11.2882C21.039 11.3407 21.0652 11.3782 21.069 11.3745L21.0915 11.2545L21.1065 11.142C21.1102 11.1232 21.309 11.2545 21.384 11.3182C21.429 11.3595 21.474 11.3895 21.4815 11.382C21.489 11.3745 21.4965 11.3145 21.4965 11.2432C21.4965 11.1382 21.4852 11.1082 21.4215 11.052C21.3465 10.9845 21.3465 10.9845 21.3165 11.0332C21.279 11.097 21.2377 11.097 21.2377 11.0332C21.2377 10.9882 21.0952 10.812 21.0615 10.812C21.0502 10.812 21.0202 10.8495 20.994 10.8982C20.9677 10.947 20.9377 10.9845 20.9302 10.9845C20.8927 10.9845 20.694 10.7595 20.694 10.722C20.694 10.692 20.709 10.6995 20.7427 10.752C20.7763 10.8012 20.8153 10.8465 20.859 10.887C20.934 10.9545 20.964 10.9395 20.994 10.8082C21.0052 10.7707 21.0202 10.7407 21.0315 10.7407C21.0615 10.7407 21.234 10.9245 21.2565 10.9845L21.2827 11.0445L21.3015 10.977C21.324 10.8945 21.3502 10.8945 21.3877 10.9695C21.4027 10.9995 21.4777 11.067 21.5527 11.112L21.6915 11.202L21.7177 11.112C21.7327 11.0632 21.7552 11.037 21.7627 11.052C21.7777 11.0707 21.7402 11.2207 21.714 11.2507C21.714 11.2545 21.6652 11.2282 21.6165 11.1945L21.5227 11.127V11.247C21.5227 11.3107 21.5152 11.3895 21.5077 11.4195C21.489 11.4795 21.444 11.4945 21.444 11.442H21.4477ZM20.754 10.4895C20.589 10.3545 20.5665 10.3245 20.5665 10.257L20.5702 10.1895L20.5815 10.2532C20.589 10.2907 20.634 10.3507 20.6865 10.3957L20.784 10.4707L20.8402 10.4032C20.874 10.3657 20.9002 10.3207 20.9002 10.3057C20.9002 10.2607 20.9077 10.2645 21.0202 10.362C21.1177 10.4482 21.1215 10.4482 21.1327 10.392C21.144 10.362 21.1402 10.302 21.1327 10.2607C21.0952 10.1482 21.1027 10.1332 21.1515 10.2007L21.2415 10.3057C21.279 10.347 21.2827 10.347 21.2977 10.2945C21.309 10.2607 21.3165 10.2045 21.3165 10.167V10.0957L21.4027 10.197C21.489 10.2945 21.4965 10.2982 21.519 10.2495C21.5377 10.2232 21.549 10.1595 21.549 10.1107C21.549 10.0432 21.5565 10.0282 21.5715 10.0507C21.6015 10.0957 21.5827 10.2082 21.5302 10.3057L21.4927 10.3807L21.444 10.302C21.3802 10.2045 21.3577 10.2045 21.3202 10.3095C21.2827 10.4107 21.2565 10.4182 21.219 10.3395C21.1965 10.2907 21.189 10.2982 21.174 10.4032L21.1552 10.5157L21.0427 10.4295L20.9302 10.3432L20.874 10.3995C20.8477 10.4332 20.8252 10.4745 20.8252 10.4895C20.8252 10.527 20.7952 10.527 20.754 10.4895V10.4895ZM22.2165 9.97945C22.1602 9.92695 22.119 9.87445 22.1265 9.86695C22.1377 9.8557 22.1452 9.85195 22.149 9.85945C22.1853 9.89813 22.2228 9.93565 22.2615 9.97195C22.389 10.107 22.3627 10.1107 22.2202 9.97945H22.2165ZM20.2665 9.77695C20.214 9.70195 20.2177 9.65695 20.2852 9.57445C20.3302 9.5182 20.3527 9.5107 20.4352 9.52195C20.4915 9.5257 20.6077 9.57445 20.694 9.62695C20.8186 9.70142 20.9613 9.74032 21.1065 9.73945L21.0427 9.63445C20.9602 9.5107 20.9602 9.4957 21.0577 9.5707C21.1552 9.64945 21.2715 9.67195 21.534 9.66445L21.6615 9.6607L21.5865 9.5857C21.4852 9.48445 21.5152 9.4732 21.6315 9.57445C21.7365 9.6682 21.7327 9.6757 21.504 9.6982C21.4086 9.70784 21.3123 9.7015 21.219 9.67945C21.0915 9.64195 21.084 9.6457 21.1102 9.68695C21.1252 9.7132 21.1477 9.73195 21.159 9.73195C21.174 9.73195 21.1852 9.74695 21.1852 9.76195C21.1852 9.8107 20.9077 9.7657 20.7727 9.70195C20.4727 9.5482 20.4352 9.5332 20.3602 9.5557C20.3403 9.56339 20.322 9.57497 20.3066 9.58978C20.2911 9.60459 20.2788 9.62232 20.2702 9.64195C20.2215 9.7657 20.3977 9.8632 20.469 9.75445C20.4915 9.7207 20.4877 9.70195 20.4502 9.6607C20.3977 9.6082 20.4052 9.6007 20.4727 9.6232C20.5215 9.64195 20.5252 9.7582 20.4802 9.8032C20.4315 9.85195 20.3115 9.8407 20.2665 9.77695Z" fill="black"/>
<path d="M21.4636 9.47296C21.4261 9.43546 21.4561 9.42796 21.6248 9.42421C21.8348 9.42046 21.9623 9.38671 22.1123 9.28921C22.2323 9.21421 22.2661 9.22921 22.1498 9.30796C22.0486 9.38296 21.8873 9.43546 21.7261 9.45046L21.5348 9.47671C21.5048 9.48421 21.4711 9.48046 21.4598 9.47296H21.4636Z" fill="black"/>
</g>
</g>
<defs>
<filter id="filter0_d_336_31358" x="0" y="-2" width="36" height="36" filterUnits="userSpaceOnUse" color-interpolation-filters="sRGB">
<feFlood flood-opacity="0" result="BackgroundImageFix"/>
<feColorMatrix in="SourceAlpha" type="matrix" values="0 0 0 0 0 0 0 0 0 0 0 0 0 0 0 0 0 0 127 0" result="hardAlpha"/>
<feOffset dy="4"/>
<feGaussianBlur stdDeviation="3"/>
<feComposite in2="hardAlpha" operator="out"/>
<feColorMatrix type="matrix" values="0 0 0 0 0 0 0 0 0 0 0 0 0 0 0 0 0 0 0.16 0"/>
<feBlend mode="normal" in2="BackgroundImageFix" result="effect1_dropShadow_336_31358"/>
<feBlend mode="normal" in="SourceGraphic" in2="effect1_dropShadow_336_31358" result="shape"/>
</filter>
<clipPath id="clip0_336_31358">
<rect width="24" height="18" fill="white" transform="translate(6 3)"/>
</clipPath>
</defs>
</svg>
