<svg width="36" height="31" viewBox="0 0 36 31" fill="none" xmlns="http://www.w3.org/2000/svg">
<g filter="url(#filter0_d_336_17092)">
<g clip-path="url(#clip0_336_17092)">
<path d="M6 3H30V21H6V3Z" fill="#032EA1"/>
<path d="M6 7.5H30V16.5H6V7.5Z" fill="#E00025"/>
<path d="M15.4648 11.4844H20.5858V13.4554H15.4648V11.4844Z" fill="white" stroke="black" stroke-width="0.099375" stroke-linejoin="bevel"/>
<path d="M20.3248 12.5682H20.4823V13.3107H20.3248V12.5682ZM15.4648 12.2037H20.5858V12.4287H15.4648V12.2037ZM15.4648 11.8887H20.5858V12.0957H15.4648V11.8887Z" fill="white" stroke="black" stroke-width="0.099375" stroke-linejoin="bevel"/>
<path d="M15.4648 11.584H20.5858V11.7775H15.4648V11.584Z" fill="white" stroke="black" stroke-width="0.0894375" stroke-linejoin="bevel"/>
<path d="M16.8128 12.5684H16.9748V13.3109H16.8128V12.5684ZM19.0178 12.5684H19.1798V13.3109H19.0178V12.5684ZM15.5078 12.5684H15.6653V13.3109H15.5078V12.5684ZM15.8228 12.5684H15.9803V13.3109H15.8228V12.5684ZM16.1603 12.5684H16.3178V13.3109H16.1603V12.5684ZM16.4978 12.5684H16.6553V13.3109H16.4978V12.5684ZM19.3238 12.5684H19.4858V13.3109H19.3238V12.5684ZM19.6613 12.5684H19.8233V13.3109H19.6613V12.5684ZM19.9988 12.5684H20.1608V13.3109H19.9988V12.5684Z" fill="white" stroke="black" stroke-width="0.099375" stroke-linejoin="bevel"/>
<path d="M13.4609 13.5549C13.555 13.5037 13.6259 13.4183 13.6589 13.3164H22.3484C22.3815 13.4183 22.4523 13.5037 22.5464 13.5549H13.4609Z" fill="white" stroke="black" stroke-width="0.099375"/>
<path d="M17.8936 8.48197C17.8936 8.48197 17.8891 8.29747 17.9971 8.29297C18.1006 8.29297 18.0961 8.48197 18.0961 8.48197H17.8936ZM17.3311 10.9345V10.687C17.3311 10.561 17.2051 10.552 17.2051 10.462C17.2051 10.462 17.1871 10.327 17.2231 10.264C17.2726 10.444 17.3581 10.4125 17.3581 10.336C17.3581 10.273 17.3131 10.21 17.2096 10.0525C17.1736 10.003 17.1961 9.84547 17.2411 9.78697C17.2591 9.92197 17.2816 9.98947 17.3401 9.98947C17.3761 9.98947 17.4031 9.96697 17.4031 9.89947C17.4031 9.80947 17.3446 9.76447 17.3131 9.68347C17.2976 9.64316 17.294 9.59923 17.3028 9.55694C17.3116 9.51465 17.3323 9.47578 17.3626 9.44497C17.3851 9.57997 17.3806 9.63397 17.4391 9.63397C17.5606 9.59347 17.4391 9.41797 17.4121 9.37297C17.3851 9.32347 17.4571 9.21997 17.4571 9.21997C17.4931 9.34147 17.5021 9.35047 17.5471 9.33697C17.6011 9.32347 17.5921 9.24697 17.5291 9.18397C17.4886 9.13897 17.4931 9.08047 17.5381 9.03547C17.5831 9.12097 17.6371 9.11647 17.6416 9.06247L17.6056 8.86447H18.3886L18.3481 9.05797C18.3391 9.11197 18.4111 9.12547 18.4561 9.03547C18.5011 9.08047 18.5056 9.14347 18.4651 9.18397C18.4021 9.24697 18.3931 9.32347 18.4471 9.33697C18.4921 9.35047 18.5011 9.33697 18.5371 9.21997C18.5371 9.21997 18.6046 9.28747 18.5821 9.37297C18.5551 9.41797 18.4336 9.59797 18.5551 9.63397C18.6136 9.63397 18.6091 9.57997 18.6316 9.44497C18.6611 9.47626 18.681 9.51536 18.689 9.55763C18.697 9.5999 18.6927 9.64357 18.6766 9.68347C18.6496 9.76447 18.5866 9.80947 18.5866 9.89947C18.5866 9.96697 18.6181 9.98947 18.6541 9.98947C18.7126 9.98947 18.7351 9.92647 18.7531 9.78697C18.7981 9.84547 18.8206 10.003 18.7846 10.057C18.6811 10.21 18.6316 10.273 18.6316 10.336C18.6316 10.4125 18.7216 10.444 18.7666 10.264C18.8071 10.327 18.7891 10.462 18.7891 10.462C18.7891 10.552 18.6676 10.561 18.6631 10.687V10.9345H17.3311ZM17.6551 8.86447L17.6371 8.72497H18.3526L18.3346 8.86447H17.6551ZM17.7001 8.72047L17.6911 8.60797H18.2986L18.2851 8.72047H17.7001ZM17.8036 8.60347L17.7901 8.48647H18.1951L18.1906 8.60347H17.8036ZM19.2886 13.5535C19.1986 13.522 19.0636 13.423 19.0636 13.3285V12.235L19.1806 12.082H16.8136L16.9261 12.235V13.3285C16.9261 13.423 16.8361 13.522 16.7461 13.5535H19.2886Z" fill="white" stroke="black" stroke-width="0.099375"/>
<path d="M17.2266 12.5684H17.3886V13.3109H17.2266V12.5684ZM18.5946 12.5684H18.7566V13.3109H18.5946V12.5684Z" fill="white" stroke="black" stroke-width="0.099375" stroke-linejoin="bevel"/>
<path d="M16.7701 10.8398V12.0818H19.2001V10.8398C19.172 10.8501 19.1468 10.8669 19.1265 10.8888C19.1061 10.9107 19.0913 10.9371 19.0831 10.9658V11.4968H16.8916V10.9658C16.8916 10.9658 16.8646 10.8758 16.7656 10.8398H16.7701Z" fill="white" stroke="black" stroke-width="0.099375"/>
<path d="M18.8668 13.5532C18.7858 13.5217 18.6148 13.4227 18.6148 13.3282V12.1042C18.6328 12.0367 18.7228 11.9962 18.7813 11.9512H17.1748C17.2513 11.9962 17.3368 12.0277 17.3683 12.1042V13.3282C17.3683 13.4227 17.2333 13.5217 17.1523 13.5532H18.8668Z" fill="white" stroke="black" stroke-width="0.099375"/>
<path d="M19.0821 11.9655V11.0835H18.8616V10.998H17.1156V11.088H16.8906V11.9655H19.0821ZM18.5241 13.554C18.4431 13.5225 18.3306 13.4235 18.3306 13.329V12.285L18.3936 12.1905H17.5971L17.6646 12.2805V13.329C17.6646 13.4235 17.5476 13.5225 17.4711 13.554H18.5241Z" fill="white" stroke="black" stroke-width="0.099375"/>
<path d="M17.7891 12.1895H18.1941V13.553H17.7891V12.1895Z" fill="white" stroke="black" stroke-width="0.099375"/>
<path d="M18.4076 11.8878C18.4076 11.7978 18.6686 11.7933 18.8036 11.7168H17.1836C17.3186 11.7933 17.5751 11.7978 17.5751 11.8878L17.6291 12.0633L18.3041 12.0903L18.4076 11.8878Z" fill="white" stroke="black" stroke-width="0.099375" stroke-linejoin="bevel"/>
<path d="M18.722 10.9354C18.722 10.7149 18.731 10.6339 18.7985 10.6339V11.3269C18.632 11.3899 18.515 11.5969 18.515 11.5969H17.471C17.471 11.5969 17.354 11.3899 17.1875 11.3269V10.6294C17.2685 10.6294 17.2685 10.7194 17.2685 10.9309L18.722 10.9354ZM18.7985 10.8454C18.7985 10.5934 19.019 10.5664 19.019 10.5664V10.7914C18.9335 10.7869 18.893 10.8634 18.893 10.9714C18.893 11.0839 18.9605 11.0839 18.9605 11.0839V11.7229H18.7985V10.8454Z" fill="white" stroke="black" stroke-width="0.099375"/>
<path d="M17.1853 10.8454C17.1853 10.5934 16.9648 10.5664 16.9648 10.5664V10.7914C17.0503 10.7869 17.0908 10.8634 17.0908 10.9714C17.0908 11.0839 17.0233 11.0839 17.0233 11.0839V11.7229H17.1853V10.8454Z" fill="white" stroke="black" stroke-width="0.099375"/>
<path d="M17.6146 9.10352H18.3886M17.5246 9.34652H18.4696M17.4346 9.63902H18.5551M17.3401 9.99452H18.6676M17.3086 10.3995H18.6766" stroke="black" stroke-width="0.0795"/>
<path d="M16.8945 11.7324H19.0815M17.5875 11.7324H18.3975V12.0294H17.5875V11.7324Z" stroke="black" stroke-width="0.099375"/>
<path d="M17.4883 11.065C17.6233 11.227 17.6053 11.5015 17.6053 11.6635H18.3883C18.3883 11.5015 18.3703 11.227 18.5053 11.065H17.4883ZM17.9248 9.21998L17.8168 9.16148V9.00398C17.8618 9.01748 17.9068 9.02198 17.9158 9.09398C17.9293 8.99048 17.9608 8.99948 18.0013 8.95898C18.0463 8.99948 18.0688 8.99048 18.0868 9.09398C18.0868 9.02198 18.1408 9.01748 18.1813 9.00398V9.16148L18.0778 9.21548L17.9248 9.21998Z" fill="white" stroke="black" stroke-width="0.099375"/>
<path d="M17.9144 9.47566L17.7344 9.34966V9.21016C17.8019 9.22366 17.8694 9.23266 17.8784 9.30916C17.8964 9.19666 17.9369 9.14266 17.9999 9.09766C18.0584 9.14266 18.0989 9.19666 18.1214 9.30916C18.1259 9.23266 18.1979 9.22366 18.2564 9.21016V9.35416L18.0809 9.47566H17.9144Z" fill="white" stroke="black" stroke-width="0.099375"/>
<path d="M17.9037 9.87636L17.7012 9.69636V9.48486C17.7732 9.50286 17.8542 9.51186 17.8632 9.62436C17.8857 9.46686 17.9307 9.38136 17.9982 9.31836C18.0702 9.38136 18.1152 9.46686 18.1422 9.62436C18.1512 9.51186 18.2322 9.50286 18.3042 9.48486V9.69636L18.0972 9.87636H17.9037ZM18.2817 10.1149L18.1017 10.3714H17.8902L17.7057 10.1149H18.2817ZM17.5977 10.5424C17.6877 10.5919 17.7237 10.6954 17.7327 10.8844H18.2547C18.2637 10.6954 18.2997 10.5919 18.3897 10.5424H17.5977Z" fill="white" stroke="black" stroke-width="0.099375"/>
<path d="M18.3959 10.111V9.859C18.3572 9.86726 18.3212 9.88521 18.2913 9.91118C18.2614 9.93716 18.2385 9.9703 18.2249 10.0075C18.2249 9.9175 18.1124 9.724 17.9909 9.625C17.8694 9.733 17.7524 9.913 17.7569 10.003C17.7344 9.9355 17.6759 9.8815 17.5859 9.859V10.1155L18.3959 10.111Z" fill="white" stroke="black" stroke-width="0.099375" stroke-linejoin="bevel"/>
<path d="M18.4328 10.5426V10.2906C18.3383 10.3176 18.2753 10.3671 18.2483 10.4391C18.2483 10.3491 18.1268 10.1556 17.9918 10.0566C17.8568 10.1691 17.7308 10.3446 17.7353 10.4391C17.7128 10.3716 17.6453 10.3176 17.5508 10.2906V10.5471L18.4328 10.5426Z" fill="white" stroke="black" stroke-width="0.099375" stroke-linejoin="bevel"/>
<path d="M18.54 11.0704V10.7734C18.4463 10.8027 18.3653 10.863 18.3105 10.9444C18.3105 10.7869 18.1305 10.5394 17.991 10.4629C17.847 10.5439 17.6715 10.7959 17.6715 10.9444C17.6153 10.8624 17.5327 10.8021 17.4375 10.7734V11.0704H18.54Z" fill="white" stroke="black" stroke-width="0.099375" stroke-linejoin="bevel"/>
<path d="M18.4798 11.7311V11.4251C18.3718 11.4656 18.3448 11.5646 18.3088 11.6366C18.3223 11.3261 18.1378 10.9976 17.9938 10.9121C17.8498 10.9976 17.6608 11.3351 17.6788 11.6321C17.6428 11.5691 17.6113 11.4656 17.5078 11.4251V11.7266L18.4798 11.7311Z" fill="white" stroke="black" stroke-width="0.099375" stroke-linejoin="bevel"/>
<path d="M18.4061 12.189V11.883C18.2936 11.91 18.2891 11.9505 18.2531 12.018C18.2666 11.8335 18.1361 11.622 17.9921 11.541C17.8481 11.622 17.7221 11.8335 17.7311 12.018C17.6951 11.9505 17.6906 11.91 17.5781 11.883V12.189H18.4061Z" fill="white" stroke="black" stroke-width="0.099375"/>
<path d="M13.664 13.3147V12.3967C13.6325 12.2797 13.529 12.1718 13.457 12.1538V11.3438L13.6235 11.4338L13.817 12.2842V13.3192L13.664 13.3147Z" fill="white" stroke="black" stroke-width="0.099375"/>
<path d="M13.664 13.3186V12.3961C13.6325 12.2791 13.529 12.1711 13.457 12.1531V11.2891C13.5695 11.2891 13.6235 11.4331 13.6235 11.4331L13.817 12.2836V13.3141L13.664 13.3186Z" fill="white" stroke="black" stroke-width="0.099375"/>
<path d="M13.543 13.5529C13.6195 13.5214 13.732 13.4224 13.732 13.3279V12.1759L13.678 12.0859H15.6445L15.568 12.1759V13.3279C15.5713 13.3756 15.5872 13.4216 15.6141 13.4611C15.6409 13.5006 15.6778 13.5323 15.721 13.5529H13.543Z" fill="white" stroke="black" stroke-width="0.099375"/>
<path d="M15.3196 13.5535C15.2431 13.522 15.1306 13.423 15.1306 13.3285V12.235L15.2926 12.082H13.9606L14.1226 12.235V13.3285C14.1226 13.423 14.0101 13.522 13.9336 13.5535H15.3196Z" fill="white" stroke="black" stroke-width="0.099375"/>
<path d="M15.1342 13.553C15.0577 13.5215 14.9407 13.4225 14.9407 13.328V12.338L15.0487 12.1895H14.2027L14.3107 12.338V13.328C14.3107 13.4225 14.1982 13.5215 14.1172 13.553H15.1342Z" fill="white" stroke="black" stroke-width="0.099375"/>
<path d="M14.4303 12.1895H14.8308V13.5575H14.4258L14.4303 12.1895Z" fill="white" stroke="black" stroke-width="0.099375"/>
<path d="M13.8739 12.5669H14.0359V13.3094H13.8739V12.5669ZM15.2599 12.5669H15.4174V13.3094H15.2554L15.2599 12.5669ZM13.7344 11.3159H13.9324V12.0809H13.7344V11.3159ZM13.7344 11.1719H13.9279V11.3159H13.7344V11.1719ZM15.3364 11.4824H15.6109V12.0674H15.3364V11.4824Z" fill="white" stroke="black" stroke-width="0.099375" stroke-linejoin="bevel"/>
<path d="M13.9277 12.0727V10.7677C13.9817 10.7677 13.9907 10.9612 14.1167 10.9612C14.1842 10.9612 14.1797 10.8802 14.1392 10.8172C14.1077 10.7587 14.0672 10.6822 14.1212 10.5337C14.1617 10.6462 14.2607 10.6822 14.2427 10.6147C14.2112 10.4932 14.1167 10.4707 14.1887 10.2862C14.2112 10.4392 14.3102 10.4347 14.2877 10.3447C14.2607 10.2412 14.2022 10.1962 14.2742 10.0522C14.3147 10.2187 14.3642 10.2097 14.3642 10.1062C14.3642 9.95316 14.3642 9.79116 14.5532 9.73266C14.5532 9.73266 14.5667 9.59766 14.6387 9.59766C14.7062 9.59766 14.7197 9.73266 14.7197 9.73266C14.9132 9.79116 14.9087 9.95766 14.9087 10.1062C14.9087 10.2097 14.9582 10.2187 14.9987 10.0522C15.0707 10.1962 15.0122 10.2412 14.9852 10.3447C14.9627 10.4347 15.0617 10.4392 15.0842 10.2862C15.1562 10.4707 15.0617 10.4932 15.0302 10.6147C15.0122 10.6822 15.1112 10.6462 15.1517 10.5337C15.2057 10.6822 15.1652 10.7587 15.1337 10.8172C15.0977 10.8802 15.0887 10.9612 15.1562 10.9612C15.2822 10.9612 15.2912 10.7722 15.3452 10.7722V12.0727H13.9277ZM13.6172 11.0872V12.0817H13.7297V11.0872C13.6892 11.0647 13.6532 11.0647 13.6172 11.0872Z" fill="white" stroke="black" stroke-width="0.099375"/>
<path d="M13.6289 11.7307C13.7684 11.8027 13.9079 11.8882 13.9439 12.0817H13.6289V11.7307ZM15.5729 11.4337V12.0817H15.6629V11.4337C15.6359 11.4202 15.5954 11.4157 15.5729 11.4337Z" fill="white" stroke="black" stroke-width="0.099375"/>
<path d="M15.6636 11.7308C15.5241 11.7983 15.3846 11.8793 15.3486 12.0773H15.6636V11.7308ZM14.7366 10.2143L14.8176 10.1468V10.0568C14.7906 10.0568 14.7726 10.0703 14.7501 10.1018C14.7414 10.0729 14.7269 10.0461 14.7076 10.0229C14.6883 9.99967 14.6645 9.9806 14.6376 9.9668C14.6104 9.97962 14.586 9.99777 14.5659 10.0202C14.5458 10.0426 14.5304 10.0688 14.5206 10.0973C14.4981 10.0658 14.4846 10.0613 14.4531 10.0523V10.1423L14.5341 10.2143H14.7366Z" fill="white" stroke="black" stroke-width="0.099375"/>
<path d="M14.7816 10.4345L14.8176 10.349V10.2365C14.7906 10.2365 14.7726 10.25 14.7501 10.2815C14.7414 10.2526 14.7269 10.2257 14.7076 10.2025C14.6883 10.1794 14.6645 10.1603 14.6376 10.1465C14.6104 10.1593 14.586 10.1775 14.5659 10.1999C14.5458 10.2223 14.5304 10.2485 14.5206 10.277C14.4981 10.2455 14.4846 10.241 14.4531 10.2365V10.349L14.4891 10.4345H14.7816Z" fill="white" stroke="black" stroke-width="0.099375"/>
<path d="M14.7908 10.7313L14.9078 10.5828V10.4388C14.8628 10.4388 14.8403 10.4613 14.8088 10.5108C14.7773 10.4073 14.7188 10.3893 14.6378 10.3398C14.5523 10.3848 14.4938 10.4073 14.4668 10.5063C14.4308 10.4568 14.4083 10.4433 14.3633 10.4388V10.5828L14.4848 10.7313H14.7908Z" fill="white" stroke="black" stroke-width="0.099375"/>
<path d="M14.8189 11.0251C14.8189 11.0251 14.9629 10.9036 14.9674 10.8361V10.6786C14.9134 10.6831 14.8639 10.6966 14.8234 10.7641C14.7874 10.6336 14.7334 10.5976 14.6344 10.5391C14.5309 10.5976 14.4769 10.6336 14.4454 10.7641C14.4004 10.6966 14.3554 10.6831 14.2969 10.6741V10.8361C14.3347 10.9074 14.385 10.9715 14.4454 11.0251H14.8189Z" fill="white" stroke="black" stroke-width="0.099375"/>
<path d="M14.8799 11.5651C14.8799 11.5651 15.0779 11.3536 15.0824 11.2681V11.0251C15.0104 11.0341 14.9384 11.0836 14.8844 11.1871C14.8394 10.9846 14.7674 10.8451 14.6369 10.7461C14.5019 10.8451 14.4299 10.9846 14.3849 11.1871C14.3309 11.0836 14.2634 11.0341 14.1914 11.0251V11.2681C14.2049 11.3536 14.3894 11.5651 14.3894 11.5651H14.8799Z" fill="white" stroke="black" stroke-width="0.099375"/>
<path d="M14.8799 11.8845C14.8799 11.8845 15.0464 11.718 15.0824 11.646V11.403C15.0104 11.412 14.9384 11.4615 14.8844 11.5605C14.8724 11.4786 14.8443 11.3999 14.8018 11.3289C14.7594 11.2578 14.7033 11.1959 14.6369 11.1465C14.5019 11.2455 14.4299 11.358 14.3849 11.5605C14.3309 11.4615 14.2634 11.412 14.1914 11.403V11.646C14.2364 11.718 14.3894 11.8845 14.3894 11.8845H14.8799Z" fill="white" stroke="black" stroke-width="0.099375"/>
<path d="M14.9482 12.0734C14.9032 11.8619 14.8582 11.7044 14.6287 11.5469C14.3947 11.7044 14.3542 11.8619 14.3047 12.0734H14.9482Z" fill="white" stroke="black" stroke-width="0.099375"/>
<path d="M15.0689 12.1905V11.8845C14.9609 11.9295 14.8664 11.988 14.8304 12.0555C14.7944 11.8845 14.7179 11.8125 14.6234 11.709C14.5289 11.8125 14.4659 11.889 14.4254 12.0555C14.3894 11.988 14.2949 11.925 14.1914 11.8845V12.1905H15.0689Z" fill="white" stroke="black" stroke-width="0.099375"/>
<path d="M22.336 13.3147V12.3967C22.3675 12.2797 22.471 12.1718 22.543 12.1538V11.3438L22.3765 11.4338L22.183 12.2842V13.3192L22.336 13.3147Z" fill="white" stroke="black" stroke-width="0.099375"/>
<path d="M22.336 13.3186V12.3961C22.3675 12.2791 22.471 12.1711 22.543 12.1531V11.2891C22.4305 11.2891 22.3765 11.4331 22.3765 11.4331L22.183 12.2836V13.3141L22.336 13.3186Z" fill="white" stroke="black" stroke-width="0.099375"/>
<path d="M22.457 13.5529C22.3805 13.5214 22.268 13.4224 22.268 13.3279V12.1759L22.322 12.0859H20.3555L20.432 12.1759V13.3279C20.4287 13.3756 20.4128 13.4216 20.3859 13.4611C20.3591 13.5006 20.3222 13.5323 20.279 13.5529H22.457Z" fill="white" stroke="black" stroke-width="0.099375"/>
<path d="M20.6804 13.5535C20.7569 13.522 20.8694 13.423 20.8694 13.3285V12.235L20.7074 12.082H22.0394L21.8774 12.235V13.3285C21.8774 13.423 21.9899 13.522 22.0664 13.5535H20.6804Z" fill="white" stroke="black" stroke-width="0.099375"/>
<path d="M20.8658 13.553C20.9423 13.5215 21.0593 13.4225 21.0593 13.328V12.338L20.9513 12.1895H21.7973L21.6893 12.338V13.328C21.6893 13.4225 21.8018 13.5215 21.8828 13.553H20.8658Z" fill="white" stroke="black" stroke-width="0.099375"/>
<path d="M21.5697 12.1895H21.1692V13.5575H21.5742L21.5697 12.1895Z" fill="white" stroke="black" stroke-width="0.099375"/>
<path d="M22.1261 12.5669H21.9641V13.3094H22.1261V12.5669ZM20.7401 12.5669H20.5826V13.3094H20.7446L20.7401 12.5669ZM22.2656 11.3159H22.0676V12.0809H22.2656V11.3159ZM22.2656 11.1719H22.0721V11.3159H22.2656V11.1719ZM20.6636 11.4824H20.3891V12.0674H20.6636V11.4824Z" fill="white" stroke="black" stroke-width="0.099375" stroke-linejoin="bevel"/>
<path d="M22.0723 12.0727V10.7677C22.0183 10.7677 22.0093 10.9612 21.8833 10.9612C21.8158 10.9612 21.8203 10.8802 21.8608 10.8172C21.8923 10.7587 21.9328 10.6822 21.8788 10.5337C21.8383 10.6462 21.7393 10.6822 21.7573 10.6147C21.7888 10.4932 21.8833 10.4707 21.8113 10.2862C21.7888 10.4392 21.6898 10.4347 21.7123 10.3447C21.7393 10.2412 21.7978 10.1962 21.7258 10.0522C21.6853 10.2187 21.6358 10.2097 21.6358 10.1062C21.6358 9.95316 21.6358 9.79116 21.4468 9.73266C21.4468 9.73266 21.4333 9.59766 21.3613 9.59766C21.2938 9.59766 21.2803 9.73266 21.2803 9.73266C21.0868 9.79116 21.0913 9.95766 21.0913 10.1062C21.0913 10.2097 21.0418 10.2187 21.0013 10.0522C20.9293 10.1962 20.9878 10.2412 21.0148 10.3447C21.0373 10.4347 20.9383 10.4392 20.9158 10.2862C20.8438 10.4707 20.9383 10.4932 20.9698 10.6147C20.9878 10.6822 20.8888 10.6462 20.8483 10.5337C20.7943 10.6822 20.8348 10.7587 20.8663 10.8172C20.9023 10.8802 20.9113 10.9612 20.8438 10.9612C20.7178 10.9612 20.7088 10.7722 20.6548 10.7722V12.0727H22.0723ZM22.3828 11.0872V12.0817H22.2703V11.0872C22.3108 11.0647 22.3468 11.0647 22.3828 11.0872Z" fill="white" stroke="black" stroke-width="0.099375"/>
<path d="M22.3711 11.7307C22.2316 11.8027 22.0921 11.8882 22.0561 12.0817H22.3711V11.7307ZM20.4271 11.4337V12.0817H20.3371V11.4337C20.3641 11.4202 20.4046 11.4157 20.4271 11.4337Z" fill="white" stroke="black" stroke-width="0.099375"/>
<path d="M20.3364 11.7308C20.4759 11.7983 20.6154 11.8793 20.6514 12.0773H20.3364V11.7308ZM21.2634 10.2143L21.1824 10.1468V10.0568C21.2094 10.0568 21.2274 10.0703 21.2499 10.1018C21.2586 10.0729 21.2731 10.0461 21.2924 10.0229C21.3117 9.99967 21.3355 9.9806 21.3624 9.9668C21.3896 9.97962 21.414 9.99777 21.4341 10.0202C21.4542 10.0426 21.4696 10.0688 21.4794 10.0973C21.5019 10.0658 21.5154 10.0613 21.5469 10.0523V10.1423L21.4659 10.2143H21.2634Z" fill="white" stroke="black" stroke-width="0.099375"/>
<path d="M21.2184 10.4345L21.1824 10.349V10.2365C21.2094 10.2365 21.2274 10.25 21.2499 10.2815C21.2586 10.2526 21.2731 10.2257 21.2924 10.2025C21.3117 10.1794 21.3355 10.1603 21.3624 10.1465C21.3896 10.1593 21.414 10.1775 21.4341 10.1999C21.4542 10.2223 21.4696 10.2485 21.4794 10.277C21.5019 10.2455 21.5154 10.241 21.5469 10.2365V10.349L21.5109 10.4345H21.2184Z" fill="white" stroke="black" stroke-width="0.099375"/>
<path d="M21.2092 10.7313L21.0922 10.5828V10.4388C21.1372 10.4388 21.1597 10.4613 21.1912 10.5108C21.2227 10.4073 21.2812 10.3893 21.3622 10.3398C21.4477 10.3848 21.5062 10.4073 21.5332 10.5063C21.5692 10.4568 21.5917 10.4433 21.6367 10.4388V10.5828L21.5152 10.7313H21.2092Z" fill="white" stroke="black" stroke-width="0.099375"/>
<path d="M21.1811 11.0251C21.1811 11.0251 21.0371 10.9036 21.0326 10.8361V10.6786C21.0866 10.6831 21.1361 10.6966 21.1766 10.7641C21.2126 10.6336 21.2666 10.5976 21.3656 10.5391C21.4691 10.5976 21.5231 10.6336 21.5546 10.7641C21.5996 10.6966 21.6446 10.6831 21.7031 10.6741V10.8361C21.6653 10.9074 21.615 10.9715 21.5546 11.0251H21.1811Z" fill="white" stroke="black" stroke-width="0.099375"/>
<path d="M21.1201 11.5651C21.1201 11.5651 20.9221 11.3536 20.9176 11.2681V11.0251C20.9896 11.0341 21.0616 11.0836 21.1156 11.1871C21.1606 10.9846 21.2326 10.8451 21.3631 10.7461C21.4981 10.8451 21.5701 10.9846 21.6151 11.1871C21.6691 11.0836 21.7366 11.0341 21.8086 11.0251V11.2681C21.7951 11.3536 21.6106 11.5651 21.6106 11.5651H21.1201Z" fill="white" stroke="black" stroke-width="0.099375"/>
<path d="M21.1201 11.8845C21.1201 11.8845 20.9536 11.718 20.9176 11.646V11.403C20.9896 11.412 21.0616 11.4615 21.1156 11.5605C21.1276 11.4786 21.1557 11.3999 21.1982 11.3289C21.2406 11.2578 21.2967 11.1959 21.3631 11.1465C21.4981 11.2455 21.5701 11.358 21.6151 11.5605C21.6691 11.4615 21.7366 11.412 21.8086 11.403V11.646C21.7636 11.718 21.6106 11.8845 21.6106 11.8845H21.1201Z" fill="white" stroke="black" stroke-width="0.099375"/>
<path d="M21.0518 12.0734C21.0968 11.8619 21.1418 11.7044 21.3713 11.5469C21.6053 11.7044 21.6458 11.8619 21.6953 12.0734H21.0518Z" fill="white" stroke="black" stroke-width="0.099375"/>
<path d="M20.9311 12.1905V11.8845C21.0391 11.9295 21.1336 11.988 21.1696 12.0555C21.2056 11.8845 21.2821 11.8125 21.3766 11.709C21.4711 11.8125 21.5341 11.889 21.5746 12.0555C21.6106 11.988 21.7051 11.925 21.8086 11.8845V12.1905H20.9311Z" fill="white" stroke="black" stroke-width="0.099375"/>
<path d="M12.48 14.6702H23.5185V15.2327H12.48V14.6702ZM12.1875 15.2327H23.811V15.7952H12.1875V15.2327ZM13.0605 13.8242H22.9335V14.1887H13.0605V13.8242Z" fill="white" stroke="black" stroke-width="0.099375"/>
<path d="M12.7734 14.1884H23.2314V14.6654H12.7734V14.1884ZM13.2324 13.5449H22.7724V13.8239H13.2324V13.5449Z" fill="white" stroke="black" stroke-width="0.099375"/>
<path d="M14.2656 13.5449H14.9856V15.7949H14.2656V13.5449Z" fill="white" stroke="black" stroke-width="0.099375"/>
<path d="M14.4303 13.5449H14.8308V15.7949H14.4258L14.4303 13.5449ZM17.6253 13.5449H18.3453V15.7949H17.6253V13.5449Z" fill="white" stroke="black" stroke-width="0.099375"/>
<path d="M17.7891 13.5449H18.1941V15.7949H17.7891V13.5449ZM21.0066 13.5449H21.7266V15.7949H21.0066V13.5449Z" fill="white" stroke="black" stroke-width="0.099375"/>
<path d="M21.1641 13.5449H21.5691V15.7949H21.1641V13.5449Z" fill="white" stroke="black" stroke-width="0.099375"/>
<path d="M13.6641 13.3145H22.3491M14.4201 15.5105H14.8341M14.4201 15.227H14.8341M14.4201 14.948H14.8341M14.4201 14.6645H14.8341M14.4201 14.3855H14.8341M14.4201 14.102H14.8341M14.4201 13.823H14.8341M17.7951 15.5105H18.1821M17.7951 15.227H18.1821M17.7951 14.948H18.1821M17.7951 14.6645H18.1821M17.7951 14.3855H18.1821M17.7951 14.102H18.1821M17.7951 13.823H18.1821M21.1611 15.5105H21.5751M21.1611 15.227H21.5751M21.1611 14.948H21.5751M21.1611 14.6645H21.5751M21.1611 14.3855H21.5751M21.1611 14.102H21.5751M21.1611 13.823H21.5751" stroke="black" stroke-width="0.099375"/>
</g>
</g>
<defs>
<filter id="filter0_d_336_17092" x="0" y="-2" width="36" height="36" filterUnits="userSpaceOnUse" color-interpolation-filters="sRGB">
<feFlood flood-opacity="0" result="BackgroundImageFix"/>
<feColorMatrix in="SourceAlpha" type="matrix" values="0 0 0 0 0 0 0 0 0 0 0 0 0 0 0 0 0 0 127 0" result="hardAlpha"/>
<feOffset dy="4"/>
<feGaussianBlur stdDeviation="3"/>
<feComposite in2="hardAlpha" operator="out"/>
<feColorMatrix type="matrix" values="0 0 0 0 0 0 0 0 0 0 0 0 0 0 0 0 0 0 0.16 0"/>
<feBlend mode="normal" in2="BackgroundImageFix" result="effect1_dropShadow_336_17092"/>
<feBlend mode="normal" in="SourceGraphic" in2="effect1_dropShadow_336_17092" result="shape"/>
</filter>
<clipPath id="clip0_336_17092">
<rect width="24" height="18" fill="white" transform="translate(6 3)"/>
</clipPath>
</defs>
</svg>
