<svg width="36" height="31" viewBox="0 0 36 31" fill="none" xmlns="http://www.w3.org/2000/svg">
<g filter="url(#filter0_d_336_32176)">
<g clip-path="url(#clip0_336_32176)">
<path d="M6 3H30V21H6V3Z" fill="#EE1C25"/>
<path d="M6 3H30V15H6V3Z" fill="#0B4EA2"/>
<path d="M6 3H30V9H6V3Z" fill="white"/>
<path d="M14.7389 16.9057C13.1264 16.1295 10.8164 14.5845 10.8164 11.5357C10.8164 8.4832 10.9664 7.0957 10.9664 7.0957H18.5152C18.5152 7.0957 18.6614 8.4832 18.6614 11.5357C18.6614 14.5882 16.3514 16.1257 14.7389 16.9057Z" fill="white"/>
<path d="M14.7367 16.5C13.2555 15.7875 11.1367 14.37 11.1367 11.5725C11.1367 8.775 11.2717 7.5 11.2717 7.5H18.2017C18.2017 7.5 18.333 8.775 18.333 11.5725C18.3367 14.3738 16.218 15.7875 14.7367 16.5Z" fill="#EE1C25"/>
<path d="M15.0517 10.8374C15.453 10.8449 16.2367 10.8599 16.9305 10.6274C16.9305 10.6274 16.9155 10.8787 16.9155 11.1674C16.9155 11.4562 16.9342 11.7074 16.9342 11.7074C16.2967 11.4937 15.5055 11.4899 15.0517 11.4937V13.0387H14.4217V11.4937C13.9717 11.4899 13.1805 11.4937 12.543 11.7074C12.543 11.7074 12.5617 11.4562 12.5617 11.1674C12.5617 10.8749 12.543 10.6274 12.543 10.6274C13.2367 10.8599 14.0205 10.8449 14.418 10.8374V9.86617C14.0542 9.86617 13.5292 9.88117 12.933 10.0799C12.933 10.0799 12.9517 9.83242 12.9517 9.53992C12.9517 9.25117 12.933 8.99992 12.933 8.99992C13.5292 9.19867 14.0542 9.21742 14.418 9.21367C14.3992 8.59867 14.2192 7.82617 14.2192 7.82617C14.2192 7.82617 14.5905 7.85242 14.7367 7.85242C14.8867 7.85242 15.2542 7.82617 15.2542 7.82617C15.2542 7.82617 15.0742 8.59867 15.0555 9.21367C15.4192 9.21742 15.9442 9.19867 16.5405 8.99992C16.5405 8.99992 16.5217 9.25117 16.5217 9.53992C16.5217 9.83242 16.5405 10.0799 16.5405 10.0799C16.0599 9.92496 15.5565 9.85268 15.0517 9.86617V10.8412V10.8374Z" fill="white"/>
<path d="M14.7392 12.873C13.993 12.873 13.5955 13.9043 13.5955 13.9043C13.5955 13.9043 13.3705 13.4168 12.763 13.4168C12.3505 13.4168 12.0505 13.7805 11.8555 14.1218C12.6055 15.3105 13.8017 16.0455 14.7392 16.4993C15.6767 16.0493 16.8767 15.3105 17.623 14.1218C17.428 13.7843 17.128 13.4168 16.7155 13.4168C16.108 13.4168 15.883 13.9043 15.883 13.9043C15.883 13.9043 15.4892 12.873 14.7392 12.873Z" fill="#0B4EA2"/>
</g>
</g>
<defs>
<filter id="filter0_d_336_32176" x="0" y="-2" width="36" height="36" filterUnits="userSpaceOnUse" color-interpolation-filters="sRGB">
<feFlood flood-opacity="0" result="BackgroundImageFix"/>
<feColorMatrix in="SourceAlpha" type="matrix" values="0 0 0 0 0 0 0 0 0 0 0 0 0 0 0 0 0 0 127 0" result="hardAlpha"/>
<feOffset dy="4"/>
<feGaussianBlur stdDeviation="3"/>
<feComposite in2="hardAlpha" operator="out"/>
<feColorMatrix type="matrix" values="0 0 0 0 0 0 0 0 0 0 0 0 0 0 0 0 0 0 0.16 0"/>
<feBlend mode="normal" in2="BackgroundImageFix" result="effect1_dropShadow_336_32176"/>
<feBlend mode="normal" in="SourceGraphic" in2="effect1_dropShadow_336_32176" result="shape"/>
</filter>
<clipPath id="clip0_336_32176">
<rect width="24" height="18" fill="white" transform="translate(6 3)"/>
</clipPath>
</defs>
</svg>
