<svg width="36" height="31" viewBox="0 0 36 31" fill="none" xmlns="http://www.w3.org/2000/svg">
<g filter="url(#filter0_d_336_32761)">
<g clip-path="url(#clip0_336_32761)">
<path fill-rule="evenodd" clip-rule="evenodd" d="M6 3H40.2V4.3875H6V3ZM6 5.77125H40.2V7.15875H6V5.77125ZM6 8.53875H40.2V9.92625H6V8.53875ZM6 11.3063H40.2V12.6938H6V11.3063ZM6 14.0813H40.2V15.4613H6V14.0813ZM6 16.845H40.2V18.2325H6V16.845ZM6 19.6125H40.2V21H6V19.6125Z" fill="#BD3D44"/>
<path fill-rule="evenodd" clip-rule="evenodd" d="M6 4.38672H40.2V5.77047H6V4.38672ZM6 7.15422H40.2V8.53797H6V7.15422ZM6 9.92172H40.2V11.3092H6V9.92172ZM6 12.693H40.2V14.0805H6V12.693ZM6 15.4605H40.2V16.848H6V15.4605ZM6 18.228H40.2V19.6155H6V18.228Z" fill="white"/>
<path fill-rule="evenodd" clip-rule="evenodd" d="M6 3H19.68V12.6937H6V3Z" fill="#192F5D"/>
<path fill-rule="evenodd" clip-rule="evenodd" d="M7.13812 3.41211L7.26562 3.79836H7.66313L7.34062 4.03461L7.46437 4.42086L7.13812 4.18086L6.81562 4.41711L6.93563 4.03461L6.60938 3.79836H7.01813L7.13812 3.41211ZM9.41812 3.41211L9.54187 3.79836H9.94687L9.62062 4.03461L9.74062 4.42086L9.41812 4.18086L9.09187 4.41711L9.21562 4.03461L8.89312 3.79836H9.29062L9.41812 3.41211ZM11.6981 3.41211L11.8219 3.79836H12.2231L11.9006 4.03461L12.0244 4.42086L11.6981 4.18086L11.3719 4.41711L11.4956 4.03461L11.1694 3.79836H11.5744L11.6981 3.41211ZM13.9781 3.41211L14.1019 3.79836H14.5069L14.1806 4.03461L14.3044 4.42086L13.9781 4.18086L13.6519 4.41711L13.7794 4.03461L13.4494 3.79836H13.8506L13.9781 3.41211ZM16.2581 3.41211L16.3819 3.79836H16.7831L16.4606 4.03461L16.5844 4.42086L16.2581 4.18086L15.9319 4.41711L16.0556 4.03461L15.7331 3.79836H16.1344L16.2581 3.41211ZM18.5381 3.41211L18.6619 3.79836H19.0669L18.7369 4.03461L18.8644 4.42086L18.5381 4.18086L18.2119 4.41711L18.3394 4.03461L18.0094 3.79836H18.4144L18.5381 3.41211ZM8.27812 4.38711L8.40187 4.76961H8.81062L8.48438 5.00211L8.60437 5.38836L8.28562 5.15211L7.95937 5.38836L8.07562 5.00211L7.76062 4.76961H8.16187L8.27812 4.38711ZM10.5581 4.38711L10.6856 4.76961H11.0869L10.7569 5.00211L10.8844 5.38836L10.5581 5.15211L10.2319 5.38836L10.3556 5.00211L10.0294 4.76961H10.4344L10.5581 4.38711ZM12.8381 4.38711L12.9619 4.76961H13.3669L13.0406 5.00211L13.1644 5.38836L12.8381 5.15211L12.5119 5.38836L12.6356 5.00211L12.3131 4.76961H12.7106L12.8381 4.38711ZM15.1181 4.38711L15.2456 4.76961H15.6469L15.3169 5.00211L15.4444 5.38836L15.1181 5.15211L14.7956 5.38836L14.9156 5.00211L14.5894 4.76961H14.9981L15.1181 4.38711ZM17.3981 4.38711L17.5219 4.76961H17.9269L17.6006 5.00211L17.7244 5.38836L17.3981 5.15211L17.0719 5.38836L17.1956 5.00211L16.8731 4.76961H17.2744L17.3981 4.38711ZM7.13812 5.34711L7.26562 5.73711H7.66313L7.34062 5.97336L7.46437 6.35586L7.13812 6.11961L6.81562 6.35586L6.93563 5.97336L6.60938 5.73711H7.01813L7.13812 5.34711ZM9.41812 5.34711L9.54187 5.73711H9.94687L9.62062 5.97336L9.74062 6.35586L9.41812 6.11961L9.09187 6.35586L9.21562 5.96961L8.89312 5.73336H9.29062L9.41812 5.34711ZM11.6981 5.34711L11.8219 5.73336H12.2231L11.9006 5.96961L12.0244 6.35211L11.6981 6.11586L11.3719 6.35211L11.4956 5.96586L11.1694 5.72961H11.5744L11.6981 5.34711ZM13.9781 5.34711L14.1019 5.73336H14.5069L14.1806 5.96961L14.3044 6.35211L13.9781 6.11586L13.6519 6.35211L13.7794 5.96586L13.4494 5.72961H13.8506L13.9781 5.34711ZM16.2581 5.34711L16.3819 5.73336H16.7831L16.4606 5.96961L16.5844 6.35211L16.2581 6.11586L15.9319 6.35211L16.0556 5.96586L15.7331 5.72961H16.1344L16.2581 5.34711ZM18.5381 5.34711L18.6619 5.73336H19.0669L18.7369 5.96961L18.8644 6.35211L18.5381 6.11586L18.2119 6.35211L18.3394 5.96586L18.0094 5.72961H18.4144L18.5381 5.34711ZM8.27812 6.32211L8.40187 6.70461H8.81062L8.48438 6.94086L8.60812 7.32711L8.28187 7.08711L7.95562 7.32336L8.07937 6.94086L7.75688 6.70461H8.15812L8.27812 6.32211ZM10.5581 6.32211L10.6856 6.70461H11.0869L10.7569 6.94086L10.8844 7.32711L10.5581 7.08711L10.2319 7.32336L10.3556 6.94086L10.0294 6.70461H10.4344L10.5581 6.32211ZM12.8381 6.32211L12.9619 6.70461H13.3669L13.0406 6.94086L13.1644 7.32711L12.8381 7.08711L12.5119 7.32336L12.6356 6.94086L12.3131 6.70461H12.7106L12.8381 6.32211ZM15.1181 6.32211L15.2456 6.70461H15.6469L15.3206 6.94086L15.4444 7.32711L15.1181 7.08711L14.7956 7.32336L14.9156 6.94086L14.5894 6.70461H14.9981L15.1181 6.32211ZM17.3981 6.32211L17.5219 6.70461H17.9269L17.6006 6.94086L17.7244 7.32711L17.3981 7.08711L17.0719 7.32336L17.1956 6.94086L16.8731 6.70461H17.2744L17.3981 6.32211ZM7.13812 7.29336L7.26562 7.67586H7.66313L7.34062 7.91211L7.46437 8.29836L7.13812 8.05836L6.81562 8.29461L6.93563 7.91211L6.60938 7.67586H7.01813L7.13812 7.29336ZM9.41812 7.29336L9.54187 7.67586H9.94687L9.62062 7.91211L9.74062 8.29461L9.41812 8.05836L9.09187 8.29461L9.21562 7.91211L8.89312 7.67586H9.29062L9.41812 7.29336ZM11.6981 7.29336L11.8219 7.67586H12.2231L11.9006 7.91211L12.0244 8.29836L11.6981 8.05836L11.3719 8.29461L11.4956 7.91211L11.1694 7.67586H11.5744L11.6981 7.29336ZM13.9781 7.29336L14.1019 7.67586H14.5069L14.1806 7.91211L14.3044 8.29836L13.9781 8.05836L13.6519 8.29461L13.7794 7.91211L13.4494 7.67586H13.8506L13.9781 7.29336ZM16.2581 7.29336L16.3819 7.67586H16.7831L16.4606 7.91211L16.5844 8.29836L16.2581 8.05836L15.9319 8.29461L16.0556 7.91211L15.7331 7.67586H16.1344L16.2581 7.29336ZM18.5381 7.29336L18.6619 7.67586H19.0669L18.7369 7.91211L18.8644 8.29836L18.5381 8.05836L18.2119 8.29461L18.3356 7.91211L18.0056 7.67586H18.4106L18.5381 7.29336ZM8.27812 8.26086L8.40187 8.64711H8.81062L8.48438 8.87961L8.60812 9.26586L8.28187 9.02586L7.95562 9.26586L8.07937 8.87961L7.75688 8.64336H8.15812L8.27812 8.26086ZM10.5581 8.26086L10.6856 8.64711H11.0869L10.7569 8.87961L10.8844 9.26586L10.5581 9.02586L10.2319 9.26586L10.3556 8.87961L10.0294 8.64336H10.4344L10.5581 8.26086ZM12.8381 8.26086L12.9619 8.64711H13.3669L13.0406 8.87961L13.1644 9.26586L12.8381 9.02586L12.5119 9.26586L12.6356 8.87961L12.3131 8.64336H12.7106L12.8381 8.26086ZM15.1181 8.26086L15.2456 8.64711H15.6469L15.3206 8.87961L15.4444 9.26586L15.1181 9.02586L14.7956 9.26586L14.9156 8.87961L14.5894 8.64336H14.9981L15.1181 8.26086ZM17.3981 8.26086L17.5219 8.64711H17.9269L17.6006 8.87961L17.7244 9.26586L17.3981 9.02586L17.0719 9.26586L17.1956 8.87961L16.8731 8.64336H17.2744L17.3981 8.26086ZM7.13812 9.22836L7.26562 9.61461H7.66313L7.34062 9.85086L7.46437 10.2296L7.13812 9.99711L6.81562 10.2296L6.93563 9.84711L6.60938 9.61086H7.01813L7.13812 9.22836ZM9.41812 9.22836L9.54187 9.61461H9.94687L9.62062 9.85086L9.74438 10.2296L9.41812 9.99711L9.09187 10.2296L9.21938 9.84711L8.89312 9.61086H9.29062L9.41812 9.22836ZM11.6981 9.22836L11.8219 9.61461H12.2231L11.9006 9.85086L12.0244 10.2296L11.6981 9.99711L11.3719 10.2296L11.4956 9.84711L11.1694 9.61086H11.5744L11.6981 9.22836ZM13.9781 9.22836L14.1019 9.61461H14.5069L14.1806 9.85086L14.3044 10.2296L13.9781 9.99711L13.6519 10.2296L13.7794 9.84711L13.4494 9.61086H13.8506L13.9781 9.22836ZM16.2581 9.22836L16.3819 9.61461H16.7831L16.4606 9.85086L16.5844 10.2296L16.2581 9.99711L15.9319 10.2296L16.0556 9.84711L15.7331 9.61086H16.1344L16.2581 9.22836ZM18.5381 9.22836L18.6619 9.61461H19.0669L18.7369 9.85086L18.8644 10.2296L18.5381 9.99711L18.2119 10.2296L18.3394 9.84711L18.0094 9.61086H18.4144L18.5381 9.22836ZM8.27812 10.1996L8.40187 10.5821H8.81062L8.48438 10.8184L8.60812 11.2046L8.28187 10.9646L7.95562 11.2009L8.07937 10.8184L7.75688 10.5821H8.15812L8.27812 10.1996ZM10.5581 10.1996L10.6856 10.5821H11.0869L10.7569 10.8184L10.8844 11.2046L10.5581 10.9646L10.2319 11.2009L10.3556 10.8184L10.0294 10.5821H10.4344L10.5581 10.1996ZM12.8381 10.1996L12.9619 10.5821H13.3669L13.0406 10.8184L13.1644 11.2046L12.8381 10.9646L12.5119 11.2009L12.6356 10.8184L12.3131 10.5821H12.7106L12.8381 10.1996ZM15.1181 10.1996L15.2456 10.5821H15.6469L15.3206 10.8184L15.4444 11.2046L15.1181 10.9646L14.7956 11.2009L14.9156 10.8184L14.5894 10.5821H14.9981L15.1181 10.1996ZM17.3981 10.1996L17.5219 10.5821H17.9269L17.6006 10.8184L17.7244 11.2046L17.3981 10.9646L17.0719 11.2009L17.1956 10.8184L16.8731 10.5821H17.2744L17.3981 10.1996ZM7.13812 11.1709L7.26562 11.5534H7.66313L7.34062 11.7896L7.46437 12.1721L7.13812 11.9359L6.81562 12.1721L6.93563 11.7859L6.60938 11.5496H7.01813L7.13812 11.1709ZM9.41812 11.1709L9.54187 11.5534H9.94687L9.62062 11.7896L9.74438 12.1721L9.41812 11.9359L9.09187 12.1721L9.21938 11.7859L8.89312 11.5496H9.29062L9.41812 11.1709ZM11.6981 11.1709L11.8219 11.5534H12.2231L11.9081 11.7896L12.0319 12.1721L11.7056 11.9359L11.3794 12.1721L11.5031 11.7859L11.1769 11.5496H11.5819L11.6981 11.1709ZM13.9781 11.1709L14.1019 11.5534H14.5069L14.1806 11.7896L14.3044 12.1721L13.9781 11.9359L13.6519 12.1721L13.7794 11.7859L13.4494 11.5496H13.8506L13.9781 11.1709ZM16.2581 11.1709L16.3819 11.5534H16.7831L16.4606 11.7896L16.5844 12.1721L16.2581 11.9359L15.9319 12.1721L16.0556 11.7859L15.7331 11.5496H16.1344L16.2581 11.1709ZM18.5381 11.1709L18.6619 11.5534H19.0669L18.7369 11.7896L18.8644 12.1721L18.5381 11.9359L18.2119 12.1721L18.3394 11.7859L18.0094 11.5496H18.4144L18.5381 11.1709Z" fill="white"/>
</g>
</g>
<defs>
<filter id="filter0_d_336_32761" x="0" y="-2" width="36" height="36" filterUnits="userSpaceOnUse" color-interpolation-filters="sRGB">
<feFlood flood-opacity="0" result="BackgroundImageFix"/>
<feColorMatrix in="SourceAlpha" type="matrix" values="0 0 0 0 0 0 0 0 0 0 0 0 0 0 0 0 0 0 127 0" result="hardAlpha"/>
<feOffset dy="4"/>
<feGaussianBlur stdDeviation="3"/>
<feComposite in2="hardAlpha" operator="out"/>
<feColorMatrix type="matrix" values="0 0 0 0 0 0 0 0 0 0 0 0 0 0 0 0 0 0 0.16 0"/>
<feBlend mode="normal" in2="BackgroundImageFix" result="effect1_dropShadow_336_32761"/>
<feBlend mode="normal" in="SourceGraphic" in2="effect1_dropShadow_336_32761" result="shape"/>
</filter>
<clipPath id="clip0_336_32761">
<rect width="24" height="18" fill="white" transform="translate(6 3)"/>
</clipPath>
</defs>
</svg>
