<svg width="36" height="31" viewBox="0 0 36 31" fill="none" xmlns="http://www.w3.org/2000/svg">
<g filter="url(#filter0_d_336_33459)">
<g clip-path="url(#clip0_336_33459)">
<path fill-rule="evenodd" clip-rule="evenodd" d="M3 3H30V21H3V3Z" fill="#198A00"/>
<path fill-rule="evenodd" clip-rule="evenodd" d="M26.832 9.46875H29.9996V21H26.832V9.46875Z" fill="#EF7D00"/>
<path fill-rule="evenodd" clip-rule="evenodd" d="M23.668 9.46094H26.832V20.9922H23.668V9.46094Z" fill="black"/>
<path fill-rule="evenodd" clip-rule="evenodd" d="M20.4371 9.46875H23.668V21H20.4336L20.4371 9.46875Z" fill="#DE2010"/>
<path fill-rule="evenodd" clip-rule="evenodd" d="M27.8737 5.30664C27.8737 5.30664 29.069 4.79688 29.1815 4.69141C29.2342 4.75469 28.7034 5.39453 27.6733 5.63008C28.6084 5.41211 29.4065 4.71602 29.5717 4.73711C29.6174 4.74766 29.6069 5.41562 27.4624 5.9957C28.9459 5.60898 29.8073 4.8918 29.7967 4.96914C29.8073 4.98672 29.6491 5.53164 28.3518 5.95703C28.7139 5.87266 29.6983 5.275 29.6877 5.39102C29.7194 5.43672 28.7385 6.69883 26.9596 6.2875C28.3799 6.65664 29.2975 5.76719 29.4276 5.78477C29.4557 5.78828 29.1674 6.5582 27.3815 6.60742C28.2358 6.51953 27.9897 6.60391 27.9897 6.60391C27.9897 6.60391 27.487 6.99766 26.8752 6.73047C27.3534 6.86055 27.4061 6.86758 27.4167 6.90625C27.385 6.9625 26.9948 7.03984 26.6116 6.83594C26.9174 6.9625 27.1917 6.98359 27.1952 7.0293C27.1917 7.04336 26.9983 7.15586 26.8225 7.075C26.6502 6.99766 25.0542 6.0168 25.0542 6.0168L27.7752 5.26797L27.8737 5.30313V5.30664ZM24.6745 7.96445C24.4354 7.96445 24.4284 8.17539 24.4284 8.17539C24.4284 8.17539 24.4108 8.19297 24.4213 8.29492L24.4811 8.20352C24.5092 8.20703 24.6182 8.23867 24.7905 8.10508C24.6323 8.27031 24.7272 8.33008 24.7272 8.33008C24.7272 8.33008 24.692 8.46016 24.8116 8.48477C24.7764 8.43203 24.7975 8.38633 24.7975 8.38633C24.7975 8.38633 24.9663 8.36875 24.9557 8.16484C24.9592 8.35117 25.0612 8.39688 25.0612 8.39688C25.0612 8.39688 25.0612 8.49883 25.1702 8.50937C25.1139 8.45664 25.1245 8.37578 25.1245 8.37578C25.1245 8.37578 25.2651 8.27031 25.1491 8.09453C25.2194 8.05234 25.2792 7.93633 25.2792 7.93633C25.2792 7.93633 25.1807 7.89414 25.135 7.85898C25.1139 7.81328 25.135 7.56016 25.135 7.56016L25.0717 7.2332L24.903 7.74297C24.91 7.67266 24.9135 7.96445 24.6745 7.96445V7.96445Z" fill="#EF7D00" stroke="black" stroke-width="0.0657895" stroke-linejoin="round"/>
<path fill-rule="evenodd" clip-rule="evenodd" d="M25.8586 7.2293C25.8656 7.23281 26.0379 7.42617 26.2066 7.41562C26.2699 7.36289 26.0766 7.25039 26.0766 7.22227C26.1469 7.28555 26.4316 7.53164 26.618 7.44375C26.6883 7.33828 26.4844 7.35586 26.2594 7.07109C26.4176 7.17656 26.8113 7.40508 26.9977 7.31719C27.0715 7.23281 26.5863 6.96914 26.4211 6.76523L25.9992 6.55078L25.4297 7.01836L25.8621 7.2293H25.8586Z" fill="#EF7D00" stroke="black" stroke-width="0.0657895" stroke-linejoin="round"/>
<path fill-rule="evenodd" clip-rule="evenodd" d="M25.2148 5.62934C25.2148 5.62934 25.4082 5.51684 26.1852 5.57309C26.2695 5.58364 26.7125 5.42192 26.8566 5.3727C27.0816 5.33052 27.8059 5.17583 27.9957 5.02817C28.1363 5.01059 27.9605 5.27778 27.7848 5.34458C27.602 5.42544 26.9375 5.65747 26.6984 5.62583C26.9832 5.62934 26.825 5.86138 26.3539 5.75239C26.5789 5.87895 26.4945 5.90005 26.4945 5.90005C26.4945 5.90005 26.0973 5.92114 25.9918 5.82973C26.259 5.93169 26.1465 5.97036 26.1465 5.97036C26.1465 5.97036 25.8758 5.99497 25.7492 5.9352C25.9426 5.99497 25.8441 6.03013 25.8441 6.03013C25.8441 6.03013 25.6859 6.05825 25.5559 6.00903C25.4223 5.96333 25.2254 5.63286 25.2148 5.63286V5.62934Z" fill="#EF7D00" stroke="black" stroke-width="0.0657895" stroke-linecap="round" stroke-linejoin="round"/>
<path fill-rule="evenodd" clip-rule="evenodd" d="M25.5236 7.33789L25.5518 7.85117L25.5236 7.89336C25.5131 7.90742 25.1615 7.83711 25.2072 8.1043C25.2072 8.2168 25.2072 8.24492 25.2846 8.30469C25.267 8.23437 25.2705 8.18164 25.2705 8.18164C25.2705 8.18164 25.3725 8.24141 25.4674 8.07617C25.4006 8.23789 25.4463 8.29766 25.4639 8.30117C25.4779 8.3293 25.4357 8.45937 25.5693 8.45586C25.5166 8.40664 25.5412 8.33633 25.5412 8.33633C25.5412 8.33633 25.6818 8.31523 25.6326 8.06563C25.6818 8.01641 25.7029 8.06563 25.7029 8.06563C25.7029 8.06563 25.717 8.21328 25.84 8.18164C25.8928 8.21328 25.8295 8.29414 25.8295 8.29414C25.8295 8.29414 25.9174 8.29414 25.9455 8.22383C25.9701 8.14648 26.0018 8.01289 25.8576 7.95664C25.84 7.90391 25.9139 7.90039 25.9139 7.90039C25.9139 7.90039 26.0053 7.93203 26.0334 7.97773C26.0615 8.02344 26.051 7.8582 25.935 7.83711C25.7943 7.83711 25.7873 7.80547 25.7873 7.80195L25.7521 7.32031L25.5236 7.33789V7.33789Z" fill="#EF7D00" stroke="black" stroke-width="0.0657895" stroke-linejoin="round"/>
<path fill-rule="evenodd" clip-rule="evenodd" d="M26.0121 7.77436C26.0121 7.74975 25.773 7.42631 25.8363 7.38764C25.8961 7.39819 25.9945 7.54585 26.0789 7.49663C26.0543 7.44038 25.9804 7.47202 25.8996 7.32436C25.8152 7.15561 25.8046 6.906 25.5129 6.6353C25.7027 6.92358 26.1246 7.09233 26.1457 7.00796C26.1668 6.92358 25.7695 6.60717 25.7906 6.52983C25.8679 6.68452 26.2617 7.03608 26.55 7.00796C26.5711 6.93764 26.3144 6.80405 26.2476 6.67749C26.0613 6.55092 25.5656 6.12553 25.5586 6.0271C25.4713 5.87881 25.3525 5.75158 25.2105 5.65444C25.1974 5.63647 25.1879 5.61619 25.1824 5.59467C25.0699 5.331 25.2175 5.24311 25.3054 5.23256C25.3757 5.22202 25.3968 5.23256 25.4461 5.20796L25.2668 5.13764C25.3476 5.19741 25.548 5.14467 25.5058 5.31342C25.5937 5.27827 25.7836 5.05327 25.2914 5.00405C25.1296 4.82124 24.4722 4.71577 24.307 5.51733C24.3211 5.52788 24.3281 5.53842 24.3703 5.56655C24.1593 5.46811 23.6004 5.39077 23.4 5.35561C22.8515 5.20092 22.2855 4.82124 22.2328 4.86694C22.1625 4.9021 22.5632 5.27475 22.5421 5.28178C22.2295 5.10373 21.9066 4.94409 21.5754 4.80366C21.3644 4.72631 21.157 4.5435 21.1359 4.57866C21.0586 4.73686 21.4699 5.13764 21.5472 5.18335C21.6246 5.22905 22.2257 5.5103 22.2152 5.51381C21.3082 5.10249 21.1605 5.02514 21.1113 4.97944C21.0304 4.96186 20.8371 4.69819 20.7843 4.71577C20.7527 4.74389 20.8125 5.15874 21.2449 5.34858C21.3152 5.3978 22.173 5.70366 22.166 5.72827C22.166 5.7353 21.1816 5.32397 21.1464 5.30639C20.9566 5.23608 20.7246 4.97592 20.6824 5.00405C20.6402 5.03217 20.7879 5.31342 20.9777 5.40131C21.0796 5.4435 21.4629 5.63335 21.8074 5.75288C21.8285 5.76342 21.1851 5.5103 20.8757 5.38374C20.7351 5.30639 20.6718 5.20796 20.6507 5.22905C20.6156 5.25014 20.7 5.66499 21.6949 5.89702C21.7195 5.91108 22.0464 5.82319 22.0289 5.83374C21.8463 5.87964 21.6606 5.91253 21.4734 5.93217C21.4629 5.9603 21.5367 6.10796 22.05 6.07983C22.1132 6.07631 22.4718 5.94975 22.4402 5.97436C22.2694 6.03953 22.0958 6.09701 21.9199 6.14663C21.8882 6.14663 21.723 6.16772 21.716 6.18178C21.7089 6.20991 21.839 6.31538 22.1132 6.32944C22.3593 6.3435 22.8234 6.18178 22.8164 6.19233C22.8023 6.20288 22.3664 6.35405 22.3558 6.36108C22.3382 6.37163 22.18 6.37866 22.173 6.39272C22.1589 6.42436 22.405 6.65288 23.1257 6.40678C23.0554 6.50522 22.7039 6.57202 22.7039 6.5896C22.7039 6.60366 22.7812 6.67749 22.9043 6.70561C22.964 6.71967 23.0484 6.71616 23.1257 6.70561C23.2664 6.67749 23.407 6.62475 23.5933 6.45249C23.6144 6.50522 23.1328 6.75131 23.1539 6.77241C23.2593 6.87085 23.6074 6.76186 23.6285 6.7478C23.6531 6.73725 24.2964 6.37163 24.2964 6.32592C24.307 6.38217 23.4632 6.84272 23.4738 6.8603C23.5265 6.94467 23.8148 6.85678 23.8254 6.84624L24.205 6.64233C24.2156 6.63881 23.7902 6.88842 23.8254 6.93061C23.8078 7.09585 24.4933 6.81811 24.5461 6.78296C24.5707 6.76538 24.2156 6.93764 24.2156 7.0185C24.3316 7.21186 24.6972 7.1521 24.7535 7.10991C24.7816 7.08881 24.7183 7.25053 24.7394 7.23647C24.7826 7.19222 24.8183 7.14115 24.8449 7.0853C24.8379 7.14155 24.7957 7.22592 24.7746 7.32436C24.75 7.41928 24.7429 7.53178 24.7113 7.6478C24.7043 7.69702 24.9363 7.54585 24.9011 7.18374C24.9222 7.37358 24.8308 7.72514 24.8554 7.74624C24.9011 7.78139 25.0382 7.57046 25.0523 7.42631C25.091 7.49663 25.1754 7.6478 25.2492 7.68296C25.2421 7.57397 25.2492 7.57749 25.214 7.47202C25.2351 7.32788 25.2386 7.131 25.2421 6.906C25.439 7.28217 25.5199 7.44389 25.4636 7.73217C25.5234 7.75678 25.6148 7.52827 25.6078 7.41577C25.6298 7.51004 25.6805 7.59516 25.7529 7.65939C25.8253 7.72362 25.9159 7.76379 26.0121 7.77436V7.77436Z" fill="#EF7D00" stroke="black" stroke-width="0.0723684" stroke-linecap="round" stroke-linejoin="round"/>
<path fill-rule="evenodd" clip-rule="evenodd" d="M22.7359 5.38086C22.7359 5.38086 22.5988 5.48281 22.4336 5.47578C22.4758 5.64453 22.8203 5.51445 22.8203 5.51445C22.8203 5.51445 22.6551 5.70078 22.5355 5.72891C22.6059 5.78867 22.9082 5.76758 22.9574 5.73945C23.0066 5.70781 23.098 5.5918 23.098 5.5918C23.098 5.5918 22.7887 5.95039 22.7465 5.94688C22.7359 5.98906 23.0664 5.975 23.1332 5.91172C23.2035 5.84844 23.3793 5.75703 23.3793 5.75703C23.3793 5.75703 22.9223 6.07344 22.9047 6.07344C23.0734 6.11563 23.4145 6.01719 23.6324 5.88359C23.309 6.09805 23.2809 6.13672 23.1156 6.21055C23.2633 6.24219 23.3371 6.34063 23.8293 6.12617C24.1105 5.99258 24.2723 5.74648 24.2723 5.74648C24.0576 5.99972 23.8007 6.21383 23.5129 6.3793C23.4953 6.41445 23.8434 6.56211 24.2828 6.10156" fill="#EF7D00"/>
<path d="M22.7359 5.38086C22.7359 5.38086 22.5988 5.48281 22.4336 5.47578C22.4758 5.64453 22.8203 5.51445 22.8203 5.51445C22.8203 5.51445 22.6551 5.70078 22.5355 5.72891C22.6059 5.78867 22.9082 5.76758 22.9574 5.73945C23.0066 5.70781 23.098 5.5918 23.098 5.5918C23.098 5.5918 22.7887 5.95039 22.7465 5.94688C22.7359 5.98906 23.0664 5.975 23.1332 5.91172C23.2035 5.84844 23.3793 5.75703 23.3793 5.75703C23.3793 5.75703 22.9223 6.07344 22.9047 6.07344C23.0734 6.11563 23.4145 6.01719 23.6324 5.88359C23.309 6.09805 23.2809 6.13672 23.1156 6.21055C23.2633 6.24219 23.3371 6.34063 23.8293 6.12617C24.1105 5.99258 24.2723 5.74648 24.2723 5.74648C24.0576 5.99972 23.8007 6.21383 23.5129 6.3793C23.4953 6.41445 23.8434 6.56211 24.2828 6.10156" stroke="black" stroke-width="0.0723684" stroke-linecap="round" stroke-linejoin="round"/>
<path fill-rule="evenodd" clip-rule="evenodd" d="M25.1266 6.375C25.1266 6.375 25.1582 6.51562 25.2777 6.62109C25.3973 6.72656 25.4043 6.83203 25.4043 6.83203M25.0703 5.46094C25.0703 5.46094 25.109 5.59102 25.232 5.67188C25.3586 5.74922 25.5484 6.00234 25.559 6.04805C25.573 6.10078 25.6469 6.49102 25.6398 6.5332M24.3109 5.6543C24.318 5.70703 24.1352 5.94609 24.3883 6.23086C24.1563 6.51211 24.1562 6.54727 24.1562 6.54727C24.1562 6.54727 24.2863 6.61758 24.5148 6.4207C24.8945 6.88477 24.768 7.0957 24.768 7.0957" fill="#EF7D00"/>
<path d="M25.1266 6.375C25.1266 6.375 25.1582 6.51562 25.2777 6.62109C25.3973 6.72656 25.4043 6.83203 25.4043 6.83203M25.0703 5.46094C25.0703 5.46094 25.109 5.59102 25.232 5.67188C25.3586 5.74922 25.5484 6.00234 25.559 6.04805C25.573 6.10078 25.6469 6.49102 25.6398 6.5332M24.3109 5.6543C24.318 5.70703 24.1352 5.94609 24.3883 6.23086C24.1563 6.51211 24.1562 6.54727 24.1562 6.54727C24.1562 6.54727 24.2863 6.61758 24.5148 6.4207C24.8945 6.88477 24.768 7.0957 24.768 7.0957" stroke="black" stroke-width="0.0723684" stroke-linecap="round"/>
<path fill-rule="evenodd" clip-rule="evenodd" d="M24.7363 6.76875C24.7363 6.76875 24.7011 6.71953 24.7644 6.5332C24.8207 6.60352 24.884 6.61406 24.9086 6.63867C24.9367 6.67031 25.225 6.70898 25.239 6.90234" fill="#EF7D00"/>
<path d="M24.7363 6.76875C24.7363 6.76875 24.7011 6.71953 24.7644 6.5332C24.8207 6.60352 24.884 6.61406 24.9086 6.63867C24.9367 6.67031 25.225 6.70898 25.239 6.90234" stroke="black" stroke-width="0.0723684" stroke-linecap="round" stroke-linejoin="round"/>
<path fill-rule="evenodd" clip-rule="evenodd" d="M25.075 5.02106C25.075 5.007 25.0152 4.88044 24.8008 5.03512C24.9168 5.04216 25.0293 5.10895 25.075 5.02106Z" fill="#EF7D00" stroke="black" stroke-width="0.0723684"/>
<path fill-rule="evenodd" clip-rule="evenodd" d="M27.1176 5.58398C27.1281 5.59102 27.7574 5.72461 27.9684 5.65781C27.7012 6.01641 27.1633 5.77383 27.1633 5.77383C27.427 5.85117 27.4375 5.84414 27.5219 5.92148C27.55 5.9918 27.0367 5.95664 26.8715 5.86172C27.3391 6.00938 27.3496 6.00234 27.3637 6.05508C27.3848 6.13594 26.5973 6.03398 26.5305 5.93203C26.7414 6.09375 26.8539 6.12539 26.9699 6.19922C26.8293 6.2625 26.5656 6.32578 26.084 5.98477C26.7168 6.56133 27.2899 6.52617 27.3813 6.62812C27.1598 6.95508 26.302 6.43477 25.9082 6.17109C25.5145 5.90742 26.7695 6.80742 26.8856 6.79336C26.8293 6.88125 26.4145 6.80391 26.3863 6.7582" fill="#EF7D00"/>
<path d="M27.1176 5.58398C27.1281 5.59102 27.7574 5.72461 27.9684 5.65781C27.7012 6.01641 27.1633 5.77383 27.1633 5.77383C27.427 5.85117 27.4375 5.84414 27.5219 5.92148C27.55 5.9918 27.0367 5.95664 26.8715 5.86172C27.3391 6.00938 27.3496 6.00234 27.3637 6.05508C27.3848 6.13594 26.5973 6.03398 26.5305 5.93203C26.7414 6.09375 26.8539 6.12539 26.9699 6.19922C26.8293 6.2625 26.5656 6.32578 26.084 5.98477C26.7168 6.56133 27.2899 6.52617 27.3813 6.62812C27.1598 6.95508 26.302 6.43477 25.9082 6.17109C25.5145 5.90742 26.7695 6.80742 26.8856 6.79336C26.8293 6.88125 26.4145 6.80391 26.3863 6.7582" stroke="black" stroke-width="0.0723684" stroke-linejoin="round"/>
<path fill-rule="evenodd" clip-rule="evenodd" d="M27.2805 6.18945C27.2102 6.2 26.9887 6.2 26.957 6.19297Z" fill="#EF7D00"/>
<path d="M27.2805 6.18945C27.2102 6.2 26.9887 6.2 26.957 6.19297" stroke="black" stroke-width="0.0723684" stroke-linecap="round"/>
<path fill-rule="evenodd" clip-rule="evenodd" d="M22.5508 5.28516C22.5508 5.28516 23.0289 5.53828 23.2328 5.5207C23.1939 5.55354 23.1483 5.57753 23.0992 5.59102C23.1484 5.61211 23.2891 5.68594 23.5 5.64023L23.384 5.7457C23.384 5.7457 23.5668 5.81602 23.7707 5.71055C23.7357 5.75224 23.7029 5.79565 23.6723 5.84063L23.8164 5.85117" fill="#EF7D00"/>
<path d="M22.5508 5.28516C22.5508 5.28516 23.0289 5.53828 23.2328 5.5207C23.1939 5.55354 23.1483 5.57753 23.0992 5.59102C23.1484 5.61211 23.2891 5.68594 23.5 5.64023L23.384 5.7457C23.384 5.7457 23.5668 5.81602 23.7707 5.71055C23.7357 5.75224 23.7029 5.79565 23.6723 5.84063L23.8164 5.85117" stroke="black" stroke-width="0.0723684" stroke-linecap="round" stroke-linejoin="round"/>
</g>
</g>
<defs>
<filter id="filter0_d_336_33459" x="0" y="-2" width="36" height="36" filterUnits="userSpaceOnUse" color-interpolation-filters="sRGB">
<feFlood flood-opacity="0" result="BackgroundImageFix"/>
<feColorMatrix in="SourceAlpha" type="matrix" values="0 0 0 0 0 0 0 0 0 0 0 0 0 0 0 0 0 0 127 0" result="hardAlpha"/>
<feOffset dy="4"/>
<feGaussianBlur stdDeviation="3"/>
<feComposite in2="hardAlpha" operator="out"/>
<feColorMatrix type="matrix" values="0 0 0 0 0 0 0 0 0 0 0 0 0 0 0 0 0 0 0.16 0"/>
<feBlend mode="normal" in2="BackgroundImageFix" result="effect1_dropShadow_336_33459"/>
<feBlend mode="normal" in="SourceGraphic" in2="effect1_dropShadow_336_33459" result="shape"/>
</filter>
<clipPath id="clip0_336_33459">
<rect width="24" height="18" fill="white" transform="translate(6 3)"/>
</clipPath>
</defs>
</svg>
