<svg width="36" height="31" viewBox="0 0 36 31" fill="none" xmlns="http://www.w3.org/2000/svg">
<g filter="url(#filter0_d_336_28117)">
<g clip-path="url(#clip0_336_28117)">
<path fill-rule="evenodd" clip-rule="evenodd" d="M3.26172 3H32.6453V13.7754H3.26172V3Z" fill="#E73E2D"/>
<path fill-rule="evenodd" clip-rule="evenodd" d="M16.2203 12.9168C15.5383 12.3824 14.2656 12.5652 14.0547 11.1133C15.0285 11.8691 14.8527 11.0711 16.3047 11.7918L16.2203 12.9168Z" fill="#FEC74A" stroke="#D8AA3F" stroke-width="0.132813"/>
<path fill-rule="evenodd" clip-rule="evenodd" d="M16.4024 12.2609C15.9138 11.5437 14.6446 11.3258 14.8907 9.88086C15.5903 10.8969 15.6641 10.0813 16.8313 11.2133L16.4024 12.2609Z" fill="#FEC74A" stroke="#D8AA3F" stroke-width="0.132813"/>
<path fill-rule="evenodd" clip-rule="evenodd" d="M16.6269 11.7891C16.4511 10.9418 15.3612 10.2562 16.1417 9.01172C16.3948 10.2211 16.7745 9.49687 17.4214 10.9875L16.6269 11.7891Z" fill="#FEC74A" stroke="#D8AA3F" stroke-width="0.132813"/>
<path fill-rule="evenodd" clip-rule="evenodd" d="M17.1344 11.3539C17.2294 10.4926 16.4032 9.50469 17.5247 8.5625C17.3981 9.78945 17.9817 9.21992 18.1399 10.8336L17.1344 11.3539V11.3539Z" fill="#FEC74A" stroke="#D8AA3F" stroke-width="0.132813"/>
<path fill-rule="evenodd" clip-rule="evenodd" d="M17.5938 11.0043C18.0297 10.2555 17.6816 9.01797 19.0914 8.61719C18.4727 9.68242 19.2391 9.40117 18.7223 10.9375L17.5938 11.0043V11.0043Z" fill="#FEC74A" stroke="#D8AA3F" stroke-width="0.132813"/>
<path fill-rule="evenodd" clip-rule="evenodd" d="M18.25 11.0966C18.9039 10.5271 18.9672 9.2404 20.4297 9.30719C19.5051 10.1228 20.3242 10.0982 19.3398 11.3955L18.25 11.0966Z" fill="#FEC74A" stroke="#D8AA3F" stroke-width="0.132813"/>
<path fill-rule="evenodd" clip-rule="evenodd" d="M18.832 11.4345C19.623 11.0794 20.059 9.87005 21.4371 10.3622C20.3121 10.872 21.1031 11.09 19.7848 12.0392L18.832 11.4345V11.4345Z" fill="#FEC74A" stroke="#D8AA3F" stroke-width="0.132813"/>
<path fill-rule="evenodd" clip-rule="evenodd" d="M19.3242 11.964C20.182 11.8445 20.9414 10.8039 22.1262 11.6687C20.9063 11.841 21.5988 12.2699 20.0695 12.8113L19.3242 11.9605V11.964Z" fill="#FEC74A" stroke="#D8AA3F" stroke-width="0.132813"/>
<path fill-rule="evenodd" clip-rule="evenodd" d="M22.3824 12.127L18.4414 12.2148L18.6066 13.2766L22.3824 12.127Z" fill="#FEC74A" stroke="#D8AA3F" stroke-width="0.132813"/>
<path fill-rule="evenodd" clip-rule="evenodd" d="M21.8016 10.6777L18.1523 12.0805L18.7605 13.2512L21.8016 10.6777V10.6777Z" fill="#FEC74A" stroke="#D8AA3F" stroke-width="0.132813"/>
<path fill-rule="evenodd" clip-rule="evenodd" d="M18.9035 12.8688L20.7914 9.4375L17.8945 12.134L18.9035 12.8688Z" fill="#FEC74A" stroke="#D8AA3F" stroke-width="0.132813"/>
<path fill-rule="evenodd" clip-rule="evenodd" d="M18.8648 12.5844L19.4695 8.73828L17.5781 12.1555L18.8648 12.5844Z" fill="#FEC74A" stroke="#D8AA3F" stroke-width="0.132813"/>
<path fill-rule="evenodd" clip-rule="evenodd" d="M18.6367 12.2707L18.0039 8.39648L17.3008 12.2883L18.6367 12.2707Z" fill="#FEC74A" stroke="#D8AA3F" stroke-width="0.132813"/>
<path fill-rule="evenodd" clip-rule="evenodd" d="M18.3113 11.9395L16.4727 8.70508L17.1758 12.6355L18.3113 11.9395Z" fill="#FEC74A" stroke="#D8AA3F" stroke-width="0.132813"/>
<path fill-rule="evenodd" clip-rule="evenodd" d="M18.023 11.916L15.1719 9.50781L17.1969 12.9531L18.023 11.916V11.916Z" fill="#FEC74A" stroke="#D8AA3F" stroke-width="0.132813"/>
<path fill-rule="evenodd" clip-rule="evenodd" d="M14.1719 10.6953L17.2305 13.223L17.7016 11.9012L14.1719 10.6953Z" fill="#FEC74A" stroke="#D8AA3F" stroke-width="0.132813"/>
<path fill-rule="evenodd" clip-rule="evenodd" d="M17.198 12.1719L13.6016 12.1191L17.184 13.3145L17.198 12.1719V12.1719Z" fill="#FEC74A" stroke="#D8AA3F" stroke-width="0.132813"/>
<path fill-rule="evenodd" clip-rule="evenodd" d="M20.1162 12.8156C20.1279 13.1062 20.0808 13.3961 19.9777 13.6681C19.8746 13.94 19.7177 14.1882 19.5162 14.398C19.3148 14.6077 19.073 14.7746 18.8055 14.8886C18.538 15.0026 18.2502 15.0613 17.9594 15.0613C17.6686 15.0613 17.3808 15.0026 17.1132 14.8886C16.8457 14.7746 16.604 14.6077 16.4025 14.398C16.2011 14.1882 16.0441 13.94 15.941 13.6681C15.8379 13.3961 15.7908 13.1062 15.8025 12.8156C15.825 12.2587 16.0621 11.732 16.4641 11.3459C16.8662 10.9598 17.402 10.7441 17.9594 10.7441C18.5168 10.7441 19.0526 10.9598 19.4546 11.3459C19.8566 11.732 20.0937 12.2587 20.1162 12.8156V12.8156Z" fill="#FEC74A" stroke="#D8AA3F" stroke-width="0.132813"/>
<path fill-rule="evenodd" clip-rule="evenodd" d="M3.23398 13.666H32.7617V20.9996H3.23047L3.23398 13.666Z" fill="#005989"/>
<path fill-rule="evenodd" clip-rule="evenodd" d="M3.21719 18.9602C3.76562 19.2133 4.55313 19.8496 5.39688 19.8496C6.80313 19.8391 6.83828 18.8863 8.26562 18.932C9.69648 18.9672 9.43633 19.9727 11.3664 19.9691C12.9625 19.9621 13.4758 18.7492 14.8539 18.8934C15.8734 18.8406 16.2883 20.043 17.8527 20.0605C19.477 20.0957 20.0711 18.7492 21.0871 18.8617C22.177 18.8617 22.5285 19.9445 24.0508 19.9516C25.9914 19.9621 26.3324 18.8266 27.5418 18.8969C28.4066 18.8793 29.0887 19.7301 30.3543 19.7512C31.3598 19.7687 32.207 19.0059 32.7801 18.7316L32.8047 17.4379C32.207 17.6594 31.3141 18.3906 30.4246 18.3977C29.1379 18.4469 28.3469 17.5539 27.4539 17.5645C26.3852 17.575 25.9598 18.6648 24.1492 18.6648C22.4898 18.6648 22.1102 17.5645 21.0414 17.5645C19.9973 17.5715 19.6773 18.7598 17.8668 18.7387C16.3902 18.7211 15.8172 17.6031 14.773 17.6137C13.6656 17.6137 12.523 18.7 11.2926 18.6473C9.60508 18.577 9.23594 17.6137 8.12852 17.6137C7.30234 17.6137 6.40586 18.5137 5.41094 18.5277C4.41953 18.5453 3.30508 17.6313 3.20312 17.6137L3.21719 18.9602V18.9602ZM3.21719 16.3938C3.76562 16.6504 4.55313 17.2867 5.39688 17.2867C6.80313 17.2762 6.83828 16.3234 8.26562 16.3656C9.69648 16.4008 9.43633 17.4098 11.3664 17.4027C12.9625 17.4027 13.4758 16.1863 14.8539 16.3305C15.8734 16.2777 16.2883 17.4801 17.8527 17.4941C19.477 17.5293 20.0711 16.1863 21.0871 16.2988C22.177 16.2988 22.5285 17.3816 24.0508 17.3887C25.9914 17.3992 26.3324 16.2637 27.5418 16.334C28.4066 16.3164 29.0887 17.1672 30.3543 17.1883C31.3598 17.2059 32.207 16.443 32.7801 16.1688L32.8047 14.875C32.207 15.0965 31.3141 15.8242 30.4246 15.8348C29.1379 15.8805 28.3469 14.991 27.4539 15.0016C26.3852 15.0121 25.9598 16.102 24.1492 16.102C22.4898 16.102 22.1102 15.0016 21.0414 15.0016C19.9973 15.0086 19.6773 16.1969 17.8668 16.1758C16.3902 16.1582 15.8172 15.0402 14.773 15.0508C13.6656 15.0508 12.523 16.1336 11.2926 16.0809C9.60508 16.0105 9.23594 15.0473 8.12852 15.0473C7.30234 15.0473 6.40586 15.9508 5.41094 15.9648C4.41953 15.9789 3.30508 15.0684 3.20312 15.0508L3.21719 16.3973V16.3938Z" fill="white"/>
<path fill-rule="evenodd" clip-rule="evenodd" d="M3.21719 13.8637C3.76562 14.1168 4.55312 14.7496 5.39336 14.7496C6.79961 14.7426 6.83477 13.7863 8.26211 13.832C9.68945 13.8672 9.4293 14.8727 11.3594 14.8691C12.952 14.8656 13.4687 13.6492 14.8398 13.7969C15.8594 13.7441 16.2742 14.9465 17.8387 14.9605C19.4594 14.9957 20.0535 13.6492 21.073 13.7617C22.1559 13.7617 22.5145 14.8445 24.0332 14.8516C25.9668 14.8621 26.3078 13.7266 27.5207 13.7969C28.382 13.7793 29.0641 14.6301 30.3262 14.6512C31.3352 14.6687 32.1789 13.9059 32.7519 13.6316L32.7766 12.3379C32.1789 12.5629 31.2895 13.2906 30.3965 13.2977C29.1168 13.3469 28.3223 12.4574 27.4293 12.4645C26.3641 12.475 25.9387 13.5648 24.1246 13.5648C22.4723 13.5648 22.0926 12.4645 21.0238 12.4645C19.9797 12.475 19.6598 13.6598 17.8562 13.6387C16.3797 13.6211 15.8066 12.5066 14.7625 12.5137C13.6551 12.5137 12.5125 13.6 11.2891 13.5473C9.59805 13.477 9.23242 12.5137 8.125 12.5137C7.29883 12.5137 6.40586 13.4137 5.41094 13.4277C4.41953 13.4453 3.30859 12.5348 3.20312 12.5137L3.21719 13.8602V13.8637Z" fill="white"/>
<path fill-rule="evenodd" clip-rule="evenodd" d="M13.8477 5.67227C15.9922 5.52461 15.6055 5.3418 16.4668 5.20117C17.5566 5.35234 17.6797 6.00977 18.2879 6.41406C18.2879 6.41406 18.0594 7.1875 17.3141 7.07852C17.2121 6.76914 17.6727 6.6707 16.3473 5.86211C15.5738 5.81641 14.1922 5.99922 13.8512 5.67227H13.8477ZM20.5027 6.86406L18.9559 6.92734V7.31055C20 7.3457 20.1863 7.20508 20.5027 6.86406Z" fill="#FFC84B" stroke="#D8AA3F" stroke-width="0.140625"/>
<path fill-rule="evenodd" clip-rule="evenodd" d="M15.1836 6.79631C15.4543 6.65921 15.5879 6.71546 15.8234 6.70842C15.9816 7.00022 16.1328 7.02483 16.4844 7.05999C16.6399 7.29053 16.8485 7.48043 17.0925 7.61377C17.3366 7.74712 17.6091 7.82003 17.8871 7.82639C18.9383 7.79827 19.2723 7.0635 19.9789 6.98264H20.7242C20.6012 6.77171 20.5027 6.64866 20.232 6.6346C19.6766 6.60647 18.9594 6.62053 18.3336 6.76116L17.4512 6.98264C17.191 6.85608 16.5617 6.19514 16.1574 6.20921C15.9219 6.27249 15.9219 6.35335 15.8059 6.44475C15.5773 6.54319 15.3488 6.49397 15.1836 6.79631V6.79631Z" fill="#FFC84B" stroke="#D8AA3F" stroke-width="0.132813" stroke-linejoin="round"/>
<path fill-rule="evenodd" clip-rule="evenodd" d="M16.2506 6.48136C16.2535 6.49756 16.2528 6.51419 16.2486 6.53009C16.2443 6.54599 16.2367 6.56076 16.2261 6.57338C16.2156 6.58599 16.2024 6.59614 16.1875 6.6031C16.1725 6.61006 16.1563 6.61367 16.1398 6.61367C16.1234 6.61367 16.1071 6.61006 16.0922 6.6031C16.0773 6.59614 16.0641 6.58599 16.0536 6.57338C16.043 6.56076 16.0354 6.54599 16.0311 6.53009C16.0269 6.51419 16.0262 6.49756 16.0291 6.48136C16.0338 6.45537 16.0474 6.43185 16.0676 6.4149C16.0879 6.39796 16.1134 6.38867 16.1398 6.38867C16.1662 6.38867 16.1918 6.39796 16.2121 6.4149C16.2323 6.43185 16.2459 6.45537 16.2506 6.48136V6.48136Z" fill="#FFC84B" stroke="#D8AA3F" stroke-width="0.132813"/>
<path fill-rule="evenodd" clip-rule="evenodd" d="M16.969 6.79023C18.5476 4.88828 19.9257 5.12031 21.7257 4.99023C21.7855 5.21172 21.7608 5.54219 20.9065 5.83398C19.7323 6.00977 17.6335 7.24727 17.623 7.24727C17.2327 7.22617 16.9585 6.81836 16.969 6.79023V6.79023Z" fill="#FFC84B" stroke="#D8AA3F" stroke-width="0.140625"/>
<path d="M20.2164 5.54883L21.3801 5.60156M20.0898 5.74219L20.9371 5.8125" stroke="#D9A43E" stroke-width="0.140625" stroke-linecap="round"/>
</g>
</g>
<defs>
<filter id="filter0_d_336_28117" x="0" y="-2" width="36" height="36" filterUnits="userSpaceOnUse" color-interpolation-filters="sRGB">
<feFlood flood-opacity="0" result="BackgroundImageFix"/>
<feColorMatrix in="SourceAlpha" type="matrix" values="0 0 0 0 0 0 0 0 0 0 0 0 0 0 0 0 0 0 127 0" result="hardAlpha"/>
<feOffset dy="4"/>
<feGaussianBlur stdDeviation="3"/>
<feComposite in2="hardAlpha" operator="out"/>
<feColorMatrix type="matrix" values="0 0 0 0 0 0 0 0 0 0 0 0 0 0 0 0 0 0 0.16 0"/>
<feBlend mode="normal" in2="BackgroundImageFix" result="effect1_dropShadow_336_28117"/>
<feBlend mode="normal" in="SourceGraphic" in2="effect1_dropShadow_336_28117" result="shape"/>
</filter>
<clipPath id="clip0_336_28117">
<rect width="24" height="18" fill="white" transform="translate(6 3)"/>
</clipPath>
</defs>
</svg>
