<svg width="36" height="31" viewBox="0 0 36 31" fill="none" xmlns="http://www.w3.org/2000/svg">
<g filter="url(#filter0_d_336_29722)">
<g clip-path="url(#clip0_336_29722)">
<path fill-rule="evenodd" clip-rule="evenodd" d="M5.875 2.18945H32.2112V22.927H5.875V2.18945Z" fill="#EF2D29"/>
<path fill-rule="evenodd" clip-rule="evenodd" d="M12.5469 14.8984H32.6356V22.6872H12.5469V14.8984Z" fill="#009025"/>
<path fill-rule="evenodd" clip-rule="evenodd" d="M12.5467 1.67188H33.7305V8.79688H12.543L12.5467 1.67188Z" fill="white"/>
<path d="M11.2492 5.60938H10.3888C10.3423 5.60938 10.3047 5.64453 10.3047 5.68789V6.09645C10.3047 6.13981 10.3423 6.17497 10.3888 6.17497H11.2492C11.2957 6.17497 11.3333 6.13981 11.3333 6.09645V5.68789C11.3333 5.64453 11.2957 5.60938 11.2492 5.60938Z" fill="white" stroke="#EF2D28" stroke-width="0.0218943"/>
<path d="M11.2282 5.63281H10.4117C10.3677 5.63281 10.332 5.66528 10.332 5.70534V6.0793C10.332 6.11935 10.3677 6.15182 10.4117 6.15182H11.2282C11.2722 6.15182 11.3078 6.11935 11.3078 6.0793V5.70534C11.3078 5.66528 11.2722 5.63281 11.2282 5.63281Z" fill="white" stroke="#EF2D28" stroke-width="0.0203304"/>
<path fill-rule="evenodd" clip-rule="evenodd" d="M10.7842 5.77344L10.8333 5.77538L10.8354 5.79797L10.8759 5.81861L10.9074 5.79252L10.9454 5.81316L10.9099 5.83574L10.9185 5.86689L10.9631 5.86494V5.90583L10.9276 5.90427L10.9094 5.92997L10.9499 5.95918L10.9185 5.98332L10.8845 5.95762L10.8354 5.96774L10.8379 6.00552L10.7842 6.00941L10.7771 5.97281L10.7325 5.95412L10.7076 5.97982L10.6696 5.96074L10.6919 5.93153L10.665 5.91284H10.627L10.625 5.85949L10.663 5.863L10.6899 5.83185L10.6585 5.8077L10.699 5.78045L10.7279 5.80264L10.7771 5.79563L10.7842 5.77344Z" fill="white" stroke="#EF2D28" stroke-width="0.012835"/>
<path d="M10.8005 5.93236C10.8305 5.93236 10.8548 5.91165 10.8548 5.8861C10.8548 5.86055 10.8305 5.83984 10.8005 5.83984C10.7704 5.83984 10.7461 5.86055 10.7461 5.8861C10.7461 5.91165 10.7704 5.93236 10.8005 5.93236Z" fill="white" stroke="#EF2D28" stroke-width="0.0138218"/>
<path fill-rule="evenodd" clip-rule="evenodd" d="M10.4632 5.65625L10.3836 5.72678ZM10.516 5.65625L10.4364 5.72678ZM10.5681 5.65625L10.4892 5.72678ZM10.621 5.65625L10.5421 5.72678ZM10.6738 5.65625L10.5949 5.72678ZM10.7267 5.65625L10.6478 5.72678ZM10.7795 5.65625L10.7006 5.72678ZM10.8324 5.65625L10.7535 5.72678ZM10.8852 5.65625L10.8056 5.72678ZM10.9381 5.65625L10.8577 5.72678ZM10.9894 5.65625L10.9105 5.72678ZM11.0423 5.65625L10.9634 5.72678ZM10.8316 5.65625L10.7535 5.72678ZM11.0959 5.65625L11.017 5.72678ZM11.1487 5.65625L11.0698 5.72678ZM11.2015 5.65625L11.1226 5.72678ZM11.2544 5.65625L11.1755 5.72678ZM11.1755 5.65625L11.2544 5.72678ZM11.1226 5.65625L11.2015 5.72678ZM11.0698 5.65625L11.1487 5.72678ZM11.017 5.65625L11.0959 5.72678ZM10.9641 5.65625L11.043 5.72678ZM10.9113 5.65625L10.9902 5.72678ZM10.8584 5.65625L10.9381 5.72678ZM10.8056 5.65625L10.8845 5.72678ZM10.752 5.65625L10.8316 5.72678ZM10.6999 5.65625L10.7788 5.72678ZM10.647 5.65625L10.7259 5.72678ZM10.5942 5.65625L10.6731 5.72678ZM10.8056 5.65625L10.8845 5.72678ZM10.5421 5.65625L10.6202 5.72678ZM10.4885 5.65625L10.5681 5.72678ZM10.4357 5.65625L10.5153 5.72678ZM10.3828 5.65625L10.4632 5.72678ZM10.4632 6.05682L10.3843 6.12802ZM10.5153 6.05682L10.4357 6.12802ZM10.5689 6.05682L10.4892 6.12802ZM10.621 6.05682L10.5421 6.12802ZM10.6738 6.05682L10.5949 6.12802ZM10.7267 6.05682L10.6478 6.12802ZM10.7795 6.05682L10.7014 6.12802ZM10.8324 6.05682L10.7535 6.12802ZM10.8852 6.05682L10.8056 6.12802ZM10.9373 6.05682L10.8577 6.12802ZM10.9916 6.05682L10.912 6.12802ZM11.0438 6.05682L10.9649 6.12802ZM10.8324 6.05682L10.7535 6.12802ZM11.0959 6.05682L11.017 6.12802ZM11.1487 6.05682L11.0698 6.12802ZM11.2015 6.05682L11.1226 6.12802ZM11.2544 6.05682L11.1755 6.12802ZM11.1755 6.05682L11.2544 6.12802ZM11.1226 6.05682L11.2015 6.12802ZM11.0698 6.05682L11.1487 6.12802ZM11.017 6.05682L11.0959 6.12802ZM10.9641 6.05682L11.043 6.12802ZM10.9113 6.05682L10.9909 6.12802ZM10.8577 6.05682L10.9373 6.12802ZM10.8056 6.05682L10.8845 6.12802ZM10.7535 6.05682L10.8324 6.12802ZM10.7006 6.05682L10.7795 6.12802ZM10.6478 6.05682L10.7267 6.12802ZM10.5949 6.05682L10.6738 6.12802ZM10.8063 6.05682L10.8852 6.12802ZM10.5428 6.05682L10.621 6.12802ZM10.4892 6.05682L10.5689 6.12802ZM10.4364 6.05682L10.516 6.12802ZM10.3843 6.05682L10.4632 6.12802Z" fill="white"/>
<path d="M10.4632 5.65625L10.3836 5.72678M10.516 5.65625L10.4364 5.72678M10.5681 5.65625L10.4892 5.72678M10.621 5.65625L10.5421 5.72678M10.6738 5.65625L10.5949 5.72678M10.7267 5.65625L10.6478 5.72678M10.7795 5.65625L10.7006 5.72678M10.8324 5.65625L10.7535 5.72678M10.8852 5.65625L10.8056 5.72678M10.9381 5.65625L10.8577 5.72678M10.9894 5.65625L10.9105 5.72678M11.0423 5.65625L10.9634 5.72678M10.8316 5.65625L10.7535 5.72678M11.0959 5.65625L11.017 5.72678M11.1487 5.65625L11.0698 5.72678M11.2015 5.65625L11.1226 5.72678M11.2544 5.65625L11.1755 5.72678M11.1755 5.65625L11.2544 5.72678M11.1226 5.65625L11.2015 5.72678M11.0698 5.65625L11.1487 5.72678M11.017 5.65625L11.0959 5.72678M10.9641 5.65625L11.043 5.72678M10.9113 5.65625L10.9902 5.72678M10.8584 5.65625L10.9381 5.72678M10.8056 5.65625L10.8845 5.72678M10.752 5.65625L10.8316 5.72678M10.6999 5.65625L10.7788 5.72678M10.647 5.65625L10.7259 5.72678M10.5942 5.65625L10.6731 5.72678M10.8056 5.65625L10.8845 5.72678M10.5421 5.65625L10.6202 5.72678M10.4885 5.65625L10.5681 5.72678M10.4357 5.65625L10.5153 5.72678M10.3828 5.65625L10.4632 5.72678M10.4632 6.05682L10.3843 6.12802M10.5153 6.05682L10.4357 6.12802M10.5689 6.05682L10.4892 6.12802M10.621 6.05682L10.5421 6.12802M10.6738 6.05682L10.5949 6.12802M10.7267 6.05682L10.6478 6.12802M10.7795 6.05682L10.7014 6.12802M10.8324 6.05682L10.7535 6.12802M10.8852 6.05682L10.8056 6.12802M10.9373 6.05682L10.8577 6.12802M10.9916 6.05682L10.912 6.12802M11.0438 6.05682L10.9649 6.12802M10.8324 6.05682L10.7535 6.12802M11.0959 6.05682L11.017 6.12802M11.1487 6.05682L11.0698 6.12802M11.2015 6.05682L11.1226 6.12802M11.2544 6.05682L11.1755 6.12802M11.1755 6.05682L11.2544 6.12802M11.1226 6.05682L11.2015 6.12802M11.0698 6.05682L11.1487 6.12802M11.017 6.05682L11.0959 6.12802M10.9641 6.05682L11.043 6.12802M10.9113 6.05682L10.9909 6.12802M10.8577 6.05682L10.9373 6.12802M10.8056 6.05682L10.8845 6.12802M10.7535 6.05682L10.8324 6.12802M10.7006 6.05682L10.7795 6.12802M10.6478 6.05682L10.7267 6.12802M10.5949 6.05682L10.6738 6.12802M10.8063 6.05682L10.8852 6.12802M10.5428 6.05682L10.621 6.12802M10.4892 6.05682L10.5689 6.12802M10.4364 6.05682L10.516 6.12802M10.3843 6.05682L10.4632 6.12802" stroke="#EF2D28" stroke-width="0.0203304"/>
<path d="M7.79217 5.58594H6.93176C6.88531 5.58594 6.84766 5.62109 6.84766 5.66445V6.07301C6.84766 6.11637 6.88531 6.15153 6.93176 6.15153H7.79217C7.83862 6.15153 7.87628 6.11637 7.87628 6.07301V5.66445C7.87628 5.62109 7.83862 5.58594 7.79217 5.58594Z" fill="white" stroke="#EF2D28" stroke-width="0.0218943"/>
<path d="M7.77114 5.60938H6.95464C6.91066 5.60938 6.875 5.64185 6.875 5.6819V6.05586C6.875 6.09592 6.91066 6.12839 6.95464 6.12839H7.77114C7.81512 6.12839 7.85078 6.09592 7.85078 6.05586V5.6819C7.85078 5.64185 7.81512 5.60938 7.77114 5.60938Z" fill="white" stroke="#EF2D28" stroke-width="0.0203304"/>
<path fill-rule="evenodd" clip-rule="evenodd" d="M7.32714 5.75L7.37632 5.75195L7.37834 5.77453L7.4189 5.79517L7.45033 5.76908L7.48835 5.78972L7.45286 5.8123L7.46148 5.84345L7.50609 5.84151V5.88239L7.4706 5.88084L7.45236 5.90654L7.49291 5.93574L7.46148 5.95988L7.42752 5.93418L7.37834 5.94431L7.38088 5.98208L7.32714 5.98597L7.32005 5.94937L7.27544 5.93068L7.2506 5.95638L7.21258 5.9373L7.23488 5.90809L7.20802 5.8894H7.17L7.16797 5.83606L7.20599 5.83956L7.23286 5.80841L7.20143 5.78427L7.24198 5.75701L7.27088 5.7792L7.32005 5.7722L7.32714 5.75Z" fill="white" stroke="#EF2D28" stroke-width="0.012835"/>
<path d="M7.34344 5.90893C7.37347 5.90893 7.39782 5.88821 7.39782 5.86267C7.39782 5.83712 7.37347 5.81641 7.34344 5.81641C7.31341 5.81641 7.28906 5.83712 7.28906 5.86267C7.28906 5.88821 7.31341 5.90893 7.34344 5.90893Z" fill="white" stroke="#EF2D28" stroke-width="0.0138218"/>
<path fill-rule="evenodd" clip-rule="evenodd" d="M7.00617 5.63281L6.92653 5.70334ZM7.05901 5.63281L6.97937 5.70334ZM7.11111 5.63281L7.03222 5.70334ZM7.16396 5.63281L7.08506 5.70334ZM7.2168 5.63281L7.13791 5.70334ZM7.26965 5.63281L7.19075 5.70334ZM7.32249 5.63281L7.2436 5.70334ZM7.37534 5.63281L7.29644 5.70334ZM7.42818 5.63281L7.34854 5.70334ZM7.48103 5.63281L7.40064 5.70334ZM7.53239 5.63281L7.45349 5.70334ZM7.58523 5.63281L7.50634 5.70334ZM7.37459 5.63281L7.29644 5.70334ZM7.63882 5.63281L7.55992 5.70334ZM7.69167 5.63281L7.61277 5.70334ZM7.74451 5.63281L7.66562 5.70334ZM7.79736 5.63281L7.71846 5.70334ZM7.71846 5.63281L7.79736 5.70334ZM7.66562 5.63281L7.74451 5.70334ZM7.61277 5.63281L7.69167 5.70334ZM7.55992 5.63281L7.63882 5.70334ZM7.50708 5.63281L7.58598 5.70334ZM7.45423 5.63281L7.53313 5.70334ZM7.40139 5.63281L7.48103 5.70334ZM7.34854 5.63281L7.42744 5.70334ZM7.29495 5.63281L7.37459 5.70334ZM7.24285 5.63281L7.32175 5.70334ZM7.19001 5.63281L7.2689 5.70334ZM7.13716 5.63281L7.21606 5.70334ZM7.34854 5.63281L7.42744 5.70334ZM7.08506 5.63281L7.16321 5.70334ZM7.03147 5.63281L7.11111 5.70334ZM6.97863 5.63281L7.05827 5.70334ZM6.92578 5.63281L7.00617 5.70334ZM7.00617 6.03338L6.92727 6.10458ZM7.05827 6.03338L6.97863 6.10458ZM7.11186 6.03338L7.03222 6.10458ZM7.16396 6.03338L7.08506 6.10458ZM7.2168 6.03338L7.13791 6.10458ZM7.26965 6.03338L7.19075 6.10458ZM7.32249 6.03338L7.24434 6.10458ZM7.37534 6.03338L7.29644 6.10458ZM7.42818 6.03338L7.34854 6.10458ZM7.48028 6.03338L7.40064 6.10458ZM7.53462 6.03338L7.45498 6.10458ZM7.58672 6.03338L7.50782 6.10458ZM7.37534 6.03338L7.29644 6.10458ZM7.63882 6.03338L7.55992 6.10458ZM7.69167 6.03338L7.61277 6.10458ZM7.74451 6.03338L7.66562 6.10458ZM7.79736 6.03338L7.71846 6.10458ZM7.71846 6.03338L7.79736 6.10458ZM7.66562 6.03338L7.74451 6.10458ZM7.61277 6.03338L7.69167 6.10458ZM7.55992 6.03338L7.63882 6.10458ZM7.50708 6.03338L7.58598 6.10458ZM7.45423 6.03338L7.53387 6.10458ZM7.40064 6.03338L7.48028 6.10458ZM7.34854 6.03338L7.42744 6.10458ZM7.29644 6.03338L7.37534 6.10458ZM7.2436 6.03338L7.32249 6.10458ZM7.19075 6.03338L7.26965 6.10458ZM7.13791 6.03338L7.2168 6.10458ZM7.34929 6.03338L7.42818 6.10458ZM7.08581 6.03338L7.16396 6.10458ZM7.03222 6.03338L7.11186 6.10458ZM6.97937 6.03338L7.05901 6.10458ZM6.92727 6.03338L7.00617 6.10458Z" fill="white"/>
<path d="M7.00617 5.63281L6.92653 5.70334M7.05901 5.63281L6.97937 5.70334M7.11111 5.63281L7.03222 5.70334M7.16396 5.63281L7.08506 5.70334M7.2168 5.63281L7.13791 5.70334M7.26965 5.63281L7.19075 5.70334M7.32249 5.63281L7.2436 5.70334M7.37534 5.63281L7.29644 5.70334M7.42818 5.63281L7.34854 5.70334M7.48103 5.63281L7.40064 5.70334M7.53239 5.63281L7.45349 5.70334M7.58523 5.63281L7.50634 5.70334M7.37459 5.63281L7.29644 5.70334M7.63882 5.63281L7.55992 5.70334M7.69167 5.63281L7.61277 5.70334M7.74451 5.63281L7.66562 5.70334M7.79736 5.63281L7.71846 5.70334M7.71846 5.63281L7.79736 5.70334M7.66562 5.63281L7.74451 5.70334M7.61277 5.63281L7.69167 5.70334M7.55992 5.63281L7.63882 5.70334M7.50708 5.63281L7.58598 5.70334M7.45423 5.63281L7.53313 5.70334M7.40139 5.63281L7.48103 5.70334M7.34854 5.63281L7.42744 5.70334M7.29495 5.63281L7.37459 5.70334M7.24285 5.63281L7.32175 5.70334M7.19001 5.63281L7.2689 5.70334M7.13716 5.63281L7.21606 5.70334M7.34854 5.63281L7.42744 5.70334M7.08506 5.63281L7.16321 5.70334M7.03147 5.63281L7.11111 5.70334M6.97863 5.63281L7.05827 5.70334M6.92578 5.63281L7.00617 5.70334M7.00617 6.03338L6.92727 6.10458M7.05827 6.03338L6.97863 6.10458M7.11186 6.03338L7.03222 6.10458M7.16396 6.03338L7.08506 6.10458M7.2168 6.03338L7.13791 6.10458M7.26965 6.03338L7.19075 6.10458M7.32249 6.03338L7.24434 6.10458M7.37534 6.03338L7.29644 6.10458M7.42818 6.03338L7.34854 6.10458M7.48028 6.03338L7.40064 6.10458M7.53462 6.03338L7.45498 6.10458M7.58672 6.03338L7.50782 6.10458M7.37534 6.03338L7.29644 6.10458M7.63882 6.03338L7.55992 6.10458M7.69167 6.03338L7.61277 6.10458M7.74451 6.03338L7.66562 6.10458M7.79736 6.03338L7.71846 6.10458M7.71846 6.03338L7.79736 6.10458M7.66562 6.03338L7.74451 6.10458M7.61277 6.03338L7.69167 6.10458M7.55992 6.03338L7.63882 6.10458M7.50708 6.03338L7.58598 6.10458M7.45423 6.03338L7.53387 6.10458M7.40064 6.03338L7.48028 6.10458M7.34854 6.03338L7.42744 6.10458M7.29644 6.03338L7.37534 6.10458M7.2436 6.03338L7.32249 6.10458M7.19075 6.03338L7.26965 6.10458M7.13791 6.03338L7.2168 6.10458M7.34929 6.03338L7.42818 6.10458M7.08581 6.03338L7.16396 6.10458M7.03222 6.03338L7.11186 6.10458M6.97937 6.03338L7.05901 6.10458M6.92727 6.03338L7.00617 6.10458" stroke="#EF2D28" stroke-width="0.0203304"/>
<path fill-rule="evenodd" clip-rule="evenodd" d="M8.46068 6.77005C7.18082 8.02527 6.63485 8.18383 6.89153 8.28514C7.14822 8.38646 7.97217 7.73849 8.82939 6.87859C9.68661 6.0187 10.2117 5.25277 9.955 5.15146C9.69832 5.05014 9.82232 5.43616 8.46068 6.77005Z" fill="white" stroke="#EF2D28" stroke-width="0.034025"/>
<path fill-rule="evenodd" clip-rule="evenodd" d="M7.38712 7.68359L7.83594 7.80137C7.41392 8.20261 6.93906 8.36696 6.80732 8.29643C6.67557 8.22589 7.04475 8.06088 7.38787 7.68426L7.38712 7.68359Z" fill="white" stroke="#EF2D28" stroke-width="0.0187665"/>
<path fill-rule="evenodd" clip-rule="evenodd" d="M7.38805 7.73047L7.75781 7.82452C7.34672 8.21034 6.93998 8.31975 6.83486 8.2724C6.729 8.22569 7.05454 8.09325 7.38805 7.73047Z" fill="white" stroke="#EF2D28" stroke-width="0.0196761"/>
<path d="M8.76172 6.7168C8.76067 6.72285 8.75753 6.74985 8.7549 6.76056C8.7549 6.77545 8.75333 6.78663 8.75176 6.79826C8.74757 6.80851 8.74809 6.81782 8.73551 6.82154C8.7297 6.83085 8.72044 6.83809 8.7093 6.84202C8.69923 6.8492 8.68812 6.85515 8.67628 6.85971C8.66389 6.8645 8.65006 6.86548 8.63697 6.86251C8.62543 6.85552 8.61705 6.84807 8.60761 6.84202C8.60551 6.83271 8.60342 6.81921 8.6008 6.8099C8.60489 6.82232 8.60718 6.83514 8.60761 6.84807C8.60656 6.86204 8.6008 6.86856 8.59451 6.87973" stroke="#EF2D28" stroke-width="0.0197592"/>
<path d="M8.64362 6.91064L8.64047 6.90785C8.64834 6.91483 8.64519 6.91157 8.62737 6.9018C8.61479 6.89621 8.60116 6.89342 8.58491 6.89062H8.53878C8.52096 6.89062 8.5089 6.89295 8.49632 6.89621C8.48689 6.90459 8.47326 6.90925 8.4633 6.91669C8.45445 6.92263 8.44772 6.93072 8.44391 6.93997C8.435 6.94788 8.42923 6.95999 8.42084 6.96604C8.41717 6.97954 8.40984 6.97907 8.40459 6.98932C8.42032 6.99025 8.43238 6.99211 8.44076 7.00095C8.45439 7.00701 8.42923 6.9949 8.42399 6.98932C8.41351 6.98652 8.41088 6.98373 8.39463 6.98373C8.37996 6.97907 8.37052 6.98699 8.35532 6.98932C8.34641 6.99397 8.34379 6.99537 8.33226 6.99537" stroke="#EF2D28" stroke-width="0.0197592"/>
<path d="M8.46484 7.05538C8.45803 7.05538 8.42763 7.0605 8.41557 7.05538C8.40194 7.05212 8.3946 7.04607 8.38622 7.0349C8.38202 7.02698 8.38622 7.04886 8.38622 7.05817C8.38464 7.0754 8.37888 7.0754 8.36944 7.08704C8.36001 7.09262 8.35005 7.10007 8.34009 7.10473C8.33135 7.11105 8.32141 7.11594 8.31074 7.11916C8.30025 7.12381 8.28925 7.12754 8.28138 7.13359C8.27037 7.14057 8.2709 7.14895 8.26461 7.16012C8.26618 7.17409 8.2688 7.18247 8.27771 7.18899C8.28191 7.19876 8.29029 7.20854 8.29763 7.21505C8.30549 7.22902 8.31493 7.23507 8.29449 7.23833C8.28296 7.24299 8.27667 7.23926 8.26461 7.23833" stroke="#EF2D28" stroke-width="0.0197592"/>
<path d="M8.25781 7.25857C8.24943 7.25671 8.22112 7.24833 8.20854 7.24414H8.16241C8.14511 7.24554 8.14145 7.25019 8.12677 7.25578C8.11681 7.26462 8.11052 7.27068 8.09689 7.27626C8.09008 7.28418 8.07592 7.29814 8.07068 7.30838C8.06637 7.32042 8.06424 7.33299 8.06439 7.34563C8.06439 7.36285 8.06963 7.36611 8.07068 7.38101C8.07435 7.3938 8.08115 7.40572 8.0906 7.41592C8.09217 7.41964 8.09322 7.42057 8.09689 7.42151" stroke="#EF2D28" stroke-width="0.0197592"/>
<path d="M8.10156 7.45891C8.10007 7.45891 8.0971 7.46626 8.09226 7.47251C8.08147 7.48353 8.08035 7.48427 8.06435 7.48427C8.04946 7.48353 8.05132 7.47839 8.0409 7.47508C8.03606 7.46773 8.03011 7.46185 8.02453 7.45193C8.02081 7.44605 8.01746 7.43687 8.01336 7.43135C8.0089 7.42437 8.00369 7.41923 7.99922 7.41298C7.99476 7.41114 7.99327 7.40931 7.98731 7.4082C8.00071 7.41041 8.0022 7.41518 8.01076 7.42217C8.01498 7.42881 8.01883 7.43568 8.02229 7.44274C8.02378 7.45267 8.02676 7.46038 8.02713 7.47251C8.02713 7.48537 8.02713 7.49419 8.02229 7.50485C8.01671 7.51036 8.01299 7.51624 8.00592 7.52101C8.00004 7.52665 7.99468 7.5328 7.98992 7.53939L7.9687 7.55298C7.96201 7.55703 7.95419 7.56107 7.9434 7.56217C7.92963 7.56107 7.92554 7.55739 7.91549 7.55298C7.90656 7.54674 7.89986 7.54269 7.89204 7.53681C7.88563 7.53159 7.8801 7.52539 7.87567 7.51844C7.86339 7.5155 7.8552 7.5166 7.84776 7.52322C7.84144 7.52757 7.83601 7.53305 7.83175 7.53939C7.82803 7.54122 7.82133 7.54674 7.81761 7.54857" stroke="#EF2D28" stroke-width="0.0189008"/>
<path d="M7.84487 7.55664C7.84857 7.55802 7.86245 7.56765 7.86801 7.57086C7.87171 7.58324 7.87772 7.58966 7.87957 7.60296C7.88281 7.61488 7.88281 7.62864 7.88281 7.64286C7.87957 7.65753 7.87356 7.66808 7.86801 7.67954C7.85875 7.68596 7.85413 7.69055 7.8421 7.69697C7.83053 7.6988 7.81896 7.70018 7.80462 7.70018C7.79537 7.70293 7.77871 7.70431 7.76992 7.70018C7.75696 7.69834 7.74725 7.6933 7.738 7.68871C7.72735 7.68275 7.72088 7.67679 7.70931 7.67129C7.70329 7.66303 7.6945 7.65524 7.68618 7.64561C7.67877 7.63598 7.67368 7.63047 7.66859 7.61993C7.67322 7.63185 7.67924 7.64286 7.68294 7.65432C7.68988 7.66624 7.69358 7.67083 7.6945 7.6855C7.69913 7.69743 7.69774 7.7121 7.69774 7.72586C7.69635 7.73503 7.69589 7.75246 7.69173 7.76025V7.76897" stroke="#EF2D28" stroke-width="0.0194487"/>
<path d="M7.41911 7.81359V7.81824C7.41911 7.80693 7.41911 7.81225 7.42432 7.83488C7.43251 7.84419 7.45409 7.84686 7.47047 7.84286C7.48535 7.83155 7.48535 7.8229 7.51215 7.81824C7.53894 7.81957 7.54936 7.82623 7.56425 7.83488C7.58008 7.84014 7.59328 7.85029 7.60146 7.86349C7.60667 7.87746 7.60965 7.88744 7.59179 7.89277C7.57623 7.90208 7.55833 7.9078 7.53969 7.9094C7.51885 7.9094 7.50322 7.90741 7.49354 7.91805C7.47865 7.93136 7.48014 7.93935 7.48014 7.9633C7.47493 7.97062 7.47419 7.99258 7.47047 8.00123C7.45766 8.00726 7.44324 8.01002 7.42879 8.00921C7.42358 7.9959 7.41837 7.97328 7.41464 7.95931C7.41092 7.94467 7.41018 7.92338 7.4005 7.9134C7.39197 7.90194 7.38111 7.89201 7.3685 7.88412C7.36097 7.87649 7.35116 7.87095 7.34021 7.86815C7.35882 7.87613 7.36106 7.88545 7.36329 7.90541C7.34766 7.91206 7.34319 7.91739 7.31714 7.91805C7.29109 7.91606 7.28514 7.91007 7.27546 7.89676C7.27323 7.91805 7.26578 7.92471 7.26057 7.94334C7.25164 7.95532 7.24792 7.96796 7.23825 7.98459C7.24197 8.00456 7.2509 8.00522 7.25164 8.02984C7.2576 8.04648 7.2576 8.06178 7.27025 8.07176C7.2762 8.07841 7.28067 8.07908 7.29407 8.07975C7.26727 8.07975 7.2509 8.07708 7.23304 8.06777C7.21964 8.05978 7.20922 8.05047 7.19582 8.04248C7.17903 8.03117 7.16013 8.02261 7.14 8.0172C7.11841 8.0172 7.10278 8.0152 7.09385 8.02585C7.08045 8.0345 7.07152 8.04914 7.06557 8.06777C7.06185 8.08906 7.05961 8.1037 7.07078 8.11767C7.07822 8.13364 7.08045 8.13963 7.07078 8.15893C7.05961 8.17224 7.04398 8.17423 7.01868 8.17956C7.00156 8.17889 6.98444 8.17556 6.97253 8.17157" stroke="#EF2D28" stroke-width="0.0187665"/>
<path fill-rule="evenodd" clip-rule="evenodd" d="M9.92446 5.63796C10.492 4.65551 10.8685 3.81834 10.7658 3.77095C10.6621 3.72307 10.1175 4.48256 9.54989 5.46501L9.92446 5.63796V5.63796Z" fill="white" stroke="#EF2D28" stroke-width="0.0258462"/>
<path fill-rule="evenodd" clip-rule="evenodd" d="M9.88654 5.62004C10.4341 4.67227 10.8112 3.87108 10.7291 3.83316C10.6461 3.79486 10.1344 4.53391 9.58688 5.48168" fill="white"/>
<path d="M9.88654 5.62004C10.4341 4.67227 10.8112 3.87108 10.7291 3.83316C10.6461 3.79486 10.1344 4.53391 9.58688 5.48168" stroke="#EF2D28" stroke-width="0.0227061"/>
<path fill-rule="evenodd" clip-rule="evenodd" d="M9.79231 5.12644C9.72564 5.2372 9.65501 5.3641 9.5867 5.48234L9.8872 5.62109C9.95551 5.50285 10.0304 5.3779 10.0928 5.26519L9.79231 5.12644Z" fill="white" stroke="#EF2D28" stroke-width="0.02577"/>
<path fill-rule="evenodd" clip-rule="evenodd" d="M9.81771 5.16357C9.7507 5.27492 9.70466 5.35926 9.63601 5.47809L9.86032 5.58166C9.92863 5.46342 9.97959 5.37986 10.042 5.26714L9.81771 5.16357Z" fill="white" stroke="#EF2D28" stroke-width="0.02577"/>
<path fill-rule="evenodd" clip-rule="evenodd" d="M9.98252 5.29208L9.83227 5.22271L9.69906 5.45328L9.84931 5.52265L9.98252 5.29208ZM9.98252 5.29208L9.69906 5.45328ZM9.84931 5.52265L9.83227 5.22271ZM10.6602 4.11914L10.5099 4.04977Z" fill="white"/>
<path d="M9.98252 5.29208L9.69906 5.45328M9.84931 5.52265L9.83227 5.22271M10.6602 4.11914L10.5099 4.04977M9.98252 5.29208L9.83227 5.22271L9.69906 5.45328L9.84931 5.52265L9.98252 5.29208Z" stroke="#EF2D28" stroke-width="0.02577"/>
<path d="M10.6607 4.00988C10.6376 4.01572 10.6146 4.00399 10.6094 3.98368C10.6042 3.96338 10.6187 3.94218 10.6418 3.93635C10.6649 3.93051 10.6878 3.94224 10.693 3.96255C10.6982 3.98285 10.6837 4.00405 10.6607 4.00988Z" fill="#EF0000" stroke="#EF2D28" stroke-width="0.033391"/>
<path fill-rule="evenodd" clip-rule="evenodd" d="M9.70338 6.74661C10.9832 8.00183 11.5292 8.16039 11.2725 8.2617C11.0158 8.36302 10.1919 7.71505 9.33468 6.85516C8.47746 5.99526 7.95237 5.22933 8.20906 5.12802C8.46575 5.02671 8.34174 5.41272 9.70338 6.74661Z" fill="white" stroke="#EF2D28" stroke-width="0.034025"/>
<path fill-rule="evenodd" clip-rule="evenodd" d="M10.7769 7.66016L10.3281 7.77793C10.7501 8.17917 11.225 8.34352 11.3567 8.27299C11.4885 8.20246 11.1193 8.03744 10.7762 7.66082L10.7769 7.66016Z" fill="white" stroke="#EF2D28" stroke-width="0.0187665"/>
<path fill-rule="evenodd" clip-rule="evenodd" d="M10.776 7.70312L10.4062 7.79718C10.8173 8.18299 11.2241 8.2924 11.3292 8.24506C11.4351 8.19835 11.1095 8.06591 10.776 7.70312Z" fill="white" stroke="#EF2D28" stroke-width="0.0196761"/>
<path d="M9.40234 6.68945C9.40339 6.6955 9.40654 6.72251 9.40916 6.73321C9.40916 6.74811 9.41073 6.75928 9.4123 6.77092C9.4165 6.78116 9.41597 6.79047 9.42855 6.7942C9.43436 6.80351 9.44362 6.81074 9.45476 6.81468C9.46483 6.82185 9.47594 6.8278 9.48778 6.83237C9.50018 6.83715 9.51401 6.83814 9.5271 6.83516C9.53863 6.82818 9.54702 6.82073 9.55645 6.81468C9.55855 6.80537 9.56064 6.79187 9.56327 6.78256C9.55917 6.79497 9.55688 6.8078 9.55645 6.82073C9.5575 6.8347 9.56327 6.84121 9.56956 6.85239" stroke="#EF2D28" stroke-width="0.0197592"/>
<path d="M9.52044 6.88525L9.52359 6.88246C9.51573 6.88944 9.51887 6.88618 9.53669 6.87641C9.54927 6.87082 9.5629 6.86803 9.57915 6.86523H9.62528C9.6431 6.86523 9.65516 6.86756 9.66774 6.87082C9.67717 6.8792 9.6908 6.88386 9.70076 6.8913C9.70961 6.89724 9.71635 6.90533 9.72016 6.91458C9.72907 6.92249 9.73483 6.9346 9.74322 6.94065C9.74689 6.95415 9.75423 6.95368 9.75947 6.96393C9.74374 6.96486 9.73169 6.96672 9.7233 6.97556C9.70967 6.98162 9.73483 6.96951 9.74007 6.96393C9.75056 6.96113 9.75318 6.95834 9.76943 6.95834C9.7841 6.95368 9.79354 6.9616 9.80874 6.96393C9.81765 6.96858 9.82027 6.96998 9.8318 6.96998" stroke="#EF2D28" stroke-width="0.0197592"/>
<path d="M9.69922 7.0339C9.70603 7.0339 9.73644 7.03902 9.74849 7.0339C9.76212 7.03064 9.76946 7.02458 9.77785 7.01341C9.78204 7.0055 9.77785 7.02738 9.77785 7.03669C9.77942 7.05391 9.78518 7.05391 9.79462 7.06555C9.80405 7.07114 9.81401 7.07859 9.82397 7.08324C9.83271 7.08957 9.84265 7.09446 9.85333 7.09767C9.86381 7.10233 9.87482 7.10605 9.88268 7.1121C9.89369 7.11909 9.89316 7.12747 9.89945 7.13864C9.89788 7.1526 9.89526 7.16098 9.88635 7.1675C9.88216 7.17728 9.87377 7.18705 9.86643 7.19357C9.85857 7.20754 9.84913 7.21359 9.86958 7.21685C9.88111 7.2215 9.8874 7.21778 9.89945 7.21685" stroke="#EF2D28" stroke-width="0.0197592"/>
<path d="M9.90625 7.23709C9.91464 7.23523 9.94294 7.22685 9.95552 7.22266H10.0016C10.0189 7.22405 10.0226 7.22871 10.0373 7.23429C10.0473 7.24314 10.0535 7.24919 10.0672 7.25478C10.074 7.26269 10.0881 7.27666 10.0934 7.2869C10.0977 7.29894 10.0998 7.31151 10.0997 7.32414C10.0997 7.34137 10.0944 7.34462 10.0934 7.35952C10.0897 7.37232 10.0829 7.38424 10.0735 7.39444C10.0719 7.39816 10.0708 7.39909 10.0672 7.40002" stroke="#EF2D28" stroke-width="0.0197592"/>
<path d="M10.0625 7.43743C10.064 7.43743 10.067 7.44478 10.0718 7.45102C10.0826 7.46205 10.0837 7.46278 10.0997 7.46278C10.1146 7.46205 10.1127 7.4569 10.1232 7.4536C10.128 7.44625 10.134 7.44037 10.1395 7.43045C10.1433 7.42457 10.1466 7.41538 10.1507 7.40987C10.1552 7.40289 10.1604 7.39774 10.1648 7.3915C10.1693 7.38966 10.1708 7.38782 10.1768 7.38672C10.1634 7.38892 10.1619 7.3937 10.1533 7.40068C10.1491 7.40733 10.1452 7.4142 10.1418 7.42126C10.1403 7.43118 10.1373 7.4389 10.1369 7.45102C10.1369 7.46389 10.1369 7.4727 10.1418 7.48336C10.1474 7.48887 10.1511 7.49475 10.1581 7.49953C10.164 7.50517 10.1694 7.51132 10.1741 7.5179L10.1954 7.5315C10.2021 7.53554 10.2099 7.53958 10.2207 7.54069C10.2344 7.53958 10.2385 7.53591 10.2486 7.5315C10.2575 7.52525 10.2642 7.52121 10.272 7.51533C10.2784 7.51011 10.284 7.5039 10.2884 7.49696C10.3007 7.49402 10.3089 7.49512 10.3163 7.50173C10.3226 7.50609 10.328 7.51157 10.3323 7.5179C10.336 7.51974 10.3427 7.52525 10.3465 7.52709" stroke="#EF2D28" stroke-width="0.0189008"/>
<path d="M10.3192 7.53125C10.3155 7.53263 10.3016 7.54226 10.2961 7.54547C10.2924 7.55785 10.2863 7.56427 10.2845 7.57757C10.2812 7.58949 10.2812 7.60325 10.2812 7.61746C10.2845 7.63214 10.2905 7.64269 10.2961 7.65415C10.3053 7.66057 10.3099 7.66516 10.322 7.67158C10.3335 7.67341 10.3451 7.67479 10.3594 7.67479C10.3687 7.67754 10.3854 7.67892 10.3941 7.67479C10.4071 7.67295 10.4168 7.66791 10.4261 7.66332C10.4367 7.65736 10.4432 7.6514 10.4548 7.6459C10.4608 7.63764 10.4696 7.62985 10.4779 7.62022C10.4853 7.61059 10.4904 7.60508 10.4955 7.59454C10.4908 7.60646 10.4848 7.61746 10.4811 7.62893C10.4742 7.64085 10.4705 7.64544 10.4696 7.66011C10.4649 7.67204 10.4663 7.68671 10.4663 7.70047C10.4677 7.70964 10.4682 7.72707 10.4723 7.73486V7.74358" stroke="#EF2D28" stroke-width="0.0194487"/>
<path d="M10.745 7.7921V7.79676C10.745 7.78545 10.745 7.79077 10.7397 7.81339C10.7316 7.82271 10.71 7.82537 10.6936 7.82138C10.6787 7.81007 10.6787 7.80142 10.6519 7.79676C10.6251 7.79809 10.6147 7.80474 10.5998 7.81339C10.584 7.81865 10.5708 7.8288 10.5626 7.84201C10.5574 7.85598 10.5544 7.86596 10.5723 7.87128C10.5878 7.8806 10.6057 7.88631 10.6244 7.88792C10.6452 7.88792 10.6608 7.88592 10.6705 7.89657C10.6854 7.90988 10.6839 7.91786 10.6839 7.94182C10.6891 7.94914 10.6899 7.97109 10.6936 7.97974C10.7064 7.98577 10.7208 7.98854 10.7353 7.98773C10.7405 7.97442 10.7457 7.9518 10.7494 7.93782C10.7531 7.92318 10.7539 7.90189 10.7636 7.89191C10.7721 7.88045 10.7829 7.87052 10.7956 7.86263C10.8031 7.855 10.8129 7.84946 10.8238 7.84666C10.8052 7.85465 10.803 7.86396 10.8008 7.88393C10.8164 7.89058 10.8209 7.8959 10.8469 7.89657C10.873 7.89457 10.8789 7.88858 10.8886 7.87528C10.8908 7.89657 10.8983 7.90322 10.9035 7.92185C10.9124 7.93383 10.9161 7.94647 10.9258 7.96311C10.9221 7.98307 10.9132 7.98374 10.9124 8.00836C10.9065 8.02499 10.9065 8.0403 10.8938 8.05028C10.8879 8.05693 10.8834 8.0576 10.87 8.05826C10.8968 8.05826 10.9132 8.0556 10.931 8.04628C10.9444 8.0383 10.9548 8.02898 10.9682 8.021C10.985 8.00969 11.0039 8.00113 11.0241 7.99571C11.0456 7.99571 11.0613 7.99372 11.0702 8.00436C11.0836 8.01301 11.0925 8.02765 11.0985 8.04628C11.1022 8.06758 11.1044 8.08222 11.0933 8.09619C11.0858 8.11216 11.0836 8.11815 11.0933 8.13744C11.1044 8.15075 11.1201 8.15275 11.1454 8.15807C11.1625 8.15741 11.1796 8.15408 11.1915 8.15009" stroke="#EF2D28" stroke-width="0.0187665"/>
<path fill-rule="evenodd" clip-rule="evenodd" d="M8.2396 5.61647C7.67202 4.63403 7.29559 3.79685 7.39822 3.74946C7.50191 3.70158 8.04658 4.46108 8.61417 5.44352L8.2396 5.61647V5.61647Z" fill="white" stroke="#EF2D28" stroke-width="0.0258462"/>
<path fill-rule="evenodd" clip-rule="evenodd" d="M8.27752 5.59856C7.72996 4.65078 7.35288 3.84959 7.43499 3.81168C7.51794 3.77338 8.02962 4.51242 8.57718 5.4602" fill="white"/>
<path d="M8.27752 5.59856C7.72996 4.65078 7.35288 3.84959 7.43499 3.81168C7.51794 3.77338 8.02962 4.51242 8.57718 5.4602" stroke="#EF2D28" stroke-width="0.0227061"/>
<path fill-rule="evenodd" clip-rule="evenodd" d="M8.37175 5.10496C8.43842 5.21572 8.50906 5.34262 8.57737 5.46086L8.27687 5.59961C8.20856 5.48137 8.13369 5.35642 8.07125 5.24371L8.37175 5.10496Z" fill="white" stroke="#EF2D28" stroke-width="0.02577"/>
<path fill-rule="evenodd" clip-rule="evenodd" d="M8.34635 5.14209C8.41336 5.25344 8.4594 5.33777 8.52806 5.4566L8.30374 5.56018C8.23543 5.44194 8.18447 5.35837 8.12203 5.24566L8.34635 5.14209Z" fill="white" stroke="#EF2D28" stroke-width="0.02577"/>
<path fill-rule="evenodd" clip-rule="evenodd" d="M8.18155 5.2706L8.33179 5.20122L8.465 5.43179L8.31475 5.50117L8.18155 5.2706ZM8.18155 5.2706L8.465 5.43179ZM8.31475 5.50117L8.33179 5.20122ZM7.50391 4.09766L7.65416 4.02828Z" fill="white"/>
<path d="M8.18155 5.2706L8.465 5.43179M8.31475 5.50117L8.33179 5.20122M7.50391 4.09766L7.65416 4.02828M8.18155 5.2706L8.33179 5.20122L8.465 5.43179L8.31475 5.50117L8.18155 5.2706Z" stroke="#EF2D28" stroke-width="0.02577"/>
<path d="M7.5034 3.9884C7.52649 3.99423 7.54943 3.9825 7.55464 3.9622C7.55985 3.94189 7.54536 3.9207 7.52227 3.91486C7.49918 3.90903 7.47624 3.92076 7.47103 3.94106C7.46582 3.96137 7.48032 3.98256 7.5034 3.9884Z" fill="#EF0000" stroke="#EF2D28" stroke-width="0.033391"/>
<path fill-rule="evenodd" clip-rule="evenodd" d="M8.6943 5.11523C8.6943 5.94033 8.69926 6.25107 8.63873 6.29366C8.58117 6.33957 6.98047 6.29366 6.98047 6.52921C6.98047 6.76476 8.29834 7.00164 8.6943 7.00164C9.22224 7.00164 9.48522 6.76543 9.48522 6.29366V5.1159H8.6943V5.11523Z" fill="white" stroke="#EF2D28" stroke-width="0.0234752"/>
<path fill-rule="evenodd" clip-rule="evenodd" d="M8.69531 5.34961V5.46738C8.95697 5.50661 9.2241 5.50661 9.48576 5.46738V5.34961C9.2241 5.38883 8.95697 5.38883 8.69531 5.34961V5.34961Z" fill="white" stroke="#EF2D28" stroke-width="0.0203304"/>
<path fill-rule="evenodd" clip-rule="evenodd" d="M8.69531 5.11523V5.23301C8.95697 5.27223 9.2241 5.27223 9.48576 5.23301V5.11523C9.2241 5.15446 8.95697 5.15446 8.69531 5.11523V5.11523Z" fill="white" stroke="#EF2D28" stroke-width="0.0203304"/>
<path fill-rule="evenodd" clip-rule="evenodd" d="M8.69531 5.23242V5.3502C8.95697 5.38942 9.2241 5.38942 9.48576 5.3502V5.23242C9.2241 5.27164 8.95697 5.27164 8.69531 5.23242V5.23242Z" fill="white" stroke="#EF2D28" stroke-width="0.0203304"/>
<path fill-rule="evenodd" clip-rule="evenodd" d="M8.69531 5.4668V5.58457C8.95697 5.62379 9.2241 5.62379 9.48576 5.58457V5.4668C9.2241 5.50602 8.95697 5.50602 8.69531 5.4668V5.4668Z" fill="white" stroke="#EF2D28" stroke-width="0.0203304"/>
<path d="M8.73144 5.32435C8.7514 5.32435 8.76758 5.31295 8.76758 5.29889C8.76758 5.28484 8.7514 5.27344 8.73144 5.27344C8.71149 5.27344 8.69531 5.28484 8.69531 5.29889C8.69531 5.31295 8.71149 5.32435 8.73144 5.32435Z" fill="white" stroke="#EF2D28" stroke-width="0.0192734"/>
<path d="M8.87598 5.33607C8.89593 5.33607 8.91211 5.32467 8.91211 5.31061C8.91211 5.29655 8.89593 5.28516 8.87598 5.28516C8.85602 5.28516 8.83984 5.29655 8.83984 5.31061C8.83984 5.32467 8.85602 5.33607 8.87598 5.33607Z" fill="white" stroke="#EF2D28" stroke-width="0.0192734"/>
<path d="M9.0166 5.34974C9.03656 5.34974 9.05273 5.33835 9.05273 5.32429C9.05273 5.31023 9.03656 5.29883 9.0166 5.29883C8.99665 5.29883 8.98047 5.31023 8.98047 5.32429C8.98047 5.33835 8.99665 5.34974 9.0166 5.34974Z" fill="white" stroke="#EF2D28" stroke-width="0.0192734"/>
<path d="M9.16113 5.34974C9.18109 5.34974 9.19726 5.33835 9.19726 5.32429C9.19726 5.31023 9.18109 5.29883 9.16113 5.29883C9.14118 5.29883 9.125 5.31023 9.125 5.32429C9.125 5.33835 9.14118 5.34974 9.16113 5.34974Z" fill="white" stroke="#EF2D28" stroke-width="0.0192734"/>
<path d="M9.30566 5.33607C9.32562 5.33607 9.3418 5.32467 9.3418 5.31061C9.3418 5.29655 9.32562 5.28516 9.30566 5.28516C9.28571 5.28516 9.26953 5.29655 9.26953 5.31061C9.26953 5.32467 9.28571 5.33607 9.30566 5.33607Z" fill="white" stroke="#EF2D28" stroke-width="0.0192734"/>
<path d="M9.45019 5.32435C9.47015 5.32435 9.48633 5.31295 9.48633 5.29889C9.48633 5.28484 9.47015 5.27344 9.45019 5.27344C9.43024 5.27344 9.41406 5.28484 9.41406 5.29889C9.41406 5.31295 9.43024 5.32435 9.45019 5.32435Z" fill="white" stroke="#EF2D28" stroke-width="0.0192734"/>
<path fill-rule="evenodd" clip-rule="evenodd" d="M8.69367 5.70312L9.48411 6.33991ZM8.77256 5.70312L9.48486 6.26872ZM8.87751 5.72708L9.48486 6.19885ZM8.9564 5.72641L9.48486 6.12765ZM9.03604 5.72708L9.48411 6.05712ZM9.11494 5.72708L9.48411 5.98659ZM9.19384 5.72708L9.48411 5.91539ZM9.27422 5.72708L9.4856 5.86814ZM9.35237 5.72708L9.48486 5.82157ZM9.43201 5.72708L9.48411 5.77366ZM8.69367 5.77366L9.48411 6.41111ZM9.48411 5.70379L8.61328 6.41045ZM9.40447 5.70312L8.64008 6.31662ZM9.29953 5.72708L8.69292 6.19818ZM9.21989 5.72708L8.69292 6.12765ZM9.14173 5.72708L8.69367 6.05712ZM9.06284 5.72708L8.69367 5.98659ZM8.98394 5.72708L8.69367 5.91539ZM8.90356 5.72708L8.69292 5.86814ZM8.82466 5.72708L8.69292 5.82157ZM8.74502 5.72708L8.69292 5.77366ZM9.48411 5.77366L8.61328 6.48231ZM9.48411 5.84552L8.61328 6.55218ZM9.48411 5.91539L8.61328 6.62271ZM9.48411 5.98592L8.61328 6.69457ZM9.48411 6.05778L8.61328 6.76444ZM9.48411 6.12765L8.61328 6.83497ZM9.48411 6.19818L8.61328 6.9055ZM9.48411 6.26938L8.61328 6.9767ZM9.48411 6.33991L8.66613 6.99999ZM9.48411 6.41045L8.74577 6.99999ZM9.45732 6.50493L8.87676 6.9767ZM9.43201 6.59875L8.95715 6.97604ZM9.37917 6.71653L9.14099 6.90484ZM8.69367 5.84419L9.45806 6.45702ZM8.69367 5.91472L9.45806 6.52822ZM8.69367 5.98659L9.43201 6.57546ZM8.69367 6.05645L9.43201 6.64666ZM8.69367 6.12765L9.40522 6.69324ZM8.66687 6.17489L9.37917 6.74048ZM8.66687 6.24609L9.32632 6.7651ZM8.64082 6.29267L9.30027 6.81168ZM8.61328 6.33925L9.24594 6.83431ZM8.61328 6.40978L9.21989 6.88155ZM8.61328 6.48098L9.14173 6.90484Z" fill="white"/>
<path d="M8.69367 5.70312L9.48411 6.33991M8.77256 5.70312L9.48486 6.26872M8.87751 5.72708L9.48486 6.19885M8.9564 5.72641L9.48486 6.12765M9.03604 5.72708L9.48411 6.05712M9.11494 5.72708L9.48411 5.98659M9.19384 5.72708L9.48411 5.91539M9.27422 5.72708L9.4856 5.86814M9.35237 5.72708L9.48486 5.82157M9.43201 5.72708L9.48411 5.77366M8.69367 5.77366L9.48411 6.41111M9.48411 5.70379L8.61328 6.41045M9.40447 5.70312L8.64008 6.31662M9.29953 5.72708L8.69292 6.19818M9.21989 5.72708L8.69292 6.12765M9.14173 5.72708L8.69367 6.05712M9.06284 5.72708L8.69367 5.98659M8.98394 5.72708L8.69367 5.91539M8.90356 5.72708L8.69292 5.86814M8.82466 5.72708L8.69292 5.82157M8.74502 5.72708L8.69292 5.77366M9.48411 5.77366L8.61328 6.48231M9.48411 5.84552L8.61328 6.55218M9.48411 5.91539L8.61328 6.62271M9.48411 5.98592L8.61328 6.69457M9.48411 6.05778L8.61328 6.76444M9.48411 6.12765L8.61328 6.83497M9.48411 6.19818L8.61328 6.9055M9.48411 6.26938L8.61328 6.9767M9.48411 6.33991L8.66613 6.99999M9.48411 6.41045L8.74577 6.99999M9.45732 6.50493L8.87676 6.9767M9.43201 6.59875L8.95715 6.97604M9.37917 6.71653L9.14099 6.90484M8.69367 5.84419L9.45806 6.45702M8.69367 5.91472L9.45806 6.52822M8.69367 5.98659L9.43201 6.57546M8.69367 6.05645L9.43201 6.64666M8.69367 6.12765L9.40522 6.69324M8.66687 6.17489L9.37917 6.74048M8.66687 6.24609L9.32632 6.7651M8.64082 6.29267L9.30027 6.81168M8.61328 6.33925L9.24594 6.83431M8.61328 6.40978L9.21989 6.88155M8.61328 6.48098L9.14173 6.90484" stroke="#EF2D28" stroke-width="0.0203304"/>
<path fill-rule="evenodd" clip-rule="evenodd" d="M8.69531 5.58594V5.70371C8.95697 5.74293 9.2241 5.74293 9.48576 5.70371V5.58594C9.2241 5.62516 8.95697 5.62516 8.69531 5.58594V5.58594Z" fill="white" stroke="#EF2D28" stroke-width="0.0203304"/>
<path fill-rule="evenodd" clip-rule="evenodd" d="M8.61403 6.55273L9.08889 6.93002ZM8.61403 6.62393L9.03604 6.95331ZM8.61403 6.6938L8.9832 6.97726ZM8.61403 6.76433L8.87825 6.97726ZM8.61328 6.83553L8.82466 7.00055ZM8.61328 6.90606L8.74502 7.00055Z" fill="white"/>
<path d="M8.61403 6.55273L9.08889 6.93002M8.61403 6.62393L9.03604 6.95331M8.61403 6.6938L8.9832 6.97726M8.61403 6.76433L8.87825 6.97726M8.61328 6.83553L8.82466 7.00055M8.61328 6.90606L8.74502 7.00055" stroke="#EF2D28" stroke-width="0.0203304"/>
<path d="M8.73144 5.67787C8.7514 5.67787 8.76758 5.66647 8.76758 5.65241C8.76758 5.63835 8.7514 5.62695 8.73144 5.62695C8.71149 5.62695 8.69531 5.63835 8.69531 5.65241C8.69531 5.66647 8.71149 5.67787 8.73144 5.67787Z" fill="white" stroke="#EF2D28" stroke-width="0.0192734"/>
<path d="M8.87598 5.69154C8.89593 5.69154 8.91211 5.68014 8.91211 5.66608C8.91211 5.65202 8.89593 5.64062 8.87598 5.64062C8.85602 5.64062 8.83984 5.65202 8.83984 5.66608C8.83984 5.68014 8.85602 5.69154 8.87598 5.69154Z" fill="white" stroke="#EF2D28" stroke-width="0.0192734"/>
<path d="M9.0166 5.70326C9.03656 5.70326 9.05273 5.69186 9.05273 5.6778C9.05273 5.66374 9.03656 5.65234 9.0166 5.65234C8.99665 5.65234 8.98047 5.66374 8.98047 5.6778C8.98047 5.69186 8.99665 5.70326 9.0166 5.70326Z" fill="white" stroke="#EF2D28" stroke-width="0.0192734"/>
<path d="M9.16113 5.70326C9.18109 5.70326 9.19726 5.69186 9.19726 5.6778C9.19726 5.66374 9.18109 5.65234 9.16113 5.65234C9.14118 5.65234 9.125 5.66374 9.125 5.6778C9.125 5.69186 9.14118 5.70326 9.16113 5.70326Z" fill="white" stroke="#EF2D28" stroke-width="0.0192734"/>
<path d="M9.30566 5.69154C9.32562 5.69154 9.3418 5.68014 9.3418 5.66608C9.3418 5.65202 9.32562 5.64062 9.30566 5.64062C9.28571 5.64062 9.26953 5.65202 9.26953 5.66608C9.26953 5.68014 9.28571 5.69154 9.30566 5.69154Z" fill="white" stroke="#EF2D28" stroke-width="0.0192734"/>
<path d="M9.45019 5.67787C9.47015 5.67787 9.48633 5.66647 9.48633 5.65241C9.48633 5.63835 9.47015 5.62695 9.45019 5.62695C9.43024 5.62695 9.41406 5.63835 9.41406 5.65241C9.41406 5.66647 9.43024 5.67787 9.45019 5.67787Z" fill="white" stroke="#EF2D28" stroke-width="0.0192734"/>
<path fill-rule="evenodd" clip-rule="evenodd" d="M7.56162 6.81146L8.51061 6.31641ZM7.50878 6.78751L8.40566 6.31641ZM7.48273 6.74027L8.29997 6.31641ZM7.45593 6.69369L8.16823 6.31641ZM7.40234 6.64644L8.06179 6.31641ZM7.42914 6.57591L7.87721 6.3397ZM7.40234 6.528L7.74472 6.3397ZM7.40234 6.45747L7.64052 6.3397ZM7.64052 6.83475L8.53666 6.36298ZM7.72016 6.85804L8.56345 6.41023ZM7.79906 6.882L8.59025 6.45747ZM7.87795 6.90529L8.5374 6.55196ZM7.9829 6.90529L8.56345 6.5992ZM8.06179 6.92924L8.56271 6.66973ZM8.14069 6.95253L8.53666 6.74027ZM8.24638 6.95319L8.56271 6.78751ZM8.35207 6.97648L8.56345 6.85804ZM8.45925 6.97648L8.59099 6.90595Z" fill="white"/>
<path d="M7.56162 6.81146L8.51061 6.31641M7.50878 6.78751L8.40566 6.31641M7.48273 6.74027L8.29997 6.31641M7.45593 6.69369L8.16823 6.31641M7.40234 6.64644L8.06179 6.31641M7.42914 6.57591L7.87721 6.3397M7.40234 6.528L7.74472 6.3397M7.40234 6.45747L7.64052 6.3397M7.64052 6.83475L8.53666 6.36298M7.72016 6.85804L8.56345 6.41023M7.79906 6.882L8.59025 6.45747M7.87795 6.90529L8.5374 6.55196M7.9829 6.90529L8.56345 6.5992M8.06179 6.92924L8.56271 6.66973M8.14069 6.95253L8.53666 6.74027M8.24638 6.95319L8.56271 6.78751M8.35207 6.97648L8.56345 6.85804M8.45925 6.97648L8.59099 6.90595" stroke="#EF2D28" stroke-width="0.0203304"/>
<path fill-rule="evenodd" clip-rule="evenodd" d="M8.64062 6.29297H8.50889C8.46501 6.52689 8.46501 6.7657 8.50889 6.99962H8.64062C8.59675 6.7657 8.59675 6.52689 8.64062 6.29297V6.29297Z" fill="white" stroke="#EF2D28" stroke-width="0.0203304"/>
<path fill-rule="evenodd" clip-rule="evenodd" d="M7.08594 6.62227L7.40226 6.38672ZM7.08594 6.45725L7.40226 6.74005Z" fill="white"/>
<path d="M7.08594 6.62227L7.40226 6.38672M7.08594 6.45725L7.40226 6.74005" stroke="#EF2D28" stroke-width="0.0203304"/>
<path fill-rule="evenodd" clip-rule="evenodd" d="M7.55859 6.33984L7.40021 6.36344C7.36508 6.51305 7.36508 6.63863 7.40021 6.78823L7.55859 6.83501C7.52346 6.68583 7.52346 6.48945 7.55859 6.33984V6.33984Z" fill="white" stroke="#EF2D28" stroke-width="0.0144713"/>
<path fill-rule="evenodd" clip-rule="evenodd" d="M9.48598 5.16056V5.04146C9.36665 5.04279 9.28748 4.97159 9.28748 4.90039L8.8927 4.90106C8.8927 4.97159 8.81464 5.04279 8.69531 5.04279V5.16056H9.48598V5.16056Z" fill="white" stroke="#EF2D28" stroke-width="0.0248855"/>
<path fill-rule="evenodd" clip-rule="evenodd" d="M8.91797 4.75983H9.25737V4.90156H8.91797V4.75983ZM8.947 4.6181H9.22909V4.75983H8.94625L8.947 4.6181ZM8.947 4.47704H9.22909V4.6181H8.94625L8.947 4.47704ZM8.97528 4.28807H9.2008V4.47704H8.97528V4.28807ZM8.9656 4.12305H9.21122V4.28807H8.9656V4.12305Z" fill="white" stroke="#EF2D28" stroke-width="0.0218943"/>
<path d="M9.1042 4.19457C9.28473 4.19457 9.43107 4.09418 9.43107 3.97033C9.43107 3.84649 9.28473 3.74609 9.1042 3.74609C8.92368 3.74609 8.77734 3.84649 8.77734 3.97033C8.77734 4.09418 8.92368 4.19457 9.1042 4.19457Z" fill="white" stroke="#EF2D28" stroke-width="0.0206661"/>
<path fill-rule="evenodd" clip-rule="evenodd" d="M9.26462 3.95769C9.26462 4.01957 9.34615 4.12271 9.34615 4.12271C9.28693 4.16396 9.19079 4.19391 9.10081 4.19391C9.01082 4.19391 8.89854 4.17661 8.85547 4.12271C8.85547 4.12271 8.93699 4.02024 8.93699 3.95836C8.93699 3.89647 8.85547 3.81663 8.85547 3.81663C8.92685 3.77125 9.013 3.74656 9.10158 3.74609C9.19079 3.74609 9.28616 3.77604 9.34615 3.81663C9.34615 3.81663 9.26462 3.89647 9.26462 3.95836V3.95769Z" fill="white" stroke="#EF2D28" stroke-width="0.0206661"/>
<path fill-rule="evenodd" clip-rule="evenodd" d="M9.2101 3.95769C9.2101 4.01957 9.29162 4.14666 9.29162 4.14666C9.2324 4.18659 9.19164 4.19324 9.10089 4.19324C9.01014 4.19324 8.95323 4.20056 8.91016 4.14666C8.91016 4.14666 8.99168 4.02024 8.99168 3.95769C8.99168 3.89514 8.91016 3.79267 8.91016 3.79267C8.96938 3.75275 9.01014 3.74609 9.10089 3.74609C9.19087 3.74609 9.2324 3.75275 9.29162 3.79267C9.29162 3.79267 9.2101 3.89581 9.2101 3.95769Z" fill="white" stroke="#EF2D28" stroke-width="0.0206661"/>
<path d="M8.77684 4.05317C8.82186 4.05317 8.85836 4.0216 8.85836 3.98264C8.85836 3.94369 8.82186 3.91211 8.77684 3.91211C8.73181 3.91211 8.69531 3.94369 8.69531 3.98264C8.69531 4.0216 8.73181 4.05317 8.77684 4.05317Z" fill="white" stroke="#EF2D28" stroke-width="0.0206661"/>
<path d="M9.42918 4.05317C9.4742 4.05317 9.5107 4.0216 9.5107 3.98264C9.5107 3.94369 9.4742 3.91211 9.42918 3.91211C9.38416 3.91211 9.34766 3.94369 9.34766 3.98264C9.34766 4.0216 9.38416 4.05317 9.42918 4.05317Z" fill="white" stroke="#EF2D28" stroke-width="0.0206661"/>
<path d="M9.10496 4.05317C9.14998 4.05317 9.18648 4.0216 9.18648 3.98264C9.18648 3.94369 9.14998 3.91211 9.10496 3.91211C9.05994 3.91211 9.02344 3.94369 9.02344 3.98264C9.02344 4.0216 9.05994 4.05317 9.10496 4.05317Z" fill="white" stroke="#EF2D28" stroke-width="0.0206661"/>
<path d="M9.10496 3.81685C9.14998 3.81685 9.18648 3.78527 9.18648 3.74631C9.18648 3.70736 9.14998 3.67578 9.10496 3.67578C9.05994 3.67578 9.02344 3.70736 9.02344 3.74631C9.02344 3.78527 9.05994 3.81685 9.10496 3.81685Z" fill="white" stroke="#EF2D28" stroke-width="0.0206661"/>
<path d="M8.86568 5.1606C8.91232 5.1606 8.95012 5.12902 8.95012 5.09006C8.95012 5.05111 8.91232 5.01953 8.86568 5.01953C8.81905 5.01953 8.78125 5.05111 8.78125 5.09006C8.78125 5.12902 8.81905 5.1606 8.86568 5.1606Z" fill="white" stroke="#EF2D28" stroke-width="0.0210319"/>
<path d="M9.3149 5.1606C9.36153 5.1606 9.39934 5.12902 9.39934 5.09006C9.39934 5.05111 9.36153 5.01953 9.3149 5.01953C9.26827 5.01953 9.23047 5.05111 9.23047 5.09006C9.23047 5.12902 9.26827 5.1606 9.3149 5.1606Z" fill="white" stroke="#EF2D28" stroke-width="0.0210319"/>
<path fill-rule="evenodd" clip-rule="evenodd" d="M8.89062 4.90234H9.28571L9.08817 5.11461L8.89062 4.90234V4.90234Z" fill="white" stroke="#EF2D28" stroke-width="0.0210319"/>
<path d="M9.08915 5.16074C9.15133 5.16074 9.20173 5.11863 9.20173 5.0667C9.20173 5.01476 9.15133 4.97266 9.08915 4.97266C9.02697 4.97266 8.97656 5.01476 8.97656 5.0667C8.97656 5.11863 9.02697 5.16074 9.08915 5.16074Z" fill="white" stroke="#EF2D28" stroke-width="0.0280429"/>
<path d="M9.23085 5.77344H8.68825C8.67058 5.77344 8.65625 5.78446 8.65625 5.79806V5.89055C8.65625 5.90414 8.67058 5.91517 8.68825 5.91517H9.23085C9.24853 5.91517 9.26285 5.90414 9.26285 5.89055V5.79806C9.26285 5.78446 9.24853 5.77344 9.23085 5.77344Z" fill="white" stroke="#EF2D28" stroke-width="0.0187665"/>
<path fill-rule="evenodd" clip-rule="evenodd" d="M9.4462 5.65481C9.37326 5.65481 9.31446 5.71004 9.31446 5.77791V5.88504C9.31396 5.90088 9.31699 5.91665 9.32336 5.93144C9.32973 5.94623 9.33932 5.95974 9.35158 5.97118C9.36383 5.98263 9.3785 5.9918 9.39475 5.99814C9.41099 6.00448 9.42848 6.00788 9.4462 6.00814C9.46392 6.00788 9.48141 6.00448 9.49765 5.99814C9.5139 5.9918 9.52857 5.98263 9.54082 5.97118C9.55308 5.95974 9.56267 5.94623 9.56904 5.93144C9.57541 5.91665 9.57844 5.90088 9.57794 5.88504V5.77858C9.57854 5.76268 9.57558 5.74684 9.56926 5.73198C9.56293 5.71711 9.55336 5.70352 9.54109 5.692C9.52883 5.68048 9.51412 5.67126 9.49783 5.66488C9.48154 5.65849 9.46399 5.65507 9.4462 5.65481V5.65481ZM9.4462 5.70139C9.40229 5.70139 9.3673 5.74597 9.3673 5.80054V5.86242C9.3673 5.91698 9.40229 5.9609 9.4462 5.9609C9.49011 5.9609 9.5251 5.91698 9.5251 5.86242V5.80054C9.5251 5.74597 9.49011 5.70206 9.4462 5.70206V5.70139ZM8.7607 5.6781C8.71604 5.6781 8.6818 5.72202 8.6818 5.77725V5.88637C8.6818 5.94094 8.71679 5.98485 8.7607 5.98485C8.80461 5.98485 8.8396 5.94094 8.8396 5.88637V5.77658C8.8396 5.72135 8.80461 5.67744 8.7607 5.67744V5.6781ZM8.7607 5.63152C8.74298 5.63178 8.72549 5.63518 8.70925 5.64153C8.693 5.64787 8.67833 5.65703 8.66608 5.66848C8.65382 5.67993 8.64423 5.69344 8.63786 5.70823C8.63149 5.72301 8.62846 5.73878 8.62896 5.75462V5.909C8.62846 5.92484 8.63149 5.94061 8.63786 5.95539C8.64423 5.97018 8.65382 5.98369 8.66608 5.99514C8.67833 6.00659 8.693 6.01575 8.70925 6.02209C8.72549 6.02844 8.74298 6.03184 8.7607 6.0321C8.83364 6.0321 8.89244 5.97687 8.89244 5.909V5.75462C8.89304 5.73873 8.89008 5.72289 8.88376 5.70802C8.87743 5.69316 8.86786 5.67957 8.85559 5.66805C8.84333 5.65653 8.82862 5.64731 8.81233 5.64092C8.79604 5.63454 8.77849 5.63112 8.7607 5.63086V5.63152Z" fill="white" stroke="#EF2D28" stroke-width="0.0187665"/>
<path fill-rule="evenodd" clip-rule="evenodd" d="M8.54976 5.72498C8.50585 5.72498 8.47087 5.76889 8.47087 5.82346V5.84941C8.47087 5.90397 8.50585 5.94789 8.54976 5.94789C8.59442 5.94789 8.6294 5.90397 8.6294 5.84941V5.82346C8.6294 5.76889 8.59368 5.72498 8.54976 5.72498ZM8.54976 5.6784C8.53204 5.67866 8.51455 5.68206 8.49831 5.6884C8.48207 5.69474 8.46739 5.70391 8.45514 5.71536C8.44289 5.72681 8.4333 5.74032 8.42692 5.7551C8.42055 5.76989 8.41753 5.78566 8.41802 5.8015V5.87203C8.41753 5.88787 8.42055 5.90364 8.42692 5.91843C8.4333 5.93321 8.44289 5.94672 8.45514 5.95817C8.46739 5.96962 8.48207 5.97879 8.49831 5.98513C8.51455 5.99147 8.53204 5.99487 8.54976 5.99513C8.6227 5.99513 8.68225 5.9399 8.68225 5.87203V5.8015C8.68284 5.78555 8.67987 5.76965 8.6735 5.75475C8.66712 5.73984 8.65748 5.72622 8.64514 5.71469C8.6328 5.70316 8.618 5.69395 8.60162 5.6876C8.58524 5.68126 8.56761 5.6779 8.54976 5.67773V5.6784Z" fill="white" stroke="#EF2D28" stroke-width="0.0187665"/>
<path fill-rule="evenodd" clip-rule="evenodd" d="M8.2347 5.66022C8.15432 5.66022 8.09135 5.7093 8.09135 5.77028V5.89298C8.09135 5.95322 8.15566 6.00304 8.2347 6.00304C8.31241 6.00304 8.37671 5.95396 8.37671 5.89224V5.77028C8.37671 5.7093 8.31241 5.66022 8.2347 5.66022V5.66022ZM8.2347 5.60817C8.2028 5.60836 8.17129 5.61206 8.14199 5.61906C8.11269 5.62606 8.08618 5.63622 8.064 5.64895C8.04182 5.66167 8.02441 5.67671 8.01277 5.6932C8.00114 5.70969 7.99552 5.72729 7.99623 5.745V5.91752C7.99516 5.93529 8.00047 5.95299 8.01186 5.96961C8.02324 5.98622 8.04048 6.0014 8.06255 6.01428C8.08463 6.02716 8.1111 6.03746 8.14043 6.0446C8.16975 6.05173 8.20135 6.05556 8.23336 6.05584C8.366 6.05584 8.47184 5.99412 8.47184 5.91752V5.745C8.47273 5.72729 8.46728 5.70967 8.45581 5.69314C8.44434 5.67662 8.42708 5.66152 8.40502 5.64872C8.38297 5.63593 8.35656 5.62569 8.32732 5.6186C8.29808 5.61151 8.2666 5.60771 8.2347 5.60742V5.60817Z" fill="white" stroke="#EF2D28" stroke-width="0.019963"/>
<path fill-rule="evenodd" clip-rule="evenodd" d="M9.94955 5.68366C9.86916 5.68366 9.80619 5.73274 9.80619 5.79372V5.91642C9.80619 5.97666 9.8705 6.02648 9.94955 6.02648C10.0273 6.02648 10.0916 5.9774 10.0916 5.91568V5.79372C10.0916 5.73274 10.0273 5.68366 9.94955 5.68366V5.68366ZM9.94955 5.6316C9.91765 5.6318 9.88613 5.6355 9.85683 5.6425C9.82753 5.6495 9.80102 5.65966 9.77884 5.67238C9.75666 5.68511 9.73925 5.70015 9.72762 5.71664C9.71599 5.73313 9.71036 5.75073 9.71107 5.76843V5.94096C9.71 5.95873 9.71531 5.97643 9.7267 5.99304C9.73809 6.00965 9.75532 6.02484 9.7774 6.03772C9.79947 6.05059 9.82594 6.0609 9.85527 6.06804C9.8846 6.07517 9.91619 6.07899 9.94821 6.07928C10.0808 6.07928 10.1867 6.01756 10.1867 5.94096V5.76843C10.1876 5.75073 10.1821 5.73311 10.1707 5.71658C10.1592 5.70006 10.1419 5.68496 10.1199 5.67216C10.0978 5.65937 10.0714 5.64913 10.0422 5.64204C10.0129 5.63495 9.98145 5.63115 9.94955 5.63086V5.6316Z" fill="white" stroke="#EF2D28" stroke-width="0.019963"/>
<path d="M9.79921 5.77344H9.51712C9.50766 5.77344 9.5 5.78446 9.5 5.79806V5.89055C9.5 5.90414 9.50766 5.91517 9.51712 5.91517H9.79921C9.80866 5.91517 9.81633 5.90414 9.81633 5.89055V5.79806C9.81633 5.78446 9.80866 5.77344 9.79921 5.77344Z" fill="white" stroke="#EF2D28" stroke-width="0.0187665"/>
<path d="M9.38194 5.75H9.21671C9.21136 5.75 9.20703 5.7646 9.20703 5.7826V5.90637C9.20703 5.92438 9.21136 5.93897 9.21671 5.93897H9.38194C9.38729 5.93897 9.39162 5.92438 9.39162 5.90637V5.7826C9.39162 5.7646 9.38729 5.75 9.38194 5.75Z" fill="white" stroke="#EF2D28" stroke-width="0.0187665"/>
<path d="M8.51475 5.75H8.34952C8.34418 5.75 8.33984 5.7646 8.33984 5.7826V5.90637C8.33984 5.92438 8.34418 5.93897 8.34952 5.93897H8.51475C8.5201 5.93897 8.52443 5.92438 8.52443 5.90637V5.7826C8.52443 5.7646 8.5201 5.75 8.51475 5.75Z" fill="white" stroke="#EF2D28" stroke-width="0.0187665"/>
<path d="M8.10763 5.72461H7.77716C7.76648 5.72461 7.75781 5.74278 7.75781 5.7652V5.91957C7.75781 5.94199 7.76648 5.96016 7.77716 5.96016H8.10763C8.11832 5.96016 8.12699 5.94199 8.12699 5.91957V5.7652C8.12699 5.74278 8.11832 5.72461 8.10763 5.72461Z" fill="white" stroke="#EF2D28" stroke-width="0.0187665"/>
<path d="M10.3753 5.75H10.0694C10.0591 5.75 10.0508 5.76817 10.0508 5.79059V5.94496C10.0508 5.96738 10.0591 5.98555 10.0694 5.98555H10.3753C10.3856 5.98555 10.3939 5.96738 10.3939 5.94496V5.79059C10.3939 5.76817 10.3856 5.75 10.3753 5.75Z" fill="white" stroke="#EF2D28" stroke-width="0.0187665"/>
</g>
</g>
<defs>
<filter id="filter0_d_336_29722" x="0" y="-2" width="36" height="36" filterUnits="userSpaceOnUse" color-interpolation-filters="sRGB">
<feFlood flood-opacity="0" result="BackgroundImageFix"/>
<feColorMatrix in="SourceAlpha" type="matrix" values="0 0 0 0 0 0 0 0 0 0 0 0 0 0 0 0 0 0 127 0" result="hardAlpha"/>
<feOffset dy="4"/>
<feGaussianBlur stdDeviation="3"/>
<feComposite in2="hardAlpha" operator="out"/>
<feColorMatrix type="matrix" values="0 0 0 0 0 0 0 0 0 0 0 0 0 0 0 0 0 0 0.16 0"/>
<feBlend mode="normal" in2="BackgroundImageFix" result="effect1_dropShadow_336_29722"/>
<feBlend mode="normal" in="SourceGraphic" in2="effect1_dropShadow_336_29722" result="shape"/>
</filter>
<clipPath id="clip0_336_29722">
<rect width="24" height="18" fill="white" transform="translate(6 3)"/>
</clipPath>
</defs>
</svg>
