<svg width="36" height="31" viewBox="0 0 36 31" fill="none" xmlns="http://www.w3.org/2000/svg">
<g filter="url(#filter0_d_336_27356)">
<g clip-path="url(#clip0_336_27356)">
<path d="M6 3H30V21H6V3Z" fill="#D21034"/>
<path d="M6 3H30V12H6V3Z" fill="#00209F"/>
<path d="M15.1602 9.73828H20.8377V14.257H15.1602V9.73828Z" fill="white"/>
<path d="M19.1425 13.0039L17.98 13.0414L16.8287 13.0527C16.8287 13.0527 16.2363 13.2702 15.9925 13.3189C15.7525 13.3677 15.7825 13.4464 15.5988 13.4914C15.4488 13.5252 15.43 13.5327 15.3438 13.5402C15.2875 13.5402 15.2238 13.5852 15.1562 13.6302V14.2564H20.8375V13.6602C20.7775 13.6264 20.7175 13.6039 20.6575 13.5852C20.575 13.5552 20.5188 13.5252 20.3688 13.4914C20.1813 13.4502 20.2113 13.3677 19.9713 13.3189C19.7275 13.2702 19.1425 13.0039 19.1425 13.0039V13.0039Z" fill="#016A16" stroke="#016A16" stroke-width="0.0253125"/>
<path d="M17.668 11.6094H17.752L17.908 12.2514L17.872 12.4554L17.668 11.6154V11.6094Z" fill="#F1B517" stroke="black" stroke-width="0.027"/>
<path d="M17.5781 11.1777L17.6381 11.6757H17.6981L17.5781 11.1837V11.1777Z" fill="white" stroke="black" stroke-width="0.027"/>
<path d="M17.7424 12.2761L17.4844 11.5861L17.5804 11.5801L17.8804 12.4201L17.7424 12.2761V12.2761Z" fill="#F1B517" stroke="black" stroke-width="0.027"/>
<path d="M17.3633 11.1895L17.4713 11.6695H17.5553L17.3633 11.1895V11.1895Z" fill="white" stroke="black" stroke-width="0.027"/>
<path d="M17.5133 12.0354L17.3633 11.7054L17.4233 11.6934L17.7053 12.2334L17.5133 12.0354Z" fill="#F1B517" stroke="black" stroke-width="0.027"/>
<path d="M17.1602 11.3281L17.3342 11.7841H17.4182L17.1662 11.3281H17.1602Z" fill="white" stroke="black" stroke-width="0.027"/>
<path d="M17.5392 12.084L16.8492 11.334C16.6332 11.502 16.6752 11.814 16.6752 11.814L17.4552 12.426L17.5332 12.084H17.5392Z" fill="#0A328C" stroke="black" stroke-width="0.027"/>
<path d="M17.932 12.4926L17.422 11.9766C17.206 11.9886 17.374 12.3066 17.386 12.3486L17.926 12.8106V12.4926H17.932Z" fill="#D20014" stroke="black" stroke-width="0.027"/>
<path d="M17.8852 12.4083L16.8352 11.2803L16.7932 11.3103L17.9092 12.5463L17.8852 12.4083V12.4083ZM16.7752 11.2083L16.7512 11.1783V11.1243L16.5352 10.9863L16.6312 11.2083L16.7092 11.2203L16.7272 11.2443L16.7752 11.2083V11.2083Z" fill="#F1B517" stroke="black" stroke-width="0.027"/>
<path d="M16.6602 11.2863C16.7043 11.2315 16.7595 11.1865 16.8222 11.1543L16.8822 11.2443L16.7502 11.3523L16.6602 11.2923V11.2863Z" fill="#F1B517" stroke="black" stroke-width="0.027"/>
<path d="M16.5469 11.4776L16.5829 11.5376C16.6069 11.5316 16.8229 11.3276 16.8229 11.3276H16.9849L17.0269 11.2736C16.9069 11.1536 16.8049 11.2916 16.8049 11.2916L16.5469 11.4716V11.4776Z" fill="#0A328C" stroke="#0A328C" stroke-width="0.027"/>
<path d="M16.678 11.5794C16.678 11.5194 16.786 11.3874 16.798 11.3814C16.876 11.4054 16.948 11.4534 17.032 11.2734C16.96 11.3574 16.822 11.2734 16.822 11.2734L16.762 11.3214V11.3454L16.582 11.5134L16.672 11.5794H16.678Z" fill="#D20014" stroke="#D20014" stroke-width="0.027"/>
<path d="M17.2383 12.2817L16.3743 11.5977C16.2243 11.7477 16.3503 12.2097 16.3503 12.2097L17.1903 12.6657L17.2323 12.2817H17.2383Z" fill="#0A328C" stroke="black" stroke-width="0.027"/>
<path d="M17.9512 12.8397L17.2372 12.2637C16.9972 12.2997 17.1892 12.6537 17.2012 12.6957L17.9512 13.1037V12.8337V12.8397Z" fill="#D20014" stroke="black" stroke-width="0.027"/>
<path d="M17.9231 12.72L16.3871 11.568L16.3571 11.604L17.9651 12.864L17.9231 12.72V12.72ZM16.3151 11.508L16.2911 11.484L16.2791 11.436L16.0391 11.334L16.1771 11.532H16.2551L16.2791 11.556L16.3151 11.508V11.508Z" fill="#F1B517" stroke="black" stroke-width="0.027"/>
<path d="M16.2188 11.6052C16.2531 11.544 16.3001 11.4908 16.3568 11.4492L16.4288 11.5272L16.3207 11.6532L16.2188 11.6052Z" fill="#F1B517" stroke="black" stroke-width="0.027"/>
<path d="M16.1388 11.7965V11.8625C16.1628 11.8505 16.3608 11.6405 16.3608 11.6405L16.5108 11.6105L16.5468 11.5625C16.4388 11.4365 16.3248 11.6045 16.3248 11.6045L16.1328 11.7965H16.1388Z" fill="#0A328C" stroke="#0A328C" stroke-width="0.027"/>
<path d="M16.2585 11.9108C16.2465 11.8508 16.3305 11.6828 16.3425 11.6708C16.4385 11.7008 16.5225 11.7428 16.5525 11.5508C16.4925 11.6468 16.3425 11.5748 16.3425 11.5748L16.2945 11.6348V11.6648L16.1445 11.8628L16.2585 11.9108V11.9108Z" fill="#D20014" stroke="#D20014" stroke-width="0.027"/>
<path d="M17.1722 12.7023C16.8014 12.4937 16.4314 12.2837 16.0622 12.0723C15.9842 12.2103 16.0562 12.4023 16.0922 12.4323C16.0922 12.5223 16.0562 12.5703 16.1342 12.7623C16.1582 12.8823 16.2122 12.9963 16.2962 13.0623C16.3922 13.4463 16.7882 13.4763 16.9382 13.1583L17.1782 12.7023H17.1722Z" fill="#0A328C" stroke="black" stroke-width="0.027"/>
<path d="M17.899 13.1099L17.149 12.6719C16.909 12.7019 17.149 13.1519 17.167 13.1939L17.899 13.4519V13.1099Z" fill="#D20014" stroke="black" stroke-width="0.027"/>
<path d="M17.7713 12.949L16.0733 12.049L16.0433 12.085L17.8433 13.087L17.7713 12.949V12.949ZM15.9893 12.001L15.9593 11.983L15.9413 11.935L15.6953 11.875L15.8573 12.049L15.9293 12.037L15.9653 12.055L15.9893 12.001V12.001Z" fill="#F1B517" stroke="black" stroke-width="0.027"/>
<path d="M15.9102 12.1077C15.9342 12.0477 15.9582 11.9937 16.0182 11.9277L16.1022 11.9937L16.0182 12.1377L15.9102 12.1077Z" fill="#F1B517" stroke="black" stroke-width="0.027"/>
<path d="M15.8438 12.3119L15.8797 12.3839L16.0597 12.1079L16.2097 12.0539L16.2397 11.9939C16.1197 11.8859 16.0297 12.0779 16.0297 12.0779L15.8438 12.3119Z" fill="#0A328C" stroke="#0A328C" stroke-width="0.027"/>
<path d="M16.0067 12.4081C15.9947 12.3481 16.0367 12.1561 16.0487 12.1501C16.1387 12.1801 16.2167 12.1861 16.2407 11.9941C16.1807 12.0841 16.0427 12.0541 16.0427 12.0541L16.0007 12.1141L16.0067 12.1381L15.8867 12.3781L16.0067 12.4081V12.4081Z" fill="#D20014" stroke="#D20014" stroke-width="0.027"/>
<path d="M18.3242 11.6094H18.2402L18.0842 12.2514L18.1202 12.4554L18.3242 11.6154V11.6094Z" fill="#F1B517" stroke="black" stroke-width="0.027"/>
<path d="M18.4141 11.1777L18.3541 11.6757H18.2941L18.4141 11.1837V11.1777Z" fill="white" stroke="black" stroke-width="0.027"/>
<path d="M18.2498 12.2761L18.5078 11.5861L18.4118 11.5801L18.1118 12.4201L18.2498 12.2761V12.2761Z" fill="#F1B517" stroke="black" stroke-width="0.027"/>
<path d="M18.6289 11.1895L18.5209 11.6695H18.4369L18.6289 11.1895V11.1895Z" fill="white" stroke="black" stroke-width="0.027"/>
<path d="M18.4789 12.0373L18.6289 11.7073L18.5689 11.6953L18.2869 12.2353L18.4789 12.0373Z" fill="#F1B517" stroke="black" stroke-width="0.027"/>
<path d="M18.832 11.3281L18.658 11.7841H18.574L18.826 11.3281H18.832Z" fill="white" stroke="black" stroke-width="0.027"/>
<path d="M18.453 12.084L19.143 11.334C19.359 11.502 19.317 11.814 19.317 11.814L18.537 12.426L18.459 12.084H18.453Z" fill="#0A328C" stroke="black" stroke-width="0.027"/>
<path d="M18.0601 12.4926L18.5701 11.9766C18.7861 11.9886 18.6181 12.3066 18.6061 12.3486L18.0661 12.8106V12.4926H18.0601Z" fill="#D20014" stroke="black" stroke-width="0.027"/>
<path d="M18.107 12.4083L19.157 11.2803L19.199 11.3103L18.083 12.5463L18.107 12.4083V12.4083ZM19.217 11.2083L19.241 11.1783V11.1243L19.457 10.9863L19.361 11.2083L19.283 11.2203L19.265 11.2443L19.217 11.2083V11.2083Z" fill="#F1B517" stroke="black" stroke-width="0.027"/>
<path d="M19.332 11.2863C19.2878 11.2315 19.2327 11.1865 19.17 11.1543L19.11 11.2443L19.242 11.3523L19.332 11.2923V11.2863Z" fill="#F1B517" stroke="black" stroke-width="0.027"/>
<path d="M19.4453 11.4776L19.4093 11.5376C19.3853 11.5316 19.1693 11.3276 19.1693 11.3276H19.0073L18.9653 11.2736C19.0853 11.1536 19.1873 11.2916 19.1873 11.2916L19.4453 11.4716V11.4776Z" fill="#0A328C" stroke="#0A328C" stroke-width="0.027"/>
<path d="M19.3142 11.5794C19.3142 11.5194 19.2062 11.3874 19.1942 11.3814C19.1162 11.4054 19.0442 11.4534 18.9602 11.2734C19.0322 11.3574 19.1702 11.2734 19.1702 11.2734L19.2302 11.3214V11.3454L19.4102 11.5134L19.3202 11.5794H19.3142Z" fill="#D20014" stroke="#D20014" stroke-width="0.027"/>
<path d="M18.7539 12.2817L19.6179 11.5977C19.7679 11.7477 19.6419 12.2097 19.6419 12.2097L18.8019 12.6657L18.7599 12.2817H18.7539Z" fill="#0A328C" stroke="black" stroke-width="0.027"/>
<path d="M18.041 12.8397L18.755 12.2637C18.995 12.2997 18.803 12.6537 18.791 12.6957L18.041 13.1037V12.8337V12.8397Z" fill="#D20014" stroke="black" stroke-width="0.027"/>
<path d="M18.0691 12.72L19.6051 11.568L19.6351 11.604L18.0271 12.864L18.0691 12.72V12.72ZM19.6771 11.508L19.7011 11.484L19.7131 11.436L19.9531 11.334L19.8151 11.532H19.7371L19.7131 11.556L19.6771 11.508V11.508Z" fill="#F1B517" stroke="black" stroke-width="0.027"/>
<path d="M19.7734 11.6052C19.7391 11.544 19.692 11.4908 19.6354 11.4492L19.5634 11.5272L19.6714 11.6532L19.7734 11.6052Z" fill="#F1B517" stroke="black" stroke-width="0.027"/>
<path d="M19.8534 11.7965V11.8625C19.8294 11.8505 19.6314 11.6405 19.6314 11.6405L19.4814 11.6105L19.4454 11.5625C19.5534 11.4365 19.6674 11.6045 19.6674 11.6045L19.8594 11.7965H19.8534Z" fill="#0A328C" stroke="#0A328C" stroke-width="0.027"/>
<path d="M19.7337 11.9108C19.7457 11.8508 19.6617 11.6828 19.6497 11.6708C19.5537 11.7008 19.4697 11.7428 19.4397 11.5508C19.4997 11.6468 19.6497 11.5748 19.6497 11.5748L19.6977 11.6348V11.6648L19.8477 11.8628L19.7337 11.9108V11.9108Z" fill="#D20014" stroke="#D20014" stroke-width="0.027"/>
<path d="M18.8199 12.7023C19.1907 12.4937 19.5607 12.2837 19.9299 12.0723C20.0079 12.2103 19.9359 12.4023 19.8999 12.4323C19.8999 12.5223 19.9359 12.5703 19.8579 12.7623C19.8339 12.8823 19.7799 12.9963 19.6959 13.0623C19.5999 13.4463 19.2039 13.4763 19.0539 13.1583L18.8139 12.7023H18.8199Z" fill="#0A328C" stroke="black" stroke-width="0.027"/>
<path d="M18.0932 13.1099L18.8432 12.6719C19.0832 12.7019 18.8432 13.1519 18.8252 13.1939L18.0932 13.4519V13.1099Z" fill="#D20014" stroke="black" stroke-width="0.027"/>
<path d="M18.2209 12.949L19.9189 12.049L19.9489 12.085L18.1489 13.087L18.2209 12.949V12.949ZM20.0029 12.001L20.0329 11.983L20.0509 11.935L20.2969 11.875L20.1349 12.049L20.0629 12.037L20.0269 12.055L20.0029 12.001V12.001Z" fill="#F1B517" stroke="black" stroke-width="0.027"/>
<path d="M20.082 12.1077C20.058 12.0477 20.034 11.9937 19.974 11.9277L19.89 11.9937L19.974 12.1377L20.082 12.1077Z" fill="#F1B517" stroke="black" stroke-width="0.027"/>
<path d="M20.1484 12.3119L20.1124 12.3839L19.9324 12.1079L19.7824 12.0539L19.7524 11.9939C19.8724 11.8859 19.9624 12.0779 19.9624 12.0779L20.1484 12.3119Z" fill="#0A328C" stroke="#0A328C" stroke-width="0.027"/>
<path d="M19.9855 12.4081C19.9975 12.3481 19.9555 12.1561 19.9435 12.1501C19.8535 12.1801 19.7755 12.1861 19.7515 11.9941C19.8115 12.0841 19.9495 12.0541 19.9495 12.0541L19.9915 12.1141L19.9855 12.1381L20.1055 12.3781L19.9855 12.4081V12.4081Z" fill="#D20014" stroke="#D20014" stroke-width="0.027"/>
<path d="M17.9297 10.5367L17.8997 11.0767H18.0737L18.0497 10.5367L18.2297 10.5187L18.2117 10.3027L17.7617 10.3207V10.5127L17.9297 10.5367V10.5367Z" fill="#016A16" stroke="#016A16" stroke-width="0.027"/>
<path d="M17.9883 10.3131C17.5203 9.84514 17.1543 10.0731 17.0703 10.1391C17.1303 10.1511 17.1783 10.1151 17.2083 10.1091L17.1483 10.1811C17.1483 10.1811 17.2983 10.1211 17.3163 10.1211C17.2923 10.1391 17.2683 10.1811 17.2683 10.1811C17.2803 10.1811 17.3643 10.1151 17.3763 10.1151C17.3523 10.1391 17.3463 10.2051 17.3463 10.2051L17.4183 10.1751C17.4363 10.1871 17.4123 10.2111 17.4243 10.2111C17.5443 10.1991 17.7063 10.3131 17.7243 10.3491" fill="#016A16"/>
<path d="M17.9883 10.3131C17.5203 9.84514 17.1543 10.0731 17.0703 10.1391C17.1303 10.1511 17.1783 10.1151 17.2083 10.1091L17.1483 10.1811C17.1483 10.1811 17.2983 10.1211 17.3163 10.1211C17.2923 10.1391 17.2683 10.1811 17.2683 10.1811C17.2803 10.1811 17.3643 10.1151 17.3763 10.1151C17.3523 10.1391 17.3463 10.2051 17.3463 10.2051L17.4183 10.1751C17.4363 10.1871 17.4123 10.2111 17.4243 10.2111C17.5443 10.1991 17.7063 10.3131 17.7243 10.3491" stroke="black" stroke-width="0.027"/>
<path d="M17.8738 10.3971C17.8258 10.2891 16.9378 10.0971 16.7578 10.4151C16.8298 10.4331 16.8958 10.3551 16.8958 10.3551V10.4271L17.0098 10.3311L16.9678 10.4271L17.0578 10.3491V10.4271L17.1778 10.3071L17.1598 10.3731L17.2618 10.3311L17.2498 10.3911" fill="#016A16"/>
<path d="M17.8738 10.3971C17.8258 10.2891 16.9378 10.0971 16.7578 10.4151C16.8298 10.4331 16.8958 10.3551 16.8958 10.3551V10.4271L17.0098 10.3311L16.9678 10.4271L17.0578 10.3491V10.4271L17.1778 10.3071L17.1598 10.3731L17.2618 10.3311L17.2498 10.3911" stroke="black" stroke-width="0.027"/>
<path d="M17.8308 10.4159C17.6028 10.2659 17.2548 10.3679 17.2548 10.3679C17.0268 10.4879 16.9068 10.4699 16.8828 10.7039C16.9008 10.6979 16.9608 10.6199 16.9608 10.6199L17.0088 10.7099L17.0208 10.5839L17.0568 10.6859L17.1168 10.5179L17.1288 10.6319L17.2128 10.5179L17.2488 10.5539L17.2848 10.4639L17.3208 10.5239C17.3208 10.5239 17.3808 10.4879 17.4108 10.5059L17.4708 10.4339L17.4888 10.4879L17.5488 10.4279L17.5668 10.4699L17.6208 10.4219V10.4579H17.8008" fill="#016A16"/>
<path d="M17.8308 10.4159C17.6028 10.2659 17.2548 10.3679 17.2548 10.3679C17.0268 10.4879 16.9068 10.4699 16.8828 10.7039C16.9008 10.6979 16.9608 10.6199 16.9608 10.6199L17.0088 10.7099L17.0208 10.5839L17.0568 10.6859L17.1168 10.5179L17.1288 10.6319L17.2128 10.5179L17.2488 10.5539L17.2848 10.4639L17.3208 10.5239C17.3208 10.5239 17.3808 10.4879 17.4108 10.5059L17.4708 10.4339L17.4888 10.4879L17.5488 10.4279L17.5668 10.4699L17.6208 10.4219V10.4579H17.8008" stroke="black" stroke-width="0.027"/>
<path d="M17.7828 10.4395C17.6208 10.4395 17.1648 10.6135 17.0508 10.7875C17.0761 10.7741 17.1022 10.762 17.1288 10.7515L17.1468 10.8235L17.1768 10.7515L17.1828 10.8115C17.2008 10.7635 17.2188 10.7635 17.2548 10.8055L17.2668 10.7395L17.2848 10.7995L17.3148 10.7335C17.3148 10.7335 17.3328 10.8055 17.3448 10.8055C17.3448 10.8055 17.3928 10.6735 17.4168 10.6675L17.4228 10.7515L17.4528 10.6675L17.4828 10.7275V10.6435L17.5188 10.7035C17.5188 10.7035 17.5308 10.6435 17.5548 10.6315L17.6028 10.6735L17.8068 10.5235" fill="#016A16"/>
<path d="M17.7828 10.4395C17.6208 10.4395 17.1648 10.6135 17.0508 10.7875C17.0761 10.7741 17.1022 10.762 17.1288 10.7515L17.1468 10.8235L17.1768 10.7515L17.1828 10.8115C17.2008 10.7635 17.2188 10.7635 17.2548 10.8055L17.2668 10.7395L17.2848 10.7995L17.3148 10.7335C17.3148 10.7335 17.3328 10.8055 17.3448 10.8055C17.3448 10.8055 17.3928 10.6735 17.4168 10.6675L17.4228 10.7515L17.4528 10.6675L17.4828 10.7275V10.6435L17.5188 10.7035C17.5188 10.7035 17.5308 10.6435 17.5548 10.6315L17.6028 10.6735L17.8068 10.5235" stroke="black" stroke-width="0.027"/>
<path d="M17.8149 10.4805C17.6049 10.5585 17.4129 10.8525 17.4309 10.9725C17.5209 10.8525 17.5029 10.8705 17.5449 11.0085C17.5449 11.0085 17.5569 10.8885 17.5749 10.8765L17.6049 10.9605L17.6109 10.8465H17.6409L17.6349 10.7805L17.6769 10.8105C17.6649 10.7685 17.6589 10.7565 17.7009 10.7205C17.7009 10.7205 17.6409 10.7265 17.6889 10.6305L17.7309 10.6665C17.7309 10.6665 17.7189 10.6245 17.7309 10.6065L17.8869 10.5585" fill="#016A16"/>
<path d="M17.8149 10.4805C17.6049 10.5585 17.4129 10.8525 17.4309 10.9725C17.5209 10.8525 17.5029 10.8705 17.5449 11.0085C17.5449 11.0085 17.5569 10.8885 17.5749 10.8765L17.6049 10.9605L17.6109 10.8465H17.6409L17.6349 10.7805L17.6769 10.8105C17.6649 10.7685 17.6589 10.7565 17.7009 10.7205C17.7009 10.7205 17.6409 10.7265 17.6889 10.6305L17.7309 10.6665C17.7309 10.6665 17.7189 10.6245 17.7309 10.6065L17.8869 10.5585" stroke="black" stroke-width="0.027"/>
<path d="M17.8305 10.5L17.7525 10.656L17.7945 10.668L17.6985 10.734L17.7765 10.728C17.7765 10.728 17.6565 10.77 17.6445 10.89L17.7645 10.83C17.7645 10.83 17.6625 10.938 17.6445 11.004L17.7225 10.944C17.7225 10.944 17.6505 11.016 17.6625 11.124L17.7165 11.064C17.7045 11.202 17.7045 11.214 17.7645 11.316C17.7645 11.316 17.7525 11.16 17.7645 11.136L17.9025 11.28L17.8305 11.082C17.8305 11.082 17.9145 11.202 17.9625 11.196L17.8545 11.034L17.9625 11.118L17.8425 10.938L17.9505 10.974C17.9505 10.974 17.8725 10.872 17.8785 10.806L17.9565 10.89C17.9565 10.89 17.9265 10.8 17.9325 10.77L17.9745 10.776L17.8965 10.692L17.9505 10.68L17.9445 10.62L17.9805 10.614V10.548M17.9145 10.548C17.7825 10.728 17.8485 10.998 17.7705 11.142Z" fill="#016A16"/>
<path d="M17.8305 10.5L17.7525 10.656L17.7945 10.668L17.6985 10.734L17.7765 10.728C17.7765 10.728 17.6565 10.77 17.6445 10.89L17.7645 10.83C17.7645 10.83 17.6625 10.938 17.6445 11.004L17.7225 10.944C17.7225 10.944 17.6505 11.016 17.6625 11.124L17.7165 11.064C17.7045 11.202 17.7045 11.214 17.7645 11.316C17.7645 11.316 17.7525 11.16 17.7645 11.136L17.9025 11.28L17.8305 11.082C17.8305 11.082 17.9145 11.202 17.9625 11.196L17.8545 11.034L17.9625 11.118L17.8425 10.938L17.9505 10.974C17.9505 10.974 17.8725 10.872 17.8785 10.806L17.9565 10.89C17.9565 10.89 17.9265 10.8 17.9325 10.77L17.9745 10.776L17.8965 10.692L17.9505 10.68L17.9445 10.62L17.9805 10.614V10.548M17.9145 10.548C17.7825 10.728 17.8485 10.998 17.7705 11.142" stroke="black" stroke-width="0.027"/>
<path d="M18.0039 10.3131C18.4719 9.84514 18.8379 10.0731 18.9219 10.1391C18.8619 10.1511 18.8139 10.1151 18.7839 10.1091L18.8439 10.1811C18.8439 10.1811 18.6939 10.1211 18.6759 10.1211C18.6999 10.1391 18.7239 10.1811 18.7239 10.1811C18.7119 10.1811 18.6279 10.1151 18.6159 10.1151C18.6399 10.1391 18.6459 10.2051 18.6459 10.2051L18.5739 10.1751C18.5559 10.1871 18.5799 10.2111 18.5679 10.2111C18.4479 10.1991 18.2859 10.3131 18.2679 10.3491" fill="#016A16"/>
<path d="M18.0039 10.3131C18.4719 9.84514 18.8379 10.0731 18.9219 10.1391C18.8619 10.1511 18.8139 10.1151 18.7839 10.1091L18.8439 10.1811C18.8439 10.1811 18.6939 10.1211 18.6759 10.1211C18.6999 10.1391 18.7239 10.1811 18.7239 10.1811C18.7119 10.1811 18.6279 10.1151 18.6159 10.1151C18.6399 10.1391 18.6459 10.2051 18.6459 10.2051L18.5739 10.1751C18.5559 10.1871 18.5799 10.2111 18.5679 10.2111C18.4479 10.1991 18.2859 10.3131 18.2679 10.3491" stroke="black" stroke-width="0.027"/>
<path d="M18.1184 10.3971C18.1664 10.2891 19.0544 10.0971 19.2344 10.4151C19.1624 10.4331 19.0964 10.3551 19.0964 10.3551V10.4271L18.9824 10.3311L19.0244 10.4271L18.9344 10.3491V10.4271L18.8144 10.3071L18.8324 10.3731L18.7304 10.3311L18.7424 10.3911" fill="#016A16"/>
<path d="M18.1184 10.3971C18.1664 10.2891 19.0544 10.0971 19.2344 10.4151C19.1624 10.4331 19.0964 10.3551 19.0964 10.3551V10.4271L18.9824 10.3311L19.0244 10.4271L18.9344 10.3491V10.4271L18.8144 10.3071L18.8324 10.3731L18.7304 10.3311L18.7424 10.3911" stroke="black" stroke-width="0.027"/>
<path d="M18.1614 10.4159C18.3894 10.2659 18.7374 10.3679 18.7374 10.3679C18.9654 10.4879 19.0854 10.4699 19.1094 10.7039C19.0914 10.6979 19.0314 10.6199 19.0314 10.6199L18.9834 10.7099L18.9714 10.5839L18.9354 10.6859L18.8754 10.5179L18.8634 10.6319L18.7794 10.5179L18.7434 10.5539L18.7074 10.4639L18.6714 10.5239C18.6714 10.5239 18.6114 10.4879 18.5814 10.5059L18.5214 10.4339L18.5034 10.4879L18.4434 10.4279L18.4254 10.4699L18.3714 10.4219V10.4579H18.1914" fill="#016A16"/>
<path d="M18.1614 10.4159C18.3894 10.2659 18.7374 10.3679 18.7374 10.3679C18.9654 10.4879 19.0854 10.4699 19.1094 10.7039C19.0914 10.6979 19.0314 10.6199 19.0314 10.6199L18.9834 10.7099L18.9714 10.5839L18.9354 10.6859L18.8754 10.5179L18.8634 10.6319L18.7794 10.5179L18.7434 10.5539L18.7074 10.4639L18.6714 10.5239C18.6714 10.5239 18.6114 10.4879 18.5814 10.5059L18.5214 10.4339L18.5034 10.4879L18.4434 10.4279L18.4254 10.4699L18.3714 10.4219V10.4579H18.1914" stroke="black" stroke-width="0.027"/>
<path d="M18.2094 10.4395C18.3714 10.4395 18.8274 10.6135 18.9414 10.7875C18.9161 10.7741 18.89 10.762 18.8634 10.7515L18.8454 10.8235L18.8154 10.7515L18.8094 10.8115C18.7914 10.7635 18.7734 10.7635 18.7374 10.8055L18.7254 10.7395L18.7074 10.7995L18.6774 10.7335C18.6774 10.7335 18.6594 10.8055 18.6474 10.8055C18.6474 10.8055 18.5994 10.6735 18.5754 10.6675L18.5694 10.7515L18.5394 10.6675L18.5094 10.7275V10.6435L18.4734 10.7035C18.4734 10.7035 18.4614 10.6435 18.4374 10.6315L18.3894 10.6735L18.1854 10.5235" fill="#016A16"/>
<path d="M18.2094 10.4395C18.3714 10.4395 18.8274 10.6135 18.9414 10.7875C18.9161 10.7741 18.89 10.762 18.8634 10.7515L18.8454 10.8235L18.8154 10.7515L18.8094 10.8115C18.7914 10.7635 18.7734 10.7635 18.7374 10.8055L18.7254 10.7395L18.7074 10.7995L18.6774 10.7335C18.6774 10.7335 18.6594 10.8055 18.6474 10.8055C18.6474 10.8055 18.5994 10.6735 18.5754 10.6675L18.5694 10.7515L18.5394 10.6675L18.5094 10.7275V10.6435L18.4734 10.7035C18.4734 10.7035 18.4614 10.6435 18.4374 10.6315L18.3894 10.6735L18.1854 10.5235" stroke="black" stroke-width="0.027"/>
<path d="M18.1773 10.4805C18.3873 10.5585 18.5793 10.8525 18.5613 10.9725C18.4713 10.8525 18.4893 10.8705 18.4473 11.0085C18.4473 11.0085 18.4353 10.8885 18.4173 10.8765L18.3873 10.9605L18.3813 10.8465H18.3513L18.3573 10.7805L18.3153 10.8105C18.3273 10.7685 18.3333 10.7565 18.2913 10.7205C18.2913 10.7205 18.3513 10.7265 18.3033 10.6305L18.2613 10.6665C18.2613 10.6665 18.2733 10.6245 18.2613 10.6065L18.1053 10.5585" fill="#016A16"/>
<path d="M18.1773 10.4805C18.3873 10.5585 18.5793 10.8525 18.5613 10.9725C18.4713 10.8525 18.4893 10.8705 18.4473 11.0085C18.4473 11.0085 18.4353 10.8885 18.4173 10.8765L18.3873 10.9605L18.3813 10.8465H18.3513L18.3573 10.7805L18.3153 10.8105C18.3273 10.7685 18.3333 10.7565 18.2913 10.7205C18.2913 10.7205 18.3513 10.7265 18.3033 10.6305L18.2613 10.6665C18.2613 10.6665 18.2733 10.6245 18.2613 10.6065L18.1053 10.5585" stroke="black" stroke-width="0.027"/>
<path d="M18.1617 10.5L18.2397 10.656L18.1977 10.668L18.2937 10.734L18.2157 10.728C18.2157 10.728 18.3357 10.77 18.3477 10.89L18.2277 10.83C18.2277 10.83 18.3297 10.938 18.3477 11.004L18.2697 10.944C18.2697 10.944 18.3417 11.016 18.3297 11.124L18.2757 11.064C18.2877 11.202 18.2877 11.214 18.2277 11.316C18.2277 11.316 18.2397 11.16 18.2277 11.136L18.0897 11.28L18.1617 11.082C18.1617 11.082 18.0777 11.202 18.0297 11.196L18.1377 11.034L18.0297 11.118L18.1497 10.938L18.0417 10.974C18.0417 10.974 18.1197 10.872 18.1137 10.806L18.0357 10.89C18.0357 10.89 18.0657 10.8 18.0597 10.77L18.0177 10.776L18.0957 10.692L18.0417 10.68L18.0477 10.62L18.0117 10.614V10.548M18.0777 10.548C18.2097 10.728 18.1437 10.998 18.2217 11.142Z" fill="#016A16"/>
<path d="M18.1617 10.5L18.2397 10.656L18.1977 10.668L18.2937 10.734L18.2157 10.728C18.2157 10.728 18.3357 10.77 18.3477 10.89L18.2277 10.83C18.2277 10.83 18.3297 10.938 18.3477 11.004L18.2697 10.944C18.2697 10.944 18.3417 11.016 18.3297 11.124L18.2757 11.064C18.2877 11.202 18.2877 11.214 18.2277 11.316C18.2277 11.316 18.2397 11.16 18.2277 11.136L18.0897 11.28L18.1617 11.082C18.1617 11.082 18.0777 11.202 18.0297 11.196L18.1377 11.034L18.0297 11.118L18.1497 10.938L18.0417 10.974C18.0417 10.974 18.1197 10.872 18.1137 10.806L18.0357 10.89C18.0357 10.89 18.0657 10.8 18.0597 10.77L18.0177 10.776L18.0957 10.692L18.0417 10.68L18.0477 10.62L18.0117 10.614V10.548M18.0777 10.548C18.2097 10.728 18.1437 10.998 18.2217 11.142" stroke="black" stroke-width="0.027"/>
<path d="M18.0603 12.9902C18.0603 12.9902 18.1263 12.3902 18.1263 12.1382C18.1263 11.9342 18.0783 11.4902 18.0783 11.4902H17.8803C17.8803 11.4902 17.8503 11.9342 17.8563 12.1382C17.8563 12.3902 17.9223 12.9902 17.9223 12.9902H18.0603Z" fill="#F1B517" stroke="black" stroke-width="0.027"/>
<path d="M17.8633 11.5194H18.1033L18.0733 11.3574H17.8993L17.8633 11.5134V11.5194Z" fill="#F1B517" stroke="black" stroke-width="0.027"/>
<path d="M17.881 11.3886H18.091L18.049 11.2266H17.917L17.875 11.3886H17.881Z" fill="#F1B517" stroke="black" stroke-width="0.027"/>
<path d="M17.8906 11.2616H18.0706L18.0346 11.0996H17.9206L17.8906 11.2616Z" fill="#F1B517" stroke="black" stroke-width="0.027"/>
<path d="M18.0417 11.082H17.9218L17.9037 11.142H18.0537L18.0417 11.082ZM18.0658 12.864H17.9098ZM18.0778 12.744H17.8978ZM18.1017 12.624H17.8737ZM18.1137 12.498H17.8737ZM18.1137 12.366H17.8678ZM18.1198 12.246H17.8558ZM18.1198 12.144H17.8438ZM18.1198 12.012H17.8438ZM18.1137 11.886H17.8438ZM18.1017 11.754H17.8558ZM18.0898 11.634H17.8678Z" fill="#F1B517"/>
<path d="M18.0658 12.864H17.9098M18.0778 12.744H17.8978M18.1017 12.624H17.8737M18.1137 12.498H17.8737M18.1137 12.366H17.8678M18.1198 12.246H17.8558M18.1198 12.144H17.8438M18.1198 12.012H17.8438M18.1137 11.886H17.8438M18.1017 11.754H17.8558M18.0898 11.634H17.8678M18.0417 11.082H17.9218L17.9037 11.142H18.0537L18.0417 11.082Z" stroke="black" stroke-width="0.027"/>
<path d="M18.0008 10.1398C17.9528 10.1218 17.8628 10.0618 17.8868 10.0258L17.9288 9.95383C17.9888 9.82183 17.9288 9.86983 17.9288 9.83383C17.9168 9.78583 18.1568 9.82183 18.1568 9.91183C18.1568 9.94183 18.1388 9.92383 18.1448 10.0678L18.0968 10.1578C18.0623 10.1623 18.0273 10.1582 17.9948 10.1458L18.0008 10.1398Z" fill="#0A328C" stroke="#0A328C" stroke-width="0.027"/>
<path d="M18.0248 10.4995L17.9648 10.4455L17.9828 10.0195L18.0428 10.0375L18.0248 10.4935V10.4995Z" fill="#F1B517" stroke="black" stroke-width="0.027"/>
<path d="M18.1015 10.1573C18.1375 10.1333 18.1615 10.0673 18.1375 10.0313C18.0775 9.95327 18.0355 9.98327 17.9335 9.94727C17.9155 9.97127 17.8735 10.0073 17.8795 10.0433C18.0175 10.1033 17.9635 10.0553 18.0115 10.0613C18.0355 10.0613 18.0475 10.0913 18.1015 10.1513V10.1573Z" fill="#D20014" stroke="#D20014" stroke-width="0.027"/>
<path d="M17.3118 12.6172C17.2998 12.5872 17.2518 12.5632 17.1918 12.5632C17.1318 12.5632 17.0898 12.5872 17.0718 12.6172C17.0698 12.6093 17.0698 12.6011 17.0718 12.5932C17.0718 12.5512 17.1258 12.5212 17.1918 12.5212C17.2638 12.5212 17.3178 12.5512 17.3178 12.5932C17.3199 12.6011 17.3199 12.6093 17.3178 12.6172H17.3118Z" fill="#016A16" stroke="white" stroke-width="0.027" stroke-linecap="round"/>
<path d="M17.304 12.7069C17.304 12.7789 17.25 12.8449 17.19 12.8449C17.13 12.8449 17.082 12.7849 17.082 12.7009V12.6289H17.304V12.7009V12.7069Z" fill="#016A16" stroke="white" stroke-width="0.027" stroke-linecap="round"/>
<path d="M17.19 12.6588C17.2497 12.6588 17.298 12.6346 17.298 12.6048C17.298 12.575 17.2497 12.5508 17.19 12.5508C17.1304 12.5508 17.082 12.575 17.082 12.6048C17.082 12.6346 17.1304 12.6588 17.19 12.6588Z" fill="white"/>
<path d="M17.1664 12.6588L17.1484 12.4668H17.2324L17.2204 12.6648H17.1664V12.6588Z" fill="#016A16" stroke="#F1B517" stroke-width="0.027"/>
<path d="M17.3118 12.6055C17.2998 12.6355 17.2518 12.6595 17.1918 12.6595C17.1318 12.6595 17.0898 12.6355 17.0718 12.6055C17.0698 12.6133 17.0698 12.6216 17.0718 12.6295C17.0718 12.6715 17.1258 12.7015 17.1918 12.7015C17.2638 12.7015 17.3178 12.6715 17.3178 12.6295C17.3199 12.6216 17.3199 12.6133 17.3178 12.6055H17.3118Z" fill="#016A16" stroke="white" stroke-width="0.027" stroke-linecap="round"/>
<path d="M17.76 13.3667L17.34 13.2347L17.154 12.9167L16.5 12.8867L16.524 13.1267L17.082 13.2287L17.13 13.3247L17.772 13.5047L17.76 13.3667V13.3667Z" fill="#F1B517" stroke="black" stroke-width="0.027"/>
<path d="M17.3231 13.4568L16.6511 12.4668L16.6211 12.4968L17.2811 13.4808L17.3231 13.4568Z" fill="#503200" stroke="black" stroke-width="0.027"/>
<path d="M16.7145 12.5097L16.6425 12.3897C16.6245 12.3657 16.6065 12.3597 16.5765 12.3777C16.5465 12.3897 16.5525 12.4197 16.5645 12.4437L16.6245 12.5577L16.7145 12.5097V12.5097Z" fill="white" stroke="black" stroke-width="0.027"/>
<path d="M17.4016 12.845L16.0516 12.707L16.0156 12.905L17.3596 13.043L17.4016 12.845Z" fill="#F1B517" stroke="black" stroke-width="0.027"/>
<path d="M16.0183 12.6602L15.9883 12.9302H16.0483L16.0843 12.6842L16.0243 12.6602H16.0183ZM16.2463 12.7022L16.2343 12.9482H16.2703L16.3003 12.7382L16.2523 12.7022H16.2463ZM17.1643 12.8102L17.1283 13.0382H17.1943L17.2243 12.8102H17.1643ZM17.3623 12.8162L17.3203 13.0802L17.3923 13.0922L17.4163 12.9542C17.4163 12.9842 17.4463 13.0022 17.4763 13.0022C17.5123 13.0022 17.5363 12.9722 17.5363 12.9422C17.5363 12.9062 17.5123 12.8822 17.4763 12.8822C17.4638 12.8811 17.4513 12.884 17.4405 12.8905C17.4297 12.897 17.4213 12.9066 17.4163 12.9182L17.4343 12.8222L17.3623 12.8162V12.8162ZM16.8823 12.8582L16.6903 13.0682L16.7143 13.0922L16.9543 12.9302L16.8763 12.8582H16.8823ZM16.4383 13.3802L16.6243 13.1702L16.6063 13.1462L16.3663 13.3082L16.4383 13.3802V13.3802ZM16.9243 13.3262L16.7023 13.1522L16.6783 13.1702L16.8583 13.3982L16.9243 13.3262V13.3262ZM16.3663 12.9242L16.6003 13.0922L16.6243 13.0742L16.4443 12.8462L16.3663 12.9242ZM16.6183 12.7862L16.6423 13.0622H16.6723L16.7443 12.7922L16.6183 12.7862ZM16.6903 13.4462L16.6723 13.1762H16.6363L16.5943 13.4522H16.6903V13.4462ZM16.9963 13.0862L16.7083 13.1102V13.1402L16.9963 13.1762V13.0802V13.0862ZM16.3123 13.1762L16.5943 13.1342V13.1102L16.3063 13.0802V13.1762H16.3123Z" fill="#F1B517" stroke="black" stroke-width="0.027"/>
<path d="M16.66 13.187C16.7031 13.187 16.738 13.1547 16.738 13.115C16.738 13.0752 16.7031 13.043 16.66 13.043C16.617 13.043 16.582 13.0752 16.582 13.115C16.582 13.1547 16.617 13.187 16.66 13.187Z" fill="#F1B517" stroke="black" stroke-width="0.027"/>
<path fill-rule="evenodd" clip-rule="evenodd" d="M17.0657 13.1166C17.0657 13.3266 16.8857 13.5066 16.6637 13.5066C16.6117 13.5074 16.5601 13.4979 16.5117 13.4788C16.4634 13.4596 16.4193 13.4311 16.3819 13.3949C16.3446 13.3587 16.3148 13.3154 16.2941 13.2677C16.2735 13.22 16.2625 13.1686 16.2617 13.1166C16.2617 12.9006 16.4417 12.7266 16.6637 12.7266C16.7157 12.7258 16.7674 12.7353 16.8157 12.7544C16.8641 12.7736 16.9082 12.8021 16.9455 12.8383C16.9828 12.8746 17.0127 12.9178 17.0333 12.9655C17.0539 13.0133 17.0649 13.0646 17.0657 13.1166ZM16.9877 13.1166C16.9869 13.1584 16.9779 13.1996 16.9612 13.2379C16.9445 13.2761 16.9204 13.3108 16.8904 13.3397C16.8603 13.3687 16.8248 13.3915 16.7859 13.4067C16.747 13.422 16.7055 13.4294 16.6637 13.4286C16.6215 13.4294 16.5795 13.4218 16.5402 13.4061C16.5009 13.3905 16.4651 13.3672 16.435 13.3376C16.4048 13.308 16.3808 13.2727 16.3645 13.2337C16.3481 13.1947 16.3397 13.1529 16.3397 13.1106C16.3428 13.0273 16.3786 12.9486 16.4391 12.8914C16.4997 12.8341 16.5804 12.803 16.6637 12.8046C16.7055 12.8038 16.747 12.8113 16.7859 12.8265C16.8248 12.8418 16.8603 12.8645 16.8904 12.8935C16.9204 12.9225 16.9445 12.9571 16.9612 12.9954C16.9779 13.0336 16.9869 13.0748 16.9877 13.1166V13.1166Z" fill="#F1B517" stroke="black" stroke-width="0.027" stroke-linecap="round"/>
<path d="M16.4116 12.9186L16.3516 12.8706ZM16.8616 12.8706L16.9216 12.8106ZM16.9816 13.3626L16.9156 13.3086ZM16.4116 13.4226L16.4716 13.3626ZM17.7736 12.7266L17.8396 13.0866L17.7856 13.1106L17.7256 12.7326H17.7736V12.7266Z" fill="#F1B517"/>
<path d="M16.4116 12.9186L16.3516 12.8706M16.8616 12.8706L16.9216 12.8106M16.9816 13.3626L16.9156 13.3086M16.4116 13.4226L16.4716 13.3626M17.7736 12.7266L17.8396 13.0866L17.7856 13.1106L17.7256 12.7326H17.7736V12.7266Z" stroke="black" stroke-width="0.027"/>
<path d="M17.7372 12.6835C17.7072 12.6655 17.6652 12.6895 17.5932 12.6055C17.4792 12.7075 17.5932 12.7255 17.6052 12.8275C17.6352 12.8395 17.6592 12.7435 17.7432 12.7375L17.8812 12.7255L17.8512 12.6835H17.7312H17.7372Z" fill="white" stroke="black" stroke-width="0.027"/>
<path d="M17.7829 12.7505L17.7709 12.6485C17.7529 12.6065 17.7109 12.6425 17.7109 12.6605L17.7229 12.7625L17.7829 12.7505Z" fill="white" stroke="black" stroke-width="0.027"/>
<path fill-rule="evenodd" clip-rule="evenodd" d="M17.4462 13.043V13.139C17.4102 13.151 17.4162 13.175 17.4162 13.211V13.493C17.4102 13.517 17.3742 13.517 17.3562 13.529C17.3382 13.547 17.3442 13.577 17.4162 13.589L17.4762 13.595C17.5662 13.577 17.5842 13.547 17.5362 13.535C17.5182 13.523 17.4822 13.511 17.4762 13.499V13.427H17.5362C17.5482 13.427 17.5782 13.391 17.5782 13.361V13.211C17.5782 13.127 17.5182 13.115 17.4942 13.121V13.043H17.4462V13.043ZM17.5422 13.205C17.5422 13.181 17.5062 13.157 17.4942 13.157C17.4822 13.157 17.4522 13.187 17.4522 13.211V13.271C17.4522 13.295 17.4702 13.367 17.5062 13.373C17.5182 13.373 17.5422 13.349 17.5422 13.325V13.205V13.205Z" fill="#F1B517" stroke="black" stroke-width="0.027"/>
<path d="M17.0567 13.3371C17.0147 13.3251 17.0147 13.4091 17.0147 13.4091H17.0747C17.1047 13.4211 17.1227 13.4571 17.1107 13.4811C17.0927 13.4931 16.9787 13.4511 16.9727 13.4811C16.9907 13.5951 17.1467 13.6371 17.2007 13.5891C17.2547 13.5351 17.2667 13.4091 17.0927 13.3671L17.0567 13.3371ZM17.0927 13.3731L17.0747 13.4091Z" fill="white"/>
<path d="M17.0927 13.3731L17.0747 13.4091M17.0567 13.3371C17.0147 13.3251 17.0147 13.4091 17.0147 13.4091H17.0747C17.1047 13.4211 17.1227 13.4571 17.1107 13.4811C17.0927 13.4931 16.9787 13.4511 16.9727 13.4811C16.9907 13.5951 17.1467 13.6371 17.2007 13.5891C17.2547 13.5351 17.2667 13.4091 17.0927 13.3671L17.0567 13.3371Z" stroke="black" stroke-width="0.027"/>
<path d="M15.898 13.3788L15.838 13.1388ZM15.964 13.3668L15.874 13.1808ZM16.114 13.3188L15.916 13.2108ZM16.204 13.2948L15.832 13.1328Z" fill="#F1B517"/>
<path d="M15.898 13.3788L15.838 13.1388M15.964 13.3668L15.874 13.1808M16.114 13.3188L15.916 13.2108M16.204 13.2948L15.832 13.1328" stroke="black" stroke-width="0.027"/>
<path d="M15.6119 12.9594L15.4559 12.9654C15.4439 12.9714 15.4859 13.0194 15.4799 13.0314C15.4439 13.0974 15.2159 13.0914 15.1979 13.0794C15.1679 13.0494 15.4079 13.0314 15.4139 13.0194C15.4139 12.9954 15.3779 12.9474 15.3839 12.9174C15.3839 12.8754 15.4859 12.8574 15.4859 12.8574L15.6119 12.9594Z" fill="#D20014" stroke="#D20014" stroke-width="0.027"/>
<path d="M15.7924 13.0796L15.4924 12.8276C15.4924 12.8276 15.4744 12.8156 15.4624 12.8276C15.4504 12.8396 15.4624 12.8516 15.4624 12.8516L15.7864 13.1156L15.7924 13.0856V13.0796Z" fill="#503200" stroke="black" stroke-width="0.027"/>
<path d="M16.0923 13.3326L15.8403 13.1166L15.8223 13.0566L15.7743 13.0926C15.7563 13.1046 15.7383 13.1406 15.7383 13.1406H15.8043L16.0203 13.3446L16.0863 13.3326H16.0923Z" fill="#F1B517" stroke="black" stroke-width="0.027"/>
<path d="M16.9482 13.668C16.9714 13.668 16.9902 13.6492 16.9902 13.626C16.9902 13.6028 16.9714 13.584 16.9482 13.584C16.9251 13.584 16.9062 13.6028 16.9062 13.626C16.9062 13.6492 16.9251 13.668 16.9482 13.668Z" fill="#F1B517" stroke="black" stroke-width="0.027"/>
<path d="M16.835 13.584C16.8582 13.584 16.877 13.5652 16.877 13.542C16.877 13.5188 16.8582 13.5 16.835 13.5C16.8118 13.5 16.793 13.5188 16.793 13.542C16.793 13.5652 16.8118 13.584 16.835 13.584Z" fill="#F1B517" stroke="black" stroke-width="0.027"/>
<path d="M16.6865 13.6367C16.7097 13.6367 16.7285 13.6179 16.7285 13.5947C16.7285 13.5715 16.7097 13.5527 16.6865 13.5527C16.6633 13.5527 16.6445 13.5715 16.6445 13.5947C16.6445 13.6179 16.6633 13.6367 16.6865 13.6367Z" fill="#F1B517" stroke="black" stroke-width="0.027"/>
<path d="M16.4522 13.6856C16.4754 13.6856 16.4942 13.6668 16.4942 13.6436C16.4942 13.6204 16.4754 13.6016 16.4522 13.6016C16.429 13.6016 16.4102 13.6204 16.4102 13.6436C16.4102 13.6668 16.429 13.6856 16.4522 13.6856Z" fill="#F1B517" stroke="black" stroke-width="0.027"/>
<path d="M16.3506 13.6973C16.3738 13.6973 16.3926 13.6785 16.3926 13.6553C16.3926 13.6321 16.3738 13.6133 16.3506 13.6133C16.3274 13.6133 16.3086 13.6321 16.3086 13.6553C16.3086 13.6785 16.3274 13.6973 16.3506 13.6973Z" fill="#F1B517" stroke="black" stroke-width="0.027"/>
<path d="M16.249 13.6973C16.2722 13.6973 16.291 13.6785 16.291 13.6553C16.291 13.6321 16.2722 13.6133 16.249 13.6133C16.2258 13.6133 16.207 13.6321 16.207 13.6553C16.207 13.6785 16.2258 13.6973 16.249 13.6973Z" fill="#F1B517" stroke="black" stroke-width="0.027"/>
<path d="M16.1514 13.6973C16.1746 13.6973 16.1934 13.6785 16.1934 13.6553C16.1934 13.6321 16.1746 13.6133 16.1514 13.6133C16.1282 13.6133 16.1094 13.6321 16.1094 13.6553C16.1094 13.6785 16.1282 13.6973 16.1514 13.6973Z" fill="#F1B517" stroke="black" stroke-width="0.027"/>
<path d="M16.1982 13.6192C16.2214 13.6192 16.2402 13.6004 16.2402 13.5772C16.2402 13.554 16.2214 13.5352 16.1982 13.5352C16.1751 13.5352 16.1562 13.554 16.1562 13.5772C16.1562 13.6004 16.1751 13.6192 16.1982 13.6192Z" fill="#F1B517" stroke="black" stroke-width="0.027"/>
<path d="M16.2959 13.625C16.3191 13.625 16.3379 13.6062 16.3379 13.583C16.3379 13.5598 16.3191 13.541 16.2959 13.541C16.2727 13.541 16.2539 13.5598 16.2539 13.583C16.2539 13.6062 16.2727 13.625 16.2959 13.625Z" fill="#F1B517" stroke="black" stroke-width="0.027"/>
<path d="M16.3858 13.6133C16.4089 13.6133 16.4278 13.5945 16.4278 13.5713C16.4278 13.5481 16.4089 13.5293 16.3858 13.5293C16.3626 13.5293 16.3438 13.5481 16.3438 13.5713C16.3438 13.5945 16.3626 13.6133 16.3858 13.6133Z" fill="#F1B517" stroke="black" stroke-width="0.027"/>
<path d="M16.3428 13.541C16.366 13.541 16.3848 13.5222 16.3848 13.499C16.3848 13.4758 16.366 13.457 16.3428 13.457C16.3196 13.457 16.3008 13.4758 16.3008 13.499C16.3008 13.5222 16.3196 13.541 16.3428 13.541Z" fill="#F1B517" stroke="black" stroke-width="0.027"/>
<path d="M16.249 13.5352C16.2722 13.5352 16.291 13.5164 16.291 13.4932C16.291 13.47 16.2722 13.4512 16.249 13.4512C16.2258 13.4512 16.207 13.47 16.207 13.4932C16.207 13.5164 16.2258 13.5352 16.249 13.5352Z" fill="#F1B517" stroke="black" stroke-width="0.027"/>
<path fill-rule="evenodd" clip-rule="evenodd" d="M17.1886 13.6787C17.1886 13.6607 17.1406 13.6667 17.1406 13.6427C17.1406 13.6187 17.2126 13.6427 17.2186 13.6607C17.2606 13.6247 17.2786 13.6487 17.3026 13.6607C17.3386 13.6127 17.3806 13.6127 17.4226 13.6487C17.4466 13.6247 17.5066 13.6307 17.5246 13.6607C17.5666 13.6247 17.6026 13.6307 17.6266 13.6607C17.6386 13.6427 17.6566 13.6427 17.6686 13.6607C17.6866 13.6187 17.7406 13.6307 17.7646 13.6607C17.7826 13.6367 17.8066 13.6547 17.8306 13.6667C17.8486 13.6547 17.8786 13.6547 17.8786 13.6667C17.8786 13.6907 17.8426 13.6847 17.8426 13.7027C17.8426 13.7147 17.8666 13.7027 17.8666 13.7267C17.8666 13.7447 17.8306 13.7507 17.8246 13.7267C17.8066 13.7507 17.7586 13.7387 17.7526 13.7147C17.7481 13.7198 17.7426 13.7239 17.7364 13.7267C17.7302 13.7295 17.7234 13.731 17.7166 13.731C17.7098 13.731 17.7031 13.7295 17.6969 13.7267C17.6907 13.7239 17.6851 13.7198 17.6806 13.7147C17.6626 13.7267 17.6386 13.7267 17.6326 13.7147C17.6026 13.7447 17.5486 13.7387 17.5306 13.7027H17.5126C17.507 13.7091 17.5001 13.7142 17.4923 13.7177C17.4846 13.7212 17.4761 13.723 17.4676 13.723C17.4591 13.723 17.4507 13.7212 17.4429 13.7177C17.4352 13.7142 17.4283 13.7091 17.4226 13.7027C17.3686 13.7387 17.3386 13.7267 17.3086 13.7027C17.2786 13.7447 17.2246 13.7447 17.2186 13.7027C17.1946 13.7207 17.1466 13.7267 17.1466 13.7027C17.1466 13.6907 17.1886 13.6967 17.1886 13.6787V13.6787ZM17.2846 13.6847C17.2846 13.6967 17.2726 13.7027 17.2606 13.7027C17.2486 13.7027 17.2366 13.6967 17.2366 13.6847C17.2366 13.6727 17.2426 13.6727 17.2606 13.6727C17.2786 13.6727 17.2846 13.6787 17.2846 13.6847ZM17.3986 13.6727C17.3986 13.6847 17.3806 13.6907 17.3626 13.6907C17.3446 13.6907 17.3326 13.6847 17.3326 13.6727C17.3326 13.6667 17.3446 13.6547 17.3626 13.6547C17.3806 13.6547 17.3926 13.6667 17.3926 13.6727H17.3986ZM17.6086 13.6847C17.6086 13.6967 17.5966 13.7027 17.5786 13.7027C17.5606 13.7027 17.5546 13.6967 17.5546 13.6847C17.5546 13.6787 17.5666 13.6667 17.5786 13.6667C17.5906 13.6667 17.6086 13.6727 17.6086 13.6847ZM17.4946 13.6847C17.4946 13.6967 17.4826 13.7027 17.4646 13.7027C17.4466 13.7027 17.4406 13.6967 17.4406 13.6787C17.4406 13.6667 17.4526 13.6547 17.4646 13.6547C17.4766 13.6547 17.4946 13.6667 17.4946 13.6787V13.6847ZM17.7346 13.6847C17.7346 13.6907 17.7286 13.7027 17.7166 13.7027C17.6986 13.7027 17.6866 13.6907 17.6866 13.6787C17.6866 13.6667 17.6986 13.6607 17.7166 13.6607C17.7286 13.6607 17.7406 13.6667 17.7406 13.6787L17.7346 13.6847ZM17.6626 13.6847C17.6626 13.6967 17.6626 13.7027 17.6506 13.7027C17.6386 13.7027 17.6326 13.6967 17.6326 13.6847C17.6326 13.6727 17.6386 13.6727 17.6506 13.6727L17.6626 13.6847ZM17.8066 13.6907C17.8066 13.7027 17.8066 13.7147 17.7886 13.7147C17.7826 13.7147 17.7706 13.7027 17.7706 13.6907C17.7706 13.6787 17.7826 13.6727 17.7886 13.6727C17.8006 13.6727 17.8066 13.6787 17.8066 13.6907Z" fill="#F1B517" stroke="black" stroke-width="0.027"/>
<path d="M18.2322 13.3667L18.6522 13.2347L18.8382 12.9167L19.4922 12.8867L19.4682 13.1267L18.9102 13.2287L18.8622 13.3247L18.2202 13.5047L18.2322 13.3667V13.3667Z" fill="#F1B517" stroke="black" stroke-width="0.027"/>
<path d="M18.6691 13.4568L19.3411 12.4668L19.3711 12.4968L18.7111 13.4808L18.6691 13.4568Z" fill="#503200" stroke="black" stroke-width="0.027"/>
<path d="M19.2777 12.5097L19.3497 12.3897C19.3677 12.3657 19.3857 12.3597 19.4157 12.3777C19.4457 12.3897 19.4397 12.4197 19.4277 12.4437L19.3677 12.5577L19.2777 12.5097V12.5097Z" fill="white" stroke="black" stroke-width="0.027"/>
<path d="M18.5906 12.845L19.9406 12.707L19.9766 12.905L18.6326 13.043L18.5906 12.845Z" fill="#F1B517" stroke="black" stroke-width="0.027"/>
<path d="M19.9739 12.6602L20.0039 12.9302H19.9439L19.9079 12.6842L19.9679 12.6602H19.9739ZM19.7459 12.7022L19.7579 12.9482H19.7219L19.6919 12.7382L19.7399 12.7022H19.7459ZM18.8279 12.8102L18.8639 13.0382H18.7979L18.7679 12.8102H18.8279ZM18.6299 12.8162L18.6719 13.0802L18.5999 13.0922L18.5759 12.9542C18.5759 12.9842 18.5459 13.0022 18.5159 13.0022C18.4799 13.0022 18.4559 12.9722 18.4559 12.9422C18.4559 12.9062 18.4799 12.8822 18.5159 12.8822C18.5284 12.8811 18.5409 12.884 18.5517 12.8905C18.5625 12.897 18.5709 12.9066 18.5759 12.9182L18.5579 12.8222L18.6299 12.8162V12.8162ZM19.1099 12.8582L19.3019 13.0682L19.2779 13.0922L19.0379 12.9302L19.1159 12.8582H19.1099ZM19.5539 13.3802L19.3679 13.1702L19.3859 13.1462L19.6259 13.3082L19.5539 13.3802V13.3802ZM19.0679 13.3262L19.2899 13.1522L19.3139 13.1702L19.1339 13.3982L19.0679 13.3262V13.3262ZM19.6259 12.9242L19.3919 13.0922L19.3679 13.0742L19.5479 12.8462L19.6259 12.9242ZM19.3739 12.7862L19.3499 13.0622H19.3199L19.2479 12.7922L19.3739 12.7862ZM19.3019 13.4462L19.3199 13.1762H19.3559L19.3979 13.4522H19.3019V13.4462ZM18.9959 13.0862L19.2839 13.1102V13.1402L18.9959 13.1762V13.0802V13.0862ZM19.6799 13.1762L19.3979 13.1342V13.1102L19.6859 13.0802V13.1762H19.6799Z" fill="#F1B517" stroke="black" stroke-width="0.027"/>
<path d="M19.3322 13.187C19.2891 13.187 19.2542 13.1547 19.2542 13.115C19.2542 13.0752 19.2891 13.043 19.3322 13.043C19.3752 13.043 19.4102 13.0752 19.4102 13.115C19.4102 13.1547 19.3752 13.187 19.3322 13.187Z" fill="#F1B517" stroke="black" stroke-width="0.027"/>
<path fill-rule="evenodd" clip-rule="evenodd" d="M18.9265 13.1166C18.9265 13.3266 19.1065 13.5066 19.3285 13.5066C19.3805 13.5074 19.4321 13.4979 19.4805 13.4788C19.5288 13.4596 19.5729 13.4311 19.6103 13.3949C19.6476 13.3587 19.6774 13.3154 19.698 13.2677C19.7187 13.22 19.7297 13.1686 19.7305 13.1166C19.7305 12.9006 19.5505 12.7266 19.3285 12.7266C19.2765 12.7258 19.2248 12.7353 19.1765 12.7544C19.1281 12.7736 19.084 12.8021 19.0467 12.8383C19.0094 12.8746 18.9795 12.9178 18.9589 12.9655C18.9383 13.0133 18.9273 13.0646 18.9265 13.1166ZM19.0045 13.1166C19.0052 13.1584 19.0142 13.1996 19.031 13.2379C19.0477 13.2761 19.0717 13.3108 19.1018 13.3397C19.1319 13.3687 19.1674 13.3915 19.2063 13.4067C19.2452 13.422 19.2867 13.4294 19.3285 13.4286C19.3707 13.4294 19.4127 13.4218 19.452 13.4061C19.4913 13.3905 19.527 13.3672 19.5572 13.3376C19.5874 13.308 19.6113 13.2727 19.6277 13.2337C19.6441 13.1947 19.6525 13.1529 19.6525 13.1106C19.6493 13.0273 19.6136 12.9486 19.553 12.8914C19.4924 12.8341 19.4118 12.803 19.3285 12.8046C19.2867 12.8038 19.2452 12.8113 19.2063 12.8265C19.1674 12.8418 19.1319 12.8645 19.1018 12.8935C19.0717 12.9225 19.0477 12.9571 19.031 12.9954C19.0142 13.0336 19.0052 13.0748 19.0045 13.1166V13.1166Z" fill="#F1B517" stroke="black" stroke-width="0.027" stroke-linecap="round"/>
<path d="M19.5806 12.9186L19.6406 12.8706ZM19.1306 12.8706L19.0706 12.8106ZM19.0106 13.3626L19.0766 13.3086ZM19.5806 13.4226L19.5206 13.3626ZM18.2186 12.7266L18.1526 13.0866L18.2066 13.1106L18.2666 12.7326H18.2186V12.7266Z" fill="#F1B517"/>
<path d="M19.5806 12.9186L19.6406 12.8706M19.1306 12.8706L19.0706 12.8106M19.0106 13.3626L19.0766 13.3086M19.5806 13.4226L19.5206 13.3626M18.2186 12.7266L18.1526 13.0866L18.2066 13.1106L18.2666 12.7326H18.2186V12.7266Z" stroke="black" stroke-width="0.027"/>
<path d="M18.255 12.6835C18.285 12.6655 18.327 12.6895 18.399 12.6055C18.513 12.7075 18.399 12.7255 18.387 12.8275C18.357 12.8395 18.333 12.7435 18.249 12.7375L18.111 12.7255L18.141 12.6835H18.261H18.255Z" fill="white" stroke="black" stroke-width="0.027"/>
<path d="M18.2093 12.7505L18.2213 12.6485C18.2393 12.6065 18.2812 12.6425 18.2812 12.6605L18.2693 12.7625L18.2093 12.7505Z" fill="white" stroke="black" stroke-width="0.027"/>
<path fill-rule="evenodd" clip-rule="evenodd" d="M18.5459 13.043V13.139C18.5819 13.151 18.5759 13.175 18.5759 13.211V13.493C18.5819 13.517 18.6179 13.517 18.6359 13.529C18.6539 13.547 18.6479 13.577 18.5759 13.589L18.5159 13.595C18.4259 13.577 18.4079 13.547 18.4559 13.535C18.4739 13.523 18.5099 13.511 18.5159 13.499V13.427H18.4559C18.4439 13.427 18.4139 13.391 18.4139 13.361V13.211C18.4139 13.127 18.4739 13.115 18.4979 13.121V13.043H18.5459V13.043ZM18.4499 13.205C18.4499 13.181 18.4859 13.157 18.4979 13.157C18.5099 13.157 18.5399 13.187 18.5399 13.211V13.271C18.5399 13.295 18.5219 13.367 18.4859 13.373C18.4739 13.373 18.4499 13.349 18.4499 13.325V13.205V13.205Z" fill="#F1B517" stroke="black" stroke-width="0.027"/>
<path d="M18.9355 13.3371C18.9775 13.3251 18.9775 13.4091 18.9775 13.4091H18.9175C18.8875 13.4211 18.8695 13.4571 18.8815 13.4811C18.8995 13.4931 19.0135 13.4511 19.0195 13.4811C19.0015 13.5951 18.8455 13.6371 18.7915 13.5891C18.7375 13.5351 18.7255 13.4091 18.8995 13.3671L18.9355 13.3371ZM18.8995 13.3731L18.9175 13.4091Z" fill="white"/>
<path d="M18.8995 13.3731L18.9175 13.4091M18.9355 13.3371C18.9775 13.3251 18.9775 13.4091 18.9775 13.4091H18.9175C18.8875 13.4211 18.8695 13.4571 18.8815 13.4811C18.8995 13.4931 19.0135 13.4511 19.0195 13.4811C19.0015 13.5951 18.8455 13.6371 18.7915 13.5891C18.7375 13.5351 18.7255 13.4091 18.8995 13.3671L18.9355 13.3371Z" stroke="black" stroke-width="0.027"/>
<path d="M20.0942 13.3788L20.1542 13.1388ZM20.0282 13.3668L20.1182 13.1808ZM19.8782 13.3188L20.0762 13.2108ZM19.7882 13.2948L20.1602 13.1328Z" fill="#F1B517"/>
<path d="M20.0942 13.3788L20.1542 13.1388M20.0282 13.3668L20.1182 13.1808M19.8782 13.3188L20.0762 13.2108M19.7882 13.2948L20.1602 13.1328" stroke="black" stroke-width="0.027"/>
<path d="M20.3803 12.9594L20.5363 12.9654C20.5483 12.9714 20.5063 13.0194 20.5123 13.0314C20.5483 13.0974 20.7763 13.0914 20.7943 13.0794C20.8243 13.0494 20.5843 13.0314 20.5783 13.0194C20.5783 12.9954 20.6143 12.9474 20.6083 12.9174C20.6083 12.8754 20.5063 12.8574 20.5063 12.8574L20.3803 12.9594Z" fill="#D20014" stroke="#D20014" stroke-width="0.027"/>
<path d="M20.1998 13.0796L20.4998 12.8276C20.4998 12.8276 20.5178 12.8156 20.5298 12.8276C20.5418 12.8396 20.5298 12.8516 20.5298 12.8516L20.2058 13.1156L20.1998 13.0856V13.0796Z" fill="#503200" stroke="black" stroke-width="0.027"/>
<path d="M19.8999 13.3326L20.1519 13.1166L20.1699 13.0566L20.2179 13.0926C20.2359 13.1046 20.2539 13.1406 20.2539 13.1406H20.1879L19.9719 13.3446L19.9059 13.3326H19.8999Z" fill="#F1B517" stroke="black" stroke-width="0.027"/>
<path d="M19.0439 13.668C19.0207 13.668 19.0019 13.6492 19.0019 13.626C19.0019 13.6028 19.0207 13.584 19.0439 13.584C19.0671 13.584 19.0859 13.6028 19.0859 13.626C19.0859 13.6492 19.0671 13.668 19.0439 13.668Z" fill="#F1B517" stroke="black" stroke-width="0.027"/>
<path d="M19.1572 13.584C19.134 13.584 19.1152 13.5652 19.1152 13.542C19.1152 13.5188 19.134 13.5 19.1572 13.5C19.1804 13.5 19.1992 13.5188 19.1992 13.542C19.1992 13.5652 19.1804 13.584 19.1572 13.584Z" fill="#F1B517" stroke="black" stroke-width="0.027"/>
<path d="M19.3057 13.6367C19.2825 13.6367 19.2637 13.6179 19.2637 13.5947C19.2637 13.5715 19.2825 13.5527 19.3057 13.5527C19.3289 13.5527 19.3477 13.5715 19.3477 13.5947C19.3477 13.6179 19.3289 13.6367 19.3057 13.6367Z" fill="#F1B517" stroke="black" stroke-width="0.027"/>
<path d="M19.54 13.6856C19.5168 13.6856 19.498 13.6668 19.498 13.6436C19.498 13.6204 19.5168 13.6016 19.54 13.6016C19.5632 13.6016 19.582 13.6204 19.582 13.6436C19.582 13.6668 19.5632 13.6856 19.54 13.6856Z" fill="#F1B517" stroke="black" stroke-width="0.027"/>
<path d="M19.6416 13.6973C19.6184 13.6973 19.5996 13.6785 19.5996 13.6553C19.5996 13.6321 19.6184 13.6133 19.6416 13.6133C19.6648 13.6133 19.6836 13.6321 19.6836 13.6553C19.6836 13.6785 19.6648 13.6973 19.6416 13.6973Z" fill="#F1B517" stroke="black" stroke-width="0.027"/>
<path d="M19.7432 13.6973C19.72 13.6973 19.7012 13.6785 19.7012 13.6553C19.7012 13.6321 19.72 13.6133 19.7432 13.6133C19.7664 13.6133 19.7852 13.6321 19.7852 13.6553C19.7852 13.6785 19.7664 13.6973 19.7432 13.6973Z" fill="#F1B517" stroke="black" stroke-width="0.027"/>
<path d="M19.8408 13.6973C19.8176 13.6973 19.7988 13.6785 19.7988 13.6553C19.7988 13.6321 19.8176 13.6133 19.8408 13.6133C19.864 13.6133 19.8828 13.6321 19.8828 13.6553C19.8828 13.6785 19.864 13.6973 19.8408 13.6973Z" fill="#F1B517" stroke="black" stroke-width="0.027"/>
<path d="M19.7939 13.6192C19.7707 13.6192 19.7519 13.6004 19.7519 13.5772C19.7519 13.554 19.7707 13.5352 19.7939 13.5352C19.8171 13.5352 19.8359 13.554 19.8359 13.5772C19.8359 13.6004 19.8171 13.6192 19.7939 13.6192Z" fill="#F1B517" stroke="black" stroke-width="0.027"/>
<path d="M19.6963 13.625C19.6731 13.625 19.6543 13.6062 19.6543 13.583C19.6543 13.5598 19.6731 13.541 19.6963 13.541C19.7195 13.541 19.7383 13.5598 19.7383 13.583C19.7383 13.6062 19.7195 13.625 19.6963 13.625Z" fill="#F1B517" stroke="black" stroke-width="0.027"/>
<path d="M19.6064 13.6133C19.5832 13.6133 19.5644 13.5945 19.5644 13.5713C19.5644 13.5481 19.5832 13.5293 19.6064 13.5293C19.6296 13.5293 19.6484 13.5481 19.6484 13.5713C19.6484 13.5945 19.6296 13.6133 19.6064 13.6133Z" fill="#F1B517" stroke="black" stroke-width="0.027"/>
<path d="M19.6494 13.541C19.6262 13.541 19.6074 13.5222 19.6074 13.499C19.6074 13.4758 19.6262 13.457 19.6494 13.457C19.6726 13.457 19.6914 13.4758 19.6914 13.499C19.6914 13.5222 19.6726 13.541 19.6494 13.541Z" fill="#F1B517" stroke="black" stroke-width="0.027"/>
<path d="M19.7432 13.5352C19.72 13.5352 19.7012 13.5164 19.7012 13.4932C19.7012 13.47 19.72 13.4512 19.7432 13.4512C19.7664 13.4512 19.7852 13.47 19.7852 13.4932C19.7852 13.5164 19.7664 13.5352 19.7432 13.5352Z" fill="#F1B517" stroke="black" stroke-width="0.027"/>
<path fill-rule="evenodd" clip-rule="evenodd" d="M18.8036 13.6787C18.8036 13.6607 18.8516 13.6667 18.8516 13.6427C18.8516 13.6187 18.7796 13.6427 18.7736 13.6607C18.7316 13.6247 18.7136 13.6487 18.6896 13.6607C18.6536 13.6127 18.6116 13.6127 18.5696 13.6487C18.5456 13.6247 18.4856 13.6307 18.4676 13.6607C18.4256 13.6247 18.3896 13.6307 18.3656 13.6607C18.3536 13.6427 18.3356 13.6427 18.3236 13.6607C18.3056 13.6187 18.2516 13.6307 18.2276 13.6607C18.2096 13.6367 18.1856 13.6547 18.1616 13.6667C18.1436 13.6547 18.1136 13.6547 18.1136 13.6667C18.1136 13.6907 18.1496 13.6847 18.1496 13.7027C18.1496 13.7147 18.1256 13.7027 18.1256 13.7267C18.1256 13.7447 18.1616 13.7507 18.1676 13.7267C18.1856 13.7507 18.2336 13.7387 18.2396 13.7147C18.2441 13.7198 18.2496 13.7239 18.2558 13.7267C18.262 13.7295 18.2688 13.731 18.2756 13.731C18.2824 13.731 18.2891 13.7295 18.2953 13.7267C18.3015 13.7239 18.3071 13.7198 18.3116 13.7147C18.3296 13.7267 18.3536 13.7267 18.3596 13.7147C18.3896 13.7447 18.4436 13.7387 18.4616 13.7027H18.4796C18.4852 13.7091 18.4921 13.7142 18.4999 13.7177C18.5076 13.7212 18.5161 13.723 18.5246 13.723C18.5331 13.723 18.5415 13.7212 18.5492 13.7177C18.557 13.7142 18.5639 13.7091 18.5696 13.7027C18.6236 13.7387 18.6536 13.7267 18.6836 13.7027C18.7136 13.7447 18.7676 13.7447 18.7736 13.7027C18.7976 13.7207 18.8456 13.7267 18.8456 13.7027C18.8456 13.6907 18.8036 13.6967 18.8036 13.6787V13.6787ZM18.7076 13.6847C18.7076 13.6967 18.7196 13.7027 18.7316 13.7027C18.7436 13.7027 18.7556 13.6967 18.7556 13.6847C18.7556 13.6727 18.7496 13.6727 18.7316 13.6727C18.7136 13.6727 18.7076 13.6787 18.7076 13.6847ZM18.5936 13.6727C18.5936 13.6847 18.6116 13.6907 18.6296 13.6907C18.6476 13.6907 18.6596 13.6847 18.6596 13.6727C18.6596 13.6667 18.6476 13.6547 18.6296 13.6547C18.6116 13.6547 18.5996 13.6667 18.5996 13.6727H18.5936ZM18.3836 13.6847C18.3836 13.6967 18.3956 13.7027 18.4136 13.7027C18.4316 13.7027 18.4376 13.6967 18.4376 13.6847C18.4376 13.6787 18.4256 13.6667 18.4136 13.6667C18.4016 13.6667 18.3836 13.6727 18.3836 13.6847ZM18.4976 13.6847C18.4976 13.6967 18.5096 13.7027 18.5276 13.7027C18.5456 13.7027 18.5516 13.6967 18.5516 13.6787C18.5516 13.6667 18.5396 13.6547 18.5276 13.6547C18.5156 13.6547 18.4976 13.6667 18.4976 13.6787V13.6847ZM18.2576 13.6847C18.2576 13.6907 18.2636 13.7027 18.2756 13.7027C18.2936 13.7027 18.3056 13.6907 18.3056 13.6787C18.3056 13.6667 18.2936 13.6607 18.2756 13.6607C18.2636 13.6607 18.2516 13.6667 18.2516 13.6787L18.2576 13.6847ZM18.3296 13.6847C18.3296 13.6967 18.3296 13.7027 18.3416 13.7027C18.3536 13.7027 18.3596 13.6967 18.3596 13.6847C18.3596 13.6727 18.3536 13.6727 18.3416 13.6727L18.3296 13.6847ZM18.1856 13.6907C18.1856 13.7027 18.1856 13.7147 18.2036 13.7147C18.2096 13.7147 18.2216 13.7027 18.2216 13.6907C18.2216 13.6787 18.2096 13.6727 18.2036 13.6727C18.1916 13.6727 18.1856 13.6787 18.1856 13.6907Z" fill="#F1B517" stroke="black" stroke-width="0.027"/>
<path d="M17.9888 12.9414C17.8388 12.9414 17.7188 13.0014 17.7188 13.0674C17.7188 13.0794 17.7187 13.0914 17.7307 13.1034C17.7607 13.1394 17.8687 13.1634 17.9947 13.1634C18.1147 13.1634 18.2108 13.1454 18.2468 13.1094C18.2588 13.0974 18.2647 13.0854 18.2647 13.0674C18.2647 13.0014 18.1448 12.9474 17.9888 12.9474V12.9414Z" fill="#0A328C" stroke="#0A328C" stroke-width="0.027"/>
<path d="M18.2647 13.0801V13.5001C18.2647 13.5541 18.1447 13.5901 17.9947 13.5901C17.8447 13.5901 17.7188 13.5541 17.7188 13.5001V13.0801C17.7188 13.1281 17.8388 13.1701 17.9888 13.1701C18.1448 13.1701 18.2647 13.1281 18.2647 13.0801Z" fill="#F1B517" stroke="black" stroke-width="0.027"/>
<path d="M17.7188 13.0801V13.1401L17.8507 13.5601L17.9588 13.2361L18.0788 13.5661L18.1568 13.2541L18.2647 13.4641V13.3501L18.1688 13.1461C18.1569 13.1505 18.1449 13.1545 18.1327 13.1581L18.0727 13.3861L17.9827 13.1701C17.9688 13.1704 17.9547 13.1704 17.9407 13.1701L17.8507 13.3861L17.7547 13.1221C17.7307 13.1101 17.7188 13.0921 17.7188 13.0801V13.0801Z" fill="#D20014" stroke="#D20014" stroke-width="0.027"/>
<path d="M18.2647 13.4219V13.4999C18.2647 13.5539 18.1447 13.5899 17.9947 13.5899C17.8447 13.5899 17.7188 13.5539 17.7188 13.4999V13.4219C17.7188 13.4759 17.8388 13.5119 17.9888 13.5119C18.1448 13.5119 18.2647 13.4759 18.2647 13.4219Z" fill="#0A328C" stroke="#0A328C" stroke-width="0.027"/>
<path d="M18.1027 13.4999L18.0368 13.5119V13.5899L18.1088 13.5839V13.5059L18.1027 13.4999ZM17.8147 13.4939V13.5719L17.8807 13.5839V13.5059C17.8585 13.5033 17.8365 13.4993 17.8147 13.4939ZM17.7188 13.4219V13.4999C17.7188 13.5179 17.7308 13.5299 17.7488 13.5419V13.4639C17.7308 13.4519 17.7188 13.4399 17.7188 13.4219ZM18.2647 13.4339C18.2647 13.4459 18.2408 13.4639 18.2168 13.4759V13.5539C18.2468 13.5419 18.2647 13.5239 18.2647 13.4999V13.4399V13.4339Z" fill="#F1B517" stroke="black" stroke-width="0.027"/>
<path d="M18.2647 13.0801V13.5001C18.2647 13.5541 18.1447 13.5901 17.9947 13.5901C17.8447 13.5901 17.7188 13.5541 17.7188 13.5001V13.0801" stroke="black" stroke-width="0.027"/>
<path d="M18.2033 13.0501C18.2033 13.0801 18.1073 13.1101 17.9933 13.1101C17.8733 13.1101 17.7773 13.0801 17.7773 13.0501C17.7773 13.0201 17.8733 12.9961 17.9873 12.9961C18.1073 12.9961 18.2033 13.0201 18.2033 13.0561V13.0501Z" fill="white" stroke="white" stroke-width="0.027"/>
<path d="M17.9209 13.0916L17.9329 13.1636H17.9929L17.9989 13.0916H17.9209V13.0916ZM18.1669 13.0736L18.1069 13.0856L18.1129 13.1576L18.1729 13.1456V13.0796L18.1669 13.0736ZM17.8429 12.9536L17.8009 12.9716L17.8069 13.0316L17.8429 13.0196V12.9596V12.9536ZM17.9869 12.9356H17.9689L17.9809 13.0076H18.0169L18.0289 12.9356C18.0149 12.9351 18.0009 12.9351 17.9869 12.9356V12.9356ZM18.1489 12.9596L18.1429 13.0196L18.1849 13.0376V12.9776C18.1733 12.9709 18.1613 12.9648 18.1489 12.9596V12.9596ZM17.7589 13.1276L17.7709 13.0496L17.7109 13.0196V13.1096L17.7589 13.1276ZM18.2629 13.1096V13.0316L18.2149 13.0496L18.2629 13.1096ZM18.8209 12.5996C18.8689 12.5996 18.9409 12.6596 18.9469 12.7496C18.9469 12.8096 18.8449 12.8096 18.8449 12.8096C18.8449 12.8396 18.7849 12.8636 18.7369 12.8696C18.6889 12.8696 18.7489 12.7796 18.7489 12.7796C18.7189 12.7016 18.7609 12.6176 18.7609 12.6176L18.8209 12.5996Z" fill="#F1B517" stroke="black" stroke-width="0.027"/>
<path d="M18.75 12.7794H18.798C18.798 12.7794 18.798 12.7974 18.81 12.7974C18.822 12.7974 18.828 12.7734 18.828 12.7734H18.9" fill="#F1B517"/>
<path d="M18.75 12.7794H18.798C18.798 12.7794 18.798 12.7974 18.81 12.7974C18.822 12.7974 18.828 12.7734 18.828 12.7734H18.9" stroke="black" stroke-width="0.027"/>
<path d="M18.8461 12.6545C18.8881 12.6245 18.8521 12.5645 18.8221 12.5645H18.7621C18.7261 12.5645 18.6781 12.6005 18.6841 12.6245C18.6841 12.6545 18.7081 12.6665 18.7321 12.6605C18.7441 12.6605 18.7681 12.6245 18.7801 12.6245C18.7981 12.6245 18.8401 12.6605 18.8461 12.6545V12.6545Z" fill="#D20014" stroke="#F1B517" stroke-width="0.027"/>
<path fill-rule="evenodd" clip-rule="evenodd" d="M15.8533 13.4883C15.8173 13.4943 15.8113 13.5363 15.8233 13.5783C15.6673 13.6203 15.5233 13.6803 15.3793 13.7223C15.3733 13.6923 15.4513 13.6143 15.4513 13.6143C15.4693 13.6203 15.4873 13.6683 15.4873 13.6683C15.4873 13.5723 15.5833 13.5123 15.5833 13.5123C15.5233 13.5003 15.3613 13.5723 15.3433 13.5963C15.3433 13.5963 15.4033 13.5843 15.4153 13.5963C15.4153 13.5963 15.2833 13.7343 15.2773 13.7763C15.3013 13.8183 15.5173 13.8543 15.5173 13.8543C15.5173 13.8663 15.4573 13.9143 15.4573 13.9143C15.5473 13.9263 15.6793 13.8663 15.7153 13.8303C15.7153 13.8303 15.6133 13.8183 15.5353 13.7523C15.5353 13.7523 15.5473 13.7943 15.5353 13.8123C15.5353 13.8123 15.4153 13.7763 15.3973 13.7523C15.3973 13.7523 15.6973 13.6803 15.8413 13.6323C15.8473 13.6623 15.8773 13.7103 15.9133 13.6983C15.9313 13.6923 15.9253 13.6503 15.9133 13.6143C15.9182 13.6186 15.9239 13.6219 15.9301 13.624C15.9363 13.6261 15.9428 13.6268 15.9493 13.6263C15.9733 13.6263 15.9913 13.6083 15.9913 13.5843C15.9913 13.5603 15.9733 13.5423 15.9493 13.5423C15.9402 13.5428 15.9314 13.5458 15.924 13.5512C15.9165 13.5565 15.9108 13.5638 15.9073 13.5723C15.9013 13.5423 15.8833 13.4883 15.8593 13.4943L15.8533 13.4883ZM15.9733 13.5843C15.9733 13.5963 15.9613 13.6023 15.9493 13.6023C15.9465 13.6033 15.9435 13.6036 15.9406 13.6031C15.9377 13.6027 15.9349 13.6015 15.9325 13.5997C15.9301 13.5979 15.9282 13.5956 15.927 13.5929C15.9257 13.5902 15.9252 13.5872 15.9253 13.5843C15.9253 13.5723 15.9373 13.5603 15.9493 13.5603C15.9613 13.5603 15.9673 13.5723 15.9673 13.5843H15.9733Z" fill="#F1B517" stroke="black" stroke-width="0.027"/>
<path d="M20.579 13.6738C20.591 13.6498 20.579 13.5418 20.579 13.5418C20.549 13.5418 20.519 13.5838 20.519 13.5838C20.549 13.4878 20.471 13.3438 20.471 13.3438C20.525 13.3498 20.705 13.5238 20.711 13.5598C20.711 13.5598 20.633 13.5298 20.621 13.5358C20.639 13.6258 20.699 13.6678 20.723 13.7158C20.723 13.7158 20.621 13.7338 20.627 13.8238H20.561C20.537 13.7938 20.567 13.7458 20.567 13.7458L20.105 13.5538C20.075 13.5418 20.009 13.5058 20.021 13.4698C20.027 13.4398 20.141 13.4878 20.165 13.4998L20.585 13.6738H20.579Z" fill="#F1B517" stroke="black" stroke-width="0.027"/>
<path d="M20.1342 13.5896L20.1942 13.4936C20.2122 13.4636 20.1702 13.4336 20.1402 13.4696L20.0802 13.5596C20.0562 13.6136 20.1102 13.6256 20.1402 13.5896H20.1342Z" fill="#F1B517" stroke="black" stroke-width="0.027"/>
<path d="M16.8808 13.8215L16.877 13.709L16.7458 13.7202L16.7383 13.8365L16.8808 13.8215V13.8215Z" fill="white" stroke="black" stroke-width="0.0253125"/>
<path d="M15.9144 13.9745L15.7381 13.8733C16.4656 13.9408 16.6156 13.6858 16.7919 13.6745C16.9044 13.6633 16.9156 13.7945 16.7056 13.7308L16.7619 13.8658C16.7619 13.8658 16.2444 14.1583 15.7344 14.0383L15.9144 13.9745V13.9745ZM19.0944 13.8208L19.0981 13.7083L19.2594 13.7158L19.2669 13.832L19.0944 13.8208Z" fill="white" stroke="black" stroke-width="0.0253125"/>
<path d="M20.0961 13.9487L20.2649 13.8549C19.4249 13.8812 19.6161 13.7199 19.1999 13.6749C19.0874 13.6599 19.0124 13.8024 19.2824 13.7312L19.2299 13.8662H19.3611C19.6461 14.0537 20.0286 14.0724 20.2836 14.0124L20.0961 13.9487V13.9487Z" fill="white" stroke="black" stroke-width="0.0253125"/>
<path d="M16.707 13.7344V13.9219C16.707 13.9219 17.1683 14.0944 17.997 14.0944C18.8295 14.0944 19.287 13.9219 19.287 13.9219V13.7344C19.287 13.7344 18.9383 13.8956 17.997 13.8956C17.0595 13.8956 16.707 13.7344 16.707 13.7344Z" fill="white" stroke="black" stroke-width="0.0253125"/>
<path d="M16.7734 13.9239L16.8147 13.7852L16.8334 13.7927L16.7959 13.9127L16.8709 13.9314L16.8634 13.9502L16.7734 13.9239V13.9239ZM16.9084 13.8639V13.8377L16.9159 13.8114L16.9384 13.8189L16.9309 13.8414L16.9197 13.8677L16.9084 13.8639ZM17.1072 13.8527L17.1259 13.8602L17.1109 13.9389L17.0959 13.9764C17.0912 13.983 17.0847 13.9882 17.0772 13.9914H17.0397C17.0274 13.9893 17.0158 13.9841 17.0059 13.9764C16.9983 13.971 16.993 13.963 16.9909 13.9539L16.9947 13.9164L17.0134 13.8339L17.0322 13.8377L17.0134 13.9202C17.0115 13.9301 17.0115 13.9402 17.0134 13.9502C17.0142 13.9558 17.0169 13.9611 17.0209 13.9652L17.0397 13.9727H17.0772L17.0922 13.9352L17.1072 13.8527V13.8527ZM17.1297 14.0027L17.1522 13.8639H17.1747L17.2309 13.9914L17.2497 13.8789H17.2684L17.2459 14.0252L17.2272 14.0214L17.1672 13.8977L17.1484 14.0102L17.1297 14.0064V14.0027ZM17.2797 14.0289L17.3022 13.8864H17.3209L17.3022 14.0289H17.2834H17.2797ZM17.3397 13.9652C17.3397 13.9427 17.3509 13.9239 17.3659 13.9127C17.3809 13.9012 17.3997 13.8959 17.4184 13.8977C17.4334 13.8977 17.4447 13.9014 17.4559 13.9089L17.4747 13.9389C17.4822 13.9502 17.4822 13.9652 17.4784 13.9764C17.4778 13.9896 17.4739 14.0025 17.4672 14.0139C17.4603 14.0256 17.4497 14.0348 17.4372 14.0402C17.4252 14.0446 17.4123 14.0459 17.3997 14.0439C17.3864 14.0435 17.3735 14.0397 17.3622 14.0327C17.3532 14.0246 17.3467 14.0142 17.3434 14.0027C17.3392 13.9906 17.3379 13.9778 17.3397 13.9652V13.9652ZM17.3584 13.9652C17.3584 13.9839 17.3584 14.0027 17.3697 14.0102C17.3772 14.0214 17.3884 14.0289 17.4034 14.0289C17.4184 14.0289 17.4297 14.0289 17.4409 14.0177C17.4522 14.0102 17.4559 13.9952 17.4597 13.9802C17.463 13.9679 17.463 13.9549 17.4597 13.9427C17.4555 13.9347 17.4489 13.9281 17.4409 13.9239C17.4335 13.9176 17.4244 13.9137 17.4147 13.9127C17.4034 13.9127 17.3884 13.9127 17.3772 13.9239C17.3697 13.9314 17.3622 13.9464 17.3584 13.9689V13.9652ZM17.4972 14.0514L17.5084 13.9089H17.5309L17.5984 14.0289L17.6059 13.9164H17.6247L17.6134 14.0627H17.5947L17.5234 13.9427L17.5159 14.0552H17.4972V14.0514ZM17.7072 14.0664L17.7109 13.9239L17.8122 13.9277V13.9464L17.7334 13.9427L17.7297 13.9839L17.8009 13.9877V14.0064L17.7259 14.0027V14.0702H17.7072V14.0664ZM17.8197 14.0702L17.8759 13.9277H17.8984L17.9547 14.0777H17.9322L17.9172 14.0289H17.8534L17.8384 14.0739H17.8159L17.8197 14.0702ZM17.8572 14.0139H17.9097L17.8947 13.9764C17.8917 13.9653 17.8892 13.954 17.8872 13.9427L17.8797 13.9727L17.8609 14.0139H17.8572ZM17.9734 14.0739V13.9314H17.9959V14.0739H17.9734ZM18.0672 14.0739V13.9502H18.0184V13.9352H18.1347V13.9502H18.0859V14.0777H18.0672V14.0739ZM18.2172 14.0739L18.2059 13.9239H18.2284L18.2322 14.0514H18.3072V14.0664L18.2134 14.0702L18.2172 14.0739ZM18.3147 14.0664L18.3597 13.9164H18.3822L18.4572 14.0552H18.4309L18.4122 14.0177H18.3484L18.3372 14.0664H18.3147ZM18.3522 14.0027H18.4047L18.3859 13.9652L18.3709 13.9314C18.3705 13.9415 18.3693 13.9515 18.3672 13.9614L18.3522 14.0027V14.0027ZM18.5284 14.0477L18.5134 13.9052L18.6109 13.8939L18.6147 13.9127L18.5359 13.9202V13.9652L18.6109 13.9577V13.9764L18.5397 13.9839L18.5472 14.0477H18.5284V14.0477ZM18.6409 13.9689C18.638 13.9589 18.6371 13.9484 18.6384 13.9381C18.6397 13.9278 18.6431 13.9178 18.6484 13.9089C18.6607 13.8943 18.6782 13.8849 18.6972 13.8827L18.7347 13.8864C18.7497 13.8902 18.7572 13.8977 18.7647 13.9089L18.7797 13.9464L18.7759 13.9839C18.7718 13.9961 18.764 14.0066 18.7534 14.0139C18.7436 14.0216 18.732 14.0268 18.7197 14.0289C18.7071 14.0309 18.6942 14.0296 18.6822 14.0252C18.6702 14.0208 18.6597 14.013 18.6522 14.0027C18.644 13.9917 18.6388 13.9787 18.6372 13.9652L18.6409 13.9689ZM18.6597 13.9652C18.6597 13.9802 18.6672 13.9952 18.6784 14.0027C18.6897 14.0139 18.7009 14.0139 18.7159 14.0139C18.7309 14.0139 18.7422 14.0064 18.7534 13.9952C18.7609 13.9839 18.7609 13.9689 18.7609 13.9502C18.7594 13.9395 18.7556 13.9292 18.7497 13.9202C18.7443 13.9117 18.7364 13.9052 18.7272 13.9014C18.7186 13.8992 18.7095 13.8992 18.7009 13.9014C18.6859 13.9014 18.6747 13.9052 18.6634 13.9164C18.6597 13.9277 18.6559 13.9427 18.6597 13.9652V13.9652ZM18.8134 14.0139L18.7909 13.8714L18.8547 13.8602H18.8847C18.8922 13.8602 18.8997 13.8602 18.9034 13.8677L18.9147 13.8902C18.9147 13.9014 18.9147 13.9089 18.9072 13.9164C18.9034 13.9239 18.8922 13.9314 18.8809 13.9352C18.8848 13.936 18.8886 13.9372 18.8922 13.9389L18.9109 13.9577L18.9484 13.9914H18.9222L18.8959 13.9689C18.89 13.9624 18.8837 13.9561 18.8772 13.9502C18.8738 13.9471 18.87 13.9446 18.8659 13.9427C18.8622 13.9419 18.8584 13.9419 18.8547 13.9427H18.8434L18.8209 13.9464L18.8359 14.0102H18.8134V14.0139ZM18.8209 13.9314L18.8584 13.9239C18.8663 13.9228 18.874 13.9203 18.8809 13.9164C18.8848 13.9142 18.888 13.9109 18.89 13.9069C18.892 13.9029 18.8928 13.8984 18.8922 13.8939C18.8917 13.8881 18.889 13.8828 18.8847 13.8789H18.8584L18.8097 13.8827L18.8209 13.9314V13.9314ZM19.0572 13.9164H19.0759C19.0759 13.9314 19.0722 13.9464 19.0647 13.9539C19.0547 13.965 19.0416 13.9728 19.0272 13.9764C19.0149 13.9796 19.002 13.9796 18.9897 13.9764C18.9775 13.9723 18.967 13.9644 18.9597 13.9539C18.9508 13.9429 18.9444 13.9301 18.9409 13.9164C18.9381 13.9041 18.9381 13.8912 18.9409 13.8789C18.9409 13.8639 18.9522 13.8527 18.9597 13.8452L18.9934 13.8302H19.0309C19.0459 13.8377 19.0534 13.8452 19.0609 13.8602L19.0422 13.8677C19.038 13.8597 19.0314 13.8531 19.0234 13.8489C19.0149 13.846 19.0057 13.846 18.9972 13.8489C18.9873 13.849 18.9779 13.8531 18.9709 13.8602C18.9642 13.8673 18.9602 13.8766 18.9597 13.8864V13.9127C18.9627 13.9235 18.9678 13.9337 18.9747 13.9427C18.9784 13.9502 18.9859 13.9577 18.9972 13.9577H19.0234C19.0319 13.9563 19.0398 13.9524 19.0459 13.9464C19.0534 13.9389 19.0572 13.9277 19.0572 13.9164ZM19.1097 13.9539L19.0722 13.8152L19.1734 13.7889L19.1809 13.8039L19.0947 13.8264L19.1059 13.8677L19.1847 13.8489L19.1922 13.8639L19.1097 13.8864L19.1247 13.9314L19.2147 13.9089V13.9239L19.1097 13.9539V13.9539Z" fill="black"/>
</g>
</g>
<defs>
<filter id="filter0_d_336_27356" x="0" y="-2" width="36" height="36" filterUnits="userSpaceOnUse" color-interpolation-filters="sRGB">
<feFlood flood-opacity="0" result="BackgroundImageFix"/>
<feColorMatrix in="SourceAlpha" type="matrix" values="0 0 0 0 0 0 0 0 0 0 0 0 0 0 0 0 0 0 127 0" result="hardAlpha"/>
<feOffset dy="4"/>
<feGaussianBlur stdDeviation="3"/>
<feComposite in2="hardAlpha" operator="out"/>
<feColorMatrix type="matrix" values="0 0 0 0 0 0 0 0 0 0 0 0 0 0 0 0 0 0 0.16 0"/>
<feBlend mode="normal" in2="BackgroundImageFix" result="effect1_dropShadow_336_27356"/>
<feBlend mode="normal" in="SourceGraphic" in2="effect1_dropShadow_336_27356" result="shape"/>
</filter>
<clipPath id="clip0_336_27356">
<rect width="24" height="18" fill="white" transform="translate(6 3)"/>
</clipPath>
</defs>
</svg>
