<svg width="36" height="31" viewBox="0 0 36 31" fill="none" xmlns="http://www.w3.org/2000/svg">
<g filter="url(#filter0_d_336_29839)">
<g clip-path="url(#clip0_336_29839)">
<path fill-rule="evenodd" clip-rule="evenodd" d="M2.13281 3H33.8691V21H2.13281V3Z" fill="#4AADD6"/>
<path fill-rule="evenodd" clip-rule="evenodd" d="M21.2219 11.7044C21.2403 12.356 21.1222 13.0045 20.8745 13.6117C20.6268 14.2189 20.2545 14.7723 19.7796 15.2395C19.3048 15.7066 18.7369 16.0779 18.1096 16.3314C17.4824 16.5849 16.8084 16.7155 16.1275 16.7155C15.4466 16.7155 14.7726 16.5849 14.1454 16.3314C13.5181 16.0779 12.9502 15.7066 12.4754 15.2395C12.0005 14.7723 11.6282 14.2189 11.3805 13.6117C11.1328 13.0045 11.0147 12.356 11.0331 11.7044C11.0147 11.0529 11.1328 10.4043 11.3805 9.79718C11.6282 9.19002 12.0005 8.63654 12.4754 8.16942C12.9502 7.7023 13.5181 7.33102 14.1454 7.0775C14.7726 6.82398 15.4466 6.69336 16.1275 6.69336C16.8084 6.69336 17.4824 6.82398 18.1096 7.0775C18.7369 7.33102 19.3048 7.7023 19.7796 8.16942C20.2545 8.63654 20.6268 9.19002 20.8745 9.79718C21.1222 10.4043 21.2403 11.0529 21.2219 11.7044V11.7044Z" fill="#FFDE00"/>
</g>
</g>
<defs>
<filter id="filter0_d_336_29839" x="0" y="-2" width="36" height="36" filterUnits="userSpaceOnUse" color-interpolation-filters="sRGB">
<feFlood flood-opacity="0" result="BackgroundImageFix"/>
<feColorMatrix in="SourceAlpha" type="matrix" values="0 0 0 0 0 0 0 0 0 0 0 0 0 0 0 0 0 0 127 0" result="hardAlpha"/>
<feOffset dy="4"/>
<feGaussianBlur stdDeviation="3"/>
<feComposite in2="hardAlpha" operator="out"/>
<feColorMatrix type="matrix" values="0 0 0 0 0 0 0 0 0 0 0 0 0 0 0 0 0 0 0.16 0"/>
<feBlend mode="normal" in2="BackgroundImageFix" result="effect1_dropShadow_336_29839"/>
<feBlend mode="normal" in="SourceGraphic" in2="effect1_dropShadow_336_29839" result="shape"/>
</filter>
<clipPath id="clip0_336_29839">
<rect width="24" height="18" fill="white" transform="translate(6 3)"/>
</clipPath>
</defs>
</svg>
