<svg width="36" height="31" viewBox="0 0 36 31" fill="none" xmlns="http://www.w3.org/2000/svg">
<g filter="url(#filter0_d_336_26213)">
<g clip-path="url(#clip0_336_26213)">
<path d="M6 3H30V21H6V3Z" fill="#E32118"/>
<path d="M6 3H30V15H6V3Z" fill="white"/>
<path d="M6 3H30V9H6V3Z" fill="#3E9A00"/>
<path d="M6 3V21L12.75 12L6 3Z" fill="#0073CE"/>
<path d="M16.5586 10.1934H19.4311V13.2009C19.4311 14.2134 18.1111 13.4334 17.9986 13.9734C17.8036 13.4184 16.5661 14.2209 16.5661 13.1409L16.5586 10.1934V10.1934Z" fill="white" stroke="black" stroke-width="0.0828125"/>
<path d="M18.1995 13.493C18.1995 13.493 18.162 13.5305 18.0945 13.5005C18.027 13.4705 18.0195 11.573 18.0195 11.573C18.1695 11.408 18.2895 11.3555 18.2895 11.3555L18.3795 11.4305C18.042 11.603 18.072 11.8505 18.102 12.278C18.1095 12.4355 18.1095 12.638 18.147 12.833C18.1995 13.0805 18.3045 13.2905 18.312 13.448C18.3195 13.5455 18.1995 13.493 18.1995 13.493V13.493Z" fill="#73452B" stroke="black" stroke-width="0.0165625"/>
<path d="M17.9675 11.3105H18.1025C17.99 12.398 18.0875 13.043 18.0875 13.358C18.0875 13.463 18.1475 13.5005 18.14 13.5005C18.005 13.6505 17.9375 13.493 17.9375 13.493L17.9675 11.3105Z" fill="#73452B" stroke="black" stroke-width="0.0165625"/>
<path d="M17.7577 13.4933C17.6302 13.5533 17.6152 13.4333 17.6227 13.4183C17.9002 12.8558 18.0202 11.6183 17.7652 11.4833L17.7802 11.3633C17.8777 11.3933 17.9677 11.5208 17.9677 11.5208C18.0052 12.9083 17.9677 13.4783 17.9452 13.5008C17.8102 13.6433 17.7577 13.4783 17.7502 13.4633" fill="#A36629"/>
<path d="M17.7577 13.4933C17.6302 13.5533 17.6152 13.4333 17.6227 13.4183C17.9002 12.8558 18.0202 11.6183 17.7652 11.4833L17.7802 11.3633C17.8777 11.3933 17.9677 11.5208 17.9677 11.5208C18.0052 12.9083 17.9677 13.4783 17.9452 13.5008C17.8102 13.6433 17.7577 13.4783 17.7502 13.4633" stroke="black" stroke-width="0.0165625"/>
<path d="M17.7516 13.4707C17.7291 13.3507 17.9466 13.0432 17.9316 12.7207M18.1191 12.9832C18.1866 13.1707 18.2166 13.3357 18.2016 13.4932" stroke="black" stroke-width="0.0165625"/>
<path d="M18.4106 10.8009C18.4556 10.7484 18.4556 10.7484 18.5381 10.7484C18.5531 10.6359 18.7406 10.6359 18.7556 10.7784C18.9056 10.7484 18.9356 10.8384 18.8756 10.9284C19.0181 10.8909 19.1456 10.9284 19.1081 11.0934C19.3631 11.1609 19.2656 11.3409 19.1531 11.3784C19.1381 11.4909 19.0331 11.5284 18.8906 11.4834C18.7106 11.6109 18.6056 11.5659 18.5231 11.4384C18.3206 11.4684 18.3056 11.4234 18.2156 11.3109C18.0581 11.3784 18.0281 11.3784 17.8931 11.2959C17.8856 11.4009 17.8481 11.3709 17.7806 11.3634C17.7881 11.4984 17.7356 11.5584 17.6156 11.5134C17.7056 11.7009 17.4731 11.7834 17.3606 11.6259C17.2556 11.6334 17.2481 11.6034 17.1956 11.5659C17.1506 11.7159 16.9856 11.6934 16.9556 11.6109C16.7456 11.5809 16.7681 11.4684 16.9406 11.4609C16.9556 11.3409 17.0606 11.3634 17.1281 11.3784C17.1356 11.3034 17.1806 11.3184 17.2181 11.3334C17.1956 11.2809 17.2106 11.2509 17.2781 11.2359C17.1806 11.1084 17.2406 11.0634 17.3381 11.0184C17.2856 10.8984 17.3756 10.9059 17.4431 10.8984C17.4356 10.7709 17.4731 10.7484 17.6081 10.7334C17.5931 10.6884 17.6156 10.6509 17.6906 10.6509C17.6456 10.5234 17.7056 10.4934 17.8406 10.5159C17.8631 10.3284 18.2606 10.4184 18.2306 10.6734C18.3431 10.6884 18.3806 10.7109 18.4106 10.8009V10.8009Z" fill="#009A3B" stroke="black" stroke-width="0.0165625"/>
<path d="M17.6103 10.7338C17.6403 10.7488 17.6778 10.7338 17.6853 10.8163C17.7453 10.7113 17.8203 10.7713 17.8203 10.8913M18.2328 10.6738C18.2028 10.7188 18.0903 10.7188 18.1053 10.8388C18.0678 10.7863 17.9928 10.7713 17.9628 10.8238M18.4128 10.8013C18.4128 10.8313 18.4053 10.9213 18.3753 10.9663M18.8778 10.9288C18.8853 10.9363 18.7728 10.9288 18.7203 10.9663M19.1553 11.3788C19.1253 11.3638 19.0653 11.3263 19.0203 11.3863C19.0203 11.3563 19.0203 11.2738 18.9378 11.2738M18.8928 11.4838C18.8928 11.4088 18.8778 11.3863 18.8628 11.3638M18.6453 11.3788C18.5853 11.3338 18.5253 11.4013 18.5253 11.4388M18.2103 11.3113C18.2103 11.2813 18.1878 11.2213 18.2403 11.1988M17.3553 11.6263C17.3703 11.5513 17.4228 11.5513 17.4153 11.5138C17.4078 11.4538 17.3403 11.4013 17.2578 11.4838M17.4153 11.5138C17.4603 11.4988 17.5053 11.5063 17.5203 11.5288M17.2878 11.2363C17.3178 11.2063 17.3928 11.2138 17.4378 11.2363M17.4378 11.0563C17.4753 11.0563 17.5428 11.0413 17.5653 11.1088C17.6478 10.9813 17.7078 10.9963 17.7228 11.0263M17.8728 11.0113C17.9328 10.9888 18.0378 11.0488 18.0978 11.1538C18.1278 11.0713 18.1728 11.0863 18.2178 11.0788M18.5028 11.1538C18.6003 11.1088 18.6603 11.1988 18.6903 11.2363C18.7353 11.1763 18.7728 11.1763 18.8178 11.1763M17.5953 11.3338C17.6178 11.2963 17.6703 11.2888 17.7078 11.3113C17.7003 11.2438 17.7453 11.2138 17.7753 11.2288" stroke="black" stroke-width="0.0165625"/>
<path d="M17.9025 9.76945L17.7375 9.77695L17.655 9.92695L17.565 9.78445L17.4 9.79195L17.475 9.64195L17.385 9.5032L17.5575 9.4957L17.6325 9.3457L17.7225 9.4882L17.8875 9.4807L17.8125 9.6307L17.9025 9.76945ZM17.1975 9.8257L17.0325 9.8632L16.9875 10.0245L16.8675 9.90445L16.71 9.94195L16.755 9.78445L16.6425 9.66445L16.8 9.6232L16.845 9.46195L16.965 9.58195L17.13 9.54445L17.0775 9.7057L17.1975 9.8257ZM16.515 9.96445L16.365 10.0395L16.3575 10.2045L16.215 10.1145L16.065 10.1895L16.08 10.0207L15.9375 9.9307L16.0875 9.8557L16.1025 9.68695L16.2375 9.7807L16.3875 9.7057L16.38 9.8707L16.515 9.96445ZM18.12 9.76945L18.285 9.77695L18.36 9.92695L18.45 9.78445L18.615 9.79195L18.54 9.64195L18.63 9.5032L18.465 9.4957L18.3825 9.3457L18.2925 9.4882L18.1275 9.4807L18.2025 9.6307L18.12 9.76945ZM18.825 9.8257L18.9825 9.8632L19.0275 10.0245L19.1475 9.90445L19.305 9.94195L19.26 9.78445L19.38 9.66445L19.215 9.6232L19.17 9.46195L19.05 9.58195L18.8925 9.54445L18.9375 9.7057L18.825 9.8257ZM19.5 9.96445L19.65 10.0395L19.6575 10.2045L19.8 10.1145L19.95 10.1895L19.9425 10.0207L20.0775 9.9307L19.9275 9.8557L19.92 9.68695L19.7775 9.7807L19.6275 9.7057L19.6425 9.8707L19.5 9.96445Z" fill="#FFD700" stroke="black" stroke-width="0.0579687"/>
<path d="M19.7006 13.1404L19.8881 13.4104L20.0606 13.1554L19.9406 12.9379L19.7006 13.1404ZM18.5081 13.9279L18.5231 14.1979C18.5231 14.1979 18.5981 14.1979 18.6656 14.1754C18.7256 14.1529 18.7781 14.1079 18.7781 14.1079L18.7706 13.9654L18.5081 13.9279ZM17.5031 13.9279L17.4881 14.1904C17.4881 14.1904 17.4206 14.1904 17.3531 14.1754C17.2931 14.1604 17.2406 14.1229 17.2406 14.1229L17.1656 13.9429L17.5031 13.9279ZM16.2956 13.1404L16.1006 13.4104L15.8906 13.0654L16.0481 12.9004L16.2956 13.1404Z" fill="white" stroke="black" stroke-width="0.0579687"/>
<path d="M17.2344 14.4674C17.2344 14.7224 18.7794 14.7224 18.7794 14.4674V14.1074C18.7794 14.2949 17.2344 14.2574 17.2344 14.1074V14.4674Z" fill="white" stroke="black" stroke-width="0.0579687"/>
<path d="M15.8555 13.6346C15.9905 14.3246 17.2355 14.3396 17.2355 14.3396V14.1071C17.2055 14.0171 17.258 13.9871 17.4605 13.9571C17.543 13.9496 17.5055 13.8296 17.5055 13.8296C17.5055 13.8296 16.9655 13.9271 16.583 13.7771C16.0655 13.5671 15.9905 13.1621 15.9905 13.1621C15.9905 13.1621 15.953 13.4771 15.8555 13.6346V13.6346ZM20.153 13.6346C20.0255 14.3246 18.7805 14.3396 18.7805 14.3396V14.1071C18.803 14.0171 18.7505 13.9871 18.548 13.9571C18.4655 13.9496 18.5105 13.8296 18.5105 13.8296C18.5105 13.8296 19.0505 13.9271 19.433 13.7771C19.943 13.5671 20.003 13.1621 20.003 13.1621C20.003 13.1621 20.0555 13.4771 20.153 13.6346V13.6346Z" fill="white" stroke="black" stroke-width="0.0579687"/>
<path d="M15.9511 13.373C15.6061 13.1855 15.8761 12.9905 15.9061 12.4355C15.9586 12.773 16.3411 12.9155 16.2961 13.133C16.1386 13.1405 16.0636 12.9005 15.9886 13.163L15.9511 13.373V13.373ZM20.0536 13.373C20.3986 13.178 20.1136 12.9905 20.0836 12.4355C20.0311 12.773 19.6561 12.9155 19.7011 13.133C19.8511 13.1405 19.9261 12.9005 20.0011 13.163L20.0536 13.3655V13.373Z" fill="white" stroke="black" stroke-width="0.0579687"/>
<path d="M16.1606 13.6283L16.1981 13.6583L16.1156 13.7483C16.0781 13.7858 16.0743 13.8083 16.0968 13.8308C16.1231 13.857 16.1456 13.8458 16.1718 13.8158L16.2656 13.7183L16.2956 13.7483L16.2056 13.8533C16.1568 13.9095 16.1118 13.8983 16.0706 13.8608C16.0406 13.8308 16.0181 13.7858 16.0706 13.7295L16.1606 13.6283ZM16.3106 13.7558L16.3481 13.7783L16.3406 13.9583L16.4231 13.8308L16.4606 13.8533L16.3406 14.0483L16.2956 14.0258L16.3031 13.8458L16.2206 13.9733L16.1831 13.9508L16.3106 13.7558ZM16.3781 14.0708L16.4831 13.8608L16.5206 13.8833L16.4231 14.0858L16.3781 14.0708ZM16.5431 13.8908L16.4606 14.1083L16.5431 14.1383C16.6181 14.1645 16.6556 14.1308 16.6781 14.067C16.7043 13.9995 16.6931 13.9545 16.6181 13.9208L16.5431 13.8908V13.8908ZM16.5731 13.9433C16.6481 13.9695 16.6556 13.9995 16.6331 14.0558C16.6106 14.1045 16.5956 14.1233 16.5206 14.0858L16.5731 13.9433ZM16.7906 13.9733L16.6556 14.1758L16.7081 14.1908L16.7381 14.1383L16.8281 14.1608L16.8356 14.2133L16.8881 14.2208L16.8356 13.9808L16.7906 13.9733V13.9733ZM16.8056 14.0258L16.8206 14.1158L16.7606 14.1083L16.8056 14.0258V14.0258ZM16.9181 13.992L16.9106 14.2245H16.9968C17.0793 14.2283 17.1018 14.187 17.1056 14.112C17.1056 14.0445 17.0793 13.9995 16.9968 13.9995L16.9181 13.992ZM16.9631 14.0295C17.0456 14.0333 17.0568 14.0595 17.0568 14.1158C17.0531 14.172 17.0418 14.1945 16.9593 14.1833V14.0333L16.9631 14.0295ZM17.7056 14.3183V14.5583H17.7581V14.4683C17.7581 14.4683 17.8031 14.4683 17.8406 14.4608C17.8668 14.4533 17.8893 14.4345 17.8893 14.3858C17.8893 14.3408 17.8631 14.3183 17.8181 14.3183H17.7056ZM17.7581 14.3558H17.8106C17.8518 14.3558 17.8481 14.4233 17.8106 14.4233H17.7581V14.3558ZM17.9756 14.3183L17.8781 14.5583H17.9306L17.9531 14.4983H18.0506L18.0731 14.5583H18.1256L18.0281 14.3183H17.9756ZM17.9981 14.3708L18.0356 14.4608H17.9681L17.9981 14.3708ZM18.1256 14.5133L18.2531 14.3558H18.1406V14.3183H18.3206V14.3558L18.1856 14.5133H18.3206V14.5583H18.1256V14.5133ZM18.8831 14.0483L18.9281 14.0408L18.9506 14.1758C18.9581 14.2245 18.9356 14.2545 18.9018 14.2695C18.8643 14.2845 18.8118 14.2695 18.8081 14.2058L18.8456 14.1983C18.8531 14.2358 18.8681 14.2395 18.8831 14.2358C18.9018 14.2283 18.9093 14.2058 18.9056 14.1833L18.8831 14.0483ZM18.9581 14.0333L18.9993 14.0258L19.0218 14.1383C19.0293 14.187 19.0443 14.2058 19.0781 14.202C19.1156 14.1945 19.1193 14.172 19.1118 14.127L19.0856 14.0108L19.1306 14.0033L19.1606 14.127C19.1756 14.202 19.1381 14.2283 19.0856 14.2395C19.0443 14.247 18.9956 14.2395 18.9806 14.1645L18.9581 14.0333ZM19.1906 14.1383L19.2281 14.1233C19.2468 14.157 19.2731 14.1533 19.2956 14.1458C19.3256 14.1308 19.3331 14.1045 19.3143 14.0933C19.2918 14.082 19.2393 14.1008 19.2131 14.0933C19.1793 14.0783 19.1643 14.0558 19.1681 14.0295C19.1681 13.992 19.1981 13.977 19.2318 13.9658C19.2693 13.9545 19.3068 13.9583 19.3331 14.0033L19.2881 14.0183C19.2731 13.992 19.2506 13.9958 19.2356 14.0033C19.2206 14.0108 19.1981 14.022 19.2131 14.0408C19.2206 14.0595 19.2768 14.0483 19.3068 14.0483C19.3368 14.0483 19.3593 14.0708 19.3631 14.097C19.3706 14.1383 19.3556 14.1608 19.3068 14.1795C19.2506 14.202 19.1981 14.1795 19.1906 14.1383V14.1383ZM19.3931 13.9508L19.3331 13.9808L19.3181 13.9433L19.4831 13.8758L19.4981 13.9058L19.4381 13.9358L19.5056 14.1008L19.4681 14.1233L19.3931 13.9508ZM19.4906 13.8683L19.5281 13.8458L19.6331 14.0408L19.5956 14.0633L19.4906 13.8683ZM19.7456 13.8833L19.7906 13.8683C19.7963 13.8825 19.7984 13.8979 19.7966 13.9131C19.7947 13.9283 19.789 13.9428 19.78 13.9552C19.771 13.9676 19.759 13.9775 19.7451 13.9839C19.7312 13.9904 19.7158 13.9932 19.7006 13.992C19.5881 13.992 19.5731 13.8645 19.5918 13.8233C19.6218 13.752 19.7043 13.7558 19.7418 13.7933L19.7043 13.8233C19.6818 13.7933 19.6293 13.812 19.6293 13.8383C19.6243 13.8602 19.6268 13.8832 19.6363 13.9035C19.6458 13.9239 19.6618 13.9405 19.6818 13.9508C19.7193 13.9658 19.7718 13.9208 19.7456 13.8833ZM19.7231 13.7258L19.7606 13.6958L19.8956 13.8758L19.8581 13.9058L19.7231 13.7258ZM19.8656 13.6133L19.8281 13.6433L19.9106 13.8683L19.9481 13.8308L19.9256 13.7858L19.9931 13.7258L20.0381 13.7483L20.0756 13.7183L19.8656 13.6133V13.6133ZM19.8806 13.6658L19.9556 13.7033L19.9106 13.7483L19.8806 13.6658Z" fill="black"/>
</g>
</g>
<defs>
<filter id="filter0_d_336_26213" x="0" y="-2" width="36" height="36" filterUnits="userSpaceOnUse" color-interpolation-filters="sRGB">
<feFlood flood-opacity="0" result="BackgroundImageFix"/>
<feColorMatrix in="SourceAlpha" type="matrix" values="0 0 0 0 0 0 0 0 0 0 0 0 0 0 0 0 0 0 127 0" result="hardAlpha"/>
<feOffset dy="4"/>
<feGaussianBlur stdDeviation="3"/>
<feComposite in2="hardAlpha" operator="out"/>
<feColorMatrix type="matrix" values="0 0 0 0 0 0 0 0 0 0 0 0 0 0 0 0 0 0 0.16 0"/>
<feBlend mode="normal" in2="BackgroundImageFix" result="effect1_dropShadow_336_26213"/>
<feBlend mode="normal" in="SourceGraphic" in2="effect1_dropShadow_336_26213" result="shape"/>
</filter>
<clipPath id="clip0_336_26213">
<rect width="24" height="18" fill="white" transform="translate(6 3)"/>
</clipPath>
</defs>
</svg>
