<svg width="36" height="31" viewBox="0 0 36 31" fill="none" xmlns="http://www.w3.org/2000/svg">
<g filter="url(#filter0_d_336_26458)">
<g clip-path="url(#clip0_336_26458)">
<path fill-rule="evenodd" clip-rule="evenodd" d="M6 3H30V21H6V3Z" fill="#BE0027"/>
<path fill-rule="evenodd" clip-rule="evenodd" d="M6 21L30 20.9888V12L6 21Z" fill="#B4D7F4"/>
<path fill-rule="evenodd" clip-rule="evenodd" d="M6 3L30 3.01125V12L6 3Z" fill="#239E46"/>
<path fill-rule="evenodd" clip-rule="evenodd" d="M12.9823 16.5158C12.5811 16.6283 12.3523 16.9395 12.3561 17.232L14.3361 17.2245C14.3511 16.9095 14.0923 16.617 13.6986 16.5008C15.6336 16.4633 17.3136 15.7358 17.6211 15.2708C17.3211 15.1395 16.9686 15.3495 16.7211 15.3008C17.3098 15.027 19.0836 13.8795 18.7948 12.6495C18.5698 13.332 17.8948 13.8983 17.6023 14.052C18.2661 13.047 19.1698 11.997 18.3861 11.187C18.4236 11.6558 18.0861 12.1733 17.9361 12.2145C18.3223 11.1495 18.6861 9.81453 17.8573 8.93703C17.9661 9.25578 17.9211 10.152 17.7711 10.1933C17.7261 9.46953 17.6023 7.95078 16.8411 7.96953C17.0811 8.18703 17.1861 8.77203 17.1936 9.36453C17.0389 8.95446 16.7629 8.60127 16.4023 8.35203C16.0261 7.70119 15.4906 7.15665 14.8461 6.76953C14.9136 7.24578 14.9698 7.62078 15.6336 8.11578C15.2886 8.09328 14.9436 7.43703 14.5723 7.41828C14.2761 7.40328 14.0473 7.68453 13.5636 7.52328C13.6161 7.68078 13.8411 7.75203 13.8898 7.86828C13.7848 7.94328 13.5411 7.85703 13.3386 7.75578C13.6198 8.13078 14.0511 8.35578 14.4186 8.28078C14.8573 8.19828 15.3261 8.24328 15.7761 8.49828C15.4985 8.55637 15.2127 8.56399 14.9323 8.52078C15.1911 8.78328 15.3636 8.95953 15.8173 8.95578C16.2186 8.95578 16.4323 8.73828 16.5336 8.87328C16.7886 9.17328 16.9573 9.47328 17.1711 9.82578C16.7023 9.87453 16.8448 9.29703 16.3236 9.00078C16.0273 9.60078 16.6611 10.3208 17.0848 10.6208C17.0728 11.0307 17.1644 11.4369 17.3511 11.802C17.4823 12.0458 17.6511 12.297 17.5873 12.8483C17.3286 12.6608 17.0811 12.0308 17.1748 11.532C16.8523 11.6183 16.7248 12.1845 16.8748 12.4695C16.9873 12.6833 17.0623 13.0995 16.9348 13.2833C16.8073 13.4558 16.7961 13.4333 16.7961 13.8083C16.7998 14.0258 16.6761 14.2883 16.4773 14.472C16.5355 14.2802 16.5496 14.0776 16.5186 13.8795C16.3611 14.1495 15.9598 14.427 15.8361 14.7195C15.7123 15.0083 15.6823 15.5145 15.0861 15.6308C14.3136 15.7808 14.0473 15.9158 13.5561 16.1183C13.4998 15.7433 13.6648 14.9558 13.9798 15.0045C14.2836 15.057 15.2173 14.682 14.8798 13.8983C14.8161 14.1458 14.5986 14.3858 14.3586 14.397C14.6173 14.067 15.0711 13.722 14.8498 13.167C14.7159 13.4466 14.5035 13.6811 14.2386 13.842C14.5536 13.242 14.2761 13.0545 13.9011 13.557C13.7586 13.7483 13.6723 14.1345 13.5823 14.6258C13.4323 14.2283 13.4436 13.7033 13.2673 13.2758C13.0873 12.8145 13.5111 12.6945 13.7098 12.732C14.1973 12.8633 15.0186 12.8633 14.9586 12.0533C14.7448 12.327 14.3773 12.4095 13.9761 12.3158C14.4261 11.9858 14.7786 11.367 14.2761 11.0408C14.2536 11.2321 14.1839 11.4149 14.0733 11.5727C13.9627 11.7304 13.8146 11.8582 13.6423 11.9445C13.5618 11.6402 13.5579 11.3207 13.6311 11.0145C13.4361 11.2245 13.2936 11.652 13.1773 12.147C13.1661 11.6595 13.2598 11.3108 13.3273 11.0483C13.4323 10.6695 13.6873 10.917 14.0773 10.9433C14.4598 10.9658 14.9773 10.7558 14.8798 10.242C14.7523 10.4483 14.4861 10.527 14.2161 10.5045C14.5423 10.3058 15.1086 9.95703 14.7973 9.41703C14.6661 9.61953 14.6248 9.79203 14.2461 9.85578C14.3436 9.63078 14.3586 9.30453 14.6586 9.18078C14.1336 9.07203 13.8336 9.41703 13.6761 9.95703C13.6161 9.58203 13.5411 9.44703 13.5261 9.16953C13.8111 8.85828 13.8411 8.23953 13.2261 8.10453C13.1858 8.32234 13.2013 8.54681 13.2711 8.75703C12.9823 8.58453 12.5773 8.49078 12.3036 8.73078C12.4911 8.92953 12.7723 9.10578 13.2111 8.88828C13.1061 9.22578 12.8361 9.16953 12.4686 9.03828C12.6936 9.46203 12.9786 9.53703 13.2936 9.48828C13.4586 9.92328 13.4661 10.2533 12.9823 10.8833C13.0048 10.4933 12.9786 10.2008 12.6673 9.88203C12.3973 9.61953 12.1798 9.89328 12.5998 10.4745C12.3448 10.287 12.0598 9.91203 11.9736 9.53328C11.8911 9.99828 11.9661 10.5495 12.2248 10.8608C12.1011 10.992 11.9623 10.8458 11.7561 10.5233C11.8311 11.5508 12.2698 11.7495 12.8586 11.5208C12.8736 12.0833 12.8736 12.6045 12.9073 13.2833C12.5661 12.7883 12.1311 12.4208 11.8911 12.3308C11.8161 12.6045 12.0973 12.9683 12.2586 13.167C12.0148 13.1145 11.4898 12.717 11.4898 12.717C11.4373 13.1708 12.0261 13.5945 12.4086 13.782C11.9586 13.7633 11.7598 13.5945 11.4711 13.317C11.4786 14.5845 12.8436 14.3633 13.1023 14.1683L13.2148 16.137C12.8286 16.0695 12.8586 15.9495 12.5286 15.9233C11.6098 15.8858 10.8823 14.8208 10.6423 14.037C10.5711 14.1645 10.6273 14.2995 10.5636 14.4608C10.4136 14.0745 10.2261 13.5758 9.96734 13.3433C10.0348 13.5683 10.0423 13.797 10.0198 14.217C9.92984 13.947 9.85109 13.8608 9.84359 13.542C9.84734 13.2983 10.0798 13.1183 10.0686 12.7733C10.0573 12.522 9.82859 11.9745 9.79484 11.5545C9.68234 11.9895 9.61484 12.447 9.44234 12.717C9.52859 12.252 9.50234 11.9295 9.64484 11.6183C9.80984 11.292 9.94859 10.9958 9.83984 10.6658C9.73484 10.7933 9.76859 10.9095 9.50234 11.2208C9.44609 10.8833 9.84734 10.3395 10.2373 10.122C10.5111 9.97953 10.8561 9.46203 10.6311 9.10953C10.3723 9.29703 10.2561 9.54453 9.89234 9.97203C10.1548 8.95953 10.8298 8.68953 11.6361 8.68578C11.8123 8.68578 12.1723 8.62203 12.2736 8.38578C12.0486 8.47203 11.7786 8.48328 11.5386 8.43828C11.7148 8.17953 12.0786 8.21328 12.4236 8.21328C12.6898 8.21328 13.1098 8.17578 13.2786 7.79328C12.908 7.93781 12.5015 7.96272 12.1161 7.86453C12.6298 7.60203 13.4286 7.57203 13.8411 7.22328C13.3723 6.87453 12.2023 7.30578 11.4636 7.81203C11.6698 7.62453 11.9961 7.28703 12.1761 7.01703C11.7711 6.82203 10.7511 7.95453 10.3986 8.62953C10.0611 8.81703 9.92984 9.11703 9.79859 9.32328C9.97484 8.71953 9.99359 8.28078 10.1436 7.78578C8.99984 8.17578 9.47234 10.2983 9.22484 10.8083C9.25484 10.2458 9.22859 9.52953 8.99984 9.15828C8.64734 9.42828 8.61734 11.0145 8.94734 12.3345C8.82734 11.982 8.60234 11.652 8.53109 11.2208C8.00609 12.1733 8.83859 13.302 9.53234 14.1908C9.00734 13.917 8.49359 13.332 8.15234 12.8408C8.24609 14.5508 10.0273 14.9033 10.3048 15.3233C9.92984 15.147 9.21359 14.802 8.90609 15.1658C9.33328 15.245 9.74326 15.3986 10.1173 15.6195C10.5823 16.197 11.4561 16.452 12.9823 16.5158V16.5158Z" fill="#F3E295"/>
</g>
</g>
<defs>
<filter id="filter0_d_336_26458" x="0" y="-2" width="36" height="36" filterUnits="userSpaceOnUse" color-interpolation-filters="sRGB">
<feFlood flood-opacity="0" result="BackgroundImageFix"/>
<feColorMatrix in="SourceAlpha" type="matrix" values="0 0 0 0 0 0 0 0 0 0 0 0 0 0 0 0 0 0 127 0" result="hardAlpha"/>
<feOffset dy="4"/>
<feGaussianBlur stdDeviation="3"/>
<feComposite in2="hardAlpha" operator="out"/>
<feColorMatrix type="matrix" values="0 0 0 0 0 0 0 0 0 0 0 0 0 0 0 0 0 0 0.16 0"/>
<feBlend mode="normal" in2="BackgroundImageFix" result="effect1_dropShadow_336_26458"/>
<feBlend mode="normal" in="SourceGraphic" in2="effect1_dropShadow_336_26458" result="shape"/>
</filter>
<clipPath id="clip0_336_26458">
<rect width="24" height="18" fill="white" transform="translate(6 3)"/>
</clipPath>
</defs>
</svg>
