<svg width="36" height="31" viewBox="0 0 36 31" fill="none" xmlns="http://www.w3.org/2000/svg">
<g filter="url(#filter0_d_336_27114)">
<g clip-path="url(#clip0_336_27114)">
<path d="M6 3H30V21H6V3Z" fill="#4997D0"/>
<path d="M14 3H22.0025V21H14V3Z" fill="white"/>
<path d="M17.1532 14.4C17.2354 14.3876 17.281 14.3628 17.3358 14.3442M17.4057 14.2171C17.4461 14.2584 17.4773 14.3081 17.497 14.3628M17.2506 14.2047C17.2892 14.2415 17.3203 14.2857 17.3418 14.3349M15.8358 10.1016C15.8054 10.1512 15.7445 10.1853 15.6898 10.207M15.6806 10.2008C15.6806 10.1574 15.6746 10.1078 15.6806 10.0645M15.6228 10.2194C15.6228 10.2318 15.635 10.2628 15.6411 10.2814M15.705 10.3124L15.6441 10.3217M15.5224 10.2938C15.5224 10.3744 15.5316 10.4673 15.5376 10.5386M15.4829 10.5076C15.4981 10.5324 15.5133 10.5541 15.5316 10.5665M15.3916 10.7679C15.4068 10.7958 15.422 10.8299 15.4312 10.8919M15.5437 10.7462L15.4829 10.7927M15.5346 10.9291C15.5042 10.957 15.4677 10.9756 15.4281 10.9942M15.3125 12.2461C15.3434 12.3023 15.3847 12.3518 15.4342 12.3918M15.4525 12.4445C15.4203 12.4404 15.3893 12.4299 15.3612 12.4135M15.495 12.6769L15.5468 12.7079M15.5346 12.8133C15.5711 12.8381 15.6107 12.8845 15.6472 12.9341M15.6046 13.0209C15.6472 13.0302 15.6806 13.0426 15.7019 13.0519M15.6715 13.1294H15.7324M15.7719 12.9651L15.7567 13.0953M15.7871 13.1449L15.7993 13.0953M15.9423 13.2812L15.9393 13.3804M17.1319 14.245L17.0954 14.2946M17.0224 14.1737L17.0011 14.1179" stroke="#24420E" stroke-width="0.0276355"/>
<path d="M18.187 14.6317C18.1619 14.5949 18.1271 14.5659 18.0866 14.548C17.8524 14.4241 17.6181 14.3652 17.3564 14.3218C17.2926 14.3125 17.2317 14.2536 17.1678 14.2226C17.0157 14.1514 16.8484 14.1235 16.7023 14.046C16.6932 14.0429 16.6567 14.0212 16.6415 13.9995C16.5806 13.9313 16.4741 13.9096 16.4102 13.8446C16.1547 13.6028 15.8869 13.3797 15.747 13.0543C15.5766 12.6607 15.3667 12.2548 15.394 11.8085C15.4123 11.5234 15.3727 11.2383 15.4397 10.9718C15.5431 10.5689 15.6709 10.1753 15.9082 9.84375L15.8687 9.86854C15.6434 10.2096 15.4843 10.5915 15.4001 10.9935C15.3301 11.2631 15.3697 11.5513 15.3545 11.8302C15.3241 12.2796 15.537 12.6855 15.7044 13.0791C15.8443 13.4014 16.1151 13.6276 16.3676 13.8724C16.4346 13.9344 16.538 13.9561 16.5989 14.0274C16.6172 14.0454 16.6376 14.061 16.6597 14.0739C16.8088 14.1483 16.9761 14.1762 17.1283 14.2505C17.1891 14.2815 17.25 14.3373 17.3108 14.3497C17.5667 14.382 17.8155 14.4574 18.0471 14.5728C18.0874 14.5909 18.1221 14.6199 18.1475 14.6565L18.187 14.6286" fill="#406325"/>
<path d="M18.187 14.6317C18.1619 14.5949 18.1271 14.5659 18.0866 14.548C17.8524 14.4241 17.6181 14.3652 17.3564 14.3218C17.2926 14.3125 17.2317 14.2536 17.1678 14.2226C17.0157 14.1514 16.8484 14.1235 16.7023 14.046C16.6932 14.0429 16.6567 14.0212 16.6415 13.9995C16.5806 13.9313 16.4741 13.9096 16.4102 13.8446C16.1547 13.6028 15.8869 13.3797 15.747 13.0543C15.5766 12.6607 15.3667 12.2548 15.394 11.8085C15.4123 11.5234 15.3727 11.2383 15.4397 10.9718C15.5431 10.5689 15.6709 10.1753 15.9082 9.84375L15.8687 9.86854C15.6434 10.2096 15.4843 10.5915 15.4001 10.9935C15.3301 11.2631 15.3697 11.5513 15.3545 11.8302C15.3241 12.2796 15.537 12.6855 15.7044 13.0791C15.8443 13.4014 16.1151 13.6276 16.3676 13.8724C16.4346 13.9344 16.538 13.9561 16.5989 14.0274C16.6172 14.0454 16.6376 14.061 16.6597 14.0739C16.8088 14.1483 16.9761 14.1762 17.1283 14.2505C17.1891 14.2815 17.25 14.3373 17.3108 14.3497C17.5667 14.382 17.8155 14.4574 18.0471 14.5728C18.0874 14.5909 18.1221 14.6199 18.1475 14.6565L18.187 14.6286" stroke="#24420E" stroke-width="0.0138178"/>
<path d="M15.7595 12.9783C15.6969 12.74 15.6948 12.4893 15.7535 12.25C15.9573 12.6529 15.8904 12.9845 15.7595 12.9783ZM17.156 14.3852C16.908 14.4431 16.6786 14.5647 16.4897 14.7385C16.9492 14.7416 17.2199 14.5123 17.156 14.3852ZM17.3842 14.252C17.1764 14.0192 17.0299 13.7367 16.9583 13.4307C17.4147 13.7685 17.5333 14.1838 17.3842 14.252Z" fill="#67923D" stroke="#24420E" stroke-width="0.0138178"/>
<path d="M17.2299 14.2537C17.0109 14.0646 16.8432 13.8213 16.7431 13.5472C17.2086 13.8013 17.3607 14.1731 17.2299 14.2537ZM16.7552 14.043C16.7857 13.8013 16.5849 13.293 16.527 13.2373C16.4358 13.7486 16.6183 14.0926 16.7552 14.043ZM15.9246 13.2899C15.8755 13.0752 15.8807 12.8513 15.9398 12.6391C16.1072 13.0017 16.0402 13.2961 15.9246 13.2899ZM15.5078 10.9099C15.6744 10.6904 15.8947 10.5194 16.1467 10.4141C15.9398 10.8665 15.5991 11.0308 15.5078 10.9099Z" fill="#67923D" stroke="#24420E" stroke-width="0.0138178"/>
<path d="M15.5288 10.737C15.6495 10.4871 15.8319 10.2735 16.0582 10.1172C15.9456 10.6037 15.6414 10.8362 15.5288 10.737ZM16.3777 13.8112C16.2371 13.5619 16.1607 13.2805 16.1556 12.9931C16.4963 13.3804 16.5206 13.7771 16.3746 13.8112H16.3777ZM15.5045 12.6801C15.2915 12.7141 14.8534 12.5375 14.8047 12.4848C15.2489 12.3857 15.5471 12.5468 15.5045 12.6801ZM15.4375 12.3795C15.4619 12.209 15.6992 11.8898 15.7509 11.865C15.7205 12.2369 15.5258 12.4414 15.4375 12.3795ZM16.9983 14.1955C16.702 14.2627 16.4281 14.4081 16.2042 14.6169C16.7519 14.62 17.0774 14.3473 16.9983 14.1955Z" fill="#67923D" stroke="#24420E" stroke-width="0.0138178"/>
<path d="M15.7626 12.974C15.8904 12.9802 15.9573 12.6517 15.7535 12.2489C15.7919 12.4888 15.795 12.7332 15.7626 12.974V12.974ZM16.1034 13.5938C15.9157 13.423 15.6886 13.3036 15.4432 13.2467C15.7139 13.6217 16.0486 13.7147 16.1034 13.5938ZM15.361 11.9514C15.2747 11.6688 15.1198 11.413 14.9107 11.2076C14.9564 11.7406 15.2332 12.035 15.361 11.9514ZM15.6166 13.0143C15.4645 12.8997 15.0385 12.847 14.9777 12.8656C15.288 13.1259 15.5922 13.129 15.6166 13.0143ZM15.3306 12.2458C15.1992 12.0596 15.0218 11.912 14.8164 11.8181C14.9837 12.2024 15.2606 12.3449 15.3306 12.2427V12.2458ZM15.4158 10.7706C15.4401 10.5351 15.2454 10.0455 15.1906 9.98969C15.1024 10.4855 15.2789 10.8171 15.4127 10.7706H15.4158ZM15.5496 10.3089C15.6318 10.1075 15.574 9.61471 15.5344 9.55273C15.3397 9.9711 15.4188 10.3151 15.5496 10.3089Z" fill="#406325" stroke="#24420E" stroke-width="0.0138178"/>
<path d="M15.7014 10.0701C15.7852 9.88173 15.8218 9.67515 15.8079 9.46886C15.5888 9.76946 15.5949 10.0546 15.7014 10.0701ZM15.8839 9.88102C16.019 9.7281 16.1133 9.54244 16.1578 9.3418C15.8626 9.55873 15.7866 9.83144 15.8839 9.88102ZM15.3941 11.2198C15.3971 11.2477 15.3637 10.9657 15.0898 10.6527C15.102 11.1113 15.2785 11.2849 15.3941 11.2198ZM16.3859 13.8787C16.144 13.7501 15.8739 13.6861 15.601 13.6928C15.9843 14.0151 16.3586 14.0213 16.3859 13.8787ZM16.7541 14.043C16.6141 14.0895 16.4346 13.7486 16.5229 13.2372C16.5624 13.5152 16.6391 13.7863 16.751 14.043H16.7541ZM17.1587 14.3839C17.2196 14.5109 16.9518 14.7403 16.4955 14.7372C16.8606 14.5822 17.1405 14.4304 17.1587 14.387V14.3839ZM17.3808 14.2475C17.5299 14.1762 17.4143 13.7672 16.9549 13.4294C17.2165 13.8384 17.3961 14.1917 17.3808 14.2475Z" fill="#406325" stroke="#24420E" stroke-width="0.0138178"/>
<path d="M17.2299 14.2514C17.3576 14.1678 17.2086 13.8021 16.7431 13.548C17.0321 13.895 17.2359 14.1987 17.2299 14.2514ZM15.9277 13.2907C16.0402 13.2969 16.1102 13.0025 15.9429 12.64C15.9642 12.9808 15.9551 13.2598 15.9277 13.2907ZM15.5078 10.9138C15.5991 11.0316 15.9338 10.8704 16.1437 10.418C15.9566 10.6139 15.7423 10.7809 15.5078 10.9138V10.9138Z" fill="#406325" stroke="#24420E" stroke-width="0.0138178"/>
<path d="M15.5349 10.737C15.6444 10.8362 15.9456 10.6037 16.0582 10.1172C15.8148 10.4674 15.5836 10.7308 15.5349 10.737ZM16.3777 13.8081C16.5207 13.774 16.4994 13.3804 16.1556 12.9931C16.3077 13.4114 16.399 13.7616 16.3777 13.8081ZM15.4984 12.6801C15.541 12.5468 15.2458 12.3888 14.8047 12.4848C15.1789 12.553 15.474 12.6398 15.4984 12.6801ZM15.4406 12.3826C15.5288 12.4383 15.7174 12.2369 15.7539 11.865C15.6744 12.0519 15.5688 12.2262 15.4406 12.3826V12.3826ZM16.9983 14.1986C17.0744 14.3535 16.7549 14.6231 16.2073 14.62C16.6393 14.4372 16.977 14.2544 16.9983 14.1986Z" fill="#406325" stroke="#24420E" stroke-width="0.0138178"/>
<path d="M15.5485 12.8119C15.4211 12.6054 15.2427 12.4366 15.0312 12.3223C15.1834 12.7437 15.4633 12.9142 15.5485 12.8119Z" fill="#406325" stroke="#24420E" stroke-width="0.0138178"/>
<path d="M15.3367 11.1927C15.4584 11.0471 15.8691 10.9076 15.933 10.9138C15.6896 11.2392 15.3854 11.3043 15.3367 11.1927ZM16.1003 13.5944C16.0456 13.7184 15.7139 13.6254 15.4401 13.2504C15.6427 13.397 15.8651 13.5129 16.1003 13.5944V13.5944ZM15.358 11.952C15.2302 12.0356 14.9594 11.7412 14.9107 11.2082C15.1115 11.6204 15.3062 11.9365 15.358 11.952ZM15.6135 13.0149C15.5922 13.1296 15.288 13.1265 14.9807 12.8693C15.1836 12.9487 15.3968 12.9977 15.6135 13.0149V13.0149ZM15.3245 12.2433C15.2545 12.3424 14.9837 12.203 14.8164 11.8187C15.0659 12.0666 15.288 12.2433 15.3275 12.2433H15.3245ZM15.4097 10.7681C15.2758 10.8177 15.1024 10.4892 15.1876 9.99339C15.2697 10.4118 15.3701 10.7434 15.4097 10.7681ZM15.5466 10.3064C15.4158 10.3157 15.3367 9.9717 15.5314 9.55334C15.5071 9.95001 15.5162 10.2754 15.5466 10.3064ZM15.6987 10.0709C15.5953 10.0523 15.5862 9.77027 15.8083 9.46966C15.7425 9.66337 15.7055 9.86602 15.6987 10.0709V10.0709ZM15.8813 9.88183C15.787 9.82915 15.86 9.55953 16.1551 9.3457C16.0383 9.50966 15.9461 9.69033 15.8813 9.88183V9.88183Z" fill="#67923D" stroke="#24420E" stroke-width="0.0138178"/>
<path d="M15.3963 11.2195C15.2777 11.2845 15.1043 11.111 15.0921 10.6523C15.2442 11.0149 15.3538 11.204 15.3963 11.2195ZM16.3852 13.8784C16.3578 14.021 15.9866 14.0148 15.6032 13.6956C16.0048 13.8288 16.3426 13.9032 16.3852 13.8784ZM16.1357 13.584C16.0208 13.4059 15.9518 13.2013 15.9349 12.989C16.2087 13.2586 16.2452 13.5499 16.1418 13.584H16.1357ZM15.6245 12.8092C15.515 12.6295 15.5028 12.1616 15.5333 12.0965C15.7858 12.4653 15.7554 12.8 15.6245 12.8092ZM15.5424 12.8123C15.4602 12.9146 15.1803 12.7473 15.0312 12.3227C15.1766 12.511 15.3489 12.6761 15.5424 12.8123V12.8123Z" fill="#67923D" stroke="#24420E" stroke-width="0.0138178"/>
<path d="M15.3359 11.1918C15.3846 11.3034 15.6828 11.2383 15.9292 10.916C15.5641 11.1267 15.4211 11.2197 15.3359 11.1918ZM15.6189 12.8033C15.7497 12.794 15.7801 12.4624 15.5276 12.0967C15.595 12.3268 15.6258 12.5664 15.6189 12.8064V12.8033ZM16.1361 13.5843C16.2396 13.5533 16.203 13.2589 15.9323 12.9892C16.0661 13.2898 16.1513 13.5471 16.1361 13.5843Z" fill="#406325" stroke="#24420E" stroke-width="0.0138178"/>
<path d="M15.3907 11.7426C15.4516 11.4822 15.339 11.0422 15.2599 10.9492C15.1169 11.4265 15.2538 11.7736 15.3907 11.7426Z" fill="#406325" stroke="#24420E" stroke-width="0.0138178"/>
<path d="M15.3867 11.8047C15.2041 11.845 15.122 11.4328 15.262 10.9648C15.2924 11.3832 15.3471 11.7737 15.3837 11.8016L15.3867 11.8047Z" fill="#67923D" stroke="#24420E" stroke-width="0.0138178"/>
<path d="M15.3477 11.8026C15.3744 11.528 15.4685 11.2648 15.6215 11.0371C15.6823 11.5268 15.4846 11.8521 15.3477 11.8026Z" fill="#67923D" stroke="#24420E" stroke-width="0.0138178"/>
<path d="M15.3477 11.7995C15.4846 11.849 15.6793 11.5268 15.6184 11.0371C15.512 11.4493 15.3903 11.7747 15.3477 11.7995Z" fill="#406325" stroke="#24420E" stroke-width="0.0138178"/>
<path d="M15.3906 12.0997C15.4328 11.8302 15.544 11.5769 15.7131 11.3652C15.7375 11.8673 15.5215 12.1679 15.3906 12.0997Z" fill="#67923D" stroke="#24420E" stroke-width="0.0138178"/>
<path d="M15.3906 12.1033C15.5184 12.1714 15.7344 11.8739 15.7101 11.375C15.5762 11.7717 15.4363 12.0847 15.3906 12.1033Z" fill="#406325" stroke="#24420E" stroke-width="0.0138178"/>
<path d="M15.471 10.5213C15.4894 10.5213 15.5044 10.506 15.5044 10.4872C15.5044 10.4684 15.4894 10.4531 15.471 10.4531C15.4525 10.4531 15.4375 10.4684 15.4375 10.4872C15.4375 10.506 15.4525 10.5213 15.471 10.5213Z" fill="#BA1F3E" stroke="#511124" stroke-width="0.0138178"/>
<path d="M15.7249 10.3299C15.7434 10.3299 15.7583 10.3146 15.7583 10.2958C15.7583 10.277 15.7434 10.2617 15.7249 10.2617C15.7064 10.2617 15.6914 10.277 15.6914 10.2958C15.6914 10.3146 15.7064 10.3299 15.7249 10.3299Z" fill="#BA1F3E" stroke="#511124" stroke-width="0.0138178"/>
<path d="M15.6155 10.2244C15.634 10.2244 15.649 10.2092 15.649 10.1903C15.649 10.1715 15.634 10.1562 15.6155 10.1562C15.597 10.1562 15.582 10.1715 15.582 10.1903C15.582 10.2092 15.597 10.2244 15.6155 10.2244Z" fill="#BA1F3E" stroke="#511124" stroke-width="0.0138178"/>
<path d="M15.3403 12.4439C15.3622 12.4439 15.3799 12.4258 15.3799 12.4036C15.3799 12.3813 15.3622 12.3633 15.3403 12.3633C15.3185 12.3633 15.3008 12.3813 15.3008 12.4036C15.3008 12.4258 15.3185 12.4439 15.3403 12.4439Z" fill="#BA1F3E" stroke="#511124" stroke-width="0.0138178"/>
<path d="M15.4146 11.9478C15.4364 11.9478 15.4541 11.9297 15.4541 11.9075C15.4541 11.8852 15.4364 11.8672 15.4146 11.8672C15.3927 11.8672 15.375 11.8852 15.375 11.9075C15.375 11.9297 15.3927 11.9478 15.4146 11.9478Z" fill="#BA1F3E" stroke="#511124" stroke-width="0.0138178"/>
<path d="M15.8169 13.106C15.8387 13.106 15.8564 13.0879 15.8564 13.0657C15.8564 13.0434 15.8387 13.0254 15.8169 13.0254C15.7951 13.0254 15.7773 13.0434 15.7773 13.0657C15.7773 13.0879 15.7951 13.106 15.8169 13.106Z" fill="#BA1F3E" stroke="#511124" stroke-width="0.0138178"/>
<path d="M15.6411 13.1646C15.663 13.1646 15.6807 13.1465 15.6807 13.1243C15.6807 13.102 15.663 13.084 15.6411 13.084C15.6193 13.084 15.6016 13.102 15.6016 13.1243C15.6016 13.1465 15.6193 13.1646 15.6411 13.1646Z" fill="#BA1F3E" stroke="#511124" stroke-width="0.0138178"/>
<path d="M16.9888 14.1333C17.0106 14.1333 17.0283 14.1153 17.0283 14.093C17.0283 14.0708 17.0106 14.0527 16.9888 14.0527C16.9669 14.0527 16.9492 14.0708 16.9492 14.093C16.9492 14.1153 16.9669 14.1333 16.9888 14.1333Z" fill="#BA1F3E" stroke="#511124" stroke-width="0.0138178"/>
<path d="M17.0786 14.3521C17.1005 14.3521 17.1182 14.334 17.1182 14.3118C17.1182 14.2895 17.1005 14.2715 17.0786 14.2715C17.0568 14.2715 17.0391 14.2895 17.0391 14.3118C17.0391 14.334 17.0568 14.3521 17.0786 14.3521Z" fill="#BA1F3E" stroke="#511124" stroke-width="0.0138178"/>
<path d="M20.469 10.7287C20.4903 10.7472 20.5055 10.7534 20.539 10.7875M20.3382 10.2018C20.3382 10.1584 20.3199 10.0872 20.3108 10.0469M20.4173 10.1398C20.4173 10.1987 20.4081 10.2545 20.3838 10.3072M20.256 10.2917C20.3108 10.3413 20.3625 10.3847 20.4173 10.4126M20.5329 10.4497C20.5359 10.5117 20.5298 10.5737 20.5116 10.6357M20.5237 10.6822L20.5633 10.6109M20.5055 10.989C20.5481 10.9983 20.5907 11.051 20.612 11.0974M20.6272 11.0571L20.6759 10.989M20.7276 11.9435C20.7063 11.9807 20.6819 12.0159 20.6546 12.0488M20.5329 12.0488C20.5572 12.0922 20.5816 12.1418 20.612 12.1728M20.688 12.3556C20.6524 12.4071 20.6055 12.4496 20.5511 12.4796M20.5572 12.619C20.5237 12.6438 20.4811 12.712 20.4446 12.7647M20.7002 12.1387L20.6363 12.1666M20.5937 11.9373L20.6302 11.9683M20.3473 13.1273H20.2864M20.2225 13.0715L20.2408 13.1211M20.0096 13.2791C20.0004 13.338 20.0065 13.3938 20.0126 13.4527M20.1434 13.1738L20.1739 13.2419M20.2925 13.2388L20.2165 13.2481M19.2794 14.0322L19.2489 14.088M19.611 13.964C19.5654 13.9702 19.5258 13.964 19.4863 13.9578M19.3189 14.1438C19.2885 14.1283 19.2581 14.1221 19.2276 14.1128M18.7804 14.1964C18.753 14.2181 18.7195 14.2708 18.6891 14.3204M18.6709 14.1809C18.5978 14.2212 18.5735 14.2956 18.537 14.3607M18.6222 14.4475C18.5735 14.4351 18.5187 14.4103 18.4609 14.3855M18.969 14.3638C18.8991 14.3266 18.826 14.3328 18.753 14.3204M19.0816 14.308C18.969 14.2863 18.8686 14.2894 18.7682 14.3049M19.0055 14.2243L18.9629 14.2057M18.7926 14.3762L18.7226 14.3359M20.4842 12.8112C20.4477 12.836 20.4081 12.8825 20.3716 12.932M20.4264 10.4652L20.3594 10.4404" stroke="#24420E" stroke-width="0.0276355"/>
<path d="M17.832 14.6298C17.8564 14.5895 17.8959 14.5678 17.9324 14.5461C18.1667 14.4221 18.401 14.3663 18.6626 14.323C18.7265 14.3106 18.7874 14.2517 18.8513 14.2238C19.0034 14.1494 19.1707 14.1215 19.3168 14.0471C19.3259 14.0409 19.3624 14.0192 19.3776 13.9976C19.4385 13.9294 19.545 13.9077 19.6088 13.8426C19.8644 13.6009 20.1322 13.3778 20.2721 13.0524C20.4425 12.6588 20.6524 12.2528 20.625 11.8066C20.6068 11.5215 20.6463 11.2363 20.5794 10.9698C20.495 10.5669 20.336 10.1841 20.1109 9.8418L20.1504 9.86659C20.3761 10.2086 20.5351 10.5915 20.619 10.9946C20.6889 11.2611 20.6494 11.5493 20.6646 11.8314C20.695 12.2776 20.482 12.6836 20.3147 13.0803C20.1747 13.4025 19.904 13.6257 19.6514 13.8705C19.5845 13.9325 19.4811 13.9542 19.4202 14.0254C19.4019 14.0435 19.3815 14.0591 19.3594 14.0719C19.2103 14.1463 19.0429 14.1773 18.8908 14.2486C18.83 14.2796 18.7691 14.3353 18.7083 14.3477C18.4524 14.3801 18.2036 14.4555 17.972 14.5709C17.9317 14.589 17.897 14.6179 17.8716 14.6545L17.832 14.6298Z" fill="#406325" stroke="#24420E" stroke-width="0.0138178"/>
<path d="M20.2398 13.0711C20.325 12.8418 20.2398 12.3026 20.1972 12.2344C19.9933 12.7116 20.0937 13.0897 20.2398 13.0711Z" fill="#406325" stroke="#24420E" stroke-width="0.0138178"/>
<path d="M20.0271 13.2879C20.0971 13.1143 20.0484 12.6898 20.015 12.6371C19.8476 12.9997 19.9146 13.2972 20.0271 13.2879ZM20.5413 10.9915C20.3878 10.791 20.1853 10.635 19.9541 10.5391C20.1428 10.9512 20.4561 11.1031 20.5413 10.9915Z" fill="#406325" stroke="#24420E" stroke-width="0.0138178"/>
<path d="M20.4919 10.7441C20.3914 10.5356 20.2393 10.3573 20.0508 10.2266C20.1451 10.6294 20.3976 10.8247 20.4919 10.7441ZM20.6349 11.2058C20.5285 11.0819 20.1725 10.961 20.1177 10.9672C20.3307 11.2461 20.5923 11.305 20.6349 11.2058ZM20.5497 12.6438C20.7674 12.6422 20.9807 12.5812 21.1674 12.4671C20.7749 12.3804 20.5132 12.526 20.5497 12.6438ZM20.5437 12.4671C20.5437 12.2936 20.352 11.9465 20.3003 11.9093C20.2851 12.2812 20.4493 12.5136 20.5437 12.4671Z" fill="#406325" stroke="#24420E" stroke-width="0.0138178"/>
<path d="M20.5578 12.0419C20.5152 11.7735 20.404 11.5213 20.2353 11.3105C20.211 11.8126 20.427 12.1101 20.5578 12.0419ZM18.9453 14.3755C19.137 14.5477 19.3701 14.6653 19.6207 14.7163C19.353 14.3352 19.0092 14.2484 18.9484 14.3755H18.9453Z" fill="#406325" stroke="#24420E" stroke-width="0.0138178"/>
<path d="M20.2417 13.0642C20.0926 13.0828 19.9952 12.7109 20.1991 12.2336C20.1839 12.6737 20.2052 13.0301 20.2417 13.0642ZM18.617 14.4153C18.8649 14.4754 19.094 14.598 19.2833 14.7717C18.8239 14.7748 18.5531 14.5455 18.614 14.4184L18.617 14.4153ZM18.617 14.1705C18.6778 13.9226 19.0734 13.5135 19.1494 13.4856C19.0399 14.0156 18.7326 14.2759 18.617 14.1705V14.1705ZM19.265 14.0434C19.2727 13.7595 19.3513 13.4822 19.4932 13.2377C19.5845 13.7459 19.402 14.0899 19.265 14.0434ZM19.9192 13.591C20.106 13.4206 20.332 13.3012 20.5764 13.2439C20.3056 13.6189 19.9739 13.7119 19.9161 13.591H19.9192ZM20.7011 11.9392C20.7315 11.744 20.9962 11.3845 21.054 11.3535C21.0175 11.775 20.8015 12.0043 20.7011 11.9423V11.9392Z" fill="#67923D" stroke="#24420E" stroke-width="0.0138178"/>
<path d="M20.3438 13.1202C20.5733 13.0009 20.8285 12.9423 21.0861 12.9498C20.7271 13.2504 20.3711 13.2535 20.3438 13.1202ZM20.6571 12.361C20.795 12.1666 20.9807 12.0126 21.1956 11.9147C21.0192 12.3176 20.7301 12.4663 20.6571 12.361ZM20.6115 10.9478C20.6115 10.7123 20.8549 10.2444 20.9157 10.1979C20.9492 10.6968 20.7423 11.0098 20.6115 10.9478ZM20.4016 10.1452C20.3496 9.94212 20.3485 9.72898 20.3985 9.52539C20.5659 9.86318 20.5111 10.1452 20.3985 10.1452H20.4016Z" fill="#67923D" stroke="#24420E" stroke-width="0.0138178"/>
<path d="M20.2714 10.0775C20.1116 9.87953 20.0028 9.64413 19.9549 9.39258C20.314 9.68079 20.3931 10.0248 20.2714 10.0775ZM20.6273 11.1466C20.6182 11.1745 20.7186 10.908 21.0594 10.6725C20.9377 11.1156 20.7247 11.2396 20.6273 11.1466ZM19.5898 13.9326C19.8644 13.7893 20.1698 13.7179 20.4783 13.725C20.0462 14.0907 19.6203 14.0969 19.5898 13.9326ZM20.0249 13.288C19.9123 13.2942 19.8424 12.9998 20.0097 12.6372C19.9884 12.9781 19.9975 13.257 20.0249 13.288ZM20.5391 10.9917C20.457 11.1032 20.1436 10.9545 19.9549 10.5392C20.1257 10.7197 20.3227 10.8723 20.5391 10.9917V10.9917ZM20.4874 10.7437C20.3931 10.8243 20.1436 10.6322 20.0493 10.2262C20.2531 10.5175 20.4448 10.7375 20.4874 10.7437ZM20.6334 11.2086C20.5908 11.3047 20.3322 11.2489 20.1192 10.97C20.4357 11.1528 20.5604 11.2303 20.6365 11.2086H20.6334ZM20.5543 12.6403C20.5148 12.5226 20.7764 12.3831 21.1689 12.4699C20.9567 12.4945 20.7495 12.552 20.5543 12.6403V12.6403ZM20.5421 12.4668C20.4448 12.5133 20.2835 12.2839 20.2987 11.9121C20.3531 12.1089 20.4351 12.2968 20.5421 12.4699V12.4668Z" fill="#67923D" stroke="#24420E" stroke-width="0.0138178"/>
<path d="M20.5565 12.0486C20.4257 12.1168 20.2127 11.8193 20.2371 11.3203C20.3709 11.717 20.5109 12.03 20.5565 12.0486ZM18.9531 14.3759C19.014 14.2458 19.3517 14.3325 19.6225 14.7106C19.2878 14.503 18.9988 14.3604 18.9531 14.3759V14.3759Z" fill="#67923D" stroke="#24420E" stroke-width="0.0138178"/>
<path d="M19.2656 14.039C19.4056 14.0886 19.5851 13.7477 19.4969 13.2363C19.4117 13.6702 19.3082 14.0142 19.2656 14.0421V14.039Z" fill="#406325" stroke="#24420E" stroke-width="0.0138178"/>
<path d="M19.5786 13.8768C19.6938 13.6144 19.7419 13.3266 19.7185 13.0401C19.4143 13.4616 19.4325 13.8551 19.5786 13.8768ZM18.6141 14.4192C18.5533 14.5462 18.818 14.7755 19.2774 14.7693C18.9123 14.6206 18.6324 14.4656 18.6141 14.4192V14.4192ZM18.6202 14.1681C18.7358 14.2735 19.0401 14.0163 19.1496 13.4864C18.9031 13.8706 18.6719 14.1619 18.6202 14.1681V14.1681ZM19.9193 13.5917C19.9741 13.7157 20.3057 13.6227 20.5796 13.2477C20.377 13.3943 20.1546 13.5102 19.9193 13.5917V13.5917ZM20.7043 11.94C20.8047 12.005 21.0177 11.7757 21.0542 11.3573C20.9664 11.5681 20.8485 11.7644 20.7043 11.94ZM20.3453 13.1207C20.3757 13.257 20.7256 13.2508 21.0877 12.9502C20.7073 13.0742 20.3879 13.1424 20.3483 13.1207H20.3453ZM20.6617 12.3583C20.7378 12.4637 21.0238 12.3149 21.2002 11.9121C21.0441 12.0879 20.8625 12.2384 20.6617 12.3583V12.3583ZM20.6191 10.9452C20.7469 11.0072 20.9538 10.6973 20.9173 10.2014C20.7956 10.6043 20.6617 10.9235 20.6161 10.9452H20.6191ZM20.4061 10.1425C20.5126 10.1456 20.5704 9.86363 20.4 9.52274C20.4305 9.84813 20.4305 10.1146 20.4061 10.1425ZM20.2753 10.0744C20.397 10.0217 20.3179 9.68079 19.9589 9.39258C20.0972 9.60247 20.2038 9.83228 20.2753 10.0744V10.0744ZM20.6282 11.1497C20.7256 11.2427 20.9386 11.1187 21.0603 10.6725C20.823 10.9855 20.6739 11.1435 20.6282 11.1497ZM19.5938 13.9357C19.6242 14.0969 20.0471 14.0907 20.4761 13.7281C20.0228 13.8768 19.6425 13.9636 19.5938 13.9357Z" fill="#406325" stroke="#24420E" stroke-width="0.0138178"/>
<path d="M19.8013 13.6979C19.8888 13.503 19.9265 13.2887 19.9108 13.075C19.6826 13.3849 19.6918 13.6793 19.8013 13.6948V13.6979ZM20.3976 12.8085C20.5072 12.6318 20.5193 12.1608 20.4889 12.0957C20.2364 12.4645 20.2668 12.7992 20.3976 12.8085Z" fill="#406325" stroke="#24420E" stroke-width="0.0138178"/>
<path d="M19.5797 13.8735C19.4337 13.855 19.4185 13.4614 19.7166 13.043C19.6071 13.4707 19.5524 13.8302 19.5797 13.8735ZM20.6507 11.7569C20.6203 11.5152 20.7724 11.134 20.8515 11.0597C20.9306 11.5059 20.7693 11.8034 20.6507 11.7569ZM19.8018 13.6938C19.6923 13.6783 19.6832 13.3839 19.9114 13.074C19.8443 13.2738 19.8074 13.4828 19.8018 13.6938V13.6938ZM20.5138 10.4646C20.4468 10.2787 20.5138 9.84484 20.5503 9.78906C20.7115 10.1671 20.6294 10.4739 20.5138 10.4646ZM18.7461 14.1865C18.8222 13.9386 19.239 13.5358 19.3181 13.5048C19.1873 14.0471 18.8617 14.2981 18.7461 14.1865V14.1865ZM20.4073 12.8974C20.5339 12.6913 20.7111 12.5225 20.9215 12.4077C20.7693 12.8292 20.4894 12.9996 20.4043 12.8974H20.4073ZM20.4012 12.8044C20.2704 12.792 20.24 12.4635 20.4925 12.0947C20.4251 12.3248 20.3943 12.5644 20.4012 12.8044Z" fill="#67923D" stroke="#24420E" stroke-width="0.0138178"/>
<path d="M20.6484 11.8129C20.8066 11.8718 20.9223 11.5092 20.8492 11.0723C20.8136 11.3279 20.7461 11.5778 20.6484 11.816V11.8129Z" fill="#406325" stroke="#24420E" stroke-width="0.0138178"/>
<path d="M20.672 11.8003C20.6872 11.5679 20.459 11.0875 20.3982 11.0349C20.3373 11.5245 20.5351 11.8499 20.672 11.8003ZM20.5107 10.4615C20.6294 10.4739 20.7085 10.1702 20.5472 9.78906C20.5594 10.1454 20.5412 10.4337 20.5107 10.4615ZM18.7461 14.1834C18.8617 14.2981 19.1842 14.0471 19.315 13.5079C19.0473 13.889 18.7978 14.1772 18.7461 14.1834V14.1834ZM20.4073 12.8974C20.4925 12.9996 20.7724 12.8323 20.9245 12.4077C20.7773 12.5965 20.6029 12.7616 20.4073 12.8974V12.8974Z" fill="#406325" stroke="#24420E" stroke-width="0.0138178"/>
<path d="M20.669 11.7983C20.5321 11.851 20.3373 11.5287 20.3982 11.0391C20.5047 11.4481 20.6264 11.7735 20.669 11.7983Z" fill="#67923D" stroke="#24420E" stroke-width="0.0138178"/>
<path d="M20.5764 10.6365C20.5949 10.6365 20.6099 10.6213 20.6099 10.6024C20.6099 10.5836 20.5949 10.5684 20.5764 10.5684C20.558 10.5684 20.543 10.5836 20.543 10.6024C20.543 10.6213 20.558 10.6365 20.5764 10.6365Z" fill="#BA1F3E" stroke="#511124" stroke-width="0.0138178"/>
<path d="M20.6897 11.0057C20.7082 11.0057 20.7232 10.9904 20.7232 10.9716C20.7232 10.9528 20.7082 10.9375 20.6897 10.9375C20.6712 10.9375 20.6562 10.9528 20.6562 10.9716C20.6562 10.9904 20.6712 11.0057 20.6897 11.0057Z" fill="#BA1F3E" stroke="#511124" stroke-width="0.0138178"/>
<path d="M20.7349 12.1724C20.7567 12.1724 20.7744 12.1543 20.7744 12.1321C20.7744 12.1098 20.7567 12.0918 20.7349 12.0918C20.713 12.0918 20.6953 12.1098 20.6953 12.1321C20.6953 12.1543 20.713 12.1724 20.7349 12.1724Z" fill="#BA1F3E" stroke="#511124" stroke-width="0.0138178"/>
<path d="M20.5747 11.9556C20.5966 11.9556 20.6143 11.9375 20.6143 11.9153C20.6143 11.893 20.5966 11.875 20.5747 11.875C20.5529 11.875 20.5352 11.893 20.5352 11.9153C20.5352 11.9375 20.5529 11.9556 20.5747 11.9556Z" fill="#BA1F3E" stroke="#511124" stroke-width="0.0138178"/>
<path d="M20.1294 13.1919C20.1512 13.1919 20.1689 13.1739 20.1689 13.1516C20.1689 13.1294 20.1512 13.1113 20.1294 13.1113C20.1076 13.1113 20.0898 13.1294 20.0898 13.1516C20.0898 13.1739 20.1076 13.1919 20.1294 13.1919Z" fill="#BA1F3E" stroke="#511124" stroke-width="0.0138178"/>
<path d="M20.3208 13.2759C20.3426 13.2759 20.3604 13.2578 20.3604 13.2356C20.3604 13.2133 20.3426 13.1953 20.3208 13.1953C20.299 13.1953 20.2812 13.2133 20.2812 13.2356C20.2812 13.2578 20.299 13.2759 20.3208 13.2759Z" fill="#BA1F3E" stroke="#511124" stroke-width="0.0138178"/>
<path d="M19.0317 14.2798C19.0536 14.2798 19.0713 14.2618 19.0713 14.2395C19.0713 14.2173 19.0536 14.1992 19.0317 14.1992C19.0099 14.1992 18.9922 14.2173 18.9922 14.2395C18.9922 14.2618 19.0099 14.2798 19.0317 14.2798Z" fill="#BA1F3E" stroke="#511124" stroke-width="0.0138178"/>
<path d="M18.8169 14.436C18.8387 14.436 18.8564 14.418 18.8564 14.3958C18.8564 14.3735 18.8387 14.3555 18.8169 14.3555C18.7951 14.3555 18.7773 14.3735 18.7773 14.3958C18.7773 14.418 18.7951 14.436 18.8169 14.436Z" fill="#BA1F3E" stroke="#511124" stroke-width="0.0138178"/>
<path d="M20.346 10.4627C20.3645 10.4627 20.3794 10.4474 20.3794 10.4286C20.3794 10.4098 20.3645 10.3945 20.346 10.3945C20.3275 10.3945 20.3125 10.4098 20.3125 10.4286C20.3125 10.4474 20.3275 10.4627 20.346 10.4627Z" fill="#BA1F3E" stroke="#511124" stroke-width="0.0138178"/>
<path d="M16.6141 13.1224C16.608 13.1534 16.6384 13.1937 16.6749 13.1844C16.6901 13.1844 16.6962 13.1689 16.681 13.1689C16.6688 13.1751 16.6536 13.1689 16.6445 13.1596C16.6372 13.1514 16.6322 13.1412 16.6301 13.1303C16.6279 13.1194 16.6287 13.1081 16.6323 13.0977L16.6141 13.1224Z" fill="#8C959D" stroke="#485654" stroke-width="0.00690888"/>
<path d="M16.6999 13.1851C16.6694 13.2222 16.6238 13.2377 16.5964 13.2129C16.5782 13.1944 16.5721 13.1758 16.5812 13.151L16.5508 13.1913C16.5508 13.1913 16.569 13.2315 16.5995 13.247C16.639 13.2625 16.6907 13.2377 16.7212 13.1975C16.7455 13.1665 16.7698 13.1231 16.7516 13.0859C16.7377 13.0619 16.7163 13.0433 16.6907 13.0332L16.6603 13.0642C16.6755 13.058 16.6968 13.0642 16.712 13.0766C16.7516 13.1076 16.7303 13.1541 16.6999 13.1851V13.1851Z" fill="#8C959D"/>
<path d="M16.699 13.1842C16.6898 13.1966 16.6785 13.2071 16.6655 13.2152C16.6503 13.2214 16.6351 13.2276 16.6199 13.2245C16.6119 13.2244 16.6042 13.2211 16.5986 13.2152C16.595 13.2133 16.5917 13.2107 16.5891 13.2075C16.5865 13.2043 16.5846 13.2006 16.5834 13.1966C16.5773 13.1904 16.5773 13.1842 16.5743 13.175C16.5743 13.1657 16.5743 13.1595 16.5803 13.1502L16.5834 13.1533L16.5499 13.1935V13.1904L16.5803 13.2307L16.6016 13.2431L16.626 13.2462C16.6433 13.2459 16.6602 13.2405 16.6747 13.2307C16.6899 13.2245 16.7051 13.2121 16.7142 13.1997L16.7446 13.1564C16.7507 13.1409 16.7568 13.1254 16.7538 13.1068C16.7538 13.0975 16.7538 13.0913 16.7477 13.082C16.7338 13.0599 16.7136 13.0426 16.6899 13.0324H16.6929L16.6625 13.0665H16.6594C16.6655 13.0603 16.6747 13.0603 16.6807 13.0603L16.7051 13.0665C16.7173 13.0758 16.7294 13.0882 16.7325 13.1037C16.7355 13.1192 16.7325 13.1347 16.7264 13.1471C16.7203 13.1626 16.7112 13.175 16.699 13.1842V13.1842ZM16.699 13.1842C16.7112 13.175 16.7173 13.1626 16.7233 13.1471C16.7294 13.1347 16.7325 13.1161 16.7294 13.1037C16.7264 13.0882 16.7142 13.0789 16.702 13.0727C16.6899 13.0634 16.6716 13.0603 16.6625 13.0665H16.6594L16.6899 13.0293C16.7152 13.0398 16.7365 13.0582 16.7507 13.082C16.7568 13.0882 16.7598 13.0975 16.7598 13.1068C16.7598 13.1254 16.7568 13.144 16.7477 13.1595C16.7416 13.175 16.7325 13.1904 16.7173 13.2028C16.7081 13.2183 16.6929 13.2276 16.6777 13.2369C16.6625 13.2462 16.6473 13.2524 16.626 13.2524C16.6171 13.2528 16.6082 13.2513 16.5998 13.2481C16.5914 13.2449 16.5838 13.2401 16.5773 13.2338C16.5648 13.2213 16.5545 13.2066 16.5469 13.1904L16.5773 13.1502H16.5834L16.5803 13.175C16.5803 13.1811 16.5803 13.1904 16.5864 13.1966L16.6016 13.2121C16.6047 13.2183 16.6138 13.2214 16.6199 13.2214C16.6351 13.2245 16.6503 13.2214 16.6655 13.2152L16.699 13.1842V13.1842Z" fill="#485654"/>
<path d="M19.0741 10.4269L17.854 11.651L16.6036 12.8658L16.4636 13.0332C16.4028 13.1045 16.3298 13.1974 16.2446 13.2811C16.2293 13.3028 16.2111 13.2935 16.1928 13.3059C16.1381 13.3369 16.0803 13.3927 16.0407 13.4392L15.6665 13.8575C15.6452 13.8854 15.6361 13.9009 15.6543 13.9195L15.8551 14.1922C15.8916 14.2294 15.9342 14.248 15.9525 14.217C16.0468 14.0466 16.2872 13.7893 16.3784 13.5879C16.4302 13.4639 16.4971 13.2439 16.5458 13.1912C16.6066 13.1231 16.7618 12.9495 16.9048 12.7977L16.9352 12.7667C16.9413 12.7543 16.9504 12.745 16.9626 12.7357C17.6776 11.9919 18.5051 11.0901 19.1075 10.4548L19.0771 10.4238L19.0741 10.4269Z" fill="#6C301E" stroke="#351710" stroke-width="0.0138178" stroke-linejoin="round"/>
<path d="M16.5414 12.8676C16.5048 12.8676 16.4805 12.8459 16.4531 12.8242C16.4896 12.8366 16.5261 12.849 16.5596 12.8335L16.5414 12.8676V12.8676Z" fill="#8C959D" stroke="#485654" stroke-width="0.00690888"/>
<path d="M20.3462 9.52148L19.3787 10.3334C19.3696 10.3458 19.3605 10.3427 19.3513 10.3334L19.2631 10.259V10.2405L19.3057 10.1971C19.3118 10.1909 19.3057 10.1878 19.3027 10.1785L19.2844 10.1599C19.2753 10.1568 19.2692 10.1599 19.2631 10.1661L19.2205 10.2126C19.1992 10.2126 19.181 10.2312 19.1779 10.2559C18.5938 10.8355 18.0887 11.353 17.5076 11.9232L16.82 12.5926C16.7957 12.6236 16.6892 12.6825 16.6192 12.7289C16.5948 12.7444 16.5735 12.7599 16.5644 12.7754L16.5097 12.9459C16.4914 12.9831 16.4336 13.0698 16.4336 13.076L16.5492 13.1907L16.8869 12.8219L16.9143 12.7909C16.8919 12.7594 16.8653 12.7312 16.8352 12.7073L16.8139 12.6918C16.8109 12.6856 16.823 12.6763 16.8291 12.6701C17.6323 11.8767 18.5025 11.0059 19.2083 10.2962C19.2181 10.3 19.229 10.3 19.2388 10.2962L19.327 10.3923C19.3453 10.414 19.3635 10.414 19.3787 10.4047L20.3493 9.52148H20.3462Z" fill="#B2B6BA" stroke="#485654" stroke-width="0.0138178"/>
<path d="M16.5109 12.9396H16.5291L16.5443 12.9365L16.5656 12.8622L16.59 12.7878C16.5839 12.7816 16.5778 12.7754 16.5687 12.7754C16.5778 12.7754 16.5839 12.7816 16.59 12.7878L16.5687 12.8622L16.5474 12.9365L16.5291 12.9427L16.5078 12.9396H16.5109Z" fill="#485654"/>
<path d="M16.7331 12.8868C16.7432 12.8868 16.7514 12.8785 16.7514 12.8682C16.7514 12.8579 16.7432 12.8496 16.7331 12.8496C16.723 12.8496 16.7148 12.8579 16.7148 12.8682C16.7148 12.8785 16.723 12.8868 16.7331 12.8868Z" stroke="#485654" stroke-width="0.0138178"/>
<path d="M16.6159 13.004C16.626 13.004 16.6342 12.9957 16.6342 12.9854C16.6342 12.9751 16.626 12.9668 16.6159 12.9668C16.6058 12.9668 16.5977 12.9751 16.5977 12.9854C16.5977 12.9957 16.6058 13.004 16.6159 13.004Z" stroke="#485654" stroke-width="0.0138178"/>
<path d="M16.8165 12.6922C16.7966 12.6776 16.7783 12.661 16.7617 12.6426C16.7816 12.6571 16.8 12.6737 16.8165 12.6922V12.6922Z" fill="#485654"/>
<path d="M18.6797 10.7264L18.7862 10.8349L18.8044 10.8163L18.6979 10.7109L18.6797 10.7295V10.7264Z" fill="#8C959D" stroke="#485654" stroke-width="0.00690888"/>
<path d="M18.8926 13.1653C18.8972 13.1966 18.8648 13.2353 18.8288 13.2242C18.8136 13.2235 18.8083 13.2077 18.8235 13.2084C18.8353 13.2152 18.8508 13.2098 18.8604 13.201C18.8681 13.1931 18.8735 13.1832 18.8762 13.1724C18.8789 13.1617 18.8786 13.1503 18.8755 13.1397L18.8926 13.1653Z" fill="#8C959D" stroke="#485654" stroke-width="0.00690889"/>
<path d="M18.8008 13.2224C18.8294 13.261 18.8743 13.2788 18.9028 13.2554C18.922 13.2377 18.9289 13.2194 18.921 13.1942L18.9495 13.236C18.9495 13.236 18.9293 13.2753 18.8982 13.2893C18.8579 13.3028 18.8074 13.2755 18.779 13.2337C18.7562 13.2015 18.7339 13.157 18.7539 13.1208C18.769 13.0974 18.7913 13.08 18.8172 13.0712L18.8461 13.1036C18.8312 13.0967 18.8097 13.1018 18.7939 13.1134C18.7529 13.1424 18.7719 13.1899 18.8008 13.2224V13.2224Z" fill="#8C959D"/>
<path d="M18.8016 13.2234C18.8101 13.2362 18.821 13.2472 18.8335 13.256C18.8484 13.2629 18.8633 13.2699 18.8786 13.2675C18.8867 13.2678 18.8945 13.2649 18.9004 13.2593C18.9041 13.2576 18.9074 13.2551 18.9102 13.2521C18.9129 13.249 18.9151 13.2454 18.9164 13.2415C18.9228 13.2356 18.9231 13.2294 18.9266 13.2203C18.927 13.211 18.9273 13.2048 18.9217 13.1952L18.9185 13.1982L18.95 13.2401L18.9502 13.237L18.9179 13.2757L18.896 13.287L18.8715 13.2889C18.8542 13.2877 18.8376 13.2815 18.8236 13.271C18.8087 13.2641 18.7941 13.2509 18.7856 13.2381L18.7573 13.1932C18.752 13.1775 18.7466 13.1617 18.7506 13.1433C18.751 13.134 18.7513 13.1278 18.7578 13.1188C18.7728 13.0974 18.7938 13.0812 18.818 13.0722L18.8149 13.072L18.8437 13.1076L18.8467 13.1077C18.8409 13.1012 18.8318 13.1008 18.8257 13.1005L18.8011 13.1054C18.7885 13.1141 18.7758 13.1259 18.772 13.1412C18.7682 13.1566 18.7705 13.1722 18.776 13.1849C18.7813 13.2006 18.7899 13.2135 18.8016 13.2234V13.2234ZM18.8016 13.2234C18.7899 13.2135 18.7844 13.2008 18.779 13.185C18.7736 13.1723 18.7714 13.1536 18.775 13.1414C18.7788 13.1261 18.7914 13.1174 18.8039 13.1118C18.8165 13.1031 18.8349 13.1009 18.8437 13.1076L18.8467 13.1077L18.8181 13.0691C18.7924 13.0783 18.7702 13.0957 18.7548 13.1186C18.7484 13.1245 18.7449 13.1337 18.7445 13.143C18.7436 13.1615 18.7458 13.1803 18.7541 13.1962C18.7595 13.212 18.7678 13.2279 18.7824 13.241C18.7908 13.257 18.8056 13.267 18.8203 13.277C18.8351 13.2871 18.85 13.294 18.8712 13.2951C18.8801 13.2959 18.8891 13.2949 18.8976 13.2921C18.9061 13.2893 18.914 13.2849 18.9207 13.2789C18.9339 13.267 18.9448 13.2529 18.9532 13.2371L18.9248 13.1954L18.9187 13.1951L18.9205 13.22C18.9202 13.2262 18.9198 13.2355 18.9134 13.2414L18.8975 13.2561C18.8941 13.2621 18.8849 13.2648 18.8788 13.2644C18.8634 13.2668 18.8484 13.2629 18.8335 13.256L18.8016 13.2234V13.2234Z" fill="#485654"/>
<path d="M16.5627 10.35L17.7226 11.6334L18.9133 12.909L19.045 13.0831C19.1024 13.1573 19.1709 13.2538 19.2519 13.3416C19.2661 13.364 19.2848 13.3556 19.3024 13.3689C19.3556 13.4026 19.4107 13.4612 19.448 13.5096L19.8017 13.9461C19.8216 13.975 19.83 13.9909 19.8109 14.0086L19.5972 14.271C19.559 14.3063 19.5155 14.3228 19.4988 14.2909C19.4128 14.116 19.185 13.8471 19.1035 13.6414C19.0578 13.515 19.0015 13.2919 18.9554 13.2368C18.8979 13.1657 18.7512 12.9847 18.6157 12.8259L18.5868 12.7934C18.5813 12.7807 18.5726 12.771 18.5609 12.7611C17.8825 11.9826 17.0991 11.0407 16.5279 10.3762L16.5598 10.3468L16.5627 10.35Z" fill="#6C301E" stroke="#351710" stroke-width="0.0138178" stroke-linejoin="round"/>
<path d="M18.9762 12.9159C19.0127 12.9177 19.038 12.8973 19.0664 12.877C19.0293 12.8875 18.9923 12.8981 18.9596 12.8809L18.9762 12.9159V12.9159Z" fill="#8C959D" stroke="#485654" stroke-width="0.00690889"/>
<path d="M15.3342 9.38344L16.2616 10.2426C16.2702 10.2554 16.2794 10.2527 16.289 10.2439L16.3807 10.174L16.3816 10.1554L16.3411 10.11C16.3353 10.1035 16.3416 10.1007 16.345 10.0916L16.3642 10.0739C16.3734 10.0713 16.3794 10.0747 16.3851 10.0812L16.4255 10.1297C16.4467 10.1308 16.4641 10.1502 16.4659 10.1752C17.0216 10.783 17.5012 11.3251 18.0543 11.9235L18.709 12.6263C18.7318 12.6585 18.8353 12.7226 18.903 12.7725C18.9266 12.7892 18.9471 12.8057 18.9555 12.8217L19.002 12.9946C19.0184 13.0327 19.072 13.1222 19.0717 13.1284L18.9507 13.2372L18.6311 12.8521L18.6052 12.8197C18.6291 12.7893 18.657 12.7625 18.6883 12.7401L18.7103 12.7257C18.7136 12.7197 18.7019 12.7098 18.6961 12.7033C17.9319 11.8709 17.1046 10.9578 16.4336 10.2139C16.4236 10.2172 16.4128 10.2167 16.4032 10.2124L16.3105 10.3039C16.2912 10.3247 16.273 10.3238 16.2582 10.3137L15.3312 9.38329L15.3342 9.38344Z" fill="#B2B6BA" stroke="#485654" stroke-width="0.0138178"/>
<path d="M19.0008 12.9881L18.9826 12.9872L18.9675 12.9834L18.9498 12.908L18.9291 12.8325C18.9355 12.8266 18.9418 12.8207 18.9509 12.8212C18.9418 12.8207 18.9355 12.8266 18.9291 12.8325L18.9468 12.9079L18.9645 12.9832L18.9824 12.9903L19.0038 12.9883L19.0008 12.9881Z" fill="#485654"/>
<path d="M18.7847 12.9249C18.7746 12.9244 18.7668 12.9157 18.7673 12.9054C18.7678 12.8952 18.7764 12.8873 18.7865 12.8878C18.7965 12.8883 18.8043 12.897 18.8038 12.9072C18.8033 12.9175 18.7947 12.9254 18.7847 12.9249Z" stroke="#485654" stroke-width="0.0138178"/>
<path d="M18.894 13.048C18.884 13.0475 18.8762 13.0387 18.8767 13.0285C18.8772 13.0182 18.8858 13.0103 18.8958 13.0108C18.9059 13.0113 18.9137 13.02 18.9132 13.0303C18.9127 13.0405 18.9041 13.0485 18.894 13.048Z" stroke="#485654" stroke-width="0.0138178"/>
<path d="M18.7085 12.7245C18.7291 12.711 18.7482 12.6953 18.7656 12.6777C18.7451 12.6913 18.7259 12.707 18.7085 12.7245V12.7245Z" fill="#485654"/>
<path d="M16.9446 10.6698L16.833 10.7728L16.8157 10.7533L16.9271 10.6534L16.9444 10.6729L16.9446 10.6698Z" fill="#8C959D" stroke="#485654" stroke-width="0.00690889"/>
<path d="M16.6024 14.0241C16.3081 13.9523 16.0003 13.962 15.7109 14.052C16.2069 14.2999 16.6085 14.1946 16.5993 14.021L16.6024 14.0241ZM19.3102 14.1264C19.5475 14.0241 20.1256 14.1047 20.1956 14.1574C19.7027 14.4022 19.298 14.2968 19.3072 14.1264H19.3102Z" fill="#67923D" stroke="#24420E" stroke-width="0.0138178"/>
<path d="M16.5963 14.0265C16.6054 14.197 16.2069 14.3023 15.7109 14.0544C16.1764 14.0854 16.5567 14.0668 16.5933 14.0234L16.5963 14.0265ZM19.3102 14.1288C19.3041 14.2992 19.7027 14.4046 20.1986 14.1567C19.7331 14.1877 19.3528 14.1691 19.3132 14.1257L19.3102 14.1288Z" fill="#406325" stroke="#24420E" stroke-width="0.0138178"/>
<path d="M18.87 13.8575C18.2573 12.9925 17.4673 12.2735 16.5547 11.7502C16.6612 11.744 16.9015 11.8711 17.0019 11.9362C17.7291 12.4134 18.3498 13.0456 18.9978 13.7894C18.9613 13.8265 18.937 13.8513 18.8944 13.8823L18.87 13.8575V13.8575Z" fill="#B2B6BA" stroke="#485654" stroke-width="0.0138178"/>
<path d="M18.933 13.8511L18.8844 13.8883C18.1846 12.971 17.211 12.094 16.5508 11.75C17.4666 12.1777 18.2363 13.0423 18.9239 13.8449H18.927L18.933 13.8511Z" fill="#8C959D"/>
<path d="M18.933 13.8515L18.8844 13.8886C18.561 13.4657 18.2027 13.0717 17.8134 12.711C17.5223 12.4388 17.2133 12.1872 16.8885 11.958C16.779 11.8836 16.6664 11.8123 16.5508 11.7503V11.7441C16.7942 11.8588 17.0193 11.9983 17.2353 12.1563C17.4483 12.3113 17.6491 12.4879 17.8438 12.6707C18.0362 12.855 18.2219 13.0462 18.4006 13.2441C18.5832 13.4424 18.7535 13.6469 18.93 13.8484L18.933 13.8515ZM18.933 13.8515C18.7566 13.6469 18.5832 13.4486 18.4006 13.2503C18.222 13.0523 18.0362 12.861 17.8438 12.6769C17.6491 12.4941 17.4483 12.3206 17.2353 12.1625C17.0224 12.0076 16.7942 11.865 16.5538 11.7534V11.7472C16.7833 11.8799 17.0038 12.028 17.214 12.1904C17.6331 12.5162 18.0221 12.8803 18.3763 13.2781C18.5549 13.4754 18.7254 13.6801 18.8874 13.8917L18.933 13.8515V13.8515Z" fill="#485654"/>
<path d="M19.1438 13.7031C19.0829 13.7217 19.0312 13.7434 18.9825 13.7744C18.9764 13.8178 18.9217 13.8674 18.876 13.8767L18.8578 13.8519H18.8517L18.8334 13.8612C18.8152 13.8612 18.7939 13.8674 18.7848 13.8922C18.7726 13.9232 18.7939 13.9634 18.8213 13.9882C18.8517 14.0099 18.8639 14.0192 18.8943 14.0192C18.9278 14.0099 18.946 13.9789 18.9551 13.9696C19.0677 14.1091 19.1529 14.1866 19.2959 14.2981C19.3598 14.2981 19.3933 14.2578 19.372 14.2114C19.3659 14.1959 19.3476 14.1866 19.3324 14.1928V14.1773C19.4054 14.1091 19.4389 14.0223 19.3598 13.8736C19.2928 13.7496 19.2168 13.7062 19.1468 13.7062H19.1438V13.7031ZM19.3324 13.8457C19.3476 13.8674 19.3537 13.8891 19.3628 13.9077C19.4115 14.0006 19.372 14.1153 19.2929 14.1494H19.2868C19.2989 14.1277 19.2624 14.0812 19.2442 14.0967C19.2533 14.075 19.2229 14.0347 19.1985 14.044C19.2107 14.0223 19.1833 13.9851 19.1559 13.9975C19.1681 13.9758 19.1468 13.9417 19.1164 13.9479C19.1255 13.9232 19.1042 13.8922 19.0768 13.8984C19.0768 13.8736 19.0707 13.8612 19.0616 13.8519C19.092 13.8271 19.1316 13.7868 19.1651 13.7682C19.2472 13.731 19.2989 13.7992 19.3324 13.8457V13.8457Z" fill="#FAB81C" stroke="#6C301E" stroke-width="0.0138178"/>
<path d="M19.3678 13.9441C19.3526 13.9348 19.3435 13.9193 19.3496 13.91C19.3556 13.8976 19.3709 13.8945 19.3861 13.9038C19.4013 13.91 19.4104 13.9255 19.4074 13.9348C19.4013 13.9472 19.383 13.9503 19.3678 13.9441V13.9441Z" fill="#FAB81C" stroke="#6C301E" stroke-width="0.00690888"/>
<path d="M19.36 13.9131C19.3448 13.9038 19.3357 13.8883 19.3417 13.8759C19.3478 13.8666 19.363 13.8635 19.3783 13.8728C19.3935 13.879 19.4026 13.8945 19.3996 13.9038C19.3935 13.9162 19.3752 13.9193 19.36 13.9131V13.9131Z" fill="#FAB81C" stroke="#6C301E" stroke-width="0.00690888"/>
<path d="M19.3405 13.8774C19.3253 13.8712 19.3161 13.8557 19.3222 13.8464C19.3283 13.834 19.3435 13.8309 19.3587 13.8371C19.3739 13.8464 19.3831 13.8619 19.377 13.8712C19.3739 13.8836 19.3557 13.8867 19.3405 13.8774Z" fill="#FAB81C" stroke="#6C301E" stroke-width="0.00690888"/>
<path d="M19.317 13.8462C19.3018 13.8369 19.2927 13.8215 19.2988 13.8122C19.3049 13.8029 19.3201 13.7998 19.3353 13.806C19.3505 13.8153 19.3596 13.8308 19.3566 13.84C19.3505 13.8493 19.3322 13.8555 19.317 13.8462V13.8462Z" fill="#FAB81C" stroke="#6C301E" stroke-width="0.00690888"/>
<path d="M19.2862 13.8153C19.2679 13.8091 19.2618 13.7905 19.2679 13.7843V13.7781C19.274 13.7812 19.2892 13.7843 19.2862 13.775C19.2862 13.7688 19.2831 13.7657 19.2862 13.7688L19.3044 13.775C19.3196 13.7843 19.3288 13.7998 19.3227 13.8091C19.3196 13.8215 19.3014 13.8246 19.2862 13.8153Z" fill="#FAB81C" stroke="#6C301E" stroke-width="0.00690888"/>
<path d="M18.9531 13.9693C18.9744 13.9135 19.014 13.864 19.0596 13.8516ZM18.9592 13.9786C18.9988 13.9848 19.0596 13.9383 19.0748 13.898ZM18.9957 14.022C19.0444 14.0344 19.0961 13.9848 19.1174 13.9476ZM19.0414 14.0716C19.1022 14.0716 19.1357 14.0313 19.1539 13.9972ZM19.087 14.1181C19.1387 14.1181 19.1844 14.0778 19.1965 14.0437ZM19.1296 14.1615C19.1874 14.1615 19.2239 14.1336 19.2422 14.0995ZM19.1813 14.2048C19.233 14.2079 19.2726 14.177 19.2848 14.1491ZM19.2361 14.2513C19.2848 14.2513 19.3182 14.2203 19.3304 14.1894Z" fill="#FAB81C"/>
<path d="M18.9531 13.9693C18.9666 13.9301 18.9909 13.8957 19.0231 13.8702C19.0322 13.8609 19.0444 13.8547 19.0596 13.8516C19.0465 13.8556 19.0342 13.8619 19.0231 13.8702C19.0118 13.8792 19.0016 13.8896 18.9927 13.9011C18.976 13.9216 18.9626 13.9446 18.9531 13.9693V13.9693ZM18.9592 13.9786C18.9714 13.9786 18.9836 13.9786 18.9957 13.9724L19.0261 13.9538L19.0566 13.929L19.0748 13.898C19.0719 13.91 19.0655 13.9208 19.0566 13.929C19.0399 13.9481 19.019 13.963 18.9957 13.9724C18.9836 13.9786 18.9714 13.9817 18.9592 13.9786V13.9786ZM18.9957 14.022H19.0322L19.0627 14.0034C19.0838 13.989 19.1014 13.9699 19.1144 13.9476L19.0931 13.9786L19.0657 14.0065L19.0353 14.022H18.9957V14.022ZM19.0414 14.0716C19.0535 14.0716 19.0657 14.0716 19.0748 14.0654L19.1052 14.0499L19.1357 14.0251L19.1539 13.9941C19.1451 14.0181 19.1291 14.0386 19.1083 14.053L19.0779 14.0685H19.0414V14.0716ZM19.087 14.1181C19.1113 14.1181 19.1326 14.1088 19.1509 14.0933C19.1694 14.0802 19.1849 14.0633 19.1965 14.0437C19.1935 14.053 19.1874 14.0654 19.1783 14.0747L19.1539 14.0964L19.1235 14.115C19.1117 14.1185 19.0992 14.1196 19.087 14.1181V14.1181ZM19.1296 14.1615C19.1418 14.1615 19.1539 14.1615 19.1631 14.1553C19.1855 14.1502 19.2064 14.1395 19.2239 14.1243L19.2422 14.0964L19.2239 14.1274C19.2148 14.1336 19.2057 14.1429 19.1935 14.146C19.1752 14.1584 19.1539 14.1615 19.1326 14.1615H19.1296ZM19.1813 14.2048C19.2025 14.2045 19.2233 14.1992 19.2422 14.1894L19.2665 14.1739C19.2726 14.1646 19.2817 14.1584 19.2848 14.1491C19.2848 14.1584 19.2756 14.1677 19.2695 14.1739C19.2576 14.1858 19.2432 14.1947 19.2274 14.2001C19.2116 14.2055 19.1948 14.2071 19.1783 14.2048H19.1813ZM19.2361 14.2513L19.2665 14.2482L19.2908 14.2358L19.3121 14.2172L19.3304 14.1925C19.3232 14.2114 19.31 14.2275 19.293 14.2381C19.276 14.2487 19.256 14.2534 19.2361 14.2513V14.2513Z" fill="#6C301E"/>
<path d="M17.0231 13.7765C17.6851 12.95 18.5156 12.2799 19.457 11.8127C19.3511 11.8001 19.1037 11.9124 18.9997 11.9713C18.2461 12.4038 17.5897 12.9974 16.8995 13.7007C16.9338 13.74 16.9566 13.7662 16.9973 13.7997L17.0231 13.7765V13.7765Z" fill="#B2B6BA" stroke="#485654" stroke-width="0.0138178"/>
<path d="M16.9605 13.766L17.007 13.8061C17.7589 12.9327 18.7819 12.116 19.4609 11.8125C18.5219 12.1841 17.7031 13.0007 16.97 13.7604L16.967 13.7602L16.9605 13.766Z" fill="#8C959D"/>
<path d="M16.9602 13.7663L17.0066 13.8064C17.354 13.4037 17.7346 13.0321 18.1442 12.6956C18.4507 12.4414 18.7738 12.2089 19.1114 11.9997C19.225 11.9321 19.3416 11.8677 19.4606 11.8128L19.4609 11.8066C19.2113 11.9064 18.9784 12.032 18.7536 12.1767C18.532 12.3185 18.3212 12.4827 18.1162 12.6535C17.9135 12.8258 17.717 13.0054 17.527 13.1922C17.3333 13.3791 17.1513 13.573 16.9634 13.7634L16.9602 13.7663ZM16.9602 13.7663C17.1482 13.5728 17.3329 13.3853 17.5267 13.1984C17.7165 13.0115 17.9131 12.8318 18.1158 12.6597C18.3209 12.4889 18.5314 12.3278 18.7532 12.1829C18.9748 12.0411 19.2109 11.9126 19.4574 11.8157L19.4577 11.8096C19.221 11.9282 18.9922 12.0626 18.7729 12.212C18.3355 12.512 17.926 12.8519 17.5493 13.2277C17.3596 13.4138 17.1774 13.6078 17.0034 13.8093L16.9602 13.7663V13.7663Z" fill="#485654"/>
<path d="M16.7592 13.6051C16.8189 13.6273 16.8692 13.6521 16.916 13.6859C16.9196 13.7296 16.9714 13.7824 17.0164 13.7945L17.036 13.7708L17.0421 13.7712L17.0598 13.7816C17.078 13.7827 17.0989 13.7901 17.1066 13.8154C17.1169 13.8471 17.0933 13.886 17.0645 13.9091C17.0329 13.929 17.0202 13.9375 16.9899 13.9357C16.957 13.9244 16.9406 13.8923 16.932 13.8825C16.8115 14.0149 16.722 14.0871 16.5727 14.1898C16.5089 14.186 16.4779 14.1437 16.5018 14.0986C16.5088 14.0835 16.5276 14.0753 16.5424 14.0824L16.5433 14.067C16.4744 13.9945 16.446 13.9059 16.5337 13.7622C16.6077 13.6425 16.6861 13.6037 16.756 13.608L16.759 13.6081L16.7592 13.6051ZM16.5626 13.736C16.5462 13.7567 16.5388 13.778 16.5286 13.796C16.4746 13.8859 16.5074 14.0027 16.5844 14.0415L16.5905 14.0419C16.5796 14.0195 16.6188 13.9753 16.6361 13.9919C16.6282 13.9697 16.6609 13.9313 16.6847 13.942C16.6738 13.9196 16.7033 13.8842 16.7299 13.8982C16.719 13.8758 16.7423 13.8431 16.7723 13.8511C16.7646 13.8258 16.7877 13.7961 16.8147 13.804C16.8161 13.7792 16.8229 13.7672 16.8326 13.7585C16.8036 13.7319 16.7665 13.6893 16.7342 13.6687C16.6543 13.6266 16.5987 13.6916 16.5626 13.736V13.736Z" fill="#FAB81C" stroke="#6C301E" stroke-width="0.0138178"/>
<path d="M16.5202 13.8335C16.5359 13.8251 16.5459 13.8102 16.5404 13.8005C16.535 13.7878 16.52 13.7838 16.5043 13.7921C16.4888 13.7974 16.4787 13.8123 16.4812 13.8218C16.4866 13.8345 16.5046 13.8387 16.5202 13.8335V13.8335Z" fill="#FAB81C" stroke="#6C301E" stroke-width="0.00690889"/>
<path d="M16.5319 13.8024C16.5476 13.7941 16.5576 13.7791 16.5523 13.7664C16.5467 13.7567 16.5317 13.7527 16.516 13.7611C16.5005 13.7664 16.4905 13.7813 16.4929 13.7907C16.4983 13.8035 16.5163 13.8077 16.5319 13.8024V13.8024Z" fill="#FAB81C" stroke="#6C301E" stroke-width="0.00690889"/>
<path d="M16.5516 13.7667C16.5671 13.7614 16.5771 13.7465 16.5716 13.7369C16.5662 13.7241 16.5512 13.7201 16.5357 13.7254C16.52 13.7337 16.51 13.7487 16.5155 13.7583C16.5178 13.7709 16.5358 13.7751 16.5516 13.7667Z" fill="#FAB81C" stroke="#6C301E" stroke-width="0.00690889"/>
<path d="M16.5789 13.7375C16.5946 13.7292 16.6046 13.7143 16.5991 13.7046C16.5936 13.695 16.5786 13.6909 16.563 13.6962C16.5473 13.7046 16.5373 13.7195 16.5398 13.729C16.5453 13.7386 16.5632 13.7459 16.5789 13.7375V13.7375Z" fill="#FAB81C" stroke="#6C301E" stroke-width="0.00690889"/>
<path d="M16.6095 13.7085C16.6281 13.7034 16.6353 13.6852 16.6296 13.6787L16.6299 13.6725C16.6237 13.6752 16.6083 13.6774 16.6119 13.6683C16.6122 13.6621 16.6155 13.6592 16.6122 13.6621L16.5937 13.6672C16.5779 13.6755 16.5679 13.6904 16.5734 13.7001C16.5758 13.7127 16.5938 13.7168 16.6095 13.7085Z" fill="#FAB81C" stroke="#6C301E" stroke-width="0.00690889"/>
<path d="M16.9306 13.8832C16.9126 13.8262 16.876 13.7743 16.8312 13.7592ZM16.924 13.8921C16.8842 13.8959 16.8261 13.8458 16.8133 13.8047ZM16.8851 13.9332C16.8357 13.9426 16.787 13.89 16.7679 13.8516ZM16.8366 13.9799C16.7759 13.9763 16.7448 13.934 16.7286 13.8989ZM16.7883 14.0236C16.7367 14.0205 16.6935 13.9775 16.6833 13.9427ZM16.7433 14.0643C16.6856 14.0608 16.6508 14.0308 16.6345 13.9956ZM16.6891 14.1045C16.6373 14.1045 16.5997 14.0711 16.5891 14.0426ZM16.6318 14.1476C16.5832 14.1447 16.5516 14.1117 16.5412 14.08Z" fill="#FAB81C"/>
<path d="M16.9306 13.8832C16.9194 13.8432 16.8972 13.8074 16.8666 13.78C16.858 13.7701 16.8462 13.7632 16.8312 13.7592C16.8441 13.764 16.856 13.7711 16.8666 13.78C16.8773 13.7897 16.8869 13.8007 16.8951 13.8127C16.9106 13.8341 16.9226 13.8579 16.9306 13.8832V13.8832ZM16.924 13.8921C16.9119 13.8914 16.8997 13.8906 16.8879 13.8837L16.8587 13.8633L16.8297 13.8367L16.8133 13.8047C16.8155 13.8168 16.8212 13.8279 16.8297 13.8367C16.8453 13.8568 16.8652 13.8729 16.8879 13.8837C16.8997 13.8906 16.9117 13.8945 16.924 13.8921V13.8921ZM16.8851 13.9332L16.8486 13.931L16.8193 13.9106C16.7991 13.8949 16.7826 13.8748 16.7709 13.8518L16.7904 13.884L16.8161 13.9135L16.8456 13.9308L16.8851 13.9332V13.9332ZM16.8366 13.9799C16.8245 13.9792 16.8123 13.9785 16.8036 13.9717L16.7741 13.9544L16.7452 13.9278L16.7287 13.8958C16.7362 13.9202 16.7509 13.9417 16.7709 13.9573L16.8003 13.9746L16.8368 13.9768L16.8366 13.9799ZM16.7883 14.0236C16.7641 14.0221 16.7433 14.0115 16.726 13.995C16.7083 13.9808 16.6938 13.963 16.6833 13.9427C16.6858 13.9522 16.6912 13.9649 16.6998 13.9748L16.7228 13.9979L16.7521 14.0183C16.7637 14.0225 16.776 14.0243 16.7883 14.0236V14.0236ZM16.7433 14.0643C16.7312 14.0636 16.719 14.0629 16.7103 14.0561C16.6881 14.0497 16.6679 14.0378 16.6513 14.0215L16.6347 13.9926L16.6511 14.0246C16.6599 14.0313 16.6685 14.0412 16.6804 14.045C16.6979 14.0585 16.719 14.0628 16.7403 14.0641L16.7433 14.0643ZM16.6891 14.1045C16.668 14.1029 16.6475 14.0964 16.6293 14.0854L16.6059 14.0684C16.6004 14.0588 16.5916 14.052 16.5891 14.0426C16.5886 14.0519 16.5972 14.0617 16.6029 14.0682C16.6141 14.0808 16.6279 14.0907 16.6434 14.097C16.6589 14.1033 16.6756 14.1059 16.6922 14.1047L16.6891 14.1045ZM16.6318 14.1476L16.6016 14.1427L16.578 14.1288L16.5578 14.109L16.541 14.0831C16.5472 14.1025 16.5593 14.1193 16.5757 14.131C16.5921 14.1426 16.6118 14.1485 16.6318 14.1476V14.1476Z" fill="#6C301E"/>
<path d="M15.8471 10.1387C16.0882 10.0086 16.2925 9.81756 16.4404 9.58398C15.9658 9.71414 15.7498 10.0271 15.8471 10.1418V10.1387ZM20.2831 10.2844C20.1793 10.0408 20.0159 9.82841 19.8084 9.66766C19.8936 10.1387 20.1735 10.3742 20.2831 10.2875V10.2844Z" fill="#406325" stroke="#24420E" stroke-width="0.0138178"/>
<path d="M15.8483 10.1395C15.7479 10.0279 15.964 9.71805 16.4386 9.58789C16.1039 9.84821 15.8544 10.0899 15.8483 10.1395ZM20.2843 10.2852C20.1717 10.3781 19.8979 10.1426 19.8127 9.67466C20.0318 10.0156 20.2387 10.279 20.2843 10.2852Z" fill="#67923D" stroke="#24420E" stroke-width="0.0138178"/>
<path d="M17.1555 12.5592C17.1555 12.5592 16.9699 12.5809 16.9151 12.3175C16.8604 12.0354 17.0764 12.0076 17.0764 12.0076C17.0764 12.0076 17.3228 11.9797 17.478 11.9766L17.5449 12.5344L17.1555 12.5592Z" fill="url(#paint0_radial_336_27114)" stroke="#999270" stroke-width="0.0138178"/>
<path d="M17.1799 12.4761C17.1799 12.4761 17.0582 12.4978 17.0338 12.3026C17.0156 12.1631 17.1007 12.1445 17.1007 12.1445L17.3807 12.1941V12.4482L17.1799 12.4761V12.4761Z" fill="url(#paint1_radial_336_27114)" stroke="#999270" stroke-width="0.0138178"/>
<path d="M17.1016 12.1439C17.1016 12.1439 17.2841 12.1315 17.3754 12.1191L17.4149 12.2958L17.1989 12.3082C17.1989 12.3082 17.1837 12.1501 17.1016 12.1439V12.1439Z" fill="url(#paint2_radial_336_27114)" stroke="#999270" stroke-width="0.0138178"/>
<path d="M17.0625 12.0113C17.0625 12.0113 17.2907 11.9524 17.3211 12.2097C17.3272 12.2778 17.2907 12.4328 17.1781 12.4762L17.601 12.4297L17.5615 11.9648L17.4215 11.9772C17.4215 11.9772 17.1173 11.9865 17.0625 12.0082V12.0113Z" fill="url(#paint3_radial_336_27114)" stroke="#999270" stroke-width="0.0138178"/>
<path d="M17.1552 12.5593C17.1552 12.5593 18.7343 12.4509 18.8955 12.4571C19.3762 12.1906 18.8955 11.14 18.4909 10.5512C18.5365 10.4179 17.5812 10.1204 17.1522 10.1483C17.0944 10.1483 17.0426 10.1545 16.994 10.1576C16.7597 10.1824 16.7567 10.4892 16.851 10.6844C16.9422 10.8704 17.7759 12.3889 17.1917 12.5531L17.1552 12.5593Z" fill="#F9F0AA" stroke="#999270" stroke-width="0.0138178"/>
<path d="M18.8468 11.171C18.7404 10.9448 18.6126 10.7278 18.4909 10.5512C18.5365 10.4179 17.5812 10.1204 17.1522 10.1483C17.0944 10.1483 17.0426 10.1545 16.994 10.1576C16.7597 10.1824 16.7567 10.4892 16.851 10.6844C16.8814 10.7402 16.9818 10.9324 17.0913 11.171" fill="url(#paint4_linear_336_27114)"/>
<path d="M18.8468 11.171C18.7404 10.9448 18.6126 10.7278 18.4909 10.5512C18.5365 10.4179 17.5812 10.1204 17.1522 10.1483C17.0944 10.1483 17.0426 10.1545 16.994 10.1576C16.7597 10.1824 16.7567 10.4892 16.851 10.6844C16.8814 10.7402 16.9818 10.9324 17.0913 11.171" stroke="#999270" stroke-width="0.0138178"/>
<path d="M17.2414 11.5335C17.4118 11.986 17.5061 12.4632 17.1928 12.5531L17.1562 12.5593C17.1562 12.5593 18.7383 12.4508 18.8966 12.457C19.1582 12.3114 19.1339 11.9364 18.9939 11.5273" fill="url(#paint5_linear_336_27114)"/>
<path d="M17.2414 11.5335C17.4118 11.986 17.5061 12.4632 17.1928 12.5531L17.1562 12.5593C17.1562 12.5593 18.7383 12.4508 18.8966 12.457C19.1582 12.3114 19.1339 11.9364 18.9939 11.5273" stroke="#999270" stroke-width="0.0138178"/>
<path d="M17.0073 10.2479C16.8948 10.2479 16.8643 10.3595 16.8674 10.4277C16.8704 10.6136 17.0073 10.6198 17.0073 10.6198L17.1899 10.6105L17.2751 10.2324L17.0073 10.2479Z" fill="url(#paint6_radial_336_27114)" stroke="#999270" stroke-width="0.0138178"/>
<path d="M17.0078 10.2479L17.2756 10.2324L17.306 10.5144L17.0687 10.5268C17.0687 10.5268 17.1447 10.3006 17.0078 10.2479Z" fill="url(#paint7_linear_336_27114)" stroke="#999270" stroke-width="0.0138178"/>
<path d="M18.4895 10.5517C18.6934 10.5207 18.6903 10.2418 18.5504 10.1271C18.0788 10.1085 17.4611 10.124 17.0109 10.1581C17.0626 10.1581 17.2056 10.1705 17.2208 10.3595C17.2239 10.4005 17.2173 10.4416 17.2014 10.4794C17.1855 10.5172 17.1608 10.5505 17.1295 10.5765C17.0943 10.6034 17.0518 10.6185 17.0078 10.6198H17.1173L17.2086 10.6074C17.8475 10.5238 18.4865 10.5517 18.4865 10.5517H18.4895Z" fill="url(#paint8_linear_336_27114)" stroke="#999270" stroke-width="0.0138178"/>
<path d="M17.3486 10.9895C17.3425 10.9802 17.3365 10.9678 17.3243 10.9647C17.3182 10.9647 17.306 10.9647 17.3091 10.9523H17.3334L17.3821 10.9461C17.3943 10.9492 17.3912 10.9616 17.3821 10.9616C17.3669 10.9616 17.376 10.9771 17.3791 10.9864L17.4186 11.0794C17.4216 11.0917 17.4308 11.101 17.4399 11.101L17.4734 11.0979C17.4825 11.0917 17.4795 11.0794 17.4795 11.067C17.4764 11.0577 17.4947 11.0608 17.4947 11.067L17.5068 11.1103C17.5068 11.1165 17.5008 11.1134 17.4947 11.1134L17.4034 11.1196C17.3943 11.1196 17.3791 11.1289 17.373 11.1196C17.373 11.1072 17.3912 11.1134 17.3912 11.1041L17.3821 11.0732L17.3486 10.9895ZM17.4947 10.9771C17.4916 10.9709 17.4855 10.9585 17.4734 10.9554C17.4673 10.9554 17.4551 10.9554 17.4551 10.943C17.4612 10.9368 17.4703 10.943 17.4764 10.943L17.5281 10.9368C17.5373 10.9368 17.5403 10.9523 17.5281 10.9492C17.519 10.9492 17.519 10.9616 17.522 10.9709L17.5677 11.0763C17.5677 11.0825 17.5738 11.0917 17.5829 11.0948C17.589 11.0948 17.6012 11.0948 17.6042 11.1041C17.6042 11.1134 17.592 11.1072 17.5859 11.1072C17.5707 11.1072 17.5555 11.1072 17.5373 11.1134C17.5312 11.1134 17.522 11.1134 17.522 11.1041C17.522 11.0948 17.5373 11.1041 17.5403 11.0917C17.5403 11.0825 17.5342 11.0732 17.5281 11.0608L17.4947 10.9802V10.9771ZM17.6316 11.0019C17.6316 11.0081 17.6437 11.0019 17.6468 11.0019C17.6559 11.0019 17.665 10.9988 17.665 10.9895C17.665 10.974 17.6559 10.9585 17.6437 10.9523C17.6346 10.943 17.6225 10.9461 17.6103 10.9461L17.6133 10.9616L17.6316 11.0019V11.0019ZM17.6498 11.0515C17.6559 11.0608 17.659 11.0732 17.6681 11.0825C17.6742 11.0886 17.6863 11.0856 17.6924 11.0825C17.7016 11.0825 17.7076 11.0732 17.7046 11.067C17.7016 11.0453 17.6894 11.0267 17.6681 11.0205H17.6377L17.6437 11.036L17.6498 11.0515ZM17.589 10.9771C17.5829 10.9678 17.5799 10.9523 17.5677 10.9461C17.5616 10.9461 17.5494 10.9492 17.5464 10.9399C17.5464 10.9306 17.5646 10.9368 17.5707 10.9337C17.5981 10.9337 17.6255 10.9244 17.6498 10.9337C17.6711 10.9399 17.6924 10.9585 17.6955 10.9833C17.6955 10.9957 17.6863 11.005 17.6772 11.0081L17.6924 11.0112C17.7107 11.0174 17.7259 11.0298 17.735 11.0484C17.7411 11.0608 17.7441 11.0763 17.735 11.0886C17.7229 11.101 17.7046 11.101 17.6924 11.101C17.6681 11.101 17.6468 11.101 17.6224 11.1072C17.6133 11.1072 17.6103 11.0917 17.6224 11.0917C17.6316 11.0917 17.6316 11.0794 17.6285 11.0732L17.589 10.9802V10.9771ZM17.8141 10.9182C17.8233 10.9182 17.8263 10.9275 17.8293 10.9337L17.8385 10.9616C17.8293 10.9678 17.8233 10.9554 17.8202 10.9492C17.8141 10.943 17.808 10.9337 17.7989 10.9368H17.7624C17.7563 10.943 17.7624 10.9492 17.7654 10.9554L17.7837 10.9988C17.7898 10.9988 17.802 10.9988 17.808 10.9895C17.808 10.9833 17.7989 10.9678 17.8141 10.9709C17.8233 10.9771 17.8202 10.9895 17.8263 10.9988L17.8415 11.0329C17.8324 11.0422 17.8263 11.0298 17.8233 11.0205C17.8172 11.0112 17.802 11.0112 17.7928 11.0112C17.7867 11.0112 17.7928 11.0174 17.7928 11.0205L17.8111 11.067C17.8172 11.0763 17.8324 11.0763 17.8415 11.0763C17.8506 11.0763 17.8658 11.0763 17.8719 11.0639C17.878 11.0577 17.8628 11.0422 17.8719 11.0391C17.8841 11.0391 17.8841 11.0515 17.8871 11.0577C17.8871 11.067 17.8932 11.0763 17.8963 11.0825C17.8963 11.0886 17.8871 11.0886 17.8841 11.0886L17.7928 11.0948C17.7807 11.0948 17.7654 11.101 17.7624 11.0886C17.7624 11.0794 17.7837 11.0856 17.7807 11.0732L17.7685 11.0422L17.735 10.9585C17.7289 10.9492 17.7229 10.9368 17.7107 10.9368C17.7046 10.9368 17.6924 10.9368 17.6985 10.9244H17.7289L17.8141 10.9182V10.9182ZM17.8841 10.9585C17.8811 10.9492 17.875 10.9368 17.8628 10.9306C17.8567 10.9306 17.8415 10.9306 17.8415 10.9182C17.8506 10.912 17.8628 10.9182 17.8719 10.9182C17.8963 10.9182 17.9206 10.9089 17.945 10.9182C17.9693 10.9213 17.9906 10.9461 17.9936 10.974C17.9936 10.9864 17.9845 10.9957 17.9723 10.9988C17.9632 10.9988 17.9784 11.0019 17.9815 11.005C18.0028 11.0143 18.0119 11.0329 18.0241 11.0515C18.0271 11.0577 18.0393 11.0732 18.0423 11.0577C18.0423 11.0422 18.0606 11.0577 18.0575 11.067C18.0575 11.0794 18.0454 11.0856 18.0362 11.0856C18.0241 11.0856 18.0088 11.0794 18.0028 11.067C17.9906 11.0484 17.9815 11.0267 17.9632 11.0143C17.9601 11.0111 17.9562 11.0088 17.9519 11.0077C17.9476 11.0066 17.9431 11.0068 17.9389 11.0081V11.0236L17.9571 11.0608C17.9632 11.0701 17.9754 11.0701 17.9875 11.0701C17.9967 11.0732 17.9936 11.0886 17.9815 11.0856H17.9297C17.9206 11.0917 17.9024 11.0856 17.9084 11.0763C17.9176 11.0763 17.9297 11.0701 17.9237 11.0608L17.8932 10.9802L17.8841 10.9585V10.9585ZM17.9267 10.9895C17.9328 10.9957 17.945 10.9895 17.9541 10.9895C17.9632 10.9895 17.9632 10.974 17.9602 10.9678C17.9571 10.9523 17.948 10.9368 17.9328 10.9306C17.9267 10.9306 17.9084 10.9244 17.9054 10.9337L17.9267 10.9833V10.9864V10.9895ZM18.1458 11.0391C18.1488 11.0484 18.1549 11.0577 18.164 11.0608C18.1701 11.0608 18.1823 11.0608 18.1853 11.0701C18.1853 11.0794 18.1731 11.0732 18.1671 11.0763H18.1184C18.1092 11.0794 18.1001 11.0763 18.1001 11.067C18.1062 11.0608 18.1214 11.067 18.1214 11.0546L18.1062 11.0205L18.0727 10.9306C18.0697 10.9213 18.0575 10.9213 18.0514 10.9213C18.0423 10.9213 18.0301 10.9213 18.0301 10.9337C18.0301 10.943 18.0362 10.9523 18.0301 10.9585C18.021 10.9585 18.018 10.9492 18.0149 10.943C18.0149 10.9337 18.0088 10.9244 18.0028 10.912C18.0028 10.9058 18.0149 10.9089 18.018 10.9089L18.1458 10.9027C18.1549 10.9027 18.161 10.9089 18.161 10.9182L18.1731 10.9492C18.1701 10.9585 18.1579 10.9492 18.1549 10.9399C18.1518 10.9306 18.1397 10.9182 18.1275 10.9182C18.1214 10.9182 18.1092 10.9182 18.1032 10.9244L18.1092 10.9461L18.1458 11.0391V11.0391ZM18.2614 11.0112C18.2553 11.0112 18.2583 11.0205 18.2583 11.0236V11.0484C18.2614 11.0608 18.2735 11.0577 18.2827 11.0608C18.2888 11.0608 18.2857 11.0763 18.2766 11.0732H18.2401C18.2309 11.0763 18.2157 11.0701 18.2249 11.0608C18.2309 11.0608 18.237 11.0577 18.2401 11.0515V10.8965C18.2462 10.8872 18.2553 10.8965 18.2583 10.9027L18.3679 11.0422C18.3739 11.0484 18.3831 11.0546 18.3922 11.0546C18.4013 11.0546 18.4044 11.0701 18.3922 11.067H18.3466C18.3405 11.067 18.3313 11.0732 18.3253 11.067C18.3192 11.0639 18.3253 11.0546 18.3313 11.0546C18.3405 11.0546 18.3313 11.0422 18.3283 11.036L18.3101 11.0112H18.2614V11.0112ZM18.2948 10.9957C18.3009 10.9957 18.2948 10.9926 18.2948 10.9895L18.2553 10.9368V10.9988H18.2948V10.9957ZM18.3892 10.9399C18.3861 10.9275 18.38 10.9089 18.3648 10.9089C18.3557 10.9089 18.3435 10.9027 18.3496 10.8965H18.4013C18.4226 10.8934 18.4439 10.8934 18.4622 10.8996C18.5078 10.9151 18.5443 10.9554 18.5535 11.005C18.5535 11.0236 18.5504 11.0453 18.5352 11.0546C18.5109 11.0701 18.4835 11.067 18.4591 11.0639L18.4165 11.067C18.4074 11.067 18.4044 11.0515 18.4165 11.0546C18.4287 11.0546 18.4287 11.0391 18.4226 11.0329L18.3892 10.9399V10.9399ZM18.45 11.0174C18.453 11.0267 18.4561 11.0391 18.4652 11.0484H18.4956C18.5109 11.0484 18.5169 11.0329 18.5169 11.0205C18.5156 10.9977 18.5094 10.9754 18.4987 10.9554C18.4865 10.9337 18.4683 10.9182 18.4439 10.912C18.4339 10.9103 18.4236 10.9103 18.4135 10.912C18.4105 10.912 18.4135 10.9182 18.4135 10.9244L18.45 11.0174V11.0174ZM17.808 11.4016C17.808 11.4109 17.8202 11.4202 17.8324 11.4202C17.8385 11.4202 17.8537 11.4202 17.8537 11.4326C17.8476 11.4388 17.8354 11.4326 17.8293 11.4326L17.7837 11.4388H17.7563C17.7502 11.4388 17.7502 11.4264 17.7594 11.4264C17.7685 11.4264 17.7776 11.4233 17.7776 11.414L17.7715 11.3893L17.735 11.3025C17.735 11.2932 17.7229 11.2932 17.7137 11.2932C17.7076 11.2932 17.6955 11.2963 17.6924 11.287C17.6924 11.2777 17.7076 11.2808 17.7137 11.2746L17.7441 11.2653C17.7502 11.2653 17.7533 11.2684 17.7533 11.2746L17.808 11.3985V11.4016ZM17.8293 11.2622H17.8902C17.9024 11.2622 17.8963 11.2467 17.9024 11.2467C17.9145 11.2467 17.9145 11.2622 17.9145 11.2684C17.9145 11.2808 17.9054 11.2901 17.8963 11.287H17.8506L17.8658 11.3242L17.8841 11.318C17.9145 11.318 17.951 11.3366 17.9632 11.3676C17.9693 11.3831 17.9723 11.3985 17.9632 11.414C17.951 11.4295 17.9328 11.4326 17.9145 11.4326C17.8993 11.4326 17.8841 11.4295 17.8719 11.414C17.8689 11.4078 17.8689 11.3924 17.878 11.3955C17.8902 11.3955 17.8993 11.4016 17.8993 11.414C17.9024 11.4202 17.9145 11.4171 17.9206 11.4171C17.9297 11.4171 17.9389 11.4109 17.9389 11.4016C17.9389 11.3862 17.9328 11.3707 17.9237 11.3583C17.9176 11.3459 17.9024 11.3366 17.8841 11.3366L17.8598 11.3397C17.8506 11.3397 17.8506 11.3304 17.8476 11.3242L17.8263 11.2653L17.8324 11.2622H17.8293ZM18.0393 11.2932C18.0332 11.2808 18.0271 11.2653 18.0119 11.2622C18.0058 11.2622 17.9906 11.2591 17.9997 11.2498H18.0484C18.0697 11.2436 18.094 11.2467 18.1123 11.2529C18.1579 11.2684 18.1944 11.3087 18.2036 11.3583C18.2036 11.3769 18.2005 11.3955 18.1823 11.4078C18.161 11.4202 18.1336 11.4171 18.1092 11.4171L18.0697 11.4233C18.0606 11.4233 18.0575 11.4078 18.0697 11.4078C18.0788 11.4078 18.0788 11.3955 18.0758 11.3862L18.0393 11.2932V11.2932ZM18.1001 11.3707C18.1032 11.38 18.1092 11.3924 18.1184 11.4016H18.1488C18.161 11.3985 18.1671 11.3831 18.1671 11.3707C18.1671 11.349 18.1579 11.3273 18.1458 11.3056C18.1336 11.2839 18.1153 11.2684 18.091 11.2653C18.0809 11.2636 18.0706 11.2636 18.0606 11.2653V11.2777L18.1001 11.3707V11.3707ZM18.2948 11.2374C18.304 11.2374 18.307 11.2467 18.3101 11.2529C18.3101 11.2622 18.3161 11.2684 18.3192 11.2777C18.3131 11.287 18.304 11.2777 18.3009 11.2684C18.2979 11.2622 18.2918 11.2529 18.2827 11.2529H18.2431C18.237 11.2591 18.2431 11.2684 18.2431 11.2715L18.2614 11.3149C18.2705 11.3149 18.2796 11.3149 18.2857 11.3087C18.2918 11.3025 18.2766 11.287 18.2918 11.2901C18.3009 11.2901 18.3009 11.3056 18.304 11.3149L18.3192 11.349C18.3161 11.3614 18.304 11.349 18.3009 11.3397C18.2979 11.3304 18.2857 11.3304 18.2766 11.3304C18.2705 11.3304 18.2644 11.3304 18.2705 11.3366L18.2888 11.3831C18.2948 11.3955 18.3101 11.3924 18.3192 11.3924C18.3313 11.3924 18.3435 11.3924 18.3496 11.3831C18.3557 11.3769 18.3435 11.3645 18.3496 11.3583C18.3618 11.3583 18.3648 11.3676 18.3648 11.3738L18.3739 11.4047C18.3739 11.4078 18.3648 11.4047 18.3618 11.4047L18.2675 11.4109C18.2583 11.4109 18.2462 11.4171 18.2401 11.4078C18.234 11.3955 18.2553 11.4016 18.2583 11.3924L18.2492 11.3645L18.2157 11.2746C18.2096 11.2653 18.2036 11.256 18.1914 11.2529C18.1853 11.2529 18.1731 11.2529 18.1792 11.2405H18.2096L18.2948 11.2374ZM17.4673 11.6806C17.4703 11.6961 17.4855 11.7023 17.4977 11.7054C17.522 11.7115 17.5494 11.7208 17.5646 11.7394C17.5738 11.7518 17.5799 11.7673 17.5799 11.7828C17.5799 11.7983 17.5646 11.8107 17.5494 11.8138C17.5342 11.82 17.516 11.8169 17.4977 11.8107C17.4916 11.8076 17.4947 11.8231 17.4825 11.82C17.4764 11.8138 17.4795 11.8014 17.4764 11.7921C17.473 11.7816 17.4689 11.7712 17.4642 11.7611C17.4642 11.7518 17.4764 11.7611 17.4795 11.7673C17.4886 11.7859 17.5068 11.7983 17.5281 11.8014C17.5403 11.8014 17.5525 11.7952 17.5525 11.7828C17.5525 11.7673 17.5403 11.7518 17.5281 11.7456C17.5068 11.7363 17.4855 11.7332 17.4673 11.7208C17.4586 11.7158 17.4513 11.7086 17.446 11.6999C17.4407 11.6913 17.4375 11.6814 17.4369 11.6713C17.4369 11.6589 17.449 11.6465 17.4612 11.6434C17.4764 11.6372 17.4916 11.6372 17.5099 11.6434C17.516 11.6434 17.519 11.6341 17.5281 11.6403C17.5281 11.6465 17.5281 11.6527 17.5342 11.6589L17.5433 11.6868C17.5373 11.693 17.5281 11.6868 17.5281 11.6806C17.519 11.6682 17.5129 11.6558 17.4977 11.6558C17.4855 11.6558 17.4734 11.6558 17.4673 11.6651V11.6806V11.6806ZM17.6681 11.6279C17.6803 11.6279 17.6803 11.6372 17.6833 11.6434L17.6894 11.6682C17.6894 11.6775 17.6772 11.6682 17.6742 11.662C17.6711 11.6558 17.665 11.6465 17.6529 11.6465H17.6164C17.6103 11.6527 17.6164 11.662 17.6164 11.6651L17.6316 11.7084C17.6407 11.7084 17.6498 11.7084 17.6559 11.7023C17.662 11.6961 17.6498 11.6837 17.659 11.6806C17.6711 11.6806 17.6711 11.6961 17.6742 11.7023C17.6742 11.7146 17.6833 11.727 17.6863 11.7425C17.6833 11.7518 17.6711 11.7425 17.6711 11.7332C17.6681 11.7239 17.6559 11.7208 17.6468 11.7239C17.6407 11.7239 17.6346 11.7239 17.6377 11.7301L17.6559 11.7766C17.659 11.7859 17.6681 11.7859 17.6772 11.7859C17.6894 11.7859 17.7046 11.7859 17.7137 11.7766C17.7198 11.7704 17.7137 11.758 17.7137 11.7518C17.7229 11.7456 17.732 11.7518 17.732 11.7611L17.7381 11.7921C17.7381 11.7983 17.7289 11.7983 17.7259 11.7983L17.6346 11.8045C17.6224 11.8045 17.6103 11.8138 17.6042 11.8045C17.6042 11.7921 17.6194 11.7952 17.6224 11.7859C17.6224 11.7797 17.6224 11.7704 17.6164 11.7611L17.5859 11.6682C17.5859 11.6589 17.5768 11.6496 17.5646 11.6496C17.5586 11.6496 17.5464 11.6465 17.5525 11.6372H17.5829L17.6681 11.6279V11.6279ZM17.7959 11.758C17.7989 11.7673 17.805 11.7766 17.8141 11.7797C17.8233 11.7797 17.8354 11.7766 17.8385 11.7859C17.8385 11.7983 17.8233 11.7921 17.8172 11.7921C17.7989 11.7921 17.7867 11.7921 17.7685 11.7983C17.7624 11.7983 17.7533 11.7983 17.7502 11.7921C17.7502 11.7797 17.7654 11.7859 17.7685 11.7797L17.7654 11.7549L17.735 11.662C17.7289 11.6527 17.7259 11.6403 17.7137 11.6403C17.7076 11.6403 17.6955 11.6403 17.6985 11.6279C17.7016 11.6217 17.7107 11.6279 17.7198 11.6279C17.7411 11.6279 17.7624 11.6186 17.7867 11.6217C17.7979 11.6224 17.8086 11.6263 17.8177 11.6329C17.8269 11.6394 17.834 11.6484 17.8385 11.6589C17.8446 11.6713 17.8446 11.6899 17.8385 11.6992C17.8233 11.7115 17.805 11.7146 17.7867 11.7177C17.7807 11.7177 17.7867 11.7239 17.7867 11.727L17.7959 11.758V11.758ZM17.7776 11.7023H17.7989C17.808 11.6992 17.8141 11.6899 17.8111 11.6806C17.8111 11.6651 17.805 11.6527 17.7959 11.6434C17.7867 11.6341 17.7715 11.6341 17.7624 11.6372C17.7563 11.6403 17.7624 11.6465 17.7624 11.6527L17.7776 11.7023V11.7023ZM17.9663 11.7487C17.9663 11.7549 17.9723 11.7673 17.9815 11.7673C17.9875 11.7673 18.0028 11.7673 18.0028 11.7766C18.0028 11.7859 17.9875 11.7828 17.9815 11.7828L17.9328 11.7859C17.9267 11.7859 17.9176 11.7859 17.9176 11.7766C17.9237 11.7704 17.9389 11.7766 17.9389 11.7642L17.9297 11.727L17.8993 11.6372C17.8993 11.6279 17.8871 11.631 17.878 11.631C17.8719 11.631 17.8598 11.631 17.8567 11.6403V11.6651C17.8506 11.6713 17.8415 11.6651 17.8446 11.6558L17.8324 11.6248C17.8324 11.6155 17.8415 11.6186 17.8476 11.6155L17.9723 11.6093C17.9815 11.6093 17.9875 11.6155 17.9875 11.6248L17.9997 11.6558C17.9967 11.662 17.9845 11.6558 17.9845 11.6496C17.9784 11.6403 17.9693 11.6279 17.9541 11.6279C17.948 11.6279 17.9389 11.6248 17.9297 11.6279L17.9358 11.6496L17.9663 11.7487V11.7487ZM18.0301 11.6465C18.0271 11.6372 18.0241 11.6248 18.0119 11.6217C18.0058 11.6217 17.9936 11.6217 17.9936 11.6093C17.9967 11.6031 18.0058 11.6093 18.0119 11.6093L18.0667 11.6031C18.0758 11.6 18.0819 11.6155 18.0727 11.6155C18.0636 11.6155 18.0545 11.6217 18.0575 11.631L18.0727 11.6806L18.094 11.7487C18.094 11.7549 18.1032 11.7611 18.1092 11.7611C18.1184 11.7611 18.1305 11.7611 18.1275 11.7735H18.1062L18.0575 11.7797C18.0514 11.7797 18.0393 11.7735 18.0454 11.7673C18.0514 11.7642 18.0636 11.7673 18.0636 11.7549L18.0545 11.7177L18.0301 11.6465ZM18.2066 11.5969C18.2157 11.5969 18.2157 11.6062 18.2188 11.6124L18.2249 11.6372C18.2218 11.6465 18.2096 11.6372 18.2096 11.631C18.2066 11.6217 18.2005 11.6124 18.1884 11.6124H18.1549C18.1488 11.6186 18.1549 11.6279 18.1549 11.6341L18.1701 11.6744C18.1762 11.6744 18.1853 11.6744 18.1944 11.6682C18.2005 11.6651 18.1884 11.6496 18.1975 11.6496C18.2096 11.6496 18.2096 11.662 18.2127 11.6682C18.2127 11.6837 18.2218 11.6961 18.2249 11.7084C18.2218 11.7177 18.2096 11.7084 18.2096 11.7023C18.2066 11.693 18.1944 11.6899 18.1853 11.6899C18.1823 11.6899 18.1701 11.6899 18.1762 11.6961L18.1914 11.7425C18.1944 11.7518 18.2066 11.7549 18.2127 11.7549C18.2249 11.7549 18.2401 11.7549 18.2492 11.7456C18.2553 11.7394 18.2492 11.727 18.2522 11.7177C18.2614 11.7146 18.2675 11.7208 18.2675 11.7301L18.2735 11.7611C18.2735 11.7673 18.2675 11.7673 18.2614 11.7673L18.1701 11.7704C18.1579 11.7704 18.1488 11.7766 18.1397 11.7704C18.1366 11.758 18.1549 11.7611 18.1579 11.7549C18.1591 11.7508 18.1595 11.7465 18.159 11.7422C18.1584 11.7379 18.1571 11.7338 18.1549 11.7301L18.1245 11.6372C18.1245 11.6279 18.1153 11.6155 18.1032 11.6155C18.0971 11.6155 18.0849 11.6093 18.091 11.6031H18.1214L18.2096 11.5969H18.2066ZM18.2675 11.6279C18.2644 11.6155 18.2553 11.6062 18.2431 11.6062C18.234 11.6093 18.2279 11.5876 18.2431 11.5938H18.2888L18.3101 11.6217L18.377 11.7115C18.3709 11.7115 18.377 11.7054 18.3739 11.7023L18.3861 11.5907C18.3922 11.5845 18.4074 11.5907 18.4165 11.5845C18.4257 11.5845 18.447 11.5845 18.4409 11.5969C18.4287 11.5969 18.4165 11.6031 18.4226 11.6155L18.4591 11.727C18.4591 11.7394 18.4713 11.7456 18.4835 11.7425C18.4926 11.7425 18.4926 11.7611 18.4835 11.758H18.4287C18.4196 11.7611 18.4044 11.7611 18.4074 11.7487C18.4165 11.7487 18.4318 11.7425 18.4257 11.7301L18.3952 11.631C18.3983 11.6341 18.3952 11.6403 18.3952 11.6434L18.3892 11.7363L18.3861 11.7611C18.377 11.7642 18.3739 11.758 18.3709 11.7518L18.2827 11.6372L18.2888 11.6465C18.2979 11.6775 18.304 11.7084 18.3161 11.7363C18.3161 11.7487 18.3313 11.7518 18.3405 11.7518C18.3526 11.758 18.3435 11.7673 18.3344 11.7642H18.2888C18.2796 11.7642 18.2796 11.7518 18.2888 11.7518C18.304 11.7518 18.3009 11.7363 18.2948 11.727L18.2644 11.6279H18.2675ZM18.5322 11.6527C18.5322 11.6589 18.5443 11.6527 18.5474 11.6527C18.5565 11.6527 18.5656 11.6527 18.5687 11.6403C18.5687 11.6279 18.5626 11.6093 18.5535 11.6031C18.5413 11.5938 18.5291 11.5969 18.5169 11.5969V11.6124L18.5322 11.6527V11.6527ZM18.5474 11.7023L18.5595 11.7332C18.5687 11.7394 18.5778 11.7363 18.5869 11.7363C18.593 11.7363 18.6021 11.7301 18.5991 11.7208C18.5991 11.7023 18.59 11.6806 18.5717 11.6744H18.5413V11.6837L18.5474 11.7023V11.7023ZM18.4896 11.6279C18.4865 11.6155 18.4835 11.6031 18.4713 11.5969C18.4652 11.5969 18.453 11.5969 18.453 11.5876C18.453 11.5783 18.4683 11.5876 18.4743 11.5845C18.5048 11.5845 18.5291 11.5783 18.5565 11.5845C18.5778 11.5907 18.596 11.6124 18.596 11.6341C18.596 11.6465 18.5839 11.6558 18.5747 11.662C18.5747 11.6558 18.5869 11.662 18.59 11.662C18.6052 11.6682 18.6204 11.6806 18.6265 11.6992C18.6326 11.7115 18.6356 11.727 18.6265 11.7394C18.6143 11.7518 18.596 11.7518 18.5808 11.7518L18.5109 11.7549C18.5017 11.7549 18.4987 11.7394 18.5109 11.7425C18.52 11.7425 18.523 11.7301 18.5169 11.7208L18.4896 11.6279V11.6279ZM18.6447 11.6217C18.6447 11.6124 18.6386 11.5969 18.6265 11.5907C18.6204 11.5907 18.6082 11.5907 18.6082 11.5814C18.6143 11.5721 18.6265 11.5814 18.6386 11.5783H18.6995C18.7238 11.5783 18.7451 11.5969 18.7512 11.6217C18.7543 11.6341 18.7512 11.6527 18.739 11.6589L18.7269 11.6651C18.7451 11.6713 18.7603 11.6868 18.7695 11.7023L18.7847 11.727C18.7908 11.7332 18.7938 11.7239 18.7938 11.7177C18.806 11.7115 18.8121 11.727 18.806 11.7363C18.8029 11.7487 18.7847 11.7518 18.7756 11.7487C18.7701 11.7484 18.7649 11.7465 18.7606 11.7432C18.7563 11.7399 18.753 11.7353 18.7512 11.7301L18.7208 11.6775C18.7117 11.6744 18.7025 11.6682 18.6934 11.6744V11.6868L18.7086 11.7239C18.7117 11.7332 18.7238 11.7363 18.733 11.7363C18.7451 11.7363 18.7451 11.7518 18.733 11.7487H18.6782C18.6721 11.7487 18.6599 11.7549 18.6569 11.7487C18.6508 11.7332 18.6691 11.7394 18.6752 11.7332L18.6691 11.7054L18.6447 11.6217V11.6217ZM18.6843 11.6527C18.6873 11.662 18.7025 11.6527 18.7086 11.6527C18.7177 11.6527 18.7238 11.6434 18.7208 11.6372C18.7208 11.6217 18.7147 11.6062 18.7056 11.5969C18.6964 11.5907 18.6843 11.5907 18.6752 11.5938C18.6691 11.5938 18.6721 11.6031 18.6752 11.6093L18.6843 11.6496V11.6527ZM18.8942 11.5721C18.9033 11.5721 18.9033 11.5814 18.9064 11.5876C18.9064 11.5969 18.9125 11.6062 18.9155 11.6124C18.9094 11.6217 18.9003 11.6124 18.8973 11.6062C18.8973 11.6 18.8912 11.5876 18.879 11.5876H18.8394C18.8334 11.5907 18.8394 11.6 18.8394 11.6062L18.8516 11.6496C18.8607 11.6496 18.8699 11.6496 18.876 11.6434C18.8851 11.6403 18.8729 11.6279 18.882 11.6217C18.8942 11.6217 18.8942 11.6341 18.8942 11.6434C18.8942 11.6589 18.9033 11.6713 18.9064 11.6837C18.9033 11.693 18.8912 11.6837 18.8912 11.6775C18.8912 11.6682 18.879 11.662 18.8699 11.6651C18.8668 11.6651 18.8547 11.6589 18.8577 11.6651L18.8729 11.7177C18.876 11.727 18.8851 11.727 18.8942 11.727C18.9064 11.727 18.9216 11.727 18.9307 11.7208C18.9368 11.7146 18.9307 11.7023 18.9338 11.6961C18.9429 11.6899 18.952 11.6961 18.949 11.7054L18.9551 11.7363C18.9551 11.7425 18.9459 11.7425 18.9429 11.7425H18.8486C18.8394 11.7425 18.8303 11.7487 18.8242 11.7425C18.8151 11.7301 18.8303 11.7332 18.8364 11.727C18.8425 11.7208 18.8364 11.7115 18.8364 11.7054L18.809 11.6093C18.809 11.6 18.7999 11.5876 18.7908 11.5876C18.7816 11.5876 18.7725 11.5845 18.7756 11.5752H18.806L18.8973 11.5721H18.8942ZM17.8963 11.9781C17.8963 11.9688 17.8902 11.9533 17.878 11.9471C17.8689 11.9471 17.8567 11.9471 17.8628 11.9378L17.8932 11.9347C17.9176 11.9347 17.9419 11.9285 17.9663 11.9347C18.0028 11.9409 18.0362 11.9719 18.0454 12.006C18.0514 12.0307 18.0545 12.0555 18.0393 12.0772C18.0241 12.0958 17.9967 12.102 17.9723 12.102C17.951 12.102 17.9328 12.102 17.9145 12.1082C17.9084 12.1113 17.8963 12.1051 17.9024 12.0958C17.9115 12.0958 17.9237 12.0927 17.9206 12.0803L17.9084 12.0338L17.8963 11.9781V11.9781ZM17.945 12.0555C17.948 12.0648 17.951 12.0772 17.9571 12.0834C17.9663 12.0896 17.9784 12.0865 17.9875 12.0834C17.9997 12.0834 18.0119 12.071 18.0149 12.0555C18.0173 12.0321 18.0131 12.0084 18.0028 11.9874C17.9988 11.9778 17.9926 11.9693 17.9846 11.9628C17.9766 11.9563 17.9672 11.952 17.9571 11.9502C17.9461 11.9481 17.9347 11.9481 17.9237 11.9502C17.9206 11.9502 17.9237 11.9564 17.9237 11.9626L17.945 12.0555V12.0555ZM18.161 11.9161C18.1701 11.9161 18.1701 11.9254 18.1731 11.9316L18.1792 11.9595C18.1731 11.9657 18.164 11.9595 18.164 11.9533C18.161 11.944 18.1549 11.9347 18.1458 11.9347H18.1062C18.1001 11.9378 18.1062 11.9471 18.1062 11.9533C18.1062 11.9688 18.1123 11.9843 18.1153 11.9967C18.1245 11.9967 18.1336 11.9967 18.1397 11.9905C18.1458 11.9843 18.1366 11.9719 18.1458 11.9688C18.1579 11.9688 18.1549 11.9843 18.1579 11.9905L18.1671 12.0307C18.1671 12.04 18.1518 12.0307 18.1518 12.0245C18.1518 12.0152 18.1397 12.0091 18.1305 12.0122C18.1275 12.0122 18.1153 12.0091 18.1214 12.0153C18.1214 12.0307 18.1275 12.0462 18.1336 12.0648C18.1336 12.0741 18.1458 12.0741 18.1549 12.0741C18.1671 12.0741 18.1823 12.0741 18.1914 12.0648C18.1975 12.0586 18.1914 12.0462 18.1975 12.04C18.2036 12.0338 18.2096 12.0431 18.2096 12.0524C18.2096 12.0617 18.2096 12.071 18.2157 12.0834C18.2127 12.0896 18.2066 12.0865 18.2005 12.0865L18.1092 12.0927C18.1001 12.0927 18.091 12.0989 18.0819 12.0927C18.0758 12.0865 18.0849 12.0803 18.094 12.0803C18.1032 12.0772 18.1001 12.0648 18.0971 12.0586L18.0758 11.9595C18.0727 11.9502 18.0667 11.9378 18.0575 11.9378C18.0484 11.9378 18.0393 11.9347 18.0423 11.9254H18.0727L18.161 11.9161V11.9161ZM18.3587 12.0431C18.3587 12.0524 18.3679 12.0617 18.377 12.0648C18.3831 12.0648 18.3952 12.0648 18.3983 12.071C18.4013 12.0803 18.3861 12.0772 18.38 12.0772L18.3283 12.0803C18.3192 12.0803 18.3101 12.0834 18.304 12.0803C18.2948 12.0803 18.2979 12.0679 18.307 12.0679C18.3161 12.0679 18.3253 12.0648 18.3283 12.0555L18.3253 12.0307L18.304 11.944C18.304 11.9347 18.2948 11.9347 18.2857 11.9347C18.2796 11.9347 18.2675 11.9409 18.2644 11.9316C18.2644 11.9192 18.2796 11.9223 18.2857 11.9192L18.3192 11.9068C18.3253 11.9068 18.3283 11.9099 18.3283 11.9161L18.3587 12.0431V12.0431ZM18.4713 11.9409C18.4713 11.9285 18.4622 11.9161 18.45 11.9161C18.4409 11.9161 18.4287 11.9161 18.4257 11.9254C18.4226 11.9378 18.4257 11.9502 18.4378 11.9564L18.4652 11.9719L18.4713 11.9533V11.9409V11.9409ZM18.4956 12.0307C18.4956 12.0153 18.4774 12.006 18.4652 11.9998C18.4591 11.9998 18.453 11.9936 18.45 11.9967C18.4453 12.0001 18.4416 12.0048 18.4395 12.0103C18.4373 12.0158 18.4368 12.0218 18.4378 12.0276C18.4439 12.0462 18.453 12.0586 18.4683 12.0586C18.4804 12.0617 18.4926 12.0586 18.4987 12.0462V12.0307H18.4956ZM18.5261 12.0245C18.5261 12.04 18.52 12.0555 18.5078 12.0648C18.4926 12.0772 18.4683 12.0772 18.447 12.071C18.4287 12.0679 18.4165 12.0524 18.4105 12.0338C18.4105 12.0183 18.4135 12.0029 18.4257 11.9905C18.4287 11.9905 18.4409 11.9874 18.4318 11.9843C18.4165 11.9781 18.4013 11.9657 18.4013 11.9471C18.3952 11.9316 18.4013 11.9161 18.4165 11.9068C18.43 11.8997 18.4456 11.898 18.4602 11.902C18.4748 11.9061 18.4875 11.9155 18.4956 11.9285C18.5017 11.9409 18.5017 11.9564 18.4956 11.9657L18.4774 11.9812C18.4926 11.9812 18.5078 11.9936 18.5139 12.006C18.52 12.0091 18.523 12.0183 18.523 12.0245H18.5261ZM18.6234 12.0431C18.6295 12.0431 18.6386 12.0369 18.6386 12.0307C18.6417 12.0245 18.6386 12.0091 18.6478 12.0122C18.6569 12.0122 18.6539 12.0214 18.6569 12.0307C18.6569 12.0431 18.6569 12.0555 18.6447 12.0648C18.6386 12.071 18.6295 12.0679 18.6204 12.0679H18.5687C18.5626 12.0679 18.5535 12.0741 18.5474 12.0679C18.5413 12.0617 18.5474 12.0524 18.5474 12.0462C18.5535 12.0245 18.5656 12.0091 18.5778 11.9967C18.59 11.9874 18.6021 11.9781 18.6021 11.9626C18.6021 11.9502 18.6021 11.9378 18.596 11.9254C18.5939 11.9219 18.5911 11.9189 18.5877 11.9165C18.5844 11.9141 18.5806 11.9125 18.5767 11.9116C18.5727 11.9107 18.5686 11.9107 18.5646 11.9114C18.5606 11.9122 18.5568 11.9138 18.5535 11.9161C18.5443 11.9192 18.5382 11.9316 18.5443 11.9378C18.5504 11.944 18.5626 11.9378 18.5656 11.9502C18.5717 11.9564 18.5656 11.9688 18.5565 11.9688C18.5443 11.9688 18.5322 11.9595 18.5261 11.9471C18.523 11.9316 18.5291 11.913 18.5443 11.9037C18.5595 11.8944 18.5778 11.8944 18.596 11.8975C18.6113 11.9037 18.6265 11.9161 18.6326 11.9347C18.6356 11.9471 18.6356 11.9626 18.6295 11.975C18.6173 11.9967 18.593 12.006 18.5778 12.0276C18.5747 12.0307 18.5717 12.0369 18.5747 12.0462C18.5747 12.0369 18.5869 12.04 18.59 12.04H18.6204L18.6234 12.0431ZM18.7421 12.0307C18.7421 12.0369 18.7512 12.0462 18.7603 12.0493C18.7664 12.0493 18.7786 12.0493 18.7816 12.0555C18.7877 12.0648 18.7725 12.0648 18.7664 12.0648H18.6843C18.6782 12.0617 18.6843 12.0493 18.6904 12.0524C18.6995 12.0524 18.7086 12.0493 18.7117 12.04V12.0153L18.6904 11.9285C18.6904 11.9192 18.6812 11.9192 18.6752 11.9192C18.666 11.9192 18.6569 11.9254 18.6539 11.9192C18.6478 11.9068 18.663 11.9068 18.6691 11.9037L18.7056 11.8913C18.7147 11.8913 18.7147 11.8944 18.7177 11.9006L18.7421 12.0276V12.0307Z" fill="#B07E09"/>
<path d="M17.8736 9.5L17.7579 9.64255C17.7214 9.8037 17.8127 9.92766 17.9922 10.033C18.1352 10.126 18.403 10.1477 18.4881 10.0733L18.0713 9.67044L17.8736 9.5031V9.5Z" fill="url(#paint9_radial_336_27114)" stroke="#4C0505" stroke-width="0.0138178"/>
<path d="M18.7198 13.6808L18.659 13.6034C18.3945 13.9689 18.055 14.2714 17.6641 14.4897C18.1235 14.3595 18.4247 14.0186 18.7198 13.6808ZM18.2482 14.7872C18.4194 14.446 18.6041 14.1121 18.802 13.7862L18.7381 13.7025C18.5129 14.0806 18.2513 14.53 18.2513 14.7872H18.2482ZM19.52 11.2388C19.4911 11.1 19.4472 10.9649 19.3892 10.836C19.0629 10.2758 18.605 9.80721 18.0565 9.4724V9.4631H18.0687L18.0657 9.46H18.0778L18.0718 9.45071H18.0839L18.0748 9.43831H18.087L18.0778 9.42901H18.0931L18.0839 9.41662H18.0961L18.0839 9.40732L18.1022 9.40422L18.087 9.39492L18.1022 9.39183L18.09 9.38253L18.1083 9.37633L18.0931 9.36703L18.1113 9.35774L18.0931 9.34534L18.1144 9.33914L18.09 9.32985L18.1113 9.31745H18.087L18.1022 9.29576H18.0809L18.09 9.28026H18.0718L18.0809 9.26477L18.0596 9.26787L18.0687 9.24927L18.0505 9.26167L18.0565 9.23997L18.0352 9.25237L18.0383 9.23068L18.02 9.24617L18.0231 9.22448L18.0079 9.23997V9.21828L17.9927 9.23688V9.21518L17.9805 9.23068L17.9744 9.21208L17.9622 9.23068L17.9592 9.20898L17.9501 9.23068L17.944 9.20898L17.9348 9.23068L17.9288 9.21208L17.9227 9.23068L17.9166 9.21208L17.9105 9.23688L17.9044 9.21518L17.8953 9.23997L17.8862 9.21828V9.24307L17.874 9.22138V9.24617L17.8588 9.22758V9.25237L17.8466 9.23378V9.25547L17.8344 9.24617L17.8405 9.26787L17.8253 9.25857L17.8314 9.27716L17.8192 9.27096L17.8223 9.28956H17.8101L17.8162 9.30195H17.8071L17.8131 9.31435C17.8021 9.34934 17.798 9.3862 17.801 9.42282C17.801 9.42901 17.8192 9.43521 17.8223 9.44141C17.8314 9.45381 17.8284 9.46 17.8284 9.46C17.7797 9.54058 17.7371 9.60256 17.734 9.69553C17.7706 9.64594 17.8131 9.58396 17.8679 9.58396C17.8405 9.63045 17.8284 9.773 17.8588 9.7947L17.8831 9.75441C17.8831 9.7854 17.8862 9.81019 17.8953 9.82569C17.9044 9.80709 17.9135 9.7854 17.9257 9.773C17.9257 9.81949 17.9318 9.85668 17.944 9.87527C17.9592 9.85048 17.9744 9.83808 17.9927 9.82569C17.9866 9.85358 17.9774 9.87837 17.9835 9.90936C18.0018 9.87837 18.02 9.85668 18.0413 9.83188C18.0292 9.88147 18.0413 9.91866 18.0535 9.97134C18.0657 9.90936 18.0718 9.90006 18.0991 9.87527C18.1022 9.93415 18.0931 9.98683 18.1052 10.0209C18.1296 9.96824 18.1478 9.97444 18.1661 9.94035C18.16 9.98993 18.1509 10.0426 18.1661 10.086C18.1749 10.0528 18.1955 10.0241 18.2239 10.0054C18.2239 10.0736 18.2391 10.0612 18.1995 10.1201C18.2178 10.1263 18.2756 10.1077 18.3091 10.0922C18.2939 10.1294 18.2969 10.1573 18.2817 10.1852C18.3121 10.1666 18.3425 10.1387 18.3699 10.1108C18.3578 10.1542 18.3243 10.1976 18.3395 10.2379C18.3486 10.1976 18.379 10.1666 18.4095 10.1604C18.4034 10.1821 18.4003 10.2286 18.3699 10.2502C18.4429 10.2564 18.4734 10.2069 18.5099 10.1666C18.5068 10.2069 18.5099 10.241 18.5586 10.2998C18.5494 10.2255 18.5646 10.241 18.5981 10.1976C18.6164 10.2626 18.6346 10.3339 18.7016 10.3835C18.6711 10.3122 18.6711 10.275 18.6833 10.2317C18.6924 10.2781 18.735 10.3339 18.7441 10.3742C18.7533 10.3277 18.7594 10.2812 18.7746 10.2502C18.7969 10.3057 18.8113 10.3642 18.8172 10.4238C18.8324 10.3928 18.8445 10.3618 18.8506 10.3308C19.453 10.9661 19.5869 11.7781 18.9267 12.6365C19.164 12.4753 19.2249 12.2181 19.3557 11.9981C19.2279 12.2863 19.1731 12.6086 18.945 12.8472C19.164 12.6551 19.2096 12.4784 19.3405 12.2925C19.2036 12.6799 19.0058 13.1044 18.7381 13.4949L18.8841 13.656L19.0058 13.4422C19.2918 12.965 19.7573 12.2801 19.523 11.2388H19.52Z" fill="#448127" stroke="#34541F" stroke-width="0.0138178"/>
<path d="M17.7974 9.37353C17.767 9.37972 17.7548 9.39212 17.7305 9.41691C17.7609 9.42311 17.7822 9.42621 17.8096 9.42621C17.8157 9.42621 17.8187 9.41381 17.8187 9.40762L17.8126 9.37663C17.8126 9.37043 17.7944 9.37353 17.7883 9.37663L17.7974 9.37353V9.37353Z" fill="#EAC102" stroke="#A08307" stroke-width="0.0138178"/>
<path d="M17.7305 9.41589C17.7521 9.40814 17.7746 9.40294 17.7974 9.40039C17.7758 9.40816 17.7533 9.41336 17.7305 9.41589V9.41589Z" fill="#A08307"/>
<path d="M17.9306 9.40115C17.944 9.40115 17.9549 9.39005 17.9549 9.37635C17.9549 9.36266 17.944 9.35156 17.9306 9.35156C17.9171 9.35156 17.9062 9.36266 17.9062 9.37635C17.9062 9.39005 17.9171 9.40115 17.9306 9.40115Z" fill="black" stroke="black" stroke-width="0.00690888"/>
<path d="M17.9389 9.38643C17.944 9.38643 17.9482 9.38081 17.9482 9.37388C17.9482 9.36695 17.944 9.36133 17.9389 9.36133C17.9338 9.36133 17.9297 9.36695 17.9297 9.37388C17.9297 9.38081 17.9338 9.38643 17.9389 9.38643Z" fill="url(#paint10_radial_336_27114)"/>
<path d="M18.2508 14.7782C18.306 14.5925 18.3815 14.4137 18.476 14.2452C18.5436 14.1166 18.6156 13.9905 18.692 13.8671L18.7711 13.7432L18.695 13.8671C18.6219 13.9929 18.5509 14.12 18.482 14.2483C18.393 14.4182 18.3158 14.5943 18.2508 14.7751V14.7782ZM17.6758 14.4838C18.0313 14.3263 18.342 14.0801 18.5794 13.7679C18.4595 13.8836 18.3458 14.0057 18.2386 14.1336C18.07 14.2794 17.8801 14.3976 17.6758 14.4838V14.4838ZM18.8106 13.5758C18.835 13.5448 18.8563 13.5076 18.8776 13.4735C18.9429 13.3709 19.0038 13.2655 19.0601 13.1574C19.1027 13.0862 19.1392 13.0118 19.1757 12.9405L19.2883 12.7236L19.2366 12.832L19.1818 12.9436C19.1081 13.0886 19.0299 13.2312 18.9475 13.3713C18.9048 13.4414 18.8591 13.5096 18.8106 13.5758V13.5758ZM18.9901 12.798C19.0945 12.6722 19.1815 12.5325 19.2487 12.3827C19.3476 12.1569 19.4093 11.9161 19.4313 11.6699C19.4288 11.7112 19.4278 11.7525 19.4283 11.7939C19.4026 11.9989 19.343 12.198 19.2518 12.3827C19.1831 12.5324 19.0951 12.672 18.9901 12.798Z" fill="#34541F"/>
<path d="M18.9414 12.618C19.0478 12.5028 19.137 12.3723 19.2061 12.2306C19.257 12.1249 19.3017 12.0163 19.34 11.9052L19.3491 11.8773L19.3582 11.8494L19.3765 11.7937C19.4077 11.6363 19.4097 11.4745 19.3826 11.3164C19.3844 11.3963 19.3916 11.4761 19.4039 11.555C19.4039 11.6356 19.3978 11.7162 19.3826 11.7937C19.3734 11.8122 19.3704 11.8339 19.3643 11.8525L19.3552 11.8804L19.343 11.9083C19.3011 12.0189 19.2565 12.1285 19.2091 12.2368C19.1756 12.3078 19.137 12.3762 19.0935 12.4413C19.0492 12.5066 18.9982 12.5669 18.9414 12.6211V12.618Z" fill="#34541F"/>
<path d="M18.7617 13.5225C18.8013 13.4729 18.8347 13.4202 18.8712 13.3676L18.926 13.2901L18.9777 13.2126L19.069 13.0453L19.1481 12.8748C19.2029 12.7602 19.2546 12.6455 19.3002 12.5246C19.3912 12.2888 19.4456 12.04 19.4615 11.7871C19.4871 11.5342 19.4602 11.2787 19.3824 11.0371C19.4682 11.2768 19.4974 11.5337 19.4676 11.7871C19.4515 12.0409 19.3971 12.2907 19.3063 12.5277C19.2607 12.6455 19.209 12.7602 19.1542 12.8748L19.069 13.0453C19.0416 13.1041 19.0142 13.1599 18.9808 13.2126C18.9656 13.2436 18.9473 13.2653 18.9291 13.2932L18.8743 13.3707L18.7648 13.5256L18.7617 13.5225Z" fill="#34541F"/>
<path d="M18.8458 13.6182C18.9889 13.3797 19.1249 13.1368 19.2535 12.8899C19.4393 12.5136 19.5303 12.0961 19.5182 11.6751C19.5182 11.5356 19.506 11.3962 19.4817 11.2598C19.4827 11.2598 19.4837 11.2598 19.4847 11.2598C19.5121 11.3962 19.5212 11.5387 19.5212 11.6751C19.5205 11.9546 19.4837 12.2328 19.4117 12.5025C19.3717 12.6367 19.3208 12.7673 19.2596 12.893C19.13 13.1389 18.993 13.3807 18.8489 13.6182H18.8458ZM18 9.54297H18.0426C18.0859 9.54992 18.128 9.5635 18.1673 9.58326C18.269 9.63832 18.3614 9.70945 18.4412 9.79399C18.3603 9.71238 18.268 9.64346 18.1673 9.58945C18.1142 9.56547 18.0578 9.5498 18 9.54297V9.54297Z" fill="#34541F"/>
<path d="M18.5027 9.87729C18.5027 9.87729 18.594 9.93307 18.6457 10.0136C18.6457 10.0136 18.5027 9.98576 18.4023 9.87109" fill="#448127"/>
<path d="M18.5019 9.87729C18.5601 9.91079 18.6101 9.95743 18.6479 10.0136L18.651 10.0198H18.6449C18.5975 10.0089 18.5523 9.99003 18.511 9.96406C18.4684 9.93927 18.4319 9.90828 18.3984 9.87109C18.4484 9.92407 18.5099 9.9644 18.5779 9.98886L18.6449 10.0105V10.0167C18.6265 9.98764 18.604 9.96152 18.5779 9.93927C18.5545 9.91631 18.529 9.89557 18.5019 9.87729V9.87729Z" fill="#34541F"/>
<path d="M18.2969 9.84961C18.2969 9.84961 18.5159 9.99216 18.5494 10.0046C18.5494 10.0046 18.4977 9.89609 18.3942 9.84961" fill="#448127"/>
<path d="M18.2969 9.85075L18.4216 9.92823C18.4528 9.94719 18.4843 9.96578 18.5159 9.98401L18.5464 10.0026V10.0057C18.5302 9.97231 18.5086 9.94192 18.4825 9.91583C18.4569 9.88925 18.427 9.86725 18.3942 9.85075C18.4287 9.86444 18.4598 9.88559 18.4855 9.91273C18.5118 9.93987 18.5334 9.9713 18.5494 10.0057L18.5555 10.0119L18.5464 10.0088L18.4825 9.97162C18.4196 9.9318 18.3578 9.89047 18.2969 9.84766V9.85075Z" fill="#34541F"/>
<path d="M18.3847 9.7793C18.3847 9.7793 18.4973 9.82888 18.5246 9.91255C18.5246 9.91255 18.3178 9.82578 18.2812 9.7793" fill="#448127"/>
<path d="M18.3847 9.7793C18.4154 9.79135 18.4441 9.80806 18.4699 9.82888L18.5034 9.86607L18.5277 9.91255V9.91875H18.5216C18.4487 9.88427 18.3777 9.846 18.3086 9.80409L18.2812 9.7793L18.3086 9.80099L18.3391 9.81958C18.3979 9.85647 18.46 9.8876 18.5246 9.91255H18.5216C18.5155 9.90016 18.5094 9.88156 18.4973 9.87227C18.4896 9.85795 18.4793 9.84532 18.4668 9.83508C18.4424 9.81238 18.4147 9.79357 18.3847 9.7793V9.7793Z" fill="#34541F"/>
<path d="M18.2109 9.86914C18.2109 9.86914 18.4117 10.0148 18.4726 10.0148C18.4726 10.0148 18.4117 9.91253 18.3083 9.86914" fill="#448127"/>
<path d="M18.2109 9.86914C18.2845 9.91619 18.3596 9.96063 18.4361 10.0024L18.4726 10.0117L18.4695 10.0179C18.4505 9.98563 18.4269 9.9564 18.3996 9.93112C18.3721 9.90624 18.3414 9.88538 18.3083 9.86914C18.3606 9.8899 18.4067 9.92406 18.4422 9.96831L18.4726 10.0148L18.4787 10.0179H18.4726C18.4574 10.0179 18.4452 10.0148 18.433 10.0086L18.4026 9.9931C18.3344 9.95923 18.2701 9.91765 18.2109 9.86914V9.86914Z" fill="#34541F"/>
<path d="M18.2109 9.9132C18.2109 9.9132 18.3144 10.0062 18.3752 10.0062C18.3752 10.0062 18.3144 9.90391 18.2109 9.85742" fill="#448127"/>
<path d="M18.2109 9.91206C18.2496 9.9409 18.2903 9.96679 18.3326 9.98953L18.3509 9.99573L18.3752 10.0019L18.3722 10.005C18.3529 9.97387 18.3294 9.94569 18.3022 9.92136C18.2748 9.89648 18.244 9.87562 18.2109 9.85938C18.2629 9.87926 18.309 9.91233 18.3448 9.95544L18.3752 10.0019L18.3813 10.0081H18.3752C18.3583 10.0075 18.3418 10.0033 18.3266 9.99573C18.298 9.98189 18.2714 9.96417 18.2474 9.94305C18.2334 9.93526 18.221 9.92473 18.2109 9.91206V9.91206Z" fill="#34541F"/>
<path d="M18.1562 9.71094C18.1562 9.71094 18.3753 9.86899 18.3996 9.95576C18.3996 9.95576 18.2049 9.86279 18.1684 9.8163" fill="#448127"/>
<path d="M18.1562 9.71094C18.2386 9.77144 18.315 9.83994 18.3844 9.91547L18.4057 9.95266V9.96196L18.3996 9.95886C18.3288 9.92206 18.2597 9.88172 18.1928 9.838L18.1684 9.8163L18.1928 9.838L18.2232 9.85659C18.2812 9.8931 18.3423 9.92422 18.4057 9.94956L18.3996 9.95576L18.3784 9.91857C18.334 9.86085 18.2829 9.80883 18.2262 9.76362L18.1562 9.71094Z" fill="#34541F"/>
<path d="M16.9371 14.1765C16.7458 14.2784 16.5323 14.3296 16.3164 14.3252C16.6207 14.0711 16.9158 14.0649 16.9371 14.1765ZM19.0607 14.316C19.2189 14.4616 19.6997 14.5639 19.7757 14.5453C19.4532 14.2137 19.1033 14.1796 19.0607 14.316Z" fill="#406325" stroke="#24420E" stroke-width="0.0138178"/>
<path d="M16.9371 14.1759C16.9158 14.0612 16.6176 14.0705 16.3164 14.3246C16.5147 14.2434 16.724 14.1933 16.9371 14.1759V14.1759ZM19.0638 14.3122C19.1064 14.1759 19.4532 14.21 19.7757 14.5447C19.5509 14.4321 19.311 14.3538 19.0638 14.3122V14.3122Z" fill="#67923D" stroke="#24420E" stroke-width="0.0138178"/>
</g>
</g>
<defs>
<filter id="filter0_d_336_27114" x="0" y="-2" width="36" height="36" filterUnits="userSpaceOnUse" color-interpolation-filters="sRGB">
<feFlood flood-opacity="0" result="BackgroundImageFix"/>
<feColorMatrix in="SourceAlpha" type="matrix" values="0 0 0 0 0 0 0 0 0 0 0 0 0 0 0 0 0 0 127 0" result="hardAlpha"/>
<feOffset dy="4"/>
<feGaussianBlur stdDeviation="3"/>
<feComposite in2="hardAlpha" operator="out"/>
<feColorMatrix type="matrix" values="0 0 0 0 0 0 0 0 0 0 0 0 0 0 0 0 0 0 0.16 0"/>
<feBlend mode="normal" in2="BackgroundImageFix" result="effect1_dropShadow_336_27114"/>
<feBlend mode="normal" in="SourceGraphic" in2="effect1_dropShadow_336_27114" result="shape"/>
</filter>
<radialGradient id="paint0_radial_336_27114" cx="0" cy="0" r="1" gradientUnits="userSpaceOnUse" gradientTransform="translate(17.0095 12.2555) scale(0.50201 0.511335)">
<stop offset="0.2" stop-color="#F9F0AA"/>
<stop offset="1" stop-color="#B07E09"/>
</radialGradient>
<radialGradient id="paint1_radial_336_27114" cx="0" cy="0" r="1" gradientUnits="userSpaceOnUse" gradientTransform="translate(17.1373 12.4017) scale(0.33163 0.337791)">
<stop offset="0.2" stop-color="#F9F0AA"/>
<stop offset="1" stop-color="#B07E09"/>
</radialGradient>
<radialGradient id="paint2_radial_336_27114" cx="0" cy="0" r="1" gradientUnits="userSpaceOnUse" gradientTransform="translate(17.2141 12.2648) scale(0.298165 0.303702)">
<stop offset="0.2" stop-color="#F9F0AA"/>
<stop offset="1" stop-color="#B07E09"/>
</radialGradient>
<radialGradient id="paint3_radial_336_27114" cx="0" cy="0" r="1" gradientUnits="userSpaceOnUse" gradientTransform="translate(17.3424 12.219) scale(0.529392 0.539226)">
<stop offset="0.2" stop-color="#F9F0AA"/>
<stop offset="1" stop-color="#B07E09"/>
</radialGradient>
<linearGradient id="paint4_linear_336_27114" x1="17.8154" y1="10.734" x2="17.7681" y2="9.8912" gradientUnits="userSpaceOnUse">
<stop offset="0.2" stop-color="#B07E09" stop-opacity="0"/>
<stop offset="1" stop-color="#B07E09"/>
</linearGradient>
<linearGradient id="paint5_linear_336_27114" x1="18.0964" y1="11.8961" x2="18.1721" y2="12.8225" gradientUnits="userSpaceOnUse">
<stop offset="0.2" stop-color="#B07E09" stop-opacity="0"/>
<stop offset="1" stop-color="#B07E09"/>
</linearGradient>
<radialGradient id="paint6_radial_336_27114" cx="0" cy="0" r="1" gradientUnits="userSpaceOnUse" gradientTransform="translate(16.9648 10.5237) scale(0.395525 0.40287)">
<stop offset="0.2" stop-color="#F9F0AA"/>
<stop offset="1" stop-color="#B07E09"/>
</radialGradient>
<linearGradient id="paint7_linear_336_27114" x1="17.1326" y1="10.4339" x2="17.2549" y2="10.1597" gradientUnits="userSpaceOnUse">
<stop offset="0.2" stop-color="#F9F0AA"/>
<stop offset="1" stop-color="#B07E09"/>
</linearGradient>
<linearGradient id="paint8_linear_336_27114" x1="17.7958" y1="10.0527" x2="17.8779" y2="11.0814" gradientUnits="userSpaceOnUse">
<stop offset="0.2" stop-color="#F9F0AA"/>
<stop offset="1" stop-color="#B07E09"/>
</linearGradient>
<radialGradient id="paint9_radial_336_27114" cx="0" cy="0" r="1" gradientUnits="userSpaceOnUse" gradientTransform="translate(17.9374 9.37294) scale(0.00912747 0.009297)">
<stop offset="0.3" stop-color="#A50A0A"/>
<stop offset="1" stop-color="#4C0505"/>
</radialGradient>
<radialGradient id="paint10_radial_336_27114" cx="0" cy="0" r="1" gradientUnits="userSpaceOnUse" gradientTransform="translate(17.9385 9.3718) scale(0.00902967 0.00963414)">
<stop stop-color="white"/>
<stop offset="1" stop-color="white" stop-opacity="0"/>
</radialGradient>
<clipPath id="clip0_336_27114">
<rect width="24" height="18" fill="white" transform="translate(6 3)"/>
</clipPath>
</defs>
</svg>
