<svg width="36" height="31" viewBox="0 0 36 31" fill="none" xmlns="http://www.w3.org/2000/svg">
<g filter="url(#filter0_d_336_14400)">
<g clip-path="url(#clip0_336_14400)">
<path d="M6 3H30V21H6V3Z" fill="white"/>
<path d="M23.9344 14.3531C24.3284 14.1964 24.721 14.0376 25.1151 13.8812C25.0943 13.939 25.0671 14.0051 24.9971 14.0343C24.6338 14.1782 24.2712 14.3233 23.908 14.4672C23.884 14.4771 23.8603 14.4879 23.8341 14.4931C23.8581 14.4535 23.8807 14.4135 23.9037 14.3736C23.9087 14.3625 23.9225 14.3581 23.9344 14.3531ZM22.7074 13.8085C22.7923 13.8619 22.8694 13.9228 22.9235 13.9885C23.0236 14.1152 23.0494 14.2794 22.9873 14.4218C22.9819 14.4335 22.9705 14.4422 22.9608 14.4516C22.98 14.3727 22.9857 14.2892 22.9556 14.2118C22.9143 14.0992 22.8207 14.0047 22.6959 13.9494C22.698 13.9002 22.7044 13.8506 22.7074 13.8085ZM19.4569 13.74C19.5097 13.7033 19.583 13.6998 19.6491 13.6998C19.7154 13.7036 19.7856 13.7061 19.8441 13.7352C19.8718 13.7616 19.8455 13.7929 19.8171 13.8095C19.7021 13.8777 19.5754 13.9369 19.482 14.0264C19.4567 14.0496 19.4698 14.0856 19.5018 14.0991C19.5502 14.119 19.6063 14.12 19.6595 14.1189C19.7858 14.1132 19.9071 14.074 20.0129 14.018C20.0423 14.0026 20.0687 13.9835 20.0991 13.9692C20.034 14.0341 19.9607 14.0937 19.88 14.1454C19.8118 14.1874 19.7351 14.2238 19.6499 14.2348C19.5828 14.2395 19.5107 14.2368 19.4527 14.2057C19.3883 14.1743 19.358 14.1041 19.3819 14.0462C19.3963 14.0136 19.423 13.986 19.4511 13.9606C19.5235 13.8976 19.6121 13.8494 19.7004 13.8029C19.6405 13.8005 19.5799 13.7979 19.5204 13.8038C19.4815 13.8071 19.4554 13.831 19.4278 13.8504C19.4195 13.8126 19.4193 13.7678 19.4569 13.74ZM17.086 13.6451C17.1385 13.624 17.211 13.627 17.2524 13.6638C17.287 13.6975 17.2908 13.7439 17.2882 13.786C17.2604 13.8164 17.2284 13.8444 17.2052 13.8775C17.1565 13.8849 17.1053 13.8784 17.0577 13.8902C17.0338 13.9016 17.0025 13.9085 16.991 13.9316C16.9759 13.9614 16.9829 13.9944 16.9893 14.0252C17.014 14.1327 17.0598 14.2384 17.0574 14.3492C17.0548 14.388 17.0516 14.4284 17.0293 14.4635C17.0241 14.4019 16.9977 14.3437 16.9785 14.2844C16.9424 14.1765 16.9137 14.0657 16.9095 13.9535C16.9048 13.9103 16.935 13.8732 16.9655 13.8406C17.0106 13.7888 17.0914 13.7737 17.1631 13.7625C17.1445 13.7484 17.1234 13.7321 17.0958 13.7352C17.0572 13.7398 17.0311 13.7663 17.0099 13.7908C17.0061 13.7368 17.0241 13.6732 17.086 13.6451ZM20.5242 13.6242C20.5277 13.6213 20.5322 13.6202 20.5378 13.6209C20.5174 13.6401 20.5062 13.6643 20.4905 13.6861C20.4458 13.7554 20.3942 13.829 20.406 13.9106C20.4073 13.9489 20.4335 13.9984 20.488 13.998C20.5146 13.9872 20.5215 13.9593 20.5348 13.9392C20.5332 13.9989 20.5225 14.0715 20.4541 14.1057C20.3974 14.0982 20.3548 14.0568 20.3526 14.0101C20.341 13.869 20.4129 13.7298 20.5242 13.6242ZM10.3473 12.829C10.3798 12.7814 10.4103 12.7296 10.4671 12.6981C10.3981 12.8125 10.3264 12.9284 10.2962 13.0548C10.2862 13.103 10.2812 13.1588 10.3192 13.2003C10.3487 13.2264 10.3962 13.2311 10.4366 13.2231C10.498 13.212 10.5265 13.1592 10.5518 13.1174C10.5713 13.1486 10.5512 13.1823 10.5422 13.2134C10.5168 13.2793 10.4865 13.3506 10.4163 13.3934C10.3624 13.4273 10.2851 13.4137 10.2333 13.3839C10.165 13.34 10.1634 13.2605 10.1754 13.1961C10.2024 13.0657 10.2722 12.9447 10.3473 12.829ZM15.3494 12.3187C15.3694 12.2874 15.4086 12.2503 15.4568 12.2659C15.5148 12.2803 15.5837 12.318 15.5744 12.3746C15.5589 12.3939 15.539 12.4104 15.5214 12.4284C15.5027 12.3992 15.4817 12.3619 15.4377 12.3557C15.3805 12.3711 15.3462 12.4182 15.3282 12.4631C15.2902 12.5612 15.2817 12.6648 15.2711 12.7668C15.2573 12.7728 15.2434 12.7788 15.2293 12.7843C15.2297 12.6905 15.2049 12.5908 15.1282 12.5181C15.1108 12.494 15.0723 12.5061 15.0461 12.4945C14.9975 12.4801 14.9798 12.4365 14.968 12.3992C14.9621 12.374 14.9516 12.3437 14.9721 12.3212C15.0152 12.311 15.049 12.342 15.0797 12.3616C15.1588 12.4234 15.2135 12.5029 15.2583 12.5838C15.2771 12.4934 15.297 12.4007 15.3494 12.3187ZM23.5799 12.071C23.6398 12.0541 23.7028 12.0763 23.7518 12.1047C23.8336 12.1544 23.8974 12.2218 23.9466 12.2943C23.973 12.3363 24.003 12.3823 23.9924 12.4312C23.9861 12.4641 23.983 12.4994 23.959 12.5275C23.9325 12.5544 23.8827 12.5516 23.8494 12.5356C23.8113 12.5179 23.775 12.4976 23.7351 12.4826C23.6812 12.6029 23.5676 12.6976 23.4445 12.7728C23.3612 12.8252 23.2698 12.8682 23.1773 12.9084C23.1201 12.9338 23.0569 12.9473 22.9957 12.9637C22.9345 12.978 22.8723 12.9968 22.8077 12.9916C22.8484 12.9896 22.8806 12.9679 22.915 12.9525C23.094 12.8669 23.2694 12.7749 23.4287 12.6659C23.5133 12.6057 23.5998 12.5431 23.6569 12.463C23.62 12.4564 23.5831 12.4508 23.5459 12.4467C23.516 12.3752 23.5157 12.2877 23.5803 12.2285C23.5481 12.2082 23.5444 12.1714 23.539 12.1408C23.5344 12.1141 23.5453 12.0802 23.5799 12.071ZM23.7405 12.2481C23.7527 12.3011 23.7563 12.3551 23.7573 12.409C23.8077 12.4149 23.8579 12.4314 23.9093 12.4266C23.9356 12.4235 23.9346 12.3952 23.92 12.3817C23.8722 12.3276 23.8059 12.2869 23.7405 12.2481ZM23.5696 12.3346C23.5954 12.3738 23.6539 12.3838 23.7017 12.3964C23.7115 12.3711 23.7242 12.3446 23.7194 12.3177C23.7021 12.29 23.6787 12.2537 23.6353 12.2539C23.5978 12.2697 23.5829 12.3042 23.5696 12.3346ZM20.2578 11.9964C20.2876 11.9648 20.3379 11.9494 20.3854 11.9482C20.4184 11.9479 20.4344 11.977 20.442 11.9992C20.4563 12.0515 20.4589 12.1084 20.4279 12.1572C20.444 12.1668 20.4601 12.1766 20.4766 12.1861C20.4723 12.2195 20.4693 12.2532 20.4685 12.2869C20.4357 12.2725 20.4105 12.2495 20.3824 12.2302C20.295 12.3539 20.1673 12.4612 20.0082 12.5218C19.9241 12.5567 19.8278 12.5719 19.7341 12.5623C19.9115 12.5102 20.0838 12.4351 20.2125 12.3198C20.2568 12.2803 20.2948 12.2366 20.327 12.1899C20.3021 12.168 20.2723 12.1493 20.2528 12.1238C20.2373 12.0829 20.2259 12.034 20.2578 11.9964ZM20.3065 12.0367C20.3194 12.0666 20.344 12.0913 20.3696 12.1145C20.3804 12.0886 20.3946 12.0605 20.3788 12.0339C20.3545 12.03 20.3302 12.0322 20.3065 12.0367ZM10.3576 12.3606C10.7135 12.1771 11.0709 11.9952 11.4275 11.8126C11.4173 11.8764 11.3907 11.9501 11.3159 11.982C10.9858 12.1501 10.6549 12.3172 10.3253 12.4859C10.3167 12.4896 10.3078 12.4927 10.2985 12.495C10.3195 12.4506 10.3355 12.4046 10.3576 12.3606ZM17.8093 11.391C17.8367 11.3584 17.8676 11.3272 17.9023 11.2995C17.8768 11.347 17.892 11.399 17.9039 11.4476C17.9173 11.5008 17.9355 11.553 17.9558 11.6048C17.97 11.6438 18.0245 11.6575 18.0681 11.6651C18.0942 11.672 18.1262 11.656 18.1161 11.6315C18.092 11.5683 18.0613 11.507 18.0262 11.4475C18.0386 11.4076 18.0528 11.3681 18.0647 11.3281C18.0812 11.3281 18.0979 11.3283 18.1147 11.3284C18.1291 11.4023 18.172 11.4694 18.2115 11.5358C18.2116 11.6077 18.2064 11.6826 18.1754 11.7507C18.1547 11.799 18.0854 11.814 18.0294 11.8101C17.9551 11.7983 17.9058 11.7457 17.8622 11.6994C17.8405 11.7601 17.7792 11.8072 17.7065 11.8262C17.6451 11.8448 17.5742 11.8178 17.5412 11.7733C17.5051 11.724 17.4982 11.6644 17.4999 11.608C17.5032 11.5273 17.5222 11.4332 17.6104 11.3848C17.6165 11.3848 17.6289 11.3848 17.6351 11.3848C17.6312 11.3863 17.6231 11.3891 17.6192 11.3906C17.5656 11.4711 17.5623 11.5723 17.6099 11.6552C17.6237 11.6814 17.6588 11.7003 17.6942 11.6942C17.7384 11.6854 17.7733 11.6596 17.8034 11.633C17.8045 11.5523 17.8041 11.4715 17.8093 11.391ZM10.7867 11.2224C10.8666 11.2082 10.9393 11.2493 10.9962 11.2904C11.0722 11.3515 11.1356 11.4242 11.1758 11.5054C11.188 11.5299 11.1934 11.5566 11.1888 11.583C11.1831 11.618 11.1797 11.6564 11.1526 11.6855C11.1208 11.7096 11.0707 11.7043 11.0369 11.6858C11.0033 11.6676 10.9683 11.6512 10.9318 11.6373C10.877 11.7564 10.7651 11.8506 10.6431 11.9257C10.5473 11.9852 10.4428 12.0352 10.3348 12.0782C10.2575 12.1023 10.1784 12.123 10.0981 12.1394C10.0661 12.1466 10.0328 12.1459 10 12.1451C10.0192 12.1414 10.0398 12.1402 10.0573 12.1321C10.233 12.0506 10.4044 11.9621 10.5641 11.8607C10.672 11.7894 10.7791 11.7139 10.8557 11.618C10.8185 11.6111 10.7811 11.6045 10.7431 11.6016C10.7131 11.5299 10.7122 11.4427 10.7754 11.3825C10.7449 11.3607 10.7405 11.3247 10.735 11.2939C10.7292 11.2641 10.7478 11.2287 10.7867 11.2224M10.9359 11.4008C10.95 11.4543 10.9514 11.5092 10.954 11.5636C11.0072 11.5685 11.0608 11.5892 11.1144 11.5784C11.1393 11.567 11.1218 11.5408 11.1088 11.5274C11.0598 11.478 10.9978 11.4385 10.9359 11.4008ZM10.8052 11.4238C10.7877 11.4451 10.7674 11.4696 10.7702 11.4964C10.8011 11.5283 10.8533 11.5416 10.9005 11.5487C10.9051 11.5333 10.9106 11.5184 10.9143 11.503C10.9272 11.4717 10.8978 11.4436 10.8742 11.4219C10.8567 11.4044 10.8204 11.4038 10.8052 11.4238ZM16.7323 11.1607C16.7844 11.1964 16.8161 11.2478 16.8513 11.2946C16.9415 11.425 17.0184 11.5612 17.0928 11.698C17.2561 11.9917 17.3634 12.3052 17.4225 12.6241C17.4392 12.7229 17.4563 12.8223 17.4529 12.9224C17.4628 13.1211 17.4916 13.3243 17.5926 13.5072C17.6669 13.6314 17.7933 13.7417 17.8923 13.8223C17.9394 13.8491 17.9594 13.8428 17.9718 13.8318C17.9795 13.8251 17.9765 13.7379 17.9922 13.697C18.0146 13.6297 18.0658 13.5725 18.1203 13.5203C18.1812 13.4655 18.2502 13.4152 18.3317 13.3821C18.4949 13.3141 18.664 13.2563 18.8348 13.2028C18.9634 13.1636 19.0941 13.1289 19.2279 13.1036C18.654 13.1069 18.0801 13.1108 17.5063 13.1162C17.5349 13.0017 17.5641 12.8873 17.5937 12.773C17.6545 12.7074 17.7311 12.6535 17.8067 12.5999C18.1357 12.3769 18.5156 12.2119 18.9003 12.0641C18.8552 12.0061 18.7926 11.9521 18.7827 11.8809C18.7594 11.781 18.81 11.6821 18.8736 11.5989C18.9113 11.5517 18.9465 11.5001 19.0045 11.4676C19.0627 11.4345 19.1415 11.4323 19.2052 11.4558C19.4185 11.5345 19.6386 11.673 19.8012 11.7973C19.8175 11.8109 19.8384 11.8226 19.8486 11.8402C19.8104 11.942 19.7699 12.0435 19.7328 12.1457C19.5632 12.1768 19.3927 12.2066 19.2274 12.2513C19.2442 12.3373 19.2741 12.4311 19.2291 12.5145C19.2134 12.5127 19.1921 12.5105 19.1895 12.4947C19.1831 12.4224 19.1407 12.3566 19.0971 12.295C18.8862 12.3632 18.6757 12.4337 18.4768 12.5235C18.3165 12.5966 18.154 12.6759 18.0352 12.7929C18.9175 12.7931 19.7999 12.7931 20.6822 12.7929C20.6256 12.8949 20.5652 12.9956 20.5075 13.0973C19.9299 13.2129 19.3533 13.3364 18.7929 13.5007C18.5577 13.5715 18.3227 13.6494 18.1141 13.7648C18.0925 13.7784 18.08 13.8034 18.0957 13.8237C18.1281 13.8646 18.1872 13.8814 18.2368 13.9047C18.3446 13.9537 18.464 13.9804 18.5814 14.009C18.6655 14.0294 18.7497 14.0497 18.8337 14.0704C18.8267 14.1927 18.8255 14.3153 18.8165 14.4374C18.7477 14.4374 18.6775 14.4274 18.6083 14.4224C18.4727 14.4092 18.3351 14.4003 18.2043 14.3662C18.0263 14.3199 17.8659 14.232 17.7402 14.119C17.6023 13.9971 17.5026 13.8492 17.4311 13.6941C17.3335 13.4793 17.2792 13.2161 17.2603 12.9879C17.2517 12.987 17.2496 13.0324 17.2413 13.0317C17.2168 13.1323 17.1881 13.2216 17.1471 13.3186C17.1394 13.3417 17.1188 13.3593 17.1006 13.3772C16.9693 13.5024 16.8292 13.6215 16.6827 13.7348C16.5329 13.8495 16.3766 13.9593 16.2077 14.0549C16.0302 14.1549 15.8381 14.2449 15.6256 14.2827C15.5115 14.3021 15.3817 14.3059 15.2817 14.2491C15.17 14.1864 15.1155 14.0774 15.086 13.9729C14.9842 14.0364 14.8817 14.0989 14.7768 14.159C14.6822 14.2111 14.588 14.2663 14.4796 14.2977C14.2086 14.3803 13.9267 14.4345 13.6463 14.4904C13.4451 14.5278 13.2439 14.5653 13.0414 14.5973C13.229 14.5098 13.4195 14.4263 13.6063 14.3376C14.1131 14.0995 14.6124 13.8493 15.0889 13.5719C15.1539 13.3163 15.2589 13.0591 15.4621 12.854C15.4647 12.8534 15.4699 12.8522 15.4725 12.8516C15.4563 12.8799 15.4485 12.911 15.4318 12.9391C15.3093 13.1153 15.2222 13.3101 15.1914 13.5119C15.4083 13.3823 15.6201 13.2465 15.8193 13.0988C15.9424 13.0082 16.0581 12.9108 16.1637 12.8063C16.1927 12.7767 16.2322 12.7513 16.2432 12.7125C16.248 12.6872 16.2453 12.6716 16.2278 12.6192C16.1046 12.3396 15.9298 11.9907 15.8137 11.7448C15.8534 11.6206 15.8902 11.4957 15.9304 11.3715C15.9839 11.4005 16.0187 11.4459 16.0568 11.4871C16.1346 11.5808 16.2077 11.6772 16.2733 11.7771C16.3101 11.832 16.317 11.8958 16.3305 11.9564C16.2778 11.9175 16.2411 11.8647 16.1826 11.8314C16.1851 11.8402 16.1886 11.8489 16.1932 11.8573C16.2858 12.0073 16.3491 12.169 16.3902 12.3336C16.4155 12.4314 16.4265 12.5317 16.4194 12.6316C16.4141 12.74 16.3962 12.851 16.3356 12.9488C16.2818 13.0356 16.2095 13.1134 16.1339 13.188C15.8777 13.4349 15.5774 13.6478 15.2724 13.8527C15.2728 13.8646 15.2893 13.8679 15.2991 13.8744C15.4083 13.9303 15.5448 13.9247 15.6667 13.9073C15.7586 13.8898 15.8532 13.8765 15.9373 13.8396C16.1581 13.7447 16.3506 13.6124 16.5364 13.4776C16.7801 13.2955 17.0096 13.1008 17.2285 12.8988C17.1553 12.6857 17.0794 12.4732 17.002 12.2611C16.96 12.1504 16.9209 12.0386 16.8707 11.9302C16.7873 11.7872 16.7072 11.6425 16.6346 11.4957C16.6639 11.3835 16.7008 11.2726 16.7321 11.1607M18.9527 11.7375C18.926 11.7462 18.9036 11.7704 18.9148 11.7947C18.9189 11.8131 18.9433 11.8194 18.9562 11.8331C19.0097 11.8841 19.0603 11.9372 19.1069 11.9928C19.223 11.9581 19.3409 11.928 19.4581 11.8962C19.3708 11.8277 19.2739 11.7626 19.1575 11.7316C19.0912 11.7132 19.0171 11.7154 18.9527 11.7375ZM21.5216 11.5902C21.8792 11.4083 22.2349 11.2239 22.5929 11.0428C22.5828 11.0993 22.5631 11.1612 22.5066 11.1985C22.1599 11.3761 21.8112 11.5512 21.4646 11.7291C21.4794 11.6817 21.5028 11.6365 21.5216 11.5902ZM19.7174 10.9046C19.7505 10.8889 19.799 10.89 19.8214 10.9187C19.8522 10.9569 19.8604 11.0069 19.8437 11.0508C19.8122 11.1378 19.7426 11.2117 19.6668 11.276C19.5745 11.35 19.4641 11.4182 19.3335 11.4349C19.3554 11.4127 19.3874 11.4003 19.4156 11.3844C19.4964 11.3396 19.5743 11.2903 19.6422 11.2326C19.6779 11.1988 19.7164 11.1622 19.7228 11.1158C19.7253 11.077 19.6824 11.0438 19.6386 11.0373C19.5748 11.0466 19.535 11.0919 19.4881 11.1237C19.4769 11.0956 19.5069 11.0758 19.5245 11.0552C19.5808 10.9991 19.6374 10.9389 19.7174 10.9046ZM15.0597 10.7163C15.1691 10.6609 15.2763 10.6024 15.387 10.5489C15.3761 10.606 15.3535 10.6722 15.2859 10.7007C15.044 10.8222 14.8048 10.9474 14.562 11.0677C14.5891 11.0222 14.6158 10.9761 14.6457 10.9318C14.7825 10.8586 14.9219 10.7883 15.0597 10.7163ZM25.5933 10.3602C25.7527 10.4483 25.8842 10.5741 25.9553 10.7214C26.0254 10.8642 26.0249 11.0262 25.9684 11.172C25.9607 11.1889 25.9444 11.2015 25.9306 11.2151C25.9552 11.1161 25.9636 11.0122 25.9294 10.914C25.8811 10.7584 25.743 10.6292 25.5751 10.551C25.5834 10.4875 25.5853 10.4237 25.5933 10.3602ZM21.7519 10.4242C21.7793 10.3967 21.806 10.3687 21.836 10.3431C21.8075 10.398 21.8292 10.4575 21.8428 10.5131C21.8582 10.5639 21.873 10.6153 21.8964 10.6641C21.9255 10.6955 21.9767 10.7115 22.0238 10.7103C22.0457 10.7102 22.0561 10.6891 22.0485 10.6741C22.0255 10.6128 21.9955 10.5533 21.9615 10.4957C21.968 10.4533 21.9872 10.4126 22.0006 10.3714C22.0169 10.3726 22.0335 10.3737 22.0502 10.3751C22.0611 10.4501 22.1089 10.5166 22.1464 10.584C22.1448 10.6383 22.1402 10.6928 22.1275 10.7462C22.1178 10.7834 22.101 10.8264 22.0553 10.8432C22.0163 10.8556 21.9707 10.8625 21.9313 10.8475C21.8735 10.8265 21.8325 10.7851 21.7969 10.7436C21.7745 10.8022 21.7173 10.8487 21.6472 10.8692C21.5896 10.891 21.5195 10.8682 21.483 10.8284C21.4411 10.7814 21.4337 10.7208 21.433 10.6643C21.4354 10.6101 21.4406 10.5542 21.4691 10.5044C21.4875 10.4709 21.5161 10.438 21.56 10.4255C21.5015 10.5049 21.495 10.6068 21.5382 10.692C21.5506 10.7162 21.5763 10.7396 21.6104 10.7404C21.6623 10.7382 21.7027 10.7075 21.737 10.6784C21.7363 10.6092 21.74 10.5401 21.7401 10.4708C21.7426 10.4552 21.7368 10.4364 21.7519 10.4242ZM13.0896 9.86212C13.22 9.93153 13.3239 10.0371 13.3735 10.1586C13.4139 10.2568 13.411 10.3648 13.3751 10.4636C13.3703 10.4796 13.3556 10.4916 13.3424 10.5034C13.3689 10.4102 13.3661 10.3092 13.3186 10.2208C13.2702 10.1295 13.1814 10.0542 13.0763 10.0055C13.082 9.95775 13.0849 9.90986 13.0896 9.86214L13.0896 9.86212ZM17.2999 9.75845C17.3294 9.72838 17.3558 9.69379 17.3951 9.67187C17.3692 9.70419 17.3801 9.74409 17.3863 9.77973C17.4008 9.84624 17.4224 9.91169 17.4479 9.97595C17.456 10.0028 17.4896 10.0142 17.5174 10.0246C17.5425 10.0323 17.5728 10.0395 17.5983 10.0292C17.6144 10.0175 17.6068 9.99772 17.6012 9.98337C17.5766 9.9271 17.5515 9.87067 17.5169 9.81795L17.5566 9.69525C17.5739 9.69638 17.5911 9.69735 17.6087 9.69823C17.6167 9.77377 17.6672 9.83971 17.7036 9.90751C17.7024 9.96531 17.6973 10.0236 17.682 10.0802C17.6734 10.1136 17.6546 10.1488 17.6163 10.1656C17.5722 10.1799 17.5197 10.1866 17.4766 10.1667C17.4266 10.1431 17.3867 10.1073 17.3554 10.0681C17.3302 10.1282 17.2699 10.1757 17.1965 10.1953C17.1461 10.2109 17.0861 10.1943 17.0516 10.1615C17.0078 10.124 16.996 10.0699 16.9918 10.02C16.9883 9.9558 16.9946 9.88962 17.0251 9.82988C17.0426 9.79522 17.0738 9.76467 17.1152 9.74782C17.0746 9.81392 17.0538 9.89083 17.0765 9.96386C17.0865 10.0022 17.1032 10.051 17.1551 10.063C17.2112 10.0689 17.2557 10.0339 17.2919 10.0036C17.2986 9.92202 17.2944 9.83994 17.2999 9.75845ZM21.6405 9.6551C21.8293 9.58803 22.0181 9.52031 22.2112 9.46226C22.2053 9.4983 22.1894 9.53941 22.1467 9.55658C21.8725 9.65268 21.5973 9.74716 21.3289 9.85388C21.2756 9.87806 21.2208 9.90289 21.1793 9.94014C21.2089 9.96698 21.2533 9.97706 21.2933 9.98915C21.2929 10.0152 21.293 10.0412 21.293 10.0673C21.2362 10.0561 21.1794 10.0391 21.1354 10.0066C21.138 9.96956 21.1372 9.93232 21.1434 9.89556C21.1497 9.86218 21.1913 9.84646 21.2213 9.82832C21.3543 9.76029 21.4983 9.70846 21.6405 9.6551ZM13.146 9.33055L13.1537 9.33692C13.1366 9.35474 13.1454 9.37827 13.1481 9.39875C13.1575 9.44285 13.1708 9.48654 13.1893 9.5287C13.1953 9.54757 13.2192 9.55659 13.2395 9.56288C13.2573 9.56594 13.286 9.57312 13.2934 9.55361C13.2812 9.50791 13.252 9.46711 13.2339 9.42326C13.2425 9.39795 13.2465 9.37078 13.2611 9.34732C13.2709 9.34749 13.2809 9.34781 13.2909 9.34837C13.3008 9.39754 13.3319 9.44083 13.3543 9.48622C13.353 9.5329 13.3512 9.58134 13.3298 9.6252C13.3165 9.65487 13.274 9.66277 13.2398 9.66237C13.1898 9.65657 13.157 9.6219 13.1275 9.59175C13.1085 9.63577 13.0598 9.67019 13.003 9.67624C12.9553 9.67825 12.9149 9.64665 12.9023 9.61062C12.8857 9.56298 12.8876 9.51178 12.901 9.46381C12.9116 9.43028 12.9321 9.394 12.9743 9.3811C12.941 9.4273 12.9328 9.48413 12.9514 9.53564C12.9587 9.55692 12.9721 9.5836 13.0027 9.58667C13.0367 9.58715 13.0619 9.56587 13.0862 9.54934C13.0925 9.49661 13.0849 9.44341 13.0929 9.39077C13.1051 9.36812 13.1297 9.35135 13.146 9.33055ZM14.7103 9.2397C14.7311 9.24429 14.7461 9.25824 14.7633 9.26815C14.8673 9.33853 14.954 9.43003 14.9953 9.53636C15.034 9.63262 15.0316 9.73831 14.9972 9.83513C14.9925 9.85189 14.9795 9.86544 14.9681 9.87946C14.9673 9.87769 14.9655 9.87406 14.9645 9.87229C14.9896 9.78281 14.9859 9.68647 14.942 9.60134C14.8946 9.50807 14.8058 9.43084 14.6986 9.38222C14.7013 9.33467 14.7059 9.2871 14.7103 9.2397ZM15.6543 9.15667C15.6807 9.10386 15.7499 9.05953 15.822 9.06968C15.8581 9.07605 15.8833 9.10209 15.8962 9.12909C15.9214 9.18472 15.9251 9.24534 15.9163 9.30387C15.9605 9.3474 16.0086 9.3915 16.0272 9.44793C16.0615 9.52217 16.0308 9.60142 16.0016 9.67309C15.9642 9.76789 15.8931 9.85399 15.8798 9.95476C15.8752 9.97967 15.8869 10.0068 15.9179 10.0155C15.9678 10.0034 15.9756 9.95468 15.9858 9.91921C16.0014 9.91615 16.0258 9.91477 16.0312 9.93098C16.0398 9.9758 16.0158 10.0189 15.9965 10.0598C15.979 10.0908 15.9547 10.1275 15.9099 10.1345C15.8741 10.1399 15.8467 10.1141 15.8323 10.0904C15.7915 10.0224 15.8044 9.9417 15.8385 9.87374C15.8917 9.76548 15.962 9.65648 15.9555 9.53636C15.9557 9.48534 15.9296 9.43664 15.8879 9.39948C15.8256 9.53773 15.7248 9.66236 15.6086 9.77394C15.5486 9.83521 15.4623 9.87262 15.3799 9.90994C15.3062 9.9413 15.2314 9.97218 15.1529 9.99483C15.304 9.90551 15.449 9.80788 15.5745 9.69446C15.6779 9.59909 15.7732 9.49155 15.8115 9.3658L15.809 9.3587C15.753 9.32903 15.6858 9.30284 15.6566 9.25044C15.6443 9.22061 15.6458 9.18706 15.6543 9.15667ZM15.7103 9.17184C15.6959 9.1795 15.7058 9.19417 15.7176 9.19917C15.7528 9.21602 15.7891 9.23166 15.8257 9.24649C15.8248 9.21618 15.8315 9.17853 15.7992 9.15693C15.7712 9.13773 15.7329 9.15434 15.7103 9.17184ZM21.6863 9.10436C21.7052 9.07735 21.7343 9.04406 21.7775 9.04874C21.8234 9.05721 21.8682 9.07744 21.8964 9.10904C21.9107 9.12879 21.9226 9.15894 21.8972 9.17635C21.8838 9.18707 21.8743 9.20521 21.8578 9.21061C21.8348 9.18587 21.8169 9.14169 21.7703 9.14298C21.7119 9.16063 21.6796 9.20924 21.6621 9.25543C21.6259 9.35072 21.6185 9.45117 21.6071 9.54985C21.5955 9.55968 21.5799 9.56516 21.566 9.57218C21.566 9.47213 21.5377 9.365 21.4505 9.29108C21.4084 9.28681 21.3585 9.2827 21.3349 9.24925C21.3063 9.2066 21.2856 9.15396 21.3055 9.10591C21.3499 9.09874 21.386 9.12615 21.4162 9.14888C21.4961 9.20911 21.5477 9.28883 21.5944 9.36808C21.6141 9.2781 21.6339 9.18602 21.6863 9.10436ZM10.3197 9.13685C10.344 9.10154 10.3709 9.06518 10.4131 9.04253C10.3458 9.16184 10.2675 9.28035 10.2424 9.41199C10.2346 9.45504 10.2343 9.50438 10.2679 9.54058C10.2993 9.57306 10.3564 9.57363 10.4009 9.56226C10.4506 9.5459 10.4738 9.50204 10.4971 9.46552C10.5075 9.46576 10.5096 9.47584 10.5146 9.48188C10.4884 9.56645 10.4631 9.65819 10.3855 9.72229C10.3133 9.78492 10.171 9.75268 10.1356 9.67489C10.1098 9.61894 10.1184 9.55703 10.1335 9.49995C10.1706 9.37146 10.2409 9.25124 10.3197 9.13685ZM17.0899 9.00279C17.2192 9.07542 17.3253 9.18022 17.3748 9.30341C17.3994 9.36806 17.4084 9.43699 17.3989 9.50438C17.3918 9.55347 17.3823 9.60443 17.3488 9.64667C17.3441 9.63377 17.3472 9.62055 17.3502 9.60773C17.3724 9.51027 17.3535 9.40579 17.292 9.32001C17.2412 9.2485 17.1661 9.18853 17.0778 9.14894C17.0794 9.10009 17.0852 9.05147 17.0899 9.00279ZM18.8954 8.93717C18.9464 8.95893 18.9798 8.99868 19.0127 9.03592C19.0929 9.13234 19.161 9.24061 19.2221 9.34582C19.2281 9.35971 19.2284 9.37695 19.2326 9.42321C19.1957 9.39024 19.1525 9.3584 19.0977 9.34872C19.088 9.36638 19.088 9.3854 19.0963 9.40346C19.1676 9.58298 19.2482 9.76002 19.3172 9.94018C19.3611 10.0576 19.3997 10.1783 19.4012 10.302C19.4042 10.4168 19.3804 10.5314 19.3392 10.6409C19.2977 10.7437 19.2342 10.8457 19.1283 10.9136C19.0411 10.9717 18.9248 10.9958 18.8139 10.9873C18.6785 10.979 18.5503 10.9254 18.4564 10.8457C18.4062 10.8065 18.3655 10.7601 18.3273 10.7129L18.3419 10.71C18.3379 10.7104 18.33 10.7112 18.3259 10.7116C18.2411 10.5943 18.1782 10.4662 18.1419 10.3329C18.1451 10.3157 18.1051 10.3171 18.1091 10.3343C18.0574 10.5286 17.9748 10.7203 17.8382 10.8859C17.7584 10.981 17.6551 11.0659 17.527 11.1162C17.3874 11.1703 17.223 11.1738 17.076 11.1391C16.9284 11.1041 16.8114 11.0084 16.748 10.8955C16.6561 10.7338 16.6421 10.5507 16.6522 10.3749C16.6719 10.2329 16.7151 10.094 16.7573 9.95555C16.7715 9.91298 16.7842 9.86719 16.7658 9.82399C16.7599 9.82149 16.7483 9.81649 16.7425 9.81399C16.7227 9.82455 16.7024 9.83495 16.687 9.84978C16.5788 9.94781 16.5174 10.0731 16.4683 10.1973C16.4312 10.2974 16.4022 10.3995 16.3828 10.5029C16.357 10.6664 16.3174 10.8319 16.2259 10.98C16.1762 11.0588 16.1016 11.1406 15.9892 11.1587C15.885 11.1701 15.7737 11.1433 15.6974 11.083C15.604 11.0112 15.5631 10.9069 15.5384 10.8066C15.4992 10.6266 15.5113 10.4421 15.536 10.2613C15.5525 10.1499 15.576 10.0393 15.6054 9.92975C15.615 9.92903 15.6247 9.92846 15.6346 9.92798C15.5957 10.1127 15.5689 10.3002 15.5757 10.4879C15.5818 10.5949 15.5971 10.7039 15.65 10.8029C15.6859 10.8707 15.7469 10.9338 15.8316 10.963C15.9116 10.9898 16.0104 10.9946 16.0853 10.9547C16.1627 10.9129 16.199 10.8384 16.2278 10.7693C16.2844 10.6164 16.3095 10.4573 16.3539 10.302C16.4006 10.1443 16.4676 9.99088 16.5499 9.84333C16.597 9.75732 16.6489 9.67275 16.7156 9.59567C16.7748 9.52707 16.8291 9.45177 16.9132 9.40139C16.9194 9.40163 16.9318 9.4022 16.9381 9.40244C16.9535 9.45411 16.9353 9.50764 16.9326 9.55996C16.9274 9.64638 16.8891 9.72756 16.8671 9.81132C16.8398 9.90709 16.8165 10.0037 16.7931 10.1001C16.757 10.2383 16.7313 10.3841 16.7767 10.5231C16.8111 10.6321 16.9027 10.7282 17.0263 10.7779C17.1067 10.8126 17.1969 10.8303 17.2875 10.8329C17.4147 10.8435 17.5477 10.8309 17.6615 10.7806C17.7986 10.7219 17.8957 10.6155 17.9586 10.5019C18.0201 10.3883 18.0553 10.2652 18.0655 10.1413C18.0669 9.89522 18.0461 9.64435 17.9436 9.41097C17.9305 9.37872 17.9134 9.34526 17.9209 9.31068C17.9371 9.21579 17.9757 9.12446 18.0209 9.03652C18.0238 9.02644 18.0385 9.02572 18.0473 9.02055C18.0957 9.1393 18.1427 9.25884 18.1721 9.38195C18.2091 9.54197 18.2304 9.70408 18.2523 9.86581C18.2697 9.98125 18.2748 10.0985 18.31 10.2116C18.3393 10.3056 18.3848 10.3975 18.4564 10.4753C18.5433 10.5745 18.6739 10.6482 18.8191 10.6763C18.9434 10.7 19.0761 10.6695 19.1806 10.6125C19.2356 10.5817 19.2926 10.5298 19.2744 10.4711C19.1003 10.0951 18.9572 9.71007 18.815 9.32544C18.8056 9.29368 18.7876 9.26329 18.7847 9.23064C18.8031 9.12891 18.8465 9.03137 18.8954 8.93713L18.8954 8.93717ZM14.0325 9.25318C14.092 9.1429 14.1513 9.03254 14.2121 8.92273C14.3296 9.14474 14.4252 9.3745 14.4969 9.60932C14.5053 9.6568 14.4882 9.70453 14.4903 9.75225C14.4493 9.69243 14.4021 9.6356 14.3591 9.57675C14.3702 9.68445 14.3904 9.79159 14.4025 9.8993C14.4848 10.5354 14.5571 11.1724 14.6189 11.8102C14.6897 11.7681 14.7436 11.7077 14.774 11.6406C14.8135 11.565 14.8562 11.4897 14.9141 11.4222C14.9357 11.3979 14.9644 11.3668 15.0064 11.3743C15.0302 11.3754 15.0415 11.3964 15.0438 11.4134C15.0543 11.4733 14.9992 11.525 15.0086 11.5844C15.0111 11.6332 15.0576 11.675 15.1127 11.6898C15.2081 11.7181 15.3118 11.7054 15.4097 11.694C15.4538 11.686 15.509 11.6792 15.5305 11.6415C15.5075 11.5811 15.482 11.5213 15.453 11.4626C15.4944 11.3761 15.5416 11.2914 15.5847 11.2054C15.5958 11.1851 15.6032 11.1627 15.6215 11.1456C15.6528 11.2439 15.6607 11.346 15.6733 11.4468C15.6864 11.6097 15.6546 11.7788 15.5556 11.9222C15.5023 11.9955 15.4227 12.0622 15.3189 12.0834C15.2283 12.1012 15.1289 12.0931 15.0468 12.056C14.9518 12.0116 14.8866 11.9335 14.8528 11.8495C14.8013 11.9465 14.7337 12.0383 14.6476 12.1172C14.6576 12.2431 14.6688 12.3689 14.6765 12.4949C14.6822 12.6355 14.6383 12.7731 14.5875 12.9062C14.5629 12.9633 14.5387 13.0208 14.5082 13.0761C14.2377 13.4392 13.8801 13.7608 13.451 14.001C13.1702 14.1594 12.8595 14.2822 12.5333 14.3629C12.3628 14.4036 12.1885 14.4367 12.0111 14.4473C11.828 14.4494 11.6422 14.43 11.4711 14.3749C11.3105 14.3234 11.1702 14.2298 11.0802 14.1087C10.7639 14.1355 10.4458 14.1503 10.1277 14.1509C10.4114 14.0674 10.6923 13.9772 10.9684 13.8779C10.8947 13.5826 10.9556 13.2781 11.0478 12.9905C11.1043 12.8161 11.171 12.643 11.2527 12.4756C11.3147 12.3417 11.3391 12.2801 11.4574 12.1222C11.3335 12.3019 11.3154 12.3758 11.26 12.5032C11.1854 12.6994 11.1317 12.9018 11.1159 13.107C11.1003 13.3326 11.1201 13.5694 11.2481 13.7736C11.5884 13.6429 11.9197 13.496 12.2373 13.3312C12.5067 13.1895 12.7669 13.0349 13.0034 12.8576C13.1155 12.7725 13.2244 12.6837 13.3165 12.5834C13.3437 12.5571 13.3305 12.5196 13.3216 12.4897C13.3011 12.4395 13.2778 12.39 13.2542 12.3409C13.0932 12.3944 12.9217 12.4311 12.7471 12.4304C12.6519 12.4327 12.5539 12.4178 12.4718 12.3766C12.4015 12.341 12.3492 12.2824 12.328 12.2168C12.2987 12.1307 12.3114 12.0399 12.329 11.953C12.3569 11.8274 12.4132 11.7017 12.5203 11.6066C12.5955 11.5401 12.6951 11.489 12.8054 11.4756C12.9302 11.4761 13.0477 11.5261 13.1367 11.5955C13.2501 11.6838 13.3274 11.7983 13.3869 11.9157C13.4979 11.8626 13.6046 11.7997 13.6873 11.718C13.7684 11.6488 13.8518 11.5781 13.9554 11.5316C13.9812 11.5194 14.0258 11.5059 14.0429 11.5344C14.0617 11.5766 14.0438 11.6231 14.0313 11.6651C13.9979 11.7263 14.0382 11.796 14.0881 11.8428C14.1575 11.9072 14.2716 11.9134 14.3683 11.8989C14.2669 11.044 14.164 10.1892 14.0626 9.33423C14.0605 9.30555 14.0454 9.27935 14.0325 9.25315M12.6529 11.8783C12.6032 11.8959 12.5411 11.9219 12.5337 11.971C12.5454 12.0083 12.5988 12.0199 12.6389 12.0278C12.768 12.0484 12.9022 12.048 13.0312 12.0272C13.0288 12.0234 13.0239 12.0159 13.0215 12.0121C12.9542 11.9496 12.8685 11.8957 12.7667 11.8799C12.7293 11.8753 12.6895 11.8665 12.6529 11.8783ZM13.4982 12.2275C13.5115 12.4017 13.4818 12.5779 13.4149 12.7434C13.3891 12.8008 13.3676 12.8617 13.3189 12.9096C13.0795 13.1724 12.7711 13.3871 12.4461 13.5755C12.1565 13.7412 11.8507 13.8882 11.5311 14.0109C11.5857 14.0328 11.643 14.0504 11.7026 14.0608C11.8622 14.0899 12.027 14.0742 12.1869 14.0553C12.6875 13.9937 13.1589 13.8143 13.5649 13.569C13.8341 13.4064 14.0793 13.2171 14.2933 13.0062C14.3648 12.9318 14.4529 12.859 14.4703 12.7609C14.4533 12.5946 14.4307 12.4287 14.4118 12.2625C14.3005 12.2992 14.1627 12.3078 14.0617 12.2465C13.9391 12.1705 13.8925 12.0408 13.8731 11.921C13.7674 12.0377 13.643 12.1434 13.4982 12.2275ZM19.6268 9.01646C19.6546 8.97857 19.6811 8.93674 19.7285 8.91287C19.6596 9.02622 19.5893 9.1415 19.5583 9.26662C19.5462 9.32071 19.5421 9.38657 19.5962 9.42712C19.6276 9.4397 19.6638 9.4472 19.6981 9.43728C19.7607 9.42575 19.7899 9.37223 19.8144 9.32886C19.8212 9.34627 19.8257 9.36433 19.8184 9.38222C19.7961 9.45752 19.7665 9.53636 19.6994 9.59335C19.6239 9.65978 19.4717 9.62157 19.443 9.53644C19.4177 9.45921 19.4408 9.37827 19.4685 9.30362C19.5087 9.20365 19.5645 9.10829 19.6268 9.01646ZM11.6727 9.22872C11.7397 9.12215 11.804 9.01453 11.8692 8.90731C11.9753 9.13473 12.0592 9.36915 12.1174 9.60793C12.1212 9.65138 12.1068 9.69467 12.1021 9.73788C12.0542 9.68467 12.0254 9.62058 11.9766 9.56746C12.0033 9.74683 12.0128 9.92765 12.0301 10.1077C12.0495 10.3406 12.0677 10.5736 12.0859 10.8066C12.2313 10.7866 12.3619 10.7161 12.4497 10.6198C12.5817 10.4757 12.6403 10.2943 12.6569 10.1168C12.6558 9.88871 12.641 9.6567 12.5537 9.4384C12.5383 9.39374 12.51 9.35053 12.5105 9.30321C12.521 9.21526 12.5568 9.13093 12.5947 9.04878C12.6043 9.0296 12.6106 9.00517 12.6388 8.99945C12.6819 9.10884 12.7265 9.21816 12.7552 9.33085C12.7996 9.5074 12.8211 9.68716 12.8459 9.86614C12.8624 9.97449 12.8673 10.0846 12.9006 10.1908C12.9439 10.3335 13.0317 10.4727 13.1762 10.5635C13.2849 10.6312 13.4237 10.6775 13.5619 10.6595C13.6593 10.6451 13.758 10.6133 13.8262 10.5522C13.8571 10.5251 13.8783 10.4854 13.8651 10.4483C13.7255 10.1532 13.6115 9.85048 13.4963 9.54851C13.457 9.44347 13.4183 9.33819 13.3797 9.23299C13.3687 9.2063 13.383 9.17881 13.3883 9.15245C13.4126 9.072 13.444 8.99227 13.4874 8.91747C13.5346 8.93609 13.5652 8.97293 13.596 9.00623C13.689 9.11619 13.7631 9.23598 13.8312 9.3573C13.828 9.37278 13.8249 9.38834 13.8223 9.40398C13.7878 9.36875 13.7434 9.33715 13.6878 9.3282C13.679 9.34545 13.6794 9.36432 13.687 9.38181C13.7489 9.53538 13.8148 9.68783 13.8778 9.84107C13.9313 9.97771 13.9956 10.1764 13.9919 10.2612C13.9807 10.3805 13.9603 10.5385 13.9164 10.6496C13.8681 10.7484 13.784 10.8663 13.6695 10.9206C13.5712 10.9691 13.4499 10.9766 13.3392 10.9587C13.1934 10.9348 13.0683 10.8574 12.9788 10.7621C12.8529 10.6278 12.7757 10.4664 12.73 10.3023C12.7231 10.3024 12.7093 10.3029 12.7025 10.3032C12.6597 10.4683 12.5946 10.6309 12.4941 10.7786C12.404 10.9108 12.2794 11.0356 12.1076 11.0987C12.1376 11.5075 12.1691 11.9162 12.1905 12.3254C12.1937 12.5272 12.1838 12.7289 12.1716 12.9304C12.1714 12.9578 12.1575 12.9832 12.1471 13.0088C12.1134 13.0963 12.0778 13.1833 12.0399 13.2697C12.0339 13.2841 12.0261 13.2982 12.015 13.3107C12.0101 12.9254 11.9704 12.5411 11.9387 12.1569C11.9099 11.8186 11.8812 11.4802 11.8532 11.1419C11.7156 11.1394 11.574 11.1063 11.4725 11.027C11.3542 10.9376 11.2939 10.8087 11.265 10.6815C11.2395 10.5688 11.2341 10.4533 11.2448 10.3392C11.2683 10.1902 11.3148 10.0445 11.359 9.89895C11.3651 9.87292 11.3695 9.84559 11.3624 9.81938C11.3596 9.80987 11.357 9.79858 11.3435 9.79592C11.3229 9.79375 11.3076 9.8064 11.2937 9.81664C11.2165 9.87791 11.1661 9.95715 11.122 10.0365C11.0384 10.2004 10.9893 10.3751 10.9625 10.551C10.9403 10.6671 10.9079 10.7826 10.8549 10.892C10.8128 10.9732 10.7603 11.0569 10.669 11.1078C10.591 11.1519 10.488 11.1465 10.4027 11.1212C10.2947 11.0883 10.2178 11.0089 10.177 10.9227C10.106 10.7747 10.1014 10.6127 10.1057 10.4558C10.1158 10.2718 10.1476 10.0888 10.1966 9.90919C10.2059 9.90758 10.2152 9.90605 10.2244 9.90459C10.1847 10.1106 10.1525 10.3196 10.1712 10.5285C10.1803 10.619 10.2 10.7104 10.2471 10.7933C10.2871 10.8641 10.3574 10.9277 10.4505 10.9508C10.5296 10.9708 10.6233 10.9692 10.6907 10.9255C10.7639 10.8774 10.7985 10.8022 10.8253 10.7307C10.8884 10.5498 10.912 10.3612 10.9773 10.1807C11.0406 10.0038 11.1267 9.83213 11.2332 9.66978C11.295 9.58562 11.3617 9.50331 11.4393 9.42833C11.4622 9.40866 11.4853 9.38069 11.5218 9.38036C11.5418 9.39092 11.5347 9.41406 11.5352 9.43059C11.5249 9.51201 11.524 9.59528 11.4943 9.67404C11.4401 9.83567 11.4036 10.0009 11.3639 10.1651C11.3363 10.2931 11.3289 10.4297 11.3885 10.5524C11.4324 10.646 11.5237 10.722 11.6338 10.7642C11.6937 10.7874 11.7584 10.8016 11.8238 10.8093C11.7877 10.3529 11.7467 9.89671 11.7093 9.44027C11.7007 9.36925 11.7064 9.29597 11.6728 9.22874L11.6727 9.22872ZM26.2546 9.2305C26.3136 9.11554 26.3682 8.99921 26.4279 8.88449C26.5194 9.13205 26.6087 9.38036 26.6833 9.6317C26.6945 9.67498 26.7091 9.71796 26.7146 9.76205C26.7069 9.79696 26.6939 9.83122 26.6928 9.86709C26.6602 9.8155 26.6275 9.76406 26.5944 9.71279C26.636 10.3559 26.6862 10.9986 26.7424 11.641C26.7598 11.8476 26.7852 12.0539 26.7944 12.2609C26.8113 12.6444 26.795 13.0361 26.6532 13.4048C26.5999 13.5381 26.532 13.6679 26.4459 13.7892C26.33 13.9459 26.158 14.0695 25.9689 14.1644C25.632 14.3309 25.2464 14.4175 24.8614 14.4709C24.8396 14.4775 24.8308 14.4567 24.8184 14.4472C25.1619 14.3114 25.4921 14.1518 25.8003 13.9673C25.9544 13.8725 26.1053 13.7726 26.235 13.6553C26.3836 13.5178 26.4957 13.3523 26.5467 13.1727C26.6025 12.9921 26.5833 12.8042 26.571 12.6204C26.5388 12.1967 26.499 11.7734 26.465 11.3497C26.4127 10.6969 26.36 10.044 26.3075 9.39121C26.2964 9.34534 26.2616 9.306 26.2455 9.26134C26.2412 9.25038 26.2512 9.24055 26.2546 9.23047L26.2546 9.2305ZM25.3846 9.34255C25.5854 9.16947 25.78 8.99164 25.9729 8.8125C25.9815 8.97349 25.8807 9.12149 25.7681 9.24725C25.7078 9.32037 25.6228 9.37511 25.5463 9.43589C25.5097 9.46314 25.4742 9.49119 25.439 9.51957C25.4491 9.56262 25.4646 9.60502 25.4703 9.64872C25.4673 9.68927 25.4594 9.72958 25.4535 9.76996C25.4102 9.71418 25.3793 9.65194 25.3298 9.59971C25.3516 9.7823 25.3622 9.96571 25.377 10.1488C25.4157 10.6863 25.4511 11.224 25.4845 11.7617C25.4825 11.7756 25.4973 11.7844 25.5069 11.7942C25.6497 11.9246 25.7919 12.0556 25.9256 12.1924C26.0307 12.3072 26.1301 12.4259 26.2144 12.5519C26.3248 12.7168 26.4123 12.8955 26.4381 13.0838C26.4522 13.2022 26.4452 13.3244 26.3983 13.4378C26.3156 13.1271 26.1634 12.8445 25.9861 12.6486C25.8369 12.4816 25.6737 12.318 25.5089 12.1613C25.5204 12.353 25.5319 12.5448 25.5408 12.7366C25.5496 12.984 25.5385 13.2315 25.5257 13.4786C25.5258 13.5255 25.5001 13.5683 25.4868 13.613C25.4484 13.7135 25.4175 13.8163 25.3684 13.9137C25.3605 13.6854 25.3511 13.4569 25.3343 13.2288C25.3042 12.8203 25.2724 12.412 25.244 12.0036C25.2398 11.9714 25.2419 11.9386 25.2345 11.907C25.1261 11.8029 25.0091 11.705 24.8959 11.6046C24.6965 11.4335 24.4951 11.2641 24.286 11.1011C24.3257 11.5278 24.3667 11.9544 24.4038 12.3812C24.4197 12.575 24.4407 12.7688 24.443 12.9632C24.4458 13.1323 24.4437 13.3014 24.4391 13.4704C24.4397 13.577 24.4415 13.6872 24.3955 13.7886C24.3273 13.9142 24.2051 14.0191 24.0578 14.0838C23.9427 14.134 23.8127 14.1607 23.6825 14.1615C23.5947 14.1632 23.5073 14.144 23.4296 14.111C23.2937 14.048 23.1967 13.9407 23.1343 13.825C23.0915 13.7455 23.0608 13.6614 23.0442 13.5754C23.0345 13.5377 23.0243 13.4942 22.9834 13.4707C22.9508 13.4526 22.9118 13.467 22.8803 13.4791C22.8037 13.5127 22.7299 13.5531 22.6744 13.6088C22.4938 13.7873 22.4079 14.0151 22.3541 14.2393C22.3278 14.3361 22.2861 14.4322 22.2128 14.5121C22.1597 14.569 22.0839 14.6235 21.9941 14.625C21.9238 14.6261 21.856 14.6015 21.7933 14.5761C21.6545 14.5159 21.5582 14.4057 21.5009 14.2879C21.4855 14.2565 21.4668 14.2303 21.4368 14.1189C21.4044 13.9987 21.3932 13.8162 21.4057 13.6304C21.4118 13.6125 21.3892 13.6059 21.3767 13.5959C21.3272 13.5611 21.307 13.5058 21.3077 13.4537C21.3063 13.2626 21.3401 13.0681 21.438 12.8933C21.5175 12.7491 21.6364 12.6231 21.7522 12.4977C21.7631 12.4842 21.7824 12.4734 21.7877 12.4576C21.7155 12.3899 21.6394 12.3251 21.5624 12.2612C21.5185 12.2195 21.4651 12.1856 21.4219 12.1436C21.2596 11.999 21.1 11.8525 20.9404 11.7058C20.9557 11.9203 20.9672 12.135 20.9803 12.3497C20.9902 12.5485 21.007 12.7472 21.0036 12.9462C21.0043 13.1237 20.9945 13.3009 20.9857 13.4781C20.9852 13.5223 20.9635 13.5634 20.9498 13.6055C20.9111 13.7092 20.8762 13.8142 20.8292 13.9158C20.8205 13.8318 20.8258 13.7472 20.8193 13.6631C20.8015 13.2437 20.7616 12.8252 20.7332 12.4063C20.7091 12.0858 20.6878 11.765 20.6621 11.4446C20.5558 11.3363 20.4435 11.2314 20.3384 11.122C20.2153 10.9945 20.0923 10.866 19.9893 10.7268C19.8413 10.5082 19.6753 10.2959 19.4702 10.1102C19.4585 10.1011 19.4621 10.0877 19.4622 10.0762C19.4693 9.95596 19.4749 9.83576 19.4822 9.71558C19.6281 9.79361 19.7673 9.88011 19.9011 9.97177C20.0048 10.0452 20.1034 10.124 20.1874 10.2131C20.2307 10.2551 20.2706 10.3088 20.2561 10.3663C20.2068 10.3503 20.1559 10.3374 20.1093 10.3166C20.0905 10.3082 20.0701 10.3028 20.0491 10.3002C20.046 10.3338 20.0739 10.3603 20.0948 10.3868C20.2469 10.5697 20.4055 10.7487 20.5682 10.9253C20.5892 10.948 20.6122 10.9696 20.6283 10.995C20.618 10.788 20.5988 10.5812 20.5851 10.3743C20.5621 10.0548 20.5384 9.73528 20.5153 9.41571C20.5111 9.36799 20.514 9.31873 20.4906 9.27383C20.4793 9.25593 20.496 9.23956 20.5052 9.22409C20.5611 9.13541 20.6151 9.04585 20.6681 8.95587C20.6706 8.94958 20.6829 8.93338 20.6866 8.94894C20.787 9.1633 20.8652 9.38467 20.9229 9.60934C20.9407 9.66311 20.9188 9.71792 20.9122 9.77169C20.8747 9.71083 20.8322 9.65222 20.7906 9.59321C20.8439 10.1544 20.8748 10.7169 20.9148 11.2787C20.9417 11.3159 20.9832 11.3454 21.0162 11.3795C21.3347 11.6811 21.6654 11.9738 21.9959 12.2666C22.2415 12.0426 22.4896 11.8204 22.7385 11.599C22.7493 11.5907 22.7567 11.5807 22.7528 11.5682C22.6779 10.8697 22.6029 10.171 22.5279 9.47252C22.5184 9.4019 22.521 9.32919 22.4887 9.26211C22.55 9.15385 22.6173 9.04776 22.6782 8.93924C22.7116 8.99623 22.7346 9.0571 22.7609 9.1166C22.8227 9.26485 22.8762 9.41552 22.9185 9.56827C22.9274 9.6027 22.9419 9.63744 22.9361 9.67307C22.9317 9.70524 22.9263 9.73733 22.9221 9.76957C22.881 9.71266 22.8417 9.65493 22.8003 9.59818C22.859 10.1608 22.9185 10.8692 22.9718 11.3912C23.2299 11.1661 23.4859 10.9392 23.7451 10.715C23.7736 10.6884 23.806 10.6646 23.8322 10.6364C23.7061 10.4972 23.5884 10.353 23.471 10.2088C23.4301 10.1613 23.3984 10.1092 23.3595 10.0607C23.2774 9.95627 23.1936 9.85059 23.0809 9.76633C23.0711 9.63058 23.0658 9.49449 23.0587 9.3585C23.3233 9.54843 23.5922 9.73464 23.8494 9.93152C23.874 9.94966 23.8937 9.97191 23.9074 9.99674C23.8842 9.78432 23.863 9.57182 23.8411 9.35932C23.8385 9.33981 23.8393 9.31949 23.8294 9.30127C23.8228 9.28257 23.8046 9.26258 23.8193 9.24347C23.8802 9.14069 23.9376 9.03653 23.9978 8.93343C24.1031 9.13819 24.1852 9.35086 24.2502 9.56658C24.2569 9.59689 24.273 9.62664 24.2681 9.65791C24.2632 9.69242 24.2604 9.72708 24.2556 9.76158C24.2184 9.71079 24.1812 9.66001 24.1444 9.60914C24.138 9.60108 24.132 9.59301 24.1266 9.58479C24.1602 9.82785 24.1824 10.0719 24.2086 10.3155C24.4024 10.1465 24.6015 9.98167 24.8021 9.81794C24.8914 9.74853 24.9841 9.68195 25.0696 9.60931C25.0616 9.51499 25.057 9.42051 25.0479 9.32627C25.0463 9.29636 25.0128 9.26621 25.0363 9.23759C25.0996 9.13876 25.1596 9.03839 25.2186 8.93771C25.2879 9.06832 25.3346 9.20634 25.3847 9.34249M24.2299 10.5266C24.2329 10.5647 24.2368 10.6028 24.2411 10.6409C24.3041 10.7048 24.3681 10.7682 24.4346 10.8297C24.6884 11.0649 24.9509 11.2936 25.2083 11.526C25.1685 10.9512 25.1237 10.3764 25.0842 9.80145C24.7937 10.0386 24.5088 10.2803 24.2299 10.5266ZM23.6818 10.0051C23.7632 10.1096 23.8479 10.2126 23.9382 10.312C23.931 10.2198 23.9201 10.1278 23.9102 10.0358C23.9053 10.0439 23.9 10.0521 23.8959 10.0604C23.8346 10.0236 23.7597 9.99475 23.6818 10.0051ZM23.1602 11.4922C23.1076 11.543 23.049 11.59 22.9995 11.6428C23.0112 11.8058 23.0365 11.9684 23.0521 12.1314C23.0598 12.4007 23.0053 12.6866 22.8037 12.907C22.8094 12.8719 22.8067 12.8364 22.8072 12.8011C22.8069 12.6803 22.8131 12.5594 22.8124 12.4385C22.8117 12.3227 22.8143 12.3306 22.8088 12.091C22.8065 11.9909 22.7914 11.9116 22.7816 11.8412C22.7112 11.9023 22.6442 11.9659 22.574 12.0272C22.4358 12.1539 22.289 12.2739 22.1475 12.398C22.2913 12.5252 22.3815 12.6926 22.4047 12.8649C22.4282 13.0481 22.3726 13.243 22.2262 13.3854C22.097 13.5103 21.9117 13.5891 21.7192 13.6254C21.6289 13.6419 21.5324 13.6532 21.4428 13.6283C21.4539 13.7052 21.468 13.7819 21.4867 13.8578C21.5189 13.9858 21.5608 14.1151 21.644 14.2279C21.6885 14.2855 21.7494 14.3414 21.8332 14.3583C21.9229 14.3762 22.0141 14.3393 22.0771 14.2886C22.1332 14.2473 22.1592 14.1873 22.1829 14.1302C22.2541 13.9622 22.2781 13.7816 22.3723 13.6199C22.4383 13.4917 22.5223 13.3672 22.6434 13.2684C22.7062 13.2147 22.7785 13.1689 22.8541 13.1281C22.9063 13.1025 22.9694 13.0811 23.0307 13.0961C23.0891 13.1102 23.1285 13.1525 23.1555 13.1952C23.2169 13.2912 23.2329 13.401 23.2827 13.5008C23.3191 13.5833 23.3674 13.667 23.4532 13.7227C23.5399 13.7788 23.6541 13.7961 23.7622 13.7923C23.9509 13.7857 24.2612 13.6594 24.2769 13.6237C24.2932 13.5867 24.2501 13.3065 24.2333 13.148C24.1512 12.3739 24.0726 11.5996 23.9923 10.8254C23.9896 10.8041 23.9663 10.7897 23.9548 10.7716C23.6852 11.0082 23.4238 11.2511 23.1602 11.4922M21.9308 12.6028C21.8744 12.6563 21.8211 12.7122 21.768 12.768C21.667 12.8799 21.5659 12.9931 21.4911 13.1185C21.4722 13.1504 21.455 13.1901 21.4767 13.224C21.5024 13.2586 21.5571 13.2638 21.6021 13.2639C21.8006 13.2573 21.9857 13.1844 22.1469 13.0933C22.2008 13.0714 22.2514 13.0231 22.2311 12.9706C22.2044 12.9 22.1539 12.8378 22.1044 12.7768C22.053 12.7168 21.999 12.6582 21.9413 12.6022C21.9387 12.6023 21.9335 12.6027 21.9308 12.6028Z" fill="black"/>
</g>
</g>
<defs>
<filter id="filter0_d_336_14400" x="0" y="-2" width="36" height="36" filterUnits="userSpaceOnUse" color-interpolation-filters="sRGB">
<feFlood flood-opacity="0" result="BackgroundImageFix"/>
<feColorMatrix in="SourceAlpha" type="matrix" values="0 0 0 0 0 0 0 0 0 0 0 0 0 0 0 0 0 0 127 0" result="hardAlpha"/>
<feOffset dy="4"/>
<feGaussianBlur stdDeviation="3"/>
<feComposite in2="hardAlpha" operator="out"/>
<feColorMatrix type="matrix" values="0 0 0 0 0 0 0 0 0 0 0 0 0 0 0 0 0 0 0.16 0"/>
<feBlend mode="normal" in2="BackgroundImageFix" result="effect1_dropShadow_336_14400"/>
<feBlend mode="normal" in="SourceGraphic" in2="effect1_dropShadow_336_14400" result="shape"/>
</filter>
<clipPath id="clip0_336_14400">
<rect width="24" height="18" fill="white" transform="translate(6 3)"/>
</clipPath>
</defs>
</svg>
