<svg width="36" height="31" viewBox="0 0 36 31" fill="none" xmlns="http://www.w3.org/2000/svg">
<g filter="url(#filter0_d_336_26878)">
<g clip-path="url(#clip0_336_26878)">
<path d="M6 3H30V21H6V3Z" fill="white"/>
<path d="M16.1992 3H19.7992V21H16.1992V3Z" fill="#FF0000"/>
<path d="M6 10.1992H30V13.7992H6V10.1992Z" fill="#FF0000"/>
<g style="mix-blend-mode:multiply">
<path fill-rule="evenodd" clip-rule="evenodd" d="M11.5034 16.9916C11.5409 16.3616 11.6534 15.8254 11.6534 15.8254C11.6534 15.8254 11.2859 15.8629 11.0984 15.8629C10.9147 15.8629 10.5434 15.8254 10.5434 15.8254C10.5434 15.8254 10.6559 16.3616 10.6934 16.9954C10.0597 16.9579 9.52344 16.8454 9.52344 16.8454C9.52344 16.8454 9.56094 17.1229 9.56094 17.4004C9.56094 17.6779 9.52344 17.9554 9.52344 17.9554C9.52344 17.9554 10.0597 17.8429 10.6934 17.8054C10.6559 18.4391 10.5434 18.9754 10.5434 18.9754C10.5434 18.9754 10.8209 18.9379 11.0984 18.9379C11.3759 18.9379 11.6534 18.9754 11.6534 18.9754C11.6534 18.9754 11.5409 18.4391 11.5034 17.8054C12.1372 17.8429 12.6734 17.9554 12.6734 17.9554C12.6734 17.9554 12.6359 17.5879 12.6359 17.4004C12.6359 17.2166 12.6734 16.8454 12.6734 16.8454C12.6734 16.8454 12.1372 16.9579 11.5072 16.9954L11.5034 16.9916ZM25.3034 6.19164C25.3409 5.56164 25.4534 5.02539 25.4534 5.02539C25.4534 5.02539 25.0859 5.06289 24.8984 5.06289C24.7147 5.06289 24.3434 5.02539 24.3434 5.02539C24.3434 5.02539 24.4559 5.56164 24.4934 6.19164C23.8597 6.15414 23.3234 6.04539 23.3234 6.04539C23.3234 6.04539 23.3609 6.32289 23.3609 6.60039C23.3609 6.87789 23.3234 7.15539 23.3234 7.15539C23.3234 7.15539 23.8597 7.04289 24.4934 7.00539C24.4559 7.63914 24.3434 8.17539 24.3434 8.17539C24.3434 8.17539 24.6209 8.13789 24.8984 8.13789C25.1759 8.13789 25.4534 8.17539 25.4534 8.17539C25.4534 8.17539 25.3409 7.63914 25.3034 7.00914C25.9372 7.04664 26.4734 7.15914 26.4734 7.15914C26.4734 7.15914 26.4359 6.78414 26.4359 6.60039C26.4359 6.41664 26.4734 6.04539 26.4734 6.04539C26.4734 6.04539 25.9372 6.15789 25.3034 6.19539V6.19164ZM11.5034 6.19164C11.5409 5.56164 11.6534 5.02539 11.6534 5.02539C11.6534 5.02539 11.2859 5.06289 11.0984 5.06289C10.9147 5.06289 10.5434 5.02539 10.5434 5.02539C10.5434 5.02539 10.6559 5.56164 10.6934 6.19539C10.0597 6.15789 9.52344 6.04539 9.52344 6.04539C9.52344 6.04539 9.56094 6.32289 9.56094 6.60039C9.56094 6.87789 9.52344 7.15539 9.52344 7.15539C9.52344 7.15539 10.0597 7.04289 10.6934 7.00539C10.6559 7.63914 10.5434 8.17539 10.5434 8.17539C10.5434 8.17539 10.8209 8.13789 11.0984 8.13789C11.3759 8.13789 11.6534 8.17539 11.6534 8.17539C11.6534 8.17539 11.5409 7.63914 11.5034 7.00539C12.1372 7.04289 12.6734 7.15539 12.6734 7.15539C12.6734 7.15539 12.6359 6.78789 12.6359 6.60039C12.6359 6.41664 12.6734 6.04539 12.6734 6.04539C12.6734 6.04539 12.1372 6.15789 11.5072 6.19539L11.5034 6.19164ZM25.3034 16.9916C25.3409 16.3616 25.4534 15.8254 25.4534 15.8254C25.4534 15.8254 25.0859 15.8629 24.8984 15.8629C24.7147 15.8629 24.3434 15.8254 24.3434 15.8254C24.3434 15.8254 24.4559 16.3616 24.4934 16.9954C23.8597 16.9579 23.3234 16.8454 23.3234 16.8454C23.3234 16.8454 23.3609 17.1229 23.3609 17.4004C23.3609 17.6779 23.3234 17.9554 23.3234 17.9554C23.3234 17.9554 23.8597 17.8429 24.4934 17.8054C24.4559 18.4391 24.3434 18.9754 24.3434 18.9754C24.3434 18.9754 24.6209 18.9379 24.8984 18.9379C25.1759 18.9379 25.4534 18.9754 25.4534 18.9754C25.4534 18.9754 25.3409 18.4391 25.3034 17.8054C25.9372 17.8429 26.4734 17.9554 26.4734 17.9554C26.4734 17.9554 26.4359 17.5879 26.4359 17.4004C26.4359 17.2166 26.4734 16.8454 26.4734 16.8454C26.4734 16.8454 25.9372 16.9579 25.3034 16.9954V16.9916Z" fill="#FF0000"/>
</g>
</g>
</g>
<defs>
<filter id="filter0_d_336_26878" x="0" y="-2" width="36" height="36" filterUnits="userSpaceOnUse" color-interpolation-filters="sRGB">
<feFlood flood-opacity="0" result="BackgroundImageFix"/>
<feColorMatrix in="SourceAlpha" type="matrix" values="0 0 0 0 0 0 0 0 0 0 0 0 0 0 0 0 0 0 127 0" result="hardAlpha"/>
<feOffset dy="4"/>
<feGaussianBlur stdDeviation="3"/>
<feComposite in2="hardAlpha" operator="out"/>
<feColorMatrix type="matrix" values="0 0 0 0 0 0 0 0 0 0 0 0 0 0 0 0 0 0 0.16 0"/>
<feBlend mode="normal" in2="BackgroundImageFix" result="effect1_dropShadow_336_26878"/>
<feBlend mode="normal" in="SourceGraphic" in2="effect1_dropShadow_336_26878" result="shape"/>
</filter>
<clipPath id="clip0_336_26878">
<rect width="24" height="18" fill="white" transform="translate(6 3)"/>
</clipPath>
</defs>
</svg>
