<svg width="36" height="32" viewBox="0 0 36 32" fill="none" xmlns="http://www.w3.org/2000/svg">
<g filter="url(#filter0_d_336_14646)">
<g clip-path="url(#clip0_336_14646)">
<path d="M6 3H30V21.1132H6V3Z" fill="#012169"/>
<path d="M24.1602 9.80664L24.2352 9.88211L24.1602 9.80664Z" fill="#49497D"/>
<path d="M24.2344 9.80664L24.3094 9.88211L24.2344 9.80664Z" fill="#0E0E6E"/>
<path d="M24.0078 9.88281L24.0828 9.95828L24.0078 9.88281Z" fill="#262678"/>
<path d="M24.0859 9.88281L24.1609 9.95828L24.0859 9.88281Z" fill="#808067"/>
<path d="M24.3125 9.88281L24.3875 9.95828L24.3125 9.88281Z" fill="#58587B"/>
<path d="M21.4961 9.96289L21.5711 10.0384L21.4961 9.96289Z" fill="#0E0E6E"/>
<path d="M23.8594 9.96289L23.9344 10.0384L23.8594 9.96289Z" fill="#1B1B74"/>
<path d="M23.9336 9.96289L24.0086 10.0384L23.9336 9.96289Z" fill="#6E6C70"/>
<path d="M21.6296 10.0945C21.6296 12.0794 21.4046 14.3096 22.8671 15.8605C23.1671 16.1775 23.7446 16.9058 24.2359 16.8794C24.7496 16.8492 25.4134 16.0832 25.7059 15.7096C26.9809 14.019 26.7821 12.0039 26.8234 10.0416C26.2496 10.302 25.9609 10.3888 25.4584 10.3813C25.0834 10.419 24.5096 10.1737 24.1646 10.0039C23.9396 10.1548 23.6134 10.3398 23.0246 10.3586C22.3496 10.3888 22.1321 10.2718 21.6296 10.0945V10.0945Z" fill="#CCCC33"/>
<path d="M24.3906 9.96289L24.4656 10.0384L24.3906 9.96289Z" fill="#99994E"/>
<path d="M24.4648 9.96289L24.5398 10.0384L24.4648 9.96289Z" fill="#49497D"/>
<path d="M26.8242 9.96289L26.8992 10.0384L26.8242 9.96289Z" fill="#0E0E6E"/>
<path d="M21.5742 10.0371L21.6492 10.1126L21.5742 10.0371Z" fill="#A4A43D"/>
<path d="M21.6484 10.0371L21.7234 10.1126L21.6484 10.0371Z" fill="#6E6C70"/>
<path d="M21.7227 10.0371L21.7977 10.1126L21.7227 10.0371Z" fill="#3A3A7C"/>
<path d="M23.6992 10.0371L23.7742 10.1126L23.6992 10.0371Z" fill="#1B1B74"/>
<path d="M23.7734 10.0371L23.8484 10.1126L23.7734 10.0371Z" fill="#6E6C70"/>
<path d="M23.8594 10.0371L23.9344 10.1126L23.8594 10.0371Z" fill="#A4A43D"/>
<path d="M24.1602 10.0371L24.2352 10.1126L24.1602 10.0371Z" fill="#D0D045"/>
<path d="M24.4648 10.0371L24.5398 10.1126L24.4648 10.0371Z" fill="#A4A43D"/>
<path d="M24.5391 10.0371L24.6141 10.1126L24.5391 10.0371Z" fill="#8D8D5B"/>
<path d="M24.6172 10.0371L24.6922 10.1126L24.6172 10.0371Z" fill="#3A3A7C"/>
<path d="M26.5938 10.0371L26.6687 10.1126L26.5938 10.0371Z" fill="#262678"/>
<path d="M26.6719 10.0371L26.7469 10.1126L26.6719 10.0371Z" fill="#53527C"/>
<path d="M26.75 10.0371L26.825 10.1126L26.75 10.0371Z" fill="#8D8D5B"/>
<path d="M21.8789 10.1172L21.9539 10.1927L21.8789 10.1172Z" fill="#737370"/>
<path d="M21.9531 10.1172L22.0281 10.1927L21.9531 10.1172Z" fill="#53527C"/>
<path d="M22.0273 10.1172L22.1023 10.1927L22.0273 10.1172Z" fill="#1B1B74"/>
<path d="M23.5508 10.1172L23.6258 10.1927L23.5508 10.1172Z" fill="#262678"/>
<path d="M23.625 10.1172L23.7 10.1927L23.625 10.1172Z" fill="#6E6C70"/>
<path d="M23.6992 10.1172L23.7742 10.1927L23.6992 10.1172Z" fill="#A4A43D"/>
<path d="M24.0859 10.1172L24.1609 10.1927L24.0859 10.1172Z" fill="#E5E59D"/>
<path d="M21.7841 10.3135C21.7466 11.355 21.7766 12.5248 21.9341 13.6342C22.1178 14.2191 22.0916 14.5399 22.3578 14.887L26.0703 14.8568C26.2953 14.4908 26.4641 13.9361 26.4828 13.7135C26.6928 12.5927 26.6966 11.3512 26.7041 10.2418C26.2957 10.4677 25.8293 10.565 25.3653 10.521C24.9624 10.4966 24.5707 10.3777 24.2216 10.1738C23.8653 10.3851 23.7416 10.4833 23.1566 10.5097C22.6991 10.5323 22.3316 10.5701 21.7841 10.3135Z" fill="white"/>
<path d="M24.2344 10.1172L24.3094 10.1927L24.2344 10.1172Z" fill="#F2F1D7"/>
<path d="M24.3125 10.1172L24.3875 10.1927L24.3125 10.1172Z" fill="#D9D868"/>
<path d="M24.6172 10.1172L24.6922 10.1927L24.6172 10.1172Z" fill="#A4A43D"/>
<path d="M24.6953 10.1172L24.7703 10.1927L24.6953 10.1172Z" fill="#99994E"/>
<path d="M24.7695 10.1172L24.8445 10.1927L24.7695 10.1172Z" fill="#49497D"/>
<path d="M24.8438 10.1172L24.9187 10.1927L24.8438 10.1172Z" fill="#0E0E6E"/>
<path d="M26.3711 10.1172L26.4461 10.1927L26.3711 10.1172Z" fill="#3A3A7C"/>
<path d="M26.4453 10.1172L26.5203 10.1927L26.4453 10.1172Z" fill="#666677"/>
<path d="M26.5195 10.1172L26.5945 10.1927L26.5195 10.1172Z" fill="#99994E"/>
<path d="M26.5948 10.1172L26.6698 10.1927L26.5948 10.1172ZM22.0273 10.1927L22.1023 10.2681L22.0273 10.1927Z" fill="#A4A43D"/>
<path d="M22.1055 10.1934L22.1805 10.2688L22.1055 10.1934Z" fill="#99994E"/>
<path d="M22.1797 10.1934L22.2547 10.2688L22.1797 10.1934Z" fill="#6E6C70"/>
<path d="M22.2578 10.1934L22.3328 10.2688L22.2578 10.1934Z" fill="#49497D"/>
<path d="M22.332 10.1934L22.407 10.2688L22.332 10.1934ZM23.322 10.1934L23.397 10.2688L23.322 10.1934Z" fill="#1B1B74"/>
<path d="M23.3945 10.1934L23.4695 10.2688L23.3945 10.1934Z" fill="#53527C"/>
<path d="M23.4766 10.1934L23.5516 10.2688L23.4766 10.1934Z" fill="#8D8D5B"/>
<path d="M23.5508 10.1934L23.6258 10.2688L23.5508 10.1934Z" fill="#A4A43D"/>
<path d="M23.9336 10.1934L24.0086 10.2688L23.9336 10.1934Z" fill="#E5E59D"/>
<path d="M24.0078 10.1934L24.0828 10.2688L24.0078 10.1934Z" fill="#FBFAF2"/>
<path d="M24.3906 10.1934L24.4656 10.2688L24.3906 10.1934Z" fill="#F2F1D2"/>
<path d="M24.4648 10.1934L24.5398 10.2688L24.4648 10.1934Z" fill="#D9D868"/>
<path d="M24.8438 10.1934L24.9187 10.2688L24.8438 10.1934Z" fill="#A4A43D"/>
<path d="M24.9219 10.1934L24.9969 10.2688L24.9219 10.1934Z" fill="#6E6C70"/>
<path d="M24.9961 10.1934L25.0711 10.2688L24.9961 10.1934Z" fill="#3A3A7C"/>
<path d="M25.9883 10.1934L26.0633 10.2688L25.9883 10.1934Z" fill="#0E0E6E"/>
<path d="M26.0625 10.1934L26.1375 10.2688L26.0625 10.1934Z" fill="#32327B"/>
<path d="M26.1367 10.1934L26.2117 10.2688L26.1367 10.1934Z" fill="#58587B"/>
<path d="M26.2109 10.1934L26.2859 10.2688L26.2109 10.1934Z" fill="#808067"/>
<path d="M26.3438 10.2148L26.3932 10.2415L26.3438 10.2148Z" fill="#A4A43D"/>
<path d="M21.7227 10.2676L21.7977 10.343L21.7227 10.2676Z" fill="#DDDC7A"/>
<path d="M21.7969 10.2676L21.8719 10.343L21.7969 10.2676Z" fill="#D0D045"/>
<path d="M22.3828 10.291L22.4361 10.3176L22.3828 10.291Z" fill="#A4A43D"/>
<path d="M22.4844 10.2676L22.5594 10.343L22.4844 10.2676Z" fill="#808067"/>
<path d="M22.5586 10.2676L22.6336 10.343L22.5586 10.2676Z" fill="#666677"/>
<path d="M22.6406 10.2676L22.7156 10.343L22.6406 10.2676Z" fill="#58587B"/>
<path d="M22.7148 10.2676L22.7898 10.343L22.7148 10.2676Z" fill="#49497D"/>
<path d="M23.1719 10.2676L23.2469 10.343L23.1719 10.2676Z" fill="#737370"/>
<path d="M23.2461 10.2676L23.3211 10.343L23.2461 10.2676Z" fill="#99994E"/>
<path d="M23.3203 10.2676L23.3953 10.343L23.3203 10.2676Z" fill="#A4A43D"/>
<path d="M23.7734 10.2676L23.8484 10.343L23.7734 10.2676Z" fill="#E5E59D"/>
<path d="M23.8594 10.2676L23.9344 10.343L23.8594 10.2676Z" fill="#FBFAF2"/>
<path d="M24.5391 10.2676L24.6141 10.343L24.5391 10.2676Z" fill="#F2F1D2"/>
<path d="M24.6172 10.2676L24.6922 10.343L24.6172 10.2676Z" fill="#D9D868"/>
<path d="M25.0469 10.291L25.1001 10.3176L25.0507 10.291H25.0469Z" fill="#A4A43D"/>
<path d="M25.1523 10.2676L25.2273 10.343L25.1523 10.2676Z" fill="#808067"/>
<path d="M25.2266 10.2676L25.3016 10.343L25.2266 10.2676Z" fill="#666677"/>
<path d="M25.3008 10.2676L25.3758 10.343L25.3008 10.2676Z" fill="#58587B"/>
<path d="M25.3789 10.2676L25.4539 10.343L25.3789 10.2676Z" fill="#3A3A7C"/>
<path d="M25.7344 10.291L25.7876 10.3176L25.7344 10.291Z" fill="#58587B"/>
<path d="M25.832 10.2676L25.907 10.343L25.832 10.2676Z" fill="#737370"/>
<path d="M25.9102 10.2676L25.9852 10.343L25.9102 10.2676Z" fill="#99994E"/>
<path d="M25.9883 10.2676L26.0633 10.343L25.9883 10.2676Z" fill="#A4A43D"/>
<path d="M26.5938 10.2676L26.6687 10.343L26.5938 10.2676Z" fill="#DDDC7A"/>
<path d="M26.6719 10.2676L26.7469 10.343L26.6719 10.2676Z" fill="#D0D045"/>
<path d="M21.8789 10.3438L21.9539 10.4192L21.8789 10.3438Z" fill="#F2F1D7"/>
<path d="M21.9531 10.3438L22.0281 10.4192L21.9531 10.3438Z" fill="#E0DEA1"/>
<path d="M22.0273 10.3438L22.1023 10.4192L22.0273 10.3438Z" fill="#DDDC7A"/>
<path d="M23.5508 10.3438L23.6258 10.4192L23.5508 10.3438Z" fill="#D9D868"/>
<path d="M23.625 10.3438L23.7 10.4192L23.625 10.3438Z" fill="#E5E3AF"/>
<path d="M24.6953 10.3438L24.7703 10.4192L24.6953 10.3438Z" fill="#F6F6E4"/>
<path d="M24.7695 10.3438L24.8445 10.4192L24.7695 10.3438Z" fill="#E1E18C"/>
<path d="M26.2891 10.3438L26.3641 10.4192L26.2891 10.3438Z" fill="#D4D456"/>
<path d="M26.3711 10.3438L26.4461 10.4192L26.3711 10.3438Z" fill="#E1E18C"/>
<path d="M26.4453 10.3438L26.5203 10.4192L26.4453 10.3438Z" fill="#EEEDC1"/>
<path d="M22.1797 10.418L22.2547 10.4934L22.1797 10.418Z" fill="#F2F1D2"/>
<path d="M22.2578 10.418L22.3328 10.4934L22.2578 10.418Z" fill="#E0DEA1"/>
<path d="M22.332 10.418L22.407 10.4934L22.332 10.418Z" fill="#DDDC7A"/>
<path d="M22.4102 10.418L22.4852 10.4934L22.4102 10.418Z" fill="#D0D045"/>
<path d="M23.3203 10.418L23.3953 10.4934L23.3203 10.418Z" fill="#DDDC7A"/>
<path d="M23.3945 10.418L23.4695 10.4934L23.3945 10.418Z" fill="#E5E3AF"/>
<path d="M23.4766 10.418L23.5516 10.4934L23.4766 10.418Z" fill="#F6F6E4"/>
<path d="M24.9219 10.418L24.9969 10.4934L24.9219 10.418Z" fill="#EEEDC1"/>
<path d="M24.9961 10.418L25.0711 10.4934L24.9961 10.418Z" fill="#E1E18C"/>
<path d="M25.0742 10.418L25.1492 10.4934L25.0742 10.418Z" fill="#D4D456"/>
<path d="M25.9883 10.418L26.0633 10.4934L25.9883 10.418Z" fill="#D9D868"/>
<path d="M26.0625 10.418L26.1375 10.4934L26.0625 10.418Z" fill="#E1E18C"/>
<path d="M26.1367 10.418L26.2117 10.4934L26.1367 10.418Z" fill="#EEEDC1"/>
<path d="M26.2109 10.418L26.2859 10.4934L26.2109 10.418Z" fill="#F6F6E4"/>
<path d="M22.5586 10.4941L22.6336 10.5696L22.5586 10.4941Z" fill="#F2F1D7"/>
<path d="M22.6406 10.4941L22.7156 10.5696L22.6406 10.4941Z" fill="#F2F1D2"/>
<path d="M22.7148 10.4941L22.7898 10.5696L22.7148 10.4941Z" fill="#EEEDC1"/>
<path d="M23.0703 10.5215L23.1198 10.5481L23.0703 10.5215Z" fill="#F2F1D2"/>
<path d="M23.1719 10.4941L23.2469 10.5696L23.1719 10.4941Z" fill="#FBFAF2"/>
<path d="M23.5508 10.4941L23.7008 10.6451V10.4941H23.5508Z" fill="#FEF8F1"/>
<path d="M25.2266 10.4941L25.3016 10.5696L25.2266 10.4941Z" fill="#F2F1D7"/>
<path d="M25.3008 10.4941L25.3758 10.5696L25.3008 10.4941Z" fill="#F2F1D2"/>
<path d="M25.3789 10.4941L25.4539 10.5696L25.3789 10.4941Z" fill="#E5E3AF"/>
<path d="M25.5077 10.5215L25.5572 10.5481L25.5039 10.5215H25.5077Z" fill="#E5E59D"/>
<path d="M25.6094 10.4941L25.6844 10.5696L25.6094 10.4941Z" fill="#E0DEA1"/>
<path d="M25.7344 10.5215L25.7876 10.5481L25.7344 10.5215Z" fill="#F2F1D2"/>
<path d="M25.832 10.4941L25.907 10.5696L25.832 10.4941Z" fill="#FBFAF2"/>
<path d="M23.3945 10.5742L23.4695 10.6497L23.3945 10.5742Z" fill="#FEF8F1"/>
<path d="M23.4766 10.5742L23.5516 10.6497L23.4766 10.5742Z" fill="#FBBE66"/>
<path d="M23.3945 10.6484L23.4695 10.7239L23.3945 10.6484Z" fill="#FBC477"/>
<path d="M23.5508 10.6484L23.6258 10.7239L23.5508 10.6484Z" fill="#FCB144"/>
<path d="M23.3945 10.7285L23.4695 10.804L23.3945 10.7285Z" fill="#FE9F11"/>
<path d="M23.5508 10.7285L23.6258 10.804L23.5508 10.7285Z" fill="#FEA522"/>
<path d="M23.3203 10.8047L23.3953 10.8802L23.3203 10.8047ZM23.6278 10.8047L23.7028 10.8802L23.6278 10.8047Z" fill="#FAE3C9"/>
<path d="M24.0078 10.8047L24.0828 10.8802L24.0078 10.8047Z" fill="#FBEAD6"/>
<path d="M24.0859 10.8047L24.1609 10.8802L24.0859 10.8047Z" fill="#F9D6AA"/>
<path d="M24.3906 10.8047L24.4656 10.8802L24.3906 10.8047Z" fill="#FAE3C9"/>
<path d="M24.4648 10.8047L24.5398 10.8802L24.4648 10.8047Z" fill="#FEF8F1"/>
<path d="M23.3203 10.8789L23.3953 10.9544L23.3203 10.8789Z" fill="#F9D099"/>
<path d="M23.625 10.8789L23.7 10.9544L23.625 10.8789Z" fill="#FDAB33"/>
<path d="M23.7734 10.8789L23.8484 10.9544L23.7734 10.8789Z" fill="#FCF1E4"/>
<path d="M23.8594 10.8789L23.9344 10.9544L23.8594 10.8789Z" fill="#FBC477"/>
<path d="M23.9336 10.8789L24.0086 10.9544L23.9336 10.8789Z" fill="#FEA522"/>
<path d="M24.5391 10.8789L24.6141 10.9544L24.5391 10.8789Z" fill="#FCB755"/>
<path d="M24.6172 10.8789L24.6922 10.9544L24.6172 10.8789Z" fill="#F9D6AA"/>
<path d="M23.3203 10.959L23.3953 11.0345L23.3203 10.959Z" fill="#FACA88"/>
<path d="M23.6992 10.959L23.7742 11.0345L23.6992 10.959ZM24.693 10.959L24.768 11.0345L24.693 10.959Z" fill="#FEA522"/>
<path d="M24.7695 10.959L24.8445 11.0345L24.7695 10.959Z" fill="#F8DCBB"/>
<path d="M21.7227 11.0332L21.7977 11.1087L21.7227 11.0332Z" fill="#F6F6E4"/>
<path d="M23.3203 11.0332L23.3953 11.1087L23.3203 11.0332Z" fill="#FBC477"/>
<path d="M24.8438 11.0332L24.9187 11.1087L24.8438 11.0332Z" fill="#FBBE66"/>
<path d="M24.9219 11.0332L24.9969 11.1087L24.9219 11.0332Z" fill="#F8DCBB"/>
<path d="M23.3203 11.1094L23.3953 11.1848L23.3203 11.1094Z" fill="#FACA88"/>
<path d="M25.0742 11.1094L25.1492 11.1848L25.0742 11.1094Z" fill="#FCB755"/>
<path d="M25.1523 11.1094L25.2273 11.1848L25.1523 11.1094Z" fill="#F8DCBB"/>
<path d="M23.2461 11.1895L23.3211 11.2649L23.2461 11.1895Z" fill="#FEF8F1"/>
<path d="M23.3203 11.1895L23.3953 11.2649L23.3203 11.1895Z" fill="#FE9F11"/>
<path d="M25.4531 11.1895L25.5281 11.2649L25.4531 11.1895Z" fill="#FDAB33"/>
<path d="M25.5352 11.1895L25.6102 11.2649L25.5352 11.1895Z" fill="#FCB144"/>
<path d="M25.6094 11.1895L25.6844 11.2649L25.6094 11.1895Z" fill="#FBC477"/>
<path d="M25.6836 11.1895L25.8336 11.3404L25.6836 11.1895Z" fill="#F9D6AA"/>
<path d="M25.7578 11.1895L25.8328 11.2649L25.7578 11.1895Z" fill="#FEF8F1"/>
<path d="M23.2461 11.2637L23.3211 11.3391L23.2461 11.2637Z" fill="#FCB144"/>
<path d="M24.3125 11.2637L24.3875 11.3391L24.3125 11.2637Z" fill="#FDAB33"/>
<path d="M24.3906 11.2637L24.4656 11.3391L24.3906 11.2637ZM24.6906 11.2637L24.7656 11.3391L24.6906 11.2637Z" fill="#FBC477"/>
<path d="M24.7695 11.2637L24.8445 11.3391L24.7695 11.2637Z" fill="#FEA522"/>
<path d="M23.1719 11.3398L23.2469 11.4153L23.1719 11.3398Z" fill="#FAE3C9"/>
<path d="M24.1602 11.3398L24.2352 11.4153L24.1602 11.3398Z" fill="#FCB144"/>
<path d="M24.2344 11.3398L24.3094 11.4153L24.2344 11.3398Z" fill="#FAE3C9"/>
<path d="M24.8438 11.3398L24.9187 11.4153L24.8438 11.3398Z" fill="#F8DCBB"/>
<path d="M24.9219 11.3398L24.9969 11.4153L24.9219 11.3398Z" fill="#FDAB33"/>
<path d="M25.3789 11.3398L25.4539 11.4153L25.3789 11.3398Z" fill="#FE9F11"/>
<path d="M25.4531 11.3398L25.5281 11.4153L25.4531 11.3398Z" fill="#FCB755"/>
<path d="M25.5352 11.3398L25.6102 11.4153L25.5352 11.3398Z" fill="#F9D099"/>
<path d="M25.6094 11.3398L25.6844 11.4153L25.6094 11.3398Z" fill="#FBEAD6"/>
<path d="M23.1719 11.416L23.2469 11.4915L23.1719 11.416Z" fill="#FCB144"/>
<path d="M24.0859 11.416L24.1609 11.4915L24.0859 11.416Z" fill="#FBBE66"/>
<path d="M24.9961 11.416L25.0711 11.4915L24.9961 11.416Z" fill="#F9D099"/>
<path d="M25.3008 11.416L25.3758 11.4915L25.3008 11.416Z" fill="#FBEAD6"/>
<path d="M23.0977 11.4902L23.1727 11.5657L23.0977 11.4902Z" fill="#FCF1E4"/>
<path d="M24.0078 11.4902L24.0828 11.5657L24.0078 11.4902Z" fill="#FBBE66"/>
<path d="M25.0742 11.4902L25.1492 11.5657L25.0742 11.4902Z" fill="#F9D099"/>
<path d="M25.3008 11.4902L25.3758 11.5657L25.3008 11.4902Z" fill="#FAE3C9"/>
<path d="M23.0977 11.5664L23.1727 11.6419L23.0977 11.5664Z" fill="#FBC477"/>
<path d="M23.9336 11.5664L24.0086 11.6419L23.9336 11.5664ZM25.1523 11.5664L25.2273 11.6419L25.1523 11.5664Z" fill="#FCB144"/>
<path d="M25.3008 11.5664L25.3758 11.6419L25.3008 11.5664Z" fill="#FBBE66"/>
<path d="M21.7227 11.6406L21.7977 11.7161L21.7227 11.6406Z" fill="#F6F6E4"/>
<path d="M23.0977 11.6406L23.1727 11.7161L23.0977 11.6406Z" fill="#FEA522"/>
<path d="M23.9336 11.6406L24.0086 11.7161L23.9336 11.6406Z" fill="#FBEAD6"/>
<path d="M25.1523 11.6406L25.2273 11.7161L25.1523 11.6406Z" fill="#FCF1E4"/>
<path d="M25.3789 11.6406L25.4539 11.7161L25.3789 11.6406Z" fill="#FEF8F1"/>
<path d="M23.0195 11.7246L23.0945 11.8001L23.0195 11.7246Z" fill="#FCF1E4"/>
<path d="M23.8594 11.7246L23.9344 11.8001L23.8594 11.7246Z" fill="#FBBE66"/>
<path d="M25.2266 11.7246L25.3016 11.8001L25.2266 11.7246Z" fill="#FACA88"/>
<path d="M25.3789 11.7246L25.4539 11.8001L25.3789 11.7246Z" fill="#F9D099"/>
<path d="M23.0195 11.8008L23.0945 11.8763L23.0195 11.8008Z" fill="#F9D6AA"/>
<path d="M23.8594 11.8008L23.9344 11.8763L23.8594 11.8008Z" fill="#FCF1E4"/>
<path d="M24.2344 11.8008L24.3094 11.8763L24.2344 11.8008Z" fill="#FAE3C9"/>
<path d="M24.3125 11.8008L24.3875 11.8763L24.3125 11.8008Z" fill="#FEA522"/>
<path d="M24.3906 11.8008L24.4656 11.8763L24.3906 11.8008Z" fill="#FCB144"/>
<path d="M24.4648 11.8008L24.5398 11.8763L24.4648 11.8008Z" fill="#F9D6AA"/>
<path d="M25.2266 11.8008L25.3016 11.8763L25.2266 11.8008Z" fill="#FEF8F1"/>
<path d="M25.3008 11.8008L25.3758 11.8763L25.3008 11.8008Z" fill="#FEA522"/>
<path d="M25.3789 11.8008L25.4539 11.8763L25.3789 11.8008Z" fill="#FDAB33"/>
<path d="M23.0202 11.875L22.9414 12.1014L23.0164 11.875H23.0202Z" fill="#FACA88"/>
<path d="M23.7734 11.875L23.8484 11.9505L23.7734 11.875Z" fill="#FEA522"/>
<path d="M23.8594 11.875L23.9344 11.9505L23.8594 11.875Z" fill="#FEF8F1"/>
<path d="M24.2344 11.875L24.3094 11.9505L24.2344 11.875Z" fill="#F9D099"/>
<path d="M24.5391 11.875L24.6141 11.9505L24.5391 11.875Z" fill="#FDAB33"/>
<path d="M24.6172 11.875L24.6922 11.9505L24.6172 11.875Z" fill="#FAE3C9"/>
<path d="M25.3008 11.875L25.3758 11.9505L25.3008 11.875Z" fill="#F8DCBB"/>
<path d="M25.3789 11.875L25.4539 11.9505L25.3789 11.875Z" fill="#FF9900"/>
<path d="M25.4805 11.9277L25.5033 11.9772L25.4805 11.9277Z" fill="#FBEAD6"/>
<path d="M23.9336 11.9512L24.0086 12.0266L23.9336 11.9512Z" fill="#FEA522"/>
<path d="M24.0078 11.9512L24.0828 12.0266L24.0078 11.9512Z" fill="#FBBE66"/>
<path d="M24.0859 11.9512L24.1609 12.0266L24.0859 11.9512Z" fill="#FACA88"/>
<path d="M24.1602 11.9512L24.2352 12.0266L24.1602 11.9512Z" fill="#FCB144"/>
<path d="M24.2344 11.9512L24.3094 12.0266L24.2344 11.9512Z" fill="#FAE3C9"/>
<path d="M24.3125 11.9512L24.3875 12.0266L24.3125 11.9512Z" fill="#FE9F11"/>
<path d="M24.6953 11.9512L24.7703 12.0266L24.6953 11.9512Z" fill="#FDAB33"/>
<path d="M24.7695 11.9512L24.8445 12.0266L24.7695 11.9512Z" fill="#FBC477"/>
<path d="M24.8438 11.9512L24.9187 12.0266L24.8438 11.9512Z" fill="#FACA88"/>
<path d="M24.9219 11.9512L24.9969 12.0266L24.9219 11.9512Z" fill="#F9D6AA"/>
<path d="M25.0469 11.9766L25.1001 12.0032L25.0507 11.9766H25.0469Z" fill="#FAE3C9"/>
<path d="M25.1523 11.9512L25.2273 12.0266L25.1523 11.9512Z" fill="#FEF8F1"/>
<path d="M25.3789 11.9512L25.4539 12.0266L25.3789 11.9512Z" fill="#FBC477"/>
<path d="M22.1055 12.0293L22.1805 12.1048L22.1055 12.0293Z" fill="#FEF8F1"/>
<path d="M22.1797 12.0293L22.2547 12.1048L22.1797 12.0293Z" fill="#FCF1E4"/>
<path d="M24.1602 12.0293L24.2352 12.1048L24.1602 12.0293Z" fill="#FCB755"/>
<path d="M24.3125 12.0293L24.3875 12.1048L24.3125 12.0293Z" fill="#FBEAD6"/>
<path d="M24.3906 12.0293L24.4656 12.1048L24.3906 12.0293Z" fill="#FEA522"/>
<path d="M24.9961 12.0293L25.0711 12.1048L24.9961 12.0293Z" fill="#FE9F11"/>
<path d="M25.0711 12.0293L24.9961 12.1802L25.0711 12.0293Z" fill="#FCB144"/>
<path d="M25.2266 12.0293L25.3016 12.1048L25.2266 12.0293Z" fill="#FE9F11"/>
<path d="M25.3008 12.0293L25.3758 12.1048L25.3008 12.0293Z" fill="#FBBE66"/>
<path d="M25.3789 12.0293L25.4539 12.1048L25.3789 12.0293Z" fill="#FCF1E4"/>
<path d="M22.1055 12.1055L22.1805 12.1809L22.1055 12.1055Z" fill="#FAE3C9"/>
<path d="M22.1797 12.1055L22.3297 12.2564L22.1797 12.1055Z" fill="#FE9F11"/>
<path d="M22.2578 12.1055L22.3328 12.1809L22.2578 12.1055ZM22.9441 12.1055L23.0191 12.1809L22.9441 12.1055Z" fill="#FBEAD6"/>
<path d="M23.0195 12.1055L23.0945 12.1809L23.0195 12.1055Z" fill="#FAE3C9"/>
<path d="M23.6992 12.1055L23.7742 12.1809L23.6992 12.1055Z" fill="#FE9F11"/>
<path d="M23.7734 12.1055L23.8484 12.1809L23.7734 12.1055Z" fill="#FBC477"/>
<path d="M23.8594 12.1055L23.9344 12.1809L23.8594 12.1055Z" fill="#FEA522"/>
<path d="M24.0859 12.1055L24.1609 12.1809L24.0859 12.1055Z" fill="#FBC477"/>
<path d="M24.1602 12.1055L24.2352 12.1809L24.1602 12.1055Z" fill="#FEF8F1"/>
<path d="M24.4648 12.1055L24.5398 12.1809L24.4648 12.1055Z" fill="#FBC477"/>
<path d="M25.0742 12.1055L25.1492 12.1809L25.0742 12.1055Z" fill="white"/>
<path d="M25.1523 12.1055L25.2273 12.1809L25.1523 12.1055Z" fill="#FDAB33"/>
<path d="M25.4531 12.1055L25.5281 12.1809L25.4531 12.1055Z" fill="#FBC477"/>
<path d="M22.1055 12.1816L22.1805 12.2571L22.1055 12.1816Z" fill="#FEF8F1"/>
<path d="M22.332 12.1816L22.407 12.2571L22.332 12.1816Z" fill="#FBEAD6"/>
<path d="M22.7148 12.1816L22.7898 12.2571L22.7148 12.1816Z" fill="#F9D6AA"/>
<path d="M23.0977 12.1816L23.1727 12.2571L23.0977 12.1816Z" fill="#FE9F11"/>
<path d="M23.2188 12.207L23.272 12.2337L23.2188 12.207Z" fill="#F9D6AA"/>
<path d="M23.6992 12.1816L23.7742 12.2571L23.6992 12.1816Z" fill="#F8DCBB"/>
<path d="M23.9336 12.1816L24.0086 12.2571L23.9336 12.1816Z" fill="#FCF1E4"/>
<path d="M24.5391 12.1816L24.6141 12.2571L24.5391 12.1816Z" fill="#F9D6AA"/>
<path d="M25.0742 12.1816L25.1492 12.2571L25.0742 12.1816Z" fill="#FDAB33"/>
<path d="M25.5352 12.1816L25.6102 12.2571L25.5352 12.1816Z" fill="#FCB755"/>
<path d="M25.6094 12.1816L25.6844 12.2571L25.6094 12.1816Z" fill="#FEF8F1"/>
<path d="M21.4961 12.2598L21.5711 12.3352L21.4961 12.2598Z" fill="#53527C"/>
<path d="M22.1797 12.2598L22.2547 12.3352L22.1797 12.2598Z" fill="#FCB755"/>
<path d="M22.332 12.2598L22.407 12.3352L22.332 12.2598Z" fill="#FEA522"/>
<path d="M22.6406 12.2598L22.7156 12.3352L22.6406 12.2598Z" fill="#FBEAD6"/>
<path d="M22.7891 12.2598L22.8641 12.3352L22.7891 12.2598Z" fill="#FE9F11"/>
<path d="M22.8672 12.2598L22.9422 12.3352L22.8672 12.2598Z" fill="#FCF1E4"/>
<path d="M23.0977 12.2598L23.1727 12.3352L23.0977 12.2598Z" fill="#FBBE66"/>
<path d="M23.1719 12.2598L23.2469 12.3352L23.1719 12.2598Z" fill="#FBC477"/>
<path d="M23.2461 12.2598L23.3211 12.3352L23.2461 12.2598Z" fill="#FBBE66"/>
<path d="M23.625 12.2598L23.7 12.3352L23.625 12.2598Z" fill="#FEA522"/>
<path d="M24.6172 12.2598L24.6922 12.3352L24.6172 12.2598Z" fill="#F9D6AA"/>
<path d="M25.6094 12.2598L25.6844 12.3352L25.6094 12.2598Z" fill="#FCB144"/>
<path d="M26.8242 12.2598L26.8992 12.3352L26.8242 12.2598Z" fill="#8D8D5B"/>
<path d="M21.7227 12.3359L21.7977 12.4114L21.7227 12.3359Z" fill="#E5E3AF"/>
<path d="M22.1797 12.3359L22.2547 12.4114L22.1797 12.3359Z" fill="#F8DCBB"/>
<path d="M22.4102 12.3359L22.4852 12.4114L22.4102 12.3359Z" fill="#FDAB33"/>
<path d="M22.6406 12.3359L22.7156 12.4114L22.6406 12.3359Z" fill="#FE9F11"/>
<path d="M22.7891 12.3359L22.8641 12.4114L22.7891 12.3359Z" fill="#FACA88"/>
<path d="M23.0977 12.3359L23.1727 12.4114L23.0977 12.3359Z" fill="#FCF1E4"/>
<path d="M23.625 12.3359L23.7 12.4114L23.625 12.3359ZM24.6937 12.3359L24.7687 12.4114L24.6937 12.3359Z" fill="#F9D099"/>
<path d="M25.6836 12.3359L25.7586 12.4114L25.6836 12.3359Z" fill="#FBBE66"/>
<path d="M22.2578 12.4121L22.3328 12.4876L22.2578 12.4121Z" fill="#FEA522"/>
<path d="M22.4844 12.4121L22.5594 12.4876L22.4844 12.4121Z" fill="#FDAB33"/>
<path d="M22.5586 12.4121L22.6336 12.4876L22.5586 12.4121Z" fill="#FEA522"/>
<path d="M22.7148 12.4121L22.7898 12.4876L22.7148 12.4121Z" fill="#FE9F11"/>
<path d="M22.7891 12.4121L22.8641 12.4876L22.7891 12.4121Z" fill="#FEF8F1"/>
<path d="M23.1719 12.4121L23.2469 12.4876L23.1719 12.4121Z" fill="#FBBE66"/>
<path d="M23.625 12.4121L23.7 12.4876L23.625 12.4121Z" fill="#FEF8F1"/>
<path d="M24.7695 12.4121L24.8445 12.4876L24.7695 12.4121Z" fill="#FBBE66"/>
<path d="M25.7578 12.4121L25.8328 12.4876L25.7578 12.4121Z" fill="#F9D099"/>
<path d="M22.2578 12.4902L22.3328 12.5657L22.2578 12.4902Z" fill="#F9D6AA"/>
<path d="M22.7148 12.4902L22.7898 12.5657L22.7148 12.4902Z" fill="#F9D099"/>
<path d="M23.1719 12.4902L23.2469 12.5657L23.1719 12.4902Z" fill="#FCF1E4"/>
<path d="M23.5508 12.4902L23.6258 12.5657L23.5508 12.4902ZM24.8445 12.4902L24.9195 12.5657L24.8445 12.4902Z" fill="#FDAB33"/>
<path d="M25.832 12.4902L25.907 12.5657L25.832 12.4902Z" fill="#FBEAD6"/>
<path d="M22.332 12.5664L22.407 12.6419L22.332 12.5664Z" fill="#FEA522"/>
<path d="M22.6406 12.5664L22.7156 12.6419L22.6406 12.5664Z" fill="#FE9F11"/>
<path d="M23.2461 12.5664L23.3211 12.6419L23.2461 12.5664Z" fill="#FCB144"/>
<path d="M23.5508 12.5664L23.6258 12.6419L23.5508 12.5664Z" fill="#FACA88"/>
<path d="M24.8438 12.5664L24.9187 12.6419L24.8438 12.5664Z" fill="#F8DCBB"/>
<path d="M25.832 12.5664L25.907 12.6419L25.832 12.5664Z" fill="#FCB144"/>
<path d="M21.7227 12.6445L21.7977 12.72L21.7227 12.6445Z" fill="#D3D079"/>
<path d="M22.332 12.6445L22.407 12.72L22.332 12.6445ZM23.247 12.6445L23.322 12.72L23.247 12.6445Z" fill="#FACA88"/>
<path d="M23.5508 12.6445L23.6258 12.72L23.5508 12.6445M24.8445 12.6445L24.9195 12.72L24.8445 12.6445Z" fill="#FAE3C9"/>
<path d="M25.9102 12.6445L25.9852 12.72L25.9102 12.6445V12.6445Z" fill="#F8DCBB"/>
<path d="M26.5938 12.6445L26.6687 12.72L26.5938 12.6445Z" fill="#F2F1D7"/>
<path d="M26.8516 12.6953L26.8782 12.7448L26.8516 12.6953Z" fill="#58587B"/>
<path d="M21.7461 12.7695L21.7765 12.8228L21.7499 12.7695H21.7461Z" fill="#D9D868"/>
<path d="M22.332 12.7207L22.407 12.7962L22.332 12.7207Z" fill="#F8DCBB"/>
<path d="M24.7695 12.7207L24.8445 12.7962L24.7695 12.7207Z" fill="#F9D6AA"/>
<path d="M24.8438 12.7207L24.9187 12.7962L24.8438 12.7207Z" fill="#FE9F11"/>
<path d="M25.9102 12.7207L25.9852 12.7962L25.9102 12.7207Z" fill="#FCB144"/>
<path d="M26.6211 12.7695L26.6477 12.8228L26.6211 12.7695Z" fill="#F2F1D2"/>
<path d="M22.332 12.7969L22.407 12.8723L22.332 12.7969Z" fill="#FCF1E4"/>
<path d="M24.6953 12.7969L24.7703 12.8723L24.6953 12.7969Z" fill="#FEF8F1"/>
<path d="M24.7695 12.7969L24.8445 12.8723L24.7695 12.7969Z" fill="#FE9F11"/>
<path d="M24.9969 12.7969L24.9219 12.9478L24.9969 12.7969Z" fill="#FDAB33"/>
<path d="M25.0742 12.7969L25.1492 12.8723L25.0742 12.7969Z" fill="#FCB755"/>
<path d="M25.9883 12.7969L26.0633 12.8723L25.9883 12.7969Z" fill="#FEA522"/>
<path d="M26.0625 12.7969L26.1375 12.8723L26.0625 12.7969Z" fill="#F9D099"/>
<path d="M26.8242 12.7969L26.8992 12.8723L26.8242 12.7969Z" fill="#53527C"/>
<path d="M21.5977 12.9238L21.6243 12.9733L21.5977 12.9238Z" fill="#808067"/>
<path d="M22.4102 12.8711L22.4852 12.9466L22.4102 12.8711ZM22.6352 12.8711L22.7102 12.9466L22.6352 12.8711Z" fill="#FEA522"/>
<path d="M23.4766 12.8711L23.5516 12.9466L23.4766 12.8711Z" fill="#FE9F11"/>
<path d="M24.6953 12.8711L24.7703 12.9466L24.6953 12.8711Z" fill="#FAE3C9"/>
<path d="M24.9961 12.8711L25.0711 12.9466L24.9961 12.8711Z" fill="#FEF8F1"/>
<path d="M25.1523 12.8711L25.2273 12.9466L25.1523 12.8711Z" fill="#FCB144"/>
<path d="M26.1367 12.8711L26.2117 12.9466L26.1367 12.8711Z" fill="#FCB755"/>
<path d="M26.2109 12.8711L26.3609 13.022L26.2109 12.8711Z" fill="#FEF8F1"/>
<path d="M26.6211 12.9238L26.6477 12.9733L26.6211 12.9238Z" fill="#E5E59D"/>
<path d="M26.8516 12.9238L26.8782 12.9733L26.8516 12.9238Z" fill="#32327B"/>
<path d="M22.4375 13L22.4603 13.0533L22.4375 13Z" fill="#FCB755"/>
<path d="M22.7148 12.9473L22.7898 13.0227L22.7148 12.9473Z" fill="#FEF8F1"/>
<path d="M23.4766 12.9473L23.5516 13.0227L23.4766 12.9473Z" fill="#FBBE66"/>
<path d="M24.6953 12.9473L24.7703 13.0227L24.6953 12.9473Z" fill="#FBEAD6"/>
<path d="M24.8438 12.9473L24.9187 13.0227L24.8438 12.9473Z" fill="#FE9F11"/>
<path d="M24.9219 12.9473L24.9969 13.0227L24.9219 12.9473Z" fill="#FCF1E4"/>
<path d="M25.1523 12.9473L25.2273 13.0227L25.1523 12.9473Z" fill="#FBEAD6"/>
<path d="M26.2109 12.9473L26.2859 13.0227L26.2109 12.9473Z" fill="#FDAB33"/>
<path d="M21.5742 13.0234L21.6492 13.0989L21.5742 13.0234Z" fill="#666677"/>
<path d="M21.7969 13.0234L21.8719 13.0989L21.7969 13.0234Z" fill="#F6F6E4"/>
<path d="M22.7148 13.0234L22.7898 13.0989L22.7148 13.0234Z" fill="#F9D6AA"/>
<path d="M23.3203 13.0234L23.3953 13.0989L23.3203 13.0234Z" fill="#FDAB33"/>
<path d="M23.3945 13.0234L23.4695 13.0989L23.3945 13.0234Z" fill="#FE9F11"/>
<path d="M23.4766 13.0234L23.5516 13.0989L23.4766 13.0234Z" fill="#FCF1E4"/>
<path d="M24.7695 13.0234L24.8445 13.0989L24.7695 13.0234Z" fill="#FEA522"/>
<path d="M24.8438 13.0234L24.9188 13.0989L24.8438 13.0234ZM25.2263 13.0234L25.3013 13.0989L25.2263 13.0234Z" fill="#FACA88"/>
<path d="M26.2891 13.0234L26.3641 13.0989L26.2891 13.0234Z" fill="#FCB144"/>
<path d="M26.5938 13.0234L26.6687 13.0989L26.5938 13.0234Z" fill="#DDDC7A"/>
<path d="M21.5742 13.1016L21.6492 13.177L21.5742 13.1016Z" fill="#58587B"/>
<path d="M21.7969 13.1016L21.8719 13.177L21.7969 13.1016Z" fill="#F2F1D2"/>
<path d="M22.4375 13.1504L22.4603 13.2037L22.4375 13.1504Z" fill="#FCB144"/>
<path d="M22.7148 13.1016L22.7898 13.177L22.7148 13.1016Z" fill="#FEA522"/>
<path d="M23.4766 13.1016L23.5516 13.177L23.4766 13.1016Z" fill="#FEF8F1"/>
<path d="M23.5508 13.1016L23.6258 13.177L23.5508 13.1016Z" fill="#FEA522"/>
<path d="M23.6992 13.1016L23.7742 13.177L23.6992 13.1016Z" fill="#FCB144"/>
<path d="M23.7734 13.1016L23.8484 13.177L23.7734 13.1016Z" fill="#FBEAD6"/>
<path d="M24.7695 13.1016L24.8445 13.177L24.7695 13.1016Z" fill="#F8DCBB"/>
<path d="M24.8438 13.1016L24.9187 13.177L24.8438 13.1016Z" fill="#FCF1E4"/>
<path d="M25.2266 13.1016L25.3016 13.177L25.2266 13.1016Z" fill="#FEF8F1"/>
<path d="M25.3008 13.1016L25.3758 13.177L25.3008 13.1016Z" fill="#FE9F11"/>
<path d="M26.3711 13.1016L26.4461 13.177L26.3711 13.1016Z" fill="#FBEAD6"/>
<path d="M26.5938 13.1016L26.6687 13.177L26.5938 13.1016Z" fill="#D9D868"/>
<path d="M21.5742 13.1777L21.6492 13.2532L21.5742 13.1777Z" fill="#3A3A7C"/>
<path d="M21.7969 13.1777L21.8719 13.2532L21.7969 13.1777Z" fill="#E5E3AF"/>
<path d="M22.7891 13.1777L22.8641 13.2532L22.7891 13.1777Z" fill="#FACA88"/>
<path d="M23.5508 13.1777L23.6258 13.2532L23.5508 13.1777Z" fill="#FBEAD6"/>
<path d="M23.7734 13.1777L23.8484 13.2532L23.7734 13.1777Z" fill="#FE9F11"/>
<path d="M23.8594 13.1777L23.9344 13.2532L23.8594 13.1777Z" fill="#FCF1E4"/>
<path d="M24.6953 13.1777L24.7703 13.2532L24.6953 13.1777Z" fill="#FBEAD6"/>
<path d="M24.7695 13.1777L24.8445 13.2532L24.7695 13.1777Z" fill="#FAE3C9"/>
<path d="M24.8438 13.1777L24.9187 13.2532L24.8438 13.1777Z" fill="#FBEAD6"/>
<path d="M25.3008 13.1777L25.3758 13.2532L25.3008 13.1777ZM25.912 13.1777L25.987 13.2532L25.912 13.1777Z" fill="#FBBE66"/>
<path d="M25.9883 13.1777L26.0633 13.2532L25.9883 13.1777Z" fill="#FCF1E4"/>
<path d="M26.0625 13.1777L26.1375 13.2532L26.0625 13.1777Z" fill="#FEF8F1"/>
<path d="M26.1367 13.1777L26.2117 13.2532L26.1367 13.1777Z" fill="#F8DCBB"/>
<path d="M26.2109 13.1777L26.2859 13.2532L26.2109 13.1777Z" fill="#FCB755"/>
<path d="M26.3711 13.1777L26.4461 13.2532L26.3711 13.1777Z" fill="#FAE3C9"/>
<path d="M26.75 13.1777L26.825 13.2532L26.75 13.1777Z" fill="#808067"/>
<path d="M21.5742 13.2559L21.6492 13.3313L21.5742 13.2559Z" fill="#32327B"/>
<path d="M21.6719 13.3027L21.6983 13.3593L21.6756 13.3065L21.6719 13.3027Z" fill="#A4A43D"/>
<path d="M21.7969 13.2559L21.8719 13.3313L21.7969 13.2559Z" fill="#E5E59D"/>
<path d="M22.4102 13.2559L22.4852 13.3313L22.4102 13.2559Z" fill="#FBC477"/>
<path d="M22.8672 13.2559L22.9422 13.3313L22.8672 13.2559Z" fill="#F9D6AA"/>
<path d="M23.625 13.2559L23.7 13.3313L23.625 13.2559Z" fill="#FBBE66"/>
<path d="M23.8594 13.2559L23.9344 13.3313L23.8594 13.2559Z" fill="#F9D099"/>
<path d="M24.5391 13.2559L24.6141 13.3313L24.5391 13.2559Z" fill="#FAE3C9"/>
<path d="M24.6172 13.2559L24.6922 13.3313L24.6172 13.2559Z" fill="#FCB144"/>
<path d="M24.9219 13.2559L24.9969 13.3313L24.9219 13.2559Z" fill="#FAE3C9"/>
<path d="M25.3008 13.2559L25.3758 13.3313L25.3008 13.2559Z" fill="#F8DCBB"/>
<path d="M25.9102 13.2559L25.9852 13.3313L25.9102 13.2559Z" fill="#F9D099"/>
<path d="M26.2891 13.2559L26.3641 13.3313L26.2891 13.2559Z" fill="#FBC477"/>
<path d="M26.3711 13.2559L26.4461 13.3313L26.3711 13.2559Z" fill="#FBEAD6"/>
<path d="M26.75 13.2559L26.825 13.3313L26.75 13.2559Z" fill="#737370"/>
<path d="M21.7969 13.332L21.8719 13.4075L21.7969 13.332Z" fill="#D9D868"/>
<path d="M22.4102 13.332L22.4852 13.4075L22.4102 13.332Z" fill="#F9D099"/>
<path d="M22.9414 13.332L23.0164 13.4075L22.9414 13.332ZM23.6277 13.332L23.7027 13.4075L23.6277 13.332Z" fill="#F9D6AA"/>
<path d="M23.8594 13.332L23.9344 13.4075L23.8594 13.332Z" fill="#FBC477"/>
<path d="M24.2344 13.332L24.3094 13.4075L24.2344 13.332Z" fill="#FEF8F1"/>
<path d="M24.3125 13.332L24.3875 13.4075L24.3125 13.332Z" fill="#F8DCBB"/>
<path d="M24.3906 13.332L24.4656 13.4075L24.3906 13.332Z" fill="#FBC477"/>
<path d="M24.4648 13.332L24.5398 13.4075L24.4648 13.332Z" fill="#FEA522"/>
<path d="M24.9219 13.332L24.9969 13.4075L24.9219 13.332Z" fill="#FBEAD6"/>
<path d="M26.5195 13.332L26.5945 13.4075L26.5195 13.332Z" fill="#F2F1D2"/>
<path d="M26.75 13.332L26.825 13.4075L26.75 13.332Z" fill="#58587B"/>
<path d="M21.6484 13.4082L21.7234 13.4837L21.6484 13.4082Z" fill="#99994E"/>
<path d="M21.7969 13.4082L21.8719 13.4837L21.7969 13.4082Z" fill="#D0D045"/>
<path d="M23.0195 13.4082L23.0945 13.4837L23.0195 13.4082Z" fill="#FCB144"/>
<path d="M23.0977 13.4082L23.1727 13.4837L23.0977 13.4082Z" fill="#FAE3C9"/>
<path d="M23.625 13.4082L23.7 13.4837L23.625 13.4082Z" fill="#FEF8F1"/>
<path d="M23.9336 13.4082L24.0086 13.4837L23.9336 13.4082Z" fill="#FCB755"/>
<path d="M24.0078 13.4082L24.0828 13.4837L24.0078 13.4082Z" fill="#FBC477"/>
<path d="M24.0859 13.4082L24.1609 13.4837L24.0859 13.4082Z" fill="#FCB144"/>
<path d="M24.1602 13.4082L24.2352 13.4837L24.1602 13.4082Z" fill="#FEA522"/>
<path d="M24.7695 13.4082L24.8445 13.4837L24.7695 13.4082Z" fill="#FE9F11"/>
<path d="M24.8438 13.4082L24.9187 13.4837L24.8438 13.4082Z" fill="#F9D6AA"/>
<path d="M25.9102 13.4082L25.9852 13.4837L25.9102 13.4082Z" fill="#FEF8F1"/>
<path d="M26.5195 13.4082L26.5945 13.4837L26.5195 13.4082Z" fill="#E0DEA1"/>
<path d="M26.75 13.4082L26.825 13.4837L26.75 13.4082Z" fill="#3A3A7C"/>
<path d="M21.6484 13.4863L21.7234 13.5618L21.6484 13.4863Z" fill="#737370"/>
<path d="M21.8789 13.4863L21.9539 13.5618L21.8789 13.4863Z" fill="#FBFAF2"/>
<path d="M22.4844 13.4863L22.5594 13.5618L22.4844 13.4863Z" fill="#FEA522"/>
<path d="M23.1719 13.4863L23.2469 13.5618L23.1719 13.4863Z" fill="#FE9F11"/>
<path d="M23.2461 13.4863L23.3211 13.5618L23.2461 13.4863Z" fill="#FCB144"/>
<path d="M23.3203 13.4863L23.3953 13.5618L23.3203 13.4863Z" fill="#FBC477"/>
<path d="M23.3945 13.4863L23.4695 13.5618L23.3945 13.4863Z" fill="#FACA88"/>
<path d="M23.4766 13.4863L23.5516 13.5618L23.4766 13.4863Z" fill="#FBC477"/>
<path d="M23.5508 13.4863L23.6258 13.5618L23.5508 13.4863Z" fill="#FCB144"/>
<path d="M23.625 13.4863L23.7 13.5618L23.625 13.4863Z" fill="#FDAB33"/>
<path d="M24.6953 13.4863L24.7703 13.5618L24.6953 13.4863Z" fill="#FBC477"/>
<path d="M24.7695 13.4863L24.8445 13.5618L24.7695 13.4863Z" fill="#FEF8F1"/>
<path d="M25.832 13.4863L25.907 13.5618L25.832 13.4863Z" fill="#FDAB33"/>
<path d="M26.5195 13.4863L26.5945 13.5618L26.5195 13.4863Z" fill="#E1E18C"/>
<path d="M26.6953 13.5352L26.7219 13.5884L26.6953 13.5352Z" fill="#A4A43D"/>
<path d="M26.75 13.4863L26.825 13.5618L26.75 13.4863Z" fill="#262678"/>
<path d="M21.6484 13.5625L21.7234 13.638L21.6484 13.5625Z" fill="#58587B"/>
<path d="M21.8789 13.5625L21.9539 13.638L21.8789 13.5625Z" fill="#F2F1D2"/>
<path d="M22.4844 13.5625L22.5594 13.638L22.4844 13.5625Z" fill="#FACA88"/>
<path d="M24.5391 13.5625L24.6141 13.638L24.5391 13.5625Z" fill="#FE9F11"/>
<path d="M24.6172 13.5625L24.6922 13.638L24.6172 13.5625Z" fill="#FBEAD6"/>
<path d="M25.3008 13.5625L25.3758 13.638L25.3008 13.5625Z" fill="#FBC477"/>
<path d="M25.832 13.5625L25.907 13.638L25.832 13.5625Z" fill="#FACA88"/>
<path d="M26.5195 13.5625L26.5945 13.638L26.5195 13.5625Z" fill="#D4D456"/>
<path d="M21.6484 13.6387L21.7234 13.7141L21.6484 13.6387Z" fill="#32327B"/>
<path d="M21.8789 13.6387L21.9539 13.7141L21.8789 13.6387Z" fill="#E5E59D"/>
<path d="M22.4844 13.6387L22.5594 13.7141L22.4844 13.6387Z" fill="#FEF8F1"/>
<path d="M22.5586 13.6387L22.6336 13.7141L22.5586 13.6387Z" fill="#FE9F11"/>
<path d="M24.5391 13.6387L24.6141 13.7141L24.5391 13.6387Z" fill="#FBEAD6"/>
<path d="M25.3008 13.6387L25.3758 13.7141L25.3008 13.6387Z" fill="#FEA522"/>
<path d="M25.832 13.6387L25.907 13.7141L25.832 13.6387Z" fill="#FCF1E4"/>
<path d="M26.6719 13.6387L26.7469 13.7141L26.6719 13.6387Z" fill="#808067"/>
<path d="M21.6484 13.7129L21.7234 13.7884L21.6484 13.7129Z" fill="#0E0E6E"/>
<path d="M21.7227 13.7129L21.7977 13.7884L21.7227 13.7129Z" fill="#A4A43D"/>
<path d="M21.8789 13.7129L21.9539 13.7884L21.8789 13.7129Z" fill="#D9D868"/>
<path d="M22.5586 13.7129L22.6336 13.7884L22.5586 13.7129Z" fill="#F8DCBB"/>
<path d="M25.2266 13.7129L25.3016 13.7884L25.2266 13.7129Z" fill="#F9D6AA"/>
<path d="M25.7578 13.7129L25.8328 13.7884L25.7578 13.7129Z" fill="#FACA88"/>
<path d="M26.4453 13.7129L26.5203 13.7884L26.4453 13.7129Z" fill="#F2F1D2"/>
<path d="M26.6719 13.7129L26.7469 13.7884L26.6719 13.7129Z" fill="#58587B"/>
<path d="M21.7227 13.793L21.7977 13.8684L21.7227 13.793Z" fill="#8D8D5B"/>
<path d="M22.6406 13.793L22.7156 13.8684L22.6406 13.793Z" fill="#F9D6AA"/>
<path d="M24.1602 13.793L24.2352 13.8684L24.1602 13.793Z" fill="#FDAB33"/>
<path d="M24.2344 13.793L24.3094 13.8684L24.2344 13.793Z" fill="white"/>
<path d="M24.3633 13.8145L24.4165 13.8411L24.3633 13.8145Z" fill="#FCB144"/>
<path d="M25.1531 13.793L25.0781 13.9439L25.1531 13.793Z" fill="#FEF8F1"/>
<path d="M25.2266 13.793L25.3016 13.8684L25.2266 13.793Z" fill="#FE9F11"/>
<path d="M25.6844 13.793L25.6094 13.9439L25.6844 13.793Z" fill="#FDAB33"/>
<path d="M26.4453 13.793L26.5203 13.8684L26.4453 13.793Z" fill="#E5E59D"/>
<path d="M26.6719 13.793L26.7469 13.8684L26.6719 13.793Z" fill="#3A3A7C"/>
<path d="M21.7227 13.8672L21.7977 13.9427L21.7227 13.8672Z" fill="#666677"/>
<path d="M21.9531 13.8672L22.0281 13.9427L21.9531 13.8672Z" fill="#F2F1D2"/>
<path d="M22.7148 13.8672L22.7898 13.9427L22.7148 13.8672Z" fill="#F9D6AA"/>
<path d="M24.1602 13.8672L24.2352 13.9427L24.1602 13.8672Z" fill="#FE9F11"/>
<path d="M24.2344 13.8672L24.3094 13.9427L24.2344 13.8672Z" fill="#FACA88"/>
<path d="M24.3125 13.8672L24.3875 13.9427L24.3125 13.8672Z" fill="#FEA522"/>
<path d="M24.3906 13.8672L24.4656 13.9427L24.3906 13.8672Z" fill="#FCF1E4"/>
<path d="M25.1523 13.8672L25.2273 13.9427L25.1523 13.8672Z" fill="#FDAB33"/>
<path d="M25.6836 13.8672L25.7586 13.9427L25.6836 13.8672Z" fill="#FEF8F1"/>
<path d="M26.4453 13.8672L26.5203 13.9427L26.4453 13.8672Z" fill="#D9D868"/>
<path d="M26.5938 13.8672L26.6687 13.9427L26.5938 13.8672Z" fill="#A4A43D"/>
<path d="M26.6719 13.8672L26.7469 13.9427L26.6719 13.8672Z" fill="#0E0E6E"/>
<path d="M21.7227 13.9434L21.7977 14.0188L21.7227 13.9434Z" fill="#3A3A7C"/>
<path d="M21.9531 13.9434L22.0281 14.0188L21.9531 13.9434Z" fill="#E5E59D"/>
<path d="M22.7891 13.9434L22.9391 14.0943L22.7891 13.9434Z" fill="#FAE3C9"/>
<path d="M22.8672 13.9434L22.9422 14.0188L22.8672 13.9434Z" fill="#FE9F11"/>
<path d="M24.3125 13.9434L24.3875 14.0188L24.3125 13.9434Z" fill="#F8DCBB"/>
<path d="M24.9961 13.9434L25.0711 14.0188L24.9961 13.9434Z" fill="#FCF1E4"/>
<path d="M25.0742 13.9434L25.1492 14.0188L25.0742 13.9434Z" fill="#FDAB33"/>
<path d="M25.5352 13.9434L25.6102 14.0188L25.5352 13.9434Z" fill="#FCB144"/>
<path d="M25.6094 13.9434L25.6844 14.0188L25.6094 13.9434Z" fill="#FEF8F1"/>
<path d="M26.3711 13.9434L26.4461 14.0188L26.3711 13.9434Z" fill="#FBFAF2"/>
<path d="M26.5938 13.9434L26.6687 14.0188L26.5938 13.9434Z" fill="#8D8D5B"/>
<path d="M21.7227 14.0195L21.7977 14.095L21.7227 14.0195Z" fill="#0E0E6E"/>
<path d="M21.7969 14.0195L21.8719 14.095L21.7969 14.0195Z" fill="#A4A43D"/>
<path d="M21.9531 14.0195L22.0281 14.095L21.9531 14.0195Z" fill="#D4D456"/>
<path d="M24.2344 14.0195L24.3094 14.095L24.2344 14.0195Z" fill="#F9D6AA"/>
<path d="M24.9219 14.0195L24.9969 14.095L24.9219 14.0195Z" fill="#F9D099"/>
<path d="M24.9961 14.0195L25.0711 14.095L24.9961 14.0195Z" fill="#FE9F11"/>
<path d="M25.4531 14.0195L25.5281 14.095L25.4531 14.0195Z" fill="#FACA88"/>
<path d="M26.3711 14.0195L26.4461 14.095L26.3711 14.0195Z" fill="#EEEDC1"/>
<path d="M26.5938 14.0195L26.6687 14.095L26.5938 14.0195Z" fill="#58587B"/>
<path d="M21.7969 14.0938L21.8719 14.1692L21.7969 14.0938Z" fill="#737370"/>
<path d="M22.0273 14.0938L22.1023 14.1692L22.0273 14.0938Z" fill="#F6F6E4"/>
<path d="M22.8672 14.0938L22.9422 14.1692L22.8672 14.0938Z" fill="#FBBE66"/>
<path d="M24.0859 14.0938L24.1609 14.1692L24.0859 14.0938Z" fill="#FCB144"/>
<path d="M24.1836 14.1504L24.2102 14.1998L24.1836 14.1504Z" fill="#F8DCBB"/>
<path d="M24.7695 14.0938L24.8445 14.1692L24.7695 14.0938Z" fill="#FBBE66"/>
<path d="M24.8438 14.0938L24.9187 14.1692L24.8438 14.0938Z" fill="#FE9F11"/>
<path d="M25.3008 14.0938L25.3758 14.1692L25.3008 14.0938Z" fill="#FBC477"/>
<path d="M25.3789 14.0938L25.4539 14.1692L25.3789 14.0938Z" fill="#FCF1E4"/>
<path d="M26.3711 14.0938L26.4461 14.1692L26.3711 14.0938Z" fill="#D3D079"/>
<path d="M26.5195 14.0938L26.5945 14.1692L26.5195 14.0938Z" fill="#A4A43D"/>
<path d="M26.5938 14.0938L26.6687 14.1692L26.5938 14.0938Z" fill="#262678"/>
<path d="M21.7969 14.1699L21.8719 14.2454L21.7969 14.1699Z" fill="#49497D"/>
<path d="M22.0273 14.1699L22.1023 14.2454L22.0273 14.1699Z" fill="#E0DEA1"/>
<path d="M22.7891 14.1699L22.8641 14.2454L22.7891 14.1699Z" fill="#FAE3C9"/>
<path d="M23.8594 14.1699L23.9344 14.2454L23.8594 14.1699Z" fill="#FDAB33"/>
<path d="M23.9336 14.1699L24.0086 14.2454L23.9336 14.1699Z" fill="#FBC477"/>
<path d="M24.0078 14.1699L24.0828 14.2454L24.0078 14.1699Z" fill="#FBEAD6"/>
<path d="M24.2344 14.1699L24.3094 14.2454L24.2344 14.1699Z" fill="#FCB144"/>
<path d="M25.2266 14.1699L25.3016 14.2454L25.2266 14.1699Z" fill="#F9D6AA"/>
<path d="M26.5195 14.1699L26.5945 14.2454L26.5195 14.1699Z" fill="#99994E"/>
<path d="M21.7969 14.252L21.8719 14.3274L21.7969 14.252Z" fill="#0E0E6E"/>
<path d="M21.8789 14.252L21.9539 14.3274L21.8789 14.252Z" fill="#A4A43D"/>
<path d="M22.0273 14.252L22.1023 14.3274L22.0273 14.252Z" fill="#D4D456"/>
<path d="M22.7148 14.252L22.7898 14.3274L22.7148 14.252Z" fill="#F9D099"/>
<path d="M22.7891 14.252L22.8641 14.3274L22.7891 14.252ZM23.1716 14.252L23.2466 14.3274L23.1716 14.252Z" fill="#FE9F11"/>
<path d="M23.2461 14.252L23.3211 14.3274L23.2461 14.252Z" fill="#F9D6AA"/>
<path d="M23.3203 14.252L23.3953 14.3274L23.3203 14.252Z" fill="#F9D099"/>
<path d="M23.625 14.252L23.7 14.3274L23.625 14.252Z" fill="#F9D6AA"/>
<path d="M23.6992 14.252L23.7742 14.3274L23.6992 14.252Z" fill="#FAE3C9"/>
<path d="M23.7734 14.252L23.8484 14.3274L23.7734 14.252Z" fill="#FEF8F1"/>
<path d="M24.3906 14.252L24.4656 14.3274L24.3906 14.252Z" fill="#FBEAD6"/>
<path d="M24.4648 14.252L24.5398 14.3274L24.4648 14.252Z" fill="#FAE3C9"/>
<path d="M24.5391 14.252L24.6141 14.3274L24.5391 14.252Z" fill="#FACA88"/>
<path d="M24.6172 14.252L24.6922 14.3274L24.6172 14.252Z" fill="#FBC477"/>
<path d="M24.6953 14.252L24.7703 14.3274L24.6953 14.252Z" fill="#FDAB33"/>
<path d="M25.0742 14.252L25.1492 14.3274L25.0742 14.252Z" fill="#FE9F11"/>
<path d="M25.1523 14.252L25.2273 14.3274L25.1523 14.252Z" fill="#F9D6AA"/>
<path d="M26.2891 14.252L26.3641 14.3274L26.2891 14.252Z" fill="#E5E3AF"/>
<path d="M26.5195 14.252L26.5945 14.3274L26.5195 14.252Z" fill="#666677"/>
<path d="M21.8789 14.3281L21.9539 14.4036L21.8789 14.3281Z" fill="#737370"/>
<path d="M22.1055 14.3281L22.1805 14.4036L22.1055 14.3281Z" fill="#F2F1D7"/>
<path d="M22.6406 14.3281L22.7156 14.4036L22.6406 14.3281Z" fill="#FEA522"/>
<path d="M23.0195 14.3281L23.0945 14.4036L23.0195 14.3281Z" fill="#FE9F11"/>
<path d="M23.0977 14.3281L23.1727 14.4036L23.0977 14.3281Z" fill="#FBBE66"/>
<path d="M23.1719 14.3281L23.2469 14.4036L23.1719 14.3281Z" fill="#FCF1E4"/>
<path d="M24.9961 14.3281L25.0711 14.4036L24.9961 14.3281Z" fill="#FEA522"/>
<path d="M25.0742 14.3281L25.1492 14.4036L25.0742 14.3281Z" fill="#FBEAD6"/>
<path d="M26.2891 14.3281L26.3641 14.4036L26.2891 14.3281Z" fill="#DDDC7A"/>
<path d="M26.4453 14.3281L26.5203 14.4036L26.4453 14.3281Z" fill="#A4A43D"/>
<path d="M26.5195 14.3281L26.5945 14.4036L26.5195 14.3281Z" fill="#262678"/>
<path d="M21.8789 14.4043L21.9539 14.4798L21.8789 14.4043Z" fill="#49497D"/>
<path d="M21.9766 14.457L22.007 14.5065L21.9766 14.457Z" fill="#A4A43D"/>
<path d="M22.1055 14.4043L22.1805 14.4798L22.1055 14.4043Z" fill="#D3D079"/>
<path d="M22.7148 14.4043L22.7898 14.4798L22.7148 14.4043Z" fill="#F9D099"/>
<path d="M22.7891 14.4043L22.8641 14.4798L22.7891 14.4043Z" fill="#FCB144"/>
<path d="M22.8672 14.4043L22.9422 14.4798L22.8672 14.4043Z" fill="#FACA88"/>
<path d="M22.9414 14.4043L23.0164 14.4798L22.9414 14.4043Z" fill="#F8DCBB"/>
<path d="M23.0195 14.4043L23.0945 14.4798L23.0195 14.4043Z" fill="#FEF8F1"/>
<path d="M24.6953 14.4043L24.7703 14.4798L24.6953 14.4043Z" fill="#F8DCBB"/>
<path d="M24.9961 14.4043L25.0711 14.4798L24.9961 14.4043Z" fill="#FCF1E4"/>
<path d="M26.2109 14.4043L26.2859 14.4798L26.2109 14.4043Z" fill="#F6F6E4"/>
<path d="M26.4453 14.4043L26.5203 14.4798L26.4453 14.4043Z" fill="#8D8D5B"/>
<path d="M22.1797 14.4785L22.2547 14.554L22.1797 14.4785Z" fill="#FBFAF2"/>
<path d="M24.6953 14.4785L24.7703 14.554L24.6953 14.4785Z" fill="#FBBE66"/>
<path d="M24.9219 14.4785L24.9969 14.554L24.9219 14.4785Z" fill="#FACA88"/>
<path d="M26.2109 14.4785L26.2859 14.554L26.2109 14.4785Z" fill="#E1E18C"/>
<path d="M26.4453 14.4785L26.5203 14.554L26.4453 14.4785Z" fill="#49497D"/>
<path d="M21.9531 14.5586L22.0281 14.6341L21.9531 14.5586Z" fill="#58587B"/>
<path d="M22.1797 14.5586L22.2547 14.6341L22.1797 14.5586Z" fill="#E5E59D"/>
<path d="M24.6953 14.5586L24.7703 14.6341L24.6953 14.5586Z" fill="#FE9F11"/>
<path d="M24.8438 14.5586L24.9187 14.6341L24.8438 14.5586Z" fill="#FDAB33"/>
<path d="M26.1367 14.5586L26.2117 14.6341L26.1367 14.5586Z" fill="#FBFAF2"/>
<path d="M26.3711 14.5586L26.4461 14.6341L26.3711 14.5586Z" fill="#A4A43D"/>
<path d="M26.4453 14.5586L26.5203 14.6341L26.4453 14.5586Z" fill="#0E0E6E"/>
<path d="M21.9531 14.6348L22.0281 14.7102L21.9531 14.6348Z" fill="#1B1B74"/>
<path d="M22.0273 14.6348L22.1023 14.7102L22.0273 14.6348Z" fill="#A4A43D"/>
<path d="M22.1797 14.6348L22.2547 14.7102L22.1797 14.6348Z" fill="#D0D045"/>
<path d="M24.6172 14.6348L24.6922 14.7102L24.6172 14.6348Z" fill="#FBEAD6"/>
<path d="M24.7695 14.6348L24.8445 14.7102L24.7695 14.6348Z" fill="#FE9F11"/>
<path d="M24.8438 14.6348L24.9187 14.7102L24.8438 14.6348Z" fill="#FBEAD6"/>
<path d="M26.1367 14.6348L26.2117 14.7102L26.1367 14.6348Z" fill="#E5E59D"/>
<path d="M26.3711 14.6348L26.4461 14.7102L26.3711 14.6348Z" fill="#666677"/>
<path d="M22.0273 14.709L22.1023 14.7845L22.0273 14.709Z" fill="#6E6C70"/>
<path d="M22.2578 14.709L22.3328 14.7845L22.2578 14.709Z" fill="#E5E3AF"/>
<path d="M24.6367 14.7617L24.6672 14.815L24.6367 14.7617Z" fill="#FACA88"/>
<path d="M24.7695 14.709L24.8445 14.7845L24.7695 14.709Z" fill="#FAE3C9"/>
<path d="M26.0625 14.709L26.1375 14.7845L26.0625 14.709Z" fill="#FBFAF2"/>
<path d="M26.2891 14.709L26.3641 14.7845L26.2891 14.709Z" fill="#A4A43D"/>
<path d="M26.3698 14.709L26.4448 14.7845L26.3698 14.709ZM22.0273 14.7845L22.1023 14.8599L22.0273 14.7845Z" fill="#1B1B74"/>
<path d="M22.1055 14.7891L22.1805 14.8645L22.1055 14.7891Z" fill="#A4A43D"/>
<path d="M22.2578 14.7891L22.3328 14.8645L22.2578 14.7891Z" fill="#D0D045"/>
<path d="M22.332 14.7891L22.407 14.8645L22.332 14.7891Z" fill="#FBFAF2"/>
<path d="M24.6953 14.7891L24.7703 14.8645L24.6953 14.7891Z" fill="#F9D6AA"/>
<path d="M26.0625 14.7891L26.1375 14.8645L26.0625 14.7891Z" fill="#E5E59D"/>
<path d="M26.2867 14.7891L26.3617 14.8645L26.2867 14.7891ZM22.1055 14.8645L22.1805 14.94L22.1055 14.8645Z" fill="#6E6C70"/>
<path d="M22.332 14.8633L22.407 14.9388L22.332 14.8633Z" fill="#8CBF84"/>
<path d="M22.3633 14.8633C22.6258 15.4218 23.5633 16.7425 24.2758 16.7199C24.9733 16.6935 25.757 15.3991 26.0608 14.8633H22.3633Z" fill="#00CCFF"/>
<path d="M26.2109 14.8633L26.2859 14.9388L26.2109 14.8633Z" fill="#A4A43D"/>
<path d="M26.2867 14.8633L26.3617 14.9388L26.2867 14.8633ZM22.1055 14.9388L22.1805 15.0142L22.1055 14.9388Z" fill="#1B1B74"/>
<path d="M22.1797 14.9395L22.2547 15.0149L22.1797 14.9395Z" fill="#A4A43D"/>
<path d="M22.332 14.9395L22.407 15.0149L22.332 14.9395Z" fill="#ADB333"/>
<path d="M22.4102 14.9395L22.4852 15.0149L22.4102 14.9395Z" fill="#1AC5B5"/>
<path d="M25.9883 14.9395L26.0633 15.0149L25.9883 14.9395Z" fill="#68B070"/>
<path d="M26.2109 14.9395L26.2859 15.0149L26.2109 14.9395Z" fill="#666677"/>
<path d="M22.1797 15.0195L22.2547 15.095L22.1797 15.0195Z" fill="#58587B"/>
<path d="M22.4102 15.0195L22.4852 15.095L22.4102 15.0195Z" fill="#7FB15C"/>
<path d="M25.9102 15.0195L25.9852 15.095L25.9102 15.0195Z" fill="#27C2AA"/>
<path d="M26.1375 15.0195L26.0625 15.1705L26.1375 15.0195Z" fill="#A4A43D"/>
<path d="M26.2109 15.0195L26.2859 15.095L26.2109 15.0195ZM22.1797 15.095L22.2547 15.1705L22.1797 15.095Z" fill="#0E0E6E"/>
<path d="M22.2578 15.0938L22.4078 15.2447L22.2578 15.0938Z" fill="#A4A43D"/>
<path d="M22.4844 15.0938L22.5594 15.1692L22.4844 15.0938Z" fill="#34BE9E"/>
<path d="M25.9102 15.0938L25.9852 15.1692L25.9102 15.0938Z" fill="#96B247"/>
<path d="M26.1367 15.0938L26.2117 15.1692L26.1367 15.0938Z" fill="#53527C"/>
<path d="M22.2578 15.1738L22.3328 15.2493L22.2578 15.1738Z" fill="#3A3A7C"/>
<path d="M22.4844 15.1738L22.5594 15.2493L22.4844 15.1738Z" fill="#A2B23D"/>
<path d="M22.5586 15.1738L22.6336 15.2493L22.5586 15.1738Z" fill="#0DC9C1"/>
<path d="M25.832 15.1738L25.907 15.2493L25.832 15.1738Z" fill="#5BB47C"/>
<path d="M26.0625 15.1738L26.1375 15.2493L26.0625 15.1738Z" fill="#8D8D5B"/>
<path d="M22.332 15.25L22.407 15.3255L22.332 15.25Z" fill="#737370"/>
<path d="M22.5586 15.25L22.6336 15.3255L22.5586 15.25Z" fill="#74B166"/>
<path d="M25.7578 15.25L25.8328 15.3255L25.7578 15.25Z" fill="#27C2AA"/>
<path d="M25.9891 15.25L25.9141 15.4009L25.9891 15.25Z" fill="#A4A43D"/>
<path d="M26.0625 15.25L26.1375 15.3255L26.0625 15.25Z" fill="#262678"/>
<path d="M22.332 15.3242L22.407 15.3997L22.332 15.3242Z" fill="#0E0E6E"/>
<path d="M22.4102 15.3242L22.5602 15.4752L22.4102 15.3242Z" fill="#A4A43D"/>
<path d="M22.6406 15.3242L22.7156 15.3997L22.6406 15.3242Z" fill="#42BB92"/>
<path d="M25.6836 15.3242L25.7586 15.3997L25.6836 15.3242Z" fill="#0DC9C1"/>
<path d="M25.7578 15.3242L25.8328 15.3997L25.7578 15.3242Z" fill="#96B247"/>
<path d="M25.9883 15.3242L26.0633 15.3997L25.9883 15.3242Z" fill="#58587B"/>
<path d="M22.4102 15.4004L22.4852 15.4759L22.4102 15.4004Z" fill="#3A3A7C"/>
<path d="M22.6406 15.4004L22.7156 15.4759L22.6406 15.4004Z" fill="#ADB333"/>
<path d="M22.7148 15.4004L22.7898 15.4759L22.7148 15.4004Z" fill="#27C2AA"/>
<path d="M25.6836 15.4004L25.7586 15.4759L25.6836 15.4004Z" fill="#74B166"/>
<path d="M25.9102 15.4004L25.9852 15.4759L25.9102 15.4004Z" fill="#8D8D5B"/>
<path d="M22.4844 15.4746L22.5594 15.5501L22.4844 15.4746Z" fill="#6E6C70"/>
<path d="M22.7148 15.4746L22.7898 15.5501L22.7148 15.4746Z" fill="#96B247"/>
<path d="M22.7891 15.4746L22.8641 15.5501L22.7891 15.4746Z" fill="#0DC9C1"/>
<path d="M25.6094 15.4746L25.6844 15.5501L25.6094 15.4746Z" fill="#42BB92"/>
<path d="M25.8336 15.4746L25.6836 15.701L25.8336 15.4746Z" fill="#A4A43D"/>
<path d="M25.9102 15.4746L25.9852 15.5501L25.9102 15.4746Z" fill="#1B1B74"/>
<path d="M22.4844 15.5508L22.5594 15.6263L22.4844 15.5508Z" fill="#0E0E6E"/>
<path d="M22.5586 15.5508L22.6336 15.6263L22.5586 15.5508Z" fill="#8D8D5B"/>
<path d="M22.7891 15.5508L22.8641 15.6263L22.7891 15.5508Z" fill="#7FB15C"/>
<path d="M25.5352 15.5508L25.6102 15.6263L25.5352 15.5508Z" fill="#34BE9E"/>
<path d="M25.832 15.5508L25.907 15.6263L25.832 15.5508Z" fill="#3A3A7C"/>
<path d="M22.5586 15.6309L22.6336 15.7063L22.5586 15.6309Z" fill="#1B1B74"/>
<path d="M22.6406 15.6309L23.4769 16.4724L22.6406 15.6309Z" fill="#A4A43D"/>
<path d="M22.8672 15.6309L22.9422 15.7063L22.8672 15.6309Z" fill="#74B166"/>
<path d="M25.4531 15.6309L25.5281 15.7063L25.4531 15.6309Z" fill="#27C2AA"/>
<path d="M25.5352 15.6309L25.6102 15.7063L25.5352 15.6309Z" fill="#ADB333"/>
<path d="M25.7578 15.6309L25.8328 15.7063L25.7578 15.6309Z" fill="#666677"/>
<path d="M22.6406 15.7051L22.7156 15.7805L22.6406 15.7051Z" fill="#32327B"/>
<path d="M22.9414 15.7051L23.0164 15.7805L22.9414 15.7051Z" fill="#42BB92"/>
<path d="M25.3817 15.7049L25.0742 16.0899L25.3855 15.7012L25.3817 15.7049Z" fill="#0DC9C1"/>
<path d="M25.4531 15.7051L25.5281 15.7805L25.4531 15.7051Z" fill="#ADB333"/>
<path d="M25.6836 15.7051L25.7586 15.7805L25.6836 15.7051Z" fill="#737370"/>
<path d="M22.7148 15.7852L22.7898 15.8606L22.7148 15.7852Z" fill="#49497D"/>
<path d="M23.0195 15.7852L23.0945 15.8606L23.0195 15.7852Z" fill="#42BB92"/>
<path d="M25.3789 15.7852L25.4539 15.8606L25.3789 15.7852Z" fill="#96B247"/>
<path d="M25.6102 15.7852L25.5352 15.9361L25.6102 15.7852Z" fill="#8D8D5B"/>
<path d="M25.6836 15.7852L25.7586 15.8606L25.6836 15.7852Z" fill="#0E0E6E"/>
<path d="M22.7891 15.8594L22.8641 15.9348L22.7891 15.8594Z" fill="#53527C"/>
<path d="M23.0977 15.8594L23.1727 15.9348L23.0977 15.8594Z" fill="#42BB92"/>
<path d="M25.3008 15.8594L25.3758 15.9348L25.3008 15.8594Z" fill="#96B247"/>
<path d="M25.6094 15.8594L25.6844 15.9348L25.6094 15.8594Z" fill="#0E0E6E"/>
<path d="M22.8672 15.9355L22.9422 16.011L22.8672 15.9355Z" fill="#6E6C70"/>
<path d="M23.1719 15.9355L23.2469 16.011L23.1719 15.9355Z" fill="#42BB92"/>
<path d="M25.2266 15.9355L25.3016 16.011L25.2266 15.9355Z" fill="#96B247"/>
<path d="M25.4547 15.9355L25.3047 16.162L25.4547 15.9355Z" fill="#A4A43D"/>
<path d="M25.5352 15.9355L25.6102 16.011L25.5352 15.9355Z" fill="#262678"/>
<path d="M22.9414 16.0156L23.0164 16.0911L22.9414 16.0156Z" fill="#6E6C70"/>
<path d="M23.2461 16.0156L23.3211 16.0911L23.2461 16.0156Z" fill="#42BB92"/>
<path d="M25.1523 16.0156L25.2273 16.0911L25.1523 16.0156Z" fill="#96B247"/>
<path d="M25.4531 16.0156L25.5281 16.0911L25.4531 16.0156Z" fill="#262678"/>
<path d="M23.0195 16.0898L23.0945 16.1653L23.0195 16.0898Z" fill="#6E6C70"/>
<path d="M23.3203 16.0898L23.3953 16.1653L23.3203 16.0898Z" fill="#68B070"/>
<path d="M24.9961 16.0898L25.0711 16.1653L24.9961 16.0898Z" fill="#27C2AA"/>
<path d="M25.0742 16.0898L25.1492 16.1653L25.0742 16.0898Z" fill="#ADB333"/>
<path d="M25.3789 16.0898L25.4539 16.1653L25.3789 16.0898Z" fill="#262678"/>
<path d="M23.0977 16.166L23.1727 16.2415L23.0977 16.166Z" fill="#666677"/>
<path d="M23.3945 16.166L23.4695 16.2415L23.3945 16.166Z" fill="#74B166"/>
<path d="M24.9219 16.166L24.9969 16.2415L24.9219 16.166Z" fill="#34BE9E"/>
<path d="M24.9961 16.166L25.0711 16.2415L24.9961 16.166Z" fill="#ADB333"/>
<path d="M25.2273 16.166L25.1523 16.317L25.2273 16.166Z" fill="#8D8D5B"/>
<path d="M25.3008 16.166L25.3758 16.2415L25.3008 16.166Z" fill="#262678"/>
<path d="M23.1719 16.2422L23.2469 16.3177L23.1719 16.2422Z" fill="#49497D"/>
<path d="M23.4766 16.2422L23.5516 16.3177L23.4766 16.2422Z" fill="#96B247"/>
<path d="M23.5508 16.2422L23.6258 16.3177L23.5508 16.2422Z" fill="#0DC9C1"/>
<path d="M24.8438 16.2422L24.9187 16.3177L24.8438 16.2422Z" fill="#42BB92"/>
<path d="M25.2266 16.2422L25.3016 16.3177L25.2266 16.2422Z" fill="#0E0E6E"/>
<path d="M23.2461 16.3203L23.3211 16.3958L23.2461 16.3203Z" fill="#49497D"/>
<path d="M23.5508 16.3203L23.6258 16.3958L23.5508 16.3203Z" fill="#A2B23D"/>
<path d="M23.625 16.3203L23.7 16.3958L23.625 16.3203Z" fill="#27C2AA"/>
<path d="M24.7695 16.3203L24.8445 16.3958L24.7695 16.3203Z" fill="#74B166"/>
<path d="M24.9984 16.3203L24.7734 16.6222L24.9984 16.3203Z" fill="#A4A43D"/>
<path d="M25.0742 16.3203L25.1492 16.3958L25.0742 16.3203Z" fill="#808067"/>
<path d="M25.1523 16.3203L25.2273 16.3958L25.1523 16.3203Z" fill="#0E0E6E"/>
<path d="M23.3203 16.3965L23.3953 16.472L23.3203 16.3965Z" fill="#262678"/>
<path d="M23.625 16.3965L23.7 16.472L23.625 16.3965Z" fill="#ADB333"/>
<path d="M23.6992 16.3965L23.7742 16.472L23.6992 16.3965Z" fill="#42BB92"/>
<path d="M24.6172 16.3965L24.6922 16.472L24.6172 16.3965Z" fill="#0DC9C1"/>
<path d="M24.6953 16.3965L24.7703 16.472L24.6953 16.3965Z" fill="#96B247"/>
<path d="M24.9961 16.3965L25.0711 16.472L24.9961 16.3965Z" fill="#6E6C70"/>
<path d="M23.3945 16.4727L23.4695 16.5481L23.3945 16.4727Z" fill="#1B1B74"/>
<path d="M23.4766 16.4727L23.5516 16.5481L23.4766 16.4727Z" fill="#8D8D5B"/>
<path d="M23.7734 16.4727L23.8484 16.5481L23.7734 16.4727Z" fill="#74B166"/>
<path d="M23.8594 16.4727L23.9344 16.5481L23.8594 16.4727Z" fill="#0DC9C1"/>
<path d="M24.5391 16.4727L24.6141 16.5481L24.5391 16.4727Z" fill="#34BE9E"/>
<path d="M24.6172 16.4727L24.6922 16.5481L24.6172 16.4727Z" fill="#ADB333"/>
<path d="M24.9219 16.4727L24.9969 16.5481L24.9219 16.4727Z" fill="#49497D"/>
<path d="M23.4766 16.5469L23.5516 16.6223L23.4766 16.5469Z" fill="#0E0E6E"/>
<path d="M23.5508 16.5469L23.6258 16.6223L23.5508 16.5469Z" fill="#6E6C70"/>
<path d="M23.625 16.5469L23.775 16.6978L23.625 16.5469Z" fill="#A4A43D"/>
<path d="M23.8594 16.5469L23.9344 16.6223L23.8594 16.5469Z" fill="#96B247"/>
<path d="M23.9336 16.5469L24.0086 16.6223L23.9336 16.5469Z" fill="#27C2AA"/>
<path d="M24.4648 16.5469L24.5398 16.6223L24.4648 16.5469Z" fill="#68B070"/>
<path d="M24.8438 16.5469L24.9187 16.6223L24.8438 16.5469Z" fill="#32327B"/>
<path d="M23.625 16.623L23.7 16.6985L23.625 16.623Z" fill="#49497D"/>
<path d="M24.0078 16.623L24.0828 16.6985L24.0078 16.623Z" fill="#5BB47C"/>
<path d="M24.3125 16.623L24.3875 16.6985L24.3125 16.623Z" fill="#27C2AA"/>
<path d="M24.3906 16.623L24.4656 16.6985L24.3906 16.623Z" fill="#96B247"/>
<path d="M24.618 16.623L24.543 16.774L24.618 16.623Z" fill="#A4A43D"/>
<path d="M24.6953 16.623L24.7703 16.6985L24.6953 16.623Z" fill="#808067"/>
<path d="M24.7695 16.623L24.8445 16.6985L24.7695 16.623Z" fill="#0E0E6E"/>
<path d="M23.6992 16.6973L23.7742 16.7727L23.6992 16.6973Z" fill="#262678"/>
<path d="M23.7734 16.6973L23.8484 16.7727L23.7734 16.6973Z" fill="#8D8D5B"/>
<path d="M24.0859 16.6973L24.1609 16.7727L24.0859 16.6973Z" fill="#8BB252"/>
<path d="M24.1602 16.6973L24.2352 16.7727L24.1602 16.6973Z" fill="#1AC5B5"/>
<path d="M24.2344 16.6973L24.3094 16.7727L24.2344 16.6973Z" fill="#5BB47C"/>
<path d="M24.6172 16.6973L24.6922 16.7727L24.6172 16.6973Z" fill="#58587B"/>
<path d="M23.7734 16.7812L23.8484 16.8567L23.7734 16.7812Z" fill="#0E0E6E"/>
<path d="M23.8594 16.7812L23.9344 16.8567L23.8594 16.7812Z" fill="#666677"/>
<path d="M23.9336 16.7812L24.0086 16.8567L23.9336 16.7812Z" fill="#A4A43D"/>
<path d="M24.4648 16.7812L24.5398 16.8567L24.4648 16.7812Z" fill="#99994E"/>
<path d="M24.5411 16.7812L24.6161 16.8567L24.5411 16.7812ZM23.9336 16.8567L24.0086 16.9322L23.9336 16.8567Z" fill="#32327B"/>
<path d="M24.0078 16.8574L24.0828 16.9329L24.0078 16.8574Z" fill="#99994E"/>
<path d="M24.3125 16.8574L24.3875 16.9329L24.3125 16.8574Z" fill="#A4A43D"/>
<path d="M24.3906 16.8574L24.4656 16.9329L24.3906 16.8574Z" fill="#666677"/>
<path d="M24.4653 16.8574L24.5403 16.9329L24.4653 16.8574ZM24.0078 16.9329L24.0828 17.0084L24.0078 16.9329Z" fill="#0E0E6E"/>
<path d="M24.0859 16.9316L24.1609 17.0071L24.0859 16.9316Z" fill="#666677"/>
<path d="M24.1602 16.9316L24.2352 17.0071L24.1602 16.9316Z" fill="#A4A43D"/>
<path d="M24.2344 16.9316L24.3094 17.0071L24.2344 16.9316Z" fill="#99994E"/>
<path d="M24.3125 16.9316L24.3875 17.0071L24.3125 16.9316Z" fill="#32327B"/>
<path d="M24.1602 17.0078L24.2352 17.0833L24.1602 17.0078Z" fill="#262678"/>
<path d="M24.2344 17.0078L24.3094 17.0833L24.2344 17.0078Z" fill="#0E0E6E"/>
<path d="M24.3107 11.8747C24.4307 12.1539 24.8057 12.4596 24.9107 12.6105C24.7794 12.7615 24.7532 12.7464 24.7682 13.0256C24.9932 12.7841 25.0007 12.7615 25.1507 12.7954C25.4732 13.1199 25.2069 13.8143 24.9407 13.9652C24.6744 14.1275 24.7232 13.9615 24.3219 14.1615C24.5057 14.3199 24.7194 14.1388 24.8919 14.1879C24.9857 14.3011 24.8469 14.5049 24.9182 14.7011C25.0682 14.686 25.0532 14.3728 25.0907 14.2596C25.2032 13.8445 25.8782 13.5577 25.9119 13.1765C26.0544 13.1124 26.1932 13.1577 26.3619 13.252C26.2794 12.8973 25.9982 12.9011 25.9194 12.7916C25.7394 12.5124 25.5782 12.1954 25.1919 12.1124C24.8919 12.0482 24.9182 12.1313 24.7307 11.9992C24.6107 11.9086 24.2544 11.735 24.3107 11.8747V11.8747Z" fill="#FF9900"/>
<path fill-rule="evenodd" clip-rule="evenodd" d="M25.1589 12.1931C25.1589 12.2096 25.1524 12.2255 25.1408 12.2372C25.1292 12.2488 25.1134 12.2554 25.097 12.2554C25.0806 12.2554 25.0649 12.2488 25.0533 12.2372C25.0417 12.2255 25.0352 12.2096 25.0352 12.1931C25.0352 12.1766 25.0417 12.1608 25.0533 12.1491C25.0649 12.1374 25.0806 12.1309 25.097 12.1309C25.1134 12.1309 25.1292 12.1374 25.1408 12.1491C25.1524 12.1608 25.1589 12.1766 25.1589 12.1931V12.1931Z" fill="white"/>
<path d="M23.3696 13.0575C23.5571 12.8235 23.6546 12.3405 23.7371 12.182C23.9321 12.2273 23.9246 12.2575 24.1684 12.1141C23.8496 12.0235 23.8234 12.0311 23.7859 11.8839C23.9209 11.4424 24.6559 11.3556 24.9109 11.5217C25.1809 11.6839 25.0121 11.7179 25.3759 11.9745C25.4284 11.7405 25.1696 11.6349 25.1321 11.4613C25.1884 11.3217 25.4321 11.3481 25.5671 11.1971C25.4846 11.0651 25.2184 11.2273 25.1021 11.25C24.6896 11.3443 24.1159 10.8801 23.7671 11.0235C23.6434 10.9292 23.6171 10.782 23.6171 10.582C23.3509 10.8273 23.4859 11.0726 23.4221 11.1971C23.2646 11.4877 23.0584 11.782 23.1671 12.1632C23.2496 12.4575 23.3096 12.3971 23.2871 12.6273C23.2609 12.7745 23.2721 13.1745 23.3696 13.0575V13.0575Z" fill="#FF9900"/>
<path fill-rule="evenodd" clip-rule="evenodd" d="M23.2503 12.1551C23.284 12.14 23.3215 12.1513 23.3365 12.1815C23.3417 12.1921 23.3437 12.2041 23.3422 12.2158C23.3407 12.2275 23.3358 12.2386 23.3281 12.2475C23.3204 12.2565 23.3103 12.263 23.299 12.2662C23.2877 12.2695 23.2757 12.2693 23.2645 12.2657C23.2533 12.2621 23.2433 12.2553 23.236 12.2461C23.2286 12.2368 23.224 12.2256 23.2229 12.2139C23.2218 12.2021 23.2242 12.1902 23.2297 12.1798C23.2352 12.1693 23.2437 12.1607 23.254 12.1551H23.2503Z" fill="white"/>
<path d="M24.9129 13.2185C24.6129 13.1808 24.1592 13.343 23.9754 13.3581C23.9192 13.1657 23.9454 13.1506 23.6979 13.0185C23.7842 13.343 23.8029 13.3581 23.6979 13.4713C23.2554 13.5808 22.7979 12.9921 22.8054 12.6864C22.8054 12.3732 22.9254 12.4978 22.9554 12.0449C22.7304 12.1204 22.7754 12.4034 22.6442 12.5279C22.4942 12.5506 22.3967 12.3279 22.1942 12.2902C22.1267 12.4298 22.4004 12.5732 22.4792 12.6638C22.7754 12.9732 22.6742 13.7015 22.9779 13.9279C22.9629 14.0864 22.8504 14.1845 22.6779 14.2827C23.0267 14.3921 23.1654 14.143 23.3042 14.1317C23.6342 14.1242 23.9904 14.1468 24.2604 13.8562C24.4629 13.6298 24.3842 13.611 24.5904 13.5166C24.7292 13.4638 25.0629 13.2449 24.9129 13.2147V13.2185Z" fill="#FF9900"/>
<path fill-rule="evenodd" clip-rule="evenodd" d="M24.2053 13.7885C24.1984 13.7843 24.1924 13.7787 24.1877 13.7722C24.1829 13.7656 24.1795 13.7582 24.1775 13.7503C24.1756 13.7424 24.1753 13.7342 24.1765 13.7262C24.1777 13.7182 24.1805 13.7105 24.1847 13.7036C24.1889 13.6966 24.1944 13.6906 24.2009 13.6858C24.2074 13.681 24.2148 13.6775 24.2226 13.6756C24.2305 13.6737 24.2386 13.6733 24.2466 13.6745C24.2545 13.6758 24.2622 13.6786 24.2691 13.6828C24.283 13.6913 24.293 13.705 24.2969 13.721C24.3007 13.7369 24.2982 13.7537 24.2897 13.7677C24.2812 13.7817 24.2676 13.7918 24.2518 13.7957C24.236 13.7996 24.2192 13.797 24.2053 13.7885V13.7885Z" fill="white"/>
<path d="M6 3H18V12.0566H6V3Z" fill="#012169"/>
<path d="M7.40625 3L11.9813 6.41509L16.5375 3H18V4.16981L13.5 7.54717L18 10.9057V12.0566H16.5L12 8.67924L7.51875 12.0566H6V10.9245L10.4813 7.56604L6 4.20755V3H7.40625Z" fill="white"/>
<path d="M13.95 8.30189L18 11.3019V12.0566L12.9188 8.30189H13.95ZM10.5 8.67924L10.6125 9.33962L7.0125 12.0566H6L10.5 8.67924ZM18 3V3.0566L13.3313 6.60377L13.3688 5.77358L17.0625 3H18ZM6 3L10.4813 6.32075H9.35625L6 3.79245V3Z" fill="#C8102E"/>
<path d="M10.5188 3V12.0566H13.5188V3H10.5188ZM6 6.01887V9.03774H18V6.01887H6Z" fill="white"/>
<path d="M6 6.64151V8.45283H18V6.64151H6ZM11.1188 3V12.0566H12.9188V3H11.1188Z" fill="#C8102E"/>
</g>
</g>
<defs>
<filter id="filter0_d_336_14646" x="0" y="-2" width="36" height="36" filterUnits="userSpaceOnUse" color-interpolation-filters="sRGB">
<feFlood flood-opacity="0" result="BackgroundImageFix"/>
<feColorMatrix in="SourceAlpha" type="matrix" values="0 0 0 0 0 0 0 0 0 0 0 0 0 0 0 0 0 0 127 0" result="hardAlpha"/>
<feOffset dy="4"/>
<feGaussianBlur stdDeviation="3"/>
<feComposite in2="hardAlpha" operator="out"/>
<feColorMatrix type="matrix" values="0 0 0 0 0 0 0 0 0 0 0 0 0 0 0 0 0 0 0.16 0"/>
<feBlend mode="normal" in2="BackgroundImageFix" result="effect1_dropShadow_336_14646"/>
<feBlend mode="normal" in="SourceGraphic" in2="effect1_dropShadow_336_14646" result="shape"/>
</filter>
<clipPath id="clip0_336_14646">
<rect width="24" height="18.1132" fill="white" transform="translate(6 3)"/>
</clipPath>
</defs>
</svg>
