<svg width="36" height="31" viewBox="0 0 36 31" fill="none" xmlns="http://www.w3.org/2000/svg">
<g filter="url(#filter0_d_336_27660)">
<g clip-path="url(#clip0_336_27660)">
<path d="M6 3H30V9H6V3Z" fill="#FF9933"/>
<path d="M6 9H30V15H6V9Z" fill="white"/>
<path d="M6 15H30V21H6V15Z" fill="#128807"/>
<path d="M17.9977 14.3996C19.3231 14.3996 20.3977 13.3251 20.3977 11.9996C20.3977 10.6741 19.3231 9.59961 17.9977 9.59961C16.6722 9.59961 15.5977 10.6741 15.5977 11.9996C15.5977 13.3251 16.6722 14.3996 17.9977 14.3996Z" fill="#000088"/>
<path d="M17.9984 14.0984C19.1582 14.0984 20.0984 13.1582 20.0984 11.9984C20.0984 10.8386 19.1582 9.89844 17.9984 9.89844C16.8386 9.89844 15.8984 10.8386 15.8984 11.9984C15.8984 13.1582 16.8386 14.0984 17.9984 14.0984Z" fill="white"/>
<path d="M17.9981 12.4181C18.2301 12.4181 18.4181 12.2301 18.4181 11.9981C18.4181 11.7662 18.2301 11.5781 17.9981 11.5781C17.7662 11.5781 17.5781 11.7662 17.5781 11.9981C17.5781 12.2301 17.7662 12.4181 17.9981 12.4181Z" fill="#000088"/>
<path d="M20.0711 12.3806C20.1302 12.3884 20.1845 12.3467 20.1922 12.2876C20.2 12.2285 20.1584 12.1742 20.0993 12.1664C20.0401 12.1587 19.9859 12.2003 19.9781 12.2594C19.9703 12.3186 20.0119 12.3728 20.0711 12.3806Z" fill="#000088"/>
<path d="M18.0017 14.0983L18.0737 12.8383L18.0017 12.2383L17.9297 12.8383L18.0017 14.0983Z" fill="#000088"/>
<path d="M19.8999 12.903C19.955 12.9258 20.0182 12.8997 20.041 12.8445C20.0639 12.7894 20.0377 12.7263 19.9826 12.7034C19.9275 12.6806 19.8643 12.7068 19.8415 12.7619C19.8187 12.817 19.8448 12.8802 19.8999 12.903Z" fill="#000088"/>
<path d="M17.4553 14.0281L17.851 12.8297L17.9367 12.2315L17.7119 12.7924L17.4553 14.0281Z" fill="#000088"/>
<path d="M19.5987 13.3641C19.646 13.4004 19.7138 13.3914 19.7501 13.3441C19.7865 13.2968 19.7775 13.229 19.7302 13.1927C19.6829 13.1564 19.6151 13.1653 19.5788 13.2126C19.5425 13.26 19.5514 13.3278 19.5987 13.3641Z" fill="#000088"/>
<path d="M16.9488 13.8167L17.6411 12.7615L17.8788 12.2059L17.5164 12.6895L16.9488 13.8167Z" fill="#000088"/>
<path d="M19.1913 13.7308C19.2276 13.7782 19.2954 13.7871 19.3427 13.7508C19.39 13.7145 19.3989 13.6467 19.3626 13.5994C19.3263 13.552 19.2585 13.5431 19.2112 13.5794C19.1639 13.6157 19.1549 13.6835 19.1913 13.7308Z" fill="#000088"/>
<path d="M16.513 13.4833L17.4549 12.6433L17.8283 12.1681L17.3531 12.5415L16.513 13.4833Z" fill="#000088"/>
<path d="M18.7011 13.9813C18.724 14.0364 18.7871 14.0625 18.8423 14.0397C18.8974 14.0169 18.9235 13.9537 18.9007 13.8986C18.8779 13.8435 18.8147 13.8173 18.7596 13.8402C18.7045 13.863 18.6783 13.9262 18.7011 13.9813Z" fill="#000088"/>
<path d="M16.1791 13.049L17.3063 12.4813L17.7899 12.119L17.2343 12.3566L16.1791 13.049Z" fill="#000088"/>
<path d="M18.1632 14.0943C18.171 14.1534 18.2253 14.195 18.2844 14.1872C18.3435 14.1794 18.3852 14.1252 18.3774 14.0661C18.3696 14.0069 18.3153 13.9653 18.2562 13.9731C18.1971 13.9809 18.1554 14.0351 18.1632 14.0943Z" fill="#000088"/>
<path d="M15.9681 12.5412L17.2038 12.2846L17.7647 12.0598L17.1665 12.1455L15.9681 12.5412Z" fill="#000088"/>
<path d="M17.6155 14.0652C17.6077 14.1243 17.6493 14.1786 17.7085 14.1864C17.7676 14.1942 17.8219 14.1525 17.8297 14.0934C17.8374 14.0343 17.7958 13.98 17.7367 13.9722C17.6775 13.9644 17.6233 14.0061 17.6155 14.0652Z" fill="#000088"/>
<path d="M15.8978 11.9978L17.1578 12.0698L17.7578 11.9978L17.1578 11.9258L15.8978 11.9978Z" fill="#000088"/>
<path d="M17.0911 13.896C17.0683 13.9511 17.0945 14.0143 17.1496 14.0371C17.2047 14.06 17.2679 14.0338 17.2907 13.9787C17.3135 13.9236 17.2874 13.8604 17.2323 13.8376C17.1771 13.8148 17.114 13.8409 17.0911 13.896Z" fill="#000088"/>
<path d="M15.9699 11.4553L17.1683 11.851L17.7665 11.9367L17.2056 11.7119L15.9699 11.4553Z" fill="#000088"/>
<path d="M16.6301 13.6007C16.5938 13.648 16.6027 13.7158 16.65 13.7521C16.6973 13.7884 16.7651 13.7795 16.8014 13.7322C16.8378 13.6848 16.8288 13.617 16.7815 13.5807C16.7342 13.5444 16.6664 13.5534 16.6301 13.6007Z" fill="#000088"/>
<path d="M16.1774 10.9507L17.2326 11.6431L17.7882 11.8807L17.3046 11.5184L16.1774 10.9507Z" fill="#000088"/>
<path d="M16.2672 13.1913C16.2199 13.2276 16.211 13.2954 16.2473 13.3427C16.2836 13.39 16.3514 13.3989 16.3987 13.3626C16.446 13.3263 16.4549 13.2585 16.4186 13.2112C16.3823 13.1639 16.3145 13.1549 16.2672 13.1913Z" fill="#000088"/>
<path d="M16.5128 10.515L17.3528 11.4569L17.828 11.8302L17.4546 11.355L16.5128 10.515Z" fill="#000088"/>
<path d="M16.0168 12.7031C15.9617 12.7259 15.9355 12.7891 15.9583 12.8442C15.9812 12.8993 16.0443 12.9255 16.0994 12.9027C16.1545 12.8798 16.1807 12.8167 16.1579 12.7615C16.1351 12.7064 16.0719 12.6803 16.0168 12.7031Z" fill="#000088"/>
<path d="M16.9491 10.1811L17.5167 11.3082L17.8791 11.7919L17.6414 11.2362L16.9491 10.1811Z" fill="#000088"/>
<path d="M15.8999 12.1652C15.8408 12.173 15.7991 12.2272 15.8069 12.2864C15.8147 12.3455 15.8689 12.3871 15.9281 12.3793C15.9872 12.3715 16.0288 12.3173 16.0211 12.2582C16.0133 12.199 15.959 12.1574 15.8999 12.1652Z" fill="#000088"/>
<path d="M17.453 9.97006L17.7095 11.2058L17.9344 11.7667L17.8486 11.1685L17.453 9.97006Z" fill="#000088"/>
<path d="M15.925 11.6175C15.8659 11.6097 15.8116 11.6513 15.8039 11.7104C15.7961 11.7696 15.8377 11.8238 15.8968 11.8316C15.956 11.8394 16.0102 11.7978 16.018 11.7386C16.0258 11.6795 15.9842 11.6252 15.925 11.6175Z" fill="#000088"/>
<path d="M17.9944 9.89977L17.9224 11.1598L17.9944 11.7598L18.0664 11.1598L17.9944 9.89977Z" fill="#000088"/>
<path d="M16.0962 11.095C16.0411 11.0722 15.9779 11.0984 15.9551 11.1535C15.9322 11.2086 15.9584 11.2718 16.0135 11.2946C16.0686 11.3174 16.1318 11.2913 16.1546 11.2362C16.1774 11.1811 16.1513 11.1179 16.0962 11.095Z" fill="#000088"/>
<path d="M18.5408 9.9699L18.1451 11.1683L18.0594 11.7665L18.2842 11.2056L18.5408 9.9699Z" fill="#000088"/>
<path d="M16.3974 10.634C16.3501 10.5977 16.2823 10.6066 16.2459 10.6539C16.2096 10.7012 16.2186 10.769 16.2659 10.8053C16.3132 10.8417 16.381 10.8327 16.4173 10.7854C16.4536 10.7381 16.4447 10.6703 16.3974 10.634Z" fill="#000088"/>
<path d="M19.0473 10.1813L18.355 11.2365L18.1173 11.7921L18.4797 11.3085L19.0473 10.1813Z" fill="#000088"/>
<path d="M16.8048 10.2672C16.7685 10.2199 16.7007 10.211 16.6534 10.2473C16.6061 10.2836 16.5972 10.3514 16.6335 10.3987C16.6698 10.446 16.7376 10.4549 16.7849 10.4186C16.8322 10.3823 16.8411 10.3145 16.8048 10.2672Z" fill="#000088"/>
<path d="M19.4831 10.5147L18.5412 11.3548L18.1678 11.8299L18.643 11.4566L19.4831 10.5147Z" fill="#000088"/>
<path d="M17.291 10.0168C17.2682 9.96167 17.205 9.93551 17.1499 9.95833C17.0948 9.98116 17.0687 10.0443 17.0915 10.0994C17.1143 10.1545 17.1775 10.1807 17.2326 10.1579C17.2877 10.1351 17.3139 10.0719 17.291 10.0168Z" fill="#000088"/>
<path d="M19.8131 10.9491L18.6859 11.5167L18.2023 11.8791L18.7579 11.6414L19.8131 10.9491Z" fill="#000088"/>
<path d="M17.829 9.90379C17.8212 9.84466 17.7669 9.80303 17.7078 9.81081C17.6487 9.8186 17.607 9.87285 17.6148 9.93199C17.6226 9.99112 17.6768 10.0328 17.736 10.025C17.7951 10.0172 17.8367 9.96293 17.829 9.90379Z" fill="#000088"/>
<path d="M20.0241 11.4569L18.7884 11.7134L18.2275 11.9383L18.8256 11.8525L20.0241 11.4569Z" fill="#000088"/>
<path d="M18.3767 9.93284C18.3845 9.8737 18.3428 9.81945 18.2837 9.81166C18.2246 9.80388 18.1703 9.84551 18.1625 9.90464C18.1547 9.96378 18.1964 10.018 18.2555 10.0258C18.3147 10.0336 18.3689 9.99197 18.3767 9.93284Z" fill="#000088"/>
<path d="M20.0944 12.0003L18.8344 11.9283L18.2344 12.0003L18.8344 12.0723L20.0944 12.0003Z" fill="#000088"/>
<path d="M18.901 10.102C18.9239 10.0469 18.8977 9.98374 18.8426 9.96091C18.7875 9.93809 18.7243 9.96426 18.7015 10.0194C18.6787 10.0745 18.7048 10.1376 18.7599 10.1605C18.815 10.1833 18.8782 10.1571 18.901 10.102Z" fill="#000088"/>
<path d="M20.0223 12.5427L18.8239 12.1471L18.2257 12.0613L18.7866 12.2862L20.0223 12.5427Z" fill="#000088"/>
<path d="M19.366 10.3974C19.4023 10.3501 19.3934 10.2823 19.3461 10.2459C19.2988 10.2096 19.231 10.2186 19.1947 10.2659C19.1583 10.3132 19.1673 10.381 19.2146 10.4173C19.2619 10.4536 19.3297 10.4447 19.366 10.3974Z" fill="#000088"/>
<path d="M19.8187 13.0473L18.7635 12.355L18.2079 12.1173L18.6915 12.4797L19.8187 13.0473Z" fill="#000088"/>
<path d="M19.7289 10.8068C19.7762 10.7705 19.7851 10.7027 19.7488 10.6554C19.7125 10.608 19.6447 10.5991 19.5974 10.6354C19.5501 10.6717 19.5412 10.7395 19.5775 10.7869C19.6138 10.8342 19.6816 10.8431 19.7289 10.8068Z" fill="#000088"/>
<path d="M19.4833 13.4831L18.6433 12.5412L18.1681 12.1678L18.5415 12.643L19.4833 13.4831Z" fill="#000088"/>
<path d="M19.9793 11.2949C20.0344 11.2721 20.0606 11.2089 20.0378 11.1538C20.0149 11.0987 19.9518 11.0726 19.8967 11.0954C19.8415 11.1182 19.8154 11.1814 19.8382 11.2365C19.861 11.2916 19.9242 11.3178 19.9793 11.2949Z" fill="#000088"/>
<path d="M19.047 13.817L18.4794 12.6898L18.117 12.2062L18.3547 12.7618L19.047 13.817Z" fill="#000088"/>
<path d="M20.0962 11.8329C20.1553 11.8251 20.197 11.7708 20.1892 11.7117C20.1814 11.6526 20.1272 11.6109 20.068 11.6187C20.0089 11.6265 19.9672 11.6808 19.975 11.7399C19.9828 11.799 20.0371 11.8407 20.0962 11.8329Z" fill="#000088"/>
<path d="M18.5431 14.028L18.2866 12.7923L18.0617 12.2314L18.1475 12.8296L18.5431 14.028Z" fill="#000088"/>
</g>
</g>
<defs>
<filter id="filter0_d_336_27660" x="0" y="-2" width="36" height="36" filterUnits="userSpaceOnUse" color-interpolation-filters="sRGB">
<feFlood flood-opacity="0" result="BackgroundImageFix"/>
<feColorMatrix in="SourceAlpha" type="matrix" values="0 0 0 0 0 0 0 0 0 0 0 0 0 0 0 0 0 0 127 0" result="hardAlpha"/>
<feOffset dy="4"/>
<feGaussianBlur stdDeviation="3"/>
<feComposite in2="hardAlpha" operator="out"/>
<feColorMatrix type="matrix" values="0 0 0 0 0 0 0 0 0 0 0 0 0 0 0 0 0 0 0.16 0"/>
<feBlend mode="normal" in2="BackgroundImageFix" result="effect1_dropShadow_336_27660"/>
<feBlend mode="normal" in="SourceGraphic" in2="effect1_dropShadow_336_27660" result="shape"/>
</filter>
<clipPath id="clip0_336_27660">
<rect width="24" height="18" fill="white" transform="translate(6 3)"/>
</clipPath>
</defs>
</svg>
