<svg width="36" height="31" viewBox="0 0 36 31" fill="none" xmlns="http://www.w3.org/2000/svg">
<g filter="url(#filter0_d_336_18004)">
<g clip-path="url(#clip0_336_18004)">
<path d="M6 3H30V21H6V3Z" fill="white"/>
<path d="M17.5443 17.948C17.5413 17.946 17.5388 17.9435 17.5368 17.9405H17.533L17.4843 17.888L17.3418 17.7193L17.158 17.483L17.1355 17.4493L16.903 17.378L16.7305 17.2993L16.8205 17.198L17.1355 17.3293L17.368 17.378L17.7993 17.6968L17.6755 17.8055C17.6315 17.8466 17.5901 17.8904 17.5518 17.9368L17.578 17.918L17.608 17.9405L17.548 17.948H17.5443ZM15.9468 17.468C15.7353 17.4661 15.5282 17.4079 15.3468 17.2993C15.3468 17.2993 15.373 17.2505 15.433 17.2093C15.493 17.1643 15.598 17.1155 15.7705 17.1118C15.973 17.1118 16.2205 17.183 16.5018 17.3143C16.3337 17.4135 16.1419 17.4653 15.9468 17.4643V17.468ZM15.0655 17.273C15.028 17.273 14.9905 17.258 14.968 17.2355C14.9468 17.2096 14.9325 17.1786 14.9268 17.1455C14.9168 17.1038 14.913 17.0608 14.9155 17.018C14.9312 17.0125 14.9477 17.0099 14.9643 17.0105C15.0393 17.0105 15.0993 17.0743 15.1255 17.138C15.1405 17.1755 15.1443 17.2055 15.133 17.2318C15.1255 17.2543 15.0955 17.2693 15.0655 17.2693V17.273ZM16.6143 17.093C16.093 17.018 15.8718 16.8305 15.778 16.6843C15.6805 16.5305 15.703 16.3843 15.703 16.3843C15.703 16.3843 15.733 16.3768 15.778 16.3768C15.9205 16.3768 16.273 16.448 16.6143 17.0893V17.093ZM15.5455 16.988C15.3243 16.988 15.1555 16.9505 15.043 16.8755C14.9949 16.8453 14.956 16.8025 14.9305 16.7518C14.9225 16.7327 14.9174 16.7124 14.9155 16.6918C15.001 16.6561 15.0929 16.6383 15.1855 16.6393C15.3194 16.6441 15.4509 16.6754 15.5726 16.7314C15.6942 16.7874 15.8036 16.867 15.8943 16.9655C15.7668 16.9805 15.6505 16.988 15.5455 16.988V16.988ZM14.4693 16.9505C14.2368 16.9505 13.9143 16.8755 13.7118 16.6768C13.7118 16.6768 13.933 16.6205 14.1768 16.613H14.2218C14.443 16.613 14.6118 16.6543 14.7243 16.7405C14.7618 16.7705 14.7843 16.7968 14.788 16.823C14.7918 16.8455 14.7805 16.868 14.758 16.8868C14.7055 16.9243 14.6155 16.9468 14.488 16.9468H14.4693V16.9505ZM13.708 16.5568C13.6935 16.5565 13.6793 16.553 13.6663 16.5465C13.6533 16.54 13.6419 16.5307 13.633 16.5193C13.6173 16.4969 13.6071 16.4713 13.603 16.4443C13.5918 16.3918 13.5955 16.3393 13.5955 16.3355C13.6073 16.3304 13.6201 16.3278 13.633 16.328C13.6668 16.328 13.693 16.3468 13.708 16.3655C13.7308 16.3864 13.7487 16.412 13.7605 16.4405C13.768 16.4743 13.7718 16.5005 13.7605 16.523C13.7605 16.538 13.738 16.5605 13.7118 16.5605L13.708 16.5568ZM15.4668 16.5193C15.4293 16.5193 15.3918 16.5043 15.3693 16.4818C15.348 16.4558 15.3338 16.4248 15.328 16.3918C15.3181 16.3501 15.3143 16.3071 15.3168 16.2643C15.3324 16.2587 15.3489 16.2562 15.3655 16.2568C15.4405 16.2568 15.5043 16.3205 15.5268 16.3843C15.5418 16.4218 15.5455 16.4518 15.538 16.478C15.5268 16.5005 15.5005 16.5155 15.463 16.5155L15.4668 16.5193ZM14.6118 16.4818C14.1393 16.4668 13.8918 16.3318 13.7718 16.2193C13.7195 16.1741 13.6762 16.1193 13.6443 16.058C13.6255 16.0205 13.618 15.9905 13.618 15.983C13.618 15.9755 13.663 15.968 13.7305 15.968H13.7455C13.903 15.968 14.2293 16.0355 14.608 16.4818H14.6118ZM15.1218 16.4368C14.8519 16.4074 14.6009 16.284 14.413 16.088C14.3438 16.0123 14.2914 15.9229 14.2593 15.8255C14.2593 15.8255 14.3043 15.8143 14.3718 15.8105C14.3843 15.8101 14.3968 15.8101 14.4093 15.8105C14.5968 15.8143 14.9455 15.9005 15.1218 16.4368ZM13.1718 16.2493C13.052 16.2504 12.9325 16.2378 12.8155 16.2118C12.6168 16.1593 12.5305 16.0843 12.493 16.028C12.4777 16.0055 12.4675 15.9799 12.463 15.953C12.4618 15.9431 12.4618 15.933 12.463 15.923C12.463 15.923 12.5943 15.8855 12.778 15.8818C12.8711 15.8794 12.9641 15.887 13.0555 15.9043C13.2468 15.9446 13.4172 16.0524 13.5355 16.208C13.5355 16.208 13.3855 16.253 13.1718 16.253V16.2493ZM14.053 15.9343C14.0357 15.9347 14.0184 15.9317 14.0023 15.9252C13.9862 15.9188 13.9715 15.9091 13.9593 15.8968C13.938 15.8708 13.9238 15.8398 13.918 15.8068C13.903 15.7468 13.9068 15.6868 13.9068 15.6793C13.921 15.6729 13.9362 15.6691 13.9518 15.668H13.9555C14.0305 15.668 14.0905 15.7355 14.1168 15.7993C14.1318 15.8368 14.1318 15.8668 14.1243 15.8893C14.113 15.9155 14.0868 15.9305 14.053 15.9305V15.9343ZM13.393 15.8405C13.2664 15.8046 13.1453 15.7516 13.033 15.683C12.868 15.5818 12.6618 15.4018 12.6393 15.1205L12.6768 15.1168H12.688C12.7368 15.1168 12.838 15.128 12.9618 15.2218C13.1193 15.3418 13.2618 15.5518 13.393 15.8405V15.8405ZM13.8243 15.8255C13.7209 15.7784 13.6248 15.7165 13.5393 15.6418C13.3198 15.4524 13.1488 15.2132 13.0405 14.9443C13.0405 14.9443 13.0743 14.9255 13.1268 14.9218C13.1293 14.9217 13.1318 14.9217 13.1343 14.9218H13.1493C13.2243 14.9218 13.333 14.9555 13.453 15.0868C13.5955 15.2368 13.7193 15.4843 13.828 15.8255H13.8243ZM12.703 15.7918C12.5568 15.7918 12.508 15.7168 12.493 15.6793C12.4785 15.6437 12.4733 15.6049 12.478 15.5668C12.5026 15.5613 12.5278 15.5588 12.553 15.5593C12.5996 15.5578 12.6459 15.5672 12.6882 15.5867C12.7305 15.6063 12.7677 15.6354 12.7968 15.6718C12.8043 15.6868 12.8268 15.7243 12.808 15.758C12.793 15.7805 12.7593 15.7955 12.703 15.7955V15.7918ZM12.3843 15.3868C12.2712 15.388 12.1583 15.3792 12.0468 15.3605C11.9193 15.338 11.848 15.2293 11.8068 15.1393C11.7693 15.0455 11.7543 14.9518 11.7543 14.9518C12.1518 14.963 12.343 15.0793 12.4293 15.1768C12.4837 15.2328 12.518 15.3054 12.5268 15.383C12.5268 15.383 12.4668 15.3905 12.3843 15.3905V15.3868ZM12.7968 14.9743C12.7647 14.9333 12.7347 14.8907 12.7068 14.8468C12.658 14.7718 12.6168 14.6968 12.6168 14.6368C12.6168 14.573 12.6018 14.4493 12.5943 14.3743L12.5718 14.2055C12.583 14.2055 12.8193 14.2955 12.8193 14.5205C12.8193 14.7455 12.7968 14.9705 12.7968 14.9705V14.9743ZM12.4893 14.9518H12.4818C12.2245 14.8747 11.9902 14.7357 11.7993 14.5468C11.7355 14.4718 11.6943 14.3518 11.683 14.1943C11.6755 14.0818 11.683 13.988 11.683 13.9768C11.6965 13.9732 11.7104 13.972 11.7243 13.973C11.7768 13.973 11.8368 13.9955 11.9118 14.048C11.9814 14.0973 12.0466 14.1525 12.1068 14.213C12.2268 14.333 12.3205 14.453 12.3205 14.453C12.3318 14.468 12.3955 14.5918 12.4518 14.7118C12.4781 14.7669 12.4982 14.8247 12.5118 14.8843C12.5155 14.9068 12.5193 14.9218 12.5118 14.9368C12.51 14.943 12.506 14.9483 12.5005 14.9518C12.4956 14.9529 12.4905 14.9529 12.4855 14.9518H12.4893Z" fill="#435125"/>
<path d="M16.7214 17.948C16.7243 17.946 16.7268 17.9435 16.7289 17.9405H16.7326L16.7814 17.888L16.9239 17.7193L17.1076 17.483L17.1301 17.4493L17.3626 17.378L17.5351 17.2993L17.4451 17.198L17.1301 17.3293L16.8976 17.378L16.4664 17.6968L16.5901 17.8055C16.6341 17.8466 16.6755 17.8904 16.7139 17.9368L16.6876 17.918L16.6576 17.9405L16.7176 17.948H16.7214ZM18.3189 17.468C18.5303 17.4661 18.7374 17.4079 18.9189 17.2993C18.9189 17.2993 18.8926 17.2505 18.8326 17.2093C18.7726 17.1643 18.6676 17.1155 18.4951 17.1118C18.2926 17.1118 18.0451 17.183 17.7639 17.3143C17.9319 17.4135 18.1237 17.4653 18.3189 17.4643V17.468ZM19.2001 17.273C19.2376 17.273 19.2751 17.258 19.2976 17.2355C19.3189 17.2096 19.3331 17.1786 19.3389 17.1455C19.3488 17.1038 19.3526 17.0608 19.3501 17.018C19.3345 17.0125 19.3179 17.0099 19.3014 17.0105C19.2264 17.0105 19.1664 17.0743 19.1401 17.138C19.1251 17.1755 19.1214 17.2055 19.1326 17.2318C19.1401 17.2543 19.1701 17.2693 19.2001 17.2693V17.273ZM17.6514 17.093C18.1726 17.018 18.3939 16.8305 18.4876 16.6843C18.5851 16.5305 18.5626 16.3843 18.5626 16.3843C18.5626 16.3843 18.5326 16.3768 18.4876 16.3768C18.3451 16.3768 17.9926 16.448 17.6514 17.0893V17.093ZM18.7201 16.988C18.9414 16.988 19.1101 16.9505 19.2226 16.8755C19.2707 16.8453 19.3096 16.8025 19.3351 16.7518C19.3431 16.7327 19.3482 16.7124 19.3501 16.6918C19.2646 16.6561 19.1727 16.6383 19.0801 16.6393C18.9463 16.6441 18.8147 16.6754 18.693 16.7314C18.5714 16.7874 18.462 16.867 18.3714 16.9655C18.4989 16.9805 18.6151 16.988 18.7201 16.988V16.988ZM19.7964 16.9505C20.0289 16.9505 20.3514 16.8755 20.5539 16.6768C20.5539 16.6768 20.3326 16.6205 20.0889 16.613H20.0439C19.8226 16.613 19.6539 16.6543 19.5414 16.7405C19.5039 16.7705 19.4814 16.7968 19.4776 16.823C19.4739 16.8455 19.4851 16.868 19.5076 16.8868C19.5601 16.9243 19.6501 16.9468 19.7776 16.9468H19.7964V16.9505ZM20.5576 16.5568C20.5721 16.5565 20.5864 16.553 20.5993 16.5465C20.6123 16.54 20.6237 16.5307 20.6326 16.5193C20.6483 16.4969 20.6585 16.4713 20.6626 16.4443C20.6739 16.3918 20.6701 16.3393 20.6701 16.3355C20.6583 16.3304 20.6455 16.3278 20.6326 16.328C20.5989 16.328 20.5726 16.3468 20.5576 16.3655C20.5348 16.3864 20.5169 16.412 20.5051 16.4405C20.4976 16.4743 20.4939 16.5005 20.5051 16.523C20.5051 16.538 20.5276 16.5605 20.5539 16.5605L20.5576 16.5568ZM18.7989 16.5193C18.8364 16.5193 18.8739 16.5043 18.8964 16.4818C18.9176 16.4558 18.9318 16.4248 18.9376 16.3918C18.9476 16.3501 18.9514 16.3071 18.9489 16.2643C18.9332 16.2587 18.9167 16.2562 18.9001 16.2568C18.8251 16.2568 18.7614 16.3205 18.7389 16.3843C18.7239 16.4218 18.7201 16.4518 18.7276 16.478C18.7389 16.5005 18.7651 16.5155 18.8026 16.5155L18.7989 16.5193ZM19.6539 16.4818C20.1264 16.4668 20.3739 16.3318 20.4939 16.2193C20.5462 16.1741 20.5894 16.1193 20.6214 16.058C20.6401 16.0205 20.6476 15.9905 20.6476 15.983C20.6476 15.9755 20.6026 15.968 20.5351 15.968H20.5201C20.3626 15.968 20.0364 16.0355 19.6576 16.4818H19.6539ZM19.1439 16.4368C19.4137 16.4074 19.6647 16.284 19.8526 16.088C19.9218 16.0123 19.9742 15.9229 20.0064 15.8255C20.0064 15.8255 19.9614 15.8143 19.8939 15.8105C19.8814 15.8101 19.8689 15.8101 19.8564 15.8105C19.6689 15.8143 19.3201 15.9005 19.1439 16.4368ZM21.0939 16.2493C21.2136 16.2504 21.3332 16.2378 21.4501 16.2118C21.6489 16.1593 21.7351 16.0843 21.7726 16.028C21.7879 16.0055 21.7982 15.9799 21.8026 15.953C21.8038 15.9431 21.8038 15.933 21.8026 15.923C21.8026 15.923 21.6714 15.8855 21.4876 15.8818C21.3946 15.8794 21.3015 15.887 21.2101 15.9043C21.0188 15.9446 20.8484 16.0524 20.7301 16.208C20.7301 16.208 20.8801 16.253 21.0939 16.253V16.2493ZM20.2126 15.9343C20.23 15.9347 20.2472 15.9317 20.2633 15.9252C20.2795 15.9188 20.2941 15.9091 20.3064 15.8968C20.3276 15.8708 20.3418 15.8398 20.3476 15.8068C20.3626 15.7468 20.3589 15.6868 20.3589 15.6793C20.3446 15.6729 20.3294 15.6691 20.3139 15.668H20.3101C20.2351 15.668 20.1751 15.7355 20.1489 15.7993C20.1339 15.8368 20.1339 15.8668 20.1414 15.8893C20.1526 15.9155 20.1789 15.9305 20.2126 15.9305V15.9343ZM20.8726 15.8405C20.9992 15.8046 21.1203 15.7516 21.2326 15.683C21.3976 15.5818 21.6039 15.4018 21.6264 15.1205L21.5889 15.1168H21.5776C21.5289 15.1168 21.4276 15.128 21.3039 15.2218C21.1464 15.3418 21.0039 15.5518 20.8726 15.8405V15.8405ZM20.4414 15.8255C20.5448 15.7784 20.6408 15.7165 20.7264 15.6418C20.9458 15.4524 21.1168 15.2132 21.2251 14.9443C21.2251 14.9443 21.1914 14.9255 21.1389 14.9218C21.1364 14.9217 21.1339 14.9217 21.1314 14.9218H21.1164C21.0414 14.9218 20.9326 14.9555 20.8126 15.0868C20.6701 15.2368 20.5464 15.4843 20.4376 15.8255H20.4414ZM21.5626 15.7918C21.7089 15.7918 21.7576 15.7168 21.7726 15.6793C21.7871 15.6437 21.7923 15.6049 21.7876 15.5668C21.763 15.5613 21.7378 15.5588 21.7126 15.5593C21.666 15.5578 21.6198 15.5672 21.5774 15.5867C21.5351 15.6063 21.498 15.6354 21.4689 15.6718C21.4614 15.6868 21.4389 15.7243 21.4576 15.758C21.4726 15.7805 21.5064 15.7955 21.5626 15.7955V15.7918ZM21.8814 15.3868C21.9944 15.388 22.1073 15.3792 22.2189 15.3605C22.3464 15.338 22.4176 15.2293 22.4589 15.1393C22.4964 15.0455 22.5114 14.9518 22.5114 14.9518C22.1139 14.963 21.9226 15.0793 21.8364 15.1768C21.7819 15.2328 21.7476 15.3054 21.7389 15.383C21.7389 15.383 21.7989 15.3905 21.8814 15.3905V15.3868ZM21.4689 14.9743C21.5009 14.9333 21.5309 14.8907 21.5589 14.8468C21.6076 14.7718 21.6489 14.6968 21.6489 14.6368C21.6489 14.573 21.6639 14.4493 21.6714 14.3743L21.6939 14.2055C21.6826 14.2055 21.4464 14.2955 21.4464 14.5205C21.4464 14.7455 21.4689 14.9705 21.4689 14.9705V14.9743ZM21.7764 14.9518H21.7839C22.0411 14.8747 22.2755 14.7357 22.4664 14.5468C22.5301 14.4718 22.5714 14.3518 22.5826 14.1943C22.5901 14.0818 22.5826 13.988 22.5826 13.9768C22.5692 13.9732 22.5552 13.972 22.5414 13.973C22.4889 13.973 22.4289 13.9955 22.3539 14.048C22.2842 14.0973 22.219 14.1525 22.1589 14.213C22.0389 14.333 21.9451 14.453 21.9451 14.453C21.9339 14.468 21.8701 14.5918 21.8139 14.7118C21.7875 14.7669 21.7674 14.8247 21.7539 14.8843C21.7501 14.9068 21.7464 14.9218 21.7539 14.9368C21.7556 14.943 21.7596 14.9483 21.7651 14.9518C21.77 14.9529 21.7752 14.9529 21.7801 14.9518H21.7764Z" fill="#435125"/>
<path d="M25.4637 5.86523L25.3963 5.89148L25.3663 5.90273L25.2838 5.89898L25.2012 5.93648L25.0588 6.03398L25.055 6.03773L24.9987 6.05273L24.95 6.03023L24.9237 6.04523L24.9125 6.10148L24.8862 6.14273L24.8525 6.16523L24.74 6.17648L24.6463 6.22898L24.5187 6.19148L24.4625 6.21773L24.3387 6.33023L24.275 6.35648H24.2562L24.17 6.35273L24.1362 6.36398L24.0838 6.41273L23.9862 6.42023L23.9525 6.44273L23.9037 6.54023L23.8512 6.60023L23.8213 6.60398L23.7912 6.59273L23.765 6.59648L23.7537 6.66023L23.7312 6.68648L23.6637 6.70898L23.6112 6.75398L23.5625 6.77648H23.4875L23.4237 6.81398L23.3075 6.82148L23.2588 6.86648L23.2475 6.87773L23.225 6.88898L23.1875 6.91148L23.18 6.91898L23.135 6.91148L23.0825 6.93023L23.06 6.90023L23.0225 6.91898L22.9775 6.92273L22.9175 6.89648L22.8687 6.87398L22.835 6.88148L22.8237 6.93773V6.94523L22.7862 6.99023L22.7225 7.03148L22.715 7.04273L22.64 7.14023L22.4975 7.29023L22.3775 7.35023L22.2537 7.38773L22.1675 7.45898L21.9425 7.57148L21.5787 7.75148L21.5037 7.77398L21.3987 7.78898L21.2112 7.86023L21.0463 7.90898L21.035 7.91273L21.005 7.92398L20.7687 7.99523L20.66 7.98023L20.5963 8.00648L20.4275 7.98773H20.3112L20.2362 8.00273L20.0975 8.07023L19.8612 8.18273L19.7862 8.25773L19.6662 8.31773L19.5237 8.36273V8.30273L19.475 8.31773L19.4375 8.32898L19.325 8.34398H19.2612L19.22 8.33273H19.2125L18.98 8.41148L18.7175 8.43773L18.5862 8.47898H18.4887L18.4287 8.49773L18.3087 8.51273L18.2637 8.50148L18.2562 8.49773L17.9037 8.51273L17.7425 8.49398L17.6675 8.51273L17.5362 8.46773L17.3487 8.44523L17.3037 8.43398L17.2062 8.40398L17.1612 8.43023L17.1237 8.43398L17.0487 8.40398H17.0187L16.9512 8.42648L16.9137 8.41898L16.8762 8.38898L16.7975 8.37773L16.745 8.33648L16.4637 8.37398L16.3887 8.35148L16.13 8.27648H16.0925L16.04 8.31398L15.965 8.34398L15.8937 8.35898L15.8037 8.36273L15.6987 8.33648L15.5937 8.28398L15.5525 8.27273L15.4625 8.28398H15.4362L15.2712 8.19773L15.0612 8.06648L14.9187 7.99523L14.8625 7.98773L14.855 8.01398L14.8812 8.09648L14.8925 8.18273V8.25773L14.8887 8.30648L14.9 8.34773L14.9525 8.40773L14.975 8.46398L14.99 8.62148V8.78273L14.9637 9.03773L14.9562 9.07523L14.9262 9.21023L14.9 9.33398L14.7912 9.66023L14.765 9.69773L14.69 9.74648L14.5287 9.85898L14.4087 9.92648L14.3712 9.94148L14.2737 9.94898H14.2137L14.1387 9.90773L14.0637 9.88898L13.9662 9.81773L13.8612 9.79523L13.7412 9.72773L13.7112 9.69023L13.6475 9.68273L13.5575 9.65648L13.5237 9.64523L13.5012 9.64148L13.3887 9.63773L13.28 9.58898L13.2237 9.57398H13.1487L13.07 9.61148L13.0287 9.62648L12.9762 9.60773H12.9387L12.9012 9.67148L12.8937 9.68273L12.8637 9.69773H12.8L12.77 9.70898L12.7287 9.72773L12.6912 9.74273L12.6725 9.75023H12.6612L12.6425 9.75773H12.62L12.575 9.73523L12.5525 9.72398L12.515 9.71648L12.4962 9.72773L12.4925 9.79898L12.4738 9.84023L12.4137 9.89273L12.3537 9.94523L12.3162 10.0052L12.2037 10.2565L12.1325 10.3577L12.1137 10.384L12.0387 10.4627L11.975 10.5115L11.8287 10.624L11.69 10.6802L11.57 10.7027H11.51L11.3975 10.6877L11.3 10.6577L11.1875 10.5902L11.0712 10.4927L10.895 10.324L10.8725 10.309L10.865 10.3052L10.8125 10.2677H10.7712L10.7562 10.2977L10.745 10.3352L10.7375 10.369L10.7188 10.5565V10.5677L10.73 10.6465L10.865 10.834L10.9025 10.9315L10.91 10.9427L10.9363 10.9877L10.9587 11.0252L11.0075 11.1602L10.9738 11.2352L10.9887 11.2877L10.9512 11.3177L10.9437 11.3627L11.06 11.5127L11.0863 11.5765L11.06 11.6665L11.0113 11.719L11 11.7302L11.0075 11.7677L11.06 11.8202L11.1537 11.9027L11.2025 12.0227L11.24 12.0602L11.285 12.049L11.3075 12.0677H11.345L11.3825 12.1052L11.405 12.1127L11.4425 12.1315L11.4725 12.169L11.4762 12.289L11.5325 12.4315V12.5252L11.57 12.5815L11.5775 12.6265L11.5587 12.7502L11.6037 12.7877L11.6488 12.7802L11.6787 12.784L11.7275 12.8252L11.7875 12.9152L11.8475 12.9077L11.885 12.9227L12.0613 13.084L12.0988 13.1065L12.1325 13.1215L12.17 13.159L12.2225 13.1215H12.23L12.29 13.114L12.3162 13.1327L12.3687 13.1665H12.4325L12.5825 13.2115L12.6425 13.2265L12.77 13.3052L12.8262 13.339L12.8562 13.3652L12.9012 13.4027L12.9837 13.4402L13.0587 13.4552L13.0962 13.4627L13.13 13.474L13.2875 13.5377L13.3737 13.5565L13.4487 13.5865L13.5087 13.6052H13.5537L13.6137 13.5565H13.67L13.7187 13.564L13.7675 13.5565L13.8425 13.5115L13.8537 13.489L13.9062 13.4665L14.0862 13.444L14.1387 13.459L14.2737 13.4027L14.3637 13.4252L14.4387 13.399L14.615 13.4365L14.66 13.4702L14.7125 13.5265H14.7762L14.75 13.5677L14.825 13.6502L14.8962 13.7515L14.9 13.7665L14.9487 13.9127L14.9862 13.9652L15.0125 14.0365V14.0815L14.975 14.1152L14.9675 14.1302V14.1377L14.975 14.1565L14.99 14.149L15.0162 14.134L15.0537 14.1265L15.1137 14.134L15.155 14.1377L15.2187 14.1077L15.2637 14.0852L15.3312 14.1152H15.4062L15.44 14.1265L15.53 14.1677L15.575 14.1715L15.59 14.1602L15.6012 14.1377L15.5975 14.1077L15.56 14.0665L15.485 13.9765L15.455 13.9315L15.4325 13.8677L15.425 13.7852L15.4175 13.729L15.4287 13.654L15.4475 13.6277L15.4625 13.5677L15.4662 13.5527L15.5112 13.4965L15.6237 13.4215L15.7437 13.3165L15.8375 13.2527L15.935 13.2115V13.2002L15.95 13.204L16.1975 13.1177L16.31 13.099L17.06 13.1515L17.0862 13.144L17.1125 13.0727L17.1237 13.0615L17.135 13.054L17.2175 13.0165L17.255 13.009L17.36 13.0352L17.405 13.0465L17.4762 13.009H17.525L17.6262 12.9527H17.69L17.7162 12.9452L17.84 12.8552L17.9562 12.8215L17.9862 12.8065L17.9975 12.799L18.1212 12.7352L18.1962 12.6752L18.2637 12.6377L18.3387 12.6227L18.5262 12.6077L18.5675 12.544L18.65 12.5327L18.6987 12.4765L18.755 12.454L18.7962 12.394L18.8337 12.3452L18.8787 12.319L19.0325 12.3077L19.2125 12.3302L19.2387 12.3152L19.2762 12.169L19.3212 12.1427L19.4337 11.974V11.914L19.4375 11.8615L19.4562 11.7865L19.445 11.659L19.46 11.524L19.5312 11.3552L19.595 11.2877L19.6962 11.2165L19.7487 11.194L19.8237 11.1827H19.8312L19.85 11.1752H20.195L20.2812 11.1715L20.495 11.209H20.51L20.5812 11.2352L20.6637 11.299L20.7537 11.3852L20.7687 11.4002L20.825 11.4265L20.8437 11.434L20.8887 11.4265L20.9562 11.389L21.0088 11.3515L21.0762 11.314V11.3065L21.1175 11.2502L21.1325 11.224L21.2675 11.1715L21.425 11.164L21.4437 11.1527H21.4512L21.4925 11.1002H21.53L21.6275 11.1377L21.6912 11.1227L21.7437 11.1415L21.785 11.1377L21.86 11.1265L21.9463 11.1865L21.995 11.194L22.1637 11.2915H22.1787L22.1862 11.2952L22.205 11.2877L22.235 11.2802H22.2387L22.2425 11.284L22.265 11.3102L22.2912 11.314L22.3213 11.2765L22.31 11.254L22.3062 11.2465L22.2425 11.2352L22.19 11.1415L22.2425 11.0852L22.16 10.9877L22.145 10.969V10.9652L22.115 10.9202L21.9725 10.7027L21.785 10.5527L21.7213 10.504L21.6987 10.4852L21.5975 10.384L21.5262 10.2902L21.5187 10.2715L21.5037 10.2377L21.4625 10.1477L21.3875 10.0915L21.3275 10.024L21.2 9.85148L21.1812 9.82523L21.1512 9.80648H21.0875L21.0838 9.79898H21.08V9.79523L21.11 9.76523L21.1475 9.75773L21.1588 9.72398L21.095 9.54023V9.53273L21.0912 9.47648L21.14 9.21023L21.1475 9.17648L21.2375 9.00023L21.29 8.95523L21.35 8.83898L21.4025 8.76398L21.4512 8.71523L21.4588 8.71148L21.545 8.65898L21.62 8.64773L21.6912 8.63648L21.815 8.67398H21.9275L21.9537 8.67023L22.0062 8.66273L22.0925 8.63648L22.1338 8.61023L22.1562 8.58023L22.2012 8.43023L22.2162 8.38148L22.2425 8.32898L22.4037 8.14523L22.5237 8.03273L22.7937 7.83773L22.925 7.75898L22.9925 7.71773L23.5963 7.44773L23.7537 7.29023L23.8362 7.20773L23.9787 7.11023L24.1475 7.03898L24.2975 6.92648L24.3275 6.88523L24.365 6.75398L24.4025 6.74648L24.4287 6.68273L24.44 6.66398L24.5562 6.58148L24.5713 6.57398L25.0325 6.34148L25.1 6.35273L25.1375 6.29648L25.2687 6.27398H25.295L25.3288 6.25523L25.355 6.20648V6.19523L25.3588 6.06773L25.3887 6.03398L25.4038 5.95148L25.4187 5.92898L25.4338 5.91023L25.4713 5.88398L25.4637 5.86898V5.86523Z" fill="#D47600"/>
</g>
</g>
<defs>
<filter id="filter0_d_336_18004" x="0" y="-2" width="36" height="36" filterUnits="userSpaceOnUse" color-interpolation-filters="sRGB">
<feFlood flood-opacity="0" result="BackgroundImageFix"/>
<feColorMatrix in="SourceAlpha" type="matrix" values="0 0 0 0 0 0 0 0 0 0 0 0 0 0 0 0 0 0 127 0" result="hardAlpha"/>
<feOffset dy="4"/>
<feGaussianBlur stdDeviation="3"/>
<feComposite in2="hardAlpha" operator="out"/>
<feColorMatrix type="matrix" values="0 0 0 0 0 0 0 0 0 0 0 0 0 0 0 0 0 0 0.16 0"/>
<feBlend mode="normal" in2="BackgroundImageFix" result="effect1_dropShadow_336_18004"/>
<feBlend mode="normal" in="SourceGraphic" in2="effect1_dropShadow_336_18004" result="shape"/>
</filter>
<clipPath id="clip0_336_18004">
<rect width="24" height="18" fill="white" transform="translate(6 3)"/>
</clipPath>
</defs>
</svg>
