<svg width="36" height="32" viewBox="0 0 36 32" fill="none" xmlns="http://www.w3.org/2000/svg">
<g filter="url(#filter0_d_336_14426)">
<g clip-path="url(#clip0_336_14426)">
<path d="M6 3H30V21.1132H6V3Z" fill="#000066"/>
<path d="M5.97656 12.0566L29.9766 3V21.1132L5.97656 12.0566Z" fill="#BD1021"/>
<path d="M8.23828 12.0575L29.9883 3.9707V20.1443" fill="white"/>
<path d="M23.7736 13.2028C23.9648 13.2142 23.9611 13.4066 23.9611 13.4066L24.6361 13.4217C24.7223 13.184 24.8161 13.2104 24.9811 13.3311C25.0815 13.3998 25.1914 13.4532 25.3073 13.4896C25.3711 13.15 25.8511 13.2179 25.8511 13.2179C26.0611 12.7274 26.0761 12.7311 25.9523 12.6708C25.8789 12.6333 25.8187 12.574 25.7798 12.501C25.6673 12.3613 25.6073 12.1576 25.5923 12.033C25.5773 11.9085 25.4348 12.0934 25.4048 12.0557C25.3823 12.0179 25.1686 12.0406 25.1686 12.0406C25.2211 12.0972 25.0411 12.0632 25.0411 12.0632C25.0598 12.0783 25.0411 12.1274 25.0411 12.1274C25.0261 12.1047 24.8873 12.0821 24.8873 12.0821C24.8769 12.1043 24.863 12.1247 24.8461 12.1425C24.7711 12.1123 24.6211 12.116 24.6211 12.116C24.4776 12.1112 24.3357 12.1478 24.2123 12.2217C24.1523 12.2557 23.9348 12.3651 23.7511 12.5425C23.5748 12.716 23.4736 12.6934 23.4736 12.6934C23.4211 12.8896 22.9936 13.1274 22.9936 13.1274C22.9261 13.1877 22.7086 13.2179 22.5998 13.1274C22.4911 13.0368 22.5998 12.867 22.5998 12.867C22.6448 12.7915 22.6823 12.7953 22.6861 12.5274C22.6898 12.35 22.8736 12.2066 23.0611 11.9991C23.2973 11.7425 23.6236 11.3198 23.6236 11.3198C23.6236 11.4481 23.6911 11.4708 23.6911 11.4708C23.7548 11.3387 23.8486 11.233 23.8486 11.233C23.8523 11.2443 23.8673 11.2481 23.8673 11.2481C23.9423 11.15 23.9798 11.1123 23.9798 11.1123C23.9611 11.101 23.7548 11.1123 23.5673 11.2783C23.3798 11.4443 23.2523 11.3915 23.2523 11.3915C23.1211 11.3462 23.1098 11.2406 23.1098 11.2406C23.0161 10.8293 23.3873 10.5349 23.3873 10.5349C22.8848 10.4142 23.2486 9.76888 23.8748 9.49718C24.4973 9.22548 24.4898 9.10095 24.4898 9.10095C24.5173 9.13545 24.54 9.17353 24.5573 9.21416C24.5611 9.21416 24.6098 9.14246 24.9698 8.98397C25.3298 8.82171 25.5023 8.68208 25.5023 8.68208C25.5473 8.77265 25.5398 8.83303 25.5398 8.83303C26.5261 8.48963 27.4898 7.6934 27.4898 7.6934C27.5198 7.75755 27.5086 7.85944 27.5086 7.85944C27.6661 7.7085 28.2473 7.36133 28.2473 7.36133C28.2515 7.42419 28.2375 7.48692 28.2068 7.54187C28.1762 7.59681 28.1303 7.6416 28.0748 7.67076C28.0894 7.69791 28.0995 7.72721 28.1048 7.75755C28.2877 7.64242 28.4677 7.52288 28.6448 7.39906C28.8061 7.53869 28.6598 7.76888 28.6598 7.76888C28.7198 7.75755 28.7573 7.7085 28.7573 7.7085C28.8023 7.95001 28.5361 8.16133 28.5361 8.16133C28.5848 8.16133 28.6598 8.11227 28.6598 8.11227C28.6111 8.37642 28.1198 8.66322 28.1198 8.66322C28.1911 8.73114 28.1198 8.81416 28.0598 8.85189C28.0036 8.88963 27.8986 8.97642 27.9323 9.01038C27.9623 9.04812 28.1836 8.88963 28.1836 8.88963C28.2211 8.99906 27.9398 9.21416 27.9398 9.21416C28.1348 9.24057 28.6748 8.99152 28.6748 8.99152C28.6336 9.20284 28.4273 9.36888 28.1761 9.46322C27.9248 9.55755 27.9361 9.57642 27.9361 9.57642C27.9811 9.60661 28.3298 9.5085 28.3298 9.5085C28.2248 9.74246 27.8611 9.90472 27.8611 9.90472C27.9623 9.99152 28.0973 9.88963 28.2361 9.79529C28.3997 9.69175 28.5762 9.61054 28.7611 9.55378C28.9598 9.48208 29.1061 9.53491 29.1061 9.53491C29.2786 9.48208 29.4211 9.55755 29.4211 9.55755C29.7473 9.58397 29.7811 9.70472 29.7811 9.70472C29.8186 9.71227 29.8448 9.72737 29.9311 9.79152C30.0098 9.85189 30.0061 10.0406 30.0061 10.1387C29.9986 10.2293 29.9723 10.2293 29.9573 10.2519C29.9423 10.2821 29.9386 10.3123 29.9386 10.3462C29.9386 10.384 29.8561 10.6066 29.3498 10.6066H28.5886C28.5436 10.6066 28.4948 10.633 28.4948 10.633C28.2811 10.7387 28.3936 10.5576 28.1423 10.7689C27.8873 10.9764 27.7598 10.9425 27.7598 10.9425C27.6182 11.0882 27.4638 11.2208 27.2986 11.3387C27.1486 11.4368 27.1748 11.4255 27.3098 11.4821C27.4448 11.5387 27.6398 11.4821 27.6398 11.4821C27.5123 11.5689 27.6023 11.6104 27.6023 11.6104C27.7673 11.5085 27.8723 11.5462 27.8723 11.5462C27.9248 11.6934 27.7298 11.9236 27.7298 11.9236C27.8048 11.9349 27.9473 11.9236 27.9473 11.9236C27.9098 12.0255 27.7748 12.1349 27.6698 12.1651C27.5686 12.2028 27.5836 12.2142 27.6173 12.2783C27.6436 12.3387 27.6211 12.4028 27.6211 12.4028C27.4411 12.2783 27.4336 12.3877 27.4336 12.3877C27.4148 12.5387 27.4186 12.75 27.4186 12.75C27.2911 12.6859 27.2873 12.7689 27.2873 12.7689C27.2498 12.9047 27.0961 13.0594 27.0961 13.0594C27.0886 12.9764 27.0136 12.9538 27.0136 12.9538C26.9311 13.1123 26.7848 13.2066 26.7848 13.2066C26.7661 13.3387 26.8036 13.5311 26.8036 13.5311C26.7061 13.5085 26.6723 13.5085 26.6536 13.5311C26.6423 13.5576 26.6761 13.5689 26.6761 13.5689L27.9286 13.5991C27.9473 13.5991 28.0223 13.6104 28.0223 13.7425C28.0223 13.8821 27.9098 13.8896 27.9098 13.8896L26.5448 13.8557C26.5448 13.8557 26.5486 13.8934 26.4773 13.9311C26.4061 13.9689 26.4323 13.8896 26.4136 14.0594C26.3911 14.2255 26.1211 14.0443 26.1211 14.0443C26.0761 14.1123 25.9711 14.1953 25.9711 14.1953C25.9073 14.0066 25.8436 13.9538 25.7461 14.1123C25.6486 14.2745 25.9261 14.2481 25.9261 14.2481C25.9261 14.2481 27.5311 14.0104 27.6173 14.0028C27.7036 13.9915 27.8011 13.9991 27.8423 14.1198C27.8798 14.2443 27.6436 14.2632 27.6436 14.2632L25.9936 14.4443C25.9598 14.5425 25.8248 14.5349 25.8248 14.5349C25.8361 14.6293 25.7386 14.6859 25.6898 14.7236C25.6373 14.7538 25.4798 14.7425 25.4798 14.7425C25.2923 14.8708 25.1948 14.7689 25.1948 14.7689C25.0711 14.8217 24.9923 14.7991 24.8911 14.7538C24.7861 14.7085 24.7973 14.584 24.7973 14.584L23.7548 14.6972C23.7248 14.7069 23.6968 14.7223 23.6723 14.7425C23.7098 14.7915 23.5973 14.9047 23.5973 14.9047C23.6311 14.9236 23.6911 14.984 23.6986 15.1123C23.7061 15.2519 23.5298 15.2745 23.6161 15.3764C23.7023 15.4708 23.8673 15.3877 24.0473 15.301C24.2273 15.2142 24.4036 15.2255 24.4786 15.2255C24.5536 15.2255 24.7711 15.2859 24.9061 15.3311C25.0411 15.3764 25.0861 15.3462 25.0936 15.2783C25.1011 15.2142 25.1648 15.1915 25.1648 15.1915C25.1461 15.2594 25.1836 15.2896 25.1836 15.2896C25.2324 15.2818 25.2794 15.2652 25.3223 15.2406C25.3148 15.2934 25.2473 15.3236 25.2473 15.3236C25.1198 15.4104 25.2998 15.3802 25.2998 15.3802C25.6561 15.3047 25.7873 15.3123 25.8773 15.3236C26.06 15.3778 26.2391 15.4433 26.4136 15.5198C26.4286 15.4745 26.4173 15.3689 26.4173 15.3689C26.5298 15.3991 26.5748 15.4632 26.5748 15.4632C26.6198 15.4179 26.5898 15.3349 26.5898 15.3349C26.9536 15.5425 26.5148 15.6368 26.3986 15.6745C26.2861 15.7123 26.2861 15.7613 26.2861 15.7613C26.3798 15.7311 26.4473 15.7198 26.5261 15.7123C26.6086 15.7047 26.5786 15.7123 26.7698 15.6745C26.9648 15.6368 27.0623 15.7198 27.0623 15.7198C26.9011 15.7274 26.8561 15.7764 26.8561 15.7764C26.9536 15.8406 26.8561 15.9047 26.8561 15.9047C26.7136 15.716 26.5861 15.9085 26.5861 15.9085C26.6689 15.9085 26.7508 15.9265 26.8261 15.9613L27.0286 16.0632C27.1636 16.1236 27.1373 16.0859 27.2386 16.1236C27.3436 16.1613 27.3023 16.2632 27.3023 16.2632C27.2611 16.1802 27.1636 16.15 27.1636 16.15C27.1561 16.2632 27.0473 16.2821 27.0473 16.2821C27.1823 16.1311 26.8936 16.0632 26.7548 16.067C26.6198 16.067 26.5186 16.1576 26.5186 16.1576C26.7923 16.4179 26.9798 16.3311 26.9798 16.3311C26.9461 16.4255 26.7211 16.3877 26.7211 16.3877C26.8261 16.4708 26.8148 16.5236 26.8148 16.5236C26.7586 16.4708 26.6648 16.4972 26.4698 16.3726C26.2748 16.2406 26.0986 16.2859 26.0986 16.2859C26.2936 16.4859 26.0311 16.6104 26.0311 16.6104C25.9336 16.6708 26.0686 16.7425 26.0686 16.7425C25.9486 16.7651 25.9336 16.6443 25.9336 16.6443C25.8698 16.6293 25.7761 16.7047 25.7761 16.7047C25.7836 16.584 25.9486 16.6443 25.9486 16.516C25.9561 16.384 25.7986 16.2821 25.3373 16.3462C24.8723 16.4104 24.7373 16.2632 24.7373 16.2632C24.6998 16.2632 24.6923 16.301 24.6923 16.301C24.7673 16.3764 24.8011 16.4066 24.7898 16.4594C24.7748 16.5085 24.8123 16.5274 24.8123 16.5274C24.7261 16.5198 24.7223 16.4217 24.7223 16.4217C24.7223 16.4632 24.7036 16.467 24.6736 16.5085C24.6436 16.55 24.6736 16.6104 24.6736 16.6104C24.6361 16.5802 24.5723 16.5425 24.6361 16.4481C24.6811 16.3802 24.5348 16.2896 24.5348 16.2896C24.4786 16.233 24.3248 16.2896 24.3248 16.2896C24.2367 16.3086 24.1453 16.3058 24.0584 16.2815C23.9716 16.2571 23.8919 16.212 23.8261 16.15C23.7886 16.15 23.7173 16.1274 23.7173 16.1274C23.3836 16.2783 23.0911 15.9538 23.0911 15.9538C22.8398 16.0028 22.7236 15.8783 22.6486 15.7576C22.6054 15.6752 22.537 15.6091 22.4536 15.5689C22.3561 15.5085 22.2586 15.3349 22.3561 15.2406C22.4311 15.1613 22.4123 15.1425 22.4123 15.1425C22.2811 14.9198 22.6411 14.8519 22.6486 14.7953C22.6598 14.7198 22.7348 14.6708 22.8173 14.667C22.8998 14.6594 22.8998 14.667 22.9561 14.6142C23.0048 14.5576 23.1061 14.6255 23.1061 14.6255C23.1323 14.6104 23.3123 14.4708 23.4698 14.5425C23.6311 14.6142 23.7661 14.5651 23.7661 14.5651C23.8786 14.5387 24.8161 14.4142 24.8161 14.4142C24.8723 14.3198 24.9173 14.2104 25.1761 14.15C25.4348 14.0896 25.6261 13.9236 25.6261 13.9236C25.5811 13.8783 25.5061 13.8783 25.4686 13.8745C25.4273 13.8745 25.3486 13.7991 25.3486 13.7991C25.2998 13.8217 25.2736 13.8104 24.9361 14.0179C24.6323 14.2066 24.6248 13.8368 24.6248 13.8368H23.9611C23.9498 13.9764 23.8486 14.033 23.8486 14.033L23.6048 14.0443C23.4698 13.9764 23.4698 13.7349 23.4698 13.7349C22.7423 13.7462 22.3411 14.0066 22.3411 14.0066C21.5161 13.584 20.8711 13.4859 20.8711 13.4859C21.3993 13.4473 21.917 13.3171 22.4011 13.101C22.7253 13.2984 23.0918 13.4148 23.4698 13.4406C23.4886 13.2368 23.6236 13.1877 23.6236 13.1877L23.7736 13.2028Z" fill="black"/>
<path d="M22.5877 14.8707C22.3815 14.9915 22.419 15.0594 22.4377 15.0972C22.4565 15.1349 22.4565 15.1726 22.4002 15.233C22.344 15.2896 22.3477 15.3085 22.3477 15.3085C22.359 15.5123 22.4977 15.5575 22.5615 15.6104C22.614 15.6481 22.6965 15.7802 22.6965 15.7802C22.8052 15.9349 22.9177 15.9387 23.0002 15.9387C23.0865 15.9387 23.0752 15.9273 23.0377 15.8896L22.9102 15.7877C22.9937 15.8234 23.0691 15.8761 23.1315 15.9424C23.3415 16.1764 23.5365 16.1462 23.6227 16.1387C23.709 16.1273 23.6977 16.0745 23.6977 16.0745C23.6685 16.0654 23.6382 16.0603 23.6077 16.0594C23.289 16.0292 23.1952 15.8179 23.1952 15.8179C23.3571 15.9612 23.5646 16.0415 23.7802 16.0443C23.8702 16.0406 23.8665 16.067 23.844 16.0745L23.754 16.067C23.7127 16.067 23.7127 16.0783 23.7202 16.0972C23.7315 16.1123 23.7727 16.1123 23.8215 16.1123C23.874 16.1123 23.8327 16.116 23.964 16.2179C24.099 16.3236 24.4252 16.2368 24.4252 16.2368C24.2115 16.1877 24.1852 16.0858 24.1852 16.0858C23.8965 16.1236 23.7802 15.95 23.7802 15.95C23.7148 15.8989 23.6445 15.8547 23.5702 15.8179C23.4127 15.7462 23.3827 15.599 23.3827 15.599C23.4315 15.667 23.5215 15.7424 23.634 15.7726C23.7465 15.8028 23.7765 15.8179 23.7765 15.8179C23.7476 15.8245 23.7175 15.8218 23.6902 15.8104C23.5777 15.7726 23.6415 15.8217 23.6415 15.8217C23.769 15.9236 23.8027 15.916 23.8027 15.916C24.1252 15.95 23.964 15.8179 23.964 15.8179C24.1965 15.8745 24.234 15.7877 24.234 15.7877C24.2827 15.8896 24.459 15.8519 24.459 15.8519C24.2265 15.9651 24.4027 15.9311 24.4027 15.9311C24.639 15.8896 24.6877 15.95 24.6877 15.95C24.7477 16.0066 24.8152 16.0028 24.8152 16.0028C24.8152 16.0028 24.8602 16.0028 24.9465 16.0179C25.0365 16.0368 25.179 16.1123 25.3065 16.1009C25.4377 16.0821 25.4565 16.1236 25.4565 16.1236C25.434 16.1123 25.374 16.1047 25.2765 16.15C25.1752 16.199 24.999 16.2104 24.744 16.15C24.489 16.0896 24.4665 16.1009 24.4665 16.1009C24.5302 16.1424 24.5827 16.2104 24.594 16.2519C24.6052 16.2972 24.6502 16.2972 24.6502 16.2972C24.669 16.2406 24.744 16.2179 24.744 16.2179C24.8026 16.2597 24.8654 16.2951 24.9315 16.3236C24.9465 16.2972 24.9315 16.2745 24.9315 16.2745C25.029 16.3689 25.1415 16.3387 25.1415 16.3387C25.1715 16.3198 25.164 16.2632 25.164 16.2632C25.2015 16.2632 25.209 16.2858 25.239 16.3085C25.2652 16.3236 25.3515 16.3123 25.3515 16.3123C25.3215 16.2972 25.2952 16.2481 25.2952 16.2481C25.4265 16.1613 25.7077 16.199 25.7077 16.199C25.9065 16.2368 25.884 16.3689 25.884 16.3689C25.9193 16.3899 25.951 16.4167 25.9777 16.4481C25.9965 16.4028 25.9777 16.3538 25.9777 16.3538C26.0752 16.399 26.0902 16.5047 26.0902 16.5047C26.2027 16.384 25.989 16.2481 25.989 16.2481C26.0902 16.233 26.2027 16.2406 26.2702 16.2481C26.3616 16.2641 26.4471 16.3045 26.5177 16.3651C26.5965 16.4292 26.739 16.4594 26.739 16.4594C26.7352 16.433 26.6565 16.384 26.6377 16.3764C26.6227 16.3689 26.6152 16.3424 26.6152 16.3424C26.6865 16.3575 26.7315 16.35 26.7315 16.35C26.4915 16.199 26.4277 16.1273 26.4277 16.1273C26.5177 16.1387 26.5702 16.0821 26.5702 16.0821C26.379 16.0821 26.3677 16.0368 26.3677 16.0368C26.394 16.0406 26.484 16.0632 26.6002 16.0406C26.7165 16.0179 26.8702 16.0406 26.8702 16.0406C26.7877 15.9047 26.469 15.9273 26.364 15.9349C26.259 15.9424 26.2215 15.9273 26.2215 15.9273C26.2365 15.9198 26.2552 15.9047 26.334 15.9009C26.4165 15.9009 26.4952 15.9085 26.589 15.8406C26.6752 15.7802 26.8027 15.8028 26.8027 15.8028C26.7727 15.7424 26.6265 15.7198 26.5027 15.8028C26.3715 15.8821 26.259 15.8594 26.259 15.8594C26.4577 15.8292 26.5177 15.7575 26.5177 15.7575C26.4577 15.7424 26.424 15.7613 26.3002 15.7877C26.1802 15.8104 26.1502 15.7689 26.1502 15.7689C26.2815 15.6896 26.3752 15.6557 26.3752 15.6557C26.2627 15.633 26.1577 15.5802 26.1577 15.5802C26.0377 15.6934 25.9477 15.7538 25.719 15.6406C25.494 15.5198 25.374 15.5349 25.374 15.5349C25.5765 15.4179 25.779 15.467 25.929 15.5575C26.079 15.6443 26.1165 15.5726 26.1165 15.5726C26.0715 15.5462 26.079 15.516 26.079 15.516C26.439 15.7009 26.5965 15.5915 26.6752 15.5349C26.754 15.4783 26.6377 15.4066 26.6377 15.4066C26.6302 15.5198 26.4877 15.5802 26.3677 15.5387C26.2552 15.5009 26.1427 15.4481 25.9777 15.3764C25.8127 15.3085 25.6027 15.3462 25.4115 15.384C25.2165 15.4255 25.1902 15.4066 25.1715 15.3915C25.1527 15.3764 25.1452 15.3273 25.044 15.3689C24.9465 15.4104 24.714 15.3009 24.5715 15.267C24.429 15.2292 24.1927 15.2481 23.9902 15.3613C23.7877 15.4783 23.6827 15.4481 23.6227 15.4217C23.5627 15.3915 23.5215 15.316 23.589 15.2481C23.6565 15.1802 23.664 15.1613 23.6565 15.0594C23.649 14.9613 23.5515 14.9009 23.5515 14.9009C23.6415 14.8066 23.664 14.7877 23.634 14.75C23.604 14.7047 23.649 14.7047 23.7015 14.6821C23.754 14.6594 23.7315 14.6557 23.7202 14.6255C23.7052 14.5953 23.6752 14.6028 23.6752 14.6028C23.559 14.6066 23.4915 14.5726 23.4915 14.5726C23.2965 14.4821 23.1127 14.6594 23.1127 14.6594C23.0002 14.5726 22.974 14.633 22.9552 14.6519C22.9365 14.6707 22.8952 14.6896 22.8427 14.6896C22.7977 14.6972 22.7265 14.716 22.7002 14.7613C22.7002 14.7613 22.6777 14.799 22.704 14.8368C22.704 14.8368 22.734 14.8821 22.6815 14.9387C22.6252 14.9953 22.6065 15.0066 22.6252 15.0632C22.6402 15.1123 22.6365 15.1538 22.614 15.1877C22.614 15.1877 22.5877 15.1613 22.5952 15.1236C22.6027 15.0858 22.6027 15.0632 22.5952 15.0481C22.5952 15.0481 22.539 15.1009 22.5277 15.1387C22.5277 15.1387 22.5052 15.0783 22.5877 14.999C22.6627 14.9236 22.7002 14.8783 22.6777 14.8481C22.6627 14.8255 22.6027 14.8632 22.5915 14.8707H22.5877Z" fill="#FFC221"/>
<path d="M22.8149 15.7555C22.8149 15.7555 22.7136 15.68 22.7249 15.5706C22.7361 15.4687 22.7361 15.4574 22.7249 15.431C22.7249 15.431 22.7061 15.4423 22.7099 15.4838C22.7099 15.5216 22.7024 15.5631 22.6986 15.5706C22.6986 15.5706 22.6499 15.4838 22.6236 15.465C22.6236 15.465 22.6461 15.3744 22.6161 15.3367C22.5899 15.2951 22.5599 15.2914 22.5261 15.3065C22.4811 15.3216 22.4474 15.3631 22.6011 15.4876C22.6011 15.4876 22.6574 15.5367 22.6949 15.6348C22.7324 15.7329 22.7999 15.748 22.8111 15.7555H22.8149ZM23.3024 15.4612C23.3024 15.4612 23.2986 15.4046 23.3511 15.2989C23.3697 15.2672 23.3804 15.2314 23.3823 15.1946C23.3843 15.1579 23.3774 15.1212 23.3624 15.0876C23.3511 15.0574 23.3399 15.0687 23.3961 15.0234C23.4599 14.9668 23.3699 14.8951 23.4824 14.797C23.4824 14.797 23.5499 14.7367 23.5686 14.7102C23.5686 14.7102 23.4561 14.7706 23.3736 14.8046C23.2986 14.8348 23.0136 14.9782 23.0736 15.0725C23.1411 15.1668 23.1336 15.1744 23.1224 15.2159C23.1224 15.2159 22.9499 15.1216 23.0099 14.9744C23.0099 14.9744 23.0399 14.9178 23.1111 14.8461C23.1786 14.7857 23.1411 14.8612 23.2724 14.7819C23.2724 14.7819 23.3736 14.7216 23.4336 14.6348C23.4336 14.6348 23.3586 14.68 23.3361 14.6876C23.3361 14.6876 23.1861 14.7178 23.1186 14.7819C23.0586 14.8461 22.9274 14.9593 22.9686 15.0838C22.9686 15.0838 22.8186 15.0687 22.7811 14.9065C22.7811 14.9065 22.4961 15.2612 23.0961 15.4272C23.0961 15.4272 23.2086 15.4574 23.3061 15.465L23.3024 15.4612Z" fill="black"/>
<path d="M25.9343 14.2836C26.1593 14.2458 27.4493 14.0496 27.5693 14.0383C27.6968 14.027 27.7455 14.0081 27.7905 14.1138C27.8393 14.227 27.6105 14.2308 27.6105 14.2308L26.0693 14.4081C25.9943 14.4157 25.9755 14.3855 25.9755 14.3855L25.9193 14.31C25.9193 14.31 25.9005 14.2874 25.9343 14.2798V14.2836Z" fill="#FFC221"/>
<path d="M22.7725 14.9882C22.7725 14.9882 22.6075 15.3391 23.26 15.4259C23.26 15.4259 23.2638 15.3882 23.29 15.3316C23.32 15.275 23.3763 15.1618 23.32 15.0901C23.2675 15.0184 23.365 15.0561 23.3763 14.9618C23.395 14.8674 23.3688 14.8787 23.4138 14.8184C23.4138 14.8184 23.2113 14.8938 23.1288 14.9882C23.0538 15.0787 23.2375 15.1467 23.1288 15.2485C23.1288 15.2485 23.035 15.2108 22.9788 15.1127C22.9788 15.1127 22.855 15.1127 22.7725 14.9882Z" fill="#5A3719"/>
<path d="M23.4178 15.4219C23.4178 15.4219 23.5791 15.5615 23.7703 15.5577C23.9616 15.5464 24.0478 15.4973 24.0966 15.4219C24.0966 15.4219 24.1341 15.4785 24.1341 15.52C24.1341 15.52 24.2991 15.3804 24.5841 15.5011C24.8691 15.6219 24.7866 15.5879 24.8503 15.5955C24.8503 15.5955 24.7266 15.5766 24.4491 15.7049C24.1603 15.837 23.4103 15.7917 23.4141 15.4219H23.4178Z" fill="black"/>
<path d="M23.1483 14.7963C23.1483 14.7963 23.2196 14.8076 23.2908 14.7246C23.2908 14.7246 23.1933 14.7435 23.1483 14.8001V14.7963ZM22.5971 15.4529C22.5971 15.4529 22.4621 15.3473 22.5483 15.3246C22.5483 15.3246 22.6121 15.3133 22.5971 15.4529Z" fill="#5A3719"/>
<path d="M25.5469 16.1243C25.5469 16.1243 25.6219 15.9922 25.8281 15.9922C26.0344 15.9922 26.0569 16.0903 26.3194 16.1054C26.3194 16.1054 26.0044 16.196 25.7869 16.1167C25.6744 16.0752 25.5694 16.1092 25.5469 16.1243Z" fill="black"/>
<path d="M23.4844 15.5179C23.4844 15.5179 23.7994 15.7066 24.0731 15.4991C24.0731 15.4991 24.0956 15.5217 24.1181 15.5745C24.1181 15.5745 24.3281 15.3708 24.6994 15.5896C24.6994 15.5896 24.6544 15.5859 24.4781 15.6576C24.2494 15.7594 23.6756 15.8274 23.4844 15.5142V15.5179Z" fill="#5A3719"/>
<path d="M24.6875 15.7051C24.6875 15.7051 24.9875 15.7428 25.2388 15.7277C25.3925 15.7202 25.5613 15.69 25.4788 15.7428C25.3925 15.7919 25.4375 15.7994 25.7937 15.7692C26.1462 15.7315 25.79 15.8334 26.0338 15.8673C26.0338 15.8673 25.4375 16.1692 24.6875 15.7051V15.7051Z" fill="black"/>
<path d="M25.4688 15.5176C25.4688 15.5176 25.6413 15.4535 25.8063 15.5289C25.9675 15.6044 25.9413 15.612 26.05 15.6233C26.05 15.6233 25.975 15.7327 25.7987 15.6459C25.6187 15.5591 25.5738 15.5403 25.4688 15.5176V15.5176ZM25.6638 16.0572C25.6638 16.0572 25.8362 15.9704 26.0237 16.0572C26.0462 16.0723 26.0987 16.095 26.1475 16.1025C26.1475 16.1025 26.005 16.1516 25.855 16.1025C25.7912 16.0837 25.7425 16.0686 25.6638 16.0572ZM24.8125 15.7478C24.8125 15.7478 25.1987 15.7855 25.405 15.744C25.405 15.744 25.165 15.8572 25.7688 15.8082C25.7688 15.8082 25.9 15.7931 25.8813 15.812C25.87 15.8308 25.8588 15.8497 25.9263 15.8686C25.9263 15.8686 25.4763 16.0723 24.8125 15.7478V15.7478Z" fill="#5A3719"/>
<path d="M22.8998 15.4217C22.8998 15.4217 22.9073 15.4482 22.9898 15.4859C23.0761 15.5274 23.1211 15.5953 23.1398 15.6331C23.1529 15.6595 23.1713 15.6829 23.1939 15.7018C23.2165 15.7206 23.2428 15.7345 23.2711 15.7425C23.2711 15.7425 22.9711 15.8066 22.8361 15.6444C22.8361 15.6444 22.7348 15.5312 22.8961 15.418" fill="black"/>
<path d="M25.2645 16.1165C25.2645 16.1165 25.1483 16.1089 24.9833 16.0523C24.822 15.9957 24.7808 16.0448 24.687 15.9768C24.597 15.9052 24.4133 15.9504 24.3795 15.9542C24.342 15.958 24.2445 15.9542 24.3683 15.875C24.3683 15.875 24.2708 15.875 24.2333 15.8221C24.2333 15.8221 24.1883 15.8674 24.0233 15.8523C24.0233 15.8523 24.0983 15.9655 23.7983 15.9316C23.8486 15.9899 23.9151 16.0319 23.9893 16.0521C24.0634 16.0722 24.1418 16.0697 24.2145 16.0448C24.2145 16.0523 24.1958 16.1391 24.327 16.1768C24.4695 16.2108 24.4958 16.2372 24.567 16.2636C24.567 16.2636 24.5783 16.207 24.3945 16.075C24.3945 16.075 24.492 16.0674 24.6345 16.1014C24.777 16.1353 25.092 16.2184 25.2645 16.1165V16.1165ZM25.3395 16.2561C25.3395 16.2561 25.3695 16.324 25.4595 16.3089C25.5495 16.2938 25.6995 16.2712 25.842 16.3391C25.842 16.3391 25.8683 16.2184 25.5795 16.2108C25.5795 16.2108 25.3995 16.2184 25.3395 16.2561V16.2561ZM22.8945 15.4636C22.8945 15.4636 22.782 15.558 22.8833 15.6523C22.9733 15.7391 23.1158 15.7316 23.1833 15.7278C23.1833 15.7278 23.1458 15.7052 23.1083 15.6523C23.0708 15.5957 23.0708 15.558 22.9958 15.524C22.917 15.4901 22.9095 15.4825 22.8945 15.4636ZM22.782 14.9882C22.782 14.9882 22.6095 15.3391 23.2695 15.4259C23.2695 15.4259 23.2695 15.3882 23.2958 15.3316C23.3183 15.275 23.3745 15.1618 23.3258 15.0901C23.2658 15.0184 23.367 15.0561 23.382 14.9618C23.397 14.8674 23.3708 14.8787 23.4195 14.8184C23.4195 14.8184 23.2133 14.8938 23.1308 14.9882C23.0558 15.0787 23.2395 15.1467 23.1308 15.2485C23.1308 15.2485 23.037 15.2108 22.9808 15.1127C22.9808 15.1127 22.857 15.1127 22.7745 14.9882H22.782Z" fill="#5A3719"/>
<path d="M24.5 15.8042C24.5 15.8042 24.6387 15.7816 24.9875 15.9136C25.34 16.0419 25.4863 16.0118 25.535 16.008C25.535 16.008 25.34 16.1136 25.0325 15.9778C24.7625 15.857 24.7475 15.9023 24.5 15.8042V15.8042Z" fill="black"/>
<path d="M26.6922 15.7252C26.6922 15.7252 26.7672 15.7252 26.8197 15.7441C26.8197 15.7441 26.8459 15.7176 26.9209 15.7063C26.9209 15.7063 26.8722 15.661 26.6922 15.7252ZM26.4522 15.529C26.4522 15.529 26.5309 15.529 26.5572 15.4837C26.5572 15.4837 26.5159 15.4346 26.4522 15.4082C26.4522 15.4082 26.4672 15.4686 26.4522 15.529ZM23.7634 14.6308C23.7634 14.6308 23.7447 14.5931 23.8309 14.578L25.0047 14.4082C25.0047 14.4082 25.0609 14.4082 25.0684 14.4459C25.0797 14.4874 25.0647 14.5176 24.7984 14.5478L23.8384 14.6686C23.8384 14.6686 23.7672 14.6799 23.7634 14.6308Z" fill="#FFC221"/>
<path d="M24.8242 14.5819C24.8242 14.5819 24.8242 14.7366 24.9817 14.7592C25.1317 14.7819 25.188 14.7517 25.2255 14.6724C25.2367 14.646 25.2855 14.4837 25.218 14.4724C25.188 14.4686 25.143 14.4724 25.1092 14.4837C25.0567 14.5102 25.008 14.5366 25.023 14.5592C25.0605 14.6196 25.068 14.6347 25.0605 14.6347C25.0155 14.646 24.993 14.612 24.9855 14.5894C24.9742 14.5592 25.0042 14.5441 24.903 14.5592C24.858 14.563 24.828 14.563 24.828 14.5819H24.8242ZM25.4805 14.4611C25.5555 14.4724 25.5517 14.6422 25.458 14.7215C25.353 14.8045 25.2555 14.7705 25.2555 14.7705C25.203 14.7517 25.2105 14.7554 25.2517 14.6951C25.2892 14.6385 25.308 14.5592 25.2855 14.5064C25.278 14.4875 25.2967 14.4724 25.323 14.4686C25.323 14.4686 25.398 14.4536 25.4805 14.4611Z" fill="#FFC221"/>
<path d="M25.5486 14.4756C25.5486 14.4756 25.6086 14.5511 25.5336 14.6832C25.5336 14.6832 25.5036 14.7209 25.5749 14.7171C25.6424 14.7096 25.8036 14.6341 25.7886 14.536C25.7886 14.536 25.7811 14.5134 25.7399 14.5134C25.6986 14.5134 25.7324 14.4945 25.7511 14.4832C25.7661 14.4832 25.8224 14.4605 25.6799 14.37C25.6799 14.37 25.6574 14.3473 25.6311 14.3586C25.6086 14.3662 25.5336 14.3964 25.5336 14.4417C25.5336 14.4605 25.5486 14.4794 25.5486 14.4794V14.4756Z" fill="#FFC221"/>
<path d="M25.7019 14.3538C25.7019 14.3538 25.8144 14.433 25.8144 14.4594C25.8144 14.4821 25.8031 14.516 25.8331 14.5085C25.8631 14.5085 25.9831 14.4821 25.9456 14.4028C25.9156 14.3236 25.8819 14.2896 25.8256 14.2745C25.7694 14.2519 25.7544 14.2783 25.7056 14.316C25.7056 14.316 25.6719 14.3387 25.7019 14.3538V14.3538ZM25.0981 14.467C25.0981 14.467 25.1169 14.4104 25.0156 14.384C25.0156 14.384 25.0569 14.3462 25.1431 14.3689C25.2256 14.384 25.2181 14.4443 25.2181 14.4481C25.2181 14.4481 25.1506 14.4481 25.0981 14.467V14.467ZM25.3156 14.4519C25.3156 14.4519 25.4281 14.433 25.4844 14.4368C25.4844 14.4368 25.4244 14.3123 25.2706 14.35C25.2706 14.35 25.3269 14.4179 25.3156 14.4519ZM25.5144 14.4217C25.5144 14.4217 25.5144 14.3802 25.6119 14.3425C25.6119 14.3425 25.5669 14.2972 25.4994 14.3047C25.4244 14.3047 25.4056 14.3311 25.4056 14.3311C25.4056 14.3311 25.4919 14.3613 25.5144 14.4217V14.4217ZM25.5519 14.2859C25.5519 14.2859 25.6156 14.3009 25.6531 14.3349C25.6531 14.3349 25.7094 14.2708 25.7581 14.2594C25.7581 14.2594 25.6644 14.2066 25.5519 14.2859Z" fill="#FFC221"/>
<path d="M22.3425 13.9783C22.3425 13.9783 22.6125 13.7444 22.7625 13.7746C22.9125 13.8047 22.8375 13.7821 23.0025 13.7557C23.1675 13.733 23.34 13.7142 23.4075 13.7217C23.4075 13.7217 23.205 13.5783 22.8487 13.5821C22.8487 13.5821 22.6013 13.6689 22.425 13.7821C22.425 13.7821 22.0913 13.5972 21.75 13.7066C21.75 13.7066 22.1212 13.8463 22.3425 13.9783V13.9783Z" fill="#5A3719"/>
<path d="M25.2066 14.3729L25.2516 14.3654C25.2516 14.3654 25.3266 14.4597 25.2741 14.4597C25.2291 14.4597 25.2441 14.4484 25.2366 14.422C25.2324 14.4026 25.2218 14.3853 25.2066 14.3729V14.3729ZM24.8691 14.3804C24.8691 14.3804 24.8391 14.4182 24.8916 14.4106C24.9553 14.3993 24.9441 14.4106 25.0078 14.3616C25.0078 14.3616 25.0528 14.3201 25.1278 14.3465C25.1278 14.3465 25.1953 14.3691 25.2478 14.3427C25.3003 14.3125 25.3116 14.3163 25.3416 14.3201C25.3716 14.3201 25.3716 14.3276 25.4053 14.2974C25.4428 14.271 25.5103 14.2937 25.5516 14.2597C25.5928 14.222 25.6453 14.2521 25.5516 14.1842C25.5516 14.1842 25.5328 14.1654 25.5328 14.1465C25.5328 14.1465 25.5703 14.1616 25.6003 14.1842C25.6303 14.2144 25.6753 14.2031 25.6828 14.1993C25.6828 14.1993 25.6903 14.1125 25.7691 14.0371C25.8553 13.9616 25.8553 13.954 25.8066 13.954C25.7578 13.954 25.6753 13.9314 25.6453 13.954C25.6153 13.9767 25.3753 14.1352 25.2328 14.1616C25.0903 14.188 24.9591 14.2295 24.8691 14.3804V14.3804ZM21.0703 13.4974C21.0703 13.4974 21.5091 13.6106 21.6066 13.6559C21.6066 13.6559 21.6291 13.5842 21.4303 13.5276C21.4303 13.5276 21.9141 13.5125 22.4203 13.7465C22.4203 13.7465 22.6678 13.5352 23.4591 13.5993C23.4591 13.5993 23.4591 13.5314 23.4666 13.4748C23.4666 13.4748 22.9116 13.4597 22.4016 13.1465C22.4016 13.1465 21.9403 13.3729 21.0703 13.4974V13.4974ZM23.4966 13.7087C23.4703 13.2635 23.6391 13.2182 23.6391 13.2182C23.6391 13.2182 23.7178 13.2182 23.8041 13.2371C23.8041 13.2371 23.6691 13.3993 23.7066 13.7201C23.7066 13.7201 23.7216 13.7691 23.6053 13.7691C23.4891 13.7691 23.4966 13.7125 23.4966 13.7125V13.7087Z" fill="#FFC221"/>
<path d="M23.6172 14.0068C23.6172 14.0068 23.5309 13.92 23.5234 13.8219C23.5234 13.8219 23.5234 13.7992 23.6059 13.7992C23.6922 13.7992 23.6997 13.7917 23.7184 13.8408C23.7409 13.8898 23.7934 13.9917 23.8047 14.003L23.6172 14.0068Z" fill="#5A3719"/>
<path d="M23.7935 13.782C23.7866 13.7256 23.7841 13.6689 23.786 13.6121C23.7898 13.3631 23.831 13.3857 23.8498 13.4159H23.936C23.936 13.4159 23.8723 13.1367 23.7973 13.3027C23.7423 13.4256 23.7228 13.5616 23.741 13.6952C23.7448 13.7706 23.7523 13.8197 23.7635 13.8461L23.7935 13.782Z" fill="#FFC221"/>
<path d="M24.7556 13.7818C24.7556 13.7818 24.9169 13.812 24.6694 13.8686C24.6694 13.8686 24.6806 14.178 24.9769 13.9629C24.9769 13.9629 25.1531 13.8497 25.2769 13.8044C25.2769 13.8044 25.3369 13.7818 25.3294 13.7365C25.3294 13.7365 25.3369 13.6799 25.2731 13.695C25.2731 13.695 25.2206 13.695 25.1869 13.6837C25.1869 13.6837 25.1494 13.6384 25.1269 13.6535C25.1044 13.6723 25.0481 13.661 25.0931 13.7176C25.1381 13.7705 25.1494 13.7554 25.1681 13.7403C25.1906 13.7252 25.2844 13.6874 25.2019 13.7667C25.1194 13.8459 25.0444 13.7214 25.0144 13.6988L24.7556 13.7818ZM23.9306 13.8195H23.8556C23.8556 13.8195 23.8181 13.8799 23.7919 13.7818L23.7656 13.8422C23.7656 13.8422 23.8519 14.1742 23.9306 13.8195Z" fill="#5A3719"/>
<path d="M23.8263 13.4369C23.8263 13.4369 23.7888 13.6558 23.8375 13.7841L24.6288 13.803C24.6288 13.803 24.6213 13.652 24.6288 13.4369H24.5238C24.5238 13.4369 24.505 13.6105 24.5238 13.7199H24.505C24.505 13.7199 24.49 13.569 24.505 13.4369H24.4113C24.4113 13.4369 24.3963 13.5992 24.4113 13.7199H24.3925C24.3925 13.7199 24.3775 13.5803 24.3925 13.4369H24.2988C24.2988 13.4369 24.28 13.5841 24.2988 13.7199H24.2763C24.2763 13.7199 24.2575 13.5728 24.2763 13.4369H24.175C24.175 13.4369 24.1525 13.5728 24.175 13.7199H24.1563C24.1563 13.7199 24.1338 13.5841 24.1563 13.4369H24.055C24.055 13.4369 24.0325 13.5954 24.055 13.7199H24.0325C24.0325 13.7199 24.0175 13.569 24.0363 13.4369H23.9425C23.9425 13.4369 23.9163 13.569 23.9425 13.7199H23.9163C23.9163 13.7199 23.9013 13.6067 23.9238 13.4369H23.8263ZM24.6625 13.8294C24.6625 13.8294 24.6438 13.4445 24.715 13.3388C24.79 13.2407 24.8088 13.2633 24.9325 13.3388C25.06 13.4218 25.2213 13.5086 25.2513 13.5199C25.2738 13.5313 25.3113 13.5388 25.3113 13.6105C25.3113 13.6822 25.3225 13.7011 25.2138 13.6105C25.2025 13.5992 25.15 13.5539 25.1125 13.5426C25.015 13.5086 25.135 13.5614 25.1688 13.6143C25.1988 13.652 25.225 13.652 25.1463 13.6709C24.9834 13.7187 24.8221 13.7715 24.6625 13.8294Z" fill="#FFC221"/>
<path d="M24.9378 13.5509C24.9378 13.5509 24.8815 13.483 24.9565 13.4641C25.0315 13.449 25.0353 13.5773 25.0503 13.6566C25.0615 13.7396 24.9565 13.5773 24.9453 13.5547L24.9378 13.5509ZM24.8365 13.8905C24.8365 13.8905 24.7503 13.9245 24.8103 13.9509C24.8628 13.9773 25.0165 13.849 24.9678 13.8566C24.9078 13.8679 24.8365 13.8943 24.8365 13.8943V13.8905ZM24.949 13.7773C24.949 13.7773 25.024 13.766 25.009 13.7962C24.9978 13.8339 24.9715 13.8113 24.9565 13.8037C24.9453 13.7962 24.8965 13.7773 24.9528 13.7735L24.949 13.7773Z" fill="black"/>
<path d="M25.3519 13.6723C25.3519 13.6723 25.3744 13.8232 25.5019 13.8609C25.5019 13.8609 25.5769 13.876 25.5581 13.8119C25.5581 13.8119 25.5469 13.7553 25.5356 13.7364C25.5244 13.71 25.4756 13.6987 25.4681 13.6949C25.4606 13.6949 25.4569 13.676 25.4906 13.6873C25.5281 13.6987 25.5281 13.7024 25.5281 13.676C25.5281 13.6496 25.5056 13.6609 25.4756 13.6458C25.4606 13.6383 25.4756 13.6307 25.4869 13.6345C25.5019 13.6345 25.5356 13.6458 25.5356 13.5968C25.5356 13.5968 25.5394 13.5666 25.5019 13.5666C25.4606 13.5666 25.4644 13.5439 25.4756 13.5402C25.4869 13.5402 25.5319 13.5704 25.5469 13.5175C25.5581 13.4685 25.4869 13.4987 25.4944 13.4723C25.5056 13.4421 25.5581 13.4836 25.5581 13.4534C25.5656 13.4232 25.6069 13.4119 25.5356 13.4006C25.5019 13.3968 25.5356 13.3779 25.5731 13.3855C25.6106 13.3892 25.6331 13.3402 25.6594 13.3251C25.6819 13.3062 25.8169 13.227 25.6369 13.2534C25.4606 13.2798 25.4081 13.3666 25.4006 13.3855C25.3559 13.4739 25.3389 13.5739 25.3519 13.6723V13.6723Z" fill="#FFC221"/>
<path d="M25.7615 13.7848C25.7877 13.7848 25.8065 13.7848 25.814 13.8036C25.844 13.864 25.7765 13.8414 25.739 13.8867C25.7015 13.9319 25.7015 13.9244 25.649 13.9055C25.5965 13.8904 25.574 13.8112 25.574 13.8112C25.574 13.7848 25.5927 13.781 25.619 13.7885C25.619 13.7885 25.7052 13.7961 25.7652 13.7885L25.7615 13.7848ZM25.574 13.7546C25.574 13.7546 25.574 13.7697 25.6077 13.7734C25.634 13.7734 25.7202 13.7848 25.7765 13.7697C25.7765 13.7697 25.7915 13.7659 25.784 13.7319C25.784 13.7319 25.784 13.7055 25.739 13.7168C25.6902 13.7244 25.6265 13.7168 25.6002 13.7131C25.5777 13.7055 25.5627 13.7131 25.5702 13.7508L25.574 13.7546ZM25.5665 13.6451C25.5665 13.6451 25.5627 13.6942 25.6077 13.698C25.6565 13.7055 25.7165 13.7055 25.739 13.698C25.7577 13.698 25.7915 13.6904 25.7952 13.6602C25.7952 13.6338 25.8027 13.615 25.7465 13.63C25.6902 13.6451 25.619 13.63 25.6115 13.63C25.6077 13.63 25.5665 13.6187 25.5665 13.6451V13.6451ZM25.5852 13.5508C25.5852 13.5508 25.574 13.5734 25.5777 13.5961C25.5777 13.615 25.6115 13.6225 25.6715 13.6225C25.7315 13.6225 25.784 13.615 25.7915 13.5961C25.7952 13.5697 25.8102 13.547 25.7652 13.5583C25.7165 13.5621 25.6527 13.5659 25.6302 13.5583C25.6077 13.547 25.589 13.5433 25.5852 13.5508V13.5508Z" fill="#FFC221"/>
<path d="M27.8292 13.7932C27.8292 13.7932 27.8292 13.8309 27.863 13.8762L26.168 13.8272C26.168 13.8272 26.1905 13.8121 26.198 13.7441L27.8292 13.7932Z" fill="#5A3719"/>
<path d="M25.6014 13.483C25.6014 13.483 25.5864 13.5245 25.6164 13.5358C25.6427 13.5434 25.6989 13.5509 25.7664 13.5396C25.7664 13.5396 25.8039 13.5396 25.8152 13.5018C25.8264 13.4641 25.8264 13.4868 25.7289 13.4717C25.7289 13.4717 25.6989 13.4603 25.7852 13.4603C25.7852 13.4603 25.8377 13.4603 25.8414 13.4528C25.8527 13.4452 25.9164 13.3886 25.8302 13.3962C25.7439 13.3962 25.7889 13.3773 25.8302 13.3773C25.8752 13.3773 25.8902 13.3886 25.9052 13.3773C25.9202 13.366 25.9052 13.3698 25.8789 13.3471C25.8527 13.3245 25.8752 13.3283 25.8902 13.3434C25.9089 13.3547 25.9202 13.3622 25.9389 13.3434C25.9577 13.3245 25.9239 13.2981 25.9389 13.3056C25.9502 13.3056 25.9614 13.3358 26.0139 13.3056C26.0739 13.2792 26.1452 13.2943 26.1639 13.3056C26.1864 13.3245 26.2464 13.3434 26.2802 13.3056C26.3177 13.2754 26.2389 13.2415 26.2689 13.2377C26.3064 13.2339 26.3289 13.2452 26.3402 13.2188C26.3552 13.1886 26.2877 13.166 26.3514 13.1509C26.4114 13.132 26.3589 12.9622 26.3402 12.9434C26.3402 12.9434 26.2689 12.9849 26.1977 13.1056C26.1189 13.2302 26.0739 13.3018 25.9727 13.2641C25.8264 13.2075 25.7477 13.2868 25.7289 13.3018C25.6914 13.3245 25.8039 13.332 25.7364 13.3358C25.6727 13.3358 25.6727 13.3434 25.6689 13.3509C25.6614 13.3622 25.6689 13.3698 25.6802 13.3735C25.6914 13.3735 25.7139 13.3962 25.6764 13.3962C25.6389 13.3962 25.6089 13.3849 25.6202 13.4302C25.6202 13.4302 25.6202 13.4377 25.6427 13.4415C25.6652 13.4415 25.6727 13.4717 25.6314 13.4717C25.6014 13.4717 25.6014 13.4792 25.6014 13.483V13.483ZM25.7552 13.9094C25.7552 13.9094 25.7289 13.9283 25.7664 13.932C25.8114 13.932 25.8302 13.9434 25.8452 13.9207C25.8602 13.8981 25.9127 13.9056 25.8752 13.8754C25.8377 13.8452 25.8152 13.8641 25.7552 13.9132V13.9094Z" fill="#FFC221"/>
<path d="M25.9324 13.3971C25.9324 13.3971 26.0749 13.265 26.1912 13.3518C26.3112 13.4461 26.3187 13.4575 26.3224 13.4612C26.3224 13.4612 26.3374 13.4726 26.3074 13.499C26.2737 13.5292 26.3074 13.5292 26.3412 13.5103C26.3749 13.4914 26.3787 13.5103 26.3937 13.5292C26.4124 13.548 26.4349 13.5594 26.3824 13.5594H26.2099C26.2099 13.5594 26.1312 13.5669 26.1724 13.5329C26.2099 13.499 26.2024 13.4612 26.1837 13.4575C26.1612 13.4575 26.1837 13.4801 26.1724 13.4952C26.1574 13.5103 26.1312 13.5216 26.1012 13.5216C26.0712 13.5216 26.0487 13.5443 26.0937 13.5594C26.1349 13.5745 26.0862 13.5858 26.0637 13.5858C26.0412 13.5858 25.9324 13.5933 26.0449 13.6084C26.1574 13.6197 26.0337 13.6197 26.1199 13.665C26.2099 13.7178 26.1424 13.8273 26.1087 13.8386C26.1087 13.8386 26.0712 13.8575 26.1162 13.8537C26.1649 13.8461 26.1912 13.8424 26.1537 13.8688C26.1237 13.8914 26.0562 13.9782 25.9662 13.9141C25.9662 13.9141 25.9212 13.8914 25.9962 13.8877C26.0712 13.8877 25.9362 13.8688 25.9099 13.8499C25.8912 13.8386 25.7974 13.748 25.8537 13.7556C25.9137 13.7707 25.8912 13.7367 25.8574 13.7254C25.8274 13.7141 25.8199 13.665 25.8574 13.6726C25.8949 13.6839 25.9324 13.7065 25.9699 13.7028C25.9962 13.7028 25.9887 13.6914 25.9249 13.6726C25.8612 13.6499 25.8349 13.6461 25.8499 13.5971C25.8649 13.5405 25.9362 13.616 25.9174 13.5745C25.9024 13.5367 25.8424 13.5556 25.8724 13.5028C25.9024 13.4499 25.9099 13.4726 25.9287 13.4801C25.9399 13.4839 25.9662 13.4801 25.9249 13.4499C25.8949 13.4311 25.9249 13.4009 25.9324 13.3971Z" fill="#FFC221"/>
<path d="M26.0312 13.4345C26.0312 13.4345 26.0312 13.4156 26.0612 13.4194C26.0837 13.4194 26.0762 13.4118 26.0837 13.4043C26.0912 13.4043 26.155 13.4232 26.095 13.442C26.0725 13.4534 26.035 13.4496 26.035 13.4345H26.0312Z" fill="black"/>
<path d="M26.1725 13.584C26.1725 13.584 26.1238 13.6066 26.165 13.6595C26.2025 13.6972 26.2025 13.7161 26.2025 13.7425C26.1988 13.7727 27.83 13.7915 27.83 13.7915C27.83 13.7915 27.83 13.6821 27.8975 13.6217L26.1725 13.584V13.584Z" fill="#FFC221"/>
<path d="M27.8555 13.7625C27.8555 13.7625 27.863 13.672 27.9155 13.6456C27.9417 13.6267 27.9755 13.6342 27.9905 13.7059C28.013 13.8078 27.9267 13.8984 27.8892 13.8569C27.8517 13.8191 27.8592 13.7625 27.8592 13.7625H27.8555Z" fill="#5A3719"/>
<path d="M25.9846 14.1476C25.9846 14.1476 26.0933 14.0532 26.1121 14.0117C26.1121 14.0117 26.4046 14.223 26.3858 14.0268L26.3933 13.9287C26.3933 13.9287 26.5021 13.94 26.5171 13.8532L26.2433 13.8419C26.2433 13.8419 26.2133 13.8381 26.1683 13.8834C26.1308 13.9287 26.0408 13.9778 25.9621 13.9362C25.9621 13.9362 25.9246 13.9061 25.8908 13.9362C25.8533 13.9551 25.8533 13.9627 25.8833 13.9929C25.9133 14.023 25.9733 14.1023 25.9846 14.1438V14.1476ZM26.6146 13.5664L26.4533 13.5589C26.4533 13.5589 26.3971 13.4759 26.2808 13.3853C26.2808 13.3853 26.2471 13.3702 26.3108 13.3174C26.3783 13.2645 26.3971 13.2117 26.3971 13.1853C26.3971 13.1627 26.3971 13.1212 26.4196 13.1476C26.4421 13.1778 26.6071 13.3325 26.6371 13.2872C26.6596 13.2419 26.6633 13.223 26.6633 13.2079C26.6708 13.1929 26.6746 13.1513 26.7008 13.1966C26.7233 13.2381 26.7383 13.2268 26.7421 13.34C26.7421 13.34 26.7421 13.4532 26.7608 13.491C26.7608 13.491 26.5508 13.4268 26.6183 13.5664H26.6146ZM25.9171 13.2193C25.9171 13.2193 26.0408 13.2947 26.1046 13.1966C26.1608 13.1023 26.2021 13.091 26.1571 12.9966C26.1121 12.9098 26.1571 12.8683 26.1908 12.8306C26.2283 12.7929 26.2583 12.8004 26.2583 12.657C26.2658 12.5098 26.3633 12.4683 26.4083 12.4193C26.4533 12.374 26.5658 12.3061 26.3933 12.2796C26.2283 12.2495 25.8908 12.1664 25.8046 12.0344C25.7183 11.9023 25.6808 11.9778 25.6808 11.9853C25.6808 11.9929 25.6508 12.0872 25.7371 12.2608C25.8233 12.4344 25.8946 12.5476 25.9808 12.6004C26.0633 12.657 26.1383 12.6872 26.0933 12.8042C26.0483 12.9212 25.9808 13.1287 25.9171 13.2193V13.2193Z" fill="#7B3C20"/>
<path d="M26.3705 12.8487C26.3705 12.8487 26.393 13.1506 26.6067 13.2562C26.6067 13.2562 26.6555 13.143 26.6367 13.026C26.6367 13.026 26.708 13.0298 26.7267 13.0638C26.7267 13.0638 26.7267 12.977 26.6292 12.943C26.528 12.9166 26.5767 12.7166 26.6142 12.6977C26.648 12.6751 26.6367 12.6336 26.6142 12.5996C26.588 12.5619 26.5842 12.5128 26.6667 12.5355C26.753 12.5581 26.7417 12.5128 26.6855 12.4713C26.6367 12.4298 26.6367 12.377 26.7117 12.377C26.7867 12.377 26.8992 12.3053 26.8317 12.2864C26.7567 12.2638 26.738 12.2373 26.8317 12.2109C26.933 12.1807 26.9817 12.1468 26.9067 12.1355C26.8317 12.1279 26.783 12.1015 26.8542 12.0902C26.9255 12.0789 26.843 12.0034 26.7605 12.0034C26.6742 11.9958 26.498 12.0298 26.6367 11.9166C26.7792 11.8034 26.4342 11.8864 26.5767 11.8109C26.7192 11.7355 26.528 11.7694 26.5017 11.7694C26.4755 11.7694 26.4755 11.7694 26.4867 11.7317C26.4942 11.694 26.468 11.6713 26.423 11.6977C26.3855 11.7204 26.3855 11.7204 26.3855 11.6713C26.3855 11.6147 26.3367 11.6562 26.3067 11.6713C26.273 11.6826 26.1942 11.743 26.1605 11.709C26.1342 11.6751 26.1155 11.6449 26.018 11.7015C25.9205 11.7581 25.943 11.709 25.943 11.6826C25.943 11.6562 25.9805 11.5543 25.853 11.6638C25.7255 11.7732 25.8267 11.5506 25.7217 11.626C25.6205 11.7015 25.6092 11.7166 25.5905 11.6826C25.5717 11.6449 25.553 11.6185 25.4405 11.694C25.3242 11.7657 25.4105 11.6449 25.4217 11.6185C25.4405 11.5958 25.4892 11.4298 25.388 11.5581C25.388 11.5581 25.3392 11.6487 25.2305 11.4864C25.2305 11.4864 25.118 11.6487 25.0842 11.577C25.0542 11.5015 25.028 11.5015 24.9867 11.5468C24.9492 11.5921 24.9792 11.543 24.9605 11.5015C24.9455 11.4638 24.9342 11.3921 24.743 11.5317C24.5517 11.6751 24.8105 11.5694 24.6642 11.6336C24.518 11.6977 24.158 11.8977 24.4842 11.8562C24.8105 11.8072 24.3267 11.9807 24.4392 12.0147C24.5517 12.0449 24.5142 12.1468 24.9417 12.026C25.3617 11.9128 25.2942 12.0109 25.5117 11.9128C25.7292 11.8223 25.4592 11.9468 25.7517 11.943C26.0405 11.9355 25.8005 11.943 25.8567 12.0034C25.913 12.0638 26.1567 12.2034 26.3855 12.2298C26.6142 12.2524 26.6742 12.1657 26.6067 12.2675C26.5392 12.3657 26.5167 12.4034 26.4792 12.4411C26.4417 12.4713 26.3292 12.5543 26.3292 12.6902C26.3292 12.8298 26.1492 12.8524 26.2167 13.0034L26.3705 12.8524V12.8487Z" fill="#5A3719"/>
<path d="M26.748 13.1848C26.748 13.1848 26.6955 13.1471 26.6955 13.0791C26.6955 13.0791 26.733 13.0867 26.748 13.1093C26.748 13.1093 26.8792 12.9584 26.718 12.9056C26.5642 12.8527 26.643 12.7056 26.6955 12.7056C26.748 12.7056 26.7592 12.6942 26.7105 12.6301C26.6655 12.5735 26.673 12.5697 26.7592 12.5546C26.8455 12.5395 26.838 12.5169 26.7967 12.498C26.7699 12.4819 26.7458 12.4615 26.7255 12.4376C26.7255 12.4376 26.9805 12.3282 26.898 12.2754C26.8155 12.2263 26.898 12.2376 26.973 12.1886C27.048 12.1357 27.0555 12.1244 27.0667 12.1018C27.0667 12.1018 26.9917 12.1131 26.9392 12.1018C26.9392 12.1018 27.003 12.0678 26.9392 12.015C26.8755 11.9622 26.853 11.9169 26.7517 11.9395C26.6505 11.9659 26.6842 11.932 26.7217 11.8905C26.7592 11.849 26.7442 11.8263 26.673 11.815C26.673 11.815 26.6805 11.7697 26.7367 11.7206C26.7367 11.7206 26.598 11.7282 26.5492 11.7056C26.5492 11.7056 26.6092 11.6678 26.6092 11.6188C26.6092 11.6188 26.5342 11.6452 26.4405 11.6376C26.4405 11.6376 26.4967 11.5886 26.4967 11.5471C26.4967 11.5471 26.3317 11.5848 26.2567 11.6414C26.2567 11.6414 26.238 11.6414 26.2267 11.6188C26.2117 11.6037 26.2042 11.581 26.0205 11.6414C26.0205 11.6414 26.0392 11.5584 26.0842 11.5282C26.1292 11.498 26.1217 11.4301 25.8405 11.6074C25.8405 11.6074 25.803 11.5848 25.7692 11.498C25.7692 11.498 25.7055 11.5848 25.6605 11.615C25.6605 11.615 25.623 11.6339 25.623 11.5773C25.6305 11.5206 25.5967 11.5584 25.5705 11.5773C25.5405 11.5923 25.5217 11.6339 25.533 11.5206C25.5442 11.4074 25.4955 11.3848 25.4955 11.3848C25.4955 11.3848 25.4092 11.5093 25.3567 11.5244C25.3567 11.5244 25.263 11.4339 25.2292 11.3735C25.1992 11.3131 25.1992 11.2905 25.1655 11.3961C25.1317 11.498 25.0905 11.5093 25.0905 11.5093C25.0905 11.5093 25.0342 11.4603 25.0305 11.4339C25.0305 11.4339 25.0192 11.4603 25.0005 11.4716C25.0005 11.4716 24.9517 11.415 24.9555 11.332C24.9555 11.332 24.648 11.5018 24.6105 11.6037C24.6105 11.6037 24.3217 11.5848 24.2055 11.6074C24.2055 11.6074 24.2317 11.5169 24.3067 11.4678C24.3067 11.4678 24.2317 11.4603 24.2317 11.381C24.2317 11.381 24.2917 11.3886 24.3292 11.381C24.3667 11.3735 24.2767 11.264 24.3705 11.2603C24.4642 11.2565 24.528 11.3056 24.483 11.1773C24.4455 11.0527 24.4605 11.0527 24.4605 11.0527C24.4605 11.0527 24.6255 11.1508 24.6517 11.1244C24.6817 11.1018 24.633 11.049 24.7792 11.0716C24.9255 11.098 24.8842 11.015 24.9442 11.0074C25.0005 11.0074 25.0305 11.0452 24.993 10.7773C24.9555 10.5093 25.173 10.9093 25.0267 10.5056C25.0267 10.5056 24.9892 10.381 24.903 10.3282C24.903 10.3282 24.8805 10.415 24.783 10.3395C24.6855 10.264 24.4905 10.2339 24.573 10.1735C24.6555 10.1093 24.693 10.0263 24.6705 9.97725C24.6705 9.97725 24.573 10.0754 24.408 10.0037C24.273 9.94706 24.243 10.0527 24.108 10.0225C24.108 10.0225 24.108 9.9848 24.2242 9.89423C24.3367 9.80744 24.1567 9.92442 24.0892 9.94329C24.018 9.95839 23.9992 9.94329 24.1455 9.82631C24.2955 9.7131 24.5955 9.50555 24.558 9.33574C24.558 9.33574 24.6255 9.42254 24.8092 9.35838C24.9967 9.29423 25.1317 9.27159 25.1842 9.16971C25.2442 9.07537 25.3867 8.98103 25.4242 8.95838C25.4655 8.93952 25.5142 8.92065 25.458 9.01499C25.398 9.10555 25.308 9.26405 25.053 9.36971C24.798 9.47537 24.6967 9.55084 24.6517 9.60744C24.6067 9.66405 24.3742 9.78857 24.528 9.76971C24.678 9.74329 24.9367 9.76971 24.813 9.73197C24.693 9.69801 24.5542 9.75461 24.6667 9.65272C24.7792 9.55084 24.798 9.51688 24.963 9.44895C25.128 9.37725 25.308 9.21876 25.2892 9.38857C25.2705 9.55461 24.9667 9.73197 24.8917 9.78857C24.8167 9.8414 24.8467 9.83386 24.8467 9.8565C24.8467 9.87914 24.8317 9.92442 24.8017 9.94329C24.7717 9.96593 24.783 9.98857 24.7905 10.0339C24.798 10.0829 24.783 10.1018 24.8055 10.1093C24.828 10.1131 24.8505 10.1169 24.858 10.1508C24.8655 10.1886 24.8805 10.1886 24.9255 10.1886C24.9667 10.181 25.0005 10.1886 25.0005 10.2112C25.0005 10.2376 25.0455 10.2754 25.0492 10.1961C25.053 10.1131 25.0867 10.1018 25.0042 10.1395C24.9217 10.1735 24.9067 10.1622 24.9067 10.1244C24.9067 10.0867 24.8992 10.0942 24.8692 10.0905C24.8317 10.0905 24.8205 10.0414 24.8805 10.0074C24.9405 9.97725 24.9405 10.0074 25.0155 9.94706C25.0905 9.88291 25.0905 9.87159 25.1017 9.83386C25.113 9.80744 24.993 9.92442 24.9367 9.94706C24.8805 9.97725 24.8992 9.9282 24.9067 9.86782C24.918 9.80367 25.0567 9.71688 25.1205 9.71688C25.188 9.71688 25.3305 9.75461 25.2705 9.8414C25.2067 9.9282 25.0305 10.0376 25.1017 10.0452C25.1805 10.0527 25.1917 10.0225 25.2367 10.0603C25.2817 10.098 25.2367 10.181 25.2217 10.2263C25.2016 10.2657 25.1735 10.3004 25.1392 10.3282C25.1392 10.3282 25.0567 10.1848 25.0605 10.298C25.0605 10.415 25.0417 10.4565 25.0605 10.4603C25.0792 10.464 25.1655 10.5244 25.1955 10.5244C25.2255 10.5244 25.0417 10.6112 25.1205 10.6188C25.1955 10.6225 25.3192 10.581 25.3605 10.5056C25.3605 10.5056 25.203 10.4678 25.1392 10.4074C25.1392 10.4074 25.323 10.3622 25.2705 10.1886C25.2705 10.1886 25.4542 10.2376 25.3717 10.3206C25.2967 10.3999 25.248 10.3886 25.3155 10.4112C25.3867 10.4339 25.4167 10.4565 25.4167 10.4565C25.4167 10.4565 25.4655 10.4791 25.4355 10.5169C25.4092 10.5546 25.4092 10.615 25.4355 10.6112C25.4542 10.6112 25.533 10.5735 25.4692 10.5357C25.4017 10.498 25.5405 10.5056 25.4842 10.4716C25.4242 10.4339 25.4092 10.4301 25.3942 10.4112C25.3755 10.3999 26.133 9.95084 25.7505 10.1169C25.7505 10.1169 25.8292 9.94329 25.9417 9.94329C26.0542 9.94329 26.0617 10.0301 25.998 10.1018C25.9342 10.1659 25.893 10.2754 25.7467 10.298C25.7467 10.298 25.9567 10.3999 25.7092 10.5697C25.7092 10.5697 25.653 10.5961 25.6717 10.615C25.6905 10.6339 25.8405 10.5508 25.8592 10.5018C25.8696 10.4764 25.8849 10.4533 25.9042 10.4338C25.9235 10.4144 25.9464 10.399 25.9717 10.3886C26.028 10.3622 26.3092 10.1697 26.3917 10.0263C26.478 9.87914 26.4967 9.87537 26.6617 9.74329C26.8267 9.61122 26.7967 9.63763 26.8192 9.60744C26.838 9.57348 26.8455 9.52065 26.9205 9.47914C26.9955 9.43386 27.288 9.27537 27.3817 9.20744C27.4717 9.13952 27.6592 9.01876 27.7417 8.9131C27.8205 8.81122 28.0417 8.67914 28.0942 8.70178C28.1467 8.7282 28.0867 8.80744 27.963 8.90555C27.8317 8.99989 27.513 9.2565 27.4642 9.29801C27.337 9.40118 27.1955 9.48508 27.0442 9.54706C26.943 9.55838 26.9542 9.59612 26.8942 9.66027C26.8342 9.72442 26.6955 9.86405 26.6505 9.90178C26.6017 9.93952 26.4892 10.015 26.4855 10.0716C26.478 10.1282 26.5042 10.132 26.4142 10.215C26.2809 10.338 26.1306 10.441 25.968 10.5206C25.968 10.5206 26.1367 10.581 26.0355 10.6942C25.938 10.8074 25.9417 10.7923 25.938 10.7999C25.938 10.7999 26.1892 10.7622 26.013 10.9622C26.013 10.9622 25.9755 11.0188 26.0542 10.9622C26.1405 10.8905 26.1067 10.8074 26.0917 10.7923C26.0917 10.7923 26.2305 10.7056 26.388 10.7056C26.5417 10.7056 26.538 10.6942 26.3955 10.6527C26.3955 10.6527 26.4967 10.532 26.583 10.5923C26.6655 10.649 26.6355 10.6867 26.5492 10.7357C26.4592 10.781 26.3317 10.7999 26.2305 10.8565C26.2305 10.8565 26.418 10.8942 26.5155 10.815C26.613 10.7395 26.6205 10.7773 26.628 10.7923C26.6467 10.8074 26.658 10.8301 26.613 10.8905C26.568 10.9546 26.5642 10.9584 26.568 10.9735C26.568 10.9886 26.5642 11.0301 26.4742 11.049C26.388 11.0603 26.343 11.098 26.3767 11.1395C26.403 11.1848 26.403 11.2905 26.3317 11.2791C26.2567 11.2678 26.2717 11.2074 26.2455 11.1848C26.2155 11.1622 26.1742 11.1282 26.043 11.1923C25.908 11.264 25.9005 11.181 25.9042 11.1357C25.9042 11.1357 25.818 11.2112 25.7467 11.1433C25.6717 11.0716 25.7392 11.0452 25.7842 11.0112C25.8217 10.9735 25.9905 10.898 25.8892 10.9169C25.788 10.9282 25.638 10.932 25.6042 10.8565C25.5667 10.7773 25.6792 10.7848 25.6942 10.7923C25.713 10.7999 25.7805 10.8565 25.788 10.781C25.788 10.7056 25.9005 10.6942 25.863 10.6829C25.8255 10.6678 25.7692 10.7169 25.7542 10.732C25.7542 10.732 25.6792 10.6225 25.5517 10.6565C25.4242 10.6942 25.5892 10.6829 25.6267 10.6867C25.6567 10.6942 25.638 10.7546 25.5255 10.8603C25.413 10.9622 25.4617 10.9282 25.5442 10.9282C25.6305 10.9282 25.8405 10.9282 25.7167 11.0263C25.5967 11.1282 25.548 11.1773 25.4917 11.1622C25.4242 11.1433 25.4917 11.1018 25.5217 11.0829C25.5517 11.064 25.5667 11.0376 25.5067 11.0603C25.4467 11.0791 25.428 11.0867 25.3792 11.0037C25.3342 10.9169 25.3492 10.9433 25.3717 10.8867C25.3942 10.8301 25.4392 10.7735 25.3867 10.7923C25.3267 10.815 25.3342 10.8188 25.338 10.7546C25.3417 10.6905 25.2742 10.6754 25.2742 10.6754C25.2742 10.6754 25.3042 10.7395 25.278 10.781C25.2555 10.8188 25.2517 10.8339 25.293 10.8414C25.3305 10.8565 25.368 10.8905 25.3155 10.9282C25.263 10.9622 25.2705 10.9546 25.3005 10.9773C25.338 11.0037 25.3867 11.0263 25.3342 11.0791C25.2817 11.132 25.323 11.1169 25.3492 11.1169C25.3792 11.1169 25.4355 11.1395 25.4355 11.1923C25.4355 11.2376 25.4355 11.249 25.5217 11.2037C25.608 11.1546 25.773 11.1622 25.773 11.2263C25.773 11.2942 25.7505 11.3131 25.8405 11.2565C25.9305 11.1999 25.9717 11.3093 26.0355 11.2565C26.0955 11.1999 26.133 11.1508 26.208 11.2414C26.2792 11.332 26.2567 11.3546 26.1705 11.4225C26.0842 11.4867 26.2117 11.4376 26.2792 11.4037C26.3467 11.3697 26.5305 11.3471 26.6355 11.3961C26.7442 11.4414 26.7742 11.4339 26.853 11.3961C26.9317 11.3659 26.973 11.3584 27.0892 11.4376C27.213 11.5206 27.303 11.5357 27.3667 11.532C27.3667 11.532 27.2355 11.5848 27.0855 11.5923C26.9355 11.6037 26.8605 11.6301 26.8342 11.6527C26.8342 11.6527 26.9205 11.7093 26.9392 11.7735C26.9392 11.7735 27.0367 11.7622 27.0817 11.781C27.0817 11.781 27.0592 11.8527 27.1192 11.8905C27.1792 11.9282 27.2205 11.9433 27.1755 11.9923C27.1305 12.0452 27.2467 12.0225 27.1792 12.0942C27.1155 12.1697 27.1005 12.2074 27.0967 12.264C27.0967 12.3244 27.1117 12.332 27.0555 12.3395C26.9955 12.3433 27.063 12.4112 27.0367 12.4905C27.0105 12.5659 26.8492 12.5546 26.8567 12.7622C26.8567 12.7622 26.9017 12.6603 26.9992 12.5735C27.093 12.4829 27.0967 12.4754 27.093 12.4225C27.093 12.3697 27.0892 12.381 27.138 12.3395C27.1905 12.3018 27.1155 12.264 27.168 12.2037C27.2167 12.1471 27.1755 12.1584 27.2355 12.1018C27.2917 12.0414 27.1792 12.0376 27.243 11.9773C27.2992 11.9169 27.093 11.8452 27.1567 11.8074C27.213 11.7697 27.318 11.7169 26.9692 11.7206C26.9692 11.7206 27.0555 11.5848 27.3442 11.6112C27.3442 11.6112 27.2692 11.6716 27.2617 11.7244L27.3217 11.7433C27.3217 11.7433 27.3067 11.7848 27.2505 11.8301C27.2505 11.8301 27.408 11.9169 27.4342 11.9735C27.4342 11.9735 27.3367 12.0037 27.3105 12.0414C27.3105 12.0414 27.3555 12.0905 27.3705 12.1546C27.3705 12.1546 27.2617 12.1395 27.2505 12.2188C27.2355 12.298 27.2017 12.2452 27.2017 12.2942C27.2017 12.3433 27.2055 12.3584 27.168 12.3697C27.1305 12.3697 27.1642 12.4112 27.168 12.4376C27.1755 12.464 27.1905 12.5244 27.183 12.5433C27.183 12.5433 27.1267 12.5433 27.1042 12.5508C27.1042 12.5508 27.1192 12.664 27.0555 12.6829C26.9917 12.698 27.093 12.7206 27.0217 12.732C26.9542 12.7433 26.9655 12.7508 26.883 12.9018C26.883 12.9018 26.9542 12.864 27.0255 12.8112C27.1005 12.7622 27.018 12.7735 27.138 12.6603C27.2617 12.5357 27.2392 12.5282 27.228 12.4678C27.2205 12.4074 27.2167 12.3546 27.2617 12.298C27.3067 12.2414 27.318 12.1773 27.4755 12.1848C27.4755 12.1848 27.4305 12.0791 27.3742 12.0527C27.3742 12.0527 27.4492 12.0037 27.5242 11.9961C27.5242 11.9961 27.4567 11.9093 27.3142 11.8301C27.3142 11.8301 27.4267 11.732 27.4605 11.6829C27.4605 11.6829 27.4042 11.6942 27.3592 11.6829C27.3592 11.6829 27.3817 11.6339 27.4867 11.5659C27.4867 11.5659 27.543 11.6188 27.5392 11.6754C27.5392 11.6754 27.7192 11.5735 27.8205 11.5848C27.8205 11.5848 27.873 11.7131 27.6217 11.9622C27.6217 11.9622 27.7792 11.9735 27.8467 11.9622C27.8467 11.9622 27.8092 12.0829 27.6217 12.1508C27.4342 12.2263 27.6592 12.3093 27.468 12.2942C27.2805 12.2791 27.3367 12.3433 27.3405 12.4414C27.348 12.5395 27.3517 12.6414 27.348 12.6678C27.348 12.6678 27.198 12.6188 27.198 12.7659C27.2017 12.9169 27.123 12.9471 27.1042 12.9584C27.1042 12.9584 27.0592 12.9206 26.9917 12.8942C26.9917 12.8942 26.898 13.0791 26.748 13.1848V13.1848Z" fill="#5A3719"/>
<path d="M26.5294 11.3199C26.5294 11.3199 26.5819 11.3124 26.6719 11.3652C26.7582 11.4218 26.8444 11.3086 26.7469 11.2784C26.6494 11.2482 26.7469 11.2105 26.8369 11.286C26.9269 11.3577 26.9607 11.3199 26.9944 11.2973C27.0244 11.2709 27.0657 11.2558 27.0057 11.2143C26.9457 11.1728 27.0432 11.1916 27.0919 11.2256C27.1369 11.252 27.1182 11.2822 27.1144 11.2898C27.1069 11.2973 27.1032 11.3992 27.1894 11.3086C27.2794 11.2143 27.3282 11.1275 27.3244 11.0822C27.3244 11.0822 27.3732 11.1124 27.3807 11.169C27.3882 11.2256 27.4557 11.1388 27.4782 11.1086C27.5007 11.0784 27.5382 10.9954 27.5344 10.9426C27.5344 10.9426 27.5944 11.0369 27.6844 10.9426C27.7744 10.8482 27.7369 10.9049 27.8419 10.8784C27.9648 10.8453 28.0754 10.7772 28.1607 10.6822C28.2357 10.5879 28.2394 10.652 28.3332 10.6294C28.4269 10.6067 28.6219 10.4709 28.6407 10.3992C28.6557 10.3275 28.6519 10.2822 28.6257 10.3086C28.5994 10.3313 28.6107 10.3086 28.5694 10.286C28.5282 10.2596 28.4682 10.3199 28.4682 10.3199C28.4682 10.3199 28.5282 10.3652 28.4794 10.3841C28.4344 10.4067 28.3932 10.4709 28.3069 10.4445C28.2207 10.4218 28.1269 10.5275 28.1269 10.5275C28.1269 10.5275 28.2019 10.5879 28.1007 10.6294C27.9994 10.6671 28.0144 10.6822 27.9544 10.6369C27.9544 10.6369 27.8457 10.7765 27.7819 10.8067C27.7819 10.8067 27.7557 10.8067 27.7369 10.7765C27.7369 10.7765 27.6619 10.8558 27.6319 10.8709C27.6319 10.8709 27.5832 10.8332 27.5457 10.8143C27.5457 10.8143 27.4594 10.9237 27.3882 10.9539C27.3882 10.9539 27.3657 10.9162 27.3207 10.8898C27.3207 10.8898 27.2982 11.0256 27.1482 11.1086C27.1482 11.1086 27.1557 11.0709 27.0807 11.0218C27.0807 11.0218 26.8932 11.1841 26.8219 11.1992C26.7469 11.2143 26.8144 11.1652 26.8219 11.1426C26.8369 11.1237 26.8819 11.0558 26.7919 11.0294C26.7019 11.003 26.7169 11.0482 26.6982 11.0558C26.6757 11.0633 26.6757 11.0407 26.6157 11.0482C26.5557 11.0558 26.5669 11.0822 26.5407 11.0935C26.5107 11.1011 26.4057 11.0747 26.4132 11.1464C26.4169 11.2143 26.4694 11.2633 26.3757 11.3049C26.2819 11.3426 26.4132 11.335 26.5294 11.3199V11.3199Z" fill="#7B3C20"/>
<path d="M26.9078 11.1254C26.9078 11.1254 26.9303 11.0311 26.8516 10.9934C26.8516 10.9934 27.3466 10.9141 26.9716 10.7217C26.9716 10.7217 27.4178 10.6349 27.3091 10.4915C27.2078 10.3481 27.1066 10.3783 27.0916 10.3783C27.0766 10.3783 27.1853 10.299 27.2153 10.3103C27.2416 10.3217 27.5978 10.4575 27.5078 10.3368C27.4178 10.2235 27.4253 10.2273 27.4103 10.1934C27.4103 10.1934 27.5266 10.1934 27.7066 10.3669C27.7066 10.3669 27.7441 10.3292 27.7403 10.2575C27.7403 10.2575 27.8641 10.2952 27.9053 10.333C27.9053 10.333 27.9278 10.2877 27.9166 10.2651C27.9166 10.2651 28.0291 10.3217 28.0666 10.3858C28.0666 10.3858 28.1153 10.3405 28.1228 10.2877C28.1228 10.2877 28.2353 10.3368 28.2616 10.3707C28.2616 10.3707 28.2991 10.3217 28.2841 10.2575C28.2841 10.2575 28.4678 10.3066 28.4903 10.1971C28.4903 10.1971 28.6741 10.2349 28.5541 10.3066C28.4041 10.4009 28.5391 10.2839 28.3816 10.3934C28.2616 10.4802 28.1941 10.5783 28.1341 10.5594C28.0928 10.5405 28.0403 10.6688 27.9841 10.6085C27.9278 10.5443 27.9278 10.5707 27.8828 10.6349C27.8519 10.682 27.8167 10.7262 27.7778 10.7669C27.7778 10.7669 27.7478 10.7481 27.7178 10.7217C27.7178 10.7217 27.6878 10.782 27.6428 10.8273C27.6428 10.8273 27.6053 10.7783 27.5453 10.7518C27.5453 10.7518 27.4591 10.8537 27.4028 10.8915C27.4028 10.8915 27.3503 10.8386 27.2941 10.8198C27.2941 10.8198 27.2866 10.9632 27.1778 11.0349C27.1778 11.0349 27.1553 10.9896 27.0803 10.9594C27.0803 10.9594 27.0278 11.0462 26.9078 11.1217V11.1254Z" fill="#5A3719"/>
<path d="M26.648 10.906C26.648 10.906 26.588 10.9513 26.6255 11.0004C26.663 11.0532 26.6668 10.9928 26.7155 10.9891C26.7643 10.9815 27.3718 10.8758 26.8205 10.7136C26.8205 10.7136 26.8468 10.6909 26.9368 10.6834C27.0343 10.6721 27.3793 10.5815 27.218 10.457C27.0568 10.3362 26.9218 10.4985 27.0568 10.3513C27.1693 10.2343 27.0793 10.1777 27.0793 10.1777C27.0793 10.1777 26.7605 10.3891 26.6893 10.4306C26.6218 10.4683 26.5168 10.5438 26.6368 10.5815C26.7605 10.6192 26.8393 10.4532 26.8505 10.4909C26.8618 10.5287 26.6105 10.6721 26.648 10.7325C26.6818 10.8004 26.6743 10.857 26.738 10.8419C26.798 10.8306 26.963 10.8721 26.8318 10.8683C26.693 10.8645 26.6443 10.906 26.6443 10.906H26.648Z" fill="#5A3719"/>
<path d="M26.864 10.5954C26.864 10.5954 26.8078 10.6369 26.8827 10.618C26.9577 10.5992 27.104 10.5652 27.0777 10.5275C27.0477 10.4897 26.9502 10.535 26.864 10.5954Z" fill="black"/>
<path d="M27.8387 9.96221C27.8387 9.96221 28.12 9.95467 28.2325 10.0339C28.345 10.1094 28.405 10.1622 28.4387 10.1773C28.4387 10.1773 28.435 10.283 28.2512 10.2037C28.2512 10.2037 28.2662 10.2566 28.2437 10.3094C28.2437 10.3094 28.18 10.2641 28.1012 10.2452C28.1012 10.2452 28.0862 10.283 28.0637 10.3094C28.0637 10.3094 27.985 10.2264 27.8912 10.1999C27.8912 10.1999 27.8762 10.2415 27.8612 10.2603C27.8612 10.2603 27.7637 10.1999 27.6887 10.1999C27.6887 10.1999 27.7037 10.2641 27.6887 10.2867C27.6887 10.2867 27.4862 10.1245 27.3025 10.1433C27.3025 10.1433 27.3887 10.2754 27.445 10.3358C27.445 10.3358 27.0775 10.3094 27.145 10.1094C27.2012 9.90938 27.1375 9.95844 27.3775 9.95844H27.8387V9.96221Z" fill="#7B3C20"/>
<path d="M26.1121 10.5132C26.1121 10.5132 26.0708 10.5509 26.1121 10.5774C26.1533 10.6075 26.2996 10.5019 26.3183 10.4868C26.3408 10.4717 26.3933 10.4717 26.3183 10.5283C26.2433 10.5849 26.1758 10.6415 26.1308 10.7019C26.1308 10.7019 26.3708 10.634 26.5283 10.4981C26.6896 10.3585 26.5246 10.4491 26.7908 10.317C27.0646 10.1849 27.2071 9.97358 27.0608 9.99623C26.9183 10.0189 26.7871 10.1849 26.6708 10.2491C26.5583 10.3132 26.4946 10.3245 26.5133 10.2868C26.5283 10.2491 26.6146 10.2642 26.7721 10.1358C26.9258 10.0113 26.8921 10.0226 26.8921 9.97736C26.8921 9.93208 26.8358 9.82642 27.0683 9.69811C27.3008 9.57358 28.0283 9.15094 28.0921 9C28.0921 9 27.8783 9.02264 27.5971 9.23019C27.4428 9.35996 27.2742 9.47139 27.0946 9.56226C27.0196 9.59245 27.0271 9.56981 26.9783 9.63396C26.8572 9.76239 26.7308 9.88576 26.5996 10.0038C26.5508 10.0415 26.5321 10.0642 26.5283 10.1472C26.5283 10.1849 26.2133 10.4226 26.1158 10.5132H26.1121Z" fill="#5A3719"/>
<path d="M27.0749 9.95509C27.0749 9.95509 27.0186 9.97773 26.9624 9.95509C26.9136 9.92867 26.9324 9.81924 27.0561 9.74754C27.2048 9.66597 27.3637 9.60504 27.5286 9.56641C27.5286 9.56641 27.5099 9.7098 27.1499 9.83433C27.1499 9.83433 27.1724 9.9098 27.0749 9.95509V9.95509Z" fill="#5A3719"/>
<path d="M27.2031 9.86005C27.2031 9.86005 27.2144 9.89779 27.2031 9.92798C27.2031 9.92798 27.8744 9.99213 28.2194 9.58081C28.2194 9.58081 27.7431 9.62609 27.5556 9.74307C27.5556 9.74307 27.6756 9.59213 28.0319 9.4676C28.3881 9.34307 28.5344 9.18835 28.5644 9.10156C28.5644 9.10156 28.1144 9.26383 27.9006 9.26383C27.9006 9.26383 27.8556 9.26383 27.8144 9.28269C27.7731 9.30911 27.4844 9.51666 27.4094 9.55439C27.4094 9.55439 27.5706 9.5393 27.6306 9.48647C27.6306 9.48647 27.5181 9.78835 27.2031 9.86383V9.86005Z" fill="#AA5323"/>
<path d="M25.9109 10.2444C25.9109 10.2444 25.8247 10.3085 25.8622 10.3349C25.8997 10.3689 25.9597 10.3727 26.0872 10.2632C26.2222 10.15 26.5409 9.87833 26.3422 9.86701C26.3422 9.86701 26.0797 9.85192 26.0909 10.0104C26.0984 10.1689 25.9259 10.2368 25.9109 10.2444ZM25.3147 10.15C25.3147 10.15 25.4872 10.2519 25.4197 10.3349C25.4197 10.3349 25.9447 9.88965 25.7947 9.79154C25.6522 9.69343 25.5359 9.87833 25.5697 9.89343C25.6072 9.91607 25.6822 9.87833 25.6559 9.91607C25.5491 10.002 25.4363 10.0801 25.3184 10.15H25.3147ZM25.1797 10.0066C25.1797 10.0066 25.2922 10.0444 25.2997 10.0934C25.3034 10.1387 25.6447 9.85192 25.5547 9.72739C25.5134 9.67078 25.3297 9.65192 25.3147 9.75758C25.3072 9.87078 25.4872 9.74626 25.4272 9.8255C25.3447 9.92739 25.2059 9.99154 25.1797 10.0066V10.0066ZM26.4022 9.76512C26.4022 9.76512 26.3309 9.81795 26.3984 9.85192C26.4659 9.87833 26.5034 9.82928 26.5372 9.80286C26.5709 9.77267 26.7359 9.65192 26.7697 9.57644C26.8072 9.50097 26.8634 9.47456 26.9234 9.43682C26.9797 9.39909 27.3959 9.18777 27.6547 8.95758C27.9097 8.72739 27.8047 8.78777 28.0672 8.6406C28.3297 8.49343 28.5059 8.35758 28.5622 8.19531C28.5622 8.19531 28.4384 8.23305 28.3297 8.30852C28.1981 8.39374 28.0643 8.47552 27.9284 8.5538C27.8797 8.57267 27.8159 8.57644 27.7784 8.61418C27.7409 8.65192 27.7409 8.70097 27.6172 8.80286C27.4859 8.91229 26.8297 9.38022 26.7472 9.44437C26.6302 9.54911 26.5152 9.65605 26.4022 9.76512Z" fill="#5A3719"/>
<path d="M25.875 9.92154C25.875 9.92154 25.95 9.8838 26.085 9.89135C26.22 9.89889 26.7525 9.37814 26.91 9.27625C27.1496 9.11072 27.3834 8.93704 27.6112 8.7555C27.6787 8.68757 27.6863 8.61965 27.7463 8.58191C27.8025 8.54418 27.8587 8.54795 27.9862 8.47248C28.1175 8.39701 28.7475 8.01965 28.71 7.80078C28.71 7.80078 27.7725 8.36682 27.5588 8.54795C27.2591 8.78309 26.9501 9.00592 26.6325 9.21588C26.5275 9.28757 26.445 9.40455 26.2612 9.54795C26.085 9.69512 25.905 9.81965 25.875 9.92531V9.92154Z" fill="#AA5323"/>
<path d="M25.6797 9.71748C25.6797 9.71748 25.8522 9.70239 25.8747 9.78918C25.8747 9.78918 26.2497 9.53258 26.3322 9.42692C26.4147 9.32126 26.3022 9.38163 26.5159 9.24201C26.86 9.01126 27.1976 8.77091 27.5284 8.52126C27.6297 8.43446 27.8209 8.31371 27.9747 8.21182C28.1247 8.10616 28.7209 7.81182 28.6534 7.57031L28.1209 7.9288C28.0197 7.99673 27.9747 7.95899 27.8772 8.03824C27.7797 8.11748 27.5584 8.27597 27.5209 8.32503C27.3488 8.47347 27.1685 8.61205 26.9809 8.74012C26.8159 8.85333 26.4522 9.06465 26.2722 9.22314C26.0775 9.39256 25.88 9.55862 25.6797 9.72126V9.71748Z" fill="#AA5323"/>
<path d="M25.1406 9.67085C25.1406 9.67085 25.2269 9.67085 25.2569 9.70481C25.2569 9.70481 25.4181 9.55764 25.5906 9.70481C25.5906 9.70481 26.2206 9.27085 26.2844 9.16142C26.3481 9.05576 26.4531 9.05198 26.6969 8.87462C26.9444 8.69349 27.0981 8.61425 27.2594 8.48972C27.4244 8.36142 27.5631 8.21425 27.6794 8.13877C27.7956 8.0633 28.0919 7.86708 28.0469 7.69727C28.0469 7.69727 27.8031 7.83311 27.6494 8.0067C27.4919 8.18028 27.5069 8.03311 27.3456 8.17651C27.1604 8.3481 26.9552 8.49636 26.7344 8.61802C26.5281 8.71991 26.6519 8.70859 26.5019 8.8067C26.3556 8.90104 26.3669 8.88217 26.3144 8.90104C26.2407 8.9185 26.1741 8.95796 26.1231 9.01425C26.0631 9.0784 25.9206 9.16519 25.7631 9.25953C25.5433 9.37683 25.3349 9.51453 25.1406 9.67085V9.67085Z" fill="#AA5323"/>
<path d="M25.3313 9.33894C25.3313 9.33894 25.2938 9.26725 25.3575 9.21442C25.4175 9.16536 25.53 9.03328 25.545 8.95027C25.5638 8.86347 25.5488 8.87857 25.725 8.80687C26.2325 8.59231 26.7132 8.31876 27.1575 7.99177C27.225 7.93517 27.3975 7.81819 27.4688 7.75781C27.4688 7.75781 27.4988 7.85215 27.4238 7.9163C27.1662 8.1195 26.897 8.30725 26.6175 8.47857C26.535 8.52008 26.3325 8.62574 26.2575 8.68611C26.1863 8.74649 26.1975 8.76159 25.875 8.92385C25.5563 9.07857 25.5375 9.09743 25.5488 9.10876C25.56 9.12385 25.7063 9.0597 25.7738 9.01819C25.8413 8.98045 26.1038 8.85593 26.1863 8.79177C26.2698 8.72345 26.3575 8.66043 26.4488 8.6031C26.6787 8.47037 26.9039 8.3294 27.1238 8.18045C27.255 8.07857 27.2925 8.04838 27.3225 8.06725C27.3488 8.08234 27.3975 8.08234 27.3375 8.14272C27.2775 8.2031 27.0863 8.36913 27.0113 8.41819C26.9363 8.46725 26.7075 8.60687 26.6438 8.63706C26.58 8.67479 26.5538 8.7314 26.5163 8.75781C26.4825 8.788 26.3775 8.8597 26.2538 8.88989C26.13 8.92008 26.1038 9.01442 26.0175 9.07102C25.9313 9.12385 25.3425 9.44838 25.3238 9.4597C25.3238 9.4597 25.3575 9.42196 25.3313 9.33894V9.33894Z" fill="#AA5323"/>
<path d="M27.3879 7.99665C27.3879 7.99665 27.3541 8.02684 27.3729 8.04194C27.3954 8.06458 27.4779 8.12496 27.5829 8.0193C27.7295 7.88185 27.8862 7.75571 28.0516 7.64194C28.1379 7.58533 28.1866 7.53628 28.1829 7.46458C28.1829 7.46458 27.7554 7.69099 27.3879 7.99665ZM27.9729 7.95892C27.9729 7.95892 28.0366 7.84948 28.1979 7.74382C28.3591 7.64194 28.6029 7.49099 28.6291 7.45703C28.6291 7.45703 28.6891 7.52118 28.5654 7.60043C28.4286 7.68566 28.2935 7.77373 28.1604 7.86458C28.1341 7.89099 28.0854 7.92496 27.9729 7.95892Z" fill="#AA5323"/>
<path d="M24.7143 9.15146C24.7143 9.15146 24.5343 9.24957 24.5981 9.30995C24.6618 9.36655 24.7556 9.34769 24.8006 9.33259L24.9206 9.29486C24.9356 9.29486 25.0893 9.2458 25.1306 9.1741C25.1681 9.09863 25.2731 9.01561 25.3556 8.95523C25.4381 8.89863 25.4681 8.83448 25.4568 8.79297L24.7143 9.15146ZM23.6493 9.98165C23.6493 9.98165 23.7768 9.90618 23.9493 9.95523C23.9493 9.95523 23.9418 9.91372 23.9118 9.89108C23.9118 9.89108 24.1256 9.83448 24.1706 9.74014C24.2156 9.6458 24.2268 9.66467 24.2643 9.64203C24.3093 9.61184 24.5906 9.38542 24.5568 9.33636C24.5231 9.28731 24.5193 9.21938 24.4931 9.19674C24.4931 9.19674 24.4368 9.27599 24.1556 9.41184C23.8856 9.54769 23.5781 9.6458 23.3531 9.94769C23.1318 10.2496 23.1543 10.4232 23.4281 10.5024C23.4281 10.5024 23.6156 10.3816 24.0881 10.4232C24.5531 10.4647 24.7106 10.642 24.7406 10.6722C24.7706 10.7062 24.8643 10.8232 24.7743 11.0156C24.7743 11.0156 24.8681 11.0571 24.8718 10.9666C24.8831 10.8798 24.8868 10.8986 24.9093 10.9099C24.9318 10.925 24.9581 10.9288 24.9468 10.8571C24.9375 10.7614 24.9081 10.6688 24.8606 10.5854C24.8193 10.5288 24.8681 10.5552 24.8943 10.5628C24.9206 10.5741 25.0181 10.6571 24.9618 10.5062C24.9056 10.3628 24.8868 10.4307 24.8868 10.4383C24.8868 10.4496 24.8718 10.4835 24.7443 10.3854C24.6454 10.3101 24.5335 10.2538 24.4143 10.2194C24.3281 10.1967 24.3881 10.1967 24.4406 10.1816C24.4931 10.159 24.5568 10.1515 24.5831 10.0911C24.5831 10.0911 24.5306 10.1024 24.4406 10.0684C24.3677 10.0469 24.291 10.0425 24.2162 10.0556C24.1414 10.0687 24.0706 10.0989 24.0093 10.1439C24.0093 10.1439 24.0543 9.9741 23.9156 9.98165C23.7806 9.99297 23.6831 9.98919 23.5406 10.1024C23.5406 10.1024 23.5293 9.92882 23.6681 9.83825C23.8068 9.74391 23.7881 9.80052 23.8631 9.77787C23.9381 9.75523 23.9493 9.67599 23.9156 9.64957C23.9156 9.64957 24.0956 9.68353 24.3956 9.4307C24.3956 9.4307 24.2343 9.6458 24.0393 9.68731C24.0393 9.68731 24.0056 9.80052 23.8256 9.82693C23.6456 9.85335 23.6531 9.95523 23.6531 9.98165H23.6493Z" fill="#7B3C20"/>
<path d="M23.1364 11.0257C23.1364 11.0257 23.2189 10.4936 23.7177 10.4559C24.1452 10.4182 24.2839 10.4748 24.3702 10.505C24.4564 10.5351 24.6702 10.5955 24.5877 10.6634C24.5052 10.7314 24.4564 10.7201 24.4564 10.7201C24.4564 10.7201 24.5502 10.6106 24.4639 10.5955C24.3777 10.5767 24.3739 10.6295 24.3627 10.671C24.3477 10.7201 24.3439 10.7691 24.3027 10.8068C24.3027 10.8068 24.2577 10.754 24.1939 10.7993C24.1302 10.8446 24.1864 10.8446 24.2127 10.837C24.2352 10.8295 24.2689 10.8182 24.2614 10.8559C24.2577 10.8936 24.2239 10.9616 24.1189 11.0144C24.0177 11.0672 24.0214 11.0634 23.9014 11.0861C23.7777 11.105 23.6652 11.154 23.5077 11.2861C23.3502 11.4219 23.1814 11.3767 23.1477 11.2295C23.1177 11.1012 23.1327 11.0257 23.1327 11.0257H23.1364Z" fill="#5A3719"/>
<path d="M23.6992 11.0073C23.6992 11.0073 23.7442 10.9055 23.6617 10.8564C23.6617 10.8564 23.403 10.9017 23.3242 10.8224C23.3242 10.8224 23.6055 10.8073 23.7817 10.7356C23.9542 10.6715 23.9055 10.6224 23.8455 10.6073C23.7855 10.596 23.673 10.6262 23.6617 10.6828C23.6617 10.6828 23.6242 10.6224 23.6692 10.5847C23.718 10.5432 23.7817 10.5356 23.8455 10.5545C23.9092 10.5696 23.9617 10.5998 24.168 10.4941C24.168 10.4941 24.2842 10.5206 24.2917 10.5998C24.2917 10.6828 24.2805 10.713 24.2692 10.7243C24.2617 10.7394 24.2467 10.7621 24.2205 10.7621C24.198 10.7545 24.1642 10.7507 24.1342 10.8073C24.108 10.864 24.0855 10.9092 24.0367 10.947C24.0367 10.947 24.093 10.7734 23.943 10.7319C23.943 10.7319 23.8192 10.8073 23.7255 10.8111C23.7255 10.8111 23.8455 10.9243 23.6955 11.0073H23.6992Z" fill="black"/>
<path d="M23.9719 10.691C23.9719 10.691 23.9119 10.6306 23.9869 10.6193C24.0619 10.6155 24.1594 10.6722 24.1444 10.7212C24.1219 10.7665 24.0319 10.7627 23.9719 10.691V10.691Z" fill="#5A3719"/>
<path d="M28.2241 9.85312C28.2241 9.85312 28.0854 9.89086 28.2166 9.97765C28.3441 10.0644 28.4041 10.1361 28.4979 10.1588C28.5916 10.1852 28.6854 10.2154 28.6854 10.3097C28.6854 10.4041 28.6666 10.4418 28.6141 10.506C28.5654 10.5701 28.6441 10.5965 28.7116 10.5626C28.7791 10.5248 28.8354 10.506 28.8804 10.4795C28.9216 10.4531 28.9929 10.4569 28.9329 10.4909C28.8616 10.5286 28.7941 10.5475 28.8804 10.5475C28.9666 10.5512 29.4879 10.5626 29.5966 10.5248C29.7091 10.4909 29.8516 10.4795 29.8591 10.3361C29.8591 10.3361 29.8666 10.2758 29.9079 10.2456C29.9454 10.2192 29.9754 10.1588 29.9154 10.2003C29.8591 10.2418 29.8141 10.2644 29.8029 10.2493C29.7916 10.238 29.7841 10.2267 29.8291 10.2078C29.8741 10.189 29.8966 10.2078 29.9379 10.1512C29.9754 10.0909 29.9754 10.0984 29.9529 10.0758C29.9304 10.0531 29.8854 10.038 29.9079 10.0078C29.9304 9.97765 29.9529 9.89463 29.8554 9.94369C29.7616 9.99275 29.5704 10.1248 29.4804 10.1437C29.3979 10.1626 29.3304 10.189 29.2141 10.2116C29.1016 10.238 29.0266 10.2644 28.8954 10.3361C28.7716 10.4041 28.7829 10.2946 28.8016 10.2795C28.8016 10.2795 28.8504 10.3663 28.9779 10.2531C29.1054 10.1437 29.0641 10.2493 29.3754 10.1437C29.6866 10.0418 29.6116 10.0267 29.7316 9.96256C29.8554 9.89841 29.9716 9.89463 29.8816 9.81161C29.7991 9.72105 29.7916 9.71727 29.6829 9.81161C29.5064 9.94189 29.2999 10.025 29.0829 10.0531C29.0829 10.0531 29.7879 9.75124 29.7166 9.70595C29.6551 9.66523 29.5882 9.63346 29.5179 9.61161C29.4691 9.60029 29.4541 9.58897 29.3416 9.6418C29.2291 9.69086 29.2104 9.70218 29.1804 9.70595C29.1429 9.70595 29.0491 9.72859 28.9179 9.79652C28.7829 9.86822 28.7116 9.89463 28.6179 9.94746C28.6179 9.94746 28.6816 9.82293 28.9591 9.73992C29.2366 9.6569 29.3754 9.58142 29.3491 9.56633C29.3229 9.55124 29.2479 9.53614 29.1991 9.54746C29.1429 9.55878 29.1616 9.54369 28.9891 9.61161C28.8204 9.67954 28.8916 9.66444 28.7566 9.69463C28.6179 9.72105 28.5654 9.75124 28.4979 9.78142C28.4979 9.78142 28.5279 9.74369 28.6141 9.70973C28.6629 9.69463 28.5654 9.67576 28.6966 9.67199H28.7341C28.847 9.64625 28.9556 9.60431 29.0566 9.54746C29.0304 9.54369 28.8654 9.52482 28.7004 9.60784C28.5316 9.68331 28.6066 9.6569 28.5504 9.66444C28.4904 9.67954 28.3629 9.75501 28.3254 9.79275C28.2841 9.82671 28.2241 9.84935 28.2241 9.84935V9.85312Z" fill="white"/>
<path d="M24.1019 10.6146C24.1019 10.6146 24.1694 10.6335 24.1844 10.6825C24.2032 10.7278 24.2444 10.6599 24.2444 10.641C24.2407 10.6184 24.1994 10.5278 24.1319 10.5693C24.0569 10.6108 24.0944 10.6108 24.1019 10.6146Z" fill="#5A3719"/>
<path d="M23.9198 11.5279C23.9198 11.5279 24.0586 11.46 24.1786 11.4713C24.1786 11.4713 24.1298 11.3053 24.2123 11.3317C24.2911 11.3619 24.2686 11.3468 24.2873 11.3468C24.2873 11.3468 24.2911 11.2374 24.2686 11.1959C24.2686 11.1959 24.3548 11.2147 24.4411 11.2147C24.4411 11.2147 24.3586 11.06 24.4486 10.9506C24.4649 10.9815 24.4873 11.0089 24.5143 11.0309C24.5414 11.0529 24.5726 11.0693 24.6061 11.0789V10.9921C24.6061 10.9921 24.6698 10.9808 24.7186 11.0072C24.7711 11.0374 24.8123 10.7204 24.6623 10.6562C24.6623 10.6562 24.6248 10.7129 24.4861 10.743C24.3473 10.7732 24.3473 10.7996 24.2911 10.9053C24.2348 11.011 24.1786 11.0147 24.0586 11.094C23.9461 11.1695 23.8711 11.3204 23.8711 11.3355C23.8711 11.3355 23.9273 11.411 23.9198 11.5279V11.5279Z" fill="#7B3C20"/>
<path d="M28.6179 9.7099C28.6666 9.70235 28.5654 9.67593 28.6929 9.67216H28.7304C28.8445 9.64676 28.9544 9.60482 29.0566 9.54763C29.0304 9.54386 28.8654 9.52499 28.7004 9.60423C28.5354 9.68348 28.6066 9.65706 28.5504 9.66839C28.4904 9.67971 28.3629 9.75518 28.3254 9.79291C28.2841 9.82688 28.2241 9.84952 28.2241 9.84952C28.2241 9.84952 28.0854 9.88725 28.2166 9.97782C28.3441 10.0646 28.4041 10.1363 28.4979 10.159C28.5916 10.1854 28.6854 10.2156 28.6854 10.3099C28.6874 10.3458 28.6821 10.3817 28.6698 10.4154C28.6576 10.4491 28.6386 10.48 28.6141 10.5061C28.5654 10.5703 28.6441 10.5967 28.7116 10.5627C28.7791 10.525 28.8354 10.5061 28.8804 10.4797C28.9216 10.4533 28.9929 10.4571 28.9291 10.491C28.8616 10.5288 28.7941 10.5476 28.8804 10.5476C28.9666 10.5514 29.4879 10.5627 29.5966 10.525C29.7091 10.491 29.8516 10.4797 29.8591 10.3363C29.8591 10.3363 29.8666 10.2759 29.9079 10.2457C29.9454 10.2193 29.9754 10.159 29.9154 10.2005C29.8591 10.242 29.8104 10.2646 29.8029 10.2495C29.7916 10.2382 29.7841 10.2269 29.8291 10.208C29.8741 10.1891 29.8966 10.208 29.9379 10.1514C29.9754 10.091 29.9754 10.0986 29.9529 10.0759L29.9154 10.042C29.9154 10.042 29.8816 10.0156 29.8441 10.0382C29.7616 10.084 29.6733 10.1183 29.5816 10.1401C29.5216 10.1439 29.4504 10.174 29.3379 10.2307C29.2254 10.2873 29.0304 10.4042 29.0004 10.2948L28.8954 10.3325C28.7679 10.4005 28.7829 10.3061 28.8016 10.2797C28.8016 10.2797 28.7341 10.3552 28.7379 10.2873C28.7379 10.2193 28.7829 10.2306 28.8616 10.208C28.9366 10.1854 29.0491 10.1325 29.0041 10.0948C28.9554 10.0571 28.9029 10.1325 28.8466 10.1627C28.7941 10.1891 28.6854 10.208 28.6666 10.1288C28.6516 10.0495 28.6516 9.99291 28.5054 9.98537C28.3554 9.97782 28.3591 9.88348 28.4004 9.84197C28.4416 9.80423 28.4754 9.73631 28.6141 9.7099H28.6179Z" fill="#999999"/>
<path d="M29.0845 10.4304C29.0845 10.4304 29.3133 10.3247 29.5233 10.2757C29.737 10.2266 29.5683 10.2832 29.5345 10.2908C29.497 10.3021 29.1708 10.4115 29.092 10.4492C29.017 10.487 29.0283 10.4568 29.0845 10.4342V10.4304ZM29.137 10.4794C29.137 10.4794 29.3958 10.3926 29.4445 10.4266C29.4933 10.4643 29.452 10.4492 29.3958 10.4568C29.3358 10.4606 29.182 10.487 29.1408 10.487C29.0995 10.487 29.137 10.4794 29.137 10.4794V10.4794ZM29.5495 10.3851C29.5495 10.3851 29.602 10.3775 29.6058 10.4002C29.6095 10.4153 29.5833 10.4191 29.557 10.4153C29.5308 10.4115 29.5083 10.3964 29.5533 10.3851H29.5495Z" fill="black"/>
<path d="M22.7269 12.6558C22.7269 12.6558 22.7156 12.4218 22.8319 12.3086C22.9481 12.1954 23.4994 11.6105 23.5856 11.4483C23.5856 11.4483 23.6606 11.4973 23.6606 11.5916C23.6606 11.5916 23.7544 11.4294 23.8294 11.3652C23.8294 11.3652 23.8931 11.4332 23.8856 11.569C23.8856 11.569 24.0169 11.4973 24.2231 11.4973C24.2231 11.4973 24.1481 11.5879 24.1444 11.6445C24.1444 11.6445 24.4294 11.6067 24.5831 11.6332C24.5831 11.6332 24.1856 11.8596 24.2944 11.8784C24.4106 11.8973 24.5269 11.8784 24.5269 11.8784C24.5269 11.8784 24.3994 12.003 24.1969 12.0294C24.1969 12.0294 24.4556 12.0294 24.5044 12.086C24.5044 12.086 24.2569 12.1237 24.0544 12.2747C24.0544 12.2747 24.0394 12.2671 24.0394 12.2105C24.0394 12.2105 24.0281 12.2633 23.9719 12.3124C23.9156 12.3577 23.7806 12.4633 23.7281 12.5124C23.6756 12.5615 23.5856 12.6633 23.4806 12.6633C23.4806 12.6633 23.5031 12.5841 23.4281 12.5577C23.3892 12.5443 23.3472 12.5426 23.3073 12.5526C23.2674 12.5627 23.2312 12.5841 23.2031 12.6143C23.2031 12.6143 22.9406 12.6181 22.8506 12.6332C22.8506 12.6332 22.9106 12.535 22.9631 12.535C23.0231 12.535 23.2481 12.5728 23.2669 12.4143C23.2894 12.2633 23.1244 12.3011 23.1844 12.2105C23.2481 12.12 23.2331 12.1275 23.2369 12.1124C23.2369 12.1124 23.1844 12.1426 23.1544 12.2256C23.13 12.3174 23.0742 12.3975 22.9969 12.452C22.923 12.4999 22.8614 12.5645 22.8169 12.6407C22.8169 12.6407 22.7681 12.6407 22.7269 12.6558V12.6558Z" fill="white"/>
<path d="M22.9805 12.5177C22.9805 12.5177 22.9917 12.4875 23.0667 12.4724C23.1492 12.4611 23.153 12.4234 23.1417 12.4045C23.1305 12.3894 23.0855 12.3894 23.1605 12.2988C23.1605 12.2988 23.1905 12.3101 23.2055 12.329C23.228 12.3517 23.3142 12.5366 22.9805 12.5177Z" fill="white"/>
<path d="M22.7945 12.3539C22.7945 12.5049 22.9933 12.4483 22.9933 12.4483C22.9404 12.4875 22.8926 12.5331 22.8508 12.5841C22.8658 12.5086 22.7383 12.4898 22.7383 12.4898C22.7497 12.4418 22.7687 12.3959 22.7945 12.3539V12.3539ZM23.5183 11.5426L23.582 11.4483C23.582 11.4483 23.657 11.4973 23.657 11.5916C23.657 11.5916 23.7508 11.4294 23.8258 11.3652C23.8258 11.3652 23.8895 11.4332 23.882 11.569C23.882 11.569 24.0133 11.4973 24.2195 11.4973C24.2195 11.4973 24.1445 11.5879 24.1408 11.6445C24.1408 11.6445 24.4258 11.6067 24.5795 11.6332C24.5795 11.6332 24.182 11.8596 24.2908 11.8784C24.407 11.8973 24.5233 11.8784 24.5233 11.8784C24.5233 11.8784 24.3958 12.003 24.1933 12.0294C24.1933 12.0294 24.452 12.0294 24.5008 12.086C24.5008 12.086 24.4258 12.0973 24.3283 12.1313C24.3283 12.1313 24.257 12.0633 24.0433 12.0747C24.0433 12.0747 24.2083 11.9766 24.3433 11.9464C24.3433 11.9464 24.2833 11.8709 24.1933 11.9426C24.1933 11.9426 24.0095 11.8181 24.1633 11.7086C24.1633 11.7086 24.0583 11.6898 23.987 11.7388C23.987 11.7388 23.987 11.652 24.0658 11.6143C24.0658 11.6143 23.8633 11.5766 23.8145 11.7275C23.8145 11.7275 23.777 11.6709 23.7958 11.5992C23.7958 11.5992 23.672 11.6709 23.6158 11.7501C23.6158 11.7501 23.597 11.5992 23.5183 11.5426M23.1283 12.5086C23.0945 12.5162 23.042 12.52 22.9783 12.5162C22.9783 12.5162 22.9858 12.4973 23.027 12.4784C23.027 12.4784 23.042 12.5086 23.1283 12.5086Z" fill="#999999"/>
<path d="M23.4961 11.9316C23.4961 11.9316 23.5898 12.0071 23.6198 12.0448C23.6198 12.0448 23.7061 11.992 23.7323 11.9429C23.7323 11.9429 23.8036 11.9845 23.8223 12.0486C23.8223 12.0486 23.8711 12.0184 23.8786 11.9731C23.8786 11.9731 23.9911 11.9958 24.0361 12.0335C24.0361 12.0335 24.0511 11.9203 24.0361 11.8524C24.0361 11.8524 24.1148 11.8599 24.1636 11.8788C24.1636 11.8788 24.1186 11.8033 24.3511 11.709C24.3511 11.709 24.1748 11.7505 24.1073 11.8222C24.1073 11.8222 24.0323 11.8297 23.9986 11.8071V11.9769C23.9986 11.9769 23.9536 11.9543 23.8673 11.9354C23.8673 11.9354 23.8448 11.9731 23.8298 11.9807C23.8298 11.9807 23.7736 11.9354 23.7511 11.8788C23.7511 11.8788 23.6648 11.958 23.6386 11.992C23.6386 11.992 23.5523 11.9316 23.4961 11.9316V11.9316Z" fill="black"/>
<path d="M22.9688 13.0869C22.9688 13.0869 23.0062 13.102 23.0925 13.034C23.1787 12.9661 23.4187 12.8114 23.4375 12.6869C23.4637 12.5623 23.3625 12.5586 23.2875 12.5925C23.205 12.6303 23.2387 12.6944 23.2425 12.7208C23.2425 12.7435 23.25 12.8303 23.1187 12.9472L22.9688 13.0869Z" fill="#FFC221"/>
<path d="M22.9463 13.1238C22.9463 13.1238 22.7513 13.0407 22.9238 12.954C23.0963 12.8672 23.1751 12.8445 23.1938 12.769C23.2163 12.6973 23.2013 12.7124 23.1376 12.7426C23.0738 12.769 22.8301 12.886 22.7926 12.7804C22.7926 12.7804 22.8938 12.8181 23.0176 12.7577C23.1451 12.6936 23.2501 12.6785 23.1676 12.6521C23.0299 12.6376 22.8909 12.644 22.7551 12.6709C22.7026 12.686 22.7176 12.6823 22.7063 12.7313C22.6988 12.7804 22.6463 12.8823 22.6238 12.9087C22.6051 12.9389 22.5563 13.0596 22.6463 13.1162C22.692 13.1418 22.7432 13.1559 22.7954 13.1572C22.8477 13.1586 22.8995 13.1471 22.9463 13.1238V13.1238Z" fill="#FFC221"/>
<path d="M22.8712 12.6973C22.8712 12.6973 22.8225 12.7048 22.8337 12.7237C22.8412 12.7425 22.8525 12.7388 22.8712 12.7388C22.8825 12.7388 22.9087 12.7312 22.9125 12.7199C22.9125 12.7086 22.8825 12.6935 22.8712 12.701V12.6973Z" fill="black"/>
<path d="M22.9304 13.0797C22.9304 13.0797 22.8404 13.0382 22.9454 12.9816C23.0467 12.9249 23.1554 12.8683 23.1704 12.8457C23.1704 12.8457 23.1217 12.9174 22.9304 13.0797V13.0797Z" fill="white"/>
</g>
</g>
<defs>
<filter id="filter0_d_336_14426" x="0" y="-2" width="36" height="36" filterUnits="userSpaceOnUse" color-interpolation-filters="sRGB">
<feFlood flood-opacity="0" result="BackgroundImageFix"/>
<feColorMatrix in="SourceAlpha" type="matrix" values="0 0 0 0 0 0 0 0 0 0 0 0 0 0 0 0 0 0 127 0" result="hardAlpha"/>
<feOffset dy="4"/>
<feGaussianBlur stdDeviation="3"/>
<feComposite in2="hardAlpha" operator="out"/>
<feColorMatrix type="matrix" values="0 0 0 0 0 0 0 0 0 0 0 0 0 0 0 0 0 0 0.16 0"/>
<feBlend mode="normal" in2="BackgroundImageFix" result="effect1_dropShadow_336_14426"/>
<feBlend mode="normal" in="SourceGraphic" in2="effect1_dropShadow_336_14426" result="shape"/>
</filter>
<clipPath id="clip0_336_14426">
<rect width="24" height="18.1132" fill="white" transform="translate(6 3)"/>
</clipPath>
</defs>
</svg>
