<svg width="36" height="31" viewBox="0 0 36 31" fill="none" xmlns="http://www.w3.org/2000/svg">
<g filter="url(#filter0_d_336_16745)">
<g clip-path="url(#clip0_336_16745)">
<path fill-rule="evenodd" clip-rule="evenodd" d="M6 3H29.9977V21H6V3Z" fill="#000099"/>
<path fill-rule="evenodd" clip-rule="evenodd" d="M10.9844 3L28.9492 21.0105V3.01055L10.9844 3Z" fill="#FFCC00"/>
<path fill-rule="evenodd" clip-rule="evenodd" d="M24.4652 19.9273L23.4844 19.2137L22.4789 19.9238L22.8586 18.7566L21.8672 18.0359H23.0977L23.4773 16.8687L23.8535 18.0395H25.084L24.0996 18.7672L24.4652 19.9273ZM27.3234 20.293L26.093 20.2894L25.7168 19.1187L25.3371 20.2859H24.1066L25.098 21.0066L24.7184 22.1738L25.7238 21.4637L26.7082 22.1773L26.3391 21.0172L27.3234 20.293V20.293ZM21.8531 16.5242L22.8375 15.7965L21.607 15.793L21.2309 14.6258L20.8512 15.793L19.6207 15.7895L20.6121 16.5102L20.2324 17.6809L21.2379 16.9672L22.2223 17.6844L21.8531 16.5242V16.5242ZM19.5926 14.2566L20.577 13.5324L19.3465 13.5289L18.9703 12.3582L18.5871 13.5254H17.3602L18.3516 14.2461L17.9719 15.4133L18.9773 14.7031L19.9582 15.4168L19.5926 14.2566V14.2566ZM17.3531 12.0207L18.3375 11.293H17.107L16.7344 10.1187L16.3547 11.2859H15.1242L16.1156 12.0031L15.7359 13.1738L16.7414 12.4602L17.7258 13.1773L17.3566 12.0172L17.3531 12.0207ZM15.0891 9.76016L16.0734 9.03594L14.843 9.03242L14.4668 7.86172L14.0836 9.02891H12.8566L13.8516 9.74961L13.4719 10.9168L14.4773 10.2066L15.4582 10.9203L15.0926 9.76016H15.0891ZM12.8531 7.51367L13.834 6.78594H12.6035L12.2309 5.61172L11.8477 6.78242H10.6172L11.6156 7.49961L11.2324 8.6668L12.2379 7.95664L13.2152 8.67383L12.8531 7.51367V7.51367ZM10.6031 5.26367L11.584 4.53594H10.3535L9.98086 3.36172L9.59766 4.53242H8.36719L9.36563 5.24961L8.97891 6.42031L9.98789 5.70664L10.9652 6.42383L10.6031 5.26367V5.26367ZM8.35312 3.01367L9.33047 2.28594H8.1L7.72383 1.11523L7.34766 2.28242H6.11719L7.11211 2.99961L6.73242 4.1668L7.73789 3.45664L8.71523 4.17383L8.35312 3.01367V3.01367Z" fill="white"/>
</g>
</g>
<defs>
<filter id="filter0_d_336_16745" x="0" y="-2" width="36" height="36" filterUnits="userSpaceOnUse" color-interpolation-filters="sRGB">
<feFlood flood-opacity="0" result="BackgroundImageFix"/>
<feColorMatrix in="SourceAlpha" type="matrix" values="0 0 0 0 0 0 0 0 0 0 0 0 0 0 0 0 0 0 127 0" result="hardAlpha"/>
<feOffset dy="4"/>
<feGaussianBlur stdDeviation="3"/>
<feComposite in2="hardAlpha" operator="out"/>
<feColorMatrix type="matrix" values="0 0 0 0 0 0 0 0 0 0 0 0 0 0 0 0 0 0 0.16 0"/>
<feBlend mode="normal" in2="BackgroundImageFix" result="effect1_dropShadow_336_16745"/>
<feBlend mode="normal" in="SourceGraphic" in2="effect1_dropShadow_336_16745" result="shape"/>
</filter>
<clipPath id="clip0_336_16745">
<rect width="24" height="18" fill="white" transform="translate(6 3)"/>
</clipPath>
</defs>
</svg>
