<svg width="36" height="31" viewBox="0 0 36 31" fill="none" xmlns="http://www.w3.org/2000/svg">
<g filter="url(#filter0_d_336_32472)">
<g clip-path="url(#clip0_336_32472)">
<path fill-rule="evenodd" clip-rule="evenodd" d="M4.5 3H31.5V21H4.5V3Z" fill="#00843D"/>
<path fill-rule="evenodd" clip-rule="evenodd" d="M13.7578 7.83477C14.7387 8.30586 15.9059 7.83477 16.3277 7.18086C16.7637 6.56914 16.8164 5.54609 16.0676 4.60742C17.2277 5.5707 17.4879 6.66406 16.9078 7.56406C16.1344 8.59414 14.4258 8.5625 13.7578 7.83477V7.83477Z" fill="white"/>
<path fill-rule="evenodd" clip-rule="evenodd" d="M15.4965 5.43984L15.6934 5.44336L15.5387 5.56641L15.5984 5.76328L15.4332 5.64727L15.275 5.76328L15.3277 5.56992L15.1695 5.44687L15.3664 5.44336L15.4332 5.25L15.4965 5.43984ZM14.5227 6.66328H14.7195L14.5648 6.78984L14.6246 6.9832L14.4594 6.86719L14.2977 6.98672L14.3539 6.78984L14.1957 6.67031L14.3926 6.66328L14.4559 6.46992L14.5227 6.66328ZM14.5859 5.7H14.7863L14.6281 5.82656L14.6879 6.01992L14.5262 5.90391L14.3645 6.02344L14.4207 5.82656L14.2625 5.70352L14.4594 5.7L14.5227 5.50664L14.5859 5.7ZM14.5859 4.7332H14.7863L14.6246 4.86328L14.6844 5.05664L14.5227 4.94414L14.3609 5.06016L14.4172 4.8668L14.259 4.74375L14.4559 4.74023L14.5191 4.54688L14.5859 4.7332ZM13.5066 5.95664H13.7035L13.5453 6.0832L13.6051 6.27656L13.4434 6.16055L13.2816 6.28008L13.3379 6.0832L13.1797 5.96367L13.3766 5.95664L13.4398 5.76328L13.5066 5.95664Z" fill="white"/>
<path fill-rule="evenodd" clip-rule="evenodd" d="M6.16797 3H11.9547V21H6.16797V3Z" fill="#CA3745"/>
<path fill-rule="evenodd" clip-rule="evenodd" d="M6.16797 7.69336V7.56328L6.40703 7.24336L6.36133 7.17656L6.50195 6.98672L6.45625 6.91992L6.36133 7.05L6.31211 6.98672L6.64961 6.53672L6.69883 6.6L6.64961 6.66328L6.74805 6.79688L6.98711 6.47344L6.74453 6.16055L6.64961 6.28008L6.69883 6.34687L6.64961 6.41016L6.31211 5.96016L6.36133 5.89688L6.45625 6.02344L6.50547 5.96016L6.36133 5.7668L6.40703 5.70352L6.16797 5.38008V5.25L6.50547 5.7L6.45625 5.76328L6.60039 5.95664L6.50547 6.08672L6.60039 6.21328L6.74805 6.02344L7.08906 6.48047L6.74805 6.92344L6.60742 6.73008L6.50898 6.86016L6.60391 6.99023L6.46328 7.18008L6.50898 7.24688L6.17148 7.69688L6.16797 7.69336Z" fill="#FAAE29"/>
<path fill-rule="evenodd" clip-rule="evenodd" d="M6.16797 6.08594L6.21719 6.2125V6.40937H6.36133L6.45977 6.47266L6.36133 6.53945H6.2207V6.7293L6.17148 6.85938V6.08594H6.16797Z" fill="#FAAE29"/>
<path fill-rule="evenodd" clip-rule="evenodd" d="M6.16797 10.7809V10.6508L6.40703 10.3309L6.36133 10.2641L6.50195 10.0707L6.45625 10.0074L6.36133 10.1375L6.31211 10.0707L6.64961 9.6207L6.69883 9.6875L6.64961 9.75078L6.74805 9.88086L6.98711 9.55742L6.74453 9.24453L6.64961 9.36406L6.69883 9.43086L6.64961 9.49414L6.31211 9.04414L6.36133 8.97734L6.45625 9.10391L6.50547 9.04063L6.36133 8.84727L6.40703 8.78398L6.16797 8.46055V8.33398L6.50547 8.78398L6.45625 8.84727L6.60039 9.04063L6.50547 9.16719L6.60039 9.29727L6.74453 9.10391L7.08555 9.56094L6.74453 10.0039L6.60391 9.81055L6.50547 9.94062L6.60039 10.0672L6.45977 10.2605L6.50547 10.3273L6.16797 10.7773V10.7809Z" fill="#FAAE29"/>
<path fill-rule="evenodd" clip-rule="evenodd" d="M6.16797 9.16992L6.21719 9.3V9.49336H6.36133L6.45977 9.55664L6.36133 9.61992H6.2207V9.81328L6.17148 9.94336V9.16992H6.16797Z" fill="#FAAE29"/>
<path fill-rule="evenodd" clip-rule="evenodd" d="M6.16797 13.8633V13.7367L6.40703 13.4133L6.36133 13.35L6.50195 13.1566L6.45625 13.0934L6.36133 13.2199L6.31211 13.1566L6.64961 12.7066L6.69883 12.7699L6.64961 12.8367L6.74805 12.9668L6.98711 12.6434L6.74453 12.327L6.64961 12.45L6.69883 12.5133L6.64961 12.5766L6.31211 12.1266L6.36133 12.0633L6.45625 12.1934L6.50547 12.1266L6.36133 11.9367L6.40703 11.8699L6.16797 11.55V11.4199L6.50547 11.8699L6.45625 11.9367L6.60039 12.1266L6.50547 12.2566L6.60039 12.3867L6.74805 12.1934L7.08555 12.6504L6.74453 13.0934L6.60391 12.9L6.50547 13.0266L6.60039 13.1566L6.45977 13.35L6.50547 13.4133L6.16797 13.8633V13.8633Z" fill="#FAAE29"/>
<path fill-rule="evenodd" clip-rule="evenodd" d="M6.16797 12.2574L6.2207 12.3875V12.5809H6.36133L6.45977 12.6441L6.36133 12.7039H6.2207V12.8973L6.17148 13.0273V12.2539L6.16797 12.2574Z" fill="#FAAE29"/>
<path fill-rule="evenodd" clip-rule="evenodd" d="M6.16797 16.7559V16.6258L6.40703 16.3059L6.36133 16.2426L6.50195 16.0492L6.45625 15.9859L6.36133 16.1125L6.31211 16.0492L6.64961 15.5992L6.69883 15.6625L6.64961 15.7258L6.74805 15.8559L6.98711 15.5359L6.74453 15.2195L6.64961 15.3426L6.69883 15.4059L6.64961 15.4691L6.31211 15.0191L6.36133 14.9559L6.45625 15.0859L6.50547 15.0191L6.36133 14.8258L6.40703 14.7625L6.16797 14.4426V14.3125L6.50547 14.7625L6.45625 14.8258L6.60039 15.0191L6.50547 15.1492L6.60039 15.2758L6.74805 15.0859L7.08555 15.543L6.74453 15.9859L6.60391 15.7926L6.50547 15.9191L6.60039 16.0492L6.45977 16.2426L6.50547 16.3059L6.16797 16.7559V16.7559Z" fill="#FAAE29"/>
<path fill-rule="evenodd" clip-rule="evenodd" d="M6.16797 15.15L6.21719 15.2766V15.4699H6.36133L6.45977 15.5367L6.36133 15.6H6.2207V15.7934L6.17148 15.9199V15.1465L6.16797 15.15Z" fill="#FAAE29"/>
<path fill-rule="evenodd" clip-rule="evenodd" d="M11.9566 7.69336V7.56328L11.7176 7.24336L11.7668 7.17656L11.6227 6.98672L11.6684 6.91992L11.7668 7.05L11.816 6.98672L11.4785 6.53672L11.4293 6.6L11.4785 6.66328L11.3766 6.79336L11.141 6.46992L11.3801 6.15703L11.4785 6.27656L11.4293 6.34336L11.475 6.40664L11.8125 5.95664L11.7668 5.89336L11.6684 6.01992L11.6227 5.95664L11.7633 5.76328L11.7176 5.7L11.9566 5.37656V5.25L11.6227 5.7L11.6684 5.76328L11.5277 5.95664L11.6227 6.08672L11.5242 6.21328L11.3801 6.01992L11.0391 6.47695L11.3801 6.91992L11.5242 6.72656L11.6227 6.85664L11.5242 6.98672L11.6684 7.17656L11.6227 7.24336L11.9566 7.69336Z" fill="#FAAE29"/>
<path fill-rule="evenodd" clip-rule="evenodd" d="M11.9563 6.08594L11.907 6.2125V6.40937H11.7664L11.668 6.47266L11.7629 6.53945H11.907V6.7293L11.9563 6.85938V6.08594V6.08594Z" fill="#FAAE29"/>
<path fill-rule="evenodd" clip-rule="evenodd" d="M11.9723 10.7793V10.6492L11.7332 10.3293L11.7789 10.2625L11.6383 10.0691L11.684 10.0059L11.7789 10.1359L11.8281 10.0691L11.4906 9.61914L11.4414 9.68594L11.4906 9.74922L11.3922 9.8793L11.1531 9.55586L11.3957 9.24297L11.4906 9.3625L11.4414 9.42578L11.4906 9.49258L11.8281 9.04258L11.7789 8.97578L11.684 9.10586L11.6348 9.04258L11.7789 8.84922L11.7332 8.78594L11.9723 8.4625V8.33594L11.6348 8.78594L11.684 8.84922L11.5398 9.04258L11.6348 9.16914L11.5398 9.29922L11.3957 9.10586L11.0547 9.56289L11.3957 10.0059L11.5363 9.8125L11.6348 9.94258L11.5398 10.0691L11.6805 10.2625L11.6348 10.3258L11.9723 10.7758V10.7793Z" fill="#FAAE29"/>
<path fill-rule="evenodd" clip-rule="evenodd" d="M11.9711 9.16992L11.9219 9.3V9.49336H11.7742L11.6758 9.55664L11.7742 9.61992H11.9148V9.81328L11.9676 9.94336V9.16992H11.9711Z" fill="#FAAE29"/>
<path fill-rule="evenodd" clip-rule="evenodd" d="M11.9566 13.8633V13.7367L11.7176 13.4133L11.7668 13.35L11.6227 13.1566L11.6684 13.0934L11.7668 13.2199L11.816 13.1566L11.4785 12.7066L11.4293 12.7699L11.4785 12.8367L11.3766 12.9668L11.141 12.6434L11.3801 12.327L11.4785 12.45L11.4293 12.5133L11.475 12.5766L11.8125 12.1266L11.7668 12.0633L11.6684 12.1934L11.6227 12.1266L11.7633 11.9367L11.7176 11.8699L11.9566 11.55V11.4199L11.6227 11.8699L11.6684 11.9367L11.5277 12.1266L11.6227 12.2566L11.5242 12.3867L11.3801 12.1934L11.0391 12.6504L11.3801 13.0934L11.5242 12.9L11.6227 13.0266L11.5242 13.1566L11.6684 13.35L11.6227 13.4133L11.9531 13.8633H11.9566Z" fill="#FAAE29"/>
<path fill-rule="evenodd" clip-rule="evenodd" d="M11.9563 12.2559L11.907 12.3859V12.5793H11.7664L11.668 12.6426L11.7629 12.7059H11.907V12.8992L11.9563 13.0293V12.2559V12.2559Z" fill="#FAAE29"/>
<path fill-rule="evenodd" clip-rule="evenodd" d="M11.9566 16.7563V16.6262L11.7176 16.3063L11.7668 16.243L11.6227 16.0496L11.6684 15.9863L11.7668 16.1129L11.816 16.0496L11.4785 15.5996L11.4293 15.6629L11.4785 15.7262L11.3766 15.8563L11.141 15.5363L11.3801 15.2199L11.4785 15.343L11.4293 15.4063L11.475 15.4695L11.8125 15.023L11.7668 14.9598L11.6684 15.0898L11.6227 15.023L11.7633 14.8297L11.7176 14.7664L11.9566 14.4465V14.3164L11.6227 14.7664L11.6684 14.8297L11.5277 15.023L11.6227 15.1531L11.5242 15.2797L11.3801 15.0898L11.0391 15.5469L11.3801 15.9898L11.5242 15.7965L11.6227 15.923L11.5242 16.0531L11.6684 16.2465L11.6227 16.3098L11.9566 16.7598V16.7563Z" fill="#FAAE29"/>
<path fill-rule="evenodd" clip-rule="evenodd" d="M11.9563 15.15L11.907 15.2766V15.4699H11.7664L11.668 15.5367L11.7629 15.6H11.907V15.7934L11.9563 15.9199V15.1465V15.15Z" fill="#FAAE29"/>
<path fill-rule="evenodd" clip-rule="evenodd" d="M6.17148 4.21992V4.09336L6.41055 3.76992L6.36484 3.70664L6.50547 3.51328L6.45977 3.45L6.36484 3.58008L6.31562 3.51328L6.65312 3.06328L6.70234 3.13008L6.65312 3.19336L6.75156 3.32344L6.99063 3H7.08906L6.75156 3.45L6.60391 3.25664L6.50898 3.38672L6.60391 3.51328L6.46328 3.70664L6.50547 3.77344L6.17148 4.22344V4.21992ZM6.17148 3H6.46328L6.36484 3.06328H6.22422V3.25664L6.16797 3.38672V3H6.17148ZM11.9582 4.21992V4.09336L11.7191 3.76992L11.7684 3.70664L11.6242 3.51328L11.6699 3.45L11.7684 3.58008L11.8141 3.51328L11.4766 3.06328L11.4309 3.13008L11.4766 3.19336L11.3781 3.32344L11.1391 3H11.0406L11.3816 3.45L11.5258 3.25664L11.6242 3.38672L11.5258 3.51328L11.6699 3.70664L11.6242 3.76992L11.9582 4.21992V4.21992ZM11.9582 3H11.6699L11.7648 3.06328H11.909V3.25664L11.9582 3.38672V3ZM8.5832 20.7434C8.5832 20.7434 8.79414 20.3777 9.31445 20.2688C9.83828 20.1563 9.92969 20.5113 10.2285 20.5113C10.5273 20.5113 11.002 20.2652 11.002 20.2652C11.002 20.2652 10.5273 20.7328 10.1582 20.7223C9.79609 20.7117 9.67305 20.4762 9.29687 20.5113C8.92422 20.5465 8.5832 20.7539 8.5832 20.7434V20.7434Z" fill="#FAAE29"/>
<path fill-rule="evenodd" clip-rule="evenodd" d="M9.59102 20.7427C9.59102 20.7427 9.38359 20.3771 8.86328 20.2681C8.33594 20.1556 8.24805 20.5107 7.94922 20.5107C7.65039 20.5107 7.17578 20.2646 7.17578 20.2646C7.17578 20.2646 7.65039 20.7322 8.01602 20.7216C8.38164 20.7111 8.5082 20.4755 8.87734 20.5107C9.25352 20.5459 9.59102 20.7533 9.59102 20.7427Z" fill="#FAAE29"/>
<path fill-rule="evenodd" clip-rule="evenodd" d="M7.8797 20.1379C7.834 20.043 7.71799 19.6212 7.77775 19.5684C7.87267 19.5333 8.11877 19.9657 8.09416 20.3489C7.93244 20.4368 7.39103 20.3137 7.39455 20.2012C7.43322 20.043 7.74259 20.0958 7.8797 20.1379Z" fill="#FAAE29"/>
<path fill-rule="evenodd" clip-rule="evenodd" d="M7.5489 19.7692C7.52078 19.6637 7.47156 19.2208 7.54187 19.1856C7.63679 19.1786 7.80906 19.6673 7.7282 20.0364C7.55593 20.0786 7.04265 19.8079 7.06726 19.6989C7.13054 19.5583 7.41882 19.6919 7.5489 19.7692V19.7692Z" fill="#FAAE29"/>
<path fill-rule="evenodd" clip-rule="evenodd" d="M7.2815 19.3609C7.26041 19.2484 7.25338 18.7984 7.32369 18.7773C7.41861 18.7844 7.54869 19.2977 7.43619 19.6527C7.26041 19.6668 6.77525 19.3152 6.81041 19.2133C6.88072 19.0797 7.16197 19.259 7.2815 19.3609V19.3609Z" fill="#FAAE29"/>
<path fill-rule="evenodd" clip-rule="evenodd" d="M7.0714 18.925C7.06437 18.809 7.10656 18.3625 7.18038 18.3555C7.27531 18.3801 7.3421 18.9145 7.18741 19.2414C7.01515 19.2203 6.5757 18.7738 6.62491 18.6789C6.70929 18.5629 6.96593 18.7984 7.0714 18.925Z" fill="#FAAE29"/>
<path fill-rule="evenodd" clip-rule="evenodd" d="M6.92385 18.4653C6.93089 18.3492 7.02229 17.9203 7.09612 17.9238C7.18401 17.9696 7.19456 18.5074 7.00823 18.8028C6.83948 18.7465 6.44924 18.2227 6.50549 18.1348C6.60745 18.0363 6.83245 18.3211 6.92737 18.4653H6.92385Z" fill="#FAAE29"/>
<path fill-rule="evenodd" clip-rule="evenodd" d="M6.96425 17.9406C6.95371 18.3977 6.86933 18.4047 6.71816 18.0672C6.64785 17.9371 6.64082 17.4098 6.70058 17.3887C6.78847 17.3887 6.96074 17.7648 6.96425 17.9406Z" fill="#FAAE29"/>
<path fill-rule="evenodd" clip-rule="evenodd" d="M10.2665 20.1923C10.3122 20.0938 10.4282 19.6719 10.3685 19.6192C10.2736 19.5841 10.031 20.013 10.0521 20.3997C10.2138 20.4876 10.7587 20.3645 10.7517 20.252C10.713 20.0938 10.4072 20.1466 10.2665 20.1887V20.1923Z" fill="#FAAE29"/>
<path fill-rule="evenodd" clip-rule="evenodd" d="M10.5965 19.82C10.6281 19.7145 10.6738 19.2716 10.607 19.2364C10.5121 19.2294 10.3363 19.7145 10.4207 20.0872C10.5895 20.1294 11.1063 19.8587 11.0781 19.7497C11.0184 19.6055 10.7266 19.7427 10.5965 19.82V19.82Z" fill="#FAAE29"/>
<path fill-rule="evenodd" clip-rule="evenodd" d="M10.8649 19.4117C10.886 19.2992 10.893 18.8492 10.8227 18.8281C10.7278 18.8352 10.5977 19.3449 10.7137 19.7C10.8895 19.7141 11.3747 19.366 11.3395 19.2605C11.2622 19.127 10.9879 19.3098 10.8649 19.4117V19.4117Z" fill="#FAAE29"/>
<path fill-rule="evenodd" clip-rule="evenodd" d="M11.0753 18.9723C11.0823 18.8598 11.0401 18.4133 10.9663 18.4062C10.8714 18.4309 10.8046 18.9652 10.9593 19.2922C11.135 19.2711 11.571 18.8246 11.5253 18.7297C11.4374 18.6102 11.1843 18.8492 11.0753 18.9723V18.9723Z" fill="#FAAE29"/>
<path fill-rule="evenodd" clip-rule="evenodd" d="M11.2245 18.5106C11.221 18.3981 11.1261 17.9657 11.0557 17.9727C10.9643 18.0149 10.9538 18.5563 11.1436 18.8516C11.3124 18.7954 11.6991 18.2716 11.6429 18.1837C11.5409 18.0852 11.3159 18.37 11.221 18.5106H11.2245Z" fill="#FAAE29"/>
<path fill-rule="evenodd" clip-rule="evenodd" d="M11.1797 17.9914C11.1938 18.4484 11.2746 18.452 11.4258 18.1145C11.4961 17.9879 11.5031 17.457 11.4434 17.4395C11.3555 17.4395 11.1832 17.8156 11.1797 17.9914Z" fill="#FAAE29"/>
<path fill-rule="evenodd" clip-rule="evenodd" d="M11.0609 14.564H10.7732V14.7571H10.4959V14.9501H9.38671L9.19836 15.1487L9.29253 15.2479H9.75817L9.84711 15.1487H9.38671L9.47565 15.0494H10.1244L9.84711 15.3417H9.20359L9.02048 15.2479L8.83213 15.3417H8.18338L7.90609 15.0494H8.55484L8.64901 15.1487H8.18338L8.27755 15.2479H8.74319L8.83213 15.1487L8.64901 14.9501H7.6288V14.7571H7.35151V14.564H7.07422V13.6816H7.35151V13.4886H7.6288V13.29H8.64901L8.83213 13.097L8.74319 12.9977H8.27755L8.18338 13.097H8.64901L8.55484 13.1907H7.90609L8.18338 12.8984H8.83736L9.02571 12.9977L9.20882 12.8984H9.85757L10.1349 13.1907H9.48611L9.39717 13.097H9.85757L9.7634 12.9977H9.303L9.20359 13.097L9.39194 13.29H10.5011V13.4886H10.7784V13.6816H11.0609V14.564V14.564Z" fill="#CA3745" stroke="black" stroke-width="0.0121596"/>
<path fill-rule="evenodd" clip-rule="evenodd" d="M7.16797 13.7843V14.4682H7.44525V14.6612H7.72254V14.8543H8.65118L9.02264 15.1493L9.39148 14.857H10.4117V14.664L10.689 14.6612V14.4682H10.9715V13.7815H10.6916V13.5885H10.4143V13.39H9.3941L9.02526 13.0977L8.6538 13.39H7.72516V13.5885H7.44787V13.7815H7.17058L7.16797 13.7843Z" fill="#00843D" stroke="#FAAE29" stroke-width="0.0851168"/>
<path fill-rule="evenodd" clip-rule="evenodd" d="M8.46164 13.4863L7.90625 13.9756V13.4863H8.46164ZM9.57241 13.4863L10.1313 13.9756V13.4863H9.57241V13.4863ZM8.46164 14.7584L7.90625 14.2691V14.7584H8.46164ZM9.57241 14.7584L10.1313 14.2691V14.7584H9.57241V14.7584ZM9.75871 13.7799L9.57241 13.9756H9.94501L9.75871 13.7799V13.7799ZM8.27534 13.7799L8.09255 13.9756H8.46164L8.27534 13.7799ZM8.27534 14.4648L8.09255 14.2691H8.46164L8.27534 14.4648ZM9.75871 14.4648L9.57241 14.2691H9.94501L9.75871 14.4648V14.4648Z" fill="#CA3745"/>
<path fill-rule="evenodd" clip-rule="evenodd" d="M9.01833 14.9545L8.83203 14.7588H9.20463L9.01833 14.9545V14.9545ZM9.01833 13.976L8.83203 13.7803H9.20463L9.01833 13.976V13.976ZM9.01833 13.291L8.83203 13.4912H9.20463L9.01833 13.291V13.291ZM9.01833 14.2695L8.83203 14.4652H9.20463L9.01833 14.2695V14.2695Z" fill="#FAAE29"/>
<path fill-rule="evenodd" clip-rule="evenodd" d="M9.57812 13.9766H9.9522V14.0731H9.58074L9.57812 13.9766Z" fill="#FAAE29" stroke="black" stroke-width="0.00607977"/>
<path fill-rule="evenodd" clip-rule="evenodd" d="M8.1875 14.0742H8.37061V14.1735H8.1875V14.0742ZM9.67072 14.0742H9.85383V14.1735H9.67072V14.0742Z" fill="#CC0000" stroke="black" stroke-width="0.00607977"/>
<path fill-rule="evenodd" clip-rule="evenodd" d="M8.83594 13.4902H9.20478V13.5868H8.83594V13.4902ZM8.83594 13.6833H9.20478V13.7825H8.83594V13.6833Z" fill="#990000" stroke="black" stroke-width="0.00607977"/>
<path fill-rule="evenodd" clip-rule="evenodd" d="M8.74219 13.5859H9.29937V13.6852H8.74219V13.5859ZM8.83636 14.4684H9.2052V14.5621H8.83636V14.4684ZM8.83636 14.6614H9.2052V14.7579H8.83636V14.6614ZM8.74219 14.5649H9.29937V14.6614H8.74219V14.5649Z" fill="#990000" stroke="black" stroke-width="0.00607977"/>
<path fill-rule="evenodd" clip-rule="evenodd" d="M9.57477 14.1724H9.94885V14.2689H9.57739L9.57477 14.1724ZM8.09156 13.9766H8.46301V14.0731H8.09156V13.9766ZM8.09156 14.1696H8.46301V14.2689H8.09156V14.1696ZM8 14.0731H8.18311V14.1724H8V14.0731ZM8.37146 14.0731H8.55457V14.1724H8.37146V14.0731ZM9.48322 14.0731H9.66633V14.1724H9.48322V14.0731ZM9.85467 14.0731H10.0378V14.1724H9.85467V14.0731Z" fill="#FAAE29" stroke="black" stroke-width="0.00607977"/>
<path d="M8.79319 14.6339C8.80626 14.6339 8.81685 14.6227 8.81685 14.6089C8.81685 14.5952 8.80626 14.584 8.79319 14.584C8.78012 14.584 8.76953 14.5952 8.76953 14.6089C8.76953 14.6227 8.78012 14.6339 8.79319 14.6339Z" fill="white"/>
<path d="M9.01975 14.6339C9.03282 14.6339 9.04341 14.6227 9.04341 14.6089C9.04341 14.5952 9.03282 14.584 9.01975 14.584C9.00669 14.584 8.99609 14.5952 8.99609 14.6089C8.99609 14.6227 9.00669 14.6339 9.01975 14.6339Z" fill="white"/>
<path d="M9.25413 14.6339C9.26719 14.6339 9.27779 14.6227 9.27779 14.6089C9.27779 14.5952 9.26719 14.584 9.25413 14.584C9.24106 14.584 9.23047 14.5952 9.23047 14.6089C9.23047 14.6227 9.24106 14.6339 9.25413 14.6339Z" fill="white"/>
<path d="M8.88303 14.5401C8.8961 14.5401 8.90669 14.5289 8.90669 14.5152C8.90669 14.5014 8.8961 14.4902 8.88303 14.4902C8.86997 14.4902 8.85938 14.5014 8.85938 14.5152C8.85938 14.5289 8.86997 14.5401 8.88303 14.5401Z" fill="white"/>
<path d="M9.16038 14.5401C9.17344 14.5401 9.18404 14.5289 9.18404 14.5152C9.18404 14.5014 9.17344 14.4902 9.16038 14.4902C9.14731 14.4902 9.13672 14.5014 9.13672 14.5152C9.13672 14.5289 9.14731 14.5401 9.16038 14.5401Z" fill="white"/>
<path d="M8.87913 14.7315C8.89219 14.7315 8.90279 14.7204 8.90279 14.7066C8.90279 14.6928 8.89219 14.6816 8.87913 14.6816C8.86606 14.6816 8.85547 14.6928 8.85547 14.7066C8.85547 14.7204 8.86606 14.7315 8.87913 14.7315Z" fill="white"/>
<path d="M9.16038 14.7354C9.17344 14.7354 9.18404 14.7243 9.18404 14.7105C9.18404 14.6967 9.17344 14.6855 9.16038 14.6855C9.14731 14.6855 9.13672 14.6967 9.13672 14.7105C9.13672 14.7243 9.14731 14.7354 9.16038 14.7354Z" fill="white"/>
<path d="M9.52756 14.1436C9.54063 14.1436 9.55122 14.1325 9.55122 14.1187C9.55122 14.1049 9.54063 14.0938 9.52756 14.0938C9.5145 14.0938 9.50391 14.1049 9.50391 14.1187C9.50391 14.1325 9.5145 14.1436 9.52756 14.1436Z" fill="white"/>
<path d="M9.75803 14.1436C9.7711 14.1436 9.78169 14.1325 9.78169 14.1187C9.78169 14.1049 9.7711 14.0938 9.75803 14.0938C9.74497 14.0938 9.73438 14.1049 9.73438 14.1187C9.73438 14.1325 9.74497 14.1436 9.75803 14.1436Z" fill="white"/>
<path d="M9.99241 14.1436C10.0055 14.1436 10.0161 14.1325 10.0161 14.1187C10.0161 14.1049 10.0055 14.0938 9.99241 14.0938C9.97934 14.0938 9.96875 14.1049 9.96875 14.1187C9.96875 14.1325 9.97934 14.1436 9.99241 14.1436Z" fill="white"/>
<path d="M9.62131 14.046C9.63438 14.046 9.64497 14.0348 9.64497 14.021C9.64497 14.0073 9.63438 13.9961 9.62131 13.9961C9.60825 13.9961 9.59766 14.0073 9.59766 14.021C9.59766 14.0348 9.60825 14.046 9.62131 14.046Z" fill="white"/>
<path d="M9.89866 14.046C9.91172 14.046 9.92232 14.0348 9.92232 14.021C9.92232 14.0073 9.91172 13.9961 9.89866 13.9961C9.88559 13.9961 9.875 14.0073 9.875 14.021C9.875 14.0348 9.88559 14.046 9.89866 14.046Z" fill="white"/>
<path d="M9.61741 14.2374C9.63047 14.2374 9.64107 14.2262 9.64107 14.2124C9.64107 14.1987 9.63047 14.1875 9.61741 14.1875C9.60434 14.1875 9.59375 14.1987 9.59375 14.2124C9.59375 14.2262 9.60434 14.2374 9.61741 14.2374Z" fill="white"/>
<path d="M9.89866 14.2413C9.91172 14.2413 9.92232 14.2301 9.92232 14.2163C9.92232 14.2026 9.91172 14.1914 9.89866 14.1914C9.88559 14.1914 9.875 14.2026 9.875 14.2163C9.875 14.2301 9.88559 14.2413 9.89866 14.2413Z" fill="white"/>
<path d="M8.78928 13.6593C8.80235 13.6593 8.81294 13.6481 8.81294 13.6343C8.81294 13.6205 8.80235 13.6094 8.78928 13.6094C8.77622 13.6094 8.76562 13.6205 8.76562 13.6343C8.76562 13.6481 8.77622 13.6593 8.78928 13.6593Z" fill="white"/>
<path d="M9.01975 13.6593C9.03282 13.6593 9.04341 13.6481 9.04341 13.6343C9.04341 13.6205 9.03282 13.6094 9.01975 13.6094C9.00669 13.6094 8.99609 13.6205 8.99609 13.6343C8.99609 13.6481 9.00669 13.6593 9.01975 13.6593Z" fill="white"/>
<path d="M9.25413 13.6553C9.26719 13.6553 9.27779 13.6442 9.27779 13.6304C9.27779 13.6166 9.26719 13.6055 9.25413 13.6055C9.24106 13.6055 9.23047 13.6166 9.23047 13.6304C9.23047 13.6442 9.24106 13.6553 9.25413 13.6553Z" fill="white"/>
<path d="M8.87913 13.5616C8.89219 13.5616 8.90279 13.5504 8.90279 13.5367C8.90279 13.5229 8.89219 13.5117 8.87913 13.5117C8.86606 13.5117 8.85547 13.5229 8.85547 13.5367C8.85547 13.5504 8.86606 13.5616 8.87913 13.5616Z" fill="white"/>
<path d="M9.16038 13.5616C9.17344 13.5616 9.18404 13.5504 9.18404 13.5367C9.18404 13.5229 9.17344 13.5117 9.16038 13.5117C9.14731 13.5117 9.13672 13.5229 9.13672 13.5367C9.13672 13.5504 9.14731 13.5616 9.16038 13.5616Z" fill="white"/>
<path d="M8.87913 13.753C8.89219 13.753 8.90279 13.7418 8.90279 13.7281C8.90279 13.7143 8.89219 13.7031 8.87913 13.7031C8.86606 13.7031 8.85547 13.7143 8.85547 13.7281C8.85547 13.7418 8.86606 13.753 8.87913 13.753Z" fill="white"/>
<path d="M9.16038 13.7569C9.17344 13.7569 9.18404 13.7457 9.18404 13.732C9.18404 13.7182 9.17344 13.707 9.16038 13.707C9.14731 13.707 9.13672 13.7182 9.13672 13.732C9.13672 13.7457 9.14731 13.7569 9.16038 13.7569Z" fill="white"/>
<path d="M8.0471 14.1534C8.06016 14.1534 8.07075 14.1422 8.07075 14.1285C8.07075 14.1147 8.06016 14.1035 8.0471 14.1035C8.03403 14.1035 8.02344 14.1147 8.02344 14.1285C8.02344 14.1422 8.03403 14.1534 8.0471 14.1534Z" fill="white"/>
<path d="M8.28147 14.1534C8.29454 14.1534 8.30513 14.1422 8.30513 14.1285C8.30513 14.1147 8.29454 14.1035 8.28147 14.1035C8.26841 14.1035 8.25781 14.1147 8.25781 14.1285C8.25781 14.1422 8.26841 14.1534 8.28147 14.1534Z" fill="white"/>
<path d="M8.51194 14.1495C8.52501 14.1495 8.5356 14.1383 8.5356 14.1245C8.5356 14.1108 8.52501 14.0996 8.51194 14.0996C8.49887 14.0996 8.48828 14.1108 8.48828 14.1245C8.48828 14.1383 8.49887 14.1495 8.51194 14.1495Z" fill="white"/>
<path d="M8.14085 14.0557C8.15391 14.0557 8.1645 14.0446 8.1645 14.0308C8.1645 14.017 8.15391 14.0059 8.14085 14.0059C8.12778 14.0059 8.11719 14.017 8.11719 14.0308C8.11719 14.0446 8.12778 14.0557 8.14085 14.0557Z" fill="white"/>
<path d="M8.41819 14.0557C8.43126 14.0557 8.44185 14.0446 8.44185 14.0308C8.44185 14.017 8.43126 14.0059 8.41819 14.0059C8.40512 14.0059 8.39453 14.017 8.39453 14.0308C8.39453 14.0446 8.40512 14.0557 8.41819 14.0557Z" fill="white"/>
<path d="M8.14085 14.2471C8.15391 14.2471 8.1645 14.236 8.1645 14.2222C8.1645 14.2084 8.15391 14.1973 8.14085 14.1973C8.12778 14.1973 8.11719 14.2084 8.11719 14.2222C8.11719 14.236 8.12778 14.2471 8.14085 14.2471Z" fill="white"/>
<path d="M8.41819 14.2511C8.43126 14.2511 8.44185 14.2399 8.44185 14.2261C8.44185 14.2123 8.43126 14.2012 8.41819 14.2012C8.40512 14.2012 8.39453 14.2123 8.39453 14.2261C8.39453 14.2399 8.40512 14.2511 8.41819 14.2511Z" fill="white"/>
<path fill-rule="evenodd" clip-rule="evenodd" d="M9.38203 11.9922L9.54023 11.9148L9.70195 11.9922H9.38203ZM8.90391 11.9922L9.06211 11.9148L9.22383 11.9922H8.90391ZM8.42578 11.9922L8.58398 11.9148L8.7457 11.9922H8.42578ZM9.38203 10.2695L9.54023 10.3469L9.70195 10.273H9.38203V10.2695ZM8.90391 10.2695L9.06211 10.3469L9.22383 10.273H8.90391V10.2695ZM8.42578 10.2695L8.58398 10.3469L8.7457 10.273H8.42578V10.2695Z" fill="white"/>
<path fill-rule="evenodd" clip-rule="evenodd" d="M9.24961 12.2145L9.06328 12.3656L8.87695 12.2145L8.69063 12.3656L8.5043 12.2145V12.2918L8.63086 12.3621L8.56758 12.4395V12.5133H8.63086L8.69063 12.443L8.75391 12.5133H8.81719V12.443L8.75391 12.3656L8.87695 12.2918L9.00352 12.3621L8.94023 12.4395V12.5133H9.00352L9.06328 12.443L9.12656 12.5133H9.18633V12.443L9.12656 12.3656L9.24961 12.2918L9.37266 12.3621L9.31289 12.4395V12.5133H9.37266L9.43594 12.443L9.49922 12.5133H9.55898V12.443L9.49922 12.3656L9.62227 12.2918V12.2109L9.43594 12.3621L9.24961 12.2109V12.2145ZM9.24961 10.0488L9.06328 9.89766L8.87695 10.0488L8.69063 9.89766L8.5043 10.0488V9.975L8.63086 9.89766L8.56758 9.82734V9.75H8.63086L8.69063 9.82383L8.75391 9.75H8.81719V9.82383L8.75391 9.90117L8.87695 9.97148L9.00352 9.90117L8.94023 9.82383V9.75H9.00352L9.06328 9.82383L9.12656 9.75H9.18633V9.82383L9.12656 9.90117L9.24961 9.97148L9.37266 9.90117L9.31289 9.82383V9.75H9.37266L9.43594 9.82383L9.49922 9.75H9.55898V9.82383L9.49922 9.90117L9.62227 9.97148V10.0488L9.43594 9.89766L9.24961 10.0488V10.0488ZM10.6559 11.2934L10.8598 11.1316L10.6594 10.9699L10.8598 10.8082L10.6594 10.6465H10.7578L10.8598 10.752L10.9582 10.6992H11.0566V10.7555L10.9582 10.8082L11.0566 10.8609V10.9172H10.9582L10.8598 10.8609L10.7578 10.9699L10.8598 11.0754L10.9582 11.0262H11.0566V11.0789L10.9582 11.1316L11.0566 11.1844V11.2406H10.9582L10.8598 11.1844L10.7578 11.2934L10.8598 11.3988L10.9582 11.3461H11.0566V11.4023L10.9582 11.4551L11.0566 11.5113V11.5641H10.9582L10.8598 11.5113L10.7578 11.6168H10.6594L10.8598 11.4551L10.6594 11.2934H10.6559ZM7.4707 11.2934L7.27031 11.1316L7.4707 10.9699L7.27031 10.8082L7.4707 10.6465H7.36875L7.27031 10.752L7.17188 10.6992H7.06641V10.7555L7.17188 10.8047L7.06992 10.8574V10.9137H7.17188L7.27031 10.8574L7.36875 10.9664L7.27031 11.0719L7.17188 11.0227H7.06641V11.0754L7.16836 11.1281L7.06641 11.1809V11.2371H7.17188L7.27031 11.1809L7.36875 11.2898L7.27031 11.3988L7.17188 11.3461H7.06641V11.3988L7.16836 11.4516L7.06641 11.5078V11.5605H7.17188L7.27031 11.5078L7.36875 11.6133H7.4707L7.27031 11.4516L7.4707 11.2898V11.2934Z" fill="#00843D"/>
<path fill-rule="evenodd" clip-rule="evenodd" d="M10.7371 11.8444H10.818V11.9161H10.7371V11.8444ZM10.6561 11.9161H10.7371V11.992H10.6606L10.6561 11.9161ZM10.2601 12.2914H10.3411V12.3673H10.2601V12.2914ZM10.3411 12.2155H10.4176V12.2914H10.3411V12.2155ZM7.70903 12.2155H7.79002V12.2914H7.70453L7.70903 12.2155ZM7.30859 11.8444H7.38958V11.9161H7.30859V11.8444ZM7.38958 11.9161H7.47057V11.992H7.38958V11.9161ZM7.38958 10.2715H7.47057V10.3474H7.38958V10.2715ZM7.30859 10.3474H7.38958V10.4233H7.30859V10.3474ZM7.79002 9.90039H7.86651V9.9763H7.79452L7.79002 9.90039ZM7.70903 9.9763H7.79002V10.0522H7.70453L7.70903 9.9763ZM10.2601 9.90039H10.3411V9.9763H10.2601V9.90039ZM10.3411 9.9763H10.4176V10.0522H10.3411V9.9763ZM10.6561 10.2715H10.7371V10.3474H10.6606L10.6561 10.2715ZM10.7371 10.3516H10.818V10.4233H10.7371V10.3516ZM7.79452 12.2914H7.87101V12.3673H7.79452V12.2914Z" fill="#00843D" stroke="black" stroke-width="0.0295804"/>
<path fill-rule="evenodd" clip-rule="evenodd" d="M8.82148 11.132H8.58594V10.9844H8.74414V10.8473H8.89883V10.7207H9.05703V10.8789C8.92695 10.8789 8.82148 10.9844 8.82148 11.132V11.132Z" fill="white"/>
<path fill-rule="evenodd" clip-rule="evenodd" d="M9.29023 11.132H9.52578V10.9844H9.36758V10.8473H9.20937V10.7207H9.05469V10.8789C9.18477 10.8789 9.29023 10.9844 9.29023 11.132V11.132Z" fill="#FAAE29"/>
<path fill-rule="evenodd" clip-rule="evenodd" d="M9.29023 11.1309H9.52578V11.2785H9.36758V11.4156H9.20937V11.5422H9.05469V11.384C9.18477 11.384 9.29023 11.2785 9.29023 11.1309V11.1309Z" fill="white"/>
<path fill-rule="evenodd" clip-rule="evenodd" d="M8.82148 11.1309H8.58594V11.2785H8.74414V11.4156H8.89883V11.5422H9.05703V11.384C8.92695 11.384 8.82148 11.2785 8.82148 11.1309V11.1309Z" fill="#FAAE29"/>
<path fill-rule="evenodd" clip-rule="evenodd" d="M9.29023 11.132H9.05469V10.8789C9.18477 10.8789 9.29023 10.9949 9.29023 11.132Z" fill="#00843D"/>
<path fill-rule="evenodd" clip-rule="evenodd" d="M9.29023 11.1309H9.05469V11.384C9.18477 11.384 9.29023 11.2715 9.29023 11.1309Z" fill="#CA3745"/>
<path fill-rule="evenodd" clip-rule="evenodd" d="M8.82031 11.1309H9.05586V11.384C8.92578 11.384 8.82031 11.2715 8.82031 11.1309V11.1309Z" fill="#00843D"/>
<path fill-rule="evenodd" clip-rule="evenodd" d="M8.82031 11.132H9.05586V10.8789C8.92578 10.8789 8.82031 10.9949 8.82031 11.132V11.132Z" fill="#CA3745"/>
<path fill-rule="evenodd" clip-rule="evenodd" d="M9.30391 12.0676L9.06484 11.9164L8.82578 12.0676L8.58672 11.9164L8.34766 12.0676V11.9938L8.50586 11.9164L8.42852 11.8426V11.7687H8.50586L8.58672 11.8426L8.66758 11.7687H8.74844V11.8426L8.66758 11.9164L8.82578 11.9938L8.9875 11.9164L8.90664 11.8426V11.7687H8.9875L9.06484 11.8426L9.1457 11.7687H9.22656V11.8426L9.1457 11.9164L9.30391 11.9938L9.46562 11.9164L9.38477 11.8426V11.7687H9.46562L9.54297 11.8426L9.62383 11.7687H9.70469V11.8426L9.62383 11.9164L9.78203 11.9938V12.0641L9.54297 11.9164L9.30391 12.0676V12.0676ZM9.30391 10.2008L9.06484 10.3484L8.82578 10.2008L8.58672 10.3484L8.34766 10.2008V10.2711L8.50586 10.3484L8.42852 10.4223V10.4996H8.50586L8.58672 10.4223L8.66758 10.4996H8.74844V10.4188L8.66758 10.3484L8.82578 10.2711L8.9875 10.3449L8.90664 10.4188V10.4961H8.9875L9.06484 10.4188L9.1457 10.4961H9.22656V10.4188L9.1457 10.3484L9.30391 10.2711L9.46562 10.3449L9.38477 10.4188V10.4961H9.46562L9.54297 10.4188L9.62383 10.4961H9.70469V10.4188L9.62383 10.3484L9.78203 10.2711V10.1973L9.54297 10.3449L9.30391 10.1973V10.2008ZM10.1828 11.3188L10.0633 11.1324L10.1828 10.9461L10.0633 10.7598L10.1828 10.5734H10.123L10.0633 10.6965L10.0035 10.6332H9.94375V10.6965L10.0035 10.7598L9.94375 10.823V10.8828H10.0035L10.0633 10.823L10.123 10.9461L10.0633 11.0691L10.0035 11.0094H9.94375V11.0691L10.0035 11.1324L9.94375 11.1957V11.259H10.0035L10.0633 11.1957L10.123 11.3188L10.0633 11.4453L10.0035 11.382H9.94375V11.4453L10.0035 11.5051L9.94375 11.5684V11.6316H10.0035L10.0633 11.5684L10.123 11.6949H10.1828L10.0633 11.5051L10.1828 11.3188V11.3188Z" fill="#00843D"/>
<path fill-rule="evenodd" clip-rule="evenodd" d="M8.34611 10.2765L8.03116 10.5717V11.6935L8.34611 11.9929H9.78589L10.1008 11.6977V10.576L9.78139 10.2765H8.34611ZM8.26513 10.0488L7.46875 10.7995V11.4742L8.26963 12.2164H9.86238L10.6588 11.47V10.7952L9.86238 10.0488H8.26963H8.26513Z" fill="#00843D" stroke="black" stroke-width="0.0394405"/>
<path fill-rule="evenodd" clip-rule="evenodd" d="M8.67938 12.0645L8.80536 12.2163L8.93494 12.0645H8.67578H8.67938Z" fill="#FAAE29" stroke="black" stroke-width="0.0216024"/>
<path fill-rule="evenodd" clip-rule="evenodd" d="M8.67938 10.1992L8.80536 10.0474L8.93494 10.1992H8.67578H8.67938Z" fill="#FAAE29" stroke="black" stroke-width="0.0216024"/>
<path fill-rule="evenodd" clip-rule="evenodd" d="M9.1911 10.1992L9.31708 10.0474L9.44666 10.1992H9.1875H9.1911Z" fill="#FAAE29" stroke="black" stroke-width="0.0216024"/>
<path fill-rule="evenodd" clip-rule="evenodd" d="M9.1911 12.0645L9.31708 12.2163L9.44666 12.0645H9.1875H9.1911Z" fill="#FAAE29" stroke="black" stroke-width="0.0216024"/>
<path fill-rule="evenodd" clip-rule="evenodd" d="M8.42547 10.1992L8.55145 10.0474L8.68103 10.1992H8.42188H8.42547Z" fill="#CA3745" stroke="black" stroke-width="0.0216024"/>
<path fill-rule="evenodd" clip-rule="evenodd" d="M8.93719 10.1992L9.06317 10.0474L9.19275 10.1992H8.93359H8.93719Z" fill="#CA3745" stroke="black" stroke-width="0.0216024"/>
<path fill-rule="evenodd" clip-rule="evenodd" d="M9.44501 10.1992L9.57099 10.0474L9.70057 10.1992H9.44141H9.44501Z" fill="#CA3745" stroke="black" stroke-width="0.0216024"/>
<path fill-rule="evenodd" clip-rule="evenodd" d="M8.10938 11.8411L8.34558 12.0625H8.10938V11.8411Z" fill="#CA3745" stroke="black" stroke-width="0.0443675"/>
<path fill-rule="evenodd" clip-rule="evenodd" d="M7.94531 11.3176L8.06836 11.1313L7.94531 10.9449L8.06484 10.7586L7.94531 10.5723H8.00508L8.06484 10.6953L8.12461 10.632H8.18438V10.6953L8.12461 10.7586L8.18438 10.8219V10.8816H8.12461L8.06484 10.8219L8.00508 10.9449L8.06484 11.068L8.12461 11.0082H8.18438V11.068L8.12461 11.1313L8.18438 11.1945V11.2578H8.12461L8.06484 11.1945L8.00508 11.3176L8.06484 11.4441L8.12461 11.3809H8.18438V11.4441L8.12461 11.5039L8.18438 11.5672V11.6305H8.12461L8.06484 11.5672L8.00508 11.6938H7.94531L8.06484 11.5039L7.94531 11.3176Z" fill="#00843D"/>
<path fill-rule="evenodd" clip-rule="evenodd" d="M10.2578 10.9296H10.5773L10.6582 10.9979L10.5773 11.0662H10.2623V10.9258L10.2578 10.9296Z" fill="#CA3745" stroke="black" stroke-width="0.0280628"/>
<path fill-rule="evenodd" clip-rule="evenodd" d="M8.10956 10.4238L7.94758 10.5756V11.6931L8.10956 11.845H7.87109V10.4238H8.10956Z" fill="#CA3745" stroke="black" stroke-width="0.0394405"/>
<path fill-rule="evenodd" clip-rule="evenodd" d="M8.42547 12.0645L8.55145 12.2163L8.68103 12.0645H8.42188H8.42547Z" fill="#CA3745" stroke="black" stroke-width="0.0216024"/>
<path fill-rule="evenodd" clip-rule="evenodd" d="M8.93719 12.0645L9.06317 12.2163L9.19275 12.0645H8.93359H8.93719Z" fill="#CA3745" stroke="black" stroke-width="0.0216024"/>
<path fill-rule="evenodd" clip-rule="evenodd" d="M9.44501 12.0645L9.57099 12.2163L9.70057 12.0645H9.44141H9.44501Z" fill="#CA3745" stroke="black" stroke-width="0.0216024"/>
<path fill-rule="evenodd" clip-rule="evenodd" d="M10.0193 10.4238L10.1813 10.5756V11.6931L10.0193 11.845H10.2578V10.4238H10.0193Z" fill="#CA3745" stroke="black" stroke-width="0.0394405"/>
<path fill-rule="evenodd" clip-rule="evenodd" d="M10.0195 11.8411L9.78333 12.0625H10.0195V11.8411Z" fill="#CA3745" stroke="black" stroke-width="0.0443675"/>
<path fill-rule="evenodd" clip-rule="evenodd" d="M10.0195 10.4206L9.78333 10.1992H10.0195V10.4206Z" fill="#CA3745" stroke="black" stroke-width="0.0443675"/>
<path fill-rule="evenodd" clip-rule="evenodd" d="M8.10938 10.4206L8.34558 10.1992H8.10938V10.4206Z" fill="#CA3745" stroke="black" stroke-width="0.0443675"/>
<path fill-rule="evenodd" clip-rule="evenodd" d="M8.34906 10.2751L8.03411 10.5703V11.692L8.34906 11.9914H9.78884L10.1038 11.6963V10.5745L9.78434 10.2751H8.34906ZM8.34906 10.1992L7.95312 10.5703V11.692L8.34906 12.0673H9.78884L10.1848 11.692V10.5703L9.78434 10.1992H8.34906Z" fill="#00843D" stroke="black" stroke-width="0.0394405"/>
<path fill-rule="evenodd" clip-rule="evenodd" d="M10.2578 11.0643H10.5773L10.6582 11.1327L10.5773 11.201H10.2623V11.0605L10.2578 11.0643Z" fill="#FAAE29" stroke="black" stroke-width="0.0280637"/>
<path fill-rule="evenodd" clip-rule="evenodd" d="M10.2578 11.1972H10.5773L10.6582 11.2655L10.5773 11.3338H10.2623V11.1934L10.2578 11.1972Z" fill="#CA3745" stroke="black" stroke-width="0.0280628"/>
<path fill-rule="evenodd" clip-rule="evenodd" d="M10.2578 11.3319H10.5773L10.6582 11.4002L10.5773 11.4686H10.2623V11.3281L10.2578 11.3319Z" fill="#FAAE29" stroke="black" stroke-width="0.0280637"/>
<path fill-rule="evenodd" clip-rule="evenodd" d="M10.2578 10.7929H10.5773L10.6582 10.8612L10.5773 10.9295H10.2623V10.7891L10.2578 10.7929Z" fill="#FAAE29" stroke="black" stroke-width="0.0280637"/>
<path fill-rule="evenodd" clip-rule="evenodd" d="M7.86719 10.9296H7.54774L7.46675 10.9979L7.54774 11.0662H7.86269V10.9258L7.86719 10.9296Z" fill="#CA3745" stroke="black" stroke-width="0.0280628"/>
<path fill-rule="evenodd" clip-rule="evenodd" d="M7.86719 11.0643H7.54774L7.46675 11.1327L7.54774 11.201H7.86269V11.0605L7.86719 11.0643Z" fill="#FAAE29" stroke="black" stroke-width="0.0280637"/>
<path fill-rule="evenodd" clip-rule="evenodd" d="M7.86719 11.1972H7.54774L7.46675 11.2655L7.54774 11.3338H7.86269V11.1934L7.86719 11.1972Z" fill="#CA3745" stroke="black" stroke-width="0.0280628"/>
<path fill-rule="evenodd" clip-rule="evenodd" d="M7.86719 11.3319H7.54774L7.46675 11.4002L7.54774 11.4686H7.86269V11.3281L7.86719 11.3319Z" fill="#FAAE29" stroke="black" stroke-width="0.0280637"/>
<path fill-rule="evenodd" clip-rule="evenodd" d="M7.86719 10.7929H7.54774L7.46675 10.8612L7.54774 10.9295H7.86269V10.7891L7.86719 10.7929Z" fill="#FAAE29" stroke="black" stroke-width="0.0280637"/>
<path fill-rule="evenodd" clip-rule="evenodd" d="M7.38672 10.3516V11.9119H7.78716V12.2872H10.3383V11.9119H10.7342V10.3516H10.3383V9.98047H7.78716V10.3516H7.38672ZM7.46771 10.4233V11.8444H7.86364V12.2155H10.2573V11.8444H10.6577V10.4233H10.2573V10.0564H7.86364V10.4275H7.46771V10.4233Z" fill="#970000" stroke="black" stroke-width="0.0295804"/>
<path fill-rule="evenodd" clip-rule="evenodd" d="M11.0561 4.51279L10.8176 4.22487V4.00994L10.5792 3.79501H10.1022L9.70181 3.58008H8.42851L8.02807 3.79501H7.55114L7.31268 4.00994V4.22487L7.07422 4.50874V5.08864L7.31268 5.37251V5.59149L7.55114 5.80642H8.02807L8.42851 6.02135H9.70181L10.1022 5.80642H10.5792L10.8221 5.59149V5.37656L11.0606 5.08864V4.50874L11.0561 4.51279Z" fill="#CA3745" stroke="black" stroke-width="0.0290076"/>
<path fill-rule="evenodd" clip-rule="evenodd" d="M7.15234 4.80078V5.01523L7.39141 5.30352V5.51797L7.63047 5.73594H8.10859L8.50937 5.94687H9.06484V4.8043H7.15234V4.80078Z" fill="#FAAE29"/>
<path fill-rule="evenodd" clip-rule="evenodd" d="M8.39102 5.30273L8.09922 5.48906H7.92344L7.9832 5.54883L7.86719 5.67188L7.92695 5.73516L8.10273 5.67188L8.15898 5.73516L8.18359 5.56992L8.50703 5.37305L8.39102 5.30273V5.30273Z" fill="#CA3745"/>
<path fill-rule="evenodd" clip-rule="evenodd" d="M8.07266 5.15938L7.78086 5.3457H7.60859L7.66484 5.40547L7.55234 5.52852L7.60859 5.5918L7.78438 5.52852L7.84063 5.5918L7.86875 5.42656L8.18867 5.2332L8.07266 5.16289V5.15938ZM7.91445 4.87109L7.62266 5.05742H7.44688L7.50664 5.1207L7.39062 5.24375L7.45039 5.30352L7.62617 5.24023L7.68242 5.30352L7.70703 5.13828L8.03047 4.94492L7.91445 4.87461V4.87109Z" fill="#CA3745"/>
<path fill-rule="evenodd" clip-rule="evenodd" d="M10.975 4.8V4.58555L10.7359 4.29727V4.08281L10.4969 3.86484H10.0187L9.62148 3.65039H9.0625V4.8H10.975V4.8Z" fill="#FAAE29"/>
<path fill-rule="evenodd" clip-rule="evenodd" d="M9.0625 5.95H8.91484L8.74609 5.80586H8.47187L8.32422 5.73555L8.39805 5.66523L8.5457 5.73555H8.69336L8.84102 5.51758L9.0625 5.58789V5.73555H8.84102L9.0625 5.94648V5.95Z" fill="#CA3745"/>
<path fill-rule="evenodd" clip-rule="evenodd" d="M7.15234 4.8V4.58555L7.39141 4.29727V4.08281L7.63047 3.86484H8.10859L8.50937 3.65039H9.06484V4.8H7.15234V4.8Z" fill="white"/>
<path fill-rule="evenodd" clip-rule="evenodd" d="M9.0625 3.65039H8.91484L8.74609 3.79102H8.47187L8.32422 3.86484L8.39805 3.93516L8.5457 3.86484H8.69336L8.84102 4.08281L9.0625 4.0125V3.86484H8.84102L9.0625 3.65039Z" fill="#CA3745"/>
<path fill-rule="evenodd" clip-rule="evenodd" d="M9.0625 3.65039H9.21016L9.38242 3.79102H9.65313L9.80078 3.86484L9.73047 3.93516L9.5793 3.86484H9.43164L9.28398 4.08281L9.0625 4.0125V3.86484H9.28398L9.0625 3.65039V3.65039Z" fill="#CA3745"/>
<path fill-rule="evenodd" clip-rule="evenodd" d="M10.975 4.80078V5.01523L10.7359 5.30352V5.51797L10.4969 5.73594H10.0187L9.62148 5.94687H9.0625V4.8043H10.975V4.80078Z" fill="white"/>
<path fill-rule="evenodd" clip-rule="evenodd" d="M9.0625 5.95H9.21016L9.38242 5.80586H9.65313L9.80078 5.73555L9.73047 5.66523L9.5793 5.73555H9.43164L9.28398 5.51758L9.0625 5.58789V5.73555H9.28398L9.0625 5.94648V5.95ZM8.07109 4.43828L7.7793 4.25547H7.60703L7.66328 4.1957L7.55078 4.07266L7.60703 4.00938L7.78281 4.07266L7.83906 4.00938L7.86719 4.17461L8.18711 4.36797L8.07109 4.43828V4.43828ZM9.7375 4.29766L10.0258 4.11133H10.2016L10.1418 4.05156L10.2578 3.92852L10.2016 3.86523L10.0258 3.92852L9.96953 3.86523L9.94141 4.03047L9.62148 4.22734L9.7375 4.29766V4.29766Z" fill="#CA3745"/>
<path fill-rule="evenodd" clip-rule="evenodd" d="M8.39219 4.29766L8.10039 4.11133H7.92461L7.98438 4.05156L7.86836 3.92852L7.92813 3.86523L8.10391 3.92852L8.16016 3.86523L8.18477 4.03047L8.5082 4.22383L8.39219 4.29414V4.29766ZM7.91055 4.73008L7.61875 4.54375H7.44297L7.50273 4.48047L7.38672 4.35742L7.45352 4.30117L7.6293 4.36445L7.68555 4.30117L7.71016 4.46641L8.03359 4.65977L7.91758 4.73008H7.91055Z" fill="#CA3745"/>
<path fill-rule="evenodd" clip-rule="evenodd" d="M7.29297 4.80078H7.36328L7.43711 4.87109L7.51094 4.80078H9.06133V5.80625H8.99102L9.06133 5.87656V5.95391L8.83984 5.73945V5.66914H8.91367V5.73945H8.9875V5.66914L8.38984 5.35273H7.88359V5.03633L7.66211 4.87813H7.51445L7.44062 4.94844L7.51094 5.01875H7.44062L7.29297 4.80781V4.80078Z" fill="white"/>
<path fill-rule="evenodd" clip-rule="evenodd" d="M7.29297 4.8H7.36328L7.43711 4.72969L7.51094 4.8H9.06133V3.79453H8.99102L9.06133 3.72422V3.65039L8.83984 3.86484V3.93516H8.91367V3.86484H8.9875V3.93516L8.38984 4.25508H7.88359V4.56797L7.66211 4.72969H7.51445L7.44062 4.65937L7.51094 4.58555H7.44062L7.29297 4.8Z" fill="#FAAE29"/>
<path fill-rule="evenodd" clip-rule="evenodd" d="M7.62891 4.80078H9.06328V5.66211L8.42695 5.30352H7.94883V5.01523L7.63242 4.80078H7.62891Z" fill="#00843D"/>
<path fill-rule="evenodd" clip-rule="evenodd" d="M10.0539 4.44219L10.3457 4.25586H10.5215L10.4617 4.19609L10.5777 4.07305L10.5215 4.00977L10.3457 4.07305L10.2895 4.00977L10.2613 4.175L9.94141 4.36836L10.0539 4.43867V4.44219ZM10.2156 4.73047L10.5074 4.54414H10.6797L10.6199 4.48086L10.7359 4.35781L10.6797 4.29805L10.5039 4.36133L10.4477 4.29805L10.4195 4.46328L10.0996 4.65664L10.2156 4.72695V4.73047Z" fill="#CA3745"/>
<path fill-rule="evenodd" clip-rule="evenodd" d="M10.8344 4.8H10.7605L10.6867 4.72969L10.6129 4.8H9.0625V3.79453H9.13633L9.0625 3.72422V3.65039L9.28398 3.86484V3.93516H9.21016V3.86484H9.13633V3.93516L9.73398 4.25508H10.2402V4.56797L10.4652 4.72969H10.6129L10.6832 4.65937L10.6129 4.58555H10.6832L10.8344 4.8V4.8Z" fill="white"/>
<path fill-rule="evenodd" clip-rule="evenodd" d="M10.4969 4.80078H9.0625V3.93945L9.70234 4.29805H10.1805V4.58633L10.5004 4.80078H10.4969Z" fill="#00843D"/>
<path fill-rule="evenodd" clip-rule="evenodd" d="M9.73711 5.30273L10.0254 5.48906H10.2012L10.1414 5.54883L10.2574 5.67188L10.2012 5.73516L10.0254 5.67188L9.96914 5.73516L9.94102 5.56992L9.62109 5.37305L9.73711 5.30273V5.30273Z" fill="#CA3745"/>
<path fill-rule="evenodd" clip-rule="evenodd" d="M10.0539 5.15938L10.3457 5.3457H10.5215L10.4617 5.40547L10.5777 5.52852L10.5215 5.5918L10.3457 5.52852L10.2895 5.5918L10.2613 5.42656L9.94141 5.2332L10.0539 5.16289V5.15938ZM10.2156 4.87109L10.5074 5.05742H10.6797L10.6199 5.11719L10.7359 5.24023L10.6797 5.30352L10.5039 5.24023L10.4477 5.30352L10.4195 5.13828L10.0996 4.94492L10.2156 4.87461V4.87109Z" fill="#CA3745"/>
<path fill-rule="evenodd" clip-rule="evenodd" d="M10.8344 4.80078H10.7605L10.6867 4.87109L10.6129 4.80078H9.0625V5.80625H9.13633L9.0625 5.87656V5.95391L9.28398 5.73945V5.66914H9.21016V5.73945H9.13633V5.66914L9.73398 5.35273H10.2402V5.03633L10.4652 4.87813H10.6129L10.6832 4.94844L10.6129 5.01875H10.6832L10.8344 4.80781V4.80078Z" fill="#FAAE29"/>
<path fill-rule="evenodd" clip-rule="evenodd" d="M10.4977 4.80078H9.06328V5.66211L9.70313 5.30352H10.1813V5.01523L10.5012 4.80078H10.4977ZM7.62891 4.80078H9.06328V3.93945L8.42695 4.29805H7.94883V4.58633L7.63242 4.80078H7.62891Z" fill="#CA3745"/>
<path fill-rule="evenodd" clip-rule="evenodd" d="M9.22109 4.79961L9.62187 4.58516H9.86094L9.78008 4.51484L9.9418 4.36719L9.86094 4.29688L9.62187 4.36719L9.54102 4.29688L9.50586 4.49023L9.06289 4.71523L9.22109 4.79961V4.79961ZM8.90469 4.79961L8.50742 5.01406H8.26836L8.3457 5.08437L8.1875 5.23203L8.26836 5.30234L8.50742 5.23203L8.58477 5.30234L8.61992 5.10898L9.06289 4.88398L8.90469 4.79961Z" fill="#CA3745"/>
<path fill-rule="evenodd" clip-rule="evenodd" d="M8.90508 4.79961L8.50781 4.58516H8.26875L8.34961 4.51484L8.19141 4.36719L8.27227 4.29688L8.51133 4.36719L8.58867 4.29688L8.62383 4.49023L9.0668 4.71523L8.90859 4.79961H8.90508ZM9.22148 4.79961L9.62227 5.01406H9.86133L9.78047 5.08437L9.94219 5.23203L9.86133 5.30234L9.62227 5.23203L9.54141 5.30234L9.50625 5.10898L9.06328 4.88398L9.22148 4.79961V4.79961Z" fill="#00843D"/>
<path fill-rule="evenodd" clip-rule="evenodd" d="M8.58594 4.8L9.06406 4.44141L9.54219 4.8L9.06406 5.15859L8.58594 4.8V4.8Z" fill="white"/>
<path fill-rule="evenodd" clip-rule="evenodd" d="M7.51406 4.94492L7.58789 5.01523L7.51758 5.08555H7.44023L7.21875 4.80078H7.29258L7.44023 5.01523H7.51406L7.44375 4.94492L7.51406 4.87461H7.66523V4.94492H7.51758H7.51406Z" fill="#CA3745"/>
<path fill-rule="evenodd" clip-rule="evenodd" d="M7.51406 4.65625L7.58789 4.58594L7.51758 4.51562H7.44023L7.21875 4.80039H7.29258L7.44023 4.58594H7.51406L7.44375 4.65625L7.51406 4.72656H7.66523V4.65625H7.51758H7.51406ZM10.6148 4.94453L10.5445 5.01484L10.6148 5.08516H10.6887L10.9102 4.80039H10.8398L10.6887 5.01484H10.6184L10.6887 4.94453L10.6184 4.87422H10.4672V4.94453H10.6148V4.94453Z" fill="#CA3745"/>
<path fill-rule="evenodd" clip-rule="evenodd" d="M10.616 4.65625L10.5387 4.58594L10.6125 4.51562H10.6863L10.9078 4.80039H10.8375L10.6863 4.58594H10.616L10.6863 4.65625L10.616 4.72656H10.4648V4.65625H10.6125H10.616ZM8.98828 4.51562H9.13594V5.08867H8.98828V4.51562Z" fill="#CA3745"/>
<path fill-rule="evenodd" clip-rule="evenodd" d="M8.76953 4.65625H9.36016V4.94453H8.76953V4.65625Z" fill="#CA3745"/>
<path fill-rule="evenodd" clip-rule="evenodd" d="M8.38729 15.7188L7.0625 16.4491V17.6392L8.39979 18.3696H9.72459L11.0494 17.6392V16.4491L9.72459 15.7323H8.39979L8.38729 15.7188Z" fill="#00843D" stroke="black" stroke-width="0.0294301"/>
<path fill-rule="evenodd" clip-rule="evenodd" d="M7.56641 16.9332H7.64375V16.782H7.80547V16.9297H7.88633V16.5852H7.80547V16.7328H7.64727V16.5852H7.56641V16.9297V16.9332ZM9.60195 18.0793H9.68281V17.9316H9.84102V18.0793H9.92188V17.7312H9.84453V17.8789H9.68281V17.7312H9.60547V18.0758L9.60195 18.0793ZM8.31523 16.3566H8.39609V16.2125H8.55781V16.3602H8.63516V16.0156H8.55781V16.1633H8.39609V16.0156H8.31523V16.3602V16.3566ZM9.49297 16.3566H9.57383V16.2125H9.73555V16.3602H9.81641V16.0156H9.73555V16.1633H9.57383V16.0156H9.49297V16.3602V16.3566ZM10.2453 16.9332H10.3227V16.782H10.4844V16.9297H10.5652V16.5852H10.4844V16.7328H10.3227V16.5852H10.2453V16.9297V16.9332ZM10.2453 17.5062H10.3227V17.3586H10.4844V17.5062H10.5652V17.1617H10.4844V17.3094H10.3227V17.1617H10.2453V17.5062Z" fill="#CC0000"/>
<path fill-rule="evenodd" clip-rule="evenodd" d="M9.06328 18.3078V17.0457H10.9934V17.6187L9.70312 18.3078H9.05977H9.06328ZM9.06328 15.7871V17.0457H7.13672V16.4727L8.41992 15.7871H9.06328Z" fill="#FAAE29"/>
<path fill-rule="evenodd" clip-rule="evenodd" d="M9.06328 15.7871V17.0457H10.9934V16.4727L9.70312 15.7871H9.05977H9.06328ZM9.06328 18.3078V17.0457H7.13672V17.6187L8.41992 18.3078H9.06328V18.3078Z" fill="white"/>
<path fill-rule="evenodd" clip-rule="evenodd" d="M10.0933 16.533H10.8661L10.0933 16.1901V16.533ZM10.9931 16.4748V17.0472H9.77396V16.5912H9.51634L9.1934 16.4198V16.0187L9.38934 15.844H9.13172V16.4198H9.06641V15.7891H9.70865L10.9931 16.4748V16.4748Z" fill="#FAAE29" stroke="black" stroke-width="0.00775472"/>
<path fill-rule="evenodd" clip-rule="evenodd" d="M8.41797 16.6449V17.45H8.61133L9.06133 17.682L9.51133 17.45H9.70469V16.6484H9.51133L9.06133 16.4199L8.61133 16.6484H8.41797V16.6449Z" fill="#CA3745"/>
<path fill-rule="evenodd" clip-rule="evenodd" d="M8.03564 17.5608H7.26278L8.03564 17.9036V17.5608ZM7.13578 17.619V17.0465H8.35495V17.5026H8.61257L8.9355 17.674V18.075L8.73957 18.2497H8.99719V17.674H9.0625V18.3047H8.42026L7.13578 17.619V17.619Z" fill="#FAAE29" stroke="black" stroke-width="0.00775472"/>
<path fill-rule="evenodd" clip-rule="evenodd" d="M8.03564 16.533H7.26278L8.03564 16.1901V16.533ZM7.13578 16.4748V17.0472H8.35495V16.5912H8.61257L8.9355 16.4198V16.0187L8.73957 15.844H8.99719V16.4198H9.0625V15.7891H8.42026L7.13578 16.4748V16.4748Z" fill="white" stroke="black" stroke-width="0.00775472"/>
<path fill-rule="evenodd" clip-rule="evenodd" d="M10.0933 17.5608H10.8661L10.0933 17.9036V17.5608ZM10.9931 17.619V17.0465H9.77396V17.5026H9.51634L9.1934 17.674V18.075L9.38934 18.2497H9.13172V17.674H9.06641V18.3047H9.70865L10.9931 17.619V17.619Z" fill="white" stroke="black" stroke-width="0.00775472"/>
<path fill-rule="evenodd" clip-rule="evenodd" d="M7.52305 17.5059H7.60039V17.3301H7.76211V17.5059H7.84297V17.1051H7.76211V17.2773H7.60039V17.1016H7.52305V17.5059ZM8.29297 18.0789H8.37383V17.9031H8.53203V18.0789H8.61289V17.6781H8.53203V17.8504H8.37383V17.6746H8.29297V18.0824V18.0789ZM7.51953 16.5883H7.60039V16.7605H7.76211V16.5848H7.84297V16.9926H7.76211V16.8168H7.60039V16.9891H7.52305V16.5883H7.51953ZM8.29297 16.0152H8.37383V16.1875H8.53203V16.0117H8.61289V16.416H8.53203V16.2438H8.37383V16.4195H8.29297V16.0152ZM9.51289 18.0789H9.59375V17.9031H9.75547V18.0789H9.83633V17.6781H9.75547V17.8504H9.59375V17.6746H9.51289V18.0824V18.0789ZM10.2863 16.9891H10.3672V16.8168H10.5254V16.9926H10.6063V16.5883H10.5254V16.7605H10.3707V16.5848H10.2898V16.9926L10.2863 16.9891Z" fill="#CA3745"/>
<path fill-rule="evenodd" clip-rule="evenodd" d="M9.51172 18.0781H9.59258V17.9023H9.7543V18.0781H9.83516V17.6773H9.7543V17.8496H9.59258V17.6738H9.51172V18.0816V18.0781Z" fill="#CA3745"/>
<path fill-rule="evenodd" clip-rule="evenodd" d="M9.51172 18.0789H9.59258V17.9031H9.7543V18.0789H9.83516V17.6781H9.7543V17.8504H9.59258V17.6746H9.51172V18.0824V18.0789ZM10.2852 17.5059H10.366V17.3301H10.5242V17.5059H10.6051V17.1051H10.5242V17.2738H10.3695V17.1016H10.2887V17.5059H10.2852ZM9.51172 16.416H9.59258V16.2438H9.7543V16.4195H9.83516V16.0152H9.7543V16.1875H9.59258V16.0117H9.51172V16.416Z" fill="#CA3745"/>
<path fill-rule="evenodd" clip-rule="evenodd" d="M9.13086 17.0453L9.3875 16.8344H9.51406V16.9398H9.3875V16.9926H9.58086V16.7852H9.3875V16.627H9.13086V16.7852H9.19414V16.6797H9.3207V16.7852L9.06406 16.9961L8.80742 16.7852V16.6797H8.9375V16.7852H9.00078V16.627H8.74414V16.7852H8.55078V16.9961H8.74414V16.9434H8.61406V16.8379H8.74414L9.00078 17.0488L8.74414 17.2562H8.61406V17.1508H8.74414V17.098H8.55078V17.309H8.74414V17.4637H9.00078V17.309H8.9375V17.4145H8.80742V17.309L9.06406 17.098L9.3207 17.309V17.4145H9.19414V17.309H9.13086V17.4637H9.3875V17.309H9.58086V17.098H9.3875V17.1508H9.51406V17.2562H9.3875L9.13086 17.0453Z" fill="white"/>
<path fill-rule="evenodd" clip-rule="evenodd" d="M7.26144 8.16532L7.38481 8.03728H8.13228L8.69106 7.47461H9.43853L9.99731 8.04065H10.7448L10.8681 8.16532L10.7448 8.28998H9.99368L9.4349 8.85602H8.68743L8.13228 8.28998H7.38118L7.25781 8.16532H7.26144Z" fill="#CA3745"/>
<path fill-rule="evenodd" clip-rule="evenodd" d="M7.32812 8.17696L7.39569 8.1157H8.16593L8.74361 7.52148H9.38548L9.96654 8.11876H10.7368L10.801 8.18002L10.7368 8.23822H9.96654L9.44967 8.77424H8.67943L8.16593 8.23822H7.39231L7.32812 8.17696V8.17696Z" fill="#CA3745" stroke="black" stroke-width="0.0218448"/>
<path fill-rule="evenodd" clip-rule="evenodd" d="M9.37811 8.22887L9.62485 8.4782L9.50148 8.60286L9.43617 8.54222H9.37811V8.60286L9.43979 8.66688H9.56679L9.69016 8.54222V8.41418L9.43979 8.16485L9.69016 7.91216V7.78749L9.56679 7.66283H9.43979L9.37811 7.72347V7.78749H9.43979L9.50511 7.72347L9.62847 7.85151L9.37811 8.10084L9.13137 7.85151L9.37811 7.59881V7.53479H9.31643L9.06969 7.78749L8.81932 7.53479H8.75764V7.59881L9.00438 7.85151L8.75764 8.10084L8.50728 7.85151L8.63427 7.72347L8.69596 7.78749H8.75764V7.72347L8.69596 7.66283H8.56896L8.44559 7.78749V7.91216L8.69596 8.16485L8.44559 8.41418V8.54222L8.56896 8.66688H8.69596L8.75764 8.60286V8.54222H8.6887L8.62702 8.60286L8.50002 8.4782L8.75038 8.22887L8.99712 8.4782L8.75038 8.7309V8.79154H8.81207L9.06243 8.54222L9.30917 8.79154H9.37085V8.7309L9.12412 8.4782L9.37085 8.22887H9.37811ZM9.06606 7.91216L8.8157 8.16485L9.06606 8.41418L9.3128 8.16485L9.06606 7.91216ZM8.69233 8.85556V9.36096L8.75401 9.29357L8.8157 9.36096L8.87738 9.29357L8.93906 9.36096L9.00438 9.29357L9.06606 9.36096L9.12774 9.29357L9.18943 9.36096L9.25111 9.29357L9.3128 9.36096L9.37448 9.29357L9.43979 9.36096V8.85556H8.6887H8.69233ZM9.43979 7.47415V6.96875L9.37448 7.03614L9.3128 6.96875L9.25111 7.03614L9.18943 6.96875L9.12774 7.03614L9.06606 6.96875L9.00075 7.03614L8.93906 6.96875L8.87738 7.03614L8.8157 6.96875L8.75401 7.03614L8.69233 6.96875V7.47415H9.43979V7.47415ZM10.4921 8.04019V7.53479L10.434 7.60218L10.3723 7.53479L10.3106 7.60218L10.2453 7.53479L10.1836 7.60218L10.1219 7.53479L10.0603 7.60218L9.99858 7.53479V8.04019H10.4957H10.4921ZM8.13354 8.04019V7.53479L8.06823 7.60218L8.00655 7.53479L7.94486 7.60218L7.88318 7.53479L7.82149 7.60218L7.75981 7.53479L7.6945 7.60218L7.63281 7.53479V8.04019H8.12991H8.13354ZM10.4957 8.28952V8.79491L10.434 8.72753L10.3723 8.79491L10.3106 8.72753L10.2453 8.79491L10.1836 8.72753L10.1219 8.79491L10.0603 8.72753L9.99858 8.79491V8.28952H10.4957V8.28952ZM8.12991 8.28952V8.79491L8.06823 8.72753L8.00655 8.79491L7.94486 8.72753L7.88318 8.79491L7.82149 8.72753L7.75981 8.79491L7.6945 8.72753L7.63281 8.79491V8.28952H8.12991V8.28952Z" fill="#FAAE29"/>
<path fill-rule="evenodd" clip-rule="evenodd" d="M9.43717 8.85687V9.17022L9.50249 9.1062L9.56417 9.17358L9.62585 9.1062L9.68754 9.17358L9.74922 9.1062L9.81091 9.17358L9.87622 9.1062L9.9379 9.17358L9.99959 9.1062V8.29083L9.43717 8.85687V8.85687ZM8.69334 8.85687V9.17022L8.62802 9.1062L8.56634 9.17358L8.50465 9.1062L8.44297 9.17358L8.38129 9.1062L8.3196 9.17358L8.25792 9.1062L8.19623 9.17358L8.13092 9.1062V8.29083L8.69334 8.85687V8.85687ZM8.69334 7.47545V7.16211L8.62802 7.22276L8.56634 7.16211L8.50465 7.22276L8.44297 7.16211L8.38129 7.22276L8.3196 7.16211L8.25792 7.22276L8.19623 7.16211L8.13092 7.22276V8.0415L8.69334 7.47545V7.47545ZM9.43717 7.47545V7.16211L9.50249 7.22276L9.56417 7.16211L9.62585 7.22276L9.68754 7.16211L9.74922 7.22276L9.81091 7.16211L9.87259 7.22276L9.9379 7.16211L9.99959 7.22276V8.0415L9.43717 7.47545V7.47545ZM7.63382 8.66819L7.57214 8.60417L7.51045 8.67156L7.44877 8.60417L7.38708 8.67156L7.3254 8.60417L7.26009 8.67156L7.1984 8.60417L7.13672 8.67156V7.66077L7.1984 7.72815L7.26009 7.66077L7.3254 7.72815L7.38708 7.66077L7.44877 7.72815L7.51045 7.66077L7.57214 7.72815L7.63382 7.66077V8.0415H7.38708L7.26009 8.16616L7.38708 8.29083H7.63382V8.66819V8.66819ZM10.4967 8.66819L10.5584 8.60417L10.6201 8.67156L10.6817 8.60417L10.7471 8.67156L10.8087 8.60417L10.8704 8.67156L10.9321 8.60417L10.9938 8.67156V7.66077L10.9321 7.72815L10.8704 7.66077L10.8087 7.72815L10.7471 7.66077L10.6817 7.72815L10.6201 7.66077L10.5584 7.72815L10.4967 7.66077V8.0415H10.7471L10.8704 8.16616L10.7471 8.29083H10.4967V8.66819V8.66819Z" fill="#00843D"/>
<path fill-rule="evenodd" clip-rule="evenodd" d="M8.38229 8.8963C8.38229 8.8963 8.33149 8.94347 8.33149 8.97042C8.33149 8.99401 8.38592 9.04455 8.41132 9.04455C8.44035 9.04455 8.48752 8.99401 8.48752 8.97042C8.48752 8.94684 8.43672 8.8963 8.43672 8.8963V8.79522C8.43672 8.79522 8.54557 8.96705 8.54557 8.89293C8.54557 8.83902 8.43672 8.74805 8.43672 8.74805H8.38229C8.38229 8.74805 8.27344 8.85586 8.27344 8.89293C8.27344 8.96705 8.38229 8.79522 8.38229 8.79522V8.8963V8.8963Z" fill="white"/>
<path fill-rule="evenodd" clip-rule="evenodd" d="M9.0325 9.08976C9.0325 9.08976 8.97082 9.15714 8.97082 9.19084C8.97082 9.22453 9.03613 9.29865 9.06516 9.29865C9.10144 9.29865 9.15587 9.2279 9.15587 9.1942C9.15587 9.16051 9.09419 9.08976 9.09419 9.08976V8.94825C9.09419 8.94825 9.20304 9.17736 9.20304 9.07291C9.20304 9.00552 9.09419 8.88086 9.09419 8.88086H9.0325C9.0325 8.88086 8.90551 9.03585 8.92365 9.07291C8.92365 9.17736 9.0325 8.94825 9.0325 8.94825V9.08976V9.08976Z" fill="#CA3745"/>
<path d="M8.38071 8.22533C8.44859 8.22533 8.50361 8.19675 8.50361 8.16149C8.50361 8.12624 8.44859 8.09766 8.38071 8.09766C8.31284 8.09766 8.25781 8.12624 8.25781 8.16149C8.25781 8.19675 8.31284 8.22533 8.38071 8.22533Z" fill="#00843D"/>
<path d="M9.06431 8.22533C9.13218 8.22533 9.18721 8.19675 9.18721 8.16149C9.18721 8.12624 9.13218 8.09766 9.06431 8.09766C8.99643 8.09766 8.94141 8.12624 8.94141 8.16149C8.94141 8.19675 8.99643 8.22533 9.06431 8.22533Z" fill="#00843D"/>
<path d="M9.7479 8.22533C9.81578 8.22533 9.8708 8.19675 9.8708 8.16149C9.8708 8.12624 9.81578 8.09766 9.7479 8.09766C9.68002 8.09766 9.625 8.12624 9.625 8.16149C9.625 8.19675 9.68002 8.22533 9.7479 8.22533Z" fill="#00843D"/>
<path fill-rule="evenodd" clip-rule="evenodd" d="M8.3742 7.44068C8.3742 7.44068 8.3234 7.39014 8.3234 7.36656C8.3234 7.34297 8.37783 7.28906 8.3996 7.28906C8.42863 7.28906 8.4758 7.3396 8.4758 7.36319C8.4758 7.39014 8.425 7.44068 8.425 7.44068V7.54176C8.425 7.54176 8.53748 7.36656 8.53748 7.44068C8.53748 7.49459 8.42863 7.58893 8.42863 7.58893H8.3742C8.3742 7.58893 8.26172 7.48111 8.26172 7.44405C8.26172 7.36993 8.37057 7.53839 8.37057 7.53839V7.43731L8.3742 7.44068Z" fill="white"/>
<path fill-rule="evenodd" clip-rule="evenodd" d="M9.02051 7.24654C9.02051 7.24654 8.95882 7.17916 8.95882 7.14546C8.95882 7.11177 9.02776 7.04102 9.05316 7.04102C9.08945 7.04102 9.1475 7.1084 9.1475 7.14209C9.1475 7.17579 9.08582 7.24991 9.08582 7.24991V7.38468C9.08582 7.38468 9.19467 7.15894 9.19467 7.26339C9.19467 7.33078 9.08582 7.45881 9.08582 7.45881H9.01688C9.01688 7.45881 8.88988 7.30045 8.90802 7.26339C8.90802 7.16231 9.01688 7.38805 9.01688 7.38805V7.24654H9.02051Z" fill="#CA3745"/>
<path fill-rule="evenodd" clip-rule="evenodd" d="M9.70931 8.89622C9.70931 8.89622 9.65851 8.94339 9.65851 8.97035C9.65851 8.99393 9.71293 9.04447 9.73833 9.04447C9.76736 9.04447 9.81453 8.99393 9.81453 8.97035C9.81453 8.94676 9.76373 8.89622 9.76373 8.89622V8.79514C9.76373 8.79514 9.87259 8.96698 9.87259 8.89285C9.87259 8.83894 9.76373 8.74797 9.76373 8.74797H9.70568C9.70568 8.74797 9.59682 8.85579 9.59682 8.89285C9.59682 8.96698 9.70568 8.79514 9.70568 8.79514V8.89622H9.70931ZM9.69842 7.44068C9.69842 7.44068 9.64762 7.39014 9.64762 7.36319C9.64762 7.34297 9.70205 7.28906 9.72382 7.28906C9.75285 7.28906 9.80002 7.3396 9.80002 7.36319C9.80002 7.39014 9.74922 7.44068 9.74922 7.44068V7.54176C9.74922 7.54176 9.8617 7.36656 9.8617 7.44068C9.8617 7.49459 9.75285 7.58893 9.75285 7.58893H9.69842C9.69842 7.58893 9.58594 7.48111 9.58594 7.44405C9.58594 7.36993 9.69479 7.53839 9.69479 7.53839V7.43731L9.69842 7.44068Z" fill="white"/>
<path fill-rule="evenodd" clip-rule="evenodd" d="M7.84356 8.5456C7.84356 8.5456 7.77462 8.59277 7.77462 8.61299C7.77462 8.63657 7.84719 8.68711 7.87985 8.68374C7.91613 8.68374 7.98144 8.63994 7.98144 8.61635C7.98144 8.59277 7.9125 8.5456 7.9125 8.5456V8.45126C7.9125 8.45126 8.03587 8.60288 8.03587 8.53549C8.03587 8.48832 7.9125 8.40409 7.9125 8.40409H7.84356C7.84356 8.40409 7.70205 8.51191 7.72382 8.53549C7.72382 8.60288 7.84356 8.45126 7.84356 8.45126V8.5456V8.5456ZM7.82905 7.83468C7.82905 7.83468 7.76011 7.78751 7.76011 7.76392C7.76011 7.74033 7.83268 7.69316 7.86533 7.69653C7.90162 7.69653 7.96693 7.74033 7.96693 7.76392C7.96693 7.78751 7.89799 7.83131 7.89799 7.83131V7.92565C7.89799 7.92565 8.02136 7.77403 8.02136 7.84478C8.02136 7.88858 7.89799 7.97282 7.89799 7.97282H7.82905C7.82905 7.97282 7.68754 7.86837 7.70931 7.84478C7.70931 7.7774 7.82905 7.92565 7.82905 7.92565V7.83468V7.83468ZM10.2347 8.52875C10.2347 8.52875 10.1622 8.57592 10.1622 8.59951C10.1622 8.62309 10.2384 8.67026 10.271 8.67026C10.3073 8.67026 10.3726 8.62309 10.3726 8.60288C10.3726 8.57592 10.3 8.52875 10.3 8.52875V8.43778C10.3 8.43778 10.4234 8.5894 10.4234 8.51864C10.4234 8.47484 10.3037 8.39061 10.3037 8.39061H10.2311C10.2311 8.39061 10.0932 8.49506 10.1114 8.51864C10.1114 8.5894 10.2347 8.43778 10.2347 8.43778V8.53212V8.52875ZM10.2202 7.8212C10.2202 7.8212 10.1476 7.77403 10.1476 7.75044C10.1476 7.72686 10.2238 7.67969 10.2565 7.67969C10.2928 7.67969 10.3581 7.72686 10.3581 7.74707C10.3581 7.77403 10.2855 7.81783 10.2855 7.81783V7.91217C10.2855 7.91217 10.4089 7.76055 10.4089 7.82794C10.4089 7.87511 10.2892 7.95934 10.2892 7.95934H10.2166C10.2166 7.95934 10.0787 7.85489 10.0968 7.83131C10.0968 7.76055 10.2202 7.91217 10.2202 7.91217V7.81783V7.8212Z" fill="#CA3745"/>
<path fill-rule="evenodd" clip-rule="evenodd" d="M7.33599 8.5397C7.31422 8.49589 7.32147 8.47568 7.32147 8.45209C7.32147 8.42851 7.38316 8.38471 7.40493 8.38471C7.43396 8.38471 7.48113 8.43188 7.48113 8.45883C7.48113 8.48242 7.48113 8.50263 7.47024 8.54643L7.44121 8.47568C7.4013 8.57676 7.39767 8.57676 7.3759 8.47231L7.33962 8.5397H7.33599ZM7.33599 7.8153C7.31784 7.8591 7.32147 7.87931 7.32147 7.9029C7.32147 7.92648 7.38316 7.97028 7.40856 7.97028C7.43758 7.97028 7.48476 7.92311 7.48476 7.89616C7.48476 7.87257 7.48476 7.85236 7.47387 7.80856L7.44121 7.87931C7.40493 7.77823 7.4013 7.77823 7.3759 7.88268L7.33962 7.8153H7.33599ZM10.6923 8.52959C10.6706 8.48579 10.6742 8.46557 10.6742 8.44199C10.6742 8.4184 10.7395 8.3746 10.7613 8.3746C10.7903 8.3746 10.8375 8.42514 10.8375 8.44872C10.8375 8.47231 10.8375 8.4959 10.8266 8.53633L10.7939 8.46557C10.7576 8.56665 10.754 8.57002 10.7286 8.46557L10.6923 8.52959ZM10.6923 7.80856C10.6706 7.84899 10.6778 7.8692 10.6778 7.89616C10.6778 7.91637 10.7395 7.96354 10.7613 7.96354C10.7903 7.96354 10.8411 7.91301 10.8411 7.88942C10.8411 7.86247 10.8411 7.84225 10.8302 7.79845L10.7939 7.87257C10.7576 7.76813 10.7576 7.76476 10.7322 7.87257L10.696 7.80519L10.6923 7.80856Z" fill="white"/>
<path fill-rule="evenodd" clip-rule="evenodd" d="M8.68163 9.37524V9.1933H8.10108V8.83616H7.58583V8.71823H7.1359V7.64007H7.58583V7.52214H8.10108V7.165H8.68163V6.98643H9.45087V7.165H10.0314V7.52214H10.543V7.64344H10.9966V8.71823H10.5467V8.83616H10.0351V9.1933H9.4545V9.37187H8.68526L8.68163 9.37524ZM8.61632 9.43252V9.25395H8.03577V8.8968H7.52415V8.77551H7.07422V7.58279H7.52415V7.46486H8.03577V7.10435H8.61632V6.92578H9.51618V7.10435H10.0967V7.46486H10.6084V7.58279H11.0583V8.77551H10.6084V8.8968H10.0931V9.25395H9.51256V9.43252H8.61632V9.43252Z" fill="#CA3745" stroke="black" stroke-width="0.00791482"/>
</g>
</g>
<defs>
<filter id="filter0_d_336_32472" x="0" y="-2" width="36" height="36" filterUnits="userSpaceOnUse" color-interpolation-filters="sRGB">
<feFlood flood-opacity="0" result="BackgroundImageFix"/>
<feColorMatrix in="SourceAlpha" type="matrix" values="0 0 0 0 0 0 0 0 0 0 0 0 0 0 0 0 0 0 127 0" result="hardAlpha"/>
<feOffset dy="4"/>
<feGaussianBlur stdDeviation="3"/>
<feComposite in2="hardAlpha" operator="out"/>
<feColorMatrix type="matrix" values="0 0 0 0 0 0 0 0 0 0 0 0 0 0 0 0 0 0 0.16 0"/>
<feBlend mode="normal" in2="BackgroundImageFix" result="effect1_dropShadow_336_32472"/>
<feBlend mode="normal" in="SourceGraphic" in2="effect1_dropShadow_336_32472" result="shape"/>
</filter>
<clipPath id="clip0_336_32472">
<rect width="24" height="18" fill="white" transform="translate(6 3)"/>
</clipPath>
</defs>
</svg>
