<svg width="36" height="31" viewBox="0 0 36 31" fill="none" xmlns="http://www.w3.org/2000/svg">
<g filter="url(#filter0_d_336_33097)">
<g clip-path="url(#clip0_336_33097)">
<path d="M6 3H30V21H6V3Z" fill="#009543"/>
<path d="M6 3H30V12H6V3Z" fill="#D21034"/>
<path d="M6 3L17.2 10.3895H30V13.6106H17.2L6 21.0001" fill="black"/>
<path d="M6 3L17.2 10.3895H30V13.6106H17.2L6 21.0001" stroke="#FDCE12" stroke-width="3.4"/>
<path d="M6 3L17.2 10.3895H30M30 13.6106H17.2L6 21.0001" stroke="black" stroke-width="2"/>
<path d="M9.22531 13.7235V14.7467C10.1158 14.7467 11.8666 14.0646 11.8666 11.8629C11.8666 9.66122 9.99837 9.25195 9.44131 9.25195C8.88047 9.25195 7.15625 9.65364 7.15625 11.4499C7.15625 13.2537 8.85015 13.4204 9.18363 13.4204C9.5171 13.4204 10.7676 13.1172 10.6236 11.7682C10.5863 12.0974 10.4288 12.4013 10.1812 12.6216C9.93366 12.8419 9.61352 12.963 9.28215 12.9619C8.37268 12.9619 7.80425 12.2873 7.80425 11.6204C7.80425 10.9534 8.35752 10.0591 9.31626 10.0591C10.275 10.0591 10.9761 10.9117 10.9761 11.7682C10.9761 12.6284 10.3015 13.7198 9.22531 13.7198V13.7235Z" fill="#FDCE12"/>
<path d="M8.44141 12.3858L8.49446 12.4237C8.49446 12.4237 8.91888 11.4574 10.0519 10.7715C9.90794 10.8473 9.15004 11.2262 8.44141 12.3858V12.3858Z" fill="#FDCE12" stroke="#FDCE12" stroke-width="0.0674314"/>
<path d="M8.55031 12.2182C8.55031 12.2182 8.42147 11.953 8.53516 11.8317C8.64884 11.7142 8.59958 12.1462 8.59958 12.1462L8.64884 12.0742C8.64884 12.0742 8.57305 11.7483 8.65642 11.6801C8.74358 11.6081 8.70189 11.9946 8.70189 11.9946L8.75495 11.9264C8.75495 11.9264 8.6981 11.6081 8.78147 11.5475C8.86863 11.4869 8.81558 11.8506 8.81558 11.8506L8.87621 11.7749C8.87621 11.7749 8.83074 11.4717 8.93305 11.3997C9.03537 11.3277 8.94442 11.6877 8.94442 11.6877L9.01263 11.6119C9.01263 11.6119 8.98232 11.3353 9.06947 11.2709C9.15663 11.2102 9.08463 11.5361 9.08463 11.5361L9.14526 11.4679C9.14526 11.4679 9.12632 11.2102 9.20969 11.1496C9.29684 11.089 9.21726 11.3959 9.21726 11.3959L9.28169 11.3353C9.28169 11.3353 9.26653 11.0738 9.37263 11.0245C9.47874 10.9753 9.35369 11.2671 9.35369 11.2671L9.42948 11.2064C9.42948 11.2064 9.44842 10.9033 9.53937 10.8767C9.63032 10.8464 9.50148 11.142 9.50148 11.142L9.5659 11.089C9.5659 11.089 9.6 10.8313 9.69853 10.801C9.80085 10.7668 9.6379 11.0359 9.6379 11.0359L9.70232 10.9866C9.70232 10.9866 9.77432 10.729 9.86906 10.6986C9.96 10.6721 9.77053 10.945 9.77053 10.945L9.83495 10.8995C9.83495 10.8995 9.93727 10.6645 10.0244 10.6494C10.104 10.6342 9.9259 10.8426 9.9259 10.8426L10.0055 10.7972C10.0055 10.7972 10.1381 10.5546 10.1874 10.6266C10.2328 10.7024 9.9979 10.8123 9.9979 10.8123L9.92211 10.8578C9.92211 10.8578 10.2063 10.7214 10.2404 10.7896C10.2745 10.8578 9.85011 10.9033 9.85011 10.9033L9.7819 10.9487C9.7819 10.9487 10.0661 10.873 10.032 10.945C9.99411 11.017 9.71369 11.0018 9.71369 11.0018L9.64927 11.0473C9.64927 11.0473 9.93348 10.9791 9.89558 11.0473C9.85769 11.1079 9.58106 11.1041 9.58106 11.1041L9.51284 11.161C9.51284 11.161 9.78948 11.0852 9.74779 11.1723C9.7099 11.2557 9.39158 11.2519 9.39158 11.2519L9.31579 11.3277C9.31579 11.3277 9.60758 11.2254 9.58106 11.305C9.55832 11.3807 9.22484 11.4186 9.22484 11.4186L9.14905 11.4944C9.14905 11.4944 9.46358 11.3921 9.36884 11.4869C9.2779 11.5854 9.04674 11.6081 9.04674 11.6081L8.95958 11.7218C8.95958 11.7218 9.27032 11.5323 9.22484 11.6384C9.18316 11.7445 8.87621 11.8165 8.87621 11.8165L8.81558 11.8923C8.81558 11.8923 9.096 11.7294 9.06568 11.8165C9.03916 11.9113 8.73979 12.006 8.73979 12.006L8.69053 12.0742C8.69053 12.0742 9.02021 11.8772 8.99368 11.9795C8.96337 12.078 8.64884 12.15 8.64884 12.15L8.61095 12.2144C8.61095 12.2144 8.91411 12.0363 8.91411 12.1235C8.92168 12.2069 8.55789 12.2902 8.55789 12.2902L8.55031 12.2182V12.2182Z" fill="#FDCE12"/>
<path d="M10.2461 12.3858L10.193 12.4237C10.193 12.4237 9.76862 11.4574 8.63556 10.7715C8.77956 10.8473 9.53746 11.2262 10.2461 12.3858V12.3858Z" fill="#FDCE12" stroke="#FDCE12" stroke-width="0.0674314"/>
<path d="M10.1372 12.2182C10.1372 12.2182 10.266 11.953 10.1523 11.8317C10.0387 11.7142 10.0879 12.1462 10.0879 12.1462L10.0387 12.0742C10.0387 12.0742 10.1144 11.7483 10.0311 11.6801C9.94392 11.6081 9.98561 11.9946 9.98561 11.9946L9.93255 11.9264C9.93255 11.9264 9.9894 11.6081 9.90603 11.5475C9.81887 11.4869 9.87192 11.8506 9.87192 11.8506L9.81129 11.7749C9.81129 11.7749 9.85676 11.4717 9.75445 11.3997C9.65213 11.3277 9.74308 11.6877 9.74308 11.6877L9.67487 11.6119C9.67487 11.6119 9.70518 11.3353 9.61803 11.2709C9.53087 11.2102 9.60287 11.5361 9.60287 11.5361L9.54224 11.4679C9.54224 11.4679 9.56118 11.2102 9.47781 11.1496C9.39066 11.089 9.47024 11.3959 9.47024 11.3959L9.40581 11.3353C9.40581 11.3353 9.42097 11.0738 9.31487 11.0245C9.20876 10.9753 9.33381 11.2671 9.33381 11.2671L9.25802 11.2064C9.25802 11.2064 9.23908 10.9033 9.14813 10.8767C9.05718 10.8464 9.18602 11.142 9.18602 11.142L9.1216 11.089C9.1216 11.089 9.0875 10.8313 8.98897 10.801C8.88665 10.7668 9.0496 11.0359 9.0496 11.0359L8.98518 10.9866C8.98518 10.9866 8.91318 10.729 8.81844 10.6986C8.7275 10.6721 8.91697 10.945 8.91697 10.945L8.85255 10.8995C8.85255 10.8995 8.75023 10.6645 8.66307 10.6494C8.5835 10.6342 8.7616 10.8426 8.7616 10.8426L8.68202 10.7972C8.68202 10.7972 8.54939 10.5546 8.50013 10.6266C8.45465 10.7024 8.6896 10.8123 8.6896 10.8123L8.76539 10.8578C8.76539 10.8578 8.48118 10.7214 8.44707 10.7896C8.41297 10.8578 8.83739 10.9033 8.83739 10.9033L8.9056 10.9487C8.9056 10.9487 8.62139 10.873 8.6555 10.945C8.69339 11.017 8.97381 11.0018 8.97381 11.0018L9.03823 11.0473C9.03823 11.0473 8.75402 10.9791 8.79192 11.0473C8.82981 11.1079 9.10644 11.1041 9.10644 11.1041L9.17466 11.161C9.17466 11.161 8.89802 11.0852 8.93971 11.1723C8.9776 11.2557 9.29592 11.2519 9.29592 11.2519L9.37171 11.3277C9.37171 11.3277 9.07992 11.2254 9.10644 11.305C9.12918 11.3807 9.46266 11.4186 9.46266 11.4186L9.53845 11.4944C9.53845 11.4944 9.22392 11.3921 9.31866 11.4869C9.4096 11.5854 9.64076 11.6081 9.64076 11.6081L9.72792 11.7218C9.72792 11.7218 9.41718 11.5323 9.46266 11.6384C9.50434 11.7445 9.81129 11.8165 9.81129 11.8165L9.87192 11.8923C9.87192 11.8923 9.5915 11.7294 9.62182 11.8165C9.64834 11.9113 9.94771 12.006 9.94771 12.006L9.99697 12.0742C9.99697 12.0742 9.66729 11.8772 9.69382 11.9795C9.72413 12.078 10.0387 12.15 10.0387 12.15L10.0766 12.2144C10.0766 12.2144 9.77339 12.0363 9.77339 12.1235C9.76582 12.2069 10.1296 12.2902 10.1296 12.2902L10.1372 12.2182V12.2182Z" fill="#FDCE12"/>
</g>
</g>
<defs>
<filter id="filter0_d_336_33097" x="0" y="-2" width="36" height="36" filterUnits="userSpaceOnUse" color-interpolation-filters="sRGB">
<feFlood flood-opacity="0" result="BackgroundImageFix"/>
<feColorMatrix in="SourceAlpha" type="matrix" values="0 0 0 0 0 0 0 0 0 0 0 0 0 0 0 0 0 0 127 0" result="hardAlpha"/>
<feOffset dy="4"/>
<feGaussianBlur stdDeviation="3"/>
<feComposite in2="hardAlpha" operator="out"/>
<feColorMatrix type="matrix" values="0 0 0 0 0 0 0 0 0 0 0 0 0 0 0 0 0 0 0.16 0"/>
<feBlend mode="normal" in2="BackgroundImageFix" result="effect1_dropShadow_336_33097"/>
<feBlend mode="normal" in="SourceGraphic" in2="effect1_dropShadow_336_33097" result="shape"/>
</filter>
<clipPath id="clip0_336_33097">
<rect width="24" height="18" fill="white" transform="translate(6 3)"/>
</clipPath>
</defs>
</svg>
