<svg width="36" height="32" viewBox="0 0 36 32" fill="none" xmlns="http://www.w3.org/2000/svg">
<g filter="url(#filter0_d_336_15405)">
<g clip-path="url(#clip0_336_15405)">
<path d="M6 3H30V21.1132H6V3Z" fill="#3A7DCE"/>
<path d="M11.9155 11.71C11.7842 11.4156 11.7842 11.4156 11.7842 11.1213C11.7167 11.1213 11.7092 11.1326 11.6717 11.1213C11.6305 11.11 11.6155 11.393 11.4917 11.3401C11.473 11.31 11.5817 11.1062 11.4655 11.0194C11.428 10.993 11.473 10.8232 11.458 10.7477C11.458 10.7477 11.308 10.8383 11.1955 10.5288C11.1392 10.4458 11.0642 10.6043 11.0642 10.6043C11.0642 10.6043 11.098 10.6949 11.038 10.7175C10.9555 10.6496 10.8917 10.6873 10.7867 10.5892C10.6817 10.4949 10.8092 10.3854 10.6067 10.3062C10.738 9.93638 10.738 10.0081 11.0642 9.8609C10.8692 9.70996 10.8692 9.70996 10.738 9.49109C10.543 9.41562 10.4755 9.34015 10.2805 9.19675C10.018 8.82317 9.88672 8.08355 9.88672 7.56656C10.0517 7.39298 10.2805 8.15902 10.6067 8.38166L11.0642 8.6043C11.3267 8.75147 11.3905 8.89864 11.5892 9.04581L12.1742 9.27222C12.4367 9.49109 12.568 9.78543 12.763 9.8609C12.9767 9.8609 13.018 9.72128 13.0855 9.71373C13.4717 9.69109 13.6667 9.63826 13.7417 9.50619C13.8205 9.40053 14.0042 9.56656 14.5292 9.34392L14.4655 9.04581C14.4655 9.04581 14.6042 8.91751 14.7917 8.97034C14.788 8.83826 14.773 8.47977 14.9605 8.31373C14.848 8.18166 15.028 7.97411 15.0355 7.90996C14.983 7.58543 15.088 7.58166 15.1105 7.48355C15.133 7.38921 15.0205 7.41939 15.0505 7.28732C15.0842 7.15524 15.2755 7.12506 15.298 7.01562C15.3242 6.90619 15.2567 6.476 15.2492 6.38166C15.6017 6.276 15.7142 5.95147 15.838 6.08732C15.9017 5.64204 15.9692 5.49109 16.363 5.49109C16.4155 5.35524 16.2167 5.23826 16.2955 5.19298C16.4267 5.17411 16.5242 5.18543 16.678 5.40807C16.7267 5.48355 16.738 5.30619 16.7867 5.28732C16.8355 5.26845 16.9517 5.26845 16.9705 5.18166C16.9892 5.09109 17.0155 4.97034 17.083 4.82317C17.1355 4.70241 17.1767 4.87223 17.2255 5.10619C17.503 5.11751 18.1255 5.18543 18.388 5.26845C18.583 5.32506 18.7142 5.21185 18.9017 5.18543C19.0405 5.34392 19.1717 5.22317 19.2467 5.56279C19.348 5.74392 19.5205 5.57789 19.558 5.63072C19.7755 6.31373 20.5255 5.85336 20.5855 5.86468C20.6792 5.86468 20.7955 6.16656 20.8742 6.16279C20.9942 6.14015 20.9605 6.04581 21.0692 6.08355C21.0392 6.34015 21.2792 6.63449 21.2792 6.82694C21.2792 6.82694 21.3355 6.8609 21.3917 6.8043C21.4442 6.74392 21.493 6.60053 21.5417 6.6043C21.6542 6.62317 22.3667 6.83072 22.5092 6.90241C22.573 7.03449 22.633 7.10241 22.7642 7.07977C22.8692 7.15902 22.7942 7.26845 22.8542 7.27222C22.9855 7.19675 23.0305 7.12128 23.1617 7.19298C23.293 7.26845 23.4242 7.41562 23.488 7.56279C23.488 7.63826 23.4205 7.9326 23.488 8.37789C23.5217 8.52506 23.8517 9.59675 23.8517 9.70619C23.8517 9.85713 23.7505 9.9326 23.683 10.0798C23.9455 10.3024 23.683 10.6722 23.5517 10.8949C24.5342 11.1175 24.0767 11.559 24.8605 11.3364C24.6655 11.8571 24.733 11.8156 24.928 12.3326C24.538 12.6269 24.9205 12.7175 24.6617 13.0873C24.643 13.1137 24.8155 13.4118 25.0555 13.4118C24.9917 14.0005 24.793 13.7817 24.8605 14.6685C24.3467 14.6571 24.553 15.3326 24.208 15.2609C24.2267 15.6835 24.403 15.7213 24.3355 16.1477C24.073 16.2232 24.073 16.2232 23.9455 16.4458L23.7505 16.3703C23.683 16.7401 23.5517 16.8156 23.7505 17.1854C23.7505 17.1854 23.4955 17.193 23.4205 17.1854C23.4167 17.3137 23.533 17.3477 23.5517 17.4798C23.5442 17.5326 23.1805 17.7666 22.8992 17.7779C22.8242 17.959 23.0942 18.1552 23.0792 18.2458C22.7717 18.3137 22.6367 18.7364 22.6367 18.7364C22.6367 18.7364 22.7942 18.8118 22.768 18.8873C22.6855 18.8194 22.6367 18.8118 22.5055 18.8118C22.4417 18.8307 22.2805 18.8118 22.1305 19.1024C21.9617 19.1628 21.883 19.1401 21.7555 19.3288C21.6992 19.1515 21.6167 19.3326 21.5192 19.4043C21.418 19.4722 21.2867 19.6496 21.268 19.642C21.2717 19.5892 21.328 19.4043 21.328 19.4043L20.9642 19.4911C20.938 19.4949 20.9455 19.276 20.8817 19.2835C20.818 19.2911 20.6417 19.559 20.5817 19.5666C20.5217 19.5741 20.503 19.4835 20.4505 19.4911C20.398 19.4986 20.3005 19.7741 20.263 19.7817C20.2255 19.7854 20.0755 19.6118 19.9517 19.6383C19.3105 19.8949 19.2055 19.1326 19.108 19.5628C18.973 19.4798 18.9955 19.5251 18.8567 19.5666C18.7705 19.593 18.763 19.4383 18.6842 19.4383C18.5305 19.4458 18.5342 19.6118 18.4517 19.5628C18.3842 19.2156 17.9642 19.276 17.9267 19.1288C17.8892 18.9779 18.1067 18.9779 18.1742 18.8722C18.2267 18.7213 18.118 18.6609 18.3355 18.5175C18.6167 18.3024 18.5905 17.7703 18.5192 17.5628C18.5192 17.5628 18.298 16.8949 18.2567 16.8949C18.1255 16.8571 18.1255 17.1401 17.9342 17.2194C17.5405 17.3703 16.8467 16.8458 16.7267 16.8458C16.618 16.8458 16.108 16.9817 16.1267 16.6949C16.0517 16.9741 15.7705 16.759 15.7517 16.759C15.4892 16.759 15.5905 16.9892 15.4142 16.9817C15.3355 16.9515 14.5292 16.8949 14.5292 16.8949V17.0458L13.5505 16.6005C13.1567 16.4496 13.3517 16.0835 12.6992 16.3062V15.8609H12.373C12.5042 14.9703 12.373 15.4156 12.3055 14.6005L12.043 14.676C11.7805 14.276 12.4105 14.3515 11.848 14.0835C11.848 14.0835 11.8592 13.642 11.7167 13.7892C11.6905 13.8081 11.7842 14.0081 11.7842 14.0081C11.2592 13.9326 11.1317 13.7892 11.1317 13.1968C11.1317 13.1968 11.5592 13.2647 11.5217 13.1968C11.4617 13.0835 11.383 12.3666 11.3942 12.3137C11.3905 12.2156 11.7955 11.9741 11.7167 11.7401C11.7692 11.7175 11.9155 11.7137 11.9155 11.7137" fill="white"/>
<path d="M25.209 13.8674C25.1897 13.9149 25.1929 13.9624 25.2123 13.9989C25.2478 13.9368 25.2187 13.9113 25.2123 13.8674H25.209ZM9.8543 8.41157C9.8543 8.41157 9.75752 8.39697 9.77688 8.49557C9.80914 8.42253 9.85107 8.41523 9.8543 8.41157ZM9.84462 8.17786C9.78978 8.17786 9.72204 8.17055 9.74785 8.26915C9.7801 8.19246 9.84462 8.18151 9.84462 8.17786ZM10.2543 9.50348C10.2543 9.50348 10.3382 9.49617 10.3188 9.59477C10.2866 9.52174 10.2543 9.50713 10.2543 9.50348Z" stroke="white" stroke-width="0.190082" stroke-linejoin="round"/>
</g>
</g>
<defs>
<filter id="filter0_d_336_15405" x="0" y="-2" width="36" height="36" filterUnits="userSpaceOnUse" color-interpolation-filters="sRGB">
<feFlood flood-opacity="0" result="BackgroundImageFix"/>
<feColorMatrix in="SourceAlpha" type="matrix" values="0 0 0 0 0 0 0 0 0 0 0 0 0 0 0 0 0 0 127 0" result="hardAlpha"/>
<feOffset dy="4"/>
<feGaussianBlur stdDeviation="3"/>
<feComposite in2="hardAlpha" operator="out"/>
<feColorMatrix type="matrix" values="0 0 0 0 0 0 0 0 0 0 0 0 0 0 0 0 0 0 0.16 0"/>
<feBlend mode="normal" in2="BackgroundImageFix" result="effect1_dropShadow_336_15405"/>
<feBlend mode="normal" in="SourceGraphic" in2="effect1_dropShadow_336_15405" result="shape"/>
</filter>
<clipPath id="clip0_336_15405">
<rect width="24" height="18.1132" fill="white" transform="translate(6 3)"/>
</clipPath>
</defs>
</svg>
