<svg width="36" height="31" viewBox="0 0 36 31" fill="none" xmlns="http://www.w3.org/2000/svg">
<g filter="url(#filter0_d_336_27618)">
<g clip-path="url(#clip0_336_27618)">
<path fill-rule="evenodd" clip-rule="evenodd" d="M30.9147 21.048H5.13281V3H30.9147V21.048Z" fill="#BA0000"/>
<path fill-rule="evenodd" clip-rule="evenodd" d="M17.6579 11.7344C17.6579 11.7344 15.839 10.9519 16.0998 8.92149C16.3501 7.94507 16.7978 7.27884 17.605 6.91577C17.9857 6.79944 18.3734 6.74657 18.7682 6.71484C18.6625 6.81354 18.5779 6.91224 18.5321 7.03209C18.4475 7.25769 18.5109 7.46919 18.6272 7.68422C18.7718 7.93097 18.8599 8.18477 18.8881 8.51612C18.9146 8.74191 18.8809 8.9707 18.7906 9.17931C18.7002 9.38791 18.5563 9.56894 18.3734 9.70404C18.1408 9.88382 17.8658 9.94727 17.6402 10.1517C17.464 10.3209 17.3582 10.4936 17.323 10.7897C17.3159 11.3573 17.4675 11.4383 17.6579 11.7344V11.7344Z" fill="white"/>
<path fill-rule="evenodd" clip-rule="evenodd" d="M17.3086 8.79782V8.78711Z" fill="#BA0000"/>
<path d="M17.3086 8.79782V8.78711" stroke="black" stroke-width="0.166556"/>
<path d="M17.4259 11.5237C16.7209 10.8997 16.7808 9.32405 17.3202 8.79883" stroke="#BA0000" stroke-width="0.166556"/>
<path fill-rule="evenodd" clip-rule="evenodd" d="M17.7527 8.44654L17.8691 8.64041L17.6576 8.55229L17.4919 8.72854L17.5201 8.49941L17.3086 8.41129L17.5377 8.35841L17.5659 8.13281L17.6822 8.32669L17.9149 8.27381" fill="#BA0000"/>
<path fill-rule="evenodd" clip-rule="evenodd" d="M17.8125 11.6001C17.8125 11.6001 18.024 9.62961 20.0438 9.28416C21.052 9.24186 21.8204 9.47099 22.4056 10.1407C22.6276 10.4686 22.7898 10.8246 22.9343 11.1912C22.8109 11.1207 22.6946 11.0678 22.5607 11.0608C22.3245 11.0431 22.1377 11.1665 21.9685 11.3392C21.7709 11.558 21.5245 11.727 21.2494 11.8327C21.0415 11.9247 20.813 11.96 20.5871 11.9353C20.3612 11.9105 20.1458 11.8265 19.9627 11.6917C19.723 11.519 19.582 11.2758 19.3212 11.1207C19.1092 10.9947 18.8579 10.9519 18.6162 11.0008C18.0698 11.163 18.0416 11.3322 17.8125 11.6001V11.6001Z" fill="white"/>
<path fill-rule="evenodd" clip-rule="evenodd" d="M20.5156 10.4102H20.5263Z" fill="#BA0000"/>
<path d="M20.5156 10.4102H20.5263" stroke="black" stroke-width="0.166556"/>
<path d="M17.9414 11.3192C18.3362 10.4591 19.859 10.0572 20.5182 10.4168" stroke="#BA0000" stroke-width="0.166556"/>
<path fill-rule="evenodd" clip-rule="evenodd" d="M20.9865 10.7297L20.8349 10.8954L20.856 10.6662L20.6445 10.5605L20.8666 10.5252L20.8878 10.2891L21.0076 10.5006L21.2332 10.4583L21.0816 10.6239L21.198 10.8354" fill="#BA0000"/>
<path fill-rule="evenodd" clip-rule="evenodd" d="M17.9453 11.7422C17.9453 11.7422 19.8841 11.3192 20.8499 13.1275C21.213 14.0687 21.2377 14.8689 20.79 15.6338C20.5503 15.951 20.2612 16.2154 19.9616 16.4727C19.9898 16.3317 20.0004 16.2048 19.9651 16.0779C19.9087 15.8453 19.7325 15.7078 19.5139 15.6021C19.2428 15.4835 19.0036 15.3023 18.816 15.0733C18.6639 14.9053 18.5588 14.7003 18.5111 14.4787C18.4635 14.2572 18.475 14.027 18.5446 13.8114C18.6292 13.5294 18.816 13.3179 18.8794 13.0218C18.9322 12.7814 18.8932 12.5299 18.7702 12.3168C18.4423 11.8515 18.2731 11.8761 17.9453 11.7422Z" fill="white"/>
<path fill-rule="evenodd" clip-rule="evenodd" d="M19.9336 13.9316L19.9411 13.9392Z" fill="#BA0000"/>
<path d="M19.9336 13.9316L19.9411 13.9392" stroke="black" stroke-width="0.166556"/>
<path d="M18.2617 11.7773C19.1994 11.8796 20.063 13.1944 19.9326 13.9382" stroke="#BA0000" stroke-width="0.166556"/>
<path fill-rule="evenodd" clip-rule="evenodd" d="M19.7783 14.4764L19.5703 14.3848L19.7994 14.3319L19.8276 14.0957L19.9369 14.2966L20.166 14.2438L20.0074 14.42L20.1132 14.6209L19.9087 14.5293L19.7501 14.7091" fill="#BA0000"/>
<path fill-rule="evenodd" clip-rule="evenodd" d="M17.902 11.943C17.902 11.943 18.8502 13.6843 17.3909 15.1155C16.5872 15.7288 15.8258 15.9791 14.9657 15.7641C14.5955 15.6231 14.2607 15.4222 13.9258 15.2036C14.0668 15.193 14.1972 15.1684 14.31 15.0979C14.5145 14.978 14.5955 14.77 14.6378 14.5339C14.6745 14.2393 14.7809 13.9578 14.948 13.7125C15.0663 13.519 15.2335 13.3601 15.4328 13.2518C15.6321 13.1435 15.8564 13.0896 16.0831 13.0957C16.3792 13.0992 16.633 13.2226 16.9361 13.2014C17.1794 13.1697 17.3697 13.1027 17.5847 12.8912C17.9372 12.4506 17.8667 12.292 17.902 11.9395V11.943Z" fill="white"/>
<path fill-rule="evenodd" clip-rule="evenodd" d="M16.3592 14.4668L16.3555 14.4743Z" fill="#BA0000"/>
<path d="M16.3592 14.4668L16.3555 14.4743" stroke="black" stroke-width="0.166556"/>
<path d="M17.9519 12.25C18.1246 13.1806 17.1024 14.3826 16.3516 14.4602" stroke="#BA0000" stroke-width="0.166556"/>
<path fill-rule="evenodd" clip-rule="evenodd" d="M15.7916 14.4697L15.8233 14.2441L15.9397 14.4451L16.1723 14.4098L16.0102 14.572L16.1265 14.7729L15.9115 14.6707L15.7493 14.8328L15.7775 14.6072L15.5625 14.505" fill="#BA0000"/>
<path fill-rule="evenodd" clip-rule="evenodd" d="M17.6883 11.9039C17.6883 11.9039 16.363 13.3774 14.5229 12.482C13.6769 11.9286 13.1904 11.2906 13.1094 10.4093C13.12 10.011 13.194 9.63032 13.2891 9.24609C13.3491 9.37299 13.416 9.48579 13.5183 9.57039C13.698 9.72197 13.9237 9.72902 14.1634 9.69024C14.4511 9.62724 14.7497 9.6345 15.034 9.71139C15.2566 9.75826 15.4629 9.86315 15.6319 10.0154C15.8009 10.1677 15.9266 10.362 15.9964 10.5785C16.0915 10.857 16.0598 11.139 16.1832 11.4175C16.2889 11.636 16.4158 11.7911 16.6872 11.9251C17.223 12.1119 17.3464 11.9921 17.6883 11.9075V11.9039Z" fill="white"/>
<path fill-rule="evenodd" clip-rule="evenodd" d="M14.7966 11.2909L14.7891 11.2871Z" fill="#BA0000"/>
<path d="M14.7966 11.2909L14.7891 11.2871" stroke="black" stroke-width="0.166556"/>
<path d="M17.4124 12.0548C16.5946 12.5236 15.1212 11.9596 14.7969 11.2793" stroke="#BA0000" stroke-width="0.166556"/>
<path fill-rule="evenodd" clip-rule="evenodd" d="M14.6056 10.7548L14.8277 10.709L14.6761 10.8853L14.7854 11.0933L14.581 10.9946L14.4294 11.1708L14.4541 10.9311L14.2461 10.8324L14.4682 10.7866L14.4928 10.5469" fill="#BA0000"/>
</g>
</g>
<defs>
<filter id="filter0_d_336_27618" x="0" y="-2" width="36" height="36" filterUnits="userSpaceOnUse" color-interpolation-filters="sRGB">
<feFlood flood-opacity="0" result="BackgroundImageFix"/>
<feColorMatrix in="SourceAlpha" type="matrix" values="0 0 0 0 0 0 0 0 0 0 0 0 0 0 0 0 0 0 127 0" result="hardAlpha"/>
<feOffset dy="4"/>
<feGaussianBlur stdDeviation="3"/>
<feComposite in2="hardAlpha" operator="out"/>
<feColorMatrix type="matrix" values="0 0 0 0 0 0 0 0 0 0 0 0 0 0 0 0 0 0 0.16 0"/>
<feBlend mode="normal" in2="BackgroundImageFix" result="effect1_dropShadow_336_27618"/>
<feBlend mode="normal" in="SourceGraphic" in2="effect1_dropShadow_336_27618" result="shape"/>
</filter>
<clipPath id="clip0_336_27618">
<rect width="24" height="18" fill="white" transform="translate(6 3)"/>
</clipPath>
</defs>
</svg>
