<svg width="36" height="31" viewBox="0 0 36 31" fill="none" xmlns="http://www.w3.org/2000/svg">
<g filter="url(#filter0_d_336_32408)">
<g clip-path="url(#clip0_336_32408)">
<path d="M6 3H30V21H6V3Z" fill="#006600"/>
<path d="M6 3H30V15.8588H6V3Z" fill="white"/>
<path d="M6 3H30V8.14125H6V3Z" fill="#CC0000"/>
<path d="M17.2797 11.7606C17.315 11.7007 17.3688 11.6538 17.4329 11.627C17.4971 11.6001 17.5682 11.5947 17.6357 11.6116C17.7032 11.6284 17.7634 11.6667 17.8074 11.7206C17.8513 11.7745 17.8767 11.8411 17.8797 11.9106V13.2006H18.1197V11.9144C18.1227 11.8449 18.148 11.7782 18.192 11.7243C18.236 11.6704 18.2962 11.6322 18.3637 11.6153C18.4312 11.5984 18.5023 11.6038 18.5664 11.6307C18.6306 11.6576 18.6844 11.7045 18.7197 11.7644C18.7569 11.6506 18.7666 11.5297 18.748 11.4115C18.7295 11.2933 18.6832 11.1812 18.6129 11.0843C18.5427 10.9874 18.4505 10.9086 18.3439 10.8542C18.2373 10.7998 18.1193 10.7715 17.9997 10.7715C17.88 10.7715 17.7621 10.7998 17.6555 10.8542C17.5489 10.9086 17.4567 10.9874 17.3865 11.0843C17.3162 11.1812 17.2699 11.2933 17.2514 11.4115C17.2328 11.5297 17.2425 11.6506 17.2797 11.7644" fill="#F8C300"/>
<path d="M17.4531 11.4265C17.5584 11.4047 17.6679 11.4166 17.7661 11.4603C17.8643 11.504 17.9463 11.5775 18.0006 11.6703C18.0549 11.5775 18.1369 11.504 18.2352 11.4603C18.3334 11.4166 18.4428 11.4047 18.5481 11.4265C18.5324 11.2923 18.4679 11.1686 18.367 11.0788C18.2661 10.9891 18.1357 10.9395 18.0006 10.9395C17.8655 10.9395 17.7352 10.9891 17.6342 11.0788C17.5333 11.1686 17.4689 11.2923 17.4531 11.4265" fill="white"/>
<path d="M17.8792 12.6855C17.8633 12.8683 17.7961 13.0429 17.6854 13.1892C17.5747 13.3355 17.425 13.4475 17.2534 13.5126C17.0819 13.5776 16.8955 13.5929 16.7156 13.5567C16.5358 13.5205 16.3698 13.4343 16.2367 13.308C16.1803 13.4521 16.0916 13.5812 15.9775 13.6857C15.8634 13.7901 15.7269 13.867 15.5784 13.9104C15.43 13.9538 15.2735 13.9627 15.1211 13.9363C14.9687 13.9099 14.8244 13.8489 14.6992 13.758C14.793 14.6955 16.1992 14.5043 16.3042 13.593C16.743 14.3693 17.7142 14.1443 17.9992 13.1955L17.8792 12.6855Z" fill="#F8C300"/>
<path d="M18.1208 12.6855C18.1367 12.8683 18.2039 13.0429 18.3146 13.1892C18.4253 13.3355 18.575 13.4475 18.7466 13.5126C18.9181 13.5776 19.1045 13.5929 19.2844 13.5567C19.4642 13.5205 19.6302 13.4343 19.7633 13.308C19.8197 13.4521 19.9084 13.5812 20.0225 13.6857C20.1366 13.7901 20.2731 13.867 20.4216 13.9104C20.57 13.9538 20.7265 13.9627 20.8789 13.9363C21.0313 13.9099 21.1756 13.8489 21.3008 13.758C21.207 14.6955 19.8008 14.5043 19.6958 13.593C19.257 14.3693 18.2858 14.1443 18.0008 13.1955L18.1208 12.6855Z" fill="#F8C300"/>
<path d="M16.9417 14.3473C16.743 14.771 16.353 14.8423 16.0117 14.501C16.0117 14.501 16.1467 14.4035 16.2967 14.3773C16.2667 14.261 16.323 14.096 16.4055 14.0098C16.5147 14.0814 16.5955 14.1888 16.6342 14.3135C16.8405 14.2873 16.9417 14.351 16.9417 14.351V14.3473Z" fill="#F8C300"/>
<path d="M18.4796 14.2993C18.2143 14.6849 17.8179 14.6915 17.537 14.2991C17.537 14.2991 17.6861 14.225 17.8383 14.2236C17.8277 14.104 17.9102 13.9504 18.0057 13.8788C18.1017 13.9673 18.1639 14.0864 18.1817 14.2158C18.3895 14.2236 18.479 14.303 18.479 14.303L18.4796 14.2993Z" fill="#F8C300"/>
<path d="M19.9875 14.5007C19.6634 14.8383 19.2712 14.7808 19.0573 14.3481C19.0573 14.3481 19.2165 14.2991 19.367 14.3223C19.3758 14.2026 19.482 14.0643 19.5878 14.0091C19.6683 14.1119 19.7105 14.2396 19.7071 14.3701C19.9109 14.4114 19.9863 14.5042 19.9863 14.5042L19.9875 14.5007Z" fill="#F8C300"/>
<path d="M15.5078 15.293C17.135 14.8086 18.8681 14.8086 20.4953 15.293" stroke="#F8C300" stroke-width="0.933754"/>
<path d="M18.3874 9.70645L17.3711 8.96807H18.6273L17.611 9.70645L17.9992 8.51172L18.3874 9.70645Z" fill="#F8C300"/>
<path d="M16.5905 10.1908L15.5742 9.45244H16.8304L15.8141 10.1908L16.2023 8.99609L16.5905 10.1908Z" fill="#F8C300"/>
<path d="M15.2741 11.5072L14.2578 10.7688H15.514L14.4977 11.5072L14.8859 10.3125L15.2741 11.5072Z" fill="#F8C300"/>
<path d="M14.7897 13.308L13.7734 12.5696H15.0297L14.0134 13.308L14.4015 12.1133L14.7897 13.308Z" fill="#F8C300"/>
<path d="M19.4095 10.1908L20.4258 9.45244H19.1696L20.1859 10.1908L19.7977 8.99609L19.4095 10.1908Z" fill="#F8C300"/>
<path d="M20.7259 11.5072L21.7422 10.7688H20.486L21.5023 11.5072L21.1141 10.3125L20.7259 11.5072Z" fill="#F8C300"/>
<path d="M21.2103 13.308L22.2266 12.5696H20.9703L21.9866 13.308L21.5985 12.1133L21.2103 13.308Z" fill="#F8C300"/>
</g>
</g>
<defs>
<filter id="filter0_d_336_32408" x="0" y="-2" width="36" height="36" filterUnits="userSpaceOnUse" color-interpolation-filters="sRGB">
<feFlood flood-opacity="0" result="BackgroundImageFix"/>
<feColorMatrix in="SourceAlpha" type="matrix" values="0 0 0 0 0 0 0 0 0 0 0 0 0 0 0 0 0 0 127 0" result="hardAlpha"/>
<feOffset dy="4"/>
<feGaussianBlur stdDeviation="3"/>
<feComposite in2="hardAlpha" operator="out"/>
<feColorMatrix type="matrix" values="0 0 0 0 0 0 0 0 0 0 0 0 0 0 0 0 0 0 0.16 0"/>
<feBlend mode="normal" in2="BackgroundImageFix" result="effect1_dropShadow_336_32408"/>
<feBlend mode="normal" in="SourceGraphic" in2="effect1_dropShadow_336_32408" result="shape"/>
</filter>
<clipPath id="clip0_336_32408">
<rect width="24" height="18" fill="white" transform="translate(6 3)"/>
</clipPath>
</defs>
</svg>
