<svg width="36" height="31" viewBox="0 0 36 31" fill="none" xmlns="http://www.w3.org/2000/svg">
<g filter="url(#filter0_d_336_17066)">
<g clip-path="url(#clip0_336_17066)">
<path fill-rule="evenodd" clip-rule="evenodd" d="M5.9879 11.2129H35.8235V18.4744H5.98438L5.9879 11.2129Z" fill="white"/>
<path fill-rule="evenodd" clip-rule="evenodd" d="M6.00781 3H35.8293V12.0452H6.00781V3ZM6.01839 16.603H36.0549V21.048H6.01839V16.603Z" fill="#081873"/>
<path fill-rule="evenodd" clip-rule="evenodd" d="M6.01953 13.666H35.841V15.0619H6.01953V13.666Z" fill="#DE3929"/>
<path fill-rule="evenodd" clip-rule="evenodd" d="M14.9561 17.0717L15.1887 17.7908H15.9431L15.3297 18.2385L15.5624 18.9611L14.9561 18.5099L14.3427 18.9576L14.5789 18.235L13.9655 17.7873H14.7234M21.5126 11.8265L21.7487 12.5491H22.4996L21.8862 12.9933L22.1189 13.7159L21.5055 13.2682L20.8922 13.7159L21.1248 12.9933L20.5115 12.5491H21.2729M13.4474 14.8192L13.68 15.5419H14.4379L13.8281 15.9931L14.0642 16.7122L13.4509 16.268L12.8375 16.7122L13.0702 15.9931L12.4568 15.5454H13.2147M21.5126 14.6148L21.7487 15.3339H22.4996L21.8862 15.7816L22.1189 16.5007L21.5055 16.0565L20.8922 16.5042L21.1248 15.7816L20.5115 15.3339H21.2729M19.8452 9.63397L20.0814 10.3531H20.8428L20.2295 10.8007L20.4621 11.5234L19.8488 11.0757L19.2354 11.5234L19.4716 10.8007L18.8547 10.3531H19.6161M17.3425 8.75977L17.5787 9.48239H18.3365L17.7232 9.92654L17.9558 10.6492L17.3425 10.205L16.7291 10.6492L16.9653 9.92654L16.352 9.48239H17.1063M14.8327 9.58462L15.0689 10.3072H15.8267L15.2134 10.7514L15.4496 11.474L14.8327 11.0263L14.2193 11.474L14.4555 10.7514L13.8422 10.3072H14.6036M13.3769 11.83L13.6095 12.5527H14.3709L13.754 12.9968L13.9902 13.7194L13.3769 13.2718L12.7635 13.7194L12.9962 12.9968L12.3828 12.5527H13.1407M17.3425 17.819L17.5787 18.5416H18.3365L17.7232 18.9858L17.9594 19.7084L17.3425 19.2607L16.7291 19.7084L16.9653 18.9858L16.352 18.5416H17.1063M20.0039 17.0717L20.2365 17.7908H20.9944L20.3846 18.2385L20.6207 18.9611L20.0074 18.5134L19.3905 18.9611L19.6267 18.2385L19.0133 17.7908H19.7712" fill="#FFCE08"/>
</g>
</g>
<defs>
<filter id="filter0_d_336_17066" x="0" y="-2" width="36" height="36" filterUnits="userSpaceOnUse" color-interpolation-filters="sRGB">
<feFlood flood-opacity="0" result="BackgroundImageFix"/>
<feColorMatrix in="SourceAlpha" type="matrix" values="0 0 0 0 0 0 0 0 0 0 0 0 0 0 0 0 0 0 127 0" result="hardAlpha"/>
<feOffset dy="4"/>
<feGaussianBlur stdDeviation="3"/>
<feComposite in2="hardAlpha" operator="out"/>
<feColorMatrix type="matrix" values="0 0 0 0 0 0 0 0 0 0 0 0 0 0 0 0 0 0 0.16 0"/>
<feBlend mode="normal" in2="BackgroundImageFix" result="effect1_dropShadow_336_17066"/>
<feBlend mode="normal" in="SourceGraphic" in2="effect1_dropShadow_336_17066" result="shape"/>
</filter>
<clipPath id="clip0_336_17066">
<rect width="24" height="18" fill="white" transform="translate(6 3)"/>
</clipPath>
</defs>
</svg>
