<svg width="36" height="31" viewBox="0 0 36 31" fill="none" xmlns="http://www.w3.org/2000/svg">
<g filter="url(#filter0_d_336_29410)">
<g clip-path="url(#clip0_336_29410)">
<path d="M6 3H30V21H6V3Z" fill="#0067C6"/>
<path d="M6 9H30V15H6V9Z" fill="white"/>
<path d="M15.3008 11.982L15.6008 12.0008V11.9558L15.4883 11.9483L15.4958 11.8058L15.6195 11.7158L15.6233 11.6595L15.492 11.7533C15.4883 11.7233 15.4695 11.6895 15.4395 11.6783C15.4095 11.6708 15.3795 11.6708 15.3533 11.6895C15.3233 11.712 15.3158 11.7495 15.3158 11.7833L15.3008 11.982V11.982ZM15.3458 11.9408L15.357 11.7908C15.3608 11.7683 15.3645 11.7383 15.387 11.7233C15.3918 11.7201 15.3972 11.718 15.4029 11.7173C15.4086 11.7165 15.4143 11.7171 15.4198 11.7189C15.4252 11.7207 15.4301 11.7237 15.4342 11.7277C15.4383 11.7317 15.4414 11.7366 15.4433 11.742C15.4583 11.7795 15.4508 11.8208 15.447 11.862L15.4433 11.9445L15.3458 11.9408V11.9408ZM15.3383 11.5208L15.6308 11.5883L15.6983 11.3033C15.6845 11.3008 15.6708 11.2983 15.657 11.2958L15.6008 11.5358L15.5108 11.517L15.5633 11.2995L15.522 11.2883L15.4695 11.5058L15.3945 11.487L15.447 11.2545L15.402 11.247L15.3383 11.5208V11.5208ZM15.4433 11.127L15.7283 11.2283L15.7433 11.187L15.6308 11.1495L15.6758 11.0183C15.6833 10.9808 15.6908 10.9433 15.672 10.9058C15.6633 10.8941 15.652 10.8847 15.639 10.8782C15.6259 10.8717 15.6116 10.8683 15.597 10.8683C15.5595 10.8683 15.537 10.8945 15.522 10.9245C15.4995 10.962 15.4845 11.007 15.4733 11.052L15.4433 11.127V11.127ZM15.4995 11.1008L15.5445 10.9733C15.5558 10.9508 15.567 10.9245 15.5933 10.917C15.5985 10.916 15.6039 10.916 15.6091 10.9171C15.6143 10.9183 15.6191 10.9206 15.6234 10.9237C15.6277 10.9269 15.6312 10.931 15.6337 10.9357C15.6363 10.9403 15.6379 10.9455 15.6383 10.9508C15.6458 10.9883 15.627 11.0258 15.6158 11.0633L15.5895 11.1345L15.4995 11.1008V11.1008ZM15.6008 10.7633L15.762 10.8608C15.792 10.8758 15.8295 10.8833 15.8633 10.8683C15.9039 10.8407 15.9353 10.8015 15.9533 10.7558C15.9683 10.7183 15.9833 10.6733 15.9608 10.6358C15.9383 10.5983 15.897 10.5833 15.8595 10.5608L15.7583 10.5008L15.7358 10.5383L15.8858 10.6283C15.912 10.6433 15.9308 10.6658 15.927 10.6995C15.9196 10.7339 15.9041 10.766 15.882 10.7933C15.867 10.8158 15.837 10.8345 15.807 10.8308C15.777 10.8233 15.7508 10.8008 15.7245 10.7858L15.6233 10.7295L15.6008 10.767V10.7633ZM15.8183 10.4145L16.0545 10.5945L16.167 10.452C16.1895 10.4183 16.2045 10.377 16.1933 10.3395C16.1863 10.3251 16.1758 10.3127 16.1626 10.3035C16.1495 10.2943 16.1342 10.2886 16.1183 10.287C16.0995 10.287 16.0808 10.2983 16.0733 10.302C16.0808 10.2683 16.0545 10.2383 16.0283 10.2308C15.9908 10.2195 15.9533 10.242 15.9308 10.2683L15.8558 10.362L15.8183 10.4145ZM15.8783 10.4033C15.9045 10.3658 15.9308 10.3283 15.9608 10.2983C15.9758 10.2833 15.9983 10.2608 16.017 10.2758C16.0358 10.2833 16.0433 10.3095 16.032 10.3245C16.017 10.3583 15.9945 10.3808 15.972 10.4108L15.942 10.452L15.8783 10.4033V10.4033ZM15.9758 10.4783L16.062 10.3658C16.077 10.3508 16.0995 10.3283 16.122 10.3358C16.1445 10.3395 16.1595 10.362 16.152 10.3845C16.1408 10.422 16.1108 10.452 16.0845 10.4858L16.047 10.5345L15.972 10.4783H15.9758ZM16.0883 10.0958L16.2945 10.3133L16.4708 10.1445L16.4408 10.1145L16.2983 10.2495H16.2945L16.1183 10.062L16.0883 10.0958ZM16.3508 9.86328L16.5345 10.0995L16.572 10.0733L16.3845 9.83703L16.3508 9.86328ZM16.6208 9.67953C16.5915 9.69673 16.566 9.71969 16.5458 9.74703C16.5287 9.76959 16.5192 9.79692 16.5185 9.82518C16.5179 9.85343 16.5261 9.88119 16.542 9.90453C16.5566 9.92838 16.5773 9.94783 16.602 9.96078C16.6251 9.97291 16.6511 9.97812 16.677 9.97578C16.7132 9.97101 16.7478 9.95819 16.7783 9.93828C16.8095 9.92039 16.8354 9.8945 16.8533 9.86328C16.8683 9.83328 16.872 9.80328 16.8645 9.77328L16.827 9.78828C16.8345 9.84828 16.797 9.87828 16.752 9.90078C16.6845 9.94578 16.6208 9.94203 16.5795 9.88203C16.5383 9.81078 16.5795 9.75453 16.6395 9.71703C16.6808 9.69078 16.722 9.67203 16.7595 9.69828L16.7933 9.66828C16.7715 9.65261 16.7451 9.64468 16.7183 9.64578C16.6845 9.64578 16.6545 9.66078 16.6208 9.68328V9.67953ZM16.977 9.50328L16.9433 9.84078L16.992 9.82203L16.9995 9.71703L17.1495 9.65703L17.232 9.72453L17.277 9.70578L17.022 9.48453L16.977 9.50328ZM17.0145 9.54078L17.1158 9.62328L17.0033 9.66828L17.0145 9.53703V9.54078ZM17.6333 9.31578L17.652 9.61578L17.8133 9.60828C17.8583 9.60078 17.9033 9.59328 17.9295 9.55578C17.967 9.51828 17.9745 9.45453 17.9558 9.40203C17.9487 9.37924 17.9355 9.35882 17.9177 9.34296C17.8998 9.3271 17.878 9.31641 17.8545 9.31203C17.8095 9.30453 17.7645 9.31203 17.7195 9.31203L17.6333 9.31953V9.31578ZM17.6783 9.35703L17.8095 9.35328C17.8335 9.35219 17.8571 9.35876 17.877 9.37203C17.907 9.39453 17.9258 9.42828 17.922 9.46578C17.9204 9.48671 17.9123 9.50661 17.8989 9.52273C17.8854 9.53885 17.8673 9.5504 17.847 9.55578C17.8245 9.56328 17.7983 9.56328 17.7758 9.56703L17.6933 9.57078L17.6783 9.35703V9.35703ZM18.0533 9.30078L18.0345 9.60078L18.327 9.61578V9.57453L18.0795 9.55953L18.0833 9.46953L18.3083 9.48078V9.43953L18.087 9.42828L18.0908 9.34578L18.3308 9.36078V9.31578L18.0495 9.30078H18.0533ZM18.8333 9.42453L18.7245 9.70578L18.762 9.72078L18.852 9.49578V9.48828L18.8595 9.49953L18.9645 9.79953L19.0133 9.81828L19.122 9.53703L19.0845 9.52203L18.9983 9.74703L18.9945 9.75453L18.987 9.74328L18.8858 9.44328L18.8333 9.42453ZM19.2383 9.60078L19.0995 9.86328L19.062 9.84453L19.197 9.57828L19.2383 9.60078ZM19.4633 9.73203C19.436 9.71377 19.4054 9.70103 19.3733 9.69453C19.3455 9.68666 19.316 9.68788 19.289 9.698C19.262 9.70812 19.239 9.72662 19.2233 9.75078C19.2088 9.77451 19.201 9.80173 19.2008 9.82953C19.2008 9.85578 19.2045 9.88203 19.2233 9.90828C19.2383 9.93453 19.2608 9.95703 19.2983 9.98328C19.3285 10.0038 19.3632 10.0167 19.3995 10.0208C19.4292 10.0216 19.4583 10.0124 19.482 9.99453L19.452 9.96078C19.3995 9.99828 19.3583 9.97203 19.317 9.94578C19.2495 9.90078 19.2233 9.84078 19.2645 9.77703C19.3095 9.70953 19.3808 9.72828 19.4408 9.76578C19.4783 9.79203 19.5158 9.82203 19.5083 9.86703L19.5458 9.88203C19.5502 9.85647 19.5463 9.83016 19.5345 9.80703C19.5195 9.77703 19.497 9.75453 19.4633 9.73203V9.73203ZM19.7483 9.94578L19.437 10.0733L19.4745 10.107L19.572 10.0695L19.6958 10.1745L19.6695 10.2758L19.707 10.3095L19.7858 9.97953L19.7483 9.94578V9.94578ZM19.737 9.99828L19.707 10.1258L19.6133 10.0508L19.737 9.99828ZM19.977 10.1558L19.7445 10.3433L19.7708 10.3808L19.8645 10.3058L19.9545 10.4183L19.9283 10.5683L19.962 10.6095L19.992 10.452C20.0183 10.4708 20.0558 10.482 20.0858 10.467C20.112 10.452 20.1383 10.4295 20.1383 10.3995C20.1383 10.3583 20.112 10.3245 20.0895 10.2945L19.977 10.1558V10.1558ZM19.9695 10.2158L20.067 10.3358C20.082 10.3583 20.1008 10.3883 20.082 10.4108C20.0708 10.4333 20.0408 10.4333 20.022 10.4183C19.9845 10.392 19.962 10.3545 19.932 10.3208L19.8945 10.2795L19.9695 10.2158ZM20.3258 10.632L19.9883 10.647L20.0145 10.692L20.1195 10.6883L20.202 10.8308L20.142 10.917L20.1683 10.962L20.352 10.677L20.3258 10.632V10.632ZM20.2995 10.677L20.2245 10.7895L20.1683 10.6845L20.2995 10.677ZM20.5208 11.0295C20.502 10.9808 20.472 10.9283 20.4195 10.902C20.3912 10.8889 20.3593 10.8855 20.3288 10.8923C20.2983 10.899 20.2709 10.9157 20.2508 10.9395C20.2133 10.977 20.2133 11.0333 20.2245 11.0858C20.2358 11.142 20.262 11.1983 20.2995 11.2395L20.277 11.247L20.292 11.2883L20.4345 11.2395L20.3783 11.0858L20.3483 11.097L20.3858 11.2095L20.3408 11.2283C20.3001 11.1903 20.2725 11.1404 20.262 11.0858C20.2508 11.0445 20.2508 10.9958 20.2808 10.9658C20.3183 10.9283 20.3783 10.917 20.4195 10.947C20.4608 10.977 20.4833 11.0258 20.4945 11.0745C20.5058 11.1083 20.502 11.1458 20.4795 11.172C20.472 11.172 20.4795 11.1833 20.4833 11.187L20.4945 11.2058C20.5072 11.1961 20.5176 11.1836 20.5247 11.1693C20.5318 11.155 20.5356 11.1393 20.5358 11.1233C20.5365 11.0914 20.5314 11.0596 20.5208 11.0295V11.0295ZM20.607 11.2658L20.4383 11.2958C20.4124 11.2995 20.3878 11.3099 20.367 11.3258C20.3508 11.3405 20.3402 11.3604 20.337 11.382V11.472C20.3483 11.5095 20.3595 11.5358 20.3745 11.5583C20.3858 11.5808 20.4008 11.5958 20.4195 11.5958C20.4441 11.6021 20.4699 11.6021 20.4945 11.5958L20.6633 11.5658L20.6558 11.5245L20.4908 11.5545C20.4158 11.5695 20.3933 11.532 20.3783 11.4645C20.367 11.397 20.3783 11.352 20.4495 11.3408L20.6145 11.307L20.607 11.2658V11.2658ZM20.697 11.7758L20.3858 11.6408L20.3895 11.6933L20.487 11.7308L20.4983 11.8958L20.4083 11.952L20.412 12.0008L20.7008 11.8245L20.697 11.7758V11.7758ZM20.652 11.802L20.5395 11.8733L20.532 11.7533L20.652 11.802V11.802ZM15.5333 12.552L15.4883 12.5633L15.537 12.747L15.582 12.7358L15.5333 12.552ZM20.4683 12.552L20.5133 12.5633L20.4645 12.747L20.4195 12.7358L20.4683 12.552ZM15.9983 13.3208L15.6608 13.3583L15.6908 13.3995L15.7958 13.3883L15.8858 13.5233L15.8333 13.617L15.8633 13.6545L16.0245 13.362L15.9983 13.3208V13.3208ZM15.972 13.3695L15.9083 13.482L15.8408 13.3845L15.972 13.3695ZM16.1258 13.5045L15.912 13.7033L15.942 13.7333L16.122 13.5645L16.0245 13.827L16.062 13.8608L16.317 13.7858L16.1408 13.947L16.1708 13.977L16.3845 13.7783L16.3395 13.7333L16.077 13.8083L16.1745 13.557L16.1258 13.5045ZM16.437 13.8195L16.257 14.0633L16.4895 14.2358L16.5158 14.202L16.317 14.052L16.3733 13.977L16.5495 14.1158L16.5758 14.0783L16.3995 13.947L16.4483 13.8833L16.6358 14.0258L16.662 13.9883L16.437 13.8195V13.8195ZM16.7295 14.037L16.5908 14.2995L16.6283 14.322L16.6845 14.217L16.812 14.2845L16.842 14.4345L16.8908 14.4608L16.857 14.3033C16.8908 14.3145 16.932 14.307 16.9508 14.2808C16.9695 14.2583 16.9845 14.232 16.9733 14.202C16.9658 14.1645 16.9245 14.142 16.8945 14.1233L16.7295 14.037V14.037ZM16.7483 14.0933L16.8833 14.1683C16.9058 14.1833 16.932 14.202 16.9283 14.2283C16.9283 14.2545 16.902 14.2658 16.8795 14.262C16.8345 14.2545 16.797 14.2283 16.7595 14.2095L16.7033 14.1795L16.7483 14.0933ZM17.0708 14.2133L16.9583 14.4908L16.9958 14.5095L17.1083 14.232L17.0708 14.2133ZM17.3408 14.307C17.3096 14.2956 17.2765 14.2905 17.2433 14.292C17.2144 14.2925 17.1864 14.3022 17.1635 14.3198C17.1405 14.3373 17.1238 14.3618 17.1158 14.3895C17.1089 14.4153 17.1089 14.4425 17.1158 14.4683C17.1158 14.4983 17.1308 14.5208 17.1533 14.5433C17.1791 14.5662 17.2099 14.5829 17.2433 14.592C17.2782 14.6044 17.3158 14.607 17.352 14.5995C17.3816 14.5938 17.4081 14.5779 17.427 14.5545L17.3895 14.532C17.352 14.5808 17.3033 14.5695 17.2545 14.5508C17.1795 14.5245 17.1383 14.4758 17.1608 14.4008C17.187 14.3258 17.262 14.3258 17.3258 14.3445C17.3708 14.3595 17.412 14.382 17.4158 14.4233L17.4608 14.4308C17.4587 14.4026 17.4468 14.376 17.427 14.3558C17.4028 14.3326 17.3731 14.3159 17.3408 14.307V14.307ZM17.6408 14.3745L17.4458 14.6483L17.4945 14.6558L17.5545 14.5695L17.7195 14.5958L17.7533 14.6933L17.802 14.7008L17.6895 14.382L17.6408 14.3745ZM17.6595 14.4233L17.7045 14.5508L17.5845 14.532L17.6595 14.4233ZM18.3458 14.3783C18.3083 14.382 18.282 14.3933 18.2558 14.412C18.231 14.4265 18.2115 14.4484 18.2 14.4747C18.1885 14.501 18.1857 14.5303 18.192 14.5583C18.1958 14.5845 18.207 14.607 18.2295 14.6333C18.2445 14.652 18.267 14.6633 18.297 14.6708C18.3233 14.6783 18.3608 14.6783 18.402 14.6708C18.4395 14.6633 18.477 14.6483 18.4995 14.6258C18.5215 14.6063 18.5361 14.5798 18.5408 14.5508H18.4958C18.4845 14.6108 18.4395 14.6258 18.3908 14.6333C18.312 14.6483 18.252 14.622 18.237 14.547C18.222 14.4683 18.2858 14.4308 18.3495 14.4158C18.3983 14.4083 18.4433 14.4045 18.4695 14.442L18.507 14.427C18.493 14.4046 18.4719 14.3875 18.447 14.3783C18.4138 14.3697 18.379 14.3697 18.3458 14.3783V14.3783ZM18.5445 14.3408L18.6308 14.6295L18.912 14.547L18.897 14.5058L18.6608 14.577L18.6345 14.487L18.8483 14.4233L18.837 14.3858L18.6233 14.4458L18.6008 14.3708L18.8258 14.3033L18.8145 14.262L18.5445 14.3408ZM18.8708 14.2395L18.9945 14.5133L19.032 14.4945L18.927 14.2695L19.2195 14.4008H19.2383L19.2758 14.382L19.1483 14.1083L19.1108 14.127L19.2158 14.352L18.9158 14.217L18.8708 14.2395V14.2395ZM19.2008 14.0858L19.2233 14.1233L19.3283 14.0483H19.3358L19.4745 14.262L19.512 14.2358L19.3733 14.0258V14.022L19.482 13.947L19.4595 13.9133L19.2008 14.0858ZM19.5008 13.8758L19.7033 14.1008L19.737 14.067L19.6583 13.9808L19.7633 13.8833L19.9133 13.9058L19.9583 13.8683L19.797 13.8458C19.8158 13.8195 19.8233 13.7783 19.8045 13.7483C19.7895 13.722 19.767 13.6995 19.7333 13.7033C19.6958 13.7033 19.6583 13.7333 19.632 13.7558L19.5008 13.8795V13.8758ZM19.5608 13.8795L19.6733 13.7745C19.6958 13.7595 19.7258 13.7408 19.7483 13.7558C19.7745 13.767 19.7745 13.797 19.7595 13.8158C19.737 13.8533 19.7033 13.8795 19.6695 13.9133L19.6283 13.9508L19.5608 13.8758V13.8795ZM19.8495 13.527L19.9845 13.8383L20.0145 13.8008L19.977 13.7033L20.0783 13.5758L20.1795 13.5983L20.2133 13.5608L19.8833 13.4858L19.8495 13.527V13.527ZM19.902 13.5383L20.0333 13.5645L19.9583 13.6583L19.902 13.5383ZM19.9808 13.3583L20.232 13.5195L20.3633 13.317L20.3258 13.2945L20.2245 13.4558L20.2208 13.4633H20.217L20.0033 13.3208L19.9808 13.3583Z" fill="#C8A400"/>
<path d="M18.0007 9.79297L17.0557 11.428L16.5938 12.229H19.4078L18.9668 11.467L18.0007 9.79297V9.79297Z" fill="white"/>
<path opacity="0.6" d="M18.0017 9.79297L17.9297 9.91297L18.0017 11.563L18.0737 9.91297L18.0017 9.79297Z" fill="#17C0EB" stroke="#17C0EB" stroke-width="0.00666667"/>
<path d="M18.003 11.3262H18L18.003 11.4162L18.006 11.3262H18.003Z" fill="white"/>
<path opacity="0.6" d="M19.6863 11.0177L19.5499 10.9863L18.0029 11.5647L19.5944 11.1233L19.6863 11.0177Z" fill="#17C0EB" stroke="#17C0EB" stroke-width="0.00666667"/>
<path d="M18.2275 11.4911L18.2266 11.4883L18.1419 11.5189L18.2284 11.494L18.2275 11.4911Z" fill="white"/>
<path opacity="0.6" d="M19.0433 13.0013L19.031 12.8619L18.0029 11.5693L18.9145 12.9465L19.0433 13.0013Z" fill="#17C0EB" stroke="#17C0EB" stroke-width="0.00666667"/>
<path d="M18.1421 11.7615L18.1445 11.7598L18.0892 11.6887L18.1397 11.7633L18.1421 11.7615Z" fill="white"/>
<path opacity="0.6" d="M16.9574 13.0006L17.0862 12.9459L17.9978 11.5687L16.9697 12.8612L16.9574 13.0006Z" fill="#17C0EB" stroke="#17C0EB" stroke-width="0.00666667"/>
<path d="M17.8569 11.76L17.8594 11.7617L17.9098 11.6871L17.8545 11.7582L17.8569 11.76Z" fill="white"/>
<path opacity="0.6" d="M16.3152 11.0175L16.4071 11.123L17.9986 11.5644L16.4516 10.9861L16.3152 11.0175Z" fill="#17C0EB" stroke="#17C0EB" stroke-width="0.00666667"/>
<path d="M17.7744 11.4913L17.7734 11.4941L17.86 11.5191L17.7753 11.4884L17.7744 11.4913Z" fill="white"/>
<path opacity="0.6" d="M18.2471 9.8108L18.1591 9.91961L18.0007 11.5636L18.3017 9.93965L18.2471 9.8108Z" fill="#17C0EB" stroke="#17C0EB" stroke-width="0.00666667"/>
<path d="M18.0342 11.3285L18.0312 11.3281L18.0217 11.4177L18.0372 11.329L18.0342 11.3285Z" fill="white"/>
<path opacity="0.6" d="M19.7469 11.2584L19.6162 11.2083L18.0038 11.5658L19.6412 11.3501L19.7469 11.2584Z" fill="#17C0EB" stroke="#17C0EB" stroke-width="0.00666667"/>
<path d="M18.2388 11.5244L18.2383 11.5215L18.1502 11.5401L18.2393 11.5274L18.2388 11.5244Z" fill="white"/>
<path opacity="0.6" d="M18.831 13.1315L18.8382 12.9917L18 11.5686L18.7111 13.0593L18.831 13.1315Z" fill="#17C0EB" stroke="#17C0EB" stroke-width="0.00666667"/>
<path d="M18.1106 11.7788L18.1133 11.7773L18.0684 11.6993L18.108 11.7802L18.1106 11.7788Z" fill="white"/>
<path opacity="0.6" d="M16.7685 12.8406L16.9037 12.8043L17.9981 11.5674L16.8001 12.7043L16.7685 12.8406Z" fill="#17C0EB" stroke="#17C0EB" stroke-width="0.00666667"/>
<path d="M17.8338 11.7382L17.8359 11.7402L17.8963 11.6734L17.8316 11.7361L17.8338 11.7382Z" fill="white"/>
<path opacity="0.6" d="M16.4066 10.7888L16.4829 10.9061L17.9974 11.5647L16.546 10.7767L16.4066 10.7888Z" fill="#17C0EB" stroke="#17C0EB" stroke-width="0.00666667"/>
<path d="M17.7826 11.4602L17.7812 11.4629L17.8635 11.4996L17.7839 11.4575L17.7826 11.4602Z" fill="white"/>
<path opacity="0.6" d="M18.4911 9.86164L18.3888 9.95715L18.0032 11.5631L18.5272 9.99684L18.4911 9.86164Z" fill="#17C0EB" stroke="#17C0EB" stroke-width="0.00666667"/>
<path d="M18.0693 11.3348L18.0664 11.334L18.0445 11.4213L18.0722 11.3356L18.0693 11.3348Z" fill="white"/>
<path opacity="0.6" d="M19.772 11.5036L19.6496 11.4358L18.0031 11.5654L19.6546 11.5797L19.772 11.5036Z" fill="#17C0EB" stroke="#17C0EB" stroke-width="0.00666667"/>
<path d="M18.2384 11.5577L18.2383 11.5547L18.1484 11.5608L18.2385 11.5607L18.2384 11.5577Z" fill="white"/>
<path opacity="0.6" d="M18.6081 13.2317L18.6347 13.0943L18.0027 11.5684L18.4994 13.1435L18.6081 13.2317Z" fill="#17C0EB" stroke="#17C0EB" stroke-width="0.00666667"/>
<path d="M18.0831 11.792L18.0859 11.791L18.0523 11.7075L18.0803 11.7931L18.0831 11.792Z" fill="white"/>
<path opacity="0.6" d="M16.6041 12.6581L16.743 12.641L17.9989 11.5684L16.6543 12.5275L16.6041 12.6581Z" fill="#17C0EB" stroke="#17C0EB" stroke-width="0.00666667"/>
<path d="M17.8107 11.7144L17.8125 11.7168L17.8816 11.659L17.8088 11.7121L17.8107 11.7144Z" fill="white"/>
<path opacity="0.6" d="M16.5324 10.5751L16.5917 10.7019L17.9998 11.5648L16.6722 10.5825L16.5324 10.5751Z" fill="#17C0EB" stroke="#17C0EB" stroke-width="0.00666667"/>
<path d="M17.8025 11.4331L17.8008 11.4355L17.8771 11.4834L17.8041 11.4306L17.8025 11.4331Z" fill="white"/>
<path opacity="0.6" d="M18.722 9.94725L18.6074 10.0276L18.0021 11.5642L18.739 10.0862L18.722 9.94725Z" fill="#17C0EB" stroke="#17C0EB" stroke-width="0.00666667"/>
<path d="M18.1004 11.3469L18.0977 11.3457L18.0638 11.4291L18.1031 11.3481L18.1004 11.3469Z" fill="white"/>
<path opacity="0.6" d="M19.762 11.7513L19.6502 11.6671L18.0017 11.5663L19.6351 11.8104L19.762 11.7513Z" fill="#17C0EB" stroke="#17C0EB" stroke-width="0.00666667"/>
<path d="M18.238 11.5909L18.2383 11.5879L18.1485 11.5815L18.2377 11.5939L18.238 11.5909Z" fill="white"/>
<path opacity="0.6" d="M18.3671 13.3001L18.4126 13.1678L17.9991 11.5688L18.2717 13.1977L18.3671 13.3001Z" fill="#17C0EB" stroke="#17C0EB" stroke-width="0.00666667"/>
<path d="M18.0478 11.8014L18.0508 11.8008L18.0291 11.7134L18.0449 11.802L18.0478 11.8014Z" fill="white"/>
<path opacity="0.6" d="M16.464 12.4533L16.6039 12.4556L17.9969 11.5683L16.5319 12.3309L16.464 12.4533Z" fill="#17C0EB" stroke="#17C0EB" stroke-width="0.00666667"/>
<path d="M17.7915 11.6869L17.793 11.6895L17.8694 11.6419L17.79 11.6843L17.7915 11.6869Z" fill="white"/>
<path opacity="0.6" d="M16.681 10.3801L16.722 10.5139L17.9964 11.5644L16.8183 10.4069L16.681 10.3801Z" fill="#17C0EB" stroke="#17C0EB" stroke-width="0.00666667"/>
<path d="M17.8184 11.406L17.8164 11.4082L17.8853 11.4662L17.8204 11.4037L17.8184 11.406Z" fill="white"/>
<path opacity="0.6" d="M18.94 10.0616L18.8153 10.1252L18.002 11.5626L18.9374 10.2015L18.94 10.0616Z" fill="#17C0EB" stroke="#17C0EB" stroke-width="0.00666667"/>
<path d="M18.1275 11.361L18.125 11.3594L18.0799 11.4373L18.1301 11.3626L18.1275 11.361Z" fill="white"/>
<path opacity="0.6" d="M19.7209 11.9937L19.6218 11.8948L18.0034 11.5655L19.587 12.0345L19.7209 11.9937Z" fill="#17C0EB" stroke="#17C0EB" stroke-width="0.00666667"/>
<path d="M18.2336 11.6221L18.2344 11.6191L18.1463 11.6003L18.2329 11.625L18.2336 11.6221Z" fill="white"/>
<path opacity="0.6" d="M18.1235 13.3331L18.1869 13.2084L18 11.5675L18.0433 13.2185L18.1235 13.3331Z" fill="#17C0EB" stroke="#17C0EB" stroke-width="0.00666667"/>
<path d="M18.0165 11.8029L18.0195 11.8027L18.0103 11.7132L18.0135 11.8032L18.0165 11.8029Z" fill="white"/>
<path opacity="0.6" d="M16.3558 12.2301L16.4941 12.2519L17.997 11.5671L16.4401 12.1184L16.3558 12.2301Z" fill="#17C0EB" stroke="#17C0EB" stroke-width="0.00666667"/>
<path d="M17.7762 11.6554L17.7773 11.6582L17.8597 11.6217L17.7751 11.6526L17.7762 11.6554Z" fill="white"/>
<path opacity="0.6" d="M16.8637 10.2076L16.8857 10.3458L18.0015 11.5635L16.996 10.2533L16.8637 10.2076Z" fill="#17C0EB" stroke="#17C0EB" stroke-width="0.00666667"/>
<path d="M17.85 11.3828L17.8477 11.3848L17.9078 11.4518L17.8523 11.3809L17.85 11.3828Z" fill="white"/>
<path opacity="0.6" d="M19.1411 10.2084L19.0088 10.254L18.0034 11.5643L19.1191 10.3466L19.1411 10.2084Z" fill="#17C0EB" stroke="#17C0EB" stroke-width="0.00666667"/>
<path d="M18.1546 11.3828L18.1523 11.3809L18.0968 11.4517L18.1569 11.3847L18.1546 11.3828Z" fill="white"/>
<path opacity="0.6" d="M19.6449 12.2308L19.5606 12.1191L18.0038 11.5678L19.5067 12.2526L19.6449 12.2308Z" fill="#17C0EB" stroke="#17C0EB" stroke-width="0.00666667"/>
<path d="M18.2254 11.6571L18.2266 11.6543L18.142 11.6234L18.2243 11.6599L18.2254 11.6571Z" fill="white"/>
<path opacity="0.6" d="M17.8774 13.3348L17.9576 13.2201L18.0009 11.5691L17.8139 13.2101L17.8774 13.3348Z" fill="#17C0EB" stroke="#17C0EB" stroke-width="0.00666667"/>
<path d="M17.9853 11.8064L17.9883 11.8066L17.9916 11.7167L17.9823 11.8062L17.9853 11.8064Z" fill="white"/>
<path opacity="0.6" d="M16.2795 11.9946L16.4133 12.0354L17.9969 11.5664L16.3785 11.8957L16.2795 11.9946Z" fill="#17C0EB" stroke="#17C0EB" stroke-width="0.00666667"/>
<path d="M17.7688 11.624L17.7695 11.627L17.8561 11.6023L17.7681 11.6211L17.7688 11.624Z" fill="white"/>
<path opacity="0.6" d="M17.0611 10.0615L17.0636 10.2014L17.999 11.5625L17.1857 10.1251L17.0611 10.0615Z" fill="#17C0EB" stroke="#17C0EB" stroke-width="0.00666667"/>
<path d="M17.8736 11.3617L17.8711 11.3633L17.9213 11.438L17.8762 11.3601L17.8736 11.3617Z" fill="white"/>
<path opacity="0.6" d="M19.3177 10.3797L19.1804 10.4065L18.0023 11.564L19.2767 10.5135L19.3177 10.3797Z" fill="#17C0EB" stroke="#17C0EB" stroke-width="0.00666667"/>
<path d="M18.1778 11.4046L18.1758 11.4023L18.1109 11.4648L18.1798 11.4068L18.1778 11.4046Z" fill="white"/>
<path opacity="0.6" d="M19.5382 12.451L19.4703 12.3287L18.0054 11.566L19.3983 12.4534L19.5382 12.451Z" fill="#17C0EB" stroke="#17C0EB" stroke-width="0.00666667"/>
<path d="M18.2094 11.6842L18.2109 11.6816L18.1315 11.6392L18.2079 11.6868L18.2094 11.6842Z" fill="white"/>
<path opacity="0.6" d="M17.6327 13.2995L17.7281 13.1971L18.0007 11.5682L17.5872 13.1671L17.6327 13.2995Z" fill="#17C0EB" stroke="#17C0EB" stroke-width="0.00666667"/>
<path d="M17.9502 11.8002L17.9531 11.8008L17.9689 11.7121L17.9473 11.7995L17.9502 11.8002Z" fill="white"/>
<path opacity="0.6" d="M16.2386 11.7507L16.3654 11.8097L17.9989 11.5656L16.3504 11.6665L16.2386 11.7507Z" fill="#17C0EB" stroke="#17C0EB" stroke-width="0.00666667"/>
<path d="M17.7614 11.5908L17.7617 11.5938L17.8509 11.5814L17.7611 11.5878L17.7614 11.5908Z" fill="white"/>
<path opacity="0.6" d="M17.2806 9.94532L17.2637 10.0842L18.0005 11.5623L17.3952 10.0257L17.2806 9.94532Z" fill="#17C0EB" stroke="#17C0EB" stroke-width="0.00666667"/>
<path d="M17.9051 11.3464L17.9023 11.3477L17.9417 11.4287L17.9078 11.3452L17.9051 11.3464Z" fill="white"/>
<path opacity="0.6" d="M19.4699 10.5753L19.3302 10.5827L18.0026 11.5651L19.4107 10.7021L19.4699 10.5753Z" fill="#17C0EB" stroke="#17C0EB" stroke-width="0.00666667"/>
<path d="M18.2009 11.4322L18.1992 11.4297L18.1263 11.4825L18.2026 11.4347L18.2009 11.4322Z" fill="white"/>
<path opacity="0.6" d="M19.3971 12.6583L19.3468 12.5277L18.0023 11.5686L19.2582 12.6412L19.3971 12.6583Z" fill="#17C0EB" stroke="#17C0EB" stroke-width="0.00666667"/>
<path d="M18.1896 11.7153L18.1914 11.7129L18.1186 11.6598L18.1877 11.7176L18.1896 11.7153Z" fill="white"/>
<path opacity="0.6" d="M17.3933 13.2312L17.502 13.1431L17.9987 11.568L17.3667 13.0938L17.3933 13.2312Z" fill="#17C0EB" stroke="#17C0EB" stroke-width="0.00666667"/>
<path d="M17.9191 11.79L17.9219 11.791L17.9498 11.7054L17.9162 11.789L17.9191 11.79Z" fill="white"/>
<path opacity="0.6" d="M16.2291 11.5042L16.3465 11.5804L17.998 11.566L16.3515 11.4364L16.2291 11.5042Z" fill="#17C0EB" stroke="#17C0EB" stroke-width="0.00666667"/>
<path d="M17.7618 11.5575L17.7617 11.5605L17.8518 11.5607L17.7619 11.5546L17.7618 11.5575Z" fill="white"/>
<path opacity="0.6" d="M17.5106 9.86101L17.4745 9.99621L17.9985 11.5624L17.6129 9.95652L17.5106 9.86101Z" fill="#17C0EB" stroke="#17C0EB" stroke-width="0.00666667"/>
<path d="M17.9326 11.3351L17.9297 11.3359L17.9574 11.4216L17.9355 11.3343L17.9326 11.3351Z" fill="white"/>
<path opacity="0.6" d="M19.5941 10.7893L19.4546 10.7772L18.0032 11.5652L19.5178 10.9066L19.5941 10.7893Z" fill="#17C0EB" stroke="#17C0EB" stroke-width="0.00666667"/>
<path d="M18.2162 11.4617L18.2148 11.459L18.1353 11.5011L18.2175 11.4644L18.2162 11.4617Z" fill="white"/>
<path opacity="0.6" d="M19.2295 12.843L19.1979 12.7066L17.9999 11.5698L19.0943 12.8067L19.2295 12.843Z" fill="#17C0EB" stroke="#17C0EB" stroke-width="0.00666667"/>
<path d="M18.1658 11.7404L18.168 11.7383L18.1033 11.6756L18.1637 11.7424L18.1658 11.7404Z" fill="white"/>
<path opacity="0.6" d="M17.1669 13.1322L17.2868 13.0601L17.9979 11.5694L17.1597 12.9925L17.1669 13.1322Z" fill="#17C0EB" stroke="#17C0EB" stroke-width="0.00666667"/>
<path d="M17.888 11.7779L17.8906 11.7793L17.9302 11.6984L17.8853 11.7765L17.888 11.7779Z" fill="white"/>
<path opacity="0.6" d="M16.2547 11.2592L16.3604 11.3509L17.9978 11.5665L16.3854 11.2091L16.2547 11.2592Z" fill="#17C0EB" stroke="#17C0EB" stroke-width="0.00666667"/>
<path d="M17.7661 11.5263L17.7656 11.5293L17.8548 11.542L17.7667 11.5234L17.7661 11.5263Z" fill="white"/>
<path opacity="0.6" d="M17.751 9.81029L17.6964 9.93914L17.9973 11.5631L17.839 9.9191L17.751 9.81029Z" fill="#17C0EB" stroke="#17C0EB" stroke-width="0.00666667"/>
<path d="M17.9639 11.3277L17.9609 11.3281L17.9764 11.4168L17.9669 11.3273L17.9639 11.3277Z" fill="white"/>
<path d="M18 10.9746C17.6804 10.9742 17.3715 11.0893 17.13 11.2986L16.692 12.0606C16.6763 12.1427 16.6682 12.226 16.668 12.3096H16.818C16.8332 12.0068 16.9643 11.7215 17.184 11.5126C17.4037 11.3036 17.6953 11.1871 17.9985 11.1871C18.3016 11.1871 18.5932 11.3036 18.8129 11.5126C19.0327 11.7215 19.1637 12.0068 19.179 12.3096H19.329C19.3297 12.2261 19.3227 12.1428 19.308 12.0606L18.87 11.2986C18.6283 11.0895 18.3195 10.9745 18 10.9746Z" fill="#FF0000"/>
<path d="M17.9994 11.002C17.6604 11.0012 17.3344 11.1325 17.0904 11.368L16.7304 11.995C16.7049 12.097 16.6918 12.2018 16.6914 12.307H16.8204C16.8417 12.0088 16.9751 11.7298 17.1939 11.5261C17.4127 11.3224 17.7005 11.2091 17.9994 11.2091C18.2983 11.2091 18.5861 11.3224 18.8049 11.5261C19.0237 11.7298 19.1571 12.0088 19.1784 12.307H19.3074C19.3072 12.2008 19.2941 12.095 19.2684 11.992L18.9084 11.368C18.6645 11.1325 18.3384 11.0012 17.9994 11.002V11.002Z" fill="#FF6600"/>
<path d="M17.9999 11.0254C17.8186 11.0249 17.6393 11.0629 17.4738 11.1369C17.3083 11.2108 17.1604 11.319 17.0399 11.4544L16.7789 11.9044C16.7373 12.0353 16.717 12.1721 16.7189 12.3094H16.8179C16.8331 12.0066 16.9642 11.7212 17.1839 11.5123C17.4036 11.3034 17.6952 11.1869 17.9984 11.1869C18.3015 11.1869 18.5931 11.3034 18.8128 11.5123C19.0326 11.7212 19.1636 12.0066 19.1789 12.3094H19.2839C19.2839 12.1684 19.2599 12.0334 19.2209 11.9074L18.9569 11.4544C18.8368 11.3193 18.6894 11.2112 18.5244 11.1372C18.3594 11.0633 18.1807 11.0251 17.9999 11.0254V11.0254Z" fill="#FFFF00"/>
<path d="M17.9983 11.0499C17.7914 11.0498 17.5876 11.1006 17.405 11.1979C17.2224 11.2953 17.0666 11.436 16.9513 11.6079L16.8673 11.7549C16.7823 11.9275 16.7381 12.1174 16.7383 12.3099H16.8193C16.8406 12.0117 16.974 11.7327 17.1928 11.529C17.4115 11.3253 17.6994 11.212 17.9983 11.212C18.2972 11.212 18.585 11.3253 18.8038 11.529C19.0225 11.7327 19.156 12.0117 19.1773 12.3099H19.2583C19.2584 12.1174 19.2143 11.9275 19.1293 11.7549L19.0453 11.6049C18.93 11.433 18.7742 11.2923 18.5916 11.1949C18.409 11.0976 18.2052 11.0468 17.9983 11.0469V11.0499Z" fill="#00FF00"/>
<path d="M18.0016 11.0703C17.8391 11.0703 17.6781 11.1024 17.5279 11.1647C17.3778 11.227 17.2414 11.3183 17.1266 11.4334C17.0118 11.5485 16.9208 11.6851 16.8589 11.8354C16.7969 11.9857 16.7652 12.1467 16.7656 12.3093H16.8226C16.8439 12.0112 16.9774 11.7321 17.1961 11.5284C17.4149 11.3247 17.7027 11.2115 18.0016 11.2115C18.3005 11.2115 18.5884 11.3247 18.8071 11.5284C19.0259 11.7321 19.1593 12.0112 19.1806 12.3093H19.2376C19.238 12.1467 19.2063 11.9857 19.1444 11.8354C19.0825 11.6851 18.9915 11.5485 18.8767 11.4334C18.7619 11.3183 18.6255 11.227 18.4753 11.1647C18.3252 11.1024 18.1642 11.0703 18.0016 11.0703V11.0703Z" fill="#00CCFF"/>
<path d="M18.0011 11.0957C17.6796 11.0957 17.3713 11.2234 17.144 11.4507C16.9168 11.678 16.7891 11.9863 16.7891 12.3077H16.8311C16.8311 11.9974 16.9543 11.6998 17.1737 11.4804C17.3932 11.261 17.6908 11.1377 18.0011 11.1377C18.3114 11.1377 18.609 11.261 18.8284 11.4804C19.0478 11.6998 19.1711 11.9974 19.1711 12.3077H19.2131C19.2115 11.9873 19.0831 11.6806 18.856 11.4546C18.6288 11.2286 18.3215 11.1017 18.0011 11.1017V11.0957Z" fill="#0000FF"/>
<path d="M18.0007 11.1221C17.8429 11.1221 17.6867 11.1535 17.5412 11.2145C17.3956 11.2755 17.2637 11.3649 17.1531 11.4775C17.0425 11.59 16.9555 11.7235 16.897 11.8701C16.8386 12.0166 16.8099 12.1734 16.8127 12.3311H16.8367V12.3071C16.8399 11.9984 16.9656 11.7036 17.1861 11.4876C17.4066 11.2715 17.704 11.152 18.0127 11.1551C18.3214 11.1583 18.6162 11.284 18.8322 11.5046C19.0483 11.7251 19.1679 12.0224 19.1647 12.3311H19.1887V12.3071C19.1887 12.1511 19.158 11.9966 19.0983 11.8525C19.0386 11.7084 18.951 11.5774 18.8407 11.4671C18.7304 11.3568 18.5994 11.2693 18.4553 11.2096C18.3112 11.1499 18.1567 11.1191 18.0007 11.1191V11.1221Z" fill="#800080"/>
<path d="M18.0139 11.643C17.9929 11.643 17.9779 11.628 17.9599 11.625C17.9511 11.6327 17.9446 11.6426 17.9409 11.6537C17.9372 11.6647 17.9365 11.6766 17.9389 11.688C17.9479 11.691 17.9479 11.7 17.9659 11.715C17.9839 11.73 17.9809 11.736 17.9779 11.775C17.9779 11.787 17.9809 11.82 17.9959 11.823C18.0109 11.826 18.0259 11.814 18.0289 11.787C18.0319 11.766 18.0409 11.751 18.0499 11.739C18.0589 11.682 18.0439 11.661 18.0139 11.643Z" fill="#510000"/>
<path d="M17.9172 11.5056C17.8992 11.5056 17.8692 11.5356 17.8572 11.5206C17.8512 11.5116 17.8482 11.4936 17.8572 11.4786C17.8708 11.4488 17.894 11.4245 17.9232 11.4096C17.9922 11.3676 18.0402 11.3796 18.0732 11.4396C18.1062 11.4936 18.1392 11.5536 18.1422 11.6016C18.1422 11.6166 18.1512 11.6436 18.1362 11.6586C18.0972 11.7006 17.9982 11.6136 17.9412 11.6286C17.9232 11.6316 17.8992 11.6466 17.8812 11.6346C17.8692 11.6256 17.8812 11.6046 17.8902 11.5956C17.9082 11.5806 17.9352 11.5236 17.9322 11.4996C17.9322 11.4876 17.9322 11.5056 17.9172 11.5056V11.5056Z" fill="#FF0000"/>
<path d="M17.9097 11.4782C17.8737 11.4902 17.8797 11.5082 17.8617 11.5232C17.8677 11.5262 17.8857 11.5322 17.9037 11.5142C17.9097 11.5082 17.9187 11.5052 17.9247 11.5052L17.9037 11.5262C17.8859 11.5408 17.8715 11.5593 17.8617 11.5802C17.8527 11.6042 17.8497 11.6312 17.8527 11.6342C17.8527 11.6342 17.8647 11.6582 17.8977 11.6702C17.9577 11.6942 17.9697 11.7452 18.0327 11.7452C18.0807 11.7452 18.0747 11.7122 18.1137 11.7182C18.1437 11.7242 18.1647 11.6972 18.1317 11.6822C18.0782 11.6717 18.0232 11.6717 17.9697 11.6822C17.9577 11.5622 17.9697 11.6042 17.9667 11.5502C17.9637 11.4992 17.9457 11.4962 17.9667 11.4512C17.9517 11.4812 17.9307 11.4752 17.9067 11.4752L17.9097 11.4782Z" fill="url(#paint0_linear_336_29410)"/>
<path d="M18.0303 11.3945L18.0273 11.4125L18.0363 11.4425L18.0423 11.4725C18.0423 11.4815 18.0543 11.4845 18.0633 11.4905C18.0753 11.4995 18.0633 11.5205 18.0723 11.5235C18.0783 11.5235 18.0873 11.4935 18.0873 11.4875V11.4665C18.0826 11.4574 18.0776 11.4484 18.0723 11.4395C18.0705 11.4364 18.0685 11.4334 18.0663 11.4305C18.0597 11.4204 18.0516 11.4113 18.0423 11.4035C18.0394 11.4014 18.0364 11.3994 18.0333 11.3975L18.0273 11.3945H18.0303Z" fill="#FF2A2A"/>
<path d="M18.0391 11.6225L17.9791 11.6015C17.9401 11.5895 17.9011 11.5655 17.8741 11.5775C17.8651 11.5805 17.8651 11.5895 17.8621 11.6045C17.8621 11.6195 17.8471 11.6435 17.8621 11.6345C17.8801 11.6225 17.9341 11.6585 17.9521 11.6675C17.9611 11.6735 17.9821 11.6855 17.9851 11.6975C17.9911 11.7155 17.9851 11.7515 17.9851 11.7695C17.9851 11.7845 17.9911 11.8235 18.0061 11.8295C18.0241 11.8325 18.0391 11.8175 18.0451 11.7905C18.0541 11.7635 18.0571 11.7485 18.0691 11.7335C18.0811 11.7185 18.0931 11.7095 18.1081 11.7065C18.1261 11.7065 18.1501 11.7215 18.1501 11.7005C18.1501 11.6885 18.1381 11.6765 18.1441 11.6585C18.1471 11.6435 18.1321 11.6465 18.1171 11.6405L18.0361 11.6225H18.0391Z" fill="url(#paint1_linear_336_29410)"/>
<path d="M17.9536 11.6677C17.9416 11.6617 17.8846 11.6227 17.8636 11.6377C17.8546 11.6377 17.8516 11.6377 17.8516 11.6287L17.8576 11.6017C17.8576 11.5927 17.8636 11.5777 17.8726 11.5717C17.8936 11.5537 17.9416 11.5867 17.9656 11.5957L17.9536 11.6677V11.6677Z" fill="#910000"/>
<path d="M18.0528 11.7427C18.0798 11.6947 18.0978 11.7007 18.1308 11.7007C18.1428 11.7007 18.1458 11.6917 18.1428 11.6797C18.1338 11.6977 18.0918 11.6797 18.0678 11.6887C18.0228 11.7097 18.0318 11.7997 18.0078 11.8087C18.0318 11.8297 18.0408 11.7577 18.0528 11.7427V11.7427Z" fill="#FF3A3A"/>
<path d="M16.593 12.2305L16.293 12.7495H19.71L19.41 12.2335H16.596L16.593 12.2305Z" fill="white"/>
<path d="M16.4919 12.6446C16.4448 12.6445 16.3977 12.6475 16.3509 12.6536L16.3359 12.6806C16.4079 12.6716 16.4769 12.6596 16.5519 12.6596C16.6479 12.6596 16.7379 12.6836 16.8429 12.6836H16.9809C17.0859 12.6836 17.1729 12.6596 17.2719 12.6596C17.3709 12.6596 17.4609 12.6836 17.5659 12.6836H17.7039C17.8089 12.6836 17.8959 12.6596 17.9949 12.6596C18.0939 12.6596 18.1839 12.6836 18.2889 12.6836H18.4239C18.5289 12.6836 18.6189 12.6596 18.7179 12.6596C18.8169 12.6596 18.9069 12.6836 19.0119 12.6836H19.1469C19.2519 12.6836 19.3419 12.6596 19.4409 12.6596C19.5189 12.6596 19.5909 12.6746 19.6659 12.6806L19.6509 12.6506C19.6071 12.6461 19.563 12.6441 19.5189 12.6446H19.3839C19.2789 12.6446 19.1889 12.6656 19.0899 12.6686C18.9909 12.6686 18.9009 12.6446 18.7959 12.6446H18.6609C18.5559 12.6446 18.4659 12.6656 18.3669 12.6686C18.2679 12.6686 18.1779 12.6446 18.0729 12.6446H17.9409C17.8359 12.6446 17.7459 12.6656 17.6469 12.6686C17.5479 12.6686 17.4579 12.6446 17.3529 12.6446H17.2179C17.1129 12.6446 17.0229 12.6656 16.9239 12.6686C16.8249 12.6686 16.7379 12.6446 16.6329 12.6446H16.4949H16.4919Z" fill="url(#paint2_linear_336_29410)"/>
<path d="M16.4919 12.6114C16.4448 12.6113 16.3977 12.6143 16.3509 12.6204L16.3359 12.6474C16.4079 12.6384 16.4769 12.6264 16.5519 12.6264C16.6479 12.6264 16.7379 12.6504 16.8429 12.6504H16.9809C17.0859 12.6504 17.1729 12.6264 17.2719 12.6264C17.3709 12.6264 17.4609 12.6504 17.5659 12.6504H17.7039C17.8089 12.6504 17.8959 12.6264 17.9949 12.6264C18.0939 12.6264 18.1839 12.6504 18.2889 12.6504H18.4239C18.5289 12.6504 18.6189 12.6264 18.7179 12.6264C18.8169 12.6264 18.9069 12.6504 19.0119 12.6504H19.1469C19.2519 12.6504 19.3419 12.6264 19.4409 12.6264C19.5189 12.6264 19.5909 12.6414 19.6659 12.6474L19.6509 12.6174C19.6071 12.6129 19.563 12.6109 19.5189 12.6114H19.3839C19.2789 12.6114 19.1889 12.6324 19.0899 12.6354C18.9909 12.6354 18.9009 12.6114 18.7959 12.6114H18.6609C18.5559 12.6114 18.4659 12.6324 18.3669 12.6354C18.2679 12.6354 18.1779 12.6114 18.0729 12.6114H17.9409C17.8359 12.6114 17.7459 12.6324 17.6469 12.6354C17.5479 12.6354 17.4579 12.6114 17.3529 12.6114H17.2179C17.1129 12.6114 17.0229 12.6324 16.9239 12.6354C16.8249 12.6354 16.7379 12.6114 16.6329 12.6114H16.4949H16.4919Z" fill="url(#paint3_linear_336_29410)"/>
<path d="M16.4919 12.5782C16.4448 12.5781 16.3977 12.5811 16.3509 12.5872L16.3359 12.6142C16.4079 12.6052 16.4769 12.5932 16.5519 12.5932C16.6479 12.5932 16.7379 12.6172 16.8429 12.6172H16.9809C17.0859 12.6172 17.1729 12.5932 17.2719 12.5932C17.3709 12.5932 17.4609 12.6172 17.5659 12.6172H17.7039C17.8089 12.6172 17.8959 12.5932 17.9949 12.5932C18.0939 12.5932 18.1839 12.6172 18.2889 12.6172H18.4239C18.5289 12.6172 18.6189 12.5932 18.7179 12.5932C18.8169 12.5932 18.9069 12.6172 19.0119 12.6172H19.1469C19.2519 12.6172 19.3419 12.5932 19.4409 12.5932C19.5189 12.5932 19.5909 12.6082 19.6659 12.6142L19.6509 12.5842C19.6071 12.5797 19.563 12.5777 19.5189 12.5782H19.3839C19.2789 12.5782 19.1889 12.5992 19.0899 12.6022C18.9909 12.6022 18.9009 12.5782 18.7959 12.5782H18.6609C18.5559 12.5782 18.4659 12.5992 18.3669 12.6022C18.2679 12.6022 18.1779 12.5782 18.0729 12.5782H17.9409C17.8359 12.5782 17.7459 12.5992 17.6469 12.6022C17.5479 12.6022 17.4579 12.5782 17.3529 12.5782H17.2179C17.1129 12.5782 17.0229 12.5992 16.9239 12.6022C16.8249 12.6022 16.7379 12.5782 16.6329 12.5782H16.4949H16.4919Z" fill="url(#paint4_linear_336_29410)"/>
<path d="M16.4919 12.545C16.4448 12.5449 16.3977 12.5479 16.3509 12.554L16.3359 12.581C16.4079 12.572 16.4769 12.56 16.5519 12.56C16.6479 12.56 16.7379 12.584 16.8429 12.584H16.9809C17.0859 12.584 17.1729 12.56 17.2719 12.56C17.3709 12.56 17.4609 12.584 17.5659 12.584H17.7039C17.8089 12.584 17.8959 12.56 17.9949 12.56C18.0939 12.56 18.1839 12.584 18.2889 12.584H18.4239C18.5289 12.584 18.6189 12.56 18.7179 12.56C18.8169 12.56 18.9069 12.584 19.0119 12.584H19.1469C19.2519 12.584 19.3419 12.56 19.4409 12.56C19.5189 12.56 19.5909 12.575 19.6659 12.581L19.6509 12.551C19.6071 12.5465 19.563 12.5445 19.5189 12.545H19.3839C19.2789 12.545 19.1889 12.566 19.0899 12.569C18.9909 12.569 18.9009 12.545 18.7959 12.545H18.6609C18.5559 12.545 18.4659 12.566 18.3669 12.569C18.2679 12.569 18.1779 12.545 18.0729 12.545H17.9409C17.8359 12.545 17.7459 12.566 17.6469 12.569C17.5479 12.569 17.4579 12.545 17.3529 12.545H17.2179C17.1129 12.545 17.0229 12.566 16.9239 12.569C16.8249 12.569 16.7379 12.545 16.6329 12.545H16.4949H16.4919Z" fill="url(#paint5_linear_336_29410)"/>
<path d="M16.4919 12.5118C16.4448 12.5117 16.3977 12.5147 16.3509 12.5208L16.3359 12.5478C16.4079 12.5388 16.4769 12.5268 16.5519 12.5268C16.6479 12.5268 16.7379 12.5508 16.8429 12.5508H16.9809C17.0859 12.5508 17.1729 12.5268 17.2719 12.5268C17.3709 12.5268 17.4609 12.5508 17.5659 12.5508H17.7039C17.8089 12.5508 17.8959 12.5268 17.9949 12.5268C18.0939 12.5268 18.1839 12.5508 18.2889 12.5508H18.4239C18.5289 12.5508 18.6189 12.5268 18.7179 12.5268C18.8169 12.5268 18.9069 12.5508 19.0119 12.5508H19.1469C19.2519 12.5508 19.3419 12.5268 19.4409 12.5268C19.5189 12.5268 19.5909 12.5418 19.6659 12.5478L19.6509 12.5178C19.6071 12.5133 19.563 12.5113 19.5189 12.5118H19.3839C19.2789 12.5118 19.1889 12.5328 19.0899 12.5358C18.9909 12.5358 18.9009 12.5118 18.7959 12.5118H18.6609C18.5559 12.5118 18.4659 12.5328 18.3669 12.5358C18.2679 12.5358 18.1779 12.5118 18.0729 12.5118H17.9409C17.8359 12.5118 17.7459 12.5328 17.6469 12.5358C17.5479 12.5358 17.4579 12.5118 17.3529 12.5118H17.2179C17.1129 12.5118 17.0229 12.5328 16.9239 12.5358C16.8249 12.5358 16.7379 12.5118 16.6329 12.5118H16.4949H16.4919Z" fill="url(#paint6_linear_336_29410)"/>
<path d="M16.4919 12.4786C16.4448 12.4785 16.3977 12.4815 16.3509 12.4876L16.3359 12.5146C16.4079 12.5056 16.4769 12.4936 16.5519 12.4936C16.6479 12.4936 16.7379 12.5176 16.8429 12.5176H16.9809C17.0859 12.5176 17.1729 12.4936 17.2719 12.4936C17.3709 12.4936 17.4609 12.5176 17.5659 12.5176H17.7039C17.8089 12.5176 17.8959 12.4936 17.9949 12.4936C18.0939 12.4936 18.1839 12.5176 18.2889 12.5176H18.4239C18.5289 12.5176 18.6189 12.4936 18.7179 12.4936C18.8169 12.4936 18.9069 12.5176 19.0119 12.5176H19.1469C19.2519 12.5176 19.3419 12.4936 19.4409 12.4936C19.5189 12.4936 19.5909 12.5086 19.6659 12.5146L19.6509 12.4846C19.6071 12.4801 19.563 12.4781 19.5189 12.4786H19.3839C19.2789 12.4786 19.1889 12.4996 19.0899 12.5026C18.9909 12.5026 18.9009 12.4786 18.7959 12.4786H18.6609C18.5559 12.4786 18.4659 12.4996 18.3669 12.5026C18.2679 12.5026 18.1779 12.4786 18.0729 12.4786H17.9409C17.8359 12.4786 17.7459 12.4996 17.6469 12.5026C17.5479 12.5026 17.4579 12.4786 17.3529 12.4786H17.2179C17.1129 12.4786 17.0229 12.4996 16.9239 12.5026C16.8249 12.5026 16.7379 12.4786 16.6329 12.4786H16.4949H16.4919Z" fill="url(#paint7_linear_336_29410)"/>
<path d="M16.4919 12.4434C16.4448 12.4434 16.3977 12.4464 16.3509 12.4524L16.3359 12.4794C16.4079 12.4704 16.4769 12.4584 16.5519 12.4584C16.6479 12.4584 16.7379 12.4824 16.8429 12.4824H16.9809C17.0859 12.4824 17.1729 12.4584 17.2719 12.4584C17.3709 12.4584 17.4609 12.4824 17.5659 12.4824H17.7039C17.8089 12.4824 17.8959 12.4584 17.9949 12.4584C18.0939 12.4584 18.1839 12.4824 18.2889 12.4824H18.4239C18.5289 12.4824 18.6189 12.4584 18.7179 12.4584C18.8169 12.4584 18.9069 12.4824 19.0119 12.4824H19.1469C19.2519 12.4824 19.3419 12.4584 19.4409 12.4584C19.5189 12.4584 19.5909 12.4734 19.6659 12.4794L19.6509 12.4494C19.6071 12.4449 19.563 12.4429 19.5189 12.4434H19.3839C19.2789 12.4434 19.1889 12.4644 19.0899 12.4674C18.9909 12.4674 18.9009 12.4434 18.7959 12.4434H18.6609C18.5559 12.4434 18.4659 12.4644 18.3669 12.4674C18.2679 12.4674 18.1779 12.4434 18.0729 12.4434H17.9409C17.8359 12.4434 17.7459 12.4644 17.6469 12.4674C17.5479 12.4674 17.4579 12.4434 17.3529 12.4434H17.2179C17.1129 12.4434 17.0229 12.4644 16.9239 12.4674C16.8249 12.4674 16.7379 12.4434 16.6329 12.4434H16.4949H16.4919Z" fill="url(#paint8_linear_336_29410)"/>
<path d="M16.4919 12.4102C16.4448 12.4102 16.3977 12.4132 16.3509 12.4192L16.3359 12.4462C16.4079 12.4372 16.4769 12.4252 16.5519 12.4252C16.6479 12.4252 16.7379 12.4492 16.8429 12.4492H16.9809C17.0859 12.4492 17.1729 12.4252 17.2719 12.4252C17.3709 12.4252 17.4609 12.4492 17.5659 12.4492H17.7039C17.8089 12.4492 17.8959 12.4252 17.9949 12.4252C18.0939 12.4252 18.1839 12.4492 18.2889 12.4492H18.4239C18.5289 12.4492 18.6189 12.4252 18.7179 12.4252C18.8169 12.4252 18.9069 12.4492 19.0119 12.4492H19.1469C19.2519 12.4492 19.3419 12.4252 19.4409 12.4252C19.5189 12.4252 19.5909 12.4402 19.6659 12.4462L19.6509 12.4162C19.6071 12.4117 19.563 12.4097 19.5189 12.4102H19.3839C19.2789 12.4102 19.1889 12.4312 19.0899 12.4342C18.9909 12.4342 18.9009 12.4102 18.7959 12.4102H18.6609C18.5559 12.4102 18.4659 12.4312 18.3669 12.4342C18.2679 12.4342 18.1779 12.4102 18.0729 12.4102H17.9409C17.8359 12.4102 17.7459 12.4312 17.6469 12.4342C17.5479 12.4342 17.4579 12.4102 17.3529 12.4102H17.2179C17.1129 12.4102 17.0229 12.4312 16.9239 12.4342C16.8249 12.4342 16.7379 12.4102 16.6329 12.4102H16.4949H16.4919Z" fill="url(#paint9_linear_336_29410)"/>
<path d="M16.4919 12.377C16.4448 12.377 16.3977 12.38 16.3509 12.386L16.3359 12.413C16.4079 12.404 16.4769 12.392 16.5519 12.392C16.6479 12.392 16.7379 12.416 16.8429 12.416H16.9809C17.0859 12.416 17.1729 12.392 17.2719 12.392C17.3709 12.392 17.4609 12.416 17.5659 12.416H17.7039C17.8089 12.416 17.8959 12.392 17.9949 12.392C18.0939 12.392 18.1839 12.416 18.2889 12.416H18.4239C18.5289 12.416 18.6189 12.392 18.7179 12.392C18.8169 12.392 18.9069 12.416 19.0119 12.416H19.1469C19.2519 12.416 19.3419 12.392 19.4409 12.392C19.5189 12.392 19.5909 12.407 19.6659 12.413L19.6509 12.383C19.6071 12.3785 19.563 12.3765 19.5189 12.377H19.3839C19.2789 12.377 19.1889 12.398 19.0899 12.401C18.9909 12.401 18.9009 12.377 18.7959 12.377H18.6609C18.5559 12.377 18.4659 12.398 18.3669 12.401C18.2679 12.401 18.1779 12.377 18.0729 12.377H17.9409C17.8359 12.377 17.7459 12.398 17.6469 12.401C17.5479 12.401 17.4579 12.377 17.3529 12.377H17.2179C17.1129 12.377 17.0229 12.398 16.9239 12.401C16.8249 12.401 16.7379 12.377 16.6329 12.377H16.4949H16.4919Z" fill="url(#paint10_linear_336_29410)"/>
<path d="M16.5975 12.2266V12.2326H19.4085L19.4055 12.2266H16.5975V12.2266ZM16.5915 12.2356L16.5885 12.2446H19.4115L19.4085 12.2356H16.5885H16.5915ZM16.5855 12.2476L16.5795 12.2566H19.4235L19.4175 12.2476H16.5855V12.2476ZM16.5765 12.2626L16.5675 12.2776H19.4355L19.4265 12.2626H16.5765ZM16.5645 12.2836L16.5555 12.2986H19.4475L19.4385 12.2836H16.5645V12.2836ZM16.5525 12.3046L16.5465 12.3166H19.4565L19.4505 12.3046H16.5525V12.3046ZM16.5405 12.3256L16.5345 12.3376H19.4715L19.4625 12.3256H16.5405ZM16.5285 12.3466L16.5195 12.3646H19.4835L19.4745 12.3466H16.5315H16.5285Z" fill="url(#paint11_linear_336_29410)"/>
<path d="M16.7227 12.3711C16.8247 12.3921 16.8337 12.3711 16.8337 12.3711H16.7227ZM19.1677 12.3711C19.1677 12.3711 19.1767 12.3921 19.2787 12.3711H19.1677Z" fill="url(#paint12_linear_336_29410)"/>
<path d="M18.9176 11.9102C18.8666 11.9102 18.8516 11.9372 18.8516 11.9372C18.7706 12.2552 18.4976 12.5762 18.1736 12.5762H17.9336V12.9002H19.7756L19.5896 12.5702C19.2986 12.5282 19.0616 12.2312 18.9866 11.9372C18.9866 11.9372 18.9686 11.9102 18.9176 11.9102V11.9102Z" fill="url(#paint13_linear_336_29410)"/>
<path d="M18.9164 11.9243C18.8924 11.9243 18.8804 11.9273 18.8714 11.9333L18.8624 11.9423C18.8174 12.1084 18.7307 12.2603 18.6104 12.3833C18.4904 12.5063 18.3404 12.5903 18.1724 12.5903H17.9414V12.8873H19.7684L19.5974 12.5873C19.4564 12.5663 19.3274 12.4913 19.2254 12.3833C19.1051 12.2603 19.0184 12.1084 18.9734 11.9423L18.9644 11.9333C18.9497 11.9256 18.9329 11.9225 18.9164 11.9243V11.9243Z" fill="#97C924"/>
<path d="M18.9164 11.9258H18.9284V12.2498C18.9255 12.3179 18.9049 12.3841 18.8684 12.4418C18.8534 12.4898 18.8384 12.4718 18.7994 12.5288C18.7488 12.5462 18.6965 12.5583 18.6434 12.5648C18.5684 12.5768 18.4034 12.5888 18.3164 12.5678C18.4281 12.5336 18.5292 12.4717 18.6104 12.3878C18.6327 12.3639 18.6538 12.3389 18.6734 12.3128C18.7068 12.2712 18.7369 12.2271 18.7634 12.1808L18.7934 12.1208C18.8078 12.0924 18.8208 12.0634 18.8324 12.0338C18.844 12.0043 18.854 11.9743 18.8624 11.9438L18.8714 11.9348L18.8894 11.9288L18.9194 11.9258H18.9164Z" fill="#EDE71F"/>
<path d="M18.9002 11.9668C18.8852 12.1468 18.8312 12.3628 18.6992 12.5008C18.6512 12.5398 18.5883 12.5788 18.5312 12.5698C18.7323 12.4048 18.8553 12.1498 18.8973 11.9668H18.9002Z" fill="#C6CB24"/>
<path d="M18.7338 12.2793C18.7038 12.3603 18.5898 12.4803 18.4698 12.5793H18.3828C18.4578 12.5733 18.6318 12.4293 18.7338 12.2793V12.2793Z" fill="#9ECB34"/>
<path d="M18.4567 11.9102C18.4057 11.9102 18.3907 11.9372 18.3907 11.9372C18.3097 12.2552 18.0367 12.5762 17.7127 12.5762H17.4727V12.9002H19.3147L19.1287 12.5702C18.8377 12.5282 18.6007 12.2312 18.5257 11.9372C18.5257 11.9372 18.5077 11.9102 18.4567 11.9102V11.9102Z" fill="url(#paint14_linear_336_29410)"/>
<path d="M18.4555 11.9243C18.4315 11.9243 18.4195 11.9273 18.4105 11.9333L18.4015 11.9423C18.3565 12.1084 18.2697 12.2603 18.1495 12.3833C18.0295 12.5063 17.8795 12.5903 17.7115 12.5903H17.4805V12.8873H19.3075L19.1365 12.5873C18.9955 12.5663 18.8665 12.4913 18.7645 12.3833C18.6442 12.2603 18.5574 12.1084 18.5125 11.9423L18.5035 11.9333C18.4887 11.9256 18.472 11.9225 18.4555 11.9243V11.9243Z" fill="#97C924"/>
<path d="M18.4555 11.9258H18.4675V12.2498C18.4646 12.3179 18.4439 12.3841 18.4075 12.4418C18.3925 12.4898 18.3775 12.4718 18.3385 12.5288C18.2879 12.5462 18.2356 12.5583 18.1825 12.5648C18.1075 12.5768 17.9425 12.5888 17.8555 12.5678C17.9671 12.5336 18.0683 12.4717 18.1495 12.3878C18.1718 12.3639 18.1928 12.3389 18.2125 12.3128C18.2459 12.2712 18.276 12.2271 18.3025 12.1808L18.3325 12.1208C18.3468 12.0924 18.3598 12.0634 18.3715 12.0338C18.3831 12.0043 18.3931 11.9743 18.4015 11.9438L18.4105 11.9348L18.4285 11.9288L18.4585 11.9258H18.4555Z" fill="#EDE71F"/>
<path d="M18.4393 11.9668C18.4243 12.1468 18.3703 12.3628 18.2383 12.5008C18.1903 12.5398 18.1273 12.5788 18.0703 12.5698C18.2713 12.4048 18.3943 12.1498 18.4363 11.9668H18.4393Z" fill="#C6CB24"/>
<path d="M18.2729 12.2793C18.2429 12.3603 18.1289 12.4803 18.0089 12.5793H17.9219C17.9969 12.5733 18.1709 12.4293 18.2729 12.2793V12.2793Z" fill="#9ECB34"/>
<path d="M18.0647 11.9411C18.1487 12.2561 18.4187 12.5771 18.7427 12.5771H18.9857V12.9011H17.0117V12.5771H17.2517C17.5757 12.5771 17.8487 12.2561 17.9297 11.9381C17.9297 11.9381 17.9477 11.9141 17.9987 11.9141C18.0497 11.9141 18.0647 11.9381 18.0647 11.9381V11.9411Z" fill="url(#paint15_linear_336_29410)"/>
<path d="M17.9984 11.9261C18.0224 11.9261 18.0344 11.9321 18.0434 11.9351L18.0524 11.9441C18.0974 12.1102 18.1842 12.2621 18.3044 12.3851C18.4244 12.5081 18.5744 12.5921 18.7424 12.5921H18.9734V12.8891H17.0234V12.5891H17.2544C17.4194 12.5891 17.5724 12.5081 17.6924 12.3851C17.8116 12.2617 17.8973 12.1099 17.9414 11.9441L17.9504 11.9351C17.9653 11.9278 17.9819 11.9247 17.9984 11.9261V11.9261Z" fill="#97C924"/>
<path d="M17.9774 11.9259C17.9744 11.9257 17.9714 11.9257 17.9684 11.9259L17.9504 11.9349L17.9414 11.9439C17.9331 11.9744 17.9231 12.0045 17.9114 12.0339C17.9009 12.0644 17.8888 12.0945 17.8754 12.1239C17.866 12.1432 17.856 12.1622 17.8454 12.1809C17.819 12.2272 17.7889 12.2713 17.7554 12.3129C17.7357 12.338 17.7147 12.362 17.6924 12.3849C17.6116 12.4699 17.5104 12.5329 17.3984 12.5679C17.4824 12.5889 17.5184 12.5679 17.5934 12.5559C17.6534 12.5469 17.7194 12.5379 17.7734 12.5199C17.8184 12.4599 17.8034 12.4809 17.8184 12.4329C17.8544 12.3669 17.9084 12.3069 17.9204 12.2319C17.9684 12.1419 17.9774 11.9739 17.9774 11.9259V11.9259Z" fill="#EDE71F"/>
<path d="M17.9784 11.9688C17.9664 12.1487 17.9094 12.3648 17.7774 12.5028C17.7294 12.5418 17.6694 12.5808 17.6094 12.5718C17.8134 12.4068 17.9364 12.1517 17.9784 11.9688Z" fill="#C6CB24"/>
<path d="M17.8128 12.2793C17.7476 12.3972 17.6575 12.4996 17.5488 12.5793H17.4648C17.5398 12.5733 17.7108 12.4293 17.8128 12.2793Z" fill="#9ECB34"/>
<path d="M18.0305 11.9297L18.0455 11.9357L18.0575 11.9447C18.066 11.9752 18.076 12.0052 18.0875 12.0347C18.098 12.0652 18.1101 12.0953 18.1235 12.1247L18.1535 12.1817C18.1799 12.228 18.21 12.2721 18.2435 12.3137C18.2632 12.3388 18.2843 12.3628 18.3065 12.3857C18.3868 12.4741 18.4878 12.5411 18.6005 12.5807C18.3815 12.5807 18.2885 12.5627 18.2105 12.4607C18.1538 12.4006 18.1108 12.329 18.0845 12.2507C18.0695 12.1907 18.0245 12.0557 18.0275 11.9297H18.0305Z" fill="#EDE71F"/>
<path d="M18.043 11.9688C18.055 12.1487 18.109 12.3288 18.241 12.4668C18.289 12.5088 18.349 12.5447 18.409 12.5357C18.2205 12.399 18.0899 12.1968 18.043 11.9688V11.9688Z" fill="#C6CB24"/>
<path d="M17.5416 11.9102C17.4876 11.9102 17.4726 11.9372 17.4726 11.9372C17.3976 12.2312 17.1186 12.6062 16.8276 12.6512L16.6836 12.9002H18.1536V12.5612C17.8896 12.4892 17.6766 12.2102 17.6076 11.9372C17.6076 11.9372 17.5926 11.9132 17.5386 11.9132L17.5416 11.9102Z" fill="url(#paint16_linear_336_29410)"/>
<path d="M17.5404 11.926C17.5164 11.926 17.5014 11.932 17.4924 11.935L17.4834 11.944C17.433 12.1086 17.3504 12.2615 17.2404 12.394C17.1384 12.523 16.9494 12.652 16.8204 12.664L16.6914 12.889H18.1314V12.568C18.0231 12.5323 17.9252 12.4704 17.8464 12.388C17.7257 12.2641 17.6389 12.1112 17.5944 11.944L17.5854 11.935C17.5715 11.928 17.5559 11.9249 17.5404 11.926V11.926Z" fill="#97C924"/>
<path d="M17.5016 11.9668C17.4836 12.2368 17.3336 12.5818 17.1626 12.6388C17.1056 12.6598 17.0096 12.6658 16.9766 12.6688C17.1088 12.5953 17.2242 12.4948 17.3152 12.3739C17.4061 12.253 17.4706 12.1143 17.5046 11.9668H17.5016Z" fill="#93BC30"/>
<path d="M17.5423 11.9259H17.5273V12.2499C17.5273 12.3189 17.5543 12.3759 17.5873 12.4419L17.5933 12.4569C17.6083 12.4899 17.6173 12.5019 17.6623 12.5379C17.7912 12.6298 17.9487 12.6724 18.1063 12.6579C18.0733 12.6309 18.0373 12.6069 18.0043 12.5859L18.1393 12.5709C18.0281 12.5345 17.928 12.4705 17.8483 12.3849C17.8338 12.3703 17.8198 12.3553 17.8063 12.3399L17.7883 12.3159C17.7528 12.2735 17.7207 12.2283 17.6923 12.1809C17.6817 12.1612 17.6717 12.1412 17.6623 12.1209C17.6439 12.0829 17.6279 12.0438 17.6143 12.0039C17.6077 11.9841 17.6017 11.9641 17.5963 11.9439L17.5873 11.9349C17.5817 11.932 17.5756 11.93 17.5693 11.9289C17.5595 11.9265 17.5494 11.9255 17.5393 11.9259H17.5423Z" fill="#EDE71F"/>
<path d="M17.5586 11.9668C17.5736 12.1468 17.6276 12.3628 17.7596 12.5008C17.8076 12.5398 17.8676 12.5788 17.9276 12.5698C17.7446 12.4123 17.6155 12.2014 17.5586 11.9668V11.9668Z" fill="#CCD11E"/>
<path d="M17.6875 12.2198C17.7847 12.4099 17.9375 12.5658 18.1255 12.6668H18.2005C18.0685 12.5948 17.8555 12.4928 17.6905 12.2168L17.6875 12.2198Z" fill="#9ECB34"/>
<path d="M17.0807 11.9102C17.0267 11.9102 17.0117 11.9372 17.0117 11.9372C16.9367 12.2312 16.6577 12.6062 16.3667 12.6512L16.2227 12.9002H17.6927V12.5612C17.4287 12.4892 17.2157 12.2102 17.1467 11.9372C17.1467 11.9372 17.1317 11.9132 17.0777 11.9132L17.0807 11.9102Z" fill="url(#paint17_linear_336_29410)"/>
<path d="M17.0795 11.926C17.0555 11.926 17.0405 11.932 17.0315 11.935L17.0225 11.944C16.972 12.1086 16.8894 12.2615 16.7795 12.394C16.6775 12.523 16.4885 12.652 16.3595 12.664L16.2305 12.889H17.6705V12.568C17.5622 12.5323 17.4643 12.4704 17.3855 12.388C17.2648 12.2641 17.178 12.1112 17.1335 11.944L17.1245 11.935C17.1105 11.928 17.095 11.9249 17.0795 11.926V11.926Z" fill="#97C924"/>
<path d="M17.0367 11.9668C17.0187 12.2368 16.8687 12.5818 16.6977 12.6388C16.6407 12.6598 16.5447 12.6658 16.5117 12.6688C16.644 12.5953 16.7594 12.4948 16.8503 12.3739C16.9413 12.253 17.0058 12.1143 17.0397 11.9668H17.0367Z" fill="#93BC30"/>
<path d="M17.0814 11.9259H17.0664V12.2499C17.0664 12.3189 17.0934 12.3759 17.1264 12.4419L17.1324 12.4569C17.1474 12.4899 17.1564 12.5019 17.2014 12.5379C17.3302 12.6298 17.4878 12.6724 17.6454 12.6579C17.6124 12.6309 17.5764 12.6069 17.5434 12.5859L17.6784 12.5709C17.5672 12.5345 17.4671 12.4705 17.3874 12.3849C17.3729 12.3703 17.3589 12.3553 17.3454 12.3399L17.3274 12.3159C17.2919 12.2735 17.2598 12.2283 17.2314 12.1809C17.2208 12.1612 17.2107 12.1412 17.2014 12.1209C17.183 12.0829 17.167 12.0438 17.1534 12.0039C17.1467 11.9841 17.1407 11.9641 17.1354 11.9439L17.1264 11.9349C17.1207 11.932 17.1147 11.93 17.1084 11.9289C17.0986 11.9265 17.0885 11.9255 17.0784 11.9259H17.0814Z" fill="#EDE71F"/>
<path d="M17.0977 11.9668C17.1127 12.1468 17.1667 12.3628 17.2987 12.5008C17.3467 12.5398 17.4067 12.5788 17.4667 12.5698C17.2837 12.4123 17.1546 12.2014 17.0977 11.9668V11.9668Z" fill="#C6CB24"/>
<path d="M17.2266 12.2198C17.3237 12.4099 17.4765 12.5658 17.6646 12.6668H17.7396C17.6076 12.5948 17.3946 12.4928 17.2296 12.2168L17.2266 12.2198Z" fill="#9ECB34"/>
<path d="M19.6958 12.742C19.6778 12.748 19.5638 12.736 19.5038 12.742L19.4648 12.751H19.3658C19.2578 12.751 19.1648 12.781 19.0628 12.781C18.9608 12.781 18.8678 12.751 18.7628 12.751H18.6608C18.5528 12.751 18.4598 12.781 18.3578 12.781C18.2558 12.781 18.1628 12.751 18.0578 12.751H17.9558C17.8478 12.751 17.7548 12.781 17.6558 12.781C17.5508 12.781 17.4608 12.751 17.3528 12.751H17.2508C17.1428 12.751 17.0528 12.781 16.9508 12.781C16.8458 12.781 16.7558 12.751 16.6478 12.751H16.5458C16.4618 12.751 16.3598 12.769 16.2788 12.775L16.0898 13.102H19.9118L19.6958 12.742Z" fill="white"/>
<path d="M19.4387 12.6934H19.4207C19.3247 12.6964 19.2527 12.7264 19.0847 12.7264C18.9167 12.7264 18.8987 12.6964 18.7067 12.7024C18.5267 12.7024 18.4547 12.7384 18.3557 12.7384C18.2597 12.7384 18.1037 12.7174 17.9807 12.7294C17.8607 12.7414 17.7167 12.7684 17.6207 12.7684C17.5037 12.7684 17.3867 12.7474 17.2667 12.7594C17.1437 12.7714 17.0867 12.8044 16.9337 12.8044C16.8017 12.8044 16.6637 12.7834 16.5497 12.7834C16.4477 12.7834 16.3337 12.8134 16.2497 12.8254L16.2227 12.8704C16.2917 12.8614 16.4807 12.8314 16.5467 12.8314C16.6187 12.8314 16.8677 12.8464 17.0057 12.8404C17.1467 12.8374 17.1617 12.8044 17.3267 12.8044C17.4407 12.8044 17.5247 12.8164 17.6417 12.8164C17.7167 12.8164 17.7827 12.7804 17.8937 12.7804L17.9777 12.7774C18.0707 12.7624 18.2297 12.7774 18.3377 12.7834C18.4367 12.7894 18.5027 12.7654 18.6077 12.7624L18.7397 12.7594C18.8447 12.7534 18.9317 12.7774 19.0307 12.7774C19.1267 12.7714 19.2227 12.7474 19.3247 12.7474L19.4597 12.7414C19.5287 12.7414 19.6367 12.7414 19.7087 12.7564L19.6847 12.7144C19.6127 12.7114 19.5257 12.6934 19.4387 12.6934V12.6934Z" fill="url(#paint18_linear_336_29410)"/>
<path d="M16.5087 13.044C16.4067 13.044 16.3167 13.068 16.2207 13.071C16.1845 13.0701 16.1485 13.0671 16.1127 13.062L16.0977 13.086H16.2777C16.3827 13.086 16.4697 13.062 16.5657 13.059C16.6647 13.062 16.7517 13.089 16.8567 13.089H16.9917C17.0937 13.089 17.1837 13.062 17.2797 13.059C17.3787 13.062 17.4687 13.089 17.5707 13.089H17.7057C17.8107 13.089 17.8977 13.062 17.9967 13.059C18.0927 13.062 18.1797 13.089 18.2847 13.089H18.4197C18.5217 13.089 18.6117 13.062 18.7107 13.059C18.8067 13.062 18.8967 13.089 18.9987 13.089H19.1337C19.2387 13.089 19.3257 13.062 19.4217 13.059C19.5207 13.062 19.6077 13.089 19.7127 13.089H19.8477L19.9017 13.086L19.8867 13.062C19.8567 13.065 19.8237 13.071 19.7907 13.071C19.6917 13.071 19.6047 13.041 19.4997 13.041H19.3647C19.2627 13.041 19.1727 13.071 19.0767 13.071C18.9777 13.068 18.8907 13.041 18.7857 13.041H18.6507C18.5487 13.041 18.4587 13.071 18.3627 13.071C18.2637 13.068 18.1767 13.041 18.0717 13.041H17.9367C17.8317 13.041 17.7447 13.071 17.6487 13.071C17.5497 13.068 17.4627 13.041 17.3577 13.041H17.2227C17.1207 13.041 17.0307 13.071 16.9347 13.071C16.8357 13.068 16.7487 13.041 16.6437 13.041H16.5087V13.044Z" fill="url(#paint19_linear_336_29410)"/>
<path d="M16.5087 13.005C16.4067 13.005 16.3167 13.029 16.2207 13.032C16.1845 13.031 16.1485 13.028 16.1127 13.023L16.0977 13.047H16.2777C16.3827 13.047 16.4697 13.023 16.5657 13.02C16.6647 13.023 16.7517 13.05 16.8567 13.05H16.9917C17.0937 13.05 17.1837 13.023 17.2797 13.02C17.3787 13.023 17.4687 13.05 17.5707 13.05H17.7057C17.8107 13.05 17.8977 13.023 17.9967 13.02C18.0927 13.023 18.1797 13.05 18.2847 13.05H18.4197C18.5217 13.05 18.6117 13.023 18.7107 13.02C18.8067 13.023 18.8967 13.05 18.9987 13.05H19.1337C19.2387 13.05 19.3257 13.023 19.4217 13.02C19.5207 13.023 19.6077 13.05 19.7127 13.05H19.8477L19.9017 13.047L19.8867 13.023C19.8567 13.026 19.8237 13.032 19.7907 13.032C19.6917 13.032 19.6047 13.002 19.4997 13.002H19.3647C19.2627 13.002 19.1727 13.032 19.0767 13.032C18.9777 13.029 18.8907 13.002 18.7857 13.002H18.6507C18.5487 13.002 18.4587 13.032 18.3627 13.032C18.2637 13.029 18.1767 13.002 18.0717 13.002H17.9367C17.8317 13.002 17.7447 13.032 17.6487 13.032C17.5497 13.029 17.4627 13.002 17.3577 13.002H17.2227C17.1207 13.002 17.0307 13.032 16.9347 13.032C16.8357 13.029 16.7487 13.002 16.6437 13.002H16.5087V13.005Z" fill="url(#paint20_linear_336_29410)"/>
<path d="M16.5087 12.9659C16.4067 12.9659 16.3167 12.9899 16.2207 12.9929C16.1845 12.9919 16.1485 12.9889 16.1127 12.9839L16.0977 13.0079H16.2777C16.3827 13.0079 16.4697 12.9839 16.5657 12.9809C16.6647 12.9839 16.7517 13.0109 16.8567 13.0109H16.9917C17.0937 13.0109 17.1837 12.9839 17.2797 12.9809C17.3787 12.9839 17.4687 13.0109 17.5707 13.0109H17.7057C17.8107 13.0109 17.8977 12.9839 17.9967 12.9809C18.0927 12.9839 18.1797 13.0109 18.2847 13.0109H18.4197C18.5217 13.0109 18.6117 12.9839 18.7107 12.9809C18.8067 12.9839 18.8967 13.0109 18.9987 13.0109H19.1337C19.2387 13.0109 19.3257 12.9839 19.4217 12.9809C19.5207 12.9839 19.6077 13.0109 19.7127 13.0109H19.8477L19.9017 13.0079L19.8867 12.9839C19.8567 12.9869 19.8237 12.9929 19.7907 12.9929C19.6917 12.9929 19.6047 12.9629 19.4997 12.9629H19.3647C19.2627 12.9629 19.1727 12.9929 19.0767 12.9929C18.9777 12.9899 18.8907 12.9629 18.7857 12.9629H18.6507C18.5487 12.9629 18.4587 12.9929 18.3627 12.9929C18.2637 12.9899 18.1767 12.9629 18.0717 12.9629H17.9367C17.8317 12.9629 17.7447 12.9929 17.6487 12.9929C17.5497 12.9899 17.4627 12.9629 17.3577 12.9629H17.2227C17.1207 12.9629 17.0307 12.9929 16.9347 12.9929C16.8357 12.9899 16.7487 12.9629 16.6437 12.9629H16.5087V12.9659Z" fill="url(#paint21_linear_336_29410)"/>
<path d="M16.5087 12.9288C16.4067 12.9288 16.3167 12.9528 16.2207 12.9558C16.1845 12.9548 16.1485 12.9518 16.1127 12.9468L16.0977 12.9708H16.2777C16.3827 12.9708 16.4697 12.9468 16.5657 12.9438C16.6647 12.9468 16.7517 12.9738 16.8567 12.9738H16.9917C17.0937 12.9738 17.1837 12.9468 17.2797 12.9438C17.3787 12.9468 17.4687 12.9738 17.5707 12.9738H17.7057C17.8107 12.9738 17.8977 12.9468 17.9967 12.9438C18.0927 12.9468 18.1797 12.9738 18.2847 12.9738H18.4197C18.5217 12.9738 18.6117 12.9468 18.7107 12.9438C18.8067 12.9468 18.8967 12.9738 18.9987 12.9738H19.1337C19.2387 12.9738 19.3257 12.9468 19.4217 12.9438C19.5207 12.9468 19.6077 12.9738 19.7127 12.9738H19.8477L19.9017 12.9708L19.8867 12.9468C19.8567 12.9498 19.8237 12.9558 19.7907 12.9558C19.6917 12.9558 19.6047 12.9258 19.4997 12.9258H19.3647C19.2627 12.9258 19.1727 12.9558 19.0767 12.9558C18.9777 12.9528 18.8907 12.9258 18.7857 12.9258H18.6507C18.5487 12.9258 18.4587 12.9558 18.3627 12.9558C18.2637 12.9528 18.1767 12.9258 18.0717 12.9258H17.9367C17.8317 12.9258 17.7447 12.9558 17.6487 12.9558C17.5497 12.9528 17.4627 12.9258 17.3577 12.9258H17.2227C17.1207 12.9258 17.0307 12.9558 16.9347 12.9558C16.8357 12.9528 16.7487 12.9258 16.6437 12.9258H16.5087V12.9288Z" fill="url(#paint22_linear_336_29410)"/>
<path d="M16.5087 12.8897C16.4067 12.8897 16.3167 12.9137 16.2207 12.9167C16.1845 12.9158 16.1485 12.9128 16.1127 12.9077L16.0977 12.9317H16.2777C16.3827 12.9317 16.4697 12.9077 16.5657 12.9047C16.6647 12.9077 16.7517 12.9347 16.8567 12.9347H16.9917C17.0937 12.9347 17.1837 12.9077 17.2797 12.9047C17.3787 12.9077 17.4687 12.9347 17.5707 12.9347H17.7057C17.8107 12.9347 17.8977 12.9077 17.9967 12.9047C18.0927 12.9077 18.1797 12.9347 18.2847 12.9347H18.4197C18.5217 12.9347 18.6117 12.9077 18.7107 12.9047C18.8067 12.9077 18.8967 12.9347 18.9987 12.9347H19.1337C19.2387 12.9347 19.3257 12.9077 19.4217 12.9047C19.5207 12.9077 19.6077 12.9347 19.7127 12.9347H19.8477L19.9017 12.9317L19.8867 12.9077C19.8567 12.9107 19.8237 12.9167 19.7907 12.9167C19.6917 12.9167 19.6047 12.8867 19.4997 12.8867H19.3647C19.2627 12.8867 19.1727 12.9167 19.0767 12.9167C18.9777 12.9137 18.8907 12.8867 18.7857 12.8867H18.6507C18.5487 12.8867 18.4587 12.9167 18.3627 12.9167C18.2637 12.9137 18.1767 12.8867 18.0717 12.8867H17.9367C17.8317 12.8867 17.7447 12.9167 17.6487 12.9167C17.5497 12.9137 17.4627 12.8867 17.3577 12.8867H17.2227C17.1207 12.8867 17.0307 12.9167 16.9347 12.9167C16.8357 12.9137 16.7487 12.8867 16.6437 12.8867H16.5087V12.8897Z" fill="url(#paint23_linear_336_29410)"/>
<path d="M16.5087 12.8507C16.4067 12.8507 16.3167 12.8747 16.2207 12.8777C16.1845 12.8767 16.1485 12.8737 16.1127 12.8687L16.0977 12.8927H16.2777C16.3827 12.8927 16.4697 12.8687 16.5657 12.8657C16.6647 12.8687 16.7517 12.8957 16.8567 12.8957H16.9917C17.0937 12.8957 17.1837 12.8687 17.2797 12.8657C17.3787 12.8687 17.4687 12.8957 17.5707 12.8957H17.7057C17.8107 12.8957 17.8977 12.8687 17.9967 12.8657C18.0927 12.8687 18.1797 12.8957 18.2847 12.8957H18.4197C18.5217 12.8957 18.6117 12.8687 18.7107 12.8657C18.8067 12.8687 18.8967 12.8957 18.9987 12.8957H19.1337C19.2387 12.8957 19.3257 12.8687 19.4217 12.8657C19.5207 12.8687 19.6077 12.8957 19.7127 12.8957H19.8477L19.9017 12.8927L19.8867 12.8687C19.8567 12.8717 19.8237 12.8777 19.7907 12.8777C19.6917 12.8777 19.6047 12.8477 19.4997 12.8477H19.3647C19.2627 12.8477 19.1727 12.8777 19.0767 12.8777C18.9777 12.8747 18.8907 12.8477 18.7857 12.8477H18.6507C18.5487 12.8477 18.4587 12.8777 18.3627 12.8777C18.2637 12.8747 18.1767 12.8477 18.0717 12.8477H17.9367C17.8317 12.8477 17.7447 12.8777 17.6487 12.8777C17.5497 12.8747 17.4627 12.8477 17.3577 12.8477H17.2227C17.1207 12.8477 17.0307 12.8777 16.9347 12.8777C16.8357 12.8747 16.7487 12.8477 16.6437 12.8477H16.5087V12.8507Z" fill="url(#paint24_linear_336_29410)"/>
<path d="M16.5087 12.8135C16.4067 12.8135 16.3167 12.8375 16.2207 12.8405C16.1845 12.8396 16.1485 12.8366 16.1127 12.8315L16.0977 12.8555H16.2777C16.3827 12.8555 16.4697 12.8315 16.5657 12.8285C16.6647 12.8315 16.7517 12.8585 16.8567 12.8585H16.9917C17.0937 12.8585 17.1837 12.8315 17.2797 12.8285C17.3787 12.8315 17.4687 12.8585 17.5707 12.8585H17.7057C17.8107 12.8585 17.8977 12.8315 17.9967 12.8285C18.0927 12.8315 18.1797 12.8585 18.2847 12.8585H18.4197C18.5217 12.8585 18.6117 12.8315 18.7107 12.8285C18.8067 12.8315 18.8967 12.8585 18.9987 12.8585H19.1337C19.2387 12.8585 19.3257 12.8315 19.4217 12.8285C19.5207 12.8315 19.6077 12.8585 19.7127 12.8585H19.8477L19.9017 12.8555L19.8867 12.8315C19.8567 12.8345 19.8237 12.8405 19.7907 12.8405C19.6917 12.8405 19.6047 12.8105 19.4997 12.8105H19.3647C19.2627 12.8105 19.1727 12.8405 19.0767 12.8405C18.9777 12.8375 18.8907 12.8105 18.7857 12.8105H18.6507C18.5487 12.8105 18.4587 12.8405 18.3627 12.8405C18.2637 12.8375 18.1767 12.8105 18.0717 12.8105H17.9367C17.8317 12.8105 17.7447 12.8405 17.6487 12.8405C17.5497 12.8375 17.4627 12.8105 17.3577 12.8105H17.2227C17.1207 12.8105 17.0307 12.8405 16.9347 12.8405C16.8357 12.8375 16.7487 12.8105 16.6437 12.8105H16.5087V12.8135Z" fill="url(#paint25_linear_336_29410)"/>
<path d="M16.5087 12.7745C16.4067 12.7745 16.3167 12.7985 16.2207 12.8015C16.1845 12.8005 16.1485 12.7975 16.1127 12.7925L16.0977 12.8165H16.2777C16.3827 12.8165 16.4697 12.7925 16.5657 12.7895C16.6647 12.7925 16.7517 12.8195 16.8567 12.8195H16.9917C17.0937 12.8195 17.1837 12.7925 17.2797 12.7895C17.3787 12.7925 17.4687 12.8195 17.5707 12.8195H17.7057C17.8107 12.8195 17.8977 12.7925 17.9967 12.7895C18.0927 12.7925 18.1797 12.8195 18.2847 12.8195H18.4197C18.5217 12.8195 18.6117 12.7925 18.7107 12.7895C18.8067 12.7925 18.8967 12.8195 18.9987 12.8195H19.1337C19.2387 12.8195 19.3257 12.7925 19.4217 12.7895C19.5207 12.7925 19.6077 12.8195 19.7127 12.8195H19.8477L19.9017 12.8165L19.8867 12.7925C19.8567 12.7955 19.8237 12.8015 19.7907 12.8015C19.6917 12.8015 19.6047 12.7715 19.4997 12.7715H19.3647C19.2627 12.7715 19.1727 12.8015 19.0767 12.8015C18.9777 12.7985 18.8907 12.7715 18.7857 12.7715H18.6507C18.5487 12.7715 18.4587 12.8015 18.3627 12.8015C18.2637 12.7985 18.1767 12.7715 18.0717 12.7715H17.9367C17.8317 12.7715 17.7447 12.8015 17.6487 12.8015C17.5497 12.7985 17.4627 12.7715 17.3577 12.7715H17.2227C17.1207 12.7715 17.0307 12.8015 16.9347 12.8015C16.8357 12.7985 16.7487 12.7715 16.6437 12.7715H16.5087V12.7745Z" fill="url(#paint26_linear_336_29410)"/>
<path d="M16.5087 12.7354C16.4067 12.7354 16.3167 12.7594 16.2207 12.7624C16.1845 12.7615 16.1485 12.7585 16.1127 12.7534L16.0977 12.7774H16.2777C16.3827 12.7774 16.4697 12.7534 16.5657 12.7504C16.6647 12.7534 16.7517 12.7804 16.8567 12.7804H16.9917C17.0937 12.7804 17.1837 12.7534 17.2797 12.7504C17.3787 12.7534 17.4687 12.7804 17.5707 12.7804H17.7057C17.8107 12.7804 17.8977 12.7534 17.9967 12.7504C18.0927 12.7534 18.1797 12.7804 18.2847 12.7804H18.4197C18.5217 12.7804 18.6117 12.7534 18.7107 12.7504C18.8067 12.7534 18.8967 12.7804 18.9987 12.7804H19.1337C19.2387 12.7804 19.3257 12.7534 19.4217 12.7504C19.5207 12.7534 19.6077 12.7804 19.7127 12.7804H19.8477L19.9017 12.7774L19.8867 12.7534C19.8567 12.7564 19.8237 12.7624 19.7907 12.7624C19.6917 12.7624 19.6047 12.7324 19.4997 12.7324H19.3647C19.2627 12.7324 19.1727 12.7624 19.0767 12.7624C18.9777 12.7594 18.8907 12.7324 18.7857 12.7324H18.6507C18.5487 12.7324 18.4587 12.7624 18.3627 12.7624C18.2637 12.7594 18.1767 12.7324 18.0717 12.7324H17.9367C17.8317 12.7324 17.7447 12.7624 17.6487 12.7624C17.5497 12.7594 17.4627 12.7324 17.3577 12.7324H17.2227C17.1207 12.7324 17.0307 12.7624 16.9347 12.7624C16.8357 12.7594 16.7487 12.7324 16.6437 12.7324H16.5087V12.7354Z" fill="url(#paint27_linear_336_29410)"/>
<path d="M16.3172 12.7426L16.2422 12.8686C16.3292 12.8536 16.4552 12.8176 16.5632 12.8176C16.6712 12.8176 16.8032 12.8446 16.9352 12.8476C17.0852 12.8476 17.1452 12.8116 17.2652 12.7996C17.3882 12.7876 17.5052 12.8146 17.6252 12.8176C17.7182 12.8176 17.8622 12.7846 17.9852 12.7726C18.1052 12.7576 18.2162 12.7816 18.3602 12.7816C18.5072 12.7846 18.5312 12.7456 18.7082 12.7426C18.9002 12.7396 18.9182 12.7696 19.0862 12.7696C19.2122 12.7756 19.3232 12.7426 19.4372 12.7366C19.5512 12.7276 19.6022 12.7366 19.6862 12.7366L19.6292 12.6406L16.5902 12.7096L16.3172 12.7426Z" fill="#97C924"/>
<path d="M19.5 12.7383L19.62 12.7473C19.649 12.7507 19.678 12.7537 19.707 12.7563L19.695 12.7413C19.677 12.7473 19.563 12.7353 19.503 12.7413L19.5 12.7383Z" fill="white"/>
<path d="M18.0008 9.74609L17.037 11.4148L16.0508 13.1248H19.9508L18.987 11.4523L18.0008 9.74984V9.74609ZM18.0008 9.83609L18.9458 11.4748L19.872 13.0798H16.1295L17.0745 11.4373L18.0008 9.83609Z" fill="#C8A400"/>
</g>
</g>
<defs>
<filter id="filter0_d_336_29410" x="0" y="-2" width="36" height="36" filterUnits="userSpaceOnUse" color-interpolation-filters="sRGB">
<feFlood flood-opacity="0" result="BackgroundImageFix"/>
<feColorMatrix in="SourceAlpha" type="matrix" values="0 0 0 0 0 0 0 0 0 0 0 0 0 0 0 0 0 0 127 0" result="hardAlpha"/>
<feOffset dy="4"/>
<feGaussianBlur stdDeviation="3"/>
<feComposite in2="hardAlpha" operator="out"/>
<feColorMatrix type="matrix" values="0 0 0 0 0 0 0 0 0 0 0 0 0 0 0 0 0 0 0.16 0"/>
<feBlend mode="normal" in2="BackgroundImageFix" result="effect1_dropShadow_336_29410"/>
<feBlend mode="normal" in="SourceGraphic" in2="effect1_dropShadow_336_29410" result="shape"/>
</filter>
<linearGradient id="paint0_linear_336_29410" x1="17.9607" y1="11.6732" x2="18.0177" y2="11.5022" gradientUnits="userSpaceOnUse">
<stop stop-color="#510000"/>
<stop offset="0.3" stop-color="#8A0000"/>
<stop offset="1" stop-color="#AA0000"/>
</linearGradient>
<linearGradient id="paint1_linear_336_29410" x1="18.0421" y1="11.7425" x2="18.0871" y2="11.6225" gradientUnits="userSpaceOnUse">
<stop stop-color="#FF2A2A"/>
<stop offset="1" stop-color="#FF0000"/>
</linearGradient>
<linearGradient id="paint2_linear_336_29410" x1="16.3359" y1="12.5276" x2="22.0329" y2="12.5276" gradientUnits="userSpaceOnUse">
<stop stop-color="#002255"/>
<stop offset="0.5" stop-color="#0044AA"/>
<stop offset="1" stop-color="#002255"/>
</linearGradient>
<linearGradient id="paint3_linear_336_29410" x1="16.3359" y1="12.4944" x2="22.0329" y2="12.4944" gradientUnits="userSpaceOnUse">
<stop stop-color="#002255"/>
<stop offset="0.5" stop-color="#0044AA"/>
<stop offset="1" stop-color="#002255"/>
</linearGradient>
<linearGradient id="paint4_linear_336_29410" x1="16.3359" y1="12.4612" x2="22.0329" y2="12.4612" gradientUnits="userSpaceOnUse">
<stop stop-color="#002255"/>
<stop offset="0.5" stop-color="#0044AA"/>
<stop offset="1" stop-color="#002255"/>
</linearGradient>
<linearGradient id="paint5_linear_336_29410" x1="16.3359" y1="12.428" x2="22.0329" y2="12.428" gradientUnits="userSpaceOnUse">
<stop stop-color="#002255"/>
<stop offset="0.5" stop-color="#0044AA"/>
<stop offset="1" stop-color="#002255"/>
</linearGradient>
<linearGradient id="paint6_linear_336_29410" x1="16.3359" y1="12.3948" x2="22.0329" y2="12.3948" gradientUnits="userSpaceOnUse">
<stop stop-color="#002255"/>
<stop offset="0.5" stop-color="#0044AA"/>
<stop offset="1" stop-color="#002255"/>
</linearGradient>
<linearGradient id="paint7_linear_336_29410" x1="16.3359" y1="12.3616" x2="22.0329" y2="12.3616" gradientUnits="userSpaceOnUse">
<stop stop-color="#002255"/>
<stop offset="0.5" stop-color="#0044AA"/>
<stop offset="1" stop-color="#002255"/>
</linearGradient>
<linearGradient id="paint8_linear_336_29410" x1="16.3359" y1="12.3264" x2="22.0329" y2="12.3264" gradientUnits="userSpaceOnUse">
<stop stop-color="#002255"/>
<stop offset="0.5" stop-color="#0044AA"/>
<stop offset="1" stop-color="#002255"/>
</linearGradient>
<linearGradient id="paint9_linear_336_29410" x1="16.3359" y1="12.2932" x2="22.0329" y2="12.2932" gradientUnits="userSpaceOnUse">
<stop stop-color="#002255"/>
<stop offset="0.5" stop-color="#0044AA"/>
<stop offset="1" stop-color="#002255"/>
</linearGradient>
<linearGradient id="paint10_linear_336_29410" x1="16.3359" y1="12.26" x2="22.0329" y2="12.26" gradientUnits="userSpaceOnUse">
<stop stop-color="#002255"/>
<stop offset="0.5" stop-color="#0044AA"/>
<stop offset="1" stop-color="#002255"/>
</linearGradient>
<linearGradient id="paint11_linear_336_29410" x1="16.3365" y1="12.5266" x2="22.0335" y2="12.5266" gradientUnits="userSpaceOnUse">
<stop stop-color="#002255"/>
<stop offset="0.5" stop-color="#0044AA"/>
<stop offset="1" stop-color="#002255"/>
</linearGradient>
<linearGradient id="paint12_linear_336_29410" x1="16.3357" y1="12.5271" x2="22.0327" y2="12.5271" gradientUnits="userSpaceOnUse">
<stop stop-color="#002255"/>
<stop offset="0.5" stop-color="#0044AA"/>
<stop offset="1" stop-color="#002255"/>
</linearGradient>
<linearGradient id="paint13_linear_336_29410" x1="17.5436" y1="12.3512" x2="17.5436" y2="12.5282" gradientUnits="userSpaceOnUse">
<stop stop-color="#F5F549"/>
<stop offset="1" stop-color="#97C924"/>
</linearGradient>
<linearGradient id="paint14_linear_336_29410" x1="17.0827" y1="12.3512" x2="17.0827" y2="12.5282" gradientUnits="userSpaceOnUse">
<stop stop-color="#F5F549"/>
<stop offset="1" stop-color="#97C924"/>
</linearGradient>
<linearGradient id="paint15_linear_336_29410" x1="17.5427" y1="12.3521" x2="17.5427" y2="12.5291" gradientUnits="userSpaceOnUse">
<stop stop-color="#F5F549"/>
<stop offset="1" stop-color="#97C924"/>
</linearGradient>
<linearGradient id="paint16_linear_336_29410" x1="17.5416" y1="12.3512" x2="17.5416" y2="12.5282" gradientUnits="userSpaceOnUse">
<stop stop-color="#F5F549"/>
<stop offset="1" stop-color="#97C924"/>
</linearGradient>
<linearGradient id="paint17_linear_336_29410" x1="17.0807" y1="12.3512" x2="17.0807" y2="12.5282" gradientUnits="userSpaceOnUse">
<stop stop-color="#F5F549"/>
<stop offset="1" stop-color="#97C924"/>
</linearGradient>
<linearGradient id="paint18_linear_336_29410" x1="16.223" y1="12.6941" x2="19.713" y2="12.6941" gradientUnits="userSpaceOnUse">
<stop stop-color="#002255"/>
<stop offset="0.5" stop-color="#0044AA"/>
<stop offset="1" stop-color="#002255"/>
</linearGradient>
<linearGradient id="paint19_linear_336_29410" x1="16.1109" y1="13.0422" x2="19.8883" y2="13.0422" gradientUnits="userSpaceOnUse">
<stop stop-color="#002255"/>
<stop offset="0.5" stop-color="#0044AA"/>
<stop offset="1" stop-color="#002255"/>
</linearGradient>
<linearGradient id="paint20_linear_336_29410" x1="16.1109" y1="13.0032" x2="19.8883" y2="13.0032" gradientUnits="userSpaceOnUse">
<stop stop-color="#002255"/>
<stop offset="0.5" stop-color="#0044AA"/>
<stop offset="1" stop-color="#002255"/>
</linearGradient>
<linearGradient id="paint21_linear_336_29410" x1="16.1109" y1="12.9641" x2="19.8883" y2="12.9641" gradientUnits="userSpaceOnUse">
<stop stop-color="#002255"/>
<stop offset="0.5" stop-color="#0044AA"/>
<stop offset="1" stop-color="#002255"/>
</linearGradient>
<linearGradient id="paint22_linear_336_29410" x1="16.1109" y1="12.927" x2="19.8883" y2="12.927" gradientUnits="userSpaceOnUse">
<stop stop-color="#002255"/>
<stop offset="0.5" stop-color="#0044AA"/>
<stop offset="1" stop-color="#002255"/>
</linearGradient>
<linearGradient id="paint23_linear_336_29410" x1="16.1109" y1="12.8879" x2="19.8883" y2="12.8879" gradientUnits="userSpaceOnUse">
<stop stop-color="#002255"/>
<stop offset="0.5" stop-color="#0044AA"/>
<stop offset="1" stop-color="#002255"/>
</linearGradient>
<linearGradient id="paint24_linear_336_29410" x1="16.1109" y1="12.8489" x2="19.8883" y2="12.8489" gradientUnits="userSpaceOnUse">
<stop stop-color="#002255"/>
<stop offset="0.5" stop-color="#0044AA"/>
<stop offset="1" stop-color="#002255"/>
</linearGradient>
<linearGradient id="paint25_linear_336_29410" x1="16.1109" y1="12.8118" x2="19.8883" y2="12.8118" gradientUnits="userSpaceOnUse">
<stop stop-color="#002255"/>
<stop offset="0.5" stop-color="#0044AA"/>
<stop offset="1" stop-color="#002255"/>
</linearGradient>
<linearGradient id="paint26_linear_336_29410" x1="16.1109" y1="12.7727" x2="19.8883" y2="12.7727" gradientUnits="userSpaceOnUse">
<stop stop-color="#002255"/>
<stop offset="0.5" stop-color="#0044AA"/>
<stop offset="1" stop-color="#002255"/>
</linearGradient>
<linearGradient id="paint27_linear_336_29410" x1="16.1109" y1="12.7336" x2="19.8883" y2="12.7336" gradientUnits="userSpaceOnUse">
<stop stop-color="#002255"/>
<stop offset="0.5" stop-color="#0044AA"/>
<stop offset="1" stop-color="#002255"/>
</linearGradient>
<clipPath id="clip0_336_29410">
<rect width="24" height="18" fill="white" transform="translate(6 3)"/>
</clipPath>
</defs>
</svg>
