<svg width="36" height="31" viewBox="0 0 36 31" fill="none" xmlns="http://www.w3.org/2000/svg">
<g filter="url(#filter0_d_336_28478)">
<g clip-path="url(#clip0_336_28478)">
<path d="M6 3H30V21H6V3Z" fill="#012169"/>
<path d="M20.4331 7.16211H28.1394L28.1281 12.6484C28.1919 14.8496 26.8194 16.2184 24.2919 16.8371C22.4956 16.3871 20.4294 15.4684 20.4219 12.7121L20.4331 7.16211V7.16211Z" fill="white"/>
<path d="M20.6012 7.32812H27.9662L27.9587 12.5856C28.0187 14.6969 26.7062 16.0056 24.2912 16.5981C22.5737 16.1706 20.5975 15.2856 20.5938 12.6456L20.6012 7.32812V7.32812Z" fill="#00A2BD" stroke="black" stroke-width="0.15"/>
<path d="M27.9125 13.207C27.6425 15.2208 26.09 16.102 24.2938 16.5708C22.7 16.1433 20.9863 15.4608 20.6562 13.2145L27.9125 13.207Z" fill="#A53D08"/>
<path d="M23.9987 8.30648L23.9875 7.64648L24.5125 7.65023L24.5162 8.30648H25.9487L25.9525 8.82023L24.5162 8.82773L24.505 14.8802L23.995 14.884L23.9875 8.82023L22.5625 8.82773V8.30273L23.9987 8.30648Z" fill="black"/>
<path fill-rule="evenodd" clip-rule="evenodd" d="M22.8363 13.4556L24.1488 14.8169C24.6026 14.3181 24.2876 12.4544 23.6913 12.1131C23.6201 12.3344 23.5001 12.6006 23.3688 12.6831C23.0876 12.8781 22.3901 13.1031 22.6226 13.2456C22.6751 13.1744 22.8138 13.1069 22.8813 13.2681C22.9563 13.5269 22.5888 13.5419 22.5888 13.5419C22.5888 13.5419 22.3563 13.5119 22.3151 13.2794C22.2776 13.0394 22.6638 12.8219 22.6976 12.8069C22.7276 12.7956 23.2338 12.6569 23.3201 12.2106C23.4288 11.7681 23.5376 11.8356 23.5563 11.8281C24.2201 11.8919 24.6513 13.0769 24.6776 13.9094C24.7001 14.7419 24.3401 15.2969 24.2726 15.3344C24.2088 15.3681 22.6976 13.5381 22.6976 13.5381L22.8401 13.4556H22.8363Z" fill="#FF9A08" stroke="black" stroke-width="0.0666667"/>
<path d="M23.7962 12.1875L23.8037 14.6438ZM23.6462 12.2363L23.6575 14.4638ZM23.4887 12.5587L23.4962 14.3288ZM23.3575 12.6825L23.365 14.1487ZM23.2188 12.75V13.9875ZM23.0688 12.8475V13.8263ZM22.9375 12.9263V13.6763Z" fill="#FF9A08"/>
<path d="M23.7962 12.1875L23.8037 14.6438M23.6462 12.2363L23.6575 14.4638M23.4887 12.5587L23.4962 14.3288M23.3575 12.6825L23.365 14.1487M23.2188 12.75V13.9875M23.0688 12.8475V13.8263M22.9375 12.9263V13.6763" stroke="black" stroke-width="0.0666667"/>
<path d="M22.8164 13.6113L24.1664 15.1563" stroke="#FFDF00" stroke-width="0.0666667" stroke-linecap="round"/>
<path d="M24.2351 12.6367C24.2351 12.6367 24.8501 13.9755 24.2801 15.0742M22.6601 13.3267C22.6601 13.3267 22.7051 13.2105 22.7614 13.2592M22.5551 12.9855C22.5551 12.9855 22.3076 13.1992 22.4426 13.3417" stroke="#FFDF00" stroke-width="0.12" stroke-linecap="round"/>
<path d="M24.5232 9.57756C24.6095 9.50256 24.6582 9.45381 24.7145 9.46506C24.7707 9.47256 24.8457 9.46506 24.902 9.45006C25.0496 9.41578 25.2024 9.41069 25.352 9.43506C25.3895 9.44256 25.4457 9.46131 25.5245 9.52881C25.6032 9.59631 25.7195 9.71631 25.682 10.0388C25.6445 10.3613 25.6557 10.5001 25.637 10.6838C25.607 11.0026 25.5357 11.2651 25.412 11.2463C25.5807 11.5463 25.5995 11.8088 25.712 12.0151C25.8245 12.2213 25.892 12.6451 25.8507 13.1026C25.8057 13.5638 25.6857 14.5913 26.0495 15.2851C25.9895 15.3263 25.8432 15.2851 25.712 15.1463C25.5807 15.0076 25.5245 15.0113 25.4195 15.0938C25.0895 15.3451 24.782 15.6488 24.3282 15.3451C24.2232 15.2776 24.1932 15.1951 24.2682 14.9813C24.4557 14.4563 24.5495 13.7288 24.5195 13.3913V9.57756H24.5232Z" fill="#008021" stroke="black" stroke-width="0.025"/>
<path d="M24.8362 9.25469C24.8661 9.3373 24.8648 9.42799 24.8324 9.50969C24.7949 9.59969 24.7837 9.69719 24.8512 9.82469C24.9524 9.67469 25.0987 9.70469 25.1887 9.62219C25.2712 9.53594 25.2899 9.45344 25.3537 9.43469C25.2899 9.37844 25.1924 9.31469 25.2112 9.15344C25.2337 8.98844 25.4624 8.85344 25.2562 8.60594C25.2254 8.56632 25.1851 8.53507 25.139 8.51505C25.093 8.49503 25.0427 8.48689 24.9927 8.49137C24.9427 8.49584 24.8946 8.5128 24.8528 8.54068C24.8111 8.56856 24.777 8.60647 24.7537 8.65094C24.7424 8.68094 24.7612 8.74094 24.7274 8.77844C24.7049 8.80844 24.6787 8.83469 24.6487 8.85344C24.6299 8.86844 24.6187 8.88719 24.6412 8.91344C24.6487 8.92469 24.6637 8.92469 24.6787 8.92844L24.6487 8.98469C24.6374 8.99594 24.6412 9.00719 24.6562 9.02219C24.6374 9.07094 24.6712 9.07844 24.6487 9.11594C24.6262 9.14969 24.6037 9.19094 24.6712 9.22844C24.6937 9.23969 24.7837 9.25844 24.8362 9.25469V9.25469ZM23.9924 10.1172C23.8724 10.1472 23.6774 10.0947 23.5312 10.1097C23.4637 10.1172 23.4112 10.0834 23.4187 10.0197C23.4299 9.95594 23.4412 9.85469 23.4262 9.76469C23.4276 9.57082 23.4765 9.38025 23.5687 9.20969C23.6428 9.07481 23.6911 8.92729 23.7112 8.77469C23.7112 8.70344 23.7187 8.62844 23.7787 8.58719C23.8237 8.56094 23.8312 8.53469 23.8462 8.51219C23.8837 8.45594 23.9212 8.44469 23.9212 8.47469C23.9249 8.49344 23.9212 8.51219 23.9024 8.53469C23.9399 8.50469 24.0074 8.46719 24.0224 8.45969C24.0374 8.44469 24.1124 8.39219 24.1162 8.44469C24.1462 8.42969 24.1687 8.42969 24.1762 8.44469C24.1837 8.46344 24.1762 8.47094 24.1649 8.48219C24.1874 8.48219 24.2099 8.51594 24.1649 8.54969C24.1912 8.54219 24.2137 8.57969 24.1724 8.61344C24.1349 8.65094 24.0824 8.67344 24.0712 8.70344C24.0562 8.73344 23.9512 8.81219 23.9099 8.82719C23.8687 8.84594 23.8649 8.86844 23.8649 8.92844C23.8649 9.59594 23.7899 9.53969 23.7899 9.70469C23.7899 9.74219 23.7787 9.78344 23.8199 9.77219C23.8649 9.75719 23.9287 9.73844 23.9924 9.73844V10.1134V10.1172ZM24.0187 11.5497C24.2137 11.4522 24.4387 11.4147 24.5549 11.3847C24.6897 11.3416 24.8202 11.2864 24.9449 11.2197C25.0387 11.1709 25.1137 11.1072 25.1662 11.0884C25.2277 11.0689 25.2789 11.0257 25.3087 10.9684C25.4564 10.7194 25.545 10.4397 25.5674 10.1509C25.5674 10.0009 25.5299 9.82844 25.3799 9.94844C25.2269 10.0803 25.1128 10.2515 25.0499 10.4434C24.9899 10.6834 24.9374 10.7397 24.9262 10.7847C24.9112 10.8334 24.8662 10.8334 24.8062 10.8447C24.6167 10.8742 24.4397 10.9575 24.2962 11.0847C24.126 11.2106 23.9482 11.3259 23.7637 11.4297C23.6249 11.5084 23.5987 11.5159 23.5687 11.5797C23.5387 11.6397 23.5087 11.6922 23.4862 11.7147C23.4562 11.7447 23.4487 11.7747 23.4562 11.8122C23.4599 11.8422 23.4487 11.9697 23.4449 12.0147C23.4449 12.0597 23.4562 12.0672 23.4712 12.0709C23.4862 12.0709 23.5087 12.0634 23.5199 12.0109C23.5124 12.0634 23.5837 12.0484 23.5874 12.0072C23.5874 12.0634 23.6624 12.0297 23.6624 11.9772C23.6624 12.0147 23.7262 11.9884 23.7262 11.9772C23.7412 11.9284 23.7524 11.8834 23.7712 11.8497C23.7937 11.7972 23.8199 11.7297 23.8724 11.6997C23.9287 11.6547 23.9024 11.6097 24.0187 11.5497V11.5497ZM25.4212 15.0934C25.4324 15.1422 25.4587 15.1947 25.4662 15.2284C25.4737 15.2584 25.4587 15.2697 25.4512 15.2884C25.4008 15.3929 25.3654 15.504 25.3462 15.6184C25.3462 15.6634 25.3087 15.7084 25.2974 15.7384C25.2787 15.7684 25.2862 15.7947 25.3274 15.8247C25.3424 15.8359 25.4024 15.8172 25.4062 15.7872C25.4324 15.8097 25.4662 15.8022 25.4849 15.7684C25.5074 15.7872 25.5412 15.7759 25.5599 15.7422C25.5787 15.7534 25.6087 15.7309 25.6199 15.7122C25.6499 15.7272 25.6799 15.7122 25.6799 15.6522C25.6799 15.6372 25.6912 15.6147 25.6987 15.6034C25.7062 15.5884 25.7099 15.5622 25.7099 15.5397C25.7099 15.5134 25.7212 15.4647 25.7437 15.4347C25.7662 15.3972 25.7999 15.3409 25.7849 15.2847C25.7699 15.2322 25.7474 15.2359 25.7287 15.1647C25.6799 15.1122 25.6162 15.0447 25.5487 15.0372C25.4812 15.0372 25.4437 15.0784 25.4212 15.0934V15.0934ZM24.1874 15.4647C24.2512 15.5247 24.3862 15.5247 24.4799 15.4272C24.4462 15.4122 24.3674 15.3747 24.3374 15.3522C24.2956 15.3995 24.2446 15.4378 24.1874 15.4647V15.4647Z" fill="#FFE1CF" stroke="black" stroke-width="0.0266667"/>
<path d="M24.8008 8.5871C24.8233 8.4371 24.932 8.4371 24.9995 8.45585C25.0295 8.4596 25.097 8.4671 25.1645 8.44835C25.292 8.4146 25.3895 8.4596 25.3745 8.58335C25.412 8.6096 25.4495 8.6696 25.4383 8.7221C25.4345 8.7746 25.4458 8.7971 25.4908 8.80085C25.5395 8.80835 25.6408 8.86835 25.5733 8.95085C25.637 8.98835 25.6858 9.0896 25.652 9.15335C25.6183 9.22085 25.517 9.2321 25.472 9.1721C25.4233 9.1946 25.3483 9.19835 25.2995 9.1496C25.2658 9.1871 25.187 9.18335 25.1683 9.1496C25.1533 9.1121 25.1308 9.0971 25.097 9.08585C25.0633 9.0746 25.0595 8.98085 25.112 8.9696C25.1083 8.9396 25.112 8.9096 25.1233 8.8946C25.1345 8.8796 25.1233 8.8496 25.0933 8.8271C25.0633 8.80085 25.037 8.7146 25.067 8.6621C25.0145 8.68085 24.902 8.62835 24.8795 8.5946C24.8533 8.5571 24.8195 8.5571 24.8008 8.5871V8.5871Z" fill="#870F00" stroke="black" stroke-width="0.025"/>
<path d="M24.8362 9.2546C24.9187 9.24335 24.9487 9.19459 25.0087 9.19459M24.6562 9.01835L24.675 9.0296C24.69 9.04085 24.7125 9.04459 24.7275 9.04459M24.6788 8.92835L24.7163 8.95084M24.8737 8.5871C24.825 8.53835 24.9562 8.4446 25.0987 8.5796C25.1287 8.6096 25.1925 8.60959 25.2112 8.60209M25.0688 8.6621C25.1363 8.6471 25.23 8.6471 25.26 8.7221C25.29 8.7971 25.3462 8.7446 25.3912 8.8346C25.4362 8.92085 25.5037 9.0146 25.5787 8.9471M25.3013 9.1496C25.2906 9.13173 25.2837 9.11183 25.2811 9.09117C25.2785 9.07051 25.2803 9.04954 25.2862 9.0296C25.26 8.9996 25.2712 8.93585 25.2862 8.90585M25.1138 8.96959C25.1138 8.99584 25.1512 9.04459 25.2037 9.05209M25.4737 9.1721C25.4437 9.1346 25.4475 9.09709 25.455 9.05209" stroke="black" stroke-width="0.0266667"/>
<path d="M25.1611 8.73773C25.1611 8.77898 25.1836 8.83148 25.2211 8.85023C25.2323 8.87273 25.2736 8.93273 25.3636 8.92523M25.3786 8.58773C25.3236 8.53818 25.2562 8.50448 25.1836 8.49023M24.8536 9.82523C24.7786 9.92648 24.7336 10.0652 24.7636 10.2602C24.8011 10.4552 24.8536 10.7402 24.7148 10.8677M25.4123 11.2465C25.3148 11.2202 25.1723 11.2202 25.0936 11.2802C25.0186 11.3365 24.8836 11.3402 24.7973 11.2952" stroke="black" stroke-width="0.0266667"/>
<path d="M25.2017 11.2345C25.1155 11.2495 25.078 11.3133 25.078 11.4745C25.078 11.632 25.0405 11.8645 25.0705 12.097M25.048 11.3058C24.988 11.3208 24.928 11.3208 24.943 11.4745M24.7517 11.4745C24.7555 11.3845 24.7892 11.2945 24.8492 11.3133M25.378 11.497C25.378 11.287 25.333 11.2308 25.273 11.2345C25.3555 11.2345 25.4117 11.2458 25.4492 11.5795C25.4717 11.8345 25.5242 11.917 25.588 12.1195C25.7417 12.6295 25.663 13.4133 25.7417 13.6945M25.258 11.557C25.4727 12.1555 25.4673 12.8109 25.243 13.4058C25.423 13.9083 25.603 14.272 25.6367 14.4783M24.7405 12.6783C24.7705 12.5695 24.658 12.5583 24.7555 12.1795C24.7967 12.0145 24.8042 11.917 24.778 11.8645" stroke="black" stroke-width="0.0266667"/>
<path d="M24.7784 12.0898C24.7409 12.2548 24.9022 12.5698 24.8234 12.8023M24.6172 12.8436C24.6172 12.9936 24.6509 13.1811 24.6434 13.3311C24.6359 13.4773 24.6959 13.5448 24.7634 13.6836C25.0184 14.1861 25.1834 14.5423 25.1647 15.0148C25.1572 15.1048 25.1872 15.2848 25.0972 15.3373M24.6247 15.4648C24.6509 15.4648 24.6772 15.4498 24.7109 15.3748C24.7924 15.0951 24.8229 14.8029 24.8009 14.5123M24.8534 14.8723C24.8684 14.9698 24.8684 15.1723 24.8047 15.3373" stroke="black" stroke-width="0.0266667"/>
<path d="M25.0169 14.5766C25.0544 14.7866 25.0544 14.9778 25.0207 15.1128M24.9307 15.1128C24.9382 15.1953 24.9757 15.4128 24.9119 15.4316M25.2569 14.1078C25.4182 14.3591 25.5419 14.9778 25.6769 15.1053M25.3919 15.0078C25.3919 14.9403 25.3882 14.8428 25.3469 14.7978M23.6632 11.9778C23.6669 11.9328 23.6594 11.8878 23.7119 11.8128M23.5882 12.0078C23.5957 11.8428 23.5919 11.8278 23.6407 11.7828M23.5207 12.0116C23.5207 11.8916 23.5094 11.8503 23.5582 11.7753M24.1169 8.44531L23.9482 8.57281M24.1657 8.48281C24.1469 8.48281 24.0869 8.53531 23.9782 8.61781M24.1694 8.55031C24.1319 8.56531 24.0719 8.62531 24.0119 8.67031M23.9032 8.53906L23.8432 8.59906M25.4069 15.7878C25.3994 15.7803 25.3994 15.7391 25.4182 15.6978M25.4894 15.7691C25.4744 15.7578 25.4894 15.7053 25.4969 15.6716M25.5607 15.7428C25.5457 15.7353 25.5419 15.7053 25.5607 15.6678M25.6169 15.7128C25.6094 15.7128 25.6057 15.6903 25.6207 15.6453" stroke="black" stroke-width="0.0266667"/>
<path d="M24.7709 8.7268C24.8009 8.7643 24.8347 8.7643 24.8384 8.7868C24.8459 8.8168 24.8497 8.8168 24.8534 8.8243C24.8609 8.8318 24.8384 8.8318 24.8309 8.8243H24.7784C24.7634 8.8243 24.7484 8.80555 24.7559 8.80555C24.7672 8.8018 24.7672 8.79805 24.7634 8.79055C24.7634 8.7793 24.7709 8.76805 24.7784 8.7643L24.7747 8.75305C24.7672 8.7418 24.7634 8.71555 24.7709 8.72305V8.7268ZM24.7897 8.68555C24.8372 8.69234 24.8816 8.71324 24.9172 8.74555C24.9434 8.77555 24.9209 8.76805 24.9097 8.76805C24.8984 8.76805 24.8722 8.76055 24.8572 8.74555C24.8375 8.72489 24.813 8.70943 24.7859 8.70055C24.7747 8.70055 24.7634 8.68555 24.7859 8.68555H24.7897Z" fill="black"/>
<path d="M6 3H18V12H6V3Z" fill="#012169"/>
<path d="M7.40625 3L11.9813 6.39375L16.5375 3H18V4.1625L13.5 7.51875L18 10.8563V12H16.5L12 8.64375L7.51875 12H6V10.875L10.4813 7.5375L6 4.2V3H7.40625Z" fill="white"/>
<path d="M13.95 8.26875L18 11.25V12L12.9188 8.26875H13.95ZM10.5 8.64375L10.6125 9.3L7.0125 12H6L10.5 8.64375ZM18 3V3.05625L13.3313 6.58125L13.3688 5.75625L17.0625 3H18ZM6 3L10.4813 6.3H9.35625L6 3.7875V3Z" fill="#C8102E"/>
<path d="M10.5188 3V12H13.5188V3H10.5188ZM6 6V9H18V6H6Z" fill="white"/>
<path d="M6 6.61875V8.41875H18V6.61875H6ZM11.1188 3V12H12.9188V3H11.1188Z" fill="#C8102E"/>
</g>
</g>
<defs>
<filter id="filter0_d_336_28478" x="0" y="-2" width="36" height="36" filterUnits="userSpaceOnUse" color-interpolation-filters="sRGB">
<feFlood flood-opacity="0" result="BackgroundImageFix"/>
<feColorMatrix in="SourceAlpha" type="matrix" values="0 0 0 0 0 0 0 0 0 0 0 0 0 0 0 0 0 0 127 0" result="hardAlpha"/>
<feOffset dy="4"/>
<feGaussianBlur stdDeviation="3"/>
<feComposite in2="hardAlpha" operator="out"/>
<feColorMatrix type="matrix" values="0 0 0 0 0 0 0 0 0 0 0 0 0 0 0 0 0 0 0.16 0"/>
<feBlend mode="normal" in2="BackgroundImageFix" result="effect1_dropShadow_336_28478"/>
<feBlend mode="normal" in="SourceGraphic" in2="effect1_dropShadow_336_28478" result="shape"/>
</filter>
<clipPath id="clip0_336_28478">
<rect width="24" height="18" fill="white" transform="translate(6 3)"/>
</clipPath>
</defs>
</svg>
