<svg width="36" height="31" viewBox="0 0 36 31" fill="none" xmlns="http://www.w3.org/2000/svg">
<g filter="url(#filter0_d_336_28921)">
<g clip-path="url(#clip0_336_28921)">
<path fill-rule="evenodd" clip-rule="evenodd" d="M18 3H30V21H18V3Z" fill="#CE0000"/>
<path fill-rule="evenodd" clip-rule="evenodd" d="M6 3H18V21H6V3Z" fill="white"/>
<path fill-rule="evenodd" clip-rule="evenodd" d="M11.8179 8.3183C11.8179 8.37225 11.764 8.40822 11.698 8.40822C11.6261 8.40822 11.5781 8.37225 11.5781 8.3243C11.5781 8.27634 11.6261 8.23438 11.698 8.23438C11.764 8.23438 11.8179 8.27634 11.8179 8.3243V8.3183Z" fill="#F1EEEE"/>
<path fill-rule="evenodd" clip-rule="evenodd" d="M7.97656 7.89918V10.1292H10.2126C10.2126 10.5009 10.5843 10.8726 10.956 10.8726V13.1026H13.192V10.8726C13.5637 10.8726 13.9353 10.5009 13.9353 10.1292H16.1654V7.89918H13.9293C13.9293 7.5275 13.5577 7.15583 13.186 7.15583V4.92578H10.956V7.15583C10.5783 7.15583 10.2066 7.5275 10.2066 7.89918H7.97656Z" fill="#CC0000"/>
<path fill-rule="evenodd" clip-rule="evenodd" d="M8.05469 7.97144V10.0576H10.2847C10.2847 10.4293 10.6564 10.801 11.0281 10.801V13.031H13.1083V10.807C13.4799 10.807 13.8516 10.4353 13.8516 10.0636H16.0877V7.97744H13.8576C13.8576 7.60576 13.4859 7.23409 13.1143 7.23409V4.99805H11.0281V7.22809C10.6564 7.22809 10.2847 7.59977 10.2847 7.97144H8.05469V7.97144Z" fill="#FFE600"/>
<path fill-rule="evenodd" clip-rule="evenodd" d="M8.125 8.04957V9.97988H10.355C10.355 10.3516 10.7267 10.7232 11.0984 10.7232V12.9533H13.0347V10.7232C13.4064 10.7232 13.778 10.3516 13.778 9.97988H16.0081V8.04957H13.778C13.778 7.67789 13.4064 7.30622 13.0347 7.30622V5.07617H11.0984V7.30022C10.7267 7.30022 10.355 7.6719 10.355 8.04357H8.125V8.04957Z" fill="#707070"/>
<path fill-rule="evenodd" clip-rule="evenodd" d="M8.20521 8.12183V9.90827H10.4353C10.4353 10.2799 10.8069 10.6516 11.1786 10.6516V12.8757H12.9591V10.6456C13.3307 10.6456 13.7024 10.2739 13.7024 9.90227H15.9324V8.11584H13.7024C13.7024 7.74416 13.3307 7.37249 12.9591 7.37249V5.14844H11.1786V7.37848C10.8069 7.37848 10.4353 7.75016 10.4353 8.12183H8.19922H8.20521Z" fill="#A0A0A0"/>
<path fill-rule="evenodd" clip-rule="evenodd" d="M11.1949 7.19161C11.3208 7.32349 11.2188 7.64121 10.9551 7.90498C10.6913 8.16875 10.3796 8.26467 10.2477 8.14477C10.1158 8.00689 10.2237 7.68917 10.4875 7.4254C10.7513 7.16163 11.063 7.06572 11.1949 7.19161Z" fill="#D0D0D0"/>
<path fill-rule="evenodd" clip-rule="evenodd" d="M11.0333 7.34835C11.1652 7.48023 11.1292 7.72602 10.9554 7.90586C10.7815 8.0857 10.5357 8.11568 10.4039 7.98379C10.272 7.85191 10.3079 7.60612 10.4818 7.43227C10.6556 7.25843 10.9014 7.22246 11.0333 7.34835V7.34835Z" fill="#808080"/>
<path fill-rule="evenodd" clip-rule="evenodd" d="M10.3789 7.74277L10.4269 7.69481L10.6367 7.79672L10.5348 7.58691L10.5887 7.53295L10.7985 7.95258L10.3789 7.74277ZM10.6906 7.43104L10.7506 7.37109L11.0623 7.69481L11.0084 7.74277L10.6906 7.43104Z" fill="#D0D0D0"/>
<path fill-rule="evenodd" clip-rule="evenodd" d="M13.8891 8.13822C13.7572 8.27011 13.4395 8.1622 13.1817 7.89843C12.924 7.63466 12.8101 7.32294 12.9419 7.19105C13.0738 7.05917 13.3916 7.16707 13.6553 7.43084C13.9191 7.69461 14.015 8.00634 13.8951 8.13822H13.8891Z" fill="#D0D0D0"/>
<path fill-rule="evenodd" clip-rule="evenodd" d="M13.7338 7.98252C13.6019 8.11441 13.3561 8.07844 13.1823 7.90459C13.0084 7.73074 12.9725 7.48496 13.0983 7.35308C13.2302 7.22119 13.482 7.25716 13.6559 7.43101C13.8297 7.60485 13.8657 7.85064 13.7338 7.98252Z" fill="#808080"/>
<path fill-rule="evenodd" clip-rule="evenodd" d="M13.3387 7.32227L13.3927 7.37622L13.2848 7.58603L13.4946 7.47813L13.5545 7.53808L13.1289 7.7419L13.3387 7.32227V7.32227ZM13.6564 7.63999L13.7044 7.68795L13.3927 8.00567L13.3387 7.95171L13.6564 7.63999Z" fill="#D0D0D0"/>
<path fill-rule="evenodd" clip-rule="evenodd" d="M12.9391 10.8369C12.8072 10.705 12.9151 10.3873 13.1789 10.1235C13.4427 9.85976 13.7544 9.75785 13.8863 9.88374C14.0182 10.0156 13.9102 10.3333 13.6465 10.5971C13.3827 10.8609 13.071 10.9628 12.9391 10.8369V10.8369Z" fill="#D0D0D0"/>
<path fill-rule="evenodd" clip-rule="evenodd" d="M13.1031 10.6759C12.9712 10.544 13.0072 10.2982 13.181 10.1244C13.3549 9.95052 13.6006 9.91455 13.7325 10.0464C13.8644 10.1783 13.8284 10.4241 13.6546 10.598C13.4807 10.7718 13.235 10.8078 13.0971 10.6759H13.1031Z" fill="#808080"/>
<path fill-rule="evenodd" clip-rule="evenodd" d="M13.7555 10.2801L13.7016 10.3401L13.4918 10.2322L13.5997 10.442L13.5457 10.4899L13.3359 10.0703L13.7555 10.2801ZM13.4498 10.5979L13.3899 10.6518L13.0781 10.3341L13.1321 10.2801L13.4498 10.5979Z" fill="#D0D0D0"/>
<path fill-rule="evenodd" clip-rule="evenodd" d="M10.2484 9.88847C10.3803 9.75658 10.698 9.86449 10.9558 10.1223C11.2136 10.38 11.3215 10.7038 11.1956 10.8296C11.0637 10.9615 10.746 10.8596 10.4822 10.5958C10.2185 10.3321 10.1225 10.0144 10.2424 9.88847H10.2484Z" fill="#D0D0D0"/>
<path fill-rule="evenodd" clip-rule="evenodd" d="M10.4039 10.0445C10.5357 9.9126 10.7815 9.94857 10.9554 10.1224C11.1292 10.2963 11.1652 10.542 11.0333 10.6739C10.9074 10.8058 10.6556 10.7698 10.4818 10.596C10.3079 10.4222 10.272 10.1764 10.4039 10.0445Z" fill="#808080"/>
<path fill-rule="evenodd" clip-rule="evenodd" d="M10.7993 10.7029L10.7453 10.643L10.8532 10.4392L10.6434 10.5411L10.5835 10.4871L11.0091 10.2773L10.7993 10.6969V10.7029ZM10.4816 10.3852L10.4336 10.3313L10.7453 10.0195L10.7993 10.0675L10.4816 10.3852Z" fill="#D0D0D0"/>
<path d="M13.6334 9.01624C13.6334 9.87657 12.9344 10.5774 12.0715 10.5774C11.2086 10.5774 10.5117 9.87866 10.5117 9.01624C10.5117 8.15383 11.2107 7.45508 12.0736 7.45508C12.9365 7.45508 13.6354 8.15383 13.6354 9.01624H13.6334Z" stroke="#707070" stroke-width="0.0614477"/>
<path d="M13.2534 9.01173C13.2534 9.66721 12.7208 10.2012 12.0634 10.2012C11.406 10.2012 10.875 9.66881 10.875 9.01173C10.875 8.35465 11.4075 7.82227 12.065 7.82227C12.7224 7.82227 13.2549 8.35465 13.2549 9.01173H13.2534Z" stroke="#707070" stroke-width="0.0468171"/>
<path fill-rule="evenodd" clip-rule="evenodd" d="M11.5483 10.28C11.5483 10.2999 11.5404 10.3189 11.5264 10.333C11.5123 10.3471 11.4932 10.3549 11.4734 10.3549C11.4535 10.3549 11.4344 10.3471 11.4204 10.333C11.4063 10.3189 11.3984 10.2999 11.3984 10.28C11.3984 10.2601 11.4063 10.2411 11.4204 10.227C11.4344 10.213 11.4535 10.2051 11.4734 10.2051C11.4932 10.2051 11.5123 10.213 11.5264 10.227C11.5404 10.2411 11.5483 10.2601 11.5483 10.28V10.28ZM12.7353 10.28C12.7353 10.2999 12.7274 10.3189 12.7133 10.333C12.6993 10.3471 12.6802 10.3549 12.6603 10.3549C12.6405 10.3549 12.6214 10.3471 12.6073 10.333C12.5933 10.3189 12.5854 10.2999 12.5854 10.28C12.5854 10.2601 12.5933 10.2411 12.6073 10.227C12.6214 10.213 12.6405 10.2051 12.6603 10.2051C12.6802 10.2051 12.6993 10.213 12.7133 10.227C12.7274 10.2411 12.7353 10.2601 12.7353 10.28ZM12.0159 10.28V10.3579H11.92C11.8181 10.3579 11.8181 10.4359 11.92 10.4359H12.0159V10.5078C12.0159 10.5917 12.1058 10.5977 12.1118 10.5138V10.4299H12.2137C12.3156 10.4299 12.3156 10.3579 12.2137 10.3579H12.1178V10.28C12.1178 10.2021 12.0159 10.2021 12.0159 10.28Z" fill="#D0D0D0"/>
<path fill-rule="evenodd" clip-rule="evenodd" d="M11.6999 9.17553V9.22349C11.6999 9.22349 11.6759 9.25346 11.526 9.26545C11.3762 9.27744 11.3522 9.26545 11.3522 9.26545C11.3582 9.30741 11.3882 9.37935 11.3762 9.46328C11.3822 9.56519 11.3522 9.65511 11.3522 9.65511C11.3522 9.66111 11.3342 9.6671 11.3042 9.6611C11.3282 9.63713 11.3282 9.57718 11.3282 9.48126C11.3282 9.39734 11.2383 9.25946 11.2563 9.22349C11.2743 9.18752 11.6999 9.17553 11.6999 9.17553V9.17553ZM12.2874 9.01967L12.677 9.01367C12.677 9.01367 12.737 9.13357 12.731 9.19351C12.731 9.25346 12.707 9.31341 12.683 9.28344C12.6531 9.25346 12.695 9.25946 12.701 9.19351C12.701 9.12158 12.6531 9.05564 12.6531 9.05564C12.6531 9.05564 12.5452 9.0976 12.3893 9.0916C12.2334 9.07961 12.3054 9.01967 12.2874 9.01967Z" fill="#D0D0D0" stroke="#707070" stroke-width="0.0133217"/>
<path fill-rule="evenodd" clip-rule="evenodd" d="M12.3327 9.13369C12.4766 9.12769 12.5725 9.14568 12.5725 9.14568C12.5725 9.14568 12.6325 9.26557 12.6325 9.32552C12.6265 9.38547 12.6085 9.44542 12.5785 9.41544C12.5545 9.39146 12.5905 9.39746 12.5965 9.32552C12.5965 9.25958 12.5485 9.18764 12.5485 9.18764C12.5485 9.18764 12.4466 9.2296 12.2908 9.22361C12.1349 9.21162 12.1829 9.20562 12.1649 9.19963C12.1469 9.19963 12.1409 9.24759 11.9071 9.25358C11.6673 9.25358 11.5474 9.19963 11.5474 9.19963C11.5474 9.19963 11.5234 9.2356 11.3796 9.24759H11.1997C11.2057 9.28356 11.2357 9.35549 11.2297 9.44542C11.2297 9.54133 11.1997 9.63725 11.1997 9.63725H11.1578C11.1817 9.61926 11.1757 9.55332 11.1817 9.4634C11.1817 9.37348 11.0858 9.24159 11.1038 9.19963C11.1278 9.16366 11.2357 9.19963 11.2537 9.18165C11.2717 9.15767 11.1578 9.01979 11.1817 8.8939C11.1997 8.76801 11.3256 8.80398 11.4755 8.80398C11.6254 8.80997 11.9551 8.85193 12.039 8.80398C12.1229 8.76201 12.0869 8.60016 12.1589 8.49824C12.1828 8.4691 12.213 8.44583 12.2473 8.43023C12.2816 8.41464 12.3191 8.40715 12.3567 8.40832C12.4107 8.40832 12.4766 8.58817 12.4766 8.63013L12.4586 8.65411H12.4346V8.67209C12.3747 8.67809 12.3687 8.62413 12.3327 8.58817C12.3207 8.64811 12.3807 8.85193 12.3807 8.98382C12.3807 9.09172 12.3387 9.13968 12.3327 9.13369V9.13369Z" fill="#D0D0D0" stroke="#707070" stroke-width="0.0133217"/>
<path fill-rule="evenodd" clip-rule="evenodd" d="M11.8598 8.94201C11.8598 8.98397 11.674 9.08588 11.656 9.12185C11.644 9.16382 11.704 9.1818 11.686 9.20578C11.668 9.22976 11.65 9.21777 11.644 9.22376L11.5721 9.07389C11.5721 9.07389 11.7519 8.98997 11.7459 8.954C11.7399 8.91803 11.6141 8.89405 11.5901 8.81013C11.5661 8.7262 11.5781 8.55235 11.5601 8.51638C11.5421 8.48041 11.3203 8.44445 11.3203 8.39649C11.3203 8.33654 11.5481 8.19267 11.5721 8.16869C11.5961 8.14471 11.62 8.19267 11.5961 8.21065C11.5721 8.23463 11.3982 8.37251 11.3982 8.39049C11.3982 8.41447 11.5421 8.43845 11.5901 8.43845C11.644 8.43845 11.668 8.41447 11.668 8.39049C11.668 8.37251 11.6141 8.37251 11.6141 8.33055C11.6141 8.28858 11.644 8.25861 11.692 8.25861C11.716 8.25861 11.7639 8.28858 11.7639 8.32455C11.7639 8.36052 11.722 8.36651 11.716 8.39049C11.71 8.42047 11.7639 8.43845 11.8119 8.43845C11.8598 8.43845 12.0277 8.56434 12.0517 8.58832C12.0816 8.6063 12.1056 8.6063 12.0816 8.63028C12.0577 8.65426 12.0697 8.67824 12.0457 8.65426C12.034 8.64272 12.0257 8.62821 12.0217 8.6123C12.0217 8.59431 11.8419 8.50439 11.8119 8.52238C11.7879 8.54636 11.8119 8.81013 11.8119 8.8341C11.8119 8.87607 11.8658 8.87607 11.8598 8.94201V8.94201Z" fill="#D0D0D0" stroke="#707070" stroke-width="0.0133217"/>
<path fill-rule="evenodd" clip-rule="evenodd" d="M11.5508 8.43359H11.8505V8.73933H11.5508V8.43359Z" fill="#A7A7A7"/>
<path d="M12.5043 9.53685L11.5205 8.0601C11.5113 8.04632 11.4992 8.03768 11.4933 8.0408C11.4875 8.04391 11.4902 8.05761 11.4994 8.07138L12.4832 9.54813C12.4923 9.56191 12.5045 9.57055 12.5104 9.56743C12.5162 9.56432 12.5135 9.55062 12.5043 9.53685Z" fill="#808080"/>
<path fill-rule="evenodd" clip-rule="evenodd" d="M11.6258 8.19247C11.6258 8.20415 11.6206 8.21535 11.6114 8.2236C11.6021 8.23186 11.5896 8.2365 11.5766 8.2365C11.5635 8.2365 11.551 8.23186 11.5418 8.2236C11.5325 8.21535 11.5273 8.20415 11.5273 8.19247C11.5273 8.18079 11.5325 8.16959 11.5418 8.16133C11.551 8.15308 11.5635 8.14844 11.5766 8.14844C11.5896 8.14844 11.6021 8.15308 11.6114 8.16133C11.6206 8.16959 11.6258 8.18079 11.6258 8.19247V8.19247Z" fill="#D0D0D0" stroke="#707070" stroke-width="0.0194266"/>
<path fill-rule="evenodd" clip-rule="evenodd" d="M12.4838 8.58802C12.4838 8.606 12.3639 8.62998 12.238 8.62998C12.1061 8.62998 11.9922 8.606 11.9922 8.58802C11.9922 8.57004 12.1061 8.61799 12.232 8.61799C12.3699 8.61799 12.4838 8.57004 12.4838 8.58802V8.58802Z" fill="#808080"/>
<path fill-rule="evenodd" clip-rule="evenodd" d="M11.5742 8.73828H11.82V8.8282H11.5802L11.5742 8.73828Z" fill="#A7A7A7"/>
<path fill-rule="evenodd" clip-rule="evenodd" d="M12.3722 8.52352C12.3482 8.57147 12.3302 8.60145 12.3242 8.59545C12.3242 8.59545 12.3362 8.54749 12.3602 8.50553L12.4081 8.43359C12.4141 8.43959 12.3962 8.48155 12.3722 8.52352ZM12.4321 8.64341L12.3842 8.67338C12.3966 8.65253 12.4129 8.63422 12.4321 8.61943C12.4621 8.59545 12.4861 8.58346 12.4861 8.58946L12.4381 8.63742L12.4321 8.64341Z" fill="#808080"/>
<path fill-rule="evenodd" clip-rule="evenodd" d="M12.4054 8.58338L12.4354 8.65532L12.3874 8.59537L12.3574 8.52344L12.4054 8.58338ZM12.3814 8.77522C12.3814 8.77522 12.3095 8.78721 12.2136 8.78721C12.1177 8.78721 12.0397 8.78121 12.0397 8.77522L12.2136 8.76323C12.3095 8.76323 12.3814 8.76323 12.3814 8.77522ZM11.8179 8.75124C11.8179 8.75723 11.764 8.76323 11.698 8.76323C11.6261 8.76323 11.5781 8.76323 11.5781 8.75124C11.5781 8.75124 11.6261 8.73925 11.698 8.73925C11.764 8.73925 11.8179 8.74524 11.8179 8.75124Z" fill="#808080"/>
<path fill-rule="evenodd" clip-rule="evenodd" d="M11.2812 9.51868C11.2812 9.51868 11.3232 9.6146 11.4971 9.6146C11.6649 9.6146 11.7249 9.58462 11.6589 9.53666C11.593 9.48871 11.4551 9.5007 11.4791 9.54266C11.4911 9.59062 11.4251 9.60261 11.4131 9.57263C11.3952 9.54266 11.3352 9.44674 11.4431 9.44075C11.557 9.43475 11.7908 9.39879 11.8508 9.46473C11.9107 9.53067 11.7848 9.58462 11.8807 9.60261C11.9706 9.6146 11.9886 9.58462 12.1505 9.57863C12.3123 9.56664 12.3783 9.6086 12.4322 9.60261C12.4922 9.60261 12.4802 9.5007 12.4322 9.48271C12.3903 9.45274 12.3064 9.44674 12.2824 9.42276C12.2644 9.39279 12.2044 9.42276 12.2104 9.3868C12.2104 9.35682 12.2944 9.40478 12.2944 9.39279L12.3064 9.3808H12.2884L12.2944 9.36881L12.2824 9.37481L12.2884 9.36282C12.2884 9.36282 12.2704 9.37481 12.2704 9.36282H12.2584C12.2704 9.35083 12.2644 9.35083 12.2584 9.34483H12.2404V9.32685C12.2284 9.32685 12.2284 9.32685 12.2224 9.33884V9.30886C12.2224 9.30287 12.2344 9.29688 12.2524 9.29688C12.2944 9.29688 12.3123 9.34483 12.3303 9.34483C12.3423 9.34483 12.3603 9.29687 12.4143 9.31486L12.5042 9.35083C12.5342 9.36881 12.4862 9.3868 12.5042 9.41077C12.5222 9.43475 12.6301 9.51269 12.6001 9.60261C12.5701 9.68653 12.4802 9.69852 12.4802 9.73449C12.4682 9.77046 12.738 9.75847 12.8039 9.77046C12.8498 9.77878 12.8906 9.80457 12.9178 9.8424L12.7979 9.84839C12.7979 9.84839 12.738 9.81842 12.5881 9.81242C12.4382 9.81242 12.3843 9.75248 12.3243 9.74049L12.0845 9.75248L11.9047 9.73449C11.8687 9.7285 11.6529 9.83041 11.6529 9.85439H11.5091C11.5091 9.85439 11.527 9.80043 11.611 9.79444C11.6889 9.78245 11.7728 9.74648 11.7668 9.7225L11.7908 9.56664C11.7908 9.53067 11.8268 9.50669 11.8208 9.4947C11.8148 9.47072 11.7189 9.45274 11.6289 9.45274C11.539 9.45274 11.4431 9.45873 11.4251 9.47672C11.4131 9.5007 11.4251 9.56664 11.4431 9.55465C11.4611 9.55465 11.4371 9.50669 11.4551 9.5007C11.4939 9.48876 11.5344 9.4827 11.575 9.48271C11.623 9.48271 11.7009 9.52467 11.7009 9.54266C11.7009 9.54865 11.7249 9.59062 11.6889 9.6086C11.6291 9.62844 11.566 9.63658 11.5031 9.63258C11.4404 9.62931 11.3792 9.61298 11.3232 9.58462C11.2992 9.56664 11.2812 9.52468 11.2812 9.51868V9.51868Z" fill="#D0D0D0" stroke="#808080" stroke-width="0.0133217"/>
<path fill-rule="evenodd" clip-rule="evenodd" d="M12.3719 9.36759C12.3719 9.36996 12.3714 9.37229 12.3705 9.37448C12.3696 9.37666 12.3683 9.37864 12.3666 9.38031C12.365 9.38198 12.363 9.38331 12.3608 9.38421C12.3586 9.38511 12.3563 9.38558 12.3539 9.38558C12.3516 9.38558 12.3492 9.38511 12.347 9.38421C12.3449 9.38331 12.3429 9.38198 12.3412 9.38031C12.3395 9.37864 12.3382 9.37666 12.3373 9.37448C12.3364 9.37229 12.3359 9.36996 12.3359 9.36759C12.3359 9.36282 12.3378 9.35825 12.3412 9.35488C12.3446 9.3515 12.3492 9.34961 12.3539 9.34961C12.3587 9.34961 12.3633 9.3515 12.3666 9.35488C12.37 9.35825 12.3719 9.36282 12.3719 9.36759V9.36759Z" fill="black"/>
<path d="M13.2979 9.08652L13.3938 9.1045L13.5557 8.9966L13.5437 9.05655L13.4598 9.1105L13.4118 9.13448L13.4418 9.18244L13.4958 9.26636L13.4838 9.32631L13.3819 9.15246L13.2859 9.13448L13.2979 9.08652V9.08652ZM13.1361 8.37914L13.3159 8.29521L13.268 8.18731L13.2919 8.17532L13.4118 8.43909L13.3938 8.45108L13.3399 8.33718L13.16 8.4271L13.1361 8.37914V8.37914ZM12.8483 8.03144L13.0162 7.87558L13.0521 7.91155V8.17532L13.184 8.05542L13.214 8.09139L13.0461 8.24726L13.0102 8.21129V7.94752L12.8783 8.06741L12.8483 8.03144ZM12.105 7.73171L12.1349 7.50391H12.1829L12.1529 7.71372L12.3328 7.73171V7.76168L12.105 7.73171ZM11.7393 7.76768L11.6973 7.53987L11.7453 7.52789L11.7813 7.73171L11.9611 7.69574V7.72571L11.7393 7.76768V7.76768ZM11.0619 8.09739L11.0439 8.0794L11.1638 7.98349L11.2237 8.04343C11.2109 8.06935 11.1947 8.09352 11.1758 8.11537C11.1602 8.13741 11.1421 8.15754 11.1218 8.17532C11.0965 8.19557 11.0682 8.21175 11.0379 8.22328C11.0079 8.22927 10.978 8.23527 10.96 8.22328C10.937 8.22082 10.9158 8.21018 10.9 8.1933C10.8879 8.1757 10.8816 8.15473 10.882 8.13335C10.882 8.10938 10.888 8.0794 10.906 8.05542C10.918 8.03144 10.942 8.00747 10.966 7.98948C10.9859 7.97256 11.0081 7.95844 11.0319 7.94752L11.0859 7.93553C11.0979 7.93553 11.1158 7.93553 11.1278 7.94752L11.1038 7.97749C11.0925 7.97268 11.0802 7.97062 11.0679 7.9715L11.0319 7.97749C11.0166 7.98555 11.0025 7.99563 10.9899 8.00747C10.972 8.01945 10.954 8.03144 10.948 8.04943C10.9379 8.05987 10.9298 8.07205 10.924 8.0854V8.11537C10.924 8.13335 10.93 8.15134 10.942 8.16333L10.984 8.1933L11.0439 8.18731C11.0991 8.16401 11.1438 8.12138 11.1698 8.06741L11.1458 8.03144L11.0619 8.09739V8.09739ZM11.0559 9.75793L10.8641 9.89581L10.7202 9.69199L10.7442 9.67401L10.8641 9.83586L10.918 9.7939L10.8221 9.65602L10.8401 9.64403L10.942 9.78191L11.0259 9.72196L11.0559 9.75793V9.75793ZM10.7741 9.45819C10.8041 9.4522 10.8221 9.43422 10.8341 9.40424V9.31432C10.8246 9.28337 10.8058 9.25614 10.7801 9.23639C10.7621 9.2184 10.7322 9.21241 10.7082 9.2184C10.6892 9.22255 10.6723 9.23314 10.6602 9.24838C10.6542 9.26037 10.6422 9.27835 10.6422 9.29634L10.6482 9.36228C10.6602 9.39825 10.6722 9.42223 10.6962 9.44621C10.7142 9.46419 10.7442 9.47018 10.7741 9.45819V9.45819ZM10.7921 9.50615C10.7746 9.51175 10.7558 9.51247 10.7378 9.50825C10.7199 9.50403 10.7034 9.49502 10.6902 9.48217C10.6582 9.45337 10.6353 9.41587 10.6243 9.37427C10.6123 9.3383 10.6123 9.31432 10.6123 9.27835C10.6123 9.24238 10.6243 9.23039 10.6363 9.21241C10.6499 9.19105 10.6715 9.17596 10.6962 9.17045C10.7163 9.16595 10.7373 9.16806 10.7561 9.17644C10.7801 9.18843 10.7981 9.20042 10.8161 9.2244C10.8529 9.27676 10.8699 9.3405 10.8641 9.40424C10.8619 9.42792 10.8536 9.45064 10.8401 9.47018C10.8281 9.48817 10.8101 9.50016 10.7921 9.50615V9.50615ZM10.8101 9.03856H10.5703V8.87071L10.5823 8.79877L10.6063 8.75681C10.6111 8.75247 10.6168 8.74917 10.623 8.74711C10.6292 8.74505 10.6358 8.74427 10.6422 8.74482C10.6602 8.74482 10.6722 8.75081 10.6842 8.7688C10.6902 8.78678 10.7022 8.81076 10.7022 8.84673C10.7101 8.82142 10.7246 8.79867 10.7442 8.78079L10.8101 8.72084V8.78079L10.7621 8.82275L10.7262 8.85872C10.719 8.86578 10.713 8.87386 10.7082 8.8827C10.7072 8.89066 10.7072 8.89872 10.7082 8.90668V8.93066L10.7022 8.9906H10.8101V9.03856V9.03856ZM10.6782 8.98461V8.8827C10.6802 8.86477 10.6802 8.84667 10.6782 8.82875C10.6761 8.81995 10.672 8.81175 10.6662 8.80477C10.6619 8.79867 10.6555 8.7944 10.6482 8.79278C10.6363 8.79278 10.6243 8.79877 10.6183 8.81076L10.6063 8.87071V8.9906H10.6842L10.6782 8.98461ZM11.3197 7.9715V7.70173L11.3676 7.67176L11.6134 7.79165L11.5654 7.82163L11.4935 7.78566L11.3676 7.86359V7.94752L11.3197 7.9715V7.9715ZM11.3616 7.83362L11.4695 7.77367L11.4096 7.7377C11.391 7.72884 11.373 7.71883 11.3556 7.70773L11.3616 7.75569V7.83362V7.83362ZM12.4766 7.76168L12.7284 7.65977L12.7704 7.68974L12.7524 7.9655L12.7104 7.92953L12.7164 7.8516L12.5965 7.76168L12.5186 7.79165L12.4766 7.76168V7.76168ZM12.6205 7.74969L12.7224 7.82163V7.74969C12.7252 7.72948 12.7292 7.70946 12.7344 7.68974C12.7216 7.70133 12.7076 7.71139 12.6925 7.71972L12.6205 7.74969ZM13.238 8.60694L13.4658 8.55299L13.5017 8.71485L13.5137 8.78678L13.5017 8.82875C13.4987 8.83459 13.4944 8.83974 13.4893 8.84386C13.4841 8.84799 13.4781 8.85101 13.4718 8.85272C13.4538 8.85272 13.4358 8.85272 13.4238 8.84074C13.404 8.82066 13.3896 8.79592 13.3819 8.7688C13.3829 8.77876 13.3829 8.78881 13.3819 8.79877L13.3579 8.84673L13.3099 8.91867L13.2979 8.85872L13.3339 8.79877L13.3579 8.7628C13.366 8.74814 13.3701 8.7316 13.3699 8.71485C13.3686 8.70473 13.3666 8.69471 13.3639 8.68487L13.3519 8.63092L13.25 8.6549L13.238 8.60694V8.60694ZM13.3759 8.62492L13.3998 8.72684C13.3998 8.74482 13.4118 8.7628 13.4178 8.77479C13.4178 8.78678 13.4298 8.79278 13.4358 8.79877L13.4598 8.80477C13.4658 8.80477 13.4778 8.79278 13.4778 8.78079C13.4826 8.7611 13.4826 8.74053 13.4778 8.72084L13.4478 8.60694L13.3759 8.62492V8.62492Z" fill="#D0D0D0"/>
</g>
</g>
<defs>
<filter id="filter0_d_336_28921" x="0" y="-2" width="36" height="36" filterUnits="userSpaceOnUse" color-interpolation-filters="sRGB">
<feFlood flood-opacity="0" result="BackgroundImageFix"/>
<feColorMatrix in="SourceAlpha" type="matrix" values="0 0 0 0 0 0 0 0 0 0 0 0 0 0 0 0 0 0 127 0" result="hardAlpha"/>
<feOffset dy="4"/>
<feGaussianBlur stdDeviation="3"/>
<feComposite in2="hardAlpha" operator="out"/>
<feColorMatrix type="matrix" values="0 0 0 0 0 0 0 0 0 0 0 0 0 0 0 0 0 0 0.16 0"/>
<feBlend mode="normal" in2="BackgroundImageFix" result="effect1_dropShadow_336_28921"/>
<feBlend mode="normal" in="SourceGraphic" in2="effect1_dropShadow_336_28921" result="shape"/>
</filter>
<clipPath id="clip0_336_28921">
<rect width="24" height="18" fill="white" transform="translate(6 3)"/>
</clipPath>
</defs>
</svg>
