<svg width="36" height="31" viewBox="0 0 36 31" fill="none" xmlns="http://www.w3.org/2000/svg">
<g filter="url(#filter0_d_336_33113)">
<g clip-path="url(#clip0_336_33113)">
<path d="M6 3H30V21H6V3Z" fill="#CF142B"/>
<path d="M6 3H30V15H6V3Z" fill="#00247D"/>
<path d="M6 3H30V9H6V3Z" fill="#FFCC00"/>
<path d="M19.0692 9.54493L18.7226 10.2149L19.1128 10.4208L19.0692 9.54493Z" fill="white"/>
<path d="M19.0675 9.54491L19.164 10.293L18.727 10.3531L19.0675 9.54491Z" fill="white"/>
<path d="M19.6798 10.1798L18.9354 10.0572L18.8602 10.4919L19.6798 10.1798Z" fill="white"/>
<path d="M19.6796 10.1795L18.9979 10.5025L18.8058 10.1054L19.6796 10.1795Z" fill="white"/>
<path d="M18.2736 9.93024L18.8037 10.4669L19.1201 10.1595L18.2736 9.93024Z" fill="white"/>
<path d="M18.2733 9.93109L19.0146 10.0704L18.9366 10.5047L18.2733 9.93109Z" fill="white"/>
<path d="M19.2665 10.9561L19.1531 10.2103L18.7164 10.2731L19.2665 10.9561Z" fill="white"/>
<path d="M19.2647 10.9561L18.7469 10.4076L19.0652 10.1021L19.2647 10.9561Z" fill="white"/>
<path d="M18.3984 10.803L19.0726 10.4647L18.878 10.0688L18.3984 10.803Z" fill="white"/>
<path d="M18.3985 10.8025L18.7601 10.1405L19.149 10.3488L18.3985 10.8025Z" fill="white"/>
<path d="M21.0738 10.2746L20.5189 10.7856L20.8151 11.1126L21.0738 10.2746Z" fill="white"/>
<path d="M21.0747 10.2742L20.9095 11.0103L20.4783 10.9172L21.0747 10.2742Z" fill="white"/>
<path d="M21.4337 11.0795L20.7762 10.7097L20.5568 11.0924L21.4337 11.0795Z" fill="white"/>
<path d="M21.4335 11.0787L20.6825 11.1491L20.6377 10.7102L21.4335 11.0787Z" fill="white"/>
<path d="M20.1946 10.367L20.5091 11.0526L20.9116 10.8719L20.1946 10.367Z" fill="white"/>
<path d="M20.1961 10.3674L20.8451 10.7519L20.6233 11.1332L20.1961 10.3674Z" fill="white"/>
<path d="M20.7762 11.67L20.9247 10.9304L20.4929 10.8401L20.7762 11.67Z" fill="white"/>
<path d="M20.7745 11.6698L20.4755 10.9773L20.8791 10.7991L20.7745 11.6698Z" fill="white"/>
<path d="M20.014 11.23L20.7632 11.1427L20.7157 10.7041L20.014 11.23Z" fill="white"/>
<path d="M20.0134 11.2309L20.5796 10.7325L20.8738 11.0613L20.0134 11.2309Z" fill="white"/>
<path d="M22.711 11.6489L22.0149 11.9394L22.1814 12.3479L22.711 11.6489Z" fill="white"/>
<path d="M22.7108 11.648L22.3039 12.2831L21.9305 12.0482L22.7108 11.648Z" fill="white"/>
<path d="M22.7714 12.5287L22.28 11.9563L21.943 12.241L22.7714 12.5287Z" fill="white"/>
<path d="M22.7716 12.5279L22.0417 12.3372L22.1498 11.9095L22.7716 12.5279Z" fill="white"/>
<path d="M21.8531 11.4352L21.9142 12.1871L22.3542 12.1549L21.8531 11.4352Z" fill="white"/>
<path d="M21.8539 11.4358L22.3322 12.0191L21.9934 12.3016L21.8539 11.4358Z" fill="white"/>
<path d="M21.9536 12.8577L22.3461 12.2135L21.9712 11.9809L21.9536 12.8577Z" fill="white"/>
<path d="M21.9527 12.8572L21.9086 12.1041L22.3487 12.0747L21.9527 12.8572Z" fill="white"/>
<path d="M21.3866 12.1818L22.1206 12.356L22.226 11.9276L21.3866 12.1818Z" fill="white"/>
<path d="M21.3868 12.1815L22.0893 11.9068L22.2533 12.3164L21.3868 12.1815Z" fill="white"/>
<path d="M23.7801 13.4966L23.0265 13.5314L23.0433 13.9723L23.7801 13.4966Z" fill="white"/>
<path d="M23.7785 13.4976L23.1789 13.9552L22.9084 13.6067L23.7785 13.4976Z" fill="white"/>
<path d="M23.5375 14.3436L23.2716 13.6377L22.8575 13.7899L23.5375 14.3436Z" fill="white"/>
<path d="M23.5367 14.3439L22.9161 13.9151L23.1639 13.5501L23.5367 14.3439Z" fill="white"/>
<path d="M23.0491 13.0039L22.8493 13.7313L23.2738 13.8515L23.0491 13.0039Z" fill="white"/>
<path d="M23.0486 13.0039L23.2986 13.7157L22.8835 13.8652L23.0486 13.0039Z" fill="white"/>
<path d="M22.6533 14.3761L23.2425 13.905L22.9698 13.5583L22.6533 14.3761Z" fill="white"/>
<path d="M22.6514 14.3758L22.8675 13.6531L23.2911 13.776L22.6514 14.3758Z" fill="white"/>
<path d="M22.3511 13.5474L22.9812 13.9621L23.2267 13.5956L22.3511 13.5474Z" fill="white"/>
<path d="M22.352 13.5483L23.1062 13.5305L23.1202 13.9714L22.352 13.5483Z" fill="white"/>
<path d="M12.2215 13.4976L12.8211 13.9552L13.0916 13.6067L12.2215 13.4976Z" fill="white"/>
<path d="M12.2199 13.4985L12.9735 13.5334L12.9567 13.9742L12.2199 13.4985Z" fill="white"/>
<path d="M12.9514 13.0039L12.7014 13.7157L13.1165 13.8652L12.9514 13.0039Z" fill="white"/>
<path d="M12.9509 13.0039L13.1507 13.7313L12.7262 13.8515L12.9509 13.0039Z" fill="white"/>
<path d="M12.4633 14.3439L13.0839 13.9151L12.8361 13.5501L12.4633 14.3439Z" fill="white"/>
<path d="M12.4625 14.3436L12.7284 13.6377L13.1425 13.7899L12.4625 14.3436Z" fill="white"/>
<path d="M13.648 13.5464L12.8938 13.5285L12.8798 13.9695L13.648 13.5464Z" fill="white"/>
<path d="M13.6489 13.5454L13.0188 13.9602L12.7733 13.5937L13.6489 13.5454Z" fill="white"/>
<path d="M13.3447 14.3758L13.1286 13.6531L12.7049 13.776L13.3447 14.3758Z" fill="white"/>
<path d="M13.3428 14.3761L12.7536 13.905L13.0263 13.5583L13.3428 14.3761Z" fill="white"/>
<path d="M13.2892 11.646L13.6961 12.2812L14.0695 12.0462L13.2892 11.646Z" fill="white"/>
<path d="M13.289 11.645L13.9851 11.9355L13.8186 12.344L13.289 11.645Z" fill="white"/>
<path d="M14.1461 11.4319L13.6678 12.0152L14.0066 12.2977L14.1461 11.4319Z" fill="white"/>
<path d="M14.1469 11.4313L14.0858 12.1832L13.6458 12.151L14.1469 11.4313Z" fill="white"/>
<path d="M13.2284 12.526L13.9583 12.3353L13.8502 11.9075L13.2284 12.526Z" fill="white"/>
<path d="M13.2286 12.5267L13.72 11.9544L14.057 12.239L13.2286 12.5267Z" fill="white"/>
<path d="M14.6093 12.1815L13.9068 11.9068L13.7428 12.3164L14.6093 12.1815Z" fill="white"/>
<path d="M14.6094 12.1818L13.8755 12.356L13.7701 11.9276L14.6094 12.1818Z" fill="white"/>
<path d="M14.0434 12.8572L14.0875 12.1041L13.6474 12.0747L14.0434 12.8572Z" fill="white"/>
<path d="M14.0425 12.8577L13.65 12.2135L14.0249 11.9809L14.0425 12.8577Z" fill="white"/>
<path d="M14.9253 10.2742L15.0905 11.0103L15.5217 10.9172L14.9253 10.2742Z" fill="white"/>
<path d="M14.9262 10.2746L15.4811 10.7856L15.1849 11.1126L14.9262 10.2746Z" fill="white"/>
<path d="M15.8039 10.3674L15.1549 10.7519L15.3767 11.1332L15.8039 10.3674Z" fill="white"/>
<path d="M15.8054 10.367L15.4909 11.0526L15.0884 10.8719L15.8054 10.367Z" fill="white"/>
<path d="M14.5665 11.0807L15.3175 11.1511L15.3623 10.7122L14.5665 11.0807Z" fill="white"/>
<path d="M14.5663 11.0814L15.2238 10.7116L15.4432 11.0944L14.5663 11.0814Z" fill="white"/>
<path d="M15.9827 11.229L15.4165 10.7306L15.1223 11.0594L15.9827 11.229Z" fill="white"/>
<path d="M15.9821 11.23L15.2329 11.1427L15.2804 10.7041L15.9821 11.23Z" fill="white"/>
<path d="M15.2176 11.6698L15.5167 10.9773L15.1131 10.7991L15.2176 11.6698Z" fill="white"/>
<path d="M15.216 11.67L15.0674 10.9304L15.4993 10.8401L15.216 11.67Z" fill="white"/>
<path d="M16.9325 9.54296L16.836 10.2911L17.273 10.3511L16.9325 9.54296Z" fill="white"/>
<path d="M16.9308 9.54298L17.2774 10.213L16.8872 10.4188L16.9308 9.54298Z" fill="white"/>
<path d="M17.7267 9.92913L16.9854 10.0685L17.0634 10.5027L17.7267 9.92913Z" fill="white"/>
<path d="M17.7264 9.92829L17.1963 10.465L16.8799 10.1575L17.7264 9.92829Z" fill="white"/>
<path d="M16.3204 10.1776L17.0021 10.5006L17.1942 10.1035L16.3204 10.1776Z" fill="white"/>
<path d="M16.3202 10.1779L17.0646 10.0553L17.1398 10.49L16.3202 10.1779Z" fill="white"/>
<path d="M17.6015 10.8025L17.2399 10.1405L16.851 10.3488L17.6015 10.8025Z" fill="white"/>
<path d="M17.6016 10.803L16.9274 10.4647L17.122 10.0688L17.6016 10.803Z" fill="white"/>
<path d="M16.7314 10.9561L17.2492 10.4076L16.9309 10.1021L16.7314 10.9561Z" fill="white"/>
<path d="M16.7296 10.9561L16.843 10.2103L17.2796 10.2731L16.7296 10.9561Z" fill="white"/>
</g>
</g>
<defs>
<filter id="filter0_d_336_33113" x="0" y="-2" width="36" height="36" filterUnits="userSpaceOnUse" color-interpolation-filters="sRGB">
<feFlood flood-opacity="0" result="BackgroundImageFix"/>
<feColorMatrix in="SourceAlpha" type="matrix" values="0 0 0 0 0 0 0 0 0 0 0 0 0 0 0 0 0 0 127 0" result="hardAlpha"/>
<feOffset dy="4"/>
<feGaussianBlur stdDeviation="3"/>
<feComposite in2="hardAlpha" operator="out"/>
<feColorMatrix type="matrix" values="0 0 0 0 0 0 0 0 0 0 0 0 0 0 0 0 0 0 0.16 0"/>
<feBlend mode="normal" in2="BackgroundImageFix" result="effect1_dropShadow_336_33113"/>
<feBlend mode="normal" in="SourceGraphic" in2="effect1_dropShadow_336_33113" result="shape"/>
</filter>
<clipPath id="clip0_336_33113">
<rect width="24" height="18" fill="white" transform="translate(6 3)"/>
</clipPath>
</defs>
</svg>
