<svg width="36" height="31" viewBox="0 0 36 31" fill="none" xmlns="http://www.w3.org/2000/svg">
<g filter="url(#filter0_d_336_30646)">
<g clip-path="url(#clip0_336_30646)">
<path d="M30 21V3H6V21H30Z" fill="#000066"/>
<path d="M27.5452 10.4883C27.5452 12.877 27.1627 15.457 24.0577 16.687C20.9602 15.457 20.5814 12.877 20.5664 10.4883H27.5452Z" fill="#8FC5FF" stroke="white" stroke-width="0.359499"/>
<path d="M24.0542 16.6758C25.2346 16.2625 26.2186 15.4242 26.8142 14.3246H26.5217C26.4355 14.3096 23.5442 14.0321 23.1955 13.8858C22.8992 13.7808 21.7555 13.9871 21.2305 14.1783C21.8104 15.3475 22.8255 16.2428 24.058 16.6721L24.0542 16.6758Z" fill="#366CC9" stroke="black" stroke-width="0.359499"/>
<path d="M21.8842 15.2091H22.0605C22.1017 15.2091 22.1017 15.2091 22.1167 15.1641C22.1317 15.1191 22.1767 15.1341 22.2067 15.1491C22.233 15.1641 22.293 15.1491 22.3192 15.1191C22.353 15.0891 22.353 15.0891 22.383 15.1191C22.4092 15.1491 22.4242 15.1341 22.458 15.1191C22.4692 15.1191 22.5292 15.0891 22.5442 15.0441C22.5555 15.0028 22.6005 14.9878 22.6192 15.0178C22.6305 15.0478 22.6567 15.0478 22.6905 15.0478C22.7167 15.0478 22.7167 15.0591 22.7167 15.1041C22.7167 15.1341 22.7167 15.1491 22.7917 15.0891C22.8517 15.1491 22.8667 15.1191 22.8667 15.0591C22.8667 15.0028 22.8667 14.7666 22.8367 14.7516C22.8067 14.7366 22.7917 14.6353 22.7767 14.5641C22.7767 14.4141 22.7767 14.4141 22.6305 14.3391C22.6305 14.3016 22.6005 14.2828 22.4805 14.2828C22.4992 14.2678 22.4805 14.2266 22.4542 14.2078C22.4242 14.1966 22.4242 14.1816 22.4542 14.1216C22.4842 14.1216 22.5442 14.1216 22.5555 14.0766C22.5855 14.0503 22.6755 14.0503 22.7317 14.0766C22.7917 14.1066 22.8517 14.1066 22.953 14.0766L23.1292 13.9903C23.2042 13.9453 23.2155 13.9303 23.2155 13.8741C23.2155 13.7241 23.1742 13.5816 23.1405 13.5066C23.103 13.4316 23.103 13.3566 23.0392 13.2291C22.983 13.1091 22.983 13.0791 22.9267 13.0078C22.893 12.9778 22.878 12.9628 22.878 12.9216C22.8736 12.8637 22.8467 12.8098 22.803 12.7716C22.6905 12.6703 22.6605 12.3328 22.6005 12.0853C22.5705 11.9353 22.6005 11.5978 22.5442 11.5416C22.4392 11.4666 22.3942 11.4816 22.3192 11.4553C22.263 11.3803 22.248 11.2491 22.1917 11.1178C22.1167 11.1328 22.0717 11.2041 22.0305 11.2303C21.9855 11.2641 21.9705 11.2641 21.9705 11.3353C21.9705 11.3953 21.9255 11.4853 21.8692 11.5978C21.8092 11.7178 21.678 11.6728 21.573 11.8341C21.3705 11.5866 21.3705 11.5116 21.3555 11.4403C21.3555 11.3653 21.3105 11.3503 21.1942 11.2491V11.0241C21.0892 10.9491 21.033 10.9678 20.988 11.0241C20.943 11.0691 20.913 11.1403 20.8417 11.1741C20.8117 11.2303 20.6917 11.3466 20.6055 11.5116C20.6955 12.8278 20.988 14.1478 21.8805 15.2053L21.8842 15.2091Z" fill="#5D3100" stroke="black" stroke-width="0.0334418"/>
<path d="M27.5452 10.4888C27.5452 9.57754 27.5002 8.69629 27.5152 7.93879C26.4121 7.50983 25.2374 7.29475 24.0539 7.30504C23.2777 7.30504 21.7514 7.42129 20.5964 7.93504C20.6227 8.69629 20.5664 9.57754 20.5664 10.485L27.5452 10.4888Z" fill="#FFFF00" stroke="white" stroke-width="0.359499"/>
<path d="M20.7578 11.5278C20.7953 11.5878 20.8666 11.6891 20.8703 11.7528C20.9003 11.6928 20.9228 11.6703 20.9266 11.6366C20.9266 11.5991 20.9753 11.5353 20.9566 11.4978C20.9416 11.4603 20.9303 11.4341 20.9716 11.4603C21.0128 11.4866 21.0053 11.5353 20.9978 11.6028C20.9716 11.7903 20.8966 11.8278 20.8853 11.9516C20.9941 12.2141 20.9116 12.3116 21.0353 12.5741C21.0541 12.5816 21.1028 12.5628 21.1178 12.5666C21.1853 12.5216 21.2303 12.5328 21.3241 12.5553C21.4141 12.5741 21.4628 12.6378 21.4628 12.6978C21.4628 12.7578 21.4628 12.7691 21.4853 12.8028C21.5041 12.8328 21.5378 12.8891 21.5341 12.9303C21.5228 12.9678 21.5378 12.9903 21.5528 13.0053C21.5641 13.0241 21.5453 13.0728 21.5378 13.0953C21.5266 13.1178 21.5303 13.1591 21.5753 13.2153C21.6203 13.2716 21.7253 13.5116 21.7253 13.6503C21.7253 13.7966 21.7366 13.8603 21.7928 13.8866C21.8491 13.9128 21.8678 13.9353 21.8603 13.9953C21.8528 14.0516 21.8866 14.3703 21.8941 14.4228C21.8978 14.4716 21.9203 14.4603 21.9466 14.4866C21.9691 14.5128 21.9841 14.5428 22.0591 14.5428C22.1378 14.5428 22.2091 14.5353 22.2541 14.5428C22.3291 14.6366 22.3666 14.7678 22.3853 14.8466C22.4041 14.9291 22.4003 15.0341 22.4228 15.0341C22.4528 15.0341 22.4791 15.0341 22.4716 14.9403C22.4641 14.8428 22.4566 14.8278 22.4228 14.7753C22.3853 14.7266 22.3666 14.7003 22.3853 14.6741C22.4041 14.6441 22.4078 14.5991 22.4041 14.5578C22.3966 14.5203 22.3816 14.4603 22.4491 14.5353L22.5503 14.6591C22.5691 14.6816 22.5766 14.7341 22.5728 14.7828C22.5691 14.8278 22.5728 14.8466 22.6066 14.8203C22.6328 14.7978 22.6628 14.8391 22.6441 14.8878C22.6328 14.9366 22.6553 14.9666 22.7003 14.9853C22.7453 15.0003 22.7641 15.0116 22.7753 15.0453C22.7866 15.0753 22.8241 15.0941 22.8241 15.0228C22.8204 14.935 22.8052 14.848 22.7791 14.7641C22.7603 14.7191 22.7453 14.6216 22.7416 14.5616C22.7341 14.5053 22.7266 14.4903 22.7003 14.4828C22.6741 14.4716 22.6478 14.4453 22.6441 14.4228C22.6441 14.3966 22.6178 14.3853 22.6028 14.3853C22.5841 14.3853 22.5691 14.3741 22.5578 14.3553C22.5503 14.3328 22.5391 14.3328 22.5203 14.3328C22.5016 14.3291 22.4716 14.3403 22.4603 14.3103C22.4528 14.2803 22.4378 14.2353 22.4191 14.2128C22.4003 14.1903 22.3853 14.1791 22.3816 14.0928C22.3816 14.0066 22.3816 13.9953 22.3516 13.9653C22.3216 13.9353 22.2766 13.8528 22.2578 13.8228C22.2428 13.7853 22.2203 13.7516 22.2203 13.8228C22.2203 13.8978 22.2203 13.9353 22.2691 13.9616C22.3141 13.9878 22.3253 13.9878 22.3066 14.0291C22.2841 14.0666 22.3066 14.0928 22.3141 14.1191C22.3253 14.1453 22.3366 14.1716 22.3141 14.1941C22.2916 14.2241 22.2691 14.2166 22.2728 14.1753C22.273 14.1318 22.2613 14.089 22.2391 14.0516C22.2241 14.0141 22.2053 13.9916 22.1828 14.0141C22.1603 14.0291 22.1416 14.0066 22.1566 13.9916C22.1753 13.9766 22.1678 13.9653 22.1566 13.9541C22.1491 13.9466 22.1416 13.9316 22.1603 13.9091C22.1791 13.8866 22.1791 13.8753 22.1678 13.8228C22.1566 13.7703 22.0741 13.5003 22.0366 13.4403C21.9991 13.3766 22.0028 13.3353 22.0478 13.3916C22.0966 13.4516 22.1416 13.5041 22.1491 13.5566C22.1491 13.6091 22.1603 13.6391 22.1753 13.6541C22.1941 13.6728 22.2016 13.6691 22.2128 13.6241C22.2128 13.5828 22.2503 13.5978 22.1978 13.5191C22.1416 13.4403 22.0441 13.3053 22.0028 13.0616C21.9653 12.8216 21.9503 12.6678 21.9128 12.6041C21.8753 12.5366 21.8641 12.5216 21.8603 12.4616C21.8566 12.4016 21.8603 12.3378 21.8341 12.2928C21.8078 12.2478 21.7891 12.2403 21.7853 12.3078C21.7816 12.3753 21.7853 12.5328 21.8078 12.5553C21.8303 12.5816 21.8153 12.6528 21.8078 12.6866C21.8003 12.7241 21.7441 12.7653 21.8716 12.8403C21.9203 12.8741 21.9091 12.9153 21.9091 12.9378C21.8978 12.9678 21.8903 12.9641 21.8641 12.9228C21.8378 12.8816 21.8116 12.8441 21.7853 12.8253C21.7591 12.8066 21.7516 12.7878 21.7591 12.7316C21.7666 12.6753 21.7703 12.6378 21.7591 12.6191C21.7441 12.6041 21.7366 12.6153 21.7253 12.6491C21.7178 12.6791 21.7141 12.7616 21.6916 12.7841C21.6728 12.8066 21.6728 12.7916 21.6616 12.7428C21.6466 12.6941 21.6653 12.6153 21.6916 12.5291C21.7178 12.4466 21.7366 12.3491 21.7141 12.2366C21.6916 12.1241 21.6991 12.0866 21.6166 11.9928C21.5266 11.8953 21.4253 11.8053 21.3878 11.6891C21.3428 11.5691 21.3353 11.4641 21.2866 11.4116C21.2443 11.3576 21.1937 11.3107 21.1366 11.2728V11.0966C21.1366 11.0516 21.1178 11.0291 21.0691 11.0366C21.0203 11.0441 20.9866 11.0853 20.9566 11.1416C20.9266 11.2016 20.9041 11.1753 20.8591 11.2728C20.8141 11.3703 20.7616 11.4228 20.7616 11.5278H20.7578Z" fill="#CF6200"/>
<path d="M21.0296 12.6407C21.0671 12.6632 21.0933 12.6744 21.1421 12.6519C21.1833 12.6294 21.2358 12.5619 21.3033 12.6294C21.3603 12.7009 21.392 12.7893 21.3933 12.8807C21.3933 12.9669 21.3933 13.1244 21.4908 13.2107C21.5883 13.2969 21.6371 13.3907 21.6408 13.5032C21.6487 13.617 21.6662 13.7299 21.6933 13.8407C21.7083 13.8857 21.7308 13.9382 21.7646 13.9719C21.7908 14.0019 21.8171 14.0882 21.8208 14.1782C21.8246 14.2719 21.8096 14.3319 21.8208 14.3807C21.8358 14.4257 21.8208 14.4632 21.7908 14.4444C21.7533 14.4257 21.7458 14.4069 21.7233 14.3694C21.7008 14.3319 21.6858 14.3357 21.7046 14.3957C21.7233 14.4557 21.7796 14.5082 21.8283 14.5082C21.8771 14.5082 21.8921 14.5119 21.9258 14.5457C21.9558 14.5757 21.9596 14.5907 22.0121 14.5907C22.0646 14.5907 22.0721 14.5907 22.1246 14.6057C22.1733 14.6169 22.1733 14.6132 22.1996 14.6057C22.2258 14.5944 22.2521 14.6207 22.2708 14.6694C22.2858 14.7182 22.3346 14.8569 22.3346 14.8944C22.3346 14.9319 22.3346 14.9694 22.3608 15.0069C22.3871 15.0482 22.3796 15.0819 22.3496 15.0632C22.3233 15.0407 22.3196 15.0444 22.3008 15.0519C22.2783 15.0594 22.2633 15.0444 22.2296 15.0219C22.1996 15.0069 22.2183 15.0107 22.1883 14.9657C22.1583 14.9169 22.1396 14.9019 22.1396 14.9394C22.1396 14.9769 22.1321 15.0144 22.1096 14.9919C22.0871 14.9732 22.0758 14.9732 22.0571 14.9919C22.0383 15.0144 22.0308 15.0294 22.0083 14.9919C21.9858 14.9544 21.9596 14.9544 21.9333 14.9432C21.9146 14.9394 21.9146 14.9394 21.9033 14.9057C21.8921 14.8682 21.8546 14.8607 21.8283 14.8607C21.7946 14.8607 21.7796 14.8457 21.7758 14.8232C21.7758 14.8007 21.7533 14.7857 21.7383 14.7744C21.7196 14.7632 21.7308 14.7369 21.7271 14.7107C21.7271 14.6844 21.7008 14.6919 21.6858 14.6882C21.6671 14.6807 21.6596 14.6844 21.6596 14.6432C21.6596 14.6057 21.6408 14.5944 21.6333 14.5682C21.6183 14.5382 21.6333 14.5119 21.6408 14.4857C21.6446 14.4482 21.6408 14.4332 21.6183 14.4107C21.5958 14.3807 21.6183 14.3544 21.5546 14.2982C21.4908 14.2494 21.4608 14.2944 21.4421 14.1707C21.4313 14.0248 21.401 13.881 21.3521 13.7432C21.3146 13.7057 21.2958 13.6682 21.2583 13.6569C21.2208 13.6457 21.2058 13.6569 21.2021 13.5819C21.1983 13.5069 21.1758 13.4169 21.1271 13.3719L21.0408 13.2894C21.0183 13.2744 21.0071 13.2369 21.0408 13.1769C21.0746 13.1094 21.0596 13.0194 21.0558 12.9782C21.0521 12.9407 21.0408 12.8807 21.0483 12.8357C21.0558 12.7907 21.0483 12.7344 21.0408 12.7044C21.0296 12.6782 21.0146 12.6669 21.0333 12.6407H21.0296ZM21.9483 11.5607C21.8985 11.6266 21.8391 11.6848 21.7721 11.7332C21.7008 11.7857 21.6108 11.8232 21.6596 11.9094C21.7121 11.9957 21.7533 12.0069 21.7608 12.0707C21.7721 12.1382 21.7908 12.1944 21.8358 12.2094C21.8921 12.2244 21.9108 12.2169 21.9108 12.3219C21.9108 12.4232 21.9108 12.4719 21.9558 12.5094C22.0008 12.5469 21.9933 12.5919 22.0158 12.6857C22.0383 12.7832 22.0383 12.9932 22.0983 13.1357C22.1546 13.2744 22.2971 13.5482 22.2783 13.6007C22.2633 13.6569 22.2483 13.6982 22.3046 13.7657C22.3683 13.8294 22.4058 13.9269 22.4171 13.9832C22.4171 14.0394 22.4283 14.0582 22.4921 14.0394C22.5337 14.029 22.5714 14.0068 22.6008 13.9757C22.6196 13.9494 22.6608 13.9532 22.7171 13.9832C22.7733 14.0169 22.8596 14.0432 22.9121 14.0169C22.9608 13.9832 22.9871 13.9382 23.0321 13.9382C23.1033 13.8857 23.1296 13.7807 23.1446 13.7507C23.1596 13.7207 23.1483 13.7207 23.1183 13.6907C23.0883 13.6607 23.1033 13.6082 23.0996 13.5594C23.0921 13.5069 23.0733 13.4282 23.0133 13.3157C22.9533 13.2032 22.9121 13.0682 22.8746 13.0344C22.8371 12.9969 22.8146 12.9107 22.8108 12.8694C22.8071 12.8319 22.7583 12.7944 22.7283 12.7644C22.6946 12.7307 22.6683 12.6894 22.6308 12.5094C22.5933 12.3332 22.5708 12.2094 22.5708 12.1719C22.5708 12.1419 22.5633 12.1419 22.5333 12.1269C22.5033 12.1157 22.4883 12.0669 22.5033 12.0444C22.5071 12.0182 22.4883 11.9919 22.4771 11.9619C22.4696 11.9319 22.4771 11.8757 22.4996 11.8419C22.5183 11.8119 22.5146 11.7294 22.4958 11.6544C22.4771 11.5869 22.4546 11.5269 22.3721 11.5119C22.2933 11.5044 22.2746 11.4819 22.2483 11.4144C22.2108 11.3507 22.1808 11.2344 22.1733 11.2082C22.1658 11.1819 22.1471 11.1782 22.0871 11.2307C22.0271 11.2794 22.0046 11.2944 22.0046 11.3919C22.0046 11.4557 22.0196 11.4744 22.0383 11.5082C22.0571 11.5457 22.0646 11.5569 22.0758 11.6507C22.0908 11.7444 22.1771 11.8982 22.0683 11.9882C21.9558 12.0707 21.9708 12.0932 21.9746 12.1532C21.9821 12.2169 21.9446 12.2544 21.9258 12.1719C21.9033 12.0819 21.9258 12.0332 21.9858 11.9919C22.0458 11.9544 22.1021 11.8982 22.0608 11.8419C22.0248 11.7639 22.0032 11.6801 21.9971 11.5944C21.9933 11.5344 21.9858 11.5119 21.9483 11.5607V11.5607Z" fill="#CF6200"/>
<path d="M21.0468 12.8544L21.0581 12.9781C21.0581 13.0194 21.0731 13.1094 21.0393 13.1731C21.0093 13.2369 21.0168 13.2706 21.0393 13.2894H21.0431C21.1068 13.2706 21.1181 13.2031 21.0993 13.1694C21.0913 13.1515 21.0877 13.1318 21.089 13.1122C21.0903 13.0926 21.0964 13.0736 21.1068 13.0569C21.1256 13.0194 21.1256 13.0006 21.1068 12.9744C21.0881 12.9481 21.0881 12.9481 21.1068 12.8769C21.1293 12.8131 21.0806 12.8131 21.0468 12.8544ZM21.6993 13.8406C21.6881 13.7956 21.6431 13.6156 21.6431 13.5031C21.6393 13.3906 21.5868 13.2969 21.4931 13.2106C21.4181 13.1431 21.4031 13.0344 21.3956 12.9481C21.3393 12.9144 21.3206 12.9294 21.3243 12.9931C21.3243 13.0606 21.3993 13.0906 21.3881 13.1919C21.3768 13.2894 21.3768 13.2669 21.4256 13.3156C21.4668 13.3606 21.4893 13.4131 21.4631 13.4281C21.4368 13.4469 21.4368 13.4844 21.4706 13.4956C21.5081 13.5106 21.5081 13.5481 21.5043 13.5856C21.5006 13.6194 21.5381 13.6269 21.5531 13.6494C21.5756 13.6756 21.5756 13.7394 21.5531 13.7731C21.5381 13.8106 21.5343 13.8669 21.5681 13.8369C21.6056 13.8031 21.6206 13.8369 21.6468 13.8819C21.6693 13.9194 21.6918 13.9081 21.7218 13.9006C21.711 13.8816 21.7022 13.8615 21.6956 13.8406H21.6993ZM22.1868 14.7256C22.1718 14.7706 22.1456 14.7594 22.1231 14.7369C22.1006 14.7144 22.0743 14.7144 22.0856 14.6694C22.0931 14.6281 22.0856 14.6206 22.0593 14.5981L22.0481 14.5869H22.0181C21.9618 14.5869 21.9581 14.5756 21.9243 14.5419C21.9183 14.5366 21.9121 14.5316 21.9056 14.5269V14.5569C21.9056 14.5981 21.9056 14.5869 21.8681 14.6019C21.8306 14.6131 21.8306 14.5606 21.8231 14.5269C21.8225 14.5193 21.8212 14.5118 21.8193 14.5044C21.7924 14.4984 21.7676 14.485 21.7478 14.4658C21.7279 14.4467 21.7137 14.4224 21.7068 14.3956C21.6881 14.3356 21.7068 14.3319 21.7293 14.3694C21.7518 14.4069 21.7556 14.4181 21.7893 14.4444C21.8193 14.4631 21.8343 14.4256 21.8193 14.3806C21.8173 14.3645 21.8173 14.3481 21.8193 14.3319C21.8137 14.3164 21.8032 14.3033 21.7893 14.2944C21.7218 14.2681 21.7443 14.2644 21.7443 14.2119C21.7518 14.1631 21.7406 14.1631 21.6993 14.1894C21.6618 14.2156 21.6618 14.1894 21.6618 14.1069C21.6618 14.0319 21.6093 14.0319 21.5981 14.0844C21.5868 14.1406 21.5643 14.1031 21.5456 14.0281C21.5268 13.9531 21.4893 13.9306 21.4893 14.0056C21.4893 14.0694 21.4668 14.0806 21.4293 14.0506L21.4443 14.1669C21.4631 14.2906 21.4931 14.2419 21.5568 14.2981C21.6168 14.3506 21.5981 14.3806 21.6206 14.4069C21.6431 14.4331 21.6468 14.4519 21.6431 14.4819C21.6318 14.5119 21.6206 14.5381 21.6318 14.5644C21.6431 14.5944 21.6618 14.6019 21.6618 14.6431C21.6618 14.6806 21.6693 14.6769 21.6881 14.6881H21.7181L21.7443 14.6506C21.7931 14.6056 21.8568 14.6506 21.8831 14.7144C21.9056 14.7706 21.9318 14.7856 21.9693 14.7369C22.0068 14.6919 21.9918 14.6994 22.0293 14.7406C22.0668 14.7856 22.0818 14.7781 22.0818 14.7781C22.0818 14.7781 22.1193 14.7631 22.1493 14.7856C22.1756 14.8081 22.1868 14.8044 22.2393 14.7331C22.2881 14.6581 22.2168 14.6806 22.1943 14.7256H22.1868ZM22.3293 12.6331C22.3443 12.5206 22.3331 12.4119 22.3781 12.3706C22.4268 12.3331 22.4793 12.2469 22.4793 12.4231C22.4718 12.5956 22.4643 12.5844 22.4306 12.6256C22.3931 12.6669 22.3631 12.6781 22.3931 12.7419C22.4343 12.8056 22.4381 12.8169 22.4343 12.9144C22.4306 13.0156 22.4306 13.0606 22.4681 13.1094C22.5093 13.1619 22.5206 13.1619 22.5318 13.2219C22.5436 13.2861 22.5751 13.3451 22.6218 13.3906C22.6668 13.4356 22.7193 13.5481 22.7231 13.6306C22.7306 13.7131 22.7981 13.7319 22.8656 13.7919C22.9331 13.8481 22.8506 13.8856 22.8018 13.8594C22.7493 13.8369 22.7681 13.8594 22.7381 13.8969C22.7081 13.9344 22.7006 13.9381 22.6743 13.8744C22.6481 13.8144 22.5618 13.7731 22.5206 13.7581C22.4793 13.7431 22.4456 13.6756 22.4081 13.6081C22.393 13.5816 22.372 13.5589 22.3466 13.542C22.3211 13.525 22.2921 13.5143 22.2618 13.5106C22.2768 13.5519 22.2843 13.5856 22.2806 13.6006C22.2656 13.6569 22.2506 13.6981 22.3068 13.7656C22.3706 13.8294 22.4081 13.9269 22.4193 13.9831C22.4193 14.0394 22.4306 14.0581 22.4943 14.0394C22.5351 14.027 22.5724 14.0052 22.6031 13.9756C22.6218 13.9494 22.6631 13.9494 22.7193 13.9831C22.7756 14.0131 22.8618 14.0431 22.9143 14.0131C22.9631 13.9794 22.9893 13.9381 23.0343 13.9381C23.1056 13.8856 23.1318 13.7769 23.1468 13.7506C23.1618 13.7131 23.1506 13.7131 23.1206 13.6869C23.0906 13.6569 23.1056 13.6044 23.0981 13.5556C23.0981 13.5031 23.0756 13.4281 23.0156 13.3156C22.9518 13.2031 22.9143 13.0681 22.8768 13.0344C22.8393 12.9969 22.8131 12.9106 22.8131 12.8694C22.8056 12.8319 22.7606 12.7944 22.7306 12.7606C22.6968 12.7306 22.6668 12.6856 22.6331 12.5094C22.6068 12.3706 22.5806 12.2619 22.5768 12.2094C22.5393 12.2656 22.5131 12.2844 22.5018 12.2394C22.4831 12.1944 22.4681 12.1719 22.4456 12.2019C22.4268 12.2319 22.4193 12.1719 22.4193 12.1456C22.4193 12.1194 22.4193 12.1194 22.3856 12.1194C22.3556 12.1194 22.3856 12.0819 22.3743 11.9994C22.3631 11.9244 22.3481 11.9169 22.3406 12.0069C22.3293 12.0969 22.2768 12.1569 22.2993 12.1719C22.3181 12.1944 22.3068 12.2356 22.2881 12.2956C22.2717 12.3391 22.2717 12.3871 22.2881 12.4306C22.3031 12.4681 22.2806 12.5506 22.2731 12.6144C22.2618 12.6781 22.3143 12.7456 22.3293 12.6369V12.6331ZM21.3993 11.7256C21.3618 11.7256 21.3356 11.7631 21.3581 11.8756C21.3731 11.9506 21.3206 11.9356 21.2981 11.8981C21.2793 11.8606 21.2606 11.7856 21.2231 11.7219C21.1818 11.6581 21.2006 11.7631 21.1968 11.8269C21.1893 11.8906 21.2306 11.8906 21.2643 11.9394C21.3018 11.9919 21.2718 12.0106 21.2343 12.0106C21.1968 12.0106 21.2081 12.0931 21.2193 12.1456C21.2306 12.2019 21.2081 12.2131 21.1818 12.1681C21.1443 12.1194 21.1706 12.0556 21.1743 11.9656C21.1818 11.8794 21.1856 11.8981 21.1293 11.8794C21.0731 11.8569 21.0806 11.8456 21.1068 11.7969C21.1256 11.7444 21.1443 11.7219 21.1181 11.6956C21.0956 11.6694 21.0993 11.6544 21.1406 11.6506C21.1781 11.6431 21.1631 11.6131 21.2006 11.6056C21.2381 11.5944 21.2531 11.6056 21.2568 11.5419C21.2606 11.4856 21.2793 11.4556 21.3206 11.4706C21.3468 11.5569 21.3768 11.6881 21.3993 11.7256V11.7256ZM21.9131 12.3256C21.9131 12.4306 21.9131 12.4756 21.9581 12.5131C22.0031 12.5506 21.9956 12.5956 22.0181 12.6894C22.0406 12.7869 22.0406 12.9969 22.1006 13.1394L22.1681 13.2894C22.1998 13.2627 22.2254 13.2294 22.2431 13.1919C22.2543 13.1619 22.2093 13.0869 22.1756 13.0306C22.1381 12.9631 22.1793 12.9444 22.2131 12.8656C22.2506 12.7944 22.2131 12.7906 22.1531 12.7681C22.1006 12.7494 22.1006 12.6931 22.0706 12.6144C22.0406 12.5319 22.0443 12.4981 22.0631 12.4494C22.0818 12.4044 22.0706 12.3706 22.0293 12.3594C21.9881 12.3481 21.9993 12.3219 22.0143 12.2694C22.0293 12.2206 22.0406 12.2094 21.9768 12.2206C21.9318 12.2356 21.9206 12.2469 21.9056 12.2581L21.9131 12.3256Z" fill="#00B800"/>
<path d="M22.4944 12.5363C22.4869 12.5963 22.4869 12.63 22.4719 12.6488C22.4569 12.6675 22.4682 12.6975 22.4832 12.7313C22.5019 12.7613 22.5057 12.7988 22.4944 12.8588C22.4794 12.915 22.5019 12.9563 22.5319 12.9713C22.5619 12.9863 22.5769 12.9713 22.5694 13.0463C22.5662 13.0785 22.5703 13.1111 22.5813 13.1416C22.5924 13.1721 22.6101 13.1998 22.6332 13.2225C22.6707 13.2525 22.6969 13.3013 22.6894 13.335C22.6894 13.365 22.7157 13.3913 22.7532 13.41C22.7907 13.425 22.7832 13.4288 22.7832 13.4475C22.7832 13.4663 22.7982 13.47 22.8357 13.4813C22.8732 13.4925 22.9107 13.515 22.9557 13.5713C23.0007 13.6313 23.0682 13.6575 23.0569 13.5975C23.0457 13.5413 23.0569 13.4925 22.9969 13.4663C22.9332 13.4363 22.8882 13.29 22.8657 13.1888C22.838 13.0892 22.7865 12.9978 22.7157 12.9225C22.7044 12.8475 22.7157 12.8138 22.6707 12.78C22.6514 12.7664 22.6355 12.7485 22.6244 12.7277C22.6134 12.7068 22.6074 12.6836 22.6069 12.66C22.6069 12.63 22.5844 12.585 22.5619 12.57C22.5432 12.5588 22.5319 12.5363 22.5319 12.5025C22.5319 12.4725 22.5019 12.4763 22.4944 12.54V12.5363Z" fill="#5D3100"/>
<path d="M22.2266 15.2632C22.3518 15.244 22.4741 15.2087 22.5903 15.1582C22.6541 15.1995 22.7591 15.2557 22.8041 15.2557C22.7178 15.2745 22.6578 15.267 22.6391 15.2482C22.6503 15.2745 22.6766 15.3195 22.6991 15.3232C22.6128 15.3232 22.5191 15.3007 22.4891 15.2707C22.4141 15.3007 22.2941 15.3082 22.2266 15.2632V15.2632ZM22.3878 15.3757C22.4216 15.387 22.5828 15.4132 22.6053 15.4132C22.5528 15.4582 22.5978 15.5032 22.6841 15.4957C22.6466 15.5032 22.5941 15.5182 22.6278 15.5257C22.7423 15.5243 22.8555 15.5014 22.9616 15.4582C22.8866 15.552 22.5341 15.6382 22.3878 15.3757ZM22.5378 15.6045C22.6037 15.5881 22.6729 15.5921 22.7366 15.6157C22.6841 15.6382 22.5678 15.6382 22.5341 15.6082L22.5378 15.6045Z" fill="#00D860"/>
<path d="M22.6991 15.6032C22.7741 15.592 22.9991 15.6407 23.0741 15.5957C23.0478 15.667 22.9128 15.6782 22.8603 15.6595C22.8116 15.6482 22.7666 15.6295 22.7328 15.6295C22.7553 15.6182 22.7253 15.6182 22.6953 15.6032H22.6991Z" fill="black"/>
<path d="M22.7773 15.7131C22.8913 15.7163 23.005 15.7024 23.1148 15.6719C23.1786 15.6944 23.3173 15.7319 23.3473 15.7281C23.2836 15.7656 23.1598 15.7431 23.1223 15.7281C23.0672 15.751 23.0078 15.7614 22.9482 15.7588C22.8886 15.7563 22.8303 15.7407 22.7773 15.7131V15.7131Z" fill="#00D860"/>
<path d="M22.8767 15.7453C22.963 15.7641 23.038 15.7528 23.1205 15.7266C23.1467 15.7341 23.2067 15.7491 23.2667 15.7491C23.3042 15.7678 23.353 15.7978 23.4055 15.8053C23.3109 15.8182 23.2147 15.8092 23.1242 15.7791C23.0213 15.7762 22.919 15.7953 22.8242 15.8353C22.8261 15.8175 22.8321 15.8004 22.8419 15.7854C22.8517 15.7704 22.8649 15.7579 22.8805 15.7491L22.8767 15.7453Z" fill="#00D860"/>
<path d="M22.7757 15.3229C22.8395 15.3417 23.0832 15.3304 23.1995 15.2742C23.252 15.2479 23.282 15.2892 23.2257 15.3042C23.0307 15.3792 22.8695 15.4017 22.757 15.3417C22.712 15.3192 22.7045 15.2967 22.7757 15.3192V15.3229Z" fill="black"/>
<path d="M23.9475 14.9922C23.6512 15.1309 23.46 15.1722 23.0512 15.0447C23.0137 15.0372 22.9875 15.0447 23.0287 15.0709C23.131 15.1152 23.238 15.1479 23.3475 15.1684C23.4 15.1722 23.3812 15.1947 23.3475 15.2059C23.3175 15.2134 23.31 15.2359 23.3512 15.2209C23.3925 15.2022 23.6437 15.1947 23.745 15.2472C23.7862 15.2734 23.7975 15.2659 23.7937 15.2472C23.79 15.2322 23.8125 15.2209 23.8462 15.2172C23.8762 15.2134 23.8987 15.2022 23.8725 15.1947C23.8462 15.1834 23.8425 15.1759 23.8612 15.1684C23.88 15.1572 23.8837 15.1459 23.8537 15.1422C23.8275 15.1347 23.805 15.1272 23.8312 15.1159C23.8622 15.1023 23.8951 15.0935 23.9287 15.0897C23.9362 15.0709 23.925 15.0147 23.9475 14.9922V14.9922Z" fill="#00D860"/>
<path d="M23.4611 15.0258C23.6936 15.0292 23.9197 14.9494 24.0986 14.8008C24.1586 14.8383 24.2373 14.8758 24.2823 14.8833C24.3236 14.8908 24.3573 14.9283 24.2936 14.9283C24.2298 14.9283 24.1436 14.902 24.0986 14.8833C23.9073 15.0004 23.685 15.0566 23.4611 15.0445C23.4198 15.0445 23.4086 15.0258 23.4611 15.0295V15.0258Z" fill="black"/>
<path d="M22.9627 14.1113C23.0227 14.1526 23.1239 14.2201 23.2552 14.2088C23.3186 14.2596 23.3912 14.2978 23.4689 14.3213C23.3789 14.3513 23.2814 14.3851 23.2589 14.4113C23.2214 14.3738 23.1652 14.3813 23.1539 14.3588C23.1164 14.3963 23.1202 14.4076 23.1464 14.4263C23.2316 14.4516 23.3202 14.463 23.4089 14.4601C23.4539 14.4451 23.4727 14.4863 23.4314 14.4976C23.3302 14.5351 23.1314 14.4976 23.0639 14.3888C22.9889 14.2801 22.9327 14.2388 22.7452 14.3401C22.7264 14.2838 22.7264 14.2763 22.6889 14.2763C22.6514 14.2763 22.5839 14.2276 22.6364 14.2276C22.6889 14.2276 22.8389 14.2051 22.9627 14.1151V14.1113Z" fill="#00D860"/>
<path d="M23.0083 14.3619C22.9708 14.3656 22.8845 14.4144 22.8545 14.4181C22.8208 14.4256 22.7645 14.4706 22.8208 14.4706C22.8845 14.4706 22.9595 14.4069 23.0008 14.4069C23.042 14.4069 23.0458 14.3506 23.0083 14.3581V14.3619ZM23.1958 14.5494C23.1695 14.5569 23.072 14.5794 23.0458 14.5794C23.0195 14.5794 22.9895 14.5794 22.9933 14.6019C22.997 14.6206 23.0045 14.6356 22.9595 14.6281C22.922 14.6206 22.8883 14.6394 22.8808 14.6506C22.8695 14.6619 22.862 14.6731 22.9033 14.6769C22.9408 14.6769 22.9633 14.6881 23.012 14.6619C23.057 14.6394 23.0983 14.6131 23.147 14.6094C23.1958 14.6094 23.2445 14.5419 23.192 14.5531L23.1958 14.5494Z" fill="#00D860"/>
<path d="M23.0606 14.6663C23.1018 14.7 23.3081 14.7638 23.3793 14.7638C23.4543 14.76 23.4431 14.79 23.3869 14.8013C23.3231 14.8107 23.2581 14.8066 23.196 14.7891C23.134 14.7717 23.0763 14.7413 23.0269 14.7C22.9819 14.6625 23.0268 14.6475 23.0568 14.6663H23.0606Z" fill="black"/>
<path d="M24.0292 14.7754C23.9045 14.8105 23.7732 14.8144 23.6467 14.7866C23.5829 14.7641 23.5229 14.7641 23.5717 14.8091C23.6092 14.8504 23.7517 14.8766 23.8342 14.8579C23.5492 14.9216 23.4742 14.9179 23.4067 14.9066C23.3196 14.896 23.2317 14.8935 23.1442 14.8991C23.1023 14.9059 23.0594 14.9007 23.0204 14.8841C22.9942 14.8654 22.9867 14.8429 23.0617 14.8504C23.1367 14.8541 23.1479 14.8429 23.0842 14.8316C23.0167 14.8204 22.9304 14.8466 23.0167 14.9066C23.1067 14.9591 23.2942 14.8991 23.4179 14.9366C23.5261 14.9648 23.6394 14.9665 23.7484 14.9417C23.8574 14.9169 23.9589 14.8663 24.0442 14.7941C24.0554 14.7866 24.0779 14.7566 24.0292 14.7716V14.7754ZM23.2567 14.5391C23.2642 14.5616 23.2642 14.5766 23.2567 14.5916C23.2492 14.6066 23.2529 14.6254 23.2754 14.6066C23.2979 14.5879 23.3129 14.5616 23.3429 14.5766C23.3692 14.5879 23.4292 14.5879 23.4554 14.5841C23.4854 14.5841 23.4929 14.5729 23.4554 14.5579C23.4211 14.5431 23.3841 14.5354 23.3467 14.5354C23.3242 14.5391 23.2942 14.5354 23.2754 14.5241C23.2567 14.5129 23.2529 14.5241 23.2567 14.5391V14.5391Z" fill="#00D860"/>
<path d="M23.6633 14.6143C23.6333 14.6143 23.5733 14.5918 23.5471 14.5768C23.5171 14.5655 23.4721 14.5655 23.5021 14.6143C23.5358 14.6593 23.6746 14.678 23.7271 14.6593C23.7758 14.6368 23.7571 14.6143 23.8021 14.6443C23.8546 14.6743 23.9033 14.693 23.9408 14.693C23.9783 14.693 23.9896 14.693 23.9521 14.6705C23.9146 14.648 23.8921 14.6443 23.8846 14.6255C23.8771 14.6068 23.8771 14.5918 23.9183 14.6068C23.9558 14.618 23.9933 14.6368 24.0233 14.6218C24.0533 14.6068 24.1058 14.573 24.1546 14.573L24.1621 14.543C24.0946 14.543 24.0496 14.5618 24.0308 14.5655C24.0158 14.573 23.9783 14.5805 23.9408 14.573C23.9033 14.5655 23.8583 14.5618 23.8471 14.5543C23.8321 14.543 23.8358 14.5355 23.8658 14.5318C23.8958 14.5243 23.9033 14.5055 23.8658 14.5093C23.8283 14.5168 23.7083 14.5168 23.6483 14.498C23.5921 14.4793 23.5658 14.4755 23.5433 14.4868C23.5171 14.4943 23.5208 14.5243 23.5546 14.5243C23.5921 14.5243 23.6746 14.5355 23.7046 14.5618C23.7271 14.588 23.7271 14.588 23.6971 14.5768C23.6633 14.5618 23.6033 14.5693 23.6633 14.6143V14.6143Z" fill="#00D860"/>
<path d="M24.1597 14.5422L24.1484 14.5722C24.2197 14.5722 24.3884 14.5872 24.4484 14.621C24.5009 14.5797 24.4897 14.5647 24.5234 14.576C24.5609 14.5872 24.6134 14.5947 24.6359 14.5872C24.653 14.5774 24.6732 14.5747 24.6922 14.5797C24.7147 14.5797 24.7672 14.5722 24.7934 14.5572C24.8234 14.5385 24.8834 14.5197 24.9172 14.5197C24.9472 14.5197 24.9922 14.5085 24.9284 14.4972C24.8684 14.486 24.7709 14.5085 24.7409 14.5197C24.7034 14.531 24.6097 14.5385 24.5534 14.5385C24.4972 14.5385 24.4184 14.5647 24.3547 14.5497C24.2872 14.5347 24.1972 14.5422 24.1559 14.5422H24.1597Z" fill="#00D860"/>
<path d="M25.0444 14.5125C24.9319 14.595 24.7894 14.6137 24.6282 14.625C24.5794 14.625 24.5944 14.64 24.6357 14.6437C24.8082 14.6625 25.0032 14.5987 25.0707 14.5312C25.0894 14.5087 25.0857 14.4787 25.0444 14.5087V14.5125Z" fill="black"/>
<path d="M24.2656 14.707C24.3584 14.7209 24.45 14.7422 24.5394 14.7707C24.5844 14.7632 24.5956 14.7557 24.5881 14.737C24.5769 14.722 24.5731 14.707 24.6519 14.7145H24.9331C24.9631 14.7032 25.0194 14.6582 25.0456 14.6582C24.9781 14.6582 24.6894 14.6732 24.6556 14.6695C24.6181 14.6695 24.5994 14.6695 24.5769 14.6845C24.5544 14.6957 24.5431 14.7032 24.5131 14.6882C24.4756 14.677 24.4344 14.662 24.4006 14.6845C24.3781 14.6995 24.3144 14.6845 24.2656 14.707Z" fill="#00D860"/>
<path d="M24.9337 14.7142C24.9599 14.7029 25.0199 14.6579 25.0462 14.6542C25.0987 14.6504 25.1512 14.6692 25.1774 14.6767C25.2037 14.6842 25.2337 14.6767 25.2149 14.6542C25.1999 14.6354 25.2149 14.5942 25.2899 14.6054C25.3724 14.6129 25.4099 14.6279 25.4887 14.6204C25.5674 14.6129 25.5974 14.6692 25.7399 14.6129C25.7324 14.6692 25.7587 14.6729 25.7849 14.6617C25.8112 14.6542 25.8412 14.6542 25.8862 14.6879C25.9349 14.7254 26.2124 14.7254 26.2762 14.7142C26.3437 14.7029 26.3737 14.7367 26.3249 14.7517C26.2762 14.7667 26.2649 14.7892 26.2762 14.8079C26.2874 14.8229 26.2987 14.8417 26.2387 14.8342C26.1749 14.8267 26.1637 14.8454 26.1374 14.8642C26.1074 14.8867 26.0999 14.9017 26.0137 14.8829C25.9312 14.8679 25.9124 14.8792 25.8674 14.8829C25.8224 14.8904 25.8112 14.8942 25.7624 14.8792C25.6962 14.8554 25.6245 14.8515 25.5562 14.8679C25.4962 14.8904 25.4549 14.9054 25.3987 14.8904C25.3424 14.8792 25.3424 14.8829 25.3762 14.8529C25.4062 14.8154 25.4137 14.8154 25.4812 14.8117C25.5487 14.8042 25.5937 14.7854 25.5524 14.7592C25.5037 14.7329 25.4924 14.7367 25.4287 14.7629C25.3687 14.7929 25.3387 14.8154 25.2674 14.7779C25.1999 14.7404 25.1699 14.7442 25.1174 14.7592C25.0724 14.7704 24.9974 14.7404 24.9337 14.7142V14.7142ZM25.1624 14.8267C25.0724 14.8417 25.0499 14.7854 24.9599 14.7929C24.9299 14.8004 24.8774 14.8379 24.9487 14.8304C25.0199 14.8267 25.0987 14.8642 25.1662 14.8604C25.2337 14.8567 25.2037 14.8229 25.1662 14.8267H25.1624ZM25.0649 14.8904C25.1062 14.8754 25.1999 14.9092 25.2449 14.9017C25.2862 14.8942 25.3199 14.9167 25.2749 14.9354C25.2299 14.9504 25.1362 14.9092 25.0874 14.9204C25.0462 14.9354 24.9974 14.9167 25.0612 14.8904H25.0649ZM24.1499 15.1417C24.2137 15.1417 24.4424 15.1304 24.5324 14.9429C24.5399 14.9279 24.5437 14.9204 24.5699 14.9429C24.5962 14.9617 24.7049 15.0217 24.8999 15.0404C24.9562 15.0404 25.0124 15.0704 24.9037 15.0667C24.7912 15.0592 24.6187 15.0292 24.5624 14.9917C24.4612 15.1454 24.2849 15.1642 24.1499 15.1604C24.0712 15.1604 24.0899 15.1379 24.1499 15.1417Z" fill="#00D860"/>
<path d="M24.6407 14.8809C24.6107 14.9221 24.5057 14.9934 24.4607 15.0009C24.4119 15.0009 24.2657 14.9934 24.2319 14.9784C24.1944 14.9671 24.1532 14.9671 24.2019 15.0046C24.2708 15.0419 24.3488 15.0588 24.4269 15.0534C24.4869 15.0421 24.5432 15.0234 24.5844 15.0534C24.6219 15.0759 24.6969 15.1209 24.7419 15.1134C24.7869 15.1021 24.8732 15.1021 24.9032 15.1134C24.9332 15.1284 24.9819 15.1734 24.9069 15.1509C24.8319 15.1246 24.7719 15.1434 24.7382 15.1284C24.7757 15.1809 24.8619 15.2671 24.9332 15.2671C24.9519 15.2671 24.9669 15.3009 24.9332 15.3159C24.9632 15.3309 25.0457 15.3496 25.0944 15.3046C25.0794 15.3234 25.0869 15.3309 25.1057 15.3384C25.1244 15.3459 25.1469 15.3609 25.1132 15.3684C25.0757 15.3759 25.0007 15.3796 24.9782 15.3684C25.0532 15.4171 25.2407 15.4959 25.4394 15.4546C25.4769 15.4509 25.4994 15.4321 25.4394 15.4359C25.3082 15.4359 25.3007 15.4359 25.2782 15.4246C25.2557 15.4096 25.2632 15.3984 25.3007 15.3871C25.3535 15.3735 25.4075 15.3647 25.4619 15.3609C25.4994 15.3609 25.5407 15.3496 25.4619 15.3496C25.3869 15.3496 25.2894 15.3496 25.2482 15.3346C25.2107 15.3234 25.1844 15.3009 25.2257 15.2746C25.2632 15.2484 25.3044 15.2559 25.3232 15.2371C25.1994 15.2371 25.0457 15.1621 25.1282 15.1021C25.1469 15.0909 25.1432 15.0871 25.1132 15.0834C25.0552 15.072 24.9986 15.0544 24.9444 15.0309C24.9069 15.0121 24.9294 14.9896 24.9632 14.9821C24.8882 14.9934 24.7382 14.9559 24.6407 14.8846V14.8809ZM25.7582 14.8809C25.6907 14.9296 25.5594 14.9559 25.5032 14.9559C25.4507 14.9559 25.4394 14.9709 25.4844 14.9746C25.5294 14.9784 25.5782 14.9896 25.5969 14.9821C25.6157 14.9746 25.6307 14.9746 25.6569 14.9896C25.7032 15.005 25.7532 15.005 25.7994 14.9896C25.8557 14.9746 25.9382 14.9671 25.9757 14.9671C26.0132 14.9709 26.0507 14.9709 25.9757 14.9521C25.9082 14.9334 25.7882 14.9446 25.7582 14.9521C25.7319 14.9596 25.6532 14.9521 25.6944 14.9446C25.7357 14.9334 25.7694 14.9071 25.7919 14.8921L25.7582 14.8809V14.8809ZM25.7207 15.0309C25.654 15.0805 25.5748 15.1104 25.4919 15.1171C25.5669 15.1471 25.6344 15.2296 25.6869 15.2221C25.6607 15.2409 25.6307 15.2596 25.6007 15.2671C25.6705 15.2789 25.7422 15.2656 25.8032 15.2296C25.9157 15.2596 26.0657 15.2371 26.1144 15.1921C26.0394 15.1921 25.9532 15.1696 25.9119 15.1321C25.9494 15.1321 25.9832 15.1134 25.9982 15.0909C25.9119 15.1059 25.7732 15.0646 25.7244 15.0234L25.7207 15.0309Z" fill="#00D860"/>
<path d="M25.6003 15.2625C25.6303 15.2625 25.6641 15.24 25.6866 15.225C25.5411 15.2354 25.396 15.2014 25.2703 15.1275C25.1878 15.0563 25.1878 15.1125 25.2441 15.1613C25.2915 15.206 25.3489 15.2388 25.4114 15.257C25.474 15.2753 25.54 15.2785 25.6041 15.2663L25.6003 15.2625ZM25.8028 15.4388C25.7691 15.4575 25.6041 15.4725 25.5516 15.4575C25.4953 15.4463 25.4766 15.45 25.4841 15.4763C25.4953 15.4988 25.5066 15.5138 25.4616 15.5063C25.4109 15.504 25.3601 15.5104 25.3116 15.525C25.2741 15.5325 25.2366 15.5625 25.3041 15.5513C25.3753 15.5438 25.4353 15.5288 25.4916 15.54C25.5403 15.5513 25.7203 15.555 25.7541 15.54C25.7916 15.525 25.7691 15.5288 25.7541 15.5288C25.7353 15.5288 25.7278 15.5175 25.7541 15.5025C25.7803 15.4913 25.7953 15.465 25.8028 15.4388V15.4388ZM24.2166 15.2213C24.0993 15.2621 23.9789 15.2934 23.8566 15.315C23.7816 15.3488 23.7216 15.3675 23.6841 15.3675C23.7103 15.39 23.8153 15.4125 23.8528 15.4013C23.8303 15.4275 23.7778 15.45 23.7591 15.465C23.8228 15.4538 23.8903 15.4725 23.9241 15.4763C23.847 15.5174 23.7599 15.5356 23.6728 15.5288C23.6953 15.5513 23.7216 15.5775 23.7553 15.5775C23.6882 15.597 23.6174 15.5996 23.5491 15.585C23.5716 15.6225 23.5866 15.645 23.6166 15.6525C23.5528 15.6563 23.4778 15.6675 23.4141 15.63C23.4628 15.6975 23.5716 15.7163 23.7366 15.6975C23.9016 15.6788 24.0366 15.6075 24.0741 15.5775C24.0066 15.585 23.9128 15.5888 23.8716 15.5775C23.9852 15.5472 24.0939 15.5005 24.1941 15.4388C24.1564 15.4385 24.1198 15.4268 24.0891 15.405C24.19 15.41 24.2911 15.3999 24.3891 15.375C24.3361 15.3636 24.2893 15.3329 24.2578 15.2888C24.4653 15.3486 24.6846 15.355 24.8953 15.3075C24.9253 15.3 24.9253 15.2588 24.8691 15.2663C24.7641 15.2738 24.5578 15.2438 24.5016 15.2175C24.5463 15.2494 24.5975 15.2712 24.6516 15.2813C24.5578 15.3113 24.4191 15.33 24.2166 15.2175V15.2213Z" fill="#00D860"/>
<path d="M23.7595 15.4654C23.7783 15.4504 23.8345 15.4279 23.8533 15.4016C23.812 15.4129 23.7108 15.3904 23.6845 15.3641C23.722 15.3641 23.782 15.3491 23.857 15.3154C23.722 15.3116 23.632 15.3116 23.5758 15.2816C23.5233 15.2516 23.437 15.2666 23.3995 15.2741C23.362 15.2779 23.377 15.3379 23.5233 15.3229C23.434 15.3629 23.3349 15.3759 23.2383 15.3604C23.2533 15.4129 23.2645 15.4616 23.2495 15.4916C23.3283 15.5366 23.5383 15.5929 23.6433 15.5854C23.5495 15.5516 23.5008 15.5141 23.5758 15.5029C23.6508 15.4954 23.6958 15.4804 23.7633 15.4654H23.7595Z" fill="#00D860"/>
<path d="M23.525 15.7129C23.705 15.6979 23.9525 15.6941 24.1475 15.5254C24.1963 15.4879 24.23 15.5029 24.1813 15.5441C24.0086 15.6781 23.7994 15.7566 23.5813 15.7691C23.48 15.7691 23.435 15.7204 23.525 15.7091V15.7129Z" fill="black"/>
<path d="M24.8893 15.412C24.8212 15.4324 24.7504 15.4425 24.6793 15.442C24.6381 15.4328 24.5953 15.4354 24.5555 15.4495C24.5255 15.4682 24.5218 15.487 24.563 15.487L24.6868 15.4945C24.6604 15.508 24.6374 15.5272 24.6193 15.5507C24.6868 15.5357 24.7955 15.562 24.8293 15.5807C24.8164 15.5834 24.8031 15.5834 24.7903 15.5809C24.7774 15.5783 24.7651 15.5731 24.7543 15.5657C24.8555 15.6782 25.163 15.6782 25.2118 15.6557C25.1893 15.6745 25.1668 15.6932 25.148 15.6932C25.2305 15.712 25.328 15.7082 25.4293 15.6557L25.2718 15.6482C25.2928 15.6274 25.3185 15.6119 25.3468 15.6032C25.3093 15.5957 25.1893 15.5995 25.1593 15.6145C25.1704 15.5876 25.1902 15.5651 25.2155 15.5507C25.0655 15.5507 24.8818 15.5507 24.818 15.5132C24.9193 15.5282 25.0393 15.4645 25.088 15.4645C25.0055 15.4645 24.9155 15.4457 24.893 15.4082L24.8893 15.412ZM24.5105 15.487C24.4355 15.5057 24.323 15.5395 24.2893 15.5545C24.2593 15.5732 24.2293 15.5807 24.293 15.5807C24.3005 15.5794 24.308 15.5782 24.3155 15.577C24.2893 15.577 24.2593 15.577 24.3118 15.5582C24.3605 15.5432 24.4243 15.5095 24.5068 15.4945L24.5105 15.487ZM24.3605 15.6707C24.3868 15.6707 24.4993 15.6707 24.548 15.6332C24.593 15.6632 24.6868 15.7157 24.743 15.7157C24.803 15.7157 24.7955 15.7307 24.743 15.7382C24.671 15.7359 24.6009 15.7138 24.5405 15.6745C24.473 15.7007 24.4168 15.6782 24.353 15.6707H24.3605ZM23.4755 16.1845C23.5969 16.238 23.7319 16.2525 23.8618 16.2257C23.9293 16.282 24.0605 16.2857 24.1318 16.2707C24.2068 16.2557 24.2705 16.2482 24.353 16.2707C24.428 16.3007 24.593 16.3045 24.6418 16.342L24.488 16.3457C24.4655 16.3532 24.4768 16.3645 24.518 16.3832C24.3692 16.3818 24.2228 16.4207 24.0943 16.4957C24.1135 16.4524 24.1452 16.4157 24.1852 16.3904C24.2252 16.365 24.2719 16.3521 24.3193 16.3532C24.2518 16.3307 24.0305 16.327 23.9555 16.372C23.9356 16.3503 23.9203 16.3247 23.9105 16.297C23.7943 16.3607 23.5655 16.2632 23.4718 16.1845H23.4755ZM23.1755 15.967C23.2749 15.9587 23.3699 15.9222 23.4493 15.862C23.4755 15.8845 23.5805 15.907 23.693 15.8732C23.6705 15.8882 23.6668 15.922 23.6743 15.937C23.5837 15.9454 23.4951 15.9681 23.4118 16.0045C23.3668 16.027 23.2243 16.0457 23.1793 16.0195C23.1343 15.997 23.1343 15.9745 23.1718 15.967H23.1755Z" fill="#00D860"/>
<path d="M23.6727 15.9418C23.5821 15.9502 23.4935 15.973 23.4102 16.0093L23.4289 16.073C23.6152 16.0198 23.8094 15.9995 24.0027 16.013C23.9427 16.0168 23.8339 16.0805 23.7739 16.0843C23.9239 16.073 24.0664 16.103 24.1039 16.1143C24.1414 16.1218 24.1527 16.1518 24.1227 16.1818C24.0927 16.2155 24.0814 16.208 24.1414 16.2155C24.2014 16.2155 24.3289 16.2043 24.3852 16.148C24.3589 16.1255 24.3027 16.1368 24.2839 16.1143C24.3218 16.1022 24.3564 16.0817 24.3852 16.0543C24.3274 16.0558 24.2697 16.052 24.2127 16.043C24.1827 16.0355 24.1564 16.0243 24.1977 16.0018C24.226 15.988 24.2515 15.9689 24.2727 15.9455C24.1977 15.9643 24.0814 15.983 23.9802 15.908C24.0177 15.9155 24.1039 15.908 24.1339 15.8968C24.109 15.8807 24.0808 15.8704 24.0514 15.8668C24.1264 15.8293 24.2764 15.7955 24.4752 15.8705C24.5642 15.8638 24.6537 15.8688 24.7414 15.8855C24.7789 15.8555 24.8389 15.7805 24.8727 15.7655C24.6477 15.7805 24.2427 15.743 24.2539 15.623C24.1789 15.7205 24.0102 15.773 23.9389 15.758C23.9314 15.788 23.9614 15.833 23.9877 15.8555C23.9127 15.8705 23.7814 15.8855 23.7214 15.8705C23.7589 15.9043 23.8189 15.9343 23.8564 15.9343C23.7814 15.9343 23.7364 15.9493 23.6727 15.9418V15.9418Z" fill="#00D860"/>
<path d="M24.1406 16.2117C24.2081 16.2117 24.3281 16.2042 24.3881 16.148C24.3619 16.1255 24.3056 16.1367 24.2869 16.1142C24.3247 16.1021 24.3594 16.0816 24.3881 16.0542C24.5531 16.0392 24.6919 16.0467 24.7631 16.028C24.8306 16.0092 25.0069 16.0167 25.0406 16.0092C24.8869 16.0355 24.8569 16.0467 24.8531 16.073C24.8456 16.0992 24.8981 16.1142 24.9356 16.1142C24.8719 16.1142 24.7819 16.1855 24.7706 16.2155C24.6806 16.163 24.6431 16.223 24.6281 16.2455C24.5906 16.2305 24.4631 16.2342 24.3994 16.2905C24.3169 16.2642 24.2606 16.253 24.1744 16.2642C24.2306 16.253 24.2194 16.2155 24.1444 16.2117H24.1406ZM24.8719 15.7617C24.9244 15.7617 25.0369 15.7692 25.0781 15.7617C25.053 15.774 25.0302 15.7905 25.0106 15.8105C25.1419 15.7955 25.3181 15.7842 25.3706 15.7955C25.3031 15.7842 25.2394 15.8292 25.2056 15.848C25.1756 15.8667 25.1944 15.8817 25.2394 15.8855C25.2844 15.893 25.3406 15.923 25.2619 15.9155C25.1869 15.908 25.0219 15.9042 24.9844 15.908C24.9469 15.9155 24.9244 15.8967 24.9844 15.8855C25.0249 15.8794 25.0642 15.8667 25.1006 15.848C25.0556 15.8592 24.9694 15.8592 24.9394 15.848C24.9094 15.8367 24.8981 15.8292 24.9281 15.818C24.9619 15.8067 24.9394 15.803 24.9056 15.8067C24.8719 15.8067 24.7931 15.8442 24.7444 15.8855C24.7931 15.833 24.8419 15.788 24.8719 15.7655V15.7617Z" fill="#00D860"/>
<path d="M24.2915 15.8522C24.3231 15.8886 24.3623 15.9176 24.4064 15.937C24.4505 15.9565 24.4983 15.9659 24.5465 15.9647C24.569 15.9647 24.6215 15.9984 24.5578 16.0022C24.3965 16.0097 24.3178 15.9684 24.2465 15.8672C24.2315 15.8447 24.2578 15.8147 24.2915 15.8522ZM25.2478 14.5172C25.3303 14.5547 25.499 14.5922 25.6303 14.5884C25.6565 14.5884 25.6978 14.6109 25.6415 14.6147C25.502 14.6317 25.3606 14.6055 25.2365 14.5397C25.2028 14.5209 25.214 14.5022 25.2478 14.5172V14.5172Z" fill="black"/>
<path d="M25.33 14.5159C25.4612 14.5159 25.5587 14.5159 25.5925 14.5496C25.6675 14.5309 25.8063 14.5159 25.8325 14.5234C25.8625 14.5309 25.9 14.5121 25.8287 14.4971C25.7537 14.4821 25.5962 14.4746 25.5437 14.4859C25.4912 14.4934 25.33 14.5009 25.2812 14.4934C25.3 14.4934 25.315 14.5009 25.33 14.5159V14.5159ZM25.8325 14.5646C25.8925 14.5346 26.0687 14.5646 26.1212 14.5421C26.0837 14.5871 26.245 14.5909 26.3837 14.5571C26.3312 14.5871 26.215 14.5946 26.1662 14.6171C26.1175 14.6396 26.0912 14.6209 26.0537 14.6059C25.9849 14.5732 25.9083 14.5602 25.8325 14.5684V14.5646Z" fill="#00D860"/>
<path d="M26.3833 14.5575C26.2445 14.5875 26.0833 14.5875 26.1208 14.5425C26.0683 14.565 25.8958 14.535 25.832 14.565C25.8995 14.5275 25.9445 14.5613 25.9895 14.4825C26.0195 14.4863 26.087 14.49 26.1095 14.46C26.147 14.4713 26.222 14.4862 26.2408 14.5087C26.2595 14.5312 26.2895 14.5012 26.267 14.4712C26.3308 14.4487 26.2895 14.4975 26.4358 14.46C26.4695 14.4525 26.5408 14.4375 26.567 14.4375C26.5097 14.4851 26.4468 14.5254 26.3795 14.5575H26.3833Z" fill="#00D860"/>
<path d="M23.6833 13.9158L23.657 10.6608C23.657 10.5145 23.582 10.5483 23.582 10.6608V13.8858L23.6833 13.9158ZM24.7408 10.4883L24.857 13.9158L24.842 13.9458H24.767L24.6958 10.4883H24.7408ZM25.7383 13.3908L25.6783 10.6045C25.6783 10.5145 25.6033 10.5295 25.6033 10.6195L25.6633 13.3908H25.7383Z" fill="#FFFF00" stroke="black" stroke-width="0.0334418"/>
<path d="M24.1571 11.0593L23.1296 11.0443C23.0846 11.2505 23.3358 11.2318 23.4221 11.1943C23.5383 11.2655 23.6283 11.2655 23.6846 11.1943C23.7746 11.2655 23.8908 11.2505 23.9358 11.1943C24.0521 11.2955 24.1833 11.1943 24.1571 11.0443V11.0593ZM24.2321 11.558H23.2008C23.0133 11.7343 23.2458 11.8205 23.4521 11.7043C23.4821 11.7643 23.5983 11.7905 23.6846 11.7493C23.7746 11.8055 23.8908 11.7643 23.9471 11.7043C24.0521 11.7493 24.1833 11.7643 24.2433 11.5543L24.2321 11.558ZM24.1983 12.218H23.2008C23.1896 12.3793 23.3921 12.3643 23.4633 12.3193C23.5383 12.4393 23.7146 12.4093 23.7746 12.3343C23.8758 12.4093 23.9621 12.3943 24.0071 12.3343C24.1121 12.4243 24.2133 12.3043 24.1983 12.218ZM24.2621 12.863L23.1333 12.848C23.0733 13.0355 23.2496 13.0693 23.3208 13.0243C23.3546 13.1255 23.5008 13.0993 23.5458 13.0243C23.6021 13.0693 23.6771 13.0393 23.7033 12.9943C23.7183 13.0955 23.8533 13.1105 23.9546 13.0243C24.1608 13.1705 24.3483 12.9943 24.2471 12.863H24.2621ZM25.2446 12.6005H24.3221C24.3633 12.773 24.4533 12.818 24.5996 12.713C24.7158 12.833 24.8921 12.788 24.9371 12.7318C25.1433 12.893 25.2446 12.7018 25.2446 12.5818V12.6005ZM25.1546 11.9555L24.2471 11.9255C24.2621 12.158 24.4833 12.143 24.5996 12.0568C24.6746 12.158 24.8208 12.1318 24.8921 12.0568C24.9933 12.173 25.1846 12.1018 25.1546 11.9555ZM25.2746 11.2355H24.2996C24.2996 11.3968 24.5171 11.483 24.6783 11.3368C24.7233 11.528 24.8996 11.468 24.9746 11.3968C25.0871 11.543 25.3383 11.3668 25.2671 11.2468L25.2746 11.2355ZM25.2146 10.748L24.3333 10.7668C24.3333 10.913 24.5396 10.973 24.6146 10.853C24.6596 10.928 24.8021 10.913 24.8471 10.853C24.9071 10.958 24.9971 10.883 25.0233 10.853C25.1283 10.928 25.2296 10.883 25.2146 10.7518V10.748ZM26.2271 11.0743L25.1696 11.0593C25.1696 11.1605 25.2746 11.2093 25.3458 11.1605C25.3458 11.2805 25.4958 11.3105 25.5971 11.2205C25.6533 11.3218 25.8446 11.3368 25.9196 11.2205C26.0658 11.3518 26.2421 11.2505 26.2121 11.0705L26.2271 11.0743ZM26.2121 11.9368H25.1846C25.1846 12.0868 25.3458 12.128 25.4471 12.0568C25.4658 12.173 25.5971 12.188 25.6721 12.1168C25.7733 12.218 25.9196 12.2293 26.0096 12.1168C26.1221 12.158 26.2271 12.0568 26.2121 11.9405V11.9368ZM26.1521 12.7168H25.3308C25.3308 12.863 25.5071 12.863 25.5821 12.7918C25.6683 12.893 25.7883 12.893 25.8596 12.818C25.9608 12.908 26.1371 12.878 26.1521 12.7168Z" fill="white" stroke="black" stroke-width="0.0334418"/>
<path d="M24.8447 13.951C24.406 13.951 23.9522 13.951 23.6447 13.9172C23.3372 13.891 23.2472 13.831 23.0297 13.6997L22.201 13.201C22.1297 13.171 22.0585 13.216 22.1597 13.276L22.981 13.816C23.168 13.9367 23.3361 14.0846 23.4797 14.2547C23.656 14.446 23.7722 14.446 23.8585 14.416C23.9485 14.3897 24.0647 14.341 24.196 14.3747C24.316 14.401 24.4885 14.416 24.5785 14.401C24.6535 14.476 24.841 14.461 24.946 14.431C25.0472 14.401 25.1222 14.401 25.1935 14.416H25.4447C25.5197 14.416 25.7072 14.3747 25.8385 14.3897C25.9885 14.416 26.116 14.3897 26.206 14.3897C26.3015 14.3649 26.4009 14.3598 26.4985 14.3747C26.5885 14.3147 26.6147 14.2397 26.6485 14.1685C26.7347 14.1535 26.761 14.1385 26.776 14.0935L26.866 13.861H26.896V13.771L26.836 13.6847L26.866 13.5347L26.941 13.5085L26.911 13.3585L25.621 13.3922C25.5743 13.4348 25.5428 13.4914 25.531 13.5535L25.1485 13.6097C25.1072 13.6247 25.0622 13.6247 25.0172 13.6847L24.8447 13.951Z" fill="black" stroke="black" stroke-width="0.0334418"/>
<path d="M26.3837 13.3762L26.5712 12.6562C26.6012 12.5812 26.53 12.57 26.5 12.6562L26.3125 13.3762H26.3837Z" fill="black" stroke="black" stroke-width="0.0334418"/>
<path d="M27.1309 12.5703C26.9697 12.6453 26.8834 12.6866 26.8084 12.6566C26.7334 12.6266 26.6472 12.6116 26.5909 12.6416C26.5914 12.6466 26.5914 12.6516 26.5909 12.6566C26.5379 12.843 26.4842 13.0293 26.4297 13.2153C26.5422 13.2603 26.7522 13.2603 26.7934 13.2153C26.8534 13.1553 26.9847 13.1703 27.0559 13.1703C27.1009 13.1103 27.1159 13.0391 27.1009 13.0091C27.0859 12.9791 27.1009 12.9078 27.1009 12.8591C27.1009 12.8216 27.1609 12.6566 27.1309 12.5703V12.5703Z" fill="white" stroke="black" stroke-width="0.0334418"/>
<path d="M23.4394 11.1891C23.1549 11.9299 22.7591 12.6228 22.2656 13.2441M22.5581 13.4204C23.2089 12.8955 23.7733 12.2717 24.2306 11.5716M23.2031 12.2016C23.1619 12.5991 23.0419 13.3004 22.9856 13.6679M23.3644 13.0829C23.2181 13.2291 23.0269 13.4616 22.8694 13.5929M24.7294 12.2879C24.6131 12.4079 24.4819 12.5504 24.3469 12.5841M24.8044 12.3216C24.9118 12.444 25.0467 12.5391 25.1981 12.5991M24.7294 11.6879C24.6018 11.8008 24.4525 11.8863 24.2906 11.9391M24.7894 11.6991C24.8756 11.7854 24.9769 11.8866 25.1119 11.9504M24.3206 11.2304C24.4667 11.1868 24.6012 11.1112 24.7144 11.0091M24.7594 11.0091C24.873 11.1141 25.007 11.1945 25.1531 11.2454M24.3469 10.7579C24.4848 10.7347 24.6099 10.6629 24.6994 10.5554M24.7444 10.5254C24.8456 10.6154 25.0369 10.7316 25.1419 10.7466M25.6106 10.8629C25.5506 10.9379 25.3894 11.0541 25.2881 11.0541M25.6819 10.8666C25.7269 10.9379 25.8431 11.0541 25.9181 11.0541M25.2131 11.9354C25.3711 11.8761 25.5125 11.7797 25.6256 11.6541M25.7006 11.6691C25.7701 11.7768 25.8639 11.8667 25.9744 11.9316M25.3744 12.6966C25.4344 12.6966 25.5956 12.6066 25.6369 12.5091M25.7269 12.4604C25.8076 12.5618 25.9069 12.6471 26.0194 12.7116M23.2781 12.8429C23.4656 12.7829 23.8369 12.5504 24.0281 12.3291M23.6756 12.6066C23.8219 12.7116 24.0131 12.8316 24.1444 12.8579M23.2331 12.1979C23.3629 12.1457 23.4822 12.0708 23.5856 11.9766M23.6606 11.9616C23.7019 12.0216 24.0094 12.2129 24.1444 12.2129M23.5856 11.3504C23.4737 11.4355 23.3499 11.5037 23.2181 11.5529M23.6606 11.3466C23.7619 11.4216 23.9831 11.5529 24.1106 11.5529M23.5894 10.7616C23.5031 10.8479 23.3569 10.9941 23.2369 11.0391M23.6644 10.7766C23.7206 10.8779 23.8969 11.0241 24.0131 11.0391M25.1869 11.4216C25.4681 11.9054 25.9631 12.5091 26.4619 12.8279M24.3994 10.8779C24.8081 11.4629 25.5994 12.7416 26.3606 13.2104M26.5106 12.7116C26.3141 12.979 26.0701 13.2078 25.7906 13.3866M26.4469 12.8729C26.1994 12.4604 26.0681 11.9504 25.8619 11.2604M23.8106 13.0791L24.1031 13.9566M23.7506 13.0641L24.0281 13.9416M23.6794 13.0191L23.9419 13.9266M23.6494 13.0341L23.8519 13.9266M23.8519 13.9004H24.1031M24.0731 13.8104H23.8406M24.0431 13.7354H23.8106M24.0131 13.6641H23.7769M23.9644 13.5779H23.7769M23.7619 13.5029H23.9494M23.7469 13.4429H23.9344M23.7319 13.3679H23.9081M23.7206 13.3116H23.8781M23.7019 13.2366H23.8519M23.6869 13.1804H23.8369M23.6756 13.1354H23.8219M23.6719 13.0791H23.8069M23.4244 13.0791L23.2481 13.8104M23.4694 13.0791L23.3194 13.8404M23.5144 13.0491L23.3944 13.8554M23.5706 13.0304L23.4844 13.8854M23.5856 13.8254H23.2931M23.5856 13.7504H23.2481M23.5856 13.6641H23.2781M23.5706 13.5891H23.2931M23.5856 13.5141H23.3081M23.5856 13.4279H23.3381M23.5856 13.3529H23.3381M23.5706 13.2816H23.3531M23.5706 13.2066H23.3831M23.5706 13.1354H23.3944M23.5706 13.0904H23.4094M23.5594 13.9004V13.0341M24.5081 12.7416L23.9269 13.9304M24.5569 12.7304L24.0581 13.9454M24.5869 12.7154L24.1894 13.9454M24.6319 12.7454L24.3094 13.9454M24.3244 13.9041H23.9569M24.3506 13.7841H24.0019M24.3656 13.6979H24.0731M24.4256 13.6079H24.1331M24.4406 13.5216H24.1631M24.4706 13.4316H24.2081M24.4969 13.3304H24.2644M24.5119 13.2554H24.2944M24.5419 13.1691H24.3356M24.5606 13.1091H24.3656M24.5719 13.0529H24.3656M24.5569 12.9929H24.4106M24.5606 12.9479H24.4256M24.5719 12.8916H24.4519M24.5981 12.8316H24.4819M24.5944 12.7866H24.4931M24.9919 12.7716L25.2431 13.5966M25.0369 12.7866L25.3444 13.5816M25.0819 12.7866L25.4494 13.5666M25.5356 13.4916L25.1231 12.7716M25.5356 13.5066H25.2431M25.5056 13.3904H25.2131M25.4644 13.3004H25.1831M25.4044 13.1991H25.1531M25.3444 13.1091H25.1269M25.2881 13.0079H25.0969M25.2431 12.9066H25.0669M25.1831 12.8166H25.0369M25.5056 12.8316L25.2431 13.5929M25.5806 12.8054L25.3444 13.5816M25.4494 13.5666L25.6256 12.8316M25.6669 12.8616L25.5206 13.5516M25.2731 13.5066H25.5206M25.3031 13.4204H25.5506M25.3294 13.3154H25.5656M25.3781 13.2291H25.5956M25.4044 13.1241H25.6106M25.4344 13.0379H25.6219M25.4756 12.9329H25.6519M25.5056 12.8466H25.6556M25.7869 12.8616L25.8994 13.3866M25.8281 12.8316L25.9894 13.3754M25.8881 12.8316L26.0644 13.3754M25.9594 12.8616L26.1506 13.3754M26.1356 13.3304H25.8881M26.1094 13.2554H25.8731M26.0794 13.1841H25.8581M26.0456 13.0941H25.8281M26.0044 13.0191H25.8019M25.9781 12.9479H25.7906M25.9519 12.8729H25.7756" stroke="black" stroke-width="0.0334418"/>
<path d="M23.5352 14.2205C23.6514 14.1455 23.8539 14.1567 23.9589 14.2355C24.0827 14.168 24.3039 14.1867 24.4052 14.2805C24.5627 14.168 24.6939 14.153 24.8439 14.258C24.9103 14.2139 24.9885 14.1911 25.0682 14.1924C25.1479 14.1938 25.2253 14.2192 25.2902 14.2655C25.4289 14.2017 25.5789 14.1492 25.7102 14.288C25.6465 14.2451 25.5704 14.2245 25.4938 14.2292C25.4172 14.234 25.3443 14.2638 25.2864 14.3142C25.1552 14.183 24.9227 14.2317 24.8439 14.3255C24.8163 14.2955 24.7827 14.2718 24.7452 14.2558C24.7077 14.2397 24.6673 14.2318 24.6266 14.2325C24.5859 14.2332 24.5457 14.2425 24.5089 14.2599C24.472 14.2772 24.4392 14.3021 24.4127 14.333C24.2739 14.2205 24.0714 14.213 23.9627 14.2955C23.902 14.2508 23.8319 14.2208 23.7577 14.2078C23.6835 14.1948 23.6074 14.1991 23.5352 14.2205V14.2205Z" fill="#00B800"/>
<path d="M25.6177 14.0548C25.014 14.1598 23.6902 14.0923 23.4052 14.0136C23.304 13.9911 23.3302 13.9536 23.4165 13.9761C23.7502 14.0511 24.4627 14.0511 24.8527 14.0286L25.0852 13.7098C25.1227 13.6611 25.1377 13.6573 25.2165 13.6461L25.5427 13.5898V13.6348C25.5352 13.6461 25.5277 13.6573 25.5165 13.6611C25.5165 13.7361 25.5315 13.9273 25.5502 13.9986L25.5915 13.9873C25.6177 13.9798 25.644 14.0511 25.6177 14.0548V14.0548Z" fill="#CF6200"/>
<path d="M26.6087 14.0844H26.6912C26.7137 14.0844 26.7512 14.0656 26.7624 14.0281L26.8449 13.7919L26.7812 13.6981L26.8149 13.4994L26.8899 13.4656C26.8974 13.4544 26.8899 13.4056 26.8749 13.3906L25.6899 13.4281C25.6524 13.4281 25.6374 13.4281 25.6262 13.4769C25.5912 13.6355 25.6007 13.8006 25.6536 13.9541C25.7065 14.1077 25.8009 14.2436 25.9262 14.3469C25.9449 14.3619 25.9712 14.3469 25.9374 14.3206C25.8741 14.2571 25.8199 14.1852 25.7762 14.1069H25.9712C25.9862 14.1706 26.0349 14.3019 26.0462 14.3281C26.0537 14.3544 26.0762 14.3544 26.0612 14.3169C26.0387 14.2419 26.0237 14.1481 26.0124 14.1031H26.2112L26.2262 14.2981C26.2262 14.3244 26.2487 14.3244 26.2487 14.2944V14.0994L26.4287 14.0919L26.4137 14.2869C26.4099 14.3206 26.4249 14.3319 26.4324 14.2869L26.4587 14.0919L26.5824 14.0844C26.5824 14.1294 26.5412 14.2494 26.5299 14.2794C26.5187 14.3169 26.5374 14.3169 26.5487 14.2831C26.5745 14.22 26.5945 14.1548 26.6087 14.0881V14.0844Z" fill="#CF6200"/>
<path d="M25.7422 14.0549C25.7234 14.0137 25.6559 13.8637 25.6522 13.7549H25.9147C25.9222 13.8337 25.9447 14.0099 25.9597 14.0512L25.7422 14.0549ZM25.9597 13.7474C25.9634 13.8149 25.9972 14.0287 26.0047 14.0474H26.2147L26.1997 13.7437L25.9597 13.7474ZM25.6634 13.4849C25.6541 13.5595 25.6516 13.6348 25.6559 13.7099L25.9072 13.6987L25.8847 13.4774L25.6634 13.4849ZM25.9372 13.4774L25.9522 13.7024L26.1997 13.6949L26.1884 13.4699L25.9372 13.4774ZM26.2372 13.4662L26.2447 13.6912L26.4584 13.6874C26.4584 13.6387 26.4697 13.4924 26.4659 13.4587L26.2372 13.4662ZM26.5072 13.4587L26.4997 13.6837L26.7322 13.6762C26.7434 13.6274 26.7659 13.4999 26.7659 13.4512L26.5072 13.4587ZM26.7434 13.7287L26.4959 13.7362L26.4734 14.0362L26.7097 14.0287C26.7429 13.9555 26.7717 13.8803 26.7959 13.8037C26.7772 13.7662 26.7622 13.7549 26.7434 13.7287V13.7287ZM26.2447 13.7437L26.2522 14.0437L26.4322 14.0362L26.4547 13.7362L26.2447 13.7437ZM25.2322 13.6837L25.1347 13.6987C25.059 13.8108 24.9802 13.9209 24.8984 14.0287L25.2472 14.0212L25.2359 13.6837H25.2322ZM25.2772 13.6724L25.2922 14.0174L25.5022 14.0024L25.4647 13.6424L25.2772 13.6724Z" fill="black"/>
<path d="M24.2577 12.863H23.1289V12.833L24.2539 12.848L24.2577 12.863ZM25.1389 11.9555C25.1502 11.9555 25.1502 11.9555 25.1389 11.9555L24.2577 11.9405C24.2427 11.9405 24.2427 11.9405 24.2577 11.9405H25.1389V11.9555ZM24.2014 12.203C24.2127 12.203 24.2127 12.218 24.2014 12.218H23.2002C23.1889 12.218 23.2002 12.203 23.2002 12.203H24.2014ZM24.2277 11.558C24.2427 11.558 24.2427 11.573 24.2277 11.573H23.1889C23.1739 11.573 23.1739 11.558 23.1889 11.558H24.2277ZM24.1527 11.0443C24.1677 11.0443 24.1677 11.0593 24.1527 11.0593H23.1402C23.1289 11.0593 23.1402 11.0293 23.1402 11.0293L24.1677 11.0443H24.1527Z" fill="black" stroke="black" stroke-width="0.0334418"/>
<path d="M25.2094 10.752L24.3281 10.767L25.2094 10.752Z" fill="white" stroke="black" stroke-width="0.0334418"/>
<path d="M25.2566 11.2498C25.2716 11.2498 25.2716 11.2498 25.2566 11.2498H24.3003C24.2853 11.2498 24.2853 11.2498 24.3003 11.2498H25.2566ZM26.2091 11.9248V11.9398H25.1816C25.1516 11.9398 25.1516 11.9398 25.1816 11.9398H26.2128L26.2091 11.9248ZM26.2091 11.0586C26.2391 11.0586 26.2391 11.0736 26.2091 11.0736H25.1628C25.1478 11.0736 25.1478 11.0586 25.1628 11.0586H26.2203H26.2091ZM25.2378 12.5848C25.2528 12.5848 25.2528 12.5998 25.2378 12.5998H24.3003V12.5848H25.2378ZM26.1453 12.7161C26.1603 12.7161 26.1603 12.7161 26.1453 12.7161H25.3241H26.1453Z" fill="black" stroke="black" stroke-width="0.0334418"/>
<path d="M26.9002 12.8632C26.9165 12.7954 26.9165 12.7247 26.9002 12.657C26.8708 12.6655 26.8395 12.6655 26.8102 12.657C26.7958 12.646 26.7808 12.636 26.7652 12.627C26.7609 12.723 26.742 12.8179 26.7089 12.9082C26.6639 12.9082 26.5589 12.9082 26.5177 12.8782L26.4727 13.0245C26.5455 13.0405 26.621 13.0405 26.6939 13.0245C26.6939 13.1107 26.6789 13.1857 26.6339 13.2457C26.7089 13.2457 26.7839 13.2457 26.7952 13.2007C26.8402 13.1407 26.8402 13.0507 26.8552 13.0095L26.9302 12.9945L27.0014 12.9645L27.1027 12.9495V12.8632L27.1327 12.8032L26.9002 12.8782V12.8632Z" fill="#EF072D" stroke="black" stroke-width="0.0334418"/>
<path d="M23.2597 7.90571C23.1434 7.90571 22.8772 7.90571 22.8209 7.93571C22.7759 7.96571 22.7609 7.98071 22.8509 7.99571C22.9372 8.01071 23.0984 8.07071 23.1884 8.11196C23.2747 8.17196 23.3347 8.26196 23.3347 8.40446C23.3021 8.58532 23.3269 8.77184 23.4056 8.93793C23.4842 9.10401 23.6129 9.24134 23.7734 9.33071C23.7884 9.34571 23.8034 9.35696 23.7884 9.41696L23.7434 9.57821C23.7434 9.60821 23.7284 9.63821 23.7734 9.62321C23.7271 9.70303 23.6771 9.78061 23.6234 9.85571C23.3909 9.82946 23.1884 9.85571 23.1884 10.1182C23.1884 10.152 23.1884 10.1782 23.2147 10.1182C23.2597 10.062 23.3047 10.0057 23.4059 9.97571C23.3497 10.077 23.3197 10.1632 23.3309 10.2232C23.3309 10.2682 23.3609 10.2982 23.3909 10.2232C23.4059 10.1632 23.4659 10.107 23.5109 10.062C23.5372 10.047 23.5372 10.047 23.5222 10.092C23.5159 10.1495 23.532 10.2072 23.5672 10.2532C23.5972 10.2832 23.6122 10.2682 23.5972 10.2232C23.5972 10.1632 23.5972 10.062 23.6722 10.0357C23.7584 9.97571 23.8447 10.002 23.8747 10.062C23.9197 10.137 23.9497 10.062 23.9047 10.002C23.8597 9.94571 23.8184 9.87071 23.7584 9.87071L23.9084 9.62321C23.9084 9.59321 23.9347 9.57821 23.9647 9.59321C23.9647 9.60821 23.9947 9.60821 24.0059 9.56321L24.1109 9.35696L24.1972 9.33071L24.3472 9.54821V9.63821C24.3472 9.69446 24.2872 9.82571 24.2722 9.87071C24.0959 9.87071 24.0097 9.87071 23.9497 9.97571C23.9197 10.017 23.9647 10.032 24.0059 10.017C24.0513 9.98992 24.1031 9.97567 24.1559 9.97571C24.1822 9.97571 24.1972 10.002 24.1559 10.017C24.0509 10.062 23.9797 10.137 23.9797 10.2382C23.9797 10.2682 24.0059 10.2832 24.0209 10.2382C24.0638 10.1662 24.132 10.1127 24.2122 10.0882C24.2122 10.1632 24.2272 10.2832 24.2872 10.3132C24.3284 10.3395 24.3284 10.3132 24.3172 10.2682C24.2872 10.1932 24.3172 10.1182 24.3584 10.077C24.4334 9.99071 24.6097 10.107 24.6547 10.137C24.6809 10.1632 24.7109 10.1782 24.6809 10.092C24.6659 9.99071 24.5197 9.94196 24.3884 9.91571L24.5647 9.30071C24.6397 9.34571 24.7147 9.22571 24.8272 9.27071C25.0241 9.35866 25.2113 9.46674 25.3859 9.59321C25.4459 9.63821 25.4609 9.62321 25.4872 9.59321C25.5172 9.57821 25.5622 9.59321 25.6072 9.59321C25.6334 9.60821 25.6634 9.62321 25.6222 9.53321C25.5378 9.37957 25.4167 9.24941 25.2697 9.15446C25.3859 9.15446 25.5322 9.15446 25.5322 9.12446C25.5322 9.09446 25.3559 9.03446 25.2847 9.03446C25.371 9.01873 25.4513 8.97984 25.5172 8.92196C25.5472 8.88821 25.5172 8.87321 25.4009 8.87321C25.0934 8.87321 24.9322 8.87321 24.7709 8.78696C24.5084 8.63696 24.3434 8.46446 24.2122 8.40446C24.1559 8.36321 24.1109 8.27321 24.0659 8.20196C23.9909 7.97696 23.9909 7.86446 23.8034 7.78946C23.6122 7.71446 23.3609 7.80446 23.2597 7.90571V7.90571Z" fill="black" stroke="black" stroke-width="0.0334418"/>
<path d="M23.2765 7.96531H23.029C23.029 7.96531 22.999 7.96531 23.029 7.96531L23.2465 8.02531C23.2915 8.02531 23.2765 8.06656 23.2465 8.05156C23.2165 8.04031 23.1902 8.05156 23.2165 8.08156C23.3665 8.18656 23.3927 8.23156 23.3665 8.62531L23.4377 8.68531C23.4677 8.68531 23.4527 8.71156 23.4377 8.69656C23.4227 8.68531 23.3627 8.69656 23.4077 8.72656C23.4527 8.75656 23.4827 8.75656 23.4377 8.75656C23.3927 8.75656 23.3515 8.78656 23.4377 8.77156C23.5127 8.77156 23.554 8.80156 23.4377 8.81656C23.3515 8.81656 23.3777 8.84656 23.4377 8.84656C23.539 8.84656 23.5127 8.87281 23.4827 8.87281C23.4527 8.87281 23.4377 8.90281 23.5127 8.90281H23.614C23.629 8.90281 23.644 8.90281 23.614 8.91781C23.584 8.91781 23.584 8.94781 23.629 8.94781C23.674 8.94781 23.704 8.94781 23.659 8.96281C23.644 8.96281 23.614 8.97781 23.659 8.99281C23.7602 8.99281 23.7715 9.01906 23.7452 9.03406C23.7152 9.04906 23.7002 9.04906 23.7452 9.04906C23.7902 9.04906 23.8352 9.06406 23.7902 9.07906C23.7602 9.07906 23.7452 9.10906 23.7902 9.10906C23.8352 9.10906 23.8652 9.13906 23.8352 9.15406C23.8052 9.16906 23.7902 9.18406 23.8352 9.18406C23.8765 9.18406 23.8915 9.19531 23.8615 9.21031C23.8352 9.24031 23.8202 9.24031 23.7865 9.21031C23.7865 9.18406 23.7602 9.18406 23.7602 9.21031L23.7302 9.16906C23.7152 9.12406 23.6852 9.12406 23.6852 9.16906C23.6852 9.21031 23.659 9.18406 23.629 9.16906C23.6999 9.2504 23.7961 9.30566 23.9021 9.32604C24.0081 9.34643 24.1179 9.33077 24.214 9.28156C24.229 9.28156 24.244 9.28156 24.259 9.33031L24.3452 9.49156C24.3602 9.51781 24.3902 9.49156 24.3902 9.46156L24.4802 9.21031C24.4802 9.16906 24.5365 9.13531 24.5215 9.25531C24.5665 9.22531 24.7427 9.21031 24.889 9.25531C25.0303 9.31184 25.1639 9.3862 25.2865 9.47656C25.297 9.48466 25.3092 9.49023 25.3222 9.49283C25.3352 9.49543 25.3486 9.495 25.3615 9.49156C25.399 9.49156 25.4177 9.49156 25.3427 9.41656C25.2677 9.34156 25.3015 9.31531 25.3427 9.34156C25.3877 9.37156 25.4177 9.35656 25.3727 9.31531L25.2265 9.18406C25.2115 9.18406 25.2115 9.15406 25.1402 9.15406H24.9152C24.889 9.15406 24.859 9.15406 24.949 9.18406C25.0352 9.21031 25.1965 9.33031 25.2415 9.35656C25.2865 9.38656 25.3015 9.44656 25.2265 9.38656C25.0594 9.27544 24.8839 9.17764 24.7015 9.09406C24.304 9.13906 23.9815 9.18406 23.7452 8.93281C23.629 8.80156 23.629 8.52031 23.8202 8.40781C23.7902 8.37406 23.7902 8.34781 23.8052 8.34781V8.25781C23.7752 8.24281 23.7452 8.21281 23.7452 8.18281C23.7002 8.18281 23.6702 8.11156 23.599 8.14156C23.524 8.17156 23.5127 8.14156 23.4827 8.12656C23.4677 8.09656 23.4527 8.09656 23.4077 8.09656C23.3627 8.09656 23.3327 8.09656 23.3327 8.06656C23.3327 8.04031 23.3627 8.04031 23.4227 8.06656C23.524 8.11156 23.6102 8.14156 23.6852 8.04031C23.7452 7.95031 23.659 7.87906 23.539 7.84906C23.4077 7.81906 23.3215 7.92406 23.2615 7.96531H23.2765Z" fill="white" stroke="black" stroke-width="0.0334418"/>
<path d="M23.9227 7.92023C23.8794 7.8812 23.8282 7.85181 23.7727 7.83398C23.7352 7.83398 23.7352 7.86398 23.7465 7.87898V7.96523C23.7765 7.98023 23.7915 8.01023 23.7465 8.01023C23.7165 8.04023 23.7465 8.14148 23.7915 8.11148H23.8215C23.8215 8.11148 23.8215 8.15648 23.8477 8.15648C23.8777 8.15648 23.8477 8.18648 23.8477 8.20148H23.8777C23.9077 8.20148 23.8927 8.25773 23.8627 8.27648C23.9077 8.27648 23.9227 8.27648 23.9227 8.30273C23.9377 8.33273 23.9827 8.34773 23.9827 8.38898C23.9827 8.43398 23.9827 8.43398 23.9227 8.41898C23.8627 8.40398 23.8627 8.41898 23.8477 8.44898C23.8365 8.47898 23.8215 8.49398 23.8477 8.49398C23.8777 8.49398 23.9077 8.50898 23.8627 8.52398C23.8215 8.53523 23.7765 8.52398 23.7615 8.56523C23.7615 8.61023 23.7615 8.62523 23.7915 8.61023L23.8927 8.55023L23.9677 8.56523C23.9977 8.58023 23.9677 8.64023 23.9377 8.61023C23.9077 8.58023 23.8777 8.61023 23.8627 8.62523L23.7877 8.65523C23.7615 8.65523 23.7315 8.65523 23.7502 8.73023C23.7502 8.93273 23.9077 9.07898 24.2002 9.07898H24.6877C24.5977 9.01898 24.5377 8.99273 24.4927 8.99273H24.4515C24.4665 8.97773 24.4515 8.94773 24.4365 8.94773C24.4215 8.94773 24.3915 8.91773 24.3615 8.94773L24.2152 9.02273C24.1852 9.02273 24.1402 9.02273 24.1852 8.99273L24.3202 8.93273C24.3465 8.93273 24.3315 8.90273 24.3315 8.90273C24.3315 8.90273 24.3315 8.85773 24.3765 8.87273C24.4665 8.93273 24.5977 9.00773 24.639 9.00773C24.684 9.00773 24.699 8.97773 24.669 8.96273C24.6427 8.94773 24.6277 8.91773 24.6277 8.90273C24.6277 8.88773 24.6427 8.87273 24.7027 8.90273C24.759 8.94773 24.8452 8.97773 24.8902 8.99273C24.9352 9.00773 24.9652 9.00773 24.8902 8.96273L24.5527 8.71148C24.5077 8.67023 24.5077 8.71148 24.5227 8.74148C24.5377 8.77148 24.4815 8.78648 24.4477 8.75648C24.4215 8.72648 24.4065 8.71148 24.4477 8.69648C24.4927 8.68523 24.4815 8.67023 24.4365 8.62148C24.3765 8.58398 24.3615 8.58398 24.3765 8.62148C24.3915 8.67023 24.3915 8.69648 24.3465 8.68523C24.3052 8.67023 24.2602 8.64023 24.3052 8.62523C24.3315 8.59523 24.3802 8.58023 24.3052 8.53523C24.2302 8.49398 24.2752 8.53523 24.2602 8.56523C24.2452 8.59523 24.2002 8.59523 24.1852 8.56523C24.1702 8.53523 24.144 8.52398 24.159 8.50898C24.1702 8.49398 24.1702 8.47898 24.2002 8.50898C24.2302 8.53523 24.2602 8.50898 24.2152 8.46398C24.1702 8.41898 24.159 8.43398 24.1702 8.46398C24.1852 8.49398 24.144 8.52398 24.084 8.46398C24.054 8.44898 24.054 8.41898 24.084 8.40398C24.114 8.40398 24.114 8.38898 24.084 8.36273C23.9827 8.18648 24.024 8.05148 23.9077 7.92023H23.9227Z" fill="white" stroke="black" stroke-width="0.0334418"/>
<path d="M23.9248 7.94906C23.9173 7.96406 23.9135 7.96031 23.8948 7.97531C23.876 7.99031 23.8685 8.03156 23.906 8.02781C23.9164 8.02673 23.9264 8.0235 23.9354 8.01834C23.9445 8.01317 23.9523 8.00618 23.9585 7.99781C23.95 7.98072 23.9399 7.9644 23.9285 7.94906H23.9248ZM23.8123 7.85156C23.7785 7.88156 23.7748 7.89656 23.7898 7.89656C23.8085 7.89656 23.801 7.89656 23.7898 7.91906C23.7748 7.93781 23.8123 7.94906 23.8273 7.93031C23.846 7.91531 23.846 7.91156 23.8535 7.93031C23.8573 7.94906 23.891 7.93031 23.9023 7.91906C23.876 7.89281 23.8385 7.87031 23.8085 7.85156H23.8123ZM23.756 8.01656C23.7185 8.03531 23.7298 8.13656 23.7898 8.10656C23.8085 8.09906 23.8235 8.10656 23.8235 8.11781V8.14406C23.8479 8.13401 23.8696 8.11864 23.8873 8.09906C23.921 8.05406 23.8873 8.06156 23.8348 8.06156C23.7823 8.06156 23.771 8.05031 23.8198 8.02031C23.8648 7.99031 23.831 7.97531 23.771 7.98281C23.7785 7.99406 23.7748 8.00531 23.756 8.01656V8.01656ZM23.9773 8.24156C23.9473 8.20781 23.966 8.19656 23.996 8.17781C24.0019 8.17539 24.007 8.17152 24.011 8.16656L23.9848 8.06906C23.9735 8.07656 23.9548 8.11031 23.9473 8.12531C23.9398 8.15156 23.9323 8.16656 23.9098 8.16281C23.8835 8.15156 23.861 8.17781 23.8573 8.20406H23.876C23.8835 8.20781 23.8873 8.22656 23.8835 8.24156C23.9548 8.24156 23.966 8.28281 23.9773 8.31656C23.9923 8.35406 24.0035 8.35031 24.0148 8.32781C24.026 8.30531 24.0035 8.27156 23.9773 8.24156Z" fill="#CF6200"/>
<path d="M23.9973 8.64031C23.9823 8.67031 23.9823 8.66656 23.9411 8.66656C23.9036 8.67031 23.8511 8.67781 23.8286 8.70031C23.8173 8.71156 23.7461 8.71906 23.7461 8.74906C23.7461 8.78281 23.7461 8.80531 23.7761 8.80906C23.8061 8.80906 23.8136 8.81656 23.8023 8.83906C23.7873 8.86156 23.7798 8.89531 23.8323 8.90281C23.8848 8.90281 23.9261 8.89156 23.9373 8.91781C23.9523 8.95531 23.9373 8.99656 23.9486 9.01906C23.9561 9.03781 23.9936 9.04531 24.0498 9.06406C24.0873 9.07156 24.2298 9.08281 24.2748 9.07531C24.3123 9.06781 24.2973 9.04531 24.2561 9.04531C24.2111 9.03781 24.1811 9.03031 24.1698 9.00031C24.1586 8.96656 24.1511 8.95156 24.1773 8.92531C24.1998 8.89531 24.2223 8.87656 24.2073 8.83156C24.1961 8.79031 24.1698 8.73781 24.1211 8.72281C24.0723 8.70781 24.0873 8.63656 24.0348 8.63281C24.0161 8.63281 24.0048 8.63281 23.9973 8.64031V8.64031Z" fill="#FFFF00"/>
<path d="M23.7491 9.05222C23.7941 9.05972 23.8278 9.07097 23.7941 9.08222C23.7603 9.09347 23.7378 9.11222 23.7828 9.11597C23.8278 9.11597 23.8691 9.13847 23.8316 9.14597C23.7941 9.15722 23.7941 9.18347 23.8353 9.18347C23.8766 9.18347 23.8991 9.19847 23.8691 9.22097C23.8353 9.23597 23.8166 9.24722 23.7941 9.21722C23.7753 9.18347 23.7641 9.17972 23.7603 9.19847C23.7528 9.22097 23.7416 9.20597 23.7266 9.17222C23.7153 9.14222 23.6816 9.12722 23.6891 9.15347C23.7003 9.17972 23.6666 9.18722 23.6328 9.17222C23.6636 9.20824 23.7004 9.23869 23.7416 9.26222C23.7866 9.24722 23.8391 9.26222 23.8541 9.26222C23.8766 9.26222 23.9328 9.27722 23.9666 9.29597C24.0003 9.31097 24.0228 9.28097 24.0078 9.24722C23.9928 9.20972 23.9928 9.22097 23.9778 9.24722C23.9553 9.26222 23.9553 9.23597 23.9553 9.19472C23.9553 9.16472 23.9328 9.16847 23.9291 9.19097C23.9216 9.20972 23.9028 9.17597 23.9103 9.15722C23.9216 9.13847 23.9103 9.12722 23.8953 9.13472C23.8766 9.14222 23.8766 9.13472 23.8728 9.09722C23.8691 9.05597 23.8541 9.05972 23.8503 9.07847C23.8466 9.09347 23.8278 9.07097 23.8016 9.04097C23.7828 9.01847 23.7641 9.03347 23.7228 9.04472L23.7491 9.05222Z" fill="#CF6200"/>
<path d="M24.2102 9.29307C24.0039 9.37557 23.8539 9.33807 23.7414 9.26307C23.7864 9.24807 23.8389 9.26307 23.8577 9.26307C23.8764 9.26307 23.9364 9.27807 23.9664 9.29682C23.9964 9.31182 24.0227 9.28182 24.0077 9.24807C24.0339 9.28557 24.0564 9.30807 24.0902 9.30432L24.2102 9.29307V9.29307ZM23.7677 8.32557C23.7527 8.28057 23.7414 8.27307 23.7189 8.27682C23.6964 8.27682 23.6852 8.27307 23.6589 8.26182C23.6364 8.25057 23.6027 8.26182 23.5989 8.31057C23.5914 8.35932 23.5614 8.37807 23.5239 8.40807C23.4864 8.43432 23.4677 8.45682 23.4677 8.50557C23.4677 8.55057 23.4564 8.55807 23.4302 8.59557L23.3889 8.64432L23.4339 8.67057C23.4639 8.68557 23.4527 8.70432 23.4264 8.69682C23.4002 8.68932 23.3702 8.70432 23.4189 8.71182C23.4639 8.72307 23.4827 8.74932 23.4414 8.74932C23.3927 8.73807 23.3439 8.77932 23.4302 8.76807C23.5164 8.76057 23.5464 8.80182 23.4489 8.80182C23.3477 8.80182 23.3852 8.83557 23.4414 8.83557C23.5352 8.83557 23.5052 8.86182 23.4789 8.86182C23.4564 8.86182 23.4452 8.89932 23.5089 8.88807L23.5314 8.85057C23.5427 8.82057 23.5502 8.73432 23.5877 8.70807C23.6214 8.68557 23.6402 8.64432 23.6402 8.62182C23.6402 8.59932 23.6964 8.48307 23.7264 8.45682C23.7639 8.43057 23.7789 8.37057 23.7639 8.32932L23.7677 8.32557Z" fill="#FFFF00"/>
<path d="M23.691 8.33231C23.6572 8.30606 23.6197 8.32481 23.6197 8.36981C23.6197 8.40731 23.5972 8.42606 23.5672 8.44481C23.5504 8.45348 23.5357 8.46567 23.524 8.48056C23.5124 8.49544 23.5041 8.51267 23.4997 8.53106C23.4997 8.56856 23.5072 8.58731 23.4847 8.61731C23.4585 8.64356 23.4547 8.66606 23.4697 8.68481C23.4922 8.69981 23.4922 8.69981 23.496 8.72231C23.5072 8.74481 23.5485 8.72231 23.5485 8.69606C23.5485 8.66981 23.5597 8.66981 23.586 8.65481C23.616 8.63981 23.661 8.56481 23.6497 8.54606C23.6422 8.52731 23.6122 8.50856 23.6497 8.48231C23.6872 8.45231 23.7172 8.44481 23.7172 8.42231C23.7172 8.39231 23.7247 8.38481 23.736 8.37356C23.7472 8.36231 23.7135 8.34731 23.691 8.33606V8.33231Z" fill="#CF6200"/>
<path d="M23.6939 8.2957C23.6714 8.2882 23.6564 8.33695 23.6902 8.34445C23.7239 8.35195 23.7277 8.3107 23.6902 8.29945L23.6939 8.2957ZM23.6902 8.35945C23.6639 8.3632 23.6339 8.39695 23.6752 8.39695C23.7202 8.38945 23.7352 8.35945 23.6864 8.35945H23.6902ZM23.6377 8.4232C23.6114 8.43445 23.6189 8.47195 23.6564 8.4457C23.6939 8.41945 23.7014 8.38945 23.6377 8.4232ZM23.6002 8.4757C23.5739 8.48695 23.5739 8.52445 23.6152 8.4982C23.6527 8.4757 23.6639 8.44195 23.6002 8.4757Z" fill="black"/>
<path d="M23.5445 8.50065C23.5182 8.51194 23.5332 8.5458 23.5708 8.52323C23.6085 8.50065 23.6085 8.46679 23.5445 8.50065ZM23.5746 8.53451C23.5445 8.5458 23.5633 8.57966 23.6009 8.55709C23.6386 8.53451 23.6386 8.50065 23.5708 8.53451H23.5746Z" fill="black"/>
<path d="M23.5261 8.54557C23.5035 8.56062 23.5186 8.59072 23.56 8.56815C23.5976 8.54557 23.5938 8.51171 23.5261 8.54557ZM23.56 8.5832C23.5299 8.59448 23.5449 8.62834 23.5863 8.60577C23.6239 8.57943 23.6239 8.54934 23.5562 8.5832H23.56Z" fill="black"/>
<path d="M23.5144 8.60612C23.4918 8.61741 23.5069 8.65127 23.5483 8.62869C23.5859 8.60612 23.5783 8.57226 23.5182 8.60612H23.5144Z" fill="black"/>
<path d="M23.5119 8.63561C23.4931 8.65066 23.5082 8.68828 23.5495 8.66195C23.5872 8.63561 23.5796 8.60551 23.5119 8.63561Z" fill="black"/>
<path d="M23.4982 8.95898C23.472 8.95898 23.4532 9.00023 23.487 9.00773C23.5207 9.01523 23.5282 9.01898 23.5282 9.04148C23.5282 9.06398 23.5395 9.10523 23.5732 9.10523C23.6107 9.10523 23.6407 9.06773 23.6107 9.05648C23.577 9.04523 23.5507 9.03398 23.547 9.00398C23.547 8.97773 23.517 8.95898 23.4982 8.95898Z" fill="#CF6200"/>
<path d="M24.4297 8.73801L24.4484 8.76051C24.4747 8.77926 24.5234 8.76051 24.5122 8.74176C24.5084 8.72676 24.4822 8.66676 24.5497 8.71176L24.8947 8.95551C24.9659 9.00801 24.9172 9.01551 24.8872 8.99676L24.6997 8.91051C24.6434 8.87676 24.6359 8.89176 24.6247 8.89926C24.6247 8.91051 24.6247 8.93301 24.6472 8.95176C24.6134 8.95551 24.5609 8.95176 24.5422 8.91426C24.5234 8.86926 24.4784 8.81676 24.4447 8.77551C24.4334 8.76051 24.4297 8.74926 24.4334 8.74176L24.4297 8.73801Z" fill="#FFFF00"/>
<path d="M26.3267 14.9821C26.278 15.0159 26.2142 15.0721 26.2555 15.1509L26.2705 15.1471C26.4534 14.9251 26.6153 14.6866 26.7542 14.4346V14.4121C26.7032 14.454 26.6464 14.4881 26.5855 14.5134C26.608 14.5771 26.4992 14.6559 26.4467 14.6784C26.4692 14.7159 26.4617 14.7759 26.4092 14.7871C26.4205 14.8171 26.383 14.8171 26.3342 14.8396C26.293 14.8584 26.2705 14.8696 26.2555 14.8959C26.278 14.8809 26.3155 14.8696 26.3305 14.8771C26.3455 14.8846 26.353 14.9109 26.3192 14.9184C26.2892 14.9296 26.2667 14.9446 26.2517 14.9559C26.3005 14.9446 26.3717 14.9484 26.3267 14.9821V14.9821Z" fill="#00D860"/>
<path d="M24.0669 8.67025C24.0069 8.62525 23.9919 8.65525 24.0069 8.67025C24.0219 8.68525 24.0069 8.7265 23.9657 8.74525H23.8157C23.7894 8.74525 23.7444 8.8015 23.8157 8.78275L24.0519 8.74525C24.0819 8.74525 24.1119 8.7115 24.0519 8.67025H24.0669ZM24.1682 8.7565C24.1269 8.7115 24.1119 8.7265 24.1269 8.7565C24.1419 8.7865 24.1119 8.8015 24.0819 8.8015L23.8757 8.85775C23.8194 8.85775 23.8194 8.90275 23.8907 8.90275C23.9657 8.90275 24.1119 8.82775 24.1269 8.82775C24.1419 8.82775 24.1569 8.7865 24.1682 8.8015C24.1832 8.8165 24.2132 8.8015 24.1682 8.7565ZM24.2132 8.87275L24.0669 8.94775C24.0219 8.94775 23.9919 8.99275 24.0669 8.99275C24.1419 8.99275 24.2169 8.91775 24.2432 8.90275L24.3032 8.87275C24.3032 8.87275 24.3594 8.85775 24.3032 8.8165C24.2432 8.7715 24.1832 8.8165 24.2132 8.8315C24.2432 8.8465 24.2132 8.87275 24.2132 8.87275V8.87275Z" fill="black" stroke="black" stroke-width="0.0334418"/>
<path d="M23.6124 7.91967C23.5187 7.85592 23.4174 7.98342 23.5187 8.05467C23.6087 8.11842 23.7062 7.97967 23.6162 7.91967H23.6124Z" fill="black"/>
<path d="M23.4963 7.97656H23.5225C23.5225 8.00656 23.5488 8.05156 23.59 8.04031C23.5563 8.06656 23.4925 8.03281 23.4963 7.97656ZM23.8563 9.36406C23.8863 9.37531 23.9838 9.38281 24.0213 9.38281L23.9763 9.46531C23.965 9.49156 23.9613 9.49531 23.9575 9.45406C23.9575 9.41656 23.935 9.39031 23.9163 9.43156L23.8788 9.50656C23.8675 9.52156 23.8525 9.52531 23.8563 9.48406C23.8638 9.44281 23.86 9.39781 23.8563 9.36406V9.36406Z" fill="white"/>
<path d="M27.5452 10.4888C27.5452 12.8775 27.1627 15.4575 24.0577 16.6875C20.9602 15.4575 20.5814 12.8775 20.5664 10.4888H27.5452ZM27.5452 10.4888C27.5452 9.57754 27.5002 8.69629 27.5152 7.93879C26.4121 7.50983 25.2374 7.29475 24.0539 7.30504C23.2777 7.30504 21.7514 7.42129 20.5964 7.93504C20.6227 8.69629 20.5664 9.57754 20.5664 10.485L27.5452 10.4888Z" stroke="black" stroke-width="0.100325"/>
<path d="M6 3H18V12H6V3Z" fill="#012169"/>
<path d="M7.40625 3L11.9813 6.39375L16.5375 3H18V4.1625L13.5 7.51875L18 10.8563V12H16.5L12 8.64375L7.51875 12H6V10.875L10.4813 7.5375L6 4.2V3H7.40625Z" fill="white"/>
<path d="M13.95 8.26875L18 11.25V12L12.9188 8.26875H13.95ZM10.5 8.64375L10.6125 9.3L7.0125 12H6L10.5 8.64375ZM18 3V3.05625L13.3313 6.58125L13.3688 5.75625L17.0625 3H18ZM6 3L10.4813 6.3H9.35625L6 3.7875V3Z" fill="#C8102E"/>
<path d="M10.5188 3V12H13.5188V3H10.5188ZM6 6V9H18V6H6Z" fill="white"/>
<path d="M6 6.61875V8.41875H18V6.61875H6ZM11.1188 3V12H12.9188V3H11.1188Z" fill="#C8102E"/>
</g>
</g>
<defs>
<filter id="filter0_d_336_30646" x="0" y="-2" width="36" height="36" filterUnits="userSpaceOnUse" color-interpolation-filters="sRGB">
<feFlood flood-opacity="0" result="BackgroundImageFix"/>
<feColorMatrix in="SourceAlpha" type="matrix" values="0 0 0 0 0 0 0 0 0 0 0 0 0 0 0 0 0 0 127 0" result="hardAlpha"/>
<feOffset dy="4"/>
<feGaussianBlur stdDeviation="3"/>
<feComposite in2="hardAlpha" operator="out"/>
<feColorMatrix type="matrix" values="0 0 0 0 0 0 0 0 0 0 0 0 0 0 0 0 0 0 0.16 0"/>
<feBlend mode="normal" in2="BackgroundImageFix" result="effect1_dropShadow_336_30646"/>
<feBlend mode="normal" in="SourceGraphic" in2="effect1_dropShadow_336_30646" result="shape"/>
</filter>
<clipPath id="clip0_336_30646">
<rect width="24" height="18" fill="white" transform="translate(6 3)"/>
</clipPath>
</defs>
</svg>
