<svg width="36" height="31" viewBox="0 0 36 31" fill="none" xmlns="http://www.w3.org/2000/svg">
<g filter="url(#filter0_d_336_28214)">
<g clip-path="url(#clip0_336_28214)">
<path d="M6 3H30V12H6V3Z" fill="#002B7F"/>
<path d="M6 12H30V21H6V12Z" fill="#CE1126"/>
<path d="M12.4944 6.66858L12.4374 8.54358H10.5354C10.3014 8.08758 10.1094 7.70358 10.1094 7.17858C10.1094 6.74058 10.4544 6.39258 10.9494 6.39258C11.4744 6.39258 12.0534 6.56958 12.4944 6.66858V6.66858Z" fill="#FFD83D"/>
<path d="M10.3359 6.75556V7.83556ZM10.4859 6.64456V8.08456ZM10.6419 6.56956V8.28556ZM10.7919 6.53356V7.88056ZM10.9449 6.52756V7.88656ZM11.0979 6.47656V7.88656ZM11.2509 6.47656V7.88656ZM11.4039 6.49156V7.90156ZM11.5569 6.50656V7.91356ZM11.7099 6.59356V8.00356ZM11.8599 6.60856V8.19556ZM12.0159 6.60856V8.01856ZM12.1659 6.60856V8.01856Z" fill="#FFD83D"/>
<path d="M10.3359 6.75556V7.83556M10.4859 6.64456V8.08456M10.6419 6.56956V8.28556M10.7919 6.53356V7.88056M10.9449 6.52756V7.88656M11.0979 6.47656V7.88656M11.2509 6.47656V7.88656M11.4039 6.49156V7.90156M11.5569 6.50656V7.91356M11.7099 6.59356V8.00356M11.8599 6.60856V8.19556M12.0159 6.60856V8.01856M12.1659 6.60856V8.01856" stroke="black" stroke-width="0.100218" stroke-linecap="round" stroke-linejoin="round"/>
<path d="M11.2939 6.53906C11.6179 6.59006 12.3259 6.92306 12.2449 7.37006C12.1309 8.00606 11.7589 7.75106 11.2669 7.66106L10.8949 7.78406C10.7599 7.91906 10.5649 8.04506 10.4329 7.88006H10.2109V8.74406H12.6529V6.65906L11.2939 6.53906Z" fill="black" stroke="black" stroke-width="0.100218" stroke-linecap="round" stroke-linejoin="round"/>
<path d="M12.3853 6.53814C12.4665 6.53814 12.5323 6.47233 12.5323 6.39114C12.5323 6.30995 12.4665 6.24414 12.3853 6.24414C12.3041 6.24414 12.2383 6.30995 12.2383 6.39114C12.2383 6.47233 12.3041 6.53814 12.3853 6.53814Z" fill="#FFD83D" stroke="black" stroke-width="0.133624" stroke-linecap="round" stroke-linejoin="round"/>
<path d="M12.0532 6.45611C12.1344 6.45611 12.2003 6.3903 12.2003 6.30911C12.2003 6.22792 12.1344 6.16211 12.0532 6.16211C11.9721 6.16211 11.9062 6.22792 11.9062 6.30911C11.9062 6.3903 11.9721 6.45611 12.0532 6.45611Z" fill="#FFD83D" stroke="black" stroke-width="0.133624" stroke-linecap="round" stroke-linejoin="round"/>
<path d="M11.7134 6.37213C11.7946 6.37213 11.8604 6.30631 11.8604 6.22513C11.8604 6.14394 11.7946 6.07812 11.7134 6.07812C11.6322 6.07812 11.5664 6.14394 11.5664 6.22513C11.5664 6.30631 11.6322 6.37213 11.7134 6.37213Z" fill="#FFD83D" stroke="black" stroke-width="0.133624" stroke-linecap="round" stroke-linejoin="round"/>
<path d="M11.3736 6.31548C11.4547 6.31548 11.5206 6.24967 11.5206 6.16848C11.5206 6.0873 11.4547 6.02148 11.3736 6.02148C11.2924 6.02148 11.2266 6.0873 11.2266 6.16848C11.2266 6.24967 11.2924 6.31548 11.3736 6.31548Z" fill="#FFD83D" stroke="black" stroke-width="0.133624" stroke-linecap="round" stroke-linejoin="round"/>
<path d="M11.0337 6.28228C11.1149 6.28228 11.1807 6.21647 11.1807 6.13528C11.1807 6.0541 11.1149 5.98828 11.0337 5.98828C10.9525 5.98828 10.8867 6.0541 10.8867 6.13528C10.8867 6.21647 10.9525 6.28228 11.0337 6.28228Z" fill="#FFD83D" stroke="black" stroke-width="0.133624" stroke-linecap="round" stroke-linejoin="round"/>
<path d="M10.7056 6.29986C10.7868 6.29986 10.8526 6.23405 10.8526 6.15286C10.8526 6.07167 10.7868 6.00586 10.7056 6.00586C10.6244 6.00586 10.5586 6.07167 10.5586 6.15286C10.5586 6.23405 10.6244 6.29986 10.7056 6.29986Z" fill="#FFD83D" stroke="black" stroke-width="0.133624" stroke-linecap="round" stroke-linejoin="round"/>
<path d="M10.3892 6.40923C10.4704 6.40923 10.5362 6.34342 10.5362 6.26223C10.5362 6.18105 10.4704 6.11523 10.3892 6.11523C10.308 6.11523 10.2422 6.18105 10.2422 6.26223C10.2422 6.34342 10.308 6.40923 10.3892 6.40923Z" fill="#FFD83D" stroke="black" stroke-width="0.133624" stroke-linecap="round" stroke-linejoin="round"/>
<path d="M10.1197 6.6065C10.2008 6.6065 10.2667 6.54069 10.2667 6.4595C10.2667 6.37831 10.2008 6.3125 10.1197 6.3125C10.0385 6.3125 9.97266 6.37831 9.97266 6.4595C9.97266 6.54069 10.0385 6.6065 10.1197 6.6065Z" fill="#FFD83D" stroke="black" stroke-width="0.133624" stroke-linecap="round" stroke-linejoin="round"/>
<path d="M9.93216 6.87994C10.0133 6.87994 10.0792 6.81412 10.0792 6.73294C10.0792 6.65175 10.0133 6.58594 9.93216 6.58594C9.85097 6.58594 9.78516 6.65175 9.78516 6.73294C9.78516 6.81412 9.85097 6.87994 9.93216 6.87994Z" fill="#FFD83D" stroke="black" stroke-width="0.133624" stroke-linecap="round" stroke-linejoin="round"/>
<path d="M9.83841 7.20416C9.91959 7.20416 9.98541 7.13834 9.98541 7.05716C9.98541 6.97597 9.91959 6.91016 9.83841 6.91016C9.75722 6.91016 9.69141 6.97597 9.69141 7.05716C9.69141 7.13834 9.75722 7.20416 9.83841 7.20416Z" fill="#FFD83D" stroke="black" stroke-width="0.133624" stroke-linecap="round" stroke-linejoin="round"/>
<path d="M9.84231 7.53619C9.9235 7.53619 9.98931 7.47037 9.98931 7.38919C9.98931 7.308 9.9235 7.24219 9.84231 7.24219C9.76113 7.24219 9.69531 7.308 9.69531 7.38919C9.69531 7.47037 9.76113 7.53619 9.84231 7.53619Z" fill="#FFD83D" stroke="black" stroke-width="0.133624" stroke-linecap="round" stroke-linejoin="round"/>
<path d="M9.90872 7.86236C9.9899 7.86236 10.0557 7.79655 10.0557 7.71536C10.0557 7.63417 9.9899 7.56836 9.90872 7.56836C9.82753 7.56836 9.76172 7.63417 9.76172 7.71536C9.76172 7.79655 9.82753 7.86236 9.90872 7.86236Z" fill="#FFD83D" stroke="black" stroke-width="0.133624" stroke-linecap="round" stroke-linejoin="round"/>
<path d="M12.4498 6.58459L12.4348 6.77959C12.0658 6.71959 11.5438 6.51559 11.0548 6.51559C10.6048 6.51559 10.2568 6.69559 10.2568 7.15159C10.2568 7.59859 10.4458 8.00659 10.6978 8.42059L10.4368 8.54059C10.2028 8.09059 10.0078 7.70059 10.0078 7.17859C10.0078 6.74059 10.3528 6.30859 10.9468 6.30859C11.4718 6.30859 12.0088 6.48859 12.4498 6.58459V6.58459Z" fill="#FFD83D" stroke="black" stroke-width="0.133624" stroke-linecap="round" stroke-linejoin="round"/>
<path d="M12.4944 6.66858L12.4374 8.54358H10.5354C10.3014 8.08758 10.1094 7.70358 10.1094 7.17858C10.1094 6.74058 10.4544 6.39258 10.9494 6.39258C11.4744 6.39258 12.0534 6.56958 12.4944 6.66858V6.66858Z" fill="#FFD83D"/>
<path d="M10.3359 6.75556V7.83556ZM10.4859 6.64456V8.08456ZM10.6419 6.56956V8.28556ZM10.7919 6.53356V7.88056ZM10.9449 6.52756V7.88656ZM11.0979 6.47656V7.88656ZM11.2509 6.47656V7.88656ZM11.4039 6.49156V7.90156ZM11.5569 6.50656V7.91356ZM11.7099 6.59356V8.00356ZM11.8599 6.60856V8.19556ZM12.0159 6.60856V8.01856ZM12.1659 6.60856V8.01856Z" fill="#FFD83D"/>
<path d="M10.3359 6.75556V7.83556M10.4859 6.64456V8.08456M10.6419 6.56956V8.28556M10.7919 6.53356V7.88056M10.9449 6.52756V7.88656M11.0979 6.47656V7.88656M11.2509 6.47656V7.88656M11.4039 6.49156V7.90156M11.5569 6.50656V7.91356M11.7099 6.59356V8.00356M11.8599 6.60856V8.19556M12.0159 6.60856V8.01856M12.1659 6.60856V8.01856" stroke="black" stroke-width="0.100218" stroke-linecap="round" stroke-linejoin="round"/>
<path d="M11.2939 6.53906C11.6179 6.59006 12.3259 6.92306 12.2449 7.37006C12.1309 8.00606 11.7589 7.75106 11.2669 7.66106L10.8949 7.78406C10.7599 7.91906 10.5649 8.04506 10.4329 7.88006H10.2109V8.74406H12.6529V6.65906L11.2939 6.53906Z" fill="black" stroke="black" stroke-width="0.100218" stroke-linecap="round" stroke-linejoin="round"/>
<path d="M12.3853 6.53814C12.4665 6.53814 12.5323 6.47233 12.5323 6.39114C12.5323 6.30995 12.4665 6.24414 12.3853 6.24414C12.3041 6.24414 12.2383 6.30995 12.2383 6.39114C12.2383 6.47233 12.3041 6.53814 12.3853 6.53814Z" fill="#FFD83D" stroke="black" stroke-width="0.133624" stroke-linecap="round" stroke-linejoin="round"/>
<path d="M12.0532 6.45611C12.1344 6.45611 12.2003 6.3903 12.2003 6.30911C12.2003 6.22792 12.1344 6.16211 12.0532 6.16211C11.9721 6.16211 11.9062 6.22792 11.9062 6.30911C11.9062 6.3903 11.9721 6.45611 12.0532 6.45611Z" fill="#FFD83D" stroke="black" stroke-width="0.133624" stroke-linecap="round" stroke-linejoin="round"/>
<path d="M11.7134 6.37213C11.7946 6.37213 11.8604 6.30631 11.8604 6.22513C11.8604 6.14394 11.7946 6.07812 11.7134 6.07812C11.6322 6.07812 11.5664 6.14394 11.5664 6.22513C11.5664 6.30631 11.6322 6.37213 11.7134 6.37213Z" fill="#FFD83D" stroke="black" stroke-width="0.133624" stroke-linecap="round" stroke-linejoin="round"/>
<path d="M11.3736 6.31548C11.4547 6.31548 11.5206 6.24967 11.5206 6.16848C11.5206 6.0873 11.4547 6.02148 11.3736 6.02148C11.2924 6.02148 11.2266 6.0873 11.2266 6.16848C11.2266 6.24967 11.2924 6.31548 11.3736 6.31548Z" fill="#FFD83D" stroke="black" stroke-width="0.133624" stroke-linecap="round" stroke-linejoin="round"/>
<path d="M11.0337 6.28228C11.1149 6.28228 11.1807 6.21647 11.1807 6.13528C11.1807 6.0541 11.1149 5.98828 11.0337 5.98828C10.9525 5.98828 10.8867 6.0541 10.8867 6.13528C10.8867 6.21647 10.9525 6.28228 11.0337 6.28228Z" fill="#FFD83D" stroke="black" stroke-width="0.133624" stroke-linecap="round" stroke-linejoin="round"/>
<path d="M10.7056 6.29986C10.7868 6.29986 10.8526 6.23405 10.8526 6.15286C10.8526 6.07167 10.7868 6.00586 10.7056 6.00586C10.6244 6.00586 10.5586 6.07167 10.5586 6.15286C10.5586 6.23405 10.6244 6.29986 10.7056 6.29986Z" fill="#FFD83D" stroke="black" stroke-width="0.133624" stroke-linecap="round" stroke-linejoin="round"/>
<path d="M10.3892 6.40923C10.4704 6.40923 10.5362 6.34342 10.5362 6.26223C10.5362 6.18105 10.4704 6.11523 10.3892 6.11523C10.308 6.11523 10.2422 6.18105 10.2422 6.26223C10.2422 6.34342 10.308 6.40923 10.3892 6.40923Z" fill="#FFD83D" stroke="black" stroke-width="0.133624" stroke-linecap="round" stroke-linejoin="round"/>
<path d="M10.1197 6.6065C10.2008 6.6065 10.2667 6.54069 10.2667 6.4595C10.2667 6.37831 10.2008 6.3125 10.1197 6.3125C10.0385 6.3125 9.97266 6.37831 9.97266 6.4595C9.97266 6.54069 10.0385 6.6065 10.1197 6.6065Z" fill="#FFD83D" stroke="black" stroke-width="0.133624" stroke-linecap="round" stroke-linejoin="round"/>
<path d="M9.93216 6.87994C10.0133 6.87994 10.0792 6.81412 10.0792 6.73294C10.0792 6.65175 10.0133 6.58594 9.93216 6.58594C9.85097 6.58594 9.78516 6.65175 9.78516 6.73294C9.78516 6.81412 9.85097 6.87994 9.93216 6.87994Z" fill="#FFD83D" stroke="black" stroke-width="0.133624" stroke-linecap="round" stroke-linejoin="round"/>
<path d="M9.83841 7.20416C9.91959 7.20416 9.98541 7.13834 9.98541 7.05716C9.98541 6.97597 9.91959 6.91016 9.83841 6.91016C9.75722 6.91016 9.69141 6.97597 9.69141 7.05716C9.69141 7.13834 9.75722 7.20416 9.83841 7.20416Z" fill="#FFD83D" stroke="black" stroke-width="0.133624" stroke-linecap="round" stroke-linejoin="round"/>
<path d="M9.84231 7.53619C9.9235 7.53619 9.98931 7.47037 9.98931 7.38919C9.98931 7.308 9.9235 7.24219 9.84231 7.24219C9.76113 7.24219 9.69531 7.308 9.69531 7.38919C9.69531 7.47037 9.76113 7.53619 9.84231 7.53619Z" fill="#FFD83D" stroke="black" stroke-width="0.133624" stroke-linecap="round" stroke-linejoin="round"/>
<path d="M9.90872 7.86236C9.9899 7.86236 10.0557 7.79655 10.0557 7.71536C10.0557 7.63417 9.9899 7.56836 9.90872 7.56836C9.82753 7.56836 9.76172 7.63417 9.76172 7.71536C9.76172 7.79655 9.82753 7.86236 9.90872 7.86236Z" fill="#FFD83D" stroke="black" stroke-width="0.133624" stroke-linecap="round" stroke-linejoin="round"/>
<path d="M12.4498 6.58459L12.4348 6.77959C12.0658 6.71959 11.5438 6.51559 11.0548 6.51559C10.6048 6.51559 10.2568 6.69559 10.2568 7.15159C10.2568 7.59859 10.4458 8.00659 10.6978 8.42059L10.4368 8.54059C10.2028 8.09059 10.0078 7.70059 10.0078 7.17859C10.0078 6.74059 10.3528 6.30859 10.9468 6.30859C11.4718 6.30859 12.0088 6.48859 12.4498 6.58459V6.58459Z" fill="#FFD83D" stroke="black" stroke-width="0.133624" stroke-linecap="round" stroke-linejoin="round"/>
<path d="M12.6614 4.59284L12.5054 4.88384L12.6614 5.17184L12.8144 4.88384L12.6614 4.58984V4.59284ZM12.6614 5.32484L12.5054 5.61284L12.6614 5.90384L12.8114 5.60984L12.6584 5.32184L12.6614 5.32484ZM12.1094 5.24984L12.3524 5.40284L12.5954 5.24984L12.3554 5.09384L12.1094 5.24984ZM12.7244 5.24984L12.9674 5.40284L13.2134 5.24984L12.9674 5.09384L12.7274 5.24984H12.7244Z" fill="#FFD83D" stroke="black" stroke-width="0.133624" stroke-linecap="round" stroke-linejoin="round"/>
<path d="M12.66 5.37072C12.7246 5.37072 12.777 5.31834 12.777 5.25372C12.777 5.1891 12.7246 5.13672 12.66 5.13672C12.5954 5.13672 12.543 5.1891 12.543 5.25372C12.543 5.31834 12.5954 5.37072 12.66 5.37072Z" fill="#FFD83D" stroke="black" stroke-width="0.133624" stroke-linecap="round" stroke-linejoin="round"/>
<path d="M12.6627 6.31555C12.8366 6.31555 12.9777 6.17452 12.9777 6.00055C12.9777 5.82658 12.8366 5.68555 12.6627 5.68555C12.4887 5.68555 12.3477 5.82658 12.3477 6.00055C12.3477 6.17452 12.4887 6.31555 12.6627 6.31555Z" fill="#FFD83D" stroke="black" stroke-width="0.133624" stroke-linecap="round" stroke-linejoin="round"/>
<path d="M12.5805 5.69727V5.89527C12.5061 5.89885 12.4319 5.90686 12.3585 5.91927M12.9645 5.91927C12.89 5.90671 12.8149 5.8987 12.7395 5.89527V5.69727M12.3555 6.07827C12.4565 6.06076 12.5589 6.05173 12.6615 6.05127C12.7635 6.05127 12.8655 6.06027 12.9615 6.07827" stroke="black" stroke-width="0.100218" stroke-linecap="round" stroke-linejoin="round"/>
<path d="M12.3535 6.53125C12.3235 7.04125 12.2635 7.56625 12.0625 7.94425L12.3865 7.81225C12.5005 7.38325 12.5245 6.82825 12.5575 6.56425L12.3535 6.53125V6.53125ZM12.9655 6.53125L12.7585 6.56425C12.7945 6.82825 12.8185 7.38325 12.9295 7.81225L13.2535 7.94425C13.0555 7.56625 12.9955 7.04425 12.9655 6.53125V6.53125Z" fill="#FFD83D" stroke="black" stroke-width="0.133624" stroke-linecap="round" stroke-linejoin="round"/>
<path d="M12.6607 7.64062C12.2707 7.64062 11.9857 7.82063 11.9707 8.28863C11.8747 8.12063 11.4757 7.59863 11.1007 7.66763C10.8787 7.70963 10.6807 8.01863 10.7167 8.36963C10.5307 7.84163 9.99366 7.75463 9.59766 8.06963C9.94866 8.35463 10.1047 9.20362 10.3987 9.56962H14.9197C15.2137 9.20362 15.3697 8.35463 15.7207 8.06963C15.3277 7.75463 14.7877 7.84163 14.6047 8.36963C14.6347 8.01863 14.4397 7.70963 14.2147 7.66763C13.8427 7.59863 13.4437 8.12063 13.3477 8.28863C13.3327 7.82363 13.0477 7.64062 12.6577 7.64062H12.6607Z" fill="#FFD83D" stroke="black" stroke-width="0.133624" stroke-linecap="round" stroke-linejoin="round"/>
<path d="M14.9113 9.56945C14.9113 9.73745 13.9033 9.92045 12.6583 9.92045C11.4133 9.92045 10.4023 9.74045 10.4023 9.56945C10.4023 9.40445 11.4133 9.31445 12.6583 9.31445C13.9003 9.31445 14.9113 9.40445 14.9113 9.56945Z" fill="black" stroke="black" stroke-width="0.100218" stroke-linecap="round" stroke-linejoin="round"/>
<path d="M12.6597 6.53617C12.7177 6.53617 12.7647 6.48916 12.7647 6.43117C12.7647 6.37318 12.7177 6.32617 12.6597 6.32617C12.6017 6.32617 12.5547 6.37318 12.5547 6.43117C12.5547 6.48916 12.6017 6.53617 12.6597 6.53617Z" fill="#FFD83D" stroke="black" stroke-width="0.100218" stroke-linecap="round" stroke-linejoin="round"/>
<path d="M12.6579 6.77083C12.7192 6.77083 12.7689 6.72113 12.7689 6.65983C12.7689 6.59852 12.7192 6.54883 12.6579 6.54883C12.5966 6.54883 12.5469 6.59852 12.5469 6.65983C12.5469 6.72113 12.5966 6.77083 12.6579 6.77083Z" fill="#FFD83D" stroke="black" stroke-width="0.100218" stroke-linecap="round" stroke-linejoin="round"/>
<path d="M12.6582 7.02725C12.7261 7.02725 12.7812 6.97218 12.7812 6.90425C12.7812 6.83632 12.7261 6.78125 12.6582 6.78125C12.5902 6.78125 12.5352 6.83632 12.5352 6.90425C12.5352 6.97218 12.5902 7.02725 12.6582 7.02725Z" fill="#FFD83D" stroke="black" stroke-width="0.100218" stroke-linecap="round" stroke-linejoin="round"/>
<path d="M12.6605 7.31911C12.7384 7.31911 12.8015 7.25598 12.8015 7.17811C12.8015 7.10024 12.7384 7.03711 12.6605 7.03711C12.5827 7.03711 12.5195 7.10024 12.5195 7.17811C12.5195 7.25598 12.5827 7.31911 12.6605 7.31911Z" fill="#FFD83D" stroke="black" stroke-width="0.100218" stroke-linecap="round" stroke-linejoin="round"/>
<path d="M12.6569 7.63412C12.7414 7.63412 12.8099 7.56562 12.8099 7.48112C12.8099 7.39663 12.7414 7.32812 12.6569 7.32812C12.5724 7.32812 12.5039 7.39663 12.5039 7.48112C12.5039 7.56562 12.5724 7.63412 12.6569 7.63412Z" fill="#FFD83D" stroke="black" stroke-width="0.100218" stroke-linecap="round" stroke-linejoin="round"/>
<path d="M12.5988 7.77539C12.5808 7.77539 12.5658 7.79039 12.5688 7.81739L12.5868 7.94639C12.5928 7.99139 12.6168 7.97639 12.6258 7.94639C12.6318 7.91039 12.6288 7.88639 12.6318 7.82339C12.6318 7.79039 12.6138 7.77539 12.5958 7.77539H12.5988ZM12.7188 7.77539C12.7008 7.77539 12.6858 7.79039 12.6858 7.82339C12.6858 7.88639 12.6858 7.91039 12.6918 7.94339C12.6978 7.97939 12.7218 7.99139 12.7308 7.94339L12.7458 7.81739C12.7518 7.78739 12.7338 7.77539 12.7188 7.77539ZM12.4878 7.79339C12.4798 7.79339 12.4722 7.79655 12.4666 7.80218C12.4609 7.8078 12.4578 7.81543 12.4578 7.82339C12.4578 7.85339 12.4668 7.89239 12.4698 7.93739C12.4758 7.98239 12.5088 7.96739 12.5118 7.93739C12.5118 7.91339 12.5178 7.87139 12.5118 7.82039C12.5118 7.80239 12.5058 7.79339 12.4938 7.79039C12.4918 7.79014 12.4898 7.79014 12.4878 7.79039V7.79339ZM12.8208 7.79339C12.8118 7.79339 12.8028 7.80239 12.7998 7.82339C12.7982 7.8615 12.8002 7.89967 12.8058 7.93739C12.8058 7.96739 12.8418 7.98239 12.8448 7.93739C12.8448 7.89239 12.8568 7.85639 12.8568 7.82639C12.8568 7.80839 12.8418 7.79639 12.8268 7.79339C12.8248 7.79314 12.8228 7.79314 12.8208 7.79339V7.79339ZM12.3588 7.84439C12.3438 7.84739 12.3288 7.86539 12.3348 7.88339C12.3438 7.92239 12.3528 7.96439 12.3528 8.00339C12.3528 8.03639 12.3798 8.02439 12.3828 8.00339C12.3851 7.96344 12.3861 7.92341 12.3858 7.88339C12.3858 7.85339 12.3708 7.84139 12.3558 7.84439H12.3588ZM12.9468 7.84439C12.9378 7.84739 12.9288 7.85939 12.9288 7.88339L12.9348 8.00339C12.9348 8.02439 12.9648 8.03639 12.9648 8.00339C12.9648 7.96439 12.9708 7.92239 12.9798 7.88339C12.9858 7.86539 12.9708 7.84739 12.9588 7.84439C12.9558 7.84363 12.9527 7.84363 12.9498 7.84439H12.9468ZM11.1768 7.85039C11.1588 7.85039 11.1468 7.87139 11.1588 7.89539C11.1768 7.93739 11.1978 7.96139 11.2158 8.00339C11.2308 8.04239 11.2578 8.01839 11.2488 7.99139L11.2068 7.88039C11.1978 7.85939 11.1858 7.85039 11.1768 7.85039ZM14.1408 7.85039C14.1288 7.85039 14.1198 7.85939 14.1108 7.88039C14.0838 7.93739 14.0748 7.96439 14.0658 7.99139C14.0598 8.02139 14.0838 8.04239 14.1018 8.00339L14.1558 7.89539C14.1678 7.87139 14.1558 7.85039 14.1408 7.85039ZM11.2968 7.85039C11.2818 7.85639 11.2758 7.87139 11.2818 7.88939C11.2998 7.92539 11.3208 7.96439 11.3358 8.00339C11.3478 8.03639 11.3778 8.02739 11.3658 7.99739L11.3358 7.88639C11.3238 7.85639 11.3058 7.84739 11.2968 7.85039V7.85039ZM14.0118 7.85039C13.9998 7.85339 13.9878 7.86539 13.9818 7.88639C13.9608 7.94639 13.9578 7.96439 13.9488 7.99739C13.9368 8.02739 13.9668 8.03639 13.9788 8.00339L14.0328 7.88939C14.0388 7.87139 14.0328 7.85639 14.0208 7.85039C14.0178 7.84963 14.0147 7.84963 14.0118 7.85039V7.85039ZM11.4468 7.88039C11.4288 7.88339 11.4168 7.90739 11.4288 7.93739C11.4408 7.97339 11.4588 8.00639 11.4768 8.04839C11.4948 8.09039 11.5218 8.08139 11.5158 8.05439C11.5068 8.02739 11.5008 7.98539 11.4798 7.91939C11.4708 7.88939 11.4588 7.87739 11.4468 7.88039V7.88039ZM13.8708 7.88039C13.8588 7.88039 13.8438 7.88939 13.8348 7.91939C13.8168 7.98539 13.8048 8.02739 13.8018 8.05439C13.7928 8.08439 13.8228 8.09039 13.8378 8.04839C13.8558 8.00639 13.8738 7.97339 13.8858 7.93739C13.8978 7.90739 13.8858 7.88339 13.8708 7.88039V7.88039ZM11.0748 7.90139C11.0568 7.90139 11.0448 7.93139 11.0538 7.95239C11.0688 7.98239 11.0808 7.99439 11.0958 8.03039C11.1138 8.06639 11.1318 8.03939 11.1258 8.01539C11.1168 7.99139 11.1078 7.96439 11.1018 7.93139C11.0958 7.90739 11.0838 7.90139 11.0718 7.90139H11.0748ZM14.2428 7.90139C14.2308 7.90139 14.2218 7.90739 14.2128 7.93139L14.1918 8.01539C14.1858 8.03939 14.2038 8.06639 14.2218 8.03039C14.2368 7.99439 14.2458 7.98539 14.2638 7.95239C14.2728 7.93139 14.2578 7.90439 14.2428 7.90139V7.90139ZM12.2328 7.98539C12.2118 7.98539 12.1938 8.00939 12.2028 8.03039C12.2088 8.06639 12.2268 8.09639 12.2358 8.14139C12.2478 8.18039 12.2748 8.16239 12.2718 8.13539C12.2696 8.09509 12.2646 8.05499 12.2568 8.01539C12.2508 7.99439 12.2418 7.98539 12.2298 7.98539H12.2328ZM13.0848 7.98539C13.0758 7.98539 13.0638 7.99439 13.0608 8.01539C13.052 8.05492 13.0459 8.09502 13.0428 8.13539C13.0428 8.16239 13.0698 8.18039 13.0788 8.14139L13.1148 8.03039C13.1208 8.00939 13.1028 7.98539 13.0848 7.98539V7.98539ZM12.6588 8.02139C12.6348 8.02139 12.6318 8.05139 12.6318 8.07239C12.6299 8.14071 12.6092 8.20718 12.5718 8.26439C12.5418 8.30039 12.5028 8.29139 12.4668 8.27039C12.4319 8.25137 12.3987 8.22929 12.3678 8.20439C12.3258 8.17439 12.2958 8.19239 12.3438 8.26139C12.4818 8.45939 12.6318 8.62739 12.6318 8.95139C12.6318 8.99039 12.6408 9.00239 12.6588 9.00239C12.6768 9.00239 12.6828 8.99039 12.6828 8.94839C12.6828 8.62739 12.8328 8.45939 12.9708 8.25839C13.0188 8.19239 12.9888 8.17439 12.9498 8.20439C12.9189 8.22946 12.8858 8.25156 12.8508 8.27039C12.8118 8.29139 12.7728 8.30039 12.7458 8.26439C12.7084 8.20718 12.6876 8.14071 12.6858 8.07239C12.6828 8.05139 12.6798 8.02139 12.6558 8.02139H12.6588ZM11.5998 7.97339C11.5978 7.97306 11.5958 7.97306 11.5938 7.97339C11.5848 7.97639 11.5818 7.98539 11.5848 8.00339L11.6178 8.12039C11.6268 8.15039 11.6598 8.14139 11.6538 8.10539L11.6358 8.01239C11.6298 7.98839 11.6118 7.97339 11.5998 7.97339ZM13.7178 7.97339C13.7028 7.97339 13.6878 7.98839 13.6818 8.01239C13.6698 8.05439 13.6698 8.06639 13.6638 8.10239C13.6548 8.14139 13.6908 8.14739 13.6968 8.12039L13.7328 8.00039C13.7328 7.98539 13.7298 7.97639 13.7208 7.97339C13.7188 7.97306 13.7168 7.97306 13.7148 7.97339H13.7178ZM10.9698 7.98539C10.9518 7.98539 10.9398 8.00939 10.9578 8.03939C10.9758 8.07539 11.0088 8.11739 11.0238 8.14439C11.0388 8.16839 11.0658 8.15039 11.0478 8.12039C11.0298 8.09039 11.0238 8.05139 10.9998 8.00639C10.9978 8.00007 10.9938 7.99458 10.9883 7.99078C10.9829 7.98698 10.9764 7.98509 10.9698 7.98539ZM14.3448 7.98539C14.3358 7.98539 14.3238 7.99139 14.3148 8.00639C14.2938 8.05139 14.2848 8.08739 14.2698 8.12039C14.2518 8.15039 14.2758 8.16839 14.2908 8.14439C14.3058 8.11739 14.3388 8.07539 14.3568 8.03939C14.3748 8.00939 14.3628 7.98539 14.3448 7.98539ZM10.0188 8.08439C10.0008 8.08439 9.99477 8.12039 10.0128 8.14439C10.0361 8.17387 10.0622 8.201 10.0908 8.22539C10.1148 8.24939 10.1208 8.21939 10.1088 8.19539L10.0548 8.11439C10.0398 8.09339 10.0278 8.08439 10.0188 8.08439ZM15.2958 8.08439C15.2868 8.08439 15.2748 8.09339 15.2628 8.11439L15.2058 8.19539C15.1938 8.21939 15.1998 8.24939 15.2268 8.22539C15.2554 8.20103 15.2815 8.1739 15.3048 8.14439C15.3228 8.12039 15.3168 8.08439 15.2958 8.08439ZM10.1718 8.11439C10.1538 8.11439 10.1418 8.12639 10.1568 8.15339L10.2138 8.26739C10.2288 8.29739 10.2738 8.30639 10.2558 8.26139L10.2168 8.14739C10.2078 8.12639 10.1868 8.11739 10.1718 8.11739V8.11439ZM15.1458 8.11439C15.1278 8.11439 15.1068 8.12639 15.0978 8.14739L15.0618 8.26139C15.0438 8.30639 15.0888 8.29739 15.1038 8.26739C15.1188 8.23739 15.1428 8.19239 15.1578 8.15339C15.1728 8.12639 15.1608 8.11439 15.1458 8.11439V8.11439ZM9.87777 8.12639C9.85377 8.12639 9.85377 8.14739 9.87477 8.16239C9.90177 8.18339 9.93477 8.20439 9.96477 8.23139C10.0038 8.26139 10.0158 8.23139 9.99477 8.20739C9.97677 8.18339 9.95877 8.15939 9.90777 8.13239C9.89577 8.12639 9.88677 8.12639 9.87777 8.12639ZM15.4368 8.12639C15.4308 8.12639 15.4188 8.12639 15.4068 8.13239C15.3588 8.15939 15.3378 8.18339 15.3168 8.20739C15.2988 8.23439 15.3138 8.26139 15.3498 8.23139C15.3798 8.20439 15.4158 8.18339 15.4398 8.16239C15.4638 8.14739 15.4608 8.12639 15.4398 8.12639H15.4368ZM12.1488 8.14739C12.1338 8.14739 12.1248 8.16239 12.1278 8.18339L12.1578 8.29139C12.1638 8.32439 12.2028 8.32439 12.1968 8.29139C12.1908 8.26139 12.1878 8.22239 12.1758 8.17439C12.1728 8.15639 12.1638 8.14739 12.1518 8.14439C12.1508 8.14431 12.1498 8.14431 12.1488 8.14439V8.14739ZM13.1628 8.14739C13.1538 8.14739 13.1448 8.15639 13.1388 8.17739C13.1268 8.22239 13.1238 8.26139 13.1178 8.29439C13.1118 8.32439 13.1508 8.32439 13.1568 8.29139L13.1868 8.18339C13.1928 8.16239 13.1808 8.14739 13.1688 8.14739C13.1668 8.14706 13.1648 8.14706 13.1628 8.14739V8.14739ZM11.2428 8.08739C11.2338 8.08739 11.2278 8.10839 11.2368 8.13839C11.2686 8.22485 11.2848 8.31626 11.2848 8.40839C11.2758 8.44439 11.2548 8.44739 11.2278 8.43839C11.1983 8.42387 11.1702 8.4068 11.1438 8.38739C11.1198 8.37239 11.0928 8.39039 11.1288 8.42039C11.3088 8.57039 11.4378 8.74139 11.4888 8.94839C11.4948 8.99039 11.5218 8.99639 11.5158 8.94839C11.4738 8.68739 11.4648 8.47139 11.5278 8.33939C11.5518 8.28839 11.5278 8.24039 11.4918 8.32139C11.4648 8.37539 11.4258 8.39639 11.3928 8.35139C11.3459 8.27818 11.3057 8.20086 11.2728 8.12039C11.2668 8.09939 11.2578 8.09039 11.2488 8.08739C11.2478 8.08722 11.2468 8.08722 11.2458 8.08739H11.2428ZM14.0658 8.08739C14.0568 8.08739 14.0478 8.09939 14.0418 8.11739C14.0208 8.17739 13.9548 8.30339 13.9218 8.35139C13.8888 8.39939 13.8498 8.37539 13.8258 8.32139C13.7868 8.24039 13.7658 8.28839 13.7868 8.33939C13.8498 8.47139 13.8408 8.68739 13.8018 8.94839C13.7928 8.99639 13.8198 8.99039 13.8318 8.94839C13.8873 8.73769 14.0119 8.55174 14.1858 8.42039C14.2218 8.39039 14.1948 8.37239 14.1708 8.39039C14.1441 8.40784 14.116 8.4229 14.0868 8.43539C14.0568 8.44739 14.0388 8.44439 14.0298 8.40539C14.0238 8.36939 14.0358 8.28839 14.0808 8.13539C14.0868 8.11139 14.0808 8.09039 14.0718 8.08739C14.0698 8.0867 14.0677 8.0867 14.0658 8.08739V8.08739ZM10.3308 8.15939C10.3158 8.15939 10.3008 8.17139 10.3098 8.19539C10.3218 8.23739 10.3458 8.27939 10.3548 8.30339C10.3638 8.33039 10.3908 8.31839 10.3848 8.28239L10.3698 8.18939C10.3698 8.17139 10.3488 8.15939 10.3308 8.15939ZM14.9838 8.15939C14.9658 8.15939 14.9478 8.17139 14.9448 8.18939L14.9328 8.28239C14.9268 8.31839 14.9538 8.33039 14.9628 8.30339C14.9688 8.27939 14.9928 8.23739 15.0048 8.19539C15.0138 8.17139 15.0018 8.15939 14.9838 8.15939ZM10.8948 8.10839C10.8768 8.10539 10.8738 8.15339 10.8888 8.17439L10.9728 8.26739C10.9968 8.29739 11.0118 8.27039 10.9968 8.24639L10.9188 8.13239C10.9098 8.11739 10.9008 8.10839 10.8948 8.10839V8.10839ZM14.4198 8.10839C14.4138 8.10839 14.4048 8.11739 14.3958 8.13239L14.3178 8.24639C14.3028 8.27039 14.3178 8.29739 14.3448 8.26739L14.4258 8.17439C14.4408 8.15339 14.4408 8.10539 14.4198 8.10839V8.10839ZM10.4598 8.22839C10.4478 8.22839 10.4388 8.23439 10.4448 8.25839C10.4508 8.29439 10.4598 8.31839 10.4688 8.35139C10.4778 8.38139 10.4988 8.37839 10.4988 8.34839L10.4898 8.25239C10.4885 8.24521 10.4848 8.23866 10.4794 8.23377C10.4739 8.22888 10.4671 8.22594 10.4598 8.22539V8.22839ZM14.8548 8.22839C14.8478 8.22825 14.8409 8.23057 14.8354 8.23496C14.8299 8.23934 14.8262 8.24551 14.8248 8.25239L14.8158 8.34839C14.8158 8.37839 14.8398 8.38439 14.8458 8.35139L14.8728 8.26139C14.8788 8.23439 14.8668 8.22539 14.8548 8.22539V8.22839ZM10.8528 8.27039C10.8348 8.27039 10.8198 8.29139 10.8408 8.31839C10.8738 8.36339 10.9128 8.39339 10.9278 8.40839C10.9398 8.42639 10.9728 8.42039 10.9518 8.38739L10.8828 8.28239C10.8768 8.27039 10.8648 8.26739 10.8528 8.27039ZM14.4528 8.27039C14.4468 8.27039 14.4378 8.27339 14.4348 8.28239L14.3628 8.38739C14.3418 8.42039 14.3748 8.42639 14.3898 8.41139C14.4018 8.39339 14.4408 8.36339 14.4768 8.31839C14.4978 8.28839 14.4798 8.27039 14.4618 8.27039C14.4598 8.27017 14.4578 8.27017 14.4558 8.27039H14.4528ZM10.2318 8.39339C10.2198 8.39339 10.2138 8.40539 10.2318 8.43239C10.2781 8.48859 10.3119 8.55406 10.3308 8.62439C10.3338 8.66639 10.3158 8.66639 10.2978 8.66639C10.2408 8.66639 10.2138 8.62439 10.1658 8.61239C10.1148 8.60339 10.1058 8.62739 10.1418 8.65439C10.3137 8.76314 10.4634 8.90364 10.5828 9.06839C10.6128 9.12539 10.6518 9.14339 10.6308 9.09239C10.5725 8.9754 10.5476 8.84461 10.5588 8.71439C10.5738 8.63039 10.5948 8.57639 10.5918 8.52839C10.5918 8.48339 10.5618 8.48639 10.5528 8.52839L10.5228 8.61239C10.5108 8.62739 10.4688 8.63639 10.4328 8.58539C10.3817 8.52278 10.3255 8.46458 10.2648 8.41139C10.2558 8.40239 10.2438 8.39639 10.2348 8.39339H10.2318ZM15.0828 8.39339C15.0738 8.39339 15.0618 8.39939 15.0498 8.41139C14.99 8.46472 14.9349 8.52292 14.8848 8.58539C14.8458 8.63639 14.8038 8.62739 14.7948 8.61539C14.7811 8.58779 14.771 8.55855 14.7648 8.52839C14.7528 8.48639 14.7258 8.48339 14.7228 8.52839C14.7228 8.57639 14.7408 8.63039 14.7558 8.71439C14.7708 8.79839 14.7558 8.93039 14.6868 9.09239C14.6628 9.14339 14.7048 9.12239 14.7348 9.06839C14.853 8.90373 15.0017 8.7632 15.1728 8.65439C15.2088 8.62739 15.2028 8.60339 15.1518 8.61239C15.1008 8.62439 15.0738 8.66639 15.0198 8.66639C15.0018 8.66639 14.9808 8.66639 14.9838 8.62439C14.9868 8.58539 15.0378 8.49239 15.0828 8.43239C15.1008 8.40239 15.0978 8.39339 15.0828 8.39339V8.39339Z" fill="black"/>
<path d="M10.5 9.38006L10.56 9.56306ZM10.62 9.34406L10.674 9.53006ZM10.752 9.32006L10.788 9.51206ZM10.872 9.29906L10.911 9.48806ZM11.025 9.28406L11.055 9.47606ZM11.19 9.28406L11.223 9.47306ZM11.352 9.23006L11.376 9.42206ZM11.502 9.23906L11.526 9.43106ZM11.649 9.22106L11.673 9.41306ZM11.793 9.20306L11.808 9.39806ZM11.952 9.20306L11.964 9.39806ZM12.096 9.19406L12.105 9.38906ZM12.252 9.18506L12.261 9.37706ZM12.432 9.17906L12.441 9.37406ZM14.811 9.38006L14.751 9.56306ZM14.691 9.34406L14.64 9.53006ZM14.562 9.32006L14.526 9.51206ZM14.442 9.29906L14.403 9.48806ZM14.283 9.28406L14.253 9.47606ZM14.121 9.28406L14.088 9.47606ZM13.962 9.23006L13.938 9.42206ZM13.809 9.23906L13.785 9.43106ZM13.665 9.22106L13.638 9.41306ZM13.518 9.20306L13.503 9.39806ZM13.359 9.20306L13.347 9.39806ZM13.218 9.19406L13.209 9.38906ZM13.059 9.18506L13.053 9.37706ZM12.879 9.17906L12.873 9.37406ZM12.657 9.16406V9.38006Z" fill="#FFD83D"/>
<path d="M10.5 9.38006L10.56 9.56306M10.62 9.34406L10.674 9.53006M10.752 9.32006L10.788 9.51206M10.872 9.29906L10.911 9.48806M11.025 9.28406L11.055 9.47606M11.19 9.28406L11.223 9.47306M11.352 9.23006L11.376 9.42206M11.502 9.23906L11.526 9.43106M11.649 9.22106L11.673 9.41306M11.793 9.20306L11.808 9.39806M11.952 9.20306L11.964 9.39806M12.096 9.19406L12.105 9.38906M12.252 9.18506L12.261 9.37706M12.432 9.17906L12.441 9.37406M14.811 9.38006L14.751 9.56306M14.691 9.34406L14.64 9.53006M14.562 9.32006L14.526 9.51206M14.442 9.29906L14.403 9.48806M14.283 9.28406L14.253 9.47606M14.121 9.28406L14.088 9.47606M13.962 9.23006L13.938 9.42206M13.809 9.23906L13.785 9.43106M13.665 9.22106L13.638 9.41306M13.518 9.20306L13.503 9.39806M13.359 9.20306L13.347 9.39806M13.218 9.19406L13.209 9.38906M13.059 9.18506L13.053 9.37706M12.879 9.17906L12.873 9.37406M12.657 9.16406V9.38006" stroke="black" stroke-width="0.100218" stroke-linecap="round" stroke-linejoin="round"/>
</g>
</g>
<defs>
<filter id="filter0_d_336_28214" x="0" y="-2" width="36" height="36" filterUnits="userSpaceOnUse" color-interpolation-filters="sRGB">
<feFlood flood-opacity="0" result="BackgroundImageFix"/>
<feColorMatrix in="SourceAlpha" type="matrix" values="0 0 0 0 0 0 0 0 0 0 0 0 0 0 0 0 0 0 127 0" result="hardAlpha"/>
<feOffset dy="4"/>
<feGaussianBlur stdDeviation="3"/>
<feComposite in2="hardAlpha" operator="out"/>
<feColorMatrix type="matrix" values="0 0 0 0 0 0 0 0 0 0 0 0 0 0 0 0 0 0 0.16 0"/>
<feBlend mode="normal" in2="BackgroundImageFix" result="effect1_dropShadow_336_28214"/>
<feBlend mode="normal" in="SourceGraphic" in2="effect1_dropShadow_336_28214" result="shape"/>
</filter>
<clipPath id="clip0_336_28214">
<rect width="24" height="18" fill="white" transform="translate(6 3)"/>
</clipPath>
</defs>
</svg>
