<svg width="36" height="31" viewBox="0 0 36 31" fill="none" xmlns="http://www.w3.org/2000/svg">
<g filter="url(#filter0_d_336_29920)">
<g clip-path="url(#clip0_336_29920)">
<path d="M15.6016 3H30.0016V21H15.6016V3Z" fill="#FF0000"/>
<path d="M6 3H15.6V21H6V3Z" fill="#006600"/>
<path fill-rule="evenodd" clip-rule="evenodd" d="M18.7289 14.482C17.5177 14.4445 11.9789 10.987 11.9414 10.432L12.2452 9.92578C12.7964 10.7245 18.4589 14.0883 19.0177 13.9683L18.7289 14.482Z" fill="#FFFF00" stroke="black" stroke-width="0.05" stroke-linecap="round" stroke-linejoin="round"/>
<path fill-rule="evenodd" clip-rule="evenodd" d="M12.181 9.85547C12.0723 10.148 13.6285 11.108 15.496 12.248C17.3673 13.3842 18.9798 14.0855 19.096 13.988L19.1523 13.883C19.1298 13.9205 19.0773 13.9317 18.991 13.9055C18.4848 13.7592 17.1685 13.1555 15.5373 12.1655C13.9023 11.1755 12.4848 10.2642 12.2635 9.87797C12.2463 9.84176 12.2385 9.80175 12.241 9.76172H12.2335L12.1885 9.84422L12.181 9.85547V9.85547ZM18.7548 14.498C18.736 14.5355 18.6948 14.5355 18.6235 14.528C18.1735 14.4792 16.801 13.8117 15.1773 12.8405C13.2873 11.708 11.7273 10.6805 11.8998 10.4105L11.9448 10.328L11.9523 10.3317C11.8023 10.7892 15.031 12.6342 15.2223 12.7542C17.0898 13.9092 18.6648 14.588 18.8035 14.4117L18.7548 14.498V14.498Z" fill="#FFFF00" stroke="black" stroke-width="0.05" stroke-linecap="round" stroke-linejoin="round"/>
<path fill-rule="evenodd" clip-rule="evenodd" d="M15.6064 10.7704C16.8139 10.7591 18.3064 10.6054 19.1689 10.2604L18.9814 9.96039C18.4752 10.2416 16.9752 10.4291 15.5952 10.4554C13.9677 10.4404 12.8164 10.2866 12.2389 9.90039L12.0664 10.2229C13.1239 10.6729 14.2114 10.7666 15.6064 10.7704" fill="#FFFF00"/>
<path d="M15.6064 10.7704C16.8139 10.7591 18.3064 10.6054 19.1689 10.2604L18.9814 9.96039C18.4752 10.2416 16.9752 10.4291 15.5952 10.4554C13.9677 10.4404 12.8164 10.2866 12.2389 9.90039L12.0664 10.2229C13.1239 10.6729 14.2114 10.7666 15.6064 10.7704" stroke="black" stroke-width="0.05" stroke-linecap="round" stroke-linejoin="round"/>
<path fill-rule="evenodd" clip-rule="evenodd" d="M19.2191 10.2684C19.1891 10.3172 18.6266 10.5084 17.8016 10.6509C17.0743 10.7611 16.3396 10.8151 15.6041 10.8122C14.8993 10.8148 14.1952 10.7697 13.4966 10.6772C12.6303 10.5422 12.1841 10.3547 12.0153 10.2872L12.0566 10.2047C12.5328 10.3922 12.9828 10.5047 13.5078 10.5872C14.2014 10.6808 14.9005 10.7272 15.6003 10.7259C16.3321 10.7267 17.0628 10.6728 17.7866 10.5647C18.6303 10.4259 19.0916 10.2497 19.1591 10.1709L19.2191 10.2722V10.2684ZM19.0541 9.96469C18.9641 10.0397 18.5066 10.2009 17.7041 10.3284C17.0111 10.4287 16.3118 10.4788 15.6116 10.4784C14.7866 10.4784 14.1078 10.4184 13.5941 10.3434C12.7766 10.2384 12.3416 10.0434 12.1841 9.99094L12.2328 9.90844C12.3566 9.97219 12.7728 10.1409 13.6016 10.2572C14.2678 10.3464 14.9394 10.389 15.6116 10.3847C16.3068 10.3849 17.0011 10.3348 17.6891 10.2347C18.4953 10.1222 18.9303 9.91969 18.9978 9.86719L19.0541 9.96469V9.96469ZM11.6366 12.2259C12.3791 12.6272 14.0328 12.8259 15.5966 12.8409C17.0216 12.8447 18.8741 12.6234 19.5678 12.2559L19.5491 11.8547C19.3316 12.1922 17.3441 12.5184 15.5816 12.5072C13.8191 12.4922 12.1803 12.2222 11.6328 11.8697V12.2259" fill="#FFFF00"/>
<path d="M11.6366 12.2259C12.3791 12.6272 14.0328 12.8259 15.5966 12.8409C17.0216 12.8447 18.8741 12.6234 19.5678 12.2559L19.5491 11.8547C19.3316 12.1922 17.3441 12.5184 15.5816 12.5072C13.8191 12.4922 12.1803 12.2222 11.6328 11.8697V12.2259M19.2191 10.2684C19.1891 10.3172 18.6266 10.5084 17.8016 10.6509C17.0743 10.7611 16.3396 10.8151 15.6041 10.8122C14.8993 10.8148 14.1952 10.7697 13.4966 10.6772C12.6303 10.5422 12.1841 10.3547 12.0153 10.2872L12.0566 10.2047C12.5328 10.3922 12.9828 10.5047 13.5078 10.5872C14.2014 10.6808 14.9005 10.7272 15.6003 10.7259C16.3321 10.7267 17.0628 10.6728 17.7866 10.5647C18.6303 10.4259 19.0916 10.2497 19.1591 10.1709L19.2191 10.2722V10.2684ZM19.0541 9.96469C18.9641 10.0397 18.5066 10.2009 17.7041 10.3284C17.0111 10.4287 16.3118 10.4788 15.6116 10.4784C14.7866 10.4784 14.1078 10.4184 13.5941 10.3434C12.7766 10.2384 12.3416 10.0434 12.1841 9.99094L12.2328 9.90844C12.3566 9.97219 12.7728 10.1409 13.6016 10.2572C14.2678 10.3464 14.9394 10.389 15.6116 10.3847C16.3068 10.3849 17.0011 10.3348 17.6891 10.2347C18.4953 10.1222 18.9303 9.91969 18.9978 9.86719L19.0541 9.96469V9.96469Z" stroke="black" stroke-width="0.05" stroke-linecap="round" stroke-linejoin="round"/>
<path fill-rule="evenodd" clip-rule="evenodd" d="M19.6034 12.1689V12.2627C19.4984 12.3902 18.8459 12.5777 18.0284 12.7127C17.2163 12.8294 16.3964 12.8846 15.5759 12.8777C14.7979 12.8843 14.0206 12.8304 13.2509 12.7164C12.6766 12.65 12.1155 12.4984 11.5859 12.2664V12.1577C11.9497 12.3977 12.9322 12.5777 13.2622 12.6302C13.8547 12.7202 14.6159 12.7877 15.5759 12.7877C16.5847 12.7877 17.3909 12.7164 18.0134 12.6227C18.6022 12.5364 19.4384 12.3152 19.6034 12.1689V12.1689ZM19.6034 11.8314V11.9252C19.4984 12.0489 18.8459 12.2364 18.0284 12.3714C17.2164 12.4894 16.3965 12.5458 15.5759 12.5402C14.798 12.5447 14.0208 12.4908 13.2509 12.3789C12.6766 12.3125 12.1155 12.1609 11.5859 11.9289V11.8164C11.9497 12.0602 12.9359 12.2364 13.2622 12.2889C14.0282 12.4011 14.8017 12.455 15.5759 12.4502C16.5847 12.4502 17.3947 12.3752 18.0134 12.2814C18.6022 12.1989 19.4384 11.9777 19.6034 11.8314V11.8314ZM15.5909 14.4114C13.8809 14.4039 12.4147 13.9464 12.1034 13.8714L12.3284 14.2239C13.3803 14.5964 14.4902 14.778 15.6059 14.7602C16.9072 14.7227 18.0434 14.6214 18.8422 14.2314L19.0747 13.8639C18.5309 14.1227 16.6747 14.4114 15.5872 14.4114" fill="#FFFF00"/>
<path d="M15.5909 14.4114C13.8809 14.4039 12.4147 13.9464 12.1034 13.8714L12.3284 14.2239C13.3803 14.5964 14.4902 14.778 15.6059 14.7602C16.9072 14.7227 18.0434 14.6214 18.8422 14.2314L19.0747 13.8639C18.5309 14.1227 16.6747 14.4114 15.5872 14.4114M19.6034 12.1689V12.2627C19.4984 12.3902 18.8459 12.5777 18.0284 12.7127C17.2163 12.8294 16.3964 12.8846 15.5759 12.8777C14.7979 12.8843 14.0206 12.8304 13.2509 12.7164C12.6766 12.65 12.1155 12.4984 11.5859 12.2664V12.1577C11.9497 12.3977 12.9322 12.5777 13.2622 12.6302C13.8547 12.7202 14.6159 12.7877 15.5759 12.7877C16.5847 12.7877 17.3909 12.7164 18.0134 12.6227C18.6022 12.5364 19.4384 12.3152 19.6034 12.1689V12.1689ZM19.6034 11.8314V11.9252C19.4984 12.0489 18.8459 12.2364 18.0284 12.3714C17.2164 12.4894 16.3965 12.5458 15.5759 12.5402C14.798 12.5447 14.0208 12.4908 13.2509 12.3789C12.6766 12.3125 12.1155 12.1609 11.5859 11.9289V11.8164C11.9497 12.0602 12.9359 12.2364 13.2622 12.2889C14.0282 12.4011 14.8017 12.455 15.5759 12.4502C16.5847 12.4502 17.3947 12.3752 18.0134 12.2814C18.6022 12.1989 19.4384 11.9777 19.6034 11.8314V11.8314Z" stroke="black" stroke-width="0.05" stroke-linecap="round" stroke-linejoin="round"/>
<path fill-rule="evenodd" clip-rule="evenodd" d="M18.9314 14.1502C18.8973 14.2007 18.8623 14.2508 18.8264 14.3002C18.4514 14.4352 17.8514 14.5777 17.6039 14.6152C16.9398 14.7389 16.2657 14.8017 15.5902 14.8027C14.0752 14.7802 12.8339 14.4839 12.2527 14.2289L12.2039 14.1502L12.2114 14.1352L12.2902 14.1689C13.3574 14.5221 14.4735 14.7056 15.5977 14.7127C16.3027 14.7127 17.0039 14.6339 17.5702 14.5327C18.4402 14.3564 18.7927 14.2252 18.9014 14.1652L18.9277 14.1502H18.9314ZM19.1302 13.8202C19.1055 13.8641 19.0805 13.9078 19.0552 13.9514C18.8527 14.0264 18.3052 14.1839 17.5064 14.2964C16.9814 14.3677 16.6552 14.4389 15.6089 14.4577C14.4129 14.4456 13.2242 14.269 12.0764 13.9327L12.0352 13.8389C13.2013 14.1612 14.403 14.3376 15.6127 14.3639C16.5689 14.3452 16.9777 14.2739 17.4989 14.2027C18.4289 14.0602 18.8977 13.9027 19.0364 13.8614C19.0365 13.8589 19.0365 13.8564 19.0364 13.8539L19.1339 13.8164L19.1302 13.8202Z" fill="#FFFF00" stroke="black" stroke-width="0.05" stroke-linecap="round" stroke-linejoin="round"/>
<path fill-rule="evenodd" clip-rule="evenodd" d="M19.1553 11.91C19.1591 13.035 18.5816 14.0475 18.1203 14.49C17.4391 15.1544 16.5293 15.5328 15.5778 15.5475C14.4416 15.5662 13.3728 14.8275 13.0841 14.5013C12.4381 13.8162 12.0705 12.9151 12.0528 11.9737C12.1203 10.7437 12.6041 9.88875 13.3016 9.3C13.9791 8.74221 14.8315 8.44084 15.7091 8.44875C16.2214 8.47359 16.7228 8.60517 17.1813 8.83506C17.6398 9.06495 18.0452 9.38808 18.3716 9.78375C18.8403 10.3537 19.0466 10.9725 19.1553 11.91V11.91ZM15.5853 8.0625C16.6344 8.06247 17.6409 8.47714 18.3855 9.21612C19.1301 9.9551 19.5524 10.9585 19.5603 12.0075C19.5603 12.528 19.4578 13.0435 19.2586 13.5244C19.0594 14.0053 18.7674 14.4422 18.3994 14.8103C18.0313 15.1784 17.5943 15.4703 17.1134 15.6695C16.6325 15.8687 16.1171 15.9712 15.5966 15.9712C15.076 15.9712 14.5606 15.8687 14.0797 15.6695C13.5988 15.4703 13.1618 15.1784 12.7938 14.8103C12.4257 14.4422 12.1337 14.0053 11.9345 13.5244C11.7353 13.0435 11.6328 12.528 11.6328 12.0075C11.6291 9.8325 13.4066 8.0625 15.5853 8.0625" fill="#FFFF00"/>
<path d="M15.5853 8.0625C16.6344 8.06247 17.6409 8.47714 18.3855 9.21612C19.1301 9.9551 19.5524 10.9585 19.5603 12.0075C19.5603 12.528 19.4578 13.0435 19.2586 13.5244C19.0594 14.0053 18.7674 14.4422 18.3994 14.8103C18.0313 15.1784 17.5943 15.4703 17.1134 15.6695C16.6325 15.8687 16.1171 15.9712 15.5966 15.9712C15.076 15.9712 14.5606 15.8687 14.0797 15.6695C13.5988 15.4703 13.1618 15.1784 12.7938 14.8103C12.4257 14.4422 12.1337 14.0053 11.9345 13.5244C11.7353 13.0435 11.6328 12.528 11.6328 12.0075C11.6291 9.8325 13.4066 8.0625 15.5853 8.0625M19.1553 11.91C19.1591 13.035 18.5816 14.0475 18.1203 14.49C17.4391 15.1544 16.5293 15.5328 15.5778 15.5475C14.4416 15.5662 13.3728 14.8275 13.0841 14.5013C12.4381 13.8162 12.0705 12.9151 12.0528 11.9737C12.1203 10.7437 12.6041 9.88875 13.3016 9.3C13.9791 8.74221 14.8315 8.44084 15.7091 8.44875C16.2214 8.47359 16.7228 8.60517 17.1813 8.83506C17.6398 9.06495 18.0452 9.38808 18.3716 9.78375C18.8403 10.3537 19.0466 10.9725 19.1553 11.91V11.91Z" stroke="black" stroke-width="0.05" stroke-linecap="round" stroke-linejoin="round"/>
<path fill-rule="evenodd" clip-rule="evenodd" d="M15.593 8.04492C17.7755 8.04492 19.553 9.82242 19.553 12.0049C19.553 14.1874 17.7755 15.9649 15.5967 15.9649C13.418 15.9649 11.6367 14.1874 11.6367 12.0049C11.6367 9.82242 13.4142 8.04492 15.5967 8.04492H15.593ZM11.7192 12.0012C11.7192 14.1312 13.4705 15.8749 15.593 15.8749C17.7155 15.8749 19.4667 14.1312 19.4667 12.0012C19.4667 9.87117 17.7155 8.12742 15.593 8.12742C13.4705 8.12742 11.7192 9.87117 11.7192 12.0012Z" fill="#FFFF00" stroke="black" stroke-width="0.05" stroke-linecap="round" stroke-linejoin="round"/>
<path fill-rule="evenodd" clip-rule="evenodd" d="M15.5989 8.375C16.5597 8.37797 17.4804 8.76097 18.1598 9.44038C18.8392 10.1198 19.2222 11.0404 19.2252 12.0012C19.2222 12.9624 18.8393 13.8834 18.16 14.5635C17.4807 15.2435 16.5601 15.6273 15.5989 15.6312C13.6114 15.6312 11.9727 13.9962 11.9727 12.0012C11.9766 11.0407 12.3599 10.1207 13.0391 9.44147C13.7183 8.76227 14.6384 8.37895 15.5989 8.375V8.375ZM12.0589 12.0012C12.0589 13.9512 13.6564 15.5412 15.5989 15.5412C17.5414 15.5412 19.1389 13.9475 19.1389 12.0012C19.1389 10.0512 17.5414 8.46125 15.5989 8.46125C14.6613 8.4652 13.7631 8.83943 13.1001 9.50245C12.4371 10.1655 12.0629 11.0636 12.0589 12.0012V12.0012Z" fill="#FFFF00" stroke="black" stroke-width="0.05" stroke-linecap="round" stroke-linejoin="round"/>
<path fill-rule="evenodd" clip-rule="evenodd" d="M15.7592 8.02539H15.418V15.9866H15.7555L15.7592 8.02539Z" fill="#FFFF00" stroke="black" stroke-width="0.05" stroke-linecap="round" stroke-linejoin="round"/>
<path fill-rule="evenodd" clip-rule="evenodd" d="M15.7242 7.98047H15.8105V16.0317H15.728V7.98047H15.7242ZM15.3867 7.98047H15.4767V16.0317H15.3905V7.98047H15.3867Z" fill="#FFFF00" stroke="black" stroke-width="0.05" stroke-linecap="round" stroke-linejoin="round"/>
<path fill-rule="evenodd" clip-rule="evenodd" d="M19.5598 12.1583V11.8658L19.3198 11.6408L17.9586 11.2808L16.0011 11.082L13.6386 11.202L11.9586 11.5995L11.6211 11.8508V12.147L12.4798 11.7608L14.5198 11.442H16.4811L17.9211 11.5995L18.9186 11.8395L19.5598 12.1583Z" fill="#FFFF00" stroke="black" stroke-width="0.05" stroke-linecap="round" stroke-linejoin="round"/>
<path fill-rule="evenodd" clip-rule="evenodd" d="M15.5984 11.3923C16.5322 11.3923 17.4359 11.4786 18.1597 11.6173C18.9022 11.7673 19.4234 11.9548 19.6034 12.1611V12.2661C19.3859 12.0036 18.6847 11.8161 18.1409 11.7036C17.4284 11.5686 16.5284 11.4786 15.5947 11.4786C14.6159 11.4786 13.7009 11.5761 12.9959 11.7111C12.4334 11.8236 11.6797 12.0486 11.5859 12.2661V12.1573C11.6347 12.0073 12.1972 11.7823 12.9847 11.6211C13.6934 11.4823 14.6084 11.3923 15.5947 11.3923H15.5984ZM15.5984 11.0511C16.4572 11.0493 17.3144 11.1246 18.1597 11.2761C18.9022 11.4261 19.4234 11.6136 19.6034 11.8236V11.9248C19.3859 11.6661 18.6847 11.4748 18.1409 11.3661C17.4284 11.2273 16.5284 11.1411 15.5947 11.1411C14.7244 11.1383 13.8557 11.2161 12.9997 11.3736C12.4559 11.4748 11.6722 11.7073 11.5859 11.9248V11.8198C11.6384 11.6698 12.2084 11.4336 12.9847 11.2836C13.6972 11.1448 14.6084 11.0511 15.5984 11.0511V11.0511ZM15.5759 9.31855C17.0497 9.31105 18.3359 9.5248 18.9247 9.8248L19.1384 10.1998C18.6284 9.9223 17.2409 9.6373 15.5797 9.6748C14.2259 9.68605 12.7784 9.8248 12.0547 10.2148L12.3097 9.7873C12.9059 9.47605 14.3084 9.31855 15.5759 9.31855" fill="#FFFF00"/>
<path d="M15.5759 9.31855C17.0497 9.31105 18.3359 9.5248 18.9247 9.8248L19.1384 10.1998C18.6284 9.9223 17.2409 9.6373 15.5797 9.6748C14.2259 9.68605 12.7784 9.8248 12.0547 10.2148L12.3097 9.7873C12.9059 9.47605 14.3084 9.31855 15.5759 9.31855M15.5984 11.3923C16.5322 11.3923 17.4359 11.4786 18.1597 11.6173C18.9022 11.7673 19.4234 11.9548 19.6034 12.1611V12.2661C19.3859 12.0036 18.6847 11.8161 18.1409 11.7036C17.4284 11.5686 16.5284 11.4786 15.5947 11.4786C14.6159 11.4786 13.7009 11.5761 12.9959 11.7111C12.4334 11.8236 11.6797 12.0486 11.5859 12.2661V12.1573C11.6347 12.0073 12.1972 11.7823 12.9847 11.6211C13.6934 11.4823 14.6084 11.3923 15.5947 11.3923H15.5984ZM15.5984 11.0511C16.4572 11.0493 17.3144 11.1246 18.1597 11.2761C18.9022 11.4261 19.4234 11.6136 19.6034 11.8236V11.9248C19.3859 11.6661 18.6847 11.4748 18.1409 11.3661C17.4284 11.2273 16.5284 11.1411 15.5947 11.1411C14.7244 11.1383 13.8557 11.2161 12.9997 11.3736C12.4559 11.4748 11.6722 11.7073 11.5859 11.9248V11.8198C11.6384 11.6698 12.2084 11.4336 12.9847 11.2836C13.6972 11.1448 14.6084 11.0511 15.5984 11.0511V11.0511Z" stroke="black" stroke-width="0.05" stroke-linecap="round" stroke-linejoin="round"/>
<path fill-rule="evenodd" clip-rule="evenodd" d="M15.5973 9.6272C16.3668 9.61422 17.136 9.66817 17.8961 9.78845C18.4961 9.90095 19.0698 10.066 19.1523 10.156L19.2161 10.2685C19.0173 10.141 18.5186 9.9947 17.8811 9.8747C17.2436 9.7547 16.4298 9.71345 15.5936 9.7172C14.6448 9.71345 13.9061 9.7622 13.2761 9.8747C12.8418 9.93557 12.4202 10.066 12.0273 10.261L12.0911 10.1447C12.3161 10.0322 12.6648 9.89345 13.2573 9.7847C13.9136 9.6647 14.6598 9.63095 15.5973 9.6272V9.6272ZM15.5973 9.2897C16.3998 9.2822 17.1948 9.3272 17.8136 9.4397C18.2145 9.49922 18.6024 9.626 18.9611 9.8147L19.0548 9.9647C18.8973 9.78845 18.3048 9.6197 17.7761 9.5297C17.1611 9.42095 16.3998 9.3797 15.5973 9.3722C14.8503 9.36554 14.104 9.42073 13.3661 9.5372C12.9802 9.59096 12.6055 9.70617 12.2561 9.87845L12.3386 9.7547C12.5561 9.6422 12.9086 9.5372 13.3511 9.45095C14.0939 9.33295 14.8453 9.27776 15.5973 9.28595V9.2897ZM17.5623 13.651C16.9124 13.5384 16.2531 13.4882 15.5936 13.501C13.1373 13.531 12.3461 14.0072 12.2486 14.1497L12.0611 13.8497C12.6911 13.3997 14.0261 13.1447 15.6086 13.1672C16.4298 13.1822 17.1386 13.2385 17.7311 13.3547L17.5623 13.6547" fill="#FFFF00"/>
<path d="M17.5623 13.651C16.9124 13.5384 16.2531 13.4882 15.5936 13.501C13.1373 13.531 12.3461 14.0072 12.2486 14.1497L12.0611 13.8497C12.6911 13.3997 14.0261 13.1447 15.6086 13.1672C16.4298 13.1822 17.1386 13.2385 17.7311 13.3547L17.5623 13.6547M15.5973 9.6272C16.3668 9.61422 17.136 9.66817 17.8961 9.78845C18.4961 9.90095 19.0698 10.066 19.1523 10.156L19.2161 10.2685C19.0173 10.141 18.5186 9.9947 17.8811 9.8747C17.2436 9.7547 16.4298 9.71345 15.5936 9.7172C14.6448 9.71345 13.9061 9.7622 13.2761 9.8747C12.8418 9.93557 12.4202 10.066 12.0273 10.261L12.0911 10.1447C12.3161 10.0322 12.6648 9.89345 13.2573 9.7847C13.9136 9.6647 14.6598 9.63095 15.5973 9.6272V9.6272ZM15.5973 9.2897C16.3998 9.2822 17.1948 9.3272 17.8136 9.4397C18.2145 9.49922 18.6024 9.626 18.9611 9.8147L19.0548 9.9647C18.8973 9.78845 18.3048 9.6197 17.7761 9.5297C17.1611 9.42095 16.3998 9.3797 15.5973 9.3722C14.8503 9.36554 14.104 9.42073 13.3661 9.5372C12.9802 9.59096 12.6055 9.70617 12.2561 9.87845L12.3386 9.7547C12.5561 9.6422 12.9086 9.5372 13.3511 9.45095C14.0939 9.33295 14.8453 9.27776 15.5973 9.28595V9.2897Z" stroke="black" stroke-width="0.05" stroke-linecap="round" stroke-linejoin="round"/>
<path fill-rule="evenodd" clip-rule="evenodd" d="M15.5825 13.4583C16.265 13.4695 16.9325 13.4958 17.5812 13.6158L17.5363 13.6983C16.9363 13.5858 16.2912 13.5483 15.5862 13.5483C14.675 13.5408 13.76 13.627 12.9613 13.8558C12.71 13.927 12.2938 14.0883 12.2488 14.2233L12.2038 14.1483C12.2188 14.0658 12.4663 13.9008 12.9388 13.7733C13.8538 13.5108 14.7088 13.462 15.5825 13.4583ZM15.6125 13.1133C16.3329 13.1126 17.0519 13.1753 17.7613 13.3008L17.7125 13.387C17.0198 13.26 16.3167 13.1985 15.6125 13.2033C14.705 13.2033 13.7413 13.2708 12.8638 13.5258C12.5825 13.6083 12.0913 13.7883 12.0763 13.927L12.0312 13.8445C12.0387 13.717 12.4625 13.5483 12.845 13.4395C13.7263 13.1808 14.6937 13.117 15.6125 13.1133V13.1133Z" fill="#FFFF00" stroke="black" stroke-width="0.05" stroke-linecap="round" stroke-linejoin="round"/>
<path fill-rule="evenodd" clip-rule="evenodd" d="M19.1022 13.8942L18.8097 14.3555L17.9584 13.6017L15.7609 12.1205L13.2784 10.7592L11.9922 10.3205L12.2659 9.81047L12.3597 9.76172L13.1584 9.96047L15.7984 11.3217L17.3209 12.2817L18.5997 13.2005L19.1209 13.8005L19.1022 13.8942Z" fill="#FFFF00" stroke="black" stroke-width="0.05" stroke-linecap="round" stroke-linejoin="round"/>
<path fill-rule="evenodd" clip-rule="evenodd" d="M11.9472 10.3325C12.1722 10.1825 13.8297 10.9175 15.5697 11.9675C17.2984 13.0175 18.9559 14.2025 18.8059 14.4237L18.7572 14.5025L18.7347 14.5212C18.7384 14.5175 18.7647 14.4837 18.7347 14.405C18.6597 14.1612 17.4822 13.2237 15.5359 12.0462C13.6347 10.9175 12.0522 10.235 11.8984 10.43L11.9472 10.3325V10.3325ZM19.1622 13.8912C19.3047 13.6062 17.7672 12.4475 15.8584 11.3187C13.9084 10.2125 12.4984 9.55998 12.2397 9.75498L12.1872 9.86373C12.1872 9.86748 12.1872 9.85623 12.2022 9.84498C12.2472 9.80748 12.3259 9.80748 12.3597 9.80748C12.8022 9.81498 14.0659 10.3962 15.8397 11.4125C16.6197 11.8625 19.1247 13.475 19.1134 13.925C19.1134 13.9625 19.1172 13.97 19.1022 13.9925L19.1659 13.895L19.1622 13.8912Z" fill="#FFFF00" stroke="black" stroke-width="0.05" stroke-linecap="round" stroke-linejoin="round"/>
<path d="M13.2227 12.4415C13.2232 12.752 13.2854 13.0593 13.4056 13.3457C13.5257 13.632 13.7015 13.8916 13.9227 14.1095C14.1411 14.3314 14.4014 14.5078 14.6883 14.6286C14.9753 14.7495 15.2833 14.8123 15.5947 14.8135C16.2248 14.8135 16.8291 14.5631 17.2747 14.1175C17.4951 13.8984 17.67 13.6379 17.7894 13.351C17.9089 13.064 17.9705 12.7563 17.9707 12.4455V9.27753L13.2227 9.26953V12.4415V12.4415Z" fill="white" stroke="black" stroke-width="0.0622224"/>
<path d="M13.3125 12.4451C13.3133 12.7429 13.3732 13.0376 13.4885 13.3123C13.6038 13.5869 13.7724 13.8359 13.9845 14.0451C14.4104 14.4732 14.9887 14.7148 15.5925 14.7171C16.1953 14.7174 16.7736 14.4786 17.2005 14.0531C17.4119 13.8436 17.5797 13.5944 17.6944 13.3198C17.809 13.0452 17.8682 12.7506 17.8685 12.4531V9.37305H13.3205V12.4451M16.9605 10.297V12.2531L16.9565 12.4571C16.9579 12.6358 16.9231 12.8129 16.8544 12.9778C16.7857 13.1428 16.6843 13.2922 16.5565 13.4171C16.3021 13.6723 15.9569 13.8162 15.5965 13.8171C15.2205 13.8171 14.8885 13.6571 14.6405 13.4091C14.3853 13.1547 14.2414 12.8094 14.2405 12.4491V10.289L16.9605 10.297Z" fill="#FF0000"/>
<path d="M13.3125 12.4451C13.3133 12.7429 13.3732 13.0376 13.4885 13.3123C13.6038 13.5869 13.7724 13.8359 13.9845 14.0451C14.4104 14.4732 14.9887 14.7148 15.5925 14.7171C16.1953 14.7174 16.7736 14.4786 17.2005 14.0531C17.4119 13.8436 17.5797 13.5944 17.6944 13.3198C17.809 13.0452 17.8682 12.7506 17.8685 12.4531V9.37305H13.3205V12.4451M16.9605 10.297V12.2531L16.9565 12.4571C16.9579 12.6358 16.9231 12.8129 16.8544 12.9778C16.7857 13.1428 16.6843 13.2922 16.5565 13.4171C16.3021 13.6723 15.9569 13.8162 15.5965 13.8171C15.2205 13.8171 14.8885 13.6571 14.6405 13.4091C14.3853 13.1547 14.2414 12.8094 14.2405 12.4491V10.289L16.9605 10.297Z" stroke="black" stroke-width="0.0444446"/>
<path d="M13.6055 10.1783C13.6095 9.95825 13.7655 9.90625 13.7655 9.90625C13.7695 9.90625 13.9375 9.96225 13.9375 10.1823H13.6055" fill="#FFFF00"/>
<path d="M13.4703 9.91025L13.4423 10.1623H13.6103C13.6103 9.95425 13.7703 9.92225 13.7703 9.92225C13.7743 9.92225 13.9303 9.96625 13.9343 10.1623H14.1023L14.0703 9.90625H13.4703V9.91025ZM13.4303 10.1663H14.1103C14.1223 10.1663 14.1343 10.1783 14.1343 10.1943C14.1343 10.2143 14.1223 10.2263 14.1103 10.2263H13.4303C13.4183 10.2263 13.4062 10.2143 13.4062 10.1943C13.4062 10.1783 13.4182 10.1663 13.4342 10.1663H13.4303Z" fill="#FFFF00" stroke="black" stroke-width="0.0444446"/>
<path d="M13.6779 10.1616C13.6779 10.0296 13.7699 9.9936 13.7699 9.9936C13.7699 9.9936 13.8619 10.0336 13.8619 10.1616H13.6779ZM13.4459 9.80159H14.0979C14.1099 9.80159 14.1219 9.81759 14.1219 9.8336C14.1219 9.8456 14.1099 9.85759 14.0979 9.85759H13.4459C13.4339 9.85759 13.4219 9.84559 13.4219 9.82959C13.4219 9.81759 13.4339 9.8056 13.4459 9.8056V9.80159ZM13.4619 9.86159H14.0779C14.0899 9.86159 14.1019 9.87359 14.1019 9.88959C14.1019 9.90559 14.0899 9.91759 14.0779 9.91759H13.4579C13.4419 9.91759 13.4339 9.90559 13.4339 9.88959C13.4339 9.87359 13.4419 9.86159 13.4579 9.86159H13.4619ZM13.6619 9.43759H13.7099V9.46959H13.7459V9.43759H13.7979V9.47359H13.8339V9.43359H13.8819V9.51359C13.8819 9.52959 13.8739 9.53759 13.8619 9.53759H13.6859C13.6739 9.53759 13.6619 9.52959 13.6619 9.51759V9.43759ZM13.8459 9.54559L13.8579 9.80159H13.6859L13.6979 9.54159H13.8459" fill="#FFFF00"/>
<path d="M13.8459 9.54559L13.8579 9.80159H13.6859L13.6979 9.54159H13.8459M13.6779 10.1616C13.6779 10.0296 13.7699 9.9936 13.7699 9.9936C13.7699 9.9936 13.8619 10.0336 13.8619 10.1616H13.6779ZM13.4459 9.80159H14.0979C14.1099 9.80159 14.1219 9.81759 14.1219 9.8336C14.1219 9.8456 14.1099 9.85759 14.0979 9.85759H13.4459C13.4339 9.85759 13.4219 9.84559 13.4219 9.82959C13.4219 9.81759 13.4339 9.8056 13.4459 9.8056V9.80159ZM13.4619 9.86159H14.0779C14.0899 9.86159 14.1019 9.87359 14.1019 9.88959C14.1019 9.90559 14.0899 9.91759 14.0779 9.91759H13.4579C13.4419 9.91759 13.4339 9.90559 13.4339 9.88959C13.4339 9.87359 13.4419 9.86159 13.4579 9.86159H13.4619ZM13.6619 9.43759H13.7099V9.46959H13.7459V9.43759H13.7979V9.47359H13.8339V9.43359H13.8819V9.51359C13.8819 9.52959 13.8739 9.53759 13.8619 9.53759H13.6859C13.6739 9.53759 13.6619 9.52959 13.6619 9.51759V9.43759Z" stroke="black" stroke-width="0.0444446"/>
<path d="M13.6366 9.66602V9.80202H13.4766V9.66602H13.6366Z" fill="#FFFF00" stroke="black" stroke-width="0.0444446"/>
<path d="M14.0623 9.66602V9.80202H13.9023V9.66602H14.0623Z" fill="#FFFF00" stroke="black" stroke-width="0.0444446"/>
<path d="M13.4492 9.5625H13.4972V9.6025H13.5332V9.5625H13.5812V9.6025H13.6172V9.5625H13.6652V9.6425C13.6652 9.6585 13.6572 9.6665 13.6452 9.6665H13.4732C13.4669 9.6665 13.4607 9.66397 13.4562 9.65947C13.4517 9.65497 13.4492 9.64887 13.4492 9.6425V9.5625V9.5625Z" fill="#FFFF00" stroke="black" stroke-width="0.0444446"/>
<path d="M13.875 9.5625H13.923V9.6025H13.959V9.5625H14.007V9.6025H14.043V9.5625H14.091V9.6425C14.091 9.6585 14.083 9.6665 14.071 9.6665H13.899C13.8926 9.6665 13.8865 9.66397 13.882 9.65947C13.8775 9.65497 13.875 9.64887 13.875 9.6425V9.5625V9.5625Z" fill="#FFFF00" stroke="black" stroke-width="0.0444446"/>
<path d="M13.7539 9.62542C13.7539 9.60142 13.7899 9.60142 13.7899 9.62542V9.68942H13.7539V9.62542Z" fill="black"/>
<path d="M13.543 9.71331C13.543 9.68931 13.575 9.68931 13.575 9.71331V9.76131H13.543V9.71331Z" fill="black"/>
<path d="M13.9648 9.71331C13.9648 9.68931 13.9968 9.68931 13.9968 9.71331V9.76131H13.9648V9.71331Z" fill="black"/>
<path d="M13.6055 12.0298C13.6095 11.8098 13.7655 11.7578 13.7655 11.7578C13.7695 11.7578 13.9375 11.8138 13.9375 12.0338H13.6055" fill="#FFFF00"/>
<path d="M13.4703 11.7618L13.4423 12.0138H13.6103C13.6103 11.8058 13.7703 11.7738 13.7703 11.7738C13.7743 11.7738 13.9303 11.8178 13.9343 12.0138H14.1023L14.0703 11.7578H13.4703V11.7618ZM13.4303 12.0178H14.1103C14.1223 12.0178 14.1343 12.0298 14.1343 12.0458C14.1343 12.0658 14.1223 12.0778 14.1103 12.0778H13.4303C13.4183 12.0778 13.4062 12.0658 13.4062 12.0458C13.4062 12.0298 13.4182 12.0178 13.4342 12.0178H13.4303Z" fill="#FFFF00" stroke="black" stroke-width="0.0444446"/>
<path d="M13.6779 12.0132C13.6779 11.8812 13.7699 11.8452 13.7699 11.8452C13.7699 11.8452 13.8619 11.8852 13.8619 12.0132H13.6779ZM13.4459 11.6532H14.0979C14.1099 11.6532 14.1219 11.6692 14.1219 11.6852C14.1219 11.6972 14.1099 11.7092 14.0979 11.7092H13.4459C13.4339 11.7092 13.4219 11.6972 13.4219 11.6812C13.4219 11.6692 13.4339 11.6572 13.4459 11.6572V11.6532ZM13.4619 11.7132H14.0779C14.0899 11.7132 14.1019 11.7252 14.1019 11.7412C14.1019 11.7572 14.0899 11.7692 14.0779 11.7692H13.4579C13.4419 11.7692 13.4339 11.7572 13.4339 11.7412C13.4339 11.7252 13.4419 11.7132 13.4579 11.7132H13.4619ZM13.6619 11.2892H13.7099V11.3212H13.7459V11.2892H13.7979V11.3252H13.8339V11.2852H13.8819V11.3652C13.8819 11.3812 13.8739 11.3892 13.8619 11.3892H13.6859C13.6739 11.3892 13.6619 11.3812 13.6619 11.3692V11.2892ZM13.8459 11.3972L13.8579 11.6532H13.6859L13.6979 11.3932H13.8459" fill="#FFFF00"/>
<path d="M13.8459 11.3972L13.8579 11.6532H13.6859L13.6979 11.3932H13.8459M13.6779 12.0132C13.6779 11.8812 13.7699 11.8452 13.7699 11.8452C13.7699 11.8452 13.8619 11.8852 13.8619 12.0132H13.6779ZM13.4459 11.6532H14.0979C14.1099 11.6532 14.1219 11.6692 14.1219 11.6852C14.1219 11.6972 14.1099 11.7092 14.0979 11.7092H13.4459C13.4339 11.7092 13.4219 11.6972 13.4219 11.6812C13.4219 11.6692 13.4339 11.6572 13.4459 11.6572V11.6532ZM13.4619 11.7132H14.0779C14.0899 11.7132 14.1019 11.7252 14.1019 11.7412C14.1019 11.7572 14.0899 11.7692 14.0779 11.7692H13.4579C13.4419 11.7692 13.4339 11.7572 13.4339 11.7412C13.4339 11.7252 13.4419 11.7132 13.4579 11.7132H13.4619ZM13.6619 11.2892H13.7099V11.3212H13.7459V11.2892H13.7979V11.3252H13.8339V11.2852H13.8819V11.3652C13.8819 11.3812 13.8739 11.3892 13.8619 11.3892H13.6859C13.6739 11.3892 13.6619 11.3812 13.6619 11.3692V11.2892Z" stroke="black" stroke-width="0.0444446"/>
<path d="M13.6366 11.5176V11.6536H13.4766V11.5176H13.6366Z" fill="#FFFF00" stroke="black" stroke-width="0.0444446"/>
<path d="M14.0623 11.5176V11.6536H13.9023V11.5176H14.0623Z" fill="#FFFF00" stroke="black" stroke-width="0.0444446"/>
<path d="M13.4492 11.4141H13.4972V11.4541H13.5332V11.4141H13.5812V11.4541H13.6172V11.4141H13.6652V11.4941C13.6652 11.5101 13.6572 11.5181 13.6452 11.5181H13.4732C13.4669 11.5181 13.4607 11.5155 13.4562 11.511C13.4517 11.5065 13.4492 11.5004 13.4492 11.4941V11.4141V11.4141Z" fill="#FFFF00" stroke="black" stroke-width="0.0444446"/>
<path d="M13.875 11.4141H13.923V11.4541H13.959V11.4141H14.007V11.4541H14.043V11.4141H14.091V11.4941C14.091 11.5101 14.083 11.5181 14.071 11.5181H13.899C13.8926 11.5181 13.8865 11.5155 13.882 11.511C13.8775 11.5065 13.875 11.5004 13.875 11.4941V11.4141V11.4141Z" fill="#FFFF00" stroke="black" stroke-width="0.0444446"/>
<path d="M13.7539 11.477C13.7539 11.453 13.7899 11.453 13.7899 11.477V11.541H13.7539V11.477Z" fill="black"/>
<path d="M13.543 11.5649C13.543 11.5409 13.575 11.5409 13.575 11.5649V11.6129H13.543V11.5649Z" fill="black"/>
<path d="M13.9648 11.5649C13.9648 11.5409 13.9968 11.5409 13.9968 11.5649V11.6129H13.9648V11.5649Z" fill="black"/>
<path d="M14.3297 13.9612C14.1764 13.8033 14.2495 13.656 14.2495 13.656C14.2523 13.6532 14.4104 13.5734 14.5665 13.7284L14.3326 13.964" fill="#FFFF00"/>
<path d="M14.044 13.8676L14.2031 14.065L14.3215 13.9458C14.1739 13.7992 14.2639 13.6631 14.2639 13.6631C14.2668 13.6603 14.4079 13.5806 14.5498 13.7159L14.6682 13.5967L14.464 13.439L14.0412 13.8647L14.044 13.8676ZM14.1975 14.0763L14.6766 13.5938C14.6851 13.5853 14.7021 13.5852 14.7134 13.5965C14.7276 13.6106 14.7277 13.6276 14.7192 13.6361L14.2401 14.1186C14.2316 14.1271 14.2146 14.1272 14.2005 14.1131C14.1891 14.1018 14.189 14.0848 14.2003 14.0735L14.1975 14.0763Z" fill="#FFFF00" stroke="black" stroke-width="0.0444446"/>
<path d="M14.3688 13.8977C14.2752 13.8047 14.3144 13.7141 14.3144 13.7141C14.3144 13.7141 14.4077 13.677 14.4985 13.7672L14.3688 13.8977ZM13.9499 13.8087L14.4093 13.346C14.4178 13.3375 14.4376 13.3403 14.4489 13.3516C14.4575 13.36 14.4575 13.377 14.4491 13.3855L13.9896 13.8481C13.9812 13.8567 13.9642 13.8567 13.9529 13.8454C13.9444 13.837 13.9443 13.82 13.9527 13.8115L13.9499 13.8087ZM14.0038 13.8396L14.4378 13.4025C14.4463 13.394 14.4632 13.3939 14.4746 13.4052C14.4859 13.4165 14.486 13.4335 14.4775 13.442L14.0407 13.8819C14.0294 13.8933 14.0152 13.8905 14.0039 13.8792C13.9925 13.8679 13.9897 13.8538 14.0009 13.8424L14.0038 13.8396ZM13.8438 13.3989L13.8776 13.3649L13.9004 13.3874L13.9257 13.3619L13.903 13.3393L13.9397 13.3024L13.9652 13.3278L13.9906 13.3022L13.9622 13.2741L13.996 13.24L14.0528 13.2964C14.0641 13.3076 14.0642 13.319 14.0557 13.3275L13.9317 13.4524C13.9232 13.4609 13.9091 13.4638 13.9006 13.4553L13.8438 13.3989ZM14.0501 13.3445L14.2402 13.5163L14.119 13.6384L13.943 13.4467L14.0473 13.3416" fill="#FFFF00"/>
<path d="M14.0501 13.3445L14.2402 13.5163L14.119 13.6384L13.943 13.4467L14.0473 13.3416M14.3688 13.8977C14.2752 13.8047 14.3144 13.7141 14.3144 13.7141C14.3144 13.7141 14.4077 13.677 14.4985 13.7672L14.3688 13.8977ZM13.9499 13.8087L14.4093 13.346C14.4178 13.3375 14.4376 13.3403 14.4489 13.3516C14.4575 13.36 14.4575 13.377 14.4491 13.3855L13.9896 13.8481C13.9812 13.8567 13.9642 13.8567 13.9529 13.8454C13.9444 13.837 13.9443 13.82 13.9527 13.8115L13.9499 13.8087ZM14.0038 13.8396L14.4378 13.4025C14.4463 13.394 14.4632 13.3939 14.4746 13.4052C14.4859 13.4165 14.486 13.4335 14.4775 13.442L14.0407 13.8819C14.0294 13.8933 14.0152 13.8905 14.0039 13.8792C13.9925 13.8679 13.9897 13.8538 14.0009 13.8424L14.0038 13.8396ZM13.8438 13.3989L13.8776 13.3649L13.9004 13.3874L13.9257 13.3619L13.903 13.3393L13.9397 13.3024L13.9652 13.3278L13.9906 13.3022L13.9622 13.2741L13.996 13.24L14.0528 13.2964C14.0641 13.3076 14.0642 13.319 14.0557 13.3275L13.9317 13.4524C13.9232 13.4609 13.9091 13.4638 13.9006 13.4553L13.8438 13.3989Z" stroke="black" stroke-width="0.0444446"/>
<path d="M13.9877 13.5779L14.0842 13.6737L13.9715 13.7872L13.875 13.6914L13.9877 13.5779Z" fill="#FFFF00" stroke="black" stroke-width="0.0444446"/>
<path d="M14.2885 13.2771L14.385 13.3729L14.2723 13.4865L14.1758 13.3906L14.2885 13.2771Z" fill="#FFFF00" stroke="black" stroke-width="0.0444446"/>
<path d="M13.7812 13.6367L13.8151 13.6027L13.8435 13.6308L13.8688 13.6053L13.8404 13.5771L13.8743 13.5431L13.9026 13.5712L13.928 13.5457L13.8996 13.5175L13.9335 13.4835L13.9902 13.5398C14.0016 13.5511 14.0016 13.5624 13.9932 13.5709L13.872 13.693C13.8675 13.6975 13.8614 13.7 13.855 13.7001C13.8486 13.7001 13.8425 13.6976 13.838 13.6931L13.7812 13.6367V13.6367Z" fill="#FFFF00" stroke="black" stroke-width="0.0444446"/>
<path d="M14.082 13.3359L14.1159 13.3019L14.1442 13.3301L14.1696 13.3045L14.1412 13.2763L14.175 13.2423L14.2034 13.2705L14.2288 13.2449L14.2004 13.2167L14.2342 13.1827L14.291 13.239C14.3024 13.2503 14.3024 13.2616 14.2939 13.2701L14.1727 13.3922C14.1683 13.3967 14.1622 13.3993 14.1558 13.3993C14.1494 13.3993 14.1433 13.3968 14.1388 13.3923L14.082 13.3359V13.3359Z" fill="#FFFF00" stroke="black" stroke-width="0.0444446"/>
<path d="M14.0401 13.4658C14.0231 13.4489 14.0485 13.4234 14.0655 13.4403L14.1109 13.4854L14.0855 13.5109L14.0401 13.4658Z" fill="black"/>
<path d="M13.9542 13.6787C13.9371 13.6618 13.9597 13.6391 13.9767 13.656L14.0108 13.6898L13.9882 13.7125L13.9542 13.6787Z" fill="black"/>
<path d="M14.255 13.3779C14.2379 13.361 14.2605 13.3383 14.2775 13.3552L14.3116 13.389L14.289 13.4117L14.255 13.3779Z" fill="black"/>
<path d="M15.4336 10.1783C15.4376 9.95825 15.5936 9.90625 15.5936 9.90625C15.5976 9.90625 15.7656 9.96225 15.7656 10.1823H15.4336" fill="#FFFF00"/>
<path d="M15.2984 9.91025L15.2704 10.1623H15.4384C15.4384 9.95425 15.5984 9.92225 15.5984 9.92225C15.6024 9.92225 15.7584 9.96625 15.7624 10.1623H15.9304L15.8984 9.90625H15.2984V9.91025ZM15.2584 10.1663H15.9384C15.9504 10.1663 15.9624 10.1783 15.9624 10.1943C15.9624 10.2143 15.9504 10.2263 15.9384 10.2263H15.2584C15.2464 10.2263 15.2344 10.2143 15.2344 10.1943C15.2344 10.1783 15.2464 10.1663 15.2624 10.1663H15.2584Z" fill="#FFFF00" stroke="black" stroke-width="0.0444446"/>
<path d="M15.506 10.1616C15.506 10.0296 15.598 9.9936 15.598 9.9936C15.598 9.9936 15.69 10.0336 15.69 10.1616H15.506ZM15.274 9.80159H15.926C15.938 9.80159 15.95 9.81759 15.95 9.8336C15.95 9.8456 15.938 9.85759 15.926 9.85759H15.274C15.262 9.85759 15.25 9.84559 15.25 9.82959C15.25 9.81759 15.262 9.8056 15.274 9.8056V9.80159ZM15.29 9.86159H15.906C15.918 9.86159 15.93 9.87359 15.93 9.88959C15.93 9.90559 15.918 9.91759 15.906 9.91759H15.286C15.27 9.91759 15.262 9.90559 15.262 9.88959C15.262 9.87359 15.27 9.86159 15.286 9.86159H15.29ZM15.49 9.43759H15.538V9.46959H15.574V9.43759H15.626V9.47359H15.662V9.43359H15.71V9.51359C15.71 9.52959 15.702 9.53759 15.69 9.53759H15.514C15.502 9.53759 15.49 9.52959 15.49 9.51759V9.43759ZM15.674 9.54559L15.686 9.80159H15.514L15.526 9.54159H15.674" fill="#FFFF00"/>
<path d="M15.674 9.54559L15.686 9.80159H15.514L15.526 9.54159H15.674M15.506 10.1616C15.506 10.0296 15.598 9.9936 15.598 9.9936C15.598 9.9936 15.69 10.0336 15.69 10.1616H15.506ZM15.274 9.80159H15.926C15.938 9.80159 15.95 9.81759 15.95 9.8336C15.95 9.8456 15.938 9.85759 15.926 9.85759H15.274C15.262 9.85759 15.25 9.84559 15.25 9.82959C15.25 9.81759 15.262 9.8056 15.274 9.8056V9.80159ZM15.29 9.86159H15.906C15.918 9.86159 15.93 9.87359 15.93 9.88959C15.93 9.90559 15.918 9.91759 15.906 9.91759H15.286C15.27 9.91759 15.262 9.90559 15.262 9.88959C15.262 9.87359 15.27 9.86159 15.286 9.86159H15.29ZM15.49 9.43759H15.538V9.46959H15.574V9.43759H15.626V9.47359H15.662V9.43359H15.71V9.51359C15.71 9.52959 15.702 9.53759 15.69 9.53759H15.514C15.502 9.53759 15.49 9.52959 15.49 9.51759V9.43759Z" stroke="black" stroke-width="0.0444446"/>
<path d="M15.4647 9.66602V9.80202H15.3047V9.66602H15.4647Z" fill="#FFFF00" stroke="black" stroke-width="0.0444446"/>
<path d="M15.8905 9.66602V9.80202H15.7305V9.66602H15.8905Z" fill="#FFFF00" stroke="black" stroke-width="0.0444446"/>
<path d="M15.2773 9.5625H15.3253V9.6025H15.3613V9.5625H15.4093V9.6025H15.4453V9.5625H15.4933V9.6425C15.4933 9.6585 15.4853 9.6665 15.4733 9.6665H15.3013C15.295 9.6665 15.2889 9.66397 15.2844 9.65947C15.2799 9.65497 15.2773 9.64887 15.2773 9.6425V9.5625V9.5625Z" fill="#FFFF00" stroke="black" stroke-width="0.0444446"/>
<path d="M15.7031 9.5625H15.7511V9.6025H15.7871V9.5625H15.8351V9.6025H15.8711V9.5625H15.9191V9.6425C15.9191 9.6585 15.9111 9.6665 15.8991 9.6665H15.7271C15.7208 9.6665 15.7147 9.66397 15.7102 9.65947C15.7057 9.65497 15.7031 9.64887 15.7031 9.6425V9.5625V9.5625Z" fill="#FFFF00" stroke="black" stroke-width="0.0444446"/>
<path d="M15.582 9.62542C15.582 9.60142 15.618 9.60142 15.618 9.62542V9.68942H15.582V9.62542Z" fill="black"/>
<path d="M15.3711 9.71331C15.3711 9.68931 15.4031 9.68931 15.4031 9.71331V9.76131H15.3711V9.71331Z" fill="black"/>
<path d="M15.793 9.71331C15.793 9.68931 15.825 9.68931 15.825 9.71331V9.76131H15.793V9.71331Z" fill="black"/>
<path d="M17.582 10.1783C17.578 9.95825 17.422 9.90625 17.422 9.90625C17.418 9.90625 17.25 9.96225 17.25 10.1823H17.582" fill="#FFFF00"/>
<path d="M17.7172 9.91025L17.7452 10.1623H17.5772C17.5772 9.95425 17.4172 9.92225 17.4172 9.92225C17.4132 9.92225 17.2572 9.96625 17.2532 10.1623H17.0852L17.1172 9.90625H17.7172V9.91025ZM17.7572 10.1663H17.0772C17.0652 10.1663 17.0532 10.1783 17.0532 10.1943C17.0532 10.2143 17.0652 10.2263 17.0772 10.2263H17.7572C17.7692 10.2263 17.7812 10.2143 17.7812 10.1943C17.7812 10.1783 17.7693 10.1663 17.7533 10.1663H17.7572Z" fill="#FFFF00" stroke="black" stroke-width="0.0444446"/>
<path d="M17.5096 10.1616C17.5096 10.0296 17.4176 9.9936 17.4176 9.9936C17.4176 9.9936 17.3256 10.0336 17.3256 10.1616H17.5096ZM17.7416 9.80159H17.0896C17.0776 9.80159 17.0656 9.81759 17.0656 9.8336C17.0656 9.8456 17.0776 9.85759 17.0896 9.85759H17.7416C17.7536 9.85759 17.7656 9.84559 17.7656 9.82959C17.7656 9.81759 17.7536 9.8056 17.7416 9.8056V9.80159ZM17.7256 9.86159H17.1096C17.0976 9.86159 17.0856 9.87359 17.0856 9.88959C17.0856 9.90559 17.0976 9.91759 17.1096 9.91759H17.7296C17.7456 9.91759 17.7536 9.90559 17.7536 9.88959C17.7536 9.87359 17.7456 9.86159 17.7296 9.86159H17.7256ZM17.5256 9.43759H17.4776V9.46959H17.4416V9.43759H17.3896V9.47359H17.3536V9.43359H17.3056V9.51359C17.3056 9.52959 17.3136 9.53759 17.3256 9.53759H17.5016C17.5136 9.53759 17.5256 9.52959 17.5256 9.51759V9.43759ZM17.3416 9.54559L17.3296 9.80159H17.5016L17.4896 9.54159H17.3416" fill="#FFFF00"/>
<path d="M17.3416 9.54559L17.3296 9.80159H17.5016L17.4896 9.54159H17.3416M17.5096 10.1616C17.5096 10.0296 17.4176 9.9936 17.4176 9.9936C17.4176 9.9936 17.3256 10.0336 17.3256 10.1616H17.5096ZM17.7416 9.80159H17.0896C17.0776 9.80159 17.0656 9.81759 17.0656 9.8336C17.0656 9.8456 17.0776 9.85759 17.0896 9.85759H17.7416C17.7536 9.85759 17.7656 9.84559 17.7656 9.82959C17.7656 9.81759 17.7536 9.8056 17.7416 9.8056V9.80159ZM17.7256 9.86159H17.1096C17.0976 9.86159 17.0856 9.87359 17.0856 9.88959C17.0856 9.90559 17.0976 9.91759 17.1096 9.91759H17.7296C17.7456 9.91759 17.7536 9.90559 17.7536 9.88959C17.7536 9.87359 17.7456 9.86159 17.7296 9.86159H17.7256ZM17.5256 9.43759H17.4776V9.46959H17.4416V9.43759H17.3896V9.47359H17.3536V9.43359H17.3056V9.51359C17.3056 9.52959 17.3136 9.53759 17.3256 9.53759H17.5016C17.5136 9.53759 17.5256 9.52959 17.5256 9.51759V9.43759Z" stroke="black" stroke-width="0.0444446"/>
<path d="M17.5509 9.66602V9.80202H17.7109V9.66602H17.5509Z" fill="#FFFF00" stroke="black" stroke-width="0.0444446"/>
<path d="M17.1252 9.66602V9.80202H17.2852V9.66602H17.1252Z" fill="#FFFF00" stroke="black" stroke-width="0.0444446"/>
<path d="M17.7383 9.5625H17.6903V9.6025H17.6543V9.5625H17.6063V9.6025H17.5703V9.5625H17.5223V9.6425C17.5223 9.6585 17.5303 9.6665 17.5423 9.6665H17.7143C17.7206 9.6665 17.7268 9.66397 17.7313 9.65947C17.7358 9.65497 17.7383 9.64887 17.7383 9.6425V9.5625V9.5625Z" fill="#FFFF00" stroke="black" stroke-width="0.0444446"/>
<path d="M17.3125 9.5625H17.2645V9.6025H17.2285V9.5625H17.1805V9.6025H17.1445V9.5625H17.0965V9.6425C17.0965 9.6585 17.1045 9.6665 17.1165 9.6665H17.2885C17.2949 9.6665 17.301 9.66397 17.3055 9.65947C17.31 9.65497 17.3125 9.64887 17.3125 9.6425V9.5625V9.5625Z" fill="#FFFF00" stroke="black" stroke-width="0.0444446"/>
<path d="M17.4336 9.62542C17.4336 9.60142 17.3976 9.60142 17.3976 9.62542V9.68942H17.4336V9.62542Z" fill="black"/>
<path d="M17.6445 9.71331C17.6445 9.68931 17.6125 9.68931 17.6125 9.71331V9.76131H17.6445V9.71331Z" fill="black"/>
<path d="M17.2227 9.71331C17.2227 9.68931 17.1907 9.68931 17.1907 9.71331V9.76131H17.2227V9.71331Z" fill="black"/>
<path d="M17.582 12.0298C17.578 11.8098 17.422 11.7578 17.422 11.7578C17.418 11.7578 17.25 11.8138 17.25 12.0338H17.582" fill="#FFFF00"/>
<path d="M17.7172 11.7618L17.7452 12.0138H17.5772C17.5772 11.8058 17.4172 11.7738 17.4172 11.7738C17.4132 11.7738 17.2572 11.8178 17.2532 12.0138H17.0852L17.1172 11.7578H17.7172V11.7618ZM17.7572 12.0178H17.0772C17.0652 12.0178 17.0532 12.0298 17.0532 12.0458C17.0532 12.0658 17.0652 12.0778 17.0772 12.0778H17.7572C17.7692 12.0778 17.7812 12.0658 17.7812 12.0458C17.7812 12.0298 17.7693 12.0178 17.7533 12.0178H17.7572Z" fill="#FFFF00" stroke="black" stroke-width="0.0444446"/>
<path d="M17.5096 12.0132C17.5096 11.8812 17.4176 11.8452 17.4176 11.8452C17.4176 11.8452 17.3256 11.8852 17.3256 12.0132H17.5096ZM17.7416 11.6532H17.0896C17.0776 11.6532 17.0656 11.6692 17.0656 11.6852C17.0656 11.6972 17.0776 11.7092 17.0896 11.7092H17.7416C17.7536 11.7092 17.7656 11.6972 17.7656 11.6812C17.7656 11.6692 17.7536 11.6572 17.7416 11.6572V11.6532ZM17.7256 11.7132H17.1096C17.0976 11.7132 17.0856 11.7252 17.0856 11.7412C17.0856 11.7572 17.0976 11.7692 17.1096 11.7692H17.7296C17.7456 11.7692 17.7536 11.7572 17.7536 11.7412C17.7536 11.7252 17.7456 11.7132 17.7296 11.7132H17.7256ZM17.5256 11.2892H17.4776V11.3212H17.4416V11.2892H17.3896V11.3252H17.3536V11.2852H17.3056V11.3652C17.3056 11.3812 17.3136 11.3892 17.3256 11.3892H17.5016C17.5136 11.3892 17.5256 11.3812 17.5256 11.3692V11.2892ZM17.3416 11.3972L17.3296 11.6532H17.5016L17.4896 11.3932H17.3416" fill="#FFFF00"/>
<path d="M17.3416 11.3972L17.3296 11.6532H17.5016L17.4896 11.3932H17.3416M17.5096 12.0132C17.5096 11.8812 17.4176 11.8452 17.4176 11.8452C17.4176 11.8452 17.3256 11.8852 17.3256 12.0132H17.5096ZM17.7416 11.6532H17.0896C17.0776 11.6532 17.0656 11.6692 17.0656 11.6852C17.0656 11.6972 17.0776 11.7092 17.0896 11.7092H17.7416C17.7536 11.7092 17.7656 11.6972 17.7656 11.6812C17.7656 11.6692 17.7536 11.6572 17.7416 11.6572V11.6532ZM17.7256 11.7132H17.1096C17.0976 11.7132 17.0856 11.7252 17.0856 11.7412C17.0856 11.7572 17.0976 11.7692 17.1096 11.7692H17.7296C17.7456 11.7692 17.7536 11.7572 17.7536 11.7412C17.7536 11.7252 17.7456 11.7132 17.7296 11.7132H17.7256ZM17.5256 11.2892H17.4776V11.3212H17.4416V11.2892H17.3896V11.3252H17.3536V11.2852H17.3056V11.3652C17.3056 11.3812 17.3136 11.3892 17.3256 11.3892H17.5016C17.5136 11.3892 17.5256 11.3812 17.5256 11.3692V11.2892Z" stroke="black" stroke-width="0.0444446"/>
<path d="M17.5509 11.5176V11.6536H17.7109V11.5176H17.5509Z" fill="#FFFF00" stroke="black" stroke-width="0.0444446"/>
<path d="M17.1252 11.5176V11.6536H17.2852V11.5176H17.1252Z" fill="#FFFF00" stroke="black" stroke-width="0.0444446"/>
<path d="M17.7383 11.4141H17.6903V11.4541H17.6543V11.4141H17.6063V11.4541H17.5703V11.4141H17.5223V11.4941C17.5223 11.5101 17.5303 11.5181 17.5423 11.5181H17.7143C17.7206 11.5181 17.7268 11.5155 17.7313 11.511C17.7358 11.5065 17.7383 11.5004 17.7383 11.4941V11.4141V11.4141Z" fill="#FFFF00" stroke="black" stroke-width="0.0444446"/>
<path d="M17.3125 11.4141H17.2645V11.4541H17.2285V11.4141H17.1805V11.4541H17.1445V11.4141H17.0965V11.4941C17.0965 11.5101 17.1045 11.5181 17.1165 11.5181H17.2885C17.2949 11.5181 17.301 11.5155 17.3055 11.511C17.31 11.5065 17.3125 11.5004 17.3125 11.4941V11.4141V11.4141Z" fill="#FFFF00" stroke="black" stroke-width="0.0444446"/>
<path d="M17.4336 11.477C17.4336 11.453 17.3976 11.453 17.3976 11.477V11.541H17.4336V11.477Z" fill="black"/>
<path d="M17.6445 11.5649C17.6445 11.5409 17.6125 11.5409 17.6125 11.5649V11.6129H17.6445V11.5649Z" fill="black"/>
<path d="M17.2227 11.5649C17.2227 11.5409 17.1907 11.5409 17.1907 11.5649V11.6129H17.2227V11.5649Z" fill="black"/>
<path d="M16.8578 13.9612C17.0111 13.8033 16.938 13.656 16.938 13.656C16.9352 13.6532 16.7771 13.5734 16.621 13.7284L16.8549 13.964" fill="#FFFF00"/>
<path d="M17.1435 13.8676L16.9844 14.065L16.866 13.9458C17.0136 13.7992 16.9236 13.6631 16.9236 13.6631C16.9207 13.6603 16.7796 13.5806 16.6377 13.7159L16.5193 13.5967L16.7235 13.439L17.1463 13.8647L17.1435 13.8676ZM16.99 14.0763L16.5109 13.5938C16.5024 13.5853 16.4854 13.5852 16.4741 13.5965C16.4599 13.6106 16.4598 13.6276 16.4683 13.6361L16.9474 14.1186C16.9559 14.1271 16.9729 14.1272 16.987 14.1131C16.9984 14.1018 16.9985 14.0848 16.9872 14.0735L16.99 14.0763Z" fill="#FFFF00" stroke="black" stroke-width="0.0444446"/>
<path d="M16.8187 13.8977C16.9123 13.8047 16.8731 13.7141 16.8731 13.7141C16.8731 13.7141 16.7798 13.677 16.689 13.7672L16.8187 13.8977ZM17.2376 13.8087L16.7782 13.346C16.7697 13.3375 16.7499 13.3403 16.7386 13.3516C16.73 13.36 16.73 13.377 16.7384 13.3855L17.1979 13.8481C17.2063 13.8567 17.2233 13.8567 17.2346 13.8454C17.2431 13.837 17.2432 13.82 17.2348 13.8115L17.2376 13.8087ZM17.1837 13.8396L16.7497 13.4025C16.7412 13.394 16.7243 13.3939 16.7129 13.4052C16.7016 13.4165 16.7015 13.4335 16.71 13.442L17.1468 13.8819C17.1581 13.8933 17.1723 13.8905 17.1836 13.8792C17.195 13.8679 17.1978 13.8538 17.1866 13.8424L17.1837 13.8396ZM17.3437 13.3989L17.3099 13.3649L17.2871 13.3874L17.2618 13.3619L17.2845 13.3393L17.2478 13.3024L17.2223 13.3278L17.1969 13.3022L17.2253 13.2741L17.1915 13.24L17.1347 13.2964C17.1234 13.3076 17.1233 13.319 17.1318 13.3275L17.2558 13.4524C17.2643 13.4609 17.2784 13.4638 17.2869 13.4553L17.3437 13.3989ZM17.1374 13.3445L16.9473 13.5163L17.0685 13.6384L17.2445 13.4467L17.1402 13.3416" fill="#FFFF00"/>
<path d="M17.1374 13.3445L16.9473 13.5163L17.0685 13.6384L17.2445 13.4467L17.1402 13.3416M16.8187 13.8977C16.9123 13.8047 16.8731 13.7141 16.8731 13.7141C16.8731 13.7141 16.7798 13.677 16.689 13.7672L16.8187 13.8977ZM17.2376 13.8087L16.7782 13.346C16.7697 13.3375 16.7499 13.3403 16.7386 13.3516C16.73 13.36 16.73 13.377 16.7384 13.3855L17.1979 13.8481C17.2063 13.8567 17.2233 13.8567 17.2346 13.8454C17.2431 13.837 17.2432 13.82 17.2348 13.8115L17.2376 13.8087ZM17.1837 13.8396L16.7497 13.4025C16.7412 13.394 16.7243 13.3939 16.7129 13.4052C16.7016 13.4165 16.7015 13.4335 16.71 13.442L17.1468 13.8819C17.1581 13.8933 17.1723 13.8905 17.1836 13.8792C17.195 13.8679 17.1978 13.8538 17.1866 13.8424L17.1837 13.8396ZM17.3437 13.3989L17.3099 13.3649L17.2871 13.3874L17.2618 13.3619L17.2845 13.3393L17.2478 13.3024L17.2223 13.3278L17.1969 13.3022L17.2253 13.2741L17.1915 13.24L17.1347 13.2964C17.1234 13.3076 17.1233 13.319 17.1318 13.3275L17.2558 13.4524C17.2643 13.4609 17.2784 13.4638 17.2869 13.4553L17.3437 13.3989Z" stroke="black" stroke-width="0.0444446"/>
<path d="M17.1998 13.5779L17.1033 13.6737L17.216 13.7872L17.3125 13.6914L17.1998 13.5779Z" fill="#FFFF00" stroke="black" stroke-width="0.0444446"/>
<path d="M16.899 13.2771L16.8025 13.3729L16.9152 13.4865L17.0117 13.3906L16.899 13.2771Z" fill="#FFFF00" stroke="black" stroke-width="0.0444446"/>
<path d="M17.4062 13.6367L17.3724 13.6027L17.344 13.6308L17.3187 13.6053L17.3471 13.5771L17.3132 13.5431L17.2849 13.5712L17.2595 13.5457L17.2879 13.5175L17.254 13.4835L17.1973 13.5398C17.1859 13.5511 17.1859 13.5624 17.1943 13.5709L17.3155 13.693C17.32 13.6975 17.3261 13.7 17.3325 13.7001C17.3389 13.7001 17.345 13.6976 17.3495 13.6931L17.4062 13.6367V13.6367Z" fill="#FFFF00" stroke="black" stroke-width="0.0444446"/>
<path d="M17.1055 13.3359L17.0716 13.3019L17.0433 13.3301L17.0179 13.3045L17.0463 13.2763L17.0125 13.2423L16.9841 13.2705L16.9587 13.2449L16.9871 13.2167L16.9533 13.1827L16.8965 13.239C16.8851 13.2503 16.8851 13.2616 16.8936 13.2701L17.0148 13.3922C17.0192 13.3967 17.0253 13.3993 17.0317 13.3993C17.0381 13.3993 17.0442 13.3968 17.0487 13.3923L17.1055 13.3359V13.3359Z" fill="#FFFF00" stroke="black" stroke-width="0.0444446"/>
<path d="M17.1474 13.4658C17.1644 13.4489 17.139 13.4234 17.122 13.4403L17.0766 13.4854L17.102 13.5109L17.1474 13.4658Z" fill="black"/>
<path d="M17.2333 13.6787C17.2504 13.6618 17.2278 13.6391 17.2108 13.656L17.1767 13.6898L17.1993 13.7125L17.2333 13.6787Z" fill="black"/>
<path d="M16.9325 13.3779C16.9496 13.361 16.927 13.3383 16.91 13.3552L16.8759 13.389L16.8985 13.4117L16.9325 13.3779Z" fill="black"/>
<path d="M15.3008 12.098C15.3001 12.1824 15.3315 12.264 15.3888 12.326C15.4155 12.3559 15.4482 12.3799 15.4847 12.3964C15.5212 12.4129 15.5607 12.4216 15.6008 12.422C15.6848 12.422 15.7608 12.382 15.8128 12.326C15.8701 12.264 15.9015 12.1824 15.9008 12.098V11.666H15.3008V12.098Z" fill="#003399"/>
<path d="M15.4389 11.8895C15.472 11.8895 15.4989 11.8627 15.4989 11.8295C15.4989 11.7964 15.472 11.7695 15.4389 11.7695C15.4058 11.7695 15.3789 11.7964 15.3789 11.8295C15.3789 11.8627 15.4058 11.8895 15.4389 11.8895Z" fill="white"/>
<path d="M15.7709 11.8895C15.8041 11.8895 15.8309 11.8627 15.8309 11.8295C15.8309 11.7964 15.8041 11.7695 15.7709 11.7695C15.7378 11.7695 15.7109 11.7964 15.7109 11.8295C15.7109 11.8627 15.7378 11.8895 15.7709 11.8895Z" fill="white"/>
<path d="M15.603 12.0497C15.6361 12.0497 15.663 12.0228 15.663 11.9897C15.663 11.9566 15.6361 11.9297 15.603 11.9297C15.5698 11.9297 15.543 11.9566 15.543 11.9897C15.543 12.0228 15.5698 12.0497 15.603 12.0497Z" fill="white"/>
<path d="M15.4389 12.2177C15.472 12.2177 15.4989 12.1908 15.4989 12.1577C15.4989 12.1245 15.472 12.0977 15.4389 12.0977C15.4058 12.0977 15.3789 12.1245 15.3789 12.1577C15.3789 12.1908 15.4058 12.2177 15.4389 12.2177Z" fill="white"/>
<path d="M15.7709 12.2177C15.8041 12.2177 15.8309 12.1908 15.8309 12.1577C15.8309 12.1245 15.8041 12.0977 15.7709 12.0977C15.7378 12.0977 15.7109 12.1245 15.7109 12.1577C15.7109 12.1908 15.7378 12.2177 15.7709 12.2177Z" fill="white"/>
<path d="M15.3008 11.057C15.3001 11.1414 15.3315 11.223 15.3888 11.285C15.4155 11.3149 15.4482 11.3388 15.4847 11.3554C15.5212 11.3719 15.5607 11.3806 15.6008 11.381C15.6848 11.381 15.7608 11.341 15.8128 11.285C15.8701 11.223 15.9015 11.1414 15.9008 11.057V10.625H15.3008V11.057Z" fill="#003399"/>
<path d="M15.4389 10.8485C15.472 10.8485 15.4989 10.8217 15.4989 10.7885C15.4989 10.7554 15.472 10.7285 15.4389 10.7285C15.4058 10.7285 15.3789 10.7554 15.3789 10.7885C15.3789 10.8217 15.4058 10.8485 15.4389 10.8485Z" fill="white"/>
<path d="M15.7709 10.8485C15.8041 10.8485 15.8309 10.8217 15.8309 10.7885C15.8309 10.7554 15.8041 10.7285 15.7709 10.7285C15.7378 10.7285 15.7109 10.7554 15.7109 10.7885C15.7109 10.8217 15.7378 10.8485 15.7709 10.8485Z" fill="white"/>
<path d="M15.603 11.0087C15.6361 11.0087 15.663 10.9818 15.663 10.9487C15.663 10.9155 15.6361 10.8887 15.603 10.8887C15.5698 10.8887 15.543 10.9155 15.543 10.9487C15.543 10.9818 15.5698 11.0087 15.603 11.0087Z" fill="white"/>
<path d="M15.4389 11.1766C15.472 11.1766 15.4989 11.1498 15.4989 11.1166C15.4989 11.0835 15.472 11.0566 15.4389 11.0566C15.4058 11.0566 15.3789 11.0835 15.3789 11.1166C15.3789 11.1498 15.4058 11.1766 15.4389 11.1766Z" fill="white"/>
<path d="M15.7709 11.1766C15.8041 11.1766 15.8309 11.1498 15.8309 11.1166C15.8309 11.0835 15.8041 11.0566 15.7709 11.0566C15.7378 11.0566 15.7109 11.0835 15.7109 11.1166C15.7109 11.1498 15.7378 11.1766 15.7709 11.1766Z" fill="white"/>
<path d="M14.4688 12.098C14.468 12.1824 14.4995 12.264 14.5568 12.326C14.5835 12.3559 14.6161 12.3799 14.6526 12.3964C14.6891 12.4129 14.7287 12.4216 14.7688 12.422C14.8528 12.422 14.9288 12.382 14.9808 12.326C15.038 12.264 15.0695 12.1824 15.0688 12.098V11.666H14.4688V12.098Z" fill="#003399"/>
<path d="M14.6069 11.8895C14.64 11.8895 14.6669 11.8627 14.6669 11.8295C14.6669 11.7964 14.64 11.7695 14.6069 11.7695C14.5737 11.7695 14.5469 11.7964 14.5469 11.8295C14.5469 11.8627 14.5737 11.8895 14.6069 11.8895Z" fill="white"/>
<path d="M14.9389 11.8895C14.972 11.8895 14.9989 11.8627 14.9989 11.8295C14.9989 11.7964 14.972 11.7695 14.9389 11.7695C14.9058 11.7695 14.8789 11.7964 14.8789 11.8295C14.8789 11.8627 14.9058 11.8895 14.9389 11.8895Z" fill="white"/>
<path d="M14.7709 12.0497C14.8041 12.0497 14.8309 12.0228 14.8309 11.9897C14.8309 11.9566 14.8041 11.9297 14.7709 11.9297C14.7378 11.9297 14.7109 11.9566 14.7109 11.9897C14.7109 12.0228 14.7378 12.0497 14.7709 12.0497Z" fill="white"/>
<path d="M14.6069 12.2177C14.64 12.2177 14.6669 12.1908 14.6669 12.1577C14.6669 12.1245 14.64 12.0977 14.6069 12.0977C14.5737 12.0977 14.5469 12.1245 14.5469 12.1577C14.5469 12.1908 14.5737 12.2177 14.6069 12.2177Z" fill="white"/>
<path d="M14.9389 12.2177C14.972 12.2177 14.9989 12.1908 14.9989 12.1577C14.9989 12.1245 14.972 12.0977 14.9389 12.0977C14.9058 12.0977 14.8789 12.1245 14.8789 12.1577C14.8789 12.1908 14.9058 12.2177 14.9389 12.2177Z" fill="white"/>
<path d="M16.1328 12.098C16.1321 12.1824 16.1636 12.264 16.2208 12.326C16.2475 12.3559 16.2802 12.3799 16.3167 12.3964C16.3532 12.4129 16.3928 12.4216 16.4328 12.422C16.5168 12.422 16.5928 12.382 16.6448 12.326C16.7021 12.264 16.7336 12.1824 16.7328 12.098V11.666H16.1328V12.098Z" fill="#003399"/>
<path d="M16.2709 11.8895C16.3041 11.8895 16.3309 11.8627 16.3309 11.8295C16.3309 11.7964 16.3041 11.7695 16.2709 11.7695C16.2378 11.7695 16.2109 11.7964 16.2109 11.8295C16.2109 11.8627 16.2378 11.8895 16.2709 11.8895Z" fill="white"/>
<path d="M16.603 11.8895C16.6361 11.8895 16.663 11.8627 16.663 11.8295C16.663 11.7964 16.6361 11.7695 16.603 11.7695C16.5698 11.7695 16.543 11.7964 16.543 11.8295C16.543 11.8627 16.5698 11.8895 16.603 11.8895Z" fill="white"/>
<path d="M16.435 12.0497C16.4681 12.0497 16.495 12.0228 16.495 11.9897C16.495 11.9566 16.4681 11.9297 16.435 11.9297C16.4019 11.9297 16.375 11.9566 16.375 11.9897C16.375 12.0228 16.4019 12.0497 16.435 12.0497Z" fill="white"/>
<path d="M16.2709 12.2177C16.3041 12.2177 16.3309 12.1908 16.3309 12.1577C16.3309 12.1245 16.3041 12.0977 16.2709 12.0977C16.2378 12.0977 16.2109 12.1245 16.2109 12.1577C16.2109 12.1908 16.2378 12.2177 16.2709 12.2177Z" fill="white"/>
<path d="M16.603 12.2177C16.6361 12.2177 16.663 12.1908 16.663 12.1577C16.663 12.1245 16.6361 12.0977 16.603 12.0977C16.5698 12.0977 16.543 12.1245 16.543 12.1577C16.543 12.1908 16.5698 12.2177 16.603 12.2177Z" fill="white"/>
<path d="M15.3008 13.1293C15.3001 13.2137 15.3315 13.2952 15.3888 13.3573C15.4155 13.3871 15.4482 13.4111 15.4847 13.4276C15.5212 13.4442 15.5607 13.4529 15.6008 13.4533C15.6848 13.4533 15.7608 13.4133 15.8128 13.3573C15.8701 13.2952 15.9015 13.2137 15.9008 13.1293V12.6973H15.3008V13.1293Z" fill="#003399"/>
<path d="M15.4389 12.9208C15.472 12.9208 15.4989 12.8939 15.4989 12.8608C15.4989 12.8276 15.472 12.8008 15.4389 12.8008C15.4058 12.8008 15.3789 12.8276 15.3789 12.8608C15.3789 12.8939 15.4058 12.9208 15.4389 12.9208Z" fill="white"/>
<path d="M15.7709 12.9208C15.8041 12.9208 15.8309 12.8939 15.8309 12.8608C15.8309 12.8276 15.8041 12.8008 15.7709 12.8008C15.7378 12.8008 15.7109 12.8276 15.7109 12.8608C15.7109 12.8939 15.7378 12.9208 15.7709 12.9208Z" fill="white"/>
<path d="M15.603 13.0809C15.6361 13.0809 15.663 13.0541 15.663 13.0209C15.663 12.9878 15.6361 12.9609 15.603 12.9609C15.5698 12.9609 15.543 12.9878 15.543 13.0209C15.543 13.0541 15.5698 13.0809 15.603 13.0809Z" fill="white"/>
<path d="M15.4389 13.2489C15.472 13.2489 15.4989 13.222 15.4989 13.1889C15.4989 13.1558 15.472 13.1289 15.4389 13.1289C15.4058 13.1289 15.3789 13.1558 15.3789 13.1889C15.3789 13.222 15.4058 13.2489 15.4389 13.2489Z" fill="white"/>
<path d="M15.7709 13.2489C15.8041 13.2489 15.8309 13.222 15.8309 13.1889C15.8309 13.1558 15.8041 13.1289 15.7709 13.1289C15.7378 13.1289 15.7109 13.1558 15.7109 13.1889C15.7109 13.222 15.7378 13.2489 15.7709 13.2489Z" fill="white"/>
</g>
</g>
<defs>
<filter id="filter0_d_336_29920" x="0" y="-2" width="36" height="36" filterUnits="userSpaceOnUse" color-interpolation-filters="sRGB">
<feFlood flood-opacity="0" result="BackgroundImageFix"/>
<feColorMatrix in="SourceAlpha" type="matrix" values="0 0 0 0 0 0 0 0 0 0 0 0 0 0 0 0 0 0 127 0" result="hardAlpha"/>
<feOffset dy="4"/>
<feGaussianBlur stdDeviation="3"/>
<feComposite in2="hardAlpha" operator="out"/>
<feColorMatrix type="matrix" values="0 0 0 0 0 0 0 0 0 0 0 0 0 0 0 0 0 0 0.16 0"/>
<feBlend mode="normal" in2="BackgroundImageFix" result="effect1_dropShadow_336_29920"/>
<feBlend mode="normal" in="SourceGraphic" in2="effect1_dropShadow_336_29920" result="shape"/>
</filter>
<clipPath id="clip0_336_29920">
<rect width="24" height="18" fill="white" transform="translate(6 3)"/>
</clipPath>
</defs>
</svg>
