<svg width="36" height="31" viewBox="0 0 36 31" fill="none" xmlns="http://www.w3.org/2000/svg">
<g filter="url(#filter0_d_336_26135)">
<g clip-path="url(#clip0_336_26135)">
<path d="M6 15H30V21H6V15Z" fill="black"/>
<path d="M6 9H30V15H6V9Z" fill="white"/>
<path d="M6 3H30V9H6V3Z" fill="#CE1126"/>
<path d="M18.0249 12.0727L20.0799 13.9807L19.9329 10.5157C19.9119 9.99065 19.4559 10.1107 19.1229 10.2997C18.7899 10.5157 18.4029 10.5157 18.0009 10.3747C17.5959 10.5157 17.2119 10.5157 16.8789 10.2997C16.5489 10.1107 16.0899 9.99065 16.0689 10.5157L15.9219 13.9807L18.0249 12.0727V12.0727Z" fill="white" stroke="#C09300" stroke-width="0.086125" stroke-linejoin="round"/>
<path d="M16.3059 10.3945L16.1619 13.7635L15.9219 13.9795L16.0689 10.5145C16.1397 10.4602 16.2201 10.4195 16.3059 10.3945V10.3945ZM16.5939 10.6345L16.4739 13.4545L16.2339 13.7005L16.3779 10.4455C16.4259 10.4935 16.5669 10.6105 16.5939 10.6345ZM16.8549 10.8505L16.7619 13.2025L16.5669 13.3915L16.6869 10.7095C16.7349 10.7545 16.8309 10.8235 16.8549 10.8505ZM17.1399 10.9705L17.0469 12.9745L16.8579 13.1275L16.9509 10.8985C16.9989 10.9195 17.0919 10.9705 17.1399 10.9705ZM17.4039 10.9705L17.3349 12.6415L17.1399 12.8305L17.2149 10.9915C17.2599 10.9915 17.3829 10.9915 17.4039 10.9705Z" fill="#C09300"/>
<path d="M19.6941 10.3945L19.8381 13.7635L20.0781 13.9795L19.9311 10.5145C19.8603 10.4602 19.7799 10.4195 19.6941 10.3945V10.3945ZM19.4061 10.6345L19.5261 13.4545L19.7661 13.7005L19.6221 10.4455C19.5741 10.4935 19.4331 10.6105 19.4061 10.6345ZM19.1451 10.8505L19.2381 13.2025L19.4331 13.3915L19.3131 10.7095C19.2651 10.7545 19.1691 10.8235 19.1451 10.8505ZM18.8601 10.9705L18.9531 12.9745L19.1421 13.1275L19.0491 10.8985C19.0011 10.9195 18.9081 10.9705 18.8601 10.9705ZM18.5961 10.9705L18.6651 12.6415L18.8601 12.8305L18.7851 10.9915C18.7401 10.9915 18.6171 10.9915 18.5961 10.9705Z" fill="#C09300"/>
<path d="M18.0972 12.4492L18.3852 13.7632L18.2892 13.8592L18.1902 13.7842L18.0282 12.6142L18.0972 13.7842L18.0012 13.9042L17.9082 13.7842L17.9772 12.6142L17.8122 13.7842L17.7132 13.8592L17.6172 13.7632L17.9052 12.4522H18.0972V12.4492Z" fill="#C09300" stroke="#C09300" stroke-width="0.072875"/>
<path d="M17.3543 11.875L16.7812 13.906L17.5703 14.026L17.9032 12.499L17.3543 11.875Z" fill="white" stroke="#C09300" stroke-width="0.0795" stroke-linejoin="round"/>
<path d="M17.1641 12.5718L17.2331 12.7368L17.6051 12.3828" stroke="#C09300" stroke-width="0.086125" stroke-linejoin="round"/>
<path d="M17.4233 12.1504L17.5013 12.8794L17.7383 12.5674M17.6423 12.6874L17.7713 13.1374M17.8223 12.9724L17.5613 13.3684M17.6423 13.7644L17.5583 13.3684L17.4863 12.9664L17.3093 13.2034L17.2343 12.9304L16.9883 13.1824L17.1113 13.6384L17.2853 13.3564L17.3783 13.6444L17.5583 13.3684" stroke="#C09300" stroke-width="0.086125" stroke-linejoin="round"/>
<path d="M16.9492 13.8617L17.1082 13.6367L17.2102 13.9817L17.3542 13.7417L17.4472 14.0297" stroke="#C09300" stroke-width="0.086125" stroke-linejoin="round"/>
<path d="M18.6457 11.875L19.2188 13.906L18.4297 14.026L18.0968 12.499L18.6457 11.875Z" fill="white" stroke="#C09300" stroke-width="0.0795" stroke-linejoin="round"/>
<path d="M18.8359 12.5718L18.7669 12.7368L18.3949 12.3828" stroke="#C09300" stroke-width="0.086125" stroke-linejoin="round"/>
<path d="M18.5767 12.1504L18.4987 12.8794L18.2617 12.5674M18.3577 12.6874L18.2287 13.1374M18.1777 12.9724L18.4387 13.3684M18.3577 13.7644L18.4417 13.3684L18.5137 12.9664L18.6907 13.2034L18.7657 12.9304L19.0117 13.1824L18.8887 13.6384L18.7147 13.3564L18.6217 13.6444L18.4417 13.3684" stroke="#C09300" stroke-width="0.086125" stroke-linejoin="round"/>
<path d="M19.0508 13.8617L18.8918 13.6367L18.7898 13.9817L18.6458 13.7417L18.5528 14.0297" stroke="#C09300" stroke-width="0.086125" stroke-linejoin="round"/>
<path d="M18.0025 14.8146C18.6025 14.8146 19.1725 14.7666 19.5085 14.6736C19.6495 14.6466 19.6495 14.5746 19.6495 14.4786C19.7935 14.4306 19.7215 14.2626 19.8205 14.2626C19.7185 14.2926 19.7005 14.0976 19.5805 14.1216C19.5805 13.9536 19.4095 13.9326 19.2685 13.9806C18.9835 14.0736 18.4795 14.0976 18.0025 14.0976C17.5225 14.0736 17.0245 14.0736 16.7365 13.9776C16.5955 13.9326 16.4275 13.9536 16.4275 14.1216C16.3075 14.0976 16.2865 14.2896 16.1875 14.2626C16.2865 14.2626 16.2115 14.4336 16.3555 14.4786C16.3555 14.5746 16.3555 14.6466 16.4995 14.6736C16.8295 14.7666 17.4055 14.8146 18.0025 14.8146V14.8146Z" fill="white" stroke="#C09300" stroke-width="0.159" stroke-linecap="round" stroke-linejoin="round"/>
<path d="M17.1883 13.9048C17.3803 13.9318 17.5963 13.9528 17.7643 13.9318C17.8603 13.9318 17.9293 14.0968 17.7373 14.1208C17.5723 14.1418 17.3083 14.1208 17.1673 14.0968C16.9817 14.0643 16.7976 14.0243 16.6153 13.9768C16.4473 13.9048 16.5673 13.7668 16.6633 13.7848C16.8345 13.8397 17.0102 13.8798 17.1883 13.9048V13.9048ZM18.8143 13.9048C18.6223 13.9318 18.4063 13.9528 18.2443 13.9318C18.1423 13.9318 18.0733 14.0968 18.2653 14.1208C18.4333 14.1418 18.6943 14.1208 18.8353 14.0968C18.9553 14.0728 19.2193 14.0278 19.3873 13.9768C19.5553 13.9048 19.4353 13.7668 19.3393 13.7848C19.168 13.8397 18.9924 13.8798 18.8143 13.9048V13.9048Z" fill="white" stroke="#C09300" stroke-width="0.086125" stroke-linecap="round" stroke-linejoin="round"/>
<path d="M16.593 13.8115C16.449 13.7845 16.383 13.9525 16.428 14.0485C16.449 14.0005 16.548 14.0005 16.569 13.9525C16.596 13.8805 16.548 13.8805 16.596 13.8115H16.593ZM17.169 14.2525C17.169 14.1565 17.262 14.1685 17.262 14.0725C17.262 14.0275 17.238 13.9525 17.19 13.9525C17.165 13.9539 17.1414 13.9645 17.1237 13.9822C17.106 13.9999 17.0955 14.0235 17.094 14.0485C17.073 14.1415 17.169 14.1565 17.169 14.2525V14.2525ZM17.85 13.9795C17.991 13.9795 17.976 14.1685 17.91 14.2645C17.91 14.1955 17.79 14.1685 17.79 14.1205C17.79 14.0485 17.898 14.0485 17.85 13.9795ZM19.41 13.8115C19.557 13.7845 19.626 13.9525 19.578 14.0485C19.557 14.0005 19.458 14.0005 19.437 13.9525C19.41 13.8805 19.458 13.8805 19.41 13.8115V13.8115ZM18.843 14.2495C18.843 14.1535 18.747 14.1655 18.747 14.0695C18.747 14.0245 18.771 13.9495 18.819 13.9495C18.844 13.9509 18.8676 13.9615 18.8853 13.9792C18.903 13.9969 18.9136 14.0205 18.915 14.0455C18.936 14.1385 18.84 14.1535 18.84 14.2495H18.843ZM18.153 13.9795C18.012 13.9795 18.027 14.1685 18.093 14.2645C18.093 14.1955 18.213 14.1685 18.213 14.1205C18.213 14.0485 18.105 14.0485 18.153 13.9795Z" fill="white" stroke="#C09300" stroke-width="0.086125" stroke-linecap="round" stroke-linejoin="round"/>
<path d="M16.6445 13.8594C16.6925 13.8594 16.7645 13.8804 16.7855 13.9074L16.6445 13.8594ZM16.8815 13.9314C16.9055 13.9314 17.0015 13.9524 17.0465 13.9794L16.8815 13.9314ZM17.7395 14.0274C17.6945 14.0274 17.5985 14.0274 17.5745 14.0484L17.7395 14.0244V14.0274ZM17.4785 14.0274C17.4515 14.0004 17.3585 14.0004 17.3105 14.0274H17.4785ZM19.3625 13.8594C19.3116 13.86 19.2623 13.8768 19.2215 13.9074L19.3625 13.8594ZM19.1285 13.9314C19.0985 13.9314 19.0085 13.9524 18.9605 13.9794L19.1285 13.9314ZM18.2675 14.0274C18.3125 14.0274 18.4085 14.0274 18.4355 14.0484L18.2675 14.0244V14.0274ZM18.5285 14.0274C18.5555 14.0004 18.6485 14.0004 18.6965 14.0274H18.5285Z" fill="white" stroke="#C09300" stroke-width="0.059625" stroke-linecap="round" stroke-linejoin="round"/>
<path d="M16.6019 14.2375C16.5869 14.2345 16.5779 14.2195 16.5839 14.2075C16.5869 14.1865 16.6019 14.1775 16.6139 14.1835C16.6259 14.1835 16.6409 14.2015 16.6409 14.2075L16.6289 14.2285L16.6229 14.2315C16.6229 14.2375 16.6109 14.2375 16.6019 14.2375ZM18.2519 14.3545C18.2459 14.3545 18.2339 14.3395 18.2339 14.3335C18.2339 14.3215 18.2519 14.3035 18.2639 14.3035L18.2879 14.3155C18.2969 14.3245 18.2969 14.3425 18.2849 14.3515C18.2789 14.3575 18.2609 14.3575 18.2519 14.3515V14.3545ZM18.2609 14.4295C18.2489 14.4235 18.2459 14.4175 18.2429 14.4055C18.2429 14.3905 18.2429 14.3875 18.2579 14.3785L18.2699 14.3725L18.2819 14.3785C18.2939 14.3845 18.3029 14.3905 18.3029 14.4025C18.3029 14.4115 18.2939 14.4205 18.2819 14.4265C18.2729 14.4325 18.2699 14.4325 18.2609 14.4265V14.4295Z" fill="#C09300"/>
<path d="M16.7371 14.0996C16.7251 14.0996 16.7101 14.1116 16.7011 14.1176C16.6831 14.1206 16.6591 14.1326 16.6411 14.1176C16.6231 14.1146 16.5991 14.1176 16.5961 14.1416C16.5991 14.1626 16.6261 14.1716 16.6441 14.1596C16.6561 14.1446 16.6891 14.1326 16.6951 14.1596C16.6801 14.1836 16.6831 14.2106 16.6711 14.2316C16.6711 14.2466 16.6621 14.2586 16.6561 14.2706C16.6411 14.2706 16.6261 14.2706 16.6141 14.2796C16.6047 14.2796 16.5956 14.2818 16.5872 14.2859C16.5789 14.2901 16.5717 14.2962 16.5661 14.3036C16.5541 14.3216 16.5421 14.3396 16.5391 14.3636C16.5421 14.3816 16.5691 14.3876 16.5871 14.3906L16.6471 14.4086L16.7431 14.4356C16.7911 14.4506 16.8391 14.4566 16.8871 14.4686L16.9021 14.4716C16.9231 14.4776 16.9321 14.4566 16.9321 14.4416L16.9621 14.3336C16.9681 14.3186 16.9771 14.2886 16.9501 14.2946C16.9351 14.3036 16.9201 14.3186 16.9021 14.3186C16.8751 14.3186 16.8901 14.3486 16.9021 14.3576C16.9021 14.3756 16.8961 14.3966 16.8871 14.4116C16.8691 14.4206 16.8511 14.4116 16.8331 14.4056C16.8181 14.4056 16.7821 14.3966 16.7971 14.3756L16.8121 14.3216C16.8211 14.3036 16.8211 14.2826 16.8271 14.2616C16.8151 14.2406 16.7971 14.2706 16.7821 14.2736C16.7701 14.2796 16.7341 14.2826 16.7521 14.3036C16.7701 14.3156 16.7581 14.3366 16.7521 14.3546C16.7521 14.3756 16.7281 14.3846 16.7101 14.3756C16.6921 14.3756 16.6651 14.3606 16.6801 14.3426L16.6951 14.2886L16.7161 14.2286C16.7161 14.2076 16.7251 14.1926 16.7341 14.1746C16.7341 14.1536 16.7491 14.1356 16.7491 14.1146C16.7491 14.1056 16.7431 14.1026 16.7371 14.1026V14.0996ZM16.6261 14.3186C16.6274 14.3178 16.629 14.3174 16.6306 14.3174C16.6321 14.3174 16.6337 14.3178 16.6351 14.3186C16.6411 14.3246 16.6411 14.3306 16.6351 14.3366L16.6261 14.3426C16.6111 14.3426 16.6081 14.3396 16.6081 14.3336C16.6081 14.3306 16.6081 14.3276 16.6171 14.3246C16.6207 14.322 16.6248 14.32 16.6291 14.3186H16.6261ZM16.5961 14.4686C16.5811 14.4566 16.5841 14.4476 16.6051 14.4296C16.6171 14.4236 16.6201 14.4236 16.6321 14.4326C16.6501 14.4476 16.6501 14.4566 16.6321 14.4716C16.6261 14.4776 16.6231 14.4776 16.6171 14.4776C16.6081 14.4776 16.6051 14.4776 16.5961 14.4716V14.4686ZM16.6861 14.4986C16.6794 14.4965 16.6737 14.4919 16.6704 14.4858C16.667 14.4796 16.6662 14.4724 16.6681 14.4656C16.6741 14.4536 16.6771 14.4506 16.6951 14.4506C16.7161 14.4506 16.7191 14.4536 16.7221 14.4716C16.7221 14.4836 16.7221 14.4866 16.7131 14.4926C16.7097 14.4953 16.7058 14.4972 16.7017 14.4982C16.6976 14.4992 16.6933 14.4994 16.6891 14.4986H16.6861ZM19.3621 14.4986C19.3561 14.4956 19.3531 14.4926 19.3531 14.4836C19.3531 14.4716 19.3591 14.4626 19.3771 14.4566C19.3951 14.4476 19.4071 14.4476 19.4131 14.4626C19.4221 14.4806 19.4221 14.4866 19.4101 14.4986C19.4041 14.5076 19.4011 14.5076 19.3861 14.5076C19.3711 14.5076 19.3681 14.5076 19.3621 14.5016V14.4986ZM16.8121 14.5346C16.8001 14.5346 16.7941 14.5226 16.7941 14.5106C16.7941 14.5016 16.7941 14.4986 16.8001 14.4926L16.8181 14.4866L16.8361 14.4896C16.8511 14.5016 16.8541 14.5136 16.8451 14.5256C16.8361 14.5376 16.8271 14.5376 16.8091 14.5346H16.8121ZM17.4661 14.5646L17.4601 14.5556C17.4601 14.5376 17.4601 14.5226 17.4661 14.5046C17.4691 14.4896 17.4661 14.4746 17.4721 14.4596L17.4841 14.3756C17.4841 14.3606 17.4841 14.3456 17.4901 14.3336C17.4931 14.3096 17.4901 14.2886 17.4961 14.2676C17.4961 14.2586 17.5051 14.2376 17.5141 14.2496C17.5261 14.2676 17.5411 14.2796 17.5561 14.2946C17.5681 14.3036 17.5561 14.3156 17.5471 14.3186C17.5351 14.3216 17.5321 14.3366 17.5321 14.3486L17.5261 14.3846C17.5261 14.4056 17.5261 14.4236 17.5201 14.4446L17.5171 14.4986L17.5111 14.5346C17.5111 14.5466 17.5111 14.5616 17.4991 14.5676C17.4901 14.5736 17.4751 14.5736 17.4691 14.5646H17.4661ZM18.3571 14.2706L18.3181 14.3066C18.3001 14.3216 18.3331 14.3276 18.3361 14.3396C18.3421 14.3576 18.3421 14.3756 18.3421 14.3936C18.3481 14.4116 18.3511 14.4266 18.3481 14.4446C18.3481 14.4656 18.3241 14.4596 18.3121 14.4716C18.2971 14.4776 18.2911 14.4926 18.2821 14.5016C18.2749 14.5167 18.2709 14.533 18.2701 14.5496C18.2701 14.5646 18.2611 14.5796 18.2701 14.5916L18.2731 14.5976H18.2881L18.3331 14.5946C18.3691 14.5886 18.4081 14.5886 18.4441 14.5856L18.5101 14.5796C18.5281 14.5826 18.5371 14.5646 18.5371 14.5496C18.5251 14.5286 18.5341 14.5076 18.5251 14.4896C18.5191 14.4656 18.5221 14.4446 18.5191 14.4236C18.5191 14.4056 18.4981 14.3996 18.4891 14.4116C18.4771 14.4236 18.4591 14.4266 18.4531 14.4386C18.4441 14.4566 18.4711 14.4566 18.4771 14.4686L18.4801 14.5136C18.4831 14.5316 18.4651 14.5316 18.4501 14.5346C18.4351 14.5406 18.4141 14.5436 18.4051 14.5256C18.3991 14.5106 18.3991 14.4956 18.3991 14.4806C18.3991 14.4506 18.3901 14.4266 18.3901 14.3996C18.3901 14.3696 18.3811 14.3366 18.3811 14.3036C18.3811 14.2886 18.3781 14.2676 18.3571 14.2706V14.2706ZM18.3391 14.5166H18.3481V14.5406L18.3391 14.5436C18.3351 14.5449 18.3311 14.5459 18.3271 14.5466C18.3251 14.5467 18.3231 14.5467 18.3211 14.5466C18.3151 14.5406 18.3151 14.5316 18.3241 14.5226L18.3391 14.5166V14.5166ZM17.4391 14.2406C17.4301 14.2406 17.4151 14.2616 17.4031 14.2586C17.3761 14.2616 17.3791 14.2886 17.4001 14.2976V14.3216C17.4031 14.3456 17.3881 14.3666 17.3911 14.3906C17.3911 14.4146 17.3821 14.4416 17.3821 14.4686C17.3731 14.4956 17.3731 14.5226 17.3701 14.5496C17.3671 14.5736 17.3491 14.5646 17.3341 14.5586V14.5286C17.3371 14.5016 17.3191 14.4956 17.2981 14.4926C17.2771 14.4926 17.2681 14.4776 17.2741 14.4596C17.2831 14.4476 17.3041 14.4506 17.3191 14.4506C17.3491 14.4566 17.3461 14.4176 17.3311 14.4026C17.3191 14.3846 17.2951 14.3726 17.2891 14.3546C17.2891 14.3306 17.2741 14.3036 17.2531 14.2916C17.2201 14.2886 17.1931 14.3156 17.1841 14.3456C17.1691 14.3456 17.1541 14.3516 17.1421 14.3576C17.1211 14.3636 17.0911 14.3996 17.1211 14.4146C17.1361 14.4176 17.1871 14.4296 17.1631 14.4506C17.1511 14.4746 17.1271 14.4746 17.1061 14.4686C17.0851 14.4686 17.0611 14.4566 17.0611 14.4326C17.0581 14.4086 17.0581 14.3846 17.0491 14.3636C17.0431 14.3396 17.0161 14.3456 17.0131 14.3696C16.9921 14.3846 16.9951 14.4116 17.0101 14.4296C17.0191 14.4506 17.0101 14.4776 17.0011 14.4956C16.9951 14.5256 16.9651 14.5256 16.9441 14.5316C16.9351 14.5376 16.8961 14.5316 16.9111 14.5526C16.9336 14.563 16.9587 14.5661 16.9831 14.5616C17.0071 14.5616 17.0281 14.5406 17.0431 14.5196C17.0581 14.5046 17.0851 14.5136 17.1091 14.5136C17.1301 14.5136 17.1541 14.5286 17.1781 14.5166C17.1841 14.5016 17.2141 14.4716 17.2231 14.5016C17.2231 14.5286 17.2441 14.5406 17.2681 14.5376C17.2951 14.5376 17.2831 14.5556 17.2831 14.5736C17.2831 14.6006 17.3041 14.6156 17.3281 14.6276H17.3521C17.3731 14.6186 17.3971 14.6096 17.4061 14.5856C17.4151 14.5646 17.4151 14.5406 17.4211 14.5196C17.4271 14.4866 17.4331 14.4506 17.4331 14.4176C17.4421 14.3876 17.4391 14.3546 17.4451 14.3216L17.4541 14.2526C17.4541 14.2376 17.4481 14.2376 17.4391 14.2406V14.2406ZM17.2381 14.3636C17.2411 14.3636 17.2441 14.3696 17.2441 14.3786C17.2441 14.3906 17.2501 14.3996 17.2591 14.4026V14.4116L17.2351 14.4176C17.2201 14.4176 17.2081 14.4116 17.1991 14.4026L17.1931 14.3966L17.2021 14.3906L17.2171 14.3756C17.2261 14.3666 17.2321 14.3636 17.2381 14.3636V14.3636ZM19.2181 14.1266C19.2008 14.1278 19.1837 14.1309 19.1671 14.1356C19.1371 14.1356 19.1221 14.1656 19.1521 14.1836C19.1701 14.2286 19.1971 14.1716 19.2271 14.1776C19.2691 14.1836 19.2721 14.2316 19.2811 14.2676C19.2811 14.3006 19.2931 14.3336 19.3021 14.3666C19.3321 14.3996 19.2811 14.4206 19.2601 14.3966C19.2421 14.3756 19.2001 14.3516 19.1791 14.3786C19.1521 14.3906 19.1491 14.4266 19.1281 14.4386C19.0921 14.4476 19.0891 14.4026 19.0681 14.3846C19.0501 14.3576 19.0171 14.3546 18.9901 14.3486C18.9781 14.3216 18.9841 14.2766 18.9601 14.2586C18.9361 14.2676 18.8941 14.3096 18.9301 14.3306C18.9601 14.3606 18.9151 14.3726 18.9001 14.3906C18.8761 14.4176 18.8701 14.4506 18.8701 14.4806C18.8311 14.5016 18.8251 14.4566 18.8191 14.4296C18.8191 14.3966 18.7891 14.4056 18.7681 14.4176C18.7381 14.4296 18.7261 14.4566 18.7081 14.4776V14.5376C18.7141 14.5646 18.7441 14.5526 18.7621 14.5496C18.7921 14.5376 18.8041 14.5706 18.7801 14.5886C18.7621 14.6066 18.7141 14.5976 18.7201 14.6306H18.7681C18.7981 14.6216 18.8341 14.5976 18.8371 14.5616C18.8431 14.5316 18.8881 14.5346 18.9121 14.5286C18.9421 14.5196 18.9811 14.5166 18.9901 14.5586C19.0111 14.5796 19.0561 14.6036 19.0801 14.5736C19.0915 14.5664 19.1006 14.5561 19.1065 14.5439C19.1123 14.5316 19.1146 14.518 19.1131 14.5046C19.1101 14.4806 19.1521 14.4806 19.1641 14.4956C19.1791 14.5196 19.2271 14.5136 19.2511 14.4956C19.2751 14.4806 19.2811 14.4476 19.3171 14.4476L19.4791 14.4026C19.5211 14.3936 19.4731 14.3666 19.4611 14.3486C19.4311 14.3336 19.4011 14.3996 19.3651 14.3666C19.3351 14.3456 19.3381 14.3066 19.3291 14.2736C19.3201 14.2316 19.3231 14.1836 19.2931 14.1536C19.2751 14.1326 19.2451 14.1266 19.2181 14.1266V14.1266ZM19.0141 14.4116C19.0171 14.4116 19.0231 14.4116 19.0291 14.4176C19.0411 14.4236 19.0501 14.4356 19.0501 14.4476C19.0501 14.4536 19.0501 14.4536 19.0411 14.4566L19.0261 14.4626C19.0201 14.4626 19.0051 14.4536 19.0051 14.4476V14.4356C18.9991 14.4236 18.9991 14.4236 19.0051 14.4176L19.0141 14.4116ZM19.2091 14.4236C19.2211 14.4236 19.2271 14.4236 19.2331 14.4326C19.2361 14.4446 19.2331 14.4506 19.2211 14.4566L19.2061 14.4626L19.1941 14.4536C19.1881 14.4506 19.1851 14.4476 19.1851 14.4416C19.1851 14.4326 19.1971 14.4236 19.2091 14.4206V14.4236ZM18.9391 14.4236C18.9451 14.4236 18.9481 14.4236 18.9511 14.4296C18.9571 14.4356 18.9601 14.4386 18.9601 14.4476V14.4656C18.9601 14.4746 18.9601 14.4716 18.9421 14.4716C18.9241 14.4716 18.9211 14.4716 18.9211 14.4536C18.9211 14.4416 18.9211 14.4386 18.9301 14.4326C18.9331 14.4266 18.9391 14.4266 18.9421 14.4266L18.9391 14.4236ZM18.7771 14.4686C18.7799 14.4695 18.7825 14.471 18.7846 14.4731C18.7867 14.4752 18.7882 14.4778 18.7891 14.4806C18.7891 14.4896 18.7891 14.4956 18.7831 14.4986C18.7741 14.5016 18.7591 14.5046 18.7531 14.4986C18.753 14.4976 18.753 14.4966 18.7531 14.4956C18.7471 14.4926 18.7471 14.4896 18.7531 14.4866V14.4836L18.7591 14.4746C18.7609 14.4717 18.7637 14.4695 18.767 14.4684C18.7703 14.4673 18.7738 14.4674 18.7771 14.4686V14.4686ZM19.0531 14.5046L19.0681 14.5076V14.5256H19.0321L19.0291 14.5196C19.0291 14.5136 19.0291 14.5106 19.0351 14.5076L19.0531 14.5046V14.5046ZM18.5401 14.6486C18.5371 14.6486 18.5311 14.6456 18.5371 14.6426C18.5401 14.6336 18.5521 14.6306 18.5611 14.6246C18.5774 14.6184 18.5919 14.608 18.6031 14.5946C18.6031 14.5826 18.6151 14.5766 18.6151 14.5646L18.6121 14.5226C18.608 14.51 18.5995 14.4993 18.5881 14.4926C18.5791 14.4896 18.5671 14.4866 18.5641 14.4746C18.5641 14.4656 18.5731 14.4566 18.5761 14.4476L18.5941 14.4116C18.6031 14.4026 18.6151 14.4116 18.6181 14.4176L18.6331 14.4476C18.6421 14.4566 18.6481 14.4656 18.6511 14.4776C18.6571 14.4896 18.6631 14.4986 18.6631 14.5076L18.6691 14.5466C18.6691 14.5616 18.6691 14.5796 18.6631 14.5946L18.6451 14.6186C18.6361 14.6276 18.6271 14.6366 18.6151 14.6396C18.6061 14.6426 18.6001 14.6516 18.5881 14.6516H18.5431L18.5401 14.6486ZM18.3331 14.6606C18.3271 14.6546 18.3241 14.6516 18.3241 14.6426C18.3241 14.6336 18.3241 14.6336 18.3331 14.6246C18.3451 14.6126 18.3511 14.6126 18.3751 14.6246C18.3961 14.6366 18.4051 14.6366 18.4051 14.6276C18.4081 14.6216 18.4201 14.6126 18.4351 14.6126C18.4406 14.6128 18.4459 14.6149 18.4501 14.6186C18.4561 14.6246 18.4591 14.6276 18.4591 14.6396C18.4591 14.6546 18.4591 14.6546 18.4501 14.6636C18.4411 14.6696 18.4411 14.6696 18.4291 14.6696C18.4237 14.6693 18.4186 14.6675 18.4143 14.6642C18.4101 14.661 18.4068 14.6566 18.4051 14.6516C18.4051 14.6456 18.4051 14.6426 18.3991 14.6486L18.3931 14.6516C18.3871 14.6516 18.3751 14.6606 18.3691 14.6666L18.3541 14.6696C18.3421 14.6696 18.3421 14.6696 18.3331 14.6606V14.6606ZM17.7391 14.3936C17.7181 14.3936 17.6971 14.4116 17.6941 14.4326C17.7001 14.4536 17.7181 14.4776 17.7061 14.4986C17.7151 14.5286 17.6821 14.5406 17.6611 14.5256C17.6491 14.4956 17.6431 14.4656 17.6221 14.4356C17.5981 14.4296 17.5891 14.4686 17.5711 14.4836C17.5801 14.5046 17.6041 14.5256 17.6071 14.5526C17.6131 14.5826 17.5951 14.6126 17.5741 14.6246C17.5531 14.6456 17.5231 14.6396 17.4991 14.6426C17.4691 14.6606 17.5201 14.6666 17.5351 14.6666C17.5651 14.6696 17.5981 14.6666 17.6251 14.6426C17.6461 14.6336 17.6431 14.5916 17.6701 14.5886L17.8141 14.5976C17.8381 14.6036 17.8771 14.5946 17.8951 14.6126C17.8951 14.6426 17.9251 14.6666 17.9521 14.6786C17.9671 14.6846 17.9821 14.6636 17.9971 14.6606C18.0271 14.6516 18.0181 14.6156 18.0361 14.6006H18.1861C18.1921 14.6006 18.1951 14.5856 18.2041 14.5796L18.1981 14.5226C18.1891 14.4986 18.1981 14.4686 18.1831 14.4476C18.1561 14.4416 18.1351 14.4626 18.1111 14.4656C18.0811 14.4776 18.0601 14.5046 18.0571 14.5346C18.0421 14.5616 18.0151 14.5286 18.0271 14.5046L18.0241 14.4746C18.0091 14.4596 17.9821 14.4656 17.9611 14.4626L17.8711 14.4566C17.8411 14.4566 17.8141 14.4596 17.7901 14.4536C17.7601 14.4536 17.7601 14.4236 17.7601 14.3996C17.7541 14.395 17.7466 14.3929 17.7391 14.3936V14.3936ZM17.7991 14.5046L17.8291 14.5076H17.8681C17.8981 14.5136 17.9281 14.5136 17.9581 14.5136C17.9641 14.5136 17.9701 14.5196 17.9761 14.5256V14.5856C17.9761 14.5946 17.9761 14.6066 17.9701 14.6096C17.9685 14.612 17.9664 14.614 17.9641 14.6156C17.9597 14.6148 17.9555 14.6131 17.9519 14.6105C17.9482 14.6079 17.9452 14.6045 17.9431 14.6006V14.5586C17.9371 14.5536 17.9298 14.5504 17.9221 14.5496L17.8441 14.5466L17.7841 14.5436C17.7751 14.5406 17.7631 14.5436 17.7571 14.5316C17.7511 14.5256 17.7601 14.5136 17.7691 14.5106C17.7785 14.5064 17.7887 14.5043 17.7991 14.5046V14.5046ZM18.1381 14.5136C18.1411 14.5136 18.1441 14.5136 18.1441 14.5226L18.1501 14.5376C18.1501 14.5406 18.1501 14.5436 18.1441 14.5436C18.1291 14.5496 18.1141 14.5496 18.1081 14.5436C18.1081 14.5406 18.1081 14.5286 18.1141 14.5256L18.1381 14.5136Z" fill="#C09300"/>
<path d="M18.0014 12.8162C18.9794 12.0662 18.8954 10.9622 18.8954 10.9622L18.8204 10.9682C18.6134 10.9682 18.1244 10.8482 18.0104 10.7012C17.8904 10.8362 17.3864 10.9712 17.1824 10.9712L17.1074 10.9622C17.1074 10.9622 17.0204 12.0632 18.0014 12.8162Z" fill="white" stroke="#C09300" stroke-width="0.072875"/>
<path d="M18.8156 11.0397H18.7916C18.6056 11.0397 18.1736 10.9467 18.0056 10.8027C17.8316 10.9347 17.3906 11.0427 17.2076 11.0427C17.1995 11.0424 17.1915 11.0414 17.1836 11.0397C17.1852 11.2293 17.2115 11.4179 17.2616 11.6007C17.3819 12.0413 17.6406 12.4314 17.9996 12.7137C18.3588 12.4304 18.6175 12.0392 18.7376 11.5977C18.7875 11.4159 18.8137 11.2283 18.8156 11.0397V11.0397Z" fill="white" stroke="#C09300" stroke-width="0.059625"/>
<path d="M17.6816 10.9503C17.5205 11.0027 17.3529 11.033 17.1836 11.0403L17.1866 11.1633C17.1968 11.3104 17.222 11.4562 17.2616 11.5983C17.3422 11.8933 17.4855 12.1675 17.6816 12.4023V10.9503ZM18.2996 10.9503V12.4263C18.5051 12.1861 18.6547 11.9033 18.7376 11.5983C18.7772 11.4562 18.8023 11.3104 18.8126 11.1633L18.8156 11.0433H18.7916C18.6776 11.0433 18.4796 11.0073 18.2996 10.9473V10.9503Z" fill="#C09300"/>
<path d="M18.3683 10.5901C18.3893 10.5931 18.3413 10.4851 18.3413 10.4851C18.3953 10.5391 18.5933 10.5541 18.5933 10.5541C18.4733 10.5001 18.3533 10.1011 18.3683 9.78008C18.3803 9.46208 18.3233 9.33608 18.2783 9.28808C18.2183 9.22808 18.0233 9.17408 17.8973 9.16808C17.8223 9.16508 17.8373 9.22208 17.8373 9.22208C17.7023 9.18908 17.5673 9.17408 17.5073 9.21608C17.4533 9.25208 17.4413 9.44108 17.4833 9.40808C17.5823 9.32708 17.6693 9.40208 17.7293 9.48908C17.7833 9.56408 17.7803 9.78008 17.7023 10.0351C17.6333 10.2279 17.5318 10.4074 17.4023 10.5661C17.5223 10.5661 17.6903 10.4611 17.6903 10.4611L17.6513 10.6261C17.7773 10.5661 17.8763 10.4731 17.8763 10.4731L17.9963 10.5991C18.0353 10.5451 18.1163 10.4731 18.1163 10.4731C18.1163 10.4731 18.2153 10.5781 18.3683 10.5931V10.5901Z" fill="white" stroke="#C09300" stroke-width="0.0795"/>
<path d="M17.8834 9.8275C17.8834 9.8275 17.8174 10.3195 17.6914 10.4575M17.9914 9.8125C17.9914 9.8125 17.9614 10.3135 17.8774 10.4725M18.0844 9.8335C18.0844 9.8335 18.0844 10.3795 18.1144 10.4725M18.2044 9.8605C18.2044 9.8605 18.2284 10.3195 18.3424 10.4845" stroke="#C09300" stroke-width="0.086125"/>
<path d="M17.7604 9.58892C17.7577 9.55413 17.7475 9.52035 17.7304 9.48992C17.6704 9.39992 17.5834 9.32792 17.4844 9.40892C17.4844 9.40892 17.5174 9.30392 17.5924 9.30092C17.6464 9.29792 17.7754 9.34292 17.8894 9.53492C17.8894 9.53492 17.8054 9.51692 17.7844 9.53492C17.7484 9.56492 17.7634 9.58892 17.7634 9.58892H17.7604Z" fill="#C09300" stroke="#C09300" stroke-width="0.019875"/>
<path d="M17.4727 9.27908C17.4817 9.24908 17.4937 9.22508 17.5117 9.21608C17.5717 9.17408 17.7037 9.18608 17.8387 9.22208C17.8387 9.22208 17.8267 9.16508 17.8987 9.16808C18.0247 9.17408 18.2167 9.22808 18.2767 9.28808C18.2959 9.30918 18.3111 9.33357 18.3217 9.36008C18.2917 9.31808 18.2077 9.32108 18.1867 9.32408C18.1567 9.32708 18.1357 9.32408 18.0937 9.33608C18.0727 9.34208 18.0427 9.34808 18.0247 9.36008C18.0127 9.37208 18.0007 9.40808 17.9827 9.40808C17.9527 9.40808 17.9527 9.40208 17.9437 9.39308C17.9347 9.37808 17.9287 9.36008 17.9167 9.36308C17.8867 9.36608 17.8327 9.34208 17.7667 9.28808C17.6977 9.23408 17.6707 9.22208 17.5867 9.22808C17.4967 9.23408 17.4727 9.28508 17.4727 9.28508V9.27908V9.27908Z" fill="#C09300" stroke="#C09300" stroke-width="0.019875"/>
<path d="M17.9616 9.35671C17.9813 9.35671 17.9973 9.34069 17.9973 9.32093C17.9973 9.30117 17.9813 9.28516 17.9616 9.28516C17.9418 9.28516 17.9258 9.30117 17.9258 9.32093C17.9258 9.34069 17.9418 9.35671 17.9616 9.35671Z" fill="white"/>
</g>
</g>
<defs>
<filter id="filter0_d_336_26135" x="0" y="-2" width="36" height="36" filterUnits="userSpaceOnUse" color-interpolation-filters="sRGB">
<feFlood flood-opacity="0" result="BackgroundImageFix"/>
<feColorMatrix in="SourceAlpha" type="matrix" values="0 0 0 0 0 0 0 0 0 0 0 0 0 0 0 0 0 0 127 0" result="hardAlpha"/>
<feOffset dy="4"/>
<feGaussianBlur stdDeviation="3"/>
<feComposite in2="hardAlpha" operator="out"/>
<feColorMatrix type="matrix" values="0 0 0 0 0 0 0 0 0 0 0 0 0 0 0 0 0 0 0.16 0"/>
<feBlend mode="normal" in2="BackgroundImageFix" result="effect1_dropShadow_336_26135"/>
<feBlend mode="normal" in="SourceGraphic" in2="effect1_dropShadow_336_26135" result="shape"/>
</filter>
<clipPath id="clip0_336_26135">
<rect width="24" height="18" fill="white" transform="translate(6 3)"/>
</clipPath>
</defs>
</svg>
