<svg width="36" height="31" viewBox="0 0 36 31" fill="none" xmlns="http://www.w3.org/2000/svg">
<g filter="url(#filter0_d_336_26579)">
<g clip-path="url(#clip0_336_26579)">
<path d="M6 3V21H30V3H6Z" fill="#68BFE5"/>
<path d="M21.7852 10.2441V15.3591C21.7852 17.0316 24.8077 18.0216 24.8077 18.0216C24.8077 18.0216 27.8264 17.0316 27.8264 15.3591V10.2441H21.7852Z" fill="white"/>
<path d="M24.3877 12.0449V14.3474H21.7852V15.1837H24.3877V17.8649L24.8077 18.0262L25.2239 17.8649V15.1874H27.8264V14.3474H25.2239V12.0449H24.3877Z" fill="#D21034"/>
<path d="M21.785 10.2441H27.8263V12.2241H21.7812L21.785 10.2441Z" fill="#D21034"/>
<path d="M22.2688 11.7204C22.456 11.7204 22.6078 11.5976 22.6078 11.4461C22.6078 11.2947 22.456 11.1719 22.2688 11.1719C22.0815 11.1719 21.9297 11.2947 21.9297 11.4461C21.9297 11.5976 22.0815 11.7204 22.2688 11.7204Z" fill="white" stroke="black" stroke-width="0.044047" stroke-miterlimit="3"/>
<path d="M22.2704 11.4565C22.437 11.4565 22.5721 11.3884 22.5721 11.3044C22.5721 11.2204 22.437 11.1523 22.2704 11.1523C22.1038 11.1523 21.9688 11.2204 21.9688 11.3044C21.9688 11.3884 22.1038 11.4565 22.2704 11.4565Z" fill="white" stroke="black" stroke-width="0.044047" stroke-miterlimit="3"/>
<path d="M22.2704 11.7632C22.437 11.7632 22.5721 11.6951 22.5721 11.6111C22.5721 11.5271 22.437 11.459 22.2704 11.459C22.1038 11.459 21.9688 11.5271 21.9688 11.6111C21.9688 11.6951 22.1038 11.7632 22.2704 11.7632Z" fill="white" stroke="black" stroke-width="0.044047" stroke-miterlimit="3"/>
<path d="M22.2704 11.5991C22.437 11.5991 22.5721 11.531 22.5721 11.447C22.5721 11.363 22.437 11.2949 22.2704 11.2949C22.1038 11.2949 21.9688 11.363 21.9688 11.447C21.9688 11.531 22.1038 11.5991 22.2704 11.5991Z" fill="white" stroke="black" stroke-width="0.044047" stroke-miterlimit="3"/>
<path d="M27.6759 11.8262L27.6271 11.6912C27.6271 11.6912 27.4921 11.6349 27.4809 11.5637C27.4584 11.3724 27.3909 11.3012 27.2859 11.2712C27.2293 11.2551 27.1688 11.2619 27.1171 11.2899C27.0871 11.3349 26.9296 11.3349 26.8471 11.3387C26.7609 11.3387 26.7571 11.3012 26.7571 11.3012C26.6934 11.3012 26.6634 11.2524 26.6634 11.2524C26.6221 11.1662 26.5884 11.1324 26.5659 11.1212C26.6784 11.1212 26.7609 11.0724 26.8884 10.9412C27.0234 10.7987 27.1209 10.8512 27.1209 10.8512C27.0534 10.9862 27.1434 10.9749 27.1434 10.9749C27.3234 10.8812 27.1659 10.6487 27.1134 10.6599C27.0571 10.6712 27.0421 10.6337 27.0421 10.6337C27.0421 10.6749 26.9821 10.6937 26.9821 10.6937C27.0271 10.4274 26.8696 10.3562 26.8696 10.3562C26.8471 10.3787 26.8321 10.4274 26.8321 10.4274C26.7871 10.5887 26.6409 10.5624 26.4759 10.4837C26.3109 10.4087 25.8759 10.5662 25.7371 10.6224C25.5984 10.6787 25.3471 10.7612 25.1221 10.6374C24.8971 10.5099 24.8409 10.5324 24.7509 10.5587C24.6646 10.5812 24.5071 10.6187 24.4509 10.5887C24.4112 10.5687 24.3677 10.5572 24.3234 10.5549C24.3384 10.5474 24.3159 10.5099 24.3159 10.5099C24.2446 10.4162 24.3234 10.3599 24.3234 10.3599C24.3234 10.3599 24.1959 10.3974 24.2484 10.6149L24.2709 10.6449C24.2709 10.6449 24.2859 10.7162 24.3234 10.7349V10.7499C24.3234 10.7499 24.3571 10.7349 24.3646 10.7799C24.3759 10.8249 24.4246 10.7799 24.4434 10.7424C24.4434 10.7424 24.4096 10.9449 24.6571 10.9937C24.6571 10.9937 24.6309 10.9599 24.6384 10.9412C24.6496 10.9187 24.6084 10.9037 24.6121 10.8737C24.6159 10.8399 24.5521 10.8287 24.6009 10.8024C24.6534 10.7799 24.6759 10.7312 24.7884 10.7987C24.8971 10.8624 24.9834 10.8474 24.9834 10.8474C24.9834 10.8474 24.9159 10.7124 24.9534 10.7124C24.9909 10.7124 25.1559 10.9149 25.2346 10.9074C25.3171 10.8962 25.4746 10.8024 25.5534 10.8362C25.5534 10.8362 25.5609 10.7987 25.8609 10.7462C26.1609 10.6937 26.5359 10.5437 26.6746 10.6749C26.6746 10.6749 26.6896 10.7799 26.7496 10.8062C26.7496 10.8062 26.7384 11.0237 26.3671 10.9037L26.2321 10.8662C26.2321 10.8662 26.2096 10.8024 25.5009 10.9862C25.5009 10.9862 25.4596 11.0012 25.4296 11.0199C25.4034 11.0387 25.3659 11.0087 25.2234 11.0574C25.0846 11.1137 24.5596 11.2824 24.2371 11.2224C24.1659 11.1999 24.1021 11.2112 24.0984 11.1999C24.0984 11.1887 24.1359 11.2037 24.1359 11.2037C24.1134 11.1774 24.1021 11.1737 24.1021 11.1737C23.8321 11.1437 23.8771 11.0237 23.8771 11.0237L23.8921 11.0612C23.9371 11.0012 23.8771 10.8662 23.8771 10.8662H23.8734C23.8735 10.8624 23.8735 10.8587 23.8734 10.8549L23.8921 10.8399C24.0234 10.7274 24.1734 10.7087 24.1734 10.7087C24.0834 10.5962 23.8959 10.6562 23.8959 10.6562C23.8996 10.5249 23.8434 10.3674 23.8434 10.3674C23.7278 10.3864 23.6243 10.4496 23.5546 10.5437C23.5471 10.4049 23.3709 10.3262 23.3709 10.3262C23.4384 10.4049 23.3971 10.5962 23.3971 10.5962H23.4046H23.3859L23.3821 10.6374H23.3746C23.3746 10.6374 23.3109 10.6599 23.2359 10.8324C23.2359 10.8324 23.2284 10.8699 23.1984 10.9074V10.8924C23.1984 10.8924 23.1121 11.0049 22.9209 10.8924C22.9209 10.8924 22.6584 10.7387 22.5609 10.7424C22.4709 10.7499 22.4109 10.7912 22.4146 10.8174C22.4146 10.8174 22.2009 10.8024 22.1296 10.9224C22.1296 10.9224 21.9684 10.9824 22.1071 11.1099C22.1071 11.1099 22.1259 11.1699 22.1634 11.1999C22.1634 11.1999 22.1596 11.0799 22.1896 11.1137L22.2084 11.1362C22.2121 11.1512 22.2271 11.1962 22.2534 11.2224L22.2759 11.2149C22.2759 11.1849 22.2834 11.1474 22.2909 11.1324H22.2984L22.3359 11.1924L22.3734 11.1699C22.3959 11.1699 22.4221 11.1887 22.4221 11.1887L22.4709 11.1474C22.5196 11.1549 22.5346 11.0574 22.5346 11.0574C22.5542 11.0623 22.5747 11.0632 22.5947 11.0599C22.6146 11.0567 22.6338 11.0495 22.6509 11.0387C22.6734 11.1137 22.8459 11.1999 22.8459 11.1999H22.8534L22.8309 11.2149C22.9096 11.2712 23.0559 11.2562 23.0559 11.2562C22.9959 11.2787 23.0034 11.3949 23.0034 11.3949C22.9659 11.4099 22.9659 11.4437 22.9659 11.4437C23.0859 11.4924 23.1646 11.4512 23.1646 11.4512C23.1721 11.4887 23.1646 11.4962 23.1646 11.4962C23.1159 11.5974 23.0934 11.6987 23.0934 11.6987H23.0971V11.7062C23.0971 11.7062 22.8834 11.7812 22.7934 11.8824C22.7934 11.8824 22.7821 11.8524 22.7559 11.8524C22.7296 11.8524 22.6509 11.7849 22.6134 11.7737C22.5759 11.7624 22.5196 11.7849 22.5009 11.7662C22.4896 11.7512 22.4971 11.6312 22.4709 11.6162L22.4446 11.5412C22.4296 11.5787 22.3546 11.5712 22.3546 11.5712L22.3246 11.5937L22.2946 11.5899C22.2871 11.5899 22.2796 11.6087 22.2759 11.6274L22.2646 11.6387V11.6162C22.2534 11.6274 22.2234 11.6124 22.2121 11.6124C22.2046 11.6124 22.1971 11.6274 22.1934 11.6462L22.1221 11.6499C22.1109 11.6574 22.1221 11.7474 22.1221 11.7474C22.0359 11.7924 22.0771 11.8637 22.0771 11.8637C22.1221 12.0887 22.5084 11.9874 22.5384 12.0174C22.5684 12.0474 22.6359 12.0549 22.6696 12.0549C22.7071 12.0549 22.7484 12.1374 22.7971 12.1449C22.8459 12.1524 22.7971 12.0774 23.0259 12.0249C23.2546 11.9687 23.3334 11.8749 23.3334 11.8749C23.4046 11.8599 23.4234 11.7737 23.4271 11.7399L23.4346 11.7924C23.4459 11.8712 23.3896 11.9049 23.3896 11.9049L23.5884 11.8412C23.6671 11.8224 23.6559 11.7512 23.6559 11.7512C23.7309 11.9687 23.8696 11.9837 23.8696 11.9837C23.8959 11.9012 23.8921 11.8749 23.8921 11.8749H23.9559C23.9559 11.8262 23.9184 11.7924 23.8921 11.7774L23.9896 11.8337L24.0271 11.8299C24.0271 11.8637 24.0759 11.8937 24.0759 11.8937L24.0834 11.8487C24.1284 11.9087 24.2109 11.8862 24.2109 11.8862C24.2089 11.876 24.2064 11.866 24.2034 11.8562C24.3796 11.9649 24.6609 11.8262 24.6609 11.8262C24.7359 11.8412 24.7471 11.7962 24.7471 11.7962C24.8296 11.8074 24.8521 11.7474 24.8521 11.7474C25.0509 11.7324 25.1934 11.5899 25.1934 11.5899C25.2946 11.5824 25.2984 11.5112 25.2984 11.5112C25.2984 11.5112 25.3959 11.5299 25.4934 11.4099C25.7184 11.0912 26.0484 11.2599 26.0484 11.2599L25.8571 11.2712C25.3509 11.2674 25.5609 11.6087 25.5609 11.6087H25.5909C25.6396 11.6162 25.8046 11.7474 25.7409 11.8412V11.8487C25.6359 11.9874 25.4484 11.8562 25.3921 11.7362C25.3396 11.6162 25.2271 11.6424 25.2271 11.6424C25.2271 11.6424 24.9459 11.6912 25.0621 11.9162C25.0659 11.9724 25.0996 12.0362 25.2046 12.0962C25.2609 12.1787 25.4484 12.1862 25.5834 12.1562C25.6509 12.1487 25.9884 11.9987 25.9884 11.9987C26.0146 11.9237 26.1009 11.9424 26.1759 11.8337C26.2509 11.7287 26.0671 11.6912 26.0259 11.6312C25.9884 11.5749 26.0371 11.5862 26.0371 11.5862C26.2021 11.6724 26.2171 11.3912 26.2171 11.3912C26.222 11.4372 26.2397 11.4809 26.2682 11.5174C26.2967 11.5538 26.3349 11.5816 26.3784 11.5974C26.4646 11.5112 26.4009 11.3274 26.4009 11.3274C26.6146 11.7099 26.7421 11.6462 26.7421 11.6462C26.6296 11.5787 26.6859 11.4812 26.6859 11.4812C26.7871 11.8862 27.2109 11.5337 27.2109 11.5337C27.1884 11.5937 27.2109 11.6274 27.2484 11.6649C27.2859 11.7024 27.3309 11.7174 27.3084 11.7887C27.2896 11.8562 27.0909 11.8412 27.0909 11.8412C27.0909 11.8412 26.9034 11.8337 26.9184 11.9912C26.9296 12.0287 27.0534 12.0437 27.1059 12.0324C27.1059 12.0324 27.0834 12.0399 27.1546 12.0474H27.2371C27.3159 12.0474 27.4059 12.0324 27.4059 12.0324C27.5146 12.0099 27.4959 11.9724 27.4959 11.9724C27.6646 11.9424 27.6834 11.8299 27.6834 11.8299L27.6759 11.8262Z" fill="#FFD100" stroke="black" stroke-width="0.06625" stroke-miterlimit="3"/>
<path d="M22.1131 11.124C22.1131 11.124 22.1244 11.1052 22.1394 11.1015C22.1544 11.1015 22.1694 11.109 22.1844 11.1315L22.1956 11.124C22.1956 11.124 22.1506 11.0565 22.1656 11.0115C22.1769 10.989 22.1956 10.974 22.2256 10.9702V10.959C22.1881 10.9665 22.1656 10.9815 22.1581 11.0077C22.154 11.016 22.1515 11.0248 22.1506 11.034C22.1506 11.0565 22.1581 11.079 22.1694 11.0977C22.1607 11.0914 22.15 11.0887 22.1394 11.0902C22.1328 11.091 22.1266 11.0935 22.1214 11.0975C22.1161 11.1014 22.112 11.1067 22.1094 11.1127L22.1131 11.124ZM27.4006 12.024C27.2881 12.0427 27.1194 12.0502 27.1044 12.0165C27.1044 12.009 27.1044 11.9865 27.1944 11.9265L27.1869 11.9077C27.1081 11.9602 27.0744 11.994 27.0856 12.0202C27.1119 12.0877 27.3556 12.0502 27.4044 12.0427L27.4006 12.024ZM25.2106 12.0877C25.1844 12.0502 25.1994 11.994 25.2481 11.9265L25.2294 11.9152C25.1769 11.9902 25.1656 12.0502 25.1919 12.1027L25.2106 12.0877Z" fill="black"/>
<path d="M25.0559 11.9166C25.0559 11.9878 25.1084 12.0516 25.2022 12.1078L25.2134 12.0891C25.1234 12.0366 25.0784 11.9766 25.0784 11.9166C25.0709 11.8228 25.1722 11.7478 25.1759 11.7478L25.1647 11.7328C25.1572 11.7328 25.0522 11.8116 25.0559 11.9203V11.9166ZM27.0059 11.9428C26.9759 11.9916 26.9872 12.0478 26.9872 12.0478H27.0059C27.0059 12.0441 26.9984 11.9953 27.0247 11.9541C27.0336 11.9419 27.0448 11.9317 27.0576 11.924C27.0705 11.9162 27.0848 11.9112 27.0997 11.9091V11.8903C27.0584 11.8978 27.0247 11.9166 27.0097 11.9428H27.0059ZM22.5397 11.0653H22.5322V11.0728C22.5322 11.0728 22.5247 11.1328 22.4947 11.1478C22.4875 11.1507 22.4794 11.1507 22.4722 11.1478L22.4234 11.1216C22.4159 11.1141 22.4084 11.1103 22.3934 11.1141C22.3874 11.1068 22.383 11.0984 22.3804 11.0894C22.3778 11.0804 22.3771 11.0709 22.3784 11.0616C22.3822 11.0353 22.4009 11.0091 22.4384 10.9866L22.4309 10.9753C22.3934 11.0016 22.3709 11.0316 22.3672 11.0616C22.3672 11.0991 22.3859 11.1216 22.3859 11.1216V11.1253H22.3934C22.4047 11.1216 22.4047 11.1253 22.4159 11.1328L22.4684 11.1628H22.5059C22.5322 11.1441 22.5434 11.0916 22.5434 11.0803C22.6634 11.1066 22.7609 10.9566 22.7684 10.9528L22.7572 10.9453C22.7572 10.9453 22.6559 11.0953 22.5397 11.0653Z" fill="black"/>
<path d="M22.2427 11.0427C22.2387 11.0686 22.2441 11.0952 22.2577 11.1177C22.2689 11.1364 22.2839 11.1477 22.2952 11.1514C22.3139 11.1514 22.3252 11.1402 22.3402 11.1289C22.3477 11.1214 22.3552 11.1139 22.3627 11.1139L22.3739 11.1214L22.3814 11.1139L22.3627 11.1027C22.3514 11.1027 22.3402 11.1102 22.3327 11.1214C22.3252 11.1327 22.3102 11.1402 22.2952 11.1402C22.2877 11.1402 22.2764 11.1289 22.2652 11.1102C22.2591 11.1008 22.255 11.0904 22.253 11.0794C22.2511 11.0685 22.2514 11.0572 22.2539 11.0464C22.2689 10.9939 22.3327 10.9527 22.3327 10.9527L22.3289 10.9414C22.3252 10.9414 22.2577 10.9864 22.2427 11.0427V11.0427ZM22.0777 11.8189C22.0814 11.7964 22.1002 11.7814 22.1264 11.7664C22.1189 11.7664 22.1489 11.7889 22.1752 11.7889L22.1939 11.7777C22.2014 11.7852 22.2464 11.8264 22.2464 11.8789C22.2464 11.8902 22.2464 11.9014 22.2389 11.9127L22.2502 11.9164C22.2839 11.8377 22.1977 11.7664 22.1977 11.7664H22.1902L22.1752 11.7777C22.1527 11.7777 22.1264 11.7552 22.1264 11.7552C22.0889 11.7702 22.0739 11.7927 22.0664 11.8152L22.0777 11.8189ZM22.4639 11.6164C22.4377 11.6202 22.3702 11.6314 22.3477 11.6689C22.3402 11.6839 22.3364 11.6989 22.3439 11.7139L22.3514 11.7364C22.3739 11.7964 22.3964 11.8564 22.4227 11.8714L22.4264 11.8602C22.4039 11.8489 22.3814 11.7852 22.3627 11.7327L22.3552 11.7102C22.3519 11.7045 22.3501 11.698 22.3501 11.6914C22.3501 11.6848 22.3519 11.6784 22.3552 11.6727C22.3739 11.6464 22.4377 11.6352 22.4677 11.6314C22.4827 11.6314 22.4864 11.6877 22.4902 11.7214H22.5014C22.4977 11.6689 22.4902 11.6164 22.4639 11.6164V11.6164Z" fill="black"/>
<path d="M22.2734 11.6769C22.2584 11.6881 22.2621 11.7069 22.2621 11.7106C22.2621 11.7144 22.2696 11.8606 22.3371 11.8906L22.3409 11.8794C22.2809 11.8531 22.2734 11.7106 22.2734 11.7069C22.2734 11.7069 22.2734 11.6919 22.2809 11.6844C22.2921 11.6769 22.3109 11.6731 22.3409 11.6844L22.3446 11.6731C22.3109 11.6619 22.2884 11.6656 22.2734 11.6731V11.6769Z" fill="black"/>
<path d="M22.2178 11.6871C22.1878 11.7096 22.1916 11.7696 22.1916 11.7734H22.2028C22.2028 11.7734 22.2028 11.7134 22.2253 11.6984C22.2366 11.6909 22.2478 11.6909 22.2628 11.6984L22.2666 11.6834C22.2478 11.6759 22.2291 11.6759 22.2178 11.6834V11.6871Z" fill="black"/>
<path d="M23.8685 10.8805C23.8685 10.8805 23.901 10.9553 23.901 11.0127C23.901 11.0226 23.896 11.0301 23.8935 11.0376L23.881 11.0052L23.8735 11.0301C23.8735 11.0301 23.8586 11.065 23.881 11.1024C23.9109 11.1523 23.9857 11.1822 24.1054 11.1947V11.1972C24.1019 11.1971 24.0985 11.198 24.0954 11.1997L24.0904 11.2046V11.2146C24.0954 11.2271 24.1079 11.2271 24.1353 11.2271L24.1528 11.2296L24.1677 11.2346L24.1652 11.2321C24.1902 11.2321 24.2226 11.2396 24.255 11.252L24.2301 11.257L24.2575 11.2695C24.26 11.2695 24.4744 11.3567 24.5617 11.4265C24.5367 11.449 24.4295 11.5263 24.245 11.4814L24.2151 11.4739L24.2351 11.4988C24.2351 11.4988 24.3572 11.6385 24.3822 11.7232C24.3398 11.7232 24.1777 11.7232 24.1204 11.6734L24.1079 11.6858C24.1079 11.6858 24.1827 11.8005 24.2026 11.8878C24.1777 11.8928 24.1278 11.8953 24.0954 11.8529L24.0805 11.8354L24.073 11.8853C24.058 11.8728 24.0381 11.8579 24.0381 11.8379V11.828L23.9932 11.8354L23.8985 11.7781C23.8936 11.7745 23.8886 11.7712 23.8835 11.7681L23.8735 11.7856L23.8885 11.793C23.9084 11.808 23.9433 11.8354 23.9458 11.8753H23.886V11.8878C23.886 11.8953 23.886 11.9227 23.8636 11.98C23.8361 11.9751 23.7314 11.9377 23.6691 11.7606L23.6491 11.7656V11.7706C23.6491 11.7881 23.6442 11.828 23.5893 11.8429L23.4272 11.8928C23.4414 11.8724 23.4485 11.8478 23.4472 11.823V11.803C23.4441 11.7815 23.4425 11.7599 23.4422 11.7382C23.4422 11.7008 23.4497 11.6784 23.4771 11.6634L23.4671 11.6435C23.4646 11.6435 23.2278 11.7407 23.1106 11.7008C23.1156 11.6759 23.1355 11.5961 23.1754 11.5113L23.1704 11.5163C23.1779 11.5113 23.1854 11.5013 23.1779 11.4614V11.449L23.1655 11.454C23.1655 11.454 23.0907 11.4889 22.981 11.449C22.981 11.439 22.9884 11.424 23.0109 11.4141L23.0184 11.4116V11.3916C23.0184 11.3617 23.0209 11.2919 23.0632 11.2769L23.0582 11.257C23.0582 11.257 22.9311 11.267 22.8538 11.2246C22.8872 11.2006 22.9255 11.1844 22.966 11.1772H22.9735V11.1672C22.9732 11.1475 22.9689 11.128 22.961 11.1099C22.9909 11.1199 23.0258 11.1274 23.0383 11.1174L23.0433 11.1149L23.0383 11.0376H23.0184L23.0209 11.1024L22.9461 11.085L22.9161 11.075L22.9361 11.0999C22.9481 11.1175 22.9543 11.1385 22.9535 11.1598C22.9083 11.1695 22.8657 11.1891 22.8289 11.2171L22.8164 11.2271L22.8289 11.2346C22.8887 11.2745 22.981 11.2794 23.0283 11.2769C23.0071 11.3105 22.9959 11.3494 22.9959 11.3891V11.3991C22.986 11.4049 22.9775 11.4128 22.971 11.4223C22.9646 11.4318 22.9603 11.4426 22.9585 11.454V11.4614L22.9635 11.4639C23.0253 11.4924 23.0955 11.4968 23.1605 11.4764V11.4988C23.1106 11.6036 23.0857 11.7058 23.0857 11.7058V11.7158H23.0932C23.1904 11.7556 23.3599 11.7033 23.4372 11.6759C23.4272 11.6933 23.4198 11.7133 23.4198 11.7382C23.4201 11.7666 23.4226 11.7949 23.4272 11.823C23.4272 11.8803 23.3898 11.9027 23.3874 11.9027L23.3948 11.9227L23.5943 11.8629C23.6392 11.8504 23.6566 11.823 23.6641 11.8005C23.7414 11.985 23.8636 12 23.871 12.0025H23.8785L23.881 11.995C23.8942 11.9632 23.9026 11.9296 23.9059 11.8953C23.9259 11.8945 23.9458 11.8937 23.9658 11.8928V11.8803C23.9658 11.8629 23.9633 11.8479 23.9558 11.8354L23.9907 11.8554L24.0231 11.8504C24.0306 11.8828 24.0705 11.9102 24.0755 11.9127L24.088 11.9202L24.0954 11.8778C24.1453 11.9202 24.2126 11.9077 24.2176 11.9077L24.2251 11.9052V11.8953C24.2151 11.828 24.1702 11.7482 24.1428 11.7058C24.2301 11.7457 24.3896 11.7432 24.3971 11.7432H24.4071V11.7307C24.3742 11.6482 24.327 11.5722 24.2675 11.5063C24.4719 11.5437 24.5816 11.4365 24.5866 11.4315L24.5941 11.424L24.5841 11.4191C24.4945 11.355 24.3974 11.3023 24.2949 11.262L24.3173 11.257L24.2924 11.2445C24.2476 11.2217 24.1981 11.2097 24.1478 11.2096C24.1229 11.1797 24.1104 11.1772 24.1079 11.1747C23.9683 11.1598 23.9184 11.1224 23.8985 11.0925V11.085L23.9035 11.0775C23.9159 11.06 23.9209 11.0376 23.9209 11.0127C23.9209 10.9478 23.8885 10.8755 23.8885 10.873L23.8685 10.8805V10.8805Z" fill="black"/>
<path d="M23.2324 10.8401C23.2324 10.8401 23.2174 10.9149 23.1526 10.9523C23.1027 10.9772 23.0404 10.9772 22.9631 10.9448L22.9531 10.9423V10.9523C22.9587 10.9844 22.9766 11.013 23.003 11.0321C23.0354 11.057 23.0853 11.067 23.1501 11.062C23.1277 11.0869 23.0603 11.1717 23.0603 11.2565V11.2689C23.0703 11.2739 23.175 11.3038 23.2249 11.2415C23.2249 11.2664 23.2349 11.3537 23.2673 11.3861C23.2872 11.406 23.2922 11.431 23.2922 11.4534C23.2922 11.4734 23.2872 11.4883 23.2872 11.4883L23.2822 11.5033L23.2947 11.4933C23.2997 11.4908 23.3969 11.4185 23.4268 11.3263C23.4268 11.3263 23.4443 11.3013 23.4742 11.2939V11.3063C23.4742 11.3437 23.4892 11.4085 23.5939 11.4484L23.6014 11.4509V11.4434C23.6011 11.4376 23.6011 11.4318 23.6014 11.426C23.6014 11.3986 23.6014 11.3512 23.6288 11.3263C23.6398 11.316 23.6473 11.3024 23.65 11.2876C23.6526 11.2728 23.6505 11.2575 23.6437 11.244C23.6662 11.249 23.7161 11.2664 23.736 11.3038C23.7659 11.3587 23.8681 11.3138 23.8731 11.3138L23.8706 11.3013C23.8706 11.3013 23.8258 11.3113 23.7983 11.2939C23.7926 11.2894 23.7878 11.2837 23.7844 11.2773C23.781 11.2708 23.7789 11.2637 23.7784 11.2565L23.7734 11.1966C23.7734 11.1717 23.7684 11.1542 23.7559 11.1418C23.7684 11.1418 23.7958 11.1418 23.8058 11.1667C23.8258 11.2066 23.8881 11.2091 23.8906 11.2091L23.913 11.2116L23.8956 11.1991C23.8956 11.1991 23.8407 11.1642 23.8507 11.1168L23.8582 11.0819C23.8731 11.0196 23.8981 10.9174 23.8756 10.8525L23.8656 10.8575C23.8706 10.8725 23.8731 10.8924 23.8731 10.9124C23.8731 10.9672 23.8557 11.037 23.8482 11.0794L23.8382 11.1143C23.8378 11.1185 23.8378 11.1227 23.8382 11.1268C23.8382 11.1592 23.8557 11.1817 23.8706 11.1941C23.8532 11.1916 23.8282 11.1817 23.8208 11.1617C23.8033 11.1268 23.7634 11.1268 23.746 11.1293L23.731 11.1318L23.741 11.1418C23.7584 11.1517 23.7609 11.1667 23.7609 11.1991L23.7659 11.2565C23.7684 11.2764 23.7784 11.2914 23.7908 11.3013C23.8058 11.3113 23.8208 11.3113 23.8332 11.3138C23.8033 11.3213 23.7609 11.3263 23.746 11.2988C23.7185 11.244 23.6388 11.2315 23.6363 11.229H23.6238L23.6288 11.239C23.6288 11.239 23.6388 11.254 23.6388 11.2739C23.6388 11.2864 23.6338 11.3038 23.6213 11.3163C23.5939 11.3437 23.5889 11.3961 23.5889 11.4235V11.4335C23.4991 11.3961 23.4842 11.3412 23.4842 11.3088V11.2839L23.4892 11.2764H23.4792C23.4661 11.2786 23.4536 11.2838 23.4428 11.2916C23.432 11.2994 23.4231 11.3095 23.4169 11.3213C23.3921 11.3822 23.3517 11.4355 23.2997 11.4759C23.3011 11.4676 23.302 11.4593 23.3022 11.4509C23.3022 11.4285 23.2972 11.4011 23.2772 11.3786C23.2398 11.3437 23.2349 11.229 23.2349 11.229V11.2091L23.2249 11.2265C23.185 11.2963 23.0703 11.2614 23.0678 11.2614C23.0628 11.1742 23.1675 11.0595 23.1675 11.057L23.1775 11.047H23.1626C23.0952 11.057 23.0429 11.047 23.008 11.0221C22.9882 11.0063 22.9741 10.9844 22.9681 10.9598C23.0429 10.9872 23.1077 10.9897 23.1576 10.9623C23.1791 10.9492 23.1978 10.9318 23.2124 10.9112C23.2269 10.8906 23.2371 10.8673 23.2423 10.8426C23.3171 10.678 23.3795 10.6506 23.3795 10.6506L23.377 10.6406C23.372 10.6406 23.3072 10.6656 23.2324 10.8401V10.8401Z" fill="black"/>
<path d="M23.4008 10.5938H23.3958L23.3359 10.676H23.3534C23.5394 10.6907 23.7139 10.7722 23.8446 10.9054L23.852 10.9129L23.9094 10.8506L23.9044 10.8431C23.7423 10.5888 23.4033 10.5938 23.3983 10.5938H23.4008ZM23.4057 10.6162C23.4456 10.6162 23.7349 10.6237 23.8844 10.8481L23.852 10.883C23.7205 10.758 23.5513 10.68 23.3708 10.6611C23.3824 10.6461 23.3941 10.6311 23.4057 10.6162V10.6162Z" fill="black"/>
<path d="M23.354 10.7639C23.3272 10.799 23.3092 10.8401 23.3016 10.8836L23.3041 10.8936C23.2868 10.9117 23.2734 10.9333 23.2649 10.9569C23.2563 10.9805 23.2527 11.0056 23.2543 11.0307C23.2543 11.0631 23.2593 11.0955 23.2692 11.1254L23.2767 11.1429C23.3066 11.2277 23.3341 11.3025 23.4712 11.2576C23.6008 11.2177 23.6058 11.2077 23.6382 11.1529L23.6482 11.1404C23.6657 11.1105 23.6856 11.1055 23.7055 11.098C23.7305 11.0905 23.7554 11.083 23.7803 11.0382L23.8003 11.0058C23.8252 10.9733 23.8551 10.931 23.8576 10.8811H23.8477C23.8402 10.9244 23.8213 10.9649 23.7928 10.9983L23.7679 11.0332C23.7624 11.047 23.7537 11.0592 23.7424 11.0688C23.7311 11.0783 23.7175 11.085 23.7031 11.088C23.6897 11.0906 23.6771 11.0959 23.6659 11.1036C23.6547 11.1113 23.6453 11.1213 23.6382 11.1329L23.6283 11.1479C23.5983 11.2002 23.5934 11.2077 23.4662 11.2476C23.3415 11.2875 23.3166 11.2252 23.2867 11.1379L23.2792 11.1204C23.2443 11.0257 23.2717 10.931 23.3191 10.8961L23.3341 10.8836L23.3116 10.8861V10.8836C23.3116 10.8661 23.3291 10.8188 23.3615 10.7714C23.3914 10.7315 23.4612 10.6941 23.4612 10.6916L23.4562 10.6816C23.4512 10.6841 23.3839 10.724 23.354 10.7639V10.7639Z" fill="black"/>
<path d="M23.294 11.1106C23.3164 11.1255 23.3463 11.123 23.3862 11.1106C23.3862 11.123 23.3862 11.153 23.4111 11.1729C23.4411 11.1978 23.4859 11.2028 23.5483 11.1879V11.1754C23.4884 11.1904 23.4436 11.1854 23.4186 11.1629C23.4107 11.1552 23.4046 11.1459 23.4007 11.1355C23.3968 11.1252 23.3953 11.1141 23.3962 11.1031V11.0931L23.3887 11.0981C23.3513 11.1131 23.3214 11.1156 23.299 11.0981C23.2616 11.0732 23.264 11.0059 23.264 11.0059H23.2541C23.2541 11.0059 23.2491 11.0807 23.294 11.1106V11.1106Z" fill="black"/>
<path d="M23.3634 11.0177C23.3485 11.0227 23.3435 11.0352 23.3435 11.0452V11.0526C23.3485 11.0826 23.3809 11.1025 23.4083 11.11C23.4382 11.1175 23.4731 11.1199 23.4856 11.1025C23.4906 11.095 23.4956 11.0826 23.4856 11.0601C23.4749 11.0391 23.4565 11.0229 23.4342 11.0151C23.412 11.0072 23.3875 11.0081 23.3659 11.0177H23.3634ZM23.4133 11.1C23.3884 11.0925 23.3585 11.0751 23.356 11.0501C23.356 11.0501 23.3535 11.0327 23.3684 11.0277C23.3877 11.0199 23.4092 11.0197 23.4286 11.0271C23.4481 11.0345 23.464 11.0489 23.4731 11.0676C23.4806 11.0776 23.4806 11.0875 23.4756 11.0925C23.4682 11.105 23.4407 11.1075 23.4133 11.1V11.1ZM23.4033 11.1673C23.3959 11.2297 23.4033 11.2321 23.4058 11.2321H23.4108L23.4158 11.2297L23.4507 11.1798L23.4058 11.1598V11.1673H23.4033ZM23.4158 11.1773L23.4333 11.1848L23.4133 11.2122V11.1773H23.4158ZM23.3111 11.1175L23.3086 11.1748L23.3585 11.115L23.3086 11.11V11.1175H23.3111ZM23.3211 11.1224H23.336L23.3211 11.1424V11.1224Z" fill="black"/>
<path d="M23.2756 11.0969C23.2756 11.0969 23.313 11.1692 23.3205 11.1966C23.323 11.2116 23.3454 11.2315 23.3703 11.239C23.3953 11.249 23.4202 11.249 23.4377 11.2365L23.4701 11.2091C23.48 11.1966 23.485 11.1941 23.495 11.1966V11.1842C23.48 11.1842 23.4726 11.1891 23.4626 11.1991L23.4302 11.2241C23.4102 11.239 23.3878 11.234 23.3753 11.229C23.3504 11.2216 23.3329 11.2041 23.3304 11.1916C23.323 11.1667 23.2881 11.0944 23.2856 11.0919L23.2756 11.0969V11.0969ZM23.3255 10.8825C23.2974 10.8973 23.2759 10.9222 23.2656 10.9523L23.2756 10.9548C23.2756 10.9548 23.2931 10.9099 23.328 10.8925C23.3374 10.8882 23.3476 10.886 23.3579 10.886C23.3682 10.886 23.3784 10.8882 23.3878 10.8925L23.3903 10.8825C23.3654 10.8725 23.3454 10.8725 23.323 10.8825H23.3255ZM23.5947 11.0121C23.5997 11.0121 23.6745 11.072 23.6321 11.1418L23.6396 11.1493C23.6895 11.067 23.6022 11.0022 23.6022 10.9997L23.5947 11.0121ZM23.3654 11.0221C23.3654 11.0221 23.3529 11.0645 23.4152 11.0794C23.4152 11.0794 23.3579 11.0794 23.3529 11.0645C23.3504 11.0495 23.3529 11.0171 23.3654 11.0221V11.0221ZM23.5523 11.072C23.5523 11.077 23.5474 11.0794 23.5449 11.0794C23.5432 11.0795 23.5416 11.0791 23.5403 11.0782C23.5389 11.0773 23.5379 11.076 23.5374 11.0745C23.5374 11.0695 23.5399 11.067 23.5449 11.067C23.5474 11.067 23.5523 11.0695 23.5523 11.0745V11.072ZM23.5573 11.1019C23.5573 11.1044 23.5573 11.1069 23.5523 11.1069C23.5507 11.107 23.5491 11.1065 23.5478 11.1056C23.5464 11.1047 23.5454 11.1034 23.5449 11.1019C23.5449 11.0999 23.5457 11.098 23.5471 11.0966C23.5485 11.0952 23.5504 11.0944 23.5523 11.0944C23.5548 11.0944 23.5573 11.0969 23.5573 11.1019Z" fill="black"/>
<path d="M23.5112 11.0947C23.5152 11.0947 23.5185 11.0914 23.5185 11.0874C23.5185 11.0833 23.5152 11.0801 23.5112 11.0801C23.5072 11.0801 23.5039 11.0833 23.5039 11.0874C23.5039 11.0914 23.5072 11.0947 23.5112 11.0947Z" fill="black"/>
<path d="M23.5318 11.1268C23.5318 11.1287 23.531 11.1306 23.5296 11.132C23.5282 11.1334 23.5263 11.1342 23.5243 11.1342C23.5224 11.1342 23.5205 11.1334 23.5191 11.132C23.5177 11.1306 23.5169 11.1287 23.5169 11.1268C23.5169 11.1243 23.5194 11.1218 23.5243 11.1218L23.5318 11.1268V11.1268ZM23.3548 10.9448C23.3548 10.9467 23.354 10.9486 23.3526 10.95C23.3512 10.9514 23.3493 10.9522 23.3473 10.9522C23.3453 10.9522 23.3434 10.9514 23.342 10.95C23.3406 10.9486 23.3398 10.9467 23.3398 10.9448C23.3405 10.9437 23.3415 10.9429 23.3425 10.9423C23.3436 10.9417 23.3448 10.9414 23.3461 10.9414C23.3473 10.9414 23.3485 10.9417 23.3496 10.9423C23.3507 10.9429 23.3516 10.9437 23.3523 10.9448H23.3548Z" fill="black"/>
<path d="M23.351 10.9794C23.3551 10.9794 23.3583 10.9762 23.3583 10.9721C23.3583 10.9681 23.3551 10.9648 23.351 10.9648C23.347 10.9648 23.3438 10.9681 23.3438 10.9721C23.3438 10.9762 23.347 10.9794 23.351 10.9794Z" fill="black"/>
<path d="M23.3159 10.9677C23.3199 10.9677 23.3232 10.9644 23.3232 10.9604C23.3232 10.9564 23.3199 10.9531 23.3159 10.9531C23.3119 10.9531 23.3086 10.9564 23.3086 10.9604C23.3086 10.9644 23.3119 10.9677 23.3159 10.9677Z" fill="black"/>
<path d="M23.3328 10.9994C23.3329 11.001 23.3324 11.0026 23.3315 11.004C23.3306 11.0053 23.3293 11.0063 23.3278 11.0069C23.3258 11.0069 23.3239 11.0061 23.3225 11.0047C23.3211 11.0033 23.3203 11.0014 23.3203 10.9994C23.3203 10.9974 23.3211 10.9955 23.3225 10.9941C23.3239 10.9927 23.3258 10.9919 23.3278 10.9919C23.3293 10.9925 23.3306 10.9935 23.3315 10.9948C23.3324 10.9962 23.3329 10.9978 23.3328 10.9994V10.9994ZM23.4525 10.7601C23.4525 10.7601 23.5397 10.8149 23.4549 10.9171C23.4549 10.9171 23.4973 10.8847 23.4998 10.8324C23.5048 10.78 23.4699 10.7376 23.45 10.7601H23.4525ZM23.789 10.9072C23.7591 10.9221 23.7192 10.8947 23.6993 10.8698C23.6793 10.8448 23.637 10.8373 23.6095 10.8847C23.5846 10.9296 23.5472 10.947 23.5472 10.947C23.5472 10.947 23.5846 10.9271 23.622 10.8847C23.6594 10.8448 23.6818 10.8772 23.7192 10.8972C23.7541 10.9171 23.7616 10.9221 23.7865 10.9096V10.9072H23.789Z" fill="black"/>
<path d="M23.7812 10.9159C23.7732 10.922 23.7633 10.9252 23.7533 10.9247C23.7432 10.9243 23.7337 10.9202 23.7263 10.9134C23.7014 10.8934 23.6839 10.8685 23.6565 10.8835C23.6266 10.8984 23.5742 10.9383 23.5742 10.9383C23.5742 10.9383 23.6615 10.8785 23.6789 10.8934C23.6939 10.9059 23.7338 10.9383 23.7562 10.9283L23.7812 10.9159V10.9159Z" fill="black"/>
<path d="M23.7134 10.9507C23.686 10.9308 23.6586 10.9756 23.6361 10.9707C23.6112 10.9657 23.5938 10.9258 23.5938 10.9258C23.5938 10.9258 23.6137 10.9657 23.6436 10.9582C23.676 10.9482 23.696 10.9283 23.7159 10.9432C23.7334 10.9582 23.7134 10.9507 23.7134 10.9507V10.9507Z" fill="black"/>
<path d="M23.6727 10.9572C23.6657 10.9587 23.6584 10.9586 23.6513 10.9569C23.6443 10.9552 23.6377 10.952 23.6321 10.9475C23.6264 10.9431 23.6218 10.9374 23.6185 10.9309C23.6153 10.9245 23.6135 10.9174 23.6133 10.9102C23.6133 10.9102 23.6306 10.9548 23.6777 10.9473L23.6727 10.9572Z" fill="black"/>
<path d="M23.6697 10.9223C23.6722 10.9348 23.6722 10.9423 23.6572 10.9423C23.6423 10.9423 23.6323 10.9373 23.6323 10.9223C23.6323 10.9099 23.6672 10.9124 23.6697 10.9223ZM23.4752 10.8475C23.4746 10.8517 23.4725 10.8555 23.4693 10.8583C23.4661 10.861 23.462 10.8625 23.4578 10.8625C23.4478 10.8625 23.4453 10.8575 23.4453 10.8475C23.4453 10.8376 23.4453 10.8301 23.4578 10.8301C23.4702 10.8301 23.4752 10.8376 23.4752 10.8475Z" fill="black"/>
<path d="M23.4116 10.7851C23.4116 10.7851 23.5063 10.7851 23.4614 10.9022C23.4614 10.9022 23.4963 10.8449 23.4739 10.8025C23.449 10.7626 23.4165 10.7726 23.4165 10.7726C23.4165 10.7726 23.4066 10.7801 23.4116 10.7851Z" fill="black"/>
<path d="M23.4126 10.8329C23.4126 10.8578 23.4276 10.8802 23.4575 10.9052L23.465 10.8952C23.4376 10.8728 23.4226 10.8528 23.4226 10.8329C23.4226 10.8129 23.4376 10.8004 23.4376 10.8004L23.4301 10.793C23.4301 10.793 23.4126 10.8079 23.4102 10.8329H23.4126Z" fill="black"/>
<path d="M23.4316 10.8537C23.434 10.8661 23.4465 10.8786 23.4615 10.8836L23.4665 10.8736C23.454 10.8686 23.444 10.8587 23.4415 10.8487C23.4365 10.8287 23.4515 10.8063 23.4515 10.8063L23.4415 10.7988C23.4415 10.7988 23.4241 10.8287 23.4316 10.8537V10.8537ZM23.5587 10.9185C23.5587 10.9185 23.5762 10.9559 23.5512 10.9958L23.5263 11.0357C23.5263 11.0357 23.5562 10.9783 23.5437 10.9559C23.5338 10.931 23.5587 10.9185 23.5587 10.9185V10.9185ZM23.9227 11.3124C24.0175 11.3299 24.2344 11.4994 24.2344 11.4994L24.2468 11.4845C24.2394 11.477 24.0249 11.3099 23.9252 11.2925L23.9202 11.3124H23.9227ZM24.0075 11.5493C24.0125 11.6366 24.1072 11.6889 24.1072 11.6914L24.1197 11.674C24.1197 11.674 24.0324 11.6241 24.0274 11.5493H24.0075ZM23.7756 11.5692C23.7756 11.664 23.8654 11.7787 23.8704 11.7837L23.8853 11.7712C23.8853 11.7712 23.7956 11.6565 23.7956 11.5692H23.7756ZM23.4739 11.5792C23.4889 11.6116 23.4889 11.6266 23.4839 11.6341C23.4789 11.644 23.4689 11.644 23.4689 11.644L23.4714 11.664C23.4789 11.664 23.4939 11.659 23.5014 11.644C23.5113 11.6266 23.5088 11.6016 23.4914 11.5692L23.4739 11.5792Z" fill="black"/>
<path d="M22.1133 11.1104C22.1133 11.1104 22.117 11.1741 22.1658 11.2116C22.1658 11.2116 22.162 11.1441 22.177 11.1141C22.177 11.1141 22.1508 11.0841 22.1133 11.1104ZM22.2108 11.1479C22.2108 11.1479 22.222 11.2079 22.2558 11.2341L22.2783 11.2304C22.2783 11.2304 22.2858 11.1554 22.297 11.1479C22.3083 11.1404 22.2483 11.1741 22.2108 11.1479V11.1479Z" fill="white" stroke="black" stroke-width="0.0165625" stroke-miterlimit="3"/>
<path d="M22.2969 11.1483L22.3344 11.2083L22.3794 11.1821L22.3719 11.1146C22.3719 11.1146 22.3457 11.1071 22.2969 11.1483ZM22.4732 11.1596L22.4244 11.2008C22.4244 11.2008 22.3982 11.1821 22.3794 11.1821L22.3869 11.1183C22.3869 11.1183 22.4244 11.0921 22.4732 11.1596ZM22.1244 11.7596C22.1244 11.7596 22.1169 11.6696 22.1244 11.6658C22.1244 11.6658 22.1619 11.6771 22.1769 11.6658C22.1769 11.6658 22.1957 11.7333 22.1919 11.7633C22.1844 11.7933 22.1507 11.7821 22.1244 11.7633V11.7596ZM22.3494 11.6696C22.3494 11.6696 22.3457 11.5946 22.3569 11.5833C22.3569 11.5833 22.4319 11.5946 22.4469 11.5533L22.4732 11.6283C22.4732 11.6283 22.3944 11.6171 22.3457 11.6658L22.3494 11.6696Z" fill="white" stroke="black" stroke-width="0.0165625" stroke-miterlimit="3"/>
<path d="M22.2698 11.6839C22.2698 11.6839 22.2811 11.6052 22.2961 11.6014C22.2961 11.6014 22.3336 11.6127 22.3448 11.5977V11.6952C22.3448 11.6952 22.3448 11.6539 22.2698 11.6839ZM22.1836 11.6952C22.1836 11.6952 22.2023 11.6239 22.2136 11.6239C22.2248 11.6239 22.2511 11.6427 22.2661 11.6314V11.6839C22.2661 11.6839 22.2061 11.6689 22.1948 11.7552L22.1836 11.6952Z" fill="white" stroke="black" stroke-width="0.0165625" stroke-miterlimit="3"/>
<path d="M23.3172 13.1384C23.3172 13.1384 23.5122 13.3222 23.4635 13.4834C23.4635 13.4834 23.5872 13.2097 23.4522 13.1272C23.3172 13.0522 23.3135 13.1084 23.3172 13.1384V13.1384Z" fill="#00A651" stroke="black" stroke-width="0.0414062" stroke-miterlimit="4.8"/>
<path d="M23.0637 13.3142C23.0637 13.3142 23.0149 13.3892 23.0712 13.4379C23.0712 13.4379 23.0074 13.5279 23.0562 13.6029C23.0562 13.6029 23.0187 13.6817 23.0262 13.7679C23.0262 13.7679 22.9962 13.8992 23.0637 13.9592C23.0637 13.9592 23.1387 13.9967 23.1762 13.9629C23.1762 13.9629 23.2399 13.8654 23.1987 13.7642C23.1987 13.7642 23.2437 13.6779 23.1912 13.5692C23.1912 13.5692 23.2062 13.5092 23.1649 13.4379C23.1649 13.4379 23.1912 13.3929 23.1687 13.3554C23.1687 13.3554 23.0749 13.2542 23.0637 13.3179V13.3142Z" fill="#964B36" stroke="black" stroke-width="0.0414062" stroke-miterlimit="4.8"/>
<path d="M23.1208 13.0863C23.1208 13.0863 22.8883 12.6363 22.7233 12.6175C22.5583 12.5988 22.5508 12.4375 22.5508 12.4375C22.5508 12.4375 22.5695 12.5125 22.7008 12.5125C22.832 12.5125 23.0833 12.7 23.1133 12.8387C23.1395 12.9775 23.1695 12.9588 23.1695 12.9588L23.1208 13.0863V13.0863Z" fill="#00A651" stroke="black" stroke-width="0.0414062" stroke-miterlimit="4.8"/>
<path d="M23.1224 13.0528C23.1224 13.0528 23.2087 12.4866 23.5799 12.4753C23.9512 12.4678 23.8274 12.5053 23.9174 12.4453C23.9174 12.4453 23.6699 12.5728 23.5162 12.5953C23.3587 12.6103 23.2312 12.9141 23.2387 12.9703C23.2387 13.0266 23.1524 13.1353 23.1112 13.0978C23.0662 13.0603 23.1224 13.0528 23.1224 13.0528V13.0528Z" fill="#00A651" stroke="black" stroke-width="0.0414062" stroke-miterlimit="4.8"/>
<path d="M23.2073 13.266C23.2073 13.266 23.2935 13.041 23.436 13.116C23.436 13.116 23.3235 12.8985 23.121 13.086C23.121 13.086 23.211 13.2097 23.2073 13.266V13.266ZM22.926 13.041C22.926 13.041 23.046 13.5435 22.8585 13.6972C22.8585 13.6972 22.866 13.4385 22.7498 13.2847C22.6373 13.1272 22.8623 12.9585 22.926 13.041Z" fill="#00A651" stroke="black" stroke-width="0.0414062" stroke-miterlimit="4.8"/>
<path d="M22.9406 13.1266C22.9406 13.1266 23.1619 13.3404 23.1731 13.4116C23.1881 13.4791 23.2406 13.1979 23.1356 13.1191C23.0306 13.0404 22.9219 13.0254 22.9219 13.0254L22.9406 13.1304V13.1266Z" fill="#00A651" stroke="black" stroke-width="0.0414062" stroke-miterlimit="4.8"/>
<path d="M22.5312 13.6867C22.5312 13.6867 22.55 13.773 22.6063 13.7917C22.6063 13.7917 22.6063 13.8555 22.6588 13.8742C22.6588 13.8742 22.6325 13.9305 22.6738 13.9642C22.6738 13.9642 22.6663 14.0767 22.7038 14.0955C22.7038 14.0955 22.805 14.0917 22.8388 14.0617C22.8388 14.0617 22.8575 13.9905 22.8013 13.9192C22.8013 13.9192 22.8125 13.8517 22.7563 13.8142C22.7563 13.8142 22.775 13.7205 22.7038 13.6867C22.7038 13.6867 22.6925 13.6117 22.6513 13.5742C22.6513 13.5742 22.5688 13.6905 22.5312 13.6867V13.6867Z" fill="#964B36" stroke="black" stroke-width="0.0414062" stroke-miterlimit="4.8"/>
<path d="M22.6414 13.5728C22.6414 13.5728 22.3527 13.4678 22.1914 13.6178C22.1914 13.6178 22.4389 13.6553 22.4689 13.7041C22.4989 13.7528 22.6527 13.6216 22.6414 13.5728Z" fill="#00A651" stroke="black" stroke-width="0.0414062" stroke-miterlimit="4.8"/>
<path d="M22.5509 13.7543L22.4984 13.7168C22.4722 13.6943 22.2284 13.6305 22.1946 13.8668C22.1946 13.8668 22.1046 13.6305 22.2321 13.6043C22.3634 13.5668 22.4646 13.6418 22.5509 13.7543ZM22.3634 13.2743C22.3634 13.2743 22.4497 13.4693 22.4834 13.4768C22.5172 13.488 22.5397 13.4543 22.5397 13.4543C22.5397 13.4543 22.4234 13.2818 22.3597 13.2743H22.3634ZM22.2959 12.978C22.2959 12.978 22.2209 12.7305 22.1309 12.798C22.0409 12.8618 22.0634 13.0418 22.0634 13.0418C22.0634 13.0418 21.8872 12.8543 21.9884 12.7118C22.0934 12.5655 22.2959 12.7268 22.2959 12.978Z" fill="#00A651" stroke="black" stroke-width="0.0414062" stroke-miterlimit="4.8"/>
<path d="M22.5 13.4914C22.5 13.4914 22.5 13.5401 22.5337 13.5514C22.5637 13.5664 22.6275 13.5889 22.6275 13.5626C22.6275 13.5364 22.5788 13.4239 22.56 13.4389C22.5413 13.4539 22.5075 13.4539 22.5 13.4914V13.4914Z" fill="#964B36" stroke="black" stroke-width="0.0414062" stroke-miterlimit="4.8"/>
<path d="M22.4416 13.199C22.4416 13.199 22.4304 12.9852 22.5729 12.9027C22.5729 12.9027 22.5991 12.9102 22.6141 12.8652C22.6141 12.8652 22.5016 13.139 22.5354 13.2777L22.5316 13.2927" fill="#00A651"/>
<path d="M22.4416 13.199C22.4416 13.199 22.4304 12.9852 22.5729 12.9027C22.5729 12.9027 22.5991 12.9102 22.6141 12.8652C22.6141 12.8652 22.5016 13.139 22.5354 13.2777L22.5316 13.2927" stroke="black" stroke-width="0.0414062" stroke-miterlimit="4.8"/>
<path d="M22.4688 12.9369C22.4688 12.9369 22.7238 12.4119 23.0313 12.5957C23.0313 12.5957 22.7087 12.6594 22.5925 12.8919L22.4762 13.0644L22.4688 12.9369V12.9369Z" fill="#00A651" stroke="black" stroke-width="0.0414062" stroke-miterlimit="4.8"/>
<path d="M22.3333 13.1271C22.3333 13.1271 22.2583 12.7746 22.2095 12.7296C22.1645 12.6809 22.0858 12.6321 21.9883 12.7109C21.9883 12.7109 22.1533 12.5646 22.3258 12.6884C22.502 12.8084 22.4645 13.0034 22.4645 13.0034L22.4458 13.2471L22.3295 13.1384" fill="#00A651"/>
<path d="M22.3333 13.1271C22.3333 13.1271 22.2583 12.7746 22.2095 12.7296C22.1645 12.6809 22.0858 12.6321 21.9883 12.7109C21.9883 12.7109 22.1533 12.5646 22.3258 12.6884C22.502 12.8084 22.4645 13.0034 22.4645 13.0034L22.4458 13.2471L22.3295 13.1384" stroke="black" stroke-width="0.0414062" stroke-miterlimit="4.8"/>
<path d="M22.6074 13.5483C22.6074 13.5483 22.2961 12.9596 22.0936 13.3796C22.0936 13.3796 22.0561 13.4883 22.0974 13.5296C22.0974 13.5296 21.9849 13.4433 22.0374 13.2371C22.0899 13.0308 22.4311 13.1246 22.5324 13.2933C22.6299 13.4621 22.6561 13.5483 22.6449 13.5558C22.6299 13.5671 22.6074 13.5483 22.6074 13.5483ZM23.4811 13.7171C23.4811 13.7171 23.7061 13.2521 23.8374 13.4621C23.8374 13.4621 23.8749 13.5671 23.8186 13.6121C23.8186 13.6121 23.7286 13.4996 23.6499 13.6346C23.5674 13.7658 23.6011 13.7546 23.6011 13.7546C23.6011 13.7546 23.5186 13.7771 23.4811 13.7171Z" fill="#00A651" stroke="black" stroke-width="0.0414062" stroke-miterlimit="4.8"/>
<path d="M23.8164 13.6109C23.8164 13.6109 23.9402 13.6747 23.8989 13.8059C23.8989 13.8059 24.0639 13.4909 23.8389 13.4609C23.8389 13.4609 23.8802 13.5622 23.8202 13.6109H23.8164ZM23.8352 13.2884C23.8352 13.2884 24.1314 13.3747 24.1389 13.5022C24.1389 13.5022 24.1914 13.2547 24.0227 13.1797C24.0227 13.1797 23.8202 13.2172 23.8352 13.2922V13.2884Z" fill="#00A651" stroke="black" stroke-width="0.0414062" stroke-miterlimit="4.8"/>
<path d="M23.9655 12.8997C24.093 12.6522 24.2505 12.9784 24.2505 12.9784C24.2505 12.9784 24.3067 12.7197 24.1492 12.6747C23.988 12.6259 23.8867 13.2259 23.8867 13.2259L23.6992 13.2634C23.6992 13.2634 23.748 12.7459 24.0292 12.7009H24.0667" fill="#00A651"/>
<path d="M23.9655 12.8997C24.093 12.6522 24.2505 12.9784 24.2505 12.9784C24.2505 12.9784 24.3067 12.7197 24.1492 12.6747C23.988 12.6259 23.8867 13.2259 23.8867 13.2259L23.6992 13.2634C23.6992 13.2634 23.748 12.7459 24.0292 12.7009H24.0667" stroke="black" stroke-width="0.0414062" stroke-miterlimit="4.8"/>
<path d="M23.7381 13.0496C23.7381 13.0496 23.5581 12.6821 23.4381 12.6446C23.3181 12.6071 23.5018 12.5509 23.5768 12.6221C23.6518 12.6934 23.7943 12.7834 23.7793 12.9709L23.7381 13.0496ZM23.5506 13.5521C23.5506 13.5521 23.6031 13.3046 23.7456 13.2296C23.8881 13.1546 24.0193 13.1809 24.0193 13.1809C24.0193 13.1809 23.8506 13.2184 23.8206 13.3046C23.7943 13.3871 23.7456 13.3946 23.7456 13.3946L23.5543 13.5521H23.5506Z" fill="#00A651" stroke="black" stroke-width="0.0414062" stroke-miterlimit="4.8"/>
<path d="M23.4762 13.7168C23.4762 13.7168 23.4012 13.8668 23.4162 13.8893C23.4162 13.8893 23.3337 14.013 23.3675 14.0768C23.3675 14.0768 23.45 14.1405 23.4875 14.1143C23.4875 14.1143 23.585 13.9755 23.5587 13.9005C23.5587 13.9005 23.6262 13.8105 23.6 13.7543C23.6 13.7543 23.5025 13.758 23.48 13.7168H23.4762Z" fill="#964B36" stroke="black" stroke-width="0.0414062" stroke-miterlimit="4.8"/>
<path d="M23.0628 13.4466C23.0703 13.4504 23.1191 13.4729 23.1491 13.4616L23.1716 13.4429L23.1528 13.4354C23.1416 13.4579 23.0891 13.4391 23.0741 13.4316L23.0666 13.4466H23.0628ZM23.0591 13.5966L23.0516 13.6154C23.0553 13.6154 23.1528 13.6341 23.1978 13.5929L23.1828 13.5779C23.1453 13.6116 23.0591 13.5929 23.0553 13.5929L23.0591 13.5966ZM23.0328 13.7616L23.0216 13.7766C23.0216 13.7766 23.1341 13.8554 23.2053 13.7691L23.1866 13.7579C23.1303 13.8291 23.0366 13.7654 23.0328 13.7579V13.7616ZM22.6016 13.7841L22.6053 13.7954C22.6091 13.7954 22.7028 13.7579 22.7103 13.6866H22.6991C22.6953 13.7466 22.6053 13.7841 22.6016 13.7841V13.7841ZM22.6541 13.8704V13.8816C22.6616 13.8816 22.7478 13.8741 22.7628 13.8141H22.7516C22.7366 13.8629 22.6578 13.8704 22.6541 13.8704V13.8704ZM22.6728 13.9604V13.9716C22.6766 13.9716 22.7741 13.9754 22.8078 13.9229L22.7966 13.9154C22.7666 13.9641 22.6728 13.9604 22.6728 13.9604ZM23.4116 13.8966C23.4116 13.8966 23.4528 13.9416 23.5016 13.9379C23.5137 13.9377 23.5257 13.9349 23.5366 13.9297C23.5476 13.9245 23.5574 13.9171 23.5653 13.9079L23.5503 13.8929C23.5353 13.9116 23.5203 13.9191 23.5016 13.9191C23.4641 13.9191 23.4266 13.8816 23.4266 13.8816L23.4116 13.8966Z" fill="black"/>
<path d="M26.3277 14.2408C26.3232 14.2438 26.3194 14.2476 26.3164 14.252L26.3314 14.2408H26.3277ZM26.6764 14.1545C26.6727 14.147 26.6689 14.1508 26.6652 14.147L26.6502 14.117H26.6389L26.6127 14.0645C26.6141 14.0609 26.6141 14.0569 26.6127 14.0533C26.6128 14.0483 26.6128 14.0433 26.6127 14.0383C26.6127 14.0383 26.6052 14.0383 26.6014 14.0308V13.9708L26.5977 13.952C26.59 13.9397 26.5861 13.9253 26.5864 13.9108V13.8733C26.5902 13.8583 26.5827 13.8508 26.5827 13.8358L26.5864 13.802V13.5995L26.5827 13.562L26.5789 13.547V13.487V13.5845L26.5714 13.4233L26.4439 13.3633C26.4439 13.3633 26.4327 13.5958 26.4364 13.6258C26.4364 13.6595 26.4514 13.877 26.4439 13.9033L26.4252 14.0645C26.4252 14.0645 26.3652 14.1095 26.3427 14.1545C26.3164 14.2033 26.3239 14.2183 26.3164 14.2183L26.3727 14.2108L26.3314 14.2408C26.3357 14.239 26.3404 14.2384 26.345 14.2391C26.3497 14.2398 26.354 14.2416 26.3577 14.2445L26.3652 14.252L26.3727 14.2445C26.3839 14.2445 26.3914 14.2595 26.3989 14.2558L26.4139 14.2483L26.4214 14.2333C26.4252 14.2295 26.4327 14.2333 26.4364 14.2333H26.4627C26.4739 14.2333 26.4852 14.2145 26.4964 14.207C26.5039 14.1995 26.5114 14.1958 26.5227 14.1958C26.5339 14.1958 26.5452 14.207 26.5602 14.207C26.5677 14.207 26.5714 14.207 26.5789 14.1995L26.5939 14.177L26.6239 14.1733L26.6389 14.177H26.6614L26.6727 14.1845L26.6802 14.1695L26.6764 14.1545V14.1545Z" fill="#964B36" stroke="black" stroke-width="0.0248437" stroke-miterlimit="4.8"/>
<path d="M26.4198 14.2375H26.4423V14.245C26.4434 14.2456 26.4447 14.246 26.4461 14.246C26.4474 14.246 26.4487 14.2456 26.4498 14.245L26.4611 14.2525H26.4723L26.4873 14.2562C26.4948 14.26 26.5023 14.2562 26.5098 14.2525C26.5173 14.245 26.5211 14.2525 26.5323 14.26C26.5361 14.2637 26.5361 14.2637 26.5398 14.26L26.5436 14.2562L26.5548 14.2525L26.5661 14.2487L26.5811 14.2412L26.5961 14.2487C26.5985 14.2484 26.6011 14.2484 26.6036 14.2487L26.6298 14.23C26.6411 14.2225 26.6486 14.23 26.6561 14.23H26.6673C26.6711 14.2262 26.6748 14.23 26.6823 14.23C26.6823 14.2262 26.6823 14.2225 26.6898 14.2187L26.7161 14.2337C26.7198 14.2375 26.7423 14.2412 26.7386 14.2262C26.7386 14.2112 26.7236 14.2225 26.7198 14.2112V14.1887C26.718 14.1825 26.714 14.1772 26.7086 14.1737C26.7011 14.1737 26.7011 14.1775 26.6936 14.1737L26.6861 14.1512L26.6748 14.1587C26.6673 14.1587 26.6673 14.155 26.6636 14.1475C26.6523 14.1362 26.6486 14.155 26.6373 14.1512C26.6298 14.1512 26.6223 14.1325 26.6186 14.125C26.6148 14.1212 26.6073 14.1062 26.5998 14.11C26.5923 14.1137 26.5998 14.1287 26.5998 14.1362H26.5811C26.5736 14.1362 26.5736 14.1362 26.5698 14.1437C26.5623 14.1587 26.5586 14.17 26.5436 14.1662C26.5398 14.1662 26.5323 14.1625 26.5286 14.1662L26.5098 14.1737C26.5049 14.1747 26.4998 14.1747 26.4948 14.1737L26.4798 14.1587C26.4798 14.1577 26.4794 14.1568 26.4787 14.1561C26.478 14.1554 26.4771 14.155 26.4761 14.155C26.4751 14.155 26.4741 14.1554 26.4734 14.1561C26.4727 14.1568 26.4723 14.1577 26.4723 14.1587C26.4711 14.1562 26.4698 14.1537 26.4686 14.1512C26.4611 14.1512 26.4611 14.1512 26.4573 14.1625L26.4536 14.1812L26.4423 14.1962L26.4273 14.2C26.4198 14.2 26.4123 14.2112 26.4123 14.2C26.4048 14.185 26.4236 14.1587 26.4048 14.1625C26.4011 14.1625 26.3973 14.1625 26.3936 14.17V14.1962C26.3898 14.2075 26.3673 14.2262 26.3711 14.2337C26.3711 14.245 26.3861 14.2337 26.3861 14.2337L26.3936 14.2487C26.4011 14.26 26.4198 14.2337 26.4198 14.2487M26.3411 14.1475V14.14L26.3261 14.1362C26.3186 14.1362 26.3111 14.1475 26.3073 14.1512C26.2998 14.1662 26.2998 14.1887 26.2848 14.1887H26.2661V14.2262C26.2661 14.2262 26.2586 14.2262 26.2586 14.2337C26.2548 14.2487 26.2661 14.2412 26.2736 14.2412H26.3111L26.3298 14.2375C26.3373 14.2375 26.3448 14.2375 26.3486 14.23C26.3516 14.2252 26.3541 14.2202 26.3561 14.215V14.2C26.3561 14.1925 26.3673 14.1962 26.3673 14.185C26.3711 14.1587 26.3448 14.1775 26.3486 14.1512" fill="#964B36"/>
<path d="M26.4198 14.2375H26.4423V14.245C26.4434 14.2456 26.4447 14.246 26.4461 14.246C26.4474 14.246 26.4487 14.2456 26.4498 14.245L26.4611 14.2525H26.4723L26.4873 14.2562C26.4948 14.26 26.5023 14.2562 26.5098 14.2525C26.5173 14.245 26.5211 14.2525 26.5323 14.26C26.5361 14.2637 26.5361 14.2637 26.5398 14.26L26.5436 14.2562L26.5548 14.2525L26.5661 14.2487L26.5811 14.2412L26.5961 14.2487C26.5985 14.2484 26.6011 14.2484 26.6036 14.2487L26.6298 14.23C26.6411 14.2225 26.6486 14.23 26.6561 14.23H26.6673C26.6711 14.2262 26.6748 14.23 26.6823 14.23C26.6823 14.2262 26.6823 14.2225 26.6898 14.2187L26.7161 14.2337C26.7198 14.2375 26.7423 14.2412 26.7386 14.2262C26.7386 14.2112 26.7236 14.2225 26.7198 14.2112V14.1887C26.718 14.1825 26.714 14.1772 26.7086 14.1737C26.7011 14.1737 26.7011 14.1775 26.6936 14.1737L26.6861 14.1512L26.6748 14.1587C26.6673 14.1587 26.6673 14.155 26.6636 14.1475C26.6523 14.1362 26.6486 14.155 26.6373 14.1512C26.6298 14.1512 26.6223 14.1325 26.6186 14.125C26.6148 14.1212 26.6073 14.1062 26.5998 14.11C26.5923 14.1137 26.5998 14.1287 26.5998 14.1362H26.5811C26.5736 14.1362 26.5736 14.1362 26.5698 14.1437C26.5623 14.1587 26.5586 14.17 26.5436 14.1662C26.5398 14.1662 26.5323 14.1625 26.5286 14.1662L26.5098 14.1737C26.5049 14.1747 26.4998 14.1747 26.4948 14.1737L26.4798 14.1587C26.4798 14.1577 26.4794 14.1568 26.4787 14.1561C26.478 14.1554 26.4771 14.155 26.4761 14.155C26.4751 14.155 26.4741 14.1554 26.4734 14.1561C26.4727 14.1568 26.4723 14.1577 26.4723 14.1587C26.4711 14.1562 26.4698 14.1537 26.4686 14.1512C26.4611 14.1512 26.4611 14.1512 26.4573 14.1625L26.4536 14.1812L26.4423 14.1962L26.4273 14.2C26.4198 14.2 26.4123 14.2112 26.4123 14.2C26.4048 14.185 26.4236 14.1587 26.4048 14.1625C26.4011 14.1625 26.3973 14.1625 26.3936 14.17V14.1962C26.3898 14.2075 26.3673 14.2262 26.3711 14.2337C26.3711 14.245 26.3861 14.2337 26.3861 14.2337L26.3936 14.2487C26.4011 14.26 26.4198 14.2337 26.4198 14.2487M26.3411 14.1475V14.14L26.3261 14.1362C26.3186 14.1362 26.3111 14.1475 26.3073 14.1512C26.2998 14.1662 26.2998 14.1887 26.2848 14.1887H26.2661V14.2262C26.2661 14.2262 26.2586 14.2262 26.2586 14.2337C26.2548 14.2487 26.2661 14.2412 26.2736 14.2412H26.3111L26.3298 14.2375C26.3373 14.2375 26.3448 14.2375 26.3486 14.23C26.3516 14.2252 26.3541 14.2202 26.3561 14.215V14.2C26.3561 14.1925 26.3673 14.1962 26.3673 14.185C26.3711 14.1587 26.3448 14.1775 26.3486 14.1512" stroke="black" stroke-width="0.0248437" stroke-miterlimit="4.8"/>
<path d="M26.6566 13.4202C26.6566 13.4539 26.6341 13.4802 26.6041 13.4802C26.5778 13.4802 26.5516 13.4539 26.5516 13.4202C26.5516 13.3864 26.5778 13.3602 26.6041 13.3602C26.6341 13.3602 26.6566 13.3864 26.6566 13.4202ZM26.4878 13.3452C26.4878 13.3789 26.4653 13.4052 26.4353 13.4052C26.4053 13.4052 26.3828 13.3789 26.3828 13.3452C26.3828 13.3077 26.4091 13.2852 26.4353 13.2852C26.4616 13.2852 26.4878 13.3114 26.4878 13.3452Z" fill="black" stroke="black" stroke-width="0.0414062" stroke-miterlimit="4.8"/>
<path d="M26.5777 13.3686C26.5777 13.4061 26.5552 13.4286 26.5252 13.4286C26.4952 13.4286 26.4727 13.4023 26.4727 13.3686C26.4727 13.3348 26.4952 13.3086 26.5252 13.3086C26.5552 13.3086 26.5777 13.3348 26.5777 13.3686Z" fill="black" stroke="black" stroke-width="0.0414062" stroke-miterlimit="4.8"/>
<path d="M26.4917 13.4233C26.4917 13.457 26.4692 13.4833 26.4392 13.4833C26.4092 13.4833 26.3867 13.457 26.3867 13.4233C26.3867 13.3895 26.4092 13.3633 26.4392 13.3633C26.4692 13.3633 26.4917 13.3895 26.4917 13.4233Z" fill="black" stroke="black" stroke-width="0.0414062" stroke-miterlimit="4.8"/>
<path d="M26.5698 13.472C26.5698 13.502 26.5473 13.532 26.5173 13.532C26.4911 13.532 26.4648 13.5057 26.4648 13.472C26.4648 13.4345 26.4911 13.4082 26.5173 13.4082C26.5473 13.4082 26.5698 13.4345 26.5698 13.4682V13.472Z" fill="black" stroke="black" stroke-width="0.0414062" stroke-miterlimit="4.8"/>
<path d="M26.5958 12.8049C26.5958 12.8049 27.117 12.0774 27.6758 12.8312C27.6758 12.8312 27.6795 12.9062 27.627 12.9887L27.6158 12.9249L27.5783 12.9362L27.5708 12.8987L27.5108 12.8949L27.5295 12.8124L27.4658 12.8649L27.4733 12.8087L27.3983 12.8837L27.4095 12.7224L27.327 12.8612L27.3383 12.7674L27.3083 12.8087L27.2933 12.7524L27.267 12.8087L27.2295 12.7824V12.8199L27.162 12.7637L27.1395 12.8387L27.1058 12.7562L27.0983 12.8124L27.0645 12.7487L27.0608 12.8199L26.952 12.7712L26.9745 12.8387L26.9258 12.8012L26.9333 12.8387L26.862 12.8237L26.8695 12.8649L26.7945 12.8499L26.8058 12.8874L26.7045 12.8762L26.742 12.9137L26.7308 12.9362C26.7308 12.9362 27.2933 12.7487 27.3308 13.4537L27.2295 13.5024L27.2595 13.4462L27.2295 13.4274L27.1433 13.3637L27.1695 13.2737L27.1395 13.2849L27.1358 13.2324L27.1208 13.2399L27.087 13.1912L27.0795 13.2099L27.057 13.1462L27.0308 13.1912L27.0195 13.0862L26.982 13.1537L26.9745 13.1162L26.9633 13.1387L26.9145 13.0824L26.8995 13.1199L26.8808 13.0899L26.8695 13.1274L26.817 13.0749V13.1124L26.7795 13.0862L26.7683 13.1049L26.6895 13.0637L26.6858 13.1012L26.6408 13.0637L26.6295 13.1012C26.6295 13.1012 27.1395 13.3937 26.982 13.8662L26.952 13.9262L26.9445 13.7687L26.8958 13.8512L26.9295 13.6674L26.8958 13.7049L26.892 13.6299L26.8508 13.7049L26.8358 13.6224L26.817 13.6449L26.787 13.5249L26.7645 13.5737L26.727 13.4387L26.697 13.4949L26.6783 13.3787L26.6595 13.4499L26.6033 13.3449L26.5958 13.3862L26.562 13.3037L26.5433 13.3299C26.5433 13.3299 26.4495 13.3262 26.4195 13.3037C26.3933 13.2774 26.3145 13.4424 26.3145 13.4424L26.322 13.3449L26.2883 13.4124V13.3449L26.2283 13.5437L26.2133 13.4012L26.1833 13.5249L26.1683 13.4874L26.157 13.5362L26.1383 13.5174L26.1233 13.5737L26.0933 13.5512V13.6262L26.0633 13.5887L26.0408 13.7012L26.0258 13.6562V13.7049L26.0033 13.6787L25.9808 13.7912L25.9433 13.7424V13.8249L25.9545 13.8849L25.917 13.8662L25.932 13.9637C25.932 13.9637 25.7858 13.6937 25.962 13.4312C26.1345 13.1687 26.3708 13.0937 26.3708 13.0937L26.3445 13.0712V13.0487L26.202 13.1199V13.0787L26.1645 13.1087L26.157 13.0637L26.1345 13.1049L26.1308 13.0862L26.0933 13.1387L26.0783 13.0637L26.0558 13.1537L26.0333 13.0899L25.9845 13.2212V13.1237L25.947 13.2287L25.932 13.1162L25.9058 13.2437V13.1312L25.8608 13.2437L25.8345 13.1312L25.8158 13.2437L25.7858 13.1574L25.7595 13.2849L25.7145 13.1724L25.692 13.3412L25.6658 13.2737L25.6583 13.3974L25.6283 13.3224L25.6583 13.4799L25.6208 13.4199L25.632 13.5174L25.572 13.4087V13.5362L25.542 13.4949L25.527 13.5437C25.527 13.5437 25.5158 13.0562 25.8495 12.9587C26.1833 12.8649 26.397 12.9887 26.397 12.9887L26.2695 12.8837L26.2845 12.8499H26.2395L26.2583 12.8124L26.157 12.8162L26.187 12.7787L26.112 12.7899V12.7674L26.0633 12.8049L26.082 12.7599L26.0183 12.8049L26.0145 12.7412L25.977 12.7937L25.962 12.7374L25.812 12.8874L25.8495 12.7337L25.8233 12.7674L25.8195 12.7299L25.7783 12.7974L25.767 12.7524L25.7483 12.8087L25.7333 12.7412L25.7033 12.8087L25.6658 12.7487L25.6545 12.8274L25.632 12.7862L25.602 12.8462L25.5645 12.8087V12.8462L25.4895 12.8124L25.5045 12.8687L25.4483 12.8237L25.4333 12.8987L25.4033 12.8612L25.377 12.9549L25.3545 12.8649L25.332 12.9362C25.332 12.9362 25.6245 12.1787 26.367 12.6737C26.367 12.6737 26.4495 12.7524 26.4683 12.8087C26.487 12.8649 26.472 12.8162 26.472 12.8162L26.457 12.2949L26.487 12.5199L26.5058 12.4449L26.502 12.5574L26.577 12.3962C26.577 12.3962 26.487 12.6662 26.5208 12.7674C26.5208 12.7674 26.5545 12.4524 26.667 12.4149L26.562 12.6399L26.5958 12.6362L26.5733 12.6812H26.5995L26.5658 12.7562L26.547 12.7937L26.5658 12.8312L26.5958 12.8049V12.8049Z" fill="#00A651" stroke="black" stroke-width="0.0414062" stroke-miterlimit="4.8"/>
<path d="M26.5184 13.1088L26.5334 13.1238C26.5334 13.1238 26.5822 13.0713 26.6609 13.1388L26.6722 13.1238C26.5784 13.0451 26.5222 13.1088 26.5222 13.1088H26.5184ZM26.4959 12.8538V12.8726L26.5297 12.8576L26.5034 12.9026L26.5597 12.8838L26.4922 12.9701L26.5072 12.9813L26.6159 12.8426L26.5484 12.8651L26.5784 12.8163L26.5184 12.8388L26.5297 12.7676H26.5109L26.4959 12.8538V12.8538Z" fill="black"/>
<path d="M26.3994 12.862L26.4219 12.9108L26.3844 12.8958L26.4931 13.0908L26.5081 13.072L26.4856 13.1283L26.5044 13.1358L26.5494 13.0158L26.5344 13.0045L26.4969 13.0533L26.4294 12.937L26.4594 12.9483L26.4294 12.8845L26.4706 12.907V12.8358H26.4519V12.8733L26.3844 12.832L26.3994 12.862V12.862ZM26.3281 13.102L26.3356 13.1208C26.3656 13.1095 26.3919 13.1058 26.4106 13.1133C26.4294 13.1245 26.4369 13.147 26.4369 13.1508L26.4556 13.1433C26.4556 13.1433 26.4481 13.1095 26.4181 13.0983C26.3956 13.087 26.3656 13.087 26.3281 13.102V13.102ZM26.4144 13.3045L26.3956 13.1995H26.4181L26.4331 13.3008L26.4144 13.3045ZM26.5569 13.2895L26.5306 13.207L26.5494 13.2033L26.5756 13.2783L26.5569 13.2895ZM26.6094 13.3458L26.5906 13.267L26.6094 13.2633L26.6319 13.342L26.6094 13.3458Z" fill="black"/>
<path d="M22.5989 15.7571C22.5989 15.7571 22.5089 15.7196 22.4677 15.7496C22.4302 15.7759 22.4339 15.8209 22.4002 15.8171C22.4002 15.8171 22.5352 15.8471 22.5614 15.8134L22.5989 15.7684M22.6139 15.7946C22.6139 15.7946 22.5539 15.8696 22.5764 15.9184C22.5952 15.9634 22.6402 15.9671 22.6289 16.0009C22.6289 16.0009 22.6852 15.8771 22.6589 15.8396C22.6327 15.8021 22.6214 15.7984 22.6214 15.7984M22.5164 15.5809C22.5164 15.5809 22.4227 15.6109 22.4114 15.6559C22.4039 15.7084 22.4339 15.7346 22.4077 15.7571C22.4077 15.7571 22.5277 15.6896 22.5239 15.6446V15.5884M22.5689 15.6146C22.5689 15.6146 22.6139 15.5284 22.5877 15.4871C22.5577 15.4421 22.5127 15.4496 22.5202 15.4121C22.5202 15.4121 22.4827 15.5434 22.5202 15.5771L22.5614 15.6146M22.4789 15.5809C22.4789 15.5809 22.4789 15.4834 22.4414 15.4609C22.3964 15.4346 22.3589 15.4571 22.3477 15.4234C22.3477 15.4234 22.3739 15.5584 22.4152 15.5734L22.4714 15.5846M22.6364 15.7421C22.6364 15.7421 22.7377 15.7046 22.7489 15.8171C22.7564 15.9296 22.7414 15.8921 22.7414 15.8921C22.7414 15.8921 22.6889 15.7721 22.6289 15.7534L22.6364 15.7421Z" fill="#00A651"/>
<path d="M22.5989 15.7571C22.5989 15.7571 22.5089 15.7196 22.4677 15.7496C22.4302 15.7759 22.4339 15.8209 22.4002 15.8171C22.4002 15.8171 22.5352 15.8471 22.5614 15.8134L22.5989 15.7684M22.6139 15.7946C22.6139 15.7946 22.5539 15.8696 22.5764 15.9184C22.5952 15.9634 22.6402 15.9671 22.6289 16.0009C22.6289 16.0009 22.6852 15.8771 22.6589 15.8396C22.6327 15.8021 22.6214 15.7984 22.6214 15.7984M22.5164 15.5809C22.5164 15.5809 22.4227 15.6109 22.4114 15.6559C22.4039 15.7084 22.4339 15.7346 22.4077 15.7571C22.4077 15.7571 22.5277 15.6896 22.5239 15.6446V15.5884M22.5689 15.6146C22.5689 15.6146 22.6139 15.5284 22.5877 15.4871C22.5577 15.4421 22.5127 15.4496 22.5202 15.4121C22.5202 15.4121 22.4827 15.5434 22.5202 15.5771L22.5614 15.6146M22.4789 15.5809C22.4789 15.5809 22.4789 15.4834 22.4414 15.4609C22.3964 15.4346 22.3589 15.4571 22.3477 15.4234C22.3477 15.4234 22.3739 15.5584 22.4152 15.5734L22.4714 15.5846M22.6364 15.7421C22.6364 15.7421 22.7377 15.7046 22.7489 15.8171C22.7564 15.9296 22.7414 15.8921 22.7414 15.8921C22.7414 15.8921 22.6889 15.7721 22.6289 15.7534L22.6364 15.7421Z" stroke="black" stroke-width="0.0414062" stroke-miterlimit="4.8"/>
<path d="M22.6131 15.797L22.6206 15.8795H22.6356L22.6244 15.797L22.6619 15.6133H22.6469L22.6094 15.797H22.6131Z" fill="black"/>
<path d="M22.5194 15.7712L22.5156 15.7825C22.5644 15.8012 22.6281 15.745 22.6319 15.745L22.6244 15.7337C22.6244 15.7337 22.5606 15.7825 22.5194 15.7712ZM22.6469 15.6625L22.4219 15.55L22.4294 15.5312L22.6544 15.6438L22.6469 15.6625Z" fill="black"/>
<path d="M22.4837 15.637L22.4688 15.622L22.5137 15.577L22.5288 15.592L22.4837 15.637ZM22.5625 15.6145L22.5137 15.5095L22.5325 15.502L22.5812 15.607L22.5625 15.6145ZM22.63 15.742V15.7645C22.6937 15.7607 22.705 15.802 22.705 15.802L22.7275 15.7945C22.7275 15.7832 22.7012 15.7382 22.63 15.742V15.742Z" fill="black"/>
<path d="M23.6725 15.7867C23.7475 15.7492 23.7625 15.5992 23.7625 15.5992C23.7438 15.6517 23.605 15.708 23.605 15.708C23.7062 15.6442 23.83 15.3555 23.83 15.3555C23.8 15.4567 23.53 15.543 23.3575 15.6405C23.185 15.738 23.275 16.0155 23.275 16.0155C23.2263 15.9817 23.1325 15.8355 23.1137 15.7042C23.095 15.573 23.0462 15.5205 22.9262 15.5055C22.81 15.4905 22.7387 15.6255 22.7387 15.6255L22.5625 15.7155L22.7425 15.723C22.7425 15.723 22.87 15.7642 22.87 15.8655C22.87 15.963 22.7575 16.3642 22.945 16.5892C23.0687 16.743 23.545 16.833 23.545 16.833" fill="white"/>
<path d="M23.6725 15.7867C23.7475 15.7492 23.7625 15.5992 23.7625 15.5992C23.7438 15.6517 23.605 15.708 23.605 15.708C23.7062 15.6442 23.83 15.3555 23.83 15.3555C23.8 15.4567 23.53 15.543 23.3575 15.6405C23.185 15.738 23.275 16.0155 23.275 16.0155C23.2263 15.9817 23.1325 15.8355 23.1137 15.7042C23.095 15.573 23.0462 15.5205 22.9262 15.5055C22.81 15.4905 22.7387 15.6255 22.7387 15.6255L22.5625 15.7155L22.7425 15.723C22.7425 15.723 22.87 15.7642 22.87 15.8655C22.87 15.963 22.7575 16.3642 22.945 16.5892C23.0687 16.743 23.545 16.833 23.545 16.833" stroke="black" stroke-width="0.0579687" stroke-miterlimit="4.8"/>
<path d="M23.3242 16.0973C23.3242 16.0973 23.3617 15.9173 23.478 15.9248C23.5942 15.9323 23.628 15.7898 23.6992 15.771C23.7705 15.7485 24.1305 15.651 24.168 15.4785C24.168 15.4785 24.1342 15.7635 23.8042 15.906C23.8042 15.906 24.0705 15.8198 24.1042 15.7598C24.1042 15.7598 23.9842 16.0148 23.6955 16.056C23.6955 16.056 23.9655 16.0335 24.003 15.9623C24.003 15.9623 23.883 16.1198 23.6842 16.1423C23.6842 16.1423 23.8717 16.2173 23.9167 16.1535C23.9167 16.1535 23.8155 16.2735 23.6917 16.281L23.7292 16.2885C23.7292 16.2885 23.6092 16.431 23.478 16.3373C23.3467 16.2435 23.343 16.3598 23.343 16.3598" fill="white"/>
<path d="M23.3242 16.0973C23.3242 16.0973 23.3617 15.9173 23.478 15.9248C23.5942 15.9323 23.628 15.7898 23.6992 15.771C23.7705 15.7485 24.1305 15.651 24.168 15.4785C24.168 15.4785 24.1342 15.7635 23.8042 15.906C23.8042 15.906 24.0705 15.8198 24.1042 15.7598C24.1042 15.7598 23.9842 16.0148 23.6955 16.056C23.6955 16.056 23.9655 16.0335 24.003 15.9623C24.003 15.9623 23.883 16.1198 23.6842 16.1423C23.6842 16.1423 23.8717 16.2173 23.9167 16.1535C23.9167 16.1535 23.8155 16.2735 23.6917 16.281L23.7292 16.2885C23.7292 16.2885 23.6092 16.431 23.478 16.3373C23.3467 16.2435 23.343 16.3598 23.343 16.3598" stroke="black" stroke-width="0.0579687" stroke-miterlimit="4.8"/>
<path d="M23.5872 16.3672C23.5872 16.3672 23.7409 16.6222 23.7559 16.7572C23.7559 16.7572 24.0484 17.0759 24.1572 17.0947C24.1572 17.0947 24.1047 17.1172 24.0072 17.0384C24.0072 17.0384 24.0897 17.1209 24.1047 17.1247C24.1197 17.1247 24.0409 17.1172 24.0297 17.0947C24.0438 17.1163 24.0616 17.1353 24.0822 17.1509L24.0634 17.1434C24.0634 17.1434 24.0259 17.1397 24.0034 17.1247C23.9847 17.1097 23.9997 17.1622 23.9997 17.1622C23.9997 17.1622 23.9547 17.1509 23.9397 17.1359C23.9247 17.1209 23.9434 17.1697 23.9434 17.1697L23.9059 17.1584L23.8759 17.1772C23.8759 17.1772 23.8759 17.1959 23.8572 17.1772C23.8384 17.1659 23.8047 17.1772 23.8047 17.1772C23.8047 17.1772 23.7822 17.1997 23.7672 17.1847C23.7559 17.1697 23.7109 17.2447 23.7109 17.2447L23.5234 16.7834" fill="white"/>
<path d="M23.5872 16.3672C23.5872 16.3672 23.7409 16.6222 23.7559 16.7572C23.7559 16.7572 24.0484 17.0759 24.1572 17.0947C24.1572 17.0947 24.1047 17.1172 24.0072 17.0384C24.0072 17.0384 24.0897 17.1209 24.1047 17.1247C24.1197 17.1247 24.0409 17.1172 24.0297 17.0947C24.0438 17.1163 24.0616 17.1353 24.0822 17.1509L24.0634 17.1434C24.0634 17.1434 24.0259 17.1397 24.0034 17.1247C23.9847 17.1097 23.9997 17.1622 23.9997 17.1622C23.9997 17.1622 23.9547 17.1509 23.9397 17.1359C23.9247 17.1209 23.9434 17.1697 23.9434 17.1697L23.9059 17.1584L23.8759 17.1772C23.8759 17.1772 23.8759 17.1959 23.8572 17.1772C23.8384 17.1659 23.8047 17.1772 23.8047 17.1772C23.8047 17.1772 23.7822 17.1997 23.7672 17.1847C23.7559 17.1697 23.7109 17.2447 23.7109 17.2447L23.5234 16.7834" stroke="black" stroke-width="0.0579687" stroke-miterlimit="4.8"/>
<path d="M23.7712 17.2005L23.5312 16.743L23.5538 16.728L23.7938 17.1892L23.7712 17.2005ZM23.9813 17.1705L23.5688 16.7092L23.5913 16.6905L24.0038 17.1517L23.9813 17.1705ZM24.075 17.133L23.6063 16.6867L23.625 16.668L24.0938 17.1067L24.075 17.133Z" fill="black"/>
<path d="M22.8975 15.6511C22.8975 15.6511 22.8676 15.5962 22.8402 15.6187C22.8152 15.6386 22.8003 15.6436 22.7953 15.6411C22.7953 15.6411 22.8202 15.6411 22.8377 15.6286C22.8526 15.6137 22.8776 15.6212 22.8975 15.6536V15.6511ZM22.733 15.6262L22.7504 15.6611L22.7305 15.7184L22.7454 15.7234L22.7629 15.6611L22.7454 15.6212L22.733 15.6262V15.6262Z" fill="black"/>
<path d="M22.892 15.6445C22.892 15.6445 22.867 15.6695 22.8371 15.6645L22.8047 15.657H22.8496C22.867 15.657 22.8895 15.6495 22.892 15.6445Z" fill="black"/>
<path d="M22.8855 15.6493C22.8855 15.6493 22.8558 15.6196 22.8359 15.6295C22.8359 15.6295 22.8706 15.6171 22.8904 15.6469L22.8855 15.6493Z" fill="black"/>
<path d="M22.878 15.6436C22.878 15.6436 22.8458 15.6659 22.8111 15.6436L22.8086 15.6387H22.8135C22.8135 15.6387 22.8557 15.656 22.878 15.6436Z" fill="black"/>
<path d="M22.8535 15.6484C22.8588 15.6484 22.8632 15.644 22.8632 15.6386C22.8632 15.6333 22.8588 15.6289 22.8535 15.6289C22.8481 15.6289 22.8438 15.6333 22.8438 15.6386C22.8438 15.644 22.8481 15.6484 22.8535 15.6484Z" fill="black"/>
<path d="M22.8753 16.4844C22.8753 16.4844 22.849 16.5294 22.864 16.5594C22.8753 16.5856 22.939 16.5969 22.9428 16.6344C22.9503 16.6719 22.9728 16.6719 22.999 16.6719L23.0328 16.6606C23.0328 16.6606 22.9165 16.6006 22.8828 16.4994L22.8753 16.4844Z" fill="black"/>
<path d="M26.6036 15.5539C26.6036 15.5539 26.8136 15.2764 27.0011 15.3476C27.1886 15.4226 27.3049 15.4601 27.3049 15.4601C27.3049 15.4601 27.3086 15.6439 27.2111 15.6439C27.1136 15.6439 27.0161 15.4564 26.9261 15.5126C26.8581 15.5509 26.8002 15.6049 26.7574 15.6701C26.7536 15.6964 26.5211 15.7001 26.6036 15.5539V15.5539Z" fill="#964B36" stroke="black" stroke-width="0.0248437" stroke-miterlimit="4.8"/>
<path d="M25.8099 16.8896C25.8099 16.8896 25.7499 16.9496 25.7762 16.9646C25.8024 16.9796 25.8549 16.9646 25.8549 16.9421C25.8549 16.9196 25.8174 16.8821 25.8099 16.8896Z" fill="#964B36" stroke="black" stroke-width="0.0414062" stroke-miterlimit="4.8"/>
<path d="M25.764 16.9494C25.764 16.9494 25.6515 16.8856 25.569 17.0319C25.4827 17.1744 25.4152 17.4106 25.3665 17.4444C25.3177 17.4744 25.8465 17.2119 25.854 17.0994C25.854 17.0994 25.8877 16.9569 25.8315 16.9606C25.7752 16.9606 25.7715 16.9681 25.7602 16.9456L25.764 16.9494Z" fill="#964B36" stroke="black" stroke-width="0.0414062" stroke-miterlimit="4.8"/>
<path d="M25.7756 16.9645C25.7756 16.9645 25.6631 16.9908 25.6406 17.1483C25.6181 17.3058 25.4644 17.3845 25.4531 17.392M27.3056 15.457C27.3056 15.457 27.1406 15.517 27.1669 15.6333Z" fill="#964B36"/>
<path d="M25.7756 16.9645C25.7756 16.9645 25.6631 16.9908 25.6406 17.1483C25.6181 17.3058 25.4644 17.3845 25.4531 17.392M27.3056 15.457C27.3056 15.457 27.1406 15.517 27.1669 15.6333" stroke="black" stroke-width="0.0248437" stroke-miterlimit="4.8"/>
<path d="M26.0156 15.797C26.0156 15.797 26.0231 15.3995 26.3494 15.4145C26.4094 15.422 26.3794 15.4932 26.3794 15.4932C26.3794 15.4932 26.4544 15.4445 26.4844 15.5232C26.4844 15.5232 26.5856 15.4782 26.5969 15.5795C26.5969 15.5795 26.7094 15.5645 26.6944 15.6545C26.6944 15.6545 26.7694 15.6357 26.7694 15.6995C26.7694 15.6995 26.8556 15.6657 26.8444 15.7557C26.8444 15.7557 26.9419 15.692 26.9306 15.8082C26.9306 15.8082 27.0281 15.737 27.0619 15.8532C27.0994 15.9732 26.9644 16.2207 26.8331 16.2845" fill="#FFF200"/>
<path d="M26.0156 15.797C26.0156 15.797 26.0231 15.3995 26.3494 15.4145C26.4094 15.422 26.3794 15.4932 26.3794 15.4932C26.3794 15.4932 26.4544 15.4445 26.4844 15.5232C26.4844 15.5232 26.5856 15.4782 26.5969 15.5795C26.5969 15.5795 26.7094 15.5645 26.6944 15.6545C26.6944 15.6545 26.7694 15.6357 26.7694 15.6995C26.7694 15.6995 26.8556 15.6657 26.8444 15.7557C26.8444 15.7557 26.9419 15.692 26.9306 15.8082C26.9306 15.8082 27.0281 15.737 27.0619 15.8532C27.0994 15.9732 26.9644 16.2207 26.8331 16.2845" stroke="black" stroke-width="0.0248437" stroke-miterlimit="4.8"/>
<path d="M26.9236 15.824C26.9236 15.824 26.9648 16.1315 26.7923 16.2477L26.7961 16.2552C26.9798 16.1427 26.9348 15.824 26.9348 15.8202H26.9236V15.824ZM26.7098 16.1615L26.7173 16.169C26.8298 16.0602 26.8561 15.7715 26.8561 15.7565H26.8448C26.8448 15.7565 26.8186 16.0565 26.7098 16.1615V16.1615ZM26.6086 16.0902H26.6198C26.6427 15.9519 26.6952 15.8202 26.7736 15.704L26.7661 15.7002C26.7661 15.7002 26.6236 15.9065 26.6086 16.0902V16.0902ZM26.5261 16.0377H26.5373C26.5561 15.824 26.7023 15.6627 26.7023 15.659L26.6948 15.6515C26.6948 15.6515 26.5448 15.8202 26.5261 16.0377V16.0377ZM26.4136 15.9627H26.4248C26.4361 15.7115 26.6048 15.5877 26.6048 15.5877L26.5973 15.5765C26.5973 15.5765 26.4248 15.704 26.4098 15.9665L26.4136 15.9627ZM26.3086 15.9027H26.3198C26.3123 15.6702 26.4886 15.5277 26.4923 15.5277L26.4848 15.5202C26.4848 15.5202 26.2973 15.6627 26.3086 15.9027V15.9027ZM26.1211 15.8165H26.1323C26.1411 15.7454 26.1696 15.6781 26.2147 15.6224C26.2598 15.5667 26.3196 15.5248 26.3873 15.5015V15.4902C26.3166 15.5138 26.2541 15.557 26.2069 15.6148C26.1598 15.6725 26.13 15.7425 26.1211 15.8165V15.8165Z" fill="black"/>
<path d="M25.8228 16.2808C25.8228 16.2808 25.7665 15.9096 25.9878 15.7933C25.9878 15.7933 26.029 15.7858 26.0515 15.8383C26.0515 15.8383 26.1678 15.7896 26.1715 15.8871C26.1715 15.8871 26.2315 15.8421 26.2465 15.9058C26.2465 15.9058 26.3703 15.8796 26.3478 15.9733C26.3478 15.9733 26.4528 15.9433 26.4415 16.0333C26.4415 16.0333 26.5465 15.9958 26.5315 16.0708C26.5315 16.0708 26.644 16.0483 26.614 16.1383C26.614 16.1383 26.7528 16.1233 26.7115 16.2171C26.7115 16.2171 26.8128 16.1908 26.7865 16.2696C26.7865 16.2696 26.9215 16.2958 26.8615 16.3821C26.7632 16.4993 26.6368 16.5896 26.494 16.6446" fill="#00A651"/>
<path d="M25.8228 16.2808C25.8228 16.2808 25.7665 15.9096 25.9878 15.7933C25.9878 15.7933 26.029 15.7858 26.0515 15.8383C26.0515 15.8383 26.1678 15.7896 26.1715 15.8871C26.1715 15.8871 26.2315 15.8421 26.2465 15.9058C26.2465 15.9058 26.3703 15.8796 26.3478 15.9733C26.3478 15.9733 26.4528 15.9433 26.4415 16.0333C26.4415 16.0333 26.5465 15.9958 26.5315 16.0708C26.5315 16.0708 26.644 16.0483 26.614 16.1383C26.614 16.1383 26.7528 16.1233 26.7115 16.2171C26.7115 16.2171 26.8128 16.1908 26.7865 16.2696C26.7865 16.2696 26.9215 16.2958 26.8615 16.3821C26.7632 16.4993 26.6368 16.5896 26.494 16.6446" stroke="black" stroke-width="0.0248437" stroke-miterlimit="4.8"/>
<path d="M25.7032 16.6527C25.7032 16.6527 25.6132 16.3452 25.7857 16.2665C25.7857 16.2665 25.8194 16.259 25.8232 16.289C25.8232 16.289 25.8607 16.2402 25.8907 16.2852C25.8907 16.2852 25.9769 16.244 25.9994 16.3077C25.9994 16.3077 26.0557 16.259 26.0857 16.3302C26.0857 16.3302 26.1419 16.3077 26.1419 16.3677C26.1419 16.3677 26.2169 16.3302 26.2169 16.4052C26.2169 16.4052 26.2919 16.3752 26.2732 16.4502C26.2732 16.4502 26.3857 16.469 26.3519 16.5215C26.3519 16.5215 26.4532 16.5477 26.4157 16.589C26.4157 16.589 26.5207 16.5777 26.4644 16.649C26.4644 16.649 26.5469 16.6227 26.5019 16.7127C26.4532 16.8027 26.3069 16.9002 26.2019 16.9152" fill="#00A651"/>
<path d="M25.7032 16.6527C25.7032 16.6527 25.6132 16.3452 25.7857 16.2665C25.7857 16.2665 25.8194 16.259 25.8232 16.289C25.8232 16.289 25.8607 16.2402 25.8907 16.2852C25.8907 16.2852 25.9769 16.244 25.9994 16.3077C25.9994 16.3077 26.0557 16.259 26.0857 16.3302C26.0857 16.3302 26.1419 16.3077 26.1419 16.3677C26.1419 16.3677 26.2169 16.3302 26.2169 16.4052C26.2169 16.4052 26.2919 16.3752 26.2732 16.4502C26.2732 16.4502 26.3857 16.469 26.3519 16.5215C26.3519 16.5215 26.4532 16.5477 26.4157 16.589C26.4157 16.589 26.5207 16.5777 26.4644 16.649C26.4644 16.649 26.5469 16.6227 26.5019 16.7127C26.4532 16.8027 26.3069 16.9002 26.2019 16.9152" stroke="black" stroke-width="0.0248437" stroke-miterlimit="4.8"/>
<path d="M25.8128 16.8962C25.8128 16.8962 25.6216 16.7087 25.7116 16.6562C25.7116 16.6562 25.7491 16.6675 25.7678 16.7087C25.7678 16.7087 25.8128 16.6412 25.8428 16.7087C25.8428 16.7087 25.9103 16.6862 25.9103 16.735L25.9628 16.7725C25.9628 16.7725 26.0266 16.7687 26.0153 16.81C26.0153 16.81 26.0866 16.7987 26.0828 16.8362C26.0828 16.8362 26.1428 16.84 26.1391 16.8812C26.1391 16.8812 26.2441 16.9 26.1953 16.9525C26.1953 16.9525 26.0153 16.99 25.8841 16.9375C25.8841 16.9375 25.8203 16.915 25.8128 16.8962V16.8962Z" fill="#00A651" stroke="black" stroke-width="0.0248437" stroke-miterlimit="4.8"/>
<path d="M26.4723 16.5897V16.6009C26.5976 16.5114 26.7067 16.401 26.7948 16.2747L26.7836 16.2672C26.7836 16.2709 26.5811 16.5484 26.4723 16.5897V16.5897ZM26.4048 16.5409L26.4123 16.5522C26.5098 16.4959 26.7086 16.2334 26.7123 16.2222L26.7086 16.2147C26.7048 16.2184 26.5023 16.4847 26.4086 16.5409H26.4048ZM26.3486 16.5184L26.3561 16.5259C26.46 16.4091 26.5482 16.2793 26.6186 16.1397L26.6111 16.1359C26.6111 16.1359 26.4536 16.4322 26.3486 16.5184V16.5184ZM26.2998 16.4509H26.3111C26.3298 16.3084 26.5361 16.0797 26.5361 16.0759L26.5248 16.0722C26.5173 16.0797 26.3186 16.3047 26.2998 16.4509ZM25.8911 16.2747H25.9023C25.8873 16.0684 26.0561 15.8434 26.0598 15.8434L26.0486 15.8359C26.0486 15.8359 25.8723 16.0684 25.8911 16.2747ZM25.9998 16.2934H26.0111C25.9811 16.1284 26.1761 15.8959 26.1761 15.8922L26.1686 15.8847C26.1611 15.8959 25.9698 16.1247 25.9998 16.2934V16.2934ZM26.1648 16.3534H26.1761C26.1686 16.1659 26.3486 15.9784 26.3523 15.9784L26.3448 15.9672C26.3448 15.9709 26.1573 16.1622 26.1648 16.3534ZM25.7711 16.6909H25.7823C25.7148 16.5147 25.8273 16.2934 25.8311 16.2934L25.8198 16.2859C25.8198 16.2859 25.7036 16.5147 25.7711 16.6947V16.6909ZM25.8461 16.7059L25.8573 16.7022C25.7973 16.5259 25.8948 16.2897 25.8948 16.2897L25.8873 16.2822C25.8873 16.2822 25.7861 16.5259 25.8461 16.7059V16.7059ZM26.1573 16.8822V16.8897C26.3448 16.8259 26.4686 16.6534 26.4686 16.6534L26.4573 16.6459C26.4573 16.6459 26.3373 16.8147 26.1573 16.8822ZM26.1198 16.8409V16.8522C26.2698 16.7847 26.4086 16.5972 26.4086 16.5972L26.4011 16.5897C26.4011 16.5897 26.2623 16.7772 26.1198 16.8409ZM26.0823 16.8259L26.0898 16.8372C26.2023 16.7509 26.3523 16.5372 26.3523 16.5372L26.3448 16.5297C26.3448 16.5297 26.1948 16.7434 26.0823 16.8259ZM25.8948 16.7172H25.9098C25.9036 16.575 25.936 16.4337 26.0036 16.3084L25.9923 16.3047C25.9923 16.3047 25.8723 16.5297 25.8986 16.7172H25.8948ZM25.9773 16.7697L25.9848 16.7772C26.1048 16.6684 26.1461 16.3797 26.1461 16.3647H26.1348C26.1348 16.3647 26.0973 16.6647 25.9773 16.7697ZM26.0598 16.7997L26.0673 16.8109C26.1764 16.7194 26.2516 16.594 26.2811 16.4547H26.2698C26.2698 16.4547 26.2248 16.6797 26.0598 16.8034V16.7997ZM26.0786 16.2972V16.3309L25.9511 16.7434L25.9623 16.7472L26.0898 16.3347C26.0711 16.1322 26.2473 15.9109 26.2511 15.9109L26.2398 15.9034C26.2398 15.9034 26.0786 16.1022 26.0786 16.2972Z" fill="black"/>
<path d="M26.2155 16.3987C26.2155 16.4062 26.1742 16.6875 26.0205 16.7925L26.028 16.8038C26.1855 16.695 26.223 16.4175 26.223 16.4025C26.2905 16.3237 26.448 16.0388 26.448 16.0388L26.4405 16.0312C26.4405 16.0312 26.283 16.3162 26.2155 16.3987V16.3987ZM25.7655 16.71C25.7655 16.7138 25.788 16.86 25.818 16.905L25.8292 16.9013C25.7992 16.8525 25.773 16.71 25.773 16.7062L25.7617 16.71H25.7655ZM25.8367 16.71L25.833 16.9087H25.8442V16.71H25.8367V16.71Z" fill="black"/>
<path d="M25.8398 16.9126L25.8511 16.9163C25.8998 16.8113 25.9148 16.7363 25.9148 16.7363H25.9036C25.9036 16.7363 25.8886 16.8076 25.8398 16.9126ZM25.8511 16.9163L25.8586 16.9276C25.9143 16.8943 25.9547 16.8404 25.9711 16.7776H25.9598C25.9598 16.7776 25.9373 16.8676 25.8511 16.9163V16.9163ZM25.8698 16.9238V16.9351C25.9598 16.9276 26.0198 16.8188 26.0198 16.8113H26.0123C26.0123 16.8113 25.9523 16.9163 25.8698 16.9238Z" fill="black"/>
<path d="M25.875 16.9297V16.9409C26.0213 16.9297 26.085 16.8434 26.085 16.8397L26.0775 16.8359C26.0775 16.8359 26.0138 16.9184 25.875 16.9297Z" fill="black"/>
<path d="M25.8867 16.9296V16.9409C25.8905 16.9409 26.0742 16.9821 26.138 16.8884L26.1267 16.8809C26.0705 16.9709 25.8867 16.9334 25.8867 16.9296V16.9296Z" fill="black"/>
<path d="M21.7852 10.2441V15.3591C21.7852 17.0316 24.8077 18.0216 24.8077 18.0216C24.8077 18.0216 27.8264 17.0316 27.8264 15.3591V10.2441H21.7852Z" stroke="black" stroke-width="0.231875" stroke-miterlimit="4.8"/>
<path d="M6 3H18V12H6V3Z" fill="#012169"/>
<path d="M7.40625 3L11.9813 6.39375L16.5375 3H18V4.1625L13.5 7.51875L18 10.8563V12H16.5L12 8.64375L7.51875 12H6V10.875L10.4813 7.5375L6 4.2V3H7.40625Z" fill="white"/>
<path d="M13.95 8.26875L18 11.25V12L12.9188 8.26875H13.95ZM10.5 8.64375L10.6125 9.3L7.0125 12H6L10.5 8.64375ZM18 3V3.05625L13.3313 6.58125L13.3688 5.75625L17.0625 3H18ZM6 3L10.4813 6.3H9.35625L6 3.7875V3Z" fill="#C8102E"/>
<path d="M10.5188 3V12H13.5188V3H10.5188ZM6 6V9H18V6H6Z" fill="white"/>
<path d="M6 6.61875V8.41875H18V6.61875H6ZM11.1188 3V12H12.9188V3H11.1188Z" fill="#C8102E"/>
</g>
</g>
<defs>
<filter id="filter0_d_336_26579" x="0" y="-2" width="36" height="36" filterUnits="userSpaceOnUse" color-interpolation-filters="sRGB">
<feFlood flood-opacity="0" result="BackgroundImageFix"/>
<feColorMatrix in="SourceAlpha" type="matrix" values="0 0 0 0 0 0 0 0 0 0 0 0 0 0 0 0 0 0 127 0" result="hardAlpha"/>
<feOffset dy="4"/>
<feGaussianBlur stdDeviation="3"/>
<feComposite in2="hardAlpha" operator="out"/>
<feColorMatrix type="matrix" values="0 0 0 0 0 0 0 0 0 0 0 0 0 0 0 0 0 0 0.16 0"/>
<feBlend mode="normal" in2="BackgroundImageFix" result="effect1_dropShadow_336_26579"/>
<feBlend mode="normal" in="SourceGraphic" in2="effect1_dropShadow_336_26579" result="shape"/>
</filter>
<clipPath id="clip0_336_26579">
<rect width="24" height="18" fill="white" transform="translate(6 3)"/>
</clipPath>
</defs>
</svg>
