<svg width="36" height="31" viewBox="0 0 36 31" fill="none" xmlns="http://www.w3.org/2000/svg">
<g filter="url(#filter0_d_336_31597)">
<g clip-path="url(#clip0_336_31597)">
<path fill-rule="evenodd" clip-rule="evenodd" d="M4.34766 3H40.3477V21H4.34766V3Z" fill="white"/>
<path fill-rule="evenodd" clip-rule="evenodd" d="M4.34766 14.998H40.3477V20.9992H4.34766V14.998Z" fill="#D50000"/>
<path fill-rule="evenodd" clip-rule="evenodd" d="M4.34766 9.00195H40.3477V14.9996H4.34766V9.00195Z" fill="#0000BF"/>
<path fill-rule="evenodd" clip-rule="evenodd" d="M14.5559 6.26953C14.4152 8.43516 14.3309 9.62344 14.0039 10.1719C13.6453 10.7625 13.3008 11.1949 11.9051 11.7188C10.5129 11.1949 10.1684 10.7625 9.80977 10.1719C9.4793 9.62344 9.39844 8.43516 9.25781 6.26953L9.46172 6.19922C9.87656 6.07266 10.1859 5.9707 10.4145 5.925C10.7414 5.85469 11.0227 5.77734 11.9016 5.75977C12.7805 5.77383 13.0617 5.8582 13.3887 5.92852C13.6137 5.97773 13.9371 6.06914 14.3484 6.19922L14.5559 6.26953Z" fill="#D50000"/>
<path fill-rule="evenodd" clip-rule="evenodd" d="M14.3512 6.19922C14.2176 8.36133 14.1051 9.35273 13.9293 9.82734C13.5918 10.643 13.0574 11.0895 11.9043 11.5148C10.7512 11.0895 10.2168 10.643 9.87578 9.82734C9.7 9.34922 9.59453 8.36133 9.46094 6.1957C9.86875 6.06914 10.1852 5.9707 10.4137 5.925C10.7406 5.85469 11.0219 5.77383 11.9008 5.75977C12.7797 5.77383 13.0609 5.85469 13.3879 5.925C13.7133 5.99908 14.0348 6.08943 14.3512 6.1957V6.19922Z" fill="#0000BF"/>
<path fill-rule="evenodd" clip-rule="evenodd" d="M11.9055 6.85938L11.9582 6.98945L12.2043 7.02461L12.0461 7.11953L12.1973 7.22148L11.9758 7.25664L11.9055 7.37617L11.8352 7.25312L11.6242 7.225L11.7648 7.11953L11.6172 7.02461L11.8527 6.98945L11.9055 6.85938V6.85938Z" fill="#FFDF00"/>
<path fill-rule="evenodd" clip-rule="evenodd" d="M13.8492 9.31328L13.7121 9.20781L13.6172 9.04609L13.4273 8.88086L13.3254 8.71563L13.1355 8.54336L13.0441 8.37812L12.9387 8.29727L12.8754 8.23047L12.6996 8.38164L12.6082 8.54688L12.4922 8.65234L12.3621 8.55039L12.2672 8.38164L11.9051 7.73828L11.543 8.38164L11.448 8.55039L11.318 8.65234L11.202 8.54688L11.107 8.38164L10.9348 8.23047L10.868 8.29375L10.766 8.37812L10.6746 8.54336L10.4848 8.71563L10.3828 8.88086L10.193 9.04609L10.098 9.20781L9.96094 9.31328C10.0382 9.7972 10.2672 10.2441 10.6148 10.5895C10.992 10.9122 11.4293 11.1572 11.9016 11.3102C12.3774 11.1606 12.8177 10.9153 13.1953 10.5895C13.3992 10.3785 13.7789 9.91094 13.8492 9.31328V9.31328Z" fill="white"/>
<path fill-rule="evenodd" clip-rule="evenodd" d="M12.484 5.94883L12.5402 6.07891L12.7863 6.11406L12.6246 6.20898L12.7793 6.31094L12.5578 6.34609L12.4875 6.46562L12.4172 6.34258L12.2062 6.31445L12.3469 6.20898L12.1992 6.11406L12.4312 6.07891L12.4875 5.94883H12.484ZM11.3238 5.94883L11.3801 6.07891L11.6262 6.11055L11.468 6.20547L11.6191 6.30742L11.3977 6.34258L11.3273 6.46211L11.257 6.34258L11.0461 6.31094L11.1867 6.20547L11.0391 6.11055L11.2746 6.07539L11.3273 5.94531L11.3238 5.94883Z" fill="#FFDF00"/>
<path fill-rule="evenodd" clip-rule="evenodd" d="M13.5461 10.1363H13.2859L13.0398 10.1188L12.748 9.97813H12.4176L12.1328 10.1188L11.9043 10.1398L11.6793 10.1188L11.3945 9.97813H11.0605L10.7652 10.1188L10.5227 10.1398L10.2555 10.1363L10.1289 9.91836L10.1324 9.91133L10.5262 9.97813L10.7687 9.96055L11.0605 9.81641H11.391L11.6793 9.95703L11.9043 9.97813L12.1328 9.95703L12.4176 9.81641H12.748L13.0434 9.95703L13.2859 9.97813L13.6656 9.90781L13.6727 9.92188L13.5426 10.1363H13.5461ZM10.5086 10.4703L10.7687 10.4527L11.0605 10.3121H11.391L11.6793 10.4527L11.9043 10.4703L12.1293 10.4527L12.4176 10.3121H12.748L13.0398 10.4527L13.3035 10.4703L13.4723 10.2594H13.4688L13.2859 10.3086L13.0434 10.291L12.7516 10.1504H12.4211L12.1328 10.291L11.9078 10.3121L11.6793 10.291L11.3945 10.1504H11.0605L10.7652 10.291L10.5227 10.3121L10.3469 10.2664V10.2734L10.5051 10.4703H10.5086Z" fill="#0000BF"/>
</g>
</g>
<defs>
<filter id="filter0_d_336_31597" x="0" y="-2" width="36" height="36" filterUnits="userSpaceOnUse" color-interpolation-filters="sRGB">
<feFlood flood-opacity="0" result="BackgroundImageFix"/>
<feColorMatrix in="SourceAlpha" type="matrix" values="0 0 0 0 0 0 0 0 0 0 0 0 0 0 0 0 0 0 127 0" result="hardAlpha"/>
<feOffset dy="4"/>
<feGaussianBlur stdDeviation="3"/>
<feComposite in2="hardAlpha" operator="out"/>
<feColorMatrix type="matrix" values="0 0 0 0 0 0 0 0 0 0 0 0 0 0 0 0 0 0 0.16 0"/>
<feBlend mode="normal" in2="BackgroundImageFix" result="effect1_dropShadow_336_31597"/>
<feBlend mode="normal" in="SourceGraphic" in2="effect1_dropShadow_336_31597" result="shape"/>
</filter>
<clipPath id="clip0_336_31597">
<rect width="24" height="18" fill="white" transform="translate(6 3)"/>
</clipPath>
</defs>
</svg>
