<svg width="36" height="31" viewBox="0 0 36 31" fill="none" xmlns="http://www.w3.org/2000/svg">
<g filter="url(#filter0_d_336_28316)">
<g clip-path="url(#clip0_336_28316)">
<path d="M6 3H30V21H6V3Z" fill="#DA2032"/>
<path d="M14 3H22.0025V21H14V3Z" fill="#0066B3"/>
<path d="M10 11.3184C10.8284 11.3184 11.5 10.6468 11.5 9.81836C11.5 8.98993 10.8284 8.31836 10 8.31836C9.17157 8.31836 8.5 8.98993 8.5 9.81836C8.5 10.6468 9.17157 11.3184 10 11.3184Z" fill="#FFD900"/>
<path d="M10.0022 10.77C10.9052 10.77 11.6372 10.038 11.6372 9.135C11.6372 8.23201 10.9052 7.5 10.0022 7.5C9.0992 7.5 8.36719 8.23201 8.36719 9.135C8.36719 10.038 9.0992 10.77 10.0022 10.77Z" fill="#DA2032"/>
<path d="M10.0014 10.5009C10.6041 10.5009 11.0927 10.0123 11.0927 9.40961C11.0927 8.80693 10.6041 8.31836 10.0014 8.31836C9.39873 8.31836 8.91016 8.80693 8.91016 9.40961C8.91016 10.0123 9.39873 10.5009 10.0014 10.5009Z" fill="#FFD900"/>
<path d="M10.1125 5.86523C10.0571 5.88946 10.0096 5.92858 9.97516 5.97824C9.94073 6.0279 9.92077 6.08614 9.9175 6.14648C9.91 6.24023 9.95125 6.34523 9.955 6.43523C9.955 6.59273 9.79375 6.64523 9.79375 6.86648C9.79375 6.94148 9.865 7.02773 9.865 7.22648C9.85 7.33148 9.79 7.35773 9.72625 7.36523C9.7082 7.36524 9.69034 7.36163 9.67371 7.35461C9.65708 7.34759 9.64203 7.33731 9.62944 7.32438C9.61685 7.31144 9.60699 7.29611 9.60043 7.2793C9.59387 7.26248 9.59075 7.24453 9.59125 7.22648C9.59115 7.19156 9.60459 7.15796 9.62875 7.13273C9.63348 7.12864 9.6385 7.12488 9.64375 7.12148C9.67375 7.08773 9.71875 7.07648 9.71875 6.99398C9.71875 6.95273 9.68875 6.91148 9.6625 6.83648C9.63625 6.76148 9.655 6.64148 9.715 6.57023C9.6175 6.60773 9.56125 6.69773 9.5275 6.78023C9.4975 6.88148 9.5275 6.93773 9.4825 7.02398C9.45625 7.07648 9.42625 7.09898 9.39625 7.14398C9.35875 7.19648 9.32125 7.30898 9.32125 7.36523C9.33401 7.53702 9.41126 7.69763 9.53749 7.81483C9.66373 7.93204 9.82962 7.99718 10.0019 7.99718C10.1741 7.99718 10.34 7.93204 10.4663 7.81483C10.5925 7.69763 10.6697 7.53702 10.6825 7.36523C10.6825 7.30898 10.6413 7.19648 10.6075 7.14398C10.5738 7.09898 10.5438 7.07648 10.5175 7.02398C10.4725 6.93773 10.5025 6.88148 10.4688 6.78023C10.4388 6.69773 10.3825 6.60773 10.285 6.57023C10.345 6.64523 10.36 6.76523 10.3375 6.83648C10.3113 6.91148 10.285 6.94898 10.285 6.99398C10.285 7.07648 10.3263 7.08773 10.36 7.12148C10.364 7.12501 10.3677 7.12877 10.3712 7.13273C10.3954 7.15796 10.4088 7.19156 10.4087 7.22648C10.4093 7.24453 10.4061 7.26248 10.3996 7.2793C10.393 7.29611 10.3831 7.31144 10.3706 7.32438C10.358 7.33731 10.3429 7.34759 10.3263 7.35461C10.3097 7.36163 10.2918 7.36524 10.2738 7.36523C10.1988 7.35398 10.1425 7.32023 10.135 7.22648C10.135 6.96398 10.2475 6.94898 10.2475 6.75398C10.2475 6.47648 10 6.34523 10 6.14273C10 6.07523 10.015 5.95523 10.1125 5.86523V5.86523ZM7 11.5877H8.36125V18.1315H7V11.5877ZM11.635 11.5877H13V18.1315H11.635V11.5877ZM8.635 11.5877H11.3613L10 12.4052L8.635 11.5877ZM8.635 12.6752H11.3613V13.2227H8.635V12.6752ZM8.635 16.4965H11.3613V17.044H8.635V16.4965ZM8.635 17.314H11.3613L10 18.1315L8.635 17.314Z" fill="#FFD900"/>
<path d="M10.0017 16.23C10.7556 16.23 11.3667 15.6189 11.3667 14.865C11.3667 14.1111 10.7556 13.5 10.0017 13.5C9.24785 13.5 8.63672 14.1111 8.63672 14.865C8.63672 15.6189 9.24785 16.23 10.0017 16.23Z" fill="#FFD900"/>
<path d="M9.99929 14.4126C10.1499 14.4126 10.272 14.2905 10.272 14.1399C10.272 13.9893 10.1499 13.8672 9.99929 13.8672C9.84867 13.8672 9.72656 13.9893 9.72656 14.1399C9.72656 14.2905 9.84867 14.4126 9.99929 14.4126Z" fill="#DA2032"/>
<path d="M9.99929 15.858C10.1499 15.858 10.272 15.7358 10.272 15.5852C10.272 15.4346 10.1499 15.3125 9.99929 15.3125C9.84867 15.3125 9.72656 15.4346 9.72656 15.5852C9.72656 15.7358 9.84867 15.858 9.99929 15.858Z" fill="#DA2032"/>
<path d="M9.99985 13.3359C10.2132 13.3359 10.4179 13.4207 10.5688 13.5716C10.7196 13.7225 10.8044 13.9271 10.8044 14.1405C10.8044 14.3539 10.7196 14.5585 10.5688 14.7094C10.4179 14.8603 10.2132 14.945 9.99985 14.945C9.82988 14.945 9.66686 15.0125 9.54667 15.1327C9.42647 15.2529 9.35895 15.416 9.35895 15.5859C9.35895 15.7559 9.42647 15.9189 9.54667 16.0391C9.66686 16.1593 9.82988 16.2268 9.99985 16.2268V16.3905C9.78648 16.3905 9.58184 16.3057 9.43096 16.1548C9.28008 16.0039 9.19531 15.7993 9.19531 15.5859C9.19531 15.3726 9.28008 15.1679 9.43096 15.017C9.58184 14.8662 9.78648 14.7814 9.99985 14.7814C10.1698 14.7814 10.3329 14.7139 10.453 14.5937C10.5732 14.4735 10.6408 14.3105 10.6408 14.1405C10.6408 13.9705 10.5732 13.8075 10.453 13.6873C10.3329 13.5671 10.1698 13.4996 9.99985 13.4996V13.3359Z" fill="#DA2032"/>
</g>
</g>
<defs>
<filter id="filter0_d_336_28316" x="0" y="-2" width="36" height="36" filterUnits="userSpaceOnUse" color-interpolation-filters="sRGB">
<feFlood flood-opacity="0" result="BackgroundImageFix"/>
<feColorMatrix in="SourceAlpha" type="matrix" values="0 0 0 0 0 0 0 0 0 0 0 0 0 0 0 0 0 0 127 0" result="hardAlpha"/>
<feOffset dy="4"/>
<feGaussianBlur stdDeviation="3"/>
<feComposite in2="hardAlpha" operator="out"/>
<feColorMatrix type="matrix" values="0 0 0 0 0 0 0 0 0 0 0 0 0 0 0 0 0 0 0.16 0"/>
<feBlend mode="normal" in2="BackgroundImageFix" result="effect1_dropShadow_336_28316"/>
<feBlend mode="normal" in="SourceGraphic" in2="effect1_dropShadow_336_28316" result="shape"/>
</filter>
<clipPath id="clip0_336_28316">
<rect width="24" height="18" fill="white" transform="translate(6 3)"/>
</clipPath>
</defs>
</svg>
