<svg width="36" height="31" viewBox="0 0 36 31" fill="none" xmlns="http://www.w3.org/2000/svg">
<g filter="url(#filter0_d_336_30060)">
<g clip-path="url(#clip0_336_30060)">
<path d="M6 14.9883H30V20.9995H6V14.9883Z" fill="#0038A8"/>
<path d="M6 9H30V15H6V9Z" fill="white"/>
<path d="M6 3H30V9H6V3Z" fill="#D52B1E"/>
<path d="M17.9971 14.3009C19.2684 14.3009 20.299 13.2704 20.299 11.9991C20.299 10.7278 19.2684 9.69727 17.9971 9.69727C16.7259 9.69727 15.6953 10.7278 15.6953 11.9991C15.6953 13.2704 16.7259 14.3009 17.9971 14.3009Z" stroke="black" stroke-width="0.133334"/>
<path d="M17.9982 13.8909C19.0435 13.8909 19.8909 13.0435 19.8909 11.9982C19.8909 10.9529 19.0435 10.1055 17.9982 10.1055C16.9529 10.1055 16.1055 10.9529 16.1055 11.9982C16.1055 13.0435 16.9529 13.8909 17.9982 13.8909Z" stroke="black" stroke-width="0.0606062"/>
<path d="M17.9978 13.4507C18.7991 13.4507 19.4487 12.8011 19.4487 11.9997C19.4487 11.1984 18.7991 10.5488 17.9978 10.5488C17.1965 10.5488 16.5469 11.1984 16.5469 11.9997C16.5469 12.8011 17.1965 13.4507 17.9978 13.4507Z" stroke="black" stroke-width="0.048485"/>
<path d="M16.772 12.8884L16.5058 13.0459L16.4233 12.9071C16.4117 12.8884 16.4029 12.8682 16.397 12.8471C16.3928 12.8309 16.3941 12.8137 16.4008 12.7984C16.4083 12.7834 16.4195 12.7721 16.4383 12.7609C16.4533 12.7534 16.4645 12.7496 16.4795 12.7496C16.4937 12.7487 16.5079 12.7513 16.5208 12.7571L16.5508 12.7796V12.7309L16.562 12.7121L16.6183 12.6259L16.6708 12.7196L16.6183 12.8096L16.607 12.8396L16.6108 12.8621L16.6145 12.8696L16.727 12.8059L16.772 12.8884ZM16.5658 12.8996L16.5433 12.8621L16.5283 12.8434C16.5258 12.8409 16.5229 12.839 16.5197 12.8377C16.5164 12.8364 16.513 12.8358 16.5095 12.8359C16.503 12.835 16.4965 12.8363 16.4908 12.8396L16.4758 12.8621C16.4758 12.8696 16.4795 12.8809 16.4908 12.8959L16.5095 12.9334L16.5658 12.8996ZM16.3145 12.6934L16.232 12.4496L16.2958 12.4271L16.3445 12.5809L16.3933 12.5659L16.3445 12.4234L16.4045 12.4046L16.4533 12.5434L16.5095 12.5246L16.457 12.3671L16.5245 12.3484L16.607 12.5959L16.3145 12.6934ZM16.2058 12.3296L16.1908 12.1721C16.1833 12.1346 16.1908 12.1121 16.2058 12.0934C16.2208 12.0709 16.2433 12.0596 16.2733 12.0559C16.3033 12.0559 16.3295 12.0596 16.3483 12.0784C16.367 12.0934 16.3783 12.1234 16.3858 12.1609L16.3895 12.2134L16.502 12.1984L16.517 12.2959L16.2058 12.3296ZM16.3295 12.2171L16.3258 12.1946C16.3258 12.1759 16.3183 12.1646 16.3108 12.1571C16.3073 12.1539 16.3031 12.1515 16.2986 12.1502C16.294 12.1489 16.2892 12.1487 16.2845 12.1496C16.2754 12.1516 16.2674 12.157 16.262 12.1646C16.2545 12.1684 16.2545 12.1834 16.2545 12.2021L16.2583 12.2284L16.3295 12.2171ZM16.1983 11.7484L16.2095 11.6509L16.3895 11.6734C16.4078 11.6753 16.4255 11.6803 16.442 11.6884C16.457 11.6959 16.472 11.7034 16.4795 11.7184C16.4945 11.7296 16.4983 11.7446 16.502 11.7559C16.5095 11.7784 16.5095 11.8009 16.5058 11.8271L16.4983 11.8759C16.4945 11.8946 16.487 11.9059 16.4795 11.9171C16.4641 11.9414 16.4399 11.9588 16.412 11.9659H16.3595L16.1758 11.9471L16.187 11.8534L16.3745 11.8721C16.3895 11.8721 16.4045 11.8721 16.412 11.8646C16.427 11.8571 16.4308 11.8421 16.4345 11.8271C16.4358 11.8136 16.4317 11.8002 16.4233 11.7896C16.4158 11.7746 16.4008 11.7709 16.3858 11.7671L16.1983 11.7484ZM16.2358 11.5234L16.2995 11.3509C16.307 11.3209 16.322 11.3021 16.3408 11.2946C16.3497 11.2893 16.3597 11.2858 16.37 11.2845C16.3803 11.2833 16.3908 11.2841 16.4008 11.2871C16.4195 11.2946 16.4308 11.3059 16.4383 11.3209C16.4458 11.3321 16.4495 11.3434 16.4495 11.3584C16.4608 11.3396 16.4758 11.3284 16.4908 11.3209C16.5077 11.3145 16.5264 11.3145 16.5433 11.3209C16.5581 11.3257 16.5712 11.3346 16.5811 11.3465C16.5911 11.3584 16.5975 11.373 16.5995 11.3884V11.4259L16.5883 11.4634L16.532 11.6209L16.2358 11.5234ZM16.3858 11.4709L16.4008 11.4296C16.4008 11.4146 16.4045 11.4034 16.4008 11.3996C16.4008 11.3921 16.3933 11.3846 16.3858 11.3809C16.3823 11.3792 16.3784 11.3783 16.3745 11.3783C16.3706 11.3783 16.3668 11.3792 16.3633 11.3809C16.3558 11.3884 16.3483 11.3959 16.3445 11.4109L16.3295 11.4484L16.3858 11.4709ZM16.4983 11.5084L16.517 11.4634C16.5208 11.4484 16.5245 11.4371 16.517 11.4259C16.514 11.4192 16.5087 11.4139 16.502 11.4109C16.498 11.4086 16.4935 11.4073 16.4889 11.4073C16.4843 11.4073 16.4798 11.4086 16.4758 11.4109L16.457 11.4446L16.442 11.4896L16.4983 11.5084ZM16.3858 11.1484L16.4345 11.0659L16.637 11.1859L16.712 11.0584L16.7795 11.0959L16.652 11.3059L16.3858 11.1484ZM16.5733 10.8634L16.6333 10.7884L16.8733 10.9871L16.8133 11.0621L16.5733 10.8634ZM16.9895 10.7021L17.072 10.6646C17.0833 10.6871 17.087 10.7096 17.0908 10.7284C17.0918 10.7478 17.0879 10.7671 17.0795 10.7846C17.0688 10.8064 17.0534 10.8256 17.0345 10.8409C17.0141 10.8616 16.988 10.8759 16.9595 10.8821C16.9351 10.8894 16.909 10.8894 16.8845 10.8821C16.8545 10.8694 16.8285 10.8487 16.8095 10.8221C16.772 10.7846 16.757 10.7471 16.7608 10.7059C16.7629 10.6846 16.7693 10.664 16.7796 10.6453C16.7899 10.6266 16.8039 10.6102 16.8208 10.5971C16.845 10.5761 16.8751 10.563 16.907 10.5596C16.9333 10.5559 16.9633 10.5596 16.9933 10.5784L16.9408 10.6496C16.934 10.6446 16.9264 10.6407 16.9183 10.6384C16.9097 10.6363 16.9007 10.6363 16.892 10.6384C16.8834 10.6415 16.8757 10.6466 16.8695 10.6534C16.8614 10.6593 16.8551 10.6673 16.8511 10.6765C16.8472 10.6858 16.8458 10.6959 16.847 10.7059C16.847 10.7209 16.862 10.7396 16.877 10.7584C16.8995 10.7846 16.9183 10.7996 16.937 10.8034C16.952 10.8034 16.967 10.8034 16.982 10.7884C16.997 10.7771 17.0045 10.7659 17.0045 10.7509C17.0045 10.7359 17.0008 10.7209 16.9895 10.7021V10.7021ZM17.3195 10.5821L17.2258 10.6346L17.237 10.6871L17.1508 10.7321L17.1058 10.4059L17.1995 10.3571L17.447 10.5746L17.357 10.6234L17.3195 10.5821ZM17.2708 10.5334L17.1883 10.4509L17.2108 10.5634L17.2708 10.5334ZM17.5633 10.2146L17.7058 10.1921C17.7281 10.1877 17.751 10.1877 17.7733 10.1921C17.792 10.1959 17.8108 10.2034 17.822 10.2184C17.8333 10.2334 17.8483 10.2446 17.8558 10.2634C17.8633 10.2784 17.8708 10.3009 17.8708 10.3196C17.8783 10.3534 17.8783 10.3796 17.8745 10.3946C17.8711 10.4136 17.8634 10.4315 17.852 10.4471C17.8426 10.4613 17.8297 10.473 17.8145 10.4809C17.7967 10.4896 17.7778 10.4959 17.7583 10.4996L17.6195 10.5221L17.5633 10.2146ZM17.672 10.2671L17.702 10.4359L17.7245 10.4321C17.7433 10.4284 17.7583 10.4246 17.762 10.4171C17.7733 10.4134 17.777 10.4021 17.7808 10.3909V10.3384C17.7733 10.3046 17.762 10.2859 17.7508 10.2746C17.7395 10.2634 17.7208 10.2596 17.6945 10.2634L17.672 10.2671ZM17.9645 10.1621L18.2195 10.1734V10.2409L18.0583 10.2334L18.0545 10.2821L18.2045 10.2896L18.2008 10.3534L18.0508 10.3459V10.4059L18.2158 10.4134L18.212 10.4846L17.9495 10.4734L17.9645 10.1621ZM18.3395 10.1921L18.4295 10.2146L18.3733 10.4396L18.5233 10.4771L18.5008 10.5521L18.2645 10.4921L18.3395 10.1921ZM18.8345 10.3571L18.9733 10.4396C19.0033 10.4546 19.022 10.4771 19.0258 10.4996C19.0333 10.5221 19.0258 10.5484 19.0145 10.5746C19.0082 10.5869 18.9992 10.5977 18.9881 10.6062C18.9771 10.6146 18.9644 10.6205 18.9508 10.6234C18.9283 10.6271 18.8983 10.6234 18.8645 10.6009L18.8195 10.5746L18.7595 10.6721L18.677 10.6234L18.8345 10.3571ZM18.8495 10.5221L18.872 10.5334L18.9095 10.5446C18.9142 10.544 18.9187 10.5424 18.9226 10.5398C18.9265 10.5372 18.9297 10.5337 18.932 10.5296C18.9352 10.5211 18.9352 10.5118 18.932 10.5034C18.932 10.4921 18.9245 10.4846 18.9095 10.4734L18.887 10.4621L18.8495 10.5221ZM19.1195 10.8821L19.0408 10.8071L18.9958 10.8334L18.9208 10.7696L19.2208 10.6196L19.2958 10.6946L19.1683 10.9984L19.0933 10.9309L19.1195 10.8821ZM19.1495 10.8184L19.202 10.7134L19.1008 10.7734L19.1495 10.8184ZM19.187 11.0246L19.4458 10.8484L19.532 10.9796L19.5695 11.0434L19.5658 11.0884C19.5582 11.1059 19.545 11.1204 19.5283 11.1296C19.517 11.1409 19.502 11.1446 19.4908 11.1446C19.4754 11.1462 19.4598 11.1436 19.4458 11.1371C19.4383 11.1371 19.427 11.1259 19.4158 11.1184L19.4233 11.1446L19.4158 11.1671C19.414 11.1748 19.4115 11.1824 19.4083 11.1896L19.3595 11.2759L19.2995 11.1896L19.3483 11.0921L19.3595 11.0659C19.3604 11.0565 19.3577 11.0471 19.352 11.0396L19.3483 11.0321L19.2433 11.1071L19.187 11.0246ZM19.3933 11.0021L19.4195 11.0359L19.4345 11.0509C19.442 11.0584 19.4458 11.0584 19.4533 11.0584C19.4598 11.0592 19.4664 11.0579 19.472 11.0546C19.4754 11.0519 19.4782 11.0485 19.4801 11.0446C19.4821 11.0407 19.4831 11.0365 19.4833 11.0321C19.4833 11.0246 19.4833 11.0134 19.472 10.9984L19.4458 10.9646L19.3933 11.0021ZM19.4908 11.4671L19.4533 11.3621L19.397 11.3696L19.3595 11.2759L19.6933 11.2721L19.7308 11.3696L19.487 11.5946L19.4495 11.4971L19.4908 11.4671ZM19.547 11.4221L19.637 11.3471L19.5208 11.3584L19.547 11.4221ZM19.6258 11.7596L19.6895 11.7521L19.712 11.8984L19.5808 11.9171C19.5615 11.897 19.5451 11.8743 19.532 11.8496C19.5207 11.8259 19.5131 11.8006 19.5095 11.7746C19.5028 11.7435 19.5041 11.7113 19.5133 11.6809C19.524 11.6569 19.5408 11.6363 19.562 11.6209C19.5863 11.603 19.6147 11.5914 19.6445 11.5871C19.6747 11.5822 19.7056 11.5848 19.7345 11.5946C19.7607 11.605 19.783 11.6234 19.7983 11.6471C19.8133 11.6696 19.8208 11.6959 19.8283 11.7296V11.8046C19.8253 11.8226 19.8175 11.8394 19.8058 11.8534C19.7945 11.8684 19.7795 11.8759 19.7608 11.8871L19.7308 11.7971C19.742 11.7934 19.7495 11.7859 19.757 11.7746C19.7645 11.7634 19.7608 11.7521 19.757 11.7371C19.7561 11.7282 19.7532 11.7196 19.7487 11.7118C19.7442 11.7041 19.7381 11.6973 19.7308 11.6921C19.7158 11.6809 19.6933 11.6771 19.6558 11.6846C19.6323 11.6865 19.61 11.6957 19.592 11.7109C19.577 11.7259 19.5733 11.7484 19.577 11.7671C19.577 11.7784 19.5808 11.7896 19.5883 11.7971L19.607 11.8271H19.637L19.6258 11.7596ZM19.8283 12.2096L19.8208 12.3071L19.6333 12.2921C19.6163 12.2898 19.5999 12.2847 19.5845 12.2771C19.57 12.2699 19.5572 12.2597 19.547 12.2471C19.5367 12.2351 19.529 12.221 19.5245 12.2059C19.518 12.184 19.5155 12.1611 19.517 12.1384L19.5245 12.0896L19.5433 12.0446C19.5513 12.0328 19.5615 12.0226 19.5733 12.0146C19.5846 12.007 19.5974 12.0019 19.6108 11.9996C19.6278 11.9946 19.6455 11.9921 19.6633 11.9921L19.8508 12.0109L19.8395 12.1046L19.652 12.0896C19.6333 12.0896 19.6183 12.0896 19.6108 12.1009C19.6052 12.1055 19.6007 12.1112 19.5975 12.1177C19.5943 12.1241 19.5924 12.1312 19.592 12.1384C19.592 12.1534 19.592 12.1684 19.6033 12.1759C19.6108 12.1871 19.622 12.1946 19.6408 12.1946L19.8283 12.2096ZM19.487 12.5396L19.5208 12.4346L19.4758 12.4046L19.5058 12.3109L19.7683 12.5209L19.7308 12.6184L19.4008 12.6334L19.4345 12.5396H19.487ZM19.5583 12.5396L19.6708 12.5434L19.577 12.4759L19.5583 12.5396ZM19.6708 12.7946L19.6145 12.8846H19.4908L19.547 12.9934L19.4945 13.0834L19.4008 12.8884L19.2883 12.8209L19.3408 12.7384L19.4533 12.8059L19.6708 12.7946Z" fill="black"/>
<path d="M18.3037 10.9238C18.3037 10.9238 19.1812 11.3026 19.0274 12.0826C18.8774 12.8626 18.3899 12.8551 18.1949 12.9451C18.0074 13.0276 17.8724 13.1513 17.7974 13.1326C17.7224 13.1176 17.6212 13.0576 17.6212 13.0576C17.6212 13.0576 17.6137 13.1888 17.7674 13.2076C17.9212 13.2338 18.1237 13.0088 18.2174 12.9826C18.3149 12.9601 18.9112 12.8926 19.0574 12.1013C19.2262 11.2538 18.3074 10.9501 18.3074 10.9238H18.3037Z" fill="#009B3A" stroke="black" stroke-width="0.00833333"/>
<path d="M18.7466 11.0927C18.7491 11.1128 18.7494 11.1299 18.7474 11.1419C18.7454 11.1538 18.7412 11.1602 18.7353 11.1602C18.7293 11.1602 18.722 11.1538 18.714 11.1419C18.7061 11.1299 18.6979 11.1128 18.6904 11.0927C18.6838 11.0749 18.678 11.0555 18.6735 11.036C18.669 11.0166 18.666 10.9977 18.6648 10.9813C18.6635 10.9649 18.664 10.9514 18.6662 10.942C18.6684 10.9326 18.6723 10.9277 18.6775 10.9277C18.6827 10.9277 18.6891 10.9326 18.696 10.942C18.7028 10.9514 18.7101 10.9649 18.7169 10.9813C18.7238 10.9977 18.7301 11.0166 18.7353 11.036C18.7405 11.0555 18.7444 11.0749 18.7466 11.0927V11.0927Z" fill="#009B3A" stroke="black" stroke-width="0.00833333"/>
<path d="M18.7165 11.1C18.7241 11.1154 18.731 11.1308 18.7367 11.1454C18.7424 11.1601 18.7469 11.1737 18.7498 11.1854C18.7528 11.1971 18.7541 11.2067 18.7539 11.2137C18.7536 11.2208 18.7517 11.225 18.7482 11.2262C18.7448 11.2275 18.7399 11.2257 18.7338 11.2209C18.7277 11.2162 18.7205 11.2086 18.7127 11.1986C18.7049 11.1887 18.6965 11.1765 18.6882 11.1628C18.6798 11.1491 18.6716 11.1341 18.664 11.1188C18.6487 11.0878 18.6367 11.0571 18.6307 11.0334C18.6248 11.0097 18.6254 10.995 18.6323 10.9926C18.6393 10.9901 18.6521 11 18.6679 11.0202C18.6836 11.0403 18.7012 11.069 18.7165 11.1V11.1ZM18.6303 11.1563C18.6574 11.1651 18.6822 11.176 18.6998 11.1869C18.7173 11.1978 18.7266 11.2079 18.7256 11.2153C18.7247 11.2227 18.7137 11.227 18.6947 11.2271C18.6757 11.2273 18.6501 11.2234 18.6228 11.2163C18.5956 11.2075 18.5709 11.1966 18.5533 11.1857C18.5357 11.1748 18.5265 11.1646 18.5274 11.1572C18.5283 11.1498 18.5393 11.1456 18.5583 11.1454C18.5773 11.1452 18.6029 11.1491 18.6303 11.1563V11.1563Z" fill="#009B3A" stroke="black" stroke-width="0.00833333"/>
<path d="M18.6412 11.1263C18.6697 11.1455 18.6957 11.1665 18.7135 11.1847C18.7312 11.2028 18.7392 11.2167 18.7357 11.2231C18.7323 11.2296 18.7176 11.2282 18.6949 11.2192C18.6723 11.2101 18.6435 11.1943 18.6149 11.1751C18.6008 11.1655 18.5871 11.1555 18.5747 11.1455C18.5623 11.1354 18.5514 11.1257 18.5426 11.1167C18.5249 11.0985 18.5168 11.0847 18.5203 11.0782C18.5238 11.0717 18.5385 11.0732 18.5612 11.0822C18.5838 11.0912 18.6126 11.1071 18.6412 11.1263V11.1263Z" fill="#009B3A" stroke="black" stroke-width="0.00833333"/>
<path d="M18.6816 11.1104C18.7045 11.1343 18.7246 11.1592 18.7373 11.1796C18.75 11.2 18.7544 11.2143 18.7494 11.2193C18.7444 11.2243 18.7305 11.2195 18.7108 11.2061C18.691 11.1928 18.667 11.1718 18.6441 11.1479C18.6211 11.124 18.6011 11.0991 18.5883 11.0787C18.5756 11.0583 18.5713 11.044 18.5762 11.039C18.5812 11.0341 18.5951 11.0388 18.6148 11.0522C18.6346 11.0656 18.6586 11.0865 18.6816 11.1104V11.1104Z" fill="#009B3A" stroke="black" stroke-width="0.00833333"/>
<path d="M18.7416 11.2202L18.7041 11.2427C18.6929 11.2427 18.6816 11.2314 18.6591 11.2427C18.6366 11.2539 18.6216 11.2764 18.6179 11.2877C18.6141 11.2989 18.6254 11.3064 18.6516 11.2914C18.6779 11.2802 18.6854 11.2577 18.6966 11.2502L18.7454 11.2239L18.7754 11.1752C18.7866 11.1602 18.8204 11.1377 18.8354 11.1077C18.8466 11.0852 18.8429 11.0664 18.8279 11.0739C18.8083 11.0853 18.7926 11.1023 18.7829 11.1227C18.7754 11.1377 18.7829 11.1602 18.7716 11.1752L18.7416 11.2202V11.2202ZM19.0154 11.3102C19.0163 11.3624 19.0128 11.4114 19.0056 11.4465C18.9985 11.4816 18.9884 11.5 18.9774 11.4975C18.9665 11.495 18.9557 11.4719 18.9473 11.4332C18.939 11.3946 18.9338 11.3436 18.9329 11.2914C18.932 11.2393 18.9355 11.1903 18.9426 11.1551C18.9498 11.12 18.9599 11.1017 18.9708 11.1042C18.9818 11.1067 18.9926 11.1298 19.001 11.1684C19.0093 11.207 19.0145 11.258 19.0154 11.3102V11.3102Z" fill="#009B3A" stroke="black" stroke-width="0.00833333"/>
<path d="M18.9703 11.3054C18.9816 11.3581 18.9881 11.4089 18.9884 11.4465C18.9886 11.4842 18.9826 11.5056 18.9717 11.5061C18.9607 11.5066 18.9458 11.4861 18.93 11.4492C18.9143 11.4122 18.8991 11.3619 18.8878 11.3091C18.8826 11.2844 18.8784 11.26 18.8755 11.2372C18.8726 11.2144 18.8711 11.1936 18.8711 11.1762C18.871 11.1587 18.8724 11.1449 18.8752 11.1354C18.878 11.126 18.8821 11.1211 18.8872 11.1211C18.8924 11.1211 18.8986 11.126 18.9053 11.1354C18.9121 11.1449 18.9194 11.1587 18.9268 11.1762C18.9341 11.1936 18.9414 11.2144 18.9483 11.2372C18.9551 11.26 18.9613 11.2844 18.9666 11.3091L18.9703 11.3054Z" fill="#009B3A" stroke="black" stroke-width="0.00833333"/>
<path d="M18.828 11.351C18.8472 11.3639 18.8659 11.3778 18.883 11.3919C18.9001 11.406 18.9153 11.4199 18.9277 11.4329C18.94 11.4459 18.9494 11.4577 18.9551 11.4677C18.9609 11.4777 18.963 11.4856 18.9613 11.491C18.9595 11.4964 18.954 11.4992 18.9451 11.4993C18.9361 11.4993 18.9239 11.4966 18.9091 11.4912C18.8943 11.4859 18.8772 11.478 18.8588 11.4681C18.8404 11.4582 18.821 11.4464 18.8018 11.4335C18.7826 11.4205 18.7639 11.4066 18.7468 11.3925C18.7297 11.3785 18.7145 11.3645 18.7021 11.3515C18.6898 11.3385 18.6804 11.3267 18.6747 11.3167C18.6689 11.3068 18.6668 11.2988 18.6686 11.2934C18.6703 11.288 18.6758 11.2852 18.6847 11.2852C18.6937 11.2851 18.7059 11.2878 18.7207 11.2932C18.7355 11.2985 18.7526 11.3064 18.771 11.3163C18.7894 11.3262 18.8088 11.338 18.828 11.351V11.351Z" fill="#009B3A" stroke="black" stroke-width="0.00833333"/>
<path d="M18.8571 11.3094C18.8902 11.3496 18.9192 11.3913 18.9377 11.4254C18.9563 11.4595 18.9627 11.4831 18.9558 11.491C18.9488 11.499 18.929 11.4906 18.9006 11.4678C18.8723 11.445 18.8377 11.4096 18.8046 11.3694C18.7725 11.3304 18.7445 11.29 18.7267 11.2571C18.709 11.2242 18.7029 11.2015 18.7098 11.1941C18.7168 11.1866 18.7362 11.195 18.7638 11.2173C18.7915 11.2396 18.825 11.2741 18.8571 11.3132V11.3094Z" fill="#009B3A" stroke="black" stroke-width="0.00833333"/>
<path d="M18.9141 11.3061C18.9388 11.3521 18.9589 11.3982 18.97 11.4343C18.9812 11.4703 18.9824 11.4933 18.9734 11.4983C18.9645 11.5033 18.9461 11.4898 18.9223 11.4608C18.8985 11.4318 18.8713 11.3896 18.8466 11.3436C18.8343 11.3208 18.8231 11.2978 18.8135 11.2758C18.8039 11.2538 18.7961 11.2333 18.7906 11.2155C18.7795 11.1794 18.7782 11.1564 18.7872 11.1514C18.7961 11.1464 18.8145 11.1599 18.8383 11.1889C18.8621 11.218 18.8894 11.2601 18.9141 11.3061V11.3061Z" fill="#009B3A" stroke="black" stroke-width="0.00833333"/>
<path d="M18.9626 11.4892L18.8951 11.5042C18.8839 11.5042 18.8726 11.478 18.8389 11.4855C18.8051 11.493 18.7751 11.5155 18.7639 11.5305C18.7564 11.5455 18.7676 11.5605 18.8089 11.553C18.8539 11.5455 18.8689 11.5155 18.8914 11.5155C18.9101 11.508 18.9439 11.5005 18.9664 11.5005C18.9739 11.4855 19.0039 11.4555 19.0226 11.4405C19.0414 11.4217 19.0976 11.403 19.1239 11.373C19.1501 11.343 19.1501 11.313 19.1239 11.3167C19.0952 11.3264 19.0694 11.3432 19.0489 11.3655C19.0301 11.388 19.0339 11.4217 19.0151 11.4405L18.9626 11.4892ZM19.1539 11.673C19.1455 11.7231 19.1335 11.7692 19.1205 11.8011C19.1076 11.833 19.0947 11.8481 19.0848 11.8432C19.0748 11.8382 19.0686 11.8135 19.0675 11.7746C19.0664 11.7356 19.0705 11.6856 19.0789 11.6355C19.083 11.6107 19.0881 11.5866 19.0938 11.5646C19.0996 11.5426 19.1058 11.5232 19.1122 11.5074C19.1186 11.4916 19.1251 11.4797 19.1313 11.4725C19.1374 11.4653 19.1431 11.4628 19.148 11.4653C19.1529 11.4678 19.157 11.4751 19.16 11.4868C19.1629 11.4986 19.1647 11.5146 19.1653 11.5339C19.1658 11.5532 19.1651 11.5754 19.1631 11.5992C19.1612 11.6231 19.158 11.6482 19.1539 11.673V11.673Z" fill="#009B3A" stroke="black" stroke-width="0.00833333"/>
<path d="M19.1112 11.6612C19.1125 11.6874 19.1126 11.7136 19.1117 11.7383C19.1107 11.7629 19.1087 11.7854 19.1057 11.8043C19.1027 11.8233 19.0988 11.8382 19.0943 11.8481C19.0897 11.858 19.0847 11.8627 19.0794 11.8619C19.0741 11.8611 19.0688 11.8548 19.0636 11.8435C19.0585 11.8321 19.0538 11.8159 19.0497 11.796C19.0457 11.776 19.0423 11.7527 19.04 11.7275C19.0377 11.7024 19.0364 11.676 19.0362 11.65C19.035 11.6238 19.0348 11.5976 19.0358 11.5729C19.0367 11.5483 19.0388 11.5258 19.0418 11.5069C19.0448 11.488 19.0487 11.4731 19.0532 11.4631C19.0577 11.4532 19.0628 11.4485 19.0681 11.4493C19.0733 11.4501 19.0787 11.4564 19.0838 11.4677C19.0889 11.4791 19.0937 11.4953 19.0977 11.5153C19.1018 11.5352 19.1051 11.5585 19.1074 11.5837C19.1097 11.6088 19.111 11.6352 19.1112 11.6612V11.6612Z" fill="#009B3A" stroke="black" stroke-width="0.00833333"/>
<path d="M18.964 11.6772C18.9833 11.694 19.003 11.7132 19.0213 11.7331C19.0397 11.7531 19.0563 11.7733 19.0699 11.7923C19.0834 11.8112 19.0935 11.8284 19.0994 11.8423C19.1053 11.8563 19.1068 11.8667 19.1038 11.8727C19.1008 11.8787 19.0933 11.8802 19.082 11.8771C19.0708 11.8739 19.0559 11.8662 19.0388 11.8545C19.0216 11.8429 19.0025 11.8275 18.983 11.8098C18.9635 11.792 18.9442 11.7723 18.9265 11.7522C18.9071 11.7354 18.8875 11.7163 18.8691 11.6963C18.8508 11.6764 18.8341 11.6561 18.8206 11.6372C18.807 11.6182 18.7969 11.6011 18.791 11.5872C18.7851 11.5732 18.7837 11.5628 18.7867 11.5568C18.7897 11.5507 18.7971 11.5492 18.8084 11.5524C18.8197 11.5555 18.8345 11.5633 18.8517 11.5749C18.8689 11.5866 18.888 11.6019 18.9075 11.6197C18.9269 11.6374 18.9463 11.6571 18.964 11.6772Z" fill="#009B3A" stroke="black" stroke-width="0.00833333"/>
<path d="M19.0029 11.6434C19.0153 11.6663 19.0268 11.6895 19.0367 11.7119C19.0466 11.7342 19.0547 11.7552 19.0605 11.7736C19.0664 11.792 19.0698 11.8075 19.0707 11.8192C19.0716 11.8309 19.0699 11.8386 19.0658 11.8418C19.0616 11.845 19.055 11.8436 19.0463 11.8378C19.0377 11.8321 19.0272 11.8219 19.0155 11.808C19.0037 11.7942 18.9909 11.7768 18.9778 11.7569C18.9647 11.737 18.9516 11.715 18.9392 11.6922C18.9267 11.6694 18.9152 11.6461 18.9053 11.6238C18.8954 11.6015 18.8874 11.5805 18.8815 11.5621C18.8757 11.5437 18.8722 11.5282 18.8713 11.5165C18.8704 11.5048 18.8721 11.4971 18.8763 11.4939C18.8805 11.4907 18.8871 11.492 18.8957 11.4978C18.9043 11.5036 18.9148 11.5137 18.9266 11.5276C18.9384 11.5415 18.9511 11.5589 18.9642 11.5787C18.9773 11.5986 18.9905 11.6206 19.0029 11.6434V11.6434Z" fill="#009B3A" stroke="black" stroke-width="0.00833333"/>
<path d="M19.0547 11.6511C19.0702 11.7 19.0813 11.7483 19.0856 11.7853C19.0899 11.8223 19.087 11.8451 19.0776 11.8486C19.0681 11.8521 19.0529 11.836 19.0352 11.8039C19.0176 11.7718 18.999 11.7262 18.9834 11.6774C18.9754 11.652 18.9684 11.6266 18.9629 11.6025C18.9574 11.5784 18.9534 11.5561 18.9512 11.537C18.949 11.5178 18.9486 11.5022 18.9501 11.4909C18.9516 11.4796 18.9549 11.4729 18.9598 11.4711C18.9647 11.4694 18.9712 11.4727 18.9788 11.4808C18.9864 11.4889 18.9951 11.5017 19.0042 11.5184C19.0134 11.5351 19.0229 11.5554 19.0322 11.5782C19.0415 11.601 19.0504 11.6257 19.0584 11.6511H19.0547Z" fill="#009B3A" stroke="black" stroke-width="0.00833333"/>
<path d="M19.0685 11.8419H19.0048C18.9935 11.8419 18.986 11.8119 18.9523 11.8119C18.9233 11.8124 18.8955 11.823 18.8735 11.8419C18.8585 11.8569 18.8698 11.8719 18.911 11.8719C18.9523 11.8719 18.9748 11.8531 18.9973 11.8494H19.0723L19.1398 11.8044C19.1623 11.7894 19.2185 11.7819 19.2523 11.7556C19.2785 11.7331 19.286 11.7031 19.2635 11.7031C19.2324 11.707 19.2028 11.7186 19.1773 11.7369C19.1585 11.7519 19.1548 11.7856 19.1323 11.8006C19.1173 11.8081 19.0723 11.8419 19.0685 11.8381M19.1623 12.0781C19.1359 12.1201 19.1077 12.1571 19.0841 12.1808C19.0605 12.2046 19.0433 12.2131 19.0364 12.2047C19.0294 12.1962 19.0332 12.1714 19.047 12.1357C19.0608 12.1001 19.0834 12.0564 19.1098 12.0144C19.1362 11.9724 19.1643 11.9354 19.1879 11.9117C19.2115 11.8879 19.2287 11.8794 19.2357 11.8878C19.2426 11.8963 19.2388 11.9211 19.2251 11.9568C19.2113 11.9924 19.1887 12.0361 19.1623 12.0781" fill="#009B3A"/>
<path d="M19.0685 11.8419H19.0048C18.9935 11.8419 18.986 11.8119 18.9523 11.8119C18.9233 11.8124 18.8955 11.823 18.8735 11.8419C18.8585 11.8569 18.8698 11.8719 18.911 11.8719C18.9523 11.8719 18.9748 11.8531 18.9973 11.8494H19.0723L19.1398 11.8044C19.1623 11.7894 19.2185 11.7819 19.2523 11.7556C19.2785 11.7331 19.286 11.7031 19.2635 11.7031C19.2324 11.707 19.2028 11.7186 19.1773 11.7369C19.1585 11.7519 19.1548 11.7856 19.1323 11.8006C19.1173 11.8081 19.0723 11.8419 19.0685 11.8381M19.1623 12.0781C19.1359 12.1201 19.1077 12.1571 19.0841 12.1808C19.0605 12.2046 19.0433 12.2131 19.0364 12.2047C19.0294 12.1962 19.0332 12.1714 19.047 12.1357C19.0608 12.1001 19.0834 12.0564 19.1098 12.0144C19.1362 11.9724 19.1643 11.9354 19.1879 11.9117C19.2115 11.8879 19.2287 11.8794 19.2357 11.8878C19.2426 11.8963 19.2388 11.9211 19.2251 11.9568C19.2113 11.9924 19.1887 12.0361 19.1623 12.0781" stroke="black" stroke-width="0.00833333"/>
<path d="M19.1298 12.0481C19.1113 12.0962 19.09 12.1401 19.0706 12.1703C19.0512 12.2004 19.0353 12.2143 19.0263 12.2088C19.0174 12.2033 19.0161 12.179 19.0229 12.1411C19.0296 12.1032 19.0438 12.055 19.0623 12.0069C19.0808 11.9588 19.1021 11.9148 19.1215 11.8847C19.1409 11.8546 19.1568 11.8407 19.1658 11.8462C19.1747 11.8517 19.176 11.876 19.1692 11.9139C19.1625 11.9518 19.1483 12 19.1298 12.0481ZM18.9911 12.0031C19.0098 12.0523 19.0243 12.1024 19.0312 12.1424C19.0382 12.1825 19.037 12.2092 19.0281 12.2166C19.0191 12.2241 19.0031 12.2117 18.9835 12.1822C18.9639 12.1527 18.9423 12.1085 18.9236 12.0594C18.9048 12.0102 18.8903 11.9601 18.8834 11.9201C18.8765 11.88 18.8776 11.8533 18.8865 11.8459C18.8955 11.8384 18.9115 11.8508 18.9311 11.8803C18.9507 11.9098 18.9723 11.954 18.9911 12.0031" fill="#009B3A"/>
<path d="M18.9911 12.0031C19.0098 12.0523 19.0243 12.1024 19.0312 12.1424C19.0382 12.1825 19.037 12.2092 19.0281 12.2166C19.0191 12.2241 19.0031 12.2117 18.9835 12.1822C18.9639 12.1527 18.9423 12.1085 18.9236 12.0594C18.9048 12.0102 18.8903 11.9601 18.8834 11.9201C18.8765 11.88 18.8776 11.8533 18.8865 11.8459C18.8955 11.8384 18.9115 11.8508 18.9311 11.8803C18.9507 11.9098 18.9723 11.954 18.9911 12.0031M19.1298 12.0481C19.1113 12.0962 19.09 12.1401 19.0706 12.1703C19.0512 12.2004 19.0353 12.2143 19.0263 12.2088C19.0174 12.2033 19.0161 12.179 19.0229 12.1411C19.0296 12.1032 19.0438 12.055 19.0623 12.0069C19.0808 11.9588 19.1021 11.9148 19.1215 11.8847C19.1409 11.8546 19.1568 11.8407 19.1658 11.8462C19.1747 11.8517 19.176 11.876 19.1692 11.9139C19.1625 11.9518 19.1483 12 19.1298 12.0481Z" stroke="black" stroke-width="0.00833333"/>
<path d="M19.0361 11.9874C19.0408 12.0388 19.0414 12.0891 19.0377 12.1272C19.034 12.1653 19.0263 12.1881 19.0164 12.1906C19.0064 12.1931 18.995 12.1751 18.9846 12.1405C18.9743 12.1059 18.9658 12.0576 18.9611 12.0062C18.9587 11.9807 18.9574 11.9553 18.9571 11.9313C18.9568 11.9073 18.9576 11.8852 18.9594 11.8664C18.9613 11.8475 18.9641 11.8322 18.9677 11.8213C18.9714 11.8104 18.9758 11.8042 18.9807 11.803C18.9857 11.8017 18.991 11.8055 18.9964 11.8141C19.0019 11.8227 19.0073 11.836 19.0125 11.8531C19.0176 11.8702 19.0223 11.8909 19.0264 11.9139C19.0304 11.937 19.0337 11.962 19.0361 11.9874" fill="#009B3A"/>
<path d="M19.0361 11.9874C19.0408 12.0388 19.0414 12.0891 19.0377 12.1272C19.034 12.1653 19.0263 12.1881 19.0164 12.1906C19.0064 12.1931 18.995 12.1751 18.9846 12.1405C18.9743 12.1059 18.9658 12.0576 18.9611 12.0062C18.9587 11.9807 18.9574 11.9553 18.9571 11.9313C18.9568 11.9073 18.9576 11.8852 18.9594 11.8664C18.9613 11.8475 18.9641 11.8322 18.9677 11.8213C18.9714 11.8104 18.9758 11.8042 18.9807 11.803C18.9857 11.8017 18.991 11.8055 18.9964 11.8141C19.0019 11.8227 19.0073 11.836 19.0125 11.8531C19.0176 11.8702 19.0223 11.8909 19.0264 11.9139C19.0304 11.937 19.0337 11.962 19.0361 11.9874" stroke="black" stroke-width="0.00833333"/>
<path d="M19.0871 12.0144C19.0822 12.0659 19.0736 12.1151 19.0631 12.1512C19.0526 12.1872 19.0411 12.2072 19.0312 12.2067C19.0213 12.2062 19.0137 12.1853 19.0101 12.1485C19.0065 12.1117 19.0072 12.0622 19.0121 12.0107C19.0145 11.9852 19.0178 11.96 19.0219 11.9365C19.0261 11.913 19.0308 11.8918 19.036 11.8739C19.0412 11.8561 19.0467 11.842 19.0522 11.8324C19.0577 11.8229 19.063 11.8181 19.0679 11.8184C19.0779 11.8189 19.0855 11.8398 19.0891 11.8766C19.0927 11.9133 19.0919 11.9629 19.0871 12.0144Z" fill="#009B3A" stroke="black" stroke-width="0.00833333"/>
<path d="M19.023 12.1978C19.023 12.1978 18.9705 12.179 18.963 12.1715C18.9518 12.164 18.9593 12.1415 18.9255 12.1228C18.899 12.1127 18.8696 12.1127 18.843 12.1228C18.8243 12.1228 18.828 12.1453 18.8655 12.1603C18.903 12.1828 18.933 12.1678 18.9518 12.1753L19.0193 12.209C19.038 12.2015 19.0793 12.1978 19.1018 12.194C19.1243 12.1903 19.1805 12.209 19.2218 12.194C19.2555 12.1828 19.2705 12.1565 19.248 12.149C19.2198 12.1416 19.1901 12.1416 19.1618 12.149C19.1355 12.1528 19.1205 12.1865 19.0943 12.1865C19.0755 12.1865 19.023 12.2015 19.0193 12.1978M19.0568 12.4865C19.0346 12.5077 19.0108 12.5281 18.9871 12.5462C18.9634 12.5643 18.9405 12.5797 18.9201 12.5911C18.8997 12.6025 18.8823 12.6097 18.8692 12.6122C18.8561 12.6147 18.8477 12.6124 18.8445 12.6054C18.8413 12.5985 18.8435 12.5871 18.8508 12.5721C18.8582 12.5571 18.8705 12.5388 18.887 12.5188C18.9034 12.4987 18.9235 12.4773 18.9458 12.4561C18.968 12.4349 18.9919 12.4146 19.0155 12.3965C19.0381 12.3742 19.0629 12.3522 19.0878 12.3325C19.1128 12.3128 19.1373 12.2959 19.1592 12.2832C19.1811 12.2705 19.1999 12.2623 19.2139 12.2594C19.228 12.2565 19.237 12.2589 19.2401 12.2664C19.2432 12.2739 19.2404 12.2863 19.2319 12.3026C19.2234 12.3188 19.2095 12.3385 19.1912 12.36C19.1729 12.3815 19.1509 12.4042 19.1269 12.4262C19.1029 12.4482 19.0776 12.4689 19.053 12.4865" fill="#009B3A"/>
<path d="M19.023 12.1978C19.023 12.1978 18.9705 12.179 18.963 12.1715C18.9518 12.164 18.9593 12.1415 18.9255 12.1228C18.899 12.1127 18.8696 12.1127 18.843 12.1228C18.8243 12.1228 18.828 12.1453 18.8655 12.1603C18.903 12.1828 18.933 12.1678 18.9518 12.1753L19.0193 12.209C19.038 12.2015 19.0793 12.1978 19.1018 12.194C19.1243 12.1903 19.1805 12.209 19.2218 12.194C19.2555 12.1828 19.2705 12.1565 19.248 12.149C19.2198 12.1416 19.1901 12.1416 19.1618 12.149C19.1355 12.1528 19.1205 12.1865 19.0943 12.1865C19.0755 12.1865 19.023 12.2015 19.0193 12.1978M19.0568 12.4865C19.0346 12.5077 19.0108 12.5281 18.9871 12.5462C18.9634 12.5643 18.9405 12.5797 18.9201 12.5911C18.8997 12.6025 18.8823 12.6097 18.8692 12.6122C18.8561 12.6147 18.8477 12.6124 18.8445 12.6054C18.8413 12.5985 18.8435 12.5871 18.8508 12.5721C18.8582 12.5571 18.8705 12.5388 18.887 12.5188C18.9034 12.4987 18.9235 12.4773 18.9458 12.4561C18.968 12.4349 18.9919 12.4146 19.0155 12.3965C19.0381 12.3742 19.0629 12.3522 19.0878 12.3325C19.1128 12.3128 19.1373 12.2959 19.1592 12.2832C19.1811 12.2705 19.1999 12.2623 19.2139 12.2594C19.228 12.2565 19.237 12.2589 19.2401 12.2664C19.2432 12.2739 19.2404 12.2863 19.2319 12.3026C19.2234 12.3188 19.2095 12.3385 19.1912 12.36C19.1729 12.3815 19.1509 12.4042 19.1269 12.4262C19.1029 12.4482 19.0776 12.4689 19.053 12.4865" stroke="black" stroke-width="0.00833333"/>
<path d="M19.0253 12.4455C18.9895 12.491 18.9522 12.5306 18.9217 12.5558C18.8911 12.5809 18.8697 12.5894 18.8623 12.5795C18.8548 12.5695 18.8619 12.5419 18.8819 12.5027C18.9019 12.4635 18.9333 12.416 18.969 12.3705C18.9868 12.348 19.005 12.3266 19.0228 12.3077C19.0406 12.2888 19.0575 12.2726 19.0727 12.2602C19.0878 12.2477 19.1008 12.2392 19.111 12.2352C19.1212 12.2311 19.1284 12.2315 19.1321 12.2365C19.1358 12.2414 19.1359 12.2507 19.1326 12.2639C19.1292 12.277 19.1224 12.2938 19.1124 12.3132C19.1025 12.3326 19.0897 12.3543 19.0748 12.377C19.0598 12.3997 19.043 12.423 19.0253 12.4455" fill="#009B3A"/>
<path d="M19.0253 12.4455C18.9895 12.491 18.9522 12.5306 18.9217 12.5558C18.8911 12.5809 18.8697 12.5894 18.8623 12.5795C18.8548 12.5695 18.8619 12.5419 18.8819 12.5027C18.9019 12.4635 18.9333 12.416 18.969 12.3705C18.9868 12.348 19.005 12.3266 19.0228 12.3077C19.0406 12.2888 19.0575 12.2726 19.0727 12.2602C19.0878 12.2477 19.1008 12.2392 19.111 12.2352C19.1212 12.2311 19.1284 12.2315 19.1321 12.2365C19.1358 12.2414 19.1359 12.2507 19.1326 12.2639C19.1292 12.277 19.1224 12.2938 19.1124 12.3132C19.1025 12.3326 19.0897 12.3543 19.0748 12.377C19.0598 12.3997 19.043 12.423 19.0253 12.4455" stroke="black" stroke-width="0.00833333"/>
<path d="M18.8896 12.3442C18.8945 12.374 18.8978 12.4065 18.8992 12.4392C18.9007 12.4718 18.9003 12.5035 18.898 12.5317C18.8958 12.5599 18.8917 12.5839 18.8862 12.6015C18.8807 12.6191 18.8739 12.6299 18.8664 12.6331C18.8588 12.6362 18.8508 12.6316 18.8429 12.6195C18.835 12.6075 18.8275 12.5884 18.821 12.5638C18.8144 12.5393 18.8091 12.5099 18.8054 12.4783C18.8017 12.4466 18.7997 12.4135 18.7996 12.3817C18.7947 12.3518 18.7914 12.3193 18.7899 12.2867C18.7885 12.254 18.7889 12.2223 18.7911 12.1941C18.7934 12.1659 18.7975 12.142 18.803 12.1243C18.8085 12.1067 18.8153 12.0959 18.8228 12.0927C18.8303 12.0896 18.8384 12.0943 18.8463 12.1063C18.8542 12.1183 18.8617 12.1374 18.8682 12.162C18.8747 12.1865 18.8801 12.2159 18.8838 12.2475C18.8875 12.2792 18.8895 12.3123 18.8896 12.3442" fill="#009B3A"/>
<path d="M18.8896 12.3442C18.8945 12.374 18.8978 12.4065 18.8992 12.4392C18.9007 12.4718 18.9003 12.5035 18.898 12.5317C18.8958 12.5599 18.8917 12.5839 18.8862 12.6015C18.8807 12.6191 18.8739 12.6299 18.8664 12.6331C18.8588 12.6362 18.8508 12.6316 18.8429 12.6195C18.835 12.6075 18.8275 12.5884 18.821 12.5638C18.8144 12.5393 18.8091 12.5099 18.8054 12.4783C18.8017 12.4466 18.7997 12.4135 18.7996 12.3817C18.7947 12.3518 18.7914 12.3193 18.7899 12.2867C18.7885 12.254 18.7889 12.2223 18.7911 12.1941C18.7934 12.1659 18.7975 12.142 18.803 12.1243C18.8085 12.1067 18.8153 12.0959 18.8228 12.0927C18.8303 12.0896 18.8384 12.0943 18.8463 12.1063C18.8542 12.1183 18.8617 12.1374 18.8682 12.162C18.8747 12.1865 18.8801 12.2159 18.8838 12.2475C18.8875 12.2792 18.8895 12.3123 18.8896 12.3442" stroke="black" stroke-width="0.00833333"/>
<path d="M18.9406 12.3445C18.9289 12.3886 18.9154 12.4269 18.9022 12.4538C18.8889 12.4807 18.8765 12.4947 18.8669 12.4939C18.8572 12.4931 18.8508 12.4774 18.8485 12.4491C18.8463 12.4209 18.8483 12.3816 18.8544 12.337C18.8586 12.3043 18.8648 12.2695 18.8726 12.2355C18.8805 12.2015 18.8896 12.1693 18.8994 12.1415C18.9092 12.1137 18.9192 12.0912 18.9288 12.0758C18.9383 12.0603 18.9471 12.0524 18.9543 12.0527C18.9615 12.0531 18.967 12.0616 18.9703 12.0776C18.9736 12.0936 18.9746 12.1166 18.9733 12.1447C18.972 12.1729 18.9683 12.2053 18.9626 12.2394C18.957 12.2735 18.9494 12.3083 18.9406 12.3408" fill="#009B3A"/>
<path d="M18.9406 12.3445C18.9289 12.3886 18.9154 12.4269 18.9022 12.4538C18.8889 12.4807 18.8765 12.4947 18.8669 12.4939C18.8572 12.4931 18.8508 12.4774 18.8485 12.4491C18.8463 12.4209 18.8483 12.3816 18.8544 12.337C18.8586 12.3043 18.8648 12.2695 18.8726 12.2355C18.8805 12.2015 18.8896 12.1693 18.8994 12.1415C18.9092 12.1137 18.9192 12.0912 18.9288 12.0758C18.9383 12.0603 18.9471 12.0524 18.9543 12.0527C18.9615 12.0531 18.967 12.0616 18.9703 12.0776C18.9736 12.0936 18.9746 12.1166 18.9733 12.1447C18.972 12.1729 18.9683 12.2053 18.9626 12.2394C18.957 12.2735 18.9494 12.3083 18.9406 12.3408" stroke="black" stroke-width="0.00833333"/>
<path d="M18.9877 12.3893C18.9773 12.4218 18.9643 12.456 18.9499 12.4891C18.9356 12.5223 18.9202 12.5533 18.9051 12.5795C18.89 12.6058 18.8756 12.6264 18.8633 12.6398C18.8509 12.6531 18.8409 12.6588 18.8341 12.6562C18.8273 12.6536 18.8239 12.6429 18.8242 12.6249C18.8246 12.607 18.8286 12.5824 18.8359 12.5532C18.8433 12.524 18.8537 12.4911 18.8665 12.4573C18.8792 12.4236 18.8937 12.3899 18.9089 12.3593C18.9193 12.3268 18.9322 12.2926 18.9466 12.2594C18.961 12.2263 18.9764 12.1953 18.9915 12.169C19.0066 12.1428 19.0209 12.1221 19.0333 12.1088C19.0457 12.0954 19.0557 12.0898 19.0625 12.0924C19.0693 12.095 19.0726 12.1057 19.0723 12.1237C19.072 12.1416 19.068 12.1662 19.0607 12.1954C19.0533 12.2246 19.0428 12.2575 19.0301 12.2912C19.0174 12.325 19.0028 12.3586 18.9877 12.3893" fill="#009B3A"/>
<path d="M18.9877 12.3893C18.9773 12.4218 18.9643 12.456 18.9499 12.4891C18.9356 12.5223 18.9202 12.5533 18.9051 12.5795C18.89 12.6058 18.8756 12.6264 18.8633 12.6398C18.8509 12.6531 18.8409 12.6588 18.8341 12.6562C18.8273 12.6536 18.8239 12.6429 18.8242 12.6249C18.8246 12.607 18.8286 12.5824 18.8359 12.5532C18.8433 12.524 18.8537 12.4911 18.8665 12.4573C18.8792 12.4236 18.8937 12.3899 18.9089 12.3593C18.9193 12.3268 18.9322 12.2926 18.9466 12.2594C18.961 12.2263 18.9764 12.1953 18.9915 12.169C19.0066 12.1428 19.0209 12.1221 19.0333 12.1088C19.0457 12.0954 19.0557 12.0898 19.0625 12.0924C19.0693 12.095 19.0726 12.1057 19.0723 12.1237C19.072 12.1416 19.068 12.1662 19.0607 12.1954C19.0533 12.2246 19.0428 12.2575 19.0301 12.2912C19.0174 12.325 19.0028 12.3586 18.9877 12.3893" stroke="black" stroke-width="0.00833333"/>
<path d="M18.8652 12.5735C18.8441 12.5573 18.824 12.5398 18.8052 12.521C18.7977 12.5098 18.8089 12.4835 18.7789 12.4535C18.7489 12.4235 18.7114 12.416 18.6889 12.416C18.6664 12.4198 18.6664 12.4423 18.7002 12.476C18.7377 12.5135 18.7752 12.506 18.7902 12.521C18.8127 12.536 18.8427 12.5623 18.8539 12.581L18.9514 12.596C18.9777 12.596 19.0339 12.6373 19.0827 12.6373C19.1202 12.6373 19.1502 12.6185 19.1277 12.5998C19.0991 12.5788 19.0655 12.5658 19.0302 12.5623C19.0002 12.5623 18.9739 12.5923 18.9477 12.5848L18.8614 12.5735M18.7752 12.8473C18.7163 12.8569 18.6604 12.8604 18.6198 12.8571C18.5791 12.8537 18.5572 12.8437 18.5587 12.8293C18.5602 12.8148 18.585 12.7972 18.6277 12.7802C18.6704 12.7631 18.7275 12.7482 18.7864 12.7385C18.8156 12.7337 18.8444 12.7304 18.871 12.7287C18.8977 12.7271 18.9218 12.727 18.9419 12.7287C18.962 12.7304 18.9777 12.7337 18.9882 12.7385C18.9987 12.7432 19.0037 12.7494 19.003 12.7565C19.0022 12.7637 18.9958 12.7717 18.9839 12.7801C18.9721 12.7885 18.9551 12.7972 18.9339 12.8056C18.9128 12.814 18.8879 12.8221 18.8606 12.8292C18.8334 12.8364 18.8044 12.8425 18.7752 12.8473" fill="#009B3A"/>
<path d="M18.8652 12.5735C18.8441 12.5573 18.824 12.5398 18.8052 12.521C18.7977 12.5098 18.8089 12.4835 18.7789 12.4535C18.7489 12.4235 18.7114 12.416 18.6889 12.416C18.6664 12.4198 18.6664 12.4423 18.7002 12.476C18.7377 12.5135 18.7752 12.506 18.7902 12.521C18.8127 12.536 18.8427 12.5623 18.8539 12.581L18.9514 12.596C18.9777 12.596 19.0339 12.6373 19.0827 12.6373C19.1202 12.6373 19.1502 12.6185 19.1277 12.5998C19.0991 12.5788 19.0655 12.5658 19.0302 12.5623C19.0002 12.5623 18.9739 12.5923 18.9477 12.5848L18.8614 12.5735M18.7752 12.8473C18.7163 12.8569 18.6604 12.8604 18.6198 12.8571C18.5791 12.8537 18.5572 12.8437 18.5587 12.8293C18.5602 12.8148 18.585 12.7972 18.6277 12.7802C18.6704 12.7631 18.7275 12.7482 18.7864 12.7385C18.8156 12.7337 18.8444 12.7304 18.871 12.7287C18.8977 12.7271 18.9218 12.727 18.9419 12.7287C18.962 12.7304 18.9777 12.7337 18.9882 12.7385C18.9987 12.7432 19.0037 12.7494 19.003 12.7565C19.0022 12.7637 18.9958 12.7717 18.9839 12.7801C18.9721 12.7885 18.9551 12.7972 18.9339 12.8056C18.9128 12.814 18.8879 12.8221 18.8606 12.8292C18.8334 12.8364 18.8044 12.8425 18.7752 12.8473" stroke="black" stroke-width="0.00833333"/>
<path d="M18.7689 12.7863C18.7095 12.8092 18.6514 12.826 18.6076 12.833C18.5638 12.8401 18.5378 12.8368 18.5354 12.8238C18.5329 12.8109 18.5541 12.7894 18.5944 12.7641C18.6347 12.7388 18.6907 12.7117 18.7502 12.6888C18.8117 12.6651 18.8718 12.6477 18.9171 12.6404C18.9624 12.6332 18.9893 12.6366 18.9918 12.6501C18.9942 12.6635 18.9722 12.6858 18.9304 12.712C18.8886 12.7383 18.8305 12.7663 18.7689 12.79" fill="#009B3A"/>
<path d="M18.7689 12.7863C18.7095 12.8092 18.6514 12.826 18.6076 12.833C18.5638 12.8401 18.5378 12.8368 18.5354 12.8238C18.5329 12.8109 18.5541 12.7894 18.5944 12.7641C18.6347 12.7388 18.6907 12.7117 18.7502 12.6888C18.8117 12.6651 18.8718 12.6477 18.9171 12.6404C18.9624 12.6332 18.9893 12.6366 18.9918 12.6501C18.9942 12.6635 18.9722 12.6858 18.9304 12.712C18.8886 12.7383 18.8305 12.7663 18.7689 12.79" stroke="black" stroke-width="0.00833333"/>
<path d="M18.6894 12.614C18.6654 12.6591 18.6395 12.6987 18.6161 12.7263C18.5926 12.7539 18.5732 12.7678 18.5609 12.7656C18.5486 12.7634 18.5442 12.7453 18.5485 12.7143C18.5528 12.6832 18.5655 12.6412 18.5844 12.5953C18.5968 12.5654 18.6113 12.5348 18.6271 12.5058C18.6429 12.4767 18.6594 12.4499 18.6755 12.4273C18.6917 12.4048 18.707 12.387 18.7203 12.3752C18.7337 12.3635 18.7448 12.3582 18.7528 12.3596C18.7608 12.361 18.7655 12.3692 18.7665 12.3835C18.7676 12.3978 18.765 12.4178 18.7589 12.4422C18.7529 12.4666 18.7435 12.4947 18.7314 12.5244C18.7194 12.5541 18.7051 12.5847 18.6894 12.614" fill="#009B3A"/>
<path d="M18.6894 12.614C18.6654 12.6591 18.6395 12.6987 18.6161 12.7263C18.5926 12.7539 18.5732 12.7678 18.5609 12.7656C18.5486 12.7634 18.5442 12.7453 18.5485 12.7143C18.5528 12.6832 18.5655 12.6412 18.5844 12.5953C18.5968 12.5654 18.6113 12.5348 18.6271 12.5058C18.6429 12.4767 18.6594 12.4499 18.6755 12.4273C18.6917 12.4048 18.707 12.387 18.7203 12.3752C18.7337 12.3635 18.7448 12.3582 18.7528 12.3596C18.7608 12.361 18.7655 12.3692 18.7665 12.3835C18.7676 12.3978 18.765 12.4178 18.7589 12.4422C18.7529 12.4666 18.7435 12.4947 18.7314 12.5244C18.7194 12.5541 18.7051 12.5847 18.6894 12.614" stroke="black" stroke-width="0.00833333"/>
<path d="M18.7483 12.6448C18.7261 12.6698 18.7031 12.6939 18.6805 12.7156C18.6579 12.7373 18.6362 12.7563 18.6165 12.7714C18.5969 12.7865 18.5797 12.7974 18.566 12.8036C18.5523 12.8098 18.5423 12.8111 18.5367 12.8074C18.531 12.8037 18.5298 12.7951 18.533 12.7821C18.5362 12.7691 18.5439 12.7519 18.5555 12.7316C18.5672 12.7113 18.5826 12.6882 18.6008 12.6636C18.6191 12.6391 18.6399 12.6136 18.662 12.5885C18.7067 12.5379 18.7541 12.4924 18.7938 12.4619C18.8334 12.4314 18.8622 12.4184 18.8736 12.4259C18.885 12.4334 18.8783 12.4606 18.8547 12.5016C18.8312 12.5427 18.7929 12.5942 18.7483 12.6448" fill="#009B3A"/>
<path d="M18.7483 12.6448C18.7261 12.6698 18.7031 12.6939 18.6805 12.7156C18.6579 12.7373 18.6362 12.7563 18.6165 12.7714C18.5969 12.7865 18.5797 12.7974 18.566 12.8036C18.5523 12.8098 18.5423 12.8111 18.5367 12.8074C18.531 12.8037 18.5298 12.7951 18.533 12.7821C18.5362 12.7691 18.5439 12.7519 18.5555 12.7316C18.5672 12.7113 18.5826 12.6882 18.6008 12.6636C18.6191 12.6391 18.6399 12.6136 18.662 12.5885C18.7067 12.5379 18.7541 12.4924 18.7938 12.4619C18.8334 12.4314 18.8622 12.4184 18.8736 12.4259C18.885 12.4334 18.8783 12.4606 18.8547 12.5016C18.8312 12.5427 18.7929 12.5942 18.7483 12.6448" stroke="black" stroke-width="0.00833333"/>
<path d="M18.7637 12.7153C18.7366 12.7376 18.7078 12.7591 18.6793 12.7786C18.6508 12.798 18.6234 12.8148 18.5988 12.8277C18.5743 12.8407 18.5533 12.8495 18.5373 12.8536C18.5213 12.8577 18.5107 12.8569 18.5063 12.8514C18.5018 12.8458 18.5036 12.8356 18.5116 12.8214C18.5195 12.8073 18.5333 12.7895 18.5522 12.7694C18.571 12.7493 18.5943 12.7273 18.6205 12.705C18.6466 12.6827 18.675 12.6606 18.7037 12.6403C18.7498 12.6076 18.7941 12.5812 18.8289 12.5657C18.8636 12.5502 18.8866 12.5467 18.8938 12.5556C18.901 12.5646 18.8918 12.5855 18.868 12.6147C18.8442 12.6439 18.8073 12.6795 18.7637 12.7153" fill="#009B3A"/>
<path d="M18.7637 12.7153C18.7366 12.7376 18.7078 12.7591 18.6793 12.7786C18.6508 12.798 18.6234 12.8148 18.5988 12.8277C18.5743 12.8407 18.5533 12.8495 18.5373 12.8536C18.5213 12.8577 18.5107 12.8569 18.5063 12.8514C18.5018 12.8458 18.5036 12.8356 18.5116 12.8214C18.5195 12.8073 18.5333 12.7895 18.5522 12.7694C18.571 12.7493 18.5943 12.7273 18.6205 12.705C18.6466 12.6827 18.675 12.6606 18.7037 12.6403C18.7498 12.6076 18.7941 12.5812 18.8289 12.5657C18.8636 12.5502 18.8866 12.5467 18.8938 12.5556C18.901 12.5646 18.8918 12.5855 18.868 12.6147C18.8442 12.6439 18.8073 12.6795 18.7637 12.7153" stroke="black" stroke-width="0.00833333"/>
<path d="M18.5408 12.8133C18.5303 12.7864 18.5215 12.7588 18.5146 12.7308C18.5108 12.7158 18.5371 12.7008 18.5258 12.6558C18.5131 12.6195 18.4878 12.5889 18.4546 12.5695C18.4358 12.5583 18.4208 12.577 18.4358 12.6295C18.4508 12.682 18.4883 12.7008 18.4996 12.727L18.5296 12.817L18.6121 12.8883C18.6346 12.907 18.6683 12.9783 18.7133 13.0045C18.7508 13.0308 18.7883 13.0233 18.7808 12.997C18.7639 12.9611 18.7381 12.9302 18.7058 12.907C18.6796 12.8845 18.6383 12.8958 18.6121 12.877C18.5971 12.8583 18.5371 12.817 18.5371 12.8133" fill="#009B3A"/>
<path d="M18.5408 12.8133C18.5303 12.7864 18.5215 12.7588 18.5146 12.7308C18.5108 12.7158 18.5371 12.7008 18.5258 12.6558C18.5131 12.6195 18.4878 12.5889 18.4546 12.5695C18.4358 12.5583 18.4208 12.577 18.4358 12.6295C18.4508 12.682 18.4883 12.7008 18.4996 12.727L18.5296 12.817L18.6121 12.8883C18.6346 12.907 18.6683 12.9783 18.7133 13.0045C18.7508 13.0308 18.7883 13.0233 18.7808 12.997C18.7639 12.9611 18.7381 12.9302 18.7058 12.907C18.6796 12.8845 18.6383 12.8958 18.6121 12.877C18.5971 12.8583 18.5371 12.817 18.5371 12.8133" stroke="black" stroke-width="0.00833333"/>
<path d="M18.4055 13.0492C18.3556 13.0465 18.3112 13.0388 18.2795 13.0274C18.2477 13.016 18.2305 13.0015 18.2305 12.9864C18.2305 12.9712 18.2477 12.9562 18.2795 12.9438C18.3112 12.9314 18.3556 12.9223 18.4055 12.918C18.4554 12.9207 18.4998 12.9284 18.5316 12.9398C18.5633 12.9512 18.5806 12.9657 18.5806 12.9808C18.5806 12.996 18.5633 13.0109 18.5316 13.0233C18.4998 13.0358 18.4554 13.0449 18.4055 13.0492" fill="#009B3A"/>
<path d="M18.4055 13.0492C18.3556 13.0465 18.3112 13.0388 18.2795 13.0274C18.2477 13.016 18.2305 13.0015 18.2305 12.9864C18.2305 12.9712 18.2477 12.9562 18.2795 12.9438C18.3112 12.9314 18.3556 12.9223 18.4055 12.918C18.4554 12.9207 18.4998 12.9284 18.5316 12.9398C18.5633 12.9512 18.5806 12.9657 18.5806 12.9808C18.5806 12.996 18.5633 13.0109 18.5316 13.0233C18.4998 13.0358 18.4554 13.0449 18.4055 13.0492" stroke="black" stroke-width="0.00833333"/>
<path d="M18.375 12.8439C18.3358 12.8947 18.2928 12.939 18.2555 12.9671C18.2183 12.9953 18.1898 13.005 18.1764 12.994C18.163 12.9831 18.1657 12.9524 18.1839 12.9088C18.2022 12.8652 18.2345 12.8122 18.2737 12.7614C18.2928 12.7369 18.3129 12.7136 18.3329 12.693C18.3529 12.6725 18.3725 12.6549 18.3905 12.6414C18.4084 12.6279 18.4245 12.6186 18.4377 12.6143C18.4509 12.6099 18.461 12.6104 18.4674 12.6158C18.4738 12.6212 18.4764 12.6314 18.475 12.6458C18.4736 12.6602 18.4683 12.6785 18.4594 12.6997C18.4505 12.7209 18.4381 12.7445 18.423 12.7693C18.4079 12.794 18.3903 12.8194 18.3712 12.8439" fill="#009B3A"/>
<path d="M18.375 12.8439C18.3358 12.8947 18.2928 12.939 18.2555 12.9671C18.2183 12.9953 18.1898 13.005 18.1764 12.994C18.163 12.9831 18.1657 12.9524 18.1839 12.9088C18.2022 12.8652 18.2345 12.8122 18.2737 12.7614C18.2928 12.7369 18.3129 12.7136 18.3329 12.693C18.3529 12.6725 18.3725 12.6549 18.3905 12.6414C18.4084 12.6279 18.4245 12.6186 18.4377 12.6143C18.4509 12.6099 18.461 12.6104 18.4674 12.6158C18.4738 12.6212 18.4764 12.6314 18.475 12.6458C18.4736 12.6602 18.4683 12.6785 18.4594 12.6997C18.4505 12.7209 18.4381 12.7445 18.423 12.7693C18.4079 12.794 18.3903 12.8194 18.3712 12.8439" stroke="black" stroke-width="0.00833333"/>
<path d="M18.4079 12.9476C18.3495 12.9726 18.2911 12.9902 18.2456 12.9963C18.2001 13.0024 18.1712 12.9967 18.1652 12.9802C18.1592 12.9638 18.1767 12.9381 18.2138 12.9088C18.2509 12.8795 18.3045 12.8489 18.3629 12.8238C18.4213 12.7987 18.4797 12.7812 18.5253 12.7751C18.5708 12.769 18.5997 12.7747 18.6057 12.7911C18.6116 12.8076 18.5942 12.8333 18.5571 12.8626C18.52 12.8919 18.4663 12.9225 18.4079 12.9476M18.4717 10.9451C18.4974 10.9691 18.5186 10.9929 18.5313 11.0118C18.5439 11.0307 18.547 11.0432 18.5399 11.047C18.5328 11.0508 18.5161 11.0455 18.4931 11.0322C18.4701 11.0188 18.4423 10.9985 18.4154 10.9751C18.4005 10.9621 18.3863 10.9486 18.3738 10.9354C18.3612 10.9223 18.3505 10.9097 18.3424 10.8986C18.3342 10.8875 18.3288 10.878 18.3265 10.8708C18.3242 10.8635 18.3251 10.8587 18.329 10.8567C18.3329 10.8546 18.3398 10.8552 18.3493 10.8586C18.3587 10.862 18.3706 10.8681 18.384 10.8764C18.3974 10.8847 18.4121 10.8951 18.4272 10.9069C18.4423 10.9188 18.4575 10.9317 18.4717 10.9451M18.4004 11.0013C18.4315 11.0071 18.4593 11.0145 18.4797 11.0224C18.5 11.0303 18.5117 11.0383 18.513 11.0452C18.5143 11.052 18.5051 11.0573 18.4868 11.0602C18.4684 11.0631 18.4421 11.0635 18.4117 11.0613C18.3905 11.0598 18.368 11.057 18.346 11.0533C18.3241 11.0495 18.3032 11.0449 18.285 11.0397C18.2668 11.0345 18.2518 11.0289 18.2412 11.0234C18.2305 11.0178 18.2245 11.0125 18.2236 11.0077C18.2227 11.0029 18.227 10.9989 18.236 10.9959C18.245 10.9929 18.2586 10.991 18.2757 10.9904C18.2928 10.9897 18.313 10.9904 18.3346 10.9923C18.3562 10.9942 18.3788 10.9973 18.4004 11.0013" fill="#009B3A"/>
<path d="M18.4079 12.9476C18.3495 12.9726 18.2911 12.9902 18.2456 12.9963C18.2001 13.0024 18.1712 12.9967 18.1652 12.9802C18.1592 12.9638 18.1767 12.9381 18.2138 12.9088C18.2509 12.8795 18.3045 12.8489 18.3629 12.8238C18.4213 12.7987 18.4797 12.7812 18.5253 12.7751C18.5708 12.769 18.5997 12.7747 18.6057 12.7911C18.6116 12.8076 18.5942 12.8333 18.5571 12.8626C18.52 12.8919 18.4663 12.9225 18.4079 12.9476M18.4717 10.9451C18.4974 10.9691 18.5186 10.9929 18.5313 11.0118C18.5439 11.0307 18.547 11.0432 18.5399 11.047C18.5328 11.0508 18.5161 11.0455 18.4931 11.0322C18.4701 11.0188 18.4423 10.9985 18.4154 10.9751C18.4005 10.9621 18.3863 10.9486 18.3738 10.9354C18.3612 10.9223 18.3505 10.9097 18.3424 10.8986C18.3342 10.8875 18.3288 10.878 18.3265 10.8708C18.3242 10.8635 18.3251 10.8587 18.329 10.8567C18.3329 10.8546 18.3398 10.8552 18.3493 10.8586C18.3587 10.862 18.3706 10.8681 18.384 10.8764C18.3974 10.8847 18.4121 10.8951 18.4272 10.9069C18.4423 10.9188 18.4575 10.9317 18.4717 10.9451M18.4004 11.0013C18.4315 11.0071 18.4593 11.0145 18.4797 11.0224C18.5 11.0303 18.5117 11.0383 18.513 11.0452C18.5143 11.052 18.5051 11.0573 18.4868 11.0602C18.4684 11.0631 18.4421 11.0635 18.4117 11.0613C18.3905 11.0598 18.368 11.057 18.346 11.0533C18.3241 11.0495 18.3032 11.0449 18.285 11.0397C18.2668 11.0345 18.2518 11.0289 18.2412 11.0234C18.2305 11.0178 18.2245 11.0125 18.2236 11.0077C18.2227 11.0029 18.227 10.9989 18.236 10.9959C18.245 10.9929 18.2586 10.991 18.2757 10.9904C18.2928 10.9897 18.313 10.9904 18.3346 10.9923C18.3562 10.9942 18.3788 10.9973 18.4004 11.0013" stroke="black" stroke-width="0.00833333"/>
<path d="M18.4294 10.9655C18.4485 10.9752 18.467 10.9854 18.4838 10.9956C18.5007 11.0058 18.5156 11.0157 18.5277 11.0249C18.5398 11.034 18.5489 11.0421 18.5543 11.0488C18.5598 11.0555 18.5616 11.0605 18.5597 11.0637C18.5577 11.0669 18.552 11.0682 18.5429 11.0674C18.5337 11.0667 18.5214 11.0639 18.5065 11.0593C18.4916 11.0547 18.4745 11.0484 18.4561 11.0407C18.4377 11.0329 18.4185 11.024 18.3994 11.0143C18.3608 10.9947 18.3255 10.9733 18.301 10.9549C18.2766 10.9365 18.2651 10.9225 18.2691 10.916C18.2731 10.9096 18.2922 10.9111 18.3223 10.9204C18.3523 10.9297 18.3908 10.9459 18.4294 10.9655M17.3906 12.8255C17.3906 12.8255 17.5819 12.8668 17.7506 12.9268C17.9194 12.9905 18.1744 13.1968 18.2419 13.2118C18.3169 13.2118 18.4256 13.1855 18.4669 13.0768C18.3469 13.1068 18.2794 13.1555 18.1669 13.0955C18.1256 13.0805 17.9944 12.9605 17.8481 12.8968C17.7056 12.833 17.4169 12.7618 17.4169 12.7618L17.3906 12.8255M17.5969 11.0818L17.8181 10.9655L17.5744 11.0293L17.5444 11.0705L17.5969 11.0818" fill="#009B3A"/>
<path d="M18.4294 10.9655C18.4485 10.9752 18.467 10.9854 18.4838 10.9956C18.5007 11.0058 18.5156 11.0157 18.5277 11.0249C18.5398 11.034 18.5489 11.0421 18.5543 11.0488C18.5598 11.0555 18.5616 11.0605 18.5597 11.0637C18.5577 11.0669 18.552 11.0682 18.5429 11.0674C18.5337 11.0667 18.5214 11.0639 18.5065 11.0593C18.4916 11.0547 18.4745 11.0484 18.4561 11.0407C18.4377 11.0329 18.4185 11.024 18.3994 11.0143C18.3608 10.9947 18.3255 10.9733 18.301 10.9549C18.2766 10.9365 18.2651 10.9225 18.2691 10.916C18.2731 10.9096 18.2922 10.9111 18.3223 10.9204C18.3523 10.9297 18.3908 10.9459 18.4294 10.9655M17.3906 12.8255C17.3906 12.8255 17.5819 12.8668 17.7506 12.9268C17.9194 12.9905 18.1744 13.1968 18.2419 13.2118C18.3169 13.2118 18.4256 13.1855 18.4669 13.0768C18.3469 13.1068 18.2794 13.1555 18.1669 13.0955C18.1256 13.0805 17.9944 12.9605 17.8481 12.8968C17.7056 12.833 17.4169 12.7618 17.4169 12.7618L17.3906 12.8255M17.5969 11.0818L17.8181 10.9655L17.5744 11.0293L17.5444 11.0705L17.5969 11.0818" stroke="black" stroke-width="0.00833333"/>
<path d="M17.8078 11.1363C17.7216 11.1175 17.5903 11.0875 17.5078 11.0838C17.5641 11.02 17.6428 10.9075 17.6953 10.8438C17.6578 10.9075 17.6091 10.9938 17.5903 11.05C17.6466 11.0838 17.7403 11.11 17.8078 11.1325" fill="#009B3A"/>
<path d="M17.8078 11.1363C17.7216 11.1175 17.5903 11.0875 17.5078 11.0838C17.5641 11.02 17.6428 10.9075 17.6953 10.8438C17.6578 10.9075 17.6091 10.9938 17.5903 11.05C17.6466 11.0838 17.7403 11.11 17.8078 11.1325" stroke="black" stroke-width="0.00833333"/>
<path d="M17.5564 11.0952C17.6221 11.0432 17.6884 10.9919 17.7552 10.9414L17.5264 11.0427L17.5039 11.0914H17.5564" fill="#009B3A"/>
<path d="M17.5564 11.0952C17.6221 11.0432 17.6884 10.9919 17.7552 10.9414L17.5264 11.0427L17.5039 11.0914H17.5564" stroke="black" stroke-width="0.00833333"/>
<path d="M17.7648 11.1338C17.6786 11.1151 17.5473 11.0851 17.4648 11.0776C17.5173 11.0138 17.5961 10.9013 17.6448 10.8301C17.6148 10.8976 17.5623 10.9838 17.5436 11.0476C17.6036 11.0813 17.6973 11.1076 17.7686 11.1338" fill="#009B3A"/>
<path d="M17.7648 11.1338C17.6786 11.1151 17.5473 11.0851 17.4648 11.0776C17.5173 11.0138 17.5961 10.9013 17.6448 10.8301C17.6148 10.8976 17.5623 10.9838 17.5436 11.0476C17.6036 11.0813 17.6973 11.1076 17.7686 11.1338" stroke="black" stroke-width="0.00833333"/>
<path d="M17.5252 11.1073L17.7539 11.0098L17.5064 11.051L17.4727 11.0885L17.5214 11.1073" fill="#009B3A"/>
<path d="M17.5252 11.1073L17.7539 11.0098L17.5064 11.051L17.4727 11.0885L17.5214 11.1073" stroke="black" stroke-width="0.00833333"/>
<path d="M17.7372 11.138C17.6509 11.1268 17.5122 11.1118 17.4297 11.1155C17.4784 11.0405 17.5422 10.9168 17.5834 10.8418C17.5609 10.913 17.5197 11.0068 17.5084 11.0705C17.5722 11.1005 17.6697 11.1155 17.7372 11.1343" fill="#009B3A"/>
<path d="M17.7372 11.138C17.6509 11.1268 17.5122 11.1118 17.4297 11.1155C17.4784 11.0405 17.5422 10.9168 17.5834 10.8418C17.5609 10.913 17.5197 11.0068 17.5084 11.0705C17.5722 11.1005 17.6697 11.1155 17.7372 11.1343" stroke="black" stroke-width="0.00833333"/>
<path d="M17.4978 11.1074L17.6553 10.9199L17.4566 11.0662L17.4453 11.1149L17.4978 11.1074" fill="#009B3A"/>
<path d="M17.4978 11.1074L17.6553 10.9199L17.4566 11.0662L17.4453 11.1149L17.4978 11.1074" stroke="black" stroke-width="0.00833333"/>
<path d="M17.7402 11.1491C17.6464 11.1491 17.5002 11.1379 17.4102 11.1491C17.4552 11.0629 17.5114 10.9241 17.5452 10.8379C17.5302 10.9166 17.4964 11.0254 17.4927 11.0966C17.5602 11.1191 17.6652 11.1341 17.7402 11.1491" fill="#009B3A"/>
<path d="M17.7402 11.1491C17.6464 11.1491 17.5002 11.1379 17.4102 11.1491C17.4552 11.0629 17.5114 10.9241 17.5452 10.8379C17.5302 10.9166 17.4964 11.0254 17.4927 11.0966C17.5602 11.1191 17.6652 11.1341 17.7402 11.1491" stroke="black" stroke-width="0.00833333"/>
<path d="M17.4703 11.1525L17.6578 10.9688L17.4291 11.1L17.4141 11.1525H17.4703Z" fill="#009B3A" stroke="black" stroke-width="0.00833333"/>
<path d="M17.6961 11.1521C17.5948 11.1521 17.4411 11.1484 17.3398 11.1596C17.4073 11.0659 17.4973 10.9121 17.5498 10.8184C17.5123 10.9046 17.4598 11.0209 17.4373 11.0996C17.5086 11.1259 17.6173 11.1371 17.6961 11.1521Z" fill="#009B3A" stroke="black" stroke-width="0.00833333"/>
<path d="M17.3998 11.1672L17.6473 10.9609L17.3698 11.1072L17.3398 11.1672H17.3998" fill="#009B3A"/>
<path d="M17.3998 11.1672L17.6473 10.9609L17.3698 11.1072L17.3398 11.1672H17.3998" stroke="black" stroke-width="0.00833333"/>
<path d="M17.665 11.1591C17.5637 11.1741 17.4063 11.1891 17.3125 11.2153C17.3613 11.1141 17.4287 10.9528 17.47 10.8516C17.4475 10.9416 17.4062 11.0616 17.395 11.1441C17.47 11.1591 17.5825 11.1553 17.6612 11.1591" fill="#009B3A"/>
<path d="M17.665 11.1591C17.5637 11.1741 17.4063 11.1891 17.3125 11.2153C17.3613 11.1141 17.4287 10.9528 17.47 10.8516C17.4475 10.9416 17.4062 11.0616 17.395 11.1441C17.47 11.1591 17.5825 11.1553 17.6612 11.1591" stroke="black" stroke-width="0.00833333"/>
<path d="M17.3725 11.2078L17.56 10.9453L17.3237 11.1591L17.3125 11.2228L17.3725 11.2078" fill="#009B3A"/>
<path d="M17.3725 11.2078L17.56 10.9453L17.3237 11.1591L17.3125 11.2228L17.3725 11.2078" stroke="black" stroke-width="0.00833333"/>
<path d="M17.6025 11.19C17.505 11.2012 17.3475 11.2087 17.25 11.2275C17.3063 11.13 17.3812 10.9725 17.43 10.875C17.4 10.9613 17.355 11.0812 17.34 11.1637C17.415 11.1825 17.5275 11.1825 17.6025 11.19" fill="#009B3A"/>
<path d="M17.6025 11.19C17.505 11.2012 17.3475 11.2087 17.25 11.2275C17.3063 11.13 17.3812 10.9725 17.43 10.875C17.4 10.9613 17.355 11.0812 17.34 11.1637C17.415 11.1825 17.5275 11.1825 17.6025 11.19" stroke="black" stroke-width="0.00833333"/>
<path d="M17.3373 11.2355L17.5773 11.0293L17.3036 11.1755L17.2773 11.2355H17.3373Z" fill="#009B3A" stroke="black" stroke-width="0.00833333"/>
<path d="M17.5791 11.2009C17.4778 11.2234 17.3203 11.2496 17.2266 11.2796C17.2716 11.1784 17.3316 11.0134 17.3691 10.9121C17.3503 11.0021 17.3166 11.1221 17.3091 11.2046C17.3841 11.2159 17.4966 11.2046 17.5791 11.2009Z" fill="#009B3A" stroke="black" stroke-width="0.00833333"/>
<path d="M17.2945 11.2497L17.4445 10.9609L17.242 11.2084L17.2383 11.2722L17.2945 11.2459" fill="#009B3A"/>
<path d="M17.2945 11.2497L17.4445 10.9609L17.242 11.2084L17.2383 11.2722L17.2945 11.2459" stroke="black" stroke-width="0.00833333"/>
<path d="M17.5781 11.2155C17.4656 11.2455 17.3006 11.283 17.2031 11.3205C17.2406 11.2043 17.2819 11.0205 17.3119 10.9043C17.3006 11.0055 17.2781 11.1405 17.2819 11.2343C17.3681 11.2418 17.4881 11.223 17.5744 11.2155" fill="#009B3A"/>
<path d="M17.5781 11.2155C17.4656 11.2455 17.3006 11.283 17.2031 11.3205C17.2406 11.2043 17.2819 11.0205 17.3119 10.9043C17.3006 11.0055 17.2781 11.1405 17.2819 11.2343C17.3681 11.2418 17.4881 11.223 17.5744 11.2155" stroke="black" stroke-width="0.00833333"/>
<path d="M17.2669 11.3143L17.4619 11.0293L17.2144 11.258L17.2031 11.333L17.2669 11.3143" fill="#009B3A"/>
<path d="M17.2669 11.3143L17.4619 11.0293L17.2144 11.258L17.2031 11.333L17.2669 11.3143" stroke="black" stroke-width="0.00833333"/>
<path d="M17.5316 11.2494C17.4266 11.2831 17.2616 11.3281 17.1641 11.3731C17.1941 11.2531 17.2316 11.0694 17.2541 10.9531C17.2503 11.0544 17.2353 11.1894 17.2428 11.2794C17.3253 11.2831 17.4453 11.2569 17.5316 11.2494" fill="#009B3A"/>
<path d="M17.5316 11.2494C17.4266 11.2831 17.2616 11.3281 17.1641 11.3731C17.1941 11.2531 17.2316 11.0694 17.2541 10.9531C17.2503 11.0544 17.2353 11.1894 17.2428 11.2794C17.3253 11.2831 17.4453 11.2569 17.5316 11.2494" stroke="black" stroke-width="0.00833333"/>
<path d="M17.2278 11.3541L17.3741 11.0391L17.1641 11.3091V11.3841L17.2278 11.3541" fill="#009B3A"/>
<path d="M17.2278 11.3541L17.3741 11.0391L17.1641 11.3091V11.3841L17.2278 11.3541" stroke="black" stroke-width="0.00833333"/>
<path d="M17.4922 11.2952C17.3872 11.3177 17.2184 11.3514 17.1172 11.3852C17.1584 11.2727 17.2109 11.0852 17.2447 10.9727C17.2297 11.0739 17.2034 11.2127 17.2034 11.2989C17.2859 11.3102 17.4059 11.2952 17.4922 11.2914" fill="#009B3A"/>
<path d="M17.4922 11.2952C17.3872 11.3177 17.2184 11.3514 17.1172 11.3852C17.1584 11.2727 17.2109 11.0852 17.2447 10.9727C17.2297 11.0739 17.2034 11.2127 17.2034 11.2989C17.2859 11.3102 17.4059 11.2952 17.4922 11.2914" stroke="black" stroke-width="0.00833333"/>
<path d="M17.1927 11.3842L17.4327 11.1367L17.1514 11.3205L17.1289 11.388L17.1927 11.3842" fill="#009B3A"/>
<path d="M17.1927 11.3842L17.4327 11.1367L17.1514 11.3205L17.1289 11.388L17.1927 11.3842" stroke="black" stroke-width="0.00833333"/>
<path d="M17.4453 11.3351C17.3366 11.3501 17.1716 11.3651 17.0703 11.3913C17.1191 11.2788 17.1828 11.0988 17.2203 10.9863C17.1978 11.0876 17.1641 11.2226 17.1566 11.3126C17.2391 11.3313 17.3591 11.3276 17.4453 11.3351" fill="#009B3A"/>
<path d="M17.4453 11.3351C17.3366 11.3501 17.1716 11.3651 17.0703 11.3913C17.1191 11.2788 17.1828 11.0988 17.2203 10.9863C17.1978 11.0876 17.1641 11.2226 17.1566 11.3126C17.2391 11.3313 17.3591 11.3276 17.4453 11.3351" stroke="black" stroke-width="0.00833333"/>
<path d="M17.1459 11.362L17.3072 11.0508L17.0859 11.3133V11.3845L17.1459 11.3583" fill="#009B3A"/>
<path d="M17.1459 11.362L17.3072 11.0508L17.0859 11.3133V11.3845L17.1459 11.3583" stroke="black" stroke-width="0.00833333"/>
<path d="M17.4556 11.2992C17.3431 11.348 17.1556 11.4117 17.0469 11.4717C17.0844 11.333 17.1219 11.1155 17.1444 10.9805C17.1444 11.0967 17.1256 11.258 17.1331 11.3592C17.2269 11.3592 17.3581 11.318 17.4556 11.2992" fill="#009B3A"/>
<path d="M17.4556 11.2992C17.3431 11.348 17.1556 11.4117 17.0469 11.4717C17.0844 11.333 17.1219 11.1155 17.1444 10.9805C17.1444 11.0967 17.1256 11.258 17.1331 11.3592C17.2269 11.3592 17.3581 11.318 17.4556 11.2992" stroke="black" stroke-width="0.00833333"/>
<path d="M17.122 11.4521L17.317 11.0996L17.0583 11.3996L17.0508 11.4821L17.122 11.4521" fill="#009B3A"/>
<path d="M17.122 11.4521L17.317 11.0996L17.0583 11.3996L17.0508 11.4821L17.122 11.4521" stroke="black" stroke-width="0.00833333"/>
<path d="M17.4131 11.3431C17.3006 11.3956 17.1206 11.4706 17.0156 11.5344C17.0456 11.3994 17.0719 11.1781 17.0906 11.0469C17.0906 11.1594 17.0831 11.3206 17.0944 11.4219C17.1881 11.4106 17.3194 11.3656 17.4131 11.3431Z" fill="#009B3A" stroke="black" stroke-width="0.00833333"/>
<path d="M17.083 11.5038L17.2255 11.125L17.0117 11.4625L17.0192 11.5488L17.083 11.5038" fill="#009B3A"/>
<path d="M17.083 11.5038L17.2255 11.125L17.0117 11.4625L17.0192 11.5488L17.083 11.5038" stroke="black" stroke-width="0.00833333"/>
<path d="M17.3623 11.3726C17.2498 11.4288 17.0698 11.5038 16.9648 11.5713C16.9911 11.4326 17.0173 11.2151 17.0361 11.0801C17.0361 11.1926 17.0286 11.3538 17.0436 11.4551C17.1373 11.4438 17.2686 11.3951 17.3623 11.3726" fill="#009B3A"/>
<path d="M17.3623 11.3726C17.2498 11.4288 17.0698 11.5038 16.9648 11.5713C16.9911 11.4326 17.0173 11.2151 17.0361 11.0801C17.0361 11.1926 17.0286 11.3538 17.0436 11.4551C17.1373 11.4438 17.2686 11.3951 17.3623 11.3726" stroke="black" stroke-width="0.00833333"/>
<path d="M17.0517 11.5505L17.2692 11.2168L16.9917 11.4905L16.9805 11.573L17.0517 11.5505Z" fill="#009B3A" stroke="black" stroke-width="0.00833333"/>
<path d="M17.3513 11.3552C17.25 11.4377 17.0887 11.5577 16.9987 11.6477C16.9987 11.5052 16.98 11.2914 16.9688 11.1602C16.9912 11.2689 17.0175 11.4227 17.055 11.5164C17.145 11.4827 17.2612 11.4039 17.355 11.3589" fill="#009B3A"/>
<path d="M17.3513 11.3552C17.25 11.4377 17.0887 11.5577 16.9987 11.6477C16.9987 11.5052 16.98 11.2914 16.9688 11.1602C16.9912 11.2689 17.0175 11.4227 17.055 11.5164C17.145 11.4827 17.2612 11.4039 17.355 11.3589" stroke="black" stroke-width="0.00833333"/>
<path d="M17.063 11.5692L17.0855 11.168L16.9805 11.558L17.0105 11.633L17.063 11.5692" fill="#009B3A"/>
<path d="M17.063 11.5692L17.0855 11.168L16.9805 11.558L17.0105 11.633L17.063 11.5692" stroke="black" stroke-width="0.00833333"/>
<path d="M17.3277 11.3921C17.2227 11.4746 17.0652 11.5909 16.9714 11.6809C16.9714 11.5421 16.9527 11.3246 16.9414 11.1934C16.9677 11.3059 16.9902 11.4559 17.0277 11.5496C17.1177 11.5196 17.2339 11.4371 17.3277 11.3921Z" fill="#009B3A" stroke="black" stroke-width="0.00833333"/>
<path d="M17.0359 11.6359L17.1372 11.2422L16.9609 11.6022L16.9722 11.6847L17.0359 11.6359" fill="#009B3A"/>
<path d="M17.0359 11.6359L17.1372 11.2422L16.9609 11.6022L16.9722 11.6847L17.0359 11.6359" stroke="black" stroke-width="0.00833333"/>
<path d="M17.3108 11.3997C17.217 11.4972 17.0633 11.6397 16.977 11.7372C16.962 11.5984 16.9208 11.3772 16.8945 11.2422C16.932 11.3547 16.9733 11.5084 17.022 11.5984C17.1083 11.5572 17.2245 11.4634 17.3108 11.4034" fill="#009B3A"/>
<path d="M17.3108 11.3997C17.217 11.4972 17.0633 11.6397 16.977 11.7372C16.962 11.5984 16.9208 11.3772 16.8945 11.2422C16.932 11.3547 16.9733 11.5084 17.022 11.5984C17.1083 11.5572 17.2245 11.4634 17.3108 11.4034" stroke="black" stroke-width="0.00833333"/>
<path d="M17.0356 11.6838L17.0544 11.2676L16.9531 11.6726L16.9831 11.7476L17.0356 11.6838" fill="#009B3A"/>
<path d="M17.0356 11.6838L17.0544 11.2676L16.9531 11.6726L16.9831 11.7476L17.0356 11.6838" stroke="black" stroke-width="0.00833333"/>
<path d="M17.2803 11.4738C17.1791 11.5563 17.0178 11.6801 16.9203 11.7738C16.9203 11.6313 16.8941 11.4063 16.8828 11.2676C16.9091 11.3801 16.9391 11.5413 16.9766 11.6388C17.0703 11.6013 17.1903 11.5226 17.2803 11.4701" fill="#009B3A"/>
<path d="M17.2803 11.4738C17.1791 11.5563 17.0178 11.6801 16.9203 11.7738C16.9203 11.6313 16.8941 11.4063 16.8828 11.2676C16.9091 11.3801 16.9391 11.5413 16.9766 11.6388C17.0703 11.6013 17.1903 11.5226 17.2803 11.4701" stroke="black" stroke-width="0.00833333"/>
<path d="M17.0086 11.7336L17.1511 11.3398L16.9336 11.6886L16.9411 11.7748L17.0086 11.7336" fill="#009B3A"/>
<path d="M17.0086 11.7336L17.1511 11.3398L16.9336 11.6886L16.9411 11.7748L17.0086 11.7336" stroke="black" stroke-width="0.00833333"/>
<path d="M17.2803 11.4738C17.1866 11.5675 17.0441 11.7138 16.9616 11.815C16.9466 11.6725 16.9053 11.4475 16.8828 11.3125C16.9203 11.425 16.9578 11.5825 17.0028 11.6725C17.0891 11.6275 17.1941 11.5338 17.2803 11.4738" fill="#009B3A"/>
<path d="M17.2803 11.4738C17.1866 11.5675 17.0441 11.7138 16.9616 11.815C16.9466 11.6725 16.9053 11.4475 16.8828 11.3125C16.9203 11.425 16.9578 11.5825 17.0028 11.6725C17.0891 11.6275 17.1941 11.5338 17.2803 11.4738" stroke="black" stroke-width="0.00833333"/>
<path d="M17.0122 11.7523L16.9972 11.3398L16.9297 11.7523L16.9672 11.8236L17.0122 11.7523Z" fill="#009B3A" stroke="black" stroke-width="0.00833333"/>
<path d="M17.2372 11.5052C17.1472 11.6027 17.0084 11.7489 16.9297 11.8539C16.9109 11.7039 16.8622 11.4864 16.8359 11.3477C16.8734 11.4602 16.9222 11.6177 16.9672 11.7077C17.0497 11.6627 17.1547 11.5652 17.2372 11.5052Z" fill="#009B3A" stroke="black" stroke-width="0.00833333"/>
<path d="M16.9889 11.793L17.0339 11.373L16.9102 11.7705L16.9364 11.853L16.9889 11.793" fill="#009B3A"/>
<path d="M16.9889 11.793L17.0339 11.373L16.9102 11.7705L16.9364 11.853L16.9889 11.793" stroke="black" stroke-width="0.00833333"/>
<path d="M17.2134 11.5188C17.1384 11.6275 17.0072 11.7813 16.9359 11.8938C16.9059 11.7513 16.8422 11.5375 16.8047 11.4062C16.8534 11.5113 16.9097 11.6613 16.9622 11.7475C17.0409 11.695 17.1384 11.59 17.2172 11.5225" fill="#009B3A"/>
<path d="M17.2134 11.5188C17.1384 11.6275 17.0072 11.7813 16.9359 11.8938C16.9059 11.7513 16.8422 11.5375 16.8047 11.4062C16.8534 11.5113 16.9097 11.6613 16.9622 11.7475C17.0409 11.695 17.1384 11.59 17.2172 11.5225" stroke="black" stroke-width="0.00833333"/>
<path d="M16.9888 11.8339L16.9588 11.4102L16.9062 11.8302L16.9437 11.9052L16.985 11.8302" fill="#009B3A"/>
<path d="M16.9888 11.8339L16.9588 11.4102L16.9062 11.8302L16.9437 11.9052L16.985 11.8302" stroke="black" stroke-width="0.00833333"/>
<path d="M17.2091 11.5467C17.1341 11.6592 17.0103 11.8205 16.9466 11.9367C16.9091 11.7942 16.8341 11.5805 16.7891 11.4492C16.8416 11.5542 16.9053 11.7042 16.9653 11.7867C17.0403 11.7305 17.1341 11.618 17.2091 11.5467Z" fill="#009B3A" stroke="black" stroke-width="0.00833333"/>
<path d="M17.0125 11.873L17.0575 11.4492L16.9375 11.8467L16.96 11.933L17.0125 11.873Z" fill="#009B3A" stroke="black" stroke-width="0.00833333"/>
<path d="M17.1894 11.5862C17.1256 11.7024 17.0206 11.8862 16.9644 12.0099C16.9156 11.8749 16.8219 11.6724 16.7656 11.5449C16.8294 11.6424 16.9044 11.7812 16.9719 11.8599C17.0431 11.7924 17.1219 11.6649 17.1894 11.5824" fill="#009B3A"/>
<path d="M17.1894 11.5862C17.1256 11.7024 17.0206 11.8862 16.9644 12.0099C16.9156 11.8749 16.8219 11.6724 16.7656 11.5449C16.8294 11.6424 16.9044 11.7812 16.9719 11.8599C17.0431 11.7924 17.1219 11.6649 17.1894 11.5824" stroke="black" stroke-width="0.00833333"/>
<path d="M16.9989 11.9089L16.8789 11.5039L16.9164 11.9277L16.9727 11.9877L16.9952 11.9089" fill="#009B3A"/>
<path d="M16.9989 11.9089L16.8789 11.5039L16.9164 11.9277L16.9727 11.9877L16.9952 11.9089" stroke="black" stroke-width="0.00833333"/>
<path d="M17.1927 11.6313C17.1252 11.7513 17.0127 11.9313 16.9564 12.055C16.9077 11.92 16.8139 11.7175 16.7539 11.5938C16.8177 11.6913 16.8964 11.83 16.9639 11.905C17.0389 11.8375 17.1214 11.7138 17.1889 11.6313" fill="#009B3A"/>
<path d="M17.1927 11.6313C17.1252 11.7513 17.0127 11.9313 16.9564 12.055C16.9077 11.92 16.8139 11.7175 16.7539 11.5938C16.8177 11.6913 16.8964 11.83 16.9639 11.905C17.0389 11.8375 17.1214 11.7138 17.1889 11.6313" stroke="black" stroke-width="0.00833333"/>
<path d="M17.0044 11.9843L16.9594 11.5605L16.9219 11.9843L16.9631 12.0593L17.0044 11.9843" fill="#009B3A"/>
<path d="M17.0044 11.9843L16.9594 11.5605L16.9219 11.9843L16.9631 12.0593L17.0044 11.9843" stroke="black" stroke-width="0.00833333"/>
<path d="M17.2005 11.6698C17.1292 11.7861 17.013 11.9661 16.9567 12.0861C16.908 11.9511 16.818 11.7486 16.7617 11.6211C16.8255 11.7186 16.9005 11.8611 16.968 11.9361C17.043 11.8723 17.1292 11.7486 17.2005 11.6698Z" fill="#009B3A" stroke="black" stroke-width="0.00833333"/>
<path d="M17.0005 12.018L16.9217 11.6055L16.918 12.0255L16.9667 12.093L17.0005 12.018" fill="#009B3A"/>
<path d="M17.0005 12.018L16.9217 11.6055L16.918 12.0255L16.9667 12.093L17.0005 12.018" stroke="black" stroke-width="0.00833333"/>
<path d="M17.1694 11.7291C17.0944 11.8416 16.9706 12.0104 16.9069 12.1304C16.8656 11.9916 16.7831 11.7779 16.7344 11.6504C16.7906 11.7516 16.8619 11.8979 16.9219 11.9804C17.0006 11.9204 17.0944 11.8041 17.1694 11.7291Z" fill="#009B3A" stroke="black" stroke-width="0.00833333"/>
<path d="M16.9616 12.0624L16.9991 11.6387L16.8828 12.0399L16.9091 12.1224L16.9616 12.0624" fill="#009B3A"/>
<path d="M16.9616 12.0624L16.9991 11.6387L16.8828 12.0399L16.9091 12.1224L16.9616 12.0624" stroke="black" stroke-width="0.00833333"/>
<path d="M17.1731 11.7377C17.1094 11.8614 17.0006 12.0489 16.9481 12.1727C16.8956 12.0414 16.7981 11.8427 16.7344 11.7227C16.8019 11.8127 16.8844 11.9477 16.9519 12.0227C17.0269 11.9514 17.1019 11.8239 17.1731 11.7414" fill="#009B3A"/>
<path d="M17.1731 11.7377C17.1094 11.8614 17.0006 12.0489 16.9481 12.1727C16.8956 12.0414 16.7981 11.8427 16.7344 11.7227C16.8019 11.8127 16.8844 11.9477 16.9519 12.0227C17.0269 11.9514 17.1019 11.8239 17.1731 11.7414" stroke="black" stroke-width="0.00833333"/>
<path d="M16.9516 12.1006L16.8203 11.7031L16.8691 12.1231L16.9253 12.1831L16.9478 12.1006" fill="#009B3A"/>
<path d="M16.9516 12.1006L16.8203 11.7031L16.8691 12.1231L16.9253 12.1831L16.9478 12.1006" stroke="black" stroke-width="0.00833333"/>
<path d="M17.1538 11.7715C17.1088 11.9065 17.0338 12.109 17.0038 12.2477C16.9288 12.1277 16.7975 11.9552 16.7188 11.8465C16.7975 11.9252 16.9025 12.0415 16.9813 12.0977C17.0413 12.0115 17.1013 11.8727 17.1538 11.7715Z" fill="#009B3A" stroke="black" stroke-width="0.00833333"/>
<path d="M17.0645 12.1302L16.9258 11.7402L16.9858 12.1602L17.042 12.2127L17.0645 12.1302" fill="#009B3A"/>
<path d="M17.0645 12.1302L16.9258 11.7402L16.9858 12.1602L17.042 12.2127L17.0645 12.1302" stroke="black" stroke-width="0.00833333"/>
<path d="M17.1538 11.8125C17.1088 11.9475 17.0338 12.1537 17.0038 12.2887C16.9288 12.1687 16.8013 12 16.7188 11.895C16.7975 11.97 16.9025 12.0825 16.9813 12.1425C17.0413 12.0563 17.1013 11.9137 17.1538 11.8125" fill="#009B3A"/>
<path d="M17.1538 11.8125C17.1088 11.9475 17.0338 12.1537 17.0038 12.2887C16.9288 12.1687 16.8013 12 16.7188 11.895C16.7975 11.97 16.9025 12.0825 16.9813 12.1425C17.0413 12.0563 17.1013 11.9137 17.1538 11.8125" stroke="black" stroke-width="0.00833333"/>
<path d="M17.0628 12.1977L16.8828 11.834L16.9878 12.239L17.0516 12.284L17.0666 12.1977" fill="#009B3A"/>
<path d="M17.0628 12.1977L16.8828 11.834L16.9878 12.239L17.0516 12.284L17.0666 12.1977" stroke="black" stroke-width="0.00833333"/>
<path d="M17.1388 11.8457C17.1125 11.9845 17.0638 12.202 17.045 12.3407C16.9588 12.232 16.8087 12.0782 16.7188 11.9882C16.805 12.052 16.9213 12.1532 17.0075 12.1945C17.0563 12.1007 17.0975 11.9507 17.1388 11.8457" fill="#009B3A"/>
<path d="M17.1388 11.8457C17.1125 11.9845 17.0638 12.202 17.045 12.3407C16.9588 12.232 16.8087 12.0782 16.7188 11.9882C16.805 12.052 16.9213 12.1532 17.0075 12.1945C17.0563 12.1007 17.0975 11.9507 17.1388 11.8457" stroke="black" stroke-width="0.00833333"/>
<path d="M17.078 12.2545L16.9805 11.8457L16.9955 12.2695L17.048 12.3332L17.078 12.2582" fill="#009B3A"/>
<path d="M17.078 12.2545L16.9805 11.8457L16.9955 12.2695L17.048 12.3332L17.078 12.2582" stroke="black" stroke-width="0.00833333"/>
<path d="M17.1395 11.8867C17.1245 12.033 17.0945 12.2542 17.0945 12.393C16.997 12.2992 16.8358 12.168 16.7383 12.0892C16.8283 12.1417 16.952 12.2242 17.042 12.2542C17.0795 12.1567 17.1095 11.9992 17.1395 11.8905" fill="#009B3A"/>
<path d="M17.1395 11.8867C17.1245 12.033 17.0945 12.2542 17.0945 12.393C16.997 12.2992 16.8358 12.168 16.7383 12.0892C16.8283 12.1417 16.952 12.2242 17.042 12.2542C17.0795 12.1567 17.1095 11.9992 17.1395 11.8905" stroke="black" stroke-width="0.00833333"/>
<path d="M17.083 12.2847L16.8242 11.9922L17.0192 12.3484L17.0942 12.3709L17.083 12.2847" fill="#009B3A"/>
<path d="M17.083 12.2847L16.8242 11.9922L17.0192 12.3484L17.0942 12.3709L17.083 12.2847" stroke="black" stroke-width="0.00833333"/>
<path d="M17.1472 11.9395C17.1322 12.082 17.1022 12.3032 17.0984 12.442C17.0009 12.3482 16.8397 12.217 16.7422 12.1345C16.8359 12.187 16.9597 12.2732 17.0459 12.3032C17.0872 12.2057 17.1134 12.0482 17.1472 11.9395" fill="#009B3A"/>
<path d="M17.1472 11.9395C17.1322 12.082 17.1022 12.3032 17.0984 12.442C17.0009 12.3482 16.8397 12.217 16.7422 12.1345C16.8359 12.187 16.9597 12.2732 17.0459 12.3032C17.0872 12.2057 17.1134 12.0482 17.1472 11.9395" stroke="black" stroke-width="0.00833333"/>
<path d="M17.1128 12.3525L16.9141 12L17.0378 12.4012L17.1016 12.4425L17.1128 12.3563" fill="#009B3A"/>
<path d="M17.1128 12.3525L16.9141 12L17.0378 12.4012L17.1016 12.4425L17.1128 12.3563" stroke="black" stroke-width="0.00833333"/>
<path d="M17.1592 11.9998C17.148 12.1423 17.1292 12.3636 17.1292 12.5061C17.0118 12.4047 16.8892 12.3095 16.7617 12.2211C16.8592 12.2661 16.9867 12.3448 17.073 12.3711C17.1105 12.2698 17.133 12.1086 17.1592 11.9961" fill="#009B3A"/>
<path d="M17.1592 11.9998C17.148 12.1423 17.1292 12.3636 17.1292 12.5061C17.0118 12.4047 16.8892 12.3095 16.7617 12.2211C16.8592 12.2661 16.9867 12.3448 17.073 12.3711C17.1105 12.2698 17.133 12.1086 17.1592 11.9961" stroke="black" stroke-width="0.00833333"/>
<path d="M17.1381 12.4187L16.8906 12.1074L17.0706 12.4749L17.1381 12.5049V12.4187Z" fill="#009B3A" stroke="black" stroke-width="0.00833333"/>
<path d="M17.1631 12.0663C17.1519 12.2088 17.1331 12.43 17.1369 12.5725C17.0356 12.4825 16.8706 12.3625 16.7656 12.2875C16.8631 12.3363 16.9906 12.4113 17.0806 12.4375C17.1181 12.3363 17.1369 12.175 17.1631 12.0625" fill="#009B3A"/>
<path d="M17.1631 12.0663C17.1519 12.2088 17.1331 12.43 17.1369 12.5725C17.0356 12.4825 16.8706 12.3625 16.7656 12.2875C16.8631 12.3363 16.9906 12.4113 17.0806 12.4375C17.1181 12.3363 17.1369 12.175 17.1631 12.0625" stroke="black" stroke-width="0.00833333"/>
<path d="M17.157 12.4727L16.9883 12.0977L17.082 12.5102L17.142 12.5589L17.157 12.4727Z" fill="#009B3A" stroke="black" stroke-width="0.00833333"/>
<path d="M17.1644 12.1074C17.1719 12.2537 17.1719 12.4749 17.1869 12.6174C17.0604 12.5341 16.9303 12.4565 16.7969 12.3849C16.8944 12.4187 17.0256 12.4749 17.1194 12.4899C17.1456 12.3812 17.1494 12.2237 17.1644 12.1074" fill="#009B3A"/>
<path d="M17.1644 12.1074C17.1719 12.2537 17.1719 12.4749 17.1869 12.6174C17.0604 12.5341 16.9303 12.4565 16.7969 12.3849C16.8944 12.4187 17.0256 12.4749 17.1194 12.4899C17.1456 12.3812 17.1494 12.2237 17.1644 12.1074" stroke="black" stroke-width="0.00833333"/>
<path d="M17.1862 12.4579L16.875 12.2441L17.1375 12.5366L17.2125 12.5404L17.1862 12.4579" fill="#009B3A"/>
<path d="M17.1862 12.4579L16.875 12.2441L17.1375 12.5366L17.2125 12.5404L17.1862 12.4579" stroke="black" stroke-width="0.00833333"/>
<path d="M17.1766 12.123C17.1878 12.2693 17.2028 12.4905 17.2253 12.6293C17.1128 12.558 16.9328 12.468 16.8203 12.4118C16.9216 12.4418 17.0566 12.4943 17.1503 12.5055C17.1691 12.3968 17.1653 12.2393 17.1766 12.123Z" fill="#009B3A" stroke="black" stroke-width="0.00833333"/>
<path d="M17.2234 12.5363L16.9609 12.2363L17.1597 12.5963L17.2309 12.6226L17.2197 12.5363" fill="#009B3A"/>
<path d="M17.2234 12.5363L16.9609 12.2363L17.1597 12.5963L17.2309 12.6226L17.2197 12.5363" stroke="black" stroke-width="0.00833333"/>
<path d="M17.2006 12.1797C17.2194 12.3222 17.2381 12.5434 17.2719 12.6822C17.1594 12.6184 16.9719 12.5397 16.8594 12.4909C16.9606 12.5134 17.0994 12.5584 17.1894 12.5659C17.2044 12.4534 17.1969 12.2959 17.2006 12.1797" fill="#009B3A"/>
<path d="M17.2006 12.1797C17.2194 12.3222 17.2381 12.5434 17.2719 12.6822C17.1594 12.6184 16.9719 12.5397 16.8594 12.4909C16.9606 12.5134 17.0994 12.5584 17.1894 12.5659C17.2044 12.4534 17.1969 12.2959 17.2006 12.1797" stroke="black" stroke-width="0.00833333"/>
<path d="M17.2722 12.5884L16.9609 12.3672L17.2234 12.6672L17.2984 12.6709L17.2722 12.5884Z" fill="#009B3A" stroke="black" stroke-width="0.00833333"/>
<path d="M17.2092 12.2402C17.2355 12.3827 17.273 12.604 17.3105 12.739C17.1942 12.6827 17.003 12.6227 16.8867 12.5852C16.9917 12.5965 17.1305 12.6302 17.2242 12.6227C17.2317 12.514 17.213 12.3602 17.2092 12.2402" fill="#009B3A"/>
<path d="M17.2092 12.2402C17.2355 12.3827 17.273 12.604 17.3105 12.739C17.1942 12.6827 17.003 12.6227 16.8867 12.5852C16.9917 12.5965 17.1305 12.6302 17.2242 12.6227C17.2317 12.514 17.213 12.3602 17.2092 12.2402" stroke="black" stroke-width="0.00833333"/>
<path d="M17.3094 12.6337L17.0469 12.3262L17.2419 12.6899L17.3169 12.7199L17.3094 12.6337Z" fill="#009B3A" stroke="black" stroke-width="0.00833333"/>
<path d="M17.2264 12.2773C17.2677 12.4161 17.3239 12.6336 17.3764 12.7648C17.2527 12.7273 17.0614 12.6898 16.9414 12.6673C17.0464 12.6673 17.1852 12.6786 17.2789 12.6636C17.2789 12.5511 17.2414 12.3973 17.2264 12.2811" fill="#009B3A"/>
<path d="M17.2264 12.2773C17.2677 12.4161 17.3239 12.6336 17.3764 12.7648C17.2527 12.7273 17.0614 12.6898 16.9414 12.6673C17.0464 12.6673 17.1852 12.6786 17.2789 12.6636C17.2789 12.5511 17.2414 12.3973 17.2264 12.2811" stroke="black" stroke-width="0.00833333"/>
<path d="M17.3247 12.6336L16.9609 12.5586L17.3022 12.7273L17.3734 12.7011L17.3209 12.6336" fill="#009B3A"/>
<path d="M17.3247 12.6336L16.9609 12.5586L17.3022 12.7273L17.3734 12.7011L17.3209 12.6336" stroke="black" stroke-width="0.00833333"/>
<path d="M17.2497 12.3223C17.2872 12.461 17.3434 12.6748 17.3922 12.806C17.2722 12.7685 17.0809 12.731 16.9609 12.7085C17.0659 12.7085 17.2047 12.7198 17.2984 12.7085C17.2984 12.596 17.2609 12.4385 17.2497 12.3223" fill="#009B3A"/>
<path d="M17.2497 12.3223C17.2872 12.461 17.3434 12.6748 17.3922 12.806C17.2722 12.7685 17.0809 12.731 16.9609 12.7085C17.0659 12.7085 17.2047 12.7198 17.2984 12.7085C17.2984 12.596 17.2609 12.4385 17.2497 12.3223" stroke="black" stroke-width="0.00833333"/>
<path d="M17.3841 12.6707L17.0391 12.502L17.3466 12.7532L17.4216 12.7457L17.3841 12.6707Z" fill="#009B3A" stroke="black" stroke-width="0.00833333"/>
<path d="M17.2339 12.3438C17.3014 12.4712 17.4027 12.67 17.4777 12.7825C17.3502 12.775 17.1552 12.7825 17.0352 12.7825C17.1364 12.7637 17.2752 12.745 17.3614 12.7075C17.3352 12.5987 17.2714 12.4562 17.2339 12.3438Z" fill="#009B3A" stroke="black" stroke-width="0.00833333"/>
<path d="M17.4381 12.7088L17.0781 12.6113L17.4156 12.7988L17.4831 12.7801L17.4344 12.7051" fill="#009B3A"/>
<path d="M17.4381 12.7088L17.0781 12.6113L17.4156 12.7988L17.4831 12.7801L17.4344 12.7051" stroke="black" stroke-width="0.00833333"/>
<path d="M17.2655 12.4004C17.3367 12.5241 17.438 12.7229 17.5167 12.8354C17.3892 12.8279 17.1942 12.8354 17.0742 12.8429C17.1717 12.8166 17.3142 12.7979 17.3967 12.7604C17.3742 12.6516 17.3067 12.5091 17.2692 12.4004" fill="#009B3A"/>
<path d="M17.2655 12.4004C17.3367 12.5241 17.438 12.7229 17.5167 12.8354C17.3892 12.8279 17.1942 12.8354 17.0742 12.8429C17.1717 12.8166 17.3142 12.7979 17.3967 12.7604C17.3742 12.6516 17.3067 12.5091 17.2692 12.4004" stroke="black" stroke-width="0.00833333"/>
<path d="M17.4783 12.7378L17.1445 12.5391L17.437 12.8166H17.512L17.4783 12.7378" fill="#009B3A"/>
<path d="M17.4783 12.7378L17.1445 12.5391L17.437 12.8166H17.512L17.4783 12.7378" stroke="black" stroke-width="0.00833333"/>
<path d="M17.2945 12.4316C17.3733 12.5479 17.4933 12.7316 17.5795 12.8404C17.4333 12.8522 17.288 12.8735 17.1445 12.9041C17.242 12.8666 17.377 12.8291 17.4595 12.7804C17.422 12.6754 17.3433 12.5366 17.2945 12.4316" fill="#009B3A"/>
<path d="M17.2945 12.4316C17.3733 12.5479 17.4933 12.7316 17.5795 12.8404C17.4333 12.8522 17.288 12.8735 17.1445 12.9041C17.242 12.8666 17.377 12.8291 17.4595 12.7804C17.422 12.6754 17.3433 12.5366 17.2945 12.4316" stroke="black" stroke-width="0.00833333"/>
<path d="M17.5045 12.7692L17.1445 12.758L17.5008 12.8667L17.5645 12.8255L17.5045 12.7692M17.7145 11.0217L17.9733 10.9805L17.7145 10.9842L17.6695 11.0067L17.7145 11.0217Z" fill="#009B3A"/>
<path d="M17.5045 12.7692L17.1445 12.758L17.5008 12.8667L17.5645 12.8255L17.5045 12.7692M17.7145 11.0217L17.9733 10.9805L17.7145 10.9842L17.6695 11.0067L17.7145 11.0217Z" stroke="black" stroke-width="0.00833333"/>
<path d="M17.86 11.0773C17.785 11.0548 17.6725 11.0173 17.5938 11.0023L17.8712 10.8711C17.815 10.9086 17.7287 10.9536 17.6837 10.9911C17.7287 11.0211 17.8075 11.0511 17.86 11.0773" fill="#009B3A"/>
<path d="M17.86 11.0773C17.785 11.0548 17.6725 11.0173 17.5938 11.0023L17.8712 10.8711C17.815 10.9086 17.7287 10.9536 17.6837 10.9911C17.7287 11.0211 17.8075 11.0511 17.86 11.0773" stroke="black" stroke-width="0.00833333"/>
<path d="M17.7013 11.0284L17.9562 10.9609L17.6937 10.9947L17.6562 11.0209L17.705 11.0284" fill="#009B3A"/>
<path d="M17.7013 11.0284L17.9562 10.9609L17.6937 10.9947L17.6562 11.0209L17.705 11.0284" stroke="black" stroke-width="0.00833333"/>
<path d="M17.8698 11.0955C17.7798 11.0842 17.6448 11.0692 17.5586 11.0692C17.6261 11.0092 17.7161 10.9155 17.7723 10.8555C17.7348 10.9117 17.6748 10.983 17.6486 11.0355C17.7086 11.0617 17.8023 11.0767 17.8698 11.0955" fill="#009B3A"/>
<path d="M17.8698 11.0955C17.7798 11.0842 17.6448 11.0692 17.5586 11.0692C17.6261 11.0092 17.7161 10.9155 17.7723 10.8555C17.7348 10.9117 17.6748 10.983 17.6486 11.0355C17.7086 11.0617 17.8023 11.0767 17.8698 11.0955" stroke="black" stroke-width="0.00833333"/>
<path d="M17.6116 11.0473L17.8741 11.0173L17.6191 11.0098L17.5703 11.0323L17.6078 11.0473" fill="#009B3A"/>
<path d="M17.6116 11.0473L17.8741 11.0173L17.6191 11.0098L17.5703 11.0323L17.6078 11.0473" stroke="black" stroke-width="0.00833333"/>
<path d="M17.8008 11.1034L17.5195 11.0546L17.7783 10.9121C17.7258 10.9496 17.6508 11.0021 17.6133 11.0396C17.662 11.0621 17.7445 11.0846 17.8008 11.1034" fill="#009B3A"/>
<path d="M17.8008 11.1034L17.5195 11.0546L17.7783 10.9121C17.7258 10.9496 17.6508 11.0021 17.6133 11.0396C17.662 11.0621 17.7445 11.0846 17.8008 11.1034" stroke="black" stroke-width="0.00833333"/>
<path d="M17.5877 11.0466L17.8164 10.9453L17.5652 11.0128L17.5352 11.0428H17.5877" fill="#009B3A"/>
<path d="M17.5877 11.0466L17.8164 10.9453L17.5652 11.0128L17.5352 11.0428H17.5877" stroke="black" stroke-width="0.00833333"/>
<path d="M17.795 11.1331C17.7313 11.1069 17.6263 11.0581 17.5625 11.0394L17.7275 10.8594C17.6975 10.9081 17.6525 10.9719 17.63 11.0244C17.675 11.0619 17.7425 11.0994 17.795 11.1331" fill="#009B3A"/>
<path d="M17.795 11.1331C17.7313 11.1069 17.6263 11.0581 17.5625 11.0394L17.7275 10.8594C17.6975 10.9081 17.6525 10.9719 17.63 11.0244C17.675 11.0619 17.7425 11.0994 17.795 11.1331" stroke="black" stroke-width="0.00833333"/>
<path d="M17.5995 11.0613L17.7795 10.9863L17.5845 11.0088L17.562 11.0463L17.5995 11.0613ZM17.4495 12.7338H17.082L17.457 12.8276L17.517 12.7901L17.4495 12.7338Z" fill="#009B3A" stroke="black" stroke-width="0.00833333"/>
<path d="M17.5156 12.7562L17.1406 12.6699L17.5006 12.8462L17.5756 12.8237L17.5156 12.7562" fill="#009B3A"/>
<path d="M17.5156 12.7562L17.1406 12.6699L17.5006 12.8462L17.5756 12.8237L17.5156 12.7562" stroke="black" stroke-width="0.00833333"/>
<path d="M17.582 12.7824L17.207 12.7637L17.582 12.8762L17.6458 12.8387L17.582 12.7824Z" fill="#009B3A" stroke="black" stroke-width="0.00833333"/>
<path d="M17.3441 12.5215C17.4378 12.6265 17.5841 12.799 17.6853 12.8927C17.5616 12.9115 17.3741 12.9602 17.2578 12.994C17.3478 12.949 17.4828 12.8965 17.5578 12.844C17.5053 12.7465 17.4078 12.619 17.3441 12.5215" fill="#009B3A"/>
<path d="M17.3441 12.5215C17.4378 12.6265 17.5841 12.799 17.6853 12.8927C17.5616 12.9115 17.3741 12.9602 17.2578 12.994C17.3478 12.949 17.4828 12.8965 17.5578 12.844C17.5053 12.7465 17.4078 12.619 17.3441 12.5215" stroke="black" stroke-width="0.00833333"/>
<path d="M17.6289 12.8015L17.2539 12.6777L17.6064 12.8877L17.6814 12.8727L17.6289 12.7977" fill="#009B3A"/>
<path d="M17.6289 12.8015L17.2539 12.6777L17.6064 12.8877L17.6814 12.8727L17.6289 12.7977" stroke="black" stroke-width="0.00833333"/>
<path d="M17.3773 12.543C17.4823 12.6405 17.6398 12.7942 17.7523 12.8805C17.6323 12.9142 17.4523 12.9855 17.3398 13.0305C17.4261 12.978 17.5498 12.9105 17.6173 12.843C17.5573 12.753 17.4486 12.6367 17.3773 12.543Z" fill="#009B3A" stroke="black" stroke-width="0.00833333"/>
<path d="M17.6648 12.8242L17.3086 12.8955L17.6836 12.918L17.7361 12.8692L17.6611 12.8242" fill="#009B3A"/>
<path d="M17.6648 12.8242L17.3086 12.8955L17.6836 12.918L17.7361 12.8692L17.6611 12.8242" stroke="black" stroke-width="0.00833333"/>
<path d="M17.5902 12.8027L17.2227 12.8327L17.6014 12.8965L17.6614 12.8515L17.5864 12.8027" fill="#009B3A"/>
<path d="M17.5902 12.8027L17.2227 12.8327L17.6014 12.8965L17.6614 12.8515L17.5864 12.8027" stroke="black" stroke-width="0.00833333"/>
<path d="M17.6559 12.8255L17.2734 12.7617L17.6484 12.9117L17.7159 12.8855L17.6559 12.8217V12.8255Z" fill="#009B3A" stroke="black" stroke-width="0.00833333"/>
<path d="M17.7187 12.8438L17.3438 12.8513L17.7263 12.9375L17.7862 12.8962L17.7187 12.8438Z" fill="#009B3A" stroke="black" stroke-width="0.00833333"/>
<path d="M17.4666 12.5995C17.5716 12.697 17.7291 12.8545 17.8378 12.9445C17.7141 12.9707 17.5266 13.0345 17.4141 13.072C17.5041 13.0232 17.6316 12.9632 17.7028 12.9032C17.6428 12.8095 17.5378 12.6895 17.4666 12.5957V12.5995Z" fill="#009B3A" stroke="black" stroke-width="0.00833333"/>
<path d="M17.7731 12.8592L17.3906 12.7617L17.7581 12.9492L17.8294 12.9267L17.7731 12.8592V12.8592Z" fill="#009B3A" stroke="black" stroke-width="0.00833333"/>
<path d="M17.5 12.6191C17.6125 12.7091 17.785 12.8516 17.9012 12.9266C17.7812 12.9679 17.6088 13.0579 17.5038 13.1104C17.5863 13.0466 17.7025 12.9716 17.7663 12.9041C17.6988 12.8141 17.5788 12.7054 17.5038 12.6191H17.5Z" fill="#009B3A" stroke="black" stroke-width="0.00833333"/>
<path d="M17.8058 12.877L17.457 12.9745H17.832L17.8808 12.9182L17.8058 12.8807V12.877Z" fill="#009B3A" stroke="black" stroke-width="0.00833333"/>
<path d="M18.2867 12.3563L18.0017 12.1575L17.7167 12.3563L17.8255 12.0413L17.5742 11.8462H17.8967L18.0017 11.5312L18.1067 11.8462H18.4292L18.178 12.0413L18.2867 12.3563Z" fill="#FEDF00" stroke="black" stroke-width="0.0333333"/>
</g>
</g>
<defs>
<filter id="filter0_d_336_30060" x="0" y="-2" width="36" height="36" filterUnits="userSpaceOnUse" color-interpolation-filters="sRGB">
<feFlood flood-opacity="0" result="BackgroundImageFix"/>
<feColorMatrix in="SourceAlpha" type="matrix" values="0 0 0 0 0 0 0 0 0 0 0 0 0 0 0 0 0 0 127 0" result="hardAlpha"/>
<feOffset dy="4"/>
<feGaussianBlur stdDeviation="3"/>
<feComposite in2="hardAlpha" operator="out"/>
<feColorMatrix type="matrix" values="0 0 0 0 0 0 0 0 0 0 0 0 0 0 0 0 0 0 0.16 0"/>
<feBlend mode="normal" in2="BackgroundImageFix" result="effect1_dropShadow_336_30060"/>
<feBlend mode="normal" in="SourceGraphic" in2="effect1_dropShadow_336_30060" result="shape"/>
</filter>
<clipPath id="clip0_336_30060">
<rect width="24" height="18" fill="white" transform="translate(6 3)"/>
</clipPath>
</defs>
</svg>
