<svg width="36" height="32" viewBox="0 0 36 32" fill="none" xmlns="http://www.w3.org/2000/svg">
<g filter="url(#filter0_d_336_15495)">
<g clip-path="url(#clip0_336_15495)">
<path d="M6 3V21.113H32.9997V3H6Z" fill="#3399CC"/>
<path d="M6 15.0762V16.0825H32.9997V15.0762H6ZM6 17.0887V18.095H32.9997V17.0887H6Z" fill="#FFFF00"/>
<path d="M11.3508 4.05664L11.4595 4.16985L11.347 4.05664H11.3508ZM11.2383 4.28306L11.3508 4.39626L11.2383 4.28306ZM11.4595 4.28306L11.572 4.39626L11.4595 4.28306Z" fill="#99CCCC"/>
<path d="M11.2383 4.39635L11.3508 4.50579L11.2383 4.39258M11.4595 4.39258L11.572 4.50579L11.4595 4.39258Z" fill="#CCCCFF"/>
<path d="M11.125 4.61523L11.2375 4.72844L11.125 4.61523Z" fill="#66CCCC"/>
<path d="M11.3514 4.61523L11.4602 4.72844L11.3477 4.61523H11.3514Z" fill="#CC6666"/>
<path d="M11.5741 4.61523L11.6828 4.72844L11.5703 4.61523H11.5741Z" fill="#66CCCC"/>
<path d="M11.125 4.72852L11.2375 4.84172L11.125 4.72852ZM11.5713 4.72852L11.68 4.84172L11.5675 4.72852H11.5713Z" fill="#CCCCFF"/>
<path d="M11.2383 4.83789L11.3508 4.9511L11.2383 4.83789ZM11.4595 4.83789L11.572 4.9511L11.4595 4.83789Z" fill="#FFCCCC"/>
<path d="M11.0156 4.95117L11.1281 5.06438L11.0156 4.95117Z" fill="#66CCCC"/>
<path d="M11.333 4.2832L10.5567 7.24547L7.60547 8.05679L10.5455 8.83037L11.333 11.7889L12.1167 8.83037L15.0567 8.03792L12.1167 7.24924L11.3292 4.29075L11.333 4.2832Z" fill="#CC0000" stroke="white" stroke-width="0.312187"/>
<path d="M11.6797 4.95117L11.7922 5.06438L11.6797 4.95117Z" fill="#66CCCC"/>
<path d="M11.0156 5.06055L11.1281 5.17375L11.0156 5.06055ZM11.6794 5.06055L11.7919 5.17375L11.6794 5.06055Z" fill="#99CCFF"/>
<path d="M11.125 5.17383L11.2375 5.28704L11.125 5.17383ZM11.5713 5.17383L11.68 5.28704L11.5675 5.17383H11.5713Z" fill="#FFCCCC"/>
<path d="M10.9062 5.2832L11.0187 5.39641L10.9062 5.2832Z" fill="#6699CC"/>
<path d="M11.1641 5.35938L11.2016 5.43485L11.1641 5.35938ZM11.6066 5.35938L11.6441 5.43485L11.6066 5.35938Z" fill="#CC3333"/>
<path d="M11.793 5.2832L11.9055 5.39641L11.793 5.2832Z" fill="#6699CC"/>
<path d="M10.9062 5.39648L11.0188 5.50969L10.9062 5.39648ZM11.795 5.39648L11.9075 5.50969L11.795 5.39648Z" fill="#99CCFF"/>
<path d="M11.0156 5.50586L11.1281 5.61907L11.0156 5.50586ZM11.6794 5.50586L11.7919 5.61907L11.6794 5.50586Z" fill="#FFCCCC"/>
<path d="M10.7969 5.61914L10.9094 5.73235L10.7969 5.61914ZM11.9031 5.61914L12.0156 5.73235L11.9031 5.61914Z" fill="#6699CC"/>
<path d="M10.7969 5.72852L10.9094 5.84172L10.7969 5.72852ZM11.9031 5.72852L12.0156 5.84172L11.9031 5.72852Z" fill="#99CCCC"/>
<path d="M10.7969 5.8418L10.9094 5.955L10.7969 5.8418ZM11.9031 5.8418L12.0156 5.955L11.9031 5.8418Z" fill="#CCFFFF"/>
<path d="M10.6873 5.95495L10.7961 6.06438L10.6836 5.95117L10.6873 5.95495Z" fill="#6699CC"/>
<path d="M10.9062 5.95495L11.0188 6.06438L10.9062 5.95117M11.795 5.95117L11.9075 6.06438L11.795 5.95117Z" fill="#FFCCCC"/>
<path d="M12.0156 5.95495L12.1281 6.06438L12.0156 5.95117V5.95495Z" fill="#6699CC"/>
<path d="M10.6873 6.06445L10.7961 6.17766L10.6836 6.06445H10.6873Z" fill="#99CCCC"/>
<path d="M10.9414 6.13867L10.9789 6.21414L10.9414 6.13867ZM11.8264 6.13867L11.8639 6.21414L11.8264 6.13867Z" fill="#CC3333"/>
<path d="M12.0156 6.06445L12.1281 6.17766L12.0156 6.06445Z" fill="#99CCCC"/>
<path d="M10.6873 6.17773L10.7961 6.29094L10.6836 6.17773M12.0148 6.17773L12.1273 6.29094L12.0148 6.17773Z" fill="#CCFFFF"/>
<path d="M10.7969 6.28711L10.9094 6.40032L10.7969 6.28711ZM11.9031 6.28711L12.0156 6.40032L11.9031 6.28711Z" fill="#FFCCCC"/>
<path d="M10.5742 6.39648L10.6867 6.50969L10.5742 6.39648Z" fill="#99CCCC"/>
<path d="M10.832 6.47266L10.8695 6.54813L10.832 6.47266ZM11.9383 6.47266L11.9758 6.54813L11.9383 6.47266Z" fill="#CC3333"/>
<path d="M12.125 6.39648L12.2375 6.50969L12.125 6.39648Z" fill="#99CCCC"/>
<path d="M10.5742 6.50977L10.6867 6.62297L10.5742 6.50977ZM12.123 6.50977L12.2355 6.62297L12.123 6.50977Z" fill="#CCCCFF"/>
<path d="M10.6873 6.62305L10.7961 6.73625L10.6836 6.62305M12.0148 6.62305L12.1273 6.73625L12.0148 6.62305Z" fill="#FFCCCC"/>
<path d="M10.4609 6.7362L10.5734 6.84563L10.4609 6.73242V6.7362Z" fill="#99CCCC"/>
<path d="M10.7264 6.80664L10.7602 6.88211L10.7227 6.80664M12.0502 6.80664L12.0877 6.88211L12.0502 6.80664Z" fill="#CC3333"/>
<path d="M12.2344 6.7362L12.3469 6.84563L12.2344 6.73242V6.7362Z" fill="#99CCCC"/>
<path d="M10.4609 6.8457L10.5734 6.95891L10.4609 6.8457ZM12.2347 6.8457L12.3472 6.95891L12.2347 6.8457Z" fill="#CCCCFF"/>
<path d="M10.5742 6.95508L10.6867 7.06829L10.5742 6.95508ZM12.123 6.95508L12.2355 7.06829L12.123 6.95508Z" fill="#FFCCCC"/>
<path d="M10.3516 7.06836L10.4641 7.18157L10.3516 7.06836Z" fill="#99CCCC"/>
<path d="M10.5742 7.06836L10.6867 7.18157L10.5742 7.06836ZM12.123 7.06836L12.2355 7.18157L12.123 7.06836Z" fill="#CC3333"/>
<path d="M12.3445 7.06836L12.457 7.18157L12.3445 7.06836ZM10.0195 7.18157L10.132 7.291L10.0195 7.17779V7.18157Z" fill="#99CCCC"/>
<path d="M10.1328 7.17773L10.2453 7.29094L10.1328 7.17773ZM12.5703 7.17773L12.6791 7.29094L12.5666 7.17773H12.5703Z" fill="#CCCCFF"/>
<path d="M12.6764 7.17773L12.7889 7.29094L12.6764 7.17773ZM9.69141 7.29094L9.80391 7.40415L9.69141 7.29094Z" fill="#99CCCC"/>
<path d="M9.79688 7.29102L9.90937 7.40422L9.79688 7.29102Z" fill="#CCCCFF"/>
<path d="M10.2422 7.29102L10.3547 7.40422L10.2422 7.29102Z" fill="#FFCCCC"/>
<path d="M10.3516 7.29102L10.4641 7.40422L10.3516 7.29102ZM12.3466 7.29102L12.4591 7.40422L12.3466 7.29102Z" fill="#CC3333"/>
<path d="M12.457 7.29102L12.5695 7.40422L12.457 7.29102Z" fill="#FFCCCC"/>
<path d="M12.8984 7.29102L13.0109 7.40422L12.8984 7.29102Z" fill="#CCCCFF"/>
<path d="M13.0116 7.29102L13.1203 7.40422L13.0078 7.29102H13.0116Z" fill="#99CCCC"/>
<path d="M9.24609 7.40039L9.35859 7.5136L9.24609 7.40039Z" fill="#6699CC"/>
<path d="M9.35547 7.40039L9.46797 7.5136L9.35547 7.40039Z" fill="#99CCCC"/>
<path d="M9.46875 7.40039L9.58125 7.5136L9.46875 7.40039Z" fill="#CCFFFF"/>
<path d="M9.91016 7.40039L10.0227 7.5136L9.91016 7.40039Z" fill="#FFCCCC"/>
<path d="M10.0938 7.4375L10.1688 7.47524L10.0938 7.4375ZM12.64 7.4375L12.715 7.47524L12.64 7.4375Z" fill="#CC3333"/>
<path d="M12.7891 7.40039L12.9016 7.5136L12.7891 7.40039Z" fill="#FFCCCC"/>
<path d="M13.2305 7.40039L13.343 7.5136L13.2305 7.40039Z" fill="#CCFFFF"/>
<path d="M13.3438 7.40039L13.4562 7.5136L13.3438 7.40039Z" fill="#99CCCC"/>
<path d="M13.4516 7.40039L13.5641 7.5136L13.4516 7.40039ZM8.91406 7.5136L9.02656 7.62681L8.91406 7.5136Z" fill="#6699CC"/>
<path d="M9.02734 7.51367L9.13984 7.62688L9.02734 7.51367Z" fill="#99CCCC"/>
<path d="M9.13672 7.51367L9.24922 7.62688L9.13672 7.51367Z" fill="#CCFFFF"/>
<path d="M9.57812 7.51367L9.69062 7.62688L9.57812 7.51367Z" fill="#FFCCCC"/>
<path d="M9.76172 7.55078L9.83672 7.58852L9.76172 7.55078ZM12.9717 7.55078L13.0467 7.58852L12.9717 7.55078Z" fill="#CC3333"/>
<path d="M13.1211 7.51367L13.2336 7.62688L13.1211 7.51367Z" fill="#FFCCCC"/>
<path d="M13.5625 7.51367L13.675 7.62688L13.5625 7.51367Z" fill="#CCFFFF"/>
<path d="M13.6719 7.51367L13.7844 7.62688L13.6719 7.51367Z" fill="#99CCCC"/>
<path d="M13.7831 7.51367L13.8956 7.62688L13.7831 7.51367ZM8.57812 7.62688L8.69063 7.73631L8.57812 7.62311V7.62688Z" fill="#6699CC"/>
<path d="M8.69141 7.62305L8.80391 7.73625L8.69141 7.62305Z" fill="#99CCFF"/>
<path d="M9.24609 7.62305L9.35859 7.73625L9.24609 7.62305Z" fill="#FFCCCC"/>
<path d="M9.42969 7.66016L9.50469 7.69789L9.42969 7.66016ZM13.3034 7.66016L13.3784 7.69789L13.3034 7.66016Z" fill="#CC3333"/>
<path d="M13.4531 7.62305L13.5656 7.73625L13.4531 7.62305Z" fill="#FFCCCC"/>
<path d="M14.0078 7.62305L14.1203 7.73625L14.0078 7.62305Z" fill="#99CCFF"/>
<path d="M14.1133 7.62305L14.2258 7.73625L14.1133 7.62305Z" fill="#6699CC"/>
<path d="M8.25 7.73633L8.3625 7.84954L8.25 7.73633Z" fill="#66CCCC"/>
<path d="M8.36312 7.73633L8.47187 7.84954L8.35938 7.73633H8.36312Z" fill="#99CCFF"/>
<path d="M8.80453 7.73633L8.91328 7.84954L8.80078 7.73633H8.80453ZM13.897 7.73633L14.0058 7.84954L13.8933 7.73633H13.897Z" fill="#FFCCCC"/>
<path d="M14.3359 7.73633L14.4484 7.84954L14.3359 7.73633Z" fill="#99CCFF"/>
<path d="M14.4505 7.73633L14.563 7.84954L14.4505 7.73633ZM7.91797 7.84954L8.03047 7.95897L7.91797 7.84576V7.84954Z" fill="#66CCCC"/>
<path d="M8.02344 7.8457L8.13594 7.95891L8.02344 7.8457Z" fill="#CCCCFF"/>
<path d="M8.47266 7.8457L8.58516 7.95891L8.47266 7.8457Z" fill="#FFCCCC"/>
<path d="M8.65625 7.88281L8.73125 7.92055L8.65625 7.88281ZM14.0825 7.88281L14.1575 7.92055L14.0825 7.88281Z" fill="#CC3333"/>
<path d="M14.2266 7.8457L14.3391 7.95891L14.2266 7.8457Z" fill="#FFCCCC"/>
<path d="M14.6719 7.8457L14.7844 7.95891L14.6719 7.8457Z" fill="#CCCCFF"/>
<path d="M14.7812 7.8457L14.8937 7.95891L14.7812 7.8457Z" fill="#66CCCC"/>
<path d="M7.58594 7.95898L7.69844 8.07219L7.58594 7.95898Z" fill="#99CCCC"/>
<path d="M7.69531 7.95898L7.80781 8.07219L7.69531 7.95898Z" fill="#CCCCFF"/>
<path d="M8.13672 7.95898L8.24922 8.07219L8.13672 7.95898ZM14.5605 7.95898L14.673 8.07219L14.5605 7.95898Z" fill="#FFCCCC"/>
<path d="M15 7.95898L15.1125 8.07219L15 7.95898Z" fill="#CCCCFF"/>
<path d="M15.1108 7.95898L15.2233 8.07219L15.1108 7.95898ZM7.36328 8.07219L7.47578 8.18163L7.36328 8.06842V8.07219Z" fill="#99CCCC"/>
<path d="M7.91797 8.06836L8.03047 8.18157L7.91797 8.06836ZM14.7805 8.06836L14.893 8.18157L14.7805 8.06836Z" fill="#CC6666"/>
<path d="M15.3372 8.06836L15.4459 8.18157L15.3334 8.06836M7.58594 8.18157L7.69844 8.29477L7.58594 8.18157Z" fill="#99CCCC"/>
<path d="M7.69531 8.18164L7.80781 8.29485L7.69531 8.18164Z" fill="#CCCCFF"/>
<path d="M8.13672 8.18164L8.24922 8.29485L8.13672 8.18164ZM14.5605 8.18164L14.673 8.29485L14.5605 8.18164Z" fill="#FFCCCC"/>
<path d="M15 8.18164L15.1125 8.29485L15 8.18164Z" fill="#CCCCFF"/>
<path d="M15.1133 8.18164L15.2258 8.29485L15.1133 8.18164Z" fill="#99CCCC"/>
<path d="M7.91797 8.29479L8.03047 8.40422L7.91797 8.29102V8.29479Z" fill="#66CCCC"/>
<path d="M8.02344 8.29479L8.13594 8.40422L8.02344 8.29102V8.29479Z" fill="#CCCCFF"/>
<path d="M8.47266 8.29479L8.58516 8.40422L8.47266 8.29102V8.29479Z" fill="#FFCCCC"/>
<path d="M8.65625 8.32812L8.73125 8.36586L8.65625 8.32812ZM14.0825 8.32812L14.1575 8.36586L14.0825 8.32812Z" fill="#CC3333"/>
<path d="M14.2266 8.29479L14.3391 8.40422L14.2266 8.29102V8.29479Z" fill="#FFCCCC"/>
<path d="M14.6719 8.29479L14.7844 8.40422L14.6719 8.29102V8.29479Z" fill="#CCCCFF"/>
<path d="M14.7825 8.29479L14.895 8.40422L14.7825 8.29102M8.25 8.40422L8.3625 8.51743L8.25 8.40422Z" fill="#66CCCC"/>
<path d="M8.36312 8.4043L8.47187 8.5175L8.35938 8.4043H8.36312Z" fill="#99CCFF"/>
<path d="M8.80453 8.4043L8.91328 8.5175L8.80078 8.4043H8.80453ZM13.897 8.4043L14.0058 8.5175L13.8933 8.4043H13.897Z" fill="#FFCCCC"/>
<path d="M14.3359 8.4043L14.4484 8.5175L14.3359 8.4043Z" fill="#99CCFF"/>
<path d="M14.4492 8.4043L14.5617 8.5175L14.4492 8.4043Z" fill="#66CCCC"/>
<path d="M8.57812 8.51745L8.69062 8.62688L8.57812 8.51367V8.51745Z" fill="#6699CC"/>
<path d="M8.69141 8.51745L8.80391 8.62688L8.69141 8.51367V8.51745Z" fill="#99CCFF"/>
<path d="M9.24609 8.51745L9.35859 8.62688L9.24609 8.51367V8.51745Z" fill="#FFCCCC"/>
<path d="M9.42969 8.55078L9.50469 8.58852L9.42969 8.55078ZM13.3034 8.55078L13.3784 8.58852L13.3034 8.55078Z" fill="#CC3333"/>
<path d="M13.4531 8.51745L13.5656 8.62688L13.4531 8.51367V8.51745Z" fill="#FFCCCC"/>
<path d="M14.0078 8.51745L14.1203 8.62688L14.0078 8.51367V8.51745Z" fill="#99CCFF"/>
<path d="M14.1153 8.51745L14.2278 8.62688L14.1153 8.51367M8.91406 8.62688L9.02656 8.74009L8.91406 8.62688Z" fill="#6699CC"/>
<path d="M9.02734 8.62695L9.13984 8.74016L9.02734 8.62695Z" fill="#99CCCC"/>
<path d="M9.13672 8.62695L9.24922 8.74016L9.13672 8.62695Z" fill="#CCFFFF"/>
<path d="M9.57812 8.62695L9.69062 8.74016L9.57812 8.62695Z" fill="#FFCCCC"/>
<path d="M9.76172 8.66016L9.83672 8.69789L9.76172 8.66016ZM12.9717 8.66016L13.0467 8.69789L12.9717 8.66016Z" fill="#CC3333"/>
<path d="M13.1211 8.62695L13.2336 8.74016L13.1211 8.62695Z" fill="#FFCCCC"/>
<path d="M13.5625 8.62695L13.675 8.74016L13.5625 8.62695Z" fill="#CCFFFF"/>
<path d="M13.6719 8.62695L13.7844 8.74016L13.6719 8.62695Z" fill="#99CCCC"/>
<path d="M13.7834 8.62695L13.8959 8.74016L13.7834 8.62695ZM9.24594 8.74016L9.35469 8.84959L9.24219 8.73639L9.24594 8.74016Z" fill="#6699CC"/>
<path d="M9.35547 8.73633L9.46797 8.84954L9.35547 8.73633Z" fill="#99CCCC"/>
<path d="M9.46875 8.73633L9.58125 8.84954L9.46875 8.73633Z" fill="#CCFFFF"/>
<path d="M9.91016 8.73633L10.0227 8.84954L9.91016 8.73633Z" fill="#FFCCCC"/>
<path d="M10.0938 8.77344L10.1688 8.81117L10.0938 8.77344ZM12.64 8.77344L12.715 8.81117L12.64 8.77344Z" fill="#CC3333"/>
<path d="M12.7891 8.73633L12.9016 8.84954L12.7891 8.73633Z" fill="#FFCCCC"/>
<path d="M13.2305 8.73633L13.343 8.84954L13.2305 8.73633Z" fill="#CCFFFF"/>
<path d="M13.3438 8.73633L13.4562 8.84954L13.3438 8.73633Z" fill="#99CCCC"/>
<path d="M13.4531 8.73633L13.5656 8.84954L13.4531 8.73633Z" fill="#6699CC"/>
<path d="M9.69141 8.84961L9.80391 8.96282L9.69141 8.84961Z" fill="#99CCCC"/>
<path d="M9.79688 8.84961L9.90937 8.96282L9.79688 8.84961Z" fill="#CCCCFF"/>
<path d="M10.2422 8.84961L10.3547 8.96282L10.2422 8.84961Z" fill="#FFCCCC"/>
<path d="M10.3516 8.84961L10.4641 8.96282L10.3516 8.84961ZM12.3466 8.84961L12.4591 8.96282L12.3466 8.84961Z" fill="#CC3333"/>
<path d="M12.457 8.84961L12.5695 8.96282L12.457 8.84961Z" fill="#FFCCCC"/>
<path d="M12.8984 8.84961L13.0109 8.96282L12.8984 8.84961Z" fill="#CCCCFF"/>
<path d="M13.012 8.84961L13.1208 8.96282L13.0083 8.84961M10.0195 8.96282L10.132 9.07602L10.0195 8.96282Z" fill="#99CCCC"/>
<path d="M10.1328 8.96289L10.2453 9.0761L10.1328 8.96289ZM12.5703 8.96289L12.6791 9.0761L12.5666 8.96289H12.5703Z" fill="#CCCCFF"/>
<path d="M12.6766 8.96289L12.7891 9.0761L12.6766 8.96289ZM10.3516 9.0761L10.4641 9.18553L10.3516 9.07232V9.0761Z" fill="#99CCCC"/>
<path d="M10.5742 9.07604L10.6867 9.18547L10.5742 9.07227M12.123 9.07227L12.2355 9.18547L12.123 9.07227Z" fill="#CC3333"/>
<path d="M12.3438 9.07604L12.4562 9.18547L12.3438 9.07227V9.07604Z" fill="#99CCCC"/>
<path d="M10.5742 9.18555L10.6867 9.29875L10.5742 9.18555ZM12.123 9.18555L12.2355 9.29875L12.123 9.18555Z" fill="#FFCCCC"/>
<path d="M10.4609 9.29492L10.5734 9.40813L10.4609 9.29492Z" fill="#CCCCFF"/>
<path d="M10.7264 9.36914L10.7602 9.44461L10.7227 9.36914M12.0502 9.36914L12.0877 9.44461L12.0502 9.36914Z" fill="#CC3333"/>
<path d="M12.2344 9.29492L12.3469 9.40813L12.2344 9.29492Z" fill="#CCCCFF"/>
<path d="M10.4609 9.4082L10.5734 9.52141L10.4609 9.4082ZM12.2347 9.4082L12.3472 9.52141L12.2347 9.4082Z" fill="#99CCCC"/>
<path d="M10.6873 9.51758L10.7961 9.63079L10.6836 9.51758M12.0148 9.51758L12.1273 9.63079L12.0148 9.51758Z" fill="#FFCCCC"/>
<path d="M10.5742 9.63086L10.6867 9.74407L10.5742 9.63086Z" fill="#CCCCFF"/>
<path d="M10.832 9.70117L10.8695 9.77664L10.832 9.70117ZM11.9383 9.70117L11.9758 9.77664L11.9383 9.70117Z" fill="#CC3333"/>
<path d="M12.125 9.63086L12.2375 9.74407L12.125 9.63086Z" fill="#CCCCFF"/>
<path d="M10.5742 9.74023L10.6867 9.85344L10.5742 9.74023ZM12.123 9.74023L12.2355 9.85344L12.123 9.74023Z" fill="#99CCCC"/>
<path d="M10.7969 9.85352L10.9094 9.96672L10.7969 9.85352ZM11.9031 9.85352L12.0156 9.96672L11.9031 9.85352Z" fill="#FFCCCC"/>
<path d="M10.6873 9.96289L10.7961 10.0761L10.6836 9.96289H10.6873Z" fill="#CCFFFF"/>
<path d="M10.9414 10.0371L10.9789 10.1126L10.9414 10.0371ZM11.8264 10.0371L11.8639 10.1126L11.8264 10.0371Z" fill="#CC3333"/>
<path d="M12.0156 9.96289L12.1281 10.0761L12.0156 9.96289Z" fill="#CCFFFF"/>
<path d="M10.6873 10.0762L10.7961 10.1894L10.6836 10.0762M12.0148 10.0762L12.1273 10.1894L12.0148 10.0762Z" fill="#99CCCC"/>
<path d="M10.6873 10.1855L10.7961 10.2988L10.6836 10.1855H10.6873Z" fill="#6699CC"/>
<path d="M10.9062 10.1855L11.0188 10.2988L10.9062 10.1855ZM11.795 10.1855L11.9075 10.2988L11.795 10.1855Z" fill="#FFCCCC"/>
<path d="M12.0156 10.1855L12.1281 10.2988L12.0156 10.1855Z" fill="#6699CC"/>
<path d="M10.7969 10.2988L10.9094 10.412L10.7969 10.2988ZM11.9031 10.2988L12.0156 10.412L11.9031 10.2988Z" fill="#CCFFFF"/>
<path d="M10.7969 10.4082L10.9094 10.5214L10.7969 10.4082ZM11.9031 10.4082L12.0156 10.5214L11.9031 10.4082Z" fill="#99CCCC"/>
<path d="M10.7969 10.5215L10.9094 10.6347L10.7969 10.5215ZM11.9031 10.5215L12.0156 10.6347L11.9031 10.5215Z" fill="#6699CC"/>
<path d="M11.0156 10.6309L11.1281 10.7441L11.0156 10.6309ZM11.6794 10.6309L11.7919 10.7441L11.6794 10.6309Z" fill="#FFCCCC"/>
<path d="M10.9062 10.7441L11.0187 10.8573L10.9062 10.7441Z" fill="#99CCFF"/>
<path d="M11.1641 10.8184L11.2016 10.8938L11.1641 10.8184ZM11.6066 10.8184L11.6441 10.8938L11.6066 10.8184Z" fill="#CC3333"/>
<path d="M11.793 10.7441L11.9055 10.8573L11.793 10.7441Z" fill="#99CCFF"/>
<path d="M10.9062 10.8573L11.0188 10.9667L10.9062 10.8535M11.795 10.8535L11.9075 10.9667L11.795 10.8535Z" fill="#6699CC"/>
<path d="M11.125 10.9668L11.2375 11.08L11.125 10.9668ZM11.5713 10.9668L11.68 11.08L11.5675 10.9668H11.5713Z" fill="#FFCCCC"/>
<path d="M11.0156 11.0762L11.1281 11.1894L11.0156 11.0762ZM11.6794 11.0762L11.7919 11.1894L11.6794 11.0762Z" fill="#99CCFF"/>
<path d="M11.0156 11.1895L11.1281 11.3027L11.0156 11.1895ZM11.6794 11.1895L11.7919 11.3027L11.6794 11.1895Z" fill="#66CCCC"/>
<path d="M11.2383 11.3027L11.3508 11.4159L11.2383 11.3027ZM11.4595 11.3027L11.572 11.4159L11.4595 11.3027Z" fill="#FFCCCC"/>
<path d="M11.125 11.4121L11.2375 11.5253L11.125 11.4121ZM11.5713 11.4121L11.68 11.5253L11.5675 11.4121H11.5713Z" fill="#CCCCFF"/>
<path d="M11.125 11.5254L11.2375 11.6386L11.125 11.5254Z" fill="#66CCCC"/>
<path d="M11.3514 11.5254L11.4602 11.6386L11.3477 11.5254H11.3514Z" fill="#CC6666"/>
<path d="M11.5741 11.5254L11.6828 11.6386L11.5703 11.5254H11.5741Z" fill="#66CCCC"/>
<path d="M11.2383 11.748L11.3508 11.8613L11.2383 11.748ZM11.4595 11.748L11.572 11.8613L11.4595 11.748Z" fill="#CCCCFF"/>
<path d="M11.2383 11.8574L11.3508 11.9706L11.2383 11.8574ZM11.4595 11.8574L11.572 11.9706L11.4595 11.8574ZM11.347 12.0838L11.4595 12.1933L11.347 12.0801V12.0838Z" fill="#99CCCC"/>
</g>
</g>
<defs>
<filter id="filter0_d_336_15495" x="0" y="-2" width="36" height="36" filterUnits="userSpaceOnUse" color-interpolation-filters="sRGB">
<feFlood flood-opacity="0" result="BackgroundImageFix"/>
<feColorMatrix in="SourceAlpha" type="matrix" values="0 0 0 0 0 0 0 0 0 0 0 0 0 0 0 0 0 0 127 0" result="hardAlpha"/>
<feOffset dy="4"/>
<feGaussianBlur stdDeviation="3"/>
<feComposite in2="hardAlpha" operator="out"/>
<feColorMatrix type="matrix" values="0 0 0 0 0 0 0 0 0 0 0 0 0 0 0 0 0 0 0.16 0"/>
<feBlend mode="normal" in2="BackgroundImageFix" result="effect1_dropShadow_336_15495"/>
<feBlend mode="normal" in="SourceGraphic" in2="effect1_dropShadow_336_15495" result="shape"/>
</filter>
<clipPath id="clip0_336_15495">
<rect width="24" height="18.1132" fill="white" transform="translate(6 3)"/>
</clipPath>
</defs>
</svg>
