<svg width="36" height="31" viewBox="0 0 36 31" fill="none" xmlns="http://www.w3.org/2000/svg">
<g filter="url(#filter0_d_336_29263)">
<g clip-path="url(#clip0_336_29263)">
<path fill-rule="evenodd" clip-rule="evenodd" d="M6 3H30V21H6V3Z" fill="#00247D"/>
<path d="M24.3906 7.01953V7.58838L25.5283 7.01953H24.3906Z" fill="white"/>
<path d="M24.6312 7.65161L24.2969 7.19141L25.5517 6.98289L24.6312 7.65161Z" fill="white"/>
<path d="M24.3867 7.01953V7.58838L23.249 7.01953H24.3867Z" fill="white"/>
<path d="M24.1461 7.65161L24.4805 7.19141L23.2257 6.98289L24.1461 7.65161Z" fill="white"/>
<path d="M24.7109 7.25391L24.1699 7.42969L25.0625 8.33592L24.7109 7.25391Z" fill="white"/>
<path d="M24.1852 7.68091L24.5195 7.2207L25.1056 8.34963L24.1852 7.68091Z" fill="white"/>
<path d="M24.0625 7.25586L24.6035 7.43164L24.4141 6.17385L24.0625 7.25586Z" fill="white"/>
<path d="M24.7402 7.2207L24.1992 7.39648L24.3887 6.13869L24.7402 7.2207Z" fill="white"/>
<path d="M24.0664 7.25391L24.6074 7.42969L23.7148 8.33592L24.0664 7.25391Z" fill="white"/>
<path d="M24.5922 7.68091L24.2578 7.2207L23.6718 8.34963L24.5922 7.68091Z" fill="white"/>
<path d="M24.3906 7.13477V7.51066L25.1424 7.13477H24.3906Z" fill="#CC142B"/>
<path d="M24.5491 7.55215L24.3281 7.24805L25.1573 7.11026L24.5491 7.55215Z" fill="#CC142B"/>
<path d="M24.3867 7.13477V7.51066L23.6349 7.13477H24.3867Z" fill="#CC142B"/>
<path d="M24.2283 7.55215L24.4492 7.24805L23.6201 7.11026L24.2283 7.55215Z" fill="#CC142B"/>
<path d="M24.6055 7.29297L24.248 7.40913L24.8378 8.00796L24.6055 7.29297Z" fill="#CC142B"/>
<path d="M24.2556 7.57363L24.4766 7.26953L24.8638 8.01552L24.2556 7.57363Z" fill="#CC142B"/>
<path d="M24.1758 7.29102L24.5333 7.40717L24.4081 6.57603L24.1758 7.29102Z" fill="#CC142B"/>
<path d="M24.6231 7.26861L24.2656 7.38477L24.3908 6.55362L24.6231 7.26861Z" fill="#CC142B"/>
<path d="M24.1758 7.29297L24.5333 7.40913L23.9435 8.00796L24.1758 7.29297Z" fill="#CC142B"/>
<path d="M24.5256 7.57363L24.3047 7.26953L23.9174 8.01552L24.5256 7.57363Z" fill="#CC142B"/>
<path d="M27.3711 9.64453L27.3711 10.1507L28.3835 9.64453L27.3711 9.64453Z" fill="white"/>
<path d="M27.5866 10.2084L27.2891 9.79883L28.4056 9.61328L27.5866 10.2084Z" fill="white"/>
<path d="M27.3711 9.64453L27.3711 10.1507L26.3587 9.64453L27.3711 9.64453Z" fill="white"/>
<path d="M27.1556 10.2084L27.4531 9.79883L26.3365 9.61328L27.1556 10.2084Z" fill="white"/>
<path d="M27.6602 9.85547L27.1787 10.0119L27.973 10.8183L27.6602 9.85547Z" fill="white"/>
<path d="M27.1907 10.2337L27.4883 9.82422L28.0098 10.8288L27.1907 10.2337Z" fill="white"/>
<path d="M27.082 9.85547L27.5635 10.0119L27.3949 8.89262L27.082 9.85547Z" fill="white"/>
<path d="M27.6845 9.82404L27.2031 9.98047L27.3717 8.8612L27.6845 9.82404Z" fill="white"/>
<path d="M27.082 9.85547L27.5635 10.0119L26.7692 10.8183L27.082 9.85547Z" fill="white"/>
<path d="M27.5514 10.2337L27.2539 9.82422L26.7324 10.8288L27.5514 10.2337Z" fill="white"/>
<path d="M27.3711 9.76172L27.3711 10.075L27.9976 9.76172L27.3711 9.76172Z" fill="#CC142B"/>
<path d="M27.5044 10.1108L27.3203 9.85742L28.0113 9.7426L27.5044 10.1108Z" fill="#CC142B"/>
<path d="M27.3711 9.76172L27.3711 10.075L26.7446 9.76172L27.3711 9.76172Z" fill="#CC142B"/>
<path d="M27.2378 10.1108L27.4219 9.85742L26.7309 9.7426L27.2378 10.1108Z" fill="#CC142B"/>
<path d="M27.5469 9.89062L27.249 9.98742L27.7405 10.4864L27.5469 9.89062Z" fill="#CC142B"/>
<path d="M27.2573 10.1245L27.4414 9.87109L27.7641 10.4928L27.2573 10.1245Z" fill="#CC142B"/>
<path d="M27.1953 9.89062L27.4932 9.98742L27.3889 9.2948L27.1953 9.89062Z" fill="#CC142B"/>
<path d="M27.5674 9.87L27.2695 9.9668L27.3738 9.27418L27.5674 9.87Z" fill="#CC142B"/>
<path d="M27.1953 9.89062L27.4932 9.98742L27.0017 10.4864L27.1953 9.89062Z" fill="#CC142B"/>
<path d="M27.4849 10.1245L27.3008 9.87109L26.9781 10.4928L27.4849 10.1245Z" fill="#CC142B"/>
<path d="M20.918 10.5156L20.918 11.0845L22.0557 10.5156L20.918 10.5156Z" fill="white"/>
<path d="M21.1586 11.1477L20.8242 10.6875L22.079 10.479L21.1586 11.1477Z" fill="white"/>
<path d="M20.9141 10.5156L20.9141 11.0845L19.7764 10.5156L20.9141 10.5156Z" fill="white"/>
<path d="M20.6735 11.1477L21.0078 10.6875L19.753 10.479L20.6735 11.1477Z" fill="white"/>
<path d="M21.2383 10.75L20.6973 10.9258L21.5898 11.832L21.2383 10.75Z" fill="white"/>
<path d="M20.7125 11.177L21.0469 10.7168L21.6329 11.8457L20.7125 11.177Z" fill="white"/>
<path d="M20.5898 10.752L21.1309 10.9277L20.9414 9.66994L20.5898 10.752Z" fill="white"/>
<path d="M21.2676 10.7168L20.7266 10.8926L20.916 9.63478L21.2676 10.7168Z" fill="white"/>
<path d="M20.5938 10.75L21.1348 10.9258L20.2422 11.832L20.5938 10.75Z" fill="white"/>
<path d="M21.1195 11.177L20.7852 10.7168L20.1991 11.8457L21.1195 11.177Z" fill="white"/>
<path d="M20.918 10.6309L20.918 11.0068L21.6697 10.6309L20.918 10.6309Z" fill="#CC142B"/>
<path d="M21.0764 11.0482L20.8555 10.7441L21.6846 10.6064L21.0764 11.0482Z" fill="#CC142B"/>
<path d="M20.9141 10.6309L20.9141 11.0068L20.1623 10.6309L20.9141 10.6309Z" fill="#CC142B"/>
<path d="M20.7556 11.0482L20.9766 10.7441L20.1474 10.6064L20.7556 11.0482Z" fill="#CC142B"/>
<path d="M21.1328 10.7891L20.7753 10.9052L21.3651 11.504L21.1328 10.7891Z" fill="#CC142B"/>
<path d="M20.783 11.0697L21.0039 10.7656L21.3912 11.5116L20.783 11.0697Z" fill="#CC142B"/>
<path d="M20.7031 10.7871L21.0606 10.9033L20.9354 10.0721L20.7031 10.7871Z" fill="#CC142B"/>
<path d="M21.1505 10.7647L20.793 10.8809L20.9181 10.0497L21.1505 10.7647Z" fill="#CC142B"/>
<path d="M20.7031 10.7891L21.0606 10.9052L20.4708 11.504L20.7031 10.7891Z" fill="#CC142B"/>
<path d="M21.053 11.0697L20.832 10.7656L20.4448 11.5116L21.053 11.0697Z" fill="#CC142B"/>
<path d="M24.3906 16.002V16.6334L25.6536 16.002H24.3906Z" fill="white"/>
<path d="M24.6602 16.7043L24.2891 16.1934L25.682 15.9619L24.6602 16.7043Z" fill="white"/>
<path d="M24.3945 16.002V16.6334L23.1315 16.002H24.3945Z" fill="white"/>
<path d="M24.1249 16.7043L24.4961 16.1934L23.1031 15.9619L24.1249 16.7043Z" fill="white"/>
<path d="M24.7539 16.2656L24.1533 16.4608L25.1442 17.4668L24.7539 16.2656Z" fill="white"/>
<path d="M24.1679 16.7375L24.5391 16.2266L25.1897 17.4798L24.1679 16.7375Z" fill="white"/>
<path d="M24.0312 16.2656L24.6318 16.4608L24.4215 15.0644L24.0312 16.2656Z" fill="white"/>
<path d="M24.7842 16.2248L24.1836 16.4199L24.3939 15.0236L24.7842 16.2248Z" fill="white"/>
<path d="M24.0312 16.2656L24.6318 16.4608L23.641 17.4668L24.0312 16.2656Z" fill="white"/>
<path d="M24.6173 16.7375L24.2461 16.2266L23.5955 17.4798L24.6173 16.7375Z" fill="white"/>
<path d="M24.3906 16.1191V16.5577L25.2677 16.1191H24.3906Z" fill="#CC142B"/>
<path d="M24.5781 16.6067L24.3203 16.252L25.2877 16.0912L24.5781 16.6067Z" fill="#CC142B"/>
<path d="M24.3945 16.1191V16.5577L23.5175 16.1191H24.3945Z" fill="#CC142B"/>
<path d="M24.2071 16.6067L24.4648 16.252L23.4975 16.0912L24.2071 16.6067Z" fill="#CC142B"/>
<path d="M24.6406 16.3008L24.2235 16.4363L24.9117 17.1349L24.6406 16.3008Z" fill="#CC142B"/>
<path d="M24.2344 16.6302L24.4922 16.2754L24.944 17.1457L24.2344 16.6302Z" fill="#CC142B"/>
<path d="M24.1445 16.3008L24.5616 16.4363L24.4156 15.4666L24.1445 16.3008Z" fill="#CC142B"/>
<path d="M24.6671 16.2746L24.25 16.4102L24.396 15.4405L24.6671 16.2746Z" fill="#CC142B"/>
<path d="M24.1445 16.3008L24.5616 16.4363L23.8735 17.1349L24.1445 16.3008Z" fill="#CC142B"/>
<path d="M24.5507 16.6302L24.293 16.2754L23.8412 17.1457L24.5507 16.6302Z" fill="#CC142B"/>
<path d="M6 3H18V12H6V3Z" fill="#012169"/>
<path d="M7.40625 3L11.9813 6.39375L16.5375 3H18V4.1625L13.5 7.51875L18 10.8563V12H16.5L12 8.64375L7.51875 12H6V10.875L10.4813 7.5375L6 4.2V3H7.40625Z" fill="white"/>
<path d="M13.95 8.26875L18 11.25V12L12.9188 8.26875H13.95ZM10.5 8.64375L10.6125 9.3L7.0125 12H6L10.5 8.64375ZM18 3V3.05625L13.3313 6.58125L13.3688 5.75625L17.0625 3H18ZM6 3L10.4813 6.3H9.35625L6 3.7875V3Z" fill="#C8102E"/>
<path d="M10.5188 3V12H13.5188V3H10.5188ZM6 6V9H18V6H6Z" fill="white"/>
<path d="M6 6.61875V8.41875H18V6.61875H6ZM11.1188 3V12H12.9188V3H11.1188Z" fill="#C8102E"/>
</g>
</g>
<defs>
<filter id="filter0_d_336_29263" x="0" y="-2" width="36" height="36" filterUnits="userSpaceOnUse" color-interpolation-filters="sRGB">
<feFlood flood-opacity="0" result="BackgroundImageFix"/>
<feColorMatrix in="SourceAlpha" type="matrix" values="0 0 0 0 0 0 0 0 0 0 0 0 0 0 0 0 0 0 127 0" result="hardAlpha"/>
<feOffset dy="4"/>
<feGaussianBlur stdDeviation="3"/>
<feComposite in2="hardAlpha" operator="out"/>
<feColorMatrix type="matrix" values="0 0 0 0 0 0 0 0 0 0 0 0 0 0 0 0 0 0 0.16 0"/>
<feBlend mode="normal" in2="BackgroundImageFix" result="effect1_dropShadow_336_29263"/>
<feBlend mode="normal" in="SourceGraphic" in2="effect1_dropShadow_336_29263" result="shape"/>
</filter>
<clipPath id="clip0_336_29263">
<rect width="24" height="18" fill="white" transform="translate(6 3)"/>
</clipPath>
</defs>
</svg>
