<svg width="36" height="32" viewBox="0 0 36 32" fill="none" xmlns="http://www.w3.org/2000/svg">
<g filter="url(#filter0_d_336_14420)">
<g clip-path="url(#clip0_336_14420)">
<path d="M18 3H30V21.1132H18V3Z" fill="white"/>
<path d="M6 3H18V21.1132H6V3Z" fill="#006233"/>
<path d="M21.901 9.7915C21.4057 8.92821 20.6412 8.25351 19.726 7.87204C18.8108 7.49057 17.7961 7.42364 16.8392 7.68164C15.8824 7.93964 15.0369 8.50815 14.4338 9.29899C13.8308 10.0898 13.5039 11.0588 13.5039 12.0556C13.5039 13.0525 13.8308 14.0215 14.4338 14.8123C15.0369 15.6031 15.8824 16.1717 16.8392 16.4297C17.7961 16.6877 18.8108 16.6207 19.726 16.2393C20.6412 15.8578 21.4057 15.1831 21.901 14.3198C21.4349 14.9057 20.7994 15.3314 20.0824 15.5382C19.3654 15.7449 18.6022 15.7224 17.8985 15.4738C17.1947 15.2253 16.5851 14.7629 16.1537 14.1505C15.7224 13.5382 15.4908 12.8062 15.4908 12.0556C15.4908 11.3051 15.7224 10.5731 16.1537 9.96076C16.5851 9.34843 17.1947 8.88603 17.8985 8.63745C18.6022 8.38888 19.3654 8.36641 20.0824 8.57314C20.7994 8.77987 21.4349 9.2056 21.901 9.7915M22.051 12.0556L18.001 10.7273L20.521 14.199V9.91225L18.001 13.3839L22.051 12.0556Z" fill="#D21034"/>
</g>
</g>
<defs>
<filter id="filter0_d_336_14420" x="0" y="-2" width="36" height="36" filterUnits="userSpaceOnUse" color-interpolation-filters="sRGB">
<feFlood flood-opacity="0" result="BackgroundImageFix"/>
<feColorMatrix in="SourceAlpha" type="matrix" values="0 0 0 0 0 0 0 0 0 0 0 0 0 0 0 0 0 0 127 0" result="hardAlpha"/>
<feOffset dy="4"/>
<feGaussianBlur stdDeviation="3"/>
<feComposite in2="hardAlpha" operator="out"/>
<feColorMatrix type="matrix" values="0 0 0 0 0 0 0 0 0 0 0 0 0 0 0 0 0 0 0.16 0"/>
<feBlend mode="normal" in2="BackgroundImageFix" result="effect1_dropShadow_336_14420"/>
<feBlend mode="normal" in="SourceGraphic" in2="effect1_dropShadow_336_14420" result="shape"/>
</filter>
<clipPath id="clip0_336_14420">
<rect width="24" height="18.1132" fill="white" transform="translate(6 3)"/>
</clipPath>
</defs>
</svg>
