<svg width="36" height="30" viewBox="0 0 36 30" fill="none" xmlns="http://www.w3.org/2000/svg">
<g filter="url(#filter0_d_336_17048)">
<g clip-path="url(#clip0_336_17048)">
<path d="M6 4H30V20H6V4Z" fill="white"/>
<path d="M30 4V20H6L30 4Z" fill="#003087"/>
<path d="M6 10.6667V4H16L6 10.6667Z" fill="#FFD700"/>
<path d="M12.668 6.88867L14.9774 10.8887L12.668 14.8887L10.3586 10.8887L12.668 6.88867ZM16.668 10.8887L12.668 13.1981L8.66797 10.8887L12.668 8.57927L16.668 10.8887Z" fill="#101820"/>
<path d="M12.6672 14.352C14.5804 14.352 16.1313 12.8011 16.1313 10.8879C16.1313 8.97476 14.5804 7.42383 12.6672 7.42383C10.7541 7.42383 9.20312 8.97476 9.20312 10.8879C9.20312 12.8011 10.7541 14.352 12.6672 14.352Z" fill="#101820"/>
<path d="M12.668 13.8887C14.3248 13.8887 15.668 12.5455 15.668 10.8887C15.668 9.23182 14.3248 7.88867 12.668 7.88867C11.0111 7.88867 9.66797 9.23182 9.66797 10.8887C9.66797 12.5455 11.0111 13.8887 12.668 13.8887Z" fill="white"/>
<path d="M12.6696 12.8887L10.9375 9.88867H14.4016L12.6696 12.8887ZM12.6696 8.88867L14.4016 11.8887H10.9375L12.6696 8.88867Z" fill="#D50032"/>
</g>
</g>
<defs>
<filter id="filter0_d_336_17048" x="0" y="-2" width="36" height="36" filterUnits="userSpaceOnUse" color-interpolation-filters="sRGB">
<feFlood flood-opacity="0" result="BackgroundImageFix"/>
<feColorMatrix in="SourceAlpha" type="matrix" values="0 0 0 0 0 0 0 0 0 0 0 0 0 0 0 0 0 0 127 0" result="hardAlpha"/>
<feOffset dy="4"/>
<feGaussianBlur stdDeviation="3"/>
<feComposite in2="hardAlpha" operator="out"/>
<feColorMatrix type="matrix" values="0 0 0 0 0 0 0 0 0 0 0 0 0 0 0 0 0 0 0.16 0"/>
<feBlend mode="normal" in2="BackgroundImageFix" result="effect1_dropShadow_336_17048"/>
<feBlend mode="normal" in="SourceGraphic" in2="effect1_dropShadow_336_17048" result="shape"/>
</filter>
<clipPath id="clip0_336_17048">
<rect width="24" height="16" fill="white" transform="translate(6 4)"/>
</clipPath>
</defs>
</svg>
