<svg width="36" height="31" viewBox="0 0 36 31" fill="none" xmlns="http://www.w3.org/2000/svg">
<g filter="url(#filter0_d_336_29198)">
<g clip-path="url(#clip0_336_29198)">
<path d="M6 3H30V21H6V3Z" fill="white"/>
<path d="M14 16C16.2091 16 18 14.2091 18 12C18 9.79086 16.2091 8 14 8C11.7909 8 10 9.79086 10 12C10 14.2091 11.7909 16 14 16Z" fill="#E30A17"/>
<path d="M15.0008 15.1988C16.7681 15.1988 18.2008 13.7661 18.2008 11.9988C18.2008 10.2315 16.7681 8.79883 15.0008 8.79883C13.2335 8.79883 11.8008 10.2315 11.8008 11.9988C11.8008 13.7661 13.2335 15.1988 15.0008 15.1988Z" fill="white"/>
<path d="M6 5.59961H30V7.19961H6V5.59961ZM6 16.7996H30V18.3996H6V16.7996ZM17.1333 11.9996L20.7514 10.824L18.5153 13.9017V10.0975L20.7514 13.1752L17.1333 11.9996Z" fill="#E30A17"/>
</g>
</g>
<defs>
<filter id="filter0_d_336_29198" x="0" y="-2" width="36" height="36" filterUnits="userSpaceOnUse" color-interpolation-filters="sRGB">
<feFlood flood-opacity="0" result="BackgroundImageFix"/>
<feColorMatrix in="SourceAlpha" type="matrix" values="0 0 0 0 0 0 0 0 0 0 0 0 0 0 0 0 0 0 127 0" result="hardAlpha"/>
<feOffset dy="4"/>
<feGaussianBlur stdDeviation="3"/>
<feComposite in2="hardAlpha" operator="out"/>
<feColorMatrix type="matrix" values="0 0 0 0 0 0 0 0 0 0 0 0 0 0 0 0 0 0 0.16 0"/>
<feBlend mode="normal" in2="BackgroundImageFix" result="effect1_dropShadow_336_29198"/>
<feBlend mode="normal" in="SourceGraphic" in2="effect1_dropShadow_336_29198" result="shape"/>
</filter>
<clipPath id="clip0_336_29198">
<rect width="24" height="18" fill="white" transform="translate(6 3)"/>
</clipPath>
</defs>
</svg>
