<svg width="36" height="31" viewBox="0 0 36 31" fill="none" xmlns="http://www.w3.org/2000/svg">
<g filter="url(#filter0_d_336_26127)">
<g clip-path="url(#clip0_336_26127)">
<path fill-rule="evenodd" clip-rule="evenodd" d="M-0.234375 3.12305H36.3551V20.6775H-0.234375V3.12305Z" fill="#FFC621"/>
<path fill-rule="evenodd" clip-rule="evenodd" d="M-0.304688 15.0723H36.3306V21.0471H-0.304688V15.0723Z" fill="#EF2118"/>
<path fill-rule="evenodd" clip-rule="evenodd" d="M-0.234375 3H36.3551V9.345H-0.234375V3Z" fill="#298C08"/>
<path d="M17.4146 16.1299C19.514 16.1299 21.2159 14.428 21.2159 12.3286C21.2159 10.2292 19.514 8.52734 17.4146 8.52734C15.3152 8.52734 13.6133 10.2292 13.6133 12.3286C13.6133 14.428 15.3152 16.1299 17.4146 16.1299Z" fill="#006BC6"/>
<path fill-rule="evenodd" clip-rule="evenodd" d="M15.7103 9.63341L15.4812 9.79203L16.3096 10.9553L16.5316 10.8143L15.7068 9.63341H15.7103ZM16.7467 12.3829L16.4047 12.1432L16.5457 11.6955L14.8502 11.7202L14.3567 11.343L16.6726 11.3184L17.1027 10.0176L17.3353 10.5464L16.7467 12.3794V12.3829ZM19.4433 9.89073L19.2212 9.72153L18.3646 10.8636L18.562 11.0293L19.4433 9.89073ZM17.1379 11.7061L17.2613 11.3113H17.7301L17.1943 9.69686L17.4058 9.11523L18.1285 11.3148L19.4962 11.3325L19.0661 11.7096L17.1379 11.7026V11.7061ZM20.3316 13.5109L20.4268 13.2501L19.0767 12.7812L18.978 13.028L20.3316 13.5109V13.5109ZM17.8958 11.8753L18.3082 11.8718L18.4528 12.3159L19.8205 11.3113L20.4409 11.3325L18.5691 12.6966L18.9745 14.0079L18.481 13.7118L17.8958 11.8753V11.8753ZM17.1979 15.4708L17.4763 15.4779L17.4869 14.0502L17.2261 14.0326L17.1979 15.4743V15.4708ZM17.9734 12.6402L18.1073 13.0315L17.7301 13.3135L19.119 14.2899L19.2952 14.8821L17.4058 13.5426L16.2955 14.3428L16.4188 13.7788L17.9698 12.6402H17.9734ZM14.332 13.0985L14.4131 13.3629L15.7773 12.9328L15.7068 12.679L14.332 13.0985ZM17.2648 12.9575L16.9335 13.2078L16.5528 12.9363L16.0522 14.5578L15.5446 14.9103L16.232 12.7002L15.1252 11.8894L15.6997 11.833L17.2648 12.9575V12.9575Z" fill="#FFC621"/>
</g>
</g>
<defs>
<filter id="filter0_d_336_26127" x="0" y="-2" width="36" height="36" filterUnits="userSpaceOnUse" color-interpolation-filters="sRGB">
<feFlood flood-opacity="0" result="BackgroundImageFix"/>
<feColorMatrix in="SourceAlpha" type="matrix" values="0 0 0 0 0 0 0 0 0 0 0 0 0 0 0 0 0 0 127 0" result="hardAlpha"/>
<feOffset dy="4"/>
<feGaussianBlur stdDeviation="3"/>
<feComposite in2="hardAlpha" operator="out"/>
<feColorMatrix type="matrix" values="0 0 0 0 0 0 0 0 0 0 0 0 0 0 0 0 0 0 0.16 0"/>
<feBlend mode="normal" in2="BackgroundImageFix" result="effect1_dropShadow_336_26127"/>
<feBlend mode="normal" in="SourceGraphic" in2="effect1_dropShadow_336_26127" result="shape"/>
</filter>
<clipPath id="clip0_336_26127">
<rect width="24" height="18" fill="white" transform="translate(6 3)"/>
</clipPath>
</defs>
</svg>
