<svg width="36" height="31" viewBox="0 0 36 31" fill="none" xmlns="http://www.w3.org/2000/svg">
<g filter="url(#filter0_d_336_33479)">
<g clip-path="url(#clip0_336_33479)">
<path d="M5.91406 2.99609H42.8384V20.992H5.91406V2.99609Z" fill="#006400"/>
<path d="M5.91406 5.56641H42.8384V18.4207H5.91406V5.56641Z" fill="#FFD200"/>
<path d="M5.91406 8.13867H42.8384V15.8512H5.91406V8.13867Z" fill="#D40000"/>
<path d="M5.91406 10.709H42.8384V13.2798H5.91406V10.709Z" fill="black"/>
<path d="M5.91406 2.99609V20.992L18.2222 11.9941L5.91406 2.99609Z" fill="black" stroke="black" stroke-width="1.62429"/>
<path d="M5.91406 2.99609V20.992L18.2222 11.9941L5.91406 2.99609Z" fill="white"/>
<path d="M10.5953 7.46875L13.035 14.7828L6.65234 10.2624H14.5427L8.15569 14.7828L10.5953 7.46875Z" fill="#D40000"/>
<path d="M9.55235 13.8666L9.98313 13.7895L10.7788 13.7595L11.0733 13.7852L11.7326 13.8923L11.781 13.828V13.3653L11.8601 12.9668L11.992 12.564L12.137 12.2427L12.3217 11.9085L12.6206 11.9813H12.6997L12.7085 11.9256L12.0755 11.3986L11.4161 10.9058L10.4623 10.2117L10.3744 10.1903L10.2733 9.46186L10.1985 9.24334L10.0974 9.15764L9.9084 9.09766L9.69741 9.10623L9.6007 9.15764L9.3985 9.20049L9.293 9.21763L9.22267 9.29904L9.21387 9.40187L9.50839 9.41044L9.58312 9.44044L9.57433 9.47043L9.40729 9.49185L9.32816 9.51756L9.42047 9.58612L9.51718 9.6204L9.64026 9.66324L9.66664 9.74894L9.67543 10.8544L9.60949 11.0258L9.58751 11.3472L9.68422 11.7328L9.43806 12.007L9.29739 12.2512L9.27102 12.4012L9.19629 12.5512L9.1875 12.6454L9.23585 12.7483L9.42487 13.3567L9.52158 13.858L9.55235 13.8666Z" fill="#FFCC00"/>
<path d="M9.78235 9.08076C9.70323 9.08076 9.66806 9.08933 9.59333 9.1279C9.53141 9.16245 9.4623 9.18295 9.39113 9.18788C9.28124 9.18788 9.19332 9.26501 9.19332 9.36356V9.42783L9.35157 9.42354C9.81752 9.4364 9.39553 9.47925 9.36036 9.48353C9.24607 9.50495 9.38673 9.59494 9.523 9.64207C9.66806 9.68491 9.65927 9.65921 9.65927 10.2848C9.65927 10.7947 9.65927 10.8675 9.61531 10.9832C9.55817 11.1546 9.55817 11.4117 9.61531 11.5831C9.64169 11.6516 9.65927 11.7116 9.65927 11.7245C9.65927 11.733 9.58894 11.8144 9.50542 11.9087C9.35157 12.0801 9.25926 12.2558 9.25926 12.38C9.25377 12.42 9.23872 12.4582 9.2153 12.4914C9.15815 12.5643 9.15815 12.6885 9.2109 12.7357C9.26805 12.7871 9.50102 13.6697 9.50542 13.8368C9.50542 13.8968 9.51421 13.8968 9.87027 13.8283C10.1604 13.7726 10.8417 13.7597 11.189 13.8026C11.3472 13.824 11.5319 13.8583 11.5978 13.8711C11.8088 13.9268 11.8 13.9354 11.8 13.6869C11.8016 13.2953 11.8776 12.9074 12.0242 12.5428C12.1082 12.3351 12.2096 12.1345 12.3275 11.943C12.3275 11.943 12.4066 11.9515 12.5033 11.9773C12.6835 12.0201 12.7363 12.0158 12.7363 11.9344C12.7363 11.8916 12.5473 11.7373 11.6198 11.0346C11.2457 10.7362 10.86 10.4517 10.4637 10.1819C10.4373 10.1819 10.4109 10.1691 10.4065 10.152L10.3406 9.7449C10.3098 9.53495 10.2659 9.32928 10.2483 9.28643C10.1868 9.15789 10.0681 9.09362 9.87027 9.08076C9.84097 9.07985 9.81165 9.07985 9.78235 9.08076V9.08076ZM9.78675 9.12361H9.87466C10.1648 9.14075 10.2175 9.21788 10.2967 9.72348C10.318 9.85724 10.3356 9.99154 10.3494 10.1262C10.3494 10.1605 10.3098 10.2034 10.2087 10.2676C10.0424 10.3814 9.89426 10.5186 9.76916 10.6747L9.71202 10.7518L9.69883 10.5719V10.0663C9.71202 9.69348 9.69883 9.65921 9.57575 9.61636C9.47465 9.58208 9.34278 9.5478 9.37794 9.52638C9.4219 9.50067 9.46586 9.51781 9.57136 9.48782C9.61531 9.47925 9.61092 9.48353 9.60213 9.44925C9.59333 9.39355 9.53179 9.36356 9.36915 9.37213C9.23728 9.3807 9.22409 9.37641 9.23288 9.34213C9.25047 9.27358 9.3208 9.23073 9.43069 9.21788C9.49797 9.21029 9.5634 9.19144 9.6241 9.16217C9.67317 9.13342 9.7295 9.11858 9.78675 9.11933V9.12361ZM10.4417 10.2291H10.4593C10.534 10.2419 12.6923 11.8873 12.6923 11.9344C12.6923 11.9515 12.6748 11.9644 12.6484 11.9644C12.6308 11.9644 12.0813 11.8144 11.4308 11.6302C10.3934 11.3303 10.2439 11.2874 10.1999 11.2317C10.1694 11.1941 10.1524 11.1476 10.1516 11.0996C10.1508 11.0516 10.1662 11.0047 10.1956 10.9661C10.2167 10.9411 10.2317 10.9118 10.2395 10.8804C10.2395 10.8289 10.1296 10.9575 10.1076 11.0303C10.0857 11.116 10.1296 11.2617 10.1956 11.3088C10.2219 11.3303 10.4197 11.3945 10.6351 11.4588C11.0044 11.5616 11.0307 11.5745 11.0483 11.6345C11.0923 11.7759 10.9384 11.943 10.7186 11.9901C10.6362 12.0093 10.5585 12.0443 10.4901 12.0929C10.262 12.2771 10.0072 12.4272 9.734 12.5386C9.71642 12.5514 9.69444 12.62 9.68125 12.6842C9.65487 12.8256 9.64608 12.8471 9.60213 12.8471C9.58015 12.8471 9.57575 12.8342 9.59333 12.7871C9.6241 12.7014 9.61971 12.5985 9.58894 12.5985C9.56696 12.5985 9.55817 12.6285 9.55817 12.6757C9.55817 12.7185 9.54498 12.7699 9.5274 12.7828C9.50542 12.8085 9.50102 12.7914 9.50981 12.6842C9.51861 12.6114 9.51421 12.5557 9.50542 12.5557C9.48344 12.5557 9.44388 12.6628 9.43069 12.7571C9.4219 12.8128 9.4219 12.8128 9.40432 12.7442C9.39113 12.6928 9.39553 12.6585 9.43509 12.5943C9.46007 12.5477 9.47502 12.4967 9.47904 12.4443C9.47904 12.3886 9.523 12.3329 9.7296 12.1315C9.86147 11.9987 10.0241 11.8316 10.0813 11.7587C10.1824 11.6388 10.1868 11.6302 10.1824 11.5059C10.1824 11.4374 10.1736 11.3731 10.1648 11.3645C10.1384 11.3388 10.1032 11.4759 10.1208 11.5488C10.1296 11.6173 10.1208 11.6388 9.97576 11.8059C9.8714 11.9223 9.76138 12.0339 9.64608 12.1401C9.47465 12.2943 9.41311 12.38 9.41311 12.4571C9.41311 12.4829 9.39553 12.5428 9.36915 12.5985C9.34278 12.6542 9.33398 12.7099 9.34278 12.7228C9.35157 12.7357 9.34278 12.7357 9.32959 12.7228C9.30761 12.7014 9.30761 12.6671 9.32519 12.5943C9.33526 12.558 9.33824 12.5202 9.33398 12.4829C9.31201 12.44 9.28124 12.4914 9.26805 12.5985C9.25926 12.6585 9.24607 12.7057 9.23288 12.6971C9.20211 12.68 9.2109 12.5686 9.25047 12.5086C9.27244 12.4786 9.29442 12.41 9.30761 12.3543C9.33838 12.1958 9.40871 12.0672 9.56256 11.8958C9.61184 11.8436 9.65877 11.7892 9.70323 11.733L9.65927 11.5916C9.60032 11.4006 9.59727 11.1973 9.65048 11.0046C9.70762 10.8418 9.82191 10.679 10.0021 10.5033C10.178 10.3362 10.3494 10.2334 10.4417 10.2291V10.2291ZM11.1011 11.6088C11.1066 11.6084 11.1122 11.6087 11.1176 11.6098C11.1229 11.6109 11.1278 11.6128 11.1319 11.6152C11.1361 11.6176 11.1394 11.6206 11.1417 11.6239C11.1439 11.6273 11.1451 11.6308 11.145 11.6345C11.1423 11.6395 11.1373 11.6439 11.1306 11.647C11.1239 11.6501 11.1159 11.6517 11.1077 11.6517C11.0995 11.6517 11.0914 11.6501 11.0847 11.647C11.0781 11.6439 11.073 11.6395 11.0703 11.6345C11.0701 11.6285 11.073 11.6227 11.0786 11.6181C11.0842 11.6134 11.0922 11.6101 11.1011 11.6088V11.6088ZM11.211 11.6216C11.2165 11.6212 11.2221 11.6216 11.2275 11.6227C11.2328 11.6238 11.2377 11.6256 11.2418 11.6281C11.246 11.6305 11.2493 11.6335 11.2516 11.6368C11.2538 11.6401 11.255 11.6437 11.2549 11.6473C11.2522 11.6524 11.2472 11.6567 11.2405 11.6598C11.2338 11.6629 11.2258 11.6646 11.2176 11.6646C11.2093 11.6646 11.2013 11.6629 11.1946 11.6598C11.1879 11.6567 11.1829 11.6524 11.1802 11.6473C11.18 11.6414 11.1829 11.6356 11.1885 11.6309C11.1941 11.6262 11.2021 11.6229 11.211 11.6216V11.6216ZM11.3253 11.643C11.3308 11.6426 11.3364 11.643 11.3418 11.6441C11.3471 11.6452 11.352 11.6471 11.3561 11.6495C11.3603 11.6519 11.3636 11.6549 11.3658 11.6582C11.3681 11.6615 11.3693 11.6651 11.3692 11.6688C11.3665 11.6738 11.3615 11.6782 11.3548 11.6813C11.3481 11.6844 11.3401 11.686 11.3319 11.686C11.3236 11.686 11.3156 11.6844 11.3089 11.6813C11.3022 11.6782 11.2972 11.6738 11.2945 11.6688C11.2943 11.6628 11.2972 11.657 11.3028 11.6523C11.3084 11.6476 11.3164 11.6444 11.3253 11.643V11.643ZM11.4308 11.6645C11.4363 11.6641 11.4419 11.6644 11.4473 11.6655C11.4526 11.6667 11.4575 11.6685 11.4616 11.6709C11.4658 11.6733 11.4691 11.6763 11.4713 11.6796C11.4736 11.683 11.4747 11.6865 11.4747 11.6902C11.472 11.6952 11.467 11.6996 11.4603 11.7027C11.4536 11.7058 11.4456 11.7074 11.4374 11.7074C11.4291 11.7074 11.4211 11.7058 11.4144 11.7027C11.4077 11.6996 11.4027 11.6952 11.4 11.6902C11.3998 11.6842 11.4027 11.6784 11.4083 11.6738C11.4139 11.6691 11.4218 11.6658 11.4308 11.6645ZM11.1538 11.6902C11.1594 11.6898 11.165 11.6901 11.1703 11.6912C11.1756 11.6924 11.1805 11.6942 11.1847 11.6966C11.1888 11.699 11.1922 11.702 11.1944 11.7053C11.1967 11.7087 11.1978 11.7123 11.1978 11.7159C11.1951 11.7209 11.19 11.7253 11.1833 11.7284C11.1766 11.7315 11.1686 11.7331 11.1604 11.7331C11.1522 11.7331 11.1442 11.7315 11.1375 11.7284C11.1308 11.7253 11.1258 11.7209 11.1231 11.7159C11.1228 11.71 11.1258 11.7041 11.1314 11.6995C11.137 11.6948 11.1449 11.6915 11.1538 11.6902ZM11.2593 11.7073C11.2649 11.7069 11.2705 11.7073 11.2758 11.7084C11.2811 11.7095 11.286 11.7113 11.2902 11.7138C11.2943 11.7162 11.2977 11.7192 11.2999 11.7225C11.3022 11.7258 11.3033 11.7294 11.3033 11.733C11.3006 11.7381 11.2955 11.7424 11.2888 11.7455C11.2821 11.7486 11.2741 11.7503 11.2659 11.7503C11.2577 11.7503 11.2497 11.7486 11.243 11.7455C11.2363 11.7424 11.2313 11.7381 11.2286 11.733C11.2283 11.7271 11.2313 11.7213 11.2369 11.7166C11.2425 11.7119 11.2504 11.7086 11.2593 11.7073V11.7073ZM11.4879 11.7159C11.4935 11.7155 11.4991 11.7158 11.5044 11.717C11.5097 11.7181 11.5146 11.7199 11.5188 11.7223C11.5229 11.7248 11.5262 11.7277 11.5285 11.731C11.5307 11.7344 11.5319 11.738 11.5319 11.7416C11.5292 11.7466 11.5241 11.751 11.5174 11.7541C11.5107 11.7572 11.5027 11.7589 11.4945 11.7589C11.4863 11.7589 11.4783 11.7572 11.4716 11.7541C11.4649 11.751 11.4598 11.7466 11.4571 11.7416C11.4569 11.7357 11.4598 11.7299 11.4655 11.7252C11.4711 11.7205 11.479 11.7172 11.4879 11.7159ZM11.3692 11.7159C11.3748 11.7155 11.3804 11.7158 11.3857 11.717C11.391 11.7181 11.3959 11.7199 11.4001 11.7223C11.4042 11.7248 11.4075 11.7277 11.4098 11.731C11.4121 11.7344 11.4132 11.738 11.4132 11.7416C11.4105 11.7466 11.4054 11.751 11.3987 11.7541C11.392 11.7572 11.384 11.7589 11.3758 11.7589C11.3676 11.7589 11.3596 11.7572 11.3529 11.7541C11.3462 11.751 11.3411 11.7466 11.3384 11.7416C11.3382 11.7357 11.3412 11.7299 11.3468 11.7252C11.3524 11.7205 11.3603 11.7172 11.3692 11.7159V11.7159ZM11.589 11.7416C11.5934 11.7416 11.7516 11.7759 11.9407 11.8273L12.2879 11.9258L12.222 12.0415C12.1852 12.1035 12.15 12.1663 12.1165 12.2301C12.0725 12.3158 12.0637 12.3158 11.8527 12.2686C11.6242 12.2172 11.2637 12.1701 10.8945 12.1401L10.5428 12.1101L10.6747 12.063C10.7543 12.0331 10.8321 11.9987 10.9077 11.9601C10.9956 11.913 11.0307 11.9044 11.167 11.9173C11.3648 11.9301 11.4967 11.8916 11.5494 11.8144L11.5934 11.7416H11.589ZM11.2022 11.7673C11.2077 11.7669 11.2134 11.7673 11.2187 11.7684C11.224 11.7695 11.2289 11.7713 11.233 11.7737C11.2372 11.7762 11.2405 11.7791 11.2428 11.7825C11.245 11.7858 11.2462 11.7894 11.2461 11.793C11.2434 11.7981 11.2384 11.8024 11.2317 11.8055C11.225 11.8086 11.217 11.8103 11.2088 11.8103C11.2006 11.8103 11.1925 11.8086 11.1859 11.8055C11.1792 11.8024 11.1741 11.7981 11.1714 11.793C11.1712 11.7871 11.1741 11.7813 11.1797 11.7766C11.1853 11.7719 11.1933 11.7686 11.2022 11.7673V11.7673ZM11.4483 11.7673C11.4539 11.7669 11.4595 11.7673 11.4648 11.7684C11.4702 11.7695 11.475 11.7713 11.4792 11.7737C11.4834 11.7762 11.4867 11.7791 11.4889 11.7825C11.4912 11.7858 11.4923 11.7894 11.4923 11.793C11.489 11.7972 11.4839 11.8007 11.4777 11.8032C11.4715 11.8056 11.4644 11.8069 11.4571 11.8069C11.4499 11.8069 11.4427 11.8056 11.4365 11.8032C11.4303 11.8007 11.4253 11.7972 11.422 11.793C11.4217 11.7871 11.4247 11.7813 11.4303 11.7766C11.4359 11.7719 11.4438 11.7686 11.4527 11.7673H11.4483ZM11.0967 11.7673C11.1022 11.7669 11.1079 11.7673 11.1132 11.7684C11.1185 11.7695 11.1234 11.7713 11.1275 11.7737C11.1317 11.7762 11.135 11.7791 11.1373 11.7825C11.1395 11.7858 11.1407 11.7894 11.1406 11.793C11.1379 11.7981 11.1329 11.8024 11.1262 11.8055C11.1195 11.8086 11.1115 11.8103 11.1033 11.8103C11.0951 11.8103 11.087 11.8086 11.0804 11.8055C11.0737 11.8024 11.0686 11.7981 11.0659 11.793C11.0671 11.7878 11.0706 11.783 11.0761 11.7792C11.0816 11.7753 11.0888 11.7727 11.0967 11.7716V11.7673ZM11.3297 11.7759C11.3398 11.775 11.3501 11.7768 11.3583 11.7808C11.3665 11.7848 11.372 11.7907 11.3736 11.7973C11.3709 11.8023 11.3659 11.8067 11.3592 11.8098C11.3525 11.8129 11.3445 11.8146 11.3362 11.8146C11.328 11.8146 11.32 11.8129 11.3133 11.8098C11.3066 11.8067 11.3016 11.8023 11.2989 11.7973C11.3 11.7921 11.3036 11.7873 11.3091 11.7835C11.3146 11.7796 11.3218 11.777 11.3297 11.7759ZM11.0395 11.823C11.0451 11.8226 11.0507 11.823 11.056 11.8241C11.0613 11.8252 11.0662 11.827 11.0704 11.8294C11.0746 11.8319 11.0779 11.8348 11.0801 11.8382C11.0824 11.8415 11.0835 11.8451 11.0835 11.8487C11.0808 11.8538 11.0757 11.8581 11.0691 11.8612C11.0624 11.8643 11.0543 11.866 11.0461 11.866C11.0379 11.866 11.0299 11.8643 11.0232 11.8612C11.0165 11.8581 11.0115 11.8538 11.0088 11.8487C11.0085 11.8428 11.0115 11.837 11.0171 11.8323C11.0227 11.8276 11.0306 11.8243 11.0395 11.823V11.823ZM11.1494 11.823C11.1556 11.8225 11.1618 11.8229 11.1677 11.8243C11.1735 11.8256 11.1788 11.8279 11.1831 11.8308C11.1874 11.8337 11.1905 11.8372 11.1923 11.8411C11.1941 11.8449 11.1945 11.849 11.1934 11.853C11.1907 11.858 11.1856 11.8624 11.1789 11.8655C11.1722 11.8686 11.1642 11.8703 11.156 11.8703C11.1478 11.8703 11.1398 11.8686 11.1331 11.8655C11.1264 11.8624 11.1214 11.858 11.1187 11.853C11.1184 11.8471 11.1214 11.8413 11.127 11.8366C11.1326 11.8319 11.1405 11.8286 11.1494 11.8273V11.823ZM11.2637 11.8316C11.2739 11.8307 11.2842 11.8325 11.2924 11.8365C11.3006 11.8405 11.306 11.8464 11.3077 11.853C11.305 11.858 11.2999 11.8624 11.2932 11.8655C11.2865 11.8686 11.2785 11.8703 11.2703 11.8703C11.2621 11.8703 11.2541 11.8686 11.2474 11.8655C11.2407 11.8624 11.2356 11.858 11.2329 11.853C11.2341 11.8478 11.2377 11.843 11.2432 11.8392C11.2487 11.8353 11.2558 11.8327 11.2637 11.8316ZM11.3868 11.8316C11.3924 11.8312 11.398 11.8315 11.4033 11.8326C11.4086 11.8338 11.4135 11.8356 11.4177 11.838C11.4218 11.8404 11.4251 11.8434 11.4274 11.8467C11.4296 11.8501 11.4308 11.8537 11.4308 11.8573C11.4281 11.8623 11.423 11.8667 11.4163 11.8698C11.4096 11.8729 11.4016 11.8745 11.3934 11.8745C11.3852 11.8745 11.3772 11.8729 11.3705 11.8698C11.3638 11.8667 11.3587 11.8623 11.356 11.8573C11.3558 11.8513 11.3587 11.8455 11.3644 11.8409C11.37 11.8362 11.3779 11.8329 11.3868 11.8316V11.8316ZM10.4945 12.1786C11.0134 12.1921 11.5299 12.2523 12.0374 12.3586C12.0418 12.3629 12.011 12.4657 11.9626 12.59L11.8747 12.8471C11.8703 12.8685 11.8396 12.8685 11.7648 12.8599C11.4 12.8042 10.345 12.8085 9.9406 12.8685C9.70762 12.9028 9.67685 12.8985 9.69444 12.8513L9.73839 12.7014L9.76477 12.5857L10.0021 12.4657C10.1604 12.387 10.3105 12.2938 10.4505 12.1872H10.4901L10.4945 12.1786ZM9.30761 12.7871C9.3208 12.7871 9.34717 12.7999 9.37794 12.8214C9.4219 12.8471 9.47465 12.8685 9.49663 12.8685C9.61092 12.8685 9.67246 13.027 9.76916 13.554L9.80433 13.7426C9.81312 13.7854 9.80433 13.794 9.70323 13.8154C9.58015 13.8411 9.54938 13.8454 9.54938 13.8283C9.54938 13.7854 9.4263 13.2413 9.37355 13.0484C9.34729 12.9635 9.32383 12.8778 9.30321 12.7914C9.30388 12.791 9.30464 12.7908 9.30541 12.7908C9.30618 12.7908 9.30694 12.791 9.30761 12.7914V12.7871ZM10.5648 12.8728H10.6923L10.6483 12.9156C10.5736 13.0013 10.5384 13.0056 10.4857 12.9499C10.4671 12.9312 10.4523 12.9095 10.4417 12.8856C10.4417 12.8771 10.4989 12.8685 10.5648 12.8685V12.8728ZM10.8329 12.8728H11.0703L11.0176 12.9242C10.956 12.9927 10.9516 12.9927 10.8857 12.9242L10.8329 12.8685V12.8728ZM11.1934 12.8728H11.2505C11.2813 12.8728 11.3384 12.8728 11.3736 12.8813L11.4395 12.8942L11.378 12.9499C11.3428 12.9799 11.3121 13.0056 11.3077 13.0013L11.2461 12.9328L11.1934 12.8685V12.8728ZM11.567 12.8856L11.6198 12.8985C11.6505 12.907 11.7165 12.9113 11.7648 12.9156H11.8527L11.7868 12.9713C11.7629 12.993 11.7363 13.0117 11.7077 13.027C11.7033 13.027 11.6637 12.9927 11.633 12.9542L11.567 12.8856V12.8856ZM10.2395 12.8899H10.2483C10.2527 12.8985 10.2351 12.9328 10.2043 12.9627L10.1604 13.0227L10.0944 12.9713L10.0285 12.9156L10.134 12.9028L10.2395 12.8899V12.8899ZM10.3406 12.8985L10.4109 12.9585L10.4813 13.0227L10.3494 13.0313L10.2175 13.0356L10.2791 12.9713L10.3406 12.8985ZM11.1318 12.8985C11.145 12.8985 11.1538 12.9028 11.167 12.9113C11.19 12.9324 11.2093 12.957 11.2242 12.9842C11.2417 13.0185 11.2373 13.027 11.1802 13.027L11.0703 13.0056L11.0176 12.9927L11.0747 12.937C11.1011 12.9113 11.1187 12.8942 11.1362 12.8942L11.1318 12.8985ZM10.767 12.8985C10.789 12.8985 10.811 12.9113 10.8373 12.9542C10.8681 13.0013 10.8681 13.0013 10.7494 13.0013H10.6307L10.6923 12.9456C10.723 12.9156 10.7494 12.9028 10.767 12.9028V12.8985ZM11.5143 12.907L11.567 12.9585C11.6286 13.0142 11.6374 13.0484 11.5934 13.0442L11.4703 13.0313L11.3736 13.0227L11.4439 12.967L11.5143 12.907V12.907ZM9.96697 12.937C9.97576 12.937 10.0109 12.9585 10.0373 12.9885L10.0901 13.0442L9.98016 13.0613L9.82631 13.0827C9.79554 13.0913 9.80433 13.0699 9.87027 13.0142C9.91422 12.9713 9.95818 12.937 9.96697 12.937ZM9.80433 12.937H9.82191C9.85708 12.9456 9.85708 12.9542 9.79554 13.0142L9.7296 13.0784L9.70762 13.0227C9.69004 12.9799 9.69444 12.967 9.734 12.9499C9.75652 12.9417 9.78031 12.9374 9.80433 12.937V12.937ZM11.8264 13.0142C11.8352 13.0142 11.8352 13.0227 11.8264 13.0399C11.8176 13.0742 11.778 13.0827 11.778 13.0484C11.778 13.0399 11.7912 13.027 11.8088 13.0184H11.822L11.8264 13.0142ZM10.8857 13.0827C11.2242 13.0827 11.567 13.0913 11.6505 13.0999C11.7868 13.117 11.8 13.1213 11.8 13.1727C11.8 13.2327 11.7824 13.237 11.5978 13.207C11.545 13.1941 11.3209 13.177 11.1055 13.1598C10.6874 13.1352 10.2679 13.1496 9.85268 13.2027C9.76916 13.2113 9.74719 13.2027 9.74719 13.177C9.74719 13.1213 10.1956 13.0827 10.8857 13.0827V13.0827ZM10.4329 13.207H10.6703L10.6175 13.2627C10.5516 13.3312 10.5472 13.3312 10.4857 13.2627L10.4329 13.207ZM10.7406 13.207L10.8022 13.267L10.8637 13.3355L10.7362 13.3398H10.6088L10.6747 13.2713L10.7362 13.207H10.7406ZM10.8329 13.207H11.0703L11.0176 13.2627C10.956 13.3312 10.9516 13.3312 10.8857 13.2627L10.8329 13.207ZM10.2703 13.207C10.2791 13.207 10.2703 13.2284 10.2395 13.2713C10.2087 13.3098 10.178 13.3398 10.1736 13.3398C10.1648 13.3398 10.134 13.3141 10.1076 13.2841L10.0549 13.2284H10.134C10.1742 13.2286 10.2143 13.2228 10.2527 13.2113C10.2585 13.2101 10.2645 13.2101 10.2703 13.2113V13.207ZM10.3582 13.2284L10.4153 13.2798L10.4813 13.3355L10.367 13.3441L10.2395 13.3527L10.3011 13.2884L10.3582 13.2284V13.2284ZM11.1231 13.2284L11.1846 13.297C11.2549 13.3698 11.2505 13.3741 11.0923 13.3441L11.0176 13.3312L11.0703 13.2798L11.1231 13.2284V13.2284ZM11.211 13.2284H11.3165C11.4308 13.2284 11.4439 13.2455 11.378 13.3055C11.3253 13.3484 11.3253 13.3484 11.2637 13.2841L11.211 13.2284V13.2284ZM9.86587 13.2498C9.91862 13.2498 9.91422 13.2541 9.84829 13.3184C9.79993 13.3655 9.79554 13.3655 9.77796 13.3312C9.76477 13.2884 9.80433 13.2541 9.86587 13.2498ZM11.5714 13.2584C11.589 13.2584 11.6242 13.2584 11.6593 13.267L11.7604 13.2841L11.7033 13.3355L11.6505 13.3869L11.6022 13.327L11.5582 13.2584H11.5714V13.2584ZM9.98895 13.2798C10.0021 13.2798 10.0153 13.2884 10.0373 13.3098C10.0813 13.3527 10.0813 13.3527 10.0461 13.3698C10.012 13.3807 9.97646 13.3865 9.9406 13.3869H9.87027L9.92741 13.327C9.95818 13.297 9.97137 13.2841 9.98456 13.2798H9.98895ZM11.4879 13.2927C11.5055 13.2927 11.5187 13.3012 11.5407 13.3355L11.5802 13.3869H11.4879C11.4264 13.3869 11.4 13.3784 11.4 13.3612C11.4088 13.3441 11.4308 13.3184 11.4571 13.3055L11.4879 13.2927V13.2927ZM11.7692 13.3484C11.778 13.3484 11.778 13.3569 11.778 13.3698C11.778 13.4126 11.7385 13.4426 11.7209 13.4126C11.7165 13.3998 11.7253 13.3784 11.7429 13.3655L11.7692 13.3484V13.3484ZM10.6307 13.3998C11.0132 13.3998 11.4352 13.4255 11.6857 13.4683L11.756 13.4812V13.6697C11.756 13.8111 11.7473 13.8583 11.7253 13.8583L11.5055 13.8154C10.9972 13.7314 10.4794 13.717 9.96697 13.7726L9.86587 13.7854L9.8395 13.6269C9.82857 13.5732 9.82269 13.5187 9.82191 13.4641C9.82191 13.4641 9.92302 13.4426 10.0417 13.4298C10.1868 13.4084 10.4022 13.3998 10.6307 13.3998V13.3998Z" fill="black"/>
<path d="M11.4 12.3281C11.2681 12.3281 11.1758 12.4181 11.1758 12.5509C11.1758 12.7566 11.4132 12.8594 11.5538 12.7138C11.6945 12.5681 11.5978 12.3281 11.4 12.3281V12.3281ZM11.4 12.3795C11.4231 12.3795 11.4459 12.384 11.4673 12.3926C11.4886 12.4012 11.508 12.4138 11.5243 12.4297C11.5406 12.4457 11.5536 12.4645 11.5624 12.4853C11.5712 12.5061 11.5758 12.5284 11.5758 12.5509C11.5758 12.6795 11.4307 12.7652 11.312 12.7095C11.1934 12.6452 11.2022 12.4481 11.3296 12.3967C11.3504 12.3871 11.3727 12.3813 11.3956 12.3795H11.4Z" fill="black"/>
<path d="M9.78127 9.22125C9.76292 9.22234 9.7456 9.23037 9.73262 9.24381C9.71965 9.25724 9.71193 9.27515 9.71094 9.29409C9.71094 9.31515 9.71904 9.33534 9.73347 9.35023C9.74789 9.36512 9.76746 9.37348 9.78786 9.37348C9.80827 9.37348 9.82783 9.36512 9.84226 9.35023C9.85668 9.33534 9.86479 9.31515 9.86479 9.29409C9.86429 9.28352 9.86169 9.27316 9.85715 9.26367C9.8526 9.25418 9.84622 9.24575 9.83838 9.23892C9.83055 9.23209 9.82143 9.22699 9.81161 9.22395C9.80178 9.22091 9.79145 9.21999 9.78127 9.22125V9.22125ZM9.78567 9.24696C9.79966 9.24696 9.81307 9.25192 9.82296 9.26076C9.83286 9.2696 9.83841 9.28159 9.83841 9.29409C9.83841 9.30659 9.83286 9.31858 9.82296 9.32742C9.81307 9.33626 9.79966 9.34122 9.78567 9.34122C9.77168 9.34122 9.75826 9.33626 9.74837 9.32742C9.73847 9.31858 9.73292 9.30659 9.73292 9.29409C9.73292 9.2879 9.73428 9.28177 9.73693 9.27605C9.73958 9.27034 9.74347 9.26514 9.74837 9.26076C9.75326 9.25639 9.75908 9.25291 9.76548 9.25055C9.77188 9.24818 9.77874 9.24696 9.78567 9.24696Z" fill="black"/>
</g>
</g>
<defs>
<filter id="filter0_d_336_33479" x="0" y="-2" width="36" height="36" filterUnits="userSpaceOnUse" color-interpolation-filters="sRGB">
<feFlood flood-opacity="0" result="BackgroundImageFix"/>
<feColorMatrix in="SourceAlpha" type="matrix" values="0 0 0 0 0 0 0 0 0 0 0 0 0 0 0 0 0 0 127 0" result="hardAlpha"/>
<feOffset dy="4"/>
<feGaussianBlur stdDeviation="3"/>
<feComposite in2="hardAlpha" operator="out"/>
<feColorMatrix type="matrix" values="0 0 0 0 0 0 0 0 0 0 0 0 0 0 0 0 0 0 0.16 0"/>
<feBlend mode="normal" in2="BackgroundImageFix" result="effect1_dropShadow_336_33479"/>
<feBlend mode="normal" in="SourceGraphic" in2="effect1_dropShadow_336_33479" result="shape"/>
</filter>
<clipPath id="clip0_336_33479">
<rect width="24" height="18" fill="white" transform="translate(6 3)"/>
</clipPath>
</defs>
</svg>
