<svg width="36" height="31" viewBox="0 0 36 31" fill="none" xmlns="http://www.w3.org/2000/svg">
<g filter="url(#filter0_d_336_33445)">
<g clip-path="url(#clip0_336_33445)">
<path d="M6 12H30V21H6V12Z" fill="#00AB39"/>
<path d="M6 3H30V12H6V3Z" fill="white"/>
<path d="M21.7138 5.6543H21.71H21.7138ZM21.71 5.6543C20.2246 6.45367 18.8205 7.39561 17.5175 8.4668C16.88 9.02555 17.06 9.46805 17.0338 9.9668C17.0563 10.3043 16.9625 10.6193 16.7562 10.8068L15.3388 11.0918L15.2037 10.7018C15.245 10.4993 15.41 10.4018 15.7625 10.5255C15.7887 10.2705 15.5788 10.1655 15.3388 10.0755C15.2525 10.008 15.1513 9.96305 15.1625 9.73805C15.125 9.2318 15.935 9.77555 15.9425 9.77555C15.95 9.77555 15.9125 9.2618 15.5412 9.16055C15.3387 9.0893 15.2525 8.87555 15.3313 8.71805C15.4925 8.3918 15.8 8.74055 16.0325 8.75555C16.025 8.5418 15.965 8.3918 15.7812 8.22305C15.6837 8.1593 15.4438 8.1143 15.4363 8.01305C15.4325 7.87805 15.6613 7.81805 15.98 7.85555C15.9125 7.6643 15.6988 7.54055 15.4063 7.45055L15.2338 7.1468C15.1513 6.9968 15.1138 6.9893 15.305 6.7043C15.4738 6.5918 15.7025 6.4343 15.875 6.32555L15.6875 6.30305C15.71 6.0968 15.7137 6.02555 15.7625 5.6843C15.575 5.93555 15.35 5.89055 15.14 5.9918C15.14 5.9918 14.555 6.0968 14.3638 6.34805L12.8863 6.27305C12.5713 6.3143 12.305 6.4043 12.2525 6.70805C11.5362 6.78305 10.7863 6.7193 10.2388 7.4018C10.6138 7.3868 10.9363 7.2968 11.3563 7.3493C11.3563 7.3493 11.7125 7.3568 11.7837 7.73555C11.7912 7.75055 11.9075 7.75055 11.9075 7.75055L12.0425 7.85555L12.095 7.71305L12.215 7.79555L12.2525 7.63805L12.3725 7.72055L12.38 7.53305L12.5375 7.64555V7.3943C12.5375 7.3943 13.1225 7.3943 13.3025 7.7693C13.31 7.77305 11.6638 8.0693 10.0738 7.93055L10.5313 7.70555C9.95375 7.58555 9.40625 7.48055 8.89625 7.0793C9.0875 7.8068 10.085 8.65805 10.2913 8.6543L10.0962 8.3018L11.8212 8.3768C11.885 8.56805 11.8587 8.7818 12.0087 8.95055C12.0087 8.95055 11.915 9.26555 12.1287 9.39305C12.1362 9.40805 12.38 8.75555 12.38 8.75555C12.38 8.75555 12.455 8.9318 12.53 9.04805C12.6425 8.48555 13.2575 8.3918 13.2575 8.3918L13.385 8.6918C13.1937 8.7218 12.9537 9.1118 13.085 9.3293C12.9537 9.3293 12.725 9.70805 12.7962 9.9143C12.6875 10.023 12.4212 10.1655 12.485 10.6193C12.275 10.6643 12.1475 11.0505 12.215 11.463C11.885 11.7668 11.9675 12.3255 12.26 12.5543C12.14 12.6668 12.065 12.7455 12.065 12.8805C11.9487 12.8393 11.84 12.873 11.7912 12.948C11.6487 12.8018 11.4462 12.678 11.3037 12.813C11.2662 12.6405 11.0413 12.453 10.7975 12.4755C10.8075 12.3676 10.7792 12.2595 10.7175 12.1704C10.6557 12.0812 10.5646 12.0167 10.46 11.988C10.46 11.988 10.4038 11.1405 10.1488 10.863C10.1225 10.713 10.1638 10.608 10.3738 10.4805C10.5875 10.368 10.6325 10.2818 10.6138 9.9593C10.7 9.74555 10.7638 9.52805 10.5013 9.3818C10.5088 9.6368 10.4338 9.7568 10.3288 9.8693C10.205 9.8543 10.1638 9.9968 10.0813 10.0568C9.965 9.90305 10.325 9.6593 10.0587 9.31055C10.0437 9.29555 9.87125 8.86055 9.4475 8.86805C9.64625 8.9843 9.7325 9.18305 9.7325 9.3893C9.57621 9.73492 9.55219 10.1259 9.665 10.488C9.48875 10.2255 9.3875 9.72305 9.24125 9.6368C9.11375 9.61055 9.05375 9.31055 8.555 9.3968C8.76875 9.45305 8.84 9.61805 8.8925 9.7643C8.765 9.8318 8.82875 10.0118 8.92625 10.1355C8.9075 10.4243 9.08 10.593 9.33875 10.698L9.21125 11.8868C9.11 11.8755 8.94875 12.2768 8.88875 12.288C8.7875 12.3518 8.61125 12.5205 8.81375 12.5693C8.75375 12.783 8.6975 12.9143 8.375 12.9593C8.375 12.9593 8.7125 13.1618 8.9975 12.8168C9.2975 12.8093 9.2 12.4493 9.34625 12.2918C9.34625 12.2805 9.4325 12.228 9.5525 11.9093C9.605 12.1943 9.8975 13.0643 10.5538 13.4955C11.1275 14.1105 11.6037 14.6918 11.5962 15.5093C11.8166 15.267 11.9748 14.9749 12.0575 14.658C12.4316 14.5458 12.8226 14.5001 13.2125 14.523C13.145 14.6693 13.0663 14.808 13.1638 14.898C12.8863 14.9955 12.8263 15.198 12.9388 15.3968C12.6463 15.5955 12.6275 15.723 12.6238 16.053C12.08 16.7468 11.7462 16.7243 11.21 16.5405C11.0375 16.4393 10.76 16.293 10.6363 16.3718C10.4075 16.2143 10.0738 16.1918 10.0175 16.5443C10.1938 16.398 10.295 16.428 10.4337 16.5668C10.4075 16.638 10.385 16.7055 10.4863 16.7468L10.3513 16.8968C10.1038 16.8593 9.76625 16.8593 9.68 17.223C9.8075 17.1143 10.0925 17.0918 10.3175 17.193L10.4488 17.238L10.4638 17.4105C10.4638 17.4105 10.1263 17.358 10.0363 17.9093C10.3513 17.5718 10.5763 17.658 10.5763 17.658C10.7 17.838 11.15 17.8118 11.4763 17.5155C11.93 17.2605 12.065 17.628 12.3575 17.388C12.6013 17.208 12.89 17.328 13.0888 17.538C13.3175 17.6243 13.5575 17.6955 13.745 17.538C13.745 17.538 13.9775 17.3918 14.2063 17.628C14.2063 17.3655 14.0188 17.2193 13.7638 17.2155L13.6888 17.1405C13.445 17.088 13.175 17.1105 12.9613 16.9905C13.0441 16.612 13.2267 16.2624 13.49 15.978C13.8387 15.603 14.0975 15.4305 14.54 14.8568C14.5213 15.183 14.7688 15.543 14.9 15.8693C14.9 15.8693 15.1625 15.453 15.2 15.108C15.2113 15.108 15.5337 14.943 15.6687 14.7968C15.9612 14.9805 16.4337 14.6543 16.7412 14.3843C16.9287 14.4593 17.075 14.4518 17.2925 14.3843C17.1163 14.7443 17.3938 15.078 17.8363 15.2168C17.8738 15.5318 18.1963 15.5993 18.68 15.5993C18.7025 15.7868 18.9913 15.813 18.9913 15.813C18.8038 15.8955 18.7138 15.9818 18.7175 16.173C18.53 16.173 18.3913 16.2218 18.3425 16.4355C18.0838 16.443 17.8212 16.4618 17.6 16.5855C17.3637 16.5518 17.075 16.4543 16.8912 16.263C16.7975 16.1843 16.7712 16.068 16.6062 16.023C16.5012 15.8993 16.3738 15.9255 16.3325 16.0455C16.2238 15.9593 15.815 15.9218 15.7437 16.308C15.9387 16.1693 16.1075 16.1168 16.2312 16.2893C16.1637 16.4055 16.3888 16.4768 16.5838 16.5218C16.7225 16.5293 16.9662 16.6568 17.0413 16.8668C16.9361 16.8972 16.8255 16.9043 16.7173 16.8874C16.6091 16.8706 16.5059 16.8303 16.415 16.7693C16.3475 16.713 16.2639 16.6798 16.1762 16.6744C16.0885 16.669 16.0014 16.6917 15.9275 16.7393C15.7625 16.6343 15.3763 16.833 15.3613 17.148C15.5225 16.998 15.6725 16.923 15.8225 17.0205C15.7475 17.0355 15.7737 17.043 15.785 17.088L16.16 17.3055C15.9725 17.3543 15.8 17.4293 15.8825 17.7743C15.8825 17.7743 16.0325 17.4743 16.37 17.5868C16.3775 17.5755 16.4187 17.6918 16.5162 17.613C16.6625 17.448 16.9963 17.373 17.2925 17.343C17.5288 17.3168 17.765 17.2455 17.9675 17.3805C18.155 17.2868 18.3575 17.223 18.5675 17.373C18.815 17.448 18.995 17.7405 19.3063 17.6093C19.4638 17.4968 19.655 17.4968 19.85 17.7143C19.85 17.4368 19.6438 17.343 19.3513 17.283L19.1488 17.163C18.9613 17.133 18.7738 17.1668 18.5825 17.0768C19.0309 16.9693 19.4533 16.7732 19.8248 16.5002C20.1964 16.2271 20.5097 15.8826 20.7463 15.4868L21.215 15.6518C21.3275 15.6593 21.335 15.6968 21.5638 15.7643C21.5713 15.4305 21.425 15.0855 20.8213 15.0518L20.0338 14.7518C19.8613 14.5718 19.7863 14.193 20 13.9718C20.21 13.7843 20.2475 13.8068 20.3863 13.578C20.555 13.563 20.7125 13.7355 20.8663 13.7355C20.9413 13.9568 21.3688 14.148 21.6388 14.0843C21.8075 14.2343 22.1263 14.3168 22.4825 14.1968C22.584 14.2915 22.712 14.353 22.8493 14.3731C22.9867 14.3932 23.1269 14.371 23.2513 14.3093C23.3338 14.3918 23.5063 14.4593 23.7013 14.4143C23.72 14.4143 23.8063 14.6318 24.02 14.7105C23.9263 14.8005 23.9825 15.198 24.0838 15.3443C24.0112 15.4927 23.9991 15.6634 24.05 15.8205C23.8325 15.9593 23.7875 16.0643 23.885 16.3005C23.6 16.7618 23.2588 16.8143 22.9363 16.6755L22.5875 16.4505L22.22 16.0905C22.1563 16.0305 22.025 16.0155 21.9988 16.143C21.9988 16.143 21.5263 16.038 21.485 16.4393C21.6838 16.248 21.9613 16.4168 21.9613 16.4243C21.9613 16.4318 21.8938 16.4768 21.9463 16.5518C21.9575 16.5405 22.295 16.6755 22.5913 16.803C22.7525 16.8668 22.79 16.8855 22.8613 16.923C22.7717 16.882 22.6817 16.842 22.5913 16.803C22.4611 16.743 22.3215 16.7062 22.1788 16.6943C22.0138 16.6793 21.8338 16.6568 21.7513 16.7843C21.5713 16.8593 21.2863 16.923 21.3013 17.2605C21.4213 17.058 21.59 17.0693 21.8038 17.088L21.7888 17.133C22.0213 17.238 21.9763 17.103 22.1938 17.0843C22.389 17.0813 22.5833 17.1131 22.7675 17.178C22.5988 17.2268 22.3663 17.2043 22.2575 17.328C22.235 17.3655 22.1638 17.3505 22.1975 17.448C22.1975 17.448 21.86 17.4405 21.7738 17.898C22.1113 17.6843 22.37 17.6918 22.3738 17.6918L22.4825 17.7143L22.895 17.4405C22.9063 17.4405 23.2925 17.268 23.4688 17.463C23.6263 17.538 23.7913 17.5455 23.9563 17.448C24.2713 17.3093 24.5675 17.298 24.8563 17.493L25.1225 17.6505L25.235 17.5755C25.235 17.5755 25.535 17.493 25.7525 17.7593C25.6625 17.298 25.3325 17.283 25.3325 17.283L25.2575 17.2155L24.7925 17.0318C24.7213 16.863 24.5525 16.7318 24.7213 16.5293C24.8975 15.663 25.1038 15.0143 24.7663 14.1368C25.0813 14.2718 25.3175 14.6918 25.7113 14.5455C25.7113 14.193 24.4138 13.5218 23.4238 12.9855C25.0513 12.8993 27.0013 11.703 26.2513 10.1805L26.6038 9.07805C26.7725 9.41555 27.11 9.67055 27.4138 9.7793C27.1625 9.30305 27.02 7.8443 27.1625 6.8393C26.4991 7.63567 25.7838 8.38731 25.0213 9.0893C25.3963 9.1793 25.73 9.11555 26.0938 9.07055L25.7863 9.70805C24.7888 9.1193 23.6188 9.55805 23.6113 10.338C23.645 11.2455 24.7663 11.3768 25.415 11.058C25.2875 11.8868 23.3825 11.583 23.3825 11.583C22.7075 11.3505 22.0663 11.388 21.3575 11.3955C21.5038 10.9418 22.3213 10.5368 22.9475 10.7168C22.0738 9.7343 23.0713 8.51555 24.275 8.1443C22.9625 7.7093 24.0913 6.70805 25.0738 5.9918C25.0738 5.9918 22.25 7.18055 21.9913 7.1768C21.1888 7.1168 21.4063 6.1643 21.7138 5.6543H21.71ZM12.845 6.7943C12.9125 6.7943 12.9875 6.8018 13.0513 6.8168C13.1788 6.85055 13.3325 6.86555 13.3325 6.9068C13.2725 7.0043 13.1262 7.12055 12.9837 7.1168C12.8412 7.1093 12.7588 7.02305 12.7138 6.8093C12.7288 6.8018 12.7813 6.7943 12.845 6.7943V6.7943ZM24.7325 10.1468C24.92 10.1468 25.1413 10.2218 25.355 10.4543C25.2538 10.7543 24.35 10.9043 24.29 10.4618C24.2713 10.3268 24.4625 10.1505 24.7325 10.1468V10.1468Z" fill="#D21034" stroke="black" stroke-width="0.116667"/>
<path d="M13.778 9.41844L13.9167 9.61719M13.9092 9.62094C13.9092 9.62094 13.9092 9.89094 13.9655 9.89469M13.8417 10.0409L13.9842 10.2772M13.5905 10.3372C13.598 10.3372 13.7667 10.5322 13.7667 10.5322M13.913 10.3822C13.913 10.3897 14.0705 10.6859 14.0817 10.6859M13.7067 10.5884C13.7067 10.5884 13.7592 10.9484 13.808 10.9372M13.4705 11.2484L13.628 11.4922M13.7667 10.9934C13.7667 10.9934 13.853 11.3347 13.9205 11.3047M13.9917 10.7872C13.9955 10.7947 14.153 11.0159 14.1942 10.9859M14.1567 11.0722L14.3067 11.3722M13.9092 11.3047L14.033 11.6572M13.6205 11.4847C13.6205 11.4847 13.733 11.8634 13.8342 11.8034M13.5792 11.9909C13.5792 11.9909 13.5867 12.1897 13.6842 12.2009M13.7517 11.8897C13.7517 11.8972 13.853 12.0322 13.853 12.0322M14.0405 11.6534L14.1192 11.7847M14.303 11.4097L14.4267 11.5634M13.7255 9.62469C13.7292 9.79344 13.9955 9.56469 14.1005 9.42219M13.613 10.2097C13.613 10.2097 13.9017 10.0034 14.1267 9.69219M13.5155 10.7009C13.7217 10.6447 14.1005 10.1872 14.1755 9.94344M13.4742 11.1547C13.5305 11.1809 14.2355 10.6672 14.2542 10.2959M13.4555 11.5484C13.4555 11.5447 14.1005 11.3834 14.3667 10.6747M13.4255 12.0847C13.4255 12.0847 14.4567 11.4659 14.513 11.0122M21.4655 13.1234C21.4655 13.1234 21.398 13.6559 20.8655 13.7384M21.6342 14.0759C21.638 14.0684 22.1442 13.5134 22.013 13.3447M22.8042 13.5397C22.8042 13.5397 22.7967 13.9259 22.4817 14.1922M23.4342 13.6522C23.4342 13.6522 23.4455 14.1172 23.2467 14.3047M24.0117 13.9297C24.0117 13.9297 23.7867 14.3684 23.708 14.4134M24.0042 14.7059C24.0042 14.7059 24.2967 14.7809 24.3905 14.5859M24.0792 15.3397C24.0792 15.3397 24.3492 15.3884 24.4767 15.1297M24.0492 15.8309C24.0492 15.8309 24.2705 16.0184 24.4205 15.7709M20.8955 12.2309C20.8955 12.2309 20.8692 13.1797 22.2005 13.3709C23.6892 13.7834 24.3942 13.5659 24.4805 15.2347C24.4242 15.8722 24.3455 16.5847 23.8805 16.3109M19.478 13.1047C19.478 13.1047 19.6917 13.4834 19.9467 13.4572C20.2842 13.3597 20.408 13.5659 20.408 13.5659M18.5705 13.4834C18.5705 13.4834 19.133 13.7572 19.6092 13.3147M18.6342 13.0897C18.683 13.7459 17.8805 14.1209 17.5617 14.0572M18.6717 15.5947C18.6755 15.5947 19.1067 15.3397 19.0205 15.1597M17.8167 15.2159C17.828 15.2009 18.5405 15.1334 18.6717 14.8784M17.4867 14.1659C17.4867 14.1659 18.4955 14.1734 18.563 14.3572M18.8255 13.5697C18.8255 13.5697 17.843 15.2534 19.658 15.2534M17.783 13.5472C17.783 13.5472 17.573 14.1734 17.273 14.3872M16.7405 13.3297C16.7405 13.3297 17.1042 14.0347 16.7405 14.3834M15.788 13.5284C15.7917 13.5397 15.9042 14.5297 15.6567 14.8109M15.3117 13.5584C15.3117 13.5584 15.3492 14.1884 15.1617 14.4134C14.9742 14.6384 15.2067 15.1034 15.2067 15.1034M12.938 15.4034C12.938 15.4034 13.073 15.6397 13.2567 15.5572M13.163 14.8897C13.163 14.8897 13.463 15.0209 13.5642 14.9722M13.4892 13.8322C13.4892 13.8322 13.0467 13.9559 13.2155 14.4809C13.4705 14.6872 13.718 14.6534 13.718 14.6534M12.6155 16.0559C12.6117 16.0559 12.668 16.4684 12.953 16.1572C13.1517 15.7372 13.778 14.5597 13.9242 14.1547M14.2167 13.9634C14.2167 13.9634 13.913 13.7272 13.9242 14.0572C13.9167 14.2634 14.018 14.3122 14.018 14.3122C14.0292 14.4622 14.1605 14.6722 14.2655 14.4809C14.3105 14.2934 14.2355 14.2109 14.2355 14.2109M14.4117 13.8734C14.138 13.8584 13.988 14.4622 14.5167 14.0834M14.6967 13.6709C14.6967 13.6709 14.6292 13.7647 14.5205 13.6634C14.4642 13.5659 14.2655 14.1134 14.6142 14.1322C14.678 13.9709 14.8692 13.9259 14.8692 13.9259M15.0342 13.4084C15.0342 13.4084 14.8767 13.4834 14.8205 13.4722C14.633 13.5134 14.6705 13.9522 14.9067 13.9259C14.9892 13.8322 15.0755 13.7009 15.0755 13.7009M13.5642 12.8384C13.5567 12.8384 12.9455 13.8022 13.9055 14.0572M21.3305 11.3947C21.3305 11.3947 20.9555 11.7097 21.3042 12.2197C20.1417 12.2009 19.523 12.7372 19.4742 13.0972C17.9967 12.9922 18.2667 13.4272 17.7867 13.5697C17.1455 13.0334 16.2042 13.3334 16.2642 13.8697C15.8367 13.2659 15.1767 13.5584 15.0942 13.7084C15.0155 13.8584 15.0455 12.9659 15.0455 12.9659C15.0455 12.9659 14.6142 13.1609 14.318 13.5134V12.7672C13.958 12.8422 13.6092 12.8422 13.238 12.8347M12.2667 12.5609C12.2667 12.5609 12.803 12.8609 13.4667 12.4559M12.2255 11.4847C12.2255 11.4847 12.638 11.8597 13.4255 11.7397M12.488 10.6259C12.488 10.6259 12.578 10.9297 13.4742 10.9484M12.788 9.92094C12.788 9.92094 13.1255 10.3334 13.583 10.2697M13.0767 9.33219C13.0767 9.33219 13.208 9.55719 13.7067 9.59469M13.3692 8.67594C13.3692 8.67594 13.6317 8.96094 13.9317 8.91219M14.9255 6.34719C14.9255 6.34719 15.0417 6.23469 15.2367 6.29094M14.843 6.95844C14.843 6.95844 14.483 6.94719 14.5055 6.80844C14.5355 6.64344 14.888 6.52719 14.888 6.52719C14.888 6.52719 15.3567 6.22719 15.428 6.12219M13.3055 7.77219L13.763 8.64594L13.9805 8.31594L14.093 8.54094L14.2805 8.21469L14.603 8.42094L14.483 8.01969L14.753 8.00094C14.753 8.00094 14.678 7.80969 14.438 7.76844C14.5017 7.71969 14.7267 7.56969 14.7267 7.56969C14.7267 7.56969 14.5992 7.41969 14.3967 7.41594C14.4642 7.34469 14.5542 7.17219 14.5467 7.17219L14.348 7.12719C14.348 7.12719 14.8055 7.27719 15.158 7.06719M14.288 6.36219C14.2917 6.36594 14.2617 6.54219 14.1642 6.64344M12.5255 6.84219C12.5255 6.84219 12.8067 6.76719 13.0167 6.80844C13.2267 6.85344 13.508 6.92844 13.508 6.92844C13.508 6.92844 13.8455 6.88344 13.9542 6.80469M11.8242 7.02969C11.8242 7.02969 11.7867 7.16469 11.7717 7.25469C11.7717 7.31844 11.5655 7.40469 11.5655 7.40469M11.9517 6.75219C11.9517 6.75219 12.1317 6.97719 12.1392 7.10844C12.143 7.23594 12.0042 7.33344 12.0042 7.33344M10.088 8.28594L9.90047 7.98594L10.0692 7.92594M13.463 12.4634C13.313 12.2684 13.5755 9.30594 14.1267 8.53344C13.9355 9.92844 14.5767 11.3534 14.738 11.3459M11.7755 7.70844C11.7755 7.70844 12.0305 7.80219 12.5517 7.38594M13.2605 8.39094L13.6355 8.39469M24.8967 6.06969C24.8967 6.06969 18.6455 8.98719 18.5555 9.14469C19.6092 8.82219 24.0867 8.07594 24.1955 8.13969C23.933 8.20344 18.4992 9.45219 18.2442 9.75219C19.6017 9.70719 22.4405 10.1872 22.8867 10.6522C21.9192 10.4347 19.0355 10.0109 18.1505 10.1984C18.7955 10.3522 21.2705 11.9534 21.2705 12.2084C20.8955 11.8522 17.9217 10.6259 17.8055 10.7459C18.488 11.1547 19.4517 12.6734 19.4517 13.0447C19.253 12.7297 17.5317 10.8809 17.4305 11.0009C17.6142 11.2522 17.9742 13.4347 17.7905 13.5359C17.7905 13.2734 17.123 11.3609 17.0667 11.3084C16.9317 11.3459 16.0805 13.6334 16.2492 13.8509C16.1367 13.0859 16.268 11.4884 16.4742 11.5522C16.0992 11.6084 14.9105 13.1797 15.038 13.4272C15.0755 13.0334 15.128 12.7747 15.803 11.4734C15.053 11.5184 13.508 12.4897 13.2455 12.8384C13.4555 12.2197 14.7642 11.1734 15.338 11.0984M18.038 8.82219C18.698 8.45469 20.738 7.70844 22.103 7.15719M16.7555 10.7947C16.7555 10.7947 17.2055 10.7872 17.6555 9.56469C18.098 7.89219 21.6192 6.02844 21.6905 5.67969M10.8005 12.4784C10.8005 12.4784 10.6955 12.7034 10.568 12.7634M11.3067 12.8159C11.3067 12.8159 11.168 13.0859 11.1342 13.2134M11.7905 12.9509C11.7905 12.9509 11.903 13.3184 11.8092 13.4909M10.4442 11.9872C10.0917 12.1859 10.6467 13.4497 12.323 13.5697M12.053 12.8872C12.053 12.8872 12.008 13.1122 12.323 13.5622C12.233 14.0647 12.7055 14.4584 12.893 14.5222M11.918 8.36469L11.9705 8.22969L12.0267 8.37969L12.1205 8.37594L12.1805 8.22594L12.233 8.37594H12.323L12.3792 8.21094L12.4655 8.36844H12.5405L12.5967 8.18094L12.7092 8.31594L12.7542 8.30094L12.7917 8.10594L12.908 8.24094L12.9455 8.22219L12.998 8.03469L13.0917 8.17344L13.1405 8.15844L13.1855 7.99719L13.2755 8.14719M11.813 8.37969L12.518 8.36844C12.743 8.36844 13.1105 8.05719 13.5192 8.15469M10.3355 9.87969C10.3355 9.87969 10.4517 10.1347 10.613 9.99219M10.0655 10.0484C10.0655 10.0484 9.84047 10.6559 10.1105 10.7984M9.74297 9.38094C9.74297 9.38094 9.74297 9.52344 10.043 9.30594M8.82422 12.5572C8.82422 12.5572 9.06047 12.6322 9.02297 12.8084M8.91047 9.77844C8.91047 9.77844 9.06047 9.84969 9.20297 9.62844M10.4855 16.7422C10.7142 16.7272 10.7667 16.8322 10.973 16.8322C11.2205 16.8397 11.4567 16.7422 11.7605 16.6559M13.7517 17.2184C13.7442 17.2184 13.6392 17.4359 13.733 17.5447M10.4517 17.2372C10.4517 17.2372 10.8192 16.9372 11.0142 17.1209C11.198 17.1847 11.2992 17.1734 11.2992 17.1734M10.643 16.3747C10.643 16.3747 10.733 16.6072 10.433 16.5734M10.343 16.9109C10.343 16.9109 10.5342 17.0309 10.3167 17.1922M10.4592 17.4097C10.4592 17.4097 10.7217 17.4472 10.568 17.6609M18.7205 16.1647C18.9867 16.3784 18.878 16.5059 19.718 15.9434M18.338 16.4309C18.338 16.4309 18.7317 16.8584 19.0205 16.3409M17.5842 16.5847L17.048 16.8659M16.088 17.2597C16.088 17.2597 16.4142 16.9822 16.5642 17.1284C16.718 17.2784 17.363 17.0009 17.363 17.0009M16.3317 16.0484C16.3317 16.0484 16.4442 16.2734 16.2267 16.2997M15.908 16.7459C15.908 16.7459 16.0205 16.9559 15.803 17.0084M16.1592 17.3122C16.1592 17.3122 16.4967 17.3309 16.3767 17.5859M19.3167 17.2672C19.3167 17.2672 19.1292 17.4247 19.268 17.6047M22.0055 16.1422C22.0055 16.1422 22.2192 16.2472 21.9642 16.4234M21.7505 16.7947C21.7505 16.7947 21.9117 16.9634 21.803 17.1022M22.2005 17.4397C22.2005 17.4397 22.4217 17.5034 22.3955 17.6872M25.313 17.2747C25.313 17.2747 25.1255 17.4134 25.2267 17.5897M22.013 11.8597C22.4555 11.8072 23.093 12.7972 23.4192 12.9884M25.3655 10.4609C25.3655 10.4609 25.5905 10.6597 25.3917 11.1359M25.7817 9.70344C25.8455 9.75219 26.0855 9.88344 26.2467 10.1834M26.4005 8.22594L26.0892 9.06969M26.7492 8.18469C26.7492 8.18469 26.6892 8.93469 26.5992 9.08469M18.9755 15.8084C18.9755 15.8084 19.688 15.8834 19.7255 15.9359C19.808 15.8497 20.4455 15.3284 19.6617 15.2572C19.6256 15.4127 19.5383 15.5515 19.4139 15.6515C19.2895 15.7514 19.1351 15.8067 18.9755 15.8084V15.8084ZM25.3505 10.4534C25.2492 10.7534 24.3455 10.9034 24.2855 10.4609C24.2517 10.2359 24.818 9.88719 25.3505 10.4534Z" stroke="black" stroke-width="0.116667" stroke-linejoin="round"/>
<path d="M12.8359 6.79883L13.1847 6.86258C13.1847 6.86258 12.9409 7.19258 12.8359 6.79883Z" fill="black" stroke="black" stroke-width="0.116667" stroke-linejoin="round"/>
</g>
</g>
<defs>
<filter id="filter0_d_336_33445" x="0" y="-2" width="36" height="36" filterUnits="userSpaceOnUse" color-interpolation-filters="sRGB">
<feFlood flood-opacity="0" result="BackgroundImageFix"/>
<feColorMatrix in="SourceAlpha" type="matrix" values="0 0 0 0 0 0 0 0 0 0 0 0 0 0 0 0 0 0 127 0" result="hardAlpha"/>
<feOffset dy="4"/>
<feGaussianBlur stdDeviation="3"/>
<feComposite in2="hardAlpha" operator="out"/>
<feColorMatrix type="matrix" values="0 0 0 0 0 0 0 0 0 0 0 0 0 0 0 0 0 0 0.16 0"/>
<feBlend mode="normal" in2="BackgroundImageFix" result="effect1_dropShadow_336_33445"/>
<feBlend mode="normal" in="SourceGraphic" in2="effect1_dropShadow_336_33445" result="shape"/>
</filter>
<clipPath id="clip0_336_33445">
<rect width="24" height="18" fill="white" transform="translate(6 3)"/>
</clipPath>
</defs>
</svg>
