<svg width="36" height="31" viewBox="0 0 36 31" fill="none" xmlns="http://www.w3.org/2000/svg">
<g filter="url(#filter0_d_336_26720)">
<g clip-path="url(#clip0_336_26720)">
<path d="M6 3H14.25V21H6V3Z" fill="#CE1126"/>
<path d="M14.25 3H30V12H14.25V3Z" fill="#FCD116"/>
<path d="M14.25 12H30V21H14.25V12Z" fill="#009E49"/>
<path d="M10.125 9L9.19795 11.8532L10.6245 12.3167" fill="black"/>
<path d="M10.125 9L11.0521 11.8532L9.62547 12.3167" fill="black"/>
<path d="M12.9805 11.0742L9.98047 11.0742L9.98047 12.5742" fill="black"/>
<path d="M12.9805 11.0742L10.5534 12.8376L9.67174 11.624" fill="black"/>
<path d="M11.8906 14.4258L10.9636 11.5726L9.53699 12.0361" fill="black"/>
<path d="M11.8906 14.4258L9.46357 12.6624L10.3453 11.4489" fill="black"/>
<path d="M8.36328 14.4277L10.7903 12.6644L9.90865 11.4509" fill="black"/>
<path d="M8.36328 14.4277L9.29033 11.5746L10.7169 12.0381" fill="black"/>
<path d="M7.27344 11.0723L9.70049 12.8356L10.5822 11.6221" fill="black"/>
<path d="M7.27344 11.0723H10.2734V12.5723" fill="black"/>
</g>
</g>
<defs>
<filter id="filter0_d_336_26720" x="0" y="-2" width="36" height="36" filterUnits="userSpaceOnUse" color-interpolation-filters="sRGB">
<feFlood flood-opacity="0" result="BackgroundImageFix"/>
<feColorMatrix in="SourceAlpha" type="matrix" values="0 0 0 0 0 0 0 0 0 0 0 0 0 0 0 0 0 0 127 0" result="hardAlpha"/>
<feOffset dy="4"/>
<feGaussianBlur stdDeviation="3"/>
<feComposite in2="hardAlpha" operator="out"/>
<feColorMatrix type="matrix" values="0 0 0 0 0 0 0 0 0 0 0 0 0 0 0 0 0 0 0.16 0"/>
<feBlend mode="normal" in2="BackgroundImageFix" result="effect1_dropShadow_336_26720"/>
<feBlend mode="normal" in="SourceGraphic" in2="effect1_dropShadow_336_26720" result="shape"/>
</filter>
<clipPath id="clip0_336_26720">
<rect width="24" height="18" fill="white" transform="translate(6 3)"/>
</clipPath>
</defs>
</svg>
