<svg width="36" height="31" viewBox="0 0 36 31" fill="none" xmlns="http://www.w3.org/2000/svg">
<g filter="url(#filter0_d_336_28000)">
<g clip-path="url(#clip0_336_28000)">
<path fill-rule="evenodd" clip-rule="evenodd" d="M6 3H30V21H6V3Z" fill="white"/>
<path d="M28.2544 7.29672L28.2886 7.00391L28.2055 7.28977C28.032 7.88689 27.538 8.39606 27.0321 8.49917C26.6557 8.57586 26.3238 8.69736 26.1922 8.80652C26.1099 8.87483 26.0792 8.87232 25.9881 8.78986C25.9189 8.72728 25.7759 8.6928 25.5855 8.6928C25.3245 8.6928 25.2746 8.71394 25.1554 8.87523C25.0812 8.97557 25.0057 9.04288 24.9876 9.02481C24.9695 9.00674 24.9885 8.95131 25.0297 8.90164C25.0845 8.8356 25.086 8.81131 25.0351 8.81131C24.9969 8.81131 24.9289 8.89902 24.8842 9.00621C24.7835 9.2472 24.5101 9.49624 24.3761 9.49624C23.9636 9.35132 23.9094 8.70853 23.4376 8.67468C23.2781 8.68272 23.278 8.68284 23.4257 8.70971C23.6299 8.74688 23.7077 8.96228 23.9683 9.29435C25.6094 11.3862 27.8993 9.55552 28.2544 7.29672Z" fill="#FF0000"/>
<path d="M18.4238 17.2639C15.8318 17.2996 12.4353 15.5277 11.3906 13.0261C11.2908 12.7403 11.1458 12.4742 11.0347 12.1932C10.7023 11.7024 10.3848 11.1553 9.96655 10.7318C8.98678 9.73559 8.05904 8.54237 8 7.09349C8.00316 6.97711 8.0403 7.11894 8.08756 7.40834C8.4773 9.78936 10.7911 11.3765 12.443 9.3495C12.5528 9.21467 12.6531 9.01474 12.7185 8.94141C12.8392 8.80624 13.0539 8.75881 13.0539 8.86734C13.0539 8.89993 12.9877 8.9266 12.9068 8.9266C12.7889 8.9266 12.7285 8.98804 12.6035 9.23474C12.459 9.51972 11.8538 10.1333 11.7422 10.171C11.6493 10.2025 11.7109 10.2764 11.9428 10.3981C12.4616 10.6703 12.6409 10.7893 13.1811 11.2195C13.7581 11.6975 14.4393 12.0742 15.2076 12.0909C15.8986 11.9465 16.3348 11.9318 16.755 12.336C16.9766 12.5492 17.4203 12.6007 18.1798 12.6007C18.9394 12.6007 19.378 12.5438 19.6047 12.336C20.0458 11.9318 20.4611 11.9465 21.152 12.0909C21.9351 12.0868 22.5839 11.6787 23.1785 11.2195C23.7187 10.7893 23.8981 10.6703 24.4169 10.3981C24.6487 10.2764 24.7418 10.171 24.6174 10.171C24.4997 10.171 23.9006 9.51972 23.7562 9.23474C23.6312 8.98804 23.5707 8.9266 23.4529 8.9266C23.372 8.9266 23.3058 8.89993 23.3058 8.86734C23.3058 8.75881 23.5205 8.80624 23.6411 8.94141C23.7066 9.01474 23.8306 9.19838 23.9167 9.3495C25.7675 11.566 27.9398 9.4455 28.3088 7.40834C28.3538 7.11859 28.3932 6.97711 28.3963 7.09349C28.3319 8.53872 27.3395 9.72476 26.3931 10.7318C25.9916 11.1787 25.6223 11.6685 25.325 12.1932C25.1959 12.4661 25.0952 12.7522 24.9691 13.0261C23.6711 15.5069 21.229 17.3103 18.4238 17.2639Z" fill="#FF0000"/>
<path d="M16.1965 12.2488C16.2516 12.0137 15.8601 12.1103 15.9923 12.3017C16.0489 12.3927 16.2082 12.3737 16.1965 12.2488ZM20.3848 12.269C20.4491 12.0561 20.08 12.0521 20.1677 12.2818C20.1991 12.3944 20.3599 12.3777 20.3848 12.269Z" fill="white"/>
<path d="M8.11229 7.29281L8.07812 7L8.1612 7.28586C8.33473 7.88299 8.82876 8.39216 9.33464 8.49526C9.71097 8.57196 10.0429 8.69345 10.1745 8.80262C10.2568 8.87092 10.2875 8.86842 10.3786 8.78596C10.4478 8.72338 10.5908 8.68889 10.7812 8.68889C11.0423 8.68889 11.0921 8.71004 11.2114 8.87133C11.2855 8.97167 11.361 9.03898 11.3791 9.02091C11.3972 9.00284 11.3782 8.94741 11.337 8.89773C11.2822 8.83169 11.2807 8.80741 11.3316 8.80741C11.3698 8.80741 11.4378 8.89511 11.4825 9.0023C11.5832 9.24329 11.8566 9.49233 11.9906 9.49233C12.4031 9.34741 12.4573 8.70463 12.9291 8.67077C13.0886 8.67881 13.0887 8.67894 12.941 8.70581C12.7368 8.74297 12.659 8.95837 12.3985 9.29044C10.7573 11.3823 8.46739 9.55162 8.11229 7.29281Z" fill="#FF0000"/>
<path d="M10.8837 10.0233C11.0911 9.86619 10.9608 9.75466 10.5818 9.76496L10.2392 9.77427L10.5355 9.8094C10.6984 9.82872 10.8235 9.8712 10.8135 9.90379C10.8034 9.93639 10.7501 9.95558 10.695 9.94646C10.6398 9.93733 10.4881 9.9178 10.3577 9.90307L10.1207 9.87629L10.3281 9.93946C10.4421 9.9742 10.5755 10.0255 10.6244 10.0534C10.7438 10.1217 10.7555 10.1203 10.8837 10.0233ZM10.1207 9.75565C10.1207 9.62213 9.83118 9.63979 9.80516 9.7749C9.78832 9.86234 9.81652 9.87936 9.95249 9.86379C10.0539 9.85218 10.1207 9.80925 10.1207 9.75565Z" fill="white"/>
<path d="M9.93062 9.77858C9.95031 9.75889 10.0014 9.75678 10.0442 9.7739C10.0915 9.79282 10.0774 9.80686 10.0084 9.8097C9.94593 9.81228 9.91093 9.79827 9.93062 9.77858ZM10.496 9.17471C10.4754 8.99735 10.2701 8.90649 10.2701 9.07476C10.2701 9.12905 10.2168 9.24127 10.1516 9.32414C9.97544 9.54809 10.006 9.57967 10.2738 9.45031C10.4777 9.35175 10.5116 9.30975 10.496 9.17471ZM9.49874 9.24962C9.35877 9.00041 9.34803 8.78978 9.47012 8.68845C9.57628 8.60035 9.58502 8.64842 9.4904 8.79993C9.45012 8.86442 9.44132 8.95586 9.46908 9.02134C9.5096 9.11693 9.52231 9.10671 9.55787 8.94995C9.58069 8.84933 9.61679 8.73879 9.6381 8.7043C9.69445 8.61313 9.49924 8.55585 9.40335 8.63543C9.24433 8.76741 9.37546 9.45883 9.55952 9.45883C9.59072 9.45883 9.56337 9.36468 9.49874 9.24962ZM10.0784 9.28723C10.2009 9.12152 10.2014 9.11462 10.0924 9.08611C10.0303 9.06988 9.96855 9.08709 9.95515 9.12438C9.94175 9.16166 9.89183 9.25938 9.86341 9.2327C9.8349 9.20595 9.88803 9.04947 9.96257 8.99324C10.0369 8.93719 10.0789 8.87258 10.056 8.84966C10.0331 8.82675 9.97358 8.8411 9.92374 8.88156C9.84822 8.94286 9.83928 8.93866 9.8701 8.85632C9.91036 8.74877 9.76457 8.65483 9.70556 8.7503C9.6863 8.78147 9.70163 8.80697 9.73963 8.80697C9.77773 8.80697 9.7929 8.84823 9.77344 8.89894C9.75323 8.9516 9.76315 8.97546 9.79664 8.95476C9.82881 8.93487 9.85095 8.96682 9.84583 9.02575C9.82726 9.23967 9.85641 9.45883 9.90342 9.45883C9.92989 9.45883 10.0086 9.38161 10.0784 9.28723ZM9.65899 8.99888C9.64416 8.94222 9.63256 9.00253 9.63322 9.1329C9.63387 9.26327 9.64601 9.30963 9.66018 9.23591C9.67436 9.1622 9.67382 9.05553 9.65899 8.99888ZM10.9601 9.01438C10.9112 8.96549 10.8568 8.92549 10.8392 8.92549C10.8216 8.92549 10.8225 8.96549 10.8413 9.01438C10.8601 9.06327 10.9144 9.10327 10.9622 9.10327C11.0374 9.10327 11.0372 9.09147 10.9601 9.01438ZM25.7228 10.0564C25.7794 10.0266 25.919 9.97375 26.0331 9.93898L26.2405 9.87576L26.0035 9.90255C25.8731 9.91728 25.7213 9.9368 25.6662 9.94593C25.6111 9.95506 25.5578 9.93586 25.5477 9.90327C25.5376 9.87068 25.6627 9.8282 25.8257 9.80888L26.122 9.77374L25.7794 9.76443C25.4004 9.75413 25.2701 9.86567 25.4775 10.0228C25.6122 10.1248 25.5971 10.1227 25.7228 10.0564ZM26.5553 9.77062C26.5323 9.65144 26.3447 9.59763 26.2572 9.68514C26.168 9.77426 26.2571 9.87364 26.4261 9.87364C26.5358 9.87364 26.5699 9.84642 26.5553 9.77062Z" fill="white"/>
<path d="M26.2857 9.77858C26.3054 9.75889 26.3565 9.75678 26.3993 9.7739C26.4466 9.79282 26.4325 9.80686 26.3635 9.8097C26.301 9.81228 26.266 9.79827 26.2857 9.77858ZM26.221 9.34198C26.15 9.24592 26.0919 9.12429 26.0919 9.07169C26.0919 8.90534 25.8863 8.99993 25.8659 9.17563C25.8504 9.31022 25.8836 9.35347 26.0734 9.44583C26.1976 9.5063 26.3107 9.54697 26.3247 9.53621C26.3387 9.52544 26.292 9.43803 26.221 9.34198ZM26.5161 9.29586C26.5213 9.20623 26.5213 9.08468 26.5162 9.02575C26.5111 8.96682 26.5332 8.93487 26.5654 8.95476C26.5989 8.97546 26.6088 8.9516 26.5886 8.89894C26.5691 8.84823 26.5843 8.80697 26.6224 8.80697C26.6604 8.80697 26.6757 8.78147 26.6565 8.7503C26.5974 8.65483 26.4516 8.74877 26.4919 8.85632C26.5227 8.93866 26.5138 8.94286 26.4383 8.88156C26.3884 8.8411 26.3289 8.82675 26.306 8.84966C26.2831 8.87258 26.3251 8.93719 26.3994 8.99324C26.474 9.04947 26.5114 9.11691 26.4829 9.14366C26.4545 9.17033 26.4202 9.16166 26.4069 9.12438C26.3935 9.08709 26.3317 9.06988 26.2696 9.08611C26.1606 9.11462 26.1611 9.12152 26.2836 9.28723C26.4423 9.50186 26.5041 9.50416 26.5161 9.29586ZM26.9496 9.28399C27.0621 9.06651 27.0669 8.72522 26.9587 8.63543C26.8628 8.55585 26.6675 8.61313 26.7239 8.7043C26.7452 8.73879 26.7813 8.84933 26.8041 8.94995C26.8397 9.10671 26.8524 9.11693 26.8929 9.02134C26.9207 8.95586 26.9119 8.86442 26.8716 8.79993C26.777 8.64842 26.7857 8.60035 26.8919 8.68845C27.014 8.78978 27.0032 9.00041 26.8633 9.24962C26.7986 9.36468 26.7713 9.45883 26.8025 9.45883C26.8337 9.45883 26.8999 9.38015 26.9496 9.28399ZM26.7252 8.99888C26.7104 8.94222 26.6988 9.00253 26.6994 9.1329C26.7001 9.26327 26.7122 9.30963 26.7264 9.23591C26.7406 9.1622 26.74 9.05553 26.7252 8.99888ZM25.5207 9.01438C25.5395 8.96549 25.5404 8.92549 25.5228 8.92549C25.5052 8.92549 25.4508 8.96549 25.4019 9.01438C25.3248 9.09147 25.3246 9.10327 25.3998 9.10327C25.4476 9.10327 25.502 9.06327 25.5207 9.01438Z" fill="white"/>
</g>
</g>
<defs>
<filter id="filter0_d_336_28000" x="0" y="-2" width="36" height="36" filterUnits="userSpaceOnUse" color-interpolation-filters="sRGB">
<feFlood flood-opacity="0" result="BackgroundImageFix"/>
<feColorMatrix in="SourceAlpha" type="matrix" values="0 0 0 0 0 0 0 0 0 0 0 0 0 0 0 0 0 0 127 0" result="hardAlpha"/>
<feOffset dy="4"/>
<feGaussianBlur stdDeviation="3"/>
<feComposite in2="hardAlpha" operator="out"/>
<feColorMatrix type="matrix" values="0 0 0 0 0 0 0 0 0 0 0 0 0 0 0 0 0 0 0.16 0"/>
<feBlend mode="normal" in2="BackgroundImageFix" result="effect1_dropShadow_336_28000"/>
<feBlend mode="normal" in="SourceGraphic" in2="effect1_dropShadow_336_28000" result="shape"/>
</filter>
<clipPath id="clip0_336_28000">
<rect width="24" height="18" fill="white" transform="translate(6 3)"/>
</clipPath>
</defs>
</svg>
