<svg width="36" height="31" viewBox="0 0 36 31" fill="none" xmlns="http://www.w3.org/2000/svg">
<g filter="url(#filter0_d_336_28163)">
<g clip-path="url(#clip0_336_28163)">
<path d="M6 3H30V21H6V3Z" fill="#244AA5"/>
<path d="M15.4862 11.4304C15.4862 11.4304 15.5313 11.4004 15.5463 11.3966C15.565 11.3966 15.6213 11.3741 15.6213 11.3741C15.6213 11.3741 15.6588 11.3554 15.6775 11.3554C15.7 11.3554 15.7375 11.3779 15.7525 11.3966C15.7638 11.4154 15.8275 11.4491 15.8275 11.4491C15.8275 11.4491 15.8725 11.4641 15.8838 11.4491C15.8913 11.4341 15.91 11.4229 15.9325 11.4229C15.9512 11.4229 15.955 11.4041 15.955 11.3891C15.955 11.3741 15.9625 11.3554 15.9775 11.3366C15.9963 11.3179 16.0262 11.3066 16.0262 11.3066C16.0262 11.3066 16.0713 11.2879 16.075 11.2616C16.0825 11.2354 16.1238 11.2166 16.15 11.2129C16.1763 11.2129 16.15 11.1979 16.2175 11.2054C16.2812 11.2129 16.2925 11.1904 16.2925 11.1716C16.2962 11.1529 16.2925 11.1341 16.3338 11.1341C16.375 11.1416 16.3938 11.1416 16.3938 11.1191C16.3938 11.0966 16.4312 11.0816 16.3675 11.0666C16.3 11.0479 16.3075 11.0629 16.3 11.0291C16.3 11.0029 16.3 11.0066 16.2588 11.0029C16.2138 10.9991 16.2362 10.9766 16.2325 10.9541C16.2287 10.9316 16.2175 10.9166 16.21 10.9054C16.1987 10.8904 16.1762 10.8904 16.1762 10.8679C16.1762 10.8454 16.1725 10.8304 16.15 10.8304C16.1238 10.8304 16.1125 10.8304 16.1125 10.8116C16.1125 10.7891 16.12 10.7741 16.1425 10.7741C16.1687 10.7741 16.18 10.7516 16.18 10.7291C16.1725 10.7066 16.1725 10.6579 16.1725 10.6579L16.2063 10.6204C16.2063 10.6204 16.3037 10.5416 16.3112 10.5266C16.3187 10.5116 16.3525 10.5004 16.3675 10.5304C16.3825 10.5604 16.39 10.5679 16.405 10.5829C16.4162 10.5979 16.4537 10.5866 16.4612 10.5716C16.4687 10.5566 16.4725 10.5004 16.495 10.4704C16.5175 10.4441 16.5325 10.4291 16.5362 10.4029C16.54 10.3766 16.555 10.3579 16.5813 10.3579C16.6038 10.3579 16.6188 10.3241 16.6188 10.3054C16.6188 10.2866 16.6337 10.2679 16.6637 10.2604C16.6937 10.2566 16.7125 10.2379 16.7237 10.2679C16.735 10.2979 16.7463 10.2941 16.765 10.3054C16.7875 10.3166 16.8175 10.3279 16.8325 10.3166C16.8512 10.3016 16.8588 10.2791 16.8813 10.2904C16.9038 10.3054 16.9187 10.2904 16.9262 10.2641L16.9375 10.1929C16.9375 10.1929 16.9412 10.1741 16.9787 10.1741C17.0162 10.1741 16.99 10.1516 17.0088 10.1366C17.0313 10.1216 17.0312 10.1066 17.0575 10.1141C17.0837 10.1254 17.125 10.1029 17.1063 10.0766C17.0838 10.0541 17.0388 10.0166 17.065 9.98664C17.0913 9.95664 17.1025 9.91164 17.0762 9.90414C17.05 9.90039 17.0087 9.90789 17.005 9.88164C17.0012 9.85164 16.99 9.82914 17.0237 9.82539C17.0537 9.82164 17.1063 9.82164 17.125 9.80664C17.14 9.79164 17.1925 9.78039 17.1925 9.73914C17.1925 9.69414 17.2075 9.69039 17.215 9.66414C17.2188 9.64164 17.2188 9.58914 17.1963 9.56664C17.1738 9.54039 17.1438 9.50664 17.14 9.49164C17.1325 9.47664 17.1137 9.45414 17.08 9.44289C17.05 9.43539 17.02 9.42789 17.02 9.40539C17.02 9.37914 17.0425 9.40914 17.0425 9.34539C17.0425 9.28164 17.0012 9.27039 17.0012 9.27039L16.9375 9.23289C16.9375 9.23289 16.825 9.20289 16.795 9.20289C16.765 9.20289 16.7275 9.17289 16.7612 9.15039C16.7987 9.13164 16.8062 9.09414 16.795 9.06789C16.78 9.04164 16.7725 9.01914 16.7237 9.00789C16.675 8.99664 16.6637 8.98539 16.6862 8.95539C16.705 8.92914 16.7125 8.90664 16.7387 8.92914C16.7612 8.94789 16.8063 8.95539 16.84 8.94039C16.8775 8.92539 16.8887 8.91039 16.9075 8.92914C16.9225 8.94414 16.945 8.95914 16.9713 8.93664C16.9975 8.91039 17.0463 8.90664 17.0688 8.91789C17.0875 8.93289 17.1438 8.92914 17.1588 8.91789C17.1738 8.91039 17.2112 8.88039 17.2112 8.86914C17.2112 8.85789 17.2338 8.82414 17.2525 8.81289C17.275 8.79789 17.3012 8.76039 17.3237 8.76039C17.3462 8.76039 17.3537 8.73414 17.3537 8.72289C17.3537 8.70414 17.3725 8.67039 17.3762 8.65914C17.3762 8.64789 17.4212 8.62914 17.4512 8.65914C17.485 8.67789 17.5262 8.68914 17.5262 8.68914C17.5262 8.68914 17.5638 8.69664 17.59 8.68914C17.6018 8.68184 17.6155 8.67797 17.6294 8.67797C17.6433 8.67797 17.6569 8.68184 17.6688 8.68914C17.7025 8.71164 17.7438 8.71164 17.7438 8.71164L17.755 8.66289C17.755 8.64789 17.7625 8.61789 17.7438 8.60664C17.7288 8.59539 17.7063 8.58039 17.74 8.55414C17.7775 8.53164 17.7775 8.53539 17.8112 8.53539L17.8938 8.53914C17.92 8.53914 17.9612 8.56539 17.9612 8.58789C17.9612 8.61039 17.98 8.62539 17.9987 8.64039C18.0212 8.65164 18.0475 8.66289 18.0362 8.68539C18.0325 8.70414 18.0325 8.72289 18.0588 8.71539C18.085 8.71164 18.0925 8.72664 18.0925 8.74914C18.0925 8.76789 18.1 8.77914 18.13 8.78664C18.1525 8.79414 18.1675 8.81289 18.1675 8.83164C18.1675 8.85039 18.16 8.86539 18.1675 8.88414L18.205 8.93664C18.205 8.93664 18.2538 8.99289 18.19 8.96289C18.13 8.93664 18.115 8.92539 18.0963 8.92539L18.0588 8.94414L18.01 8.95164C17.9875 8.95164 17.965 8.99664 18.0025 9.00414C18.0363 9.01164 18.0475 9.01914 18.0475 9.04914C18.0475 9.07914 18.0362 9.06789 18.0175 9.08664C18.0025 9.10914 17.9875 9.09414 17.9575 9.09414C17.9275 9.09414 17.92 9.12039 17.92 9.14289C17.92 9.16539 17.9312 9.16539 17.9425 9.18039C17.9575 9.20289 17.98 9.20664 18.0025 9.18789C18.0213 9.16914 18.04 9.15414 18.0512 9.19164C18.0662 9.22914 18.085 9.22914 18.1075 9.22914C18.1337 9.22914 18.145 9.22914 18.1675 9.21414C18.1862 9.20289 18.2125 9.21414 18.2162 9.24789C18.2237 9.27789 18.2425 9.28539 18.265 9.29664C18.2875 9.30789 18.3025 9.31539 18.3025 9.33414C18.31 9.35664 18.3213 9.36414 18.3438 9.35289C18.3663 9.33789 18.4 9.33039 18.415 9.34914L18.4487 9.39414V9.43539L18.535 9.46539L18.5425 9.50289C18.5425 9.51414 18.5575 9.52539 18.58 9.51789H18.64C18.64 9.51789 18.67 9.50664 18.67 9.48039C18.67 9.45789 18.6812 9.45039 18.7075 9.45039C18.7262 9.45039 18.775 9.46914 18.7862 9.44289C18.8012 9.42039 18.8388 9.41289 18.8688 9.42414L18.9813 9.46914C18.9813 9.46914 18.97 9.46914 18.9963 9.51039C19.0225 9.55164 19.0713 9.55164 19.0713 9.55164C19.0713 9.55164 19.0712 9.58914 19.0825 9.60414C19.09 9.61914 19.1313 9.62664 19.15 9.61164C19.1725 9.59664 19.2025 9.57414 19.2287 9.57414C19.255 9.57414 19.2737 9.57414 19.2737 9.55914C19.2737 9.54414 19.2475 9.53289 19.2475 9.50664C19.2475 9.48039 19.2737 9.48414 19.2775 9.45789C19.2812 9.43539 19.3075 9.45789 19.3262 9.47289C19.345 9.48789 19.3637 9.50289 19.3637 9.51789C19.3637 9.53664 19.4012 9.59289 19.42 9.60039C19.4425 9.60789 19.4987 9.61164 19.5175 9.59289C19.5325 9.57039 19.5775 9.56289 19.5737 9.61164C19.57 9.66039 19.5587 9.66414 19.5887 9.67914C19.6187 9.69414 19.6263 9.75414 19.6 9.76914C19.5738 9.78414 19.5625 9.78789 19.5625 9.81414C19.5625 9.84039 19.555 9.87414 19.5775 9.88914C19.6 9.90789 19.615 9.91914 19.615 9.93414C19.615 9.95289 19.6375 10.0241 19.6375 10.0241C19.6375 10.0241 19.6525 10.0954 19.645 10.1104C19.645 10.1291 19.6337 10.1554 19.6712 10.1516C19.7087 10.1479 19.72 10.1479 19.72 10.1779C19.72 10.2079 19.735 10.2229 19.7125 10.2341C19.69 10.2491 19.675 10.2866 19.6975 10.2941C19.72 10.3016 19.735 10.3166 19.7425 10.3316C19.7462 10.3466 19.78 10.3766 19.8025 10.3579C19.825 10.3429 19.8287 10.3354 19.8475 10.3316C19.8625 10.3279 19.8775 10.3166 19.8587 10.2941C19.8437 10.2754 19.8362 10.2566 19.855 10.2416C19.8737 10.2304 19.8813 10.1929 19.8813 10.1929C19.8813 10.1929 19.9075 10.1554 19.9375 10.1929C19.9675 10.2304 19.975 10.2154 19.9938 10.2154C20.0125 10.2154 20.0237 10.2341 20.0237 10.2529C20.0237 10.2754 20.0688 10.2716 20.0688 10.3016L20.0762 10.4141C20.0762 10.4141 20.0762 10.4554 20.1025 10.4704C20.1287 10.4891 20.125 10.4929 20.11 10.5079C20.0987 10.5304 20.1025 10.5641 20.1025 10.5829C20.1025 10.6016 20.11 10.6016 20.0912 10.6204C20.0687 10.6354 20.0575 10.6579 20.0725 10.6804C20.0837 10.7029 20.08 10.7179 20.1137 10.7479C20.1512 10.7741 20.1475 10.7854 20.1475 10.8079C20.1475 10.8266 20.1813 10.8566 20.1813 10.8754C20.1813 10.8941 20.2075 10.9204 20.23 10.9241C20.2525 10.9279 20.275 10.9616 20.275 10.9841L20.2787 11.0554C20.2787 11.0554 20.2787 11.0666 20.3012 11.0666C20.3275 11.0666 20.3462 11.0966 20.3537 11.0666C20.3612 11.0291 20.3913 11.0291 20.4063 11.0179C20.4213 11.0066 20.4587 10.9954 20.4775 11.0066C20.4962 11.0179 20.515 11.0179 20.5337 11.0179L20.6313 11.0216C20.6313 11.0216 20.6538 11.0216 20.6688 11.0516C20.68 11.0816 20.7175 11.1191 20.6987 11.1341C20.6762 11.1529 20.6762 11.1829 20.6987 11.1829C20.7212 11.1829 20.755 11.1829 20.755 11.2016C20.755 11.2241 20.755 11.2391 20.7813 11.2279C20.8 11.2166 20.815 11.2129 20.8225 11.2279C20.8337 11.2429 20.8487 11.2429 20.8712 11.2541C20.8937 11.2691 20.9012 11.2579 20.9162 11.2429C20.9275 11.2279 20.98 11.2129 20.98 11.2129C20.98 11.2129 21.0475 11.1941 21.0737 11.2016L21.1375 11.2279C21.1375 11.2279 21.1525 11.2654 21.145 11.2916C21.1375 11.3141 21.1263 11.3104 21.1375 11.3479C21.145 11.3854 21.1262 11.3854 21.1112 11.3854C21.0925 11.3779 21.0737 11.3779 21.0737 11.4116C21.0737 11.4416 21.0587 11.4491 21.0587 11.4791C21.0587 11.5091 21.0587 11.5016 21.04 11.5166C21.025 11.5279 21.0175 11.5466 21.0438 11.5541C21.07 11.5541 21.0625 11.5841 21.0625 11.5991L21.0587 11.6516C21.0587 11.6516 21.0587 11.6704 21.0325 11.6704C21.0062 11.6704 20.9762 11.6704 20.9725 11.6891C20.965 11.7079 20.935 11.7379 20.9612 11.7604C20.9912 11.7791 20.9837 11.7904 20.965 11.7979C20.95 11.8091 20.935 11.8466 20.9725 11.8579C21.0062 11.8729 21.0025 11.8841 20.98 11.8991C20.9575 11.9141 20.9162 11.9291 20.9162 11.9516C20.9162 11.9741 20.905 11.9741 20.8787 11.9779C20.8525 11.9816 20.8412 12.0154 20.8712 12.0529C20.9012 12.0941 20.9088 12.0904 20.9313 12.0904C20.9538 12.0904 20.9537 12.0529 20.9537 12.0529L21.0475 12.0604C21.07 12.0604 21.1 12.0604 21.1188 12.0491C21.1375 12.0341 21.1825 12.0154 21.1825 12.0491C21.1825 12.0866 21.1938 12.0866 21.2125 12.0979C21.235 12.1166 21.2387 12.1016 21.2575 12.1279C21.2762 12.1504 21.28 12.1279 21.295 12.1016C21.3062 12.0754 21.3325 12.0491 21.355 12.0791C21.3737 12.1129 21.3738 12.1016 21.4 12.1016C21.4263 12.1016 21.4375 12.1166 21.4375 12.1354C21.4375 12.1541 21.46 12.1541 21.4938 12.1504C21.5238 12.1504 21.5275 12.1691 21.5387 12.1879C21.55 12.2066 21.5575 12.2029 21.5762 12.2029C21.5912 12.2029 21.61 12.2029 21.6212 12.1879C21.6362 12.1729 21.6512 12.1504 21.67 12.1766C21.6887 12.1991 21.7225 12.1954 21.73 12.1691C21.7412 12.1391 21.7787 12.1166 21.8012 12.1466C21.8237 12.1804 21.8387 12.1804 21.8612 12.1841C21.8837 12.1841 21.9138 12.1841 21.925 12.2066C21.94 12.2291 21.9812 12.2591 21.9512 12.2816C21.9212 12.3079 21.8875 12.3379 21.9137 12.3491C21.9373 12.3549 21.9583 12.368 21.9737 12.3866C21.9925 12.4016 22.0488 12.4129 22.075 12.4166C22.1013 12.4166 22.12 12.4241 22.15 12.3979C22.1838 12.3754 22.2137 12.3754 22.21 12.4091C22.2062 12.4391 22.2212 12.4766 22.2212 12.4766C22.2212 12.4766 22.2438 12.5291 22.2438 12.5479C22.2438 12.5666 22.24 12.5704 22.2813 12.5966C22.3188 12.6191 22.3112 12.6341 22.345 12.6116C22.375 12.5891 22.3825 12.5741 22.3825 12.5554V12.4916C22.3825 12.4916 22.4275 12.4841 22.4425 12.4729C22.4612 12.4579 22.5287 12.4241 22.5475 12.4391C22.5662 12.4541 22.585 12.4504 22.6037 12.4429C22.6225 12.4354 22.6563 12.4354 22.675 12.4354C22.69 12.4354 22.72 12.4391 22.7575 12.4129C22.7912 12.3829 22.7912 12.3904 22.8137 12.4129C22.8325 12.4316 22.8325 12.4541 22.8212 12.4729C22.8062 12.4879 22.8212 12.5216 22.8512 12.5216C22.8812 12.5216 22.8887 12.5404 22.8887 12.5591L22.9 12.6229C22.9 12.6379 22.9 12.6491 22.9525 12.6604C22.9975 12.6716 22.99 12.6979 22.9975 12.7204C23.0087 12.7391 23.0087 12.7579 22.9825 12.7579C22.9562 12.7579 22.945 12.7691 22.945 12.7879C22.9375 12.8066 22.9 12.8141 22.9 12.8141L22.8625 12.8066C22.8625 12.8066 22.8325 12.8066 22.8212 12.8216C22.8062 12.8404 22.7837 12.8704 22.7987 12.8966C22.8175 12.9266 22.8175 12.9416 22.7987 12.9566C22.7837 12.9679 22.7725 13.0279 22.7575 13.0166C22.7387 13.0016 22.72 13.0166 22.7012 13.0279C22.6825 13.0354 22.6862 13.0916 22.72 13.1104C22.7575 13.1329 22.765 13.1591 22.765 13.1591L22.8025 13.2191C22.8025 13.2191 22.7912 13.2304 22.7837 13.2529C22.7725 13.2716 22.7462 13.3129 22.7725 13.3204C22.7987 13.3279 22.7875 13.3729 22.7612 13.3729C22.735 13.3729 22.705 13.3579 22.7012 13.3916C22.6975 13.4254 22.6825 13.4141 22.6563 13.4104C22.63 13.4104 22.5662 13.3916 22.5475 13.4216C22.5287 13.4554 22.525 13.4666 22.495 13.4629C22.465 13.4629 22.4763 13.5116 22.4875 13.5304L22.525 13.5791C22.525 13.5791 22.5512 13.5979 22.5512 13.6391C22.5512 13.6766 22.5325 13.6766 22.5137 13.6466C22.4987 13.6204 22.465 13.6241 22.4612 13.6541C22.4575 13.6879 22.45 13.7366 22.4237 13.7366C22.39 13.7366 22.3787 13.7441 22.3637 13.7591C22.3525 13.7741 22.33 13.8041 22.33 13.8191C22.33 13.8341 22.3262 13.8529 22.3037 13.8566C22.2812 13.8604 22.2775 13.9016 22.2775 13.9016C22.2775 13.9016 22.225 13.9129 22.2212 13.9316C22.2175 13.9504 22.225 13.9841 22.1837 13.9879C22.1669 13.9899 22.1508 13.9956 22.1365 14.0047C22.1222 14.0138 22.1102 14.026 22.1012 14.0404C22.0862 14.0591 22.0825 14.0779 22.1012 14.0966C22.12 14.1154 22.1312 14.1791 22.1537 14.1904C22.1725 14.2016 22.1913 14.2091 22.1875 14.2391C22.1838 14.2729 22.1575 14.2954 22.1912 14.2954C22.2287 14.2954 22.2475 14.3029 22.2362 14.3329C22.2212 14.3591 22.2212 14.3629 22.1987 14.3741C22.1687 14.3891 22.1575 14.3891 22.1575 14.4191C22.1575 14.4491 22.165 14.4529 22.1425 14.4641C22.12 14.4754 22.12 14.4904 22.12 14.5166C22.12 14.5429 22.1125 14.5316 22.0862 14.5579C22.06 14.5879 22.0262 14.5879 22.0037 14.5804C21.9812 14.5729 21.9775 14.5729 21.9737 14.5466C21.97 14.5241 21.9325 14.5241 21.91 14.5279C21.8875 14.5279 21.8575 14.5541 21.8575 14.5541C21.8575 14.5541 21.82 14.5804 21.835 14.5991C21.8537 14.6179 21.8425 14.6516 21.8125 14.6479C21.7825 14.6441 21.715 14.6779 21.6925 14.6441C21.67 14.6066 21.61 14.5841 21.5987 14.6329C21.5912 14.6779 21.625 14.6741 21.6212 14.7229C21.6212 14.7716 21.61 14.7716 21.5912 14.7866C21.5762 14.8016 21.5763 14.8166 21.5688 14.8354C21.5688 14.8541 21.5612 14.8991 21.5912 14.9141C21.6212 14.9329 21.6362 14.9741 21.6362 15.0004C21.6362 15.0229 21.6362 15.0491 21.6662 15.0491C21.6962 15.0491 21.7225 15.0416 21.7262 15.0154C21.73 14.9891 21.79 14.9704 21.7975 15.0266C21.7975 15.0829 21.7975 15.1129 21.8237 15.1354C21.8425 15.1579 21.8612 15.1916 21.88 15.2029C21.895 15.2141 21.925 15.3154 21.925 15.3154C21.8838 15.3266 21.8725 15.3829 21.8462 15.3904C21.8312 15.3979 21.8125 15.3904 21.7975 15.4016C21.79 15.4129 21.79 15.4279 21.775 15.4316C21.7413 15.4466 21.7487 15.3979 21.7075 15.4166C21.6737 15.4316 21.67 15.4729 21.6212 15.4541C21.595 15.4466 21.58 15.3416 21.5725 15.3191L21.5313 15.2516C21.5013 15.2066 21.445 15.2516 21.4262 15.2366C21.3962 15.2179 21.4075 15.1841 21.3625 15.1804C21.2725 15.1729 21.3362 15.2366 21.2987 15.2479C21.2237 15.2741 21.2237 15.1804 21.1712 15.2254C21.1525 15.2404 21.2088 15.2516 21.1938 15.2779C21.1825 15.3004 21.13 15.3379 21.13 15.3641C21.1375 15.4016 21.175 15.4129 21.1862 15.4391C21.2237 15.5254 21.1675 15.5816 21.085 15.5141C21.04 15.4804 21.0287 15.4129 20.9612 15.4204C20.9425 15.4204 20.9387 15.4354 20.9237 15.4391C20.905 15.4391 20.8938 15.4241 20.875 15.4279C20.8488 15.4391 20.875 15.4579 20.8675 15.4729C20.8675 15.4729 20.83 15.4991 20.83 15.5104C20.8075 15.5329 20.815 15.5554 20.785 15.5779C20.7625 15.5966 20.7437 15.5854 20.7175 15.6154C20.6912 15.6416 20.6875 15.6866 20.6537 15.7129C20.635 15.7279 20.6237 15.6716 20.6012 15.7091L20.5938 15.7241C20.5863 15.7354 20.5863 15.7391 20.5938 15.7504C20.6388 15.8404 20.5412 15.8704 20.5112 15.9341C20.5 15.9604 20.5337 15.9829 20.5225 16.0054L20.4662 16.0691C20.4662 16.0766 20.4587 16.0991 20.4512 16.1066C20.4437 16.1141 20.4137 16.1066 20.4137 16.1216C20.4137 16.1366 20.4437 16.1479 20.4512 16.1554C20.4587 16.1666 20.4437 16.1816 20.4512 16.1854C20.4962 16.2341 20.47 16.2191 20.4925 16.2604C20.4962 16.2679 20.5113 16.2566 20.5188 16.2716C20.5225 16.2866 20.5037 16.2866 20.5112 16.3016C20.5112 16.3091 20.5487 16.3541 20.5487 16.3541C20.5487 16.3691 20.4812 16.3991 20.4662 16.3991C20.425 16.3991 20.5037 16.3166 20.4362 16.3166C20.4062 16.3166 20.4025 16.3804 20.3987 16.3916H20.3612C20.3162 16.3916 20.2862 16.4441 20.2712 16.4479C20.26 16.4516 20.2337 16.4404 20.215 16.4479C20.2 16.4479 20.1775 16.4666 20.1625 16.4666C20.1513 16.4666 20.1475 16.4591 20.1362 16.4516C20.1175 16.4404 20.08 16.4366 20.0612 16.4291C20.0462 16.4291 20.0237 16.4441 20.0162 16.4404C20.005 16.4329 20.0275 16.4029 19.9938 16.3879L19.9675 16.3241C19.9787 16.2866 19.99 16.2491 19.9862 16.2079C19.9787 16.1666 19.9112 16.1329 19.8962 16.0954C19.885 16.0729 19.8737 16.0054 19.8475 15.9904C19.8189 15.9685 19.7958 15.9402 19.78 15.9079C19.78 15.9004 19.7912 15.8854 19.78 15.8704C19.7687 15.8591 19.75 15.8516 19.7425 15.8329C19.7387 15.8179 19.7425 15.7654 19.7237 15.7541C19.705 15.7429 19.5737 15.7241 19.5362 15.7204C19.5212 15.7204 19.51 15.7204 19.4987 15.7091L19.4762 15.6829L19.4387 15.6904C19.4275 15.6904 19.4087 15.6829 19.4012 15.6904C19.36 15.7166 19.3487 15.7541 19.3075 15.7879C19.2662 15.8179 19.2212 15.8179 19.18 15.8516C19.1537 15.8741 19.135 15.9304 19.1088 15.9566C19.0975 15.9679 19.0825 15.9566 19.0787 15.9604C19.0562 15.9866 19.0262 16.0054 19.0037 16.0279C19 16.0354 19.0038 16.0429 18.9963 16.0466L18.9475 16.0616H18.9025C18.8838 16.0691 18.8838 16.0916 18.8088 16.1066L18.79 16.1179L18.7675 16.1366H18.7338C18.715 16.1366 18.7037 16.1554 18.6887 16.1554C18.6512 16.1629 18.5837 16.1366 18.5537 16.1516C18.535 16.1554 18.4862 16.2154 18.4675 16.2191C18.4562 16.2229 18.445 16.2191 18.43 16.2154L18.4075 16.2979L18.3175 16.3766C18.3062 16.3879 18.3025 16.4029 18.2875 16.4141C18.28 16.4254 18.265 16.4329 18.25 16.4329C18.235 16.4329 18.2088 16.4179 18.19 16.4179C18.16 16.4104 18.0663 16.4066 18.04 16.4141C18.0063 16.4179 18.0175 16.5041 17.9425 16.5116L17.8188 16.5266C17.815 16.5266 17.7888 16.5116 17.7625 16.5154C17.7513 16.5191 17.7213 16.5529 17.7213 16.5604V16.5791L17.7287 16.5941C17.7137 16.6129 17.6763 16.6429 17.665 16.6691L17.65 16.6841C17.6425 16.6916 17.59 16.7104 17.5862 16.7179C17.575 16.7479 17.6237 16.7779 17.6162 16.7891C17.605 16.8266 17.5525 16.8641 17.5338 16.9016C17.53 16.9166 17.5525 16.9654 17.5525 16.9804C17.545 17.0291 17.53 17.0891 17.5338 17.1341L17.5412 17.1979L17.5675 17.2166L17.635 17.3516C17.6462 17.4341 17.5225 17.4041 17.5975 17.4866C17.605 17.5016 17.6125 17.5129 17.6275 17.5241L17.7325 17.6104C17.7325 17.6254 17.6575 17.6366 17.6463 17.6479C17.6088 17.6854 17.5825 17.7454 17.5487 17.7829C17.5262 17.8016 17.5113 17.7791 17.4813 17.8316C17.4738 17.8504 17.4812 17.8916 17.47 17.9066C17.4512 17.9216 17.44 17.8991 17.4213 17.9066C17.4138 17.9066 17.41 17.9329 17.4025 17.9366C17.3838 17.9554 17.2075 18.0491 17.1925 18.0379C17.185 18.0341 17.1737 18.0041 17.1737 17.9966C17.1737 17.9854 17.1587 17.9629 17.1512 17.9591C17.1062 17.9216 17.0388 17.9104 16.9938 17.9591C16.9825 17.9704 16.9825 17.9891 16.9675 17.9966L16.8925 18.0566L16.8737 18.0754C16.855 18.0754 16.8137 18.0266 16.7987 18.0116C16.7837 17.9891 16.7237 17.9366 16.72 17.9104C16.72 17.8204 16.6487 17.7266 16.6225 17.6404H16.6637C16.7125 17.6066 16.7013 17.5279 16.7875 17.5579C16.7988 17.5429 16.7987 17.5279 16.8175 17.5204C16.825 17.5129 16.84 17.5091 16.8438 17.5016C16.8738 17.4566 16.9075 17.2841 16.8775 17.2391C16.8513 17.2016 16.8213 17.2016 16.8025 17.1379C16.795 17.1191 16.8025 17.1004 16.8025 17.0779L16.765 16.9616C16.7575 16.9504 16.7387 16.9429 16.7387 16.9354L16.7313 16.8191C16.705 16.7366 16.6038 16.6879 16.6 16.6766L16.5625 16.6129C16.5475 16.5866 16.5475 16.5754 16.54 16.5529C16.5363 16.5416 16.5175 16.5304 16.5175 16.5191C16.5175 16.4966 16.5775 16.4554 16.5737 16.4179C16.5737 16.4066 16.5363 16.3691 16.5438 16.3504C16.5513 16.3279 16.5887 16.2829 16.5887 16.2566C16.5887 16.2266 16.5288 16.1591 16.5213 16.1291C16.5175 16.1104 16.5437 16.0991 16.5362 16.0879C16.5287 16.0729 16.4687 16.0166 16.4612 16.0016C16.45 15.9904 16.48 15.9754 16.4612 15.9529C16.4387 15.9341 16.4575 15.9379 16.45 15.9229C16.4425 15.9041 16.4238 15.8854 16.4125 15.8666C16.405 15.8479 16.3525 15.6604 16.3563 15.6491C16.345 15.6379 16.33 15.6266 16.3225 15.6116L16.3075 15.5666C16.3075 15.5666 16.2475 15.5479 16.2362 15.5291C16.2287 15.5179 16.225 15.4691 16.21 15.4466C16.2025 15.4354 16.1913 15.4391 16.1838 15.4316C16.1763 15.4241 16.1762 15.4129 16.1725 15.4054C16.1537 15.3829 16.12 15.4054 16.0975 15.3154C16.06 15.2929 16.0337 15.2779 16.0075 15.2479L15.9925 15.2329C15.97 15.2254 15.9362 15.2216 15.9175 15.2066C15.9062 15.2066 15.85 15.2066 15.8425 15.1991L15.8275 15.1691C15.7975 15.1654 15.745 15.1691 15.7188 15.1466C15.7 15.1279 15.6963 15.0416 15.6588 15.0529C15.6539 15.0514 15.6486 15.0514 15.6438 15.0529C15.6175 15.0154 15.535 15.0154 15.5012 14.9929C15.4937 14.9891 15.4637 14.9929 15.4637 14.9854L15.4675 14.9366L15.4262 14.8841C15.3925 14.8766 15.4037 14.8729 15.3887 14.8616C15.3325 14.8616 15.325 14.8691 15.2913 14.8991C15.2838 14.9066 15.265 14.9104 15.2538 14.9141C15.235 14.9254 15.2313 14.9591 15.205 14.9441L15.1825 14.9254C15.1675 14.9104 15.16 14.9179 15.1525 14.8954C15.1075 14.8691 14.9837 14.9516 14.9575 14.8954C14.935 14.8841 14.92 14.8954 14.9012 14.8804C14.8937 14.8729 14.9275 14.7679 14.8375 14.7304L14.8975 14.6891C14.905 14.6779 14.8975 14.6591 14.8975 14.6516C14.8975 14.6329 14.9088 14.5991 14.905 14.5879C14.905 14.5766 14.89 14.5654 14.8863 14.5504C14.8788 14.5391 14.8863 14.5204 14.8788 14.5054L14.8488 14.4904C14.8263 14.4716 14.8038 14.4604 14.785 14.4379L14.77 14.4191C14.755 14.4079 14.7025 14.3891 14.7025 14.3666C14.7025 14.3591 14.7175 14.3554 14.7175 14.3479C14.7213 14.3366 14.7175 14.3254 14.7288 14.3179C14.7513 14.2804 14.8075 14.2991 14.8 14.2354C14.7962 14.2054 14.7737 14.1829 14.77 14.1529C14.7587 14.1454 14.7587 14.1341 14.7512 14.1266C14.695 14.1229 14.7025 14.0666 14.6838 14.0516C14.6275 14.0141 14.5825 14.0366 14.6463 13.9616C14.6538 13.9354 14.59 13.8941 14.5788 13.8829C14.5563 13.8604 14.5675 13.8116 14.5562 13.7891C14.5562 13.7779 14.515 13.7554 14.5038 13.7404L14.485 13.7029V13.6991C14.4963 13.6879 14.4925 13.6691 14.485 13.6616C14.4813 13.6504 14.4625 13.6541 14.4588 13.6466C14.4063 13.6016 14.3462 13.5791 14.275 13.5529C14.2562 13.5454 14.2637 13.5304 14.245 13.5229L14.1325 13.4779C14.125 13.4779 14.1175 13.4366 14.11 13.4216L14.0762 13.3841C14.0762 13.3466 14.0538 13.3466 14.0238 13.3241V13.3016L14.0463 13.2229C14.05 13.2079 14.0688 13.1929 14.065 13.1779L14.05 13.0916C14.02 13.0166 13.9863 13.0241 14.005 12.9229C14.005 12.9004 14.0013 12.8891 14.0163 12.8704L14.0238 12.8591L14.0687 12.8254C14.0837 12.8029 14.095 12.7541 14.1137 12.7391L14.1812 12.6941C14.1887 12.6866 14.1963 12.6604 14.1925 12.6491C14.1775 12.6416 14.1625 12.6454 14.1475 12.6416C14.14 12.6416 14.1212 12.6266 14.1062 12.6266C14.1025 12.6191 14.095 12.6154 14.095 12.6079L14.0875 12.6004C14.0687 12.6004 14.05 12.5891 14.035 12.5816C14.0163 12.5741 13.99 12.5741 13.9713 12.5629C13.9338 12.5441 13.8962 12.4879 13.8625 12.4804C13.8175 12.4691 13.7875 12.4841 13.7425 12.4879C13.7163 12.4879 13.7162 12.4729 13.6937 12.4654C13.6637 12.4541 13.6862 12.4804 13.6187 12.4579C13.6075 12.4504 13.6187 12.4279 13.6187 12.4204H13.5812C13.5287 12.4054 13.5475 12.3529 13.5325 12.3191C13.5287 12.3116 13.5025 12.3116 13.495 12.3116C13.4875 12.3116 13.4875 12.3041 13.4875 12.3041L13.495 12.3004C13.5025 12.2854 13.4688 12.2479 13.4688 12.2404C13.4725 12.2291 13.5437 12.2179 13.5512 12.2179C13.555 12.2066 13.5475 12.1991 13.5437 12.1916C13.5437 12.1729 13.555 12.1466 13.5625 12.1279V12.1204C13.54 12.1091 13.5363 12.0941 13.5175 12.0829C13.5175 12.0716 13.5287 12.0679 13.5325 12.0566C13.5662 11.9629 13.6187 12.0379 13.6637 11.9516C13.6675 11.9441 13.6825 11.9254 13.6863 11.9104H13.6937C13.7012 11.9104 13.7163 11.9179 13.7238 11.9104C13.7313 11.9029 13.7425 11.9029 13.7538 11.8991H13.7725C13.855 11.8841 13.8363 11.8541 13.885 11.8204C13.9 11.8091 13.9375 11.8054 13.9525 11.7979C13.9713 11.8091 13.9975 11.8354 14.0312 11.8504C14.0575 11.8579 14.1438 11.8766 14.1588 11.8879C14.1775 11.8954 14.1813 11.9179 14.1963 11.9254C14.245 11.9554 14.215 11.9104 14.2637 11.9179C14.3125 11.9291 14.35 11.9704 14.395 11.9891L14.4325 11.9854C14.4437 11.9816 14.5187 11.9666 14.5262 11.9704L14.5562 11.9816C14.5675 11.9854 14.575 11.9629 14.5863 11.9629C14.6163 11.9704 14.6163 11.9816 14.6613 11.9779C14.6613 11.9779 14.6837 11.8541 14.7062 11.8504C14.7175 11.8466 14.7513 11.8766 14.7588 11.8804C14.7738 11.8841 14.7588 11.8541 14.7588 11.8541C14.7513 11.8429 14.7287 11.7679 14.7325 11.7604C14.7325 11.7604 14.7512 11.7679 14.7625 11.7641C14.785 11.7566 14.8187 11.7491 14.8375 11.7304L14.875 11.6741C14.8787 11.6666 14.8675 11.6441 14.875 11.6366L14.9088 11.6141C14.9238 11.5991 14.9238 11.5766 14.9463 11.5654C15.0213 11.5579 15.0475 11.4979 15.1187 11.4904H15.1413L15.1562 11.5129C15.1562 11.5166 15.205 11.5466 15.2125 11.5429C15.22 11.5429 15.2237 11.5316 15.2312 11.5279C15.2425 11.5316 15.2837 11.5091 15.2875 11.4941C15.2875 11.4941 15.28 11.4829 15.2838 11.4716C15.3025 11.455 15.3225 11.4399 15.3437 11.4266H15.3963C15.4038 11.4341 15.4038 11.4491 15.415 11.4491H15.46C15.4675 11.4491 15.4712 11.4304 15.4862 11.4304V11.4304Z" fill="#D0A650"/>
<path d="M19.1975 5.75195L19.8013 7.61195L18.2188 6.4607H20.1763L18.5937 7.61195L19.1937 5.75195H19.1975ZM21.5525 6.1682L22.1525 8.0282L20.5738 6.87695H22.5275L20.945 8.0282L21.5525 6.1682ZM23.7988 6.9857L24.3988 8.8457L22.82 7.69445H24.7738L23.1912 8.84945L23.7988 6.98945V6.9857Z" fill="white"/>
<path d="M16.8033 5.75195L16.1995 7.61195L17.782 6.4607H15.8245L17.407 7.61195L16.807 5.75195H16.8033ZM14.4483 6.1682L13.8483 8.0282L15.427 6.87695H13.4733L15.0558 8.0282L14.4483 6.1682ZM12.2133 6.9857L12.8208 8.8457L11.2383 7.69445H13.192L11.6095 8.8457L12.2133 6.9857V6.9857Z" fill="white"/>
</g>
</g>
<defs>
<filter id="filter0_d_336_28163" x="0" y="-2" width="36" height="36" filterUnits="userSpaceOnUse" color-interpolation-filters="sRGB">
<feFlood flood-opacity="0" result="BackgroundImageFix"/>
<feColorMatrix in="SourceAlpha" type="matrix" values="0 0 0 0 0 0 0 0 0 0 0 0 0 0 0 0 0 0 127 0" result="hardAlpha"/>
<feOffset dy="4"/>
<feGaussianBlur stdDeviation="3"/>
<feComposite in2="hardAlpha" operator="out"/>
<feColorMatrix type="matrix" values="0 0 0 0 0 0 0 0 0 0 0 0 0 0 0 0 0 0 0.16 0"/>
<feBlend mode="normal" in2="BackgroundImageFix" result="effect1_dropShadow_336_28163"/>
<feBlend mode="normal" in="SourceGraphic" in2="effect1_dropShadow_336_28163" result="shape"/>
</filter>
<clipPath id="clip0_336_28163">
<rect width="24" height="18" fill="white" transform="translate(6 3)"/>
</clipPath>
</defs>
</svg>
