<svg width="36" height="31" viewBox="0 0 36 31" fill="none" xmlns="http://www.w3.org/2000/svg">
<g filter="url(#filter0_d_336_31400)">
<g clip-path="url(#clip0_336_31400)">
<path fill-rule="evenodd" clip-rule="evenodd" d="M6 12H30V21H6V12Z" fill="#19B6EF"/>
<path fill-rule="evenodd" clip-rule="evenodd" d="M6 3H30V12H6V3Z" fill="white"/>
<path fill-rule="evenodd" clip-rule="evenodd" d="M17.8862 15.7194C19.8587 14.2494 21.9737 11.2494 19.4949 9.66685C19.0337 9.57685 18.5199 9.6031 18.2687 9.80185C18.1374 9.72685 18.0324 9.73435 17.9012 9.8731C17.8074 9.7606 17.7137 9.7081 17.5262 9.76435C17.3467 9.66788 17.1497 9.60824 16.9469 9.58892C16.744 9.5696 16.5394 9.591 16.3449 9.65185C14.1737 10.9419 15.5012 14.0244 17.8862 15.7156V15.7194Z" fill="#FFDD00" stroke="#7D6C00" stroke-width="0.200651"/>
<path fill-rule="evenodd" clip-rule="evenodd" d="M21.5247 12.3778C21.5247 12.3778 21.7497 12.0778 21.7572 12.0778C21.9785 11.9503 22.001 11.7815 22.001 11.7815C22.2222 11.714 22.151 11.5303 22.1697 11.5078C22.2043 11.4739 22.2278 11.4303 22.2372 11.3828C22.2466 11.3353 22.2414 11.286 22.2222 11.2415C22.2222 11.2115 22.2972 10.9265 22.1922 10.889C22.196 10.589 22.0122 10.6153 21.8622 10.814C21.7047 10.859 21.671 10.9903 21.7272 11.1328C21.521 11.1328 21.5135 11.4328 21.5735 11.5978C21.2997 11.5903 21.4497 11.8978 21.4422 11.9128C21.3522 11.9578 21.5135 12.3928 21.5285 12.3778H21.5247ZM19.7997 14.9353L19.9347 15.0178C19.9647 15.1228 20.0622 15.1903 20.1335 15.1715C20.171 15.3328 20.3435 15.3103 20.471 15.2165C20.5722 15.3665 20.696 15.3665 20.8685 15.3178C21.0185 15.4303 21.2172 15.3815 21.3485 15.2653C21.4872 15.3778 21.581 15.2953 21.6522 15.1715C21.7647 15.2015 21.8472 15.1828 21.8885 15.074C22.1022 15.0553 21.9972 14.8528 21.821 14.7665C21.9597 14.6465 22.1172 14.3915 21.896 14.354C21.8285 14.3053 21.6972 14.3165 21.5997 14.3615C21.5735 14.249 21.4197 14.2228 21.2472 14.3465C21.191 14.2228 20.9847 14.2828 20.891 14.369C20.7672 14.264 20.621 14.264 20.4072 14.384L19.7997 14.9353ZM19.7997 14.609C19.8222 14.4665 19.7247 14.2115 19.8747 14.189C19.8485 13.9528 19.886 13.6903 20.156 13.7128C20.201 13.4915 20.1935 13.2853 20.4485 13.2553C20.4485 13.2553 20.6547 12.539 20.8685 13.034C20.951 13.1803 20.936 13.4165 20.7672 13.3715C20.801 13.5478 20.741 13.7053 20.546 13.6978C20.6322 13.8253 20.606 13.994 20.5085 14.0728L19.796 14.609H19.7997ZM21.041 13.7128L21.266 13.6678C21.491 13.5178 21.5847 13.454 21.6972 13.6228C21.8885 13.5853 22.0722 13.6003 22.0647 13.7503C22.2897 13.769 22.2897 13.9115 22.2635 14.0278C22.301 14.2265 22.211 14.489 22.076 14.1703C21.6297 13.9003 21.3785 13.9378 20.6772 14.0953L21.041 13.7128ZM21.1572 13.4915C21.1647 13.484 21.8135 13.3153 21.746 13.1165C21.9297 13.0865 21.9672 12.9028 21.971 12.9028C22.3572 12.7828 22.3347 12.5615 22.3347 12.5615C22.4435 12.4453 22.6347 12.3253 22.5935 12.119C22.6047 11.8828 22.6272 11.7365 22.3085 11.8903C22.0722 11.8678 21.9897 12.0028 21.9222 12.209C21.8097 12.0778 21.6297 12.2878 21.6072 12.4753C21.6072 12.4753 21.3185 12.7603 21.3185 12.7678L21.0747 13.2178L21.1572 13.4915V13.4915Z" fill="#4FD46B" stroke="#3A9D4F" stroke-width="0.200651" stroke-linejoin="round"/>
<path fill-rule="evenodd" clip-rule="evenodd" d="M21.1682 12.9902C21.0144 12.874 20.9282 12.7315 20.9544 12.5927C20.8532 12.454 20.7819 12.3715 20.8794 12.2477L20.8044 11.9665C20.6019 11.8915 20.6882 11.7227 20.7407 11.6627C20.6469 11.5315 20.6432 11.3927 20.7332 11.2727C20.7332 11.029 20.9057 11.1227 21.0444 11.2727C21.0444 11.2727 21.2844 11.4415 21.1082 11.5915C21.2844 11.6552 21.3332 11.8052 21.2357 11.869C21.3894 11.9365 21.4119 12.0752 21.3294 12.169C21.4832 12.289 21.4269 12.4465 21.4719 12.5852L21.1682 12.9902Z" fill="#4FD46B" stroke="#3A9D4F" stroke-width="0.200651" stroke-linejoin="round"/>
<path fill-rule="evenodd" clip-rule="evenodd" d="M21.4441 11.8499C21.4366 11.8462 21.1853 11.5237 21.2566 11.5012C21.2378 11.4037 21.1628 11.2949 21.2078 11.1974C21.0841 11.0699 21.0803 10.9237 21.1778 10.8074C21.0953 10.6949 21.1328 10.5412 21.2453 10.4399C21.2078 10.2524 21.3428 10.2074 21.4591 10.1737C21.5453 9.87369 21.6841 9.94869 21.7666 10.1812C21.8866 10.2862 21.8678 10.4437 21.8266 10.5637C21.9691 10.6574 21.8828 10.7774 21.8191 10.8262L21.4441 11.8537V11.8499Z" fill="#4FD46B" stroke="#3A9D4F" stroke-width="0.200651" stroke-linejoin="round"/>
<path fill-rule="evenodd" clip-rule="evenodd" d="M21.4052 10.241L21.1914 10.0272C21.2477 9.91474 21.2927 9.71599 21.1314 9.62224C21.0414 9.40849 20.5989 9.13849 20.5277 9.65224C20.4602 9.49849 20.3177 9.34474 20.2164 9.52474C19.9839 9.32599 19.8602 9.38599 19.9802 9.63724C19.9802 9.63724 19.8714 9.80599 20.1527 9.93724C20.1752 9.95974 20.0627 10.241 20.4002 10.2485C20.3364 10.346 20.4377 10.481 20.5727 10.4735C20.4789 10.5897 20.6402 10.7172 20.7414 10.6685C20.7002 10.7997 20.7039 10.8635 20.8877 10.8822L21.0939 11.1185L21.2627 11.3472L21.4052 10.241Z" fill="#4FD46B" stroke="#3A9D4F" stroke-width="0.200651" stroke-linejoin="round"/>
<path d="M21.537 12.2427C21.5483 12.2315 21.9495 11.3127 22.002 11.0352M21.5783 10.6115C21.5783 10.6115 21.6458 11.3615 21.462 11.909M20.3483 9.85773C20.3483 9.85773 21.1695 10.6452 21.2483 10.9715M20.922 9.77148C20.922 9.77148 20.9745 10.4202 21.2033 11.0577M22.3658 12.1227C22.3658 12.1227 21.5483 12.8165 21.1508 13.424M21.5933 14.549C21.5933 14.549 20.5133 14.699 20.0408 14.7102M21.2408 15.0102C21.2408 15.0102 19.8983 14.9802 19.8008 14.8827M20.5695 13.2702C20.5695 13.2852 19.887 14.4065 19.8645 14.7702" stroke="#3A9D4F" stroke-width="0.18393" stroke-linecap="round"/>
<path fill-rule="evenodd" clip-rule="evenodd" d="M17.8854 15.5031C16.4679 14.1681 15.0167 11.6631 16.4604 10.3956C16.7154 10.5381 17.0192 10.4106 17.4354 10.2456C17.5629 10.3844 17.7242 10.4181 17.8854 10.3131C17.9517 10.3457 18.0268 10.3557 18.0993 10.3414C18.1718 10.3272 18.2376 10.2896 18.2867 10.2344C18.6992 10.4706 19.2204 10.5944 19.3442 10.3581C20.7617 11.7081 19.3217 14.2281 17.8817 15.5069L17.8854 15.5031Z" fill="#65C7FF" stroke="#7D6C00" stroke-width="0.200651"/>
<path fill-rule="evenodd" clip-rule="evenodd" d="M17.887 15.4655C17.2403 14.8401 16.704 14.1098 16.3008 13.3055C16.3758 13.2418 16.4095 13.223 16.447 13.118C16.6645 13.148 16.7808 13.1555 17.0658 13.103C17.1258 13.3205 17.137 13.5005 17.272 13.6805L17.5608 13.118C17.7638 13.1695 17.9765 13.1695 18.1795 13.118C18.2995 13.2755 18.2545 13.5193 18.4683 13.703C18.5958 13.328 18.7195 13.3055 18.847 13.103C19.0345 13.1705 19.1545 13.1405 19.3083 13.0918C19.3833 13.1855 19.3458 13.1818 19.4958 13.3168C19.0988 14.1265 18.5545 14.8551 17.8908 15.4655H17.887Z" fill="#8FC753"/>
<path fill-rule="evenodd" clip-rule="evenodd" d="M16.2214 9.16134C16.2246 9.17965 16.2237 9.19844 16.2189 9.21638C16.214 9.23433 16.2053 9.251 16.1933 9.26522C16.1814 9.27944 16.1664 9.29087 16.1496 9.29872C16.1327 9.30656 16.1144 9.31062 16.0958 9.31062C16.0772 9.31062 16.0588 9.30656 16.042 9.29872C16.0251 9.29087 16.0102 9.27944 15.9982 9.26522C15.9863 9.251 15.9775 9.23433 15.9727 9.21638C15.9678 9.19844 15.967 9.17965 15.9702 9.16134C15.9702 9.12752 15.9836 9.09509 16.0075 9.07118C16.0314 9.04727 16.0638 9.03384 16.0977 9.03384C16.1315 9.03384 16.1639 9.04727 16.1878 9.07118C16.2117 9.09509 16.2252 9.12752 16.2252 9.16134H16.2214ZM16.0902 8.87259C16.0948 8.89138 16.0951 8.91098 16.0911 8.92991C16.0871 8.94884 16.0788 8.9666 16.0668 8.98184C16.0549 8.99709 16.0397 9.00942 16.0223 9.0179C16.0049 9.02638 15.9858 9.03078 15.9664 9.03078C15.947 9.03078 15.9279 9.02638 15.9105 9.0179C15.8931 9.00942 15.8779 8.99709 15.866 8.98184C15.8541 8.9666 15.8458 8.94884 15.8417 8.92991C15.8377 8.91098 15.838 8.89138 15.8427 8.87259C15.8478 8.84299 15.8632 8.81616 15.8862 8.79682C15.9092 8.77748 15.9382 8.76687 15.9683 8.76687C15.9983 8.76687 16.0274 8.77748 16.0504 8.79682C16.0734 8.81616 16.0888 8.84299 16.0939 8.87259H16.0902ZM15.9402 8.60634C15.9433 8.62465 15.9425 8.64344 15.9376 8.66138C15.9328 8.67933 15.9241 8.696 15.9121 8.71022C15.9001 8.72444 15.8852 8.73587 15.8683 8.74372C15.8515 8.75156 15.8331 8.75562 15.8145 8.75562C15.7959 8.75562 15.7776 8.75156 15.7607 8.74372C15.7439 8.73587 15.7289 8.72444 15.717 8.71022C15.705 8.696 15.6963 8.67933 15.6914 8.66138C15.6866 8.64344 15.6857 8.62465 15.6889 8.60634C15.694 8.57674 15.7095 8.54991 15.7324 8.53057C15.7554 8.51123 15.7845 8.50063 15.8145 8.50063C15.8446 8.50063 15.8736 8.51123 15.8966 8.53057C15.9196 8.54991 15.935 8.57674 15.9402 8.60634V8.60634ZM15.8352 8.34384C15.8383 8.36215 15.8375 8.38094 15.8326 8.39888C15.8278 8.41683 15.8191 8.4335 15.8071 8.44772C15.7951 8.46194 15.7802 8.47337 15.7633 8.48122C15.7465 8.48906 15.7281 8.49312 15.7095 8.49312C15.6909 8.49312 15.6726 8.48906 15.6557 8.48122C15.6389 8.47337 15.6239 8.46194 15.612 8.44772C15.6 8.4335 15.5913 8.41683 15.5864 8.39888C15.5816 8.38094 15.5807 8.36215 15.5839 8.34384C15.589 8.31424 15.6045 8.28741 15.6274 8.26807C15.6504 8.24873 15.6795 8.23813 15.7095 8.23813C15.7396 8.23813 15.7686 8.24873 15.7916 8.26807C15.8146 8.28741 15.83 8.31424 15.8352 8.34384ZM15.8539 8.05884C15.8571 8.07715 15.8562 8.09594 15.8514 8.11389C15.8465 8.13183 15.8378 8.1485 15.8258 8.16272C15.8139 8.17694 15.7989 8.18837 15.7821 8.19622C15.7652 8.20406 15.7469 8.20813 15.7283 8.20813C15.7097 8.20813 15.6913 8.20406 15.6745 8.19622C15.6576 8.18837 15.6427 8.17694 15.6307 8.16272C15.6188 8.1485 15.61 8.13183 15.6052 8.11389C15.6003 8.09594 15.5995 8.07715 15.6027 8.05884C15.6078 8.02924 15.6232 8.00241 15.6462 7.98307C15.6692 7.96373 15.6982 7.95312 15.7283 7.95312C15.7583 7.95312 15.7874 7.96373 15.8104 7.98307C15.8334 8.00241 15.8488 8.02924 15.8539 8.05884V8.05884ZM16.5139 7.59009C16.5171 7.6084 16.5162 7.62719 16.5114 7.64514C16.5065 7.66308 16.4978 7.67975 16.4858 7.69397C16.4739 7.70819 16.4589 7.71962 16.4421 7.72747C16.4252 7.73531 16.4069 7.73938 16.3883 7.73938C16.3697 7.73938 16.3513 7.73531 16.3345 7.72747C16.3176 7.71962 16.3027 7.70819 16.2907 7.69397C16.2788 7.67975 16.27 7.66308 16.2652 7.64514C16.2603 7.62719 16.2595 7.6084 16.2627 7.59009C16.2678 7.56049 16.2832 7.53366 16.3062 7.51432C16.3292 7.49498 16.3582 7.48438 16.3883 7.48438C16.4183 7.48438 16.4474 7.49498 16.4704 7.51432C16.4934 7.53366 16.5088 7.56049 16.5139 7.59009V7.59009Z" fill="white" stroke="black" stroke-width="0.0919649"/>
<path fill-rule="evenodd" clip-rule="evenodd" d="M16.2691 7.63415C16.2722 7.65246 16.2714 7.67125 16.2665 7.68919C16.2617 7.70714 16.253 7.72381 16.241 7.73803C16.229 7.75225 16.2141 7.76368 16.1972 7.77153C16.1804 7.77937 16.162 7.78343 16.1434 7.78343C16.1249 7.78343 16.1065 7.77937 16.0896 7.77153C16.0728 7.76368 16.0579 7.75225 16.0459 7.73803C16.0339 7.72381 16.0252 7.70714 16.0204 7.68919C16.0155 7.67125 16.0146 7.65246 16.0178 7.63415C16.0229 7.60455 16.0384 7.57772 16.0613 7.55838C16.0843 7.53904 16.1134 7.52843 16.1434 7.52843C16.1735 7.52843 16.2025 7.53904 16.2255 7.55838C16.2485 7.57772 16.2639 7.60455 16.2691 7.63415V7.63415ZM15.9953 7.7954C15.9985 7.81371 15.9976 7.8325 15.9928 7.85044C15.9879 7.86839 15.9792 7.88506 15.9672 7.89928C15.9553 7.9135 15.9403 7.92493 15.9235 7.93278C15.9066 7.94062 15.8883 7.94468 15.8697 7.94468C15.8511 7.94468 15.8327 7.94062 15.8159 7.93278C15.799 7.92493 15.7841 7.9135 15.7721 7.89928C15.7602 7.88506 15.7515 7.86839 15.7466 7.85044C15.7418 7.8325 15.7409 7.81371 15.7441 7.7954C15.7492 7.7658 15.7646 7.73897 15.7876 7.71963C15.8106 7.70029 15.8396 7.68968 15.8697 7.68968C15.8997 7.68968 15.9288 7.70029 15.9518 7.71963C15.9748 7.73897 15.9902 7.7658 15.9953 7.7954ZM16.8353 7.5929C16.84 7.61169 16.8403 7.63129 16.8363 7.65022C16.8322 7.66915 16.8239 7.68691 16.812 7.70215C16.8001 7.7174 16.7848 7.72973 16.7674 7.73821C16.75 7.74669 16.7309 7.75109 16.7116 7.75109C16.6922 7.75109 16.6731 7.74669 16.6557 7.73821C16.6383 7.72973 16.6231 7.7174 16.6111 7.70215C16.5992 7.68691 16.5909 7.66915 16.5869 7.65022C16.5828 7.63129 16.5832 7.61169 16.5878 7.5929C16.5947 7.56526 16.6106 7.54071 16.633 7.52317C16.6554 7.50563 16.6831 7.49609 16.7116 7.49609C16.74 7.49609 16.7677 7.50563 16.7901 7.52317C16.8125 7.54071 16.8285 7.56526 16.8353 7.5929V7.5929ZM17.1878 7.6229C17.191 7.64121 17.1901 7.66 17.1853 7.67794C17.1804 7.69589 17.1717 7.71256 17.1597 7.72678C17.1478 7.741 17.1328 7.75243 17.116 7.76028C17.0991 7.76812 17.0808 7.77218 17.0622 7.77218C17.0436 7.77218 17.0252 7.76812 17.0084 7.76028C16.9915 7.75243 16.9766 7.741 16.9646 7.72678C16.9527 7.71256 16.944 7.69589 16.9391 7.67794C16.9343 7.66 16.9334 7.64121 16.9366 7.6229C16.9417 7.5933 16.9571 7.56647 16.9801 7.54713C17.0031 7.52779 17.0322 7.51718 17.0622 7.51718C17.0922 7.51718 17.1213 7.52779 17.1443 7.54713C17.1673 7.56647 17.1827 7.5933 17.1878 7.6229V7.6229ZM17.4953 7.60415C17.5 7.62294 17.5003 7.64254 17.4963 7.66147C17.4922 7.6804 17.4839 7.69816 17.472 7.7134C17.4601 7.72865 17.4448 7.74098 17.4274 7.74946C17.41 7.75794 17.3909 7.76234 17.3716 7.76234C17.3522 7.76234 17.3331 7.75794 17.3157 7.74946C17.2983 7.74098 17.2831 7.72865 17.2711 7.7134C17.2592 7.69816 17.2509 7.6804 17.2469 7.66147C17.2428 7.64254 17.2432 7.62294 17.2478 7.60415C17.2529 7.57455 17.2684 7.54772 17.2913 7.52838C17.3143 7.50904 17.3434 7.49843 17.3734 7.49843C17.4035 7.49843 17.4325 7.50904 17.4555 7.52838C17.4785 7.54772 17.4939 7.57455 17.4991 7.60415H17.4953Z" fill="white" stroke="black" stroke-width="0.0919649"/>
<path fill-rule="evenodd" clip-rule="evenodd" d="M18.2231 7.40648C18.2231 7.49202 18.1891 7.57405 18.1287 7.63453C18.0682 7.69501 17.9862 7.72898 17.9006 7.72898C17.8151 7.72898 17.7331 7.69501 17.6726 7.63453C17.6121 7.57405 17.5781 7.49202 17.5781 7.40648C17.5781 7.32095 17.6121 7.23892 17.6726 7.17844C17.7331 7.11796 17.8151 7.08398 17.9006 7.08398C17.9862 7.08398 18.0682 7.11796 18.1287 7.17844C18.1891 7.23892 18.2231 7.32095 18.2231 7.40648V7.40648Z" fill="#FFDD00" stroke="#7D6C00" stroke-width="0.0919649"/>
<path fill-rule="evenodd" clip-rule="evenodd" d="M18.5636 7.60181C18.5636 7.63562 18.5502 7.66805 18.5262 7.69196C18.5023 7.71588 18.4699 7.72931 18.4361 7.72931C18.4023 7.72931 18.3698 7.71588 18.3459 7.69196C18.322 7.66805 18.3086 7.63562 18.3086 7.60181C18.3137 7.57221 18.3291 7.54538 18.3521 7.52604C18.3751 7.5067 18.4042 7.49609 18.4342 7.49609C18.4643 7.49609 18.4933 7.5067 18.5163 7.52604C18.5393 7.54538 18.5547 7.57221 18.5598 7.60181H18.5636ZM18.8861 7.62806C18.8908 7.64684 18.8911 7.66645 18.887 7.68538C18.883 7.7043 18.8747 7.72207 18.8628 7.73731C18.8508 7.75256 18.8356 7.76489 18.8182 7.77337C18.8008 7.78185 18.7817 7.78625 18.7623 7.78625C18.743 7.78625 18.7239 7.78185 18.7065 7.77337C18.6891 7.76489 18.6738 7.75256 18.6619 7.73731C18.65 7.72207 18.6417 7.7043 18.6377 7.68538C18.6336 7.66645 18.6339 7.64684 18.6386 7.62806C18.6437 7.59846 18.6591 7.57163 18.6821 7.55229C18.7051 7.53295 18.7342 7.52234 18.7642 7.52234C18.7943 7.52234 18.8233 7.53295 18.8463 7.55229C18.8693 7.57163 18.8847 7.59846 18.8898 7.62806H18.8861ZM19.2048 7.61306C19.208 7.63137 19.2072 7.65016 19.2023 7.6681C19.1975 7.68605 19.1887 7.70271 19.1768 7.71694C19.1648 7.73116 19.1499 7.74259 19.133 7.75044C19.1162 7.75828 19.0978 7.76234 19.0792 7.76234C19.0606 7.76234 19.0423 7.75828 19.0254 7.75044C19.0086 7.74259 18.9936 7.73116 18.9817 7.71694C18.9697 7.70271 18.961 7.68605 18.9561 7.6681C18.9513 7.65016 18.9504 7.63137 18.9536 7.61306C18.9587 7.58346 18.9741 7.55663 18.9971 7.53729C19.0201 7.51795 19.0492 7.50734 19.0792 7.50734C19.1093 7.50734 19.1383 7.51795 19.1613 7.53729C19.1843 7.55663 19.1997 7.58346 19.2048 7.61306ZM19.4711 7.60181C19.4743 7.62012 19.4734 7.63891 19.4686 7.65685C19.4637 7.6748 19.455 7.69146 19.443 7.70569C19.4311 7.71991 19.4161 7.73134 19.3993 7.73919C19.3824 7.74703 19.3641 7.75109 19.3455 7.75109C19.3269 7.75109 19.3085 7.74703 19.2917 7.73919C19.2748 7.73134 19.2599 7.71991 19.2479 7.70569C19.2359 7.69146 19.2272 7.6748 19.2224 7.65685C19.2175 7.63891 19.2167 7.62012 19.2198 7.60181C19.225 7.57221 19.2404 7.54538 19.2634 7.52604C19.2864 7.5067 19.3154 7.49609 19.3455 7.49609C19.3755 7.49609 19.4046 7.5067 19.4276 7.52604C19.4505 7.54538 19.466 7.57221 19.4711 7.60181ZM19.8048 7.63931C19.808 7.65762 19.8072 7.67641 19.8023 7.69435C19.7975 7.7123 19.7887 7.72896 19.7768 7.74319C19.7648 7.75741 19.7499 7.76884 19.733 7.77669C19.7162 7.78453 19.6978 7.78859 19.6792 7.78859C19.6606 7.78859 19.6423 7.78453 19.6254 7.77669C19.6086 7.76884 19.5936 7.75741 19.5817 7.74319C19.5697 7.72896 19.561 7.7123 19.5561 7.69435C19.5513 7.67641 19.5504 7.65762 19.5536 7.63931C19.5587 7.60971 19.5741 7.58288 19.5971 7.56354C19.6201 7.5442 19.6492 7.53359 19.6792 7.53359C19.7093 7.53359 19.7383 7.5442 19.7613 7.56354C19.7843 7.58288 19.7997 7.60971 19.8048 7.63931V7.63931ZM20.0673 7.80431C20.0705 7.82262 20.0697 7.84141 20.0648 7.85935C20.06 7.8773 20.0512 7.89396 20.0393 7.90819C20.0273 7.92241 20.0124 7.93384 19.9955 7.94169C19.9787 7.94953 19.9603 7.95359 19.9417 7.95359C19.9231 7.95359 19.9048 7.94953 19.8879 7.94169C19.8711 7.93384 19.8561 7.92241 19.8442 7.90819C19.8322 7.89396 19.8235 7.8773 19.8186 7.85935C19.8138 7.84141 19.8129 7.82262 19.8161 7.80431C19.8212 7.77471 19.8366 7.74788 19.8596 7.72854C19.8826 7.7092 19.9117 7.69859 19.9417 7.69859C19.9718 7.69859 20.0008 7.7092 20.0238 7.72854C20.0468 7.74788 20.0622 7.77471 20.0673 7.80431V7.80431Z" fill="white" stroke="black" stroke-width="0.0919649"/>
<path fill-rule="evenodd" clip-rule="evenodd" d="M16.1016 8.68961L16.4241 9.30836H19.3941L19.7391 8.71211C19.5366 8.57336 19.4016 8.46836 19.1128 8.53211C18.9516 8.29961 18.7753 8.25836 18.5128 8.28086C18.4341 8.20211 18.3628 8.15336 18.2278 8.13086L17.6053 8.14961C17.4403 8.16461 17.3128 8.29211 17.3053 8.29211C17.0428 8.25836 16.7991 8.26586 16.7353 8.52461C16.4916 8.46461 16.3228 8.53211 16.1016 8.68961Z" fill="#E40000" stroke="#AC0000" stroke-width="0.200651"/>
<path fill-rule="evenodd" clip-rule="evenodd" d="M20.1752 8.07446C20.1783 8.09278 20.1775 8.11157 20.1726 8.12951C20.1678 8.14745 20.1591 8.16412 20.1471 8.17834C20.1351 8.19257 20.1202 8.204 20.1033 8.21184C20.0865 8.21969 20.0681 8.22375 20.0495 8.22375C20.0309 8.22375 20.0126 8.21969 19.9957 8.21184C19.9789 8.204 19.9639 8.19257 19.952 8.17834C19.94 8.16412 19.9313 8.14745 19.9264 8.12951C19.9216 8.11157 19.9207 8.09278 19.9239 8.07446C19.929 8.04487 19.9445 8.01804 19.9674 7.9987C19.9904 7.97936 20.0195 7.96875 20.0495 7.96875C20.0796 7.96875 20.1086 7.97936 20.1316 7.9987C20.1546 8.01804 20.17 8.04487 20.1752 8.07446ZM20.1977 8.37446C20.2008 8.39278 20.2 8.41157 20.1951 8.42951C20.1903 8.44745 20.1816 8.46412 20.1696 8.47834C20.1576 8.49257 20.1427 8.504 20.1258 8.51184C20.109 8.51969 20.0906 8.52375 20.072 8.52375C20.0534 8.52375 20.0351 8.51969 20.0182 8.51184C20.0014 8.504 19.9864 8.49257 19.9745 8.47834C19.9625 8.46412 19.9538 8.44745 19.9489 8.42951C19.9441 8.41157 19.9432 8.39278 19.9464 8.37446C19.9515 8.34487 19.967 8.31804 19.9899 8.2987C20.0129 8.27935 20.042 8.26875 20.072 8.26875C20.1021 8.26875 20.1311 8.27935 20.1541 8.2987C20.1771 8.31804 20.1925 8.34487 20.1977 8.37446V8.37446ZM20.1039 8.64446C20.1071 8.66278 20.1062 8.68157 20.1014 8.69951C20.0965 8.71745 20.0878 8.73412 20.0758 8.74834C20.0639 8.76257 20.0489 8.774 20.0321 8.78184C20.0152 8.78969 19.9969 8.79375 19.9783 8.79375C19.9597 8.79375 19.9413 8.78969 19.9245 8.78184C19.9076 8.774 19.8927 8.76257 19.8807 8.74834C19.8688 8.73412 19.86 8.71745 19.8552 8.69951C19.8503 8.68157 19.8495 8.66278 19.8527 8.64446C19.8578 8.61487 19.8732 8.58804 19.8962 8.5687C19.9192 8.54935 19.9482 8.53875 19.9783 8.53875C20.0083 8.53875 20.0374 8.54935 20.0604 8.5687C20.0834 8.58804 20.0988 8.61487 20.1039 8.64446V8.64446ZM19.9914 8.86946C19.9914 8.90328 19.978 8.93571 19.9541 8.95962C19.9302 8.98353 19.8977 8.99696 19.8639 8.99696C19.8301 8.99696 19.7977 8.98353 19.7737 8.95962C19.7498 8.93571 19.7364 8.90328 19.7364 8.86946C19.7415 8.83987 19.757 8.81304 19.7799 8.7937C19.8029 8.77435 19.832 8.76375 19.862 8.76375C19.8921 8.76375 19.9211 8.77435 19.9441 8.7937C19.9671 8.81304 19.9825 8.83987 19.9877 8.86946H19.9914ZM19.8527 9.15071C19.8558 9.16903 19.855 9.18782 19.8501 9.20576C19.8453 9.2237 19.8366 9.24037 19.8246 9.25459C19.8126 9.26882 19.7977 9.28025 19.7808 9.28809C19.764 9.29594 19.7456 9.3 19.727 9.3C19.7084 9.3 19.6901 9.29594 19.6732 9.28809C19.6564 9.28025 19.6414 9.26882 19.6295 9.25459C19.6175 9.24037 19.6088 9.2237 19.6039 9.20576C19.5991 9.18782 19.5982 9.16903 19.6014 9.15071C19.6065 9.12112 19.622 9.09429 19.6449 9.07495C19.6679 9.0556 19.697 9.045 19.727 9.045C19.7571 9.045 19.7861 9.0556 19.8091 9.07495C19.8321 9.09429 19.8475 9.12112 19.8527 9.15071V9.15071ZM18.0977 8.79071C18.0977 8.84044 18.0779 8.88813 18.0427 8.9233C18.0076 8.95846 17.9599 8.97821 17.9102 8.97821C17.8604 8.97821 17.8127 8.95846 17.7776 8.9233C17.7424 8.88813 17.7227 8.84044 17.7227 8.79071C17.7227 8.74099 17.7424 8.6933 17.7776 8.65813C17.8127 8.62297 17.8604 8.60321 17.9102 8.60321C17.9599 8.60321 18.0076 8.62297 18.0427 8.65813C18.0779 8.6933 18.0977 8.74099 18.0977 8.79071V8.79071Z" fill="white" stroke="black" stroke-width="0.0919649"/>
<path fill-rule="evenodd" clip-rule="evenodd" d="M18.1336 8.36172C18.1336 8.42139 18.1099 8.47862 18.0677 8.52082C18.0255 8.56301 17.9683 8.58672 17.9086 8.58672C17.8489 8.58672 17.7917 8.56301 17.7495 8.52082C17.7073 8.47862 17.6836 8.42139 17.6836 8.36172C17.6836 8.30205 17.7073 8.24482 17.7495 8.20262C17.7917 8.16042 17.8489 8.13672 17.9086 8.13672C17.9683 8.13672 18.0255 8.16042 18.0677 8.20262C18.1099 8.24482 18.1336 8.30205 18.1336 8.36172V8.36172Z" fill="white" stroke="black" stroke-width="0.0919649"/>
<path fill-rule="evenodd" clip-rule="evenodd" d="M18.1003 7.95055C18.1003 8.00425 18.079 8.05576 18.041 8.09374C18.003 8.13171 17.9515 8.15305 17.8978 8.15305C17.8441 8.15305 17.7926 8.13171 17.7546 8.09374C17.7166 8.05576 17.6953 8.00425 17.6953 7.95055C17.6953 7.89684 17.7166 7.84533 17.7546 7.80736C17.7926 7.76938 17.8441 7.74805 17.8978 7.74805C17.9515 7.74805 18.003 7.76938 18.041 7.80736C18.079 7.84533 18.1003 7.89684 18.1003 7.95055V7.95055Z" fill="white" stroke="black" stroke-width="0.0919649"/>
<path fill-rule="evenodd" clip-rule="evenodd" d="M17.8303 7.08742V6.92992L17.6953 6.92617L17.7028 6.80617H17.8153V6.70117H17.9841V6.79492H18.1153L18.1116 6.92242H17.9766V7.09117H17.8266L17.8303 7.08742Z" fill="#FFDD00" stroke="#7D6C00" stroke-width="0.0919649"/>
<path d="M16.4089 9.30812C16.1427 8.85812 15.7489 8.24312 15.9964 7.97687C16.3302 7.59812 17.1177 7.93938 17.6202 7.72188C17.6577 8.14938 17.5377 8.86187 17.7289 9.00812L17.5489 9.16562C17.4364 9.02687 17.2339 8.83563 16.9789 9.17313C16.8289 9.04563 16.6677 9.06813 16.5889 9.23688C16.5139 9.24813 16.5177 9.27812 16.4089 9.30812V9.30812ZM19.4089 9.28937C19.6789 8.83937 20.0689 8.22813 19.8252 7.96188C19.4877 7.58313 18.7002 7.92438 18.2014 7.70312C18.1639 8.13438 18.2839 8.84688 18.0889 8.99313L18.2689 9.15063C18.4452 8.90687 18.6589 8.89937 18.8427 9.15812C18.9889 9.03062 19.1389 9.04562 19.2327 9.22187C19.3077 9.23312 19.3002 9.25937 19.4127 9.28937H19.4089Z" stroke="#FFDD00" stroke-width="0.275895"/>
<path fill-rule="evenodd" clip-rule="evenodd" d="M16.3975 9.64027C17.3867 9.55015 18.382 9.55015 19.3712 9.64027L19.4875 9.30277C18.4487 9.11527 17.7325 9.09277 16.375 9.28027L16.3975 9.64027V9.64027Z" fill="#FFDD00" stroke="#7D6C00" stroke-width="0.200651"/>
<path fill-rule="evenodd" clip-rule="evenodd" d="M17.7797 15.352L17.8022 15.1945C17.9109 15.2245 17.9897 15.2133 18.0797 15.1795L18.1697 15.0408L18.1022 14.962C18.0422 14.9733 17.9897 15.0295 17.9522 15.0783C17.8922 15.082 17.8397 15.052 17.7797 15.0408L17.7234 14.8008C17.6672 14.7333 17.5472 14.737 17.5734 14.857L17.5847 14.9508C17.6072 15.007 17.6184 15.0858 17.6559 15.127V15.2245L17.7797 15.352V15.352ZM17.8247 14.6658C17.7497 14.7033 17.6522 14.6358 17.5509 14.5945C17.4572 14.5908 17.3859 14.6695 17.2734 14.6433C17.2959 14.5833 17.3447 14.572 17.3784 14.5383C17.3522 14.3845 17.4347 14.332 17.4572 14.332C17.4797 14.332 17.5734 14.3545 17.5734 14.3545L17.6634 14.3658C17.7197 14.467 17.7947 14.5533 17.8247 14.6658V14.6658Z" fill="#C76E2E"/>
<path fill-rule="evenodd" clip-rule="evenodd" d="M17.2814 16.7259C17.5439 16.2984 19.3889 15.4359 21.1214 13.5684C19.3589 15.2671 18.2564 15.6834 16.8164 16.7184L17.2814 16.7296V16.7259Z" fill="#FFE100" stroke="#E9BF00" stroke-width="0.200651"/>
<path fill-rule="evenodd" clip-rule="evenodd" d="M19.8169 14.7448C19.8169 14.7806 19.8027 14.8149 19.7773 14.8402C19.752 14.8655 19.7177 14.8798 19.6819 14.8798C19.6461 14.8798 19.6117 14.8655 19.5864 14.8402C19.5611 14.8149 19.5469 14.7806 19.5469 14.7448C19.5469 14.709 19.5611 14.6746 19.5864 14.6493C19.6117 14.624 19.6461 14.6098 19.6819 14.6098C19.7177 14.6098 19.752 14.624 19.7773 14.6493C19.8027 14.6746 19.8169 14.709 19.8169 14.7448ZM21.1069 13.436C21.1069 13.4763 21.0909 13.5149 21.0624 13.5434C21.0339 13.5719 20.9953 13.5879 20.955 13.5879C20.9147 13.5879 20.8761 13.5719 20.8476 13.5434C20.8191 13.5149 20.8031 13.4763 20.8031 13.436C20.8031 13.3962 20.8189 13.3581 20.8471 13.3299C20.8752 13.3018 20.9133 13.286 20.9531 13.286C20.9929 13.286 21.0311 13.3018 21.0592 13.3299C21.0873 13.3581 21.1031 13.3962 21.1031 13.436H21.1069ZM21.5344 12.326C21.5376 12.3454 21.5366 12.3652 21.5314 12.3841C21.5263 12.4031 21.517 12.4206 21.5043 12.4356C21.4917 12.4506 21.4759 12.4626 21.4581 12.4709C21.4403 12.4792 21.4209 12.4834 21.4012 12.4834C21.3816 12.4834 21.3622 12.4792 21.3444 12.4709C21.3266 12.4626 21.3108 12.4506 21.2982 12.4356C21.2855 12.4206 21.2762 12.4031 21.2711 12.3841C21.2659 12.3652 21.2649 12.3454 21.2681 12.326C21.2734 12.2945 21.2897 12.266 21.3141 12.2454C21.3384 12.2247 21.3693 12.2134 21.4012 12.2134C21.4332 12.2134 21.4641 12.2247 21.4884 12.2454C21.5128 12.266 21.5291 12.2945 21.5344 12.326V12.326ZM21.1144 10.886C21.1176 10.9054 21.1166 10.9252 21.1114 10.9441C21.1063 10.9631 21.097 10.9806 21.0843 10.9956C21.0717 11.0106 21.0559 11.0226 21.0381 11.0309C21.0203 11.0392 21.0009 11.0434 20.9813 11.0434C20.9616 11.0434 20.9422 11.0392 20.9244 11.0309C20.9066 11.0226 20.8908 11.0106 20.8782 10.9956C20.8655 10.9806 20.8562 10.9631 20.8511 10.9441C20.8459 10.9252 20.8449 10.9054 20.8481 10.886C20.8534 10.8545 20.8697 10.826 20.8941 10.8054C20.9184 10.7847 20.9493 10.7734 20.9813 10.7734C21.0132 10.7734 21.0441 10.7847 21.0684 10.8054C21.0928 10.826 21.1091 10.8545 21.1144 10.886Z" fill="#9D4916" stroke="#68300E" stroke-width="0.0919649"/>
<path fill-rule="evenodd" clip-rule="evenodd" d="M16.4664 13.1109V12.5409L16.4102 12.4959V12.3609L16.5152 12.3497L16.5339 11.7122L16.4664 11.6747L16.4589 11.5697C16.4589 11.5697 16.5339 11.5997 16.5339 11.5809L16.5527 11.4534C16.5527 11.4534 16.5039 11.4459 16.5039 11.4272C16.5039 11.4084 16.5639 11.3597 16.5639 11.3597C16.5639 11.3597 16.5339 11.3297 16.5264 11.3109L16.4964 11.2059L16.5264 11.0972L16.5077 11.0409L16.4589 10.9547L16.5264 10.8872L16.5077 10.7822C16.5203 10.7431 16.5393 10.7064 16.5639 10.6734C16.5752 10.6659 16.6502 10.5609 16.6502 10.5609L16.8152 10.5234L17.0064 10.5497L17.1114 10.6172L17.1302 10.7897C17.1302 10.7897 17.1114 10.8947 17.1039 10.8947L17.0177 10.9322C17.0177 10.9322 16.9202 10.9434 16.9089 10.9322C16.8977 10.9209 16.9389 11.0522 16.9389 11.0522V11.1647L16.9314 11.3109C16.9314 11.3109 16.9314 11.3784 16.9202 11.3859C16.9089 11.3934 16.8902 11.4234 16.8902 11.4234L16.8827 11.5734L17.0327 11.6109L17.0252 11.6972L16.9202 11.7047L16.9389 12.2934L17.0927 12.3197V12.4847L17.0252 12.5222L17.0064 13.1109H16.4664V13.1109ZM18.8064 13.1222V12.5522L18.7502 12.5034V12.3684L18.8552 12.3609L18.8739 11.7234L18.8064 11.6859L18.7989 11.5809C18.7989 11.5809 18.8739 11.6072 18.8739 11.5884L18.8927 11.4647C18.8927 11.4647 18.8439 11.4534 18.8439 11.4347C18.8439 11.4159 18.9039 11.3672 18.9039 11.3672C18.9039 11.3672 18.8739 11.3409 18.8664 11.3184L18.8364 11.2134L18.8664 11.1084L18.8439 11.0522L18.7989 10.9659L18.8664 10.8984L18.8439 10.7897C18.8581 10.7517 18.8784 10.7162 18.9039 10.6847L18.9902 10.5722L19.1552 10.5309L19.3464 10.5609L19.4514 10.6284L19.4702 10.8009C19.4702 10.8009 19.4514 10.9059 19.4439 10.9059L19.3577 10.9434C19.3577 10.9434 19.2602 10.9547 19.2489 10.9434C19.2377 10.9322 19.2789 11.0597 19.2789 11.0597V11.1759L19.2677 11.3222C19.2677 11.3222 19.2677 11.3859 19.2602 11.3972L19.2302 11.4347L19.2227 11.5809L19.3727 11.6184L19.3652 11.7047L19.2602 11.7159L19.2789 12.3009L19.4327 12.3309V12.4959L19.3652 12.5334L19.3464 13.1222H18.8064V13.1222ZM17.6214 13.1409V12.5709L17.5652 12.5259V12.3872L17.6702 12.3797L17.6889 11.7422L17.6214 11.7047L17.6139 11.5997C17.6139 11.5997 17.6889 11.6297 17.6889 11.6109L17.7077 11.4834C17.7077 11.4834 17.6627 11.4759 17.6627 11.4572C17.6627 11.4384 17.7189 11.3859 17.7189 11.3859C17.7189 11.3859 17.6889 11.3597 17.6814 11.3409L17.6514 11.2322L17.6814 11.1272L17.6627 11.0709L17.6139 10.9847L17.6814 10.9172L17.6627 10.8084C17.675 10.7704 17.6941 10.7348 17.7189 10.7034C17.7302 10.6959 17.8052 10.5909 17.8052 10.5909L17.9702 10.5534L18.1614 10.5797L18.2664 10.6472L18.2889 10.8197C18.2889 10.8197 18.2664 10.9247 18.2589 10.9247L18.1727 10.9622C18.1727 10.9622 18.0752 10.9734 18.0677 10.9622C18.0602 10.9509 18.0939 11.0784 18.0939 11.0784V11.1947L18.0864 11.3409C18.0864 11.3409 18.0864 11.4084 18.0752 11.4159L18.0452 11.4534L18.0377 11.5997L18.1877 11.6372L18.1802 11.7234L18.0752 11.7347L18.0939 12.3234L18.2477 12.3497V12.5147L18.1802 12.5522L18.1614 13.1409H17.6252H17.6214Z" fill="white" stroke="#A9A9A9" stroke-width="0.0919649"/>
<path fill-rule="evenodd" clip-rule="evenodd" d="M16.6131 13.107V12.657H16.8606V13.1257L16.6094 13.107H16.6131ZM17.7906 13.1445L17.8019 12.687H18.0269V13.1332L17.7906 13.1407V13.1445ZM18.9531 13.1332L18.9381 12.702L19.1819 12.6945V13.1445L18.9569 13.1332H18.9531ZM16.6731 11.7832H16.8156V12.012H16.6731V11.7832ZM17.8094 11.7907H18.0081V12.0157H17.8094V11.7907ZM18.9719 11.8095H19.1444V12.0232H18.9756L18.9719 11.8095Z" fill="black"/>
<path d="M16.7461 10.7617C16.8961 10.9342 16.9073 10.9342 16.9073 10.9342M17.8898 10.7617C17.9198 10.818 17.9648 10.9417 18.0248 10.953M19.1236 10.788C19.1236 10.788 19.1723 10.923 19.2361 10.9417" stroke="#A8A8A8" stroke-width="0.0919649"/>
<path fill-rule="evenodd" clip-rule="evenodd" d="M16.5821 10.2748C17.0321 10.1285 16.4771 9.83977 16.3834 10.2748C16.2409 10.301 16.2221 10.406 15.9071 10.361C15.1421 11.5985 15.7084 13.6048 17.9359 15.6785C13.9459 12.281 15.5659 9.76852 16.6721 9.86602C17.2721 9.90352 16.9721 10.6535 16.5821 10.2785V10.2748Z" fill="#B97700"/>
<path d="M16.7109 9.63758C16.7109 9.63758 17.0747 9.73883 17.0747 9.89258M17.0747 9.61133C17.0747 9.61133 17.3297 9.72383 17.3859 9.82133M19.0772 9.65258C19.0772 9.65258 18.7547 9.69758 18.6834 9.79508M18.5859 9.68258C18.5859 9.68258 18.3984 9.83633 18.4172 9.88133M18.5447 10.3576C18.5147 10.3463 18.3872 10.1738 18.4172 9.96383M17.2997 10.2451C17.2997 10.2451 17.3859 10.1476 17.3859 9.96383M17.8922 9.89258L17.9072 10.3051M18.2597 10.2451C18.2597 10.2188 18.3722 9.94883 18.2447 9.82133M17.4834 9.76508C17.4834 9.76508 17.3859 10.0351 17.4572 10.2601M18.2072 10.0051C18.2072 10.0051 18.0497 10.0501 17.9822 10.1176M17.5397 10.0463C17.5397 10.0351 17.7122 10.0088 17.7647 10.1063" stroke="#7D6C00" stroke-width="0.200651"/>
<path fill-rule="evenodd" clip-rule="evenodd" d="M17.273 14.3222C17.2805 14.3222 17.4155 14.2959 17.4155 14.2322C17.483 14.1872 17.4342 14.0634 17.4342 14.0634L17.3067 14.0409L17.1342 13.8459C17.1267 13.7859 17.1455 13.7297 17.108 13.6659C16.988 13.6959 16.9205 13.7972 16.883 13.9097C16.9092 13.9472 16.913 13.9847 16.9692 14.0184C17.0255 14.0259 17.063 13.9922 17.1155 14.0034C17.1417 14.0522 17.1342 14.0934 17.1455 14.1384C17.2167 14.1872 17.2317 14.2584 17.273 14.3222ZM17.1192 13.4897V13.2572L16.9542 13.2497C16.9317 13.2872 16.8942 13.3022 16.8717 13.3322L16.7555 13.3922C16.8042 13.4484 16.8642 13.4822 16.898 13.5122C16.9842 13.5347 17.0517 13.5347 17.1192 13.4897ZM16.6017 13.8309L16.5117 13.6809C16.5701 13.6648 16.6321 13.6688 16.688 13.6922C16.688 13.6922 16.7255 13.7859 16.6992 13.8197C16.6842 13.8534 16.598 13.8384 16.6017 13.8309ZM17.9705 13.9847C17.9961 13.9738 18.0187 13.9568 18.0363 13.9353C18.0539 13.9137 18.0661 13.8882 18.0717 13.8609L17.903 13.6697L17.753 13.6659C17.7155 13.6284 17.663 13.6209 17.618 13.6209C17.618 13.6209 17.663 13.6959 17.723 13.7072C17.768 13.8047 17.9555 13.9847 17.9705 13.9847V13.9847ZM18.1317 14.0072C18.1317 14.0034 18.2817 13.9547 18.3567 13.9584C18.353 13.8984 18.4692 13.7597 18.4692 13.7597L18.6792 14.0334C18.6417 14.0634 18.5742 14.0559 18.5217 14.0634C18.5217 14.0634 18.4205 14.1609 18.4092 14.1647C18.398 14.1684 18.2142 14.2134 18.1242 14.1572C18.0867 14.0822 18.1355 13.9959 18.1317 14.0072ZM18.2517 13.5272C18.278 13.434 18.278 13.3354 18.2517 13.2422H18.0117L17.8542 13.3172C17.8542 13.3172 17.903 13.4747 17.9667 13.4597C17.993 13.5384 18.0755 13.5197 18.1167 13.5497L18.2517 13.5272V13.5272ZM19.1855 13.2872C19.148 13.3884 19.133 13.4934 19.178 13.5872C19.223 13.5984 19.2755 13.6247 19.313 13.6172L19.5042 13.2722C19.373 13.2309 19.2642 13.2347 19.1817 13.2872H19.1855Z" fill="#C76E2E"/>
<path fill-rule="evenodd" clip-rule="evenodd" d="M19.2405 10.2451C18.7905 10.0989 19.3455 9.80637 19.4392 10.2451C19.5855 10.2676 19.6042 10.3764 19.9192 10.3314C20.6805 11.5689 20.1142 13.5751 17.8867 15.6489C21.8805 12.2514 20.2567 9.73887 19.1505 9.83262C18.5505 9.87012 18.8505 10.6201 19.2405 10.2451V10.2451Z" fill="#B97700"/>
<path fill-rule="evenodd" clip-rule="evenodd" d="M19.2851 13.6766C19.2776 13.6766 19.1726 13.7516 19.1726 13.7516L19.0151 13.8153L18.8501 13.8191L18.8126 13.7066L18.9401 13.5941C18.8351 13.5753 18.7263 13.6203 18.6401 13.6991C18.6401 13.6991 18.6401 13.8228 18.7151 13.8866C18.7563 13.9391 18.8838 14.0366 18.8838 14.0366C18.9183 14.0443 18.9541 14.045 18.9889 14.0385C19.0237 14.0321 19.0568 14.0187 19.0863 13.9991L19.2851 13.6766ZM18.4151 14.8053C18.4676 14.8203 18.8388 14.3291 18.8388 14.3291C18.8052 14.2409 18.7396 14.1685 18.6551 14.1266C18.6551 14.1266 18.4751 14.3403 18.4713 14.4116C18.4413 14.4753 18.3588 14.7228 18.3963 14.7566C18.3926 14.7641 18.3776 14.8653 18.4151 14.8053V14.8053Z" fill="#C76E2E"/>
<path fill-rule="evenodd" clip-rule="evenodd" d="M15.9919 14.9031C15.4369 14.4193 14.6869 14.1531 13.6406 14.5168C13.9219 14.6368 14.2256 14.6781 14.4844 14.8131L15.9919 14.9031V14.9031Z" fill="#006800" stroke="#004100" stroke-width="0.200651" stroke-linejoin="round"/>
<path d="M14.3789 14.5605C15.4777 14.583 15.7964 14.8568 15.7402 14.8118" stroke="#00A400" stroke-width="0.18393" stroke-linecap="round"/>
<path fill-rule="evenodd" clip-rule="evenodd" d="M16.0137 14.9624C15.6837 15.0224 15.2338 15.3374 15.0988 15.3262C14.7425 15.2849 14.405 15.1387 14.06 15.0262C13.9175 14.9812 13.7712 15.0262 13.625 15.0262C14.855 14.4449 15.275 14.5237 16.0137 14.9587V14.9624Z" fill="#006800" stroke="#004100" stroke-width="0.18393" stroke-linejoin="round"/>
<path fill-rule="evenodd" clip-rule="evenodd" d="M15.2028 14.1008C15.2028 14.1008 14.7903 14.1608 14.6066 14.172C14.4266 14.1608 14.1566 13.992 13.8641 13.6845C13.7141 13.512 13.3616 13.5345 13.3616 13.5345C14.1341 13.3695 14.7378 13.527 15.1991 14.1045L15.2028 14.1008ZM14.6403 13.3058C14.0816 13.2683 13.3841 12.7695 13.2266 12.1733C13.2266 12.1808 13.4328 12.3045 13.3991 12.3345C14.3141 12.567 14.3741 12.7545 14.6403 13.3058V13.3058ZM15.5778 14.262C15.6566 13.7558 15.6791 13.422 15.4428 13.122C15.2441 12.897 15.1953 12.7583 15.0528 12.4358C15.0116 13.1033 14.8653 13.6545 15.5778 14.262ZM14.7003 12.8633C15.1128 12.2595 15.1878 11.802 15.1203 11.082C15.1091 11.1383 14.9703 11.4945 14.9628 11.4945C14.3441 11.8808 14.6178 12.4883 14.7003 12.8633Z" fill="#006800" stroke="#004100" stroke-width="0.200651" stroke-linejoin="round"/>
<path fill-rule="evenodd" clip-rule="evenodd" d="M14.3326 9.9375C14.7451 10.5412 14.6851 11.1112 14.6176 11.8312C14.6063 11.775 14.4676 11.4187 14.4601 11.4187C13.8413 11.0325 14.2538 10.3125 14.3326 9.9375Z" fill="#006800" stroke="#004100" stroke-width="0.200651" stroke-linejoin="round"/>
<path fill-rule="evenodd" clip-rule="evenodd" d="M14.6719 10.8746C15.6769 10.3646 15.2906 9.72336 15.4744 9.22461C14.7769 9.74586 14.6869 10.2971 14.6756 10.8746H14.6719Z" fill="#006800" stroke="#004100" stroke-width="0.200651" stroke-linejoin="round"/>
<path d="M14.8128 10.7471C14.9403 10.3909 15.1878 9.78711 15.2141 9.78711M14.5128 11.4896C14.4903 11.2384 14.3628 10.5634 14.3516 10.4959" stroke="#00A400" stroke-width="0.18393" stroke-linecap="round"/>
<path fill-rule="evenodd" clip-rule="evenodd" d="M14.562 12.6195C13.9995 12.582 13.3995 11.8208 13.2383 11.2283C13.2383 11.2358 13.4445 11.3558 13.4108 11.3858C14.2133 11.7458 14.2958 12.0683 14.562 12.6195V12.6195ZM14.397 12.0945C13.9845 11.4908 13.9095 11.0333 13.9733 10.3133C13.9845 10.3695 14.1233 10.7258 14.1345 10.7258C14.7495 11.112 14.4758 11.7195 14.397 12.0945ZM14.7683 11.0333C15.807 10.572 15.4883 10.0883 15.7958 9.58203C15.0983 10.0995 14.7795 10.4595 14.7683 11.0333V11.0333Z" fill="#006800" stroke="#004100" stroke-width="0.200651" stroke-linejoin="round"/>
<path d="M14.8125 10.9266C15.0483 10.7049 15.2415 10.4418 15.3825 10.1504" stroke="#00A400" stroke-width="0.18393" stroke-linecap="round"/>
<path fill-rule="evenodd" clip-rule="evenodd" d="M18.511 16.7387L19.0135 16.7463C17.3373 15.1713 14.1198 14.4887 14.566 11.5938C14.1048 14.7325 17.1948 15.025 18.511 16.7387Z" fill="#FFE100" stroke="#E9BF00" stroke-width="0.200651"/>
<path fill-rule="evenodd" clip-rule="evenodd" d="M14.827 10.9757C14.827 11.0185 14.81 11.0595 14.7798 11.0897C14.7496 11.12 14.7085 11.137 14.6658 11.137C14.623 11.137 14.582 11.12 14.5518 11.0897C14.5215 11.0595 14.5045 11.0185 14.5045 10.9757C14.5045 10.9329 14.5215 10.8919 14.5518 10.8617C14.582 10.8314 14.623 10.8145 14.6658 10.8145C14.7085 10.8145 14.7496 10.8314 14.7798 10.8617C14.81 10.8919 14.827 10.9329 14.827 10.9757V10.9757ZM14.7295 11.8607C14.7295 11.901 14.7135 11.9396 14.685 11.9681C14.6566 11.9966 14.6179 12.0126 14.5777 12.0126C14.5374 12.0126 14.4987 11.9966 14.4703 11.9681C14.4418 11.9396 14.4258 11.901 14.4258 11.8607C14.4258 11.8209 14.4416 11.7828 14.4697 11.7546C14.4978 11.7265 14.536 11.7107 14.5758 11.7107C14.6156 11.7107 14.6537 11.7265 14.6818 11.7546C14.71 11.7828 14.7258 11.8209 14.7258 11.8607H14.7295ZM14.872 13.1245C14.872 13.1422 14.8685 13.1597 14.8618 13.1761C14.855 13.1925 14.845 13.2074 14.8325 13.2199C14.82 13.2324 14.8051 13.2424 14.7887 13.2492C14.7723 13.256 14.7548 13.2595 14.737 13.2595C14.7193 13.2595 14.7017 13.256 14.6854 13.2492C14.669 13.2424 14.6541 13.2324 14.6416 13.2199C14.629 13.2074 14.6191 13.1925 14.6123 13.1761C14.6055 13.1597 14.602 13.1422 14.602 13.1245C14.602 13.0886 14.6163 13.0543 14.6416 13.029C14.6669 13.0037 14.7012 12.9895 14.737 12.9895C14.7728 12.9895 14.8072 13.0037 14.8325 13.029C14.8578 13.0543 14.872 13.0886 14.872 13.1245ZM16.0458 14.5195C16.0458 14.5553 16.0316 14.5896 16.0062 14.6149C15.9809 14.6402 15.9466 14.6545 15.9108 14.6545C15.875 14.6545 15.8406 14.6402 15.8153 14.6149C15.79 14.5896 15.7758 14.5553 15.7758 14.5195C15.7758 14.4836 15.79 14.4493 15.8153 14.424C15.8406 14.3987 15.875 14.3845 15.9108 14.3845C15.9466 14.3845 15.9809 14.3987 16.0062 14.424C16.0316 14.4493 16.0458 14.4836 16.0458 14.5195ZM16.2145 14.9207C16.2145 14.9565 16.2003 14.9908 16.175 15.0162C16.1497 15.0415 16.1153 15.0557 16.0795 15.0557C16.0437 15.0557 16.0094 15.0415 15.9841 15.0162C15.9588 14.9908 15.9445 14.9565 15.9445 14.9207C15.9445 14.8849 15.9588 14.8506 15.9841 14.8252C16.0094 14.7999 16.0437 14.7857 16.0795 14.7857C16.1153 14.7857 16.1497 14.7999 16.175 14.8252C16.2003 14.8506 16.2145 14.8849 16.2145 14.9207V14.9207Z" fill="#9D4916" stroke="#68300E" stroke-width="0.0919649"/>
<path fill-rule="evenodd" clip-rule="evenodd" d="M16.8062 16.0862C16.7293 16.0296 16.6675 15.9549 16.6262 15.8687L16.1012 15.8125L16.0938 16.1125L16.8062 16.0862Z" fill="white" stroke="black" stroke-width="0.0919649"/>
<path fill-rule="evenodd" clip-rule="evenodd" d="M12.9475 15.7346C13.255 15.7909 13.7163 15.7046 13.8663 15.9034C14.0463 16.1059 13.3 16.4246 13.405 16.6009C13.6375 16.8446 13.8737 16.7434 14.1325 16.6084C14.1962 16.4771 14.245 16.2409 14.275 16.1696C14.1812 15.9559 13.9262 15.8471 13.9937 15.5209C14.4175 15.3634 15.2388 15.3746 15.3288 15.4384C15.3963 15.5734 15.3325 15.6334 15.3475 15.7421C15.2763 15.8809 15.0963 16.1096 15.0963 16.2334C15.5463 16.3909 15.6587 16.2109 16.0637 16.2184C16.5362 16.2259 16.8212 16.3534 16.9262 16.1659C16.8512 16.0009 16.42 16.1359 16.2588 16.0309C16.1763 16.0046 16.1238 15.9371 16.0525 15.8659C15.9813 15.7946 15.7825 15.7909 15.7525 15.6071C15.835 15.2246 16.39 15.2846 16.4762 15.2246L17.9162 15.3259C18.1787 15.3184 18.3287 15.7871 17.9725 15.9259C17.62 16.0684 16.5813 15.7196 16.1275 15.9596C16.105 15.8621 15.7788 15.7121 15.7563 15.7084C15.6175 15.7459 15.3475 15.7346 15.3475 15.7346C15.2838 15.8546 15.205 15.9446 15.1413 16.0684C14.8413 15.9371 14.56 16.1696 14.2338 16.1021L13.7238 16.1584L13.4012 16.1284L12.9062 16.2709L13.2588 15.9596L12.9475 15.7346V15.7346Z" fill="white" stroke="black" stroke-width="0.0919649" stroke-linejoin="round"/>
<path fill-rule="evenodd" clip-rule="evenodd" d="M12.9247 15.6741C12.9247 15.7099 12.9105 15.7442 12.8851 15.7695C12.8598 15.7948 12.8255 15.8091 12.7897 15.8091C12.7539 15.8091 12.7195 15.7948 12.6942 15.7695C12.6689 15.7442 12.6547 15.7099 12.6547 15.6741C12.6547 15.6383 12.6689 15.6039 12.6942 15.5786C12.7195 15.5533 12.7539 15.5391 12.7897 15.5391C12.8255 15.5391 12.8598 15.5533 12.8851 15.5786C12.9105 15.6039 12.9247 15.6383 12.9247 15.6741V15.6741ZM12.8872 16.3491C12.8872 16.3849 12.873 16.4192 12.8476 16.4445C12.8223 16.4698 12.788 16.4841 12.7522 16.4841C12.7164 16.4841 12.682 16.4698 12.6567 16.4445C12.6314 16.4192 12.6172 16.3849 12.6172 16.3491C12.6172 16.3128 12.6316 16.2779 12.6573 16.2523C12.6829 16.2266 12.7178 16.2122 12.7541 16.2122C12.7904 16.2122 12.8252 16.2266 12.8508 16.2523C12.8765 16.2779 12.8909 16.3128 12.8909 16.3491H12.8872Z" fill="white" stroke="black" stroke-width="0.0919649"/>
<path fill-rule="evenodd" clip-rule="evenodd" d="M18.9844 16.092C19.0706 16.0132 19.1269 15.9607 19.1606 15.8745L19.6856 15.8145L19.6969 16.1145L18.9844 16.092V16.092Z" fill="white" stroke="black" stroke-width="0.0919649"/>
<path fill-rule="evenodd" clip-rule="evenodd" d="M22.839 15.7348C22.5353 15.791 22.074 15.7085 21.924 15.9035C21.7403 16.1098 22.4865 16.4285 22.3815 16.601C22.149 16.8485 21.9128 16.7473 21.654 16.6123C21.594 16.481 21.5453 16.2448 21.5115 16.1735C21.609 15.956 21.8603 15.851 21.7965 15.5248C21.369 15.3635 20.5478 15.3748 20.4615 15.4385C20.3903 15.5773 20.454 15.6373 20.439 15.746C20.514 15.881 20.694 16.1135 20.694 16.2335C20.244 16.3948 20.1278 16.211 19.7265 16.2223C19.254 16.2298 18.9653 16.3535 18.864 16.166C18.9353 16.0048 19.3665 16.136 19.5315 16.0348C19.614 16.0048 19.6665 15.941 19.7378 15.866C19.809 15.791 20.0078 15.791 20.0378 15.611C19.9553 15.2285 19.4003 15.2848 19.3103 15.2285L17.8703 15.326C17.6078 15.3185 17.4615 15.7873 17.814 15.9298C18.1665 16.0723 19.209 15.7198 19.659 15.9598C19.6853 15.8623 20.0078 15.716 20.034 15.7085C20.169 15.7498 20.439 15.7348 20.439 15.7348C20.5065 15.8585 20.5815 15.9485 20.649 16.0723C20.949 15.9373 21.2303 16.1735 21.5565 16.1023L22.0628 16.1585L22.389 16.1323L22.884 16.271L22.5315 15.9635L22.839 15.7385V15.7348Z" fill="white" stroke="black" stroke-width="0.0919649" stroke-linejoin="round"/>
<path fill-rule="evenodd" clip-rule="evenodd" d="M22.8633 15.674C22.8633 15.7103 22.8777 15.7451 22.9034 15.7708C22.929 15.7964 22.9639 15.8109 23.0002 15.8109C23.0365 15.8109 23.0713 15.7964 23.0969 15.7708C23.1226 15.7451 23.137 15.7103 23.137 15.674C23.137 15.6377 23.1226 15.6029 23.0969 15.5772C23.0713 15.5515 23.0365 15.5371 23.0002 15.5371C22.9639 15.5371 22.929 15.5515 22.9034 15.5772C22.8777 15.6029 22.8633 15.6377 22.8633 15.674ZM22.9008 16.349C22.9008 16.3848 22.915 16.4191 22.9403 16.4444C22.9656 16.4698 23 16.484 23.0358 16.484C23.0716 16.484 23.1059 16.4698 23.1312 16.4444C23.1566 16.4191 23.1708 16.3848 23.1708 16.349C23.1708 16.3132 23.1566 16.2788 23.1312 16.2535C23.1059 16.2282 23.0716 16.214 23.0358 16.214C23 16.214 22.9656 16.2282 22.9403 16.2535C22.915 16.2788 22.9008 16.3132 22.9008 16.349V16.349Z" fill="white" stroke="black" stroke-width="0.0919649"/>
<path fill-rule="evenodd" clip-rule="evenodd" d="M17.8841 15.3487C17.7641 15.3262 17.7191 15.3337 17.6366 15.3262L17.4453 15.9187C17.7453 15.9449 18.0191 15.9449 18.0191 15.9449C17.8391 15.9074 17.8803 15.3524 17.8841 15.3487V15.3487Z" fill="white"/>
<path d="M16.6289 15.7567V15.3555H16.6964V15.693H16.8839V15.7567H16.6289Z" fill="black"/>
<path d="M16.9414 15.7763V15.375H17.0127V15.7763H16.9414Z" fill="black"/>
<path d="M17.2527 15.8055H17.1289V15.4118L17.2489 15.4043C17.2914 15.4043 17.3227 15.413 17.3427 15.4305C17.3677 15.4505 17.3802 15.4768 17.3802 15.5093C17.3802 15.5393 17.3639 15.5643 17.3314 15.5843C17.3814 15.6018 17.4064 15.638 17.4064 15.693C17.4064 15.7305 17.3914 15.7593 17.3614 15.7793C17.3364 15.7993 17.3014 15.8093 17.2564 15.8093L17.2527 15.8055ZM17.2039 15.4643V15.558H17.2414C17.2839 15.558 17.3052 15.5405 17.3052 15.5055C17.3052 15.478 17.2839 15.4643 17.2414 15.4643H17.2039ZM17.2039 15.6143V15.7455H17.2414C17.2714 15.7455 17.2927 15.7405 17.3052 15.7305C17.3227 15.723 17.3314 15.7068 17.3314 15.6818C17.3314 15.6568 17.3252 15.6405 17.3127 15.633C17.3002 15.6205 17.2764 15.6143 17.2414 15.6143H17.2039Z" fill="black"/>
<path d="M17.5752 15.4859V15.5872H17.7027V15.6509H17.5752V15.7672H17.7627V15.8309H17.5039V15.4297H17.7552V15.4934L17.5752 15.4859Z" fill="black"/>
<path d="M18.0844 15.8384L17.9794 15.6697H17.9269V15.8384H17.8594V15.4372H17.9044L17.9644 15.4297C18.0694 15.4297 18.1219 15.4697 18.1219 15.5497C18.1219 15.5747 18.1156 15.5959 18.1031 15.6134C18.0856 15.6334 18.0669 15.6472 18.0469 15.6547L18.1706 15.8384H18.0844ZM17.9269 15.5009V15.6059H17.9606L18.0206 15.5984C18.0381 15.5909 18.0469 15.5747 18.0469 15.5497C18.0469 15.5297 18.0406 15.5147 18.0281 15.5047C18.0106 15.4972 17.9856 15.4934 17.9531 15.4934H17.9269V15.5009Z" fill="black"/>
<path d="M18.3744 15.4858V15.8233H18.2994V15.4858H18.1719V15.4258H18.5056V15.4858H18.3744Z" fill="black"/>
<path d="M18.7777 15.7683L18.7477 15.6895H18.6089L18.5827 15.7683H18.5039L18.6652 15.3633H18.6952L18.8602 15.7683H18.7777ZM18.6764 15.487L18.6352 15.637H18.7289L18.6764 15.487Z" fill="black"/>
<path d="M18.918 15.7378L18.9405 15.6741C18.9705 15.6916 18.998 15.7003 19.023 15.7003C19.0655 15.7003 19.0867 15.6853 19.0867 15.6553L19.0717 15.6178L19.0117 15.5766L18.948 15.5391L18.9217 15.5016L18.918 15.4566C18.918 15.4241 18.928 15.3966 18.948 15.3741C18.973 15.3591 19.0017 15.3516 19.0342 15.3516C19.0817 15.3516 19.118 15.3591 19.143 15.3741L19.1167 15.4378C19.0917 15.4178 19.0642 15.4078 19.0342 15.4078C19.0192 15.4078 19.0067 15.4116 18.9967 15.4191C18.9892 15.4266 18.9855 15.4391 18.9855 15.4566C18.9855 15.4766 19.0105 15.4991 19.0605 15.5241C19.0905 15.5366 19.1117 15.5491 19.1242 15.5616L19.1467 15.5991L19.1542 15.6516C19.1542 15.6841 19.1417 15.7103 19.1167 15.7303C19.0917 15.7503 19.058 15.7616 19.0155 15.7641C18.9755 15.7641 18.943 15.7528 18.918 15.7303V15.7378Z" fill="black"/>
<path d="M14.6725 14.9477C15.0513 14.9927 15.5762 14.959 15.805 14.9477M14.0988 13.6577C14.4213 13.909 15.115 14.059 15.1038 14.059M15.505 14.1265C15.4 13.6015 15.2875 13.474 15.1937 13.144M13.5625 12.5515C14.0987 12.7915 14.1813 12.949 14.5225 13.189M14.7175 12.664C14.7625 12.0152 14.8525 11.8427 15.0137 11.6927M13.5625 11.6177C13.7575 11.8315 14.395 12.5065 14.395 12.5065M14.1325 11.0215C14.3725 11.1902 14.3725 11.809 14.3725 11.809" stroke="#00A400" stroke-width="0.18393" stroke-linecap="round"/>
</g>
</g>
<defs>
<filter id="filter0_d_336_31400" x="0" y="-2" width="36" height="36" filterUnits="userSpaceOnUse" color-interpolation-filters="sRGB">
<feFlood flood-opacity="0" result="BackgroundImageFix"/>
<feColorMatrix in="SourceAlpha" type="matrix" values="0 0 0 0 0 0 0 0 0 0 0 0 0 0 0 0 0 0 127 0" result="hardAlpha"/>
<feOffset dy="4"/>
<feGaussianBlur stdDeviation="3"/>
<feComposite in2="hardAlpha" operator="out"/>
<feColorMatrix type="matrix" values="0 0 0 0 0 0 0 0 0 0 0 0 0 0 0 0 0 0 0.16 0"/>
<feBlend mode="normal" in2="BackgroundImageFix" result="effect1_dropShadow_336_31400"/>
<feBlend mode="normal" in="SourceGraphic" in2="effect1_dropShadow_336_31400" result="shape"/>
</filter>
<clipPath id="clip0_336_31400">
<rect width="24" height="18" fill="white" transform="translate(6 3)"/>
</clipPath>
</defs>
</svg>
