<svg width="36" height="31" viewBox="0 0 36 31" fill="none" xmlns="http://www.w3.org/2000/svg">
<g filter="url(#filter0_d_336_24949)">
<g clip-path="url(#clip0_336_24949)">
<path fill-rule="evenodd" clip-rule="evenodd" d="M30 18.6075C29.73 18.8588 29.5013 19.4325 28.785 19.4325C27.3562 19.4325 27 18.2138 25.9275 18.2138C25.215 18.2138 24.8588 19.4325 24.1425 19.4325C22.7138 19.4325 22.3575 18.2138 21.285 18.2138C20.5725 18.2138 20.2163 19.4325 19.5038 19.4325C18.0713 19.4325 17.715 18.2138 16.6425 18.2138C15.93 18.2138 15.57 19.4325 14.8575 19.4325C13.4288 19.4325 13.0725 18.2138 12 18.2138C11.2875 18.2138 10.9275 19.4325 10.215 19.4325C8.7825 19.4325 8.42625 18.2138 7.3575 18.2138C6.645 18.2138 6.4275 19.0838 6 19.0838V20.6475C6.4275 20.6475 6.64125 19.785 7.36125 19.785C8.43 19.785 8.78625 21 10.2113 21C10.9275 21 11.2838 19.7813 12 19.7813C13.0725 19.7813 13.4288 21 14.8613 21C15.5738 21 15.9262 19.7813 16.6425 19.7813C17.715 19.7813 18.0713 21 19.5 21C20.2125 21 20.5725 19.7813 21.285 19.7813C22.3575 19.7813 22.7138 21 24.1425 21C24.855 21 25.215 19.7813 25.9275 19.7813C27 19.7813 27.36 21 28.785 21C29.4975 21 29.73 20.655 30 20.4075V18.6075ZM30 15.5625C29.73 15.8138 29.5013 16.3875 28.785 16.3875C27.3562 16.3875 27 15.1688 25.9275 15.1688C25.215 15.1688 24.8588 16.3875 24.1425 16.3875C22.7138 16.3875 22.3575 15.1688 21.285 15.1688C20.5725 15.1688 20.2163 16.3875 19.5038 16.3875C18.0713 16.3875 17.715 15.1688 16.6425 15.1688C15.93 15.1688 15.57 16.3875 14.8575 16.3875C13.4288 16.3875 13.0725 15.1688 12 15.1688C11.2875 15.1688 10.9275 16.3875 10.215 16.3875C8.7825 16.3875 8.42625 15.1688 7.3575 15.1688C6.645 15.1688 6.4275 16.0388 6 16.0388V17.6063C6.4275 17.6063 6.64125 16.74 7.36125 16.74C8.43 16.74 8.78625 17.9588 10.2113 17.9588C10.9275 17.9588 11.2838 16.74 12 16.74C13.0725 16.74 13.4288 17.9588 14.8613 17.9588C15.5738 17.9588 15.9262 16.74 16.6425 16.74C17.715 16.74 18.0713 17.9588 19.5038 17.9588C20.2163 17.9588 20.5725 16.74 21.285 16.74C22.3575 16.74 22.7138 17.9588 24.1425 17.9588C24.855 17.9588 25.215 16.74 25.9275 16.74C27 16.74 27.36 17.9588 28.785 17.9588C29.4975 17.9588 29.73 17.6138 30 17.3663V15.5625ZM30 12.5213C29.73 12.7725 29.5013 13.3463 28.785 13.3463C27.3562 13.3463 27 12.1275 25.9275 12.1275C25.215 12.1275 24.8588 13.3463 24.1425 13.3463C22.7138 13.3463 22.3575 12.1275 21.285 12.1275C20.5725 12.1275 20.2163 13.3463 19.5038 13.3463C18.0713 13.3463 17.715 12.1275 16.6425 12.1275C15.93 12.1275 15.57 13.3463 14.8575 13.3463C13.4288 13.3463 13.0725 12.1275 12 12.1275C11.2875 12.1275 10.9275 13.3463 10.215 13.3463C8.7825 13.3463 8.42625 12.1275 7.3575 12.1275C6.645 12.1275 6.4275 12.9975 6 12.9975V14.565C6.4275 14.565 6.64125 13.695 7.36125 13.695C8.43 13.695 8.78625 14.9138 10.2113 14.9138C10.9275 14.9138 11.2838 13.695 12 13.695C13.0725 13.695 13.4288 14.9138 14.8613 14.9138C15.5738 14.9138 15.9262 13.695 16.6425 13.695C17.715 13.695 18.0713 14.9138 19.5038 14.9138C20.2163 14.9138 20.5725 13.695 21.285 13.695C22.3575 13.695 22.7138 14.9138 24.1425 14.9138C24.855 14.9138 25.215 13.695 25.9275 13.695C27 13.695 27.36 14.9138 28.785 14.9138C29.4975 14.9138 29.73 14.5688 30 14.3213V12.5213ZM30 9.48C29.73 9.7275 29.5013 10.305 28.785 10.305C27.3562 10.305 27 9.08625 25.9275 9.08625C25.215 9.08625 24.8588 10.305 24.1425 10.305C22.7138 10.305 22.3575 9.08625 21.285 9.08625C20.5725 9.08625 20.2163 10.305 19.5038 10.305C18.0713 10.305 17.715 9.08625 16.6425 9.08625C15.93 9.08625 15.57 10.305 14.8575 10.305C13.4288 10.305 13.0725 9.08625 12 9.08625C11.2875 9.08625 10.9275 10.305 10.215 10.305C8.7825 10.305 8.42625 9.08625 7.3575 9.08625C6.645 9.08625 6.4275 9.95625 6 9.95625V11.52C6.4275 11.52 6.64125 10.6575 7.36125 10.6575C8.43 10.6575 8.78625 11.8725 10.2113 11.8725C10.9275 11.8725 11.2838 10.6538 12 10.6538C13.0725 10.6538 13.4288 11.8725 14.8613 11.8725C15.5738 11.8725 15.9262 10.6538 16.6425 10.6538C17.715 10.6538 18.0713 11.8725 19.5038 11.8725C20.2163 11.8725 20.5725 10.6538 21.285 10.6538C22.3575 10.6538 22.7138 11.8725 24.1425 11.8725C24.855 11.8725 25.215 10.6538 25.9275 10.6538C27 10.6538 27.36 11.8725 28.785 11.8725C29.4975 11.8725 29.73 11.5238 30 11.2763V9.48ZM30 6.43125C29.73 6.6825 29.5013 7.26 28.785 7.26C27.3562 7.26 27 6.04125 25.9275 6.04125C25.215 6.04125 24.8588 7.26 24.1425 7.26C22.7138 7.26 22.3575 6.04125 21.285 6.04125C20.5725 6.04125 20.2163 7.26 19.5038 7.26C18.0713 7.26 17.715 6.04125 16.6425 6.04125C15.93 6.04125 15.57 7.26 14.8575 7.26C13.4288 7.26 13.0725 6.04125 12 6.04125C11.2875 6.04125 10.9275 7.26 10.215 7.26C8.7825 7.26 8.42625 6.04125 7.3575 6.04125C6.645 6.045 6.4275 6.915 6 6.915V8.4825C6.4275 8.4825 6.64125 7.61625 7.3575 7.61625C8.42625 7.61625 8.78625 8.835 10.215 8.835C10.9275 8.835 11.2838 7.61625 12 7.61625C13.0725 7.61625 13.4288 8.835 14.8613 8.835C15.5738 8.835 15.9263 7.61625 16.6388 7.61625C17.715 7.61625 18.0713 8.835 19.5 8.835C20.2125 8.835 20.5725 7.61625 21.285 7.61625C22.3575 7.61625 22.7138 8.835 24.1425 8.835C24.855 8.835 25.215 7.61625 25.9275 7.61625C27 7.61625 27.36 8.835 28.785 8.835C29.4975 8.835 29.73 8.48625 30 8.23875V6.43875V6.43125ZM30 3.39375C29.73 3.64125 29.5013 4.21875 28.785 4.21875C27.3562 4.21875 27 3 25.9275 3C25.215 3 24.8588 4.21875 24.1425 4.21875C22.7138 4.21875 22.3575 3 21.285 3C20.5725 3 20.2163 4.21875 19.5038 4.21875C18.0713 4.21875 17.715 3 16.6425 3C15.93 3 15.57 4.21875 14.8575 4.21875C13.425 4.21875 13.0725 3 12 3C11.2875 3 10.9275 4.21875 10.215 4.21875C8.7825 4.21875 8.42625 3 7.3575 3C6.645 3 6.4275 3.87 6 3.87V5.44125C6.4275 5.4375 6.64125 4.575 7.3575 4.575C8.42625 4.575 8.78625 5.79 10.215 5.79C10.9275 5.79 11.2838 4.575 12 4.575C13.0725 4.575 13.4288 5.79 14.8613 5.79C15.5738 5.79 15.9263 4.575 16.6388 4.575C17.715 4.575 18.0713 5.79 19.5 5.79C20.2125 5.79 20.5725 4.575 21.285 4.575C22.3575 4.575 22.7138 5.79 24.1425 5.79C24.855 5.79 25.215 4.575 25.9275 4.575C27 4.575 27.36 5.79 28.785 5.79C29.4975 5.79 29.73 5.445 30 5.1975V3.39375Z" fill="#000063"/>
<path fill-rule="evenodd" clip-rule="evenodd" d="M23.8031 7.93945L23.6719 20.277C23.6719 20.9257 24.2606 20.9257 24.3244 20.277L24.1931 7.93945H23.8031Z" fill="#A24300" stroke="white" stroke-width="0.177188"/>
<path fill-rule="evenodd" clip-rule="evenodd" d="M25.1508 12.5252L24.7383 12.0789L24.6408 12.5327L24.4645 11.8764L24.2958 12.2064L24.2658 11.5089L24.1008 11.8389L24.0708 11.1414L23.9058 11.4714L23.812 10.6502L23.647 10.9802L23.5495 10.1627L23.3808 10.4927L23.287 9.67141L23.2383 9.25891L23.3208 9.09766L23.5383 9.17641L23.8795 9.50266L24.5658 10.1552L24.142 9.99391L24.8283 10.6464L24.4008 10.4852L25.087 11.1339L24.6595 10.9764L25.282 11.5014L24.8583 11.3439L25.477 11.8689L25.0533 11.7114L25.5258 12.2814L25.0345 11.9964L25.147 12.5327L25.1508 12.5252Z" fill="#006D00" stroke="white" stroke-width="0.151875"/>
<path d="M25.1505 12.5252L23.3242 9.09766M24.5655 10.1552L23.5867 9.58516L23.3842 10.4889" stroke="black" stroke-width="0.0253125"/>
<path d="M24.8334 10.6424L23.8472 10.0762L23.6484 10.9799" stroke="black" stroke-width="0.0253125"/>
<path d="M25.0913 11.1309L24.1087 10.5684L23.9062 11.4684" stroke="black" stroke-width="0.0253125"/>
<path d="M25.2867 11.5009L24.368 11.0547L24.1055 11.8422" stroke="black" stroke-width="0.0253125"/>
<path d="M25.482 11.8681L24.5633 11.4219L24.3008 12.2094" stroke="black" stroke-width="0.0253125"/>
<path d="M25.5294 12.2774L24.6931 11.6699L24.6406 12.5324" stroke="black" stroke-width="0.0253125"/>
<path fill-rule="evenodd" clip-rule="evenodd" d="M20.363 6.67117L21.0305 6.92617L20.8355 6.41992L21.4205 6.99367L21.3642 6.58117L21.8367 7.27117L21.7805 6.85867L22.253 7.54867L22.1967 7.13617L22.808 7.91617L22.7517 7.50367L23.363 8.28367L23.3105 7.87117L23.918 8.65117L24.2255 9.04117L24.2517 9.24742L24.0005 9.26992L23.4755 9.10867L22.418 8.78242L22.9167 8.74117L21.863 8.41492L22.3617 8.37367L21.308 8.04742L21.8067 8.00242L20.8917 7.76992L21.3905 7.72867L20.4755 7.49617L20.9742 7.45117L20.168 7.10242L20.8092 7.15117L20.3667 6.67492L20.363 6.67117Z" fill="#006D00" stroke="white" stroke-width="0.16875"/>
<path d="M20.3633 6.67188L24.252 9.24813M22.4183 8.78312L23.697 8.88063L23.3108 7.87187" stroke="black" stroke-width="0.0253125"/>
<path d="M21.8633 8.415L23.1383 8.5125L22.752 7.5" stroke="black" stroke-width="0.0253125"/>
<path d="M21.3086 8.04781L22.5836 8.14531L22.1973 7.13281" stroke="black" stroke-width="0.0253125"/>
<path d="M20.8867 7.77062L22.0305 7.77438L21.7792 6.85938" stroke="black" stroke-width="0.0253125"/>
<path d="M20.4766 7.49328L21.6166 7.50078L21.3653 6.58203" stroke="black" stroke-width="0.0253125"/>
<path d="M20.168 7.10242L21.3342 7.31617L20.8392 6.41992" stroke="black" stroke-width="0.0253125"/>
<path fill-rule="evenodd" clip-rule="evenodd" d="M28.118 7.53086L27.563 7.93961L28.178 8.00711L27.3192 8.20961L27.7767 8.34461L26.8505 8.41211L27.308 8.54711L26.3817 8.61461L26.8355 8.75336L25.7517 8.88836L26.2092 9.02336L25.1255 9.15836L25.583 9.29336L24.4992 9.42836L23.9555 9.49586L23.7305 9.42836L23.813 9.22586L24.2142 8.88836L25.013 8.20961L24.8405 8.61461L25.6392 7.93961L25.4667 8.34461L26.2655 7.66961L26.093 8.07461L26.738 7.46336L26.5692 7.87211L27.2067 7.26086L27.038 7.66586L27.7505 7.19336L27.4242 7.66961L28.1217 7.53461L28.118 7.53086Z" fill="#006D00" stroke="white" stroke-width="0.16875"/>
<path d="M28.118 7.5293L23.7305 9.4268M25.0092 8.20805L24.3567 9.1568L25.583 9.2918" stroke="black" stroke-width="0.0253125"/>
<path d="M25.6406 7.93945L24.9844 8.8882L26.2106 9.0232" stroke="black" stroke-width="0.0253125"/>
<path d="M26.2656 7.66406L25.6094 8.61281L26.8356 8.75156" stroke="black" stroke-width="0.0253125"/>
<path d="M26.737 7.46289L26.2383 8.34414L27.307 8.54664" stroke="black" stroke-width="0.0253125"/>
<path d="M27.2058 7.25977L26.707 8.14102L27.7758 8.34352" stroke="black" stroke-width="0.0253125"/>
<path d="M27.7509 7.19336L27.0234 8.00711H28.1747" stroke="black" stroke-width="0.0253125"/>
<path fill-rule="evenodd" clip-rule="evenodd" d="M28.0264 11.6365L27.3364 11.4377L27.5839 11.9252L26.9427 11.4002L27.0402 11.8015L26.4964 11.1565L26.5977 11.5615L26.0539 10.9127L26.1514 11.3177L25.4577 10.5902L25.5589 10.9952L24.8652 10.2677L24.9664 10.6727L24.2727 9.94523L23.9277 9.58148L23.8789 9.37898L24.1264 9.33398L24.6702 9.45398L25.7577 9.69398L25.2627 9.77648L26.3502 10.0165L25.8552 10.099L26.9427 10.339L26.4477 10.4252L27.3852 10.5827L26.8902 10.6652L27.8277 10.8227L27.3364 10.9127L28.1727 11.194H27.5352L28.0227 11.644L28.0264 11.6365Z" fill="#006D00" stroke="white" stroke-width="0.16875"/>
<path d="M28.0264 11.6364L23.8789 9.37891M25.7539 9.69391L24.4714 9.70141L24.9664 10.6764" stroke="black" stroke-width="0.0253125"/>
<path d="M26.3489 10.0156L25.0664 10.0231L25.5614 10.9981" stroke="black" stroke-width="0.0253125"/>
<path d="M26.9388 10.3379L25.6562 10.3454L26.1513 11.3204" stroke="black" stroke-width="0.0253125"/>
<path d="M27.3862 10.582L26.25 10.6683L26.5987 11.5608" stroke="black" stroke-width="0.0253125"/>
<path d="M27.8316 10.8262L26.6953 10.9087L27.0403 11.8012" stroke="black" stroke-width="0.0253125"/>
<path d="M28.1734 11.1903L26.9922 11.0703L27.5847 11.9253" stroke="black" stroke-width="0.0253125"/>
<path fill-rule="evenodd" clip-rule="evenodd" d="M20.8206 11.873L21.1694 11.3855L20.6406 11.4642L21.2931 11.093L20.8769 11.0742L21.6269 10.8117L21.2106 10.7892L21.9606 10.5267L21.5444 10.5042L22.4069 10.1442L21.9869 10.1255L22.8494 9.76172L22.4331 9.74297L23.2956 9.38297L23.7269 9.19922L23.9369 9.21047L23.9219 9.40922L23.6856 9.79922L23.2131 10.5792L23.2431 10.1817L22.7706 10.9617L22.7969 10.5605L22.3244 11.3405L22.3506 10.943L21.9906 11.6255L22.0169 11.228L21.6569 11.9105L21.6831 11.513L21.2256 12.0905L21.3644 11.5955L20.8206 11.873V11.873Z" fill="#006D00" stroke="white" stroke-width="0.151875"/>
<path d="M20.8203 11.8734L23.9328 9.21094M23.2166 10.5797L23.4903 9.58969L22.4328 9.74344" stroke="black" stroke-width="0.0253125"/>
<path d="M22.7681 10.9607L23.0419 9.9707L21.9844 10.1207" stroke="black" stroke-width="0.0253125"/>
<path d="M22.323 11.3396L22.6005 10.3496L21.543 10.5034" stroke="black" stroke-width="0.0253125"/>
<path d="M21.9909 11.6249L22.1559 10.7324L21.2109 10.7887" stroke="black" stroke-width="0.0253125"/>
<path d="M21.655 11.9101L21.82 11.0176L20.875 11.0738" stroke="black" stroke-width="0.0253125"/>
<path d="M21.2256 12.0902L21.6006 11.209L20.6406 11.464" stroke="black" stroke-width="0.0253125"/>
<path fill-rule="evenodd" clip-rule="evenodd" d="M27.1138 5.48297L26.4425 5.93297L26.3338 5.44922L25.94 6.11672L25.865 5.79797L25.5425 6.48047L25.4975 6.16547L25.2463 6.86672L25.1038 6.52922L24.8525 7.38047L24.71 7.04297L24.4588 7.89422L24.3125 7.55672L24.0613 8.40797L23.9375 8.83547L24.0088 9.00422L24.2788 8.91422L24.7438 8.56922L25.6813 7.87922L25.1413 8.05547L26.075 7.36172L25.535 7.54172L26.4688 6.84797L25.9288 7.02797L26.8663 6.48797L26.2288 6.63797L27.2263 6.12422L26.615 6.28172L27.3538 5.69672L26.7163 6.00047L27.1138 5.48297Z" fill="#006D00" stroke="white" stroke-width="0.16875"/>
<path d="M26.8503 5.72656L25.8828 6.55906L24.0078 9.00406" stroke="black" stroke-width="0.0253125"/>
<path d="M25.475 7.98078L24.4025 8.48703L24.3125 7.70703" stroke="black" stroke-width="0.0253125"/>
<path d="M25.8808 7.47086L24.7933 7.97336L24.707 7.19336" stroke="black" stroke-width="0.0253125"/>
<path d="M26.2681 6.95539L25.1919 7.45789L25.1094 6.68164" stroke="black" stroke-width="0.0253125"/>
<path d="M26.5902 6.57289L25.5852 6.94414L25.4727 6.30664" stroke="black" stroke-width="0.0253125"/>
<path d="M26.9612 6.20602L25.8812 6.56227L25.8438 5.94727" stroke="black" stroke-width="0.0253125"/>
<path d="M27.1069 5.8582L26.1094 6.3682L26.3044 5.5957" stroke="black" stroke-width="0.0253125"/>
<path fill-rule="evenodd" clip-rule="evenodd" d="M23.4797 4.64258L23.7797 5.32508L24.1659 4.96508L24.1022 5.70758L24.3572 5.46758L24.2184 6.19508L24.4434 5.94758L24.2372 6.66008L24.5634 6.43508L24.2634 7.27133L24.5859 7.04633L24.2859 7.89008L24.6122 7.66508L24.3122 8.50508L24.1622 8.92508L23.9972 9.03758L23.8172 8.83883L23.6297 8.33633L23.2547 7.32758L23.6072 7.72133L23.2284 6.70883L23.5809 7.10633L23.2059 6.09383L23.5509 6.48758L23.0822 5.61008L23.5322 6.02633L22.9922 5.13008L23.4159 5.54258L23.1422 4.71008L23.5022 5.25758L23.4797 4.64258Z" fill="#006D00" stroke="white" stroke-width="0.16875"/>
<path d="M23.5586 4.96484L23.8773 6.10859L23.9973 9.03359" stroke="black" stroke-width="0.0253125"/>
<path d="M23.3633 7.50781L23.9708 8.41906L24.522 7.79281" stroke="black" stroke-width="0.0253125"/>
<path d="M23.3242 6.88867L23.943 7.80367L24.4942 7.17742" stroke="black" stroke-width="0.0253125"/>
<path d="M23.3047 6.27344L23.9197 7.18844L24.4597 6.56219" stroke="black" stroke-width="0.0253125"/>
<path d="M23.2656 5.80859L23.8956 6.57359L24.3831 6.08609" stroke="black" stroke-width="0.0253125"/>
<path d="M23.1758 5.32422L23.877 6.11172L24.2895 5.60172" stroke="black" stroke-width="0.0253125"/>
<path d="M23.2617 4.96484L23.8017 5.84609L24.1055 5.09984" stroke="black" stroke-width="0.0253125"/>
<path fill-rule="evenodd" clip-rule="evenodd" d="M19.4609 9.67516L20.3347 9.06766L19.8959 8.84266L20.6647 8.97016L20.4022 8.62141L21.1447 8.90266L20.8822 8.55391L21.6284 8.83141L21.3659 8.48641L22.2659 8.79016L22.0034 8.44141L22.8772 8.89516L22.6147 8.54641L23.5147 8.85391L23.9534 9.07891L24.0847 9.25141L23.9084 9.37516L23.4247 9.44266L22.6484 9.76516L22.7909 9.48766L21.8272 9.62266L22.1759 9.38266L21.1897 9.66766L21.5422 9.42391L20.7097 9.73516L21.0809 9.34516L20.2259 9.80266L20.6009 9.41266L19.8959 9.90016L20.2897 9.36016L19.4609 9.67516Z" fill="#006D00" stroke="white" stroke-width="0.160313"/>
<path d="M19.7344 9.50977L20.6419 9.11602L21.1256 9.04852L21.5269 9.04102L22.2206 9.08602L22.8469 9.11227L24.0844 9.25102" stroke="black" stroke-width="0.0253125"/>
<path d="M22.7691 9.63305L23.4628 9.20555L22.7578 8.6543" stroke="black" stroke-width="0.0253125"/>
<path d="M21.9922 9.56914L22.8434 9.11164L22.1422 8.55664" stroke="black" stroke-width="0.0253125"/>
<path d="M21.4373 9.55477L22.2211 9.08602L21.5086 8.57227M20.4023 9.68227L21.1261 9.04852L20.5411 8.72977" stroke="black" stroke-width="0.0253125"/>
<path d="M20.082 9.72305L20.6445 9.1193L20.1945 8.95055M20.8845 9.6143L21.597 9.0443L21.027 8.6543" stroke="black" stroke-width="0.0253125"/>
<path fill-rule="evenodd" clip-rule="evenodd" d="M22.4094 16.3198L22.4012 15.2969L22.1048 14.8192C22.0306 14.5843 22.067 14.4709 22.1873 14.4629C22.3071 14.4558 22.4259 14.5236 22.5986 14.5312C22.7713 14.5388 22.7388 14.266 22.9939 14.2736C23.249 14.2812 23.6938 14.4178 24.0721 14.4406C24.4509 14.4629 24.6483 14.3191 25.0848 14.304C25.5213 14.2888 25.6363 14.4933 25.661 14.4933C25.6858 14.4933 25.8095 14.4102 25.9326 14.395C26.0563 14.3799 26.0976 14.4406 26.0976 14.4406C26.0976 14.4406 26.0893 14.6982 26.0316 14.8495C25.9739 15.0013 25.7682 15.2514 25.76 15.2514C25.7517 15.2514 25.6858 16.3653 25.6858 16.3729C25.6858 16.3805 22.4094 16.3426 22.4094 16.3198V16.3198Z" fill="#CC0000" stroke="black" stroke-width="0.0139605"/>
<path fill-rule="evenodd" clip-rule="evenodd" d="M25.7981 15.2701C25.7981 15.2701 26.1279 15.038 26.1366 14.4794C26.1415 14.1579 25.9698 13.9258 25.54 13.9258C24.9386 13.9258 24.0796 14.1629 24.0796 14.1629V14.2419C24.0796 14.2419 24.7669 14.0048 25.5405 14.0048C25.8839 14.0048 26.0561 14.237 26.0561 14.4745C26.0561 14.8701 25.7117 15.2706 25.7117 15.2706V15.9032H25.7981V15.2701Z" fill="#FFF100" stroke="black" stroke-width="0.0139605"/>
<path fill-rule="evenodd" clip-rule="evenodd" d="M25.976 15.1048C25.9751 15.1157 25.9767 15.1266 25.9806 15.137C25.9845 15.1473 25.9907 15.1568 25.9988 15.1648C26.0069 15.1728 26.0167 15.1792 26.0276 15.1836C26.0385 15.1879 26.0502 15.1902 26.0621 15.1902C26.074 15.1902 26.0857 15.1879 26.0966 15.1836C26.1075 15.1792 26.1173 15.1728 26.1254 15.1648C26.1335 15.1568 26.1397 15.1473 26.1436 15.137C26.1475 15.1266 26.1491 15.1157 26.1482 15.1048C26.1466 15.0848 26.1368 15.0661 26.1208 15.0525C26.1049 15.0388 26.0839 15.0312 26.0621 15.0312C26.0403 15.0312 26.0194 15.0388 26.0034 15.0525C25.9874 15.0661 25.9776 15.0848 25.976 15.1048Z" fill="white" stroke="black" stroke-width="0.0139605"/>
<path fill-rule="evenodd" clip-rule="evenodd" d="M26.0619 14.9251C26.0611 14.936 26.0626 14.9469 26.0665 14.9573C26.0705 14.9676 26.0767 14.9771 26.0847 14.9851C26.0928 14.9931 26.1026 14.9995 26.1135 15.0039C26.1244 15.0082 26.1362 15.0105 26.148 15.0105C26.1599 15.0105 26.1717 15.0082 26.1826 15.0039C26.1935 14.9995 26.2033 14.9931 26.2113 14.9851C26.2194 14.9771 26.2256 14.9676 26.2295 14.9573C26.2335 14.9469 26.235 14.936 26.2341 14.9251C26.2325 14.9051 26.2227 14.8864 26.2068 14.8728C26.1908 14.8591 26.1698 14.8516 26.148 14.8516C26.1263 14.8516 26.1053 14.8591 26.0893 14.8728C26.0734 14.8864 26.0636 14.9051 26.0619 14.9251Z" fill="white" stroke="black" stroke-width="0.0139605"/>
<path fill-rule="evenodd" clip-rule="evenodd" d="M26.1049 14.7376C26.104 14.7485 26.1056 14.7594 26.1095 14.7698C26.1134 14.7801 26.1196 14.7896 26.1277 14.7976C26.1358 14.8056 26.1456 14.812 26.1565 14.8164C26.1674 14.8207 26.1791 14.823 26.191 14.823C26.2029 14.823 26.2146 14.8207 26.2255 14.8164C26.2364 14.812 26.2462 14.8056 26.2543 14.7976C26.2624 14.7896 26.2686 14.7801 26.2725 14.7698C26.2764 14.7594 26.278 14.7485 26.2771 14.7376C26.2755 14.7176 26.2657 14.6989 26.2497 14.6853C26.2338 14.6716 26.2128 14.6641 26.191 14.6641C26.1692 14.6641 26.1483 14.6716 26.1323 14.6853C26.1163 14.6989 26.1065 14.7176 26.1049 14.7376Z" fill="white" stroke="black" stroke-width="0.0139605"/>
<path fill-rule="evenodd" clip-rule="evenodd" d="M26.1401 14.5423C26.1392 14.5532 26.1407 14.5641 26.1447 14.5745C26.1486 14.5848 26.1548 14.5943 26.1629 14.6023C26.171 14.6103 26.1807 14.6167 26.1916 14.6211C26.2025 14.6254 26.2143 14.6277 26.2262 14.6277C26.238 14.6277 26.2498 14.6254 26.2607 14.6211C26.2716 14.6167 26.2814 14.6103 26.2895 14.6023C26.2975 14.5943 26.3037 14.5848 26.3077 14.5745C26.3116 14.5641 26.3131 14.5532 26.3123 14.5423C26.3106 14.5223 26.3008 14.5036 26.2849 14.49C26.2689 14.4763 26.2479 14.4688 26.2262 14.4688C26.2044 14.4688 26.1834 14.4763 26.1674 14.49C26.1515 14.5036 26.1417 14.5223 26.1401 14.5423Z" fill="white" stroke="black" stroke-width="0.0139605"/>
<path fill-rule="evenodd" clip-rule="evenodd" d="M26.1323 14.3333C26.1314 14.3442 26.1329 14.3552 26.1369 14.3655C26.1408 14.3758 26.147 14.3853 26.1551 14.3933C26.1631 14.4013 26.1729 14.4077 26.1838 14.4121C26.1947 14.4165 26.2065 14.4187 26.2184 14.4187C26.2302 14.4187 26.242 14.4165 26.2529 14.4121C26.2638 14.4077 26.2736 14.4013 26.2816 14.3933C26.2897 14.3853 26.2959 14.3758 26.2998 14.3655C26.3038 14.3552 26.3053 14.3442 26.3044 14.3333C26.3028 14.3133 26.293 14.2946 26.2771 14.281C26.2611 14.2673 26.2401 14.2598 26.2184 14.2598C26.1966 14.2598 26.1756 14.2673 26.1596 14.281C26.1437 14.2946 26.1339 14.3133 26.1323 14.3333Z" fill="white" stroke="black" stroke-width="0.0139605"/>
<path fill-rule="evenodd" clip-rule="evenodd" d="M25.851 15.2669C25.8501 15.2778 25.8517 15.2887 25.8556 15.2991C25.8595 15.3094 25.8657 15.3189 25.8738 15.3269C25.8819 15.3349 25.8917 15.3413 25.9026 15.3457C25.9135 15.35 25.9252 15.3523 25.9371 15.3523C25.949 15.3523 25.9607 15.35 25.9716 15.3457C25.9825 15.3413 25.9923 15.3349 26.0004 15.3269C26.0085 15.3189 26.0147 15.3094 26.0186 15.2991C26.0225 15.2887 26.0241 15.2778 26.0232 15.2669C26.0216 15.2469 26.0118 15.2282 25.9958 15.2146C25.9799 15.2009 25.9589 15.1934 25.9371 15.1934C25.9153 15.1934 25.8944 15.2009 25.8784 15.2146C25.8624 15.2282 25.8526 15.2469 25.851 15.2669Z" fill="white" stroke="black" stroke-width="0.0139605"/>
<path fill-rule="evenodd" clip-rule="evenodd" d="M26.058 14.1302C26.0572 14.1411 26.0587 14.152 26.0626 14.1624C26.0666 14.1727 26.0728 14.1821 26.0808 14.1902C26.0889 14.1982 26.0987 14.2046 26.1096 14.209C26.1205 14.2133 26.1323 14.2156 26.1441 14.2156C26.156 14.2156 26.1678 14.2133 26.1787 14.209C26.1896 14.2046 26.1993 14.1982 26.2074 14.1902C26.2155 14.1821 26.2217 14.1727 26.2256 14.1624C26.2296 14.152 26.2311 14.1411 26.2302 14.1302C26.2286 14.1102 26.2188 14.0915 26.2029 14.0779C26.1869 14.0642 26.1659 14.0566 26.1441 14.0566C26.1224 14.0566 26.1014 14.0642 26.0854 14.0779C26.0695 14.0915 26.0597 14.1102 26.058 14.1302Z" fill="white" stroke="black" stroke-width="0.0139605"/>
<path fill-rule="evenodd" clip-rule="evenodd" d="M25.9018 13.9681C25.9009 13.979 25.9025 13.9899 25.9064 14.0002C25.9103 14.0106 25.9165 14.02 25.9246 14.0281C25.9327 14.0361 25.9425 14.0425 25.9534 14.0468C25.9642 14.0512 25.976 14.0535 25.9879 14.0535C25.9998 14.0535 26.0115 14.0512 26.0224 14.0468C26.0333 14.0425 26.0431 14.0361 26.0512 14.0281C26.0593 14.02 26.0655 14.0106 26.0694 14.0002C26.0733 13.9899 26.0749 13.979 26.074 13.9681C26.0723 13.9481 26.0626 13.9294 26.0466 13.9157C26.0306 13.9021 26.0097 13.8945 25.9879 13.8945C25.9661 13.8945 25.9451 13.9021 25.9292 13.9157C25.9132 13.9294 25.9034 13.9481 25.9018 13.9681Z" fill="white" stroke="black" stroke-width="0.0139605"/>
<path fill-rule="evenodd" clip-rule="evenodd" d="M25.6869 13.8645C25.6861 13.8754 25.6876 13.8864 25.6915 13.8967C25.6955 13.9071 25.7017 13.9165 25.7097 13.9245C25.7178 13.9326 25.7276 13.939 25.7385 13.9433C25.7494 13.9477 25.7612 13.95 25.773 13.95C25.7849 13.95 25.7967 13.9477 25.8076 13.9433C25.8185 13.939 25.8283 13.9326 25.8363 13.9245C25.8444 13.9165 25.8506 13.9071 25.8545 13.8967C25.8585 13.8864 25.86 13.8754 25.8591 13.8645C25.8575 13.8445 25.8477 13.8259 25.8318 13.8122C25.8158 13.7986 25.7948 13.791 25.773 13.791C25.7513 13.791 25.7303 13.7986 25.7143 13.8122C25.6984 13.8259 25.6886 13.8445 25.6869 13.8645Z" fill="white" stroke="black" stroke-width="0.0139605"/>
<path fill-rule="evenodd" clip-rule="evenodd" d="M25.4682 13.8489C25.4673 13.8598 25.4689 13.8708 25.4728 13.8811C25.4767 13.8914 25.4829 13.9009 25.491 13.9089C25.4991 13.9169 25.5089 13.9233 25.5198 13.9277C25.5307 13.9321 25.5424 13.9343 25.5543 13.9343C25.5662 13.9343 25.5779 13.9321 25.5888 13.9277C25.5997 13.9233 25.6095 13.9169 25.6176 13.9089C25.6257 13.9009 25.6319 13.8914 25.6358 13.8811C25.6397 13.8708 25.6413 13.8598 25.6404 13.8489C25.6388 13.8289 25.629 13.8102 25.613 13.7966C25.597 13.783 25.5761 13.7754 25.5543 13.7754C25.5325 13.7754 25.5115 13.783 25.4956 13.7966C25.4796 13.8102 25.4698 13.8289 25.4682 13.8489Z" fill="white" stroke="black" stroke-width="0.0139605"/>
<path fill-rule="evenodd" clip-rule="evenodd" d="M25.2455 13.8528C25.2447 13.8637 25.2462 13.8747 25.2501 13.885C25.2541 13.8953 25.2603 13.9048 25.2683 13.9128C25.2764 13.9208 25.2862 13.9272 25.2971 13.9316C25.308 13.936 25.3198 13.9382 25.3316 13.9382C25.3435 13.9382 25.3553 13.936 25.3662 13.9316C25.3771 13.9272 25.3868 13.9208 25.3949 13.9128C25.403 13.9048 25.4092 13.8953 25.4131 13.885C25.4171 13.8747 25.4186 13.8637 25.4177 13.8528C25.4161 13.8328 25.4063 13.8141 25.3904 13.8005C25.3744 13.7869 25.3534 13.7793 25.3316 13.7793C25.3099 13.7793 25.2889 13.7869 25.2729 13.8005C25.257 13.8141 25.2472 13.8328 25.2455 13.8528Z" fill="white" stroke="black" stroke-width="0.0139605"/>
<path fill-rule="evenodd" clip-rule="evenodd" d="M25.0112 13.8899C25.0103 13.9008 25.0118 13.9118 25.0158 13.9221C25.0197 13.9324 25.0259 13.9419 25.034 13.9499C25.042 13.9579 25.0518 13.9643 25.0627 13.9687C25.0736 13.9731 25.0854 13.9754 25.0973 13.9754C25.1091 13.9754 25.1209 13.9731 25.1318 13.9687C25.1427 13.9643 25.1525 13.9579 25.1606 13.9499C25.1686 13.9419 25.1748 13.9324 25.1788 13.9221C25.1827 13.9118 25.1842 13.9008 25.1834 13.8899C25.1817 13.8699 25.1719 13.8513 25.156 13.8376C25.14 13.824 25.119 13.8164 25.0973 13.8164C25.0755 13.8164 25.0545 13.824 25.0385 13.8376C25.0226 13.8513 25.0128 13.8699 25.0112 13.8899Z" fill="white" stroke="black" stroke-width="0.0139605"/>
<path fill-rule="evenodd" clip-rule="evenodd" d="M24.7846 13.9173C24.7837 13.9282 24.7853 13.9391 24.7892 13.9495C24.7931 13.9598 24.7993 13.9693 24.8074 13.9773C24.8155 13.9853 24.8253 13.9917 24.8362 13.9961C24.8471 14.0004 24.8588 14.0027 24.8707 14.0027C24.8826 14.0027 24.8943 14.0004 24.9052 13.9961C24.9161 13.9917 24.9259 13.9853 24.934 13.9773C24.9421 13.9693 24.9483 13.9598 24.9522 13.9495C24.9561 13.9391 24.9577 13.9282 24.9568 13.9173C24.9552 13.8973 24.9454 13.8786 24.9294 13.865C24.9134 13.8513 24.8925 13.8438 24.8707 13.8438C24.8489 13.8438 24.8279 13.8513 24.812 13.865C24.796 13.8786 24.7862 13.8973 24.7846 13.9173Z" fill="white" stroke="black" stroke-width="0.0139605"/>
<path fill-rule="evenodd" clip-rule="evenodd" d="M24.5307 13.9505C24.5298 13.9614 24.5314 13.9723 24.5353 13.9827C24.5392 13.993 24.5454 14.0025 24.5535 14.0105C24.5616 14.0185 24.5714 14.0249 24.5823 14.0293C24.5932 14.0336 24.6049 14.0359 24.6168 14.0359C24.6287 14.0359 24.6404 14.0336 24.6513 14.0293C24.6622 14.0249 24.672 14.0185 24.6801 14.0105C24.6882 14.0025 24.6944 13.993 24.6983 13.9827C24.7022 13.9723 24.7038 13.9614 24.7029 13.9505C24.7013 13.9305 24.6915 13.9118 24.6755 13.8982C24.6595 13.8845 24.6386 13.877 24.6168 13.877C24.595 13.877 24.574 13.8845 24.5581 13.8982C24.5421 13.9118 24.5323 13.9305 24.5307 13.9505Z" fill="white" stroke="black" stroke-width="0.0139605"/>
<path fill-rule="evenodd" clip-rule="evenodd" d="M24.3198 14.0071C24.3189 14.018 24.3204 14.029 24.3244 14.0393C24.3283 14.0496 24.3345 14.0591 24.3426 14.0671C24.3506 14.0751 24.3604 14.0815 24.3713 14.0859C24.3822 14.0903 24.394 14.0925 24.4059 14.0925C24.4177 14.0925 24.4295 14.0903 24.4404 14.0859C24.4513 14.0815 24.4611 14.0751 24.4691 14.0671C24.4772 14.0591 24.4834 14.0496 24.4873 14.0393C24.4913 14.029 24.4928 14.018 24.4919 14.0071C24.4903 13.9871 24.4805 13.9684 24.4646 13.9548C24.4486 13.9412 24.4276 13.9336 24.4059 13.9336C24.3841 13.9336 24.3631 13.9412 24.3471 13.9548C24.3312 13.9684 24.3214 13.9871 24.3198 14.0071Z" fill="white" stroke="black" stroke-width="0.0139605"/>
<path fill-rule="evenodd" clip-rule="evenodd" d="M22.1763 15.1048C22.1772 15.1157 22.1757 15.1266 22.1717 15.137C22.1678 15.1473 22.1616 15.1568 22.1535 15.1648C22.1455 15.1728 22.1357 15.1792 22.1248 15.1836C22.1139 15.1879 22.1021 15.1902 22.0902 15.1902C22.0784 15.1902 22.0666 15.1879 22.0557 15.1836C22.0448 15.1792 22.035 15.1728 22.0269 15.1648C22.0189 15.1568 22.0127 15.1473 22.0087 15.137C22.0048 15.1266 22.0033 15.1157 22.0041 15.1048C22.0058 15.0848 22.0156 15.0661 22.0315 15.0525C22.0475 15.0388 22.0685 15.0312 22.0902 15.0312C22.112 15.0312 22.133 15.0388 22.149 15.0525C22.1649 15.0661 22.1747 15.0848 22.1763 15.1048Z" fill="white" stroke="black" stroke-width="0.0139605"/>
<path fill-rule="evenodd" clip-rule="evenodd" d="M22.0904 14.9251C22.0913 14.936 22.0897 14.9469 22.0858 14.9573C22.0819 14.9676 22.0757 14.9771 22.0676 14.9851C22.0595 14.9931 22.0497 14.9995 22.0388 15.0039C22.0279 15.0082 22.0162 15.0105 22.0043 15.0105C21.9924 15.0105 21.9807 15.0082 21.9698 15.0039C21.9589 14.9995 21.9491 14.9931 21.941 14.9851C21.9329 14.9771 21.9267 14.9676 21.9228 14.9573C21.9189 14.9469 21.9173 14.936 21.9182 14.9251C21.9198 14.9051 21.9296 14.8864 21.9456 14.8728C21.9616 14.8591 21.9825 14.8516 22.0043 14.8516C22.0261 14.8516 22.0471 14.8591 22.063 14.8728C22.079 14.8864 22.0888 14.9051 22.0904 14.9251Z" fill="white" stroke="black" stroke-width="0.0139605"/>
<path fill-rule="evenodd" clip-rule="evenodd" d="M22.0474 14.7376C22.0483 14.7485 22.0468 14.7594 22.0428 14.7698C22.0389 14.7801 22.0327 14.7896 22.0246 14.7976C22.0165 14.8056 22.0068 14.812 21.9959 14.8164C21.985 14.8207 21.9732 14.823 21.9613 14.823C21.9495 14.823 21.9377 14.8207 21.9268 14.8164C21.9159 14.812 21.9061 14.8056 21.898 14.7976C21.89 14.7896 21.8838 14.7801 21.8798 14.7698C21.8759 14.7594 21.8744 14.7485 21.8752 14.7376C21.8769 14.7176 21.8867 14.6989 21.9026 14.6853C21.9186 14.6716 21.9396 14.6641 21.9613 14.6641C21.9831 14.6641 22.0041 14.6716 22.0201 14.6853C22.036 14.6989 22.0458 14.7176 22.0474 14.7376Z" fill="white" stroke="black" stroke-width="0.0139605"/>
<path fill-rule="evenodd" clip-rule="evenodd" d="M22.0162 14.5423C22.0171 14.5532 22.0155 14.5641 22.0116 14.5745C22.0077 14.5848 22.0015 14.5943 21.9934 14.6023C21.9853 14.6103 21.9755 14.6167 21.9646 14.6211C21.9537 14.6254 21.942 14.6277 21.9301 14.6277C21.9182 14.6277 21.9064 14.6254 21.8956 14.6211C21.8847 14.6167 21.8749 14.6103 21.8668 14.6023C21.8587 14.5943 21.8525 14.5848 21.8486 14.5745C21.8447 14.5641 21.8431 14.5532 21.844 14.5423C21.8456 14.5223 21.8554 14.5036 21.8714 14.49C21.8873 14.4763 21.9083 14.4688 21.9301 14.4688C21.9519 14.4688 21.9728 14.4763 21.9888 14.49C22.0048 14.5036 22.0145 14.5223 22.0162 14.5423Z" fill="white" stroke="black" stroke-width="0.0139605"/>
<path fill-rule="evenodd" clip-rule="evenodd" d="M22.024 14.3333C22.0249 14.3442 22.0233 14.3552 22.0194 14.3655C22.0155 14.3758 22.0093 14.3853 22.0012 14.3933C21.9931 14.4013 21.9833 14.4077 21.9724 14.4121C21.9615 14.4165 21.9498 14.4187 21.9379 14.4187C21.926 14.4187 21.9143 14.4165 21.9034 14.4121C21.8925 14.4077 21.8827 14.4013 21.8746 14.3933C21.8665 14.3853 21.8603 14.3758 21.8564 14.3655C21.8525 14.3552 21.8509 14.3442 21.8518 14.3333C21.8534 14.3133 21.8632 14.2946 21.8792 14.281C21.8951 14.2673 21.9161 14.2598 21.9379 14.2598C21.9597 14.2598 21.9806 14.2673 21.9966 14.281C22.0126 14.2946 22.0224 14.3133 22.024 14.3333Z" fill="white" stroke="black" stroke-width="0.0139605"/>
<path fill-rule="evenodd" clip-rule="evenodd" d="M22.0943 14.1302C22.0952 14.1411 22.0936 14.152 22.0897 14.1624C22.0858 14.1727 22.0796 14.1821 22.0715 14.1902C22.0634 14.1982 22.0536 14.2046 22.0427 14.209C22.0318 14.2133 22.0201 14.2156 22.0082 14.2156C21.9963 14.2156 21.9846 14.2133 21.9737 14.209C21.9628 14.2046 21.953 14.1982 21.9449 14.1902C21.9368 14.1821 21.9306 14.1727 21.9267 14.1624C21.9228 14.152 21.9212 14.1411 21.9221 14.1302C21.9237 14.1102 21.9335 14.0915 21.9495 14.0779C21.9655 14.0642 21.9864 14.0566 22.0082 14.0566C22.03 14.0566 22.051 14.0642 22.0669 14.0779C22.0829 14.0915 22.0927 14.1102 22.0943 14.1302Z" fill="white" stroke="black" stroke-width="0.0139605"/>
<path fill-rule="evenodd" clip-rule="evenodd" d="M22.2506 13.97C22.2514 13.9809 22.2499 13.9919 22.246 14.0022C22.242 14.0125 22.2358 14.022 22.2278 14.03C22.2197 14.038 22.2099 14.0444 22.199 14.0488C22.1881 14.0532 22.1763 14.0554 22.1645 14.0554C22.1526 14.0554 22.1408 14.0532 22.1299 14.0488C22.119 14.0444 22.1092 14.038 22.1012 14.03C22.0931 14.022 22.0869 14.0125 22.083 14.0022C22.079 13.9919 22.0775 13.9809 22.0784 13.97C22.08 13.95 22.0898 13.9313 22.1057 13.9177C22.1217 13.9041 22.1427 13.8965 22.1645 13.8965C22.1862 13.8965 22.2072 13.9041 22.2232 13.9177C22.2391 13.9313 22.2489 13.95 22.2506 13.97Z" fill="white" stroke="black" stroke-width="0.0139605"/>
<path fill-rule="evenodd" clip-rule="evenodd" d="M22.4654 13.8645C22.4663 13.8754 22.4647 13.8864 22.4608 13.8967C22.4569 13.9071 22.4507 13.9165 22.4426 13.9245C22.4345 13.9326 22.4247 13.939 22.4138 13.9433C22.4029 13.9477 22.3912 13.95 22.3793 13.95C22.3674 13.95 22.3557 13.9477 22.3448 13.9433C22.3339 13.939 22.3241 13.9326 22.316 13.9245C22.3079 13.9165 22.3017 13.9071 22.2978 13.8967C22.2939 13.8864 22.2923 13.8754 22.2932 13.8645C22.2948 13.8445 22.3046 13.8259 22.3206 13.8122C22.3366 13.7986 22.3575 13.791 22.3793 13.791C22.4011 13.791 22.4221 13.7986 22.438 13.8122C22.454 13.8259 22.4638 13.8445 22.4654 13.8645Z" fill="white" stroke="black" stroke-width="0.0139605"/>
<path fill-rule="evenodd" clip-rule="evenodd" d="M22.6802 13.8489C22.6811 13.8598 22.6796 13.8708 22.6756 13.8811C22.6717 13.8914 22.6655 13.9009 22.6574 13.9089C22.6494 13.9169 22.6396 13.9233 22.6287 13.9277C22.6178 13.9321 22.606 13.9343 22.5941 13.9343C22.5823 13.9343 22.5705 13.9321 22.5596 13.9277C22.5487 13.9233 22.5389 13.9169 22.5309 13.9089C22.5228 13.9009 22.5166 13.8914 22.5127 13.8811C22.5087 13.8708 22.5072 13.8598 22.5081 13.8489C22.5097 13.8289 22.5195 13.8102 22.5354 13.7966C22.5514 13.783 22.5724 13.7754 22.5941 13.7754C22.6159 13.7754 22.6369 13.783 22.6529 13.7966C22.6688 13.8102 22.6786 13.8289 22.6802 13.8489Z" fill="white" stroke="black" stroke-width="0.0139605"/>
<path fill-rule="evenodd" clip-rule="evenodd" d="M22.9107 13.8528C22.9116 13.8637 22.91 13.8747 22.9061 13.885C22.9022 13.8953 22.896 13.9048 22.8879 13.9128C22.8798 13.9208 22.87 13.9272 22.8591 13.9316C22.8483 13.936 22.8365 13.9382 22.8246 13.9382C22.8127 13.9382 22.801 13.936 22.7901 13.9316C22.7792 13.9272 22.7694 13.9208 22.7613 13.9128C22.7532 13.9048 22.747 13.8953 22.7431 13.885C22.7392 13.8747 22.7376 13.8637 22.7385 13.8528C22.7402 13.8328 22.7499 13.8141 22.7659 13.8005C22.7819 13.7869 22.8028 13.7793 22.8246 13.7793C22.8464 13.7793 22.8674 13.7869 22.8833 13.8005C22.8993 13.8141 22.9091 13.8328 22.9107 13.8528Z" fill="white" stroke="black" stroke-width="0.0139605"/>
<path fill-rule="evenodd" clip-rule="evenodd" d="M23.1412 13.8899C23.1421 13.9008 23.1405 13.9118 23.1366 13.9221C23.1327 13.9324 23.1265 13.9419 23.1184 13.9499C23.1103 13.9579 23.1005 13.9643 23.0896 13.9687C23.0787 13.9731 23.067 13.9754 23.0551 13.9754C23.0432 13.9754 23.0314 13.9731 23.0206 13.9687C23.0097 13.9643 22.9999 13.9579 22.9918 13.9499C22.9837 13.9419 22.9775 13.9324 22.9736 13.9221C22.9697 13.9118 22.9681 13.9008 22.969 13.8899C22.9706 13.8699 22.9804 13.8513 22.9964 13.8376C23.0123 13.824 23.0333 13.8164 23.0551 13.8164C23.0769 13.8164 23.0978 13.824 23.1138 13.8376C23.1298 13.8513 23.1395 13.8699 23.1412 13.8899Z" fill="white" stroke="black" stroke-width="0.0139605"/>
<path fill-rule="evenodd" clip-rule="evenodd" d="M23.3756 13.9173C23.3764 13.9282 23.3749 13.9391 23.371 13.9495C23.367 13.9598 23.3608 13.9693 23.3528 13.9773C23.3447 13.9853 23.3349 13.9917 23.324 13.9961C23.3131 14.0004 23.3013 14.0027 23.2895 14.0027C23.2776 14.0027 23.2658 14.0004 23.2549 13.9961C23.244 13.9917 23.2342 13.9853 23.2262 13.9773C23.2181 13.9693 23.2119 13.9598 23.208 13.9495C23.204 13.9391 23.2025 13.9282 23.2034 13.9173C23.205 13.8973 23.2148 13.8786 23.2307 13.865C23.2467 13.8513 23.2677 13.8438 23.2895 13.8438C23.3112 13.8438 23.3322 13.8513 23.3482 13.865C23.3641 13.8786 23.3739 13.8973 23.3756 13.9173Z" fill="white" stroke="black" stroke-width="0.0139605"/>
<path fill-rule="evenodd" clip-rule="evenodd" d="M23.6177 13.9505C23.6186 13.9614 23.6171 13.9723 23.6131 13.9827C23.6092 13.993 23.603 14.0025 23.5949 14.0105C23.5869 14.0185 23.5771 14.0249 23.5662 14.0293C23.5553 14.0336 23.5435 14.0359 23.5316 14.0359C23.5198 14.0359 23.508 14.0336 23.4971 14.0293C23.4862 14.0249 23.4764 14.0185 23.4684 14.0105C23.4603 14.0025 23.4541 13.993 23.4502 13.9827C23.4462 13.9723 23.4447 13.9614 23.4456 13.9505C23.4472 13.9305 23.457 13.9118 23.4729 13.8982C23.4889 13.8845 23.5099 13.877 23.5316 13.877C23.5534 13.877 23.5744 13.8845 23.5904 13.8982C23.6063 13.9118 23.6161 13.9305 23.6177 13.9505Z" fill="white" stroke="black" stroke-width="0.0139605"/>
<path fill-rule="evenodd" clip-rule="evenodd" d="M23.8326 14.0071C23.8335 14.018 23.8319 14.029 23.828 14.0393C23.8241 14.0496 23.8179 14.0591 23.8098 14.0671C23.8017 14.0751 23.7919 14.0815 23.781 14.0859C23.7701 14.0903 23.7584 14.0925 23.7465 14.0925C23.7346 14.0925 23.7229 14.0903 23.712 14.0859C23.7011 14.0815 23.6913 14.0751 23.6832 14.0671C23.6751 14.0591 23.6689 14.0496 23.665 14.0393C23.6611 14.029 23.6595 14.018 23.6604 14.0071C23.662 13.9871 23.6718 13.9684 23.6878 13.9548C23.7037 13.9412 23.7247 13.9336 23.7465 13.9336C23.7683 13.9336 23.7892 13.9412 23.8052 13.9548C23.8212 13.9684 23.831 13.9871 23.8326 14.0071Z" fill="white" stroke="black" stroke-width="0.0139605"/>
<path fill-rule="evenodd" clip-rule="evenodd" d="M22.3013 15.2669C22.3022 15.2778 22.3007 15.2887 22.2967 15.2991C22.2928 15.3094 22.2866 15.3189 22.2785 15.3269C22.2705 15.3349 22.2607 15.3413 22.2498 15.3457C22.2389 15.35 22.2271 15.3523 22.2152 15.3523C22.2034 15.3523 22.1916 15.35 22.1807 15.3457C22.1698 15.3413 22.16 15.3349 22.1519 15.3269C22.1439 15.3189 22.1377 15.3094 22.1337 15.2991C22.1298 15.2887 22.1283 15.2778 22.1291 15.2669C22.1308 15.2469 22.1406 15.2282 22.1565 15.2146C22.1725 15.2009 22.1935 15.1934 22.2152 15.1934C22.237 15.1934 22.258 15.2009 22.274 15.2146C22.2899 15.2282 22.2997 15.2469 22.3013 15.2669Z" fill="white" stroke="black" stroke-width="0.0139605"/>
<path fill-rule="evenodd" clip-rule="evenodd" d="M22.3582 15.2701C22.3582 15.2701 22.0284 15.038 22.0196 14.4794C22.0148 14.1579 22.1865 13.9258 22.6162 13.9258C23.2176 13.9258 24.0766 14.1629 24.0766 14.1629V14.2419C24.0766 14.2419 23.3893 14.0048 22.6157 14.0048C22.2723 14.0048 22.1001 14.237 22.1001 14.4745C22.1001 14.8701 22.4445 15.2706 22.4445 15.2706V15.9032H22.3582V15.2701Z" fill="#FFF100" stroke="black" stroke-width="0.0139605"/>
<path fill-rule="evenodd" clip-rule="evenodd" d="M22.957 15.5635C22.957 15.5635 22.9818 15.5032 23.0717 15.5032C23.1328 15.5032 23.1861 15.5635 23.1861 15.6237V15.7443H23.2435V15.6237C23.2435 15.5635 23.3007 15.5032 23.358 15.5032C23.444 15.5032 23.4726 15.5635 23.4726 15.5635C23.4726 15.5635 23.4726 15.3826 23.358 15.3826C23.2721 15.3826 23.2435 15.4429 23.2435 15.4429C23.2435 15.4429 23.2721 15.3525 23.2721 15.262C23.2721 15.1715 23.2149 15.1113 23.2149 15.1113C23.2149 15.1229 23.1575 15.1717 23.1575 15.262C23.1575 15.3524 23.1861 15.4429 23.1861 15.4429C23.1861 15.4429 23.1575 15.3826 23.0717 15.3826C22.957 15.3826 22.957 15.5635 22.957 15.5635Z" fill="#FFF100" stroke="black" stroke-width="0.0111934"/>
<path fill-rule="evenodd" clip-rule="evenodd" d="M24.6758 15.5635C24.6758 15.5635 24.7005 15.5032 24.7904 15.5032C24.8515 15.5032 24.9049 15.5635 24.9049 15.6237V15.7443H24.9622V15.6237C24.9622 15.5635 25.0195 15.5032 25.0767 15.5032C25.1627 15.5032 25.1913 15.5635 25.1913 15.5635C25.1913 15.5635 25.1913 15.3826 25.0767 15.3826C24.9909 15.3826 24.9622 15.4429 24.9622 15.4429C24.9622 15.4429 24.9909 15.3525 24.9909 15.262C24.9909 15.1715 24.9336 15.1113 24.9336 15.1113C24.9336 15.1229 24.8762 15.1717 24.8762 15.262C24.8762 15.3524 24.9049 15.4429 24.9049 15.4429C24.9049 15.4429 24.8762 15.3826 24.7904 15.3826C24.6758 15.3826 24.6758 15.5635 24.6758 15.5635Z" fill="#FFF100" stroke="black" stroke-width="0.0111934"/>
<path fill-rule="evenodd" clip-rule="evenodd" d="M22.3594 16.3794V15.6673C22.3594 15.6673 22.5311 15.9048 22.7891 15.9048C23.0001 15.9048 23.2188 15.5883 23.2188 15.5883C23.2188 15.5883 23.4201 15.8258 23.6486 15.8258C23.8523 15.8258 24.0778 15.5195 24.0778 15.5195C24.0778 15.5195 24.2873 15.8258 24.5076 15.8258C24.7282 15.8258 24.9373 15.5883 24.9373 15.5883C24.9373 15.5883 25.1618 15.9048 25.4529 15.9048C25.7104 15.9048 25.7967 15.6673 25.7967 15.6673V16.3794H22.3594Z" fill="#FFF100" stroke="black" stroke-width="0.0139605"/>
<path fill-rule="evenodd" clip-rule="evenodd" d="M22.3555 16.3778V15.8242C22.3555 15.8242 22.8711 15.9818 22.8711 16.3778H22.3555Z" fill="#FFF100" stroke="black" stroke-width="0.0139605"/>
<path fill-rule="evenodd" clip-rule="evenodd" d="M25.793 16.3778V15.8242C25.793 15.8242 25.2774 15.9818 25.2774 16.3778H25.793Z" fill="#FFF100" stroke="black" stroke-width="0.0139605"/>
<path fill-rule="evenodd" clip-rule="evenodd" d="M22.7031 16.3785C22.7031 15.9824 23.2187 15.7324 23.2187 15.7324C23.2187 15.7324 23.7343 15.9824 23.7343 16.3785H22.7031Z" fill="#FFF100" stroke="black" stroke-width="0.0139605"/>
<path fill-rule="evenodd" clip-rule="evenodd" d="M24.4219 16.3785C24.4219 15.9824 24.9375 15.7324 24.9375 15.7324C24.9375 15.7324 25.453 15.9824 25.453 16.3785H24.4219Z" fill="#FFF100" stroke="black" stroke-width="0.0139605"/>
<path fill-rule="evenodd" clip-rule="evenodd" d="M23.4766 16.3816C23.4766 15.986 24.0785 15.6699 24.0785 15.6699C24.0785 15.6699 24.6799 15.986 24.6799 16.3816H23.477H23.4766Z" fill="#FFF100" stroke="black" stroke-width="0.0139605"/>
<path fill-rule="evenodd" clip-rule="evenodd" d="M25.8821 16.3788C25.7123 16.2997 25.086 16.2207 24.0775 16.2207C23.0691 16.2207 22.3991 16.2997 22.2289 16.3788C22.0591 16.4578 22.0591 16.6163 22.2289 16.6953C22.3986 16.7743 23.0695 16.8534 24.0775 16.8534C25.0856 16.8534 25.7123 16.7743 25.8821 16.6953C26.0519 16.6163 26.0519 16.4578 25.8821 16.3788Z" fill="white" stroke="black" stroke-width="0.0138815"/>
<path fill-rule="evenodd" clip-rule="evenodd" d="M25.7981 16.6966C25.7981 16.8541 24.3656 16.8541 24.0769 16.8541C23.7656 16.8541 22.3594 16.8991 22.3594 16.6966C22.3594 16.5391 23.7769 16.5391 24.0769 16.5391C24.3769 16.5391 25.7981 16.5691 25.7981 16.6966Z" fill="#808080"/>
<path fill-rule="evenodd" clip-rule="evenodd" d="M22.5319 16.125C22.5319 16.1775 22.4944 16.2225 22.4456 16.2225C22.3969 16.2225 22.3594 16.1775 22.3594 16.125C22.3594 16.0725 22.3969 16.0312 22.4456 16.0312C22.4906 16.0312 22.5319 16.0763 22.5319 16.125ZM25.7944 16.125C25.7944 16.1775 25.7569 16.2225 25.7081 16.2225C25.6631 16.2225 25.6219 16.1775 25.6219 16.125C25.6219 16.0725 25.6594 16.0312 25.7081 16.0312C25.7569 16.0312 25.7944 16.0763 25.7944 16.125Z" fill="#CC0000"/>
<path fill-rule="evenodd" clip-rule="evenodd" d="M24.2473 16.0819C24.2473 16.1306 24.1686 16.1719 24.0748 16.1719C23.9848 16.1719 23.9023 16.1306 23.9023 16.0781C23.9023 16.0256 23.9773 15.9844 24.0748 15.9844C24.1723 15.9844 24.2473 16.0294 24.2473 16.0781V16.0819Z" fill="black"/>
<path fill-rule="evenodd" clip-rule="evenodd" d="M25.0717 16.0819C25.0717 16.1306 25.0117 16.1719 24.9405 16.1719C24.8692 16.1719 24.813 16.1306 24.813 16.0781C24.813 16.0256 24.873 15.9844 24.9405 15.9844C25.008 15.9844 25.0717 16.0294 25.0717 16.0781V16.0819ZM23.3017 16.0819C23.3017 16.1306 23.2455 16.1719 23.1742 16.1719C23.103 16.1719 23.043 16.1306 23.043 16.0781C23.043 16.0256 23.0992 15.9844 23.1742 15.9844C23.2455 15.9844 23.3017 16.0294 23.3017 16.0781V16.0819Z" fill="#006300"/>
<path fill-rule="evenodd" clip-rule="evenodd" d="M23.7347 15.5361C23.7347 15.5361 23.8328 15.4009 23.9311 15.4009H24.0292V15.4909C24.0292 15.6267 23.8821 15.6721 23.8821 15.6721H24.2748C24.2748 15.6721 24.1273 15.6267 24.1273 15.4909V15.4009H24.2257C24.3238 15.4009 24.4219 15.5366 24.4219 15.5366V15.1745C24.4219 15.1745 24.3238 15.3103 24.2257 15.3103H24.1273V15.2197C24.1273 15.0842 24.2748 15.0391 24.2748 15.0391H23.8818C23.8818 15.0391 24.029 15.0842 24.029 15.2197V15.3103H23.9309C23.8325 15.3103 23.7344 15.1745 23.7344 15.1745V15.5363L23.7347 15.5361Z" fill="#FFF100" stroke="black" stroke-width="0.0131626"/>
<path fill-rule="evenodd" clip-rule="evenodd" d="M22.3555 15.8251H22.4537C22.4537 15.8251 22.38 15.7856 22.38 15.6668V15.588H22.4291C22.4783 15.588 22.5275 15.7068 22.5275 15.7068V15.39C22.5275 15.39 22.4783 15.5088 22.4291 15.5088H22.38V15.4295C22.38 15.311 22.4537 15.2715 22.4537 15.2715H22.3555V15.8251Z" fill="#FFF100" stroke="black" stroke-width="0.0130606"/>
<path fill-rule="evenodd" clip-rule="evenodd" d="M25.7969 15.8251H25.6986C25.6986 15.8251 25.7723 15.7856 25.7723 15.6668V15.588H25.7233C25.6741 15.588 25.6249 15.7068 25.6249 15.7068V15.39C25.6249 15.39 25.6741 15.5088 25.7233 15.5088H25.7723V15.4295C25.7723 15.311 25.6986 15.2715 25.6986 15.2715H25.7969V15.8251Z" fill="#FFF100" stroke="black" stroke-width="0.0130606"/>
<path fill-rule="evenodd" clip-rule="evenodd" d="M24.1639 15.3505C24.1639 15.3715 24.1548 15.3916 24.1387 15.4064C24.1226 15.4212 24.1008 15.4295 24.078 15.4295C24.0553 15.4295 24.0334 15.4212 24.0173 15.4064C24.0012 15.3916 23.9922 15.3715 23.9922 15.3505C23.9922 15.3296 24.0012 15.3095 24.0173 15.2946C24.0334 15.2798 24.0553 15.2715 24.078 15.2715C24.1008 15.2715 24.1226 15.2798 24.1387 15.2946C24.1548 15.3095 24.1639 15.3296 24.1639 15.3505V15.3505Z" fill="white" stroke="black" stroke-width="0.0139605"/>
<path fill-rule="evenodd" clip-rule="evenodd" d="M23.7347 13.874C23.7347 13.874 23.8328 13.7388 23.9311 13.7388H24.0292V13.8288C24.0292 13.9646 23.8821 14.01 23.8821 14.01H24.2748C24.2748 14.01 24.1273 13.9646 24.1273 13.8288V13.7388H24.2257C24.3238 13.7388 24.4219 13.8745 24.4219 13.8745V13.5124C24.4219 13.5124 24.3238 13.6482 24.2257 13.6482H24.1273V13.5576C24.1273 13.4221 24.2748 13.377 24.2748 13.377H23.8818C23.8818 13.377 24.029 13.4221 24.029 13.5576V13.6482H23.9309C23.8325 13.6482 23.7344 13.5124 23.7344 13.5124V13.8742L23.7347 13.874Z" fill="#FFF100" stroke="black" stroke-width="0.0131626"/>
<path fill-rule="evenodd" clip-rule="evenodd" d="M24.1717 13.704C24.1717 13.725 24.1627 13.7451 24.1466 13.7599C24.1305 13.7747 24.1086 13.7831 24.0858 13.7831C24.0631 13.7831 24.0412 13.7747 24.0251 13.7599C24.009 13.7451 24 13.725 24 13.704C24 13.6831 24.009 13.663 24.0251 13.6481C24.0412 13.6333 24.0631 13.625 24.0858 13.625C24.1086 13.625 24.1305 13.6333 24.1466 13.6481C24.1627 13.663 24.1717 13.6831 24.1717 13.704V13.704Z" fill="white" stroke="black" stroke-width="0.0139605"/>
<path fill-rule="evenodd" clip-rule="evenodd" d="M23.9067 14.0098H24.2506V14.2473H23.9062L23.9067 14.0098Z" fill="#FFF100" stroke="black" stroke-width="0.0139605"/>
<path fill-rule="evenodd" clip-rule="evenodd" d="M23.9067 14.1328H24.2506V15.0369H23.9062L23.9067 14.1328Z" fill="#FFF100" stroke="black" stroke-width="0.0139605"/>
<path fill-rule="evenodd" clip-rule="evenodd" d="M24.1607 14.8723C24.1616 14.8833 24.16 14.8942 24.1561 14.9045C24.1522 14.9149 24.146 14.9243 24.1379 14.9324C24.1298 14.9404 24.12 14.9468 24.1091 14.9511C24.0983 14.9555 24.0865 14.9578 24.0746 14.9578C24.0627 14.9578 24.051 14.9555 24.0401 14.9511C24.0292 14.9468 24.0194 14.9404 24.0113 14.9324C24.0032 14.9243 23.997 14.9149 23.9931 14.9045C23.9892 14.8942 23.9876 14.8833 23.9885 14.8723C23.9902 14.8524 23.9999 14.8337 24.0159 14.82C24.0319 14.8064 24.0528 14.7988 24.0746 14.7988C24.0964 14.7988 24.1174 14.8064 24.1333 14.82C24.1493 14.8337 24.1591 14.8524 24.1607 14.8723Z" fill="white" stroke="black" stroke-width="0.0139605"/>
<path fill-rule="evenodd" clip-rule="evenodd" d="M24.1607 14.6712C24.1616 14.6821 24.16 14.693 24.1561 14.7034C24.1522 14.7137 24.146 14.7232 24.1379 14.7312C24.1298 14.7392 24.12 14.7456 24.1091 14.75C24.0983 14.7543 24.0865 14.7566 24.0746 14.7566C24.0627 14.7566 24.051 14.7543 24.0401 14.75C24.0292 14.7456 24.0194 14.7392 24.0113 14.7312C24.0032 14.7232 23.997 14.7137 23.9931 14.7034C23.9892 14.693 23.9876 14.6821 23.9885 14.6712C23.9902 14.6512 23.9999 14.6325 24.0159 14.6189C24.0319 14.6052 24.0528 14.5977 24.0746 14.5977C24.0964 14.5977 24.1174 14.6052 24.1333 14.6189C24.1493 14.6325 24.1591 14.6512 24.1607 14.6712Z" fill="white" stroke="black" stroke-width="0.0139605"/>
<path fill-rule="evenodd" clip-rule="evenodd" d="M24.1607 14.4837C24.1616 14.4946 24.16 14.5055 24.1561 14.5159C24.1522 14.5262 24.146 14.5357 24.1379 14.5437C24.1298 14.5517 24.12 14.5581 24.1091 14.5625C24.0983 14.5668 24.0865 14.5691 24.0746 14.5691C24.0627 14.5691 24.051 14.5668 24.0401 14.5625C24.0292 14.5581 24.0194 14.5517 24.0113 14.5437C24.0032 14.5357 23.997 14.5262 23.9931 14.5159C23.9892 14.5055 23.9876 14.4946 23.9885 14.4837C23.9902 14.4637 23.9999 14.445 24.0159 14.4314C24.0319 14.4177 24.0528 14.4102 24.0746 14.4102C24.0964 14.4102 24.1174 14.4177 24.1333 14.4314C24.1493 14.445 24.1591 14.4637 24.1607 14.4837Z" fill="white" stroke="black" stroke-width="0.0139605"/>
<path fill-rule="evenodd" clip-rule="evenodd" d="M24.1607 14.2845C24.1616 14.2954 24.16 14.3063 24.1561 14.3166C24.1522 14.327 24.146 14.3364 24.1379 14.3445C24.1298 14.3525 24.12 14.3589 24.1091 14.3633C24.0983 14.3676 24.0865 14.3699 24.0746 14.3699C24.0627 14.3699 24.051 14.3676 24.0401 14.3633C24.0292 14.3589 24.0194 14.3525 24.0113 14.3445C24.0032 14.3364 23.997 14.327 23.9931 14.3166C23.9892 14.3063 23.9876 14.2954 23.9885 14.2845C23.9902 14.2645 23.9999 14.2458 24.0159 14.2321C24.0319 14.2185 24.0528 14.2109 24.0746 14.2109C24.0964 14.2109 24.1174 14.2185 24.1333 14.2321C24.1493 14.2458 24.1591 14.2645 24.1607 14.2845Z" fill="white" stroke="black" stroke-width="0.0139605"/>
<path fill-rule="evenodd" clip-rule="evenodd" d="M24.2613 16.3802C24.2613 16.4177 24.1826 16.4439 24.0814 16.4439C23.9801 16.4439 23.9126 16.4177 23.9126 16.3802C23.9126 16.3427 23.9876 16.3164 24.0851 16.3164C24.1826 16.3164 24.2613 16.3464 24.2613 16.3802ZM25.8401 16.5377C25.8289 16.5639 25.7426 16.5677 25.6489 16.5377C25.5514 16.5189 25.4839 16.4852 25.4914 16.4627C25.5026 16.4327 25.5888 16.4327 25.6826 16.4552C25.7801 16.4777 25.8476 16.5114 25.8401 16.5377ZM25.1763 16.4327C25.1763 16.4627 25.0901 16.4814 24.9888 16.4777C24.8951 16.4702 24.8163 16.4402 24.8201 16.4027C24.8238 16.3727 24.9101 16.3577 25.0076 16.3652C25.1051 16.3689 25.1838 16.3989 25.1763 16.4327ZM22.2701 16.5377C22.2776 16.5639 22.3638 16.5677 22.4576 16.5377C22.5551 16.5189 22.6263 16.4852 22.6151 16.4627C22.6038 16.4327 22.5213 16.4327 22.4276 16.4552C22.3301 16.4777 22.2626 16.5114 22.2701 16.5377ZM22.9638 16.4177C22.9676 16.4477 23.0538 16.4664 23.1513 16.4589C23.2488 16.4514 23.3276 16.4214 23.3201 16.3877C23.3201 16.3614 23.2338 16.3389 23.1326 16.3464C23.0388 16.3539 22.9601 16.3839 22.9638 16.4177Z" fill="black"/>
<path d="M6 3H18V12H6V3Z" fill="#012169"/>
<path d="M7.40625 3L11.9813 6.39375L16.5375 3H18V4.1625L13.5 7.51875L18 10.8563V12H16.5L12 8.64375L7.51875 12H6V10.875L10.4813 7.5375L6 4.2V3H7.40625Z" fill="white"/>
<path d="M13.95 8.26875L18 11.25V12L12.9188 8.26875H13.95ZM10.5 8.64375L10.6125 9.3L7.0125 12H6L10.5 8.64375ZM18 3V3.05625L13.3313 6.58125L13.3688 5.75625L17.0625 3H18ZM6 3L10.4813 6.3H9.35625L6 3.7875V3Z" fill="#C8102E"/>
<path d="M10.5188 3V12H13.5188V3H10.5188ZM6 6V9H18V6H6Z" fill="white"/>
<path d="M6 6.61875V8.41875H18V6.61875H6ZM11.1188 3V12H12.9188V3H11.1188Z" fill="#C8102E"/>
</g>
</g>
<defs>
<filter id="filter0_d_336_24949" x="0" y="-2" width="36" height="36" filterUnits="userSpaceOnUse" color-interpolation-filters="sRGB">
<feFlood flood-opacity="0" result="BackgroundImageFix"/>
<feColorMatrix in="SourceAlpha" type="matrix" values="0 0 0 0 0 0 0 0 0 0 0 0 0 0 0 0 0 0 127 0" result="hardAlpha"/>
<feOffset dy="4"/>
<feGaussianBlur stdDeviation="3"/>
<feComposite in2="hardAlpha" operator="out"/>
<feColorMatrix type="matrix" values="0 0 0 0 0 0 0 0 0 0 0 0 0 0 0 0 0 0 0.16 0"/>
<feBlend mode="normal" in2="BackgroundImageFix" result="effect1_dropShadow_336_24949"/>
<feBlend mode="normal" in="SourceGraphic" in2="effect1_dropShadow_336_24949" result="shape"/>
</filter>
<clipPath id="clip0_336_24949">
<rect width="24" height="18" fill="white" transform="translate(6 3)"/>
</clipPath>
</defs>
</svg>
