<svg width="36" height="31" viewBox="0 0 36 31" fill="none" xmlns="http://www.w3.org/2000/svg">
<g filter="url(#filter0_d_336_32727)">
<g clip-path="url(#clip0_336_32727)">
<path d="M6 3H30V21H6V3Z" fill="#009FCA"/>
<path fill-rule="evenodd" clip-rule="evenodd" d="M28.2506 7.60203H29.2894L28.4531 8.17203L28.7719 9.09828L27.9356 8.52453L27.1031 9.09828L27.4219 8.17203L26.5856 7.60203H27.6169L27.9356 6.67578L28.2506 7.60203ZM25.6556 14.982H26.6906L25.8544 15.552L26.1731 16.4783L25.3369 15.9045L24.5006 16.4783L24.8231 15.552L23.9869 14.982H25.0144L25.3331 14.0558L25.6556 14.982ZM28.2506 13.3095H29.2894L28.4531 13.8795L28.7719 14.8058L27.9356 14.232L27.1031 14.8058L27.4219 13.8795L26.5856 13.3095H27.6169L27.9356 12.3833L28.2506 13.3095ZM17.0944 18.6645H18.1294L17.2894 19.2308L17.6119 20.1533L16.7756 19.5833L15.9394 20.1533L16.2619 19.2308L15.4219 18.657H16.4569L16.7756 17.7345L17.0944 18.6645ZM19.4419 15.7958H18.4069L19.2431 15.222L18.9244 14.2995L19.7606 14.8695L20.5969 14.2995L20.2744 15.222L21.1106 15.7958H20.0794L19.7606 16.7183L19.4419 15.7958ZM22.4906 11.577H21.4519L22.2881 11.007L21.9694 10.0808L22.8056 10.6545L23.6419 10.0808L23.3194 11.007L24.1556 11.577H23.1244L22.8056 12.5033L22.4906 11.577ZM25.0519 10.7033H24.0169L24.8569 10.1295L24.5344 9.20703L25.3706 9.77703L26.2069 9.20703L25.8844 10.1295L26.7244 10.7033H25.6894L25.3706 11.6258L25.0519 10.7033ZM22.4906 18.0008H21.4519L22.2881 17.4308L21.9769 16.5008L22.8131 17.0708L23.6494 16.5008L23.3269 17.427L24.1631 17.997H23.1319L22.8131 18.9233L22.4906 18.0008ZM19.4419 18.747H18.4069L19.2431 18.177L18.9244 17.2508L19.7606 17.8208L20.5969 17.2508L20.2744 18.1733L21.1144 18.7508H20.0831L19.7644 19.677L19.4419 18.747Z" fill="#FFF40D"/>
<path d="M6 3H18V12H6V3Z" fill="#012169"/>
<path d="M7.40625 3L11.9813 6.39375L16.5375 3H18V4.1625L13.5 7.51875L18 10.8563V12H16.5L12 8.64375L7.51875 12H6V10.875L10.4813 7.5375L6 4.2V3H7.40625Z" fill="white"/>
<path d="M13.95 8.26875L18 11.25V12L12.9188 8.26875H13.95ZM10.5 8.64375L10.6125 9.3L7.0125 12H6L10.5 8.64375ZM18 3V3.05625L13.3313 6.58125L13.3688 5.75625L17.0625 3H18ZM6 3L10.4813 6.3H9.35625L6 3.7875V3Z" fill="#C8102E"/>
<path d="M10.5188 3V12H13.5188V3H10.5188ZM6 6V9H18V6H6Z" fill="white"/>
<path d="M6 6.61875V8.41875H18V6.61875H6ZM11.1188 3V12H12.9188V3H11.1188Z" fill="#C8102E"/>
</g>
</g>
<defs>
<filter id="filter0_d_336_32727" x="0" y="-2" width="36" height="36" filterUnits="userSpaceOnUse" color-interpolation-filters="sRGB">
<feFlood flood-opacity="0" result="BackgroundImageFix"/>
<feColorMatrix in="SourceAlpha" type="matrix" values="0 0 0 0 0 0 0 0 0 0 0 0 0 0 0 0 0 0 127 0" result="hardAlpha"/>
<feOffset dy="4"/>
<feGaussianBlur stdDeviation="3"/>
<feComposite in2="hardAlpha" operator="out"/>
<feColorMatrix type="matrix" values="0 0 0 0 0 0 0 0 0 0 0 0 0 0 0 0 0 0 0.16 0"/>
<feBlend mode="normal" in2="BackgroundImageFix" result="effect1_dropShadow_336_32727"/>
<feBlend mode="normal" in="SourceGraphic" in2="effect1_dropShadow_336_32727" result="shape"/>
</filter>
<clipPath id="clip0_336_32727">
<rect width="24" height="18" fill="white" transform="translate(6 3)"/>
</clipPath>
</defs>
</svg>
