<svg width="36" height="31" viewBox="0 0 36 31" fill="none" xmlns="http://www.w3.org/2000/svg">
<g filter="url(#filter0_d_336_29911)">
<g clip-path="url(#clip0_336_29911)">
<path fill-rule="evenodd" clip-rule="evenodd" d="M6.06172 3L6.04297 21H30.043L6.06172 3Z" fill="black"/>
<path fill-rule="evenodd" clip-rule="evenodd" d="M30.0242 21L30.043 3H6.04297L30.0242 21Z" fill="#FF0000"/>
<path d="M20.8628 7.47934L20.5465 7.46275C20.4466 7.2305 20.1719 7.14755 19.9971 7.24709C19.6751 7.24715 19.3532 7.24162 19.0314 7.2305L19.6225 7.48764C19.7806 7.89408 20.2801 7.97703 20.2801 7.97703C20.2302 8.70697 19.5392 7.88579 18.9565 8.30053C18.5403 8.54937 18.5403 8.83969 18.3155 9.32078C18.2406 9.4535 17.9492 9.80188 17.9492 9.80188L18.4404 9.76041L18.2822 9.96778L18.8649 9.88483L18.7401 10.001C18.8233 10.0175 19.406 9.85994 19.406 9.85994L19.3644 10.0507L20.0304 9.81017C20.0304 9.81017 20.1636 9.91801 20.2801 9.96778L20.3633 9.63598L20.6963 9.71893L20.7796 9.38714C21.2791 10.0507 21.4455 10.7143 22.3612 10.8802L22.278 10.5484C22.5214 10.6546 22.7629 10.7652 23.0022 10.8802L23.0772 10.7392C23.4767 11.0212 23.8014 11.0129 24.0262 11.0461L23.8597 10.6314L24.0262 10.7143L23.7764 10.0507L24.0262 10.1337L23.6932 9.63598L23.8181 9.55304L23.7764 9.30419C24.2759 9.47009 24.9419 9.71893 25.0251 10.2996C25.1084 11.212 24.1094 11.4608 23.4434 11.3779C23.9429 11.7926 24.8586 11.6267 25.2749 11.212C25.4413 11.0461 25.5246 10.7973 25.6078 10.5484C25.6911 10.7973 25.8576 11.129 25.8576 11.4608C25.7743 12.2074 24.7754 12.4562 24.1094 12.5392C24.8586 12.9539 26.1906 12.4562 26.2738 11.3779C26.2738 10.4655 25.6911 10.0507 25.4413 9.63598L25.3581 9.18807L25.6078 9.30419C25.6078 9.30419 25.458 9.03047 25.4413 8.9724C25.4413 8.9724 25.1833 8.26735 25.0917 8.10975L25.2749 8.14292L24.5922 7.28856L24.7837 7.27197C24.7837 7.27197 23.9929 6.64987 23.7764 6.56692L24.0262 6.48397C23.5267 6.23513 22.944 6.40102 22.4445 6.73281L22.5277 6.48397L22.3779 6.50056V6.21024L22.5277 5.98628L22.278 5.90334L22.4445 5.4886L22.1948 5.57154L22.278 5.15681C22.278 5.15681 22.0949 5.23975 21.9783 5.23146C22.0261 5.13909 22.0706 5.04502 22.1115 4.94944C22.0283 4.82502 22.1115 4.57617 22.1115 4.57617C21.5288 4.65912 21.4455 4.74207 21.1126 5.23975C20.6131 6.15218 20.7796 6.56692 20.8628 7.47934Z" fill="#FFCC00" stroke="#FFCC00" stroke-width="0.203125"/>
<path fill-rule="evenodd" clip-rule="evenodd" d="M24.0078 8.83984C24.0494 8.9145 24.5239 9.13846 24.8736 9.33753C24.782 8.95597 24.0911 8.87302 24.0078 8.83984Z" fill="#FF0000" stroke="#FF0000" stroke-width="0.258523"/>
<path fill-rule="evenodd" clip-rule="evenodd" d="M12.5653 17.9618L12.0328 17.6243L11.3203 17.9655L11.4816 17.358L10.9378 16.7918L11.5641 16.7543L11.9391 16.0643L12.1678 16.6455L12.9441 16.788L12.4566 17.1855L12.5653 17.9618ZM13.9228 14.9993L13.6753 14.8868L13.4391 15.0218L13.4766 14.7518L13.2741 14.568L13.5403 14.5193L13.6528 14.2718L13.7841 14.5118L14.0541 14.5418L13.8666 14.7368L13.9228 14.9993ZM15.1228 13.3043L14.5791 13.0418L14.0578 13.3343L14.1441 12.7455L13.7016 12.3405L14.2903 12.2355L14.5378 11.6955L14.8228 12.2205L15.4153 12.288L15.0028 12.7193L15.1228 13.3043ZM12.6553 10.9418L12.0178 10.623L11.3991 10.9643L11.5041 10.2668L10.9866 9.7793L11.6878 9.6668L11.9878 9.0293L12.3141 9.65555L13.0191 9.7418L12.5203 10.2443L12.6553 10.9418ZM10.3753 13.3943L9.73781 13.0193L9.10031 13.4055L9.26156 12.6818L8.69531 12.1943L9.43406 12.1268L9.72281 11.4405L10.0191 12.123L10.7616 12.183L10.2028 12.6705L10.3753 13.3943Z" fill="white"/>
</g>
</g>
<defs>
<filter id="filter0_d_336_29911" x="0" y="-2" width="36" height="36" filterUnits="userSpaceOnUse" color-interpolation-filters="sRGB">
<feFlood flood-opacity="0" result="BackgroundImageFix"/>
<feColorMatrix in="SourceAlpha" type="matrix" values="0 0 0 0 0 0 0 0 0 0 0 0 0 0 0 0 0 0 127 0" result="hardAlpha"/>
<feOffset dy="4"/>
<feGaussianBlur stdDeviation="3"/>
<feComposite in2="hardAlpha" operator="out"/>
<feColorMatrix type="matrix" values="0 0 0 0 0 0 0 0 0 0 0 0 0 0 0 0 0 0 0.16 0"/>
<feBlend mode="normal" in2="BackgroundImageFix" result="effect1_dropShadow_336_29911"/>
<feBlend mode="normal" in="SourceGraphic" in2="effect1_dropShadow_336_29911" result="shape"/>
</filter>
<clipPath id="clip0_336_29911">
<rect width="24" height="18" fill="white" transform="translate(6 3)"/>
</clipPath>
</defs>
</svg>
