<svg width="36" height="31" viewBox="0 0 36 31" fill="none" xmlns="http://www.w3.org/2000/svg">
<g filter="url(#filter0_d_336_28965)">
<g clip-path="url(#clip0_336_28965)">
<path fill-rule="evenodd" clip-rule="evenodd" d="M6 3H13.9988V21H6V3Z" fill="#00319C"/>
<path fill-rule="evenodd" clip-rule="evenodd" d="M14 3H22.0025V21H14V3Z" fill="#FFDE00"/>
<path fill-rule="evenodd" clip-rule="evenodd" d="M22 3H29.9987V21H22V3Z" fill="#DE2110"/>
<path fill-rule="evenodd" clip-rule="evenodd" d="M19.5156 15.0152L20.4231 16.3277C20.4756 16.4027 20.5244 16.474 20.4494 16.5227C20.3744 16.5715 20.3969 16.7627 20.4494 16.8377C20.5506 16.984 20.6744 17.0065 20.7494 16.9577L21.4394 16.5227C21.5144 16.4777 21.5406 16.354 21.4394 16.2077C21.3831 16.1327 21.2144 16.039 21.1394 16.0877C21.0606 16.1365 21.0081 16.0615 20.9594 15.9902L20.0481 14.6777" fill="#FF1900"/>
<path d="M19.5156 15.0152L20.4231 16.3277C20.4756 16.4027 20.5244 16.474 20.4494 16.5227C20.3744 16.5715 20.3969 16.7627 20.4494 16.8377C20.5506 16.984 20.6744 17.0065 20.7494 16.9577L21.4394 16.5227C21.5144 16.4777 21.5406 16.354 21.4394 16.2077C21.3831 16.1327 21.2144 16.039 21.1394 16.0877C21.0606 16.1365 21.0081 16.0615 20.9594 15.9902L20.0481 14.6777" stroke="black" stroke-width="0.0583333"/>
<path fill-rule="evenodd" clip-rule="evenodd" d="M19.8722 14.0896C20.2781 14.5506 20.4193 15.0792 20.1879 15.2652C19.9566 15.4512 19.4357 15.2278 19.0299 14.7667C18.624 14.3057 18.4848 13.7755 18.7161 13.5895C18.9475 13.4036 19.4666 13.6251 19.8742 14.088L19.8722 14.0896Z" fill="#A77B3B" stroke="black" stroke-width="0.140397"/>
<path fill-rule="evenodd" clip-rule="evenodd" d="M15.8249 14.4785L15.0186 15.8548C14.9736 15.9298 14.9286 16.0048 14.8499 15.9673C14.7711 15.9223 14.6024 16.031 14.5574 16.1098C14.4674 16.2598 14.5011 16.3798 14.5836 16.4248L15.3036 16.8073C15.3786 16.8485 15.5061 16.8148 15.5961 16.6648C15.6374 16.5823 15.6486 16.391 15.5699 16.3498C15.4911 16.3085 15.5324 16.2298 15.5811 16.1548L16.3836 14.7785" fill="#FF1900"/>
<path d="M15.8249 14.4785L15.0186 15.8548C14.9736 15.9298 14.9286 16.0048 14.8499 15.9673C14.7711 15.9223 14.6024 16.031 14.5574 16.1098C14.4674 16.2598 14.5011 16.3798 14.5836 16.4248L15.3036 16.8073C15.3786 16.8485 15.5061 16.8148 15.5961 16.6648C15.6374 16.5823 15.6486 16.391 15.5699 16.3498C15.4911 16.3085 15.5324 16.2298 15.5811 16.1548L16.3836 14.7785" stroke="black" stroke-width="0.0583333"/>
<path fill-rule="evenodd" clip-rule="evenodd" d="M18.4209 13.5231H17.6859C17.6634 13.5456 17.4534 14.8581 17.2284 15.3606C16.9547 15.9718 16.1334 16.5118 16.1334 16.5118C16.1334 16.5118 16.6247 16.6618 16.7709 16.7593C16.8084 16.7481 17.5959 16.5831 17.6859 15.6231C17.7759 16.5831 17.1384 17.0218 17.1384 17.0218C17.1384 17.0218 18.0534 17.2843 18.0534 17.8956C18.0534 17.2843 18.9684 17.0218 18.9684 17.0218C18.9684 17.0218 18.5109 16.5831 18.4172 15.6231C18.6047 16.5831 19.2984 16.7481 19.3359 16.7593C19.4822 16.6618 19.9734 16.5118 19.9734 16.5118C19.9734 16.5118 19.1522 15.9718 18.8784 15.3606C18.6534 14.8581 18.4434 13.5456 18.4209 13.5231V13.5231ZM15.3084 9.14685L16.6809 9.5856C17.1347 9.5856 17.5959 9.14685 17.5959 8.7081C17.6109 7.7331 17.2284 7.3956 17.1384 7.3956L17.3184 7.2231L17.0447 6.9606C17.0447 6.9606 17.1384 6.50685 18.0534 6.52185C18.9684 6.5406 18.9684 6.9606 18.9684 7.3956C18.9684 7.8306 18.5109 7.83435 18.5109 8.7081C18.5109 9.14685 18.9684 9.5856 19.4259 9.5856L20.7984 9.14685V13.5231H15.3047V9.14685H15.3084Z" fill="#A77B3B" stroke="black" stroke-width="0.141667"/>
<path d="M17.4102 9.32227L17.5014 9.58536L17.5933 9.32227L17.6846 9.58536L17.8678 9.32227L17.9572 9.5994L18.051 9.32227L18.186 9.5994L18.3254 9.32227L18.4167 9.58536L18.5086 9.32227" stroke="black" stroke-width="0.0116354"/>
<path d="M17.7772 8.36133L17.5938 9.32428M17.8676 8.36133V9.32428M18.0511 8.36133V9.32428M18.2346 8.36133L18.325 9.32428M18.418 8.36133L18.5085 9.32428" stroke="black" stroke-width="0.0112261"/>
<path fill-rule="evenodd" clip-rule="evenodd" d="M14.3887 6.52344C13.4739 6.96047 13.4739 7.83701 13.4739 8.27404C13.5049 8.67157 13.4739 17.0221 13.4739 17.0221C13.4739 17.0221 13.5334 16.5283 13.9313 16.148L14.3861 15.711L14.8434 15.274C15.1793 14.9826 15.3008 14.3974 15.3008 13.9604V7.83701C15.3008 7.83701 15.3008 7.3975 14.3861 6.52344H14.3887Z" fill="#A77B3B" stroke="black" stroke-width="0.140326"/>
<path d="M15.3008 8.27492C15.2904 8.27492 14.8434 7.83789 14.8434 7.83789L14.3861 8.27492L13.9287 7.83789L13.4714 8.27492" stroke="black" stroke-width="0.140326"/>
<path d="M15.3008 8.70945C15.2904 8.70945 14.8434 9.14648 14.8434 9.14648L14.3861 8.70945L13.9287 9.14648L13.4714 8.70945" stroke="black" stroke-width="0.140326"/>
<path d="M15.3008 10.021C15.2904 10.021 14.8434 9.58398 14.8434 9.58398L14.3861 10.021L13.9287 9.58398L13.4714 10.021" stroke="black" stroke-width="0.140326"/>
<path d="M14.8386 7.83594L14.8438 15.2744" stroke="black" stroke-width="0.193279"/>
<path d="M14.3894 8.27344L14.3945 15.6938" stroke="black" stroke-width="0.183108"/>
<path d="M13.9323 7.83789L13.9375 16.1504" stroke="black" stroke-width="0.193804"/>
<path fill-rule="evenodd" clip-rule="evenodd" d="M21.7168 6.52344C22.6315 6.96047 22.6315 7.83701 22.6315 8.27404C22.6005 8.67157 22.6315 17.0221 22.6315 17.0221C22.6315 17.0221 22.5721 16.5283 22.1742 16.148L21.7194 15.711L21.262 15.274C20.9261 14.9826 20.8047 14.3974 20.8047 13.9604V7.83701C20.8047 7.83701 20.8047 7.3975 21.7194 6.52344H21.7168Z" fill="#A77B3B" stroke="black" stroke-width="0.140326"/>
<path d="M20.8008 8.27492C20.8111 8.27492 21.2581 7.83789 21.2581 7.83789L21.7155 8.27492L22.1729 7.83789L22.6302 8.27492" stroke="black" stroke-width="0.140326"/>
<path d="M20.8008 8.70945C20.8111 8.70945 21.2581 9.14648 21.2581 9.14648L21.7155 8.70945L22.1729 9.14648L22.6302 8.70945" stroke="black" stroke-width="0.140326"/>
<path d="M20.8008 10.021C20.8111 10.021 21.2581 9.58398 21.2581 9.58398L21.7155 10.021L22.1729 9.58398L22.6302 10.021" stroke="black" stroke-width="0.140326"/>
<path d="M21.263 7.83594L21.2578 15.2744" stroke="black" stroke-width="0.193279"/>
<path d="M21.7161 8.27344L21.7109 15.6938" stroke="black" stroke-width="0.183108"/>
<path d="M22.1731 7.83789L22.168 16.1504" stroke="black" stroke-width="0.193804"/>
<path fill-rule="evenodd" clip-rule="evenodd" d="M16.8493 14.3576C16.6068 14.9137 16.18 15.2761 15.901 15.165C15.6219 15.0539 15.5907 14.5092 15.8332 13.953C16.0757 13.3969 16.5048 13.0355 16.7839 13.1466C17.0629 13.2577 17.0951 13.8001 16.8516 14.3585L16.8493 14.3576Z" fill="#A77B3B" stroke="black" stroke-width="0.140363"/>
<path fill-rule="evenodd" clip-rule="evenodd" d="M15.3047 9.58594H20.7984V12.2109H15.3047V9.58594Z" fill="#FF0000"/>
<path fill-rule="evenodd" clip-rule="evenodd" d="M15.3045 12.2109H20.7983V13.5234C20.7983 14.3972 19.4258 14.3972 18.0533 15.2709C16.677 14.4009 15.3008 14.4009 15.3008 13.5234V12.2109H15.3045Z" fill="#564DFF"/>
<path d="M15.3047 9.58594H20.7981V13.5266C20.7981 14.4007 19.4261 14.4007 18.0514 15.2772C16.6793 14.4007 15.3047 14.4007 15.3047 13.5242V9.58841V9.58594Z" stroke="#FFFF00" stroke-width="0.112261"/>
<path fill-rule="evenodd" clip-rule="evenodd" d="M17.0441 9.75977C17.0441 9.75977 16.1289 10.4032 16.1289 11.0189C16.1289 11.6345 17.0894 11.8409 17.0894 11.8409C17.0894 11.8409 16.7692 11.8409 16.7692 12.6617C16.7692 13.0733 17.7297 12.8681 17.7297 13.0733C17.7297 13.2785 17.717 13.7747 17.7297 14.1005C17.7297 14.3057 17.0894 14.1005 17.0894 14.3057C17.0894 14.4078 17.5705 14.9214 18.0516 14.9214C18.5328 14.9214 19.0121 14.4078 19.0121 14.3057C19.0121 14.1005 18.3718 14.3057 18.3718 14.1005V13.0733C18.3718 12.8681 19.3322 13.0733 19.3322 12.6617C19.3322 11.8409 19.0121 11.8409 19.0121 11.8409C19.0121 11.8409 19.9744 11.6357 19.9744 11.0189C19.9744 10.4021 19.0573 9.75977 19.0573 9.75977C19.0573 9.75977 19.5728 10.6084 19.5728 11.0189C19.5728 11.2241 19.3322 11.6357 18.6919 11.6357C18.6919 11.6357 18.5292 11.4293 18.3718 11.6357C18.3718 11.6357 18.1873 11.4293 18.0516 11.6357C18.0046 11.7052 17.9214 11.4293 17.7297 11.6357C17.6501 11.6901 17.585 11.4293 17.4095 11.6357C17.0894 11.6357 16.4491 11.4293 16.4491 11.0189C16.4491 10.6084 17.0441 9.75977 17.0441 9.75977V9.75977Z" fill="#FFFF00" stroke="black" stroke-width="0.0804515"/>
<path fill-rule="evenodd" clip-rule="evenodd" d="M17.0632 13.435C16.998 13.4768 17.1464 14.1457 17.1898 14.1747C17.2549 14.2153 17.6402 14.2153 17.7035 14.1747C17.7487 14.1457 17.7035 13.5173 17.6402 13.4768C17.575 13.435 17.1084 13.4072 17.0613 13.435H17.0632Z" fill="#FFFF00" stroke="black" stroke-width="0.0804515"/>
<path fill-rule="evenodd" clip-rule="evenodd" d="M19.0423 13.435C19.1074 13.4768 18.9591 14.1457 18.9157 14.1747C18.8506 14.2153 18.4653 14.2153 18.402 14.1747C18.3568 14.1457 18.402 13.5173 18.4653 13.4768C18.5304 13.435 18.9971 13.4072 19.0441 13.435H19.0423Z" fill="#FFFF00" stroke="black" stroke-width="0.0804515"/>
<path fill-rule="evenodd" clip-rule="evenodd" d="M17.72 13.1922C17.72 13.2535 17.6849 13.3123 17.6225 13.3557C17.5602 13.3991 17.4755 13.4234 17.3873 13.4234C17.2991 13.4234 17.2145 13.3991 17.1521 13.3557C17.0897 13.3123 17.0547 13.2535 17.0547 13.1922C17.0547 13.1309 17.0897 13.072 17.1521 13.0287C17.2145 12.9853 17.2991 12.9609 17.3873 12.9609C17.4755 12.9609 17.5602 12.9853 17.6225 13.0287C17.6849 13.072 17.72 13.1309 17.72 13.1922V13.1922Z" fill="#FFFF00" stroke="black" stroke-width="0.0963025"/>
<path fill-rule="evenodd" clip-rule="evenodd" d="M19.0442 13.1922C19.0442 13.2535 19.0092 13.3124 18.9468 13.3557C18.8844 13.3991 18.7998 13.4235 18.7116 13.4235C18.6233 13.4235 18.5387 13.3991 18.4763 13.3557C18.414 13.3124 18.3789 13.2535 18.3789 13.1922C18.3789 13.1309 18.414 13.072 18.4763 13.0287C18.5387 12.9853 18.6233 12.9609 18.7116 12.9609C18.7998 12.9609 18.8844 12.9853 18.9468 13.0287C19.0092 13.072 19.0442 13.1309 19.0442 13.1922V13.1922Z" fill="#FFFF00" stroke="black" stroke-width="0.0963046"/>
<path fill-rule="evenodd" clip-rule="evenodd" d="M18.6316 14.5309C18.6316 14.5872 18.5566 14.6322 18.4703 14.6322C18.3803 14.6322 18.3091 14.5872 18.3091 14.5309C18.3091 14.4747 18.3841 14.4297 18.4703 14.4297C18.5566 14.4297 18.6316 14.4747 18.6316 14.5309ZM17.7953 14.5309C17.7953 14.5872 17.7241 14.6322 17.6378 14.6322C17.5478 14.6322 17.4766 14.5872 17.4766 14.5309C17.4766 14.4747 17.5478 14.4297 17.6378 14.4297C17.7241 14.4297 17.7953 14.4747 17.7953 14.5309Z" fill="black"/>
<path fill-rule="evenodd" clip-rule="evenodd" d="M18.05 11.2496L17.8534 11.0015L17.5307 11.0425L17.5761 10.7341L17.3164 10.5486L17.5761 10.3607L17.5307 10.0524L17.8534 10.0958L18.05 9.84766L18.2466 10.0958L18.5668 10.0524L18.5239 10.3607L18.7811 10.5486L18.5239 10.7365L18.5668 11.0425L18.2441 11.0015L18.05 11.2496Z" fill="#FFFF00" stroke="black" stroke-width="0.0602379"/>
<path fill-rule="evenodd" clip-rule="evenodd" d="M19.4219 12.209L19.9723 12.4732L20.5226 12.209L19.9723 11.9473L19.4245 12.209H19.4219Z" fill="#FFFF00" stroke="black" stroke-width="0.0617436"/>
<path fill-rule="evenodd" clip-rule="evenodd" d="M15.4844 12.209L16.0348 12.4732L16.5851 12.209L16.0348 11.9473L15.487 12.209H15.4844Z" fill="#FFFF00" stroke="black" stroke-width="0.0617436"/>
<path fill-rule="evenodd" clip-rule="evenodd" d="M20.272 13.7751C20.1035 13.6682 19.8197 13.7215 19.6606 13.8088C19.5015 13.8961 19.3424 13.9834 19.321 14.2998C19.1382 13.9958 19.2822 13.7146 19.5242 13.5818C19.6525 13.5215 19.7994 13.5081 19.9374 13.5441C20.0754 13.5801 20.1948 13.663 20.2733 13.7772L20.272 13.7751Z" fill="#FFFF00" stroke="black" stroke-width="0.0617676"/>
<path fill-rule="evenodd" clip-rule="evenodd" d="M16.4932 13.26C16.4932 13.3062 16.474 13.3505 16.4399 13.3831C16.4057 13.4157 16.3594 13.4341 16.3111 13.4341C16.2628 13.4341 16.2164 13.4157 16.1823 13.3831C16.1481 13.3505 16.1289 13.3062 16.1289 13.26C16.1289 13.2138 16.1481 13.1696 16.1823 13.1369C16.2164 13.1043 16.2628 13.0859 16.3111 13.0859C16.3594 13.0859 16.4057 13.1043 16.4399 13.1369C16.474 13.1696 16.4932 13.2138 16.4932 13.26V13.26Z" fill="#FFFF00" stroke="black" stroke-width="0.0617436"/>
<path fill-rule="evenodd" clip-rule="evenodd" d="M16.3096 13.8713C16.3096 13.9175 16.2905 13.9618 16.2563 13.9944C16.2221 14.0271 16.1758 14.0454 16.1275 14.0454C16.0792 14.0454 16.0328 14.0271 15.9987 13.9944C15.9645 13.9618 15.9453 13.9175 15.9453 13.8713C15.9453 13.8252 15.9645 13.7809 15.9987 13.7482C16.0328 13.7156 16.0792 13.6973 16.1275 13.6973C16.1758 13.6973 16.2221 13.7156 16.2563 13.7482C16.2905 13.7809 16.3096 13.8252 16.3096 13.8713V13.8713Z" fill="#FFFF00" stroke="black" stroke-width="0.0617436"/>
<path fill-rule="evenodd" clip-rule="evenodd" d="M16.2198 13.5217C16.2198 13.5679 16.2006 13.6122 16.1664 13.6448C16.1323 13.6775 16.0859 13.6958 16.0376 13.6958C15.9893 13.6958 15.943 13.6775 15.9088 13.6448C15.8747 13.6122 15.8555 13.5679 15.8555 13.5217C15.8555 13.4756 15.8747 13.4313 15.9088 13.3986C15.943 13.366 15.9893 13.3477 16.0376 13.3477C16.0859 13.3477 16.1323 13.366 16.1664 13.3986C16.2006 13.4313 16.2198 13.4756 16.2198 13.5217V13.5217Z" fill="#FFFF00" stroke="black" stroke-width="0.0617436"/>
<path fill-rule="evenodd" clip-rule="evenodd" d="M16.6768 13.8713C16.6768 13.9175 16.6576 13.9618 16.6235 13.9944C16.5893 14.0271 16.543 14.0454 16.4947 14.0454C16.4464 14.0454 16.4 14.0271 16.3659 13.9944C16.3317 13.9618 16.3125 13.9175 16.3125 13.8713C16.3125 13.8252 16.3317 13.7809 16.3659 13.7482C16.4 13.7156 16.4464 13.6973 16.4947 13.6973C16.543 13.6973 16.5893 13.7156 16.6235 13.7482C16.6576 13.7809 16.6768 13.8252 16.6768 13.8713V13.8713Z" fill="#FFFF00" stroke="black" stroke-width="0.0617436"/>
<path fill-rule="evenodd" clip-rule="evenodd" d="M16.7667 13.5217C16.7667 13.5679 16.7475 13.6122 16.7133 13.6448C16.6792 13.6775 16.6328 13.6958 16.5845 13.6958C16.5362 13.6958 16.4899 13.6775 16.4557 13.6448C16.4215 13.6122 16.4023 13.5679 16.4023 13.5217C16.4023 13.4756 16.4215 13.4313 16.4557 13.3986C16.4899 13.366 16.5362 13.3477 16.5845 13.3477C16.6328 13.3477 16.6792 13.366 16.7133 13.3986C16.7475 13.4313 16.7667 13.4756 16.7667 13.5217V13.5217Z" fill="#FFFF00" stroke="black" stroke-width="0.0617436"/>
<path fill-rule="evenodd" clip-rule="evenodd" d="M16.4932 13.6077C16.4932 13.6538 16.474 13.6981 16.4399 13.7308C16.4057 13.7634 16.3594 13.7817 16.3111 13.7817C16.2628 13.7817 16.2164 13.7634 16.1823 13.7308C16.1481 13.6981 16.1289 13.6538 16.1289 13.6077C16.1289 13.5615 16.1481 13.5172 16.1823 13.4846C16.2164 13.4519 16.2628 13.4336 16.3111 13.4336C16.3594 13.4336 16.4057 13.4519 16.4399 13.4846C16.474 13.5172 16.4932 13.5615 16.4932 13.6077V13.6077Z" fill="#FFFF00" stroke="black" stroke-width="0.0617436"/>
<path fill-rule="evenodd" clip-rule="evenodd" d="M17.1647 7.51516C16.6997 7.51516 16.6397 7.59016 16.4297 7.66141C16.4297 7.45891 16.9472 7.22266 17.4047 7.22266C17.4047 7.36891 17.2847 7.51516 17.1647 7.51516Z" fill="#DA4500"/>
<path fill-rule="evenodd" clip-rule="evenodd" d="M17.8675 7.0493C17.8675 7.14305 17.785 7.2218 17.6837 7.2218C17.5825 7.2218 17.5 7.14305 17.5 7.04555C17.5 6.94805 17.5825 6.87305 17.6837 6.87305C17.785 6.87305 17.8675 6.94805 17.8675 7.04555V7.0493Z" fill="#CAC9C7"/>
<path fill-rule="evenodd" clip-rule="evenodd" d="M15.944 6.43655V6.69828H16.4013V8.00938H16.6778V6.69828H17.1352V6.43655H16.6778V6.08594H16.3988V6.43655H15.9414H15.944Z" fill="#FFFF00" stroke="black" stroke-width="0.0617436"/>
<path fill-rule="evenodd" clip-rule="evenodd" d="M17.4112 7.22195C17.039 7.20069 16.6662 7.25032 16.3125 7.3682C16.3125 7.0982 16.6275 6.7832 17.1675 6.7832C17.2875 6.7832 17.4112 7.0757 17.4112 7.22195V7.22195Z" fill="#DA4500"/>
<path fill-rule="evenodd" clip-rule="evenodd" d="M12.6454 11.8681C12.5136 11.584 12.5167 11.4934 12.7511 11.8184L15.575 17.172L15.4886 17.1964L12.6469 11.8692L12.6454 11.8681Z" fill="#008500" stroke="black" stroke-width="0.0214024"/>
<path fill-rule="evenodd" clip-rule="evenodd" d="M14.5627 15.389C14.5927 14.9915 13.8652 14.564 13.8352 14.5903C13.809 14.6203 13.8802 14.8528 14.019 14.969C13.7565 14.834 13.479 14.7515 13.4715 14.8078C13.449 14.8903 13.884 15.0778 13.9215 15.1528C13.9215 15.2053 13.599 15.1978 13.6065 15.2503C13.614 15.3028 14.5177 15.7603 14.5627 15.389ZM13.8352 14.234C13.8652 13.8365 13.1377 13.409 13.1115 13.4353C13.0815 13.4615 13.1527 13.694 13.2915 13.814C13.029 13.679 12.7515 13.5928 12.744 13.6528C12.7252 13.7315 13.1565 13.9228 13.194 13.9978C13.1977 14.0503 12.8752 14.0428 12.879 14.0953C12.8865 14.1478 13.7902 14.6015 13.8352 14.234ZM13.2802 13.184C13.3102 12.7865 12.5827 12.359 12.5527 12.3853C12.5265 12.4115 12.5977 12.644 12.7365 12.764C12.474 12.629 12.1965 12.5428 12.189 12.6028C12.1702 12.6815 12.6015 12.8728 12.639 12.9478C12.639 13.0003 12.3202 12.9928 12.324 13.0453C12.3315 13.0978 13.2352 13.5553 13.2802 13.184ZM12.7327 12.044C12.759 11.6503 12.0352 11.219 12.0052 11.2453C11.9752 11.2753 12.0502 11.5078 12.1852 11.6278C11.9227 11.489 11.6452 11.4065 11.6415 11.4665C11.619 11.5453 12.054 11.7365 12.0877 11.8078C12.0915 11.8603 11.769 11.8565 11.7765 11.909C11.7802 11.9615 12.684 12.4153 12.7327 12.044V12.044Z" fill="#008F00"/>
<path fill-rule="evenodd" clip-rule="evenodd" d="M12.9228 11.9959C13.2753 11.7822 13.204 10.9684 13.1665 10.9609C13.1253 10.9572 12.9715 11.1484 12.9528 11.3284C12.9115 11.0434 12.8178 10.7809 12.7653 10.8109C12.6865 10.8409 12.7803 11.2872 12.739 11.3584C12.7015 11.3959 12.514 11.1409 12.4765 11.1784C12.4315 11.2159 12.5815 12.1797 12.9265 11.9959H12.9228ZM13.4328 12.9934C13.8378 12.9034 14.059 12.1159 14.0215 12.0972C13.984 12.0784 13.774 12.2097 13.6953 12.3747C13.7553 12.0934 13.759 11.8159 13.6953 11.8272C13.609 11.8309 13.5453 12.2809 13.4815 12.3334C13.4328 12.3559 13.3428 12.0597 13.294 12.0784C13.2415 12.1009 13.0465 13.0572 13.4328 12.9934ZM14.0403 14.0134C14.4115 13.8334 14.4153 13.0159 14.3778 13.0084C14.3403 12.9972 14.1715 13.1772 14.134 13.3534C14.119 13.0647 14.0515 12.7984 13.9953 12.8247C13.9128 12.8472 13.9653 13.2972 13.9203 13.3647C13.8753 13.3984 13.714 13.1284 13.669 13.1622C13.624 13.1922 13.684 14.1672 14.044 14.0134H14.0403ZM14.7003 15.3484C15.0865 15.2022 15.1803 14.3922 15.1428 14.3772C15.1053 14.3659 14.9178 14.5272 14.8615 14.6997C14.8765 14.4109 14.839 14.1372 14.779 14.1597C14.6928 14.1747 14.7003 14.6284 14.6478 14.6922C14.599 14.7184 14.4678 14.4372 14.4228 14.4672C14.374 14.4897 14.329 15.4684 14.7003 15.3484V15.3484Z" fill="#008F00"/>
<path fill-rule="evenodd" clip-rule="evenodd" d="M15.5504 16.7407C15.4521 16.9088 15.1414 16.924 14.8526 16.77C14.5638 16.6159 14.4143 16.3552 14.5125 16.187C14.6108 16.0188 14.9238 16.0048 15.2103 16.1577C15.4969 16.3106 15.6486 16.5725 15.5504 16.7407Z" fill="#FF1900" stroke="black" stroke-width="0.061767"/>
<path fill-rule="evenodd" clip-rule="evenodd" d="M23.0043 11.1084L23.0529 10.9829L23.1839 11.0241L23.2325 10.8987L23.3635 10.9399L23.3155 11.0636L23.4502 11.106L23.4009 11.2333L23.2662 11.1909L23.145 11.5037L23.0141 11.4625L23.1353 11.1496L23.0043 11.1084V11.1084ZM22.7231 12.2136L22.854 12.2548L21.4469 15.8868L21.3159 15.8455L22.7231 12.2136Z" fill="#FFFF00" stroke="black" stroke-width="0.0214231"/>
<path fill-rule="evenodd" clip-rule="evenodd" d="M21.2722 15.7634L21.5379 15.8471L21.1496 16.8492L20.884 16.7655L21.2722 15.7634ZM22.8342 11.5477L23.2327 11.6731C23.4965 11.7562 22.8983 12.3412 22.8983 12.3412L22.6345 12.2581C22.6345 12.2581 22.5686 11.464 22.8342 11.5477V11.5477ZM23.2005 11.5559C23.1799 11.6089 23.1055 11.6331 23.0325 11.6101C22.9596 11.5871 22.9162 11.5259 22.936 11.4746C22.9559 11.4234 23.031 11.3974 23.1039 11.4204C23.1769 11.4434 23.2203 11.5047 23.1998 11.5577L23.2005 11.5559Z" fill="#FFFF00" stroke="black" stroke-width="0.0214231"/>
<path fill-rule="evenodd" clip-rule="evenodd" d="M21.4866 16.2823C21.5979 16.4429 21.4694 16.7137 21.1937 16.8882C20.9179 17.0628 20.6069 17.0701 20.4956 16.9095C20.3843 16.7489 20.5149 16.4768 20.7885 16.3036C21.0621 16.1305 21.3753 16.1218 21.4866 16.2823Z" fill="#FF1900" stroke="black" stroke-width="0.061771"/>
</g>
</g>
<defs>
<filter id="filter0_d_336_28965" x="0" y="-2" width="36" height="36" filterUnits="userSpaceOnUse" color-interpolation-filters="sRGB">
<feFlood flood-opacity="0" result="BackgroundImageFix"/>
<feColorMatrix in="SourceAlpha" type="matrix" values="0 0 0 0 0 0 0 0 0 0 0 0 0 0 0 0 0 0 127 0" result="hardAlpha"/>
<feOffset dy="4"/>
<feGaussianBlur stdDeviation="3"/>
<feComposite in2="hardAlpha" operator="out"/>
<feColorMatrix type="matrix" values="0 0 0 0 0 0 0 0 0 0 0 0 0 0 0 0 0 0 0.16 0"/>
<feBlend mode="normal" in2="BackgroundImageFix" result="effect1_dropShadow_336_28965"/>
<feBlend mode="normal" in="SourceGraphic" in2="effect1_dropShadow_336_28965" result="shape"/>
</filter>
<clipPath id="clip0_336_28965">
<rect width="24" height="18" fill="white" transform="translate(6 3)"/>
</clipPath>
</defs>
</svg>
