<svg width="36" height="31" viewBox="0 0 36 31" fill="none" xmlns="http://www.w3.org/2000/svg">
<g filter="url(#filter0_d_336_15778)">
<g clip-path="url(#clip0_336_15778)">
<path d="M6.00391 3H30.0077V21H6.00391V3Z" fill="#FFD520"/>
<path d="M6.00391 21H30.0077V3L6.00391 21Z" fill="#FF4E12"/>
<path d="M18.9513 8.62381C18.8013 8.57506 18.7038 8.65006 18.7113 8.84506C18.7113 9.03631 18.8163 9.14506 18.9663 9.07381L18.9513 8.62381V8.62381Z" fill="white" stroke="black" stroke-width="0.03375"/>
<path d="M19.0823 8.26411C18.9585 8.16661 18.8423 8.20786 18.7823 8.39161C18.726 8.57911 18.786 8.71411 18.951 8.69161L19.0823 8.26411Z" fill="white" stroke="black" stroke-width="0.03375"/>
<path d="M19.2895 7.91106C19.1845 7.79856 19.0645 7.82106 18.9745 7.99356C18.8882 8.16606 18.9257 8.31231 19.0945 8.31981L19.2895 7.91481V7.91106ZM19.1545 9.61731C18.9707 9.68481 18.952 9.93606 19.0682 10.0898C19.1807 10.2436 19.3945 10.2736 19.5107 10.0898L19.1545 9.61731Z" fill="white" stroke="black" stroke-width="0.03375"/>
<path d="M18.9421 9.0847C18.7696 9.02845 18.6121 9.26095 18.5859 9.47095C18.5521 9.73345 18.1734 9.82345 18.3834 10.2247C18.4284 9.9697 18.5971 9.8272 18.7321 9.8197C18.8671 9.80845 19.0696 9.7822 19.1559 9.6172L18.9421 9.0847V9.0847ZM19.4934 10.1197C19.2909 10.1685 19.2609 10.4385 19.4071 10.6297C19.5309 10.7947 19.9209 10.7572 19.9096 10.5922L19.4971 10.1197H19.4934ZM20.0671 11.7472C20.0784 11.571 19.7971 11.5035 19.6621 11.5372C19.5271 11.5747 19.2684 11.5335 19.2121 11.3872C19.1596 11.5035 19.2309 11.631 19.4259 11.6947C19.5759 11.7397 19.5721 11.8447 19.5271 11.8972C19.6396 11.916 19.9659 11.916 20.0671 11.7472V11.7472Z" fill="white" stroke="black" stroke-width="0.03375"/>
<path d="M19.9092 10.6366C19.7105 10.5466 19.5942 10.6816 19.5192 10.8091C19.4067 10.9966 19.0655 10.7566 18.9492 11.0079C19.1067 10.9404 19.2642 11.0829 19.3392 11.1316C19.553 11.2704 19.9617 11.2291 20.0217 10.8991L19.9092 10.6366V10.6366Z" fill="white" stroke="black" stroke-width="0.03375"/>
<path d="M20.0236 10.8652C19.8248 11.0152 19.7461 11.1952 19.7536 11.3152C19.7573 11.4352 19.9261 11.7015 20.1098 11.7165C20.2148 11.499 20.2711 11.0415 20.0236 10.8652ZM19.1986 11.799C19.1986 11.724 19.3036 11.6977 19.3786 11.724C19.4498 11.7465 19.5623 11.8177 19.5211 11.8965L19.1986 11.799ZM18.1111 11.3977C18.0923 11.3115 18.2311 11.1615 18.4186 11.244C18.6061 11.3265 18.6323 11.484 18.5536 11.5477L18.1111 11.3977Z" fill="white" stroke="black" stroke-width="0.03375"/>
<path d="M18.5716 11.5636C18.5566 11.5148 18.6954 11.4173 18.9241 11.4736C19.1566 11.5336 19.2129 11.6836 19.2054 11.7998L18.5716 11.5636V11.5636ZM18.0879 11.4023C18.2116 11.3123 18.1629 11.1398 18.0541 11.0836C17.8591 10.9861 17.9304 10.7386 17.8029 10.6898C17.6791 10.6411 17.5591 10.5548 17.5516 10.4648C17.4916 10.5886 17.5291 10.6973 17.6154 10.7761C17.7016 10.8511 17.5479 11.1661 17.6604 11.2486L18.0879 11.4023ZM15.5004 11.3348C15.3991 11.1773 15.1591 11.2036 15.0579 11.3161C14.9566 11.4286 14.9716 11.5898 15.0654 11.6648L15.5004 11.3348V11.3348ZM16.0816 11.0986C16.0441 10.8848 15.7854 10.8623 15.6466 10.9148C15.5041 10.9673 15.4104 11.1811 15.5004 11.3348L16.0816 11.0986V11.0986Z" fill="white" stroke="black" stroke-width="0.03375"/>
<path d="M16.4619 11.0694C16.5557 10.8931 16.3757 10.6269 16.1732 10.5894C16.0044 10.5519 15.8057 10.5556 15.7382 10.3906C15.7007 10.5331 15.8057 10.6269 15.9332 10.7094C16.0569 10.7919 15.9107 11.0019 16.1132 11.1219L16.4657 11.0694H16.4619Z" fill="white" stroke="black" stroke-width="0.03375"/>
<path d="M16.4493 11.0769C16.4043 10.9494 16.4906 10.7769 16.6631 10.7919C16.8393 10.8032 16.9368 10.9269 16.8618 11.0882L16.4493 11.0769Z" fill="white" stroke="black" stroke-width="0.03375"/>
<path d="M16.8359 11.0868C16.8097 10.9518 16.9184 10.7943 17.0909 10.8318C17.2597 10.8693 17.3384 11.008 17.2409 11.1505L16.8359 11.083V11.0868Z" fill="white" stroke="black" stroke-width="0.03375"/>
<path d="M17.2121 11.1466C17.1971 11.0116 17.3134 10.8616 17.4821 10.9066C17.6509 10.9516 17.7221 11.0941 17.6171 11.2328L17.2159 11.1466H17.2121ZM14.3021 13.3591C13.9759 13.3591 13.8971 13.4341 13.8521 13.7716C13.7921 14.1841 14.3584 14.2328 14.3021 13.3591Z" fill="white" stroke="black" stroke-width="0.03375"/>
<path d="M14.4455 12.9255C13.9505 12.738 13.6805 13.5255 13.1855 13.383C13.3617 13.6643 13.7892 13.383 13.9505 13.413C14.2205 13.4618 14.8055 13.3605 14.4455 12.9255ZM14.123 14.0018C13.8755 13.8893 13.613 14.2643 13.658 14.433C13.7217 14.6393 14.2842 14.4705 14.123 14.0018ZM12.9755 15.6255C13.1105 15.663 13.2755 15.738 13.2455 16.0005C13.2155 16.263 12.7205 16.7918 12.278 16.8255C11.8355 16.8518 11.678 17.388 11.2917 17.238C11.6517 17.1705 11.6517 16.7655 11.9292 16.638C11.7267 16.563 11.6217 17.0243 11.3592 17.0243C11.0967 17.0243 10.973 17.4405 10.6542 17.4105C10.3355 17.3843 10.3055 17.9168 9.66422 17.9243C9.17672 17.928 8.57672 18.498 8.35547 18.2505C8.83172 18.183 9.02297 17.9205 9.30422 17.6318C9.75422 17.1705 10.268 17.3768 10.4442 16.968C10.2418 17.1046 10.0021 17.1753 9.75797 17.1705C9.45797 17.163 9.13547 17.643 8.80172 17.433C8.99297 17.4068 9.12047 17.3243 9.32297 17.1105C9.52922 16.893 9.83672 17.0355 10.0767 16.8105C10.4517 16.4655 10.778 16.7543 11.138 16.323C11.0367 16.2705 10.8192 16.3043 10.6167 16.413C10.4142 16.518 10.1555 16.338 9.92297 16.4655C9.94922 16.1805 10.493 16.3418 10.8305 16.1468C11.213 15.9218 11.528 15.9893 11.828 16.0155C11.408 16.0155 11.2467 15.6143 10.6655 15.7305C10.4142 15.783 10.2117 15.3818 9.96047 15.5843C9.96797 15.4343 10.2305 15.3143 10.5005 15.4605C10.7705 15.6068 10.8792 15.333 11.4192 15.6743C11.6442 15.813 12.023 15.5843 12.263 15.7343C12.233 15.6443 12.0942 15.5843 11.933 15.5993C12.0342 15.3893 12.6905 15.4155 12.9755 15.6255V15.6255Z" fill="white" stroke="black" stroke-width="0.03375"/>
<path d="M13.4039 15.3099C13.1939 15.1449 12.8977 15.3436 12.6914 15.2649C12.6914 15.3999 12.7627 15.6024 12.9839 15.6811C13.0514 15.6324 13.3589 15.3661 13.4039 15.3099V15.3099Z" fill="white" stroke="black" stroke-width="0.03375"/>
<path d="M13.7384 14.8412C13.4047 14.6724 13.3484 15.0924 13.0859 15.0062C13.0972 15.1262 13.1947 15.2762 13.4047 15.3099L13.7422 14.8412H13.7384Z" fill="white" stroke="black" stroke-width="0.03375"/>
<path d="M13.9336 14.4578C13.4423 14.2665 13.3786 14.739 13.0898 14.6453C13.1573 14.8103 13.5698 14.9003 13.7836 14.8403L13.9336 14.4578ZM14.6086 12.3878C14.4773 12.2003 14.2036 12.3503 14.1586 12.5715C14.1173 12.789 14.2223 13.0928 14.4061 13.0215L14.6086 12.384V12.3878Z" fill="white" stroke="black" stroke-width="0.03375"/>
<path d="M14.9429 11.8106C14.7179 11.7544 14.4554 11.7806 14.4854 11.9981C14.3954 12.0394 14.3729 12.3244 14.6091 12.3881L14.9429 11.8069V11.8106Z" fill="white" stroke="black" stroke-width="0.03375"/>
<path d="M15.0939 11.6612C14.8689 11.3987 14.6252 11.4024 14.4864 11.5112C14.2277 11.7174 13.9802 11.6012 13.9727 11.8037C14.1264 11.6837 14.2652 11.8262 14.3852 11.7849C14.5127 11.7399 14.6064 11.9837 14.9552 11.8824L15.0939 11.6574V11.6612ZM14.5577 15.5574C14.5914 15.6212 14.7977 15.6474 14.8989 15.5424C15.0339 15.3999 14.8877 15.0099 14.6739 14.9799C14.4602 14.9537 14.4414 15.4224 14.5577 15.5574Z" fill="white" stroke="black" stroke-width="0.03375"/>
<path d="M14.3164 15.5656C14.6164 15.6781 14.7477 15.4269 14.5864 15.2656C14.5032 15.3716 14.413 15.4718 14.3164 15.5656Z" fill="white" stroke="black" stroke-width="0.03375"/>
<path d="M13.1783 15.9819C13.1183 16.1581 12.8183 16.1844 12.4808 16.7244C12.1433 17.2681 11.8208 17.0394 11.7383 17.4106C12.1433 17.0844 12.462 17.2981 12.7058 16.9756C13.0695 16.4844 13.3733 16.5556 13.5158 16.2256C13.7183 15.7494 14.6033 15.7606 14.6558 15.0144C14.3558 14.9581 13.407 15.7606 13.1783 15.9819ZM20.7983 8.68062C21.1845 8.80812 21.192 9.30687 21.6383 9.47187C22.0808 9.63687 22.1258 10.0344 22.4895 9.93687C22.152 9.84312 22.1745 9.45312 21.822 9.35562C21.4095 9.24312 21.252 8.61312 20.922 8.51562M22.572 11.3019C22.6395 11.4594 22.6283 11.7331 22.3845 11.8044C22.5158 11.8869 22.7108 11.8119 22.8158 11.6319C22.6583 11.9844 22.7633 12.3031 23.0145 12.3669C22.8945 12.1194 23.1645 12.0031 23.0783 11.8419C23.2358 11.9131 23.3783 12.1306 23.3708 12.2656C23.5808 12.0331 23.2208 11.7219 23.2845 11.5044L22.572 11.3019ZM20.0633 13.7844C19.827 13.5781 19.7258 13.8406 19.6133 13.7469C19.5008 13.6644 19.3583 13.6531 19.302 13.7356C19.5045 13.7431 19.407 13.9006 19.8008 13.9381C19.407 13.9644 19.4783 14.4069 19.2158 14.3844C19.4933 14.6469 19.6395 14.1481 19.8683 14.2306C19.8008 14.2494 19.9733 14.4069 19.8533 14.6206C20.0483 14.6169 20.127 14.3469 20.1533 14.2081L20.0633 13.7844V13.7844ZM14.8508 16.0419C14.7683 15.9669 14.5133 15.9331 14.4195 15.9931C14.322 16.0494 14.3558 16.0681 14.472 16.0756C14.5883 16.0831 14.7345 16.2706 14.487 16.2819C14.3708 16.2856 14.412 16.5669 14.1683 16.5856C14.2658 16.7056 14.5508 16.6269 14.652 16.4956C14.6333 16.6044 14.7758 16.7019 14.7195 16.8331C14.8958 16.8519 14.7945 16.4694 15.0758 16.4881C14.9633 16.5031 15.0083 16.7656 15.2108 16.6981C15.0908 16.7544 15.1545 16.8969 15.2858 16.8631C15.2033 16.8894 15.1733 17.0019 15.2933 17.0656C15.4095 16.9044 15.2783 16.3344 14.8545 16.0419H14.8508ZM25.3733 10.7131C25.4654 10.72 25.5579 10.7078 25.6451 10.6773C25.7323 10.6468 25.8123 10.5986 25.88 10.5358C25.9477 10.473 26.0017 10.3968 26.0387 10.3122C26.0756 10.2275 26.0947 10.1361 26.0947 10.0437C26.0947 9.95138 26.0756 9.86 26.0387 9.77533C26.0017 9.69066 25.9477 9.61453 25.88 9.5517C25.8123 9.48887 25.7323 9.44069 25.6451 9.41017C25.5579 9.37966 25.4654 9.36748 25.3733 9.37437C25.2044 9.38702 25.0466 9.46304 24.9314 9.58717C24.8162 9.71131 24.7522 9.8744 24.7522 10.0437C24.7522 10.2131 24.8162 10.3762 24.9314 10.5003C25.0466 10.6245 25.2044 10.7005 25.3733 10.7131V10.7131Z" fill="white"/>
<path d="M20.7983 8.68062C21.1845 8.80812 21.192 9.30687 21.6383 9.47187C22.0808 9.63687 22.1258 10.0344 22.4895 9.93687C22.152 9.84312 22.1745 9.45312 21.822 9.35562C21.4095 9.24312 21.252 8.61312 20.922 8.51562M13.1783 15.9819C13.1183 16.1581 12.8183 16.1844 12.4808 16.7244C12.1433 17.2681 11.8208 17.0394 11.7383 17.4106C12.1433 17.0844 12.462 17.2981 12.7058 16.9756C13.0695 16.4844 13.3733 16.5556 13.5158 16.2256C13.7183 15.7494 14.6033 15.7606 14.6558 15.0144C14.3558 14.9581 13.407 15.7606 13.1783 15.9819ZM22.572 11.3019C22.6395 11.4594 22.6283 11.7331 22.3845 11.8044C22.5158 11.8869 22.7108 11.8119 22.8158 11.6319C22.6583 11.9844 22.7633 12.3031 23.0145 12.3669C22.8945 12.1194 23.1645 12.0031 23.0783 11.8419C23.2358 11.9131 23.3783 12.1306 23.3708 12.2656C23.5808 12.0331 23.2208 11.7219 23.2845 11.5044L22.572 11.3019ZM20.0633 13.7844C19.827 13.5781 19.7258 13.8406 19.6133 13.7469C19.5008 13.6644 19.3583 13.6531 19.302 13.7356C19.5045 13.7431 19.407 13.9006 19.8008 13.9381C19.407 13.9644 19.4783 14.4069 19.2158 14.3844C19.4933 14.6469 19.6395 14.1481 19.8683 14.2306C19.8008 14.2494 19.9733 14.4069 19.8533 14.6206C20.0483 14.6169 20.127 14.3469 20.1533 14.2081L20.0633 13.7844V13.7844ZM14.8508 16.0419C14.7683 15.9669 14.5133 15.9331 14.4195 15.9931C14.322 16.0494 14.3558 16.0681 14.472 16.0756C14.5883 16.0831 14.7345 16.2706 14.487 16.2819C14.3708 16.2856 14.412 16.5669 14.1683 16.5856C14.2658 16.7056 14.5508 16.6269 14.652 16.4956C14.6333 16.6044 14.7758 16.7019 14.7195 16.8331C14.8958 16.8519 14.7945 16.4694 15.0758 16.4881C14.9633 16.5031 15.0083 16.7656 15.2108 16.6981C15.0908 16.7544 15.1545 16.8969 15.2858 16.8631C15.2033 16.8894 15.1733 17.0019 15.2933 17.0656C15.4095 16.9044 15.2783 16.3344 14.8545 16.0419H14.8508ZM25.3733 10.7131C25.4654 10.72 25.5579 10.7078 25.6451 10.6773C25.7323 10.6468 25.8123 10.5986 25.88 10.5358C25.9477 10.473 26.0017 10.3968 26.0387 10.3122C26.0756 10.2275 26.0947 10.1361 26.0947 10.0437C26.0947 9.95138 26.0756 9.86 26.0387 9.77533C26.0017 9.69066 25.9477 9.61453 25.88 9.5517C25.8123 9.48887 25.7323 9.44069 25.6451 9.41017C25.5579 9.37966 25.4654 9.36748 25.3733 9.37437C25.2044 9.38702 25.0466 9.46304 24.9314 9.58717C24.8162 9.71131 24.7522 9.8744 24.7522 10.0437C24.7522 10.2131 24.8162 10.3762 24.9314 10.5003C25.0466 10.6245 25.2044 10.7005 25.3733 10.7131V10.7131Z" stroke="black" stroke-width="0.03375"/>
<path d="M21.8773 11.5176C22.0836 11.3263 22.3911 11.2288 22.6048 11.3751C22.8148 11.5176 23.5198 11.6901 23.8686 11.4501C24.2173 11.2101 24.3823 11.0826 24.5361 11.1126C24.6486 11.2851 24.7911 11.3676 24.9636 11.3826C25.0161 11.4426 25.2073 11.4876 25.3123 11.4763C25.4661 11.5138 25.6536 11.4651 25.8036 11.3001C26.0361 11.3376 26.2536 11.1613 26.3361 10.8988C26.5836 10.8726 26.5986 10.5988 26.4411 10.4113C26.2986 10.3851 26.4073 9.89383 25.8823 9.99133C26.1073 10.1263 25.9348 10.3963 26.1186 10.5238C25.9948 10.5238 25.8298 10.5763 25.7923 10.7638C25.8411 10.6363 25.7848 10.5463 25.7548 10.5201C25.7548 10.4076 25.5111 10.1338 25.2786 10.2351C25.4436 10.2726 25.3536 10.5351 25.4736 10.6401C25.428 10.6419 25.3835 10.654 25.3432 10.6754C25.303 10.6969 25.2681 10.7271 25.2411 10.7638C25.1773 10.6513 24.9561 10.5388 24.8211 10.5276C24.8211 10.4901 24.8136 10.4151 24.7948 10.3738C24.7348 10.2576 24.6823 10.1188 24.7086 9.94258C24.5989 10.0717 24.508 10.2156 24.4386 10.3701C24.2548 10.2426 23.8011 10.4263 23.5873 10.4751C23.3773 10.5238 22.6611 10.4076 22.4998 10.2351C22.2704 10.0516 22.0004 9.92563 21.7123 9.86758C21.2998 9.74758 21.2998 9.29758 20.8461 8.98633C20.8348 9.54883 21.6861 11.3263 21.8773 11.5176V11.5176ZM17.1448 15.7888C17.3169 15.7888 17.4819 15.7205 17.6036 15.5988C17.7252 15.4771 17.7936 15.3121 17.7936 15.1401C17.7936 14.968 17.7252 14.803 17.6036 14.6813C17.4819 14.5597 17.3169 14.4913 17.1448 14.4913C16.9728 14.4913 16.8078 14.5597 16.6861 14.6813C16.5644 14.803 16.4961 14.968 16.4961 15.1401C16.4961 15.3121 16.5644 15.4771 16.6861 15.5988C16.8078 15.7205 16.9728 15.7888 17.1448 15.7888Z" fill="white" stroke="black" stroke-width="0.03375"/>
<path d="M15.6022 15.2918C15.7334 15.4606 15.9547 15.4493 16.0484 15.4381C16.1234 15.6406 16.3709 15.6331 16.4759 15.7456C16.5847 15.8581 16.9447 15.8468 17.0497 15.7831C16.9559 15.7756 16.8284 15.7156 16.7122 15.6143C16.5622 15.4943 16.6297 15.2468 16.5172 15.1643C16.5526 15.1193 16.5782 15.0673 16.5924 15.0118C16.6066 14.9562 16.6091 14.8984 16.5997 14.8418C16.6897 14.7893 16.7572 14.7031 16.7647 14.6581C16.8992 14.6516 17.027 14.597 17.1247 14.5043C17.2072 14.5793 17.4134 14.4818 17.5259 14.6093C17.5484 14.2906 17.2447 14.1218 17.0384 14.2306C16.9597 14.1856 16.7422 14.2156 16.7009 14.2718C16.6372 14.2418 16.4459 14.3393 16.3634 14.4031C16.4572 14.3506 16.4722 14.1893 16.4347 14.1331C16.5172 14.0956 16.6072 13.9868 16.6184 13.9081C16.7309 13.9268 16.9072 13.8481 16.9822 13.8668C16.8584 13.7018 16.6522 13.6418 16.4384 13.6606C16.2172 13.6718 16.1234 13.8256 16.0934 13.9906C15.9659 14.0693 15.9209 14.3281 15.9697 14.4218C15.8947 14.4218 15.8234 14.4931 15.7972 14.5343C15.6852 14.4882 15.5658 14.4628 15.4447 14.4593M15.4934 14.1968C15.4484 14.0693 15.5047 13.9568 15.5347 13.8593C15.6097 13.6043 15.5647 13.5368 15.3359 13.5706C15.3494 13.7872 15.4028 13.9996 15.4934 14.1968V14.1968Z" fill="white"/>
<path d="M15.6022 15.2918C15.7334 15.4606 15.9547 15.4493 16.0484 15.4381C16.1234 15.6406 16.3709 15.6331 16.4759 15.7456C16.5847 15.8581 16.9447 15.8468 17.0497 15.7831C16.9559 15.7756 16.8284 15.7156 16.7122 15.6143C16.5622 15.4943 16.6297 15.2468 16.5172 15.1643C16.5526 15.1193 16.5782 15.0673 16.5924 15.0118C16.6066 14.9562 16.6091 14.8984 16.5997 14.8418C16.6897 14.7893 16.7572 14.7031 16.7647 14.6581C16.8992 14.6516 17.027 14.597 17.1247 14.5043C17.2072 14.5793 17.4134 14.4818 17.5259 14.6093C17.5484 14.2906 17.2447 14.1218 17.0384 14.2306C16.9597 14.1856 16.7422 14.2156 16.7009 14.2718C16.6372 14.2418 16.4459 14.3393 16.3634 14.4031C16.4572 14.3506 16.4722 14.1893 16.4347 14.1331C16.5172 14.0956 16.6072 13.9868 16.6184 13.9081C16.7309 13.9268 16.9072 13.8481 16.9822 13.8668C16.8584 13.7018 16.6522 13.6418 16.4384 13.6606C16.2172 13.6718 16.1234 13.8256 16.0934 13.9906C15.9659 14.0693 15.9209 14.3281 15.9697 14.4218C15.8947 14.4218 15.8234 14.4931 15.7972 14.5343C15.6852 14.4882 15.5658 14.4628 15.4447 14.4593M15.4934 14.1968C15.4484 14.0693 15.5047 13.9568 15.5347 13.8593C15.6097 13.6043 15.5647 13.5368 15.3359 13.5706C15.3494 13.7872 15.4028 13.9996 15.4934 14.1968V14.1968Z" stroke="black" stroke-width="0.03375"/>
<path d="M15.3242 13.5851C15.3842 13.6451 15.5867 13.6714 15.6092 13.4876C15.6355 13.2776 15.5492 13.1951 15.3655 13.2776C15.3505 13.3264 15.3355 13.5214 15.328 13.5851H15.3242Z" fill="white" stroke="black" stroke-width="0.03375"/>
<path d="M15.3672 13.2693C15.4422 13.2993 15.6109 13.3631 15.7047 13.1831C15.7797 13.0331 15.6784 12.9206 15.5172 12.9281C15.4797 12.9731 15.4047 13.1268 15.3672 13.2693Z" fill="white" stroke="black" stroke-width="0.03375"/>
<path d="M15.5117 12.9128C15.5305 12.9728 15.7292 13.1641 15.8717 13.0253C16.018 12.8866 16.018 12.6766 15.8005 12.6016C15.7442 12.6091 15.568 12.8116 15.5117 12.9128V12.9128Z" fill="white" stroke="black" stroke-width="0.03375"/>
<path d="M15.8008 12.5994C15.842 12.7231 15.9808 12.9294 16.232 12.8356C16.4833 12.7381 16.3745 12.4231 16.2583 12.3594C16.0903 12.4074 15.9344 12.4905 15.8008 12.6031V12.5994Z" fill="white" stroke="black" stroke-width="0.03375"/>
<path d="M16.2549 12.3584C16.2362 12.4671 16.2549 12.7559 16.5999 12.7521C16.9412 12.7446 16.8474 12.3434 16.7574 12.2871C16.6187 12.2871 16.3824 12.2909 16.2549 12.3621V12.3584Z" fill="white" stroke="black" stroke-width="0.03375"/>
<path d="M16.7753 12.2988C16.7378 12.3851 16.6515 12.9251 17.3228 12.7751C17.409 12.7563 17.634 12.2576 16.7753 12.3026V12.2988Z" fill="white" stroke="black" stroke-width="0.03375"/>
<path d="M17.143 12.3513C17.0755 12.4188 17.248 12.9625 17.7055 12.8725C18.1555 12.7788 17.7768 12.2613 17.143 12.3475V12.3513Z" fill="white" stroke="black" stroke-width="0.03375"/>
<path d="M17.5286 12.4336C17.4536 12.5836 17.5661 13.0261 18.1248 13.0261C18.6311 13.0261 18.0986 12.4411 17.5286 12.4336V12.4336Z" fill="white" stroke="black" stroke-width="0.03375"/>
<path d="M17.9671 12.5615C17.9296 12.6477 17.8884 13.1165 18.5484 13.1577C19.0246 13.1877 18.9084 12.509 17.9671 12.5615V12.5615Z" fill="white" stroke="black" stroke-width="0.03375"/>
<path d="M18.6761 12.7598C18.5974 12.906 18.5111 13.266 19.2349 13.296C19.6961 13.3148 19.4111 12.771 18.6799 12.7598H18.6761Z" fill="white" stroke="black" stroke-width="0.03375"/>
<path d="M19.2792 12.8723C19.1742 13.0148 19.253 13.2998 19.523 13.3523C19.8605 13.4198 19.9092 13.101 19.6767 12.9473C19.4442 12.7973 19.2792 12.8723 19.2792 12.8723Z" fill="white" stroke="black" stroke-width="0.03375"/>
<path d="M19.6119 12.9355C19.5331 13.0743 19.5781 13.4005 20.0919 13.4005C20.1969 13.4005 20.6019 12.988 19.6081 12.9393L19.6119 12.9355ZM15.6406 19.2355C15.8395 19.2355 16.0303 19.1565 16.171 19.0159C16.3116 18.8752 16.3906 18.6845 16.3906 18.4855C16.3906 18.2866 16.3116 18.0959 16.171 17.9552C16.0303 17.8146 15.8395 17.7355 15.6406 17.7355C15.4417 17.7355 15.2509 17.8146 15.1103 17.9552C14.9696 18.0959 14.8906 18.2866 14.8906 18.4855C14.8906 18.6845 14.9696 18.8752 15.1103 19.0159C15.2509 19.1565 15.4417 19.2355 15.6406 19.2355V19.2355Z" fill="white" stroke="black" stroke-width="0.03375"/>
<path d="M21.1559 8.31279C21.0749 8.40302 21.0068 8.50397 20.9534 8.61279C20.7022 9.36279 21.3734 9.92529 21.7634 10.739C21.9239 11.1052 21.9888 11.5061 21.952 11.9043C21.9153 12.3024 21.7781 12.6846 21.5534 13.0153C21.3884 13.2328 21.4372 13.2965 21.2234 13.5178C21.1409 13.604 21.0509 13.7128 21.0809 14.0203C21.2159 13.9715 21.4072 14.0953 21.4447 14.2078C21.5422 14.1553 21.6772 14.174 21.7259 14.234C21.8909 14.159 22.0259 14.1965 22.1722 14.3465C22.2959 14.3315 22.4347 14.3465 22.5584 14.4853C22.6259 14.3503 22.7609 14.2978 22.8584 14.3315C22.8472 14.1553 23.0197 14.0315 23.1734 14.099C23.1614 14.0495 23.1628 13.9977 23.1776 13.949C23.1925 13.9002 23.2201 13.8563 23.2576 13.8219C23.2951 13.7874 23.3412 13.7636 23.391 13.753C23.4408 13.7424 23.4926 13.7454 23.5409 13.7615C23.7172 13.6265 24.0659 13.6153 24.2384 13.8178C23.9272 13.7315 23.9384 14.0615 23.6759 14.0315C23.7434 14.2228 23.5709 14.3353 23.3984 14.399C23.5109 14.3465 23.6309 14.2828 23.6684 14.3503C23.7659 14.264 23.9572 14.2978 24.0059 14.339C24.1334 14.3015 24.2572 14.3315 24.3134 14.4853C24.4897 14.5903 24.6059 14.8603 24.4784 15.0628C24.4409 14.8528 24.2947 14.8603 24.2384 14.774C24.1034 14.8228 23.9684 14.8228 23.9272 14.7365C23.8522 14.8115 23.5897 14.8828 23.4772 14.7665C23.4322 14.939 23.2822 15.0853 23.1059 15.0853C23.1547 15.2203 23.0197 15.449 22.9147 15.5653C23.0797 15.6515 23.0272 15.8465 22.9897 15.9628C23.2447 16.0003 23.0272 16.2253 23.4659 16.3678C23.2522 16.4353 22.8359 16.3678 22.7797 16.1053C22.5659 16.0978 22.4234 15.884 22.4309 15.6628C22.2659 15.509 22.2434 15.2878 22.4684 15.1303C22.2772 15.1903 22.1684 14.879 21.8909 15.0065C21.7522 15.0703 21.3847 14.9615 21.3884 14.834C21.3322 14.9278 20.9759 14.8903 20.9309 14.7253C20.8147 14.789 20.5447 14.684 20.5484 14.5228C20.3984 14.5903 20.1959 14.4703 20.2072 14.3165C20.0647 14.2978 20.0497 14.1703 20.0572 14.0653C19.9334 14.0053 19.9672 13.8853 20.0197 13.7428C19.9297 13.6453 19.9672 13.5103 20.0347 13.3828C19.9409 13.2853 19.9597 13.1728 19.9859 13.034C19.5247 12.9965 18.9434 12.884 17.6122 12.4753C15.6022 11.8565 15.0622 13.3078 15.5047 14.2153C16.0184 15.2653 15.4484 15.4903 15.6209 16.2703C15.8084 16.3078 15.9022 16.4653 15.8909 16.6303C16.0034 16.634 16.0784 16.7353 16.0409 16.9303C16.0918 16.9219 16.144 16.9253 16.1934 16.9403C16.2428 16.9552 16.2882 16.9813 16.3259 17.0165C16.3934 16.889 16.6184 16.859 16.7309 17.0053C16.9822 16.9865 17.1097 17.1928 17.0984 17.4403C17.1589 17.5538 17.1858 17.6822 17.1759 17.8104C17.1659 17.9386 17.1195 18.0613 17.0422 18.164C17.0572 18.0628 17.0422 17.9203 17.0384 17.8303C17.0272 17.6728 16.8059 17.639 16.8284 17.5078C16.7159 17.519 16.6034 17.4553 16.5659 17.369C16.5324 17.3979 16.492 17.4176 16.4486 17.4262C16.4052 17.4347 16.3603 17.4318 16.3184 17.4178C16.4459 17.474 16.5509 17.7065 16.5097 17.8603C16.5772 17.9765 16.5622 18.1903 16.4834 18.2803C16.4459 18.4678 16.2959 18.5353 16.1084 18.4528C16.2172 18.3853 16.2547 18.2653 16.2509 18.164C16.1876 18.1008 16.1491 18.017 16.1422 17.9278C15.9547 17.9578 15.6922 17.7965 15.6472 17.7328C15.5483 17.7328 15.4505 17.7523 15.3593 17.7902C15.268 17.8282 15.1852 17.8837 15.1155 17.9538C15.0458 18.0238 14.9906 18.1069 14.9532 18.1984C14.9157 18.2898 14.8967 18.3877 14.8972 18.4865C14.8747 18.3328 14.6797 18.179 14.7059 18.0478C14.5897 17.6915 14.7547 17.3578 15.2272 17.2903C15.1672 17.1553 15.3697 17.0165 15.2947 16.8628C15.1441 16.5889 14.9588 16.3356 14.7434 16.109C14.9084 15.8278 14.8559 15.4528 14.7622 15.2203C14.6234 14.8865 14.4922 14.969 14.0009 15.509C13.1984 16.3903 12.1259 16.1465 11.1809 16.7278C10.9297 16.8778 10.6784 16.9378 10.9484 16.6678C11.2184 16.3978 11.9309 16.1278 12.3959 15.8953C13.2659 15.4603 14.0009 14.7365 14.2897 13.3265C14.9684 10.0115 17.4772 11.1065 19.0597 11.7215C20.5484 12.3028 20.2784 10.9903 19.5247 10.1953C18.6172 9.24654 18.8009 8.49654 19.2247 7.89654C19.9859 7.79154 21.4522 8.05779 21.1559 8.31279V8.31279Z" fill="white" stroke="black" stroke-width="0.03375"/>
<path d="M23.8484 16.4545C23.957 16.4545 24.0645 16.4331 24.1649 16.3916C24.2652 16.35 24.3563 16.2891 24.4331 16.2123C24.5099 16.1356 24.5708 16.0444 24.6124 15.9441C24.6539 15.8438 24.6753 15.7362 24.6753 15.6277C24.6753 15.5191 24.6539 15.4115 24.6124 15.3112C24.5708 15.2109 24.5099 15.1197 24.4331 15.043C24.3563 14.9662 24.2652 14.9053 24.1649 14.8637C24.0645 14.8222 23.957 14.8008 23.8484 14.8008C23.6296 14.8008 23.4198 14.8877 23.2651 15.0424C23.1104 15.1971 23.0234 15.407 23.0234 15.6258C23.0234 15.8446 23.1104 16.0544 23.2651 16.2091C23.4198 16.3639 23.6296 16.4508 23.8484 16.4508V16.4545Z" fill="white" stroke="black" stroke-width="0.03375"/>
<path d="M20.6913 8.34961C20.5038 9.16336 20.6613 9.53086 20.9313 9.88711C21.49 10.6259 21.9363 12.3096 21.2988 13.4121" stroke="black" stroke-width="0.03375"/>
<path d="M21.6563 12.4593C21.7313 12.433 21.8812 12.3393 21.9112 12.1818M21.7163 12.1068C21.7388 11.968 21.9563 11.908 21.96 11.758M21.72 11.563C21.705 11.4168 21.9375 11.2855 21.9038 11.143M21.5925 11.0418C21.5737 10.9593 21.7875 10.8055 21.7275 10.6743M21.435 10.5318C21.39 10.4418 21.5363 10.3368 21.4725 10.2393M21.2025 10.1268C21.1875 10.0668 21.2775 9.92805 21.2288 9.84555M20.97 9.65055C20.9888 9.6243 21.0675 9.56805 21.0375 9.4968M20.8125 9.29805C20.8425 9.28305 20.9363 9.25305 20.925 9.18555" stroke="black" stroke-width="0.03375" stroke-linecap="round"/>
<path d="M15.9761 18.4061C15.7886 18.3386 15.5448 18.4323 15.4961 18.5973M15.6423 18.7473C15.6648 18.5823 15.9161 18.5111 15.9911 18.5861C15.8336 18.4998 15.7548 18.8111 15.8973 18.8186M17.1948 14.9261C17.0823 14.9861 17.0448 15.1961 17.1948 15.3573M17.3673 14.9748C17.2886 15.0423 17.2923 15.2448 17.4123 15.2936C17.3111 15.2186 17.4123 15.0948 17.4873 15.0911C17.5586 15.0873 17.6073 15.1736 17.5173 15.2598M24.1548 15.4548C23.8848 15.3798 23.6673 15.6948 23.9148 15.9761C23.9073 15.7061 24.1023 15.5261 24.3386 15.5748M24.2261 15.7623C24.1992 15.7623 24.1735 15.773 24.1545 15.792C24.1355 15.811 24.1248 15.8367 24.1248 15.8636C24.1248 15.9161 24.1698 15.9686 24.2448 15.9686C24.2936 15.9686 24.3348 15.9123 24.3348 15.8673M25.1823 9.82984C25.2273 9.99484 25.4523 10.0661 25.6323 10.0248M25.6323 9.91984C25.4936 9.92359 25.3773 9.79234 25.3848 9.68359C25.3848 9.76609 25.5723 9.80359 25.6323 9.75109" stroke="black" stroke-width="0.03375" stroke-linecap="round" stroke-linejoin="round"/>
<path d="M16.0456 15.4375C16.0081 15.34 16.1581 15.2425 16.1656 15.1525C16.1694 15.0588 16.3381 14.9875 16.5144 15.16M16.4319 14.1325L16.3381 14.1775M16.7656 14.6575C16.7244 14.6575 16.6381 14.6575 16.5931 14.6238M16.5931 14.8412C16.5631 14.86 16.4881 14.8862 16.4431 14.8975M14.9394 17.7588C14.9319 17.845 15.0219 17.9725 15.0669 18.01M15.3144 17.5525C15.2878 17.5944 15.2698 17.6412 15.2614 17.6901C15.2531 17.739 15.2545 17.7891 15.2656 17.8375M16.0344 17.8375C15.9481 17.7813 16.0044 17.635 15.9969 17.5375C15.9856 17.44 16.0981 17.2863 16.3156 17.4175M15.2244 17.2863C15.3106 17.2713 15.4006 17.275 15.4606 17.3013M16.3231 17.0125C16.2929 17.0571 16.2748 17.1088 16.2706 17.1625M16.7319 17.0013C16.6644 17.0013 16.6044 17.05 16.5744 17.0988M15.7944 14.53C15.8694 14.5563 16.0719 14.68 16.0794 14.8075M16.6156 13.9C16.3794 13.8963 16.2856 13.6563 16.4656 13.6563M17.0394 14.2263C16.9494 14.2638 16.9906 14.4213 17.1219 14.5M16.4731 15.7412C16.4281 15.6812 16.4881 15.5163 16.6381 15.565M16.8256 17.5037C16.8369 17.3537 17.0206 17.2713 17.0956 17.4363M16.1394 17.9238C16.1281 17.7625 16.2144 17.71 16.2819 17.6988C16.3569 17.6913 16.4581 17.7513 16.5069 17.8563M14.7031 18.0438C14.7106 17.9463 14.7931 17.845 14.8794 17.86M23.5419 13.7575C23.4781 13.8025 23.4369 14.0088 23.6731 14.0275M23.1744 14.0988C23.1744 14.1213 23.2044 14.155 23.2231 14.1738M24.3106 14.485C24.2506 14.4362 24.0856 14.635 24.2356 14.7738M22.7731 16.1088C22.7394 15.97 22.8669 15.9325 22.9906 15.9625M22.4656 15.13C22.5406 15.085 22.6156 15.0288 22.7056 15.0063M22.4281 15.6625C22.4281 15.55 22.4881 15.4487 22.5406 15.4225M22.8556 14.3313C22.85 14.4527 22.8814 14.573 22.9456 14.6763M24.0031 14.3388C23.9319 14.3613 23.8719 14.3875 23.8456 14.4475M23.9244 14.7363C23.9619 14.7063 23.9994 14.6725 24.0144 14.65M25.7506 10.5175C25.7506 10.6525 25.5819 10.7275 25.4694 10.6413M26.1181 10.525C26.1931 10.5813 26.4519 10.525 26.3919 10.375M25.7994 11.3012C25.7292 11.2807 25.6658 11.2419 25.6156 11.1887M26.3319 10.9C26.2456 10.9188 26.1856 10.9 26.1444 10.8813M24.9594 11.3838C25.0438 11.3801 25.1267 11.3597 25.2031 11.3238M24.8244 10.5288C24.7606 10.5213 24.7119 10.5325 24.6781 10.5588M25.7956 10.765C25.7769 10.8392 25.738 10.9067 25.6831 10.96" stroke="black" stroke-width="0.03375" stroke-linecap="round"/>
<path d="M24.6562 10.9774C24.7763 10.9249 24.9263 11.3337 25.2188 11.1912M25.2412 10.7637C25.2006 10.8265 25.1773 10.8989 25.1737 10.9737" stroke="black" stroke-width="0.03375" stroke-linecap="round" stroke-linejoin="round"/>
<path d="M19.4609 10.1391C19.4984 10.1316 19.5697 10.1204 19.5847 10.0716M14.4922 14.6354C14.6384 14.7179 14.7397 14.8566 14.6797 15.0629M21.1334 9.69289C21.1784 9.72289 21.3397 9.72289 21.4334 9.69289M21.5459 9.79039C21.5459 9.85789 21.5647 10.1129 21.4334 10.1654M21.4822 10.1354C21.6022 10.1729 21.8422 10.1579 21.9209 9.93664M21.7522 10.1241C21.8159 10.2216 21.8347 10.4091 21.6472 10.5104M21.7972 10.2854C21.9397 10.3304 22.2622 10.3379 22.2284 10.0604M22.1159 10.2854C22.2172 10.4166 22.6409 10.5779 22.5734 10.2966M21.7297 10.6716C21.8909 10.7129 22.1234 10.6004 22.0297 10.3116M22.4909 10.4579C22.5134 10.5704 23.0534 10.6829 22.9822 10.4316M22.8809 10.5779C22.9822 10.8104 23.5184 10.7916 23.3497 10.4804M23.2634 10.7241C23.3684 10.8516 23.8447 10.7766 23.6534 10.4616M23.6497 10.7166C23.9459 10.9416 24.2872 10.6229 23.9122 10.3904M24.0847 10.6454C24.3472 10.8516 24.6659 10.4766 24.4372 10.3716M22.0222 10.5591C22.1047 10.5816 22.2772 10.5741 22.3184 10.4241M22.2509 10.5254C22.2434 10.7429 22.6109 10.8254 22.7047 10.5741M22.5809 10.7129C22.6484 10.8591 22.9747 10.9154 23.0272 10.7091M22.9747 10.8066C23.0272 10.9491 23.3084 10.9341 23.3872 10.7841M23.2822 10.8816C23.3684 11.0691 23.7284 11.0691 23.8072 10.7954M23.7472 10.9154C23.8859 11.0016 24.1859 10.9679 24.1597 10.6979M24.1034 10.8929C24.3134 11.0616 24.6059 10.8966 24.4597 10.6116M24.4484 11.1141C24.5609 11.0954 24.6172 10.8741 24.5009 10.8141M21.8759 11.1516C22.1009 11.0279 22.1497 10.8141 21.9884 10.6079M22.0709 10.9416C22.2172 11.0279 22.4909 10.9341 22.5397 10.7241M22.2697 10.9641C22.3522 11.0691 22.3672 11.2004 22.2584 11.3204M22.3334 11.0991C22.5922 10.9416 22.9109 11.2341 22.6709 11.4141M22.6334 11.0841C22.6897 11.0691 22.7909 10.9641 22.7984 10.8441M22.7459 11.1966C22.8547 11.0841 23.5784 11.3091 23.1209 11.5454M23.0834 10.8929C23.2259 10.9454 23.2972 11.1441 23.0834 11.2116M23.2709 11.3766C23.4209 11.2154 23.9084 11.3166 23.7322 11.5191M23.6159 11.3129C23.7022 11.0166 24.2197 11.2004 24.0509 11.3204M23.5109 11.0204C23.5259 11.0766 23.5297 11.2191 23.4359 11.2979M23.9459 10.9604C23.9564 10.9936 23.9591 11.0288 23.9539 11.0632C23.9487 11.0977 23.9357 11.1305 23.9159 11.1591M24.2722 10.9641C24.3022 11.0166 24.3472 11.1179 24.2422 11.2004M20.1397 8.74414C20.1434 9.01789 20.2409 9.20164 20.6122 9.02914M20.2559 9.07039C20.0684 9.31789 20.2784 9.58414 20.6422 9.31789M19.6859 9.18664C19.9372 9.45664 20.3872 9.26164 20.0984 8.84914M20.3984 9.41914C20.3534 9.68539 20.5709 9.73789 20.7472 9.61789M19.4647 9.23164C19.5097 9.49789 19.7834 9.70789 20.0497 9.54664M19.7909 9.59914C19.7909 9.98164 20.3159 10.0229 20.4397 9.62914M20.2522 9.86914C20.4209 10.2179 20.7884 10.0754 20.9084 9.86539M19.8809 9.31414C19.9484 9.48289 20.0834 9.67039 20.3947 9.53164M18.9134 9.23164C18.9584 9.37039 19.2097 9.53914 19.4984 9.34414M19.0934 9.41164C18.9359 9.63664 19.2434 9.85039 19.6184 9.51289M19.2772 9.68914C19.3372 10.0079 19.4647 10.2666 19.9147 9.85414M19.6897 10.0191C19.8547 10.2216 20.1059 10.3454 20.3422 10.0041" stroke="black" stroke-width="0.03375"/>
<path d="M20.5222 10.0781C20.5072 10.3219 20.5522 10.4419 20.7435 10.4306C20.8935 10.4231 21.0322 10.3069 21.1147 10.1794M20.7097 10.4306C20.7022 10.7081 20.9197 10.9256 21.3285 10.6444M20.8785 10.7569C20.8035 10.9631 21.0322 11.3006 21.486 11.1281M19.9147 10.2056C19.8885 10.4681 20.1322 10.6481 20.5297 10.3069M20.1097 10.4981C20.1247 10.7156 20.3722 10.9781 20.7322 10.5994M20.2822 10.7756C20.256 11.1469 20.5972 11.2519 20.886 10.9669M19.7685 10.4981C19.8435 10.5056 19.9072 10.4381 19.9447 10.3856M19.9297 10.7681C19.9972 10.7831 20.1172 10.7231 20.1547 10.6444M20.1022 11.2069C20.1772 11.2931 20.4397 11.2331 20.4735 11.1206M20.391 11.2031C20.5335 11.5406 20.9197 11.5294 21.081 11.1469M21.006 11.2819C21.081 11.4806 21.2647 11.6044 21.5647 11.5369M21.1522 11.4844C20.9835 11.7581 21.2047 12.0844 21.5835 11.7656M21.246 11.8969C21.2272 12.0694 21.3847 12.2681 21.6022 12.2906M20.5297 11.3906C20.4735 11.7806 20.7547 11.9681 21.1035 11.7581M20.121 11.5781C20.211 11.6494 20.376 11.6569 20.5335 11.6006M20.721 11.8256C20.631 12.1556 20.9685 12.3919 21.2572 12.0244M20.2485 11.6306C20.256 11.7994 20.4172 11.9831 20.7022 11.9306M21.501 12.2681C21.306 12.3956 21.2685 12.6281 21.5385 12.7781M21.0285 12.2006C21.036 12.3956 21.1297 12.5081 21.3472 12.5269M20.7435 12.0994C20.451 12.3619 20.736 12.6731 21.081 12.4106M20.946 12.4931C20.8485 12.7969 21.2085 12.9806 21.4035 12.6731M20.346 11.8481C20.241 12.1481 20.376 12.3431 20.6235 12.3244M19.9635 11.7881C19.9785 11.9681 20.1322 12.0319 20.3085 11.9906M20.076 11.9756C19.9447 12.2269 20.1435 12.3619 20.406 12.2681M21.1935 12.8306C21.156 12.9881 21.1785 13.1006 21.4147 13.1569M21.2122 13.0556C20.9272 13.1831 20.901 13.4606 21.1222 13.6369M20.9797 12.7481C20.9456 12.778 20.9191 12.8155 20.9024 12.8576C20.8857 12.8997 20.8793 12.9452 20.8837 12.9903C20.8881 13.0354 20.9032 13.0788 20.9277 13.1169C20.9523 13.155 20.9855 13.1867 21.0247 13.2094M19.7122 11.8669C19.551 12.0281 19.7047 12.4744 20.0685 12.2306M20.6572 12.4294C20.4322 12.6169 20.5335 12.9469 20.901 12.8569M20.2897 12.2944C20.1735 12.6206 20.2822 12.7369 20.5447 12.7406" stroke="black" stroke-width="0.03375"/>
<path d="M19.4736 11.852C19.4376 11.8766 19.4074 11.9086 19.3847 11.9459C19.3621 11.9831 19.3476 12.0248 19.3423 12.068C19.337 12.1113 19.3409 12.1552 19.3539 12.1968C19.3668 12.2384 19.3884 12.2768 19.4173 12.3095C19.5036 12.407 19.6686 12.362 19.7173 12.2382M19.0573 11.7207C18.8361 12.0057 19.0573 12.3432 19.3723 12.2457M20.2461 12.5682C20.0211 12.647 19.8448 12.8532 19.9836 13.037C20.0698 13.142 20.4261 13.157 20.5273 12.7445M19.8373 12.302C19.7061 12.4895 19.7473 12.6695 19.9873 12.7595M19.8223 12.6545C19.6798 12.7295 19.5898 12.8232 19.6236 12.992M19.5073 12.3582C19.4548 12.5832 19.5186 12.7257 19.6573 12.7932M19.5036 12.6282C19.2861 12.6132 19.1736 12.7032 19.2486 12.9207M19.2673 12.6807C19.0536 12.6057 19.0198 12.4182 19.1136 12.2307M19.0836 12.5157C18.8511 12.5232 18.7461 12.6395 18.7461 12.797" stroke="black" stroke-width="0.03375"/>
<path d="M18.7676 11.6114C18.5988 11.6827 18.5426 11.9114 18.6063 12.0352C18.6701 12.1589 18.8688 12.1702 18.9888 12.0877M18.2988 11.4314C18.1451 11.6039 18.3213 11.9452 18.5988 11.8627M17.9013 11.2964C17.7588 11.4989 17.9163 11.8364 18.2876 11.7389M18.3063 12.6802C18.2688 12.4402 18.5201 12.2827 18.8313 12.5939M18.6813 12.1064C18.6372 12.1461 18.603 12.1957 18.5815 12.251C18.56 12.3064 18.5518 12.366 18.5576 12.4252M17.5076 11.1802C17.3463 11.4502 17.5413 11.6977 17.8826 11.6002M18.4001 11.8514C18.1751 12.0764 18.2501 12.3052 18.4188 12.4364M18.2538 12.1177C17.9126 12.1214 17.8938 12.5189 18.1713 12.6427M17.9951 11.7202C17.8526 11.8177 17.8076 12.0839 18.0513 12.1889M17.9838 12.3164C17.8376 12.2489 17.6651 12.3314 17.6801 12.5002M17.7663 12.3202C17.6351 12.0127 17.2563 12.0652 17.2901 12.3839M17.8713 11.9377C17.7926 11.9527 17.6276 12.0014 17.5638 12.1252M17.5863 11.5889C17.5562 11.62 17.5342 11.6581 17.5223 11.6998C17.5105 11.7415 17.5091 11.7855 17.5184 11.8278C17.5277 11.8702 17.5473 11.9095 17.5755 11.9424C17.6038 11.9754 17.6397 12.0008 17.6801 12.0164M17.1251 11.0977C17.0951 11.3077 17.1776 11.4089 17.4401 11.3902M17.2151 11.3639C17.1176 11.6152 17.2526 11.7277 17.5151 11.7127M17.2751 11.6752C17.1213 11.8589 17.2263 12.0539 17.3763 12.1364M17.2038 11.9077C16.9263 11.8702 16.8851 12.1927 16.9788 12.3389" stroke="black" stroke-width="0.03375"/>
<path d="M16.9839 11.0801C16.8152 11.1551 16.7177 11.3651 16.8077 11.4926C16.9014 11.6238 17.0852 11.5826 17.1827 11.5151M16.8677 11.5526C16.7252 11.7663 16.8527 11.9276 17.0027 11.9876" stroke="black" stroke-width="0.03375"/>
<path d="M16.3241 11.0527C16.2116 11.169 16.2828 11.4052 16.5491 11.4127C16.7703 11.4127 16.8791 11.2102 16.8116 11.064M16.5116 11.4127C16.4253 11.604 16.4816 11.814 16.8116 11.7802M16.9466 12.0802C16.7478 11.9902 16.4741 12.0802 16.5903 12.324M16.5641 11.739C16.4816 11.8552 16.5078 12.0202 16.6016 12.1215M16.5491 12.0465C16.4141 12.0727 16.2828 12.144 16.3616 12.3577M16.3428 12.1852C16.1703 12.1327 15.9491 12.2602 16.0803 12.4365M16.0541 12.2677C15.9041 12.2415 15.7278 12.4027 15.8703 12.5602M15.8141 12.429C15.6791 12.4665 15.5178 12.6165 15.6603 12.7402M16.4966 11.6715C16.3016 11.7577 16.2828 11.9752 16.3728 12.1365M16.2903 11.274C16.0016 11.3865 16.0053 11.769 16.3278 11.889M16.1891 11.8027C16.0166 11.904 15.9828 12.099 16.0991 12.2227M15.8853 11.1277C15.7728 11.1652 15.7803 11.5215 16.0878 11.514M15.5666 11.2477C15.3341 11.4015 15.6153 11.7915 15.9903 11.5102M15.7841 11.6115C15.7503 11.769 15.7953 11.9415 16.0503 11.964M15.7991 11.8215C15.6153 11.889 15.5816 12.2677 15.9116 12.2977M15.2141 11.4802C14.9778 11.6977 15.4091 11.8852 15.5666 11.5702M14.8878 11.8402C14.7716 11.9827 15.1766 12.3502 15.3566 11.7352M15.3978 11.724C15.4091 11.874 15.4953 11.9565 15.6716 11.9677M15.6716 12.1065C15.3828 12.1515 15.2928 12.5077 15.6116 12.5865M15.1428 12.0615C15.1316 12.1927 15.2741 12.3052 15.4316 12.2827M15.5778 12.5752C15.3153 12.6352 15.2816 12.9727 15.5141 12.9502M15.3941 13.2652C15.1766 13.2015 15.1691 12.9427 15.3641 12.8452" stroke="black" stroke-width="0.03375"/>
<path d="M15.2114 13.0399C15.0277 13.1524 15.0989 13.4149 15.1964 13.4524C15.2939 13.4899 15.3727 13.4449 15.3839 13.3624M15.3652 13.7374C15.3877 13.8612 14.9189 13.8124 15.1589 13.4224M15.1589 13.7562C15.0014 14.0037 15.2564 14.2062 15.4177 13.9924M15.1777 14.0524C15.1139 14.2512 15.3539 14.3937 15.5077 14.2399M14.6602 12.1999C14.5739 12.3762 15.0089 12.4437 15.0352 12.0762M14.5402 12.4624C14.4539 12.8112 15.1102 12.7399 14.9414 12.2899M14.9564 12.5224C15 12.5428 15.0478 12.5527 15.096 12.5513C15.1441 12.5499 15.1913 12.5372 15.2336 12.5142C15.2759 12.4912 15.3122 12.4586 15.3396 12.419C15.3671 12.3794 15.3848 12.3339 15.3914 12.2862M15.1927 12.5337C15.2046 12.5829 15.2263 12.6292 15.2566 12.6698C15.2869 12.7104 15.3251 12.7445 15.3689 12.7699M14.8777 12.6237C14.8477 12.8112 15.0389 12.9687 15.2527 12.9537M14.9114 12.8074C14.8064 12.9537 14.7727 13.2312 15.1064 13.2499M14.3977 12.8599C14.3452 13.0099 14.6602 13.1637 14.8402 12.9162M14.3002 13.2424C14.2739 13.3549 14.5552 13.5049 14.7127 13.0249M14.5889 13.2687C14.6564 13.3887 14.8852 13.4862 15.0239 13.2499M14.7989 13.3962C14.7389 13.5649 14.9002 13.7224 15.0914 13.6774M14.4352 13.3587C14.3977 13.5987 14.6789 13.7374 14.8477 13.6137M14.2514 13.4637C14.1689 13.7712 14.5664 13.8874 14.7164 13.6549M14.6152 13.7487C14.6302 13.9212 14.9002 14.0712 15.1102 13.9287M14.1314 13.8912C14.1127 13.9699 14.4352 14.0487 14.4839 13.7787M14.3189 13.9624C14.3939 14.1574 14.6564 14.2062 14.8064 13.9624M14.7202 14.0599C14.7577 14.2474 14.9902 14.3487 15.2002 14.2212M15.2864 14.2962C15.2339 14.5399 15.4889 14.7387 15.6464 14.6037M14.8739 14.2512C14.7989 14.5212 15.1364 14.6749 15.3239 14.5249M14.4689 14.1124C14.4502 14.3674 14.6489 14.5174 14.8739 14.4049M14.0377 14.1424C13.9702 14.3037 14.3302 14.4387 14.4989 14.2999M13.8164 14.5887C13.9102 14.6937 14.2289 14.5887 14.2552 14.3524M14.1689 14.5249C14.2852 14.6599 14.5627 14.7349 14.6714 14.4424M14.5739 14.5924C14.5739 14.8024 14.9414 14.9524 15.0614 14.5699M15.5002 14.6449C15.4627 14.7462 15.5452 14.9074 15.7139 14.9262M15.1927 14.5812C15.1702 14.6937 15.3389 14.8587 15.5189 14.7949M15.5527 14.8437C15.5039 14.9674 15.5452 15.1474 15.7139 15.1437M15.5677 15.0762C15.4402 15.1812 15.4927 15.3724 15.6764 15.3762M15.5039 15.2562C15.3239 15.3762 15.3877 15.6424 15.6239 15.6274M14.9602 14.7349C14.9602 14.9974 15.2864 15.0349 15.3464 14.7949M15.2227 14.9449C15.1739 15.1024 15.2977 15.2524 15.4964 15.2074M15.2602 16.8124C15.3052 16.8762 15.4852 16.7674 15.4364 16.6624C15.3877 16.5574 15.1964 16.6137 15.2189 16.7262M15.3914 16.6174C15.4139 16.4074 15.1664 16.3737 15.1027 16.5574M15.1927 16.4487C15.2564 16.3437 15.0427 16.1974 14.9564 16.3549M15.0314 16.2912C15.0914 16.1374 14.8514 16.0662 14.8327 16.2087M14.7764 16.0062C14.8064 15.9312 15.0764 15.9762 14.9639 16.1374M15.1702 16.3287C15.2752 16.2312 15.0952 16.0362 14.9827 16.1037M15.8827 16.6249C15.8002 16.6324 15.7139 16.6887 15.7739 16.8687C15.8189 16.9924 16.0027 16.9962 16.0327 16.9249" stroke="black" stroke-width="0.03375"/>
<path d="M15.7692 16.7193C15.6867 16.663 15.5067 16.7568 15.5892 16.9293C15.6492 17.0605 15.8067 17.0043 15.8292 16.9368M15.3042 16.9668C15.3492 17.0418 15.5517 17.0043 15.5892 16.9293M15.4467 16.7268C15.4917 16.6968 15.5705 16.7343 15.5855 16.7718M15.4355 15.5343C15.293 15.628 15.3792 15.9093 15.5967 15.8343M15.3867 15.763C15.2742 15.8493 15.3792 16.123 15.5855 16.018M15.4242 16.018C15.3455 16.0968 15.4205 16.3105 15.6192 16.2693M15.3942 16.1268C15.3492 16.108 15.2367 16.1193 15.188 16.1943M15.2667 15.1443C15.1617 15.2493 15.2142 15.4555 15.4092 15.4743M15.2292 15.3618C15.0792 15.4368 15.0792 15.7368 15.3792 15.748M15.218 15.6993C15.1317 15.7668 15.173 16.0293 15.3905 15.9955M15.2855 15.9843C15.2555 16.018 15.248 16.0968 15.278 16.1305M15.1917 15.8868C15.1167 15.8868 15.0117 15.943 14.9855 16.0255M14.8467 15.7443C14.873 15.6693 15.113 15.6693 15.1317 15.898M15.1542 15.628C15.1205 15.6355 15.0567 15.6655 15.0417 15.733M15.0492 14.9193C14.948 15.0168 14.8992 15.313 15.2105 15.3693M14.8392 15.5343C14.8392 15.4555 15.0567 15.3843 15.1317 15.5043M14.7005 15.103C14.7305 15.163 14.8805 15.2455 14.9705 15.178M13.9205 14.6305C13.919 14.6653 13.9252 14.6998 13.9386 14.7319C13.9521 14.7639 13.9724 14.7926 13.9982 14.8159C14.024 14.8391 14.0546 14.8564 14.0878 14.8665C14.121 14.8766 14.1561 14.8793 14.1905 14.8743C14.3517 14.8555 14.3855 14.7168 14.3367 14.623M14.2167 14.8818C14.108 15.0093 14.2392 15.193 14.3592 15.1405M14.3367 14.788C14.4005 14.7655 14.6067 14.7355 14.6705 14.833M13.6655 14.8255C13.6167 14.9005 13.9167 14.9718 14.018 14.833M13.9167 14.9043C13.9055 15.0018 13.9542 15.1668 14.2017 15.0955" stroke="black" stroke-width="0.03375"/>
<path d="M14.2397 15.2463C14.2772 15.1638 14.0972 15.0288 13.9547 15.1788C13.8159 15.3288 13.9772 15.4976 14.0634 15.4413M13.5984 14.9238C13.5234 15.0513 13.8047 15.2801 13.9659 15.0663" stroke="black" stroke-width="0.03375"/>
<path d="M13.4113 15.1416C13.31 15.2466 13.4375 15.4379 13.5875 15.3779C13.7413 15.3216 13.7263 15.1604 13.6888 15.1191" stroke="black" stroke-width="0.03375"/>
<path d="M13.2176 15.3359C13.1351 15.4109 13.2176 15.5834 13.3301 15.5834C13.4426 15.5834 13.5138 15.4971 13.4913 15.3809M13.6788 15.3209C13.6638 15.4334 13.8288 15.5084 13.9376 15.4034M13.9376 15.2009C13.9563 15.1784 13.9451 15.1371 13.9188 15.1146M13.0413 15.4821C12.9476 15.5571 13.1538 15.7671 13.2776 15.5759M13.7688 15.4446C13.7088 15.5009 13.8063 15.6509 13.9038 15.6059M13.4388 15.5496C13.4538 15.6509 13.6563 15.7296 13.7838 15.5721M13.5476 15.6509C13.5176 15.7184 13.5813 15.8196 13.6601 15.8084M15.4713 16.2509C15.3963 16.3971 15.6363 16.5696 15.8088 16.3896M15.6438 16.4684C15.6063 16.5471 15.6513 16.6596 15.7188 16.7009M15.4188 16.6371C15.4338 16.5621 15.5388 16.4946 15.6326 16.5284M15.2951 16.4459C15.3063 16.3784 15.3926 16.3146 15.4601 16.3334M20.9801 13.4309C20.6351 13.4346 20.7813 13.9859 21.0776 13.8771M20.8676 13.8396C20.8001 13.9484 20.9313 14.1246 21.0776 14.0196M21.0401 14.0421C20.9351 14.2109 21.2988 14.4696 21.4451 14.2034M21.3288 14.3046C21.3288 14.4659 21.7976 14.5671 21.7301 14.2484M21.6851 14.4209C21.7976 14.6084 22.2101 14.6271 22.1688 14.3459M22.0751 14.5409C22.1613 14.6684 22.5701 14.7434 22.5551 14.4846M20.4288 12.9546C20.4851 13.1046 20.6838 13.1571 20.9013 13.0671M20.3013 13.0596C20.4401 13.1459 20.2413 13.5434 20.0351 13.3821M20.3051 13.3071C20.4551 13.3784 20.6388 13.3259 20.6913 13.1121M20.5976 13.2771C20.6126 13.3896 20.7738 13.4759 20.9801 13.4309M20.2263 13.3934C20.4213 13.5584 20.1401 13.8959 20.0126 13.7421M20.2976 13.5171C20.3913 13.5846 20.6276 13.5471 20.6501 13.3671M20.5451 13.5171C20.5638 13.6334 20.6576 13.6784 20.7851 13.6821M20.2451 13.6784C20.3426 13.8134 20.5826 13.8509 20.6913 13.6746M20.5826 13.7759C20.5751 13.9034 20.7176 14.0121 20.8676 13.9821M20.0613 14.0609C20.1851 14.1246 20.3238 13.8846 20.2151 13.7234M20.2076 14.3121C20.3576 14.3196 20.3763 14.0946 20.2338 13.9671M20.5488 14.5184C20.6763 14.4884 20.6351 14.2146 20.3313 14.1921M20.9313 14.7209C21.0513 14.6871 20.9538 14.3834 20.6201 14.4021M21.3888 14.8296C21.4713 14.7021 21.2013 14.4921 20.9763 14.6046M21.6138 15.0021C21.7638 15.0471 21.8688 14.6496 21.3926 14.7134M21.8913 15.0021C22.0226 14.9646 22.1163 14.7321 21.7338 14.8071M22.1838 15.0209C22.2963 15.0809 22.3488 14.7396 21.9963 14.8334M20.2338 13.9709C20.3801 14.0496 20.6088 13.9559 20.5863 13.7721M20.5301 13.9296C20.5788 14.0159 20.5601 14.1846 20.4663 14.2296M20.5413 14.1321C20.6388 14.1696 20.7701 14.1359 20.8488 13.9821M20.7138 14.1321C20.7401 14.1996 20.7513 14.3346 20.6876 14.4021M20.7363 14.2484C20.8451 14.3084 20.9688 14.2296 21.0213 14.1171M20.9538 14.2146C21.0288 14.2634 21.1001 14.4884 20.9688 14.5821M21.0438 14.4771C21.1338 14.4771 21.2688 14.4771 21.3551 14.3646M21.2913 14.4284C21.3738 14.4509 21.4713 14.5859 21.4376 14.7059M21.4413 14.6646C21.5351 14.6534 21.6926 14.5896 21.7376 14.4771M21.6926 14.5521C21.7342 14.5766 21.7677 14.6127 21.789 14.656C21.8103 14.6994 21.8185 14.748 21.8126 14.7959M21.8126 14.7171C21.9063 14.7134 21.9888 14.6646 22.0113 14.5634M21.9888 14.6309C22.0563 14.6534 22.1388 14.7321 22.1426 14.8221M22.1313 14.7659C22.1988 14.7546 22.2476 14.7134 22.2926 14.6459M22.4763 14.6346C22.5626 14.7209 22.4463 15.0096 22.2663 14.9571M20.6201 8.78086C20.4438 8.88961 19.9338 8.85586 20.1851 8.43586M20.6726 8.49586C20.3163 8.63836 19.8851 8.36461 20.3351 8.07211M20.2151 7.97461C19.9226 7.97461 19.7238 8.44711 20.1176 8.61211M19.0713 8.17336C18.9963 8.32336 19.2701 8.48836 19.4576 8.33836C19.6038 8.22211 19.5926 7.90711 19.5063 7.78711M18.9213 8.52961C18.8238 8.84836 19.5363 8.86711 19.4238 8.36086M18.8838 9.00586C18.9063 9.24586 19.5626 9.16711 19.3526 8.67961M19.4276 8.54461C19.4801 8.61961 19.6263 8.74336 19.8738 8.71711M19.5363 8.21086C19.5588 8.29711 19.7051 8.36086 19.8926 8.29711M12.9513 15.5534C12.7826 15.6696 13.0413 15.8571 13.1351 15.6509M12.8201 15.6434C12.6551 15.7634 12.9101 15.9509 13.0038 15.7446M12.6813 15.7334C12.5163 15.8534 12.7713 16.0371 12.8688 15.8346M12.5388 15.8159C12.3776 15.9021 12.5651 16.1084 12.7263 15.9284M12.3813 15.8946C12.2201 15.9809 12.4076 16.1871 12.5688 16.0071M13.1913 15.6471C13.1876 15.7709 13.4201 15.8196 13.5063 15.6359M13.3376 15.7596C13.2626 15.8534 13.3976 15.9659 13.4688 15.9246M13.0263 15.7446C13.0188 15.8496 13.2213 15.9096 13.3188 15.7934M13.1351 15.8534C13.0713 15.9359 13.1988 16.0521 13.2851 16.0184M12.8913 15.8384C12.8988 15.9209 13.0151 16.0146 13.1388 15.9621M12.9663 15.9509C12.9176 15.9921 12.9401 16.0934 13.0076 16.1271M12.7151 15.9396C12.6963 16.0146 12.8238 16.1496 12.9551 16.0634M12.7413 16.0259C12.6663 16.0896 12.6738 16.1796 12.7713 16.1946M12.5538 16.0184C12.5463 16.0709 12.6101 16.1534 12.6926 16.1421M12.1413 16.0146C12.0663 16.0559 12.2613 16.2659 12.3851 16.0709M11.9501 16.1009C11.8526 16.1459 12.0926 16.3784 12.2013 16.1421M12.5763 16.0934C12.5013 16.1084 12.4526 16.2171 12.5163 16.2621M12.3288 16.1309C12.3213 16.1759 12.4151 16.2434 12.4901 16.2209M12.2688 16.1496C12.1938 16.1946 12.2351 16.3221 12.3213 16.3034M12.0101 16.2359C11.9426 16.2846 11.9913 16.3859 12.0851 16.3634M12.1338 16.2284C12.1338 16.2546 12.1976 16.2959 12.2463 16.2771M11.7776 16.1834C11.6913 16.2209 11.6988 16.4309 11.9838 16.3184M11.5863 16.2696C11.4663 16.3259 11.5076 16.4871 11.7663 16.3334M11.7851 16.3446C11.7551 16.3709 11.7213 16.4759 11.8413 16.4346M11.5713 16.3971C11.5226 16.4384 11.5526 16.5284 11.6576 16.4946M11.3201 16.4121C11.2338 16.4609 11.4251 16.5284 11.5526 16.3934M11.3801 16.4721C11.3426 16.5096 11.3426 16.6259 11.4401 16.5846M11.1326 16.5209C11.0763 16.5621 11.1701 16.6221 11.3576 16.5396M11.2076 16.5809C11.1363 16.6371 11.1438 16.7084 11.2451 16.6859M11.0051 16.6109C10.9301 16.6821 11.0388 16.7271 11.1701 16.6709M11.0051 16.6896C10.8776 16.7459 10.9338 16.8546 11.0126 16.8134M15.2801 17.0571C15.2501 17.1209 15.3476 17.1734 15.4413 17.1584C15.5276 17.1471 15.6138 17.0721 15.5463 16.9709M15.5501 17.0984C15.6401 17.1659 15.7938 17.0871 15.7938 16.9859" stroke="black" stroke-width="0.03375"/>
<path d="M20.8823 6.86107C20.4961 6.67357 19.6936 6.31357 19.4648 6.60232C19.6748 6.51607 20.2823 6.60607 20.7848 7.07107L20.8823 6.86482V6.86107Z" fill="white" stroke="black" stroke-width="0.03375"/>
<path d="M21.1159 6.84226C20.6697 6.32101 20.4034 6.43726 20.0847 6.26101C19.7847 6.09226 19.3047 6.05851 19.2109 6.32476C19.6497 6.11101 20.0547 6.43726 20.3059 6.48226C20.6434 6.53476 20.8384 6.80101 20.9397 6.92101L21.1159 6.84601V6.84226ZM22.7997 6.77476C22.5672 6.24601 22.0722 6.38476 21.8547 6.15976C21.5359 5.82976 20.7297 5.52226 20.3922 5.75101C21.1272 5.71351 21.4422 6.25726 21.8322 6.44851C22.1134 6.58351 22.4134 6.87226 22.7997 6.77476Z" fill="white" stroke="black" stroke-width="0.03375"/>
<path d="M21.9289 6.7191C21.5352 6.22785 20.9239 5.79285 20.6464 5.9541C21.0139 5.9766 21.1302 6.2316 21.3889 6.3966C21.6514 6.55785 21.5352 6.79785 21.9289 6.7191ZM20.0464 7.5891C19.6339 7.43535 18.8202 7.3566 18.4414 7.8291C19.0714 7.93785 20.0164 7.87785 20.0464 7.5891Z" fill="white" stroke="black" stroke-width="0.03375"/>
<path d="M19.9673 7.77207C19.5548 7.57707 19.2286 7.84707 18.8386 7.80957C18.0961 7.73457 17.5636 7.77957 17.4961 8.13957C17.9198 7.75707 18.6361 8.07207 18.9248 7.99332C19.2136 7.91832 20.2861 7.98207 20.6236 8.12832C20.4511 7.91457 20.1811 7.85832 19.9673 7.77207V7.77207ZM21.2723 6.66582C21.1748 6.34707 21.1823 6.00957 21.6586 6.03207C21.5386 5.88207 21.0961 5.80707 21.0211 6.36582C20.4961 5.97957 19.9186 5.91207 19.8136 6.24582C20.0836 6.01332 20.5036 6.18207 21.0061 6.75207C21.0898 6.7095 21.1796 6.68039 21.2723 6.66582V6.66582Z" fill="white" stroke="black" stroke-width="0.03375"/>
<path d="M20.5479 7.1057C20.2479 6.9107 19.8429 6.59945 20.5516 6.47195C20.2516 6.3107 19.8016 6.38195 19.8504 6.9407C19.0404 6.61445 18.4591 6.7232 18.3354 7.04945C18.2004 7.4057 18.7029 7.60445 18.7891 7.3757C18.6991 7.4132 18.3841 7.3082 18.5491 7.1057C18.7141 6.9032 19.5541 7.05695 20.3529 7.4732C20.5779 7.5857 21.3391 7.5707 20.5479 7.1057V7.1057Z" fill="white" stroke="black" stroke-width="0.03375"/>
<path d="M20.3357 7.63797C20.1069 7.16547 19.3569 7.59297 19.2069 7.13547C18.9969 7.80672 20.2719 7.43547 20.3357 7.63797ZM25.1019 8.14797C25.2594 8.22672 25.3944 8.10297 25.1544 8.00922C25.3119 8.08422 25.4507 7.96797 25.2107 7.87047C25.3682 7.94547 25.5032 7.82922 25.2632 7.73172C25.1994 7.79547 25.1094 8.03172 25.1019 8.14797V8.14797ZM25.1844 7.24047C25.5332 6.87297 25.1582 6.74922 25.5819 6.37047C25.9307 6.06297 25.6494 5.85672 25.9757 5.62047C26.0844 5.54172 26.3132 5.38797 26.3357 5.23047C26.4744 5.57922 25.9007 5.62797 25.9382 6.18672C25.9644 6.54297 25.7207 6.51297 25.6307 7.11672C25.6119 7.24047 25.5219 7.52172 25.1844 7.24047V7.24047Z" fill="white" stroke="black" stroke-width="0.03375"/>
<path d="M25.3359 7.40633C25.5309 6.99383 25.7522 6.99758 25.8609 6.83633C26.0634 6.52508 26.4909 6.88883 26.8547 6.61133C26.7909 7.00508 26.3034 6.86633 26.0897 7.11758C25.8797 7.36883 25.7034 7.48133 25.3397 7.40633H25.3359Z" fill="white" stroke="black" stroke-width="0.03375"/>
<path d="M25.3905 7.54034C25.728 7.27034 25.9755 7.45034 26.208 7.30784C26.7967 6.95159 27.033 7.38284 27.558 7.21034C27.423 7.54784 26.643 7.25909 26.3055 7.51034C25.968 7.76159 24.7792 8.00534 25.3867 7.54034H25.3905ZM24.4042 9.46784C24.3967 9.31409 24.2542 9.11534 24.0517 9.09284C23.8492 9.06659 23.7592 8.85284 23.6055 8.84534C23.4517 8.83409 23.3505 8.52659 23.1367 8.53034C22.9267 8.53409 22.8367 8.81159 23.3355 9.06284C23.8342 9.31409 24.3855 9.60284 24.4042 9.46784V9.46784ZM23.7742 9.59909C23.5642 9.60659 23.5342 9.91784 23.3317 9.92534C23.6092 10.0753 23.8155 9.85784 23.958 9.66284L23.778 9.59909H23.7742Z" fill="white" stroke="black" stroke-width="0.03375"/>
<path d="M23.9501 9.63672C23.7626 9.79047 23.7101 10.113 23.9764 10.2067C23.8189 9.98547 24.2576 9.88797 24.1226 9.68172L23.9501 9.63672V9.63672Z" fill="white" stroke="black" stroke-width="0.03375"/>
<path d="M24.1306 9.64719C23.9881 9.92469 24.3594 9.95844 24.2619 10.1722C24.4756 10.1234 24.5094 9.72219 24.3144 9.61719L24.1306 9.64344V9.64719Z" fill="white" stroke="black" stroke-width="0.03375"/>
<path d="M22.7109 9.04746C23.0597 9.02871 23.3747 9.21621 23.5884 9.51996C23.7234 9.71121 24.1772 9.78996 24.3347 9.63246C24.4847 9.48246 24.4022 9.15246 24.0159 9.25746C23.9184 9.09621 23.6409 9.15246 23.5022 9.01746C23.3672 8.88246 22.8459 8.49621 22.7109 9.04746V9.04746Z" fill="white" stroke="black" stroke-width="0.03375"/>
<path d="M24.0155 9.26125C23.9217 9.28 23.8917 9.4375 23.9517 9.52ZM24.2142 9.355C24.2405 9.40375 24.2217 9.47125 24.2067 9.505ZM23.2617 9.0625C23.438 9.07 23.4717 9.20125 23.6667 9.25Z" fill="white"/>
<path d="M24.0155 9.26125C23.9217 9.28 23.8917 9.4375 23.9517 9.52M24.2142 9.355C24.2405 9.40375 24.2217 9.47125 24.2067 9.505M23.2617 9.0625C23.438 9.07 23.4717 9.20125 23.6667 9.25" stroke="black" stroke-width="0.03375" stroke-linecap="round"/>
<path d="M23.1427 8.624C23.6298 8.7192 24.1034 8.87412 24.5527 9.08525C24.8564 9.25775 25.3289 9.31025 25.7377 9.19025C26.1502 9.07775 26.9452 8.969 26.9039 9.48275C27.1214 9.224 26.8477 8.95025 26.2964 8.9015C26.3077 8.65025 26.0377 8.42525 25.8464 8.57525C26.0227 8.549 26.1764 8.88275 25.8239 9.01775C25.8398 8.95964 25.8386 8.8982 25.8206 8.84072C25.8026 8.78324 25.7684 8.73213 25.7223 8.69346C25.6761 8.65478 25.6198 8.63015 25.56 8.62249C25.5003 8.61484 25.4396 8.62447 25.3852 8.65025C25.5502 8.699 25.7227 8.98025 25.3477 9.08525C25.1114 9.15275 24.7702 9.0665 24.5152 8.91275C24.2602 8.759 22.8277 8.20025 23.1427 8.62025V8.624Z" fill="white" stroke="black" stroke-width="0.03375"/>
<path d="M24.7017 8.37368C24.5105 8.45993 24.6342 8.66243 24.338 8.77868C24.038 8.89118 23.828 9.15743 23.8955 9.38618C24.098 8.93993 24.458 8.96243 24.5817 8.78618C24.7092 8.61368 24.893 8.35868 24.7017 8.37368Z" fill="white" stroke="black" stroke-width="0.03375"/>
<path d="M24.752 8.39903C24.7445 8.75153 24.467 8.62403 24.5758 9.11903C24.6095 9.27278 24.6733 9.52403 24.5645 9.77528C24.8758 9.55028 24.677 9.07403 24.8158 8.89403C24.8833 8.80403 24.9733 8.66903 25.0033 8.55653C24.932 8.75528 24.9395 9.13403 25.1345 9.23153C24.977 8.85653 25.5658 8.54528 25.1608 8.10653C25.1008 8.21903 24.917 8.40653 24.7558 8.39903H24.752ZM23.7695 8.04653C23.8183 8.12153 23.867 8.30153 23.822 8.40653C23.9195 8.34653 24.0583 8.19653 24.1033 8.09528C24.302 8.12528 24.377 8.36903 24.1895 8.47778C24.302 8.47778 24.5045 8.47778 24.6133 8.34653C24.4783 8.19653 24.0583 7.96403 23.7695 8.04653V8.04653Z" fill="white" stroke="black" stroke-width="0.03375"/>
<path d="M20.7669 7.3525C20.7145 7.31207 20.6524 7.28619 20.5869 7.2775C20.2944 7.2175 20.4481 6.955 20.6956 6.95875C21.2281 6.3775 21.5244 6.82375 22.1731 6.64375C22.3981 6.57625 22.5556 6.595 22.6756 6.65125C22.9681 6.45625 23.3056 6.50875 23.5531 6.7375C23.578 6.69449 23.6182 6.66238 23.6656 6.6475C23.8944 6.58375 24.0781 6.775 24.1419 7.02625C24.3181 6.99625 24.5206 7.0825 24.6556 7.2025C24.8394 7.10875 24.9631 7.105 25.0119 7.2025C25.1769 7.1275 25.3869 7.075 25.4956 7.3375C25.6044 7.6 25.2444 7.52125 25.1844 8.0725C25.1469 8.41 24.7719 8.545 24.4719 8.3425C23.9919 8.01625 23.5231 7.9675 23.2906 8.455C23.0619 8.95 22.8781 9.235 22.3156 9.07375C22.1988 9.04724 22.0768 9.05629 21.9652 9.09973C21.8536 9.14317 21.7575 9.21901 21.6894 9.3175C21.5244 9.5425 21.2769 9.3325 20.9769 9.355C21.3519 9.29875 21.2056 9.205 21.5356 9.1825C21.8356 9.16375 21.7569 8.8825 21.9481 8.845C21.1981 9.03625 21.2244 8.755 20.6056 8.95C20.8756 8.60125 21.3031 8.79625 21.5131 8.59375C20.9544 8.5825 20.7031 8.21875 20.4519 8.36875C20.0581 8.6125 20.2269 9.29875 19.1956 9.23875C18.6931 9.2125 18.3744 9.27625 18.0781 9.57625C18.5994 8.49625 19.3081 9.08875 19.6531 8.7475C19.8321 8.58645 19.9874 8.40086 20.1144 8.19625C20.1292 8.16657 20.1503 8.14047 20.1762 8.11974C20.2021 8.09902 20.2322 8.08418 20.2644 8.07625C19.4056 7.80625 19.9269 7.3825 20.7669 7.3525V7.3525Z" fill="white" stroke="black" stroke-width="0.03375"/>
<path d="M25.0097 7.19922C25.021 7.22922 25.0285 7.26672 25.0285 7.31172C25.0285 7.52172 24.7097 7.52922 24.691 7.84422C24.6797 8.00922 24.661 8.09922 24.5522 8.08047C24.4397 8.06172 24.3422 7.88922 24.4472 7.68672" fill="white"/>
<path d="M25.0097 7.19922C25.021 7.22922 25.0285 7.26672 25.0285 7.31172C25.0285 7.52172 24.7097 7.52922 24.691 7.84422C24.6797 8.00922 24.661 8.09922 24.5522 8.08047C24.4397 8.06172 24.3422 7.88922 24.4472 7.68672" stroke="black" stroke-width="0.03375" stroke-linecap="round"/>
<path d="M20.9278 7.03844C20.8602 6.98899 20.7791 6.9615 20.6953 6.95969ZM22.6753 6.64844C22.9303 6.76094 23.0541 7.02344 23.4253 7.03844C23.7853 7.04969 24.0066 7.57094 24.6066 7.22969C24.6214 7.22192 24.6364 7.21442 24.6516 7.20719M23.5528 6.73844C23.5013 6.83214 23.4828 6.94045 23.5003 7.04594ZM22.3828 7.83344C21.9328 7.83344 21.8128 8.06219 21.8128 8.28344C21.8128 8.50844 22.0266 8.79719 22.4016 8.79719C22.7766 8.79719 22.9828 8.56469 22.9828 8.31344C22.9828 8.06219 22.7503 7.82969 22.3828 7.82969V7.83344Z" fill="white"/>
<path d="M20.9278 7.03844C20.8602 6.98899 20.7791 6.9615 20.6953 6.95969M22.6753 6.64844C22.9303 6.76094 23.0541 7.02344 23.4253 7.03844C23.7853 7.04969 24.0066 7.57094 24.6066 7.22969C24.6214 7.22192 24.6364 7.21442 24.6516 7.20719M23.5528 6.73844C23.5013 6.83214 23.4828 6.94045 23.5003 7.04594M22.3828 7.83344C21.9328 7.83344 21.8128 8.06219 21.8128 8.28344C21.8128 8.50844 22.0266 8.79719 22.4016 8.79719C22.7766 8.79719 22.9828 8.56469 22.9828 8.31344C22.9828 8.06219 22.7503 7.82969 22.3828 7.82969V7.83344Z" stroke="black" stroke-width="0.03375"/>
<path d="M22.4637 8.78474C22.4562 8.66099 22.2274 8.67974 22.2387 8.58224C22.2462 8.48474 22.3624 8.44724 22.3624 8.31224C22.3624 8.17724 22.5649 8.16599 22.6324 8.27474C22.6999 8.37974 22.9024 8.58599 22.9474 8.48099M22.6324 8.27474C22.5705 8.34072 22.5348 8.42706 22.532 8.51753C22.5292 8.608 22.5596 8.69635 22.6174 8.76599M22.7787 8.43599C22.7412 8.51099 22.7337 8.62349 22.7749 8.69099Z" fill="white"/>
<path d="M22.4637 8.78474C22.4562 8.66099 22.2274 8.67974 22.2387 8.58224C22.2462 8.48474 22.3624 8.44724 22.3624 8.31224C22.3624 8.17724 22.5649 8.16599 22.6324 8.27474C22.6999 8.37974 22.9024 8.58599 22.9474 8.48099M22.6324 8.27474C22.5705 8.34072 22.5348 8.42706 22.532 8.51753C22.5292 8.608 22.5596 8.69635 22.6174 8.76599M22.7787 8.43599C22.7412 8.51099 22.7337 8.62349 22.7749 8.69099" stroke="black" stroke-width="0.03375"/>
<path d="M24.5817 8.0837C24.938 8.1137 24.9942 7.71995 24.7317 7.69745M24.143 7.02995C24.023 6.87245 23.738 6.81995 23.7305 7.14995" stroke="black" stroke-width="0.03375"/>
<path d="M23.7017 7.52969C23.5817 7.22969 23.2705 7.18844 23.1092 7.33844C22.9705 7.46219 22.9667 7.78844 23.2592 7.85594C23.3642 7.73219 23.5592 7.57469 23.7017 7.52969ZM23.5705 7.34219C23.3942 7.18844 23.1392 7.48094 23.3717 7.74719ZM20.2592 8.07344C20.3792 8.04719 20.548 8.10344 20.8105 8.22344C20.9717 8.30219 21.4667 8.46719 21.7742 8.30219C21.4555 8.41844 21.2117 7.93844 20.9717 7.99469C20.7317 8.05469 20.2892 8.14469 20.1055 7.96469C20.5555 7.99469 20.7992 7.63469 21.3205 7.94594C21.4678 8.03732 21.6384 8.0842 21.8117 8.08094C21.388 7.57094 20.8292 7.89719 20.7692 7.48094C21.0242 7.75844 21.6505 7.42094 21.9692 7.93469M20.863 7.55969C20.803 7.48469 20.8255 7.40969 20.7655 7.35344Z" fill="white"/>
<path d="M23.5705 7.34219C23.3942 7.18844 23.1392 7.48094 23.3717 7.74719M20.2592 8.07344C20.3792 8.04719 20.548 8.10344 20.8105 8.22344C20.9717 8.30219 21.4667 8.46719 21.7742 8.30219C21.4555 8.41844 21.2117 7.93844 20.9717 7.99469C20.7317 8.05469 20.2892 8.14469 20.1055 7.96469C20.5555 7.99469 20.7992 7.63469 21.3205 7.94594C21.4678 8.03732 21.6384 8.0842 21.8117 8.08094C21.388 7.57094 20.8292 7.89719 20.7692 7.48094C21.0242 7.75844 21.6505 7.42094 21.9692 7.93469M20.863 7.55969C20.803 7.48469 20.8255 7.40969 20.7655 7.35344M23.7017 7.52969C23.5817 7.22969 23.2705 7.18844 23.1092 7.33844C22.9705 7.46219 22.9667 7.78844 23.2592 7.85594C23.3642 7.73219 23.5592 7.57469 23.7017 7.52969Z" stroke="black" stroke-width="0.03375"/>
<path d="M24.144 7.02959C24.039 6.91709 23.8065 7.00334 23.874 7.23209C23.8986 7.17814 23.9361 7.13109 23.9832 7.09511C24.0303 7.05913 24.0855 7.03533 24.144 7.02584V7.02959ZM23.4878 7.64834C23.5524 7.59748 23.6245 7.55699 23.7015 7.52834C23.672 7.45192 23.6229 7.38465 23.559 7.33334C23.5028 7.29584 23.3453 7.50959 23.4878 7.64459V7.64834Z" fill="black"/>
<path d="M23.2033 7.25474C23.0308 7.13849 22.8696 7.14974 22.8171 7.24349C22.6933 7.24349 22.5883 7.33349 22.5846 7.51349M22.8508 7.59224C22.6446 7.44974 22.3596 7.50224 22.3783 7.82099M22.2508 8.00474C22.3521 7.92224 22.4983 7.86224 22.6108 8.00474M23.8033 7.68974C23.7658 7.74224 23.7358 7.82474 23.7996 7.95224C23.7246 7.84724 23.5296 7.84724 23.3196 8.11724M24.2608 7.67474C24.0096 7.70474 24.0171 7.86974 24.2196 7.93724M22.4758 7.05974C22.2621 7.01849 22.1083 7.14224 22.4008 7.24724M22.8808 6.91724C22.5808 6.84224 22.4608 6.92099 22.5958 6.99224M22.0146 8.11724C22.0071 8.22599 22.0633 8.36474 22.2396 8.20724M22.0746 8.43599C22.0746 8.46599 22.0708 8.49974 22.0483 8.52599M21.3771 7.02599C21.1933 6.96974 21.1596 6.80099 21.3771 6.81599M21.3171 7.41599C21.1146 7.34474 21.1146 7.14974 21.2796 7.16849M21.6921 7.31099C21.4558 7.25474 21.4483 7.08974 21.6246 7.11599M21.7221 6.80849C21.5946 6.80099 21.4033 6.93974 21.7258 7.02224M22.0746 7.08974C21.7783 7.04849 21.7858 7.16474 21.9583 7.24349M22.2958 6.80849C22.0708 6.76724 21.9921 6.90224 22.1458 6.95849M21.5833 7.64474C21.5271 7.59974 21.4821 7.38224 21.7446 7.44599M22.1308 7.57724C21.9546 7.52849 21.7858 7.70474 21.9471 7.80224M22.3671 7.37099C22.1796 7.33349 22.0221 7.38974 22.1233 7.45724" stroke="black" stroke-width="0.03375" stroke-linecap="round"/>
<path d="M24.1336 7.03125C24.0768 7.0415 24.0233 7.06524 23.9776 7.10048C23.932 7.13573 23.8954 7.18143 23.8711 7.23375" fill="white"/>
<path d="M24.1336 7.03125C24.0768 7.0415 24.0233 7.06524 23.9776 7.10048C23.932 7.13573 23.8954 7.18143 23.8711 7.23375" stroke="black" stroke-width="0.03375"/>
</g>
</g>
<defs>
<filter id="filter0_d_336_15778" x="0" y="-2" width="36" height="36" filterUnits="userSpaceOnUse" color-interpolation-filters="sRGB">
<feFlood flood-opacity="0" result="BackgroundImageFix"/>
<feColorMatrix in="SourceAlpha" type="matrix" values="0 0 0 0 0 0 0 0 0 0 0 0 0 0 0 0 0 0 127 0" result="hardAlpha"/>
<feOffset dy="4"/>
<feGaussianBlur stdDeviation="3"/>
<feComposite in2="hardAlpha" operator="out"/>
<feColorMatrix type="matrix" values="0 0 0 0 0 0 0 0 0 0 0 0 0 0 0 0 0 0 0.16 0"/>
<feBlend mode="normal" in2="BackgroundImageFix" result="effect1_dropShadow_336_15778"/>
<feBlend mode="normal" in="SourceGraphic" in2="effect1_dropShadow_336_15778" result="shape"/>
</filter>
<clipPath id="clip0_336_15778">
<rect width="24" height="18" fill="white" transform="translate(6 3)"/>
</clipPath>
</defs>
</svg>
