<svg width="36" height="31" viewBox="0 0 36 31" fill="none" xmlns="http://www.w3.org/2000/svg">
<g filter="url(#filter0_d_336_29029)">
<g clip-path="url(#clip0_336_29029)">
<path d="M6 3H30V21H6V3Z" fill="#FECB00"/>
<path d="M6 9H30V21H6V9Z" fill="#34B233"/>
<path d="M6 15H30V21H6V15Z" fill="#EA2839"/>
<path d="M18.0016 6L19.9915 12.633H16.0117L18.0016 6Z" fill="white"/>
<path d="M14.1011 17.9983L16.39 11.4625L19.6097 13.8018L14.1011 17.9983Z" fill="white"/>
<path d="M11.693 10.5841L18.6163 10.7413L17.3865 14.5263L11.693 10.5841Z" fill="white"/>
<path d="M24.3102 10.5839L18.6168 14.5261L17.387 10.7411L24.3102 10.5839Z" fill="white"/>
<path d="M21.9019 17.9997L16.3932 13.8031L19.6129 11.4639L21.9019 17.9997Z" fill="white"/>
</g>
</g>
<defs>
<filter id="filter0_d_336_29029" x="0" y="-2" width="36" height="36" filterUnits="userSpaceOnUse" color-interpolation-filters="sRGB">
<feFlood flood-opacity="0" result="BackgroundImageFix"/>
<feColorMatrix in="SourceAlpha" type="matrix" values="0 0 0 0 0 0 0 0 0 0 0 0 0 0 0 0 0 0 127 0" result="hardAlpha"/>
<feOffset dy="4"/>
<feGaussianBlur stdDeviation="3"/>
<feComposite in2="hardAlpha" operator="out"/>
<feColorMatrix type="matrix" values="0 0 0 0 0 0 0 0 0 0 0 0 0 0 0 0 0 0 0.16 0"/>
<feBlend mode="normal" in2="BackgroundImageFix" result="effect1_dropShadow_336_29029"/>
<feBlend mode="normal" in="SourceGraphic" in2="effect1_dropShadow_336_29029" result="shape"/>
</filter>
<clipPath id="clip0_336_29029">
<rect width="24" height="18" fill="white" transform="translate(6 3)"/>
</clipPath>
</defs>
</svg>
