<svg width="36" height="31" viewBox="0 0 36 31" fill="none" xmlns="http://www.w3.org/2000/svg">
<g filter="url(#filter0_d_336_17166)">
<g clip-path="url(#clip0_336_17166)">
<path d="M6 3H30V21H6V3Z" fill="#EE1C25"/>
<path d="M8.88077 9.66078L10.5007 4.80078L12.1207 9.66078L7.80078 6.69078H13.2007L8.88077 9.66078Z" fill="#FFFF00"/>
<path d="M15.9077 4.89369L14.2405 5.26314L15.3526 3.96727L15.2435 5.71134L14.3184 4.16731L15.9077 4.89369Z" fill="#FFFF00"/>
<path d="M17.5881 7.02639L15.9082 6.72033L17.4358 5.95719L16.6588 7.52245L16.4049 5.74045L17.5881 7.02639Z" fill="#FFFF00"/>
<path d="M17.344 10.0173L15.935 9.05266L17.641 8.97892L16.2932 10.0912L16.7881 8.36058L17.344 10.0173Z" fill="#FFFF00"/>
<path d="M15.224 11.9717L14.2968 10.5377L15.899 11.1286L14.2262 11.634L15.3511 10.2288L15.224 11.9717Z" fill="#FFFF00"/>
</g>
</g>
<defs>
<filter id="filter0_d_336_17166" x="0" y="-2" width="36" height="36" filterUnits="userSpaceOnUse" color-interpolation-filters="sRGB">
<feFlood flood-opacity="0" result="BackgroundImageFix"/>
<feColorMatrix in="SourceAlpha" type="matrix" values="0 0 0 0 0 0 0 0 0 0 0 0 0 0 0 0 0 0 127 0" result="hardAlpha"/>
<feOffset dy="4"/>
<feGaussianBlur stdDeviation="3"/>
<feComposite in2="hardAlpha" operator="out"/>
<feColorMatrix type="matrix" values="0 0 0 0 0 0 0 0 0 0 0 0 0 0 0 0 0 0 0.16 0"/>
<feBlend mode="normal" in2="BackgroundImageFix" result="effect1_dropShadow_336_17166"/>
<feBlend mode="normal" in="SourceGraphic" in2="effect1_dropShadow_336_17166" result="shape"/>
</filter>
<clipPath id="clip0_336_17166">
<rect width="24" height="18" fill="white" transform="translate(6 3)"/>
</clipPath>
</defs>
</svg>
