<svg width="36" height="31" viewBox="0 0 36 31" fill="none" xmlns="http://www.w3.org/2000/svg">
<g filter="url(#filter0_d_336_26891)">
<g clip-path="url(#clip0_336_26891)">
<path fill-rule="evenodd" clip-rule="evenodd" d="M6 3H30V21H6V3Z" fill="white"/>
<path d="M30 18.3786L9.43875 2.99609H6V5.56109L26.64 20.9998H30V18.3823" fill="#0099CC"/>
<path d="M17.8643 16.212C15.4643 16.212 15.5393 13.9507 15.5393 13.9507V10.4707H20.1893V13.9507C20.1893 13.9507 20.2718 16.212 17.8643 16.212Z" fill="#005BBF"/>
<path d="M17.8633 16.2116C15.4633 16.2116 15.5393 13.9497 15.5393 13.9497V10.4707H20.1913V13.9497C20.1913 13.9497 20.2713 16.2116 17.8633 16.2116V16.2116Z" stroke="black" stroke-width="0.0900387"/>
<path d="M17.8419 8.2884C17.8419 8.2884 17.3469 8.04465 16.8781 8.4009C16.8781 8.4009 16.0344 8.27715 15.9706 9.08715C15.9706 9.11715 15.9631 9.17715 15.9781 9.19965C15.9969 9.21465 16.0119 9.2484 16.0119 9.2709C16.0119 9.2934 16.0231 9.3084 16.0306 9.3159C16.0306 9.32715 16.0456 9.34215 16.0531 9.3834C16.0531 9.4284 16.0419 9.44715 16.0906 9.49215C16.1281 9.52965 16.1281 9.6534 16.1281 9.6909C16.1281 9.7284 16.1506 9.82215 16.1656 9.8409C16.1881 9.8634 16.2181 9.9159 16.2181 9.9609C16.2181 9.9984 16.2369 10.1184 16.2256 10.1484C16.2181 10.1784 16.2744 10.2159 16.3231 10.2309C16.3719 10.2459 16.9606 10.4409 17.8269 10.4222C18.6894 10.4109 19.0044 10.3622 19.3644 10.2347C19.3831 10.2287 19.3993 10.2166 19.4102 10.2002C19.4212 10.1839 19.4261 10.1642 19.4244 10.1447C19.4182 10.1031 19.422 10.0607 19.4356 10.0209C19.4506 9.9984 19.5556 9.8334 19.5331 9.80715C19.5106 9.7734 19.5106 9.70965 19.5331 9.68715C19.5519 9.6609 19.6156 9.53715 19.6269 9.4884C19.6381 9.43965 19.6419 9.3759 19.6644 9.36465C19.6869 9.3459 19.6944 9.28965 19.7019 9.27465C19.7114 9.25004 19.7269 9.22815 19.7469 9.2109C19.7469 9.2109 19.7844 9.00465 19.7619 8.90715C19.7356 8.8059 19.5819 8.37465 18.9744 8.46465C18.9744 8.46465 18.5169 8.1159 17.8419 8.28465" fill="#D81126"/>
<path d="M17.8428 8.28503C17.8428 8.28503 17.3468 8.04482 16.8788 8.39712C16.8788 8.39712 16.0348 8.27702 15.9708 9.08571C15.9708 9.11774 15.9627 9.17779 15.9787 9.19781C15.9948 9.21382 16.0108 9.24585 16.0108 9.26987C16.0108 9.29389 16.0228 9.3059 16.0308 9.31391C16.0308 9.32592 16.0468 9.34193 16.0508 9.38197C16.0508 9.426 16.0428 9.44602 16.0868 9.49006C16.1268 9.53009 16.1268 9.6542 16.1268 9.69023C16.1268 9.72626 16.1508 9.82234 16.1668 9.84236C16.1868 9.86238 16.2188 9.91442 16.2188 9.95846C16.2188 9.99849 16.2348 10.1186 16.2268 10.1466C16.2188 10.1786 16.2748 10.2147 16.3228 10.2307C16.3708 10.2467 16.9628 10.4389 17.8268 10.4229C18.6908 10.4108 19.0028 10.3628 19.3628 10.2347C19.3817 10.2284 19.398 10.2159 19.4089 10.1992C19.4198 10.1824 19.4247 10.1625 19.4228 10.1426C19.4148 10.1186 19.4228 10.0385 19.4348 10.0185C19.4508 9.99849 19.5548 9.83435 19.5308 9.80633C19.5108 9.7743 19.5108 9.71025 19.5308 9.68623C19.5508 9.6582 19.6148 9.5381 19.6268 9.48606C19.6388 9.43801 19.6428 9.37796 19.6668 9.36195C19.6868 9.34594 19.6948 9.28588 19.6988 9.27387C19.7091 9.2488 19.7256 9.22676 19.7468 9.20982C19.7468 9.20982 19.7868 9.00564 19.7628 8.90556C19.7348 8.80547 19.5828 8.3731 18.9708 8.46518C18.9708 8.46518 18.5148 8.11688 17.8428 8.28503V8.28503Z" stroke="black" stroke-width="0.135058"/>
<path d="M19.5016 9.78789C17.6228 9.19539 16.1641 9.76164 16.1641 9.76164C16.1641 9.76164 16.1828 9.82539 16.1978 9.84789C16.2128 9.87039 16.2353 9.91539 16.2353 9.94914V10.0616C16.2353 10.0916 16.2203 10.2116 16.3253 10.2079C16.3253 10.2079 17.6378 9.69414 19.3403 10.2341C19.3403 10.2341 19.3891 10.1966 19.3891 10.1366C19.3871 10.0805 19.4001 10.0249 19.4266 9.97539C19.4491 9.94164 19.5016 9.84039 19.5016 9.78789" fill="#BCAC0B"/>
<path d="M17.758 12.9336H16.9367C16.9367 12.9336 16.858 13.6648 17.4917 13.8898V13.9536H17.623V14.0436C17.623 14.0436 17.3905 14.2498 17.593 14.4936V14.5611H17.6267V14.6811H17.6642V14.8686C17.6642 14.8686 17.6342 15.5511 16.963 15.8811V15.9186H18.748V15.8811C18.0767 15.5548 18.0467 14.8686 18.0467 14.8686V14.6811H18.0842V14.5611H18.1217V14.4898C18.3167 14.2498 18.0842 14.0398 18.0842 14.0398V13.9536H18.223V13.8898C18.8492 13.6648 18.7705 12.9336 18.7705 12.9336H17.7542" fill="#C8B100" fill-opacity="0.9"/>
<path d="M17.7608 12.9336H16.9408C16.9408 12.9336 16.8608 13.6662 17.4928 13.8904V13.9545H17.6248V14.0425C17.6248 14.0425 17.3928 14.2507 17.5968 14.4909V14.563H17.6288V14.6831H17.6688V14.8713C17.6688 14.8713 17.6368 15.5518 16.9648 15.8801V15.9201H18.7528V15.8801C18.0848 15.5558 18.0528 14.8713 18.0528 14.8713V14.6831H18.0928V14.563H18.1248V14.4909C18.3248 14.2507 18.0928 14.0425 18.0928 14.0425V13.9545H18.2288V13.8904C18.8568 13.6662 18.7768 12.9336 18.7768 12.9336H17.7608Z" stroke="black" stroke-width="0.0900387"/>
<path d="M17.4641 13.8789H18.2521M17.4921 13.939H18.2281M17.6281 14.039H18.0881M17.5961 14.4994H18.1201M17.6241 14.5555H18.0881M17.6241 14.6676H18.0841M17.3441 15.5964H18.3641M17.0561 15.8326H18.6561M16.9961 15.8686H18.7161" stroke="black" stroke-width="0.0270116"/>
<path d="M17.865 12.8938C17.9374 12.9 18.0103 12.891 18.0791 12.8675C18.1479 12.844 18.211 12.8065 18.2645 12.7573C18.3181 12.7081 18.3608 12.6484 18.39 12.5818C18.4192 12.5153 18.4343 12.4434 18.4343 12.3707C18.4343 12.298 18.4192 12.2261 18.39 12.1596C18.3608 12.093 18.3181 12.0333 18.2645 11.9841C18.211 11.9349 18.1479 11.8974 18.0791 11.8739C18.0103 11.8504 17.9374 11.8414 17.865 11.8476C17.7268 11.8476 17.5942 11.9025 17.4964 12.0002C17.3987 12.098 17.3438 12.2306 17.3438 12.3688C17.3438 12.5071 17.3987 12.6397 17.4964 12.7374C17.5942 12.8352 17.7268 12.8901 17.865 12.8901" fill="#CCCCCC"/>
<path d="M17.8638 12.8925C18.0022 12.8925 18.135 12.8375 18.2329 12.7395C18.3308 12.6416 18.3858 12.5087 18.3858 12.3701C18.3858 12.2315 18.3308 12.0987 18.2329 12.0007C18.135 11.9027 18.0022 11.8477 17.8638 11.8477C17.7258 11.8477 17.5936 11.9025 17.4961 12.0001C17.3985 12.0977 17.3438 12.2301 17.3438 12.3681C17.3438 12.5061 17.3985 12.6385 17.4961 12.7361C17.5936 12.8337 17.7258 12.8885 17.8638 12.8885V12.8925Z" stroke="black" stroke-width="0.0900387"/>
<path d="M16.6484 11.3632H16.3259V11.0332H16.0372V11.3595H15.7109V11.6482H16.0372V11.967H16.3259V11.6482H16.6447V11.3632" fill="#CCCCCC"/>
<path d="M16.6509 11.3595H16.3269V11.0312H16.0389V11.3595H15.7109V11.6478H16.0389V11.9681H16.3269V11.6478H16.6469V11.3595" stroke="black" stroke-width="0.0900387"/>
<path d="M20.0309 11.3632H19.7047V11.0332H19.4234V11.3595H19.0859V11.6482H19.4159V11.967H19.7009V11.6482H20.0272V11.3632" fill="#CCCCCC"/>
<path d="M20.0298 11.3595H19.7058V11.0312H19.4178V11.3595H19.0898V11.6478H19.4178V11.9681H19.7058V11.6478H20.0298V11.3595Z" stroke="black" stroke-width="0.0900387"/>
<path d="M18.3164 10.9514H17.9902V10.6289H17.6977V10.9477H17.3789V11.2364H17.6977V11.5664H17.9864V11.2364H18.3127V10.9514" fill="#CCCCCC"/>
<path d="M18.3188 10.9472H17.9908V10.627H17.7028V10.9472H17.3828V11.2355H17.7028V11.5638H17.9908V11.2355H18.3188V10.9472Z" stroke="black" stroke-width="0.0900387"/>
<path d="M16.6484 12.7695H16.3259V12.4395H16.0372V12.7695H15.7109V13.0582H16.0372V13.377H16.3259V13.0582H16.6447V12.7695" fill="#CCCCCC"/>
<path d="M16.6509 12.7697H16.3269V12.4414H16.0389V12.7697H15.7109V13.0579H16.0389V13.3782H16.3269V13.0579H16.6469V12.7697" stroke="black" stroke-width="0.0900387"/>
<path d="M20.0309 12.7695H19.7047V12.4395H19.4234V12.7695H19.0859V13.0582H19.4159V13.377H19.7009V13.0582H20.0272V12.7695" fill="#CCCCCC"/>
<path d="M20.0298 12.7697H19.7058V12.4414H19.4178V12.7697H19.0898V13.0579H19.4178V13.3782H19.7058V13.0579H20.0298V12.7697Z" stroke="black" stroke-width="0.0900387"/>
<path d="M16.6484 14.1897H16.3259V13.8672H16.0372V14.1897H15.7109V14.4784H16.0372V14.8009H16.3259V14.4822H16.6447V14.1897" fill="#CCCCCC"/>
<path d="M16.6509 14.1915H16.3269V13.8672H16.0389V14.1915H15.7109V14.4797H16.0389V14.804H16.3269V14.4837H16.6469V14.1915" stroke="black" stroke-width="0.0900387"/>
<path d="M20.0309 14.1897H19.7047V13.8672H19.4234V14.1897H19.0859V14.4784H19.4159V14.8009H19.7009V14.4822H20.0272V14.1897" fill="#CCCCCC"/>
<path d="M20.0298 14.1915H19.7058V13.8672H19.4178V14.1915H19.0898V14.4797H19.4178V14.804H19.7058V14.4837H20.0298V14.1915Z" stroke="black" stroke-width="0.0900387"/>
<path d="M17.8619 7.59094C17.9454 7.59094 18.0255 7.55775 18.0846 7.49868C18.1437 7.4396 18.1769 7.35948 18.1769 7.27594C18.1769 7.19239 18.1437 7.11227 18.0846 7.0532C18.0255 6.99412 17.9454 6.96094 17.8619 6.96094C17.7783 6.96094 17.6982 6.99412 17.6391 7.0532C17.5801 7.11227 17.5469 7.19239 17.5469 7.27594C17.5469 7.35948 17.5801 7.4396 17.6391 7.49868C17.6982 7.55775 17.7783 7.59094 17.8619 7.59094Z" fill="#005BBF"/>
<path d="M17.8609 7.58948C17.9442 7.58948 18.024 7.55637 18.0829 7.49743C18.1418 7.43849 18.1749 7.35856 18.1749 7.27521C18.1749 7.19186 18.1418 7.11192 18.0829 7.05298C18.024 6.99405 17.9442 6.96094 17.8609 6.96094C17.7776 6.96094 17.6977 6.99405 17.6388 7.05298C17.58 7.11192 17.5469 7.19186 17.5469 7.27521C17.5469 7.35856 17.58 7.43849 17.6388 7.49743C17.6977 7.55637 17.7776 7.58948 17.8609 7.58948Z" stroke="black" stroke-width="0.0900387"/>
<path d="M18.1478 7.2193H17.8928V6.8068H17.9941V6.7243H17.8928V6.62305H17.8141V6.72055H17.7128V6.80305H17.8103V7.2193H17.5703V7.27555H18.1478V7.2193" fill="#FFCC00"/>
<path d="M18.1503 7.22151H17.8943V6.80515H17.9943V6.72509H17.8943V6.625H17.8143V6.72108H17.7143V6.80515H17.8103V7.22151H17.5703V7.27756H18.1503V7.22151Z" fill="#BCAC0B" stroke="black" stroke-width="0.0450193"/>
<path d="M16.6076 7.96211C16.6076 7.96211 16.8401 7.93586 16.9714 7.98836C16.9714 7.98836 16.8214 8.16461 16.8514 8.39336C16.858 8.47799 16.8836 8.56004 16.9264 8.63336C16.9601 8.68586 16.9939 8.80586 16.9751 8.89586H17.0201C17.0201 8.89586 17.0614 8.70836 16.9901 8.60336C16.947 8.54451 16.9207 8.47501 16.9141 8.40232C16.9074 8.32964 16.9208 8.25653 16.9526 8.19086C17.0276 8.04086 17.1364 7.97711 17.1364 7.97711C17.2564 8.02586 17.5189 7.97711 17.5901 7.92461C17.6651 7.87211 17.7026 7.79711 17.5676 7.79336C17.4251 7.78586 17.1926 7.78961 17.0351 7.90961C17.0351 7.90961 16.9526 7.81211 16.5326 7.85711C16.1126 7.90586 15.8126 8.08211 15.7151 8.46086C15.6664 8.65586 15.8464 9.06086 16.0114 9.15461C16.0114 9.15461 16.0076 9.09086 16.0226 9.04211C16.0226 9.04211 15.7414 8.72711 15.8239 8.43461C15.9101 8.14586 16.2476 7.95461 16.6076 7.96211" fill="#FFCC00"/>
<path d="M16.6069 7.96171C16.6069 7.96171 16.8389 7.93769 16.9709 7.98974C16.9709 7.98974 16.8189 8.16589 16.8509 8.39408C16.8669 8.51418 16.8909 8.57424 16.9269 8.63429C16.9589 8.68633 16.9949 8.80643 16.9749 8.89851H17.0189C17.0189 8.89851 17.0629 8.70635 16.9909 8.60226C16.9473 8.54371 16.9205 8.47435 16.9135 8.40166C16.9064 8.32898 16.9194 8.25575 16.9509 8.18991C17.0269 8.03778 17.1349 7.97772 17.1349 7.97772C17.2549 8.02577 17.5189 7.97772 17.5909 7.92568C17.6669 7.87364 17.7029 7.79757 17.5669 7.79357C17.4269 7.78556 17.1949 7.78956 17.0349 7.90967C17.0349 7.90967 16.9509 7.81358 16.5309 7.85762C16.1109 7.90566 15.8109 8.08582 15.7149 8.46214C15.6669 8.6543 15.8469 9.05865 16.0109 9.15473C16.0109 9.15473 16.0069 9.09068 16.0229 9.04264C16.0229 9.04264 15.7429 8.72637 15.8229 8.43412C15.9109 8.14587 16.2469 7.9537 16.6069 7.96171V7.96171Z" fill="#BCAC0B" stroke="black" stroke-width="0.0630271"/>
<path d="M17.3969 7.90498C17.4719 7.89748 17.5281 7.88623 17.5244 7.87498C17.5244 7.86373 17.4644 7.86373 17.3931 7.86748C17.3181 7.87123 17.2656 7.88998 17.2656 7.89748C17.2656 7.90873 17.3256 7.90873 17.3969 7.90498Z" fill="white"/>
<path d="M17.1293 7.97396C17.1293 7.97396 17.0493 8.05403 17.1293 7.97396C17.2093 7.89389 17.3853 7.84585 17.4853 7.86587C17.5813 7.88989 17.4653 7.9019 17.4333 7.9059C17.4013 7.9059 17.3373 7.91791 17.2413 7.9059" stroke="black" stroke-width="0.0630271"/>
<path d="M19.1038 7.98705C19.1038 7.98705 18.8788 7.9608 18.74 8.0133C18.8091 8.10337 18.8505 8.2116 18.8592 8.3248C18.8679 8.438 18.8434 8.55127 18.7888 8.6508C18.7513 8.71455 18.7175 8.8308 18.7363 8.9208H18.6988C18.6988 8.9208 18.65 8.7333 18.725 8.62455C18.7675 8.5661 18.7934 8.49728 18.8 8.42533C18.8066 8.35339 18.7937 8.281 18.7625 8.2158C18.7237 8.1289 18.6613 8.05481 18.5825 8.00205C18.4588 8.0508 18.1925 8.00205 18.1213 7.94955C18.0463 7.89705 18.0088 7.8258 18.1513 7.81455C18.2863 7.80705 18.5225 7.81455 18.68 7.93455C18.68 7.93455 18.7625 7.83705 19.1863 7.8858C19.5988 7.92705 19.9063 8.1108 19.9963 8.4858C20.045 8.6733 19.8688 9.08205 19.7038 9.1758C19.7038 9.1758 19.7038 9.11205 19.6925 9.0633C19.6925 9.0633 19.9738 8.75205 19.8913 8.4633C19.805 8.16705 19.4713 7.97955 19.1038 7.98705" fill="#FFCC00"/>
<path d="M19.1082 7.98913C19.1082 7.98913 18.8802 7.9611 18.7442 8.01315C18.8138 8.10356 18.8554 8.2124 18.864 8.32623C18.8725 8.44006 18.8475 8.5539 18.7922 8.6537C18.7562 8.71375 18.7202 8.82985 18.7402 8.92193H18.7002C18.7002 8.92193 18.6522 8.73376 18.7282 8.62567C18.7704 8.56717 18.796 8.49834 18.8023 8.42646C18.8087 8.35458 18.7955 8.28232 18.7642 8.21732C18.7259 8.12963 18.6634 8.05465 18.5842 8.00114C18.4602 8.05318 18.1962 8.00114 18.1242 7.94909C18.0522 7.89705 18.0122 7.82499 18.1522 7.81698C18.2882 7.80897 18.5242 7.81298 18.6842 7.93708C18.6842 7.93708 18.7642 7.837 19.1882 7.88504C19.6042 7.92908 19.9082 8.10923 20.0002 8.48555C20.0482 8.67772 19.8722 9.08206 19.7082 9.17814C19.7082 9.17814 19.7082 9.11409 19.6962 9.06605C19.6962 9.06605 19.9762 8.75378 19.8922 8.46153C19.8082 8.16928 19.4722 7.98112 19.1082 7.98913V7.98913Z" fill="#BCAC0B" stroke="black" stroke-width="0.0630271"/>
<path d="M18.3189 7.9278C18.2477 7.9278 18.1914 7.9128 18.1914 7.90155C18.1914 7.89405 18.2514 7.8903 18.3227 7.89405C18.3977 7.90155 18.4577 7.9128 18.4577 7.9203C18.4577 7.93155 18.3977 7.9353 18.3189 7.9278" fill="white"/>
<path d="M18.5832 7.99672C18.5832 7.99672 18.6672 8.07679 18.5832 7.99672C18.5032 7.92066 18.3272 7.86861 18.2312 7.89263C18.1312 7.91265 18.2472 7.92466 18.2792 7.92866C18.3152 7.92866 18.3792 7.94468 18.4752 7.92866" stroke="black" stroke-width="0.0630271"/>
<path d="M17.641 7.725V8.625C17.6335 8.71125 17.7497 8.83875 17.8322 8.8725C17.8322 8.8725 18.0347 8.80875 18.046 8.625V7.6875H17.9785V8.50125C17.9785 8.58 17.9222 8.73375 17.8435 8.75625C17.8435 8.75625 17.701 8.73375 17.6935 8.50125V7.71L17.641 7.7325" fill="#FFCC00"/>
<path d="M17.641 7.72968V8.62245C17.633 8.71052 17.749 8.83463 17.833 8.87066C17.833 8.87066 18.033 8.8066 18.045 8.62245V7.68164H17.977V8.49834C17.977 8.57841 17.921 8.73054 17.845 8.75456C17.845 8.75456 17.701 8.73054 17.693 8.49834V7.70566L17.641 7.72968Z" fill="#BCAC0B" stroke="black" stroke-width="0.0630271"/>
<path d="M15.6746 8.95195C15.6903 8.95491 15.7065 8.95436 15.7219 8.95036C15.7374 8.94636 15.7518 8.93899 15.7641 8.92878C15.7764 8.91858 15.7863 8.90579 15.7931 8.89132C15.7999 8.87685 15.8034 8.86106 15.8034 8.84508C15.8034 8.82909 15.7999 8.8133 15.7931 8.79884C15.7863 8.78437 15.7764 8.77158 15.7641 8.76137C15.7518 8.75117 15.7374 8.7438 15.7219 8.7398C15.7065 8.73579 15.6903 8.73525 15.6746 8.7382C15.6497 8.74289 15.6272 8.75614 15.611 8.77565C15.5948 8.79517 15.5859 8.81972 15.5859 8.84508C15.5859 8.87043 15.5948 8.89499 15.611 8.9145C15.6272 8.93402 15.6497 8.94727 15.6746 8.95195" fill="white"/>
<path d="M15.6693 8.95051C15.685 8.95357 15.7011 8.95312 15.7166 8.9492C15.732 8.94529 15.7464 8.93799 15.7587 8.92785C15.771 8.91771 15.7809 8.90497 15.7877 8.89055C15.7945 8.87612 15.798 8.86037 15.798 8.84442C15.798 8.82847 15.7945 8.81272 15.7877 8.79829C15.7809 8.78387 15.771 8.77113 15.7587 8.76099C15.7464 8.75085 15.732 8.74356 15.7166 8.73964C15.7011 8.73572 15.685 8.73527 15.6693 8.73833C15.6448 8.74313 15.6226 8.75634 15.6067 8.7757C15.5907 8.79505 15.582 8.81935 15.582 8.84442C15.582 8.86949 15.5907 8.89379 15.6067 8.91314C15.6226 8.9325 15.6448 8.94571 15.6693 8.95051Z" stroke="black" stroke-width="0.0900387"/>
<path d="M15.6039 8.70398C15.62 8.70833 15.6369 8.70891 15.6533 8.70567C15.6697 8.70243 15.6851 8.69547 15.6983 8.68531C15.7116 8.67516 15.7223 8.66209 15.7297 8.64712C15.7371 8.63215 15.7409 8.61568 15.7409 8.59898C15.7409 8.58229 15.7371 8.56582 15.7297 8.55085C15.7223 8.53588 15.7116 8.52281 15.6983 8.51265C15.6851 8.5025 15.6697 8.49554 15.6533 8.4923C15.6369 8.48906 15.62 8.48964 15.6039 8.49398C15.5808 8.50021 15.5604 8.51387 15.5459 8.53285C15.5313 8.55183 15.5234 8.57507 15.5234 8.59898C15.5234 8.62289 15.5313 8.64614 15.5459 8.66512C15.5604 8.6841 15.5808 8.69776 15.6039 8.70398" fill="white"/>
<path d="M15.6029 8.70637C15.6186 8.70943 15.6347 8.70898 15.6502 8.70506C15.6656 8.70114 15.68 8.69385 15.6923 8.68371C15.7046 8.67357 15.7145 8.66083 15.7213 8.64641C15.7281 8.63198 15.7316 8.61623 15.7316 8.60028C15.7316 8.58433 15.7281 8.56858 15.7213 8.55415C15.7145 8.53973 15.7046 8.52699 15.6923 8.51685C15.68 8.50671 15.6656 8.49942 15.6502 8.4955C15.6347 8.49158 15.6186 8.49113 15.6029 8.49419C15.5783 8.49899 15.5562 8.5122 15.5403 8.53156C15.5243 8.55091 15.5156 8.57521 15.5156 8.60028C15.5156 8.62535 15.5243 8.64965 15.5403 8.669C15.5562 8.68836 15.5783 8.70157 15.6029 8.70637Z" stroke="black" stroke-width="0.0900387"/>
<path d="M15.6351 8.40906C15.6512 8.41341 15.6681 8.41399 15.6845 8.41075C15.7009 8.40751 15.7163 8.40054 15.7296 8.39039C15.7428 8.38024 15.7536 8.36717 15.761 8.3522C15.7683 8.33723 15.7722 8.32076 15.7722 8.30406C15.7722 8.28737 15.7683 8.2709 15.761 8.25592C15.7536 8.24095 15.7428 8.22789 15.7296 8.21773C15.7163 8.20758 15.7009 8.20061 15.6845 8.19738C15.6681 8.19414 15.6512 8.19472 15.6351 8.19906C15.612 8.20529 15.5916 8.21895 15.5771 8.23793C15.5626 8.25691 15.5547 8.28015 15.5547 8.30406C15.5547 8.32797 15.5626 8.35122 15.5771 8.3702C15.5916 8.38918 15.612 8.40284 15.6351 8.40906" fill="white"/>
<path d="M15.6381 8.4095C15.6537 8.41255 15.6699 8.4121 15.6853 8.40819C15.7008 8.40427 15.7151 8.39698 15.7274 8.38684C15.7397 8.3767 15.7497 8.36396 15.7565 8.34953C15.7633 8.33511 15.7668 8.31935 15.7668 8.3034C15.7668 8.28745 15.7633 8.2717 15.7565 8.25728C15.7497 8.24285 15.7397 8.23011 15.7274 8.21997C15.7151 8.20983 15.7008 8.20254 15.6853 8.19862C15.6699 8.19471 15.6537 8.19426 15.6381 8.19731C15.6135 8.20212 15.5913 8.21533 15.5754 8.23468C15.5595 8.25404 15.5508 8.27833 15.5508 8.3034C15.5508 8.32848 15.5595 8.35277 15.5754 8.37213C15.5913 8.39148 15.6135 8.40469 15.6381 8.4095Z" stroke="black" stroke-width="0.0900387"/>
<path d="M15.8031 8.16102C15.8192 8.16536 15.8361 8.16594 15.8525 8.1627C15.8689 8.15946 15.8843 8.1525 15.8975 8.14234C15.9108 8.13219 15.9215 8.11912 15.9289 8.10415C15.9363 8.08918 15.9402 8.07271 15.9402 8.05602C15.9402 8.03932 15.9363 8.02285 15.9289 8.00788C15.9215 7.99291 15.9108 7.97984 15.8975 7.96969C15.8843 7.95953 15.8689 7.95257 15.8525 7.94933C15.8361 7.94609 15.8192 7.94667 15.8031 7.95102C15.78 7.95724 15.7596 7.9709 15.7451 7.98988C15.7305 8.00886 15.7227 8.03211 15.7227 8.05602C15.7227 8.07993 15.7305 8.10317 15.7451 8.12215C15.7596 8.14113 15.78 8.15479 15.8031 8.16102" fill="white"/>
<path d="M15.8022 8.16145C15.8178 8.1645 15.8339 8.16406 15.8494 8.16014C15.8648 8.15622 15.8792 8.14893 15.8915 8.13879C15.9038 8.12865 15.9137 8.11591 15.9205 8.10149C15.9273 8.08706 15.9308 8.07131 15.9308 8.05536C15.9308 8.03941 15.9273 8.02366 15.9205 8.00923C15.9137 7.99481 15.9038 7.98207 15.8915 7.97193C15.8792 7.96178 15.8648 7.95449 15.8494 7.95058C15.8339 7.94666 15.8178 7.94621 15.8022 7.94927C15.7776 7.95407 15.7554 7.96728 15.7395 7.98663C15.7236 8.00599 15.7148 8.03028 15.7148 8.05536C15.7148 8.08043 15.7236 8.10473 15.7395 8.12408C15.7554 8.14344 15.7776 8.15665 15.8022 8.16145Z" stroke="black" stroke-width="0.0900387"/>
<path d="M15.9984 7.98133C16.0145 7.98567 16.0314 7.98625 16.0478 7.98301C16.0642 7.97978 16.0796 7.97281 16.0929 7.96266C16.1061 7.9525 16.1168 7.93944 16.1242 7.92447C16.1316 7.90949 16.1355 7.89302 16.1355 7.87633C16.1355 7.85963 16.1316 7.84316 16.1242 7.82819C16.1168 7.81322 16.1061 7.80015 16.0929 7.79C16.0796 7.77985 16.0642 7.77288 16.0478 7.76964C16.0314 7.76641 16.0145 7.76698 15.9984 7.77133C15.9753 7.77755 15.9549 7.79121 15.9404 7.81019C15.9258 7.82917 15.918 7.85242 15.918 7.87633C15.918 7.90024 15.9258 7.92348 15.9404 7.94246C15.9549 7.96144 15.9753 7.9751 15.9984 7.98133" fill="white"/>
<path d="M15.9975 7.98176C16.0131 7.98482 16.0292 7.98437 16.0447 7.98045C16.0601 7.97654 16.0745 7.96924 16.0868 7.9591C16.0991 7.94896 16.109 7.93622 16.1158 7.9218C16.1226 7.90737 16.1262 7.89162 16.1262 7.87567C16.1262 7.85972 16.1226 7.84397 16.1158 7.82954C16.109 7.81512 16.0991 7.80238 16.0868 7.79224C16.0745 7.7821 16.0601 7.77481 16.0447 7.77089C16.0292 7.76697 16.0131 7.76652 15.9975 7.76958C15.9729 7.77438 15.9507 7.78759 15.9348 7.80695C15.9189 7.8263 15.9102 7.8506 15.9102 7.87567C15.9102 7.90074 15.9189 7.92504 15.9348 7.94439C15.9507 7.96375 15.9729 7.97696 15.9975 7.98176V7.98176Z" stroke="black" stroke-width="0.0900387"/>
<path d="M16.2562 7.87977C16.2723 7.88411 16.2892 7.88469 16.3056 7.88145C16.322 7.87821 16.3374 7.87125 16.3507 7.86109C16.3639 7.85094 16.3747 7.83787 16.382 7.8229C16.3894 7.80793 16.3933 7.79146 16.3933 7.77477C16.3933 7.75807 16.3894 7.7416 16.382 7.72663C16.3747 7.71166 16.3639 7.69859 16.3507 7.68844C16.3374 7.67828 16.322 7.67132 16.3056 7.66808C16.2892 7.66484 16.2723 7.66542 16.2562 7.66977C16.2331 7.67599 16.2127 7.68965 16.1982 7.70863C16.1837 7.72761 16.1758 7.75086 16.1758 7.77477C16.1758 7.79868 16.1837 7.82192 16.1982 7.8409C16.2127 7.85988 16.2331 7.87354 16.2562 7.87977" fill="white"/>
<path d="M16.2553 7.88215C16.2709 7.88521 16.287 7.88476 16.3025 7.88084C16.3179 7.87693 16.3323 7.86963 16.3446 7.85949C16.3569 7.84935 16.3668 7.83661 16.3736 7.82219C16.3804 7.80776 16.384 7.79201 16.384 7.77606C16.384 7.76011 16.3804 7.74436 16.3736 7.72993C16.3668 7.71551 16.3569 7.70277 16.3446 7.69263C16.3323 7.68249 16.3179 7.6752 16.3025 7.67128C16.287 7.66736 16.2709 7.66692 16.2553 7.66997C16.2307 7.67477 16.2085 7.68798 16.1926 7.70734C16.1767 7.72669 16.168 7.75099 16.168 7.77606C16.168 7.80114 16.1767 7.82543 16.1926 7.84478C16.2085 7.86414 16.2307 7.87735 16.2553 7.88215V7.88215Z" stroke="black" stroke-width="0.0900387"/>
<path d="M16.5183 7.83859C16.5472 7.83859 16.5748 7.82714 16.5952 7.80674C16.6156 7.78635 16.6271 7.75869 16.6271 7.72984C16.6271 7.701 16.6156 7.67334 16.5952 7.65295C16.5748 7.63255 16.5472 7.62109 16.5183 7.62109C16.4934 7.62578 16.4709 7.63903 16.4547 7.65854C16.4385 7.67806 16.4297 7.70261 16.4297 7.72797C16.4297 7.75332 16.4385 7.77788 16.4547 7.79739C16.4709 7.81691 16.4934 7.83016 16.5183 7.83484" fill="white"/>
<path d="M16.517 7.83728C16.5456 7.83728 16.5731 7.82589 16.5934 7.80562C16.6136 7.78535 16.625 7.75785 16.625 7.72919C16.625 7.70052 16.6136 7.67302 16.5934 7.65275C16.5731 7.63248 16.5456 7.62109 16.517 7.62109C16.4924 7.6259 16.4703 7.63911 16.4543 7.65846C16.4384 7.67782 16.4297 7.70211 16.4297 7.72718C16.4297 7.75226 16.4384 7.77655 16.4543 7.79591C16.4703 7.81526 16.4924 7.82847 16.517 7.83327V7.83728Z" stroke="black" stroke-width="0.0900387"/>
<path d="M16.7722 7.81914C16.7879 7.8221 16.8041 7.82155 16.8196 7.81755C16.8351 7.81354 16.8495 7.80618 16.8618 7.79597C16.8741 7.78577 16.884 7.77297 16.8908 7.75851C16.8976 7.74404 16.9011 7.72825 16.9011 7.71227C16.9011 7.69628 16.8976 7.68049 16.8908 7.66602C16.884 7.65156 16.8741 7.63876 16.8618 7.62856C16.8495 7.61836 16.8351 7.61099 16.8196 7.60698C16.8041 7.60298 16.7879 7.60244 16.7722 7.60539C16.7473 7.61008 16.7248 7.62332 16.7086 7.64284C16.6925 7.66235 16.6836 7.68691 16.6836 7.71227C16.6836 7.73762 16.6925 7.76218 16.7086 7.78169C16.7248 7.80121 16.7473 7.81445 16.7722 7.81914" fill="white"/>
<path d="M16.7721 7.82165C16.8007 7.82165 16.8282 7.81027 16.8484 7.78999C16.8687 7.76972 16.8801 7.74223 16.8801 7.71356C16.8801 7.68489 16.8687 7.6574 16.8484 7.63713C16.8282 7.61686 16.8007 7.60547 16.7721 7.60547C16.7434 7.60547 16.7159 7.61686 16.6957 7.63713C16.6754 7.6574 16.6641 7.68489 16.6641 7.71356C16.6641 7.74223 16.6754 7.76972 16.6957 7.78999C16.7159 7.81027 16.7434 7.82165 16.7721 7.82165Z" stroke="black" stroke-width="0.0900387"/>
<path d="M16.9994 7.83867C17.0151 7.84163 17.0313 7.84108 17.0467 7.83708C17.0622 7.83307 17.0766 7.82571 17.0889 7.8155C17.1012 7.8053 17.1111 7.79251 17.1179 7.77804C17.1247 7.76357 17.1282 7.74778 17.1282 7.7318C17.1282 7.71581 17.1247 7.70002 17.1179 7.68556C17.1111 7.67109 17.1012 7.6583 17.0889 7.64809C17.0766 7.63789 17.0622 7.63052 17.0467 7.62651C17.0313 7.62251 17.0151 7.62197 16.9994 7.62492C16.9705 7.62492 16.9429 7.63638 16.9225 7.65677C16.9021 7.67717 16.8906 7.70483 16.8906 7.73367C16.8906 7.76251 16.9021 7.79018 16.9225 7.81057C16.9429 7.83096 16.9705 7.84242 16.9994 7.84242" fill="white"/>
<path d="M16.9986 7.83723C17.0143 7.84029 17.0304 7.83984 17.0458 7.83592C17.0613 7.832 17.0757 7.82471 17.088 7.81457C17.1003 7.80443 17.1102 7.79169 17.117 7.77727C17.1238 7.76284 17.1273 7.74709 17.1273 7.73114C17.1273 7.71519 17.1238 7.69944 17.117 7.68501C17.1102 7.67059 17.1003 7.65785 17.088 7.64771C17.0757 7.63757 17.0613 7.63027 17.0458 7.62636C17.0304 7.62244 17.0143 7.62199 16.9986 7.62505C16.97 7.62505 16.9425 7.63644 16.9223 7.65671C16.902 7.67698 16.8906 7.70447 16.8906 7.73314C16.8906 7.76181 16.902 7.7893 16.9223 7.80957C16.9425 7.82985 16.97 7.84123 16.9986 7.84123V7.83723Z" stroke="black" stroke-width="0.0900387"/>
<path d="M17.639 7.75477C17.6552 7.75911 17.6721 7.75969 17.6884 7.75645C17.7048 7.75321 17.7202 7.74625 17.7335 7.7361C17.7467 7.72594 17.7575 7.71287 17.7649 7.6979C17.7722 7.68293 17.7761 7.66646 17.7761 7.64977C17.7761 7.63307 17.7722 7.6166 17.7649 7.60163C17.7575 7.58666 17.7467 7.57359 17.7335 7.56344C17.7202 7.55328 17.7048 7.54632 17.6884 7.54308C17.6721 7.53984 17.6552 7.54042 17.639 7.54477C17.6159 7.55099 17.5956 7.56465 17.581 7.58363C17.5665 7.60261 17.5586 7.62586 17.5586 7.64977C17.5586 7.67368 17.5665 7.69692 17.581 7.7159C17.5956 7.73488 17.6159 7.74854 17.639 7.75477" fill="white"/>
<path d="M17.6381 7.75715C17.6537 7.76021 17.6699 7.75976 17.6853 7.75584C17.7008 7.75193 17.7151 7.74464 17.7274 7.73449C17.7397 7.72435 17.7497 7.71161 17.7565 7.69719C17.7633 7.68276 17.7668 7.66701 17.7668 7.65106C17.7668 7.63511 17.7633 7.61936 17.7565 7.60493C17.7497 7.59051 17.7397 7.57777 17.7274 7.56763C17.7151 7.55749 17.7008 7.5502 17.6853 7.54628C17.6699 7.54236 17.6537 7.54192 17.6381 7.54497C17.6135 7.54977 17.5913 7.56298 17.5754 7.58234C17.5595 7.60169 17.5508 7.62599 17.5508 7.65106C17.5508 7.67614 17.5595 7.70043 17.5754 7.71978C17.5913 7.73914 17.6135 7.75235 17.6381 7.75715Z" stroke="black" stroke-width="0.0900387"/>
<path d="M17.85 7.81141C17.8661 7.81575 17.883 7.81633 17.8994 7.81309C17.9157 7.80985 17.9312 7.80289 17.9444 7.79274C17.9577 7.78258 17.9684 7.76951 17.9758 7.75454C17.9832 7.73957 17.987 7.7231 17.987 7.70641C17.987 7.68971 17.9832 7.67324 17.9758 7.65827C17.9684 7.6433 17.9577 7.63023 17.9444 7.62008C17.9312 7.60992 17.9157 7.60296 17.8994 7.59972C17.883 7.59648 17.8661 7.59706 17.85 7.60141C17.8269 7.60763 17.8065 7.62129 17.792 7.64027C17.7774 7.65925 17.7695 7.6825 17.7695 7.70641C17.7695 7.73032 17.7774 7.75356 17.792 7.77254C17.8065 7.79152 17.8269 7.80518 17.85 7.81141" fill="white"/>
<path d="M17.8451 7.81379C17.8608 7.81685 17.8769 7.8164 17.8923 7.81248C17.9078 7.80857 17.9222 7.80128 17.9345 7.79114C17.9468 7.78099 17.9567 7.76825 17.9635 7.75383C17.9703 7.7394 17.9738 7.72365 17.9738 7.7077C17.9738 7.69175 17.9703 7.676 17.9635 7.66157C17.9567 7.64715 17.9468 7.63441 17.9345 7.62427C17.9222 7.61413 17.9078 7.60684 17.8923 7.60292C17.8769 7.599 17.8608 7.59856 17.8451 7.60161C17.8205 7.60641 17.7984 7.61962 17.7825 7.63898C17.7665 7.65833 17.7578 7.68263 17.7578 7.7077C17.7578 7.73278 17.7665 7.75707 17.7825 7.77643C17.7984 7.79578 17.8205 7.80899 17.8451 7.81379Z" stroke="black" stroke-width="0.0900387"/>
<path d="M17.847 8.60617C17.8759 8.60617 17.9035 8.59471 17.9239 8.57432C17.9443 8.55393 17.9558 8.52626 17.9558 8.49742C17.9558 8.46858 17.9443 8.44092 17.9239 8.42052C17.9035 8.40013 17.8759 8.38867 17.847 8.38867C17.8182 8.38867 17.7905 8.40013 17.7701 8.42052C17.7497 8.44092 17.7383 8.46858 17.7383 8.49742C17.7383 8.52626 17.7497 8.55393 17.7701 8.57432C17.7905 8.59471 17.8182 8.60617 17.847 8.60617Z" fill="white"/>
<path d="M17.8463 8.60486C17.8749 8.60486 17.9024 8.59347 17.9226 8.5732C17.9429 8.55293 17.9543 8.52543 17.9543 8.49676C17.9543 8.4681 17.9429 8.4406 17.9226 8.42033C17.9024 8.40006 17.8749 8.38867 17.8463 8.38867C17.8176 8.38867 17.7902 8.40006 17.7699 8.42033C17.7497 8.4406 17.7383 8.4681 17.7383 8.49676C17.7383 8.52543 17.7497 8.55293 17.7699 8.5732C17.7902 8.59347 17.8176 8.60486 17.8463 8.60486V8.60486Z" stroke="black" stroke-width="0.0900387"/>
<path d="M20.0496 9.02031C20.0653 9.02327 20.0815 9.02272 20.0969 9.01872C20.1124 9.01471 20.1268 9.00735 20.1391 8.99714C20.1514 8.98694 20.1613 8.97415 20.1681 8.95968C20.1749 8.94521 20.1784 8.92942 20.1784 8.91344C20.1784 8.89745 20.1749 8.88166 20.1681 8.8672C20.1613 8.85273 20.1514 8.83994 20.1391 8.82973C20.1268 8.81953 20.1124 8.81216 20.0969 8.80816C20.0815 8.80415 20.0653 8.80361 20.0496 8.80656C20.0247 8.81125 20.0022 8.8245 19.986 8.84401C19.9698 8.86353 19.9609 8.88808 19.9609 8.91344C19.9609 8.93879 19.9698 8.96335 19.986 8.98286C20.0022 9.00238 20.0247 9.01562 20.0496 9.02031" fill="white"/>
<path d="M20.0522 9.01887C20.0678 9.02193 20.0839 9.02148 20.0994 9.01756C20.1148 9.01364 20.1292 9.00635 20.1415 8.99621C20.1538 8.98607 20.1637 8.97333 20.1705 8.95891C20.1773 8.94448 20.1808 8.92873 20.1808 8.91278C20.1808 8.89683 20.1773 8.88108 20.1705 8.86665C20.1637 8.85223 20.1538 8.83949 20.1415 8.82935C20.1292 8.81921 20.1148 8.81192 20.0994 8.808C20.0839 8.80408 20.0678 8.80363 20.0522 8.80669C20.0276 8.81149 20.0054 8.8247 19.9895 8.84406C19.9736 8.86341 19.9648 8.88771 19.9648 8.91278C19.9648 8.93785 19.9736 8.96215 19.9895 8.9815C20.0054 9.00086 20.0276 9.01407 20.0522 9.01887V9.01887Z" stroke="black" stroke-width="0.0900387"/>
<path d="M20.1078 8.75664C20.1235 8.7596 20.1397 8.75905 20.1551 8.75505C20.1706 8.75104 20.185 8.74368 20.1973 8.73347C20.2096 8.72327 20.2195 8.71047 20.2263 8.69601C20.2331 8.68154 20.2366 8.66575 20.2366 8.64977C20.2366 8.63378 20.2331 8.61799 20.2263 8.60352C20.2195 8.58906 20.2096 8.57626 20.1973 8.56606C20.185 8.55586 20.1706 8.54849 20.1551 8.54448C20.1397 8.54048 20.1235 8.53994 20.1078 8.54289C20.0847 8.54912 20.0643 8.56278 20.0498 8.58176C20.0352 8.60074 20.0273 8.62398 20.0273 8.64789C20.0273 8.6718 20.0352 8.69504 20.0498 8.71403C20.0643 8.73301 20.0847 8.74667 20.1078 8.75289" fill="white"/>
<path d="M20.1068 8.7572C20.1355 8.7572 20.163 8.74581 20.1832 8.72554C20.2035 8.70527 20.2148 8.67778 20.2148 8.64911C20.2148 8.62044 20.2035 8.59295 20.1832 8.57267C20.163 8.5524 20.1355 8.54102 20.1068 8.54102C20.0823 8.54582 20.0601 8.55903 20.0442 8.57838C20.0282 8.59774 20.0195 8.62203 20.0195 8.64711C20.0195 8.67218 20.0282 8.69648 20.0442 8.71583C20.0601 8.73518 20.0823 8.74839 20.1068 8.7532V8.7572Z" stroke="black" stroke-width="0.0900387"/>
<path d="M20.0613 8.47547C20.0774 8.47982 20.0943 8.48039 20.1107 8.47715C20.1271 8.47392 20.1425 8.46695 20.1557 8.4568C20.169 8.44665 20.1797 8.43358 20.1871 8.41861C20.1945 8.40364 20.1984 8.38716 20.1984 8.37047C20.1984 8.35377 20.1945 8.3373 20.1871 8.32233C20.1797 8.30736 20.169 8.29429 20.1557 8.28414C20.1425 8.27399 20.1271 8.26702 20.1107 8.26378C20.0943 8.26055 20.0774 8.26112 20.0613 8.26547C20.0364 8.27016 20.0139 8.2834 19.9977 8.30292C19.9815 8.32243 19.9727 8.34699 19.9727 8.37234C19.9727 8.3977 19.9815 8.42225 19.9977 8.44177C20.0139 8.46128 20.0364 8.47453 20.0613 8.47922" fill="white"/>
<path d="M20.0639 8.47786C20.0795 8.48091 20.0956 8.48046 20.1111 8.47655C20.1265 8.47263 20.1409 8.46534 20.1532 8.4552C20.1655 8.44506 20.1754 8.43232 20.1822 8.41789C20.189 8.40347 20.1926 8.38771 20.1926 8.37176C20.1926 8.35581 20.189 8.34006 20.1822 8.32564C20.1754 8.31121 20.1655 8.29847 20.1532 8.28833C20.1409 8.27819 20.1265 8.2709 20.1111 8.26698C20.0956 8.26307 20.0795 8.26262 20.0639 8.26567C20.0393 8.27048 20.0171 8.28369 20.0012 8.30304C19.9853 8.3224 19.9766 8.34669 19.9766 8.37176C19.9766 8.39684 19.9853 8.42113 20.0012 8.44049C20.0171 8.45984 20.0393 8.47305 20.0639 8.47786V8.47786Z" stroke="black" stroke-width="0.0900387"/>
<path d="M19.948 8.21758C19.9637 8.22053 19.9799 8.21999 19.9954 8.21598C20.0108 8.21198 20.0252 8.20461 20.0376 8.19441C20.0499 8.1842 20.0598 8.17141 20.0666 8.15694C20.0734 8.14248 20.0769 8.12669 20.0769 8.1107C20.0769 8.09472 20.0734 8.07893 20.0666 8.06446C20.0598 8.04999 20.0499 8.0372 20.0376 8.027C20.0252 8.01679 20.0108 8.00943 19.9954 8.00542C19.9799 8.00142 19.9637 8.00087 19.948 8.00383C19.9231 8.00852 19.9006 8.02176 19.8844 8.04128C19.8682 8.06079 19.8594 8.08535 19.8594 8.1107C19.8594 8.13606 19.8682 8.16061 19.8844 8.18013C19.9006 8.19964 19.9231 8.21289 19.948 8.21758" fill="white"/>
<path d="M19.9478 8.21814C19.9765 8.21814 20.004 8.20675 20.0242 8.18648C20.0445 8.16621 20.0558 8.13871 20.0558 8.11005C20.0558 8.08138 20.0445 8.05388 20.0242 8.03361C20.004 8.01334 19.9765 8.00195 19.9478 8.00195C19.9192 8.00195 19.8917 8.01334 19.8715 8.03361C19.8512 8.05388 19.8398 8.08138 19.8398 8.11005C19.8398 8.13871 19.8512 8.16621 19.8715 8.18648C19.8917 8.20675 19.9192 8.21814 19.9478 8.21814V8.21814Z" stroke="black" stroke-width="0.0900387"/>
<path d="M19.7488 8.03781C19.7776 8.03781 19.8053 8.02635 19.8257 8.00596C19.8461 7.98557 19.8575 7.9579 19.8575 7.92906C19.8575 7.90022 19.8461 7.87256 19.8257 7.85216C19.8053 7.83177 19.7776 7.82031 19.7488 7.82031C19.7239 7.825 19.7014 7.83825 19.6852 7.85776C19.669 7.87728 19.6602 7.90183 19.6602 7.92719C19.6602 7.95254 19.669 7.9771 19.6852 7.99661C19.7014 8.01613 19.7239 8.02937 19.7488 8.03406" fill="white"/>
<path d="M19.7514 8.0365C19.78 8.0365 19.8075 8.02511 19.8277 8.00484C19.848 7.98457 19.8594 7.95707 19.8594 7.9284C19.8594 7.89974 19.848 7.87224 19.8277 7.85197C19.8075 7.8317 19.78 7.82031 19.7514 7.82031C19.7268 7.82512 19.7046 7.83833 19.6887 7.85768C19.6728 7.87703 19.6641 7.90133 19.6641 7.9264C19.6641 7.95148 19.6728 7.97577 19.6887 7.99513C19.7046 8.01448 19.7268 8.02769 19.7514 8.03249V8.0365Z" stroke="black" stroke-width="0.0900387"/>
<path d="M19.514 7.91688C19.5302 7.92122 19.5471 7.9218 19.5634 7.91856C19.5798 7.91532 19.5952 7.90836 19.6085 7.8982C19.6217 7.88805 19.6325 7.87498 19.6399 7.86001C19.6472 7.84504 19.6511 7.82857 19.6511 7.81188C19.6511 7.79518 19.6472 7.77871 19.6399 7.76374C19.6325 7.74877 19.6217 7.7357 19.6085 7.72555C19.5952 7.71539 19.5798 7.70843 19.5634 7.70519C19.5471 7.70195 19.5302 7.70253 19.514 7.70688C19.4909 7.7131 19.4706 7.72676 19.456 7.74574C19.4415 7.76472 19.4336 7.78796 19.4336 7.81188C19.4336 7.83579 19.4415 7.85903 19.456 7.87801C19.4706 7.89699 19.4909 7.91065 19.514 7.91688" fill="white"/>
<path d="M19.5131 7.91731C19.5287 7.92036 19.5449 7.91992 19.5603 7.916C19.5758 7.91208 19.5901 7.90479 19.6024 7.89465C19.6147 7.88451 19.6247 7.87177 19.6315 7.85734C19.6383 7.84292 19.6418 7.82717 19.6418 7.81122C19.6418 7.79527 19.6383 7.77952 19.6315 7.76509C19.6247 7.75067 19.6147 7.73793 19.6024 7.72778C19.5901 7.71764 19.5758 7.71035 19.5603 7.70644C19.5449 7.70252 19.5287 7.70207 19.5131 7.70513C19.4885 7.70993 19.4663 7.72314 19.4504 7.74249C19.4345 7.76185 19.4258 7.78614 19.4258 7.81122C19.4258 7.83629 19.4345 7.86059 19.4504 7.87994C19.4663 7.8993 19.4885 7.91251 19.5131 7.91731Z" stroke="black" stroke-width="0.0900387"/>
<path d="M19.2445 7.85633C19.2606 7.86067 19.2775 7.86125 19.2939 7.85801C19.3103 7.85478 19.3257 7.84781 19.3389 7.83766C19.3522 7.8275 19.3629 7.81444 19.3703 7.79947C19.3777 7.78449 19.3816 7.76802 19.3816 7.75133C19.3816 7.73463 19.3777 7.71816 19.3703 7.70319C19.3629 7.68822 19.3522 7.67515 19.3389 7.665C19.3257 7.65485 19.3103 7.64788 19.2939 7.64464C19.2775 7.6414 19.2606 7.64198 19.2445 7.64633C19.2214 7.65255 19.201 7.66621 19.1865 7.68519C19.1719 7.70417 19.1641 7.72742 19.1641 7.75133C19.1641 7.77524 19.1719 7.79848 19.1865 7.81746C19.201 7.83644 19.2214 7.8501 19.2445 7.85633" fill="white"/>
<path d="M19.2436 7.85676C19.2592 7.85982 19.2753 7.85937 19.2908 7.85545C19.3062 7.85154 19.3206 7.84424 19.3329 7.8341C19.3452 7.82396 19.3551 7.81122 19.3619 7.7968C19.3687 7.78237 19.3723 7.76662 19.3723 7.75067C19.3723 7.73472 19.3687 7.71897 19.3619 7.70454C19.3551 7.69012 19.3452 7.67738 19.3329 7.66724C19.3206 7.6571 19.3062 7.64981 19.2908 7.64589C19.2753 7.64197 19.2592 7.64152 19.2436 7.64458C19.219 7.64938 19.1968 7.66259 19.1809 7.68195C19.165 7.7013 19.1562 7.7256 19.1562 7.75067C19.1562 7.77575 19.165 7.80004 19.1809 7.81939C19.1968 7.83875 19.219 7.85196 19.2436 7.85676Z" stroke="black" stroke-width="0.0900387"/>
<path d="M18.9988 7.83867C19.0145 7.84163 19.0307 7.84108 19.0462 7.83708C19.0616 7.83307 19.076 7.82571 19.0883 7.8155C19.1006 7.8053 19.1105 7.79251 19.1173 7.77804C19.1241 7.76357 19.1277 7.74778 19.1277 7.7318C19.1277 7.71581 19.1241 7.70002 19.1173 7.68556C19.1105 7.67109 19.1006 7.6583 19.0883 7.64809C19.076 7.63789 19.0616 7.63052 19.0462 7.62651C19.0307 7.62251 19.0145 7.62197 18.9988 7.62492C18.9739 7.62961 18.9514 7.64286 18.9352 7.66237C18.919 7.68189 18.9102 7.70644 18.9102 7.7318C18.9102 7.75715 18.919 7.78171 18.9352 7.80122C18.9514 7.82074 18.9739 7.83398 18.9988 7.83867" fill="white"/>
<path d="M18.9975 7.83723C19.0131 7.84029 19.0292 7.83984 19.0447 7.83592C19.0601 7.832 19.0745 7.82471 19.0868 7.81457C19.0991 7.80443 19.109 7.79169 19.1158 7.77727C19.1226 7.76284 19.1262 7.74709 19.1262 7.73114C19.1262 7.71519 19.1226 7.69944 19.1158 7.68501C19.109 7.67059 19.0991 7.65785 19.0868 7.64771C19.0745 7.63757 19.0601 7.63027 19.0447 7.62636C19.0292 7.62244 19.0131 7.62199 18.9975 7.62505C18.9729 7.62985 18.9507 7.64306 18.9348 7.66242C18.9189 7.68177 18.9102 7.70607 18.9102 7.73114C18.9102 7.75621 18.9189 7.78051 18.9348 7.79986C18.9507 7.81922 18.9729 7.83243 18.9975 7.83723V7.83723Z" stroke="black" stroke-width="0.0900387"/>
<path d="M18.7761 7.80742C18.7919 7.81038 18.808 7.80983 18.8235 7.80583C18.839 7.80182 18.8534 7.79446 18.8657 7.78425C18.878 7.77405 18.8879 7.76126 18.8947 7.74679C18.9015 7.73232 18.905 7.71653 18.905 7.70055C18.905 7.68456 18.9015 7.66877 18.8947 7.65431C18.8879 7.63984 18.878 7.62705 18.8657 7.61684C18.8534 7.60664 18.839 7.59927 18.8235 7.59526C18.808 7.59126 18.7919 7.59072 18.7761 7.59367C18.7512 7.59836 18.7287 7.61161 18.7125 7.63112C18.6964 7.65064 18.6875 7.67519 18.6875 7.70055C18.6875 7.7259 18.6964 7.75046 18.7125 7.76997C18.7287 7.78949 18.7512 7.80273 18.7761 7.80742" fill="white"/>
<path d="M18.776 7.80994C18.8046 7.80994 18.8321 7.79855 18.8523 7.77828C18.8726 7.758 18.884 7.73051 18.884 7.70184C18.884 7.67317 18.8726 7.64568 18.8523 7.62541C18.8321 7.60514 18.8046 7.59375 18.776 7.59375C18.7473 7.59375 18.7199 7.60514 18.6996 7.62541C18.6793 7.64568 18.668 7.67317 18.668 7.70184C18.668 7.73051 18.6793 7.758 18.6996 7.77828C18.7199 7.79855 18.7473 7.80994 18.776 7.80994V7.80994Z" stroke="black" stroke-width="0.0900387"/>
<path d="M18.9173 8.67852C18.9331 8.68147 18.9492 8.68093 18.9647 8.67692C18.9802 8.67292 18.9946 8.66555 19.0069 8.65535C19.0192 8.64514 19.0291 8.63235 19.0359 8.61788C19.0427 8.60341 19.0462 8.58763 19.0462 8.57164C19.0462 8.55566 19.0427 8.53987 19.0359 8.5254C19.0291 8.51093 19.0192 8.49814 19.0069 8.48794C18.9946 8.47773 18.9802 8.47036 18.9647 8.46636C18.9492 8.46235 18.9331 8.46181 18.9173 8.46477C18.8885 8.46477 18.8608 8.47622 18.8404 8.49662C18.8201 8.51701 18.8086 8.54467 18.8086 8.57352C18.8086 8.60236 18.8201 8.63002 18.8404 8.65041C18.8608 8.67081 18.8885 8.68227 18.9173 8.68227" fill="white"/>
<path d="M18.9205 8.67707C18.9361 8.68013 18.9523 8.67968 18.9677 8.67577C18.9832 8.67185 18.9976 8.66456 19.0099 8.65442C19.0222 8.64428 19.0321 8.63154 19.0389 8.61711C19.0457 8.60269 19.0492 8.58693 19.0492 8.57098C19.0492 8.55503 19.0457 8.53928 19.0389 8.52486C19.0321 8.51043 19.0222 8.49769 19.0099 8.48755C18.9976 8.47741 18.9832 8.47012 18.9677 8.4662C18.9523 8.46228 18.9361 8.46184 18.9205 8.46489C18.8919 8.46489 18.8644 8.47628 18.8441 8.49655C18.8239 8.51682 18.8125 8.54432 18.8125 8.57298C18.8125 8.60165 18.8239 8.62915 18.8441 8.64942C18.8644 8.66969 18.8919 8.68108 18.9205 8.68108V8.67707Z" stroke="black" stroke-width="0.0900387"/>
<path d="M18.975 8.47539C18.9907 8.47835 19.0068 8.4778 19.0223 8.4738C19.0378 8.46979 19.0522 8.46243 19.0645 8.45222C19.0768 8.44202 19.0867 8.42922 19.0935 8.41476C19.1003 8.40029 19.1038 8.3845 19.1038 8.36852C19.1038 8.35253 19.1003 8.33674 19.0935 8.32227C19.0867 8.30781 19.0768 8.29501 19.0645 8.28481C19.0522 8.27461 19.0378 8.26724 19.0223 8.26323C19.0068 8.25923 18.9907 8.25869 18.975 8.26164C18.9519 8.26787 18.9315 8.28153 18.917 8.30051C18.9024 8.31949 18.8945 8.34273 18.8945 8.36664C18.8945 8.39055 18.9024 8.41379 18.917 8.43278C18.9315 8.45176 18.9519 8.46542 18.975 8.47164" fill="white"/>
<path d="M18.974 8.4779C19.0027 8.4779 19.0301 8.46651 19.0504 8.44624C19.0707 8.42597 19.082 8.39848 19.082 8.36981C19.082 8.34114 19.0707 8.31365 19.0504 8.29338C19.0301 8.27311 19.0027 8.26172 18.974 8.26172C18.9494 8.26652 18.9273 8.27973 18.9114 8.29909C18.8954 8.31844 18.8867 8.34273 18.8867 8.36781C18.8867 8.39288 18.8954 8.41718 18.9114 8.43653C18.9273 8.45589 18.9494 8.4691 18.974 8.4739V8.4779Z" stroke="black" stroke-width="0.0900387"/>
<path d="M18.0775 7.79367C18.1063 7.79367 18.134 7.78221 18.1544 7.76182C18.1748 7.74143 18.1862 7.71376 18.1862 7.68492C18.1862 7.65608 18.1748 7.62842 18.1544 7.60802C18.134 7.58763 18.1063 7.57617 18.0775 7.57617C18.0487 7.57617 18.021 7.58763 18.0006 7.60802C17.9802 7.62842 17.9688 7.65608 17.9688 7.68492C17.9688 7.71376 17.9802 7.74143 18.0006 7.76182C18.021 7.78221 18.0487 7.79367 18.0775 7.79367" fill="white"/>
<path d="M18.0807 7.79236C18.1093 7.79236 18.1368 7.78097 18.157 7.7607C18.1773 7.74043 18.1887 7.71293 18.1887 7.68426C18.1887 7.6556 18.1773 7.6281 18.157 7.60783C18.1368 7.58756 18.1093 7.57617 18.0807 7.57617C18.052 7.57617 18.0245 7.58756 18.0043 7.60783C17.984 7.6281 17.9727 7.6556 17.9727 7.68426C17.9727 7.71293 17.984 7.74043 18.0043 7.7607C18.0245 7.78097 18.052 7.79236 18.0807 7.79236V7.79236Z" stroke="black" stroke-width="0.0900387"/>
<path d="M17.5609 7.7625C17.5766 7.76546 17.5928 7.76491 17.6083 7.76091C17.6237 7.7569 17.6381 7.74954 17.6504 7.73933C17.6627 7.72913 17.6726 7.71633 17.6794 7.70187C17.6862 7.6874 17.6898 7.67161 17.6898 7.65563C17.6898 7.63964 17.6862 7.62385 17.6794 7.60938C17.6726 7.59492 17.6627 7.58212 17.6504 7.57192C17.6381 7.56171 17.6237 7.55435 17.6083 7.55034C17.5928 7.54634 17.5766 7.54579 17.5609 7.54875C17.5378 7.55497 17.5174 7.56863 17.5029 7.58762C17.4883 7.6066 17.4805 7.62984 17.4805 7.65375C17.4805 7.67766 17.4883 7.7009 17.5029 7.71988C17.5174 7.73887 17.5378 7.75253 17.5609 7.75875" fill="white"/>
<path d="M17.56 7.76106C17.5756 7.76411 17.5917 7.76367 17.6072 7.75975C17.6226 7.75583 17.637 7.74854 17.6493 7.7384C17.6616 7.72826 17.6715 7.71552 17.6783 7.70109C17.6851 7.68667 17.6887 7.67092 17.6887 7.65497C17.6887 7.63902 17.6851 7.62327 17.6783 7.60884C17.6715 7.59442 17.6616 7.58168 17.6493 7.57153C17.637 7.56139 17.6226 7.5541 17.6072 7.55019C17.5917 7.54627 17.5756 7.54582 17.56 7.54888C17.5354 7.55368 17.5132 7.56689 17.4973 7.58624C17.4814 7.6056 17.4727 7.62989 17.4727 7.65497C17.4727 7.68004 17.4814 7.70434 17.4973 7.72369C17.5132 7.74304 17.5354 7.75626 17.56 7.76106V7.76106Z" stroke="black" stroke-width="0.0900387"/>
<path d="M17.432 7.75477C17.4481 7.75911 17.465 7.75969 17.4814 7.75645C17.4978 7.75321 17.5132 7.74625 17.5264 7.7361C17.5397 7.72594 17.5504 7.71287 17.5578 7.6979C17.5652 7.68293 17.5691 7.66646 17.5691 7.64977C17.5691 7.63307 17.5652 7.6166 17.5578 7.60163C17.5504 7.58666 17.5397 7.57359 17.5264 7.56344C17.5132 7.55328 17.4978 7.54632 17.4814 7.54308C17.465 7.53984 17.4481 7.54042 17.432 7.54477C17.4089 7.55099 17.3885 7.56465 17.374 7.58363C17.3594 7.60261 17.3516 7.62586 17.3516 7.64977C17.3516 7.67368 17.3594 7.69692 17.374 7.7159C17.3885 7.73488 17.4089 7.74854 17.432 7.75477Z" fill="white"/>
<path d="M17.4311 7.75715C17.4467 7.76021 17.4628 7.75976 17.4783 7.75584C17.4937 7.75193 17.5081 7.74464 17.5204 7.73449C17.5327 7.72435 17.5426 7.71161 17.5494 7.69719C17.5562 7.68276 17.5598 7.66701 17.5598 7.65106C17.5598 7.63511 17.5562 7.61936 17.5494 7.60493C17.5426 7.59051 17.5327 7.57777 17.5204 7.56763C17.5081 7.55749 17.4937 7.5502 17.4783 7.54628C17.4628 7.54236 17.4467 7.54192 17.4311 7.54497C17.4065 7.54977 17.3843 7.56298 17.3684 7.58234C17.3525 7.60169 17.3438 7.62599 17.3438 7.65106C17.3438 7.67614 17.3525 7.70043 17.3684 7.71978C17.3843 7.73914 17.4065 7.75235 17.4311 7.75715Z" stroke="black" stroke-width="0.0900387"/>
<path d="M16.7488 8.68242C16.7645 8.68538 16.7807 8.68483 16.7962 8.68083C16.8116 8.67682 16.826 8.66946 16.8383 8.65925C16.8506 8.64905 16.8605 8.63626 16.8673 8.62179C16.8741 8.60732 16.8777 8.59153 16.8777 8.57555C16.8777 8.55956 16.8741 8.54377 16.8673 8.52931C16.8605 8.51484 16.8506 8.50205 16.8383 8.49184C16.826 8.48164 16.8116 8.47427 16.7962 8.47026C16.7807 8.46626 16.7645 8.46572 16.7488 8.46867C16.7239 8.47336 16.7014 8.48661 16.6852 8.50612C16.669 8.52564 16.6602 8.55019 16.6602 8.57555C16.6602 8.6009 16.669 8.62546 16.6852 8.64497C16.7014 8.66449 16.7239 8.67773 16.7488 8.68242" fill="white"/>
<path d="M16.7514 8.68098C16.767 8.68404 16.7831 8.68359 16.7986 8.67967C16.814 8.67575 16.8284 8.66846 16.8407 8.65832C16.853 8.64818 16.8629 8.63544 16.8697 8.62102C16.8765 8.60659 16.8801 8.59084 16.8801 8.57489C16.8801 8.55894 16.8765 8.54319 16.8697 8.52876C16.8629 8.51434 16.853 8.5016 16.8407 8.49146C16.8284 8.48132 16.814 8.47402 16.7986 8.47011C16.7831 8.46619 16.767 8.46574 16.7514 8.4688C16.7268 8.4736 16.7046 8.48681 16.6887 8.50617C16.6728 8.52552 16.6641 8.54981 16.6641 8.57489C16.6641 8.59996 16.6728 8.62426 16.6887 8.64361C16.7046 8.66297 16.7268 8.67618 16.7514 8.68098V8.68098Z" stroke="black" stroke-width="0.0900387"/>
<path d="M16.722 8.43039C16.7509 8.43039 16.7785 8.41893 16.7989 8.39854C16.8193 8.37814 16.8308 8.35048 16.8308 8.32164C16.8308 8.2928 16.8193 8.26514 16.7989 8.24474C16.7785 8.22435 16.7509 8.21289 16.722 8.21289C16.6932 8.21289 16.6655 8.22435 16.6451 8.24474C16.6247 8.26514 16.6133 8.2928 16.6133 8.32164C16.6133 8.35048 16.6247 8.37814 16.6451 8.39854C16.6655 8.41893 16.6932 8.43039 16.722 8.43039Z" fill="white"/>
<path d="M16.7174 8.42908C16.746 8.42908 16.7735 8.41769 16.7937 8.39742C16.814 8.37715 16.8254 8.34965 16.8254 8.32098C16.8254 8.29232 16.814 8.26482 16.7937 8.24455C16.7735 8.22428 16.746 8.21289 16.7174 8.21289C16.6887 8.21289 16.6613 8.22428 16.641 8.24455C16.6208 8.26482 16.6094 8.29232 16.6094 8.32098C16.6094 8.34965 16.6208 8.37715 16.641 8.39742C16.6613 8.41769 16.6887 8.42908 16.7174 8.42908V8.42908Z" stroke="black" stroke-width="0.0900387"/>
<path d="M16.7996 8.18242C16.8153 8.18538 16.8315 8.18483 16.8469 8.18083C16.8624 8.17682 16.8768 8.16946 16.8891 8.15925C16.9014 8.14905 16.9113 8.13626 16.9181 8.12179C16.9249 8.10732 16.9284 8.09153 16.9284 8.07555C16.9284 8.05956 16.9249 8.04377 16.9181 8.02931C16.9113 8.01484 16.9014 8.00205 16.8891 7.99184C16.8768 7.98164 16.8624 7.97427 16.8469 7.97026C16.8315 7.96626 16.8153 7.96572 16.7996 7.96867C16.7747 7.97336 16.7522 7.98661 16.736 8.00612C16.7198 8.02564 16.7109 8.05019 16.7109 8.07555C16.7109 8.1009 16.7198 8.12546 16.736 8.14497C16.7522 8.16449 16.7747 8.17773 16.7996 8.18242" fill="white"/>
<path d="M16.7982 8.18098C16.8139 8.18404 16.83 8.18359 16.8455 8.17967C16.8609 8.17575 16.8753 8.16846 16.8876 8.15832C16.8999 8.14818 16.9098 8.13544 16.9166 8.12102C16.9234 8.10659 16.9269 8.09084 16.9269 8.07489C16.9269 8.05894 16.9234 8.04319 16.9166 8.02876C16.9098 8.01434 16.8999 8.0016 16.8876 7.99146C16.8753 7.98132 16.8609 7.97402 16.8455 7.97011C16.83 7.96619 16.8139 7.96574 16.7982 7.9688C16.7737 7.9736 16.7515 7.98681 16.7356 8.00617C16.7196 8.02552 16.7109 8.04981 16.7109 8.07489C16.7109 8.09996 16.7196 8.12426 16.7356 8.14361C16.7515 8.16297 16.7737 8.17618 16.7982 8.18098Z" stroke="black" stroke-width="0.0900387"/>
<path d="M17.2683 7.78203C17.284 7.78499 17.3002 7.78444 17.3157 7.78044C17.3312 7.77643 17.3456 7.76907 17.3579 7.75886C17.3702 7.74866 17.3801 7.73586 17.3869 7.7214C17.3937 7.70693 17.3972 7.69114 17.3972 7.67516C17.3972 7.65917 17.3937 7.64338 17.3869 7.62891C17.3801 7.61445 17.3702 7.60166 17.3579 7.59145C17.3456 7.58125 17.3312 7.57388 17.3157 7.56987C17.3002 7.56587 17.284 7.56533 17.2683 7.56828C17.2434 7.57297 17.2209 7.58622 17.2047 7.60573C17.1885 7.62525 17.1797 7.6498 17.1797 7.67516C17.1797 7.70051 17.1885 7.72507 17.2047 7.74458C17.2209 7.7641 17.2434 7.77734 17.2683 7.78203" fill="white"/>
<path d="M17.267 7.78059C17.2826 7.78365 17.2988 7.7832 17.3142 7.77928C17.3297 7.77536 17.3441 7.76807 17.3564 7.75793C17.3687 7.74779 17.3786 7.73505 17.3854 7.72063C17.3922 7.7062 17.3957 7.69045 17.3957 7.6745C17.3957 7.65855 17.3922 7.6428 17.3854 7.62837C17.3786 7.61395 17.3687 7.60121 17.3564 7.59107C17.3441 7.58093 17.3297 7.57363 17.3142 7.56972C17.2988 7.5658 17.2826 7.56535 17.267 7.56841C17.2424 7.57321 17.2203 7.58642 17.2043 7.60578C17.1884 7.62513 17.1797 7.64942 17.1797 7.6745C17.1797 7.69957 17.1884 7.72387 17.2043 7.74322C17.2203 7.76258 17.2424 7.77579 17.267 7.78059Z" stroke="black" stroke-width="0.0900387"/>
<path d="M17.0886 7.85234C17.1044 7.8553 17.1205 7.85476 17.136 7.85075C17.1515 7.84675 17.1659 7.83938 17.1782 7.82917C17.1905 7.81897 17.2004 7.80618 17.2072 7.79171C17.214 7.77724 17.2175 7.76145 17.2175 7.74547C17.2175 7.72948 17.214 7.7137 17.2072 7.69923C17.2004 7.68476 17.1905 7.67197 17.1782 7.66176C17.1659 7.65156 17.1515 7.64419 17.136 7.64019C17.1205 7.63618 17.1044 7.63564 17.0886 7.63859C17.0637 7.64328 17.0412 7.65653 17.025 7.67604C17.0089 7.69556 17 7.72012 17 7.74547C17 7.77082 17.0089 7.79538 17.025 7.81489C17.0412 7.83441 17.0637 7.84766 17.0886 7.85234" fill="white"/>
<path d="M17.0873 7.85286C17.103 7.85591 17.1191 7.85546 17.1345 7.85155C17.15 7.84763 17.1644 7.84034 17.1767 7.8302C17.189 7.82006 17.1989 7.80732 17.2057 7.79289C17.2125 7.77847 17.216 7.76271 17.216 7.74676C17.216 7.73081 17.2125 7.71506 17.2057 7.70064C17.1989 7.68621 17.189 7.67347 17.1767 7.66333C17.1644 7.65319 17.15 7.6459 17.1345 7.64198C17.1191 7.63806 17.103 7.63762 17.0873 7.64067C17.0627 7.64548 17.0406 7.65869 17.0246 7.67804C17.0087 7.6974 17 7.72169 17 7.74676C17 7.77184 17.0087 7.79613 17.0246 7.81549C17.0406 7.83484 17.0627 7.84805 17.0873 7.85286Z" stroke="black" stroke-width="0.0900387"/>
<path d="M16.9203 7.995C16.9364 7.99935 16.9533 7.99992 16.9697 7.99669C16.9861 7.99345 17.0015 7.98648 17.0147 7.97633C17.028 7.96618 17.0387 7.95311 17.0461 7.93814C17.0535 7.92317 17.0573 7.9067 17.0573 7.89C17.0573 7.8733 17.0535 7.85683 17.0461 7.84186C17.0387 7.82689 17.028 7.81382 17.0147 7.80367C17.0015 7.79352 16.9861 7.78655 16.9697 7.78331C16.9533 7.78008 16.9364 7.78065 16.9203 7.785C16.8972 7.79122 16.8768 7.80488 16.8623 7.82387C16.8477 7.84285 16.8398 7.86609 16.8398 7.89C16.8398 7.91391 16.8477 7.93715 16.8623 7.95613C16.8768 7.97512 16.8972 7.98878 16.9203 7.995" fill="white"/>
<path d="M16.9193 7.99739C16.935 8.00044 16.9511 7.99999 16.9666 7.99608C16.982 7.99216 16.9964 7.98487 17.0087 7.97473C17.021 7.96459 17.0309 7.95185 17.0377 7.93742C17.0445 7.923 17.048 7.90725 17.048 7.8913C17.048 7.87535 17.0445 7.85959 17.0377 7.84517C17.0309 7.83074 17.021 7.818 17.0087 7.80786C16.9964 7.79772 16.982 7.79043 16.9666 7.78651C16.9511 7.7826 16.935 7.78215 16.9193 7.7852C16.8948 7.79001 16.8726 7.80322 16.8567 7.82257C16.8407 7.84193 16.832 7.86622 16.832 7.8913C16.832 7.91637 16.8407 7.94067 16.8567 7.96002C16.8726 7.97937 16.8948 7.99258 16.9193 7.99739V7.99739Z" stroke="black" stroke-width="0.0900387"/>
<path d="M17.85 7.9325C17.8661 7.93685 17.883 7.93742 17.8994 7.93418C17.9157 7.93095 17.9312 7.92398 17.9444 7.91383C17.9577 7.90368 17.9684 7.89061 17.9758 7.87564C17.9832 7.86067 17.987 7.8442 17.987 7.8275C17.987 7.8108 17.9832 7.79433 17.9758 7.77936C17.9684 7.76439 17.9577 7.75132 17.9444 7.74117C17.9312 7.73102 17.9157 7.72405 17.8994 7.72081C17.883 7.71758 17.8661 7.71815 17.85 7.7225C17.8269 7.72872 17.8065 7.74238 17.792 7.76137C17.7774 7.78035 17.7695 7.80359 17.7695 7.8275C17.7695 7.85141 17.7774 7.87465 17.792 7.89363C17.8065 7.91262 17.8269 7.92628 17.85 7.9325" fill="white"/>
<path d="M17.8451 7.93293C17.8608 7.93599 17.8769 7.93554 17.8923 7.93162C17.9078 7.92771 17.9222 7.92042 17.9345 7.91028C17.9468 7.90013 17.9567 7.8874 17.9635 7.87297C17.9703 7.85855 17.9738 7.84279 17.9738 7.82684C17.9738 7.81089 17.9703 7.79514 17.9635 7.78071C17.9567 7.76629 17.9468 7.75355 17.9345 7.74341C17.9222 7.73327 17.9078 7.72598 17.8923 7.72206C17.8769 7.71814 17.8608 7.7177 17.8451 7.72075C17.8205 7.72556 17.7984 7.73876 17.7825 7.75812C17.7665 7.77747 17.7578 7.80177 17.7578 7.82684C17.7578 7.85192 17.7665 7.87621 17.7825 7.89557C17.7984 7.91492 17.8205 7.92813 17.8451 7.93293Z" stroke="black" stroke-width="0.0900387"/>
<path d="M17.847 8.13742C17.8759 8.13742 17.9035 8.12596 17.9239 8.10557C17.9443 8.08518 17.9558 8.05751 17.9558 8.02867C17.9558 7.99983 17.9443 7.97217 17.9239 7.95177C17.9035 7.93138 17.8759 7.91992 17.847 7.91992C17.8182 7.91992 17.7905 7.93138 17.7701 7.95177C17.7497 7.97217 17.7383 7.99983 17.7383 8.02867C17.7383 8.05751 17.7497 8.08518 17.7701 8.10557C17.7905 8.12596 17.8182 8.13742 17.847 8.13742Z" fill="white"/>
<path d="M17.8463 8.13806C17.8749 8.13806 17.9024 8.12667 17.9226 8.1064C17.9429 8.08613 17.9543 8.05864 17.9543 8.02997C17.9543 8.0013 17.9429 7.97381 17.9226 7.95353C17.9024 7.93326 17.8749 7.92188 17.8463 7.92188C17.8176 7.92188 17.7902 7.93326 17.7699 7.95353C17.7497 7.97381 17.7383 8.0013 17.7383 8.02997C17.7383 8.05864 17.7497 8.08613 17.7699 8.1064C17.7902 8.12667 17.8176 8.13806 17.8463 8.13806V8.13806Z" stroke="black" stroke-width="0.0900387"/>
<path d="M17.8504 8.35234C17.8661 8.3553 17.8822 8.35476 17.8977 8.35075C17.9132 8.34675 17.9276 8.33938 17.9399 8.32917C17.9522 8.31897 17.9621 8.30618 17.9689 8.29171C17.9757 8.27724 17.9792 8.26145 17.9792 8.24547C17.9792 8.22948 17.9757 8.2137 17.9689 8.19923C17.9621 8.18476 17.9522 8.17197 17.9399 8.16176C17.9276 8.15156 17.9132 8.14419 17.8977 8.14019C17.8822 8.13618 17.8661 8.13564 17.8504 8.13859C17.8254 8.14328 17.8029 8.15653 17.7868 8.17604C17.7706 8.19556 17.7617 8.22012 17.7617 8.24547C17.7617 8.27082 17.7706 8.29538 17.7868 8.31489C17.8029 8.33441 17.8254 8.34766 17.8504 8.35234" fill="white"/>
<path d="M17.8463 8.3529C17.8749 8.3529 17.9024 8.34152 17.9226 8.32124C17.9429 8.30097 17.9543 8.27348 17.9543 8.24481C17.9543 8.21614 17.9429 8.18865 17.9226 8.16838C17.9024 8.14811 17.8749 8.13672 17.8463 8.13672C17.8176 8.13672 17.7902 8.14811 17.7699 8.16838C17.7497 8.18865 17.7383 8.21614 17.7383 8.24481C17.7383 8.27348 17.7497 8.30097 17.7699 8.32124C17.7902 8.34152 17.8176 8.3529 17.8463 8.3529V8.3529Z" stroke="black" stroke-width="0.0900387"/>
<path d="M18.2181 7.7625C18.2338 7.76546 18.25 7.76491 18.2655 7.76091C18.281 7.7569 18.2954 7.74954 18.3077 7.73933C18.32 7.72913 18.3299 7.71633 18.3367 7.70187C18.3435 7.6874 18.347 7.67161 18.347 7.65563C18.347 7.63964 18.3435 7.62385 18.3367 7.60938C18.3299 7.59492 18.32 7.58212 18.3077 7.57192C18.2954 7.56171 18.281 7.55435 18.2655 7.55034C18.25 7.54634 18.2338 7.54579 18.2181 7.54875C18.1893 7.54875 18.1616 7.56021 18.1412 7.5806C18.1208 7.601 18.1094 7.62866 18.1094 7.6575C18.1094 7.68634 18.1208 7.714 18.1412 7.7344C18.1616 7.75479 18.1893 7.76625 18.2181 7.76625" fill="white"/>
<path d="M18.2135 7.76501C18.2421 7.76501 18.2696 7.75362 18.2898 7.73335C18.3101 7.71308 18.3215 7.68559 18.3215 7.65692C18.3215 7.62825 18.3101 7.60076 18.2898 7.58049C18.2696 7.56022 18.2421 7.54883 18.2135 7.54883C18.1848 7.54883 18.1574 7.56022 18.1371 7.58049C18.1168 7.60076 18.1055 7.62825 18.1055 7.65692C18.1055 7.68559 18.1168 7.71308 18.1371 7.73335C18.1574 7.75362 18.1848 7.76501 18.2135 7.76501V7.76501Z" stroke="black" stroke-width="0.0900387"/>
<path d="M18.3582 7.7332C18.3739 7.73616 18.3901 7.73561 18.4055 7.73161C18.421 7.72761 18.4354 7.72024 18.4477 7.71003C18.46 7.69983 18.4699 7.68704 18.4767 7.67257C18.4835 7.6581 18.487 7.64231 18.487 7.62633C18.487 7.61034 18.4835 7.59456 18.4767 7.58009C18.4699 7.56562 18.46 7.55283 18.4477 7.54262C18.4354 7.53242 18.421 7.52505 18.4055 7.52105C18.3901 7.51704 18.3739 7.5165 18.3582 7.51945C18.3333 7.52414 18.3108 7.53739 18.2946 7.5569C18.2784 7.57642 18.2695 7.60097 18.2695 7.62633C18.2695 7.65168 18.2784 7.67624 18.2946 7.69575C18.3108 7.71527 18.3333 7.72852 18.3582 7.7332" fill="white"/>
<path d="M18.3607 7.73371C18.3764 7.73677 18.3925 7.73632 18.408 7.73241C18.4234 7.72849 18.4378 7.7212 18.4501 7.71106C18.4624 7.70092 18.4723 7.68818 18.4791 7.67375C18.4859 7.65933 18.4894 7.64357 18.4894 7.62762C18.4894 7.61167 18.4859 7.59592 18.4791 7.5815C18.4723 7.56707 18.4624 7.55433 18.4501 7.54419C18.4378 7.53405 18.4234 7.52676 18.408 7.52284C18.3925 7.51892 18.3764 7.51848 18.3607 7.52153C18.3362 7.52634 18.314 7.53955 18.2981 7.5589C18.2821 7.57825 18.2734 7.60255 18.2734 7.62762C18.2734 7.6527 18.2821 7.67699 18.2981 7.69635C18.314 7.7157 18.3362 7.72891 18.3607 7.73371V7.73371Z" stroke="black" stroke-width="0.0900387"/>
<path d="M18.5222 7.75477C18.5384 7.75911 18.5553 7.75969 18.5716 7.75645C18.588 7.75321 18.6034 7.74625 18.6167 7.7361C18.6299 7.72594 18.6407 7.71287 18.6481 7.6979C18.6555 7.68293 18.6593 7.66646 18.6593 7.64977C18.6593 7.63307 18.6555 7.6166 18.6481 7.60163C18.6407 7.58666 18.6299 7.57359 18.6167 7.56344C18.6034 7.55328 18.588 7.54632 18.5716 7.54308C18.5553 7.53984 18.5384 7.54042 18.5222 7.54477C18.4973 7.54945 18.4748 7.5627 18.4586 7.58221C18.4425 7.60173 18.4336 7.62629 18.4336 7.65164C18.4336 7.67699 18.4425 7.70155 18.4586 7.72107C18.4748 7.74058 18.4973 7.75383 18.5222 7.75852" fill="white"/>
<path d="M18.526 7.75715C18.5416 7.76021 18.5577 7.75976 18.5732 7.75584C18.5886 7.75193 18.603 7.74463 18.6153 7.73449C18.6276 7.72435 18.6375 7.71161 18.6443 7.69719C18.6511 7.68276 18.6547 7.66701 18.6547 7.65106C18.6547 7.63511 18.6511 7.61936 18.6443 7.60493C18.6375 7.59051 18.6276 7.57777 18.6153 7.56763C18.603 7.55749 18.5886 7.5502 18.5732 7.54628C18.5577 7.54236 18.5416 7.54192 18.526 7.54497C18.4973 7.54497 18.4699 7.55636 18.4496 7.57663C18.4293 7.5969 18.418 7.62439 18.418 7.65306C18.418 7.68173 18.4293 7.70922 18.4496 7.7295C18.4699 7.74977 18.4973 7.76116 18.526 7.76116V7.75715Z" stroke="black" stroke-width="0.0900387"/>
<path d="M18.9359 8.21375C18.952 8.2181 18.9689 8.21867 18.9853 8.21544C19.0017 8.2122 19.0171 8.20523 19.0304 8.19508C19.0436 8.18493 19.0543 8.17186 19.0617 8.15689C19.0691 8.14192 19.073 8.12545 19.073 8.10875C19.073 8.09205 19.0691 8.07558 19.0617 8.06061C19.0543 8.04564 19.0436 8.03257 19.0304 8.02242C19.0171 8.01227 19.0017 8.0053 18.9853 8.00206C18.9689 7.99883 18.952 7.9994 18.9359 8.00375C18.9128 8.00997 18.8924 8.02363 18.8779 8.04262C18.8633 8.0616 18.8555 8.08484 18.8555 8.10875C18.8555 8.13266 18.8633 8.1559 18.8779 8.17489C18.8924 8.19387 18.9128 8.20753 18.9359 8.21375" fill="white"/>
<path d="M18.9389 8.21418C18.9545 8.21724 18.9706 8.21679 18.9861 8.21287C19.0015 8.20896 19.0159 8.20167 19.0282 8.19153C19.0405 8.18138 19.0504 8.16865 19.0572 8.15422C19.064 8.1398 19.0676 8.12404 19.0676 8.10809C19.0676 8.09214 19.064 8.07639 19.0572 8.06196C19.0504 8.04754 19.0405 8.0348 19.0282 8.02466C19.0159 8.01452 19.0015 8.00723 18.9861 8.00331C18.9706 7.99939 18.9545 7.99895 18.9389 8.002C18.9143 8.00681 18.8921 8.02001 18.8762 8.03937C18.8603 8.05872 18.8516 8.08302 18.8516 8.10809C18.8516 8.13317 18.8603 8.15746 18.8762 8.17682C18.8921 8.19617 18.9143 8.20938 18.9389 8.21418V8.21418Z" stroke="black" stroke-width="0.0900387"/>
<path d="M18.6908 7.85617C18.7051 7.85617 18.7192 7.85336 18.7324 7.84789C18.7456 7.84243 18.7576 7.83442 18.7677 7.82432C18.7778 7.81422 18.7858 7.80223 18.7913 7.78904C18.7967 7.77584 18.7995 7.7617 18.7995 7.74742C18.7995 7.73314 18.7967 7.719 18.7913 7.70581C18.7858 7.69261 18.7778 7.68062 18.7677 7.67052C18.7576 7.66043 18.7456 7.65242 18.7324 7.64695C18.7192 7.64148 18.7051 7.63867 18.6908 7.63867C18.6619 7.63867 18.6343 7.65013 18.6139 7.67052C18.5935 7.69092 18.582 7.71858 18.582 7.74742C18.582 7.77626 18.5935 7.80393 18.6139 7.82432C18.6343 7.84471 18.6619 7.85617 18.6908 7.85617" fill="white"/>
<path d="M18.69 7.85681C18.7187 7.85681 18.7461 7.84542 18.7664 7.82515C18.7867 7.80488 18.798 7.77739 18.798 7.74872C18.798 7.72005 18.7867 7.69256 18.7664 7.67228C18.7461 7.65201 18.7187 7.64062 18.69 7.64062C18.6614 7.64062 18.6339 7.65201 18.6137 7.67228C18.5934 7.69256 18.582 7.72005 18.582 7.74872C18.582 7.77739 18.5934 7.80488 18.6137 7.82515C18.6339 7.84542 18.6614 7.85681 18.69 7.85681V7.85681Z" stroke="black" stroke-width="0.0900387"/>
<path d="M18.8425 8.00273C18.8583 8.00569 18.8744 8.00515 18.8899 8.00114C18.9054 7.99714 18.9198 7.98977 18.9321 7.97956C18.9444 7.96936 18.9543 7.95657 18.9611 7.9421C18.9679 7.92763 18.9714 7.91184 18.9714 7.89586C18.9714 7.87987 18.9679 7.86409 18.9611 7.84962C18.9543 7.83515 18.9444 7.82236 18.9321 7.81215C18.9198 7.80195 18.9054 7.79458 18.8899 7.79058C18.8744 7.78657 18.8583 7.78603 18.8425 7.78898C18.8176 7.79367 18.7951 7.80692 18.779 7.82643C18.7628 7.84595 18.7539 7.87051 18.7539 7.89586C18.7539 7.92121 18.7628 7.94577 18.779 7.96529C18.7951 7.9848 18.8176 7.99805 18.8425 8.00273" fill="white"/>
<path d="M18.8412 8.00129C18.8569 8.00435 18.873 8.0039 18.8884 7.99998C18.9039 7.99607 18.9183 7.98878 18.9306 7.97863C18.9429 7.96849 18.9528 7.95575 18.9596 7.94133C18.9664 7.9269 18.9699 7.91115 18.9699 7.8952C18.9699 7.87925 18.9664 7.8635 18.9596 7.84907C18.9528 7.83465 18.9429 7.82191 18.9306 7.81177C18.9183 7.80163 18.9039 7.79434 18.8884 7.79042C18.873 7.7865 18.8569 7.78606 18.8412 7.78911C18.8166 7.79391 18.7945 7.80712 18.7785 7.82648C18.7626 7.84583 18.7539 7.87013 18.7539 7.8952C18.7539 7.92028 18.7626 7.94457 18.7785 7.96392C18.7945 7.98328 18.8166 7.99649 18.8412 8.00129Z" stroke="black" stroke-width="0.0900387"/>
<path d="M17.8361 9.60141L17.5586 9.74391L17.8098 9.90516L18.1098 9.75516L17.8361 9.59766" fill="white"/>
<path d="M17.8386 9.59961L17.5586 9.74373L17.8106 9.90387L18.1106 9.75174L17.8386 9.59961" stroke="black" stroke-width="0.0450193"/>
<path d="M17.2223 9.63086L16.8023 9.69461C16.8023 9.69461 16.7948 9.92336 16.8135 9.97586L17.2523 9.91961C17.2523 9.91961 17.271 9.70586 17.2223 9.63086Z" fill="white"/>
<path d="M17.2224 9.63086L16.8024 9.69491C16.8024 9.69491 16.7944 9.92311 16.8144 9.97515L17.2504 9.91911C17.2504 9.91911 17.2704 9.70692 17.2224 9.63086Z" stroke="black" stroke-width="0.0450193"/>
<path d="M17.1781 9.71289C17.1781 9.71289 16.9231 9.73539 16.8594 9.75789V9.90789C16.8594 9.90789 17.0319 9.88164 17.1819 9.87039V9.71289" fill="#058E6E" fill-opacity="0.9"/>
<path d="M17.1794 9.71094C17.1794 9.71094 16.9234 9.73496 16.8594 9.75898V9.91111C16.8594 9.91111 17.0314 9.88308 17.1834 9.87107L17.1794 9.71094Z" stroke="black" stroke-width="0.0450193"/>
<path d="M18.4266 9.63867L18.8503 9.70617C18.8503 9.70617 18.8541 9.93492 18.8353 9.98742L18.4041 9.93117C18.4041 9.93117 18.3816 9.72117 18.4266 9.64242" fill="white"/>
<path d="M18.427 9.63867L18.851 9.70673C18.851 9.70673 18.855 9.93493 18.835 9.98697L18.403 9.93092C18.403 9.93092 18.383 9.71874 18.427 9.64268V9.63867Z" stroke="black" stroke-width="0.0450193"/>
<path d="M18.4802 9.72461C18.4802 9.72461 18.7314 9.74711 18.7952 9.76961V9.92336C18.7952 9.92336 18.6227 9.89336 18.4727 9.88586V9.72461" fill="#058E6E" fill-opacity="0.9"/>
<path d="M18.4807 9.72266C18.4807 9.72266 18.7327 9.74668 18.7967 9.7707L18.7927 9.92283C18.7927 9.92283 18.6247 9.8948 18.4727 9.88279L18.4767 9.72266" stroke="black" stroke-width="0.0450193"/>
<path d="M16.168 9.83169C16.168 9.83169 17.648 9.28322 19.536 9.87973M16.228 10.148C16.228 10.148 17.664 9.6115 19.428 10.172M16.236 9.81168L16.524 9.89575L16.324 10.1119" stroke="black" stroke-width="0.0450193"/>
<path d="M16.2375 10.0688L16.4063 9.93008L16.2188 9.89258C16.2188 9.89258 16.245 9.92258 16.2413 9.94883V10.0688" fill="#FF0000"/>
<path d="M19.5028 9.86719L19.1948 9.92324L19.4028 10.1634M16.2388 10.0714L16.4068 9.93124L16.2188 9.89521C16.2188 9.89521 16.2428 9.92324 16.2388 9.95126V10.0714Z" stroke="black" stroke-width="0.0450193"/>
<path d="M19.4131 10.0802L19.2969 9.96016L19.4619 9.94141C19.4619 9.94141 19.4169 9.97141 19.4169 9.99766C19.4169 10.0239 19.4244 10.0577 19.4169 10.0802" fill="#FF0000"/>
<path d="M19.4105 10.0785L19.2945 9.95836L19.4625 9.94235C19.4625 9.94235 19.4145 9.97037 19.4145 9.9984C19.4145 10.0224 19.4225 10.0584 19.4145 10.0785H19.4105ZM16.6105 9.83025C16.6345 9.83025 16.6585 9.81424 16.6585 9.79022C16.6585 9.77421 16.6345 9.75419 16.6105 9.75419C16.5825 9.75419 16.5625 9.7742 16.5625 9.79422C16.5625 9.81424 16.5825 9.83426 16.6105 9.83426V9.83025ZM17.4345 9.73817C17.4625 9.73817 17.4825 9.72216 17.4825 9.69814C17.4825 9.67812 17.4625 9.66211 17.4345 9.66211C17.4065 9.66211 17.3865 9.67812 17.3865 9.70214C17.3865 9.72216 17.4065 9.73817 17.4345 9.73817ZM17.4345 9.87029C17.4625 9.87029 17.4825 9.85427 17.4825 9.83426C17.4825 9.81424 17.4625 9.79422 17.4345 9.79422C17.4065 9.79422 17.3865 9.81424 17.3865 9.83426C17.3865 9.85427 17.4065 9.87429 17.4345 9.87429V9.87029ZM18.2465 9.74618C18.2705 9.74618 18.2945 9.72616 18.2945 9.70615C18.2945 9.68613 18.2705 9.66611 18.2465 9.66611C18.2185 9.66611 18.1985 9.68613 18.1985 9.70615C18.1985 9.72616 18.2185 9.74618 18.2465 9.74618ZM19.0505 9.89431C19.0785 9.89431 19.0985 9.87429 19.0985 9.85427C19.0985 9.83426 19.0785 9.81424 19.0505 9.81424C19.0225 9.81424 19.0025 9.83426 19.0025 9.85427C19.0025 9.87429 19.0225 9.89431 19.0505 9.89431ZM19.0385 9.9984C19.0625 9.9984 19.0865 9.98238 19.0865 9.95836C19.0865 9.94235 19.0625 9.92233 19.0385 9.92233C19.0105 9.92233 18.9905 9.94235 18.9905 9.96237C18.9905 9.98238 19.0105 10.0024 19.0385 10.0024V9.9984ZM18.2465 9.87829C18.2705 9.87829 18.2945 9.86228 18.2945 9.83826C18.2945 9.81824 18.2705 9.80223 18.2465 9.80223C18.2185 9.80223 18.1985 9.81824 18.1985 9.84226C18.1985 9.86228 18.2185 9.8823 18.2465 9.8823V9.87829ZM16.6465 9.9984C16.6745 9.9984 16.6985 9.98238 16.6985 9.95836C16.6985 9.94235 16.6745 9.92233 16.6505 9.92233C16.6225 9.92233 16.6025 9.94235 16.6025 9.96237C16.6025 9.98238 16.6225 10.0024 16.6505 10.0024L16.6465 9.9984Z" stroke="black" stroke-width="0.0450193"/>
<path d="M16.1443 9.39781C16.1443 9.39781 16.148 9.68656 16.3355 9.64531C16.523 9.60406 16.5043 9.37156 16.5155 9.35656C16.5343 9.34531 16.553 9.34531 16.553 9.34531C16.553 9.34531 16.5755 9.57406 16.7518 9.54781C16.928 9.51781 16.9205 9.23656 16.9018 9.19156L16.9393 9.17656C16.9393 9.17656 17.0068 9.50656 17.2093 9.45781C17.408 9.40906 17.3893 9.20281 17.3893 9.20281H17.4043C17.4043 9.20281 17.4493 9.42781 17.6143 9.40906C17.7718 9.39781 17.8018 9.34531 17.783 9.12031L17.8955 9.10156C17.8955 9.10156 17.8543 9.42406 18.0455 9.42406C18.2405 9.40906 18.248 9.25906 18.2593 9.22906H18.293C18.293 9.22906 18.3005 9.45781 18.4655 9.45781C18.623 9.45781 18.653 9.26656 18.653 9.19156L18.818 9.19906C18.818 9.19906 18.6493 9.49906 18.893 9.53656C19.133 9.57781 19.1405 9.34906 19.1405 9.34906H19.1893C19.1893 9.34906 19.1818 9.64906 19.313 9.65281C19.448 9.66031 19.5268 9.61531 19.538 9.39031L19.613 9.41656C19.613 9.41656 19.553 9.78031 19.3018 9.71656C19.1668 9.67906 19.1255 9.52906 19.133 9.48781C19.133 9.48781 19.0393 9.65281 18.8555 9.60031C18.6755 9.54781 18.698 9.41656 18.698 9.37531C18.698 9.37531 18.5855 9.57781 18.4355 9.53281C18.3005 9.49531 18.248 9.44656 18.248 9.34906C18.248 9.34906 18.1805 9.50656 18.0493 9.49906C17.9143 9.49531 17.8468 9.40906 17.8393 9.33781C17.8393 9.33781 17.813 9.48406 17.633 9.49531C17.513 9.49531 17.4455 9.43906 17.4155 9.35656C17.4155 9.35656 17.378 9.50281 17.2093 9.52531C17.1005 9.53656 16.9918 9.47656 16.9693 9.37531C16.9693 9.37531 16.9393 9.57406 16.7668 9.60031C16.5943 9.62656 16.553 9.50656 16.553 9.50656C16.553 9.50656 16.5155 9.65656 16.3768 9.69406C16.238 9.72781 16.1443 9.66781 16.1068 9.52531C16.0768 9.38656 16.088 9.32656 16.088 9.32656L16.1443 9.40156" fill="#FFCC00"/>
<path d="M16.1441 9.39782C16.1441 9.39782 16.1481 9.68606 16.3361 9.64603C16.5241 9.60599 16.5041 9.36979 16.5161 9.35778C16.5321 9.34577 16.5521 9.34577 16.5521 9.34577C16.5521 9.34577 16.5761 9.57397 16.7521 9.54594C16.9281 9.51792 16.9201 9.23768 16.9001 9.18964L16.9401 9.17763C16.9401 9.17763 17.0081 9.50591 17.2081 9.45787C17.4081 9.40983 17.3881 9.20165 17.3881 9.20165H17.4041C17.4041 9.20165 17.4481 9.42584 17.6121 9.40983C17.7721 9.39782 17.8041 9.34577 17.7841 9.12158L17.8921 9.10156C17.8921 9.10156 17.8521 9.42184 18.0481 9.42184C18.2401 9.40983 18.2481 9.2577 18.2601 9.22967H18.2921C18.2921 9.22967 18.3001 9.45787 18.4641 9.45787C18.6242 9.45787 18.6561 9.2657 18.6561 9.18964L18.8162 9.19764C18.8162 9.19764 18.6481 9.4979 18.8922 9.53794C19.1322 9.57797 19.1402 9.34577 19.1402 9.34577H19.1882C19.1882 9.34577 19.1802 9.64603 19.3122 9.65403C19.4482 9.65804 19.5282 9.614 19.5402 9.38981L19.6162 9.41783C19.6162 9.41783 19.5522 9.77814 19.3002 9.71409C19.1682 9.67806 19.1242 9.52593 19.1322 9.48589C19.1322 9.48589 19.0402 9.65403 18.8562 9.59799C18.6761 9.54594 18.6961 9.41783 18.6961 9.3778C18.6961 9.3778 18.5881 9.57797 18.4361 9.53393C18.3001 9.4939 18.2481 9.44586 18.2481 9.34977C18.2481 9.34977 18.1801 9.50591 18.0481 9.4979C17.9121 9.4939 17.8481 9.40983 17.8401 9.33776C17.8401 9.33776 17.8121 9.48189 17.6321 9.4939C17.5121 9.4979 17.4441 9.43785 17.4161 9.35778C17.4161 9.35778 17.3801 9.5019 17.2081 9.52593C17.1001 9.53794 16.9921 9.47788 16.9681 9.3778C16.9681 9.3778 16.9401 9.57397 16.7681 9.59799C16.5921 9.62601 16.5521 9.50591 16.5521 9.50591C16.5521 9.50591 16.5161 9.65804 16.3761 9.69407C16.2361 9.7261 16.1441 9.66604 16.1081 9.52593C16.0761 9.38581 16.0881 9.32575 16.0881 9.32575L16.1441 9.39782V9.39782Z" fill="#BCAC0B" stroke="black" stroke-width="0.0630271"/>
<path d="M16.5322 9.41234C16.541 9.41234 16.5498 9.4106 16.558 9.40721C16.5662 9.40381 16.5736 9.39884 16.5799 9.39257C16.5862 9.38631 16.5911 9.37886 16.5945 9.37067C16.5979 9.36249 16.5997 9.35371 16.5997 9.34484C16.5997 9.33598 16.5979 9.3272 16.5945 9.31901C16.5911 9.31082 16.5862 9.30338 16.5799 9.29711C16.5736 9.29085 16.5662 9.28587 16.558 9.28248C16.5498 9.27909 16.541 9.27734 16.5322 9.27734C16.5174 9.28089 16.5043 9.28929 16.4949 9.3012C16.4856 9.3131 16.4805 9.32781 16.4805 9.34297C16.4805 9.35812 16.4856 9.37284 16.4949 9.38474C16.5043 9.39664 16.5174 9.40505 16.5322 9.40859" fill="#FFCC00"/>
<path d="M16.5321 9.41146C16.5421 9.41395 16.5526 9.41412 16.5627 9.41196C16.5728 9.4098 16.5822 9.40537 16.5904 9.39901C16.5985 9.39264 16.6051 9.38451 16.6096 9.37522C16.6141 9.36593 16.6165 9.35573 16.6165 9.3454C16.6165 9.33507 16.6141 9.32487 16.6096 9.31559C16.6051 9.3063 16.5985 9.29816 16.5904 9.2918C16.5822 9.28543 16.5728 9.281 16.5627 9.27884C16.5526 9.27669 16.5421 9.27686 16.5321 9.27935C16.5174 9.283 16.5043 9.2915 16.4949 9.30347C16.4856 9.31544 16.4805 9.3302 16.4805 9.3454C16.4805 9.3606 16.4856 9.37536 16.4949 9.38734C16.5043 9.39931 16.5174 9.4078 16.5321 9.41146V9.41146Z" fill="#BCAC0B" stroke="black" stroke-width="0.0630271"/>
<path d="M17.4033 9.26984C17.4132 9.27223 17.4235 9.27234 17.4335 9.27016C17.4435 9.26797 17.4528 9.26356 17.4608 9.25724C17.4689 9.25092 17.4753 9.24287 17.4798 9.23369C17.4842 9.2245 17.4866 9.21443 17.4866 9.20422C17.4866 9.19401 17.4842 9.18394 17.4798 9.17475C17.4753 9.16557 17.4689 9.15751 17.4608 9.1512C17.4528 9.14488 17.4435 9.14046 17.4335 9.13828C17.4235 9.1361 17.4132 9.1362 17.4033 9.13859C17.3885 9.14214 17.3754 9.15054 17.366 9.16245C17.3567 9.17435 17.3516 9.18906 17.3516 9.20422C17.3516 9.21937 17.3567 9.23409 17.366 9.24599C17.3754 9.25789 17.3885 9.2663 17.4033 9.26984Z" fill="#FFCC00"/>
<path d="M17.4032 9.27083C17.4132 9.27332 17.4237 9.27349 17.4338 9.27134C17.4439 9.26918 17.4533 9.26475 17.4615 9.25838C17.4696 9.25202 17.4762 9.24388 17.4807 9.23459C17.4852 9.22531 17.4876 9.21511 17.4876 9.20478C17.4876 9.19444 17.4852 9.18425 17.4807 9.17496C17.4762 9.16567 17.4696 9.15754 17.4615 9.15117C17.4533 9.14481 17.4439 9.14038 17.4338 9.13822C17.4237 9.13606 17.4132 9.13623 17.4032 9.13872C17.3885 9.14238 17.3754 9.15087 17.366 9.16284C17.3566 9.17482 17.3516 9.18958 17.3516 9.20478C17.3516 9.21998 17.3566 9.23474 17.366 9.24671C17.3754 9.25868 17.3885 9.26717 17.4032 9.27083V9.27083Z" fill="#BCAC0B" stroke="black" stroke-width="0.0630271"/>
<path d="M18.29 9.30102C18.3079 9.30102 18.3251 9.2939 18.3377 9.28125C18.3504 9.26859 18.3575 9.25142 18.3575 9.23352C18.3575 9.21561 18.3504 9.19844 18.3377 9.18579C18.3251 9.17313 18.3079 9.16602 18.29 9.16602C18.2752 9.16956 18.2621 9.17796 18.2528 9.18987C18.2434 9.20177 18.2383 9.21649 18.2383 9.23164C18.2383 9.2468 18.2434 9.26151 18.2528 9.27341C18.2621 9.28532 18.2752 9.29372 18.29 9.29727" fill="#FFCC00"/>
<path d="M18.2899 9.29818C18.2999 9.30066 18.3104 9.30084 18.3205 9.29868C18.3306 9.29652 18.34 9.29209 18.3482 9.28573C18.3563 9.27936 18.3629 9.27122 18.3674 9.26194C18.3719 9.25265 18.3743 9.24245 18.3743 9.23212C18.3743 9.22179 18.3719 9.21159 18.3674 9.2023C18.3629 9.19302 18.3563 9.18488 18.3482 9.17852C18.34 9.17215 18.3306 9.16772 18.3205 9.16556C18.3104 9.16341 18.2999 9.16358 18.2899 9.16606C18.2752 9.16972 18.2621 9.17822 18.2527 9.19019C18.2434 9.20216 18.2383 9.21692 18.2383 9.23212C18.2383 9.24732 18.2434 9.26208 18.2527 9.27405C18.2621 9.28603 18.2752 9.29452 18.2899 9.29818V9.29818Z" fill="#BCAC0B" stroke="black" stroke-width="0.0630271"/>
<path d="M19.165 9.43977C19.1749 9.44215 19.1852 9.44226 19.1952 9.44008C19.2052 9.4379 19.2145 9.43348 19.2226 9.42716C19.2306 9.42085 19.2371 9.41279 19.2415 9.40361C19.246 9.39442 19.2483 9.38435 19.2483 9.37414C19.2483 9.36393 19.246 9.35386 19.2415 9.34467C19.2371 9.33549 19.2306 9.32744 19.2226 9.32112C19.2145 9.3148 19.2052 9.31039 19.1952 9.3082C19.1852 9.30602 19.1749 9.30613 19.165 9.30852C19.1502 9.31206 19.1371 9.32046 19.1278 9.33237C19.1184 9.34427 19.1133 9.35899 19.1133 9.37414C19.1133 9.38929 19.1184 9.40401 19.1278 9.41591C19.1371 9.42782 19.1502 9.43622 19.165 9.43977Z" fill="#FFCC00"/>
<path d="M19.1688 9.4388C19.1788 9.44129 19.1893 9.44146 19.1994 9.4393C19.2095 9.43715 19.219 9.43272 19.2271 9.42635C19.2352 9.41998 19.2418 9.41185 19.2463 9.40256C19.2508 9.39327 19.2532 9.38308 19.2532 9.37275C19.2532 9.36241 19.2508 9.35222 19.2463 9.34293C19.2418 9.33364 19.2352 9.32551 19.2271 9.31914C19.219 9.31277 19.2095 9.30834 19.1994 9.30619C19.1893 9.30403 19.1788 9.3042 19.1688 9.30669C19.1541 9.31035 19.141 9.31884 19.1316 9.33081C19.1223 9.34278 19.1172 9.35755 19.1172 9.37275C19.1172 9.38795 19.1223 9.40271 19.1316 9.41468C19.141 9.42665 19.1541 9.43514 19.1688 9.4388V9.4388Z" fill="#BCAC0B" stroke="black" stroke-width="0.0630271"/>
<path d="M17.8064 9.19922H17.7464C17.7314 9.25922 17.6002 9.29297 17.6002 9.29297C17.5852 9.24797 17.6227 9.18047 17.6227 9.18047C17.4727 9.13922 17.4727 9.09047 17.4727 9.09047C17.4952 9.03797 17.6339 9.03047 17.6339 9.03047C17.5964 8.98547 17.6002 8.91047 17.6002 8.91047C17.6939 8.91797 17.7689 9.01172 17.7689 9.01172C17.7689 9.01172 17.6789 8.96297 17.6902 8.80172C17.6902 8.80172 17.7389 8.80172 17.7689 8.83547C17.7689 8.83547 17.7689 8.65922 17.8439 8.63672H17.8514C17.9227 8.65922 17.9227 8.83547 17.9227 8.83547C17.9527 8.79797 18.0014 8.80172 18.0014 8.80172C18.0127 8.96297 17.9227 9.01172 17.9227 9.01172C17.9227 9.01172 17.9977 8.91797 18.0914 8.91422C18.0914 8.91422 18.0914 8.98922 18.0614 9.03422C18.0614 9.03422 18.1964 9.03797 18.2227 9.09047C18.2227 9.09047 18.2227 9.14297 18.0727 9.17672C18.0727 9.17672 18.1027 9.24797 18.0914 9.29672C18.0914 9.29672 17.9564 9.25922 17.9452 9.19922H17.8102" fill="#FFCC00"/>
<path d="M17.8086 9.19915H17.7486C17.7326 9.2592 17.6046 9.29523 17.6046 9.29523C17.5886 9.24719 17.6246 9.17913 17.6246 9.17913C17.4766 9.1391 17.4766 9.09106 17.4766 9.09106C17.4966 9.03901 17.6366 9.03101 17.6366 9.03101C17.5966 8.98697 17.6046 8.9109 17.6046 8.9109C17.6966 8.91891 17.7726 9.01099 17.7726 9.01099C17.7726 9.01099 17.6806 8.96295 17.6926 8.80281C17.6926 8.80281 17.7406 8.80281 17.7726 8.83484C17.7726 8.83484 17.7726 8.65869 17.8446 8.63867H17.8526C17.9246 8.65869 17.9246 8.83484 17.9246 8.83484C17.9566 8.79881 18.0046 8.80281 18.0046 8.80281C18.0166 8.96295 17.9246 9.01099 17.9246 9.01099C17.9246 9.01099 18.0006 8.91891 18.0926 8.91491C18.0926 8.91491 18.0966 8.98697 18.0646 9.03501C18.0646 9.03501 18.2006 9.03901 18.2246 9.09106C18.2246 9.09106 18.2246 9.1431 18.0726 9.17913C18.0726 9.17913 18.1046 9.24719 18.0926 9.29924C18.0926 9.29924 17.9606 9.2592 17.9486 9.19915H17.8086V9.19915Z" fill="#BCAC0B" stroke="black" stroke-width="0.0630271"/>
<path d="M17.8388 9.23023C17.8706 9.23023 17.9011 9.21759 17.9236 9.19509C17.9461 9.17258 17.9587 9.14206 17.9587 9.11023C17.9587 9.07841 17.9461 9.04789 17.9236 9.02538C17.9011 9.00288 17.8706 8.99023 17.8388 8.99023C17.8069 8.99023 17.7764 9.00288 17.7539 9.02538C17.7314 9.04789 17.7188 9.07841 17.7188 9.11023C17.7188 9.14206 17.7314 9.17258 17.7539 9.19509C17.7764 9.21759 17.8069 9.23023 17.8388 9.23023" fill="white"/>
<path d="M17.8388 9.23044C17.8706 9.23044 17.9011 9.21779 17.9236 9.19526C17.9461 9.17274 17.9588 9.14219 17.9588 9.11034C17.9588 9.07848 17.9461 9.04794 17.9236 9.02541C17.9011 9.00289 17.8706 8.99023 17.8388 8.99023C17.8069 8.99023 17.7764 9.00289 17.7539 9.02541C17.7314 9.04794 17.7188 9.07848 17.7188 9.11034C17.7188 9.14219 17.7314 9.17274 17.7539 9.19526C17.7764 9.21779 17.8069 9.23044 17.8388 9.23044V9.23044Z" stroke="black" stroke-width="0.0360155"/>
<path d="M17.837 9.17602C17.8549 9.17602 17.8721 9.1689 17.8848 9.15625C17.8974 9.14359 17.9045 9.12642 17.9045 9.10852C17.9045 9.09061 17.8974 9.07344 17.8848 9.06079C17.8721 9.04813 17.8549 9.04102 17.837 9.04102C17.8191 9.04102 17.802 9.04813 17.7893 9.06079C17.7766 9.07344 17.7695 9.09061 17.7695 9.10852C17.7695 9.12642 17.7766 9.14359 17.7893 9.15625C17.802 9.1689 17.8191 9.17602 17.837 9.17602Z" fill="white"/>
<path d="M17.8375 9.17908C17.8556 9.17908 17.8729 9.17191 17.8856 9.15915C17.8984 9.14639 17.9055 9.12908 17.9055 9.11103C17.9055 9.09298 17.8984 9.07567 17.8856 9.0629C17.8729 9.05014 17.8556 9.04297 17.8375 9.04297C17.8195 9.04297 17.8022 9.05014 17.7894 9.0629C17.7767 9.07567 17.7695 9.09298 17.7695 9.11103C17.7695 9.12908 17.7767 9.14639 17.7894 9.15915C17.8022 9.17191 17.8195 9.17908 17.8375 9.17908V9.17908Z" stroke="black" stroke-width="0.0270116"/>
<path d="M18.7655 9.27766L18.8255 9.28891C18.8255 9.34891 18.9455 9.41266 18.9455 9.41266C18.968 9.37516 18.9455 9.30016 18.9455 9.30016C19.103 9.29266 19.1143 9.24016 19.1143 9.24016C19.103 9.18766 18.9718 9.15016 18.9718 9.15016C19.0093 9.11266 19.0243 9.04141 19.0243 9.04141C18.9343 9.02641 18.8405 9.09766 18.8405 9.09766C18.8405 9.09766 18.9418 9.07516 18.9605 8.91016C18.9605 8.91016 18.9155 8.90266 18.8818 8.92516C18.8818 8.92516 18.9193 8.75641 18.848 8.72641L18.8405 8.72266C18.7655 8.72266 18.728 8.89516 18.728 8.89516C18.7055 8.85391 18.653 8.85016 18.653 8.85016C18.6155 9.00016 18.6905 9.06766 18.6905 9.06766C18.6905 9.06766 18.638 8.96266 18.548 8.93641C18.548 8.93641 18.5293 9.01141 18.548 9.05641C18.548 9.05641 18.4168 9.03766 18.383 9.08266C18.383 9.08266 18.3718 9.13516 18.5068 9.20266C18.5068 9.20266 18.4655 9.26266 18.4693 9.31516C18.4693 9.31516 18.6005 9.30016 18.6268 9.24766L18.6868 9.25891L18.7693 9.27391" fill="#FFCC00"/>
<path d="M18.7631 9.27913L18.8231 9.29114C18.8231 9.35119 18.9431 9.41525 18.9431 9.41525C18.9671 9.37521 18.9471 9.29915 18.9471 9.29915C19.1031 9.29515 19.1111 9.2431 19.1111 9.2431C19.1031 9.18705 18.9711 9.15102 18.9711 9.15102C19.0111 9.11499 19.0231 9.04293 19.0231 9.04293C18.9311 9.02692 18.8391 9.09898 18.8391 9.09898C18.8391 9.09898 18.9391 9.07496 18.9591 8.91482C18.9591 8.91482 18.9151 8.90281 18.8791 8.92683C18.8791 8.92683 18.9151 8.75869 18.8471 8.72666L18.8391 8.72266C18.7631 8.72266 18.7271 8.8948 18.7271 8.8948C18.7031 8.85477 18.6551 8.85077 18.6551 8.85077C18.6111 9.0029 18.6911 9.06695 18.6911 9.06695C18.6911 9.06695 18.6351 8.96286 18.5471 8.93884C18.5471 8.93884 18.5271 9.0109 18.5471 9.05894C18.5471 9.05894 18.4151 9.03893 18.3831 9.08296C18.3831 9.08296 18.3711 9.13501 18.5071 9.20307C18.5071 9.20307 18.4631 9.26312 18.4671 9.31516C18.4671 9.31516 18.5991 9.30315 18.6271 9.2471L18.6871 9.25911L18.7671 9.27513" fill="#BCAC0B"/>
<path d="M18.7631 9.27913L18.8231 9.29114C18.8231 9.35119 18.9431 9.41525 18.9431 9.41525C18.9671 9.37521 18.9471 9.29915 18.9471 9.29915C19.1031 9.29515 19.1111 9.2431 19.1111 9.2431C19.1031 9.18705 18.9711 9.15102 18.9711 9.15102C19.0111 9.11499 19.0231 9.04293 19.0231 9.04293C18.9311 9.02692 18.8391 9.09898 18.8391 9.09898C18.8391 9.09898 18.9391 9.07496 18.9591 8.91482C18.9591 8.91482 18.9151 8.90281 18.8791 8.92683C18.8791 8.92683 18.9151 8.75869 18.8471 8.72666L18.8391 8.72266C18.7631 8.72266 18.7271 8.8948 18.7271 8.8948C18.7031 8.85477 18.6551 8.85077 18.6551 8.85077C18.6111 9.0029 18.6911 9.06695 18.6911 9.06695C18.6911 9.06695 18.6351 8.96286 18.5471 8.93884C18.5471 8.93884 18.5271 9.0109 18.5471 9.05894C18.5471 9.05894 18.4151 9.03893 18.3831 9.08296C18.3831 9.08296 18.3711 9.13501 18.5071 9.20307C18.5071 9.20307 18.4631 9.26312 18.4671 9.31516C18.4671 9.31516 18.5991 9.30315 18.6271 9.2471L18.6871 9.25911L18.7671 9.27513" stroke="black" stroke-width="0.0630271"/>
<path d="M18.7197 9.30097C18.7027 9.29856 18.6864 9.29264 18.6718 9.28357C18.6572 9.27451 18.6446 9.2625 18.6349 9.24832C18.6252 9.23413 18.6186 9.21808 18.6154 9.20119C18.6122 9.1843 18.6126 9.16693 18.6165 9.1502C18.6205 9.13347 18.6278 9.11773 18.6382 9.104C18.6485 9.09027 18.6616 9.07885 18.6766 9.07045C18.6916 9.06206 18.7082 9.05688 18.7253 9.05525C18.7424 9.05361 18.7596 9.05556 18.776 9.06097C18.8045 9.07096 18.8284 9.09104 18.8431 9.11743C18.8578 9.14382 18.8624 9.17468 18.8559 9.20421C18.8495 9.23373 18.8324 9.25987 18.808 9.2777C18.7836 9.29552 18.7535 9.3038 18.7235 9.30097" fill="white"/>
<path d="M18.7202 9.30203C18.7045 9.29835 18.6896 9.29159 18.6764 9.28216C18.6633 9.27272 18.6521 9.26079 18.6436 9.24703C18.635 9.23328 18.6293 9.21797 18.6266 9.20199C18.624 9.18601 18.6245 9.16967 18.6282 9.1539C18.6319 9.13813 18.6386 9.12323 18.6481 9.11007C18.6575 9.09691 18.6694 9.08573 18.6832 9.07718C18.6969 9.06863 18.7122 9.06287 18.7282 9.06024C18.7441 9.0576 18.7605 9.05814 18.7762 9.06182C18.808 9.06872 18.8358 9.08799 18.8535 9.1154C18.8711 9.1428 18.8771 9.17609 18.8702 9.20794C18.8633 9.2398 18.8441 9.2676 18.8167 9.28525C18.7893 9.30289 18.756 9.30893 18.7242 9.30203H18.7202Z" stroke="black" stroke-width="0.0360155"/>
<path d="M18.7338 9.25188C18.725 9.24991 18.7166 9.24621 18.7091 9.241C18.7017 9.23579 18.6954 9.22917 18.6905 9.2215C18.6856 9.21384 18.6823 9.2053 18.6807 9.19635C18.6792 9.18741 18.6794 9.17825 18.6813 9.16938C18.6833 9.16052 18.687 9.15213 18.6922 9.14469C18.6974 9.13726 18.704 9.13092 18.7117 9.12604C18.7194 9.12117 18.7279 9.11785 18.7369 9.11628C18.7458 9.11471 18.755 9.11491 18.7638 9.11688C18.7817 9.12086 18.7973 9.13179 18.8072 9.14726C18.817 9.16273 18.8203 9.18148 18.8163 9.19938C18.8124 9.21728 18.8014 9.23287 18.786 9.24272C18.7705 9.25256 18.7517 9.25586 18.7338 9.25188Z" fill="white"/>
<path d="M18.7342 9.25111C18.7246 9.2503 18.7152 9.24746 18.7068 9.24276C18.6984 9.23806 18.691 9.23163 18.6853 9.22388C18.6795 9.21613 18.6755 9.20724 18.6734 9.19781C18.6714 9.18838 18.6714 9.17861 18.6734 9.16917C18.6754 9.15973 18.6793 9.15082 18.685 9.14303C18.6908 9.13525 18.6981 9.12877 18.7065 9.12402C18.7149 9.11928 18.7242 9.11638 18.7338 9.11551C18.7434 9.11464 18.7531 9.11583 18.7622 9.119C18.7778 9.12444 18.791 9.1354 18.7991 9.14984C18.8072 9.16428 18.8098 9.1812 18.8064 9.19741C18.803 9.21363 18.7937 9.22804 18.7804 9.23792C18.7671 9.24781 18.7507 9.2525 18.7342 9.25111V9.25111Z" stroke="black" stroke-width="0.0270116"/>
<path d="M16.8917 9.26383L16.8317 9.27133C16.8205 9.33508 16.6967 9.39133 16.6967 9.39133C16.678 9.34258 16.6967 9.27133 16.6967 9.27133C16.5467 9.25633 16.543 9.20383 16.543 9.20383C16.558 9.15133 16.693 9.12133 16.693 9.12133C16.6555 9.08383 16.6517 9.00883 16.6517 9.00883C16.738 9.00133 16.8242 9.08383 16.8242 9.08383C16.8242 9.08383 16.7305 9.05008 16.7192 8.89258C16.7192 8.89258 16.7717 8.87758 16.8017 8.90758C16.8017 8.90758 16.783 8.73508 16.8505 8.70508H16.858C16.933 8.71633 16.9555 8.88508 16.9555 8.88508C16.9817 8.84758 17.0305 8.84758 17.0305 8.84758C17.0605 9.00508 16.978 9.06133 16.978 9.06133C16.978 9.06133 17.0417 8.96383 17.128 8.94133C17.128 8.94133 17.1467 9.01633 17.1167 9.06883C17.1167 9.06883 17.2555 9.05383 17.2817 9.10633C17.2817 9.10633 17.2892 9.15508 17.1467 9.21133C17.1467 9.21133 17.1842 9.27508 17.1842 9.32383C17.1842 9.32383 17.0492 9.30133 17.023 9.24133L16.9667 9.25633L16.8842 9.26383" fill="#FFCC00"/>
<path d="M16.891 9.26155L16.831 9.26956C16.823 9.33362 16.699 9.38966 16.699 9.38966C16.679 9.34162 16.699 9.26956 16.699 9.26956C16.551 9.25355 16.543 9.2015 16.543 9.2015C16.559 9.14946 16.695 9.12143 16.695 9.12143C16.655 9.0814 16.651 9.00934 16.651 9.00934C16.739 9.00133 16.827 9.0814 16.827 9.0814C16.827 9.0814 16.731 9.04937 16.719 8.88924C16.719 8.88924 16.771 8.87723 16.803 8.90525C16.803 8.90525 16.783 8.7331 16.851 8.70508H16.859C16.935 8.71308 16.955 8.88523 16.955 8.88523C16.983 8.8492 17.035 8.8452 17.035 8.8452C17.063 9.00534 16.979 9.06138 16.979 9.06138C16.979 9.06138 17.043 8.9613 17.131 8.94128C17.131 8.94128 17.147 9.01735 17.119 9.06539C17.119 9.06539 17.255 9.05338 17.283 9.10542C17.283 9.10542 17.291 9.15346 17.147 9.20951C17.147 9.20951 17.187 9.27356 17.183 9.32161C17.183 9.32161 17.051 9.30159 17.023 9.24154L16.967 9.25355L16.887 9.26155" fill="#BCAC0B"/>
<path d="M16.891 9.26155L16.831 9.26956C16.823 9.33362 16.699 9.38966 16.699 9.38966C16.679 9.34162 16.699 9.26956 16.699 9.26956C16.551 9.25355 16.543 9.2015 16.543 9.2015C16.559 9.14946 16.695 9.12143 16.695 9.12143C16.655 9.0814 16.651 9.00934 16.651 9.00934C16.739 9.00133 16.827 9.0814 16.827 9.0814C16.827 9.0814 16.731 9.04937 16.719 8.88924C16.719 8.88924 16.771 8.87723 16.803 8.90525C16.803 8.90525 16.783 8.7331 16.851 8.70508H16.859C16.935 8.71308 16.955 8.88523 16.955 8.88523C16.983 8.8492 17.035 8.8452 17.035 8.8452C17.063 9.00534 16.979 9.06138 16.979 9.06138C16.979 9.06138 17.043 8.9613 17.131 8.94128C17.131 8.94128 17.147 9.01735 17.119 9.06539C17.119 9.06539 17.255 9.05338 17.283 9.10542C17.283 9.10542 17.291 9.15346 17.147 9.20951C17.147 9.20951 17.187 9.27356 17.183 9.32161C17.183 9.32161 17.051 9.30159 17.023 9.24154L16.967 9.25355L16.887 9.26155" stroke="black" stroke-width="0.0630271"/>
<path d="M16.925 9.29367C16.9568 9.28969 16.9858 9.27323 17.0055 9.24791C17.0251 9.2226 17.034 9.19049 17.03 9.15867C17.026 9.12684 17.0096 9.0979 16.9842 9.07821C16.9589 9.05852 16.9268 9.04969 16.895 9.05367C16.8792 9.05564 16.864 9.06069 16.8502 9.06854C16.8364 9.07639 16.8243 9.08689 16.8145 9.09942C16.8048 9.11196 16.7976 9.12629 16.7934 9.14161C16.7892 9.15692 16.788 9.17291 16.79 9.18867C16.792 9.20443 16.797 9.21964 16.8049 9.23345C16.8127 9.24725 16.8232 9.25938 16.8358 9.26913C16.8611 9.28882 16.8932 9.29765 16.925 9.29367" fill="white"/>
<path d="M16.9261 9.294C16.9419 9.2919 16.9571 9.28671 16.9708 9.27873C16.9846 9.27075 16.9966 9.26014 17.0063 9.2475C17.016 9.23486 17.023 9.22044 17.0271 9.20507C17.0312 9.18969 17.0322 9.17366 17.0301 9.15789C17.028 9.14211 17.0228 9.12691 17.0149 9.11314C17.0069 9.09938 16.9963 9.08732 16.9837 9.07765C16.971 9.06799 16.9566 9.0609 16.9413 9.05681C16.9259 9.05272 16.9099 9.05169 16.8941 9.0538C16.8623 9.05804 16.8335 9.07477 16.814 9.1003C16.7945 9.12582 16.7859 9.15806 16.7901 9.18991C16.7944 9.22177 16.8111 9.25063 16.8366 9.27015C16.8621 9.28967 16.8943 9.29825 16.9261 9.294V9.294Z" stroke="black" stroke-width="0.0360155"/>
<path d="M16.9206 9.23627C16.9306 9.23721 16.9406 9.2359 16.9501 9.23245C16.9595 9.229 16.9681 9.22348 16.9751 9.21631C16.9821 9.20914 16.9875 9.20048 16.9907 9.19098C16.994 9.18149 16.9951 9.17138 16.9939 9.1614C16.9928 9.15142 16.9894 9.14182 16.9841 9.1333C16.9788 9.12478 16.9716 9.11756 16.9632 9.11216C16.9547 9.10675 16.9451 9.10331 16.9352 9.10207C16.9252 9.10084 16.9151 9.10184 16.9056 9.10502C16.8909 9.10991 16.8783 9.1197 16.87 9.13276C16.8616 9.14582 16.8581 9.16134 16.8598 9.17673C16.8616 9.19211 16.8686 9.20643 16.8796 9.21727C16.8907 9.22811 16.9051 9.23482 16.9206 9.23627" fill="white"/>
<path d="M16.9173 9.2374C16.9274 9.23832 16.9376 9.23697 16.9471 9.23344C16.9566 9.22992 16.9652 9.22431 16.9723 9.21703C16.9793 9.20974 16.9847 9.20097 16.9879 9.19135C16.9911 9.18173 16.9922 9.17151 16.991 9.16143C16.9898 9.15135 16.9863 9.14168 16.9809 9.13311C16.9754 9.12454 16.9681 9.1173 16.9595 9.11192C16.9509 9.10654 16.9412 9.10315 16.9312 9.102C16.9211 9.10085 16.9109 9.10197 16.9013 9.10528C16.8866 9.11036 16.8741 9.12033 16.8658 9.13353C16.8576 9.14673 16.8541 9.16236 16.856 9.17781C16.8578 9.19326 16.8649 9.20761 16.8761 9.21845C16.8873 9.2293 16.9018 9.23598 16.9173 9.2374V9.2374Z" stroke="black" stroke-width="0.0270116"/>
<path d="M19.6072 9.52455C19.6072 9.52455 19.5734 9.44205 19.5059 9.4683C19.4384 9.49455 19.4459 9.50955 19.3859 9.50955C19.3859 9.50955 19.3634 9.43455 19.3934 9.4008C19.3934 9.4008 19.2997 9.3633 19.2734 9.2808C19.2734 9.2808 19.3259 9.2208 19.4497 9.2433C19.4497 9.2433 19.4497 9.18705 19.4609 9.15705C19.4609 9.15705 19.5959 9.19455 19.5959 9.2733C19.5959 9.2733 19.5547 9.1308 19.6259 9.0258C19.6259 9.0258 19.6859 9.0483 19.6822 9.1158C19.6822 9.1158 19.7122 8.9808 19.8922 9.0183C19.8922 9.0183 19.7947 9.10455 19.7909 9.1458C19.7834 9.1833 19.7009 9.25455 19.6972 9.27705C19.6972 9.2958 19.6897 9.33705 19.6672 9.3633C19.6409 9.3858 19.6372 9.42705 19.6372 9.4383C19.6372 9.44955 19.6372 9.5058 19.6072 9.5208" fill="#FFCC00"/>
<path d="M19.6054 9.52222C19.6054 9.52222 19.5734 9.44215 19.5054 9.47018C19.4374 9.4982 19.4454 9.51021 19.3854 9.51021C19.3854 9.51021 19.3614 9.43415 19.3934 9.40212C19.3934 9.40212 19.2974 9.36609 19.2734 9.28202C19.2734 9.28202 19.3254 9.22196 19.4494 9.24598C19.4494 9.24598 19.4454 9.18593 19.4614 9.15791C19.4614 9.15791 19.5934 9.19794 19.5934 9.27401C19.5934 9.27401 19.5534 9.12989 19.6254 9.0258C19.6254 9.0258 19.6854 9.04982 19.6814 9.11788C19.6814 9.11788 19.7094 8.98176 19.8894 9.01779C19.8894 9.01779 19.7934 9.10586 19.7894 9.1459C19.7814 9.18593 19.7014 9.25399 19.6974 9.27801C19.6974 9.29803 19.6894 9.33806 19.6654 9.36208C19.6414 9.38611 19.6374 9.42614 19.6374 9.44215C19.6374 9.45016 19.6374 9.50621 19.6054 9.52222V9.52222Z" fill="#BCAC0B" stroke="black" stroke-width="0.0630271"/>
<path d="M19.5064 9.36341C19.5099 9.34304 19.5185 9.32392 19.5316 9.3079C19.5446 9.29188 19.5616 9.2795 19.5808 9.27196C19.6001 9.26441 19.6209 9.26196 19.6414 9.26485C19.6618 9.26773 19.6812 9.27584 19.6976 9.28841C19.6976 9.31091 19.6864 9.34091 19.6676 9.36341C19.6414 9.38591 19.6376 9.42716 19.6376 9.43841C19.6393 9.46189 19.6341 9.48537 19.6226 9.50591H19.6039C19.588 9.50322 19.5728 9.49736 19.5592 9.48867C19.5457 9.47999 19.534 9.46866 19.5249 9.45536C19.5158 9.44206 19.5094 9.42706 19.5063 9.41127C19.5031 9.39547 19.5031 9.37919 19.5064 9.36341" fill="white"/>
<path d="M19.5067 9.36332C19.5106 9.34307 19.5196 9.32414 19.5328 9.30837C19.5461 9.2926 19.5632 9.28051 19.5825 9.27327C19.6018 9.26603 19.6226 9.26388 19.643 9.26704C19.6633 9.27019 19.6825 9.27853 19.6987 9.29126C19.6987 9.31128 19.6867 9.34331 19.6667 9.36332C19.6427 9.38735 19.6387 9.42738 19.6387 9.44339C19.6395 9.46582 19.6339 9.48801 19.6227 9.50745H19.6027C19.5868 9.50459 19.5717 9.49855 19.5581 9.48969C19.5446 9.48082 19.533 9.46931 19.5241 9.45585C19.5151 9.44239 19.5089 9.42726 19.506 9.41136C19.503 9.39546 19.5032 9.37912 19.5067 9.36332V9.36332Z" stroke="black" stroke-width="0.0360155"/>
<path d="M19.5586 9.37462C19.5608 9.36168 19.5667 9.34966 19.5756 9.34002C19.5845 9.33039 19.596 9.32356 19.6088 9.32037C19.6215 9.31719 19.6349 9.31779 19.6473 9.3221C19.6597 9.3264 19.6706 9.33423 19.6786 9.34462L19.6673 9.36337C19.6411 9.38587 19.6373 9.42712 19.6373 9.43837V9.44963H19.6148C19.5773 9.44588 19.5548 9.41212 19.5623 9.37087" fill="white"/>
<path d="M19.5586 9.37434C19.5613 9.36167 19.5675 9.35002 19.5765 9.34077C19.5856 9.33151 19.5971 9.32504 19.6097 9.32209C19.6223 9.31915 19.6355 9.31987 19.6477 9.32416C19.6599 9.32845 19.6706 9.33613 19.6786 9.34631L19.6666 9.36233C19.6426 9.38635 19.6386 9.42638 19.6386 9.4424V9.4504H19.6146C19.5746 9.4464 19.5546 9.41037 19.5626 9.37033L19.5586 9.37434Z" stroke="black" stroke-width="0.0270116"/>
<path d="M16.087 9.48744C16.087 9.48744 16.1208 9.41245 16.1883 9.44245C16.252 9.47994 16.2445 9.48744 16.3083 9.48744C16.3083 9.48744 16.3308 9.41244 16.3083 9.38244C16.3083 9.38244 16.402 9.35244 16.4283 9.26994C16.4283 9.26994 16.3795 9.20619 16.2558 9.22119C16.2558 9.22119 16.2633 9.1612 16.2483 9.13495C16.2483 9.13495 16.117 9.16495 16.1133 9.2362C16.1133 9.2362 16.1583 9.09744 16.0945 8.9887C16.0945 8.9887 16.0308 9.01495 16.0308 9.0787C16.0308 9.0787 16.012 8.93995 15.832 8.9662C15.832 8.9662 15.922 9.05994 15.922 9.10119C15.922 9.14244 16.0045 9.2137 16.0045 9.2362C16.0045 9.2587 16.012 9.29994 16.0345 9.32619C16.0608 9.34869 16.0608 9.38995 16.057 9.40495C16.057 9.41245 16.057 9.46869 16.087 9.48744" fill="#FFCC00"/>
<path d="M16.088 9.49104C16.088 9.49104 16.12 9.41097 16.188 9.443C16.252 9.47903 16.244 9.48704 16.308 9.48704C16.308 9.48704 16.332 9.41498 16.308 9.38295C16.308 9.38295 16.404 9.35493 16.428 9.27085C16.428 9.27085 16.38 9.2068 16.256 9.22281C16.256 9.22281 16.264 9.16276 16.248 9.13474C16.248 9.13474 16.116 9.16677 16.112 9.23883C16.112 9.23883 16.16 9.09871 16.096 8.99062C16.096 8.99062 16.032 9.01464 16.032 9.07869C16.032 9.07869 16.012 8.94257 15.832 8.9706C15.832 8.9706 15.924 9.06268 15.924 9.10271C15.924 9.14275 16.004 9.21481 16.004 9.23883C16.004 9.25884 16.012 9.30288 16.036 9.3269C16.06 9.35092 16.06 9.39096 16.056 9.40697C16.056 9.41498 16.056 9.47103 16.088 9.48704V9.49104Z" fill="#BCAC0B" stroke="black" stroke-width="0.0630271"/>
<path d="M16.1914 9.335C16.1881 9.31494 16.1798 9.29604 16.1672 9.28008C16.1546 9.26411 16.1382 9.25161 16.1194 9.24374C16.1007 9.23587 16.0803 9.23288 16.0601 9.23507C16.0399 9.23726 16.0205 9.24455 16.0039 9.25625C16.0039 9.275 16.0152 9.30875 16.0339 9.3275C16.0602 9.35 16.0602 9.39125 16.0564 9.40625C16.0564 9.41375 16.0564 9.44375 16.0714 9.47375H16.0864C16.1026 9.47193 16.1182 9.46684 16.1324 9.45879C16.1465 9.45074 16.1589 9.43989 16.1687 9.42691C16.1785 9.41393 16.1856 9.39909 16.1895 9.38329C16.1934 9.36749 16.1941 9.35106 16.1914 9.335" fill="white"/>
<path d="M16.1918 9.33407C16.1884 9.31444 16.1802 9.29597 16.1679 9.2803C16.1556 9.26464 16.1397 9.25228 16.1214 9.24433C16.1032 9.23639 16.0832 9.23312 16.0634 9.23481C16.0436 9.23649 16.0245 9.24309 16.0078 9.254C16.0078 9.27402 16.0158 9.30605 16.0358 9.32607C16.0598 9.35009 16.0598 9.39012 16.0558 9.40613C16.0558 9.41414 16.0558 9.44617 16.0718 9.47419H16.0878C16.104 9.47226 16.1197 9.46704 16.1338 9.45885C16.1479 9.45066 16.1602 9.43967 16.17 9.42655C16.1797 9.41343 16.1867 9.39847 16.1904 9.38257C16.1942 9.36667 16.1946 9.35016 16.1918 9.33407Z" stroke="black" stroke-width="0.0360155"/>
<path d="M16.1395 9.34208C16.1386 9.32853 16.1336 9.31559 16.1251 9.30494C16.1167 9.29428 16.1053 9.28642 16.0923 9.28237C16.0794 9.27832 16.0655 9.27827 16.0525 9.28223C16.0395 9.2862 16.028 9.29398 16.0195 9.30458L16.0345 9.32708C16.0608 9.34958 16.0608 9.39083 16.057 9.40583V9.41333H16.0833C16.1208 9.41333 16.1433 9.37583 16.1395 9.34208" fill="white"/>
<path d="M16.1395 9.34196C16.1381 9.32866 16.1328 9.31608 16.1242 9.30579C16.1157 9.2955 16.1043 9.28797 16.0915 9.28412C16.0787 9.28028 16.065 9.28029 16.0522 9.28417C16.0394 9.28805 16.0281 9.29562 16.0195 9.30593L16.0355 9.32595C16.0595 9.34997 16.0595 9.39 16.0555 9.40601V9.41402H16.0835C16.1195 9.41402 16.1435 9.37799 16.1395 9.34196V9.34196Z" stroke="black" stroke-width="0.0270116"/>
<path d="M16.2852 10.2235C16.2852 10.2235 17.6372 9.69508 19.3412 10.2355" stroke="black" stroke-width="0.135058"/>
<path d="M19.5364 9.8028C17.6524 9.20229 16.1484 9.77078 16.1484 9.77078" stroke="black" stroke-width="0.0450193"/>
<path d="M17.8375 9.67188L17.6875 9.74687L17.8225 9.82938L17.9838 9.75438L17.8375 9.67188" fill="#FF0000"/>
<path d="M17.8395 9.66992L17.6875 9.74599L17.8235 9.83006L17.9835 9.74999L17.8395 9.66992" stroke="black" stroke-width="0.0450193"/>
</g>
</g>
<defs>
<filter id="filter0_d_336_26891" x="0" y="-2" width="36" height="36" filterUnits="userSpaceOnUse" color-interpolation-filters="sRGB">
<feFlood flood-opacity="0" result="BackgroundImageFix"/>
<feColorMatrix in="SourceAlpha" type="matrix" values="0 0 0 0 0 0 0 0 0 0 0 0 0 0 0 0 0 0 127 0" result="hardAlpha"/>
<feOffset dy="4"/>
<feGaussianBlur stdDeviation="3"/>
<feComposite in2="hardAlpha" operator="out"/>
<feColorMatrix type="matrix" values="0 0 0 0 0 0 0 0 0 0 0 0 0 0 0 0 0 0 0.16 0"/>
<feBlend mode="normal" in2="BackgroundImageFix" result="effect1_dropShadow_336_26891"/>
<feBlend mode="normal" in="SourceGraphic" in2="effect1_dropShadow_336_26891" result="shape"/>
</filter>
<clipPath id="clip0_336_26891">
<rect width="24" height="18" fill="white" transform="translate(6 3)"/>
</clipPath>
</defs>
</svg>
