<svg width="36" height="31" viewBox="0 0 36 31" fill="none" xmlns="http://www.w3.org/2000/svg">
<g filter="url(#filter0_d_336_27533)">
<g clip-path="url(#clip0_336_27533)">
<path d="M6 3H30V21H6V3Z" fill="#18C3DF"/>
<path d="M6 9H30V15H6V9Z" fill="white"/>
<path d="M17.6992 12L18.1992 12.1L17.9992 11L17.6992 12Z" fill="#18C3DF"/>
<path d="M18.3008 12L17.8008 12.1L18.0008 11L18.3008 12Z" fill="#18C3DF"/>
<path d="M17.9083 11.7153L17.9677 12.2217L18.9521 11.6916L17.9083 11.7153Z" fill="#18C3DF"/>
<path d="M18.0919 12.2856L17.8423 11.841L18.9503 11.6912L18.0919 12.2856Z" fill="#18C3DF"/>
<path d="M17.9081 12.2856L18.1577 11.841L17.0497 11.6912L17.9081 12.2856Z" fill="#18C3DF"/>
<path d="M18.0917 11.7153L18.0323 12.2217L17.0479 11.6916L18.0917 11.7153Z" fill="#18C3DF"/>
<path d="M18.2442 11.8238L17.781 12.0368L18.5893 12.8091L18.2442 11.8238Z" fill="#18C3DF"/>
<path d="M17.7599 12.1773L18.1056 11.8025L18.5904 12.81L17.7599 12.1773Z" fill="#18C3DF"/>
<path d="M18.244 12.1773L17.8983 11.8025L17.4135 12.81L18.244 12.1773Z" fill="#18C3DF"/>
<path d="M17.7597 11.8238L18.2229 12.0368L17.4146 12.8091L17.7597 11.8238Z" fill="#18C3DF"/>
<path d="M22.6953 10.3984L23.1953 10.4984L22.9953 9.39844L22.6953 10.3984Z" fill="#18C3DF"/>
<path d="M23.2969 10.3984L22.7969 10.4984L22.9969 9.39844L23.2969 10.3984Z" fill="#18C3DF"/>
<path d="M22.9044 10.1137L22.9638 10.6201L23.9482 10.09L22.9044 10.1137Z" fill="#18C3DF"/>
<path d="M23.088 10.684L22.8384 10.2394L23.9464 10.0897L23.088 10.684Z" fill="#18C3DF"/>
<path d="M22.9042 10.684L23.1538 10.2394L22.0458 10.0897L22.9042 10.684Z" fill="#18C3DF"/>
<path d="M23.0878 10.1137L23.0284 10.6201L22.044 10.09L23.0878 10.1137Z" fill="#18C3DF"/>
<path d="M23.2403 10.2222L22.7771 10.4352L23.5854 11.2076L23.2403 10.2222Z" fill="#18C3DF"/>
<path d="M22.756 10.5757L23.1017 10.201L23.5865 11.2084L22.756 10.5757Z" fill="#18C3DF"/>
<path d="M23.2401 10.5757L22.8944 10.201L22.4096 11.2084L23.2401 10.5757Z" fill="#18C3DF"/>
<path d="M22.7558 10.2222L23.219 10.4352L22.4107 11.2076L22.7558 10.2222Z" fill="#18C3DF"/>
<path d="M22.6953 13.3984L23.1953 13.4984L22.9953 12.3984L22.6953 13.3984Z" fill="#18C3DF"/>
<path d="M23.2969 13.3984L22.7969 13.4984L22.9969 12.3984L23.2969 13.3984Z" fill="#18C3DF"/>
<path d="M22.9044 13.1137L22.9638 13.6201L23.9482 13.09L22.9044 13.1137Z" fill="#18C3DF"/>
<path d="M23.088 13.684L22.8384 13.2394L23.9464 13.0897L23.088 13.684Z" fill="#18C3DF"/>
<path d="M22.9042 13.684L23.1538 13.2394L22.0458 13.0897L22.9042 13.684Z" fill="#18C3DF"/>
<path d="M23.0878 13.1137L23.0284 13.6201L22.044 13.09L23.0878 13.1137Z" fill="#18C3DF"/>
<path d="M23.2403 13.2222L22.7771 13.4352L23.5854 14.2076L23.2403 13.2222Z" fill="#18C3DF"/>
<path d="M22.756 13.5757L23.1017 13.201L23.5865 14.2084L22.756 13.5757Z" fill="#18C3DF"/>
<path d="M23.2401 13.5757L22.8944 13.201L22.4096 14.2084L23.2401 13.5757Z" fill="#18C3DF"/>
<path d="M22.7558 13.2222L23.219 13.4352L22.4107 14.2076L22.7558 13.2222Z" fill="#18C3DF"/>
<path d="M12.6992 10.3984L13.1992 10.4984L12.9992 9.39844L12.6992 10.3984Z" fill="#18C3DF"/>
<path d="M13.3008 10.3984L12.8008 10.4984L13.0008 9.39844L13.3008 10.3984Z" fill="#18C3DF"/>
<path d="M12.9083 10.1137L12.9677 10.6201L13.9521 10.09L12.9083 10.1137Z" fill="#18C3DF"/>
<path d="M13.0919 10.684L12.8423 10.2394L13.9503 10.0897L13.0919 10.684Z" fill="#18C3DF"/>
<path d="M12.9081 10.684L13.1577 10.2394L12.0497 10.0897L12.9081 10.684Z" fill="#18C3DF"/>
<path d="M13.0917 10.1137L13.0323 10.6201L12.0479 10.09L13.0917 10.1137Z" fill="#18C3DF"/>
<path d="M13.2442 10.2222L12.781 10.4352L13.5893 11.2076L13.2442 10.2222Z" fill="#18C3DF"/>
<path d="M12.7599 10.5757L13.1056 10.201L13.5904 11.2084L12.7599 10.5757Z" fill="#18C3DF"/>
<path d="M13.244 10.5757L12.8983 10.201L12.4135 11.2084L13.244 10.5757Z" fill="#18C3DF"/>
<path d="M12.7597 10.2222L13.2229 10.4352L12.4146 11.2076L12.7597 10.2222Z" fill="#18C3DF"/>
<path d="M12.6992 13.3984L13.1992 13.4984L12.9992 12.3984L12.6992 13.3984Z" fill="#18C3DF"/>
<path d="M13.3008 13.3984L12.8008 13.4984L13.0008 12.3984L13.3008 13.3984Z" fill="#18C3DF"/>
<path d="M12.9083 13.1137L12.9677 13.6201L13.9521 13.09L12.9083 13.1137Z" fill="#18C3DF"/>
<path d="M13.0919 13.684L12.8423 13.2394L13.9503 13.0897L13.0919 13.684Z" fill="#18C3DF"/>
<path d="M12.9081 13.684L13.1577 13.2394L12.0497 13.0897L12.9081 13.684Z" fill="#18C3DF"/>
<path d="M13.0917 13.1137L13.0323 13.6201L12.0479 13.09L13.0917 13.1137Z" fill="#18C3DF"/>
<path d="M13.2442 13.2222L12.781 13.4352L13.5893 14.2076L13.2442 13.2222Z" fill="#18C3DF"/>
<path d="M12.7599 13.5757L13.1056 13.201L13.5904 14.2084L12.7599 13.5757Z" fill="#18C3DF"/>
<path d="M13.244 13.5757L12.8983 13.201L12.4135 14.2084L13.244 13.5757Z" fill="#18C3DF"/>
<path d="M12.7597 13.2222L13.2229 13.4352L12.4146 14.2076L12.7597 13.2222Z" fill="#18C3DF"/>
</g>
</g>
<defs>
<filter id="filter0_d_336_27533" x="0" y="-2" width="36" height="36" filterUnits="userSpaceOnUse" color-interpolation-filters="sRGB">
<feFlood flood-opacity="0" result="BackgroundImageFix"/>
<feColorMatrix in="SourceAlpha" type="matrix" values="0 0 0 0 0 0 0 0 0 0 0 0 0 0 0 0 0 0 127 0" result="hardAlpha"/>
<feOffset dy="4"/>
<feGaussianBlur stdDeviation="3"/>
<feComposite in2="hardAlpha" operator="out"/>
<feColorMatrix type="matrix" values="0 0 0 0 0 0 0 0 0 0 0 0 0 0 0 0 0 0 0.16 0"/>
<feBlend mode="normal" in2="BackgroundImageFix" result="effect1_dropShadow_336_27533"/>
<feBlend mode="normal" in="SourceGraphic" in2="effect1_dropShadow_336_27533" result="shape"/>
</filter>
<clipPath id="clip0_336_27533">
<rect width="24" height="18" fill="white" transform="translate(6 3)"/>
</clipPath>
</defs>
</svg>
