<svg width="36" height="31" viewBox="0 0 36 31" fill="none" xmlns="http://www.w3.org/2000/svg">
<g filter="url(#filter0_d_336_27762)">
<g clip-path="url(#clip0_336_27762)">
<path fill-rule="evenodd" clip-rule="evenodd" d="M30.9147 21.048H5.13281V3H30.9147V21.048Z" fill="#BA0000"/>
<path fill-rule="evenodd" clip-rule="evenodd" d="M18.6345 16.2537C18.6416 16.2326 18.6557 16.014 18.6486 16.014C18.6416 16.014 18.3173 15.6298 18.3243 15.6298C18.3314 15.6298 18.7403 15.7214 18.7403 15.7073C18.7403 15.6932 18.906 15.302 18.906 15.2949L19.1034 15.7708L19.5087 15.947L19.2267 16.1832L19.2867 16.6415C19.2867 16.652 19.0047 16.3736 19.0047 16.3736L18.6909 16.4088C18.6909 16.4088 18.6486 16.2678 18.6345 16.2537Z" fill="#FFEF00" stroke="black" stroke-width="0.168025"/>
<path fill-rule="evenodd" clip-rule="evenodd" d="M16.4371 10.2937C16.1657 10.4347 15.1329 11.6156 14.9919 11.7989C14.8479 12.1085 14.647 12.3883 14.3997 12.6237C14.1423 12.8176 14.0013 13.082 14.0366 13.3287C14.0366 13.646 14.2093 13.8575 14.3468 14.0725C14.4279 14.1747 14.5407 14.2382 14.657 14.2487C14.9002 14.2769 14.9214 14.3545 15.0447 14.3968C15.5171 15.0454 16.2291 15.5248 16.7367 15.902C16.9703 16.0127 17.1845 16.1603 17.3712 16.3391C17.5193 16.6281 17.4911 16.9031 17.4699 17.0441L17.0928 18.4752C17.0258 18.863 17.3677 18.7784 17.3853 18.7008C17.5369 18.4999 17.766 18.6409 18.0903 17.4917L18.5415 16.889C18.5415 16.889 18.7143 16.8185 18.7143 16.8008C18.9786 16.4836 18.7777 16.3073 18.6261 16.2474L18.3018 16.1276C18.3018 16.1276 17.9211 15.7469 17.9035 15.7469C17.7237 15.2216 16.8354 14.1042 16.631 13.9491C16.49 13.7975 16.4195 13.7376 16.2855 13.653C16.0776 13.5543 16.0106 13.5191 15.8837 13.4697C15.7779 13.4274 15.852 13.3111 15.9189 13.2582C16.6239 12.874 17.1774 12.451 17.8506 12.0209L17.9564 11.9504L17.7132 10.5686L16.5922 10.1738C16.5323 10.2126 16.4865 10.2549 16.4371 10.2937Z" fill="white" stroke="black" stroke-width="0.198575"/>
<path fill-rule="evenodd" clip-rule="evenodd" d="M17.3744 17.5609C17.3744 17.5468 18.0794 17.4199 18.0794 17.4199L17.9913 17.6808L17.2969 17.8923L17.3744 17.5644V17.5609Z" fill="#FFEC00"/>
<path d="M15.5508 14.932C15.6227 14.767 15.7272 14.6183 15.8581 14.4947C15.9889 14.3712 16.1434 14.2753 16.3122 14.2129" stroke="black" stroke-width="0.168025"/>
<path d="M17.3496 17.5682C17.3954 17.5576 17.5963 17.4977 17.6527 17.4871C17.7162 17.473 17.7761 17.4589 17.836 17.4377C17.9065 17.4236 17.9488 17.4095 18.0193 17.399C18.0769 17.3786 18.1358 17.3621 18.1956 17.3496M17.2227 18.0017C17.2494 17.9751 17.2789 17.9514 17.3108 17.9312C17.3496 17.9171 17.487 17.8607 17.5399 17.8502C17.5959 17.8362 17.6511 17.8198 17.7056 17.8008L17.8677 17.7585C17.9206 17.7374 17.97 17.7233 18.0228 17.7092" stroke="black" stroke-width="0.1833"/>
<path d="M17.506 15.0351H17.499C17.5272 15.0351 17.5095 15.0351 17.4672 15.0845C17.4531 15.1233 17.3262 15.2149 17.2275 15.2149C17.1725 15.2209 17.1172 15.2244 17.0619 15.2255L17.016 15.2149M17.499 17.1008H17.5483C17.6012 17.1008 17.6541 17.1114 17.6964 17.1114C17.7492 17.1114 17.7986 17.1255 17.8479 17.1255C17.9008 17.1325 17.9607 17.129 18.0136 17.1396C18.07 17.1396 18.1194 17.1501 18.1793 17.1501C18.2286 17.1537 18.2568 17.1607 18.3097 17.1607L18.1793 17.1501C18.2286 17.1537 18.2568 17.1607 18.3097 17.1607M17.157 18.324C17.1813 18.2975 17.2085 18.2738 17.2381 18.2535C17.2734 18.2429 17.4003 18.183 17.4496 18.1759C17.4998 18.1607 17.5492 18.143 17.5977 18.123L17.7492 18.0878C17.7951 18.0631 17.8409 18.049 17.8902 18.0349M18.0947 16.5826C18.0665 16.6637 18.1053 16.6848 18.1194 16.7201C18.1737 16.7781 18.2434 16.8197 18.3203 16.8399C18.3626 16.8505 18.3908 16.8611 18.4401 16.8822C18.4719 16.8822 18.486 16.8928 18.5106 16.8999M14.1255 13.5582H14.1361C14.1044 13.5582 14.1255 13.5617 14.1749 13.5229C14.2101 13.4841 14.2348 13.4665 14.2665 13.4277M14.7741 14.2737C14.7812 14.2737 15.3593 13.9847 15.4192 13.9212L15.5496 13.819C15.5849 13.8014 15.6096 13.7802 15.6413 13.7591C15.666 13.7238 15.7012 13.6992 15.7224 13.6639C15.7576 13.6322 15.74 13.6005 15.7717 13.5617L15.8175 13.4277M16.5507 13.8578C16.5543 13.8789 16.5437 13.9424 16.5437 13.9917C16.5437 14.0481 16.4697 14.2209 16.3815 14.2737" stroke="black" stroke-width="0.168025"/>
<path d="M15.518 13.8508L15.7541 13.9248C15.9304 13.9883 16.297 14.2209 16.3358 14.2526C16.371 14.2808 16.4415 14.309 16.4627 14.3408C16.505 14.376 16.5332 14.4148 16.5649 14.4536C16.6001 14.4959 16.6354 14.5346 16.653 14.5734C16.8455 14.8407 17.0042 15.1308 17.1254 15.437C17.15 15.4617 17.1606 15.497 17.1853 15.5357C17.2064 15.5851 17.2311 15.6062 17.2558 15.645C17.291 15.6697 17.3333 15.7155 17.3756 15.7367C17.4215 15.7754 17.4638 15.7895 17.499 15.8177C17.5448 15.8389 18.0736 16.1702 18.0983 16.1879C18.1476 16.2266 18.2921 16.3782 18.1899 16.491C18.1476 16.5263 18.1053 16.5791 18.0701 16.5968C18.0313 16.6391 17.9784 16.6567 17.9326 16.6743C17.6964 16.7448 17.573 16.7201 17.5272 16.7201H17.4779M14.3477 12.6699C14.4182 12.6981 14.39 12.677 14.4499 12.7052C14.4922 12.7228 14.5204 12.7228 14.5556 12.7404C14.6015 12.751 14.7213 12.7757 14.7777 12.8321C14.82 12.8673 14.8482 12.9026 14.8976 12.9272C14.948 12.9618 15.0025 12.9902 15.0597 13.0118C15.1161 13.033 15.1796 13.0577 15.236 13.0577H15.5109H15.3699H15.5109" stroke="black" stroke-width="0.168025"/>
<path fill-rule="evenodd" clip-rule="evenodd" d="M14.3346 13.339C14.4827 13.3285 14.7329 13.3743 14.74 13.3743L15.0713 13.3672C15.2476 13.3531 15.2828 13.2862 15.311 13.2368C15.378 13.1381 15.4203 13.1029 15.4732 13.0253C15.5507 12.9689 15.6635 13.1064 15.6671 13.1064C15.9491 13.3743 15.7235 13.6986 15.7094 13.7092C15.5684 13.8396 15.5366 13.8466 15.452 13.7656C15.3674 13.6633 15.3428 13.6175 15.2723 13.5823C15.1348 13.5188 14.8563 13.5682 14.8493 13.5682L14.7047 13.6246C14.6342 13.6492 14.5919 13.7092 14.4756 13.7303C14.3522 13.7374 14.3135 13.7268 14.2535 13.6281C14.1725 13.5047 14.2112 13.3531 14.3346 13.339V13.339Z" fill="#FFE606" stroke="black" stroke-width="0.168025"/>
<path fill-rule="evenodd" clip-rule="evenodd" d="M22.1885 7.25556C22.1674 7.25556 21.9664 7.35426 21.97 7.36131C21.9735 7.36484 21.8008 7.83719 21.7972 7.83366C21.7937 7.82661 21.6739 7.42124 21.6598 7.42829C21.6492 7.43534 21.2262 7.48469 21.2227 7.48821L21.5399 7.08284L21.4941 6.64221L21.8395 6.77616L22.2097 6.49416C22.2167 6.49064 22.1145 6.87486 22.1145 6.87486L22.2978 7.12866C22.2978 7.12866 22.192 7.23441 22.1885 7.25556V7.25556Z" fill="#FFEF00" stroke="black" stroke-width="0.168025"/>
<path fill-rule="evenodd" clip-rule="evenodd" d="M18.0713 12.0919C18.3216 12.2576 19.8585 12.5819 20.0912 12.6136C20.4313 12.5875 20.7733 12.6258 21.0993 12.7264C21.3919 12.8533 21.6915 12.8463 21.8924 12.6912C22.1674 12.5431 22.2661 12.2893 22.3859 12.0567C22.4113 12.0014 22.4244 11.9413 22.4244 11.8804C22.4244 11.8196 22.4113 11.7595 22.3859 11.7042C22.2943 11.4786 22.3507 11.4222 22.3295 11.2953C22.6609 10.5621 22.7314 9.70903 22.8089 9.07806C22.8019 8.70793 22.8407 8.42593 22.8794 8.31313C23.0163 8.11287 23.2141 7.96206 23.4434 7.88308L24.8781 7.50943C25.2518 7.37548 25.0085 7.12168 24.931 7.14283C24.6842 7.10758 24.6913 6.83968 23.5316 7.11816L22.7843 7.02298C22.7843 7.02298 22.6433 6.90666 22.6256 6.91723C22.2203 6.84321 22.1639 7.10406 22.185 7.26268L22.2414 7.60813C22.2414 7.60813 22.0969 8.12278 22.1039 8.13688C21.7338 8.55283 21.1874 9.88528 21.1522 10.1426C21.1346 10.3823 21.0464 10.3365 21.0676 10.5727C21.0676 10.756 21.0464 10.6432 21.1064 11.0168C21.124 11.1296 20.983 11.1226 20.9054 11.0873C20.2286 10.6643 19.5871 10.3858 18.8786 10.0122L18.7693 9.95578L17.6836 10.8441L17.888 12.0144C17.9515 12.0496 18.0079 12.0673 18.0678 12.0919H18.0713Z" fill="white" stroke="black" stroke-width="0.198575"/>
<path fill-rule="evenodd" clip-rule="evenodd" d="M23.9454 7.70901C23.7842 7.53233 23.6279 7.35131 23.4766 7.16616L23.7445 7.11328L24.2662 7.61736L23.9454 7.70901Z" fill="#FFEC00"/>
<path d="M22.548 10.5856C22.3688 10.604 22.1878 10.5861 22.0157 10.5328C21.8437 10.4795 21.6842 10.3919 21.5469 10.2754" stroke="black" stroke-width="0.168025"/>
<path d="M23.9618 7.72634C23.9265 7.69462 23.7785 7.55009 23.7432 7.50074C23.7004 7.45431 23.6557 7.40962 23.6093 7.36679C23.5634 7.31392 23.5282 7.28219 23.4824 7.22579C23.4372 7.18645 23.3948 7.14405 23.3555 7.09889M24.3989 7.62764C24.3883 7.62764 24.3284 7.60297 24.2931 7.58534C24.2649 7.55362 24.1451 7.46549 24.1133 7.42319C24.074 7.38141 24.0329 7.34142 23.99 7.30334C23.9477 7.25752 23.9159 7.23284 23.8736 7.17997C23.8311 7.14776 23.791 7.11241 23.7538 7.07422" stroke="black" stroke-width="0.1833"/>
<path d="M21.6761 8.83448L21.6797 8.84505C21.6656 8.81685 21.6726 8.83448 21.7396 8.84505C21.7819 8.838 21.9229 8.90498 21.9687 8.98958C21.9969 9.02835 22.0392 9.08828 22.0604 9.13058C22.0674 9.14115 22.0674 9.16583 22.0745 9.1764M23.4845 7.82985L23.4774 7.8228L23.4563 7.78755L23.3928 7.65008C23.3681 7.60778 23.3576 7.5549 23.3329 7.5126C23.3117 7.46325 23.28 7.4139 23.2624 7.36455C23.2342 7.31168 23.2201 7.26585 23.1919 7.20945C23.1672 7.16715 23.1637 7.13895 23.1355 7.09313L23.1919 7.20945C23.1672 7.16715 23.1637 7.13895 23.1355 7.09313M24.7147 7.5267C24.6805 7.51909 24.6473 7.50725 24.616 7.49145C24.5878 7.46678 24.475 7.3857 24.4397 7.35045C24.4027 7.31338 24.3638 7.27809 24.3234 7.2447C24.2882 7.19888 24.2564 7.1742 24.2177 7.12838C24.1776 7.09971 24.1399 7.06789 24.1049 7.0332M22.7336 7.56195C22.8218 7.54785 22.8218 7.50555 22.8429 7.47383C22.8605 7.43858 22.8746 7.35045 22.85 7.24118L22.8288 7.1178C22.8147 7.08608 22.8147 7.06845 22.8112 7.0473M22.0463 12.504L22.0427 12.497C22.0568 12.5252 22.0498 12.5075 21.9863 12.4793L21.863 12.4441M22.3529 11.5875C22.3494 11.5805 21.8136 11.2209 21.729 11.1998C21.6797 11.1751 21.6338 11.1645 21.5774 11.1363L21.4787 11.087C21.4329 11.0799 21.3941 11.0623 21.3554 11.0623C21.3131 11.0482 21.2884 11.0764 21.2426 11.0693L21.1016 11.094M21.1192 10.2445C21.1333 10.2304 21.1967 10.2092 21.239 10.1846C21.2884 10.1599 21.4752 10.1387 21.5633 10.1881" stroke="black" stroke-width="0.168025"/>
<path d="M21.6206 11.1493L21.5677 10.9026C21.5469 10.6821 21.5469 10.4603 21.5677 10.2399C21.5748 10.194 21.5677 10.12 21.5853 10.0812C21.5959 10.0319 21.6135 9.98605 21.6312 9.94023C21.6523 9.88735 21.6699 9.84153 21.6911 9.80275C21.7158 9.66175 22.1141 9.09423 22.1423 9.06603C22.1645 9.0334 22.1881 9.00165 22.2128 8.97085C22.2234 8.9356 22.248 8.9074 22.2692 8.8651C22.3044 8.82633 22.3115 8.7946 22.3326 8.7523C22.3362 8.71353 22.3538 8.65008 22.3538 8.60425C22.3644 8.54433 22.3538 8.4985 22.3644 8.45973C22.3573 8.40685 22.389 7.78293 22.3926 7.75473C22.4031 7.69128 22.4631 7.49035 22.6111 7.5256C22.664 7.54323 22.7274 7.5538 22.7662 7.57848C22.8156 7.59258 22.8579 7.63135 22.8966 7.65955C23.0729 7.83228 23.1117 7.9486 23.1363 7.9909L23.161 8.0332M21.1588 12.7285L21.1553 12.7215C21.1694 12.7461 21.1623 12.732 21.1447 12.6827C21.1412 12.6369 21.1271 12.5769 21.12 12.5346C21.1095 12.4888 21.0883 12.4395 21.0954 12.4113C21.0777 12.3654 21.0883 12.3302 21.0954 12.2844C21.1059 12.228 21.113 12.1892 21.113 12.1363C21.12 12.0658 21.113 12.0235 21.1165 11.9601C21.0989 11.9072 21.0954 11.8649 21.0707 11.812L21.0002 11.671L20.9297 11.5476L21.0002 11.6675L20.9297 11.5476" stroke="black" stroke-width="0.168025"/>
<path fill-rule="evenodd" clip-rule="evenodd" d="M21.7519 12.4328C21.6708 12.3059 21.5862 12.0662 21.5827 12.0627L21.417 11.7736C21.3183 11.6326 21.2408 11.6326 21.1844 11.6326C21.0645 11.6221 21.0117 11.5974 20.9235 11.5939C20.8319 11.5516 20.8989 11.3859 20.8953 11.3824C20.9905 11.0087 21.3888 11.044 21.4029 11.051C21.5827 11.1109 21.6039 11.1356 21.5757 11.2484C21.5298 11.3718 21.5052 11.4176 21.5052 11.4952C21.5157 11.6432 21.699 11.8653 21.699 11.8688L21.8189 11.9675C21.8753 12.0169 21.9493 12.0239 22.0233 12.1191C22.0903 12.2213 22.1009 12.2601 22.0445 12.3588C21.974 12.4927 21.8259 12.5315 21.7519 12.4328V12.4328Z" fill="#FFE606" stroke="black" stroke-width="0.168025"/>
<path fill-rule="evenodd" clip-rule="evenodd" d="M12.4385 8.94693C12.4561 8.96103 12.643 9.07736 12.65 9.07031C12.6571 9.06326 13.1435 8.95046 13.1365 8.95751C13.1294 8.96456 12.8615 9.28533 12.8756 9.29238C12.8897 9.29943 13.1576 9.62373 13.1647 9.62726L12.6535 9.58496L12.3081 9.85991L12.2305 9.50036L11.797 9.34526C11.7899 9.34173 12.1671 9.21836 12.1671 9.21836L12.2799 8.92578C12.2799 8.92578 12.4244 8.95046 12.4456 8.94693H12.4385Z" fill="#FFEF00" stroke="black" stroke-width="0.168025"/>
<path fill-rule="evenodd" clip-rule="evenodd" d="M18.7389 9.74249C18.7389 9.43581 18.1678 7.97294 18.0691 7.76496C17.8609 7.49441 17.7054 7.18708 17.6109 6.85904C17.558 6.54179 17.3888 6.29504 17.1526 6.21044C16.8741 6.06591 16.6062 6.12231 16.3489 6.14699C16.222 6.17166 16.1127 6.24216 16.0528 6.34086C15.9118 6.54179 15.8378 6.52416 15.7391 6.61229C14.946 6.73566 14.1951 7.14456 13.6241 7.42304C13.4182 7.57874 13.1884 7.70016 12.9438 7.78259C12.7013 7.77904 12.4665 7.69746 12.274 7.54994L11.1777 6.55236C10.8605 6.31619 10.7829 6.65811 10.8429 6.71099C10.9486 6.93659 10.7195 7.07406 11.5902 7.89539L11.918 8.57219C11.918 8.57219 11.9004 8.75549 11.918 8.76254C12.0731 9.14324 12.3269 9.04806 12.4467 8.94231L12.7041 8.70614C12.7041 8.70614 13.2152 8.54399 13.2222 8.52989C13.7721 8.61096 15.1892 8.34306 15.4218 8.23026C15.6333 8.11394 15.6439 8.21264 15.8272 8.06459C15.9788 7.96236 15.8977 8.04344 16.1797 7.78611C16.2643 7.71561 16.3313 7.83194 16.3489 7.91654C16.363 8.71671 16.4829 9.40409 16.5569 10.2007L16.571 10.3241L17.9105 10.7471L18.7776 9.93636L18.7424 9.73896L18.7389 9.74249Z" fill="white" stroke="black" stroke-width="0.198575"/>
<path fill-rule="evenodd" clip-rule="evenodd" d="M11.8565 7.22246C11.8671 7.23303 11.6591 7.91336 11.6591 7.91336L11.4688 7.71948L11.6027 7.00391L11.8565 7.22246V7.22246Z" fill="#FFEC00"/>
<path d="M15.0312 6.82031C15.285 7.10231 15.3661 7.56761 15.3203 7.82846" stroke="black" stroke-width="0.168025"/>
<path d="M11.8668 7.19887C11.8562 7.2447 11.8139 7.45267 11.7963 7.50555C11.7797 7.56722 11.7655 7.62955 11.754 7.69237L11.7046 7.87567C11.6976 7.9356 11.687 7.992 11.6694 8.05192M11.539 6.88867C11.5425 6.89925 11.5566 6.95917 11.5601 6.99795C11.5531 7.04025 11.5425 7.1883 11.5249 7.24117C11.5118 7.29707 11.5012 7.35353 11.4931 7.41037L11.4579 7.57252C11.4526 7.62721 11.4432 7.68142 11.4297 7.73467" stroke="black" stroke-width="0.1833"/>
<path d="M14.0408 8.50973L14.0443 8.49915C14.0302 8.52735 14.0443 8.50973 14.0161 8.4498C13.9844 8.41455 13.9667 8.26297 14.009 8.17485C14.0303 8.12333 14.0539 8.07276 14.0795 8.02327C14.0831 8.0127 14.1007 7.9986 14.1077 7.98802M12.2113 7.5474L12.2078 7.55445L12.1866 7.5897C12.1655 7.63905 12.1302 7.68135 12.1091 7.72012C12.0879 7.76595 12.0491 7.8012 12.028 7.84702L11.9434 7.98802C11.9117 8.03737 11.8799 8.07615 11.8517 8.12902L11.7812 8.24182L11.8517 8.12902L11.7812 8.24182M11.2807 6.68025C11.2877 6.6873 11.3054 6.74722 11.3089 6.786C11.3018 6.82125 11.2948 6.96225 11.2807 7.00807L11.256 7.16317C11.2419 7.21957 11.2384 7.25835 11.2208 7.31475C11.2189 7.36449 11.213 7.41401 11.2031 7.4628M12.3946 8.3229C12.3347 8.25592 12.2994 8.2806 12.2606 8.27707C12.1833 8.29833 12.1136 8.34111 12.0597 8.40045C12.0315 8.43217 12.0068 8.45685 11.9681 8.48857C11.9504 8.51677 11.9363 8.52382 11.9187 8.54145M16.9066 6.18675L16.903 6.19732C16.9171 6.16912 16.9066 6.18322 16.9207 6.2502C16.9383 6.29602 16.9383 6.32775 16.9559 6.37005M15.9725 6.4335C15.9725 6.44055 15.9619 7.08562 15.9901 7.17022C15.9971 7.2231 16.0112 7.2654 16.0183 7.33237C16.0183 7.36762 16.0289 7.40287 16.0324 7.43812C16.0535 7.48042 16.0571 7.52272 16.0817 7.55445C16.0923 7.60027 16.1276 7.6038 16.1487 7.64257C16.1734 7.6743 16.2192 7.72717 16.2474 7.74832M15.5248 8.20305C15.5036 8.196 15.4543 8.1537 15.412 8.13255C15.3626 8.10435 15.2393 7.95982 15.2357 7.8576" stroke="black" stroke-width="0.168025"/>
<path d="M16.0061 7.28662L15.8299 7.46287C15.6568 7.60221 15.4703 7.72384 15.2729 7.82595C15.2306 7.8471 15.1778 7.89645 15.1319 7.89997C15.0861 7.92112 15.0368 7.92817 14.9909 7.93875C14.6573 7.99921 14.3174 8.01697 13.9793 7.99162C13.9392 7.99085 13.8993 7.9885 13.8594 7.98457C13.8242 7.99162 13.7889 7.9881 13.7431 7.99162C13.6867 7.9881 13.6585 7.99867 13.6127 8.0022C13.5774 8.02335 13.5175 8.04097 13.4752 8.06917C13.4223 8.09032 13.3871 8.12205 13.3483 8.13967C13.313 8.1714 12.7702 8.48512 12.742 8.49922C12.6856 8.5239 12.4847 8.58735 12.4318 8.44282C12.4177 8.38642 12.3965 8.3265 12.393 8.2842C12.3754 8.23485 12.386 8.17845 12.386 8.1291C12.4353 7.88587 12.5129 7.7907 12.534 7.7484L12.5587 7.7061M17.5748 6.80722L17.5712 6.8178C17.5818 6.79312 17.5783 6.8037 17.543 6.846C17.5078 6.8742 17.4655 6.9165 17.4338 6.95175C17.3985 6.97995 17.3703 7.02225 17.3421 7.03635C17.3139 7.0716 17.2787 7.0857 17.2364 7.10685C17.1895 7.12435 17.1446 7.1468 17.1024 7.17382C17.0425 7.20202 17.0072 7.23375 16.9544 7.26547C16.9191 7.30777 16.8839 7.33597 16.8557 7.38532C16.8275 7.43115 16.7993 7.46992 16.7746 7.5228L16.7111 7.64617L16.7746 7.5228L16.7111 7.64617M17.1236 10.2229L17.1341 10.2053C17.1165 10.2406 17.12 10.23 17.1377 10.1736C17.1377 10.1101 17.1553 10.0291 17.1553 9.96915C17.1659 9.9057 17.1764 9.83872 17.1764 9.77527C17.1729 9.70477 17.1729 9.63427 17.1623 9.56377C17.1623 9.50032 17.1518 9.43335 17.1518 9.36637C17.1518 9.30292 17.1447 9.25005 17.1306 9.19012C17.1305 9.13343 17.1258 9.07684 17.1165 9.02092C17.12 8.97862 17.1095 8.93632 17.0989 8.90107L17.0566 8.7213L17.0213 8.57677C17.0143 8.52037 16.9861 8.44987 16.972 8.40405C16.9538 8.36598 16.9408 8.32568 16.9332 8.2842C16.9156 8.24542 16.8909 8.1996 16.8874 8.1573L16.831 8.02687L16.7816 7.89997C16.764 7.85062 16.7429 7.80832 16.7288 7.75897C16.7111 7.74135 16.7076 7.72372 16.7006 7.70962" stroke="black" stroke-width="0.168025"/>
<path fill-rule="evenodd" clip-rule="evenodd" d="M17.0071 6.4724C16.9455 6.59323 16.8723 6.70775 16.7885 6.81433L16.6405 7.11043C16.577 7.27258 16.6158 7.33955 16.644 7.38538C16.7039 7.49113 16.7145 7.54753 16.7568 7.62508C16.7744 7.72378 16.5982 7.75903 16.5982 7.76255C16.2316 7.88945 16.0447 7.53695 16.0447 7.51933C15.9954 7.33603 16.0024 7.30783 16.1152 7.26905C16.2421 7.23733 16.2915 7.2338 16.3549 7.1915C16.4783 7.09985 16.5629 6.82843 16.5664 6.8249L16.5805 6.6698C16.5911 6.5993 16.5594 6.5288 16.5946 6.416C16.644 6.3032 16.6722 6.275 16.785 6.26443C16.933 6.25385 17.0494 6.35608 17.0071 6.4724V6.4724Z" fill="#FFE606" stroke="black" stroke-width="0.168025"/>
<path fill-rule="evenodd" clip-rule="evenodd" d="M16.5275 10.0397C16.4711 9.98684 17.5639 10.4345 17.7155 10.438C17.9199 10.364 18.7694 9.64844 18.7694 9.64844C18.7765 9.71894 18.8082 9.89871 18.8893 9.93749C18.5615 10.2019 18.2654 10.4592 17.9375 10.7236C17.9587 11.1466 17.8847 11.5942 18.0962 12.0631C18.0962 12.0631 17.8424 12.0701 17.8424 12.0631C17.6168 11.8375 17.5357 10.7518 17.5357 10.7518L16.457 10.2724C16.5099 10.2371 16.5487 10.1349 16.5275 10.0362V10.0397Z" fill="#FFEF00" stroke="black" stroke-width="0.168025"/>
<path d="M17.5703 11.1525C17.5879 11.1384 17.3729 11.2512 17.3165 11.2794C16.3259 11.8081 15.8148 12.5836 15.7831 12.6118L15.7055 12.7317L15.6245 12.8374C15.5849 12.8947 15.5425 12.95 15.4976 13.0031C15.4905 13.0242 15.5117 12.9925 15.5046 13.0101M18.2506 10.5215C18.3241 10.5806 18.4006 10.6359 18.4797 10.6872C19.4033 11.3287 20.3233 11.4309 20.3656 11.445C20.4008 11.445 20.4537 11.4556 20.5066 11.4627C20.5489 11.4627 20.5982 11.4768 20.6405 11.4803C20.6899 11.4873 20.7956 11.5085 20.845 11.5226C20.8661 11.5155 20.8274 11.512 20.845 11.5085" stroke="black" stroke-width="0.168025"/>
</g>
</g>
<defs>
<filter id="filter0_d_336_27762" x="0" y="-2" width="36" height="36" filterUnits="userSpaceOnUse" color-interpolation-filters="sRGB">
<feFlood flood-opacity="0" result="BackgroundImageFix"/>
<feColorMatrix in="SourceAlpha" type="matrix" values="0 0 0 0 0 0 0 0 0 0 0 0 0 0 0 0 0 0 127 0" result="hardAlpha"/>
<feOffset dy="4"/>
<feGaussianBlur stdDeviation="3"/>
<feComposite in2="hardAlpha" operator="out"/>
<feColorMatrix type="matrix" values="0 0 0 0 0 0 0 0 0 0 0 0 0 0 0 0 0 0 0.16 0"/>
<feBlend mode="normal" in2="BackgroundImageFix" result="effect1_dropShadow_336_27762"/>
<feBlend mode="normal" in="SourceGraphic" in2="effect1_dropShadow_336_27762" result="shape"/>
</filter>
<clipPath id="clip0_336_27762">
<rect width="24" height="18" fill="white" transform="translate(6 3)"/>
</clipPath>
</defs>
</svg>
