<svg width="36" height="31" viewBox="0 0 36 31" fill="none" xmlns="http://www.w3.org/2000/svg">
<g filter="url(#filter0_d_336_28154)">
<g clip-path="url(#clip0_336_28154)">
<path fill-rule="evenodd" clip-rule="evenodd" d="M4.48438 3H31.5125V21H4.48438V3Z" fill="#FF0000"/>
<path fill-rule="evenodd" clip-rule="evenodd" d="M12.6949 12.1793C13.173 11.5957 14.168 12.1652 14.9801 11.7469C14.0168 11.7996 13.493 11.2828 12.7336 11.3566C13.5211 10.8715 14.1926 11.5148 15.0715 11.2582C13.9078 11.1598 13.957 10.6359 12.8953 10.5621C13.8375 10.1613 14.3016 10.977 15.2262 10.7906C14.1363 10.541 13.9957 9.90117 13.1871 9.76406C14.3684 9.58828 14.291 10.2844 15.4477 10.3687C14.2734 9.86602 14.5793 9.42656 13.5984 9.04336C14.6988 9.01875 14.625 9.78164 15.743 9.97852C14.7867 9.37383 14.9027 8.82187 14.1187 8.38945C15.0504 8.40703 15.1383 9.35977 16.091 9.65508C15.2438 8.98359 15.4652 8.41406 14.734 7.81289C15.6621 8.03086 15.525 8.85352 16.4918 9.38086C15.7746 8.58633 16.0488 8.0168 15.4266 7.36641C16.3195 7.65117 15.9785 8.43516 16.9031 9.18047C16.3758 8.30508 16.7027 7.74609 16.1789 7.01133C17.0086 7.43672 16.6078 8.23828 17.3742 9.03281C17.0121 8.13633 17.3742 7.58086 17.0051 6.78633C17.7152 7.31367 17.2934 8.16797 17.8664 8.98359C17.6555 7.85859 18.1406 7.67578 17.9895 6.69141C18.5273 7.35234 17.9262 8.01328 18.341 8.98711C18.2883 7.87969 18.8789 7.62305 18.777 6.73711C19.3078 7.53164 18.4781 8.22422 18.8262 9.075C18.9141 8.02734 19.6031 7.75312 19.6137 6.9375C20.0355 7.68633 19.1215 8.22773 19.2691 9.22266C19.568 8.12578 20.3027 7.99219 20.3941 7.25391C20.6438 8.11875 19.6418 8.51953 19.7016 9.48281C20.0004 8.50898 20.918 8.39297 21.1078 7.67578C21.2238 8.58984 20.3203 8.75508 20.0637 9.76758C20.5383 8.94141 21.3715 8.87461 21.7441 8.2207C21.716 9.12773 20.6965 9.24727 20.3836 10.0945C20.9707 9.37383 21.709 9.49687 22.2961 8.86055C22.2328 9.67969 21.1957 9.63398 20.6438 10.4812C21.2801 9.89414 22.2398 10.0699 22.7285 9.56367C22.7039 10.2879 21.4313 10.2316 20.8301 10.882C21.5684 10.4742 22.5105 10.7133 23.052 10.3371C22.9535 10.9699 21.6105 10.8223 20.9672 11.3215C21.8531 11.0754 22.5387 11.4516 23.2523 11.1809C22.9043 11.7961 21.6844 11.4059 21.0375 11.8066C21.8109 11.6766 22.6266 12.1441 23.3262 11.993C23.0977 12.5273 21.7582 11.9578 21.041 12.2918C21.8988 12.2848 22.4578 12.8367 23.2559 12.798C22.8234 13.2832 21.6492 12.6187 20.9637 12.7312C21.8004 12.907 22.4402 13.5961 23.073 13.6312C22.5492 14.0285 21.5789 13.1215 20.7879 13.234C21.6035 13.452 22.2855 14.3766 22.7496 14.3977C22.2469 14.7422 21.2555 13.6066 20.577 13.6488C21.4031 14.0215 21.7793 14.9672 22.3242 15.1008C21.6527 15.3152 20.9918 14.0742 20.2711 14.0285C21.1078 14.5559 21.1535 15.3645 21.7969 15.723C21.1184 15.8883 20.6367 14.4855 19.923 14.366C20.6086 14.8687 20.7141 15.948 21.1676 16.2855C20.4785 16.3207 20.2289 14.8547 19.5223 14.6437C20.127 15.15 19.9828 16.2469 20.4539 16.718C19.7367 16.5668 19.8281 15.2906 19.0793 14.8582C19.6172 15.5402 19.343 16.507 19.6945 17.052C18.9949 16.7707 19.2973 15.6246 18.6328 14.9777C18.9949 15.702 18.6047 16.5457 18.893 17.2453C18.2531 16.9324 18.682 15.5789 18.1934 15.041C18.4184 15.8777 18.0035 16.5703 18.1723 17.3191C17.5184 16.5633 18.2707 15.8004 17.7047 15.0305C17.8523 15.9129 17.2336 16.5316 17.332 17.2699C16.8152 16.6652 17.6133 15.6984 17.209 14.9355C17.2934 15.8039 16.4953 16.5668 16.5516 17.1152C16.1297 16.4121 17.0191 15.5824 16.7801 14.7844C16.7309 15.6141 15.9223 16.0641 15.7711 16.8199C15.5004 15.9867 16.4602 15.3855 16.3758 14.5664C16.1016 15.3434 15.3211 15.6562 15.0469 16.4121C14.8219 15.5789 15.9609 15.1395 15.9891 14.2676C15.6375 15.0832 14.7059 15.266 14.3965 15.8918C14.2805 15.0656 15.5848 14.6965 15.634 13.9125C15.2121 14.6648 14.1926 14.6965 13.841 15.2941C13.7883 14.4715 15.1629 14.3695 15.3773 13.5082C14.959 14.148 13.841 14.0672 13.3734 14.5875C13.4473 13.8246 14.9344 13.7789 15.1734 13.0898C14.618 13.6242 13.5914 13.4062 13.0113 13.8281C13.3348 13.0758 14.7305 13.234 15.0434 12.6926C14.4281 13.0125 13.3348 12.6996 12.7934 13.023C13.2855 12.3129 14.3684 12.7383 14.9836 12.2496C13.9852 12.3937 13.384 11.9965 12.6914 12.1793H12.6949Z" fill="#FFFF00"/>
<path fill-rule="evenodd" clip-rule="evenodd" d="M21.502 12.0031C21.502 12.9285 21.1343 13.816 20.48 14.4704C19.8256 15.1248 18.9381 15.4924 18.0127 15.4924C17.0873 15.4924 16.1998 15.1248 15.5454 14.4704C14.8911 13.816 14.5234 12.9285 14.5234 12.0031C14.5234 11.0782 14.8909 10.1911 15.5449 9.53709C16.1989 8.88306 17.086 8.51562 18.0109 8.51562C18.9359 8.51562 19.8229 8.88306 20.477 9.53709C21.131 10.1911 21.4984 11.0782 21.4984 12.0031H21.502Z" fill="#FFFF00"/>
<path fill-rule="evenodd" clip-rule="evenodd" d="M21.0484 12.0105C21.0484 12.8152 20.7288 13.5869 20.1598 14.1559C19.5908 14.7249 18.8191 15.0445 18.0145 15.0445C17.2098 15.0445 16.4381 14.7249 15.8691 14.1559C15.3001 13.5869 14.9805 12.8152 14.9805 12.0105C14.9805 11.2059 15.3001 10.4342 15.8691 9.8652C16.4381 9.29621 17.2098 8.97656 18.0145 8.97656C18.8191 8.97656 19.5908 9.29621 20.1598 9.8652C20.7288 10.4342 21.0484 11.2059 21.0484 12.0105V12.0105Z" fill="#FF0000"/>
<path fill-rule="evenodd" clip-rule="evenodd" d="M20.6281 12.0172C20.6281 12.7081 20.3537 13.3707 19.8651 13.8593C19.3766 14.3478 18.714 14.6223 18.023 14.6223C17.3321 14.6223 16.6695 14.3478 16.181 13.8593C15.6924 13.3707 15.418 12.7081 15.418 12.0172C15.418 11.3263 15.6924 10.6637 16.181 10.1751C16.6695 9.68657 17.3321 9.41211 18.023 9.41211C18.714 9.41211 19.3766 9.68657 19.8651 10.1751C20.3537 10.6637 20.6281 11.3263 20.6281 12.0172V12.0172Z" fill="#FFFF00"/>
<path fill-rule="evenodd" clip-rule="evenodd" d="M15.8039 10.3121C16.5246 10.2945 17.4211 10.3613 18.0152 10.8324C18.65 10.4363 19.3973 10.2596 20.1422 10.3297L20.5289 11.0363C19.928 10.9815 19.323 11.0807 18.7711 11.3246C19.1656 11.6155 19.4827 11.9987 19.6948 12.4406C19.9068 12.8825 20.0073 13.3696 19.9875 13.8594C19.8926 13.9789 19.7414 14.109 19.6465 14.2285C19.7871 13.2266 19.2598 12.1086 18.4898 11.5215C19.1156 12.4215 19.4848 13.2301 19.3828 14.348L19.0312 14.573C19.193 13.5887 18.9609 12.4285 18.2332 11.7605C18.6551 12.3758 19.0699 13.4832 18.8098 14.6082C18.6973 14.6434 18.5215 14.7383 18.409 14.7699C18.5468 14.3084 18.5842 13.8226 18.5187 13.3454C18.4533 12.8682 18.2864 12.4105 18.0293 12.0031C17.5441 12.6992 17.3859 13.7609 17.6602 14.7453C17.5266 14.7102 17.4246 14.668 17.2875 14.6363C17.0871 13.5816 17.3648 12.3863 17.8465 11.7641C17.3543 12.0488 16.8937 13.2652 17.0238 14.5062L16.6969 14.3551C16.5387 13.4305 16.957 12.2246 17.5582 11.5285C16.8762 11.9574 16.3207 13.0156 16.4156 14.1512C16.3102 14.0598 16.2152 14.0141 16.1098 13.9191C15.9902 12.9277 16.5668 11.9293 17.2383 11.3316C16.6723 11.075 16.1836 11.0258 15.4805 11.0363C15.5895 10.8078 15.6914 10.5406 15.8039 10.3086V10.3121Z" fill="#FF0000"/>
</g>
</g>
<defs>
<filter id="filter0_d_336_28154" x="0" y="-2" width="36" height="36" filterUnits="userSpaceOnUse" color-interpolation-filters="sRGB">
<feFlood flood-opacity="0" result="BackgroundImageFix"/>
<feColorMatrix in="SourceAlpha" type="matrix" values="0 0 0 0 0 0 0 0 0 0 0 0 0 0 0 0 0 0 127 0" result="hardAlpha"/>
<feOffset dy="4"/>
<feGaussianBlur stdDeviation="3"/>
<feComposite in2="hardAlpha" operator="out"/>
<feColorMatrix type="matrix" values="0 0 0 0 0 0 0 0 0 0 0 0 0 0 0 0 0 0 0.16 0"/>
<feBlend mode="normal" in2="BackgroundImageFix" result="effect1_dropShadow_336_28154"/>
<feBlend mode="normal" in="SourceGraphic" in2="effect1_dropShadow_336_28154" result="shape"/>
</filter>
<clipPath id="clip0_336_28154">
<rect width="24" height="18" fill="white" transform="translate(6 3)"/>
</clipPath>
</defs>
</svg>
