<svg width="36" height="31" viewBox="0 0 36 31" fill="none" xmlns="http://www.w3.org/2000/svg">
<g filter="url(#filter0_d_336_33435)">
<g clip-path="url(#clip0_336_33435)">
<path fill-rule="evenodd" clip-rule="evenodd" d="M6 3H30.0017V11.9993H6V3Z" fill="black"/>
<path fill-rule="evenodd" clip-rule="evenodd" d="M6 12H30.0017V20.9993H6V12Z" fill="#007A3D"/>
<path fill-rule="evenodd" clip-rule="evenodd" d="M6 8.24805H30.0017V15.7492H6V8.24805Z" fill="white"/>
<path fill-rule="evenodd" clip-rule="evenodd" d="M6 3L17.9991 11.9993L6 20.9987V3Z" fill="#C4111B"/>
<path d="M23.9982 14.4007C25.324 14.4007 26.3987 13.3259 26.3987 12.0001C26.3987 10.6744 25.324 9.59961 23.9982 9.59961C22.6724 9.59961 21.5977 10.6744 21.5977 12.0001C21.5977 13.3259 22.6724 14.4007 23.9982 14.4007Z" fill="#C4111B"/>
<path d="M24.9005 14.4007C26.2263 14.4007 27.3011 13.3259 27.3011 12.0001C27.3011 10.6744 26.2263 9.59961 24.9005 9.59961C23.5748 9.59961 22.5 10.6744 22.5 12.0001C22.5 13.3259 23.5748 14.4007 24.9005 14.4007Z" fill="white"/>
<path fill-rule="evenodd" clip-rule="evenodd" d="M23.3552 13.4525L24.3809 12.7228L25.3961 13.463L25.0154 12.2645L26.0377 11.5278L24.7793 11.5208L24.3915 10.3223L23.9967 11.5172L22.7383 11.5102L23.75 12.2575L23.3587 13.456L23.3552 13.4525Z" fill="#C4111B"/>
</g>
</g>
<defs>
<filter id="filter0_d_336_33435" x="0" y="-2" width="36" height="36" filterUnits="userSpaceOnUse" color-interpolation-filters="sRGB">
<feFlood flood-opacity="0" result="BackgroundImageFix"/>
<feColorMatrix in="SourceAlpha" type="matrix" values="0 0 0 0 0 0 0 0 0 0 0 0 0 0 0 0 0 0 127 0" result="hardAlpha"/>
<feOffset dy="4"/>
<feGaussianBlur stdDeviation="3"/>
<feComposite in2="hardAlpha" operator="out"/>
<feColorMatrix type="matrix" values="0 0 0 0 0 0 0 0 0 0 0 0 0 0 0 0 0 0 0.16 0"/>
<feBlend mode="normal" in2="BackgroundImageFix" result="effect1_dropShadow_336_33435"/>
<feBlend mode="normal" in="SourceGraphic" in2="effect1_dropShadow_336_33435" result="shape"/>
</filter>
<clipPath id="clip0_336_33435">
<rect width="24" height="18" fill="white" transform="translate(6 3)"/>
</clipPath>
</defs>
</svg>
