<svg width="36" height="31" viewBox="0 0 36 31" fill="none" xmlns="http://www.w3.org/2000/svg">
<g filter="url(#filter0_d_336_28077)">
<g clip-path="url(#clip0_336_28077)">
<path fill-rule="evenodd" clip-rule="evenodd" d="M6 3H30V21H6V3Z" fill="#00ABC2"/>
<path fill-rule="evenodd" clip-rule="evenodd" d="M8.25875 20.5141C8.3825 20.6341 8.34125 20.8328 8.6825 20.8066C9.2 20.8066 9.215 20.4916 9.215 20.2703C9.215 20.0491 8.43875 19.7416 8.40125 19.4153C8.36375 19.0891 8.58125 19.0028 8.76125 19.0028C8.9375 19.0028 9.06125 19.1041 9.06125 19.1941C9.06125 19.2841 8.97875 19.3141 8.85125 19.3141C8.72375 19.3141 8.9075 19.2503 8.79875 19.2016C8.69 19.1528 8.61875 19.2766 8.61875 19.3516C8.61875 19.4341 8.88875 19.4566 9.06875 19.4003C9.10625 19.5766 9.12125 19.5878 8.87 19.8878C9.05 19.7716 9.065 19.7453 9.26375 19.8128C9.065 19.6403 9.215 19.2953 9.21875 19.2091C9.2225 19.1228 9.18125 19.0178 9.10625 18.9653C8.96 18.8341 8.64875 18.8266 8.46125 18.9128C8.1875 19.0328 8.1725 19.3928 8.24375 19.5128L9.00125 20.2778C9.05375 20.3678 9.07625 20.6228 8.75375 20.6341C8.41625 20.6603 8.29625 20.1991 8.23625 20.0453C8.1575 20.2141 8.0675 20.6753 7.72625 20.6491C7.40375 20.6378 7.34375 20.3866 7.39625 20.2928L8.1725 19.5053C8.2475 19.3853 8.2325 19.0253 7.95875 18.9053C7.77125 18.8191 7.46 18.8303 7.3175 18.9578C7.235 19.0103 7.19 19.1116 7.1975 19.2016C7.205 19.2916 7.35125 19.6328 7.15625 19.8016C7.35125 19.7378 7.37 19.7641 7.55 19.8766C7.29875 19.5803 7.3175 19.5691 7.35125 19.3891C7.53125 19.4491 7.80125 19.4266 7.80125 19.3478C7.80125 19.2691 7.72625 19.1378 7.6175 19.1903C7.5125 19.2428 7.6925 19.3066 7.565 19.3066C7.44125 19.3066 7.35125 19.2803 7.35125 19.1941C7.35125 19.1078 7.475 18.9953 7.655 18.9953C7.835 18.9953 8.04875 19.0853 8.01125 19.4116C7.97375 19.7378 7.18625 20.0903 7.18625 20.3116C7.18625 20.5366 7.23875 20.8028 7.75625 20.8028C8.09375 20.8291 8.135 20.6303 8.25875 20.5103V20.5141Z" fill="#FFEC2D"/>
<path fill-rule="evenodd" clip-rule="evenodd" d="M8.21578 15.8749C8.33953 15.7549 8.44078 15.4024 8.77828 15.4249C9.29578 15.4249 9.49078 15.7136 9.49078 15.9349C9.49078 16.1561 8.44078 17.9599 8.40328 18.2861C8.36578 18.6124 8.58328 18.7024 8.75953 18.7024C8.93953 18.7024 9.06328 18.6011 9.06328 18.5074C9.06328 18.4136 8.97328 18.3949 8.84953 18.3949C8.72578 18.3949 8.90203 18.4586 8.79703 18.5074C8.69203 18.5561 8.61703 18.4324 8.61703 18.3536C8.61703 18.2749 8.88703 18.2486 9.06703 18.3086C9.10078 18.1324 9.11578 18.1211 8.86828 17.8211C9.04828 17.9336 9.06328 17.9636 9.26203 17.8961C9.06328 18.0686 9.20953 18.4099 9.21703 18.4961C9.22453 18.5824 9.17953 18.6911 9.10078 18.7436C8.95828 18.8749 8.64328 18.8786 8.45578 18.7961C8.18578 18.6724 8.17078 18.3161 8.24203 18.1961L9.26203 15.9986C9.31828 15.9086 9.17578 15.6086 8.85328 15.5974C8.51578 15.5711 8.39953 15.9274 8.33953 16.0811L8.80078 16.0436C8.80078 16.0436 8.81953 16.1186 8.80078 16.1636C8.64603 16.1749 8.49203 16.1949 8.33953 16.2236L8.32078 16.4561H8.54578L8.53078 16.5611C8.53078 16.5611 8.33953 16.5461 8.32078 16.5611C8.30203 16.5724 8.28328 16.7936 8.28328 16.7936C8.28328 16.7936 8.24578 16.8086 8.20828 16.8086C8.17078 16.8086 8.13328 16.7936 8.13328 16.7936C8.13328 16.7936 8.11828 16.5724 8.09953 16.5611C8.08078 16.5461 7.88953 16.5611 7.88953 16.5611L7.87078 16.4561H8.09953L8.08078 16.2236C8.08078 16.2236 7.85578 16.1786 7.61953 16.1636C7.60453 16.1186 7.61953 16.0474 7.61953 16.0474L8.08078 16.0811C8.02078 15.9274 7.90453 15.5711 7.56703 15.5936C7.24453 15.6086 7.10203 15.9086 7.15453 15.9986L8.17453 18.1961C8.24578 18.3124 8.23078 18.6724 7.96078 18.7961C7.77328 18.8786 7.45828 18.8711 7.31578 18.7436C7.23703 18.6911 7.19203 18.5861 7.19953 18.4999C7.20703 18.4136 7.34953 18.0649 7.15453 17.8999C7.35328 17.9636 7.37203 17.9374 7.54828 17.8211C7.30078 18.1211 7.31578 18.1324 7.35328 18.3086C7.52953 18.2486 7.79953 18.2711 7.79953 18.3536C7.79953 18.4286 7.72453 18.5599 7.61953 18.5074C7.51453 18.4549 7.69453 18.3949 7.56703 18.3949C7.44328 18.3949 7.35328 18.4174 7.35328 18.5074C7.35328 18.5974 7.47703 18.7024 7.65328 18.7024C7.82953 18.7024 8.04703 18.6124 8.01328 18.2899C7.97578 17.9636 6.92578 16.1524 6.92578 15.9349C6.92578 15.7099 7.12078 15.4286 7.63828 15.4286C7.97578 15.4024 8.09953 15.7549 8.21953 15.8749H8.21578Z" fill="#FFEC2D"/>
<path fill-rule="evenodd" clip-rule="evenodd" d="M8.21578 14.9773C8.33953 15.0973 8.44078 15.4498 8.77828 15.4273C9.29578 15.4273 9.49078 15.1386 9.49078 14.9173C9.49078 14.6961 8.44078 12.8923 8.40328 12.5661C8.36578 12.2398 8.58328 12.1498 8.75953 12.1498C8.93953 12.1498 9.06328 12.2511 9.06328 12.3448C9.06328 12.4386 8.97328 12.4573 8.84953 12.4573C8.72578 12.4573 8.90203 12.3973 8.79703 12.3448C8.69203 12.2923 8.61703 12.4198 8.61703 12.4986C8.61703 12.5773 8.88703 12.6036 9.06703 12.5436C9.10078 12.7198 9.11578 12.7311 8.86828 13.0311C9.04828 12.9186 9.06328 12.8886 9.26203 12.9561C9.06328 12.7836 9.20953 12.4423 9.21703 12.3561C9.22453 12.2698 9.17953 12.1611 9.10078 12.1086C8.95828 11.9811 8.64328 11.9736 8.45578 12.0561C8.18578 12.1798 8.17078 12.5361 8.24203 12.6561L9.26203 14.8498C9.31828 14.9398 9.17578 15.2398 8.85328 15.2511C8.51578 15.2773 8.39953 14.9211 8.33953 14.7673L8.80078 14.8048C8.80078 14.8048 8.81953 14.7298 8.80078 14.6848C8.64603 14.6735 8.49203 14.6535 8.33953 14.6248L8.32078 14.3923H8.54578L8.53078 14.2873C8.53078 14.2873 8.33953 14.3023 8.32078 14.2873C8.30203 14.2761 8.28328 14.0548 8.28328 14.0548C8.28328 14.0548 8.24578 14.0398 8.20828 14.0398C8.17078 14.0398 8.13328 14.0548 8.13328 14.0548C8.13328 14.0548 8.11828 14.2761 8.09953 14.2873C8.08078 14.3023 7.88953 14.2873 7.88953 14.2873L7.87078 14.3923H8.09953L8.08078 14.6248C8.08078 14.6248 7.85578 14.6698 7.61953 14.6848C7.60453 14.7298 7.61953 14.8011 7.61953 14.8011L8.08078 14.7673C8.02078 14.9211 7.90453 15.2773 7.56703 15.2548C7.24453 15.2398 7.10203 14.9398 7.15453 14.8498L8.17453 12.6561C8.24578 12.5361 8.23078 12.1798 7.96078 12.0561C7.77328 11.9736 7.45828 11.9811 7.31578 12.1086C7.23703 12.1611 7.19203 12.2661 7.19953 12.3523C7.20703 12.4386 7.34953 12.7836 7.15453 12.9523C7.35328 12.8886 7.37203 12.9148 7.54828 13.0311C7.30078 12.7311 7.31578 12.7198 7.35328 12.5436C7.52953 12.6036 7.79953 12.5811 7.79953 12.4986C7.79953 12.4236 7.72453 12.2923 7.61953 12.3448C7.51453 12.3973 7.69453 12.4573 7.56703 12.4573C7.44328 12.4573 7.35328 12.4348 7.35328 12.3448C7.35328 12.2548 7.47703 12.1498 7.65328 12.1498C7.82953 12.1498 8.04703 12.2398 8.01328 12.5623C7.97578 12.8886 6.92578 14.6998 6.92578 14.9173C6.92578 15.1423 7.12078 15.4236 7.63828 15.4236C7.97578 15.4498 8.09953 15.0973 8.21953 14.9773H8.21578Z" fill="#FFEC2D"/>
<path fill-rule="evenodd" clip-rule="evenodd" d="M8.21578 9.0233C8.33953 8.9033 8.44078 8.5508 8.77828 8.5733C9.29578 8.5733 9.49078 8.86204 9.49078 9.08329C9.49078 9.30454 8.44078 11.1083 8.40328 11.4383C8.36578 11.7608 8.58328 11.8508 8.75953 11.8508C8.93953 11.8508 9.06328 11.7495 9.06328 11.6595C9.06328 11.5695 8.97328 11.5395 8.84953 11.5395C8.72578 11.5395 8.90203 11.607 8.79703 11.6595C8.69203 11.712 8.61703 11.5808 8.61703 11.502C8.61703 11.427 8.88703 11.397 9.06703 11.457C9.10078 11.2808 9.11578 11.2695 8.86828 10.9695C9.04828 11.0858 9.06328 11.112 9.26203 11.0445C9.06328 11.217 9.20953 11.562 9.21703 11.6445C9.22453 11.727 9.17953 11.8395 9.10078 11.892C8.95828 12.0233 8.64328 12.027 8.45578 11.9445C8.18578 11.8208 8.17078 11.4645 8.24203 11.3445L9.26203 9.15079C9.31828 9.06079 9.17578 8.7608 8.85328 8.74955C8.51578 8.7233 8.39953 9.07954 8.33953 9.23329L8.80078 9.19579C8.80078 9.19579 8.81953 9.27079 8.80078 9.31579C8.56078 9.33079 8.33953 9.37579 8.33953 9.37579L8.32078 9.60829H8.54578L8.53078 9.71329C8.53078 9.71329 8.33953 9.70204 8.32078 9.71329C8.30203 9.72454 8.28328 9.94955 8.28328 9.94955C8.28328 9.94955 8.24578 9.9608 8.20828 9.9608C8.17078 9.9608 8.13328 9.94955 8.13328 9.94955C8.13328 9.94955 8.11828 9.72454 8.09953 9.71329C8.08078 9.70204 7.88953 9.71329 7.88953 9.71329L7.87078 9.60829H8.09953L8.08078 9.37579C8.08078 9.37579 7.85578 9.33079 7.61953 9.31579C7.60453 9.27079 7.61953 9.19955 7.61953 9.19955L8.08078 9.23329C8.02078 9.07954 7.90453 8.72329 7.56703 8.74579C7.24453 8.76079 7.10203 9.06079 7.15453 9.15079L8.17453 11.3445C8.24578 11.4645 8.23078 11.8208 7.96078 11.9445C7.77328 12.027 7.45828 12.0195 7.31578 11.892C7.23703 11.8395 7.19203 11.7345 7.19953 11.6483C7.20703 11.562 7.34953 11.217 7.15453 11.0483C7.35328 11.112 7.37203 11.0858 7.54828 10.9695C7.30078 11.2695 7.31578 11.2808 7.35328 11.457C7.52953 11.397 7.79953 11.4233 7.79953 11.502C7.79953 11.577 7.72453 11.7083 7.61953 11.6558C7.51453 11.607 7.69453 11.5433 7.56703 11.5433C7.44328 11.5433 7.35328 11.5658 7.35328 11.6558C7.35328 11.7458 7.47703 11.8508 7.65328 11.8508C7.82953 11.8508 8.04703 11.7608 8.01328 11.4383C7.97578 11.112 6.92578 9.30454 6.92578 9.08329C6.92578 8.86204 7.12078 8.57704 7.63828 8.57704C7.97578 8.55079 8.09953 8.90329 8.21953 9.02704L8.21578 9.0233Z" fill="#FFEC2D"/>
<path fill-rule="evenodd" clip-rule="evenodd" d="M8.21578 8.12771C8.33953 8.24771 8.44078 8.60396 8.77828 8.57771C9.29578 8.57771 9.49078 8.28896 9.49078 8.06771C9.49078 7.84646 8.44078 6.04271 8.40328 5.71646C8.36578 5.39021 8.58328 5.30021 8.75953 5.30021C8.93953 5.30021 9.06328 5.40521 9.06328 5.49521C9.06328 5.58521 8.97328 5.61146 8.84953 5.61146C8.72578 5.61146 8.90203 5.54771 8.79703 5.49521C8.69203 5.44271 8.61703 5.57021 8.61703 5.64896C8.61703 5.72771 8.88703 5.75396 9.06703 5.69396C9.10078 5.87021 9.11578 5.88146 8.86828 6.18146C9.04828 6.06896 9.06328 6.03896 9.26203 6.10646C9.06328 5.93771 9.20953 5.59271 9.21703 5.50646C9.22453 5.42021 9.17953 5.31146 9.10078 5.25896C8.95828 5.13146 8.64328 5.12396 8.45578 5.21021C8.18578 5.33021 8.17078 5.69021 8.24203 5.80646L9.26203 8.00396C9.31828 8.09396 9.17578 8.39396 8.85328 8.40896C8.51578 8.43146 8.39953 8.07896 8.33953 7.92146L8.80078 7.95896C8.80078 7.95896 8.81953 7.88396 8.80078 7.83896C8.64611 7.82878 8.49212 7.81 8.33953 7.78271L8.32078 7.54646H8.54578L8.53078 7.44146C8.53078 7.44146 8.33953 7.45646 8.32078 7.44146C8.30203 7.43021 8.28328 7.20896 8.28328 7.20896C8.28328 7.20896 8.24578 7.19396 8.20828 7.19396C8.17078 7.19396 8.13328 7.20896 8.13328 7.20896C8.13328 7.20896 8.11828 7.43021 8.09953 7.44146C8.08078 7.45646 7.88953 7.44146 7.88953 7.44146L7.87078 7.54646H8.09953L8.08078 7.78271C8.08078 7.78271 7.85578 7.82396 7.61953 7.83896C7.60453 7.88771 7.61953 7.95896 7.61953 7.95896L8.08078 7.92146C8.02078 8.07896 7.90453 8.43146 7.56703 8.40896C7.24453 8.39396 7.10203 8.09396 7.15453 8.00396L8.17453 5.80646C8.24578 5.69021 8.23078 5.33021 7.96078 5.20646C7.77328 5.12396 7.45828 5.13146 7.31578 5.25896C7.23703 5.31146 7.19203 5.41646 7.19953 5.50271C7.20703 5.58896 7.34953 5.93771 7.15453 6.10271C7.35328 6.03896 7.37203 6.06521 7.54828 6.18146C7.30078 5.88146 7.31578 5.87021 7.35328 5.69396C7.53328 5.75396 7.79953 5.73146 7.79953 5.64896C7.79953 5.57396 7.72453 5.44271 7.61953 5.49521C7.51453 5.54771 7.69453 5.61146 7.56703 5.61146C7.44328 5.61146 7.35328 5.58521 7.35328 5.49521C7.35328 5.40521 7.47703 5.30021 7.65328 5.30021C7.82953 5.30021 8.05078 5.39021 8.01328 5.71271C7.97578 6.03896 6.92578 7.85021 6.92578 8.06771C6.92578 8.29271 7.12078 8.57771 7.63828 8.57771C7.97578 8.60396 8.09953 8.24771 8.21953 8.12771H8.21578Z" fill="#FFEC2D"/>
<path fill-rule="evenodd" clip-rule="evenodd" d="M8.25875 3.48822C8.3825 3.36822 8.34125 3.16947 8.6825 3.19572C9.2 3.19572 9.215 3.51072 9.215 3.73197C9.215 3.95322 8.43875 4.26072 8.40125 4.58697C8.36375 4.91322 8.58125 4.99947 8.76125 4.99947C8.9375 4.99947 9.06125 4.89822 9.06125 4.80822C9.06125 4.71822 8.97875 4.68822 8.85125 4.68822C8.72375 4.68822 8.9075 4.75197 8.79875 4.80072C8.69 4.84947 8.61875 4.72572 8.61875 4.65072C8.61875 4.56822 8.88875 4.54197 9.06875 4.60197C9.10625 4.42572 9.12125 4.41447 8.87 4.11447C9.05 4.23072 9.065 4.25697 9.26375 4.18947C9.065 4.36197 9.215 4.70697 9.21875 4.79322C9.2225 4.87947 9.18125 4.98447 9.10625 5.03697C8.95625 5.17572 8.645 5.17572 8.4575 5.09322C8.18375 4.97322 8.16875 4.61322 8.24 4.49322L9.00125 3.72447C9.05375 3.63447 9.07625 3.37947 8.75375 3.36822C8.41625 3.34197 8.29625 3.80322 8.23625 3.95697C8.1575 3.78822 8.0675 3.32322 7.72625 3.34947C7.40375 3.36072 7.34375 3.61197 7.39625 3.70572L8.1725 4.49322C8.2475 4.61322 8.2325 4.97322 7.95875 5.09322C7.77125 5.17947 7.46 5.17197 7.3175 5.04072C7.235 4.98822 7.19 4.88697 7.1975 4.79697C7.205 4.70697 7.35125 4.36572 7.15625 4.19697C7.35125 4.26072 7.37 4.23447 7.54625 4.12197C7.29875 4.41822 7.3175 4.42947 7.35125 4.60947C7.53125 4.54947 7.80125 4.57197 7.80125 4.65072C7.80125 4.72947 7.72625 4.86072 7.6175 4.80822C7.5125 4.75572 7.6925 4.69197 7.565 4.69197C7.44125 4.69197 7.35125 4.71822 7.35125 4.80447C7.35125 4.89072 7.475 5.00322 7.655 5.00322C7.835 5.00322 8.04875 4.91322 8.01125 4.58697C7.97375 4.26072 7.18625 3.90822 7.18625 3.68697C7.18625 3.46197 7.23875 3.19572 7.75625 3.19572C8.09375 3.16947 8.135 3.36822 8.25875 3.48822V3.48822Z" fill="#FFEC2D"/>
<path d="M22.5542 10.7221C22.5542 8.93933 21.0293 7.49414 19.1482 7.49414C17.2671 7.49414 15.7422 8.93933 15.7422 10.7221C15.7422 12.5048 17.2671 13.95 19.1482 13.95C21.0293 13.95 22.5542 12.5048 22.5542 10.7221Z" fill="#FFEC2D"/>
<path fill-rule="evenodd" clip-rule="evenodd" d="M18.991 5.56846C18.959 5.56846 18.8069 6.64109 18.7509 6.88123C18.6948 7.42156 19.4713 7.40154 19.3432 6.86122L18.991 5.56445V5.56846ZM19.2632 15.9666C19.2912 15.9666 19.5233 14.906 19.5994 14.6699C19.6914 14.1375 18.915 14.1095 18.999 14.6538L19.2632 15.9666V15.9666ZM13.8359 10.6995C13.8359 10.7275 14.9526 10.9516 15.2007 11.0237C15.7611 11.1157 15.8011 10.3833 15.2248 10.4634L13.8359 10.7035V10.6995ZM24.7104 10.8276C24.7104 10.7996 23.5817 10.6155 23.3296 10.5514C22.7652 10.4834 22.7612 11.2158 23.3296 11.1157L24.7104 10.8276ZM14.9806 7.29748C14.9606 7.31749 15.697 8.14999 15.8451 8.35411C16.2294 8.75435 16.7377 8.19401 16.2294 7.92185L14.9806 7.30148V7.29748ZM23.4296 14.1415C23.4496 14.1215 22.6412 13.3531 22.4731 13.165C22.0528 12.7967 21.6005 13.3931 22.1289 13.6252L23.4296 14.1455V14.1415ZM16.6656 6.13679C16.6416 6.1488 16.9858 7.18141 17.0418 7.42556C17.234 7.93386 17.9304 7.60166 17.5702 7.1654L16.6696 6.13679H16.6656ZM21.5925 15.4383C21.6206 15.4263 21.3524 14.3737 21.3164 14.1295C21.1603 13.6092 20.4439 13.8894 20.7681 14.3537L21.5965 15.4343L21.5925 15.4383ZM22.8053 6.85722C22.7812 6.83721 21.8927 7.52161 21.6766 7.6577C21.2483 8.01791 21.8287 8.5062 22.1249 8.02992L22.8053 6.85722ZM15.4809 14.6098C15.5009 14.6298 16.4415 14.0095 16.6656 13.8854C17.1179 13.5572 16.5776 13.0289 16.2454 13.4852L15.4849 14.6098H15.4809ZM14.0801 8.8424C14.0681 8.86641 15.0407 9.43075 15.2528 9.57884C15.7531 9.83899 16.0452 9.15859 15.4729 9.05052L14.0801 8.8424V8.8424ZM24.2341 12.7807C24.2461 12.7567 23.3136 12.1283 23.1134 11.9683C22.6332 11.6721 22.293 12.3325 22.8573 12.4766L24.2341 12.7807V12.7807ZM21.0082 5.86063C20.9802 5.85262 20.4238 6.79718 20.2758 7.00131C20.276 7.06649 20.2967 7.12995 20.3349 7.18279C20.373 7.23563 20.4268 7.2752 20.4886 7.29595C20.5504 7.31669 20.6171 7.31757 20.6794 7.29847C20.7418 7.27936 20.7965 7.24123 20.8361 7.18942L21.0082 5.86063ZM17.25 15.6384C17.278 15.6504 17.9023 14.7419 18.0624 14.5458C18.3546 14.0815 17.6462 13.7853 17.5141 14.3217L17.25 15.6384V15.6384ZM14.1481 12.8648C14.1601 12.8888 15.2688 12.6246 15.5289 12.5846C16.0733 12.4325 15.7691 11.7601 15.2888 12.0723L14.1481 12.8648ZM24.2381 8.75435C24.2301 8.73033 23.1054 8.91844 22.8453 8.94246C22.285 9.05853 22.5451 9.75094 23.0454 9.47077L24.2381 8.75435V8.75435Z" fill="#FFEC2D"/>
<path fill-rule="evenodd" clip-rule="evenodd" d="M20.0932 5.63681C20.0652 5.63281 19.6889 6.65342 19.5769 6.87755C19.4128 7.39786 20.1772 7.52594 20.1652 6.97361L20.0972 5.63281L20.0932 5.63681ZM18.152 15.8789C18.1801 15.8869 18.6323 14.8903 18.7604 14.6702C18.9605 14.1659 18.2081 13.9898 18.1801 14.5381L18.148 15.8789H18.152ZM17.7638 5.73687C17.7358 5.74488 17.8398 6.82552 17.8398 7.07367C17.9159 7.60598 18.6643 7.42187 18.4162 6.92558L17.7638 5.73687V5.73687ZM20.4854 15.8189C20.5134 15.8149 20.4854 14.7302 20.5054 14.4821C20.4694 13.9417 19.705 14.0778 19.9211 14.5901L20.4814 15.8189H20.4854ZM15.8347 6.63341C15.8106 6.64942 16.343 7.60598 16.443 7.83412C16.7312 8.3024 17.3516 7.86214 16.9153 7.48991L15.8347 6.63341ZM22.4306 14.9543C22.4546 14.9383 21.9903 13.9457 21.9103 13.7136C21.6581 13.2293 21.0097 13.6296 21.414 14.0258L22.4306 14.9543ZM14.4258 7.9782C14.4098 8.00222 15.2703 8.71464 15.4504 8.89875C15.8947 9.23495 16.3069 8.61058 15.7626 8.41446L14.4258 7.9782ZM23.7994 13.5695C23.8154 13.5455 23.0109 12.7771 22.8428 12.5849C22.4266 12.2207 21.9703 12.8171 22.4986 13.0492L23.7994 13.5695ZM13.8095 9.6552C13.8015 9.68322 14.8621 10.0875 15.0942 10.2035C15.6305 10.3836 15.8026 9.66721 15.2183 9.6512L13.8095 9.6552V9.6552ZM24.5118 11.9686C24.5238 11.9446 23.4952 11.4723 23.2711 11.3402C22.7508 11.1241 22.5226 11.8285 23.103 11.8845L24.5118 11.9686ZM13.7734 11.7164C13.7774 11.7404 14.9221 11.7244 15.1823 11.7444C15.7506 11.7164 15.6145 10.992 15.0702 11.1881L13.7734 11.7164ZM24.5879 9.91535C24.5879 9.88734 23.4432 9.8273 23.187 9.79128C22.6147 9.78328 22.6987 10.5157 23.2551 10.3516L24.5879 9.91135V9.91535ZM14.754 13.8537C14.77 13.8777 15.7946 13.3894 16.0348 13.2974C16.5311 13.0372 16.0748 12.4409 15.6786 12.8451L14.754 13.8537ZM23.6513 7.75807C23.6353 7.73406 22.5827 8.15431 22.3305 8.23035C21.8142 8.45849 22.2265 9.08286 22.6507 8.70664L23.6513 7.75807V7.75807ZM16.419 15.2705C16.443 15.2825 17.1755 14.45 17.3596 14.2739C17.7078 13.8457 17.0394 13.4735 16.8433 13.9938L16.419 15.2705ZM22.0103 6.31322C21.9903 6.29721 21.1978 7.07767 21.0017 7.24177C20.6255 7.64601 21.2659 8.06225 21.498 7.55795L22.0063 6.31322H22.0103Z" fill="#FFEC2D"/>
<path fill-rule="evenodd" clip-rule="evenodd" d="M13.9416 12.8678C14.0028 13.0742 14.0115 14.2302 15.2431 15.3448C16.466 16.4512 18.5623 16.6988 18.5623 16.6988C18.5623 16.6988 18.5711 16.8557 18.4226 16.864C18.2741 16.8805 17.5578 16.7401 17.1997 16.6328C16.8503 16.5337 16.5359 16.3521 16.5009 16.3603C16.4572 16.3768 16.3874 16.4924 16.2826 16.4759C16.1777 16.4594 15.6711 15.964 15.444 15.8319C14.9898 15.4608 14.5876 15.0363 14.2473 14.5687C14.0028 14.1971 13.9416 13.9494 13.863 13.9494C13.7844 13.9494 13.4962 14.1311 13.4962 14.1311C13.4962 14.1311 13.2341 13.7595 13.007 13.1651C12.7712 12.5706 12.7974 12.2238 12.8498 12.1991C12.9109 12.1743 12.9109 12.6367 13.0856 13.0577C13.2603 13.4871 13.5049 13.6192 13.5049 13.6192C13.5049 13.6192 13.3477 13.3963 13.2254 12.8431C13.1031 12.2899 13.0507 11.7532 13.138 11.5881C13.2254 11.4229 13.304 11.3734 13.3127 11.3817C13.3302 11.3982 13.1642 11.6376 13.2778 12.2734C13.3913 12.9091 13.6971 13.4458 13.7669 13.421C13.8368 13.3963 13.7233 13.2641 13.6796 12.8926C13.6359 12.5211 13.7233 12.2899 13.8193 12.2569C13.863 12.2238 13.9329 12.6697 13.9416 12.8678V12.8678ZM13.0856 13.9247C12.8498 13.7183 12.4829 12.9999 12.4043 13.033C12.317 13.0742 12.9983 14.1063 13.0157 14.1889C13.0332 14.288 13.1817 14.5687 13.0682 14.5274C12.9546 14.4861 12.1423 13.677 12.2383 13.8338C12.3344 13.9907 12.9459 14.7008 12.9109 14.7421C12.876 14.7833 12.4043 14.3457 12.3868 14.4035C12.3781 14.4531 12.8498 14.8824 12.841 14.932C12.8323 14.9815 12.5353 14.6595 12.5353 14.7255C12.5353 14.7916 12.841 15.1136 12.841 15.1631C12.841 15.2127 12.579 14.932 12.6664 15.0806C12.745 15.2457 12.9721 15.3861 12.9633 15.4356C12.9546 15.4851 12.7712 15.3696 12.7712 15.3943C12.7712 15.4191 13.1118 15.5347 13.1904 15.6255C13.2778 15.7163 13.8368 16.3273 14.2561 16.6328C14.6754 16.9383 15.8807 17.475 15.9681 17.475C16.0467 17.475 16.169 17.3098 16.1428 17.2438C16.1166 17.1777 14.9374 16.7979 14.6142 16.5172C14.2823 16.2365 13.4787 15.5595 13.4088 15.5264C13.3477 15.4851 13.1642 15.5017 13.1642 15.4604C13.1642 15.4191 13.4001 15.4851 13.3826 15.4604C13.3739 15.4356 13.0594 15.3035 13.0682 15.2787C13.0856 15.254 13.2865 15.3283 13.2865 15.3035C13.2865 15.2787 12.9197 15.0888 12.9371 15.0475C12.9459 15.0063 13.2079 15.1631 13.2079 15.1301C13.2079 15.1136 12.8585 14.8824 12.8672 14.8411C12.876 14.7999 13.138 15.0228 13.1293 14.9732C13.1206 14.9237 12.9197 14.643 12.9197 14.61C12.9197 14.5687 13.2341 14.8907 13.2691 14.8246C13.2865 14.7668 13.1555 14.2302 13.1642 14.2219C13.173 14.2136 13.4001 14.3375 13.435 14.2632C13.4787 14.1806 13.2778 14.0733 13.0856 13.9247V13.9247ZM17.1124 17.9869C16.9464 18.0116 16.8678 17.9538 16.9639 17.8217C17.0949 17.8217 17.4443 17.7144 17.5666 17.6649C17.6889 17.6153 17.8199 17.5493 17.9247 17.4584C18.0295 17.3511 18.0994 17.5162 18.0382 17.6071C17.9946 17.6649 17.7937 17.7722 17.6452 17.83C17.4268 17.896 17.2346 17.9951 17.1124 17.9869ZM18.2042 17.5658C18.0907 17.4502 18.1867 17.3676 18.3527 17.2768C18.5973 17.153 18.5274 16.9796 18.8418 16.8392C18.9816 16.7566 20.9382 16.0136 21.5758 15.6172C22.2135 15.2209 24.0041 13.9412 24.4845 13.0577C24.9562 12.1825 24.7291 12.1165 24.799 12.0835C24.8601 12.0422 24.93 12.2073 24.9213 12.4055C24.9038 12.5954 24.7466 13.1733 24.799 13.2311C24.8514 13.2889 25.5152 12.777 25.7947 12.1578C26.0742 11.5385 26.2839 10.8945 26.4149 10.8945C26.5547 10.8945 26.1878 11.9514 25.952 12.3642C25.7249 12.777 25.4541 12.9834 25.5152 13.0742C25.5851 13.1568 26.2664 12.6201 26.5022 12.2238C26.7294 11.8193 26.9477 11.4642 26.9914 11.5385C26.9219 12.0222 26.7202 12.4804 26.4062 12.8678C26.0393 13.2641 25.6026 13.5531 25.6724 13.6109C25.7336 13.677 26.2315 13.743 26.7468 13.4128C27.2709 13.0742 27.3233 12.5871 27.3845 12.6119C27.4543 12.6367 27.3233 13.3054 26.8254 13.7183C26.3276 14.1311 25.6724 14.1724 25.6899 14.2632C25.7249 14.3457 27.1137 13.8834 27.0875 13.9907C27.0613 14.0898 25.2881 14.7503 25.2706 14.8164C25.2706 14.8659 25.5764 14.8824 26.0568 14.7751C26.5285 14.676 26.9827 14.321 27.0438 14.4035C27.0613 14.5191 26.7031 14.7999 26.1616 14.932C25.6113 15.0641 25.3405 15.2375 25.3231 15.2787C25.3143 15.32 26.3013 15.1631 26.3013 15.2127C26.3013 15.2622 25.0086 15.5017 24.9999 15.5677C24.9824 15.6255 26.2227 15.3283 26.2053 15.4026C26.1703 15.4604 24.5195 15.9227 24.5369 15.9475C24.5457 15.9805 25.917 15.6668 25.8908 15.7163C25.8559 15.7741 23.5848 16.3768 23.5674 16.4181C23.5499 16.4512 25.5764 15.9888 25.5589 16.0301C25.5414 16.0714 24.5107 16.3108 24.5107 16.3356C24.5107 16.3603 25.3405 16.2117 25.3231 16.253C25.3143 16.286 23.2267 16.7897 23.183 16.864C23.1394 16.9465 24.2661 16.6576 24.2487 16.8062C24.2312 16.9548 21.8291 17.7144 21.8204 17.574C21.8029 17.4337 23.2791 17.0786 23.2704 17.0374C23.2529 16.9961 22.4231 17.1199 22.4056 17.0456C22.3969 16.9631 22.9559 16.7979 22.9123 16.7649C22.8686 16.7236 22.4493 16.8805 22.4842 16.7897C22.5279 16.6988 23.3228 16.3521 23.3053 16.3273C23.2966 16.3025 23.0171 16.4099 23.0433 16.3273C23.0782 16.2365 24.764 15.7741 24.7378 15.7163C24.7116 15.6668 23.9604 15.8319 23.8905 15.8484C23.8643 15.7989 24.9387 15.4191 24.9213 15.353C24.8863 15.2952 24.3448 15.576 24.3098 15.5017C24.2923 15.4191 25.2619 15.0641 25.2008 15.0063C25.1396 14.9485 24.7029 15.1549 24.6417 15.0971C24.5806 15.0393 25.5589 14.4035 25.4104 14.387C25.2619 14.3788 25.0785 14.5852 25.061 14.4531C25.0785 14.288 25.8209 14.0155 25.655 13.8834C25.3929 13.8091 24.5107 13.9412 24.1439 14.1476C23.777 14.354 22.5541 15.5017 22.2571 15.6833C21.9602 15.8567 20.9469 16.2613 20.7548 16.3438C20.4578 16.4429 20.4054 16.5915 20.0997 16.7401C19.5494 16.8805 19.5581 17.0374 19.2961 17.1282C19.2 17.153 18.2129 17.5988 18.2042 17.5658V17.5658ZM16.8241 18.1437C16.6581 18.2263 16.5097 18.4245 16.6057 18.507C16.6581 18.6061 16.8241 18.2841 16.9551 18.3006L17.6539 18.3336C18.0295 18.3584 18.2129 18.2593 18.4226 18.2758C18.6322 18.2924 19.0952 18.1685 19.3135 18.1685C19.5319 18.1685 19.5756 18.1933 19.593 18.1025C19.6192 18.0199 18.9117 18.0777 18.5973 18.0694C18.2828 18.0529 17.8898 18.1272 17.6539 18.1272C17.4355 18.119 17.0599 18.0529 16.8241 18.1437V18.1437Z" fill="#FFEC2D"/>
<path d="M17.8712 18.0438C17.8712 17.9754 17.8047 17.9199 17.7227 17.9199C17.6407 17.9199 17.5742 17.9754 17.5742 18.0438C17.5742 18.1122 17.6407 18.1676 17.7227 18.1676C17.8047 18.1676 17.8712 18.1122 17.8712 18.0438Z" fill="#FFEC2D"/>
<path fill-rule="evenodd" clip-rule="evenodd" d="M21.3594 17.8058C21.5079 17.781 21.9097 17.9131 22.1892 17.9709C22.6958 18.1608 23.6392 18.07 23.6392 18.1608C23.6392 18.2516 23.578 18.359 23.3596 18.3755C23.1413 18.392 22.591 18.2929 22.6084 18.2929C22.6259 18.2929 23.0452 18.4828 22.9229 18.5324C22.8006 18.5819 22.4425 18.425 22.3813 18.4663C22.3202 18.5076 22.7133 18.5819 22.6434 18.6067C22.591 18.6314 22.3202 18.5736 22.2329 18.5819C22.1455 18.5984 22.3027 18.6892 22.1979 18.7223C22.0931 18.7635 21.9184 18.6727 21.8485 18.6975C21.7699 18.7223 22.0057 18.8626 21.9009 18.8791C21.7961 18.8957 21.5515 18.8131 21.4118 18.7966C21.272 18.7966 21.5428 18.9287 21.4555 18.9452C21.3681 18.9534 21.1235 18.8379 21.0624 18.8379C21.0012 18.8379 21.0624 19.003 20.975 19.003C20.8877 19.003 20.7829 18.8626 20.7305 18.8626C20.6781 18.8626 20.7305 19.0278 20.6431 19.0278C20.5558 19.0278 20.5208 18.8544 20.451 18.8626C20.3636 18.8791 20.451 19.0855 20.3287 19.069C20.2151 19.0608 20.1976 18.8544 20.1016 18.8626C20.0142 18.8791 20.119 19.069 20.0317 19.069C19.9443 19.069 19.9269 18.8791 19.8395 18.8626C19.7522 18.8544 19.7871 19.0443 19.7347 19.0443C19.6823 19.0443 19.6299 18.8626 19.5949 18.8626C19.5687 18.8626 19.5949 19.0443 19.4901 19.0278C19.3853 19.0112 19.3853 18.8296 19.3591 18.8379C19.3242 18.8544 19.3242 18.9865 19.2543 18.9865C19.1844 18.9865 19.1757 18.8544 19.1495 18.8709C19.1145 18.8791 19.0097 19.0443 18.9398 19.0195C18.8612 18.9947 18.9573 18.8626 18.9224 18.8626C18.8874 18.8626 18.8001 18.9534 18.7477 18.9452C18.6953 18.9369 18.7477 18.8296 18.7302 18.8296C18.7127 18.8296 18.5817 18.8956 18.5206 18.8956C18.4594 18.8956 18.2935 18.9782 18.2498 18.9039C18.2061 18.8213 18.3633 18.8213 18.3983 18.747C18.4245 18.6727 18.3109 18.4498 18.4332 18.3755C18.5468 18.2929 18.9224 18.4828 19.4814 18.3507C20.4946 18.0948 21.2808 17.7975 21.3594 17.8058V17.8058Z" fill="#FFEC2D"/>
</g>
</g>
<defs>
<filter id="filter0_d_336_28077" x="0" y="-2" width="36" height="36" filterUnits="userSpaceOnUse" color-interpolation-filters="sRGB">
<feFlood flood-opacity="0" result="BackgroundImageFix"/>
<feColorMatrix in="SourceAlpha" type="matrix" values="0 0 0 0 0 0 0 0 0 0 0 0 0 0 0 0 0 0 127 0" result="hardAlpha"/>
<feOffset dy="4"/>
<feGaussianBlur stdDeviation="3"/>
<feComposite in2="hardAlpha" operator="out"/>
<feColorMatrix type="matrix" values="0 0 0 0 0 0 0 0 0 0 0 0 0 0 0 0 0 0 0.16 0"/>
<feBlend mode="normal" in2="BackgroundImageFix" result="effect1_dropShadow_336_28077"/>
<feBlend mode="normal" in="SourceGraphic" in2="effect1_dropShadow_336_28077" result="shape"/>
</filter>
<clipPath id="clip0_336_28077">
<rect width="24" height="18" fill="white" transform="translate(6 3)"/>
</clipPath>
</defs>
</svg>
