<svg width="36" height="31" viewBox="0 0 36 31" fill="none" xmlns="http://www.w3.org/2000/svg">
<g filter="url(#filter0_d_336_29844)">
<g clip-path="url(#clip0_336_29844)">
<path d="M6 3H30V21H6V3Z" fill="#00247D"/>
<path d="M6 3H18V12H6V3Z" fill="#012169"/>
<path d="M7.40625 3L11.9813 6.39375L16.5375 3H18V4.1625L13.5 7.51875L18 10.8563V12H16.5L12 8.64375L7.51875 12H6V10.875L10.4813 7.5375L6 4.2V3H7.40625Z" fill="white"/>
<path d="M13.95 8.26875L18 11.25V12L12.9188 8.26875H13.95ZM10.5 8.64375L10.6125 9.3L7.0125 12H6L10.5 8.64375ZM18 3V3.05625L13.3313 6.58125L13.3688 5.75625L17.0625 3H18ZM6 3L10.4813 6.3H9.35625L6 3.7875V3Z" fill="#C8102E"/>
<path d="M10.5188 3V12H13.5188V3H10.5188ZM6 6V9H18V6H6Z" fill="white"/>
<path d="M6 6.61875V8.41875H18V6.61875H6ZM11.1188 3V12H12.9188V3H11.1188Z" fill="#C8102E"/>
<path d="M21.3775 12.4614C21.0396 12.7284 20.791 13.0921 20.665 13.5039C20.4512 14.5277 20.1662 14.7564 19.7275 14.5352C19.7275 15.0864 20.2112 15.1277 20.4212 14.8089C20.4212 15.3227 20.6087 15.7689 21.0287 16.1514C21.2087 16.3127 21.2425 16.2039 21.1563 16.0239C21.0738 15.8477 21.0737 15.2739 20.905 14.9439C21.175 15.1352 21.5725 15.0264 21.5425 14.4939C21.1937 14.6964 20.8487 14.6889 20.8112 14.2052C20.77 13.6427 20.9875 12.8177 21.3775 12.4614V12.4614ZM20.965 8.38891C20.9912 8.18266 20.9462 7.97641 20.7962 7.84516C20.5112 7.59391 20.23 7.67641 20.02 7.88266C19.7087 7.71016 19.54 8.31016 19.1875 8.20891C19.2438 8.40391 19.3375 8.48641 19.5175 8.41891C19.33 8.58766 19.5175 8.79391 19.2962 8.99641C19.6937 9.12391 19.9037 8.90266 19.8887 8.52016C19.924 8.55264 19.9653 8.57775 20.0104 8.59404C20.0554 8.61033 20.1033 8.61746 20.1511 8.61502C20.199 8.61257 20.2459 8.6006 20.289 8.5798C20.3322 8.55901 20.3708 8.52981 20.4025 8.49391C20.1925 8.42641 20.1925 8.24266 20.275 8.07391C20.4025 7.81891 20.9987 7.83016 20.965 8.38891V8.38891Z" fill="#F7E017" stroke="black" stroke-width="0.0333333"/>
<path d="M21.8835 11.3284C21.4335 11.5684 20.616 11.4671 20.5372 10.8784C20.4622 10.2971 21.0285 10.0346 21.1822 9.95965C21.4185 9.83965 21.606 10.0534 21.5272 10.2971C21.7897 10.2071 21.8497 9.89965 21.7222 9.7234C22.071 9.74965 22.3897 9.48715 22.5247 9.1159C22.4047 9.2284 22.0747 9.1534 21.801 9.13465C21.8835 9.0409 21.8835 8.8609 21.8572 8.76715C21.5722 9.0634 21.156 8.9284 20.6085 9.77965C20.7371 9.31818 20.8572 8.85435 20.9685 8.3884C20.9985 7.8259 20.406 7.8184 20.2785 8.0734C20.4172 8.2309 20.3422 8.4109 20.2935 8.69215C20.2335 9.0184 20.106 9.77965 19.9972 10.0346C19.9635 9.63715 19.701 9.6109 19.6522 9.4159C19.5772 9.4684 19.5322 9.6034 19.551 9.69715C19.4572 9.5959 19.1347 9.7234 19.0147 9.56965C18.891 9.8209 19.0897 10.0759 19.3035 10.1884C19.1797 10.1959 19.1535 10.3421 19.0147 10.3421C19.1985 10.5559 19.386 10.6421 19.5997 10.6571C19.8172 10.6721 19.9747 10.7546 20.106 11.0171C20.3197 11.4409 21.126 11.7146 21.8835 11.3284V11.3284Z" fill="#337321" stroke="black" stroke-width="0.0333333"/>
<path d="M23.0037 10.8152C22.7487 11.5165 22.0549 12.0152 21.7437 12.0902C21.2112 12.2215 20.1237 12.7502 19.8312 13.0202C19.7884 13.0119 19.7476 12.9953 19.7112 12.9715C19.5687 12.8702 19.4487 12.5402 19.7037 12.259C20.4987 11.5165 21.3537 11.839 21.8862 11.329C21.4362 11.5652 20.6187 11.464 20.5437 10.879C20.9074 10.9735 21.2899 10.9669 21.6501 10.8598C22.0103 10.7527 22.3344 10.5493 22.5874 10.2715C22.7415 10.4395 22.8796 10.6215 22.9999 10.8152H23.0037Z" fill="#F7E017" stroke="black" stroke-width="0.0333333"/>
<path d="M21.38 12.4621C20.9788 12.7996 20.7725 13.6396 20.8138 14.2059C20.825 14.3634 20.87 14.4684 20.9375 14.5359C20.9675 14.2134 21.1888 13.3846 21.7625 13.0134C22.2425 12.7021 22.9963 12.0009 23.2738 11.1946C23.2202 11.0475 23.1149 10.9248 22.9775 10.8496C22.7 11.6071 21.9613 11.9709 21.38 12.4621Z" fill="#337321" stroke="black" stroke-width="0.0333333"/>
<path d="M22.7441 10.4891C22.5446 10.7662 22.2738 10.9839 21.9603 11.1191C22.0195 11.0472 22.0525 10.9573 22.0541 10.8641C21.5598 11.0053 21.0367 11.0118 20.5391 10.8829C20.9033 10.9781 21.2866 10.9719 21.6476 10.8648C22.0085 10.7577 22.3332 10.5539 22.5866 10.2754C22.6508 10.3372 22.704 10.4095 22.7441 10.4891V10.4891Z" fill="#316D3A" stroke="black" stroke-width="0.0333333"/>
<path d="M19.7024 12.2616C19.0574 12.8616 19.4849 13.3941 19.7399 13.5103C19.6687 13.9341 20.0662 13.8853 20.0587 14.2378C20.2199 14.1478 20.2612 13.9003 20.2349 13.7053C20.4412 13.9266 20.9549 13.6791 21.0637 14.0878C21.1349 13.6378 20.7862 13.1878 20.3549 13.2328C20.5349 13.0716 20.4299 12.8091 20.2612 12.7416C20.2274 13.0716 19.8562 13.0716 19.7137 12.9666C19.5674 12.8691 19.4512 12.5391 19.7024 12.2578V12.2616Z" fill="#337321" stroke="black" stroke-width="0.0333333"/>
<path d="M21.1025 16.1095C21.035 16.147 21.0388 16.2408 21.0838 16.297C21.17 16.417 21.02 16.687 21.3088 16.7433C21.3913 16.762 21.4588 16.7058 21.4888 16.612C21.5788 16.3458 21.2938 16.3158 21.2675 16.1883C21.245 16.0608 21.1625 16.0758 21.1025 16.1095V16.1095Z" fill="#F7E017" stroke="black" stroke-width="0.0333333"/>
<path d="M21.3453 16.6096C21.2516 16.6546 21.1653 16.7146 21.2066 17.0221C21.2216 17.1459 21.2141 17.4496 21.1016 17.4534C21.1691 17.4909 21.3153 17.5284 21.3753 17.4459C21.4316 17.5434 21.5628 17.5134 21.6116 17.3971C21.6791 17.4496 21.7728 17.3596 21.7728 17.2771C21.8291 17.3146 21.9491 17.2621 21.9191 17.0784C21.9941 17.1046 22.0841 17.0521 22.1178 17.0071C22.0128 16.9846 21.7428 16.8421 21.6828 16.7296C21.6191 16.6134 21.4578 16.5571 21.3453 16.6096V16.6096Z" fill="#F7E017" stroke="black" stroke-width="0.0333333"/>
<path d="M19.875 8.05141C19.92 7.99141 19.9688 7.93141 20.025 7.87891M21.4875 9.17266C21.5625 9.13141 21.675 9.12391 21.8025 9.13516M21.375 17.4452C21.345 17.4039 21.3337 17.2277 21.3525 17.1189M21.6112 17.3964C21.5625 17.3589 21.4762 17.2352 21.4612 17.1302M21.7725 17.2764C21.6628 17.1906 21.5807 17.0746 21.5362 16.9427M21.9188 17.0777C21.8475 17.0627 21.6338 16.9239 21.5438 16.7777" stroke="black" stroke-width="0.0333333"/>
<path d="M25.8195 12.2695C26.8583 13.1395 26.9258 13.8333 26.7683 14.2383C26.682 13.8595 26.2508 13.267 25.8008 13.1133L25.8195 12.2695Z" fill="#F7E017" stroke="black" stroke-width="0.0333333"/>
<path d="M23.9586 11.7754H25.8861V14.0629C25.8861 16.0091 24.8061 17.1566 23.7036 17.7679C23.0302 17.416 22.469 16.8822 22.0839 16.2272C21.6987 15.5723 21.505 14.8224 21.5248 14.0629V11.7754H22.8748C22.8748 11.8954 22.8898 12.0754 23.0248 12.2516C23.3473 12.2216 23.7073 11.9816 23.9586 11.7791V11.7754Z" fill="#337321" stroke="black" stroke-width="0.0333333"/>
<path d="M25.8845 11.7754V14.0629C25.8845 14.6479 25.787 15.1654 25.622 15.6116L23.6983 12.0979L21.7858 15.6116C21.617 15.1616 21.5195 14.6479 21.5195 14.0629V11.7754H25.8845Z" fill="#006EC7" stroke="black" stroke-width="0.0333333"/>
<path d="M25.6792 15.4453C25.6375 15.5724 25.59 15.6976 25.5367 15.8203L23.6992 12.4116L21.873 15.8241C21.8242 15.7191 21.7642 15.5503 21.7305 15.4491L23.7067 11.7891L25.6792 15.4453Z" fill="#F7E017"/>
<path d="M24.5746 16.6984L24.7621 16.7847C24.8589 16.5499 24.8875 16.2925 24.8446 16.0422C24.7358 16.3197 24.3646 16.3122 24.2633 16.4809C24.3233 16.5109 24.3833 16.5559 24.4321 16.5897C24.3046 16.7172 24.0083 16.9272 23.8396 16.9797V15.1647C23.8396 15.0372 23.7946 14.9322 23.7946 14.8272V14.4522C23.7946 14.3659 23.7796 14.2422 23.7046 14.2422C23.6296 14.2422 23.6108 14.3659 23.6108 14.4522V14.8272C23.6108 14.9322 23.5696 15.0522 23.5696 15.1647V16.9797C23.4758 16.7097 23.1121 16.7997 22.9433 16.5297C23.0097 16.5141 23.0785 16.5115 23.1458 16.5222C23.0183 16.0909 22.6696 16.0572 22.6058 15.9297C22.6058 16.1097 22.5308 16.5222 22.6471 16.7022C22.6733 16.6684 22.7146 16.6347 22.7596 16.6084C22.9058 16.9197 23.5508 16.9197 23.7046 17.4372C23.8283 17.2497 24.2671 17.0247 24.5746 16.6984Z" fill="#F7E017" stroke="black" stroke-width="0.0333333"/>
<path d="M23.7031 15.1882C23.8456 15.1882 24.3031 15.1432 24.4681 15.1432C24.5131 15.1432 24.5469 15.0757 24.5469 14.997C24.5469 14.922 24.5131 14.8545 24.4719 14.8545C24.3031 14.8545 23.8494 14.8095 23.7031 14.8095C23.5606 14.8095 23.1031 14.8545 22.9381 14.8545C22.8931 14.8545 22.8594 14.9182 22.8594 14.997C22.8594 15.0757 22.8969 15.1432 22.9344 15.1432C23.1031 15.1432 23.5606 15.1882 23.7031 15.1882ZM23.6094 14.4457C23.5794 14.4195 23.5419 14.4082 23.4969 14.4082C23.3994 14.4082 23.3206 14.4757 23.3206 14.562C23.3206 14.652 23.3994 14.7232 23.4969 14.7232C23.5906 14.7232 23.6694 14.6482 23.6694 14.562C23.6694 14.4945 23.7669 14.4945 23.7669 14.562C23.7669 14.7007 23.6469 14.8132 23.4969 14.8132C23.3469 14.8132 23.2231 14.7007 23.2231 14.562C23.2231 14.427 23.3469 14.3145 23.4969 14.3145C23.5398 14.3155 23.582 14.3257 23.6206 14.3445C23.6206 14.367 23.6094 14.4082 23.6094 14.4457V14.4457Z" fill="#F7E017" stroke="black" stroke-width="0.0333333"/>
<path d="M22.9375 15.1423C22.9787 15.1423 23.0125 15.0748 23.0125 14.996C23.0125 14.921 22.9787 14.8535 22.9375 14.8535" fill="#F7E017"/>
<path d="M22.9375 15.1423C22.9787 15.1423 23.0125 15.0748 23.0125 14.996C23.0125 14.921 22.9787 14.8535 22.9375 14.8535" stroke="black" stroke-width="0.0333333"/>
<path d="M23.0017 15.1425C23.043 15.1425 23.0767 15.075 23.0767 14.9962C23.0767 14.9212 23.043 14.8538 23.0017 14.8538M23.418 15.1688C23.4705 15.1688 23.5117 15.0937 23.5117 14.9962C23.5117 14.9025 23.4742 14.8237 23.418 14.8237M23.5155 15.1763C23.5717 15.1763 23.613 15.0975 23.613 14.9962C23.613 14.895 23.5717 14.8163 23.5155 14.8163M23.8417 15.18C23.898 15.18 23.9392 15.0975 23.9392 14.9962C23.9392 14.895 23.8942 14.8125 23.8417 14.8125M23.943 15.1725C23.9955 15.1725 24.0405 15.0975 24.0405 14.9962C24.0405 14.8987 23.9955 14.82 23.943 14.82M24.3967 15.1425C24.4417 15.1425 24.4755 15.0787 24.4755 14.9962C24.4755 14.9137 24.4417 14.8462 24.4005 14.8462M22.7617 16.6087C22.8105 16.575 22.8742 16.5487 22.9417 16.5337ZM24.483 16.6237L24.4305 16.5862ZM24.573 16.6987C24.693 16.5712 24.7905 16.425 24.8467 16.26Z" fill="#F7E017"/>
<path d="M23.0017 15.1425C23.043 15.1425 23.0767 15.075 23.0767 14.9962C23.0767 14.9212 23.043 14.8538 23.0017 14.8538M23.418 15.1688C23.4705 15.1688 23.5117 15.0937 23.5117 14.9962C23.5117 14.9025 23.4742 14.8237 23.418 14.8237M23.5155 15.1763C23.5717 15.1763 23.613 15.0975 23.613 14.9962C23.613 14.895 23.5717 14.8163 23.5155 14.8163M23.8417 15.18C23.898 15.18 23.9392 15.0975 23.9392 14.9962C23.9392 14.895 23.8942 14.8125 23.8417 14.8125M23.943 15.1725C23.9955 15.1725 24.0405 15.0975 24.0405 14.9962C24.0405 14.8987 23.9955 14.82 23.943 14.82M24.3967 15.1425C24.4417 15.1425 24.4755 15.0787 24.4755 14.9962C24.4755 14.9137 24.4417 14.8462 24.4005 14.8462M22.7617 16.6087C22.8105 16.575 22.8742 16.5487 22.9417 16.5337M24.483 16.6237L24.4305 16.5862M24.573 16.6987C24.693 16.5712 24.7905 16.425 24.8467 16.26" stroke="black" stroke-width="0.0333333"/>
<path d="M23.3164 13.3945C23.3164 13.3495 23.3502 13.3345 23.3914 13.3045C23.4364 13.267 23.4552 13.252 23.5002 13.252H24.0552C24.0927 13.252 24.1039 13.2632 24.1039 13.3007V14.0507C24.1039 14.0882 24.0964 14.1032 24.0552 14.1032H23.3164V13.3832" fill="white"/>
<path d="M23.3164 13.3945C23.3164 13.3495 23.3502 13.3345 23.3914 13.3045C23.4364 13.267 23.4552 13.252 23.5002 13.252H24.0552C24.0927 13.252 24.1039 13.2632 24.1039 13.3007V14.0507C24.1039 14.0882 24.0964 14.1032 24.0552 14.1032H23.3164V13.3832" stroke="black" stroke-width="0.0333333"/>
<path d="M23.9177 14.1682C23.9927 14.1682 23.9777 14.1682 24.0302 14.1157C24.0827 14.0632 24.0789 14.067 24.0789 14.0182V13.3282C24.0789 13.2907 24.0677 13.2832 24.0302 13.2832H23.5164C23.4789 13.2832 23.4602 13.2982 23.4152 13.332C23.3777 13.362 23.3477 13.377 23.3477 13.4145V14.1682H23.9177Z" fill="#E5E5E5" stroke="black" stroke-width="0.0333333"/>
<path d="M23.9727 14.1521C23.9727 14.1896 23.9614 14.2009 23.9202 14.2009H23.3652C23.3239 14.2009 23.3164 14.1896 23.3164 14.1521V13.3984C23.3164 13.3609 23.3239 13.3496 23.3652 13.3496H23.9202C23.9614 13.3496 23.9727 13.3609 23.9727 13.3984V14.1521Z" fill="white" stroke="black" stroke-width="0.0333333"/>
<path d="M25.0503 11.3362C25.1553 11.4562 25.1928 11.6175 25.1328 11.7787H24.9753C25.0428 11.5725 25.0016 11.3812 24.7128 11.355C24.2853 11.3175 23.7828 12.15 23.0291 12.2512C22.8116 11.9887 22.8228 11.49 23.1041 11.2537C22.9593 10.8542 22.7333 10.489 22.4403 10.1812C22.3077 10.1594 22.1733 10.1506 22.0391 10.155C22.1516 9.91497 22.4628 9.66747 22.7178 9.56622C22.7584 9.50853 22.8009 9.45224 22.8453 9.39747C22.8716 9.07122 24.4203 9.22122 24.7466 9.42372C24.7466 9.79122 24.8928 11.0062 25.0541 11.3362H25.0503Z" fill="#96877D" stroke="black" stroke-width="0.0333333"/>
<path d="M23.1747 11.5572C23.1372 10.9947 22.9084 10.5297 22.5859 10.2147C22.7003 10.2419 22.8189 10.246 22.9348 10.2267C23.0507 10.2073 23.1616 10.165 23.2609 10.1022C23.5422 9.91472 24.2734 9.59222 24.5359 9.73097C24.5584 9.77972 24.5734 9.88097 24.5547 9.95222C24.4909 9.78347 23.7897 10.0422 23.5909 10.1247C23.4034 10.211 23.3172 10.331 23.3847 10.5972C23.2722 10.5035 23.3097 10.4172 23.1972 10.3497C23.2422 10.4585 23.2797 10.6572 23.2947 10.8185C23.2497 10.706 23.1747 10.4585 23.0097 10.3122C23.1835 10.724 23.2555 11.1717 23.2197 11.6172C23.3322 11.6172 23.5872 11.5047 23.6847 11.4297C23.5984 11.5535 23.3397 11.6435 23.1784 11.6772C23.0961 11.81 23.0532 11.9635 23.0547 12.1197C23.0434 11.9622 23.0922 11.5835 23.1709 11.5572H23.1747ZM25.0497 11.336C24.9072 11.1785 24.6484 11.096 24.3147 11.186C24.3956 11.1464 24.4813 11.1174 24.5697 11.0997C24.5584 11.0135 24.4797 10.631 24.4647 10.5372L24.5584 10.4997C24.6072 10.7285 24.6634 10.991 24.7009 11.0997C24.7309 11.1035 24.7984 11.1185 24.8584 11.1485C24.8322 11.0585 24.6897 10.421 24.6934 10.3535L24.8209 10.286C24.8593 10.6428 24.9347 10.9947 25.0459 11.336H25.0497Z" fill="black"/>
<path d="M24.9733 11.7743C25.037 11.5755 24.9958 11.3805 24.7108 11.3543C24.4858 11.3355 24.2458 11.553 23.9608 11.778L24.9733 11.7743ZM23.102 9.95555C22.9152 9.96772 22.7276 9.94871 22.547 9.8993C22.5545 9.8618 22.5695 9.8243 22.5883 9.7793C22.4725 9.85166 22.3655 9.93724 22.2695 10.0343C22.472 10.0793 22.892 10.098 23.102 9.95555V9.95555Z" fill="#96877D" stroke="black" stroke-width="0.0333333"/>
<path d="M23.0981 11.2502C23.1431 11.3889 23.1731 11.5202 23.1769 11.6364M22.7119 9.56641C22.6369 9.67891 22.5694 9.79891 22.5469 9.90391C22.728 9.95037 22.9153 9.96808 23.1019 9.95641" stroke="black" stroke-width="0.0333333"/>
<path d="M22.4414 10.1815C22.4939 10.1927 22.5464 10.2002 22.5914 10.2152C22.7414 10.2565 23.0527 10.2565 23.2664 10.1027C23.4764 9.95273 24.0539 9.47648 24.7027 9.42773" stroke="black" stroke-width="0.0333333"/>
<path d="M22.2695 10.0341C22.472 10.0791 22.892 10.0979 23.102 9.95539C23.522 9.64165 24.0202 9.44963 24.542 9.40039" stroke="black" stroke-width="0.0333333"/>
<path d="M25.8207 12.27C26.5332 12.7575 27.0582 13.2338 27.2082 13.995C27.3582 14.7563 27.6469 14.9588 28.0032 14.7563C27.9207 15.195 27.4782 15.2438 27.1069 14.9063C27.1444 15.4163 26.9382 16.0238 26.4132 16.245C26.3794 15.9413 26.5819 15.6975 26.5257 15.45C26.4994 15.3375 26.4882 15.0863 26.6344 14.9663C26.3532 15.06 25.9144 14.8838 25.8732 14.4675C26.1957 14.6175 26.6082 14.6438 26.7694 14.2388C26.9269 13.8338 26.8594 13.14 25.8207 12.27V12.27ZM26.7169 8.31003C26.9382 7.73628 27.5119 7.79628 27.7069 8.04003C28.2732 7.71753 28.3519 8.44503 28.8319 8.30253C28.8244 8.43753 28.6632 8.56503 28.4869 8.55378C28.6744 8.72253 28.4119 8.97753 28.8057 9.13128C28.4682 9.30003 27.9957 9.12378 27.8682 8.65503C27.7557 8.87628 27.3619 8.87628 27.2007 8.70003C27.5457 8.60628 27.5232 8.28753 27.3282 8.15628C27.1294 8.02878 26.7844 8.08128 26.7169 8.31003ZM25.0032 9.57753C25.1662 10.0767 25.4541 10.5259 25.8394 10.8825C26.2444 11.2575 26.8557 11.16 27.2007 10.8075C27.2082 11.5125 26.4732 11.5688 26.0682 11.3475C25.8882 11.25 25.7419 11.2988 25.9144 11.46C26.1769 11.6925 26.7507 11.8725 27.4294 12.015C28.6107 12.27 28.1907 13.2075 27.8419 13.2C27.9432 13.2 28.0257 13.0913 27.8794 12.9638C26.8519 12.0375 24.7669 12.4013 24.7969 10.3388C24.5794 10.8825 23.6719 10.6688 24.0957 10.0275C24.2307 10.1363 24.4707 10.1438 24.5344 9.97503C24.5869 9.84378 24.5532 9.61503 24.3169 9.41628C24.3544 9.41628 24.4407 9.41628 24.4294 9.31878C24.4407 9.37878 24.4932 9.46128 24.6282 9.43128C24.6657 9.49503 24.7032 9.53253 24.7594 9.51003C24.7707 9.51003 24.8007 9.49128 24.7894 9.43128C24.7969 9.54378 24.9319 9.58503 25.0032 9.57753V9.57753Z" fill="#337321" stroke="black" stroke-width="0.0333333"/>
<path d="M26.0612 11.3474C26.5524 11.6661 27.1112 11.6661 27.6174 11.0774C27.7787 10.8899 28.0299 10.7286 28.2099 10.7136C28.3899 10.6949 28.3787 10.5261 28.5137 10.4886C28.4312 10.4661 28.3974 10.3649 28.2699 10.3761C28.5887 10.2674 28.4949 10.0124 28.6487 9.88862C28.5212 9.93737 28.3262 9.74987 28.1424 9.98987C28.1912 9.87737 28.1237 9.74987 28.0787 9.69737C28.0974 9.82487 27.8312 9.84737 27.7787 10.1699C27.7524 10.3499 27.6512 10.3424 27.6362 10.0611C27.6249 9.85862 27.5237 9.29237 27.4112 9.00362C27.2912 8.71862 27.2612 8.32112 27.4224 8.26487C27.3993 8.22223 27.3658 8.18612 27.3249 8.15987C27.1262 8.03237 26.7812 8.08487 26.7137 8.30987C26.4962 8.88737 27.1112 9.21737 27.0624 9.84362C26.9687 9.37862 26.2149 9.25862 26.2224 8.80112C25.9787 8.91362 26.0124 9.11612 26.1062 9.27737C25.9562 9.04112 25.6074 9.42737 25.3112 9.10862C25.2737 9.53237 25.6487 9.68987 25.9524 9.70862C25.8024 9.97862 26.0049 10.2074 26.2074 10.2824C26.2149 9.80987 27.1862 10.0011 27.1974 10.8149C27.2049 11.5086 26.4587 11.5649 26.0612 11.3474V11.3474ZM27.4262 12.0149C28.6074 12.2699 28.1874 13.2074 27.8387 13.1999C27.6174 13.1924 27.4074 13.0086 27.3962 12.8474C27.1412 12.9824 27.2087 13.2486 27.4037 13.3536C26.8712 13.2936 26.6462 13.6424 26.6349 14.0286C26.7324 13.8486 27.0249 13.8411 27.1374 13.8786C27.2499 13.9161 27.5312 13.9349 27.6437 13.8036C27.5499 13.8861 27.7037 14.0736 27.5687 14.2161C28.0187 14.2011 28.2099 13.7849 28.1312 13.6049C28.7087 13.0799 28.5999 12.2249 27.4262 12.0149V12.0149ZM26.5224 16.0349C26.5974 16.0799 26.5899 16.1849 26.5374 16.2486C26.4324 16.3761 26.5899 16.6799 26.2674 16.7361C26.1737 16.7474 26.1024 16.6874 26.0724 16.5786C25.9824 16.2786 26.3012 16.2561 26.3349 16.1174C26.3724 15.9749 26.4587 15.9936 26.5224 16.0349V16.0349Z" fill="#F7E017" stroke="black" stroke-width="0.0333333"/>
<path d="M26.2367 16.5795C26.338 16.632 26.428 16.707 26.3755 17.0445C26.3492 17.1832 26.3455 17.5245 26.4692 17.532C26.3942 17.5695 26.2292 17.6032 26.1692 17.5132C26.098 17.6182 25.9555 17.5807 25.9067 17.4457C25.8242 17.5057 25.7267 17.397 25.7305 17.307C25.663 17.3445 25.5317 17.2807 25.573 17.082C25.4905 17.1045 25.3892 17.0445 25.3555 16.992C25.4717 16.9695 25.7755 16.8232 25.8542 16.6995C25.9292 16.572 26.1167 16.5195 26.2367 16.5795Z" fill="#F7E017" stroke="black" stroke-width="0.0333333"/>
<path d="M26.1628 17.5116C26.2003 17.4666 26.2191 17.2678 26.2003 17.1478M25.9003 17.4441C25.9566 17.4066 26.0578 17.2753 26.0803 17.1553M25.7241 17.3053C25.849 17.2126 25.9452 17.0865 26.0016 16.9416M25.5703 17.0803C25.6453 17.0653 25.8928 16.9191 25.9978 16.7578" stroke="black" stroke-width="0.0333333"/>
<path d="M24.7955 10.3423C24.7805 11.2048 25.1405 11.6473 25.643 11.9323C25.4555 11.8198 25.538 11.441 25.2868 11.3173C25.3468 11.3135 25.4368 11.396 25.5868 11.3623C25.5118 11.2048 25.3993 10.9573 25.1218 10.9235C25.1968 10.916 25.3468 10.9423 25.4518 10.9048C25.3093 10.6798 24.9268 10.7885 24.7955 10.3423V10.3423ZM24.7055 9.51727C24.6755 9.50602 24.6493 9.47602 24.6268 9.43477C24.4918 9.46477 24.4393 9.37852 24.428 9.32227C24.4393 9.41977 24.353 9.41602 24.3155 9.41977C24.5518 9.61477 24.5855 9.84352 24.533 9.97477C24.4655 10.1435 24.233 10.136 24.0943 10.0273C24.0755 10.3873 24.5443 10.5035 24.713 10.0535C24.713 10.1285 24.8105 10.121 24.833 10.2223C24.953 10.0273 24.863 9.74602 24.7055 9.51727Z" fill="#F7E017" stroke="black" stroke-width="0.0333333"/>
<path d="M23.9636 7.8001C23.7742 7.61254 23.6664 7.35787 23.6636 7.09135C23.6711 6.90385 23.7461 6.7051 24.0198 6.79135C23.9336 6.79135 23.9936 6.95635 23.9073 6.9751C23.9748 7.00135 24.0723 6.94135 24.0873 6.9001C24.1023 6.9601 24.2148 6.9451 24.2223 7.0126C24.2636 6.97885 24.2186 6.81385 24.1548 6.7801C24.1998 6.75385 24.2298 6.6226 24.2073 6.55885C24.1623 6.56635 24.0986 6.62635 24.0873 6.7126C24.1098 6.6451 24.0836 6.47635 23.9636 6.4501C23.9298 6.4951 23.9223 6.61135 23.9673 6.6751C23.8586 6.64885 23.6973 6.7201 23.6598 6.81385C23.6673 6.70135 23.6823 6.5401 23.7536 6.43885C23.7761 6.40885 23.7161 6.34885 23.6748 6.4276C23.5923 6.26635 23.3748 6.18385 23.2736 6.2626C23.1761 6.3451 23.0486 6.2251 22.9661 6.3526C22.8873 6.4801 22.6136 6.49135 22.6286 6.62635C22.6361 6.70885 22.6173 6.8326 22.5761 6.8776C22.4786 6.98635 22.6248 7.0651 22.6511 7.1626C22.6323 6.84385 23.1423 6.2176 23.6561 6.46135C23.5938 6.59819 23.5594 6.74606 23.5548 6.89635C23.5323 7.1851 23.5773 7.5901 23.8548 7.8301L23.9636 7.8001Z" fill="#337321" stroke="black" stroke-width="0.0333333"/>
<path d="M24.1133 6.79174C24.1133 6.71674 24.2445 6.61549 24.4208 6.61924C24.6345 6.61924 24.7958 6.81424 24.9683 6.79549C25.1408 6.77674 25.0583 6.87049 25.0208 6.90049C24.9833 6.92299 24.9645 6.96049 24.9758 7.00924C24.987 7.05424 24.9683 7.08424 24.9008 7.04299C24.747 6.94549 24.5933 7.08049 24.3908 7.00549C24.222 6.94174 24.1208 6.90424 24.1133 6.79174V6.79174Z" fill="#C8102E" stroke="black" stroke-width="0.0333333"/>
<path d="M23.2419 8.78961C23.1299 8.52368 22.9318 8.30311 22.6794 8.16336L22.6719 8.02086C22.8097 7.94226 22.9369 7.8465 23.0506 7.73586C23.6881 8.03586 24.5506 7.60836 24.9481 7.16211L25.0981 7.25211L25.0231 7.35336L24.9444 7.31211C24.7689 7.50459 24.5783 7.68267 24.3744 7.84461C24.5206 7.88211 24.7231 7.90836 24.7794 7.90461C25.1319 7.64961 25.4131 7.42086 25.5481 7.40586L25.6606 7.55586L25.5594 7.63086L25.4806 7.58211C25.0513 7.98999 24.7161 8.4865 24.4981 9.03711C24.2619 8.98461 23.4144 9.01836 23.2419 8.78961Z" fill="#96877D" stroke="black" stroke-width="0.0333333"/>
<path d="M24.3741 7.84578C24.3178 7.83078 24.2691 7.81578 24.2428 7.80078C24.1066 7.88514 23.9493 7.92934 23.7891 7.92828" stroke="black" stroke-width="0.0333333"/>
<path d="M23.2782 8.69555C23.2219 8.38055 23.3157 8.02805 23.4732 7.92305C23.6717 8.03936 23.8982 8.09911 24.1283 8.09581C24.3583 8.0925 24.5831 8.02627 24.7782 7.9043" stroke="black" stroke-width="0.0333333"/>
<path d="M23.2773 8.53078C23.5473 8.52328 24.1398 8.56828 24.2786 8.58703C24.4248 8.60953 24.6648 8.66953 24.6311 8.74078M23.4011 8.48578L23.4798 8.41078L23.4048 8.33203L23.3261 8.40703L23.4011 8.48578Z" stroke="black" stroke-width="0.0333333"/>
<path d="M23.5885 6.91169C23.491 6.77669 23.221 6.73169 23.1647 6.91169C23.1385 6.99419 23.101 7.08044 23.0372 7.11794C22.9735 7.15544 22.9885 7.27169 23.0147 7.32044C23.0822 7.44419 23.0222 7.56419 23.1535 7.64294C23.1535 7.54544 23.2997 7.44419 23.4197 7.41794C23.5435 7.39544 23.731 7.28294 23.7572 7.16294C23.7797 7.03544 23.8247 6.93794 23.5885 6.91169Z" fill="#337321" stroke="black" stroke-width="0.0333333"/>
<path d="M22.9745 8.13086H23.012V8.35961L23.0308 8.37086L23.2295 8.25836L23.2483 8.28461L23.0458 8.40086V8.42336L23.2483 8.53586L23.2295 8.56586L23.027 8.45336C23.0233 8.45711 23.0158 8.46461 23.0083 8.46461V8.69711H22.9745V8.46461C22.9678 8.4618 22.9614 8.458 22.9558 8.45336L22.757 8.56961L22.7383 8.53961L22.937 8.42711V8.40086L22.7383 8.28836L22.757 8.25836L22.9558 8.37086L22.9745 8.35961V8.13086Z" fill="#96877D" stroke="black" stroke-width="0.0333333"/>
<path d="M23.2766 8.69295C23.2191 8.75114 23.1453 8.79038 23.0649 8.80542C22.9845 8.82046 22.9015 8.81059 22.8269 8.77712C22.7523 8.74365 22.6897 8.68819 22.6474 8.61816C22.6052 8.54813 22.5854 8.46688 22.5907 8.38527C22.5959 8.30367 22.626 8.22562 22.6768 8.16157C22.7276 8.09752 22.7968 8.05053 22.8751 8.0269C22.9534 8.00326 23.037 8.0041 23.1148 8.02931C23.1926 8.05452 23.2608 8.10289 23.3103 8.16795C23.2867 8.23711 23.2716 8.30889 23.2653 8.3817C23.2603 8.32898 23.24 8.27886 23.207 8.23742C23.174 8.19599 23.1297 8.16501 23.0794 8.14826C23.0292 8.13151 22.9752 8.12969 22.9239 8.14304C22.8726 8.15638 22.8263 8.18431 22.7906 8.22344C22.7549 8.26256 22.7314 8.31121 22.7227 8.36348C22.7141 8.41574 22.7209 8.46938 22.7422 8.51789C22.7634 8.5664 22.7983 8.6077 22.8426 8.63678C22.8869 8.66585 22.9386 8.68146 22.9916 8.6817C23.1191 8.6817 23.2278 8.59545 23.2616 8.4792C23.2616 8.5317 23.2616 8.6517 23.2766 8.69295V8.69295Z" fill="#96877D" stroke="black" stroke-width="0.0333333"/>
<path d="M22.8223 9.0743C22.7998 9.0443 22.7511 8.9618 22.7586 8.90555C22.8112 8.90705 22.8616 8.92695 22.9011 8.9618C22.8973 8.9168 22.8786 8.8268 22.8898 8.7818C22.9348 8.80055 23.0323 8.8568 23.0661 8.9168C23.0586 8.87555 23.0398 8.7668 23.0586 8.6993C23.1073 8.7293 23.1936 8.80805 23.2086 8.8643C23.2161 8.77805 23.2461 8.6393 23.2686 8.6018C23.3061 8.6393 23.3661 8.6768 23.4036 8.7293C23.4111 8.65805 23.4486 8.5793 23.4973 8.56055C23.5348 8.59805 23.5948 8.6993 23.6098 8.80805C23.6473 8.7968 23.6961 8.73305 23.7186 8.69555C23.7373 8.73305 23.7598 8.7893 23.7448 8.8643C23.7936 8.8193 23.8498 8.76305 23.8573 8.71055C23.8948 8.7368 23.9586 8.80055 23.9736 8.86805C23.9661 8.8118 23.9736 8.7143 23.9548 8.65805C24.0148 8.69555 24.0673 8.7518 24.0786 8.81555C24.0973 8.75555 24.1348 8.65055 24.1686 8.62805C24.2023 8.69555 24.2361 8.77805 24.2323 8.8418C24.2548 8.80055 24.2848 8.7218 24.3186 8.7068C24.3486 8.7518 24.3448 8.8568 24.3373 8.9093C24.3673 8.86805 24.4236 8.81555 24.4573 8.7968C24.4573 8.8268 24.4648 8.87555 24.4573 8.91305C24.5112 8.85767 24.5522 8.79108 24.5773 8.71805C24.6373 8.74805 24.6973 8.8493 24.7011 8.9018C24.7461 8.88305 24.8286 8.80805 24.8511 8.7668C24.8511 8.7968 24.8661 8.8793 24.8511 8.9393C24.8773 8.91305 24.8998 8.8643 24.9148 8.8418C24.9298 8.88305 24.9148 8.9843 24.8998 9.04055C24.9353 9.00878 24.98 8.98908 25.0273 8.9843C25.0166 9.08722 24.9847 9.18681 24.9336 9.2768C24.5286 9.1643 23.6773 9.12305 22.8223 9.0743Z" fill="#337321" stroke="black" stroke-width="0.0333333"/>
<path d="M24.2383 6.83563C24.2383 6.80188 24.3058 6.73438 24.4295 6.73438C24.5795 6.73438 24.7183 6.84688 24.8383 6.83563C24.9583 6.82813 24.8983 6.86938 24.8758 6.87688C24.8458 6.88813 24.8345 6.90313 24.8383 6.92188C24.8495 6.94438 24.8383 6.95563 24.7858 6.93688C24.6808 6.89938 24.572 6.95188 24.4333 6.92188C24.3133 6.89563 24.242 6.88438 24.2383 6.83563V6.83563Z" fill="#F7E017"/>
<path d="M22.9541 9.33094C22.8303 9.48094 22.7028 9.45844 22.6766 9.36094C22.6503 9.26344 22.7441 9.21844 22.7103 9.13219C22.6766 9.04594 22.7666 9.00844 22.8078 9.04594C22.8491 9.08344 22.9878 8.96344 23.0441 9.09094C23.1041 9.21844 23.1491 9.30469 23.1191 9.35344C23.0816 9.40594 22.9803 9.37969 22.9541 9.33094V9.33094ZM23.5016 9.10219C23.4791 9.04594 23.6103 8.93719 23.6778 9.01594C23.7453 9.09094 23.8503 8.93344 23.9103 9.05344C23.9703 9.17344 23.9853 9.23719 24.0191 9.30469C24.0453 9.37219 23.8578 9.40594 23.7978 9.34969C23.8053 9.38719 23.6328 9.42094 23.5878 9.30469L23.5016 9.10219V9.10219ZM24.3791 9.17344C24.3491 9.11344 24.5028 9.02719 24.5853 9.13594C24.6041 9.09094 24.7578 9.08344 24.7691 9.21094L24.7878 9.46969C24.7916 9.51844 24.6941 9.56719 24.6266 9.43594C24.4991 9.46219 24.4428 9.39094 24.4278 9.31969C24.4128 9.24469 24.3978 9.20719 24.3791 9.16969V9.17344Z" fill="#F7E017" stroke="black" stroke-width="0.0333333"/>
<path d="M23.037 9.08649C23.0182 9.04524 23.1495 8.95899 23.232 9.02274C23.3182 9.08649 23.4382 8.97024 23.4945 9.08274C23.5957 9.31524 23.5995 9.33024 23.5695 9.37524C23.5395 9.42024 23.4007 9.40149 23.367 9.33774C23.3632 9.38274 23.2432 9.37524 23.1832 9.34149C23.1157 9.30399 23.067 9.16149 23.037 9.08649V9.08649ZM23.9257 9.09774C23.8995 9.03024 24.0982 8.97399 24.1882 9.09024C24.2295 9.04899 24.327 9.04524 24.3795 9.17274C24.4357 9.29649 24.4432 9.36399 24.4057 9.39774C24.3757 9.42024 24.2745 9.43524 24.2407 9.37899C24.192 9.40899 24.0495 9.38274 24.0157 9.30399C23.9857 9.22524 23.9595 9.15399 23.9295 9.09774H23.9257ZM24.7695 9.22524C24.7695 9.16149 24.8745 9.13524 24.9157 9.22524C24.9532 9.30774 25.0845 9.22899 25.0957 9.37524C25.0957 9.40149 25.0807 9.50649 25.0395 9.55899C25.002 9.60774 24.8032 9.55899 24.7882 9.45024L24.7695 9.22524Z" fill="#337321" stroke="black" stroke-width="0.0333333"/>
<path d="M22.9531 9.32984C22.9081 9.26609 22.8444 9.16484 22.7656 9.27359M23.3694 9.33734C23.3394 9.30359 23.3056 9.24359 23.2944 9.19859M23.7969 9.34859C23.7669 9.32609 23.7219 9.28484 23.6994 9.23984M23.7594 9.12734C23.8344 9.13484 23.8831 9.20234 23.9056 9.23609C23.9281 9.26609 23.9806 9.32609 24.0181 9.32984M24.2394 9.37859C24.2131 9.34109 24.1869 9.30359 24.1831 9.27359M24.1869 9.08984C24.2094 9.12734 24.2281 9.15359 24.2431 9.18734M24.6219 9.43484C24.593 9.37452 24.5475 9.32376 24.4906 9.28859M24.6069 9.20234C24.6106 9.32609 24.7756 9.33734 24.7831 9.42734M24.9144 9.22484C24.9294 9.25484 24.9369 9.28484 24.9369 9.33734" stroke="black" stroke-width="0.0333333"/>
</g>
</g>
<defs>
<filter id="filter0_d_336_29844" x="0" y="-2" width="36" height="36" filterUnits="userSpaceOnUse" color-interpolation-filters="sRGB">
<feFlood flood-opacity="0" result="BackgroundImageFix"/>
<feColorMatrix in="SourceAlpha" type="matrix" values="0 0 0 0 0 0 0 0 0 0 0 0 0 0 0 0 0 0 127 0" result="hardAlpha"/>
<feOffset dy="4"/>
<feGaussianBlur stdDeviation="3"/>
<feComposite in2="hardAlpha" operator="out"/>
<feColorMatrix type="matrix" values="0 0 0 0 0 0 0 0 0 0 0 0 0 0 0 0 0 0 0.16 0"/>
<feBlend mode="normal" in2="BackgroundImageFix" result="effect1_dropShadow_336_29844"/>
<feBlend mode="normal" in="SourceGraphic" in2="effect1_dropShadow_336_29844" result="shape"/>
</filter>
<clipPath id="clip0_336_29844">
<rect width="24" height="18" fill="white" transform="translate(6 3)"/>
</clipPath>
</defs>
</svg>
