<svg width="36" height="31" viewBox="0 0 36 31" fill="none" xmlns="http://www.w3.org/2000/svg">
<g filter="url(#filter0_d_336_28339)">
<g clip-path="url(#clip0_336_28339)">
<path d="M6 3H30V21H6V3Z" fill="#CD2A3E"/>
<path d="M6 5.69922H30V18.2992H6V5.69922Z" fill="#006233"/>
<path d="M23.625 8.79688C23.625 10.2887 23.0324 11.7195 21.9775 12.7744C20.9226 13.8292 19.4918 14.4219 18 14.4219C16.5082 14.4219 15.0774 13.8292 14.0225 12.7744C12.9676 11.7195 12.375 10.2887 12.375 8.79688C12.25 9.27686 12.187 9.77088 12.1875 10.2669C12.1875 11.8084 12.7999 13.2869 13.8899 14.3769C14.98 15.467 16.4584 16.0794 18 16.0794C19.5416 16.0794 21.02 15.467 22.1101 14.3769C23.2001 13.2869 23.8125 11.8084 23.8125 10.2669C23.8132 9.77087 23.7502 9.27682 23.625 8.79688V8.79688Z" fill="#FFC400"/>
<path d="M18.0008 6.51758L17.4945 8.07383H15.8633L17.187 9.03383L16.6808 10.5863L18.0045 9.62633L19.3283 10.5863L18.822 9.03383L20.1458 8.07383H18.5108L18.0008 6.51758Z" fill="#FFC400"/>
</g>
</g>
<defs>
<filter id="filter0_d_336_28339" x="0" y="-2" width="36" height="36" filterUnits="userSpaceOnUse" color-interpolation-filters="sRGB">
<feFlood flood-opacity="0" result="BackgroundImageFix"/>
<feColorMatrix in="SourceAlpha" type="matrix" values="0 0 0 0 0 0 0 0 0 0 0 0 0 0 0 0 0 0 127 0" result="hardAlpha"/>
<feOffset dy="4"/>
<feGaussianBlur stdDeviation="3"/>
<feComposite in2="hardAlpha" operator="out"/>
<feColorMatrix type="matrix" values="0 0 0 0 0 0 0 0 0 0 0 0 0 0 0 0 0 0 0.16 0"/>
<feBlend mode="normal" in2="BackgroundImageFix" result="effect1_dropShadow_336_28339"/>
<feBlend mode="normal" in="SourceGraphic" in2="effect1_dropShadow_336_28339" result="shape"/>
</filter>
<clipPath id="clip0_336_28339">
<rect width="24" height="18" fill="white" transform="translate(6 3)"/>
</clipPath>
</defs>
</svg>
