<svg width="36" height="31" viewBox="0 0 36 31" fill="none" xmlns="http://www.w3.org/2000/svg">
<g filter="url(#filter0_d_336_18051)">
<g clip-path="url(#clip0_336_18051)">
<path d="M6 3H30V21H6V3Z" fill="#000066"/>
<path fill-rule="evenodd" clip-rule="evenodd" d="M23.6848 10.9879L23.8798 10.3616L23.3548 9.96414L24.0148 9.95664L24.2398 9.33789L24.4498 9.95664L25.1136 9.97539L24.5848 10.3691L24.7723 10.9954L24.2286 10.6204M25.2448 11.1079L25.6348 10.5866L25.2711 10.0316L25.8973 10.2491L26.3098 9.74289V10.4029L26.9248 10.6429L26.2948 10.8304L26.2648 11.4866L25.8823 10.9466M22.1923 11.5091L22.1661 10.8529L21.5361 10.6579L22.1623 10.4254V9.77289L22.5711 10.2791L23.2011 10.0691L22.8336 10.6204L23.2198 11.1454L22.5823 10.9766M21.0973 12.5104L20.8198 11.9179L20.1673 11.9854L20.6473 11.5241L20.3998 10.9129L20.9698 11.2204L21.4686 10.7779L21.3411 11.4304L21.8998 11.7641L21.2511 11.8579M20.5873 13.9429L20.0886 13.5266L19.5261 13.8716L19.7661 13.2454L19.2823 12.8104L19.9311 12.8366L20.1936 12.2216L20.3548 12.8666L20.9998 12.9229L20.4523 13.2904M20.5723 15.5554L19.9536 15.3754L19.5748 15.9191L19.5486 15.2479L18.9336 15.0416L19.5373 14.8091V14.1341L19.9386 14.6629L20.5536 14.4529L20.1936 15.0154M21.2998 16.9204L20.6623 17.0104L20.5311 17.6629L20.2386 17.0629L19.5973 17.1229L20.0548 16.6616L19.7886 16.0466L20.3623 16.3654L20.8423 15.9229L20.7373 16.5754M22.4248 18.0004L21.8586 18.3079L21.9561 18.9679L21.4798 18.5029L20.8948 18.7879L21.1686 18.1916L20.7073 17.7079L21.3561 17.8054L21.6561 17.2241L21.7836 17.8766M23.8011 18.2141L23.4898 18.7879L23.9286 19.2829L23.2761 19.1591L22.9423 19.7216L22.8523 19.0729L22.2073 18.9229L22.7998 18.6454L22.7361 17.9891L23.1936 18.4691M25.3461 17.9779L25.3273 18.6304L25.9386 18.8704L25.3011 19.0579L25.2561 19.7141L24.8811 19.1779L24.2436 19.3429L24.6486 18.8216L24.2961 18.2704L24.9186 18.4841M26.9623 10.8679L27.4123 11.3404L28.0086 11.0629L27.6973 11.6554L28.1286 12.1466L27.4911 12.0416L27.1536 12.6229L27.0748 11.9629L26.4373 11.8316L27.0261 11.5316M28.3086 12.3191L28.5148 12.9416L29.1711 12.9529L28.6386 13.3541L28.8148 13.9841L28.2861 13.6091L27.7386 13.9879L27.9411 13.3579L27.4236 12.9604L28.0836 12.9454M28.8148 14.1904L28.7398 14.8429L29.3286 15.1316L28.6798 15.2666L28.5786 15.9154L28.2523 15.3491L27.5998 15.4579L28.0498 14.9704L27.7461 14.3891L28.3461 14.6591M28.4586 16.1516L28.1661 16.7366L28.6123 17.2129L27.9598 17.1116L27.6448 17.6854L27.5323 17.0366L26.8798 16.9129L27.4648 16.6129L27.3786 15.9604L27.8511 16.4216M27.4836 17.8879L26.9323 18.2329L27.0748 18.8816L26.5686 18.4504L26.0061 18.7729L26.2423 18.1616L25.7511 17.7079L26.4036 17.7641L26.6661 17.1641L26.8311 17.8091" fill="white"/>
<path d="M6 3H18V12H6V3Z" fill="#000066"/>
<path d="M7.40625 3L11.9813 6.39375L16.5375 3H18V4.1625L13.5 7.51875L18 10.8563V12H16.5L12 8.64375L7.51875 12H6V10.875L10.4813 7.5375L6 4.2V3H7.40625Z" fill="white"/>
<path d="M13.95 8.26875L18 11.25V12L12.9188 8.26875H13.95ZM10.5 8.64375L10.6125 9.3L7.0125 12H6L10.5 8.64375ZM18 3V3.05625L13.3313 6.58125L13.3688 5.75625L17.0625 3H18ZM6 3L10.4813 6.3H9.35625L6 3.7875V3Z" fill="#C8102E"/>
<path d="M10.5188 3V12H13.5188V3H10.5188ZM6 6V9H18V6H6Z" fill="white"/>
<path d="M6 6.61875V8.41875H18V6.61875H6ZM11.1188 3V12H12.9188V3H11.1188Z" fill="#C8102E"/>
</g>
</g>
<defs>
<filter id="filter0_d_336_18051" x="0" y="-2" width="36" height="36" filterUnits="userSpaceOnUse" color-interpolation-filters="sRGB">
<feFlood flood-opacity="0" result="BackgroundImageFix"/>
<feColorMatrix in="SourceAlpha" type="matrix" values="0 0 0 0 0 0 0 0 0 0 0 0 0 0 0 0 0 0 127 0" result="hardAlpha"/>
<feOffset dy="4"/>
<feGaussianBlur stdDeviation="3"/>
<feComposite in2="hardAlpha" operator="out"/>
<feColorMatrix type="matrix" values="0 0 0 0 0 0 0 0 0 0 0 0 0 0 0 0 0 0 0.16 0"/>
<feBlend mode="normal" in2="BackgroundImageFix" result="effect1_dropShadow_336_18051"/>
<feBlend mode="normal" in="SourceGraphic" in2="effect1_dropShadow_336_18051" result="shape"/>
</filter>
<clipPath id="clip0_336_18051">
<rect width="24" height="18" fill="white" transform="translate(6 3)"/>
</clipPath>
</defs>
</svg>
