<svg width="36" height="31" viewBox="0 0 36 31" fill="none" xmlns="http://www.w3.org/2000/svg">
<g filter="url(#filter0_d_336_32666)">
<g clip-path="url(#clip0_336_32666)">
<path d="M30 21V3H6V21H30Z" fill="#002868"/>
<path d="M28.125 9.54688V12.9219C28.125 15.1719 27 17.5944 24.1875 18.9069C21.375 17.5944 20.25 15.1719 20.25 12.9219V9.54688H28.125Z" fill="#FCD116" stroke="black" stroke-width="0.679094"/>
<path d="M28.125 9.54688V12.9219C28.125 15.1719 27 17.5944 24.1875 18.9069C21.375 17.5944 20.25 15.1719 20.25 12.9219V9.54688H28.125Z" stroke="white" stroke-width="0.594207"/>
<path d="M22.7658 13.2647C22.6645 13.4409 22.4883 13.4784 22.3533 13.4222C22.2145 13.3659 22.087 13.0359 21.9445 12.8597C21.8095 12.6834 21.772 12.7584 21.682 12.6572C21.5509 12.5371 21.3982 12.443 21.232 12.3797C21.1083 12.3234 20.9808 12.2709 20.8945 12.0572C20.9325 11.9708 21.0024 11.9023 21.0895 11.8659C21.1608 11.8397 21.217 11.7384 21.2245 11.6484C21.2358 11.5659 21.3108 11.4722 21.412 11.4009C21.3633 11.4084 21.2658 11.3897 21.2208 11.3597C21.1795 11.3222 21.1083 11.3297 21.067 11.3597C21.022 11.3897 20.9695 11.3972 20.8945 11.3897C20.9245 11.3672 20.977 11.3147 20.9808 11.2697C20.9845 11.2247 21.0408 11.1984 21.1495 11.1984C21.2545 11.1984 21.322 11.0784 21.4083 11.0784C21.3483 11.0784 21.3595 10.9734 21.3933 10.9659C21.2433 10.9397 21.262 10.8159 21.322 10.8159C21.3183 10.8009 21.2995 10.7784 21.2283 10.7597C21.1645 10.7334 21.1945 10.6734 21.247 10.6359C21.202 10.5422 21.2433 10.4709 21.3183 10.4109C21.2133 10.4072 21.3295 10.2609 21.3558 10.1822C21.3858 10.1072 21.397 10.0959 21.4308 10.1447C21.4683 10.1859 21.5545 10.2834 21.652 10.3134C21.7458 10.3397 21.802 10.3922 21.8208 10.4709C21.8395 10.5572 21.877 10.5984 21.9783 10.6359C22.087 10.6697 22.2333 10.7597 22.2145 10.9584C22.297 10.9659 22.3608 10.9884 22.4095 11.0297" fill="#FCAD56"/>
<path d="M22.7658 13.2647C22.6645 13.4409 22.4883 13.4784 22.3533 13.4222C22.2145 13.3659 22.087 13.0359 21.9445 12.8597C21.8095 12.6834 21.772 12.7584 21.682 12.6572C21.5509 12.5371 21.3982 12.443 21.232 12.3797C21.1083 12.3234 20.9808 12.2709 20.8945 12.0572C20.9325 11.9708 21.0024 11.9023 21.0895 11.8659C21.1608 11.8397 21.217 11.7384 21.2245 11.6484C21.2358 11.5659 21.3108 11.4722 21.412 11.4009C21.3633 11.4084 21.2658 11.3897 21.2208 11.3597C21.1795 11.3222 21.1083 11.3297 21.067 11.3597C21.022 11.3897 20.9695 11.3972 20.8945 11.3897C20.9245 11.3672 20.977 11.3147 20.9808 11.2697C20.9845 11.2247 21.0408 11.1984 21.1495 11.1984C21.2545 11.1984 21.322 11.0784 21.4083 11.0784C21.3483 11.0784 21.3595 10.9734 21.3933 10.9659C21.2433 10.9397 21.262 10.8159 21.322 10.8159C21.3183 10.8009 21.2995 10.7784 21.2283 10.7597C21.1645 10.7334 21.1945 10.6734 21.247 10.6359C21.202 10.5422 21.2433 10.4709 21.3183 10.4109C21.2133 10.4072 21.3295 10.2609 21.3558 10.1822C21.3858 10.1072 21.397 10.0959 21.4308 10.1447C21.4683 10.1859 21.5545 10.2834 21.652 10.3134C21.7458 10.3397 21.802 10.3922 21.8208 10.4709C21.8395 10.5572 21.877 10.5984 21.9783 10.6359C22.087 10.6697 22.2333 10.7597 22.2145 10.9584C22.297 10.9659 22.3608 10.9884 22.4095 11.0297" stroke="black" stroke-width="0.0233439" stroke-linecap="round" stroke-linejoin="round"/>
<path d="M23.0235 10.7242C23.0231 10.7705 23.0333 10.8162 23.0535 10.8578C23.0737 10.8995 23.1032 10.9359 23.1398 10.9642C23.211 11.0205 23.271 11.0655 23.256 11.1367C23.2448 11.2117 23.271 11.2567 23.331 11.3055C23.3985 11.3505 23.4435 11.4067 23.4285 11.5005C23.4135 11.5942 23.421 11.6505 23.4585 11.7217C23.496 11.793 23.5635 11.8492 23.5335 11.9617C23.5035 12.0742 23.5185 12.2242 23.556 12.2992C23.5935 12.3705 23.556 12.4267 23.4923 12.5505C23.4248 12.6742 23.3873 12.7192 23.2523 12.768C23.1135 12.8092 23.1023 12.8955 23.1023 13.038C23.1023 13.188 23.0048 13.263 22.821 13.2367C22.6335 13.3905 22.5173 13.2067 22.4685 12.978C22.4198 12.7492 22.416 12.498 22.1385 12.2992C21.8648 12.093 21.9735 11.7442 22.2023 11.6055C22.431 11.4705 22.4048 11.0655 22.3748 10.818C22.3523 10.5705 22.5173 10.428 22.6448 10.293C22.8135 10.3567 23.0235 10.6155 23.0235 10.7242V10.7242Z" fill="#FFA1A1" stroke="black" stroke-width="0.0233439" stroke-linecap="round" stroke-linejoin="round"/>
<path d="M22.6279 12.3216C22.5754 12.2016 22.5192 12.0778 22.6542 11.8153C22.7967 11.5491 22.7067 11.3466 22.6654 11.2116C22.6242 11.0803 22.6129 10.9566 22.6654 10.9003C22.7217 10.8516 22.7442 10.8178 22.7479 10.7278C22.7517 10.6453 22.8229 10.6716 22.8342 10.7128C22.8454 10.7541 22.8529 10.8253 22.7779 10.9528C22.7029 11.0841 22.9879 11.4028 22.8567 11.7441C22.7667 11.9841 22.8867 12.2878 22.9317 12.5016C22.9767 12.7153 23.0067 13.2141 22.6954 13.2891C22.9092 13.1878 22.7104 12.5203 22.6279 12.3216V12.3216Z" fill="#F1B2DC" stroke="black" stroke-width="0.0233439" stroke-linecap="round" stroke-linejoin="round"/>
<path d="M21.2344 12.2857C21.2831 12.297 21.3094 12.267 21.3244 12.2332C21.3394 12.1995 21.3506 12.1845 21.3994 12.177C21.4444 12.177 21.5194 12.1657 21.5381 12.1282C21.5531 12.0907 21.6094 12.1207 21.6581 12.027C21.7069 11.9295 21.7369 11.817 21.8644 11.7757M22.2131 10.9582C22.1644 10.9582 22.0294 10.9657 21.9731 11.0857M21.5831 10.377C21.6956 10.4107 21.6506 10.4857 21.7069 10.527C21.8081 10.6095 21.7144 10.692 21.8006 10.7145C21.8869 10.737 21.8794 10.752 21.8606 10.8457C21.8306 10.9545 21.9356 10.9582 21.8981 11.0295M21.4106 11.4007C21.4781 11.3407 21.6394 11.292 21.6769 11.2282M21.4069 11.0782C21.5044 11.0707 21.6356 11.1082 21.6544 11.0707M21.3919 10.9695C21.4406 10.9695 21.5381 10.9357 21.5569 10.872M21.3206 10.8195C21.3769 10.8195 21.4481 10.8157 21.5194 10.7632M21.2456 10.6357C21.2869 10.602 21.3619 10.6395 21.4331 10.5945M21.3169 10.4107C21.3506 10.4107 21.4219 10.4032 21.4219 10.4445" stroke="black" stroke-width="0.0233439" stroke-linecap="round" stroke-linejoin="round"/>
<path d="M25.8039 11.2688C25.8039 11.2688 25.4758 10.9922 25.2039 10.8047C24.932 10.6172 24.6039 10.3875 24.6039 10.3406C24.6555 10.3031 24.932 10.4813 25.3117 10.7109C25.6961 10.9453 25.9117 11.175 25.9117 11.175L25.8039 11.2688ZM25.7805 11.4563C25.7805 11.4563 25.4617 11.2641 25.1477 11.1281C24.8195 10.9922 24.3273 10.9922 24.2758 10.9453C24.2758 10.8984 24.8477 10.8703 25.2555 11.0344C25.6727 11.2266 25.8883 11.3625 25.8883 11.3625L25.7805 11.4563ZM25.7758 11.775C25.7758 11.775 25.4289 11.6156 25.0914 11.5406C24.7633 11.4656 24.2945 11.4938 24.2383 11.4516C24.2383 11.4047 24.8195 11.3109 25.2555 11.4516C25.6961 11.5875 25.8836 11.6813 25.8836 11.6813L25.7758 11.775ZM25.757 12.0984C25.757 12.0984 25.4945 11.9203 25.1477 11.8828C24.8195 11.85 24.3836 12.0984 24.3273 12.0516C24.3273 12.0047 24.707 11.7281 25.1805 11.775C25.6445 11.8219 25.8648 12.0047 25.8648 12.0047L25.757 12.0984ZM25.8648 11.0766C25.8648 11.0766 25.532 10.7719 25.532 10.5656C25.532 10.3828 25.7336 10.1016 25.8227 10.1016C25.7758 10.1953 25.6211 10.3828 25.6211 10.5656C25.6211 10.7531 25.9727 10.9828 25.9727 10.9828L25.8648 11.0766Z" fill="#9E540A" stroke="black" stroke-width="0.0233439" stroke-linecap="round" stroke-linejoin="round"/>
<path d="M25.8638 11.0758C25.8638 11.0758 25.9294 10.7711 25.9294 10.5648C25.9294 10.2883 25.7325 10.0352 25.7513 9.96484C25.8216 10.0352 26.0184 10.2414 26.0184 10.5648C26.0184 10.8461 25.9716 10.982 25.9716 10.982L25.8638 11.0758Z" fill="#9E540A" stroke="black" stroke-width="0.0233439" stroke-linecap="round" stroke-linejoin="round"/>
<path d="M25.9445 10.9766C25.9445 10.8875 25.9117 10.8078 25.8555 10.7469C25.7805 10.6578 25.668 10.6297 25.5508 10.6484C25.4102 10.6719 25.2977 10.7562 25.2273 10.8875C25.1336 11.0609 25.1242 11.2484 25.1195 11.4312C25.1195 12.0641 25.143 12.3219 25.1617 12.9453C25.1664 13.1281 25.1992 13.5031 25.1148 13.7984C25.082 13.925 25.0445 14.0422 24.9883 14.1641C25.0258 14.0094 25.0445 13.9297 25.0633 13.8125C25.1148 13.5078 25.1008 13.2219 25.0914 12.9406C25.0727 12.3641 25.0398 12.0687 25.0211 11.3703C25.0164 11.1594 25.0352 11 25.1336 10.8312C25.2367 10.6578 25.4148 10.5312 25.6164 10.5312C25.7008 10.5312 25.7711 10.5453 25.8414 10.5875C25.982 10.6625 26.0477 10.8172 26.0477 10.9719L25.9445 10.9766Z" fill="#9E540A" stroke="#FCD116" stroke-width="0.12733" stroke-linecap="round" stroke-linejoin="round"/>
<path d="M25.9445 10.9766C25.9445 10.8875 25.9117 10.8078 25.8555 10.7469C25.7805 10.6578 25.668 10.6297 25.5508 10.6484C25.4102 10.6719 25.2977 10.7562 25.2273 10.8875C25.1336 11.0609 25.1242 11.2484 25.1195 11.4312C25.1195 12.0641 25.143 12.3219 25.1617 12.9453C25.1664 13.1281 25.1992 13.5031 25.1148 13.7984C25.082 13.925 25.0445 14.0422 24.9883 14.1641C25.0258 14.0094 25.0445 13.9297 25.0633 13.8125C25.1148 13.5078 25.1008 13.2219 25.0914 12.9406C25.0727 12.3641 25.0398 12.0687 25.0211 11.3703C25.0164 11.1594 25.0352 11 25.1336 10.8312C25.2367 10.6578 25.4148 10.5312 25.6164 10.5312C25.7008 10.5312 25.7711 10.5453 25.8414 10.5875C25.982 10.6625 26.0477 10.8172 26.0477 10.9719L25.9445 10.9766Z" fill="#9E540A"/>
<path d="M25.9715 13.2375C25.9715 13.2375 25.8402 13.4719 25.7418 13.6406C25.6434 13.8094 25.5637 13.8469 25.4887 13.7953C25.4184 13.7438 25.4793 13.6078 25.5355 13.5422C25.5918 13.4766 25.9059 13.1719 25.9059 13.1719L25.9715 13.2375Z" fill="#9E540A" stroke="black" stroke-width="0.0233439" stroke-linecap="round" stroke-linejoin="round"/>
<path d="M26.0038 13.2551C26.0038 13.2551 25.9522 13.5223 25.91 13.7145C25.8725 13.9066 25.8069 13.9723 25.7272 13.9488C25.6428 13.9301 25.6569 13.7754 25.6897 13.6957C25.7225 13.616 25.9194 13.2129 25.9194 13.2129L26.0038 13.2551Z" fill="#9E540A" stroke="black" stroke-width="0.0233439" stroke-linecap="round" stroke-linejoin="round"/>
<path d="M26.0629 13.2656V13.7344C26.0629 13.9312 26.016 14.0109 25.927 14.0062C25.8426 14.0016 25.8238 13.8516 25.8426 13.7625C25.8566 13.6781 25.9738 13.2422 25.9738 13.2422L26.0629 13.2656Z" fill="#9E540A" stroke="black" stroke-width="0.0233439" stroke-linecap="round" stroke-linejoin="round"/>
<path d="M26.3211 11.2688C26.3211 11.2688 26.6492 10.9922 26.9211 10.8047C27.193 10.6172 27.5211 10.3875 27.5211 10.3406C27.4695 10.3031 27.193 10.4813 26.8133 10.7109C26.4289 10.9453 26.2133 11.175 26.2133 11.175L26.3211 11.2688ZM26.3445 11.4563C26.3445 11.4563 26.6633 11.2641 26.9773 11.1281C27.3055 10.9922 27.7977 10.9922 27.8492 10.9453C27.8492 10.8984 27.2773 10.8703 26.8695 11.0344C26.4523 11.2266 26.2367 11.3625 26.2367 11.3625L26.3445 11.4563ZM26.3492 11.775C26.3492 11.775 26.6961 11.6156 27.0336 11.5406C27.3617 11.4656 27.8305 11.4938 27.8867 11.4516C27.8867 11.4047 27.3055 11.3109 26.8695 11.4516C26.4289 11.5875 26.2414 11.6813 26.2414 11.6813L26.3492 11.775ZM26.368 12.0984C26.368 12.0984 26.6305 11.9203 26.9773 11.8828C27.3055 11.85 27.7414 12.0984 27.7977 12.0516C27.7977 12.0047 27.418 11.7281 26.9445 11.775C26.4805 11.8219 26.2602 12.0047 26.2602 12.0047L26.368 12.0984ZM26.2602 11.0766C26.2602 11.0766 26.593 10.7719 26.593 10.5656C26.593 10.3828 26.3914 10.1016 26.3023 10.1016C26.3492 10.1953 26.5039 10.3828 26.5039 10.5656C26.5039 10.7531 26.1523 10.9828 26.1523 10.9828L26.2602 11.0766Z" fill="#9E540A" stroke="black" stroke-width="0.0233439" stroke-linecap="round" stroke-linejoin="round"/>
<path d="M26.2612 11.0758C26.2612 11.0758 26.1956 10.7711 26.1956 10.5648C26.1956 10.2883 26.3925 10.0352 26.3737 9.96484C26.3034 10.0352 26.1066 10.2414 26.1066 10.5648C26.1066 10.8461 26.1534 10.982 26.1534 10.982L26.2612 11.0758Z" fill="#9E540A" stroke="black" stroke-width="0.0233439" stroke-linecap="round" stroke-linejoin="round"/>
<path d="M26.1805 10.9766C26.1805 10.8875 26.2133 10.8078 26.2695 10.7469C26.3445 10.6578 26.457 10.6297 26.5742 10.6484C26.7148 10.6719 26.8273 10.7562 26.8977 10.8875C26.9914 11.0609 27.0008 11.2484 27.0055 11.4312C27.0055 12.0641 26.982 12.3219 26.9633 12.9453C26.9586 13.1281 26.9258 13.5031 27.0102 13.7984C27.043 13.925 27.0805 14.0422 27.1367 14.1641C27.0992 14.0094 27.0805 13.9297 27.0617 13.8125C27.0102 13.5078 27.0242 13.2219 27.0336 12.9406C27.0523 12.3641 27.0852 12.0687 27.1039 11.3703C27.1086 11.1594 27.0898 11 26.9914 10.8312C26.8883 10.6578 26.7102 10.5312 26.5086 10.5312C26.4242 10.5312 26.3539 10.5453 26.2836 10.5875C26.143 10.6625 26.0773 10.8172 26.0773 10.9719L26.1805 10.9766Z" fill="#9E540A" stroke="#FCD116" stroke-width="0.12733" stroke-linecap="round" stroke-linejoin="round"/>
<path d="M26.1805 10.9766C26.1805 10.8875 26.2133 10.8078 26.2695 10.7469C26.3445 10.6578 26.457 10.6297 26.5742 10.6484C26.7148 10.6719 26.8273 10.7562 26.8977 10.8875C26.9914 11.0609 27.0008 11.2484 27.0055 11.4312C27.0055 12.0641 26.982 12.3219 26.9633 12.9453C26.9586 13.1281 26.9258 13.5031 27.0102 13.7984C27.043 13.925 27.0805 14.0422 27.1367 14.1641C27.0992 14.0094 27.0805 13.9297 27.0617 13.8125C27.0102 13.5078 27.0242 13.2219 27.0336 12.9406C27.0523 12.3641 27.0852 12.0687 27.1039 11.3703C27.1086 11.1594 27.0898 11 26.9914 10.8312C26.8883 10.6578 26.7102 10.5312 26.5086 10.5312C26.4242 10.5312 26.3539 10.5453 26.2836 10.5875C26.143 10.6625 26.0773 10.8172 26.0773 10.9719L26.1805 10.9766Z" fill="#9E540A"/>
<path d="M26.1535 13.2375C26.1535 13.2375 26.2848 13.4719 26.3832 13.6406C26.4816 13.8094 26.5613 13.8469 26.6363 13.7953C26.7066 13.7438 26.6457 13.6078 26.5895 13.5422C26.5332 13.4766 26.2191 13.1719 26.2191 13.1719L26.1535 13.2375Z" fill="#9E540A" stroke="black" stroke-width="0.0233439" stroke-linecap="round" stroke-linejoin="round"/>
<path d="M26.1212 13.2551C26.1212 13.2551 26.1728 13.5223 26.215 13.7145C26.2525 13.9066 26.3181 13.9723 26.3978 13.9488C26.4822 13.9301 26.4681 13.7754 26.4353 13.6957C26.4025 13.616 26.2056 13.2129 26.2056 13.2129L26.1212 13.2551Z" fill="#9E540A" stroke="black" stroke-width="0.0233439" stroke-linecap="round" stroke-linejoin="round"/>
<path d="M26.0621 13.2656V13.7344C26.0621 13.9312 26.109 14.0109 26.198 14.0062C26.2824 14.0016 26.3012 13.8516 26.2824 13.7625C26.2684 13.6781 26.1512 13.2422 26.1512 13.2422L26.0621 13.2656Z" fill="#9E540A" stroke="black" stroke-width="0.0233439" stroke-linecap="round" stroke-linejoin="round"/>
<path d="M26.0602 13.2605C25.8117 13.2559 25.7883 13.1668 25.7883 13.1668C25.7883 13.1668 25.7555 13.0543 25.7508 12.984C25.7461 12.9746 25.6805 12.834 25.6992 12.773C25.6758 12.7168 25.6195 12.5809 25.6711 12.5574C25.6477 12.4918 25.6102 12.4168 25.6055 12.3465C25.5867 12.2949 25.5398 12.1824 25.5773 12.1449C25.5773 12.1449 25.4883 11.9574 25.5305 11.9105C25.5305 11.9105 25.4883 11.7277 25.5305 11.6809C25.5305 11.6809 25.5305 11.4934 25.5773 11.4465C25.5773 11.4465 25.5773 11.2637 25.6195 11.2168C25.6195 11.2262 25.7508 10.959 26.0602 10.959L26.0555 11.3574H26.0602V13.2605Z" fill="#9E540A" stroke="black" stroke-width="0.0233439" stroke-linecap="round" stroke-linejoin="round"/>
<path d="M26.0609 12.2379C25.6625 12.2332 25.5781 12.1441 25.5781 12.1441M26.0609 12.0035C25.6625 12.0035 25.5312 11.9098 25.5312 11.9098M26.0609 11.7738C25.6625 11.7691 25.5312 11.6801 25.5312 11.6801M26.0609 11.5395C25.6625 11.5348 25.5781 11.4457 25.5781 11.4457M26.0562 11.3566C26.0609 11.3566 25.7562 11.3566 25.7094 11.3098L25.6203 11.2207M26.0609 13.0723C25.9437 13.0723 25.8125 13.0535 25.7516 12.9832M26.0609 12.8848C25.8406 12.8848 25.7094 12.7957 25.7094 12.7957C25.7094 12.7957 25.7047 12.7863 25.7 12.7723M26.0609 12.6551C25.7703 12.6504 25.6906 12.5895 25.6719 12.5566M26.0609 12.4676C25.6625 12.4676 25.6203 12.3738 25.6203 12.3738L25.6062 12.3457" stroke="black" stroke-width="0.0233439" stroke-linecap="round" stroke-linejoin="round"/>
<path d="M26.0609 13.2605C26.3094 13.2559 26.3328 13.1668 26.3328 13.1668C26.3328 13.1668 26.3656 13.0543 26.3703 12.984C26.375 12.9746 26.4406 12.834 26.4219 12.773C26.4453 12.7168 26.5016 12.5809 26.45 12.5574C26.4734 12.4918 26.5109 12.4168 26.5156 12.3465C26.5344 12.2949 26.5813 12.1824 26.5438 12.1449C26.5438 12.1449 26.6328 11.9574 26.5906 11.9105C26.5906 11.9105 26.6328 11.7277 26.5906 11.6809C26.5906 11.6809 26.5906 11.4934 26.5438 11.4465C26.5438 11.4465 26.5438 11.2637 26.5016 11.2168C26.5016 11.2262 26.3703 10.959 26.0609 10.959L26.0656 11.3574H26.0609V13.2605Z" fill="#9E540A" stroke="black" stroke-width="0.0233439" stroke-linecap="round" stroke-linejoin="round"/>
<path d="M26.0602 12.2379C26.4586 12.2332 26.543 12.1441 26.543 12.1441M26.0602 12.0035C26.4586 12.0035 26.5898 11.9098 26.5898 11.9098M26.0602 11.7738C26.4586 11.7691 26.5898 11.6801 26.5898 11.6801M26.0602 11.5395C26.4586 11.5348 26.543 11.4457 26.543 11.4457M26.0648 11.3566C26.0602 11.3566 26.3648 11.3566 26.4117 11.3098L26.5008 11.2207M26.0602 13.0723C26.1773 13.0723 26.3086 13.0535 26.3695 12.9832M26.0602 12.8848C26.2805 12.8848 26.4117 12.7957 26.4117 12.7957C26.4117 12.7957 26.4164 12.7863 26.4211 12.7723M26.0602 12.6551C26.3508 12.6504 26.4305 12.5895 26.4492 12.5566M26.0602 12.4676C26.4586 12.4676 26.5008 12.3738 26.5008 12.3738L26.5148 12.3457" stroke="black" stroke-width="0.0233439" stroke-linecap="round" stroke-linejoin="round"/>
<path d="M24.187 17.5723C23.9854 17.7598 23.5963 17.6379 23.4745 17.5535C23.3479 17.5957 23.0104 17.4645 22.9213 17.3191C22.6776 17.352 22.5932 17.0051 22.6354 16.916C22.701 16.7848 22.5838 16.7004 22.6682 16.6113C22.7854 16.4988 22.6026 16.391 22.7151 16.316C22.8276 16.2363 22.687 16.1051 22.7995 16.0207C22.9166 15.9316 22.7385 15.8098 22.8604 15.7488C22.9823 15.6879 22.8463 15.5285 22.9495 15.4676C23.0526 15.4066 22.8885 15.252 23.0291 15.1816C23.1651 15.1113 23.0432 14.9895 23.151 14.9379C23.2682 14.877 23.1604 14.7504 23.2682 14.7082C23.3901 14.6566 23.301 14.5207 23.4041 14.4832C23.4932 14.4504 23.437 14.366 23.4932 14.291H24.187" fill="#009E49"/>
<path d="M24.187 17.5723C23.9854 17.7598 23.5963 17.6379 23.4745 17.5535C23.3479 17.5957 23.0104 17.4645 22.9213 17.3191C22.6776 17.352 22.5932 17.0051 22.6354 16.916C22.701 16.7848 22.5838 16.7004 22.6682 16.6113C22.7854 16.4988 22.6026 16.391 22.7151 16.316C22.8276 16.2363 22.687 16.1051 22.7995 16.0207C22.9166 15.9316 22.7385 15.8098 22.8604 15.7488C22.9823 15.6879 22.8463 15.5285 22.9495 15.4676C23.0526 15.4066 22.8885 15.252 23.0291 15.1816C23.1651 15.1113 23.0432 14.9895 23.151 14.9379C23.2682 14.877 23.1604 14.7504 23.2682 14.7082C23.3901 14.6566 23.301 14.5207 23.4041 14.4832C23.4932 14.4504 23.437 14.366 23.4932 14.291H24.187" stroke="black" stroke-width="0.0233439" stroke-linecap="round" stroke-linejoin="round"/>
<path d="M23.7235 14.3184C23.6298 14.4121 23.7423 14.4824 23.6485 14.5949C23.5501 14.7121 23.6392 14.773 23.5595 14.8762C23.4798 14.9793 23.597 15.0309 23.5079 15.148C23.4188 15.2605 23.5267 15.3309 23.4282 15.4246C23.3345 15.523 23.447 15.6074 23.3485 15.7105C23.2548 15.8184 23.3673 15.8887 23.2735 15.9824C23.1751 16.0809 23.2876 16.184 23.1938 16.2777C23.1001 16.3762 23.2126 16.498 23.1048 16.6105C23.0017 16.723 23.1235 16.8121 23.0392 16.8965C22.9501 16.9855 23.0298 17.0746 22.9688 17.1355C22.9079 17.1965 22.8985 17.2809 22.922 17.3184M23.9063 14.3512C23.822 14.4684 23.9532 14.5199 23.8735 14.6137C23.7938 14.7121 23.9063 14.7449 23.8454 14.8574C23.7845 14.9699 23.8923 14.998 23.8126 15.1105C23.7329 15.223 23.8548 15.3121 23.7704 15.4246C23.6813 15.5371 23.8126 15.598 23.7329 15.7105C23.6579 15.8277 23.7704 15.8887 23.7001 15.973C23.6298 16.0621 23.7517 16.1465 23.6626 16.2543C23.5782 16.3574 23.7001 16.4371 23.6298 16.5309C23.5595 16.6293 23.6579 16.7324 23.597 16.8121C23.536 16.8871 23.6392 17.0043 23.5501 17.1074C23.4657 17.2105 23.5688 17.2809 23.5173 17.3512C23.4657 17.4215 23.4235 17.5246 23.4751 17.5527" stroke="black" stroke-width="0.0233439" stroke-linecap="round" stroke-linejoin="round"/>
<path d="M24.188 17.5723C24.3896 17.7598 24.7787 17.6379 24.9005 17.5535C25.0271 17.5957 25.3646 17.4645 25.4537 17.3191C25.6974 17.352 25.7818 17.0051 25.7396 16.916C25.674 16.7848 25.7912 16.7004 25.7068 16.6113C25.5896 16.4988 25.7724 16.391 25.6599 16.316C25.5474 16.2363 25.688 16.1051 25.5755 16.0207C25.4584 15.9316 25.6365 15.8098 25.5146 15.7488C25.3927 15.6879 25.5287 15.5285 25.4255 15.4676C25.3224 15.4066 25.4865 15.252 25.3459 15.1816C25.2099 15.1113 25.3318 14.9895 25.224 14.9379C25.1068 14.877 25.2146 14.7504 25.1068 14.7082C24.9849 14.6566 25.074 14.5207 24.9709 14.4832C24.8818 14.4504 24.938 14.366 24.8818 14.291H24.188" fill="#009E49"/>
<path d="M24.188 17.5723C24.3896 17.7598 24.7787 17.6379 24.9005 17.5535C25.0271 17.5957 25.3646 17.4645 25.4537 17.3191C25.6974 17.352 25.7818 17.0051 25.7396 16.916C25.674 16.7848 25.7912 16.7004 25.7068 16.6113C25.5896 16.4988 25.7724 16.391 25.6599 16.316C25.5474 16.2363 25.688 16.1051 25.5755 16.0207C25.4584 15.9316 25.6365 15.8098 25.5146 15.7488C25.3927 15.6879 25.5287 15.5285 25.4255 15.4676C25.3224 15.4066 25.4865 15.252 25.3459 15.1816C25.2099 15.1113 25.3318 14.9895 25.224 14.9379C25.1068 14.877 25.2146 14.7504 25.1068 14.7082C24.9849 14.6566 25.074 14.5207 24.9709 14.4832C24.8818 14.4504 24.938 14.366 24.8818 14.291H24.188" stroke="black" stroke-width="0.0233439" stroke-linecap="round" stroke-linejoin="round"/>
<path d="M24.6515 14.3184C24.7452 14.4121 24.6327 14.4824 24.7265 14.5949C24.8249 14.7121 24.7358 14.773 24.8155 14.8762C24.8952 14.9793 24.778 15.0309 24.8671 15.148C24.9562 15.2605 24.8483 15.3309 24.9468 15.4246C25.0405 15.523 24.928 15.6074 25.0265 15.7105C25.1202 15.8184 25.0077 15.8887 25.1015 15.9824C25.1999 16.0809 25.0874 16.184 25.1812 16.2777C25.2749 16.3762 25.1624 16.498 25.2702 16.6105C25.3733 16.723 25.2515 16.8121 25.3358 16.8965C25.4249 16.9855 25.3452 17.0746 25.4062 17.1355C25.4671 17.1965 25.4765 17.2809 25.453 17.3184M24.4687 14.3512C24.553 14.4684 24.4218 14.5199 24.5015 14.6137C24.5812 14.7121 24.4687 14.7449 24.5296 14.8574C24.5905 14.9699 24.4827 14.998 24.5624 15.1105C24.6421 15.223 24.5202 15.3121 24.6046 15.4246C24.6937 15.5371 24.5624 15.598 24.6421 15.7105C24.7171 15.8277 24.6046 15.8887 24.6749 15.973C24.7452 16.0621 24.6233 16.1465 24.7124 16.2543C24.7968 16.3574 24.6749 16.4371 24.7452 16.5309C24.8155 16.6293 24.7171 16.7324 24.778 16.8121C24.839 16.8871 24.7358 17.0043 24.8249 17.1074C24.9093 17.2105 24.8062 17.2809 24.8577 17.3512C24.9093 17.4215 24.9515 17.5246 24.8999 17.5527" stroke="black" stroke-width="0.0233439" stroke-linecap="round" stroke-linejoin="round"/>
<path d="M24.1875 17.5723V14.291" stroke="#009E49" stroke-width="0.0233439" stroke-linecap="round" stroke-linejoin="round"/>
<path d="M24.1868 14.459C24.1446 14.6418 24.2477 14.8012 24.1868 14.9559C24.1259 15.1059 24.229 15.1668 24.1962 15.2887C24.1587 15.4105 24.2384 15.4996 24.1868 15.6309C24.1352 15.7621 24.2571 15.8652 24.1868 16.0387C24.1165 16.2074 24.2337 16.2496 24.1868 16.423C24.1352 16.6199 24.2759 16.723 24.1868 16.8637C24.0977 17.0043 24.2665 17.0371 24.1962 17.1965C24.1259 17.3512 24.2384 17.4121 24.1868 17.5715" stroke="black" stroke-width="0.0233439" stroke-linecap="round" stroke-linejoin="round"/>
<path d="M24.2578 15.0497C24.2344 15.1012 24.3281 15.2231 24.2766 15.3169C24.2203 15.4059 24.3047 15.5465 24.2484 15.659C24.1922 15.7715 24.3375 15.9122 24.2813 16.0434C24.2203 16.1747 24.3094 16.3387 24.2813 16.4606C24.2578 16.5825 24.3422 16.8169 24.2813 16.9012C24.2203 16.9903 24.3422 17.0137 24.2719 17.2294C24.2016 17.445 24.1547 17.2622 24.1969 17.1965C24.2859 17.0512 24.0984 17.0044 24.1875 16.8637C24.2766 16.7231 24.1359 16.62 24.1875 16.4231C24.2344 16.2497 24.1172 16.2075 24.1875 16.0387C24.2578 15.8653 24.1359 15.7622 24.1875 15.6309C24.2391 15.4997 24.1594 15.4106 24.1969 15.2887C24.2297 15.1669 24.1266 15.1059 24.1875 14.9559C24.2344 14.8059 24.2813 14.9981 24.2578 15.0497ZM23.8641 15.1997C23.8313 15.2559 23.9203 15.3637 23.8406 15.4715C23.7844 15.5465 23.8781 15.6356 23.7984 15.7434C23.7469 15.8184 23.85 15.9122 23.7797 16.02C23.7328 16.0809 23.8125 16.1981 23.7563 16.2872C23.7 16.3809 23.7844 16.4559 23.6859 16.5778C23.6297 16.6434 23.7281 16.8075 23.6672 16.859C23.6063 16.9106 23.6625 17.1122 23.6203 17.1403C23.5828 17.1731 23.6203 17.3184 23.5172 17.3512C23.5688 17.2809 23.4656 17.2106 23.55 17.1075C23.6391 17.0044 23.5359 16.8872 23.5969 16.8122C23.6578 16.7325 23.5594 16.6294 23.6297 16.5309C23.7 16.4372 23.5781 16.3575 23.6625 16.2544C23.7516 16.1465 23.6297 16.0622 23.7 15.9731C23.7703 15.8887 23.6578 15.8278 23.7328 15.7106C23.8125 15.5981 23.6813 15.5372 23.7703 15.4247C23.8547 15.3122 23.7328 15.2231 23.8125 15.1106C23.8922 14.9981 23.7844 14.97 23.8453 14.8575C23.9578 14.8997 23.9016 15.1434 23.8641 15.1997ZM23.6297 14.895C23.5828 14.97 23.6484 15.059 23.5781 15.1528C23.5078 15.2512 23.5781 15.3731 23.5078 15.4528C23.4375 15.5278 23.5266 15.6778 23.4375 15.7387C23.3484 15.7997 23.4047 15.9825 23.3344 16.0434C23.2641 16.1044 23.3344 16.2778 23.2547 16.3669C23.175 16.4559 23.2125 16.6387 23.1656 16.6809C23.1234 16.7231 23.2266 16.8122 23.1516 16.8731C23.0719 16.934 23.0719 17.0559 22.9688 17.1356C23.0297 17.0747 22.95 16.9856 23.0391 16.8965C23.1234 16.8122 23.0016 16.7231 23.1047 16.6106C23.2125 16.4981 23.1 16.3762 23.1938 16.2778C23.2875 16.184 23.175 16.0809 23.2734 15.9825C23.3672 15.8887 23.2547 15.8184 23.3484 15.7106C23.4469 15.6075 23.3344 15.5231 23.4281 15.4247C23.5266 15.3309 23.4188 15.2606 23.5078 15.1481C23.5969 15.0309 23.4797 14.9794 23.5594 14.8762C23.5969 14.8294 23.5969 14.7872 23.5969 14.7497C23.6531 14.6044 23.6531 14.8575 23.6297 14.895Z" fill="#FCD116" stroke="black" stroke-width="0.0233439" stroke-linecap="round" stroke-linejoin="round"/>
<path d="M23.5352 14.3988C23.5352 13.4145 23.6711 13.0723 24.1867 13.0723C24.7023 13.0723 24.8383 13.4145 24.8383 14.3988H23.5352Z" fill="#CE1126" stroke="black" stroke-width="0.0233439" stroke-linecap="round" stroke-linejoin="round"/>
<path d="M23.5352 14.3988C23.5352 13.4145 23.6711 13.0723 24.1867 13.0723C23.9523 13.0723 23.807 13.2551 23.7695 13.377C23.7273 13.4988 23.7508 13.4895 23.8023 13.4426C23.8539 13.3957 23.8305 13.4988 23.7836 13.5551C23.7414 13.6113 23.6992 13.7754 23.7602 13.7238C23.8211 13.6676 23.868 13.7285 23.8023 13.8223C23.7367 13.9113 23.6805 14.127 23.7461 14.052C23.8117 13.977 23.8258 14.0988 23.7836 14.1598C23.7461 14.2207 23.7508 14.277 23.7836 14.2488C23.8211 14.2207 23.8164 14.3473 23.7836 14.3988H23.5352ZM24.4305 14.3801C24.4305 14.2348 24.4352 13.8926 24.3555 13.7801C24.2992 13.691 24.2992 13.5973 24.3648 13.7004C24.4305 13.8035 24.4633 13.752 24.4164 13.6488C24.3602 13.5176 24.2852 13.3723 24.3039 13.3441C24.3273 13.3113 24.3414 13.3254 24.3883 13.3957C24.4352 13.466 24.4445 13.3629 24.393 13.2926C24.3414 13.227 24.3461 13.2129 24.4539 13.2598C24.6461 13.3395 24.7398 13.5691 24.7398 14.3426L24.4305 14.3801Z" fill="black" stroke="black" stroke-width="0.0233439" stroke-linecap="round" stroke-linejoin="round"/>
<path d="M24.187 14.5392C23.9808 14.5392 23.7558 14.5064 23.6058 14.4454C23.4277 14.3751 23.4183 14.3142 23.4792 14.2392C23.5261 14.1829 23.6199 14.2157 23.7136 14.2579C23.8027 14.2954 24.0558 14.3235 24.187 14.3235C24.3183 14.3235 24.5714 14.2954 24.6605 14.2532C24.7542 14.2157 24.848 14.1829 24.8949 14.2392C24.9558 14.3142 24.9464 14.3751 24.7683 14.4454C24.6183 14.5064 24.3933 14.5392 24.187 14.5392Z" fill="#CE1126" stroke="black" stroke-width="0.0233439" stroke-linecap="round" stroke-linejoin="round"/>
<path d="M6 3H18V12H6V3Z" fill="#012169"/>
<path d="M7.40625 3L11.9813 6.39375L16.5375 3H18V4.1625L13.5 7.51875L18 10.8563V12H16.5L12 8.64375L7.51875 12H6V10.875L10.4813 7.5375L6 4.2V3H7.40625Z" fill="white"/>
<path d="M13.95 8.26875L18 11.25V12L12.9188 8.26875H13.95ZM10.5 8.64375L10.6125 9.3L7.0125 12H6L10.5 8.64375ZM18 3V3.05625L13.3313 6.58125L13.3688 5.75625L17.0625 3H18ZM6 3L10.4813 6.3H9.35625L6 3.7875V3Z" fill="#C8102E"/>
<path d="M10.5188 3V12H13.5188V3H10.5188ZM6 6V9H18V6H6Z" fill="white"/>
<path d="M6 6.61875V8.41875H18V6.61875H6ZM11.1188 3V12H12.9188V3H11.1188Z" fill="#C8102E"/>
</g>
</g>
<defs>
<filter id="filter0_d_336_32666" x="0" y="-2" width="36" height="36" filterUnits="userSpaceOnUse" color-interpolation-filters="sRGB">
<feFlood flood-opacity="0" result="BackgroundImageFix"/>
<feColorMatrix in="SourceAlpha" type="matrix" values="0 0 0 0 0 0 0 0 0 0 0 0 0 0 0 0 0 0 127 0" result="hardAlpha"/>
<feOffset dy="4"/>
<feGaussianBlur stdDeviation="3"/>
<feComposite in2="hardAlpha" operator="out"/>
<feColorMatrix type="matrix" values="0 0 0 0 0 0 0 0 0 0 0 0 0 0 0 0 0 0 0.16 0"/>
<feBlend mode="normal" in2="BackgroundImageFix" result="effect1_dropShadow_336_32666"/>
<feBlend mode="normal" in="SourceGraphic" in2="effect1_dropShadow_336_32666" result="shape"/>
</filter>
<clipPath id="clip0_336_32666">
<rect width="24" height="18" fill="white" transform="translate(6 3)"/>
</clipPath>
</defs>
</svg>
