<svg width="36" height="31" viewBox="0 0 36 31" fill="none" xmlns="http://www.w3.org/2000/svg">
<g filter="url(#filter0_d_336_33073)">
<g clip-path="url(#clip0_336_33073)">
<path fill-rule="evenodd" clip-rule="evenodd" d="M6 3H30V21H6V3Z" fill="#4B92DB"/>
<path d="M19.4162 16.2069C19.351 16.2777 19.2794 16.3424 19.2025 16.4004C18.7255 15.9054 18.163 15.3609 17.6297 15.3609C17.299 15.3609 17.0627 15.6129 16.7837 15.7884C16.399 16.0359 15.8702 16.1754 15.418 15.9931C15.1622 15.9055 14.9351 15.75 14.761 15.5431C14.9525 15.6626 15.1695 15.735 15.3944 15.7546C15.6192 15.7741 15.8455 15.7402 16.0547 15.6556C16.498 15.4711 16.9525 15.2259 17.4587 15.2259C18.2057 15.2259 18.9167 15.7321 19.4162 16.2069ZM13.8902 14.6544C14.3852 15.2169 15.193 15.0369 15.8522 15.1764C15.9445 15.1989 16.0322 15.2281 16.1312 15.2124C16.0525 15.1629 15.9467 15.1561 15.8567 15.1224C15.3437 14.9289 15.265 14.3799 14.9837 14.0041C15.3437 14.2426 15.6385 14.5666 15.9737 14.8749C16.2101 15.0703 16.4959 15.1965 16.7995 15.2394C16.7275 15.2664 16.633 15.2619 16.552 15.2799C16.012 15.4149 15.4135 15.6264 14.8375 15.4374C14.4358 15.3034 14.0987 15.0242 13.8925 14.6544H13.8902ZM13.0982 13.3494C13.4065 14.0491 14.1827 14.1054 14.6957 14.5329C14.7877 14.6146 14.8898 14.6841 14.9995 14.7399L15.0062 14.7354C14.8794 14.6248 14.7654 14.5003 14.6665 14.3641C14.3717 13.9366 14.4685 13.3516 14.2412 12.8971C14.4523 13.1318 14.6275 13.3964 14.761 13.6824C14.9522 14.1369 15.0175 14.6566 15.4472 15.0031C14.9815 14.8501 14.446 14.8794 14.0297 14.6071C13.5887 14.3191 13.1815 13.8646 13.0982 13.3516V13.3494ZM12.7675 11.9364C12.8125 12.5529 13.465 12.8814 13.78 13.3876C13.8475 13.4956 13.915 13.6081 14.0117 13.6936C13.996 13.6284 13.9442 13.5699 13.9127 13.5069C13.8095 13.2794 13.7683 13.0287 13.7935 12.7801C13.8227 12.4651 13.9532 12.1726 13.9037 11.8419C14.1737 12.4246 14.086 13.1514 14.2412 13.7791C14.2772 13.9186 14.3605 14.0401 14.4122 14.1729C14.149 13.9704 13.8025 13.7904 13.5122 13.5654C13.2229 13.3573 12.997 13.073 12.8597 12.7441C12.7714 12.4846 12.7399 12.2091 12.7675 11.9364V11.9364ZM12.7855 10.8024C12.817 10.6651 12.8417 10.5234 12.9002 10.3974C12.7877 10.9779 13.1747 11.3964 13.3052 11.9004C13.3547 12.0894 13.3727 12.2896 13.4492 12.4674C13.456 12.4696 13.4627 12.4629 13.4672 12.4584C13.276 11.9229 13.5572 11.4279 13.8272 11.0071C13.8934 10.8917 13.9405 10.7663 13.9667 10.6359C13.996 10.8789 13.9442 11.1579 13.8992 11.4076C13.843 11.7294 13.7327 12.0309 13.645 12.3414C13.5975 12.5437 13.5936 12.7539 13.6337 12.9579L13.6045 12.9354C13.402 12.5619 13.0015 12.2694 12.8822 11.8599C12.7683 11.5197 12.7351 11.1576 12.7855 10.8024V10.8024ZM12.9992 10.1769C13.0066 9.76357 13.1578 9.36576 13.4267 9.05187C13.4335 9.04737 13.4402 9.04063 13.4492 9.04288C13.1657 9.47038 13.4245 10.0149 13.3862 10.5031L13.3502 11.0026C13.3547 11.0071 13.3547 11.0229 13.3682 11.0161C13.3862 10.9599 13.3907 10.9014 13.3997 10.8429C13.4672 10.4379 13.8227 10.1589 14.122 9.87538C14.1912 9.81003 14.245 9.7301 14.2795 9.64138C14.2547 9.84388 14.1985 10.0486 14.1085 10.2309C13.8767 10.6989 13.4312 11.0769 13.3502 11.6101C13.312 11.0994 12.9992 10.7191 12.9992 10.1769V10.1769ZM13.7417 8.69413C13.8711 8.53861 14.0432 8.4244 14.2367 8.36562C13.8655 8.61987 13.8857 9.07213 13.7732 9.45013C13.7327 9.58738 13.672 9.71787 13.6382 9.85962L13.6495 9.86862C13.7158 9.69844 13.8196 9.5454 13.9532 9.42087C14.212 9.17787 14.6012 9.02938 14.7295 8.67163C14.7227 9.16888 14.2997 9.54687 13.9127 9.83937C13.7405 9.96935 13.6004 10.1372 13.5032 10.3299C13.5167 10.1949 13.5257 10.0779 13.5122 9.94513C13.4717 9.51088 13.4447 9.02263 13.744 8.69413H13.7417ZM15.238 7.85938C14.9657 8.10012 14.7835 8.40837 14.572 8.68512C14.3987 8.91687 14.158 9.05862 13.9532 9.25212C14.0657 9.02262 14.0837 8.75712 14.2255 8.53437C14.4662 8.15187 14.8667 8.00337 15.238 7.85938V7.85938Z" fill="white"/>
<path d="M16.5916 16.2069C16.6568 16.2777 16.7284 16.3424 16.8053 16.4004C17.2823 15.9054 17.8448 15.3609 18.3781 15.3609C18.7088 15.3609 18.9451 15.6129 19.2241 15.7884C19.6088 16.0359 20.1376 16.1754 20.5898 15.9931C20.8456 15.9055 21.0727 15.75 21.2468 15.5431C21.0553 15.6626 20.8383 15.735 20.6134 15.7546C20.3886 15.7741 20.1623 15.7402 19.9531 15.6556C19.5098 15.4711 19.0553 15.2259 18.5491 15.2259C17.8021 15.2259 17.0911 15.7321 16.5916 16.2069ZM22.1176 14.6544C21.6226 15.2169 20.8148 15.0369 20.1556 15.1764C20.0633 15.1989 19.9756 15.2281 19.8766 15.2124C19.9553 15.1629 20.0611 15.1561 20.1511 15.1224C20.6641 14.9289 20.7428 14.3799 21.0241 14.0041C20.6641 14.2426 20.3693 14.5666 20.0341 14.8749C19.7978 15.0703 19.5119 15.1965 19.2083 15.2394C19.2803 15.2664 19.3748 15.2619 19.4558 15.2799C19.9958 15.4149 20.5943 15.6264 21.1703 15.4374C21.572 15.3034 21.9091 15.0242 22.1153 14.6544H22.1176ZM22.9096 13.3494C22.6013 14.0491 21.8251 14.1054 21.3121 14.5329C21.2201 14.6146 21.118 14.6841 21.0083 14.7399L21.0016 14.7354C21.1284 14.6248 21.2424 14.5003 21.3413 14.3641C21.6361 13.9366 21.5393 13.3516 21.7666 12.8971C21.5555 13.1318 21.3803 13.3964 21.2468 13.6824C21.0556 14.1369 20.9903 14.6566 20.5606 15.0031C21.0263 14.8501 21.5618 14.8794 21.9781 14.6071C22.4191 14.3191 22.8263 13.8646 22.9096 13.3516V13.3494ZM23.2403 11.9364C23.1953 12.5529 22.5428 12.8814 22.2278 13.3876C22.1603 13.4956 22.0928 13.6081 21.9961 13.6936C22.0118 13.6284 22.0636 13.5699 22.0951 13.5069C22.1984 13.2794 22.2395 13.0287 22.2143 12.7801C22.1851 12.4651 22.0546 12.1726 22.1041 11.8419C21.8341 12.4246 21.9218 13.1514 21.7666 13.7791C21.7306 13.9186 21.6473 14.0401 21.5956 14.1729C21.8588 13.9704 22.2053 13.7904 22.4956 13.5654C22.7849 13.3573 23.0108 13.073 23.1481 12.7441C23.2364 12.4846 23.2679 12.2091 23.2403 11.9364V11.9364ZM23.2223 10.8024C23.1908 10.6651 23.1661 10.5234 23.1076 10.3974C23.2201 10.9779 22.8331 11.3964 22.7026 11.9004C22.6531 12.0894 22.6351 12.2896 22.5586 12.4674C22.5518 12.4696 22.5451 12.4629 22.5406 12.4584C22.7318 11.9229 22.4506 11.4279 22.1806 11.0071C22.1144 10.8917 22.0673 10.7663 22.0411 10.6359C22.0118 10.8789 22.0636 11.1579 22.1086 11.4076C22.1648 11.7294 22.2751 12.0309 22.3628 12.3414C22.4103 12.5437 22.4142 12.7539 22.3741 12.9579L22.4033 12.9354C22.6058 12.5619 23.0063 12.2694 23.1256 11.8599C23.2396 11.5197 23.2727 11.1576 23.2223 10.8024V10.8024ZM23.0086 10.1769C23.0012 9.76357 22.85 9.36576 22.5811 9.05187C22.5743 9.04737 22.5676 9.04063 22.5586 9.04288C22.8421 9.47038 22.5833 10.0149 22.6216 10.5031L22.6576 11.0026C22.6531 11.0071 22.6531 11.0229 22.6396 11.0161C22.6216 10.9599 22.6171 10.9014 22.6081 10.8429C22.5406 10.4379 22.1851 10.1589 21.8858 9.87538C21.8166 9.81003 21.7628 9.7301 21.7283 9.64138C21.7531 9.84388 21.8093 10.0486 21.8993 10.2309C22.1311 10.6989 22.5766 11.0769 22.6576 11.6101C22.6958 11.0994 23.0086 10.7191 23.0086 10.1769V10.1769ZM22.2661 8.69413C22.1367 8.53861 21.9646 8.4244 21.7711 8.36562C22.1423 8.61987 22.1221 9.07213 22.2346 9.45013C22.2751 9.58738 22.3358 9.71787 22.3696 9.85962L22.3583 9.86862C22.292 9.69844 22.1882 9.5454 22.0546 9.42087C21.7958 9.17787 21.4066 9.02938 21.2783 8.67163C21.2851 9.16888 21.7081 9.54687 22.0951 9.83937C22.2673 9.96935 22.4074 10.1372 22.5046 10.3299C22.4911 10.1949 22.4821 10.0779 22.4956 9.94513C22.5361 9.51088 22.5631 9.02263 22.2638 8.69413H22.2661ZM20.7698 7.85938C21.0421 8.10012 21.2243 8.40837 21.4358 8.68512C21.6091 8.91687 21.8498 9.05862 22.0546 9.25212C21.9421 9.02262 21.9241 8.75712 21.7823 8.53437C21.5416 8.15187 21.1411 8.00337 20.7698 7.85938V7.85938Z" fill="white"/>
<path d="M21.3392 12.8252L21.2605 12.7802C21.0894 13.1317 20.8628 13.4534 20.5892 13.7327L20.1205 13.2602C20.347 13.0262 20.5333 12.7563 20.6717 12.4614L20.593 12.4164C20.4575 12.7046 20.275 12.9682 20.053 13.1964L19.6255 12.7689C19.8065 12.5819 19.9536 12.365 20.0605 12.1277L19.9817 12.0827C19.8789 12.313 19.7368 12.5236 19.5617 12.7052L19.093 12.2364C19.2219 12.0993 19.3237 11.9389 19.393 11.7639L19.3142 11.7189C19.2487 11.8857 19.1519 12.0384 19.0292 12.1689L18.598 11.7414C18.719 11.6067 18.7905 11.4348 18.8005 11.2539H19.408C19.4034 11.4131 19.3717 11.5704 19.3142 11.7189L19.393 11.7639C19.4576 11.6014 19.4931 11.4288 19.498 11.2539H20.1655C20.1587 11.5399 20.0949 11.8216 19.978 12.0827L20.0605 12.1277C20.1833 11.8524 20.2497 11.5553 20.2555 11.2539H20.863C20.8562 11.6562 20.7642 12.0524 20.593 12.4164L20.6717 12.4614C20.8491 12.0833 20.9437 11.6716 20.9492 11.2539H21.6205C21.6142 11.783 21.4913 12.3041 21.2605 12.7802L21.3392 12.8252C21.5846 12.323 21.7128 11.7716 21.7142 11.2127C21.7147 10.7359 21.623 10.2635 21.4442 9.82143L21.3617 9.85893C21.5298 10.2751 21.6188 10.7189 21.6242 11.1677H20.953C20.9489 10.808 20.879 10.4521 20.7467 10.1177L20.6642 10.1552C20.7928 10.4775 20.8614 10.8207 20.8667 11.1677H20.2517C20.2475 10.9034 20.1967 10.6419 20.1017 10.3952L20.0192 10.4327C20.1091 10.6675 20.1574 10.9163 20.1617 11.1677H19.5017C19.4974 11.0064 19.467 10.8468 19.4117 10.6952L19.3292 10.7327C19.3795 10.8724 19.4074 11.0192 19.4117 11.1677H18.8042C18.7942 10.9869 18.7228 10.8149 18.6017 10.6802L19.033 10.2489C19.1633 10.3872 19.2641 10.5505 19.3292 10.7289L19.4117 10.6952C19.3424 10.5056 19.2352 10.3321 19.0967 10.1852L19.5692 9.71269C19.7681 9.91982 19.9237 10.1646 20.0267 10.4327L20.1092 10.3952C20.0004 10.117 19.8372 9.8633 19.6292 9.64894L20.0605 9.22144C20.3215 9.49113 20.5267 9.80973 20.6642 10.1589L20.7467 10.1214C20.6033 9.76216 20.3905 9.43467 20.1205 9.15769L20.593 8.68519C20.9236 9.02235 21.1848 9.42114 21.3617 9.85893L21.4442 9.82143C21.2571 9.36068 20.9791 8.94235 20.6267 8.59144C20.274 8.2368 19.853 7.95742 19.3892 7.77019L19.3592 7.85644C19.7967 8.03228 20.1955 8.29218 20.533 8.62143L20.0605 9.09394C19.788 8.82996 19.4672 8.62113 19.1155 8.47894L19.078 8.56144C19.4202 8.70003 19.7322 8.90381 19.9967 9.16144L19.5692 9.58894C19.3635 9.39003 19.1216 9.23221 18.8567 9.12394L18.8267 9.20644C19.0775 9.31021 19.3065 9.46033 19.5017 9.64894L19.033 10.1214C18.9019 9.99754 18.7494 9.89844 18.583 9.82894L18.5492 9.91518C18.7042 9.97934 18.8465 10.0708 18.9692 10.1852L18.5342 10.6127C18.3995 10.4916 18.2275 10.4202 18.0467 10.4102V9.80268C18.2182 9.80812 18.3873 9.84498 18.5455 9.91144L18.5792 9.82894C18.4104 9.75783 18.2298 9.71842 18.0467 9.71269V9.04519C18.313 9.04939 18.5761 9.10279 18.823 9.20269L18.8567 9.12019C18.5992 9.01563 18.3246 8.95969 18.0467 8.95519V8.34769C18.4005 8.35315 18.7502 8.42436 19.078 8.55769L19.108 8.47519C18.7705 8.33894 18.4106 8.26647 18.0467 8.26144V7.59019C18.4955 7.5956 18.9393 7.68462 19.3555 7.85269L19.3855 7.76644C18.9453 7.59117 18.4755 7.50206 18.0017 7.50394C17.4264 7.5028 16.8587 7.63636 16.3442 7.89394L16.3817 7.96894C16.8714 7.72597 17.4101 7.59773 17.9567 7.59394V8.26144C17.518 8.26675 17.0862 8.37056 16.693 8.56518L16.7342 8.64018C17.1148 8.4528 17.5325 8.35286 17.9567 8.34769V8.95519C17.6316 8.96121 17.3117 9.03799 17.0192 9.18019L17.0567 9.25894C17.3377 9.12342 17.6448 9.05049 17.9567 9.04519V9.71269C17.7528 9.71934 17.5524 9.76784 17.368 9.85519L17.4055 9.93019C17.5786 9.85068 17.7662 9.80729 17.9567 9.80268V10.4102C17.8665 10.4152 17.7777 10.4355 17.6942 10.4702L17.7317 10.5452C17.8177 10.5116 17.9094 10.495 18.0017 10.4964C18.0949 10.4961 18.1873 10.5141 18.2735 10.5495C18.3597 10.5849 18.4381 10.637 18.5042 10.7027C18.5715 10.7693 18.6248 10.8488 18.6609 10.9364C18.6969 11.024 18.7151 11.118 18.7142 11.2127C18.7142 11.4017 18.6392 11.5829 18.5055 11.7165C18.3719 11.8501 18.1907 11.9252 18.0017 11.9252C17.9083 11.925 17.8157 11.9064 17.7295 11.8704C17.6433 11.8343 17.565 11.7816 17.4992 11.7152C17.4328 11.6494 17.3801 11.5712 17.344 11.4849C17.308 11.3987 17.2894 11.3062 17.2892 11.2127C17.2889 11.1186 17.3072 11.0254 17.3433 10.9384C17.3794 10.8515 17.4324 10.7727 17.4992 10.7064C17.5658 10.6404 17.6449 10.5881 17.7317 10.5527L17.6905 10.4739C17.6081 10.5086 17.532 10.5567 17.4655 10.6164L17.038 10.1852C17.1475 10.0821 17.2728 9.99729 17.4092 9.93393L17.368 9.85893C17.2237 9.92505 17.0908 10.0137 16.9742 10.1214L16.5017 9.64894C16.6654 9.49194 16.8527 9.36161 17.0567 9.26269L17.0192 9.18769C16.807 9.29055 16.6122 9.42594 16.4417 9.58894L16.0105 9.15019C16.2238 8.94366 16.468 8.7716 16.7342 8.64018L16.6967 8.56518C16.421 8.70027 16.168 8.87738 15.9467 9.09019L15.4742 8.61394C15.7428 8.35314 16.0502 8.13556 16.3855 7.96894L16.3442 7.89019C15.6203 8.25414 15.0346 8.84385 14.6755 9.57019L14.7505 9.60769C14.92 9.26478 15.1427 8.95089 15.4105 8.67768L15.8867 9.15394C15.665 9.38183 15.4814 9.64393 15.343 9.93019L15.418 9.97143C15.552 9.69196 15.7306 9.43613 15.9467 9.21394L16.378 9.64144C16.2033 9.82266 16.06 10.0318 15.9542 10.2602L16.0292 10.3014C16.1321 10.0809 16.2716 9.87927 16.4417 9.70519L16.9142 10.1777C16.7912 10.3066 16.6922 10.4565 16.6217 10.6202L16.7005 10.6652C16.7654 10.5085 16.8581 10.365 16.9742 10.2414L17.4055 10.6689C17.2839 10.8048 17.2124 10.9781 17.203 11.1602H16.5955C16.6003 10.9902 16.6358 10.8225 16.7005 10.6652L16.6255 10.6202C16.5521 10.7911 16.5114 10.9743 16.5055 11.1602H15.838C15.8432 10.8636 15.9096 10.5712 16.033 10.3014L15.958 10.2639C15.8266 10.5449 15.7551 10.8501 15.748 11.1602H15.1405C15.1472 10.7483 15.2432 10.3427 15.4217 9.97143L15.343 9.93019C15.1584 10.3143 15.0598 10.7341 15.0542 11.1602H14.383C14.3895 10.6227 14.5164 10.0935 14.7542 9.61144L14.6755 9.57019C14.4239 10.0785 14.293 10.638 14.293 11.2052C14.2929 11.5593 14.3434 11.9116 14.443 12.2514L14.5292 12.2289C14.436 11.9109 14.3868 11.5816 14.383 11.2502H15.0542C15.0573 11.5259 15.099 11.7998 15.178 12.0639L15.2642 12.0414C15.1861 11.7848 15.1445 11.5184 15.1405 11.2502H15.7517C15.7553 11.4691 15.7907 11.6864 15.8567 11.8952L15.9467 11.8727C15.8815 11.6714 15.8462 11.4617 15.8417 11.2502H16.5017C16.5065 11.4062 16.5356 11.5606 16.588 11.7077L16.6742 11.6852C16.624 11.5454 16.5961 11.3986 16.5917 11.2502H17.1992C17.2092 11.431 17.2807 11.603 17.4017 11.7377L16.9705 12.1689C16.8398 12.0295 16.739 11.8649 16.6742 11.6852L16.588 11.7077C16.6577 11.9033 16.7675 12.0821 16.9105 12.2327L16.4342 12.7052C16.2082 12.4688 16.039 12.1841 15.9392 11.8727L15.8492 11.8952C15.9548 12.2229 16.1345 12.5218 16.3742 12.7689L15.9467 13.2002C15.6317 12.8748 15.399 12.4788 15.268 12.0452L15.1817 12.0677C15.3165 12.5168 15.5569 12.927 15.883 13.2639L15.4142 13.7364C15.0017 13.3149 14.6991 12.7986 14.533 12.2327L14.443 12.2552C14.6179 12.8507 14.9403 13.3925 15.3805 13.8302C15.6779 14.1291 16.0241 14.3751 16.4042 14.5577L16.4492 14.4789C16.089 14.308 15.7596 14.0787 15.4742 13.8002L15.9467 13.3277C16.1889 13.561 16.4692 13.7513 16.7755 13.8902L16.8205 13.8152C16.5208 13.6794 16.2468 13.4929 16.0105 13.2639L16.438 12.8364C16.6361 13.0269 16.8674 13.1794 17.1205 13.2864L17.1655 13.2077C16.9193 13.1049 16.6942 12.9574 16.5017 12.7727L16.9742 12.3002C17.1252 12.4418 17.304 12.5503 17.4992 12.6189L17.5405 12.5402C17.3534 12.4755 17.1822 12.372 17.038 12.2364L17.4692 11.8052C17.6039 11.9262 17.7759 11.9977 17.9567 12.0077V12.6152C17.8162 12.6109 17.6772 12.5857 17.5442 12.5402L17.4955 12.6152C17.6435 12.6694 17.7992 12.6997 17.9567 12.7052V13.3727C17.6849 13.3681 17.4165 13.3121 17.1655 13.2077L17.1205 13.2827C17.3851 13.3956 17.669 13.4567 17.9567 13.4627V14.0702C17.5645 14.0643 17.1776 13.9775 16.8205 13.8152L16.7755 13.8902C17.1462 14.0612 17.5485 14.1532 17.9567 14.1602V14.8277C17.4349 14.8221 16.9205 14.7031 16.4492 14.4789L16.4042 14.5539C16.9028 14.7932 17.4487 14.9175 18.0017 14.9177C18.5942 14.9177 19.1642 14.7789 19.6742 14.5202L19.6292 14.4377C19.1386 14.6872 18.5971 14.8206 18.0467 14.8277V14.1564C18.4898 14.1502 18.9256 14.0438 19.3217 13.8452L19.2842 13.7664C18.8998 13.9589 18.4766 14.0614 18.0467 14.0664V13.4664C18.3806 13.4589 18.7086 13.3769 19.0067 13.2264L18.9655 13.1477C18.6797 13.2899 18.3659 13.3667 18.0467 13.3727V12.7052C18.2588 12.6993 18.4672 12.6482 18.658 12.5552L18.6205 12.4727C18.4416 12.5605 18.2459 12.6091 18.0467 12.6152V12.0077C18.2275 11.9977 18.3995 11.9262 18.5342 11.8052L18.9655 12.2364C18.8617 12.3322 18.7441 12.4118 18.6167 12.4727L18.658 12.5552C18.7938 12.4894 18.919 12.4034 19.0292 12.3002L19.5017 12.7689C19.3432 12.9216 19.1624 13.0493 18.9655 13.1477L19.003 13.2264C19.2094 13.1246 19.3991 12.9918 19.5655 12.8327L19.993 13.2602C19.7827 13.4643 19.5424 13.6351 19.2805 13.7664L19.3255 13.8452C19.5944 13.7098 19.841 13.534 20.0567 13.3239L20.5255 13.7964C20.2611 14.0545 19.9588 14.2707 19.6292 14.4377L19.6742 14.5202C20.025 14.3419 20.3453 14.109 20.623 13.8302C20.9161 13.5375 21.1582 13.1978 21.3392 12.8252V12.8252Z" fill="white"/>
<path d="M18.2137 10.3501H18.1912V10.3763H18.2137V10.3501ZM18.1575 10.3126H18.1875V10.3351H18.1575V10.3126ZM18.105 10.3051L18.1275 10.3088L18.1312 10.2863H18.105V10.3051ZM18.0825 10.2976H18.0562V10.2713L18.0862 10.2751L18.0825 10.2976ZM17.865 10.2676H17.895V10.2901H17.865V10.2676ZM17.8012 10.3126L17.8275 10.3163V10.2938H17.805L17.8012 10.3126ZM17.8012 10.3501L17.775 10.3388V10.3163L17.8087 10.3276L17.8012 10.3501ZM17.7487 10.3763V10.3538L17.7675 10.3501L17.7712 10.3726L17.7487 10.3763ZM14.8012 12.6863V12.6676H14.7825V12.7051H14.8125V12.7538H14.835V12.6976L14.8012 12.6863ZM15.0825 13.0238L15.045 12.9863L15.0112 12.9451L14.9962 12.9076L14.97 12.8401L15.0262 12.8701L15.045 12.9226L15.0712 12.9413L15.0975 12.9976L15.0825 13.0238ZM15.8587 14.0401L15.855 14.0063L15.8212 13.9613L15.87 13.9688L15.915 14.0101L15.9375 14.0588L15.9075 14.0738L15.8962 14.0513L15.8587 14.0401ZM17.8837 10.5938H17.8462L17.835 10.5113L17.8575 10.4963V10.4551H17.7262V10.4138L17.7412 10.4026L17.7112 10.3913L17.6887 10.4213L17.6812 10.4551L17.6437 10.4626V10.4813H17.6175V10.5301L17.5125 10.6163L17.3025 10.6088C17.2912 10.6463 17.2537 10.6088 17.2537 10.6088C17.2425 10.5826 17.1937 10.6088 17.1937 10.6088C17.1937 10.6463 17.1187 10.5863 17.1187 10.5863L16.9912 10.4926C16.9162 10.4251 16.8037 10.5113 16.8 10.5301C16.8 10.5826 16.7137 10.5413 16.7137 10.5413C16.7137 10.5413 16.6387 10.5188 16.6275 10.5488C16.6162 10.5788 16.5675 10.5713 16.5675 10.5713L16.56 10.5863L16.5225 10.5938L16.515 10.6163L16.47 10.6238H16.5825C16.6125 10.6163 16.5712 10.6876 16.5525 10.6838H16.5L16.4812 10.7063H16.4325L16.41 10.7363L16.3387 10.7326C16.3387 10.7326 16.3012 10.7663 16.3012 10.7776C16.305 10.7888 16.2937 10.8226 16.2825 10.8226C16.2712 10.8226 16.2487 10.8601 16.2562 10.8676C16.2637 10.8788 16.2337 10.9163 16.2337 10.9163L16.2262 10.9538L16.2037 10.9651V11.0663L16.1587 11.0963V11.1413L16.0912 11.2163L16.0987 11.2726L16.0425 11.3363L16.05 11.3963L16.0162 11.4076L16.0087 11.4338L15.9937 11.5126L16.0312 11.5163C16.05 11.5088 16.0462 11.5651 16.0312 11.5763C16.0162 11.5838 15.975 11.5988 15.9975 11.6138C16.02 11.6288 15.9375 11.6251 15.9375 11.6026C15.9375 11.5763 15.8925 11.5576 15.8812 11.5651C15.87 11.5726 15.8512 11.5313 15.8512 11.5313C15.8137 11.4938 15.6862 11.5351 15.6862 11.5351L15.6675 11.5988C15.6262 11.6026 15.6 11.6738 15.6 11.6738C15.5625 11.6851 15.54 11.7263 15.5512 11.7376C15.5625 11.7488 15.5325 11.7526 15.5325 11.7526V11.8351L15.5137 11.8613V11.9551C15.54 11.9551 15.5362 11.9926 15.5362 11.9926C15.4987 12.0001 15.5062 12.0488 15.5062 12.0488L15.4275 12.0751L15.4125 12.0976H15.315L15.2887 12.1201L15.2625 12.0938H15.075L15.0675 12.0751L15.03 12.0676V12.0263H14.97L14.9587 12.0526L14.8987 12.0563C14.9025 12.0938 14.8387 12.1501 14.8312 12.1351C14.8237 12.1201 14.7825 12.0788 14.8012 12.0713C14.8233 12.0647 14.8459 12.0597 14.8687 12.0563V12.0301L14.73 12.0263L14.715 12.0488L14.6587 12.0526V12.1126L14.6325 12.1201C14.6137 12.1313 14.6362 12.1726 14.6362 12.1726C14.6625 12.1988 14.6362 12.2438 14.6362 12.2438C14.61 12.2663 14.6512 12.3076 14.6512 12.3076C14.6812 12.3151 14.6325 12.3376 14.6325 12.3376C14.64 12.3751 14.6625 12.3863 14.6625 12.3863C14.64 12.4238 14.6775 12.4426 14.6775 12.4426L14.6812 12.5063L14.7075 12.5213V12.5663L14.7225 12.5926H14.7825V12.4951C14.7262 12.4351 14.8237 12.4201 14.8275 12.4426C14.8312 12.4651 14.8725 12.4801 14.8725 12.4801C14.88 12.5363 14.9475 12.5701 14.9625 12.5101C14.9812 12.4538 15 12.4876 15.0075 12.5138C15.0187 12.5438 15.09 12.6076 15.09 12.6076H15.1462L15.1537 12.6601C15.2175 12.6563 15.2362 12.6601 15.2625 12.7501C15.2688 12.7752 15.2809 12.7984 15.2978 12.8179C15.3147 12.8375 15.336 12.8528 15.36 12.8626L15.4125 12.8588C15.4125 12.8101 15.465 12.8663 15.465 12.8888C15.465 12.9113 15.5662 12.9976 15.5662 12.9976L15.6675 13.0201L15.7612 13.0951L15.8325 13.0876H15.8625C15.8812 13.0238 15.9712 13.0913 15.975 13.1138C15.9825 13.1363 16.0425 13.1776 16.05 13.1588C16.0575 13.1401 16.0987 13.1513 16.1062 13.2076C16.1137 13.2638 16.1437 13.2526 16.1437 13.2526L16.3537 13.2488L16.4287 13.1851L16.62 13.1813C16.7175 13.1776 16.6575 13.0426 16.6387 13.0426C16.605 13.0163 16.65 12.9076 16.65 12.9076L16.3762 12.6526C16.3125 12.6526 16.3687 12.5626 16.3687 12.5626C16.4175 12.5326 16.3575 12.4801 16.3575 12.4801C16.365 12.4351 16.3312 12.3826 16.3312 12.3826C16.2637 12.3376 16.2825 12.2513 16.2825 12.2513V12.1876C16.2262 12.1351 16.305 12.1276 16.305 12.1276C16.3312 12.0826 16.2862 12.0488 16.2862 12.0488V12.0001L16.2225 11.9926L16.215 11.8126L16.08 11.6213C16.0537 11.6138 16.0725 11.5651 16.0725 11.5651C16.11 11.5463 16.065 11.5013 16.065 11.5013V11.4188L16.14 11.4113L16.1587 11.3813H16.1962V11.2838C16.2112 11.2313 16.2562 11.2576 16.2562 11.2576L16.3087 11.2613L16.3387 11.2051L16.3462 11.1601H16.3087C16.26 11.1301 16.2825 11.0326 16.2825 11.0326C16.3575 10.9238 16.4362 10.9876 16.4362 10.9876L16.4887 10.9838C16.5675 11.0363 16.4962 11.1338 16.4962 11.1338C16.4812 11.1563 16.4887 11.2276 16.4887 11.2276L16.5075 11.3513L16.4587 11.3888C16.4212 11.4151 16.4212 11.4676 16.4625 11.4788C16.4925 11.4826 16.4812 11.5538 16.4362 11.5051C16.3687 11.5051 16.4737 11.5651 16.4437 11.5501C16.5112 11.5876 16.4962 11.5201 16.4962 11.5201L16.5862 11.4488C16.6237 11.4226 16.68 11.5051 16.68 11.5163C16.68 11.5276 16.83 11.5201 16.83 11.5201C16.8675 11.5463 16.8862 11.6176 16.8862 11.6176C16.9237 11.5613 17.0137 11.6138 16.95 11.6438C17.01 11.6813 17.01 11.7151 17.01 11.7151C17.0587 11.7001 17.0587 11.7376 17.0587 11.7488L17.0737 11.6926C17.0175 11.6513 17.1487 11.6363 17.1112 11.7113L17.0887 11.7451L17.1262 11.7751V11.8613C17.2125 11.8538 17.19 11.7526 17.19 11.7526L17.2275 11.7451C17.2275 11.7076 17.2537 11.7301 17.2537 11.7301C17.2275 11.6026 17.3137 11.5801 17.3137 11.5801C17.3625 11.5651 17.3662 11.4638 17.3662 11.4638C17.3287 11.4488 17.3512 11.3963 17.3887 11.4413C17.4262 11.4863 17.3662 11.3513 17.3662 11.3513L17.3362 11.3251L17.295 11.3213L17.2912 11.2801H17.2237L17.2125 11.3326L17.1862 11.3401L17.1787 11.3251L17.1675 11.3626H17.1L17.0962 11.3213L17.1337 11.3101L17.1525 11.2876L17.1637 11.2238H17.2125L17.2762 11.2051C17.2762 11.1413 17.3137 11.1563 17.3137 11.1563L17.3362 11.1751L17.37 11.2013V11.2238L17.3512 11.2351L17.3475 11.2651L17.3587 11.3101H17.385C17.3962 11.2463 17.475 11.2463 17.4975 11.2876L17.52 11.2313C17.4675 11.2051 17.52 11.1638 17.535 11.1826C17.55 11.2013 17.5837 11.1338 17.5837 11.1338C17.5837 11.1338 17.61 11.1713 17.5837 11.1226C17.5575 11.0776 17.6025 11.0551 17.6025 11.0551C17.595 11.0101 17.6512 11.0176 17.6512 11.0176L17.655 10.9538H17.6025C17.5912 11.0063 17.5462 10.9576 17.5687 10.9463C17.5912 10.9351 17.6137 10.9126 17.6137 10.9126V10.8751L17.6362 10.8676L17.64 10.8301H17.6962L17.745 10.8076L17.7562 10.7888L17.8087 10.7851L17.8837 10.7176L17.8762 10.6876C17.8312 10.6876 17.8762 10.6501 17.8762 10.6501L17.8837 10.5938V10.5938Z" fill="white"/>
<path d="M16.3763 11.3473L16.3088 11.3398L16.3125 11.3661H16.3313C16.3613 11.4186 16.335 11.5461 16.335 11.5461C16.335 11.5461 16.29 11.5498 16.2825 11.5273C16.275 11.5048 16.2563 11.5761 16.2713 11.5911C16.2863 11.6023 16.3388 11.5911 16.3463 11.6286C16.3463 11.6736 16.3763 11.6061 16.3763 11.6061V11.3436V11.3473Z" fill="white"/>
<path d="M16.3761 11.6706L16.3986 11.6669L16.4023 11.6406L16.3461 11.6781L16.3086 11.6556V11.7456L16.3686 11.8244L16.3911 11.7719L16.3986 11.7381L16.3723 11.7269L16.3761 11.6706ZM16.4061 11.9106V11.8731H16.3798V11.9069L16.4061 11.9106ZM16.3723 12.0906V12.0644L16.3423 12.0681V12.0944L16.3723 12.0906ZM16.4173 11.9744C16.4218 11.9744 16.4261 11.9726 16.4293 11.9694C16.4324 11.9663 16.4342 11.962 16.4342 11.9575C16.4342 11.953 16.4324 11.9487 16.4293 11.9456C16.4261 11.9424 16.4218 11.9406 16.4173 11.9406C16.415 11.9406 16.4127 11.941 16.4106 11.942C16.4085 11.943 16.4066 11.9444 16.4052 11.9462C16.4037 11.9481 16.4027 11.9502 16.4022 11.9525C16.4017 11.9548 16.4018 11.9571 16.4023 11.9594C16.4023 11.9669 16.4098 11.9744 16.4173 11.9744Z" fill="white"/>
<path d="M16.4447 12.0534C16.453 12.0534 16.4597 12.0467 16.4597 12.0384C16.4597 12.0302 16.453 12.0234 16.4447 12.0234C16.4364 12.0234 16.4297 12.0302 16.4297 12.0384C16.4297 12.0467 16.4364 12.0534 16.4447 12.0534Z" fill="white"/>
<path d="M16.4447 11.6179C16.453 11.6179 16.4597 11.6112 16.4597 11.6029C16.4597 11.5946 16.453 11.5879 16.4447 11.5879C16.4364 11.5879 16.4297 11.5946 16.4297 11.6029C16.4297 11.6112 16.4364 11.6179 16.4447 11.6179Z" fill="white"/>
<path d="M17.7139 11.0447L17.6764 11.0409L17.6652 11.0597H17.6464V11.0897H17.6652L17.6689 11.1122L17.6539 11.1272L17.6464 11.1459L17.6164 11.1534L17.5489 11.2172V11.2472L17.5264 11.2734L17.5039 11.3334H17.4289L17.4102 11.4047L17.4214 11.4609L17.4889 11.4872L17.4964 11.4497L17.5189 11.4384L17.5227 11.4009L17.5377 11.3747L17.5602 11.3484L17.5677 11.3184L17.6052 11.2959L17.6502 11.2847L17.6689 11.2622L17.6764 11.2172V11.1834L17.6952 11.1609L17.7402 11.1422V11.0672H17.7177L17.7139 11.0447ZM17.8189 11.3034V11.2472L17.8114 11.1984L17.7552 11.1722L17.7177 11.2097L17.7064 11.2622V11.2997L17.6689 11.3072L17.6614 11.4084L17.6314 11.4197L17.6352 11.4572L17.5977 11.4684L17.5527 11.4797L17.5452 11.5284L17.5152 11.5472L17.5002 11.5959L17.4814 11.7047C17.4814 11.7047 17.5189 11.7684 17.5339 11.7384C17.5527 11.7084 17.5827 11.7009 17.5827 11.7009L17.5939 11.6784H17.6952C17.7027 11.6409 17.7514 11.6559 17.7514 11.6747C17.7514 11.6934 17.7889 11.6747 17.7889 11.6747L17.8152 11.6372H17.8564L17.8602 11.5884L17.8789 11.5772V11.5134C17.9389 11.4947 17.9314 11.4384 17.9314 11.4384L17.9464 11.4197L17.9389 11.3934C17.9089 11.3822 17.9239 11.3559 17.9427 11.3634C17.9614 11.3709 17.9164 11.3259 17.9164 11.3259C17.8939 11.3484 17.8789 11.3072 17.8789 11.3072H17.8189V11.3034ZM17.8789 11.7609C17.8789 11.8059 17.8189 11.8209 17.8189 11.8209L17.7814 11.8097L17.7552 11.7909V11.7384L17.7852 11.7347L17.7927 11.7572L17.8789 11.7609ZM18.0814 11.5172C18.0889 11.5547 18.0889 11.4647 18.1039 11.4684C18.1189 11.4722 18.1077 11.4159 18.1077 11.4159L18.0402 11.4647C18.0739 11.4684 18.0777 11.5022 18.0814 11.5172V11.5172ZM18.2802 11.3222C18.2952 11.3559 18.2914 11.4047 18.3477 11.4422C18.3664 11.4534 18.3364 11.4797 18.3177 11.4684C18.2894 11.44 18.2642 11.4085 18.2427 11.3747V11.3259C18.2577 11.2959 18.2727 11.3072 18.2802 11.3222ZM18.2914 12.4847L18.3027 12.5034L18.3289 12.4659L18.3064 12.4547L18.2802 12.4734L18.2914 12.4847ZM18.1864 12.4134V12.4584ZM18.7264 12.3609L18.7564 12.3422L18.7452 12.3197L18.7152 12.3384L18.7264 12.3609ZM19.8102 13.1484L19.8439 13.1672V13.2309C19.8927 13.2759 20.0389 13.2384 20.0389 13.2272L20.0314 13.0847L20.0127 13.0659L20.0089 12.9722C20.0239 12.9234 19.9339 12.8522 19.9302 12.8672C19.9227 12.8822 19.8739 12.8672 19.8739 12.8859C19.8739 12.9009 19.8439 12.9759 19.8589 13.0022C19.8739 13.0284 19.8477 13.0284 19.8439 13.0547C19.8402 13.0809 19.8027 13.1297 19.8064 13.1522L19.8102 13.1484ZM19.7277 12.9984C19.7202 13.0284 19.6902 13.0434 19.6789 13.0359C19.6639 13.0209 19.6977 13.0509 19.7052 13.0659C19.7127 13.0809 19.7352 13.0809 19.7427 13.0659C19.7502 13.0509 19.7427 13.0172 19.7539 13.0022C19.7614 12.9872 19.7314 12.9834 19.7277 13.0022V12.9984ZM19.5514 12.3009H19.5777V12.3759H19.5514V12.3009ZM19.9414 11.5734C19.9227 11.5509 20.0164 11.5097 20.0314 11.5584C20.0464 11.6034 20.0314 11.5959 20.0164 11.5922C20.0014 11.5884 19.9639 11.6034 19.9414 11.5734ZM20.0202 11.0634V11.0859L20.0577 11.0934L20.0614 11.0709L20.0202 11.0634ZM19.8514 11.1234L19.8814 11.1422H19.8927L19.9152 11.1272V11.1347L19.9377 11.1272L19.9302 11.1084V11.0972L19.9152 11.1009L19.8889 11.1197L19.8627 11.1009L19.8514 11.1234ZM20.0614 10.2009H20.0052C20.0052 10.2009 20.0239 10.2084 19.9677 10.1597C19.9189 10.1109 19.8852 10.1709 19.8852 10.1709L19.8252 10.1784V10.2384L19.7952 10.2497V10.2872H19.8402C19.8402 10.2872 19.8402 10.3284 19.8514 10.3097C19.8627 10.2909 19.9564 10.3134 19.9489 10.3622C19.9452 10.3809 20.0427 10.4297 20.0314 10.4897C20.0802 10.4972 20.0689 10.5459 20.0689 10.5459L20.1327 10.5534L20.1514 10.5159L20.1702 10.5197V10.4972L20.1289 10.4859L20.1214 10.3622L20.0952 10.3434L20.1027 10.3134L20.0727 10.3022L20.0877 10.2534L20.0614 10.2009V10.2009ZM20.2227 10.5872H20.1927L20.1252 10.5947L20.0877 10.6697C20.0877 10.6697 20.1064 10.6809 20.1252 10.7072C20.1364 10.7334 20.1439 10.8872 20.0989 10.9134C20.0539 10.9397 20.1027 10.9247 20.1027 10.9247L20.0952 11.0109C20.1064 11.0484 20.1252 11.0297 20.1364 11.0109C20.1477 10.9922 20.1589 10.9884 20.1739 10.9697C20.1889 10.9509 20.2114 10.9134 20.2152 10.8872C20.2189 10.8609 20.2377 10.8197 20.2264 10.8084C20.2152 10.7972 20.2377 10.7447 20.2377 10.7447C20.2377 10.7447 20.2527 10.7147 20.2377 10.6847C20.2227 10.6547 20.2414 10.6172 20.2527 10.6022L20.2227 10.5872V10.5872ZM20.2677 10.7447L20.2714 10.7147H20.2939V10.7447H20.2677ZM20.2677 10.8497L20.2489 10.8384L20.2602 10.8159L20.2789 10.8272L20.2677 10.8497ZM20.2339 10.5497L20.2189 10.5122C20.2189 10.5122 20.2189 10.4822 20.2264 10.4672C20.2339 10.4522 20.2114 10.4372 20.2002 10.4297C20.1889 10.4297 20.1927 10.3997 20.1889 10.3847C20.1889 10.3697 20.1589 10.3584 20.1589 10.3584L20.1514 10.2872C20.1514 10.2759 20.1177 10.2609 20.1289 10.2497L20.1589 10.2159C20.1702 10.2084 20.1477 10.1559 20.1664 10.1672C20.1852 10.1784 20.1852 10.1972 20.1927 10.2122C20.2002 10.2272 20.1927 10.2797 20.2077 10.2909C20.2264 10.3022 20.2077 10.3434 20.2339 10.3434C20.2639 10.3434 20.2452 10.4147 20.2452 10.4147C20.2452 10.4147 20.2377 10.4672 20.2564 10.4709C20.2752 10.4747 20.2639 10.5647 20.2639 10.5647L20.2339 10.5459V10.5497ZM19.9939 9.93095C20.0052 9.94595 20.0277 9.9572 20.0277 9.9722C20.0277 9.9872 20.0202 9.99845 20.0427 10.0022C20.0652 10.0059 20.0802 10.0022 20.0877 10.0172C20.0952 10.0359 20.0952 10.0697 20.0877 10.0847C20.0877 10.0997 20.0952 10.1222 20.1139 10.1222C20.1327 10.1222 20.1364 10.1222 20.1364 10.1372C20.1364 10.1484 20.1589 10.0959 20.1589 10.0959C20.1402 10.0809 20.1214 10.0472 20.1214 10.0472L20.1064 9.98345C20.1064 9.97595 20.0802 9.96845 20.0689 9.9647C20.0577 9.9647 20.0389 9.9272 20.0389 9.9272L19.9939 9.93095V9.93095ZM20.0314 9.8972C20.0202 9.8822 20.0089 9.87095 19.9939 9.86345C19.9789 9.85595 19.9677 9.84845 19.9527 9.84845C19.9483 9.84825 19.9441 9.84698 19.9404 9.84476C19.9367 9.84254 19.9336 9.83944 19.9314 9.83573C19.9291 9.83202 19.9278 9.82781 19.9276 9.82349C19.9274 9.81916 19.9283 9.81486 19.9302 9.81095C19.9377 9.79595 19.9189 9.78845 19.9189 9.77345C19.9189 9.75845 19.9302 9.75845 19.9489 9.7697C19.9677 9.78095 19.9639 9.7847 19.9789 9.80345C19.9939 9.8222 20.0014 9.84095 20.0164 9.8372C20.0314 9.83345 20.0427 9.87095 20.0539 9.8597C20.0727 9.84845 20.0689 9.88595 20.0689 9.88595L20.0314 9.8972V9.8972ZM19.5927 10.3247C19.6114 10.3472 19.4802 10.3397 19.4802 10.3247C19.4802 10.3097 19.4914 10.2572 19.5252 10.2684C19.5589 10.2797 19.5627 10.2009 19.5627 10.2009C19.5627 10.2009 19.5327 10.2047 19.5589 10.1897C19.5852 10.1747 19.5589 10.1522 19.5477 10.1409L19.5252 10.1109H19.5777C19.6002 10.0959 19.6077 10.0247 19.6077 10.0247C19.6527 10.0397 19.6752 10.0059 19.6752 10.0059L19.6977 10.0509C19.7127 10.0697 19.6602 10.0772 19.6789 10.0884C19.6977 10.0997 19.7052 10.1334 19.6977 10.1447C19.6902 10.1559 19.6489 10.1447 19.6489 10.1334C19.6489 10.1222 19.6339 10.1522 19.6489 10.1709C19.6639 10.1897 19.6302 10.2159 19.6227 10.2159C19.6152 10.2159 19.5664 10.2234 19.6077 10.2459C19.6452 10.2684 19.6939 10.2572 19.6939 10.2572C19.6939 10.2572 19.7277 10.2572 19.7389 10.2722C19.7502 10.2909 19.7352 10.2947 19.7164 10.2947L19.6039 10.2872C19.6039 10.2872 19.5814 10.3134 19.5927 10.3247V10.3247ZM19.3527 10.3622C19.3714 10.3584 19.4164 10.3547 19.4277 10.3622C19.4314 10.3772 19.3977 10.3922 19.3977 10.3922L19.3527 10.3997C19.3377 10.3809 19.3339 10.3622 19.3527 10.3622ZM19.8364 10.0434C19.8664 10.0284 19.9302 10.0284 19.9264 10.0059C19.9227 9.9797 19.9639 9.9722 19.9639 9.9722L19.9752 10.0172L20.0089 10.0434V10.0809L19.9827 10.0884C19.9414 10.0997 19.9677 10.1184 19.9677 10.1184H19.8739L19.8627 10.0809L19.8327 10.0434H19.8364ZM19.6864 9.8372C19.7127 9.8372 19.6827 9.92345 19.7427 9.91595C19.8027 9.90845 19.7427 9.9422 19.7914 9.94595C19.8364 9.9497 19.8252 9.9122 19.8402 9.88595C19.8552 9.8597 19.8477 9.8447 19.8214 9.8372C19.7952 9.8297 19.7952 9.8297 19.7839 9.7997C19.7802 9.7697 19.7464 9.7622 19.7464 9.7622L19.7389 9.7172L19.6902 9.7472L19.6414 9.81095C19.6414 9.8597 19.6677 9.8372 19.6902 9.8372H19.6864ZM19.7877 10.1559L19.7989 10.1334L19.8214 10.1447L19.8102 10.1672L19.7877 10.1559ZM19.7502 10.1184H19.7727V10.1484H19.7502V10.1184ZM19.7689 9.61595V9.6497H19.7502L19.7464 9.6197L19.7689 9.61595ZM19.7052 9.96845H19.7277V9.9872H19.7052V9.96845ZM19.6452 9.96845V9.94595H19.6827V9.9647L19.6452 9.96845ZM19.3377 10.3359L19.3152 10.3247L19.3264 10.2984L19.3489 10.3097L19.3377 10.3359ZM19.2177 10.2647V10.2422H19.2552V10.2609L19.2177 10.2647ZM18.5689 10.2572L18.4864 10.2609V10.2834H18.5727L18.5689 10.2572ZM18.4339 10.2909L18.4264 10.2572L18.4489 10.2534L18.4564 10.2872L18.4339 10.2909ZM18.4189 10.3134L18.4114 10.2947L18.4227 10.2909L18.4302 10.3097L18.4189 10.3134ZM18.6064 10.2497L18.6027 10.2759L18.6402 10.2797C18.6402 10.2797 18.6589 10.2947 18.6589 10.3059C18.6589 10.3172 18.6852 10.3284 18.7002 10.3284C18.7152 10.3284 18.7564 10.2984 18.7564 10.2984C18.7564 10.2984 18.7752 10.2459 18.7602 10.2497C18.7452 10.2534 18.7152 10.2759 18.7114 10.2534C18.7114 10.2309 18.6627 10.2422 18.6627 10.2422L18.6027 10.2497H18.6064ZM18.7939 10.2122C18.7939 10.2197 18.7827 10.2347 18.8052 10.2384C18.8277 10.2422 18.8689 10.2234 18.8727 10.2459C18.8764 10.2684 18.8764 10.2834 18.9102 10.2947C18.9315 10.3038 18.9544 10.3089 18.9777 10.3097L19.0527 10.3022C19.0527 10.3022 19.1014 10.3134 19.1127 10.3209C19.1539 10.3659 19.1802 10.3772 19.1914 10.3584C19.2027 10.3397 19.1914 10.2947 19.1839 10.2834C19.1839 10.2647 19.1277 10.1934 19.1089 10.2084C19.0902 10.2234 19.0864 10.2084 19.0527 10.2197C19.0189 10.2309 18.9477 10.2234 18.9439 10.2084C18.9439 10.1934 18.8877 10.1859 18.8877 10.1709C18.8877 10.1559 18.8502 10.1334 18.8539 10.1597C18.8577 10.1822 18.8277 10.1934 18.8202 10.1859C18.8127 10.1784 18.7902 10.2084 18.7902 10.2084L18.7939 10.2122ZM19.6527 9.7247L19.6789 9.63845C19.6414 9.63095 19.6489 9.5897 19.6489 9.5897C19.6452 9.5522 19.5927 9.5147 19.5739 9.5297C19.5552 9.54095 19.5627 9.45095 19.5627 9.45095C19.5627 9.45095 19.5964 9.42845 19.6114 9.4397C19.6264 9.45095 19.4839 9.24845 19.4539 9.2672C19.4239 9.28595 19.3564 9.24845 19.3602 9.2147C19.3639 9.1772 19.2252 9.0647 19.2252 9.0647C19.2252 9.0647 19.1802 9.0347 19.1727 9.0572C19.1652 9.0797 19.1502 9.0947 19.1727 9.1097C19.1952 9.12095 19.1914 9.09095 19.2177 9.1172C19.2439 9.14345 19.2927 9.1772 19.2739 9.1997C19.2552 9.2222 19.2364 9.2297 19.2364 9.2297L19.2589 9.2597H19.3002L19.3077 9.32345C19.3077 9.32345 19.3527 9.34595 19.3639 9.3722C19.3752 9.39845 19.3752 9.41345 19.3639 9.4322C19.3527 9.4472 19.3302 9.4697 19.3339 9.4997C19.3377 9.52595 19.3714 9.5372 19.3714 9.5372H19.3977L19.4202 9.5522V9.60095C19.4502 9.59345 19.4989 9.63845 19.4952 9.66095C19.4952 9.6872 19.5027 9.6722 19.5402 9.69845C19.5777 9.7247 19.5664 9.72845 19.5927 9.75095C19.6189 9.7697 19.6414 9.75845 19.6527 9.72095V9.7247Z" fill="white"/>
<path d="M19.0305 9.2107C19.0305 9.1957 19.0192 9.1432 19.0417 9.14695C19.0642 9.14695 19.0492 9.14695 19.0792 9.1582C19.1092 9.16945 19.1055 9.13945 19.1055 9.13945H19.1467L19.1992 9.17695L19.1917 9.21445H19.1542C19.1355 9.1882 19.098 9.19945 19.1055 9.2257C19.113 9.25195 19.0867 9.3007 19.0717 9.30445C19.0567 9.3082 19.008 9.3082 19.0117 9.2857L19.0305 9.2107V9.2107ZM19.0005 9.10945V9.0757C19.0005 9.0757 19.0005 9.0457 18.978 9.0457C18.9555 9.0457 18.9255 9.0232 18.933 9.0082C18.9405 8.9932 18.8692 8.9782 18.8692 8.9782C18.8692 8.9782 18.8055 8.9182 18.8317 8.9257C18.8505 8.9332 18.8392 8.89945 18.8392 8.89945C18.8392 8.89945 18.7942 8.90695 18.783 8.89945C18.7717 8.89945 18.7755 8.86195 18.7755 8.86195C18.7755 8.86195 18.7305 8.85445 18.7305 8.86195C18.7305 8.86945 18.7455 8.87695 18.753 8.89945C18.7605 8.92195 18.7567 8.95945 18.7905 8.96695C18.828 8.97445 18.8317 8.98195 18.8355 8.99695C18.8392 9.01195 18.8805 9.0157 18.8805 9.0157L18.9105 9.0307L19.0005 9.1057V9.10945ZM18.5992 8.71945L18.588 8.68945L18.558 8.68195V8.71945H18.5992ZM18.588 8.56195C18.5505 8.53195 18.6405 8.58445 18.6405 8.58445C18.6705 8.58445 18.6892 8.60695 18.6892 8.6182C18.6892 8.62945 18.7267 8.6257 18.7267 8.6257L18.7305 8.59945L18.7005 8.56195L18.6742 8.5432C18.6742 8.5432 18.6367 8.53945 18.6367 8.5282C18.6367 8.51695 18.5992 8.5732 18.5842 8.56195H18.588ZM19.2742 8.58445C19.263 8.6182 19.2592 8.6632 19.2405 8.6632C19.2217 8.6632 19.2292 8.71195 19.2292 8.71195L19.293 8.7157C19.308 8.71945 19.308 8.75695 19.308 8.75695C19.3642 8.75695 19.3867 8.83195 19.383 8.8507C19.3717 8.86945 19.4017 8.86945 19.4017 8.86945C19.4017 8.86945 19.4017 8.92945 19.3942 8.94445C19.3867 8.95945 19.443 8.9707 19.458 8.9932C19.473 9.0157 19.4505 9.0907 19.4392 9.09445C19.428 9.10195 19.4692 9.1132 19.4655 9.13195C19.4617 9.1507 19.4767 9.13195 19.4805 9.16195L19.4917 9.2557L19.5442 9.25945C19.5517 9.2107 19.6492 9.20695 19.6642 9.21445C19.728 9.23695 19.7767 9.33445 19.7767 9.35695C19.7767 9.37945 19.7355 9.3832 19.7355 9.3832L19.743 9.4957C19.8067 9.51445 19.8555 9.6082 19.8517 9.61945C19.8442 9.63445 19.8967 9.6307 19.8967 9.6307C19.9042 9.5632 19.968 9.5857 19.9717 9.6082C19.9717 9.6307 19.9867 9.6832 19.9867 9.6832L20.0055 9.7132L20.0317 9.73945H20.0692L20.0842 9.76195L20.1292 9.76945C20.1292 9.76945 20.1705 9.81445 20.1742 9.8257C20.178 9.83695 20.2342 9.8332 20.2492 9.83695C20.2642 9.83695 20.2867 9.85195 20.2905 9.8707C20.2942 9.88945 20.3167 9.91945 20.3167 9.91945C20.3167 9.91945 20.3617 9.9307 20.3655 9.9457L20.388 9.99445L20.4255 10.0245L20.4292 10.062H20.4705L20.4817 10.1107L20.5492 10.107L20.5867 10.0807C20.6214 10.0635 20.6512 10.0377 20.673 10.0057C20.6767 9.98695 20.6842 9.9307 20.7217 9.94195C20.7592 9.9532 20.733 9.85945 20.733 9.85945C20.733 9.85945 20.6805 9.82195 20.6842 9.8032C20.688 9.78445 20.6317 9.74695 20.6355 9.7282C20.6392 9.71695 20.5867 9.6832 20.5905 9.6682C20.5942 9.6532 20.5642 9.61195 20.5642 9.61195L20.5117 9.5632L20.5042 9.5257H20.4592L20.3692 9.4132L20.373 9.3832H20.3467V9.3382L20.3205 9.3232H20.283L20.1967 9.22945L20.1892 9.1882H20.1517L20.1592 9.10945C20.1855 9.07195 20.1705 9.0082 20.1705 9.0082C20.1705 9.0082 20.118 9.03445 20.0917 9.0232C20.0655 9.01195 20.103 8.9857 20.103 8.9857V8.9557L20.0805 8.9332C20.0805 8.9332 20.0167 8.9407 20.013 8.92945L19.998 8.86945L19.9942 8.8057L19.968 8.79445L19.9642 8.7682L19.923 8.77195V8.72695L19.9005 8.71945L19.878 8.7082L19.8742 8.6632L19.7917 8.65945L19.7655 8.62195L19.7355 8.57695L19.6417 8.56945L19.6192 8.54695L19.5817 8.53945L19.5555 8.5282L19.5442 8.54695H19.4692V8.5732C19.4317 8.59195 19.2817 8.5732 19.2817 8.5882L19.2742 8.58445ZM19.668 8.4832C19.6605 8.45695 19.743 8.42695 19.7617 8.44945C19.7805 8.47195 19.833 8.4757 19.8367 8.59195C19.8405 8.62945 19.773 8.5507 19.773 8.5507L19.7167 8.53195C19.6867 8.52445 19.6717 8.5057 19.668 8.48695V8.4832ZM18.5692 8.53195L18.5505 8.5207L18.5655 8.48695L18.5842 8.4982L18.5692 8.53195ZM18.378 8.15695L18.3292 8.1082V8.0707L18.3142 8.05195L18.2992 7.99945L18.2505 7.98445L18.2017 8.0032L18.1492 8.03695L18.093 8.04445L18.063 8.08195L18.183 8.08945L18.2055 8.12695L18.2917 8.13445L18.348 8.1907C18.3967 8.20945 18.408 8.1832 18.378 8.15695V8.15695ZM18.3705 7.96945C18.363 7.93945 18.3142 8.01445 18.363 8.02945C18.4117 8.04445 18.4605 8.02945 18.4605 8.02945L18.4717 8.00695L18.6592 8.0107C18.6742 7.9957 18.6817 7.9732 18.6817 7.9732C18.6817 7.9732 18.7267 7.9582 18.7455 7.9657C18.7642 7.9732 18.7455 7.9132 18.7305 7.9207C18.7117 7.9282 18.6742 7.9207 18.6742 7.9207H18.6067C18.603 7.8982 18.543 7.90945 18.5392 7.9207C18.5355 7.93945 18.513 7.9432 18.513 7.9432L18.4267 7.9507C18.4192 7.9732 18.3742 7.9882 18.3705 7.9732V7.96945ZM17.9992 8.61445C18.0555 8.6332 18.078 8.61445 18.0817 8.6032C18.0855 8.5882 18.0892 8.58445 18.1117 8.5807C18.1342 8.57695 18.108 8.53195 18.0855 8.5357C18.063 8.5357 18.0405 8.5282 18.0367 8.50945C18.033 8.48695 17.9955 8.4382 17.9917 8.4757C17.988 8.5132 17.9655 8.5132 17.9692 8.5432C17.973 8.56945 17.9842 8.60695 17.9992 8.61445V8.61445ZM17.568 8.6557C17.568 8.6407 17.643 8.6407 17.6542 8.65195C17.6655 8.6632 17.658 8.68195 17.6917 8.68195C17.7255 8.68195 17.7105 8.70445 17.7067 8.71945C17.7067 8.72695 17.6692 8.7232 17.6617 8.71195C17.6617 8.7007 17.6017 8.69695 17.6017 8.69695C17.6017 8.69695 17.5717 8.67445 17.568 8.6557V8.6557ZM18.843 7.84195L18.813 7.86445L18.7942 7.8457L18.7755 7.86445L18.8017 7.8907L18.8092 7.8982L18.8167 7.8907L18.8542 7.8607L18.843 7.84195ZM18.6367 7.77445L18.6105 7.75945L18.5992 7.7782L18.6292 7.79695H18.6405L18.6817 7.7707L18.6705 7.75195L18.6367 7.77445ZM18.513 8.55445H18.5092L18.4717 8.5507V8.5732H18.5017L18.5242 8.6107L18.543 8.59945L18.5167 8.56195L18.513 8.55445ZM17.2755 9.61195L17.2792 9.6532H17.3355C17.358 9.6532 17.3167 9.62695 17.3167 9.62695C17.3167 9.62695 17.2717 9.6307 17.2792 9.61195H17.2755ZM17.3505 9.61195L17.3617 9.59695L17.3842 9.6157L17.3692 9.6307L17.3505 9.61195ZM16.668 8.9032L16.683 8.8882L16.7055 8.9107L16.6905 8.9257L16.668 8.9032ZM17.7555 13.7895L17.718 13.7707L17.7067 13.7895L17.7292 13.8007L17.7217 13.8082L17.7367 13.827L17.7555 13.8082L17.7667 13.797L17.7555 13.7895ZM17.463 13.5157L17.448 13.497L17.4255 13.5157L17.4142 13.527L17.4292 13.5345L17.4555 13.5532L17.4667 13.5345L17.4517 13.5232L17.463 13.5157ZM20.2455 12.7957C20.2417 12.777 20.2192 12.7695 20.2155 12.7657L20.208 12.7882L20.2155 12.792L20.2192 12.8107L20.2155 12.8182L20.2305 12.8332C20.2455 12.822 20.2492 12.807 20.2455 12.7957V12.7957ZM20.283 12.7207H20.2455V12.687L20.283 12.6945V12.7207ZM21.1455 12.4282C21.1642 12.417 21.183 12.3982 21.183 12.4432C21.1792 12.4845 21.1605 12.4695 21.1455 12.4845C21.1342 12.4995 21.123 12.4432 21.1455 12.4282ZM21.3367 12.267C21.3366 12.2657 21.3366 12.2645 21.3367 12.2632C21.3363 12.254 21.3337 12.245 21.3292 12.237L21.3105 12.2482L21.3142 12.2632C21.3142 12.2707 21.3142 12.2782 21.3217 12.282C21.3255 12.2857 21.3292 12.2857 21.3367 12.282L21.333 12.2632L21.3367 12.267V12.267ZM21.288 12.2857L21.303 12.3307L21.3217 12.3232C21.3172 12.3084 21.3134 12.2934 21.3105 12.2782L21.288 12.2857V12.2857ZM21.2055 12.3757H21.183C21.183 12.3907 21.183 12.4132 21.2017 12.4132L21.2092 12.3945L21.2055 12.3757V12.3757ZM21.108 11.9257C21.1075 11.9215 21.1058 11.9175 21.1032 11.9142C21.1005 11.9108 21.097 11.9083 21.093 11.907C21.078 11.8995 21.0517 11.9107 21.0367 11.922L21.048 11.9407C21.063 11.9295 21.0817 11.9257 21.0855 11.9257L21.108 11.922V11.9257ZM20.0692 10.7107C20.0542 10.7257 20.0205 10.7332 20.0205 10.7332L20.0092 10.7707L19.9942 10.7895V10.827C19.9942 10.8532 19.9567 10.8682 19.9567 10.8682L19.9417 10.887H19.8405C19.803 10.872 19.8292 10.827 19.8517 10.8307C19.8742 10.8345 19.848 10.767 19.848 10.767L19.878 10.7632C19.878 10.7632 19.878 10.6957 19.893 10.6957C19.9042 10.6957 19.8892 10.6732 19.8742 10.6582C19.8592 10.647 19.8367 10.6095 19.8255 10.6132H19.7505L19.7392 10.6357L19.698 10.6432L19.6942 10.6807C19.6717 10.7107 19.5817 10.767 19.6192 10.6732L19.6342 10.647V10.6132H19.5667C19.5667 10.6132 19.5292 10.5982 19.5292 10.5832V10.5495L19.4505 10.4632L19.3567 10.452L19.3492 10.4332L19.293 10.4257C19.2255 10.3882 19.1655 10.422 19.1805 10.4782C19.188 10.5345 19.2067 10.557 19.1692 10.557C19.1317 10.557 19.1242 10.527 19.1242 10.527C19.1242 10.527 19.0942 10.5157 19.0942 10.5307C19.0942 10.5457 19.083 10.5757 19.0942 10.5907C19.1055 10.6057 19.0792 10.6282 19.068 10.617C19.0567 10.6057 19.0305 10.572 19.0342 10.5607C19.0417 10.5495 18.9817 10.4782 19.0417 10.467C19.1017 10.4557 19.0417 10.422 19.0605 10.4145L19.0905 10.3995H19.1205L19.1392 10.3845L19.0905 10.377L19.0605 10.3732L19.0042 10.3695C18.9728 10.3883 18.9489 10.4174 18.9367 10.452C18.9067 10.5082 18.8355 10.4295 18.8617 10.3995C18.888 10.3695 18.7792 10.3957 18.7605 10.4107C18.7417 10.4257 18.6855 10.4182 18.6855 10.4182C18.6742 10.452 18.6217 10.4145 18.6367 10.392C18.6517 10.3695 18.6517 10.3545 18.6517 10.3545L18.633 10.347L18.6105 10.392C18.5617 10.392 18.5467 10.422 18.5542 10.4407C18.5655 10.4595 18.5392 10.437 18.5317 10.4632C18.528 10.4895 18.5392 10.4895 18.558 10.5007C18.5805 10.512 18.5467 10.512 18.5617 10.5307C18.5767 10.5495 18.6217 10.5307 18.5992 10.557C18.5692 10.5832 18.5205 10.572 18.5205 10.572C18.5167 10.6095 18.4455 10.5982 18.438 10.587L18.3742 10.5082L18.2992 10.5045C18.2955 10.452 18.3367 10.4782 18.3517 10.437C18.3667 10.3957 18.3742 10.3245 18.3742 10.3245C18.3742 10.3245 18.3142 10.3245 18.3105 10.3395C18.3067 10.3582 18.2692 10.3732 18.2692 10.3732C18.2692 10.3732 18.2392 10.3845 18.2505 10.3995C18.2617 10.4145 18.228 10.422 18.228 10.422C18.228 10.422 18.2317 10.4445 18.2242 10.4557C18.1942 10.4857 18.1192 10.4557 18.108 10.4482L18.063 10.4295L18.018 10.3995L17.9655 10.422L17.9505 10.437H17.8942L17.8905 10.482L17.9917 10.4932L17.9992 10.587L17.958 10.572H17.9317L17.9205 10.5495H17.898V10.6282L17.9205 10.647L17.9392 10.6657L17.9767 10.6695L17.9842 10.7182H18.078L18.0892 10.7407H18.1455L18.2542 10.8532L18.2467 10.8907L18.228 10.8982C18.2355 10.9245 18.1792 10.9095 18.1792 10.9095V10.932L18.2055 10.9357L18.2317 10.9507L18.2692 10.887C18.3067 10.8607 18.3292 10.8982 18.333 10.9245C18.333 10.9432 18.3142 10.9395 18.3142 10.9395V10.9957L18.3367 11.0032C18.3742 11.0482 18.3217 11.0745 18.3217 11.0745L18.3105 11.112C18.2992 11.1457 18.258 11.1382 18.258 11.1382L18.243 11.1607L18.198 11.172L18.288 11.1832C18.2955 11.1532 18.318 11.1457 18.3255 11.1607C18.3405 11.1757 18.3405 11.202 18.3405 11.202L18.363 11.2057L18.3592 11.247L18.3817 11.2545V11.3782L18.408 11.4082C18.453 11.3895 18.453 11.4195 18.4305 11.4345C18.408 11.4495 18.423 11.517 18.423 11.517L18.4042 11.5357V11.5657L18.3817 11.5807V11.6257C18.3442 11.607 18.2992 11.6145 18.288 11.6257C18.2505 11.6032 18.183 11.6107 18.183 11.6257C18.2055 11.6595 18.1567 11.6632 18.1567 11.6632L18.1305 11.697C18.1492 11.7345 18.1117 11.7382 18.1117 11.7382V11.8132L18.0667 11.8507V11.952C18.0667 11.9782 18.1267 11.982 18.138 11.967C18.1492 11.952 18.1942 11.997 18.1942 11.997H18.228L18.2355 11.9295L18.213 11.9182V11.8057L18.2505 11.7682C18.2955 11.7495 18.2805 11.862 18.2805 11.8732C18.2805 11.9182 18.303 11.9107 18.318 11.9032C18.3555 11.8882 18.3292 11.9482 18.2992 11.9407C18.2692 11.9407 18.288 11.9782 18.288 11.9782L18.3067 11.9895L18.2692 12.0157L18.243 12.0495L18.2055 12.0382L18.1605 12.0345L18.1455 12.0082L18.1192 12.0045L18.1155 12.057L18.0967 12.0795L18.0517 12.1245C18.1117 12.1245 18.0442 12.1657 18.0292 12.1657C18.063 12.177 18.0255 12.2107 17.9392 12.1845V12.2107L17.9092 12.2145L17.9355 12.2482H17.9655L17.9542 12.3157C17.9542 12.3645 17.8305 12.3307 17.8192 12.3157V12.3907H17.793L17.7967 12.4357V12.4995L17.8342 12.492V12.5182L17.9355 12.522L18.0817 12.3682L18.168 12.3495C18.1755 12.312 18.213 12.357 18.213 12.357C18.2505 12.3532 18.258 12.3795 18.258 12.3795L18.3067 12.387C18.3442 12.3982 18.3217 12.402 18.3255 12.417C18.3255 12.4395 18.348 12.432 18.348 12.432L18.3555 12.3832L18.378 12.387L18.3555 12.3607L18.3142 12.342L18.2692 12.3232C18.2392 12.282 18.2767 12.2857 18.3067 12.2932H18.3555C18.3555 12.2932 18.4117 12.3682 18.4117 12.387C18.4117 12.4057 18.438 12.4095 18.438 12.4095H18.4717L18.483 12.432H18.5167L18.528 12.4545H18.5955V12.4207L18.5355 12.4095L18.5317 12.372L18.4867 12.3607C18.4717 12.297 18.498 12.2782 18.5167 12.3082H18.5392L18.5317 12.2557L18.558 12.2482L18.5505 12.1657L18.528 12.1582V12.132L18.6217 12.1357C18.6142 12.087 18.6217 12.0645 18.6217 12.0645H18.6517V12.0832L18.768 12.0945L18.8505 12.0007C18.8467 11.9932 18.858 11.9895 18.8505 11.982C18.8355 11.9707 18.8205 11.982 18.8017 11.9707C18.783 11.9595 18.8017 11.8957 18.8017 11.877C18.7942 11.862 18.8617 11.8395 18.8505 11.877C18.8392 11.907 18.8505 11.9257 18.8505 11.9257C18.8992 11.877 18.9405 11.9257 18.9367 11.9407C18.9367 11.952 18.963 11.9632 18.9817 11.952C19.0005 11.9407 19.023 11.9857 19.0192 12.0082C19.008 12.0307 18.9442 12.027 18.9367 12.0045C18.9367 11.982 18.9217 11.9895 18.9142 12.0007C18.9067 12.012 18.8767 12.0195 18.8542 12.0082C18.8524 12.006 18.8511 12.0035 18.8505 12.0007L18.768 12.0945H18.7717C18.8167 12.1207 18.7942 12.1545 18.7792 12.162C18.7642 12.1695 18.7417 12.1695 18.7417 12.1695L18.7305 12.1845L18.633 12.192L18.6255 12.2295C18.5805 12.2257 18.5617 12.2782 18.573 12.3045C18.5842 12.3307 18.573 12.3532 18.573 12.3532L18.6105 12.372L18.6667 12.357C18.6742 12.3195 18.7042 12.312 18.7342 12.2895C18.7642 12.267 18.813 12.327 18.798 12.3607C18.783 12.3907 18.783 12.402 18.783 12.402L18.7867 12.4395L18.7492 12.4507L18.7192 12.4657V12.4845H18.6142L18.5992 12.5032L18.5505 12.507L18.5355 12.5332H18.498C18.498 12.5332 18.4455 12.5632 18.468 12.5932C18.4905 12.6232 18.3742 12.6195 18.348 12.5782C18.3405 12.6157 18.2992 12.5782 18.2992 12.5782L18.258 12.5707L18.2542 12.5145C18.2467 12.477 18.1755 12.477 18.1792 12.5032C18.1792 12.5295 18.0442 12.5145 18.0442 12.5145L17.9992 12.5332L17.958 12.5595L17.9542 12.5782L17.8867 12.5857L17.8567 12.6007L17.8455 12.5782H17.8155L17.7855 12.6157C17.7105 12.6232 17.6355 12.6682 17.6392 12.6907C17.6467 12.7057 17.6092 12.7282 17.6092 12.7282L17.5755 12.7357L17.553 12.7732L17.508 12.7845L17.5005 12.867L17.478 12.882V12.9157L17.4517 12.9232V12.942H17.4142L17.4367 13.002L17.4667 13.017C17.5192 13.0245 17.4967 13.092 17.4967 13.092H17.5267L17.5417 13.1332L17.5717 13.197C17.583 13.242 17.6167 13.2307 17.6317 13.227C17.6467 13.2232 17.6617 13.272 17.6617 13.272L17.8117 13.2757C17.8117 13.2757 17.8042 13.2907 17.8305 13.2982C17.8567 13.3057 18.0292 13.3132 18.0367 13.302C18.0292 13.2682 18.1305 13.2607 18.1717 13.2907C18.2092 13.3207 18.2692 13.302 18.2692 13.302L18.3255 13.3695L18.363 13.4557L18.4267 13.4745L18.4717 13.4857L18.4867 13.5495H18.5205L18.5317 13.5945C18.5692 13.6245 18.5205 13.6882 18.5205 13.6882V13.7745L18.5505 13.7895L18.5467 13.8195L18.5955 13.8682H18.6517L18.7905 14.022L18.903 14.0595L18.9217 14.1195L18.9517 14.1157L18.9742 14.097L19.0642 14.0932L19.1092 14.0482L19.158 14.0407L19.5705 13.6882L19.533 13.6657V13.5832C19.6042 13.5345 19.608 13.4445 19.5442 13.437C19.4955 13.4332 19.518 13.3807 19.563 13.3732L19.5892 13.362V13.3282L19.6755 13.2495V13.1895L19.488 13.032C19.4055 13.002 19.488 12.8182 19.5442 12.822C19.6005 12.8257 19.5405 12.5445 19.5405 12.5445L19.5105 12.5295L19.518 12.4357H19.4767L19.4092 12.5257L19.3905 12.5857C19.383 12.6645 19.1505 12.6495 19.1392 12.6382C19.128 12.627 19.0492 12.5932 19.0492 12.5932C19.0492 12.5932 18.9892 12.5445 18.978 12.5557C18.9667 12.5745 18.9142 12.5407 18.9142 12.552C18.9142 12.5632 18.8655 12.522 18.8655 12.522L18.7905 12.4957L18.8467 12.4845L18.8355 12.4395L18.933 12.4882C18.9442 12.5032 18.993 12.4995 18.993 12.4995L19.008 12.5182C19.008 12.5182 19.038 12.5182 19.0567 12.537C19.0755 12.5632 19.173 12.5445 19.173 12.5445L19.1992 12.567L19.2405 12.582H19.3567L19.3605 12.5107L19.383 12.4882V12.4432L19.4055 12.4207V12.3832L19.428 12.3757L19.4317 12.2932L19.4505 12.2895V12.1057L19.3942 12.0532C19.3905 12.072 19.3305 12.072 19.3305 12.072C19.3305 12.072 19.3155 12.0982 19.3042 12.0982C19.293 12.0982 19.3192 12.1357 19.3117 12.1545C19.3042 12.177 19.2742 12.177 19.2742 12.177L19.218 12.192L19.203 12.2107H19.143L19.1355 12.162L19.203 12.1432L19.2405 12.1245L19.2592 12.087C19.263 12.0495 19.308 12.0532 19.308 12.0532C19.308 12.0532 19.3942 11.9782 19.398 11.9482C19.4017 11.9107 19.4317 11.817 19.4842 11.817H19.5817C19.6192 11.802 19.608 11.7532 19.608 11.7532L19.6567 11.7457L19.6642 11.772C19.6642 11.772 19.7317 11.7795 19.7392 11.772C19.7467 11.757 19.7617 11.7345 19.7767 11.742C19.7992 11.7532 19.8592 11.7157 19.8592 11.7157C19.8592 11.6895 19.9567 11.7007 19.9567 11.7007L19.968 11.6632C19.968 11.6632 19.9042 11.577 19.893 11.577C19.8817 11.577 19.818 11.5245 19.8142 11.5432C19.7542 11.5282 19.758 11.4457 19.758 11.4457L19.7355 11.3932C19.7355 11.3632 19.6792 11.2995 19.668 11.307C19.6594 11.302 19.6523 11.2949 19.6473 11.2864C19.6424 11.2778 19.6398 11.2681 19.6398 11.2582C19.6398 11.2483 19.6424 11.2386 19.6473 11.23C19.6523 11.2215 19.6594 11.2144 19.668 11.2095C19.683 11.2095 19.7205 11.1532 19.7205 11.1532L19.7392 11.1007L19.803 11.082L19.8105 11.0332L19.773 11.0295C19.773 11.0295 19.8105 10.9582 19.833 10.9582C19.8555 10.9582 19.9755 10.9582 19.983 10.9507C19.998 10.9432 20.0205 10.8832 20.0205 10.8757C20.0205 10.8607 20.0505 10.857 20.058 10.8532C20.073 10.8532 20.0955 10.8195 20.1067 10.8045C20.1142 10.7895 20.088 10.692 20.0692 10.7107V10.7107Z" fill="white"/>
<path d="M18 12.0746C18.0038 12.0746 18.0113 12.0933 18.0225 12.0896C18.0338 12.0896 18.0413 12.1121 18.0263 12.1121C18.0188 12.1121 18.0188 12.1233 18.0188 12.1308C18.0188 12.1346 18.0188 12.1496 18.0075 12.1608C18 12.1683 17.9925 12.1608 17.9813 12.1571C17.97 12.1496 17.9625 12.1496 17.9475 12.1496C17.9363 12.1496 17.9475 12.1721 17.9475 12.1721C17.9475 12.1721 17.8875 12.1721 17.8987 12.1608C17.91 12.1533 17.9213 12.1496 17.9138 12.1458C17.9063 12.1383 17.9138 12.1346 17.9138 12.1233C17.9138 12.1121 17.94 12.1158 17.9325 12.1083C17.925 12.1008 17.9325 12.0671 17.9475 12.0858L17.955 12.0671C17.9475 12.0558 17.955 12.0558 17.9362 12.0483C17.9175 12.0408 17.9325 12.0108 17.9325 12.0108V11.9846C17.94 11.9583 17.9963 11.9546 18 11.9808V12.0221L18.0188 12.0296C18.0188 12.0296 18.015 12.0446 18 12.0446C17.985 12.0446 18 12.0521 17.9925 12.0633L18 12.0783V12.0746ZM17.8125 12.1046C17.8238 12.0896 17.8425 12.0146 17.865 12.0371C17.8875 12.0596 17.9025 12.0371 17.9025 12.0371C17.9025 12.0371 17.9138 12.0483 17.9063 12.0746C17.9025 12.0933 17.895 12.1158 17.8837 12.1196C17.8687 12.1196 17.8575 12.1308 17.8388 12.1346C17.8238 12.1346 17.8163 12.1046 17.8163 12.1046H17.8125Z" fill="white"/>
</g>
</g>
<defs>
<filter id="filter0_d_336_33073" x="0" y="-2" width="36" height="36" filterUnits="userSpaceOnUse" color-interpolation-filters="sRGB">
<feFlood flood-opacity="0" result="BackgroundImageFix"/>
<feColorMatrix in="SourceAlpha" type="matrix" values="0 0 0 0 0 0 0 0 0 0 0 0 0 0 0 0 0 0 127 0" result="hardAlpha"/>
<feOffset dy="4"/>
<feGaussianBlur stdDeviation="3"/>
<feComposite in2="hardAlpha" operator="out"/>
<feColorMatrix type="matrix" values="0 0 0 0 0 0 0 0 0 0 0 0 0 0 0 0 0 0 0.16 0"/>
<feBlend mode="normal" in2="BackgroundImageFix" result="effect1_dropShadow_336_33073"/>
<feBlend mode="normal" in="SourceGraphic" in2="effect1_dropShadow_336_33073" result="shape"/>
</filter>
<clipPath id="clip0_336_33073">
<rect width="24" height="18" fill="white" transform="translate(6 3)"/>
</clipPath>
</defs>
</svg>
