<svg width="36" height="31" viewBox="0 0 36 31" fill="none" xmlns="http://www.w3.org/2000/svg">
<g filter="url(#filter0_d_336_28096)">
<g clip-path="url(#clip0_336_28096)">
<path d="M6 3H30V21H6V3Z" fill="white"/>
<path d="M6 3H30V8.4H6V3Z" fill="black"/>
<path d="M6 15.5996H30V20.9996H6V15.5996Z" fill="#006600"/>
<path d="M14.7812 17.343L14.9838 17.4555L20.2375 8.34297C20.5412 8.27547 20.71 7.98297 20.8787 7.69047C20.9912 7.48797 21.4412 6.71172 21.6325 5.69922C21.0988 6.17351 20.6465 6.73218 20.2937 7.35297C20.125 7.64547 19.9562 7.93797 20.035 8.24172L14.7812 17.343Z" fill="black" stroke="black" stroke-width="0.248438"/>
<path d="M14.7812 17.343L14.9838 17.4555L20.2375 8.34297C20.5412 8.27547 20.71 7.98297 20.8787 7.69047C20.9912 7.48797 21.4412 6.71172 21.6325 5.69922C21.0988 6.17351 20.6465 6.73218 20.2937 7.35297C20.125 7.64547 19.9562 7.93797 20.035 8.24172L14.7812 17.343Z" fill="white"/>
<path d="M21.2188 17.343L21.0162 17.4555L15.7625 8.34297C15.4588 8.27547 15.29 7.98297 15.1213 7.69047C15.0088 7.48797 14.5588 6.71172 14.3675 5.69922C14.9012 6.17351 15.3535 6.73218 15.7063 7.35297C15.875 7.64547 16.0438 7.93797 15.965 8.24172L21.2188 17.343Z" fill="black" stroke="black" stroke-width="0.248438"/>
<path d="M21.2188 17.343L21.0162 17.4555L15.7625 8.34297C15.4588 8.27547 15.29 7.98297 15.1213 7.69047C15.0088 7.48797 14.5588 6.71172 14.3675 5.69922C14.9012 6.17351 15.3535 6.73218 15.7063 7.35297C15.875 7.64547 16.0438 7.93797 15.965 8.24172L21.2188 17.343Z" fill="white"/>
<path d="M30.0184 9.29961H20.1372C19.7997 8.39961 18.6747 6.59961 17.9997 6.59961C17.3247 6.59961 16.1997 8.39961 15.8622 9.29961H5.99219V14.6996H15.8622C16.1997 15.5996 17.3247 17.3996 17.9997 17.3996C18.6747 17.3996 19.7997 15.5996 20.1372 14.6996H30.0184V9.29961Z" fill="#BB0000"/>
<path d="M20.1367 14.7008C20.4742 13.8008 20.6992 12.9008 20.6992 12.0008C20.6992 11.1008 20.4742 10.2008 20.1367 9.30078C19.7992 10.2008 19.5742 11.1008 19.5742 12.0008C19.5742 12.9008 19.7992 13.8008 20.1367 14.7008Z" fill="black"/>
<path d="M15.8633 14.7008C15.5258 13.8008 15.3008 12.9008 15.3008 12.0008C15.3008 11.1008 15.5258 10.2008 15.8633 9.30078C16.2008 10.2008 16.4258 11.1008 16.4258 12.0008C16.4258 12.9008 16.2008 13.8008 15.8633 14.7008Z" fill="black"/>
<path d="M18.0008 12.6762C18.2493 12.6762 18.4508 12.374 18.4508 12.0012C18.4508 11.6284 18.2493 11.3262 18.0008 11.3262C17.7523 11.3262 17.5508 11.6284 17.5508 12.0012C17.5508 12.374 17.7523 12.6762 18.0008 12.6762Z" fill="white"/>
<path d="M18.1133 12.6523C18.1133 12.6523 18.5633 13.5523 18.5633 15.0148C18.5633 16.4773 18.1133 17.3773 18.1133 17.3773V12.6523Z" fill="white"/>
<path d="M17.8867 11.3477C17.8867 11.3477 17.4367 10.4477 17.4367 8.98516C17.4367 7.52266 17.8867 6.62266 17.8867 6.62266V11.3477Z" fill="white"/>
<path d="M17.8867 12.6523C17.8867 12.6523 17.4367 13.5523 17.4367 15.0148C17.4367 16.4773 17.8867 17.3773 17.8867 17.3773V12.6523Z" fill="white"/>
<path d="M18.1133 11.3477C18.1133 11.3477 18.5633 10.4477 18.5633 8.98516C18.5633 7.52266 18.1133 6.62266 18.1133 6.62266V11.3477Z" fill="white"/>
</g>
</g>
<defs>
<filter id="filter0_d_336_28096" x="0" y="-2" width="36" height="36" filterUnits="userSpaceOnUse" color-interpolation-filters="sRGB">
<feFlood flood-opacity="0" result="BackgroundImageFix"/>
<feColorMatrix in="SourceAlpha" type="matrix" values="0 0 0 0 0 0 0 0 0 0 0 0 0 0 0 0 0 0 127 0" result="hardAlpha"/>
<feOffset dy="4"/>
<feGaussianBlur stdDeviation="3"/>
<feComposite in2="hardAlpha" operator="out"/>
<feColorMatrix type="matrix" values="0 0 0 0 0 0 0 0 0 0 0 0 0 0 0 0 0 0 0.16 0"/>
<feBlend mode="normal" in2="BackgroundImageFix" result="effect1_dropShadow_336_28096"/>
<feBlend mode="normal" in="SourceGraphic" in2="effect1_dropShadow_336_28096" result="shape"/>
</filter>
<clipPath id="clip0_336_28096">
<rect width="24" height="18" fill="white" transform="translate(6 3)"/>
</clipPath>
</defs>
</svg>
