<svg width="36" height="31" viewBox="0 0 36 31" fill="none" xmlns="http://www.w3.org/2000/svg">
<g filter="url(#filter0_d_336_28906)">
<g clip-path="url(#clip0_336_28906)">
<path fill-rule="evenodd" clip-rule="evenodd" d="M6 3H33V8.625H6V3Z" fill="#009A00"/>
<path fill-rule="evenodd" clip-rule="evenodd" d="M6 8.625H33V9.1875H6V8.625Z" fill="white"/>
<path fill-rule="evenodd" clip-rule="evenodd" d="M6 9.1875H33V14.8125H6V9.1875Z" fill="black"/>
<path fill-rule="evenodd" clip-rule="evenodd" d="M6 14.8125H33V15.375H6V14.8125Z" fill="white"/>
<path fill-rule="evenodd" clip-rule="evenodd" d="M6 15.375H33V21H6V15.375Z" fill="#FFCA00"/>
<path fill-rule="evenodd" clip-rule="evenodd" d="M6 3V21L17.8125 12L6 3Z" fill="#FF0000"/>
<path fill-rule="evenodd" clip-rule="evenodd" d="M12.9766 14.7066L11.1766 13.3883L9.37656 14.7066L10.0762 12.5867L8.26562 11.2824L10.498 11.2895L11.1766 9.16602L11.8586 11.293L14.091 11.2824L12.2805 12.5867L12.9766 14.7066Z" fill="#FFCA00"/>
<path fill-rule="evenodd" clip-rule="evenodd" d="M9.61328 13.227H10.9141C11.0195 13.343 11.248 13.3922 11.4695 13.227C11.8773 13.002 12.6648 13.227 12.6648 13.227L12.8195 13.0617L12.4434 11.8242L12.3062 11.6766C12.3062 11.6766 12.0145 11.5008 11.4625 11.5605C10.9105 11.6203 10.7172 11.543 10.7172 11.543C10.7172 11.543 10.2355 11.5992 10.0984 11.6695L9.94375 11.8242L9.61328 13.227V13.227Z" fill="white" stroke="black" stroke-width="0.0859375" stroke-linecap="round" stroke-linejoin="round"/>
<path d="M9.87891 12.907C9.87891 12.907 11.1164 12.7523 11.475 13.2269C11.2746 13.3675 11.0953 13.3781 10.9055 13.2375C10.9336 13.1847 11.3484 12.7523 12.4066 12.8965" stroke="black" stroke-width="0.0859375" stroke-linecap="round" stroke-linejoin="round"/>
<path d="M11.202 11.6699L11.1914 13.034M12.3059 11.6875L12.5379 12.7738" stroke="black" stroke-width="0.09375"/>
<path d="M10.1145 11.6699L9.98438 12.2324" stroke="black" stroke-width="0.0859375" stroke-linecap="round" stroke-linejoin="round"/>
<path fill-rule="evenodd" clip-rule="evenodd" d="M8.77344 13.3746L9.07578 13.7332C9.11094 13.7543 9.14609 13.7543 9.17773 13.7332L9.62773 13.1918L9.81758 12.9563C9.84922 12.9211 9.85625 12.8824 9.85273 12.8508L10.2184 12.5238L10.2957 12.5309C10.2605 12.5238 10.2359 12.5062 10.2605 12.4676L10.3449 12.4043L10.4082 12.4852C10.4082 12.4852 10.3168 12.6047 10.3062 12.6047H10.2078L10.018 12.777L10.1023 12.8473L10.2254 13.1918L10.3801 13.0828L10.2816 12.7312L10.4961 12.4957L10.4152 12.3691L10.4715 12.2988C10.4715 12.2988 11.2203 12.7699 11.5121 12.6434C11.5191 12.6434 11.5297 12.3059 11.5297 12.3059C11.5297 12.3059 10.7492 12.225 10.7316 12.0703C10.7141 11.9156 10.9074 11.8945 10.9074 11.8945L10.823 11.782L10.8406 11.7187L10.9777 11.8875L11.2836 11.6273L13.0941 13.6875C13.1926 13.6488 13.2137 13.6242 13.2207 13.5258L11.4488 11.4902L11.5824 11.3461C11.6105 11.3145 11.6176 11.3039 11.6176 11.2547L11.8285 11.0754C11.8837 11.0943 11.9309 11.1315 11.9621 11.1809L12.5387 10.6992C12.5527 10.7133 12.5984 10.7273 12.6301 10.7133L13.5758 9.80273L12.5457 10.5305L12.5105 10.5059C12.5105 10.4742 12.5457 10.4707 12.5105 10.4145C12.4684 10.3652 12.4086 10.4602 12.4016 10.4602C12.391 10.4602 12.2504 10.4109 12.2187 10.3477L12.2117 10.5129L11.948 10.759L11.7477 10.7484L11.4594 11.0297L11.4242 11.1352L11.4699 11.2301C11.4699 11.2301 11.3152 11.3637 11.3152 11.3566C11.3152 11.3461 11.2836 11.3145 11.2801 11.3109L11.4137 11.1914L11.4312 11.1105L11.3891 11.0402C11.375 11.0508 11.2063 11.2301 11.1957 11.209L10.7035 10.6641L10.7316 10.5621L10.4258 10.2281C10.3133 10.1895 10.134 10.1824 10.0988 10.4285C10.0707 10.4848 9.83867 10.4355 9.83867 10.4355L9.71211 10.4637L8.99492 11.4727L9.39219 11.9508L10.2078 10.9207L10.2324 10.6289L10.4012 10.8187C10.4609 10.8258 10.5137 10.8293 10.5664 10.8012L11.048 11.3391L10.9672 11.4199L11.0375 11.4973L11.1219 11.441L11.1535 11.4867C11.1148 11.5078 11.0832 11.5395 11.0445 11.5605C10.9812 11.5184 10.918 11.4656 10.9215 11.3848L10.6508 11.6098L10.6402 11.652L9.83516 12.3199L9.76484 12.3305L9.74727 12.5414L10.2711 12.1055V12.0422L10.3238 12.0879L10.7316 11.7609C10.7316 11.7609 10.7598 11.7961 10.7492 11.7961C10.7387 11.7961 10.3871 12.123 10.3871 12.123L10.3801 12.1582L10.3168 12.2145L10.2816 12.1863L9.78945 12.6223H9.71914L9.44844 12.893C9.37812 12.9 9.31836 12.907 9.25859 12.9457L8.77344 13.3746V13.3746Z" fill="black" stroke="black" stroke-width="0.0859375" stroke-linecap="round" stroke-linejoin="round"/>
</g>
</g>
<defs>
<filter id="filter0_d_336_28906" x="0" y="-2" width="36" height="36" filterUnits="userSpaceOnUse" color-interpolation-filters="sRGB">
<feFlood flood-opacity="0" result="BackgroundImageFix"/>
<feColorMatrix in="SourceAlpha" type="matrix" values="0 0 0 0 0 0 0 0 0 0 0 0 0 0 0 0 0 0 127 0" result="hardAlpha"/>
<feOffset dy="4"/>
<feGaussianBlur stdDeviation="3"/>
<feComposite in2="hardAlpha" operator="out"/>
<feColorMatrix type="matrix" values="0 0 0 0 0 0 0 0 0 0 0 0 0 0 0 0 0 0 0.16 0"/>
<feBlend mode="normal" in2="BackgroundImageFix" result="effect1_dropShadow_336_28906"/>
<feBlend mode="normal" in="SourceGraphic" in2="effect1_dropShadow_336_28906" result="shape"/>
</filter>
<clipPath id="clip0_336_28906">
<rect width="24" height="18" fill="white" transform="translate(6 3)"/>
</clipPath>
</defs>
</svg>
