<svg width="36" height="31" viewBox="0 0 36 31" fill="none" xmlns="http://www.w3.org/2000/svg">
<g filter="url(#filter0_d_336_25076)">
<g clip-path="url(#clip0_336_25076)">
<path fill-rule="evenodd" clip-rule="evenodd" d="M6 3H30V21H6V3Z" fill="#FFE800"/>
<path fill-rule="evenodd" clip-rule="evenodd" d="M6 12H30V21H6V12Z" fill="#00148E"/>
<path fill-rule="evenodd" clip-rule="evenodd" d="M6 16.5H30V21H6V16.5Z" fill="#DA0010"/>
<path fill-rule="evenodd" clip-rule="evenodd" d="M16.1113 13.9057L13.3887 16.7745L13.3438 16.7145L16.0588 13.8457L16.1037 13.9057H16.1113ZM18.0013 14.3745L14.4462 18.1245L14.3863 18.0645L17.9375 14.3145L18.0013 14.3745Z" fill="black"/>
<path fill-rule="evenodd" clip-rule="evenodd" d="M14.457 18.0801L14.1248 18.4123L13.7461 18.6981L14.0319 18.3194L14.3641 17.9872L14.457 18.0801Z" fill="#808080" stroke="black" stroke-width="0.0401739"/>
<path fill-rule="evenodd" clip-rule="evenodd" d="M13.543 16.6152L13.2107 16.9475L12.832 17.2333L13.1178 16.8546L13.45 16.5223L13.543 16.6152Z" fill="#808080" stroke="black" stroke-width="0.0401739"/>
<path fill-rule="evenodd" clip-rule="evenodd" d="M13.7988 7.30469C13.7988 7.30469 13.5001 15.3831 14.6949 15.3831C15.8896 15.3831 16.4887 14.5335 16.4887 14.5335L16.4752 10.0935L13.7988 7.30469V7.30469Z" fill="#FFDF00" stroke="black" stroke-width="0.0592558"/>
<path fill-rule="evenodd" clip-rule="evenodd" d="M14.5283 8.05859C14.5283 8.48339 14.395 14.5338 14.9924 14.5338C15.5898 14.5338 16.4875 14.109 16.4875 14.109L16.474 10.0938L14.5283 8.05859V8.05859Z" fill="#0000C4" stroke="black" stroke-width="0.0592558"/>
<path fill-rule="evenodd" clip-rule="evenodd" d="M14.918 8.4668C14.918 8.8916 14.9939 13.6844 15.593 13.6844H16.489L16.4755 10.094L14.918 8.4668Z" fill="#E10000" stroke="black" stroke-width="0.0592558"/>
<path fill-rule="evenodd" clip-rule="evenodd" d="M13.7344 7.34906L16.4494 10.2178L16.4981 10.1578L13.7831 7.28906L13.7344 7.34906V7.34906Z" fill="black"/>
<path fill-rule="evenodd" clip-rule="evenodd" d="M12.9123 8.96094C12.9123 8.96094 12.1423 16.7869 14.4522 16.7869C16.377 16.7869 16.377 15.5523 16.762 15.5523L16.377 12.6693L12.9101 8.96094H12.9123Z" fill="#FFDF00" stroke="black" stroke-width="0.0662132"/>
<path d="M14.8177 10.2621C14.8342 10.2608 15.4185 8.99649 16.8787 8.1962" stroke="black" stroke-width="0.0717282"/>
<path fill-rule="evenodd" clip-rule="evenodd" d="M14.5808 9.0698C14.7844 9.16482 14.9132 9.27417 15.0305 9.40167C14.7975 9.35285 14.6773 9.33312 14.4737 9.2381C14.27 9.14307 14.1145 8.99772 13.9909 8.88012C14.1425 8.92625 14.376 8.97425 14.5808 9.0698V9.0698Z" fill="#005B00" stroke="black" stroke-width="0.0324425"/>
<path fill-rule="evenodd" clip-rule="evenodd" d="M15.0913 9.84412C15.1063 9.86962 15.0934 9.90554 15.0617 9.92317C15.03 9.94079 14.992 9.934 14.9766 9.90787C14.9612 9.88173 14.9749 9.84708 15.0066 9.82945C15.0383 9.81183 15.0763 9.81862 15.0913 9.84412Z" fill="#FF0000" stroke="black" stroke-width="0.0222517"/>
<path fill-rule="evenodd" clip-rule="evenodd" d="M15.7323 8.26087C15.6441 8.48486 15.5467 8.63246 15.4345 8.77016C15.485 8.52097 15.5064 8.39306 15.5946 8.16907C15.6829 7.94508 15.8116 7.76531 15.9157 7.62221C15.8708 7.78601 15.821 8.03564 15.7323 8.26087V8.26087Z" fill="#005B00" stroke="black" stroke-width="0.0305855"/>
<path fill-rule="evenodd" clip-rule="evenodd" d="M15.4346 8.24963C15.4143 8.47362 15.3697 8.6471 15.311 8.82305C15.2957 8.60536 15.2842 8.49657 15.3046 8.27258C15.3249 8.0486 15.3874 7.83057 15.4384 7.65597C15.4391 7.80683 15.4551 8.02441 15.4346 8.24963V8.24963Z" fill="#005B00" stroke="black" stroke-width="0.0264082"/>
<path fill-rule="evenodd" clip-rule="evenodd" d="M15.6261 8.50572C15.5107 8.64147 15.4136 8.70034 15.3116 8.73859C15.4144 8.55034 15.4648 8.45022 15.5802 8.31447C15.6956 8.17872 15.8192 8.11497 15.9185 8.06547C15.8446 8.18003 15.7421 8.36922 15.6261 8.50572V8.50572Z" fill="#005B00" stroke="black" stroke-width="0.028684"/>
<path fill-rule="evenodd" clip-rule="evenodd" d="M14.6432 8.69546C14.779 8.85836 14.8465 9.01526 14.8975 9.18866C14.7197 9.06776 14.626 9.01136 14.4902 8.84846C14.3545 8.68556 14.278 8.48156 14.218 8.31716C14.3282 8.41151 14.5067 8.53166 14.6432 8.69546V8.69546Z" fill="#005B00" stroke="black" stroke-width="0.0328223"/>
<path fill-rule="evenodd" clip-rule="evenodd" d="M14.371 9.95086C14.5406 10.0866 14.6302 10.2266 14.7016 10.3847C14.4857 10.2951 14.3723 10.2549 14.2027 10.1192C14.033 9.98341 13.9297 9.79981 13.8484 9.65161C13.9836 9.72563 14.2003 9.81436 14.371 9.95086V9.95086Z" fill="#005B00" stroke="black" stroke-width="0.0348485"/>
<path fill-rule="evenodd" clip-rule="evenodd" d="M15.1657 9.87574C15.0299 10.0929 14.8831 10.2389 14.7148 10.3766C14.7959 10.1384 14.831 10.0164 14.9668 9.79924C15.1025 9.58204 15.2963 9.40354 15.4529 9.26134C15.3824 9.41877 15.3022 9.65734 15.1657 9.87574V9.87574Z" fill="#005B00" stroke="black" stroke-width="0.0357995"/>
<path fill-rule="evenodd" clip-rule="evenodd" d="M15.3077 9.86727C15.0905 10.0166 14.9014 10.0943 14.7 10.1555C14.8857 9.96418 14.9757 9.8636 15.1929 9.71428C15.4101 9.56495 15.6524 9.4757 15.8471 9.4055C15.7112 9.52505 15.5261 9.71712 15.3077 9.86727V9.86727Z" fill="#005B00" stroke="black" stroke-width="0.0344037"/>
<path fill-rule="evenodd" clip-rule="evenodd" d="M16.7704 8.3062C16.6753 8.4148 16.5901 8.47915 16.4983 8.53525C16.5766 8.40565 16.6141 8.3383 16.7092 8.2297C16.8042 8.1211 16.9138 8.0446 17.002 7.984C16.9438 8.06702 16.8659 8.197 16.7704 8.3062V8.3062Z" fill="#005B00" stroke="black" stroke-width="0.0182192"/>
<path fill-rule="evenodd" clip-rule="evenodd" d="M16.5671 7.98624C16.5128 8.10163 16.4548 8.18833 16.3885 8.27503C16.4218 8.15964 16.4363 8.10163 16.4906 7.98624C16.5449 7.87086 16.6214 7.76248 16.6832 7.67578C16.6546 7.75483 16.6217 7.87022 16.5671 7.98624V7.98624Z" fill="#005B00" stroke="black" stroke-width="0.0151349"/>
<path fill-rule="evenodd" clip-rule="evenodd" d="M16.8849 8.19265C16.7899 8.24695 16.7185 8.2636 16.6471 8.2687C16.7421 8.185 16.7899 8.13985 16.8849 8.08555C16.98 8.03125 17.0692 8.01595 17.1406 8.00455C17.0755 8.05383 16.9805 8.13805 16.8849 8.19265V8.19265Z" fill="#005B00" stroke="black" stroke-width="0.0165898"/>
<path fill-rule="evenodd" clip-rule="evenodd" d="M15.5736 8.80161C15.4039 8.90342 15.2643 8.96267 15.1189 9.01367C15.2739 8.89086 15.3503 8.82692 15.52 8.72511C15.6897 8.6233 15.8669 8.55317 16.0091 8.49767C15.8989 8.57605 15.7442 8.69923 15.5736 8.80161V8.80161Z" fill="#005B00" stroke="black" stroke-width="0.0208298"/>
<path fill-rule="evenodd" clip-rule="evenodd" d="M16.0671 8.95347C15.8431 9.08922 15.6524 9.15327 15.4509 9.19917C15.6476 9.01722 15.7437 8.92092 15.9677 8.78517C16.1916 8.64942 16.4352 8.57802 16.6308 8.52222C16.4885 8.6342 16.2923 8.81697 16.0671 8.95347V8.95347Z" fill="#005B00" stroke="black" stroke-width="0.0346726"/>
<path d="M14.5462 11.1511C14.5607 11.1428 14.4242 9.95182 15.3353 8.71297" stroke="black" stroke-width="0.0706036"/>
<path fill-rule="evenodd" clip-rule="evenodd" d="M15.9429 8.64099C15.9579 8.66649 15.945 8.70242 15.9133 8.72004C15.8816 8.73767 15.8435 8.73088 15.8282 8.70474C15.8128 8.6786 15.8264 8.64395 15.8582 8.62633C15.8899 8.6087 15.9279 8.61549 15.9429 8.64099Z" fill="#FF0000" stroke="black" stroke-width="0.0222517"/>
<path fill-rule="evenodd" clip-rule="evenodd" d="M16.3452 8.40466C16.3602 8.43016 16.3474 8.46609 16.3156 8.48371C16.2839 8.50134 16.2459 8.49455 16.2305 8.46841C16.2151 8.44228 16.2288 8.40762 16.2605 8.39C16.2922 8.37238 16.3303 8.37916 16.3452 8.40466Z" fill="#FF0000" stroke="black" stroke-width="0.0222517"/>
<path fill-rule="evenodd" clip-rule="evenodd" d="M15.217 9.1984C15.2275 9.2179 15.2079 9.24873 15.1727 9.26635C15.1374 9.28398 15.1002 9.28214 15.0895 9.26215C15.0787 9.24216 15.0988 9.21231 15.1341 9.19469C15.1693 9.17706 15.2065 9.1789 15.217 9.1984Z" fill="#FF0000" stroke="black" stroke-width="0.0200628"/>
<path fill-rule="evenodd" clip-rule="evenodd" d="M15.3381 9.14567C15.3486 9.16517 15.329 9.19599 15.2937 9.21362C15.2585 9.23124 15.2213 9.2294 15.2106 9.20942C15.1998 9.18943 15.2199 9.15958 15.2552 9.14195C15.2904 9.12433 15.3276 9.12617 15.3381 9.14567Z" fill="#FF0000" stroke="black" stroke-width="0.0200628"/>
<path fill-rule="evenodd" clip-rule="evenodd" d="M15.2639 9.25895C15.2744 9.27845 15.2548 9.30927 15.2195 9.3269C15.1843 9.34452 15.1471 9.34268 15.1364 9.3227C15.1256 9.30271 15.1457 9.27286 15.1809 9.25523C15.2162 9.23761 15.2534 9.23945 15.2639 9.25895Z" fill="#FF0000" stroke="black" stroke-width="0.0200628"/>
<path fill-rule="evenodd" clip-rule="evenodd" d="M15.477 9.27356C15.492 9.30356 15.477 9.34106 15.4395 9.35981C15.402 9.37856 15.3645 9.36731 15.3495 9.33356C15.3345 9.29981 15.3495 9.26606 15.387 9.24731C15.4245 9.22856 15.462 9.23981 15.4732 9.27356H15.477Z" fill="#FF0000" stroke="black" stroke-width="0.0248437"/>
<path fill-rule="evenodd" clip-rule="evenodd" d="M15.5605 9.18491C15.5717 9.21491 15.5605 9.25241 15.523 9.27116C15.4855 9.28991 15.448 9.27866 15.4292 9.24866C15.4105 9.21866 15.4292 9.17741 15.4667 9.15866C15.5042 9.13991 15.5417 9.15491 15.5567 9.18491H15.5605Z" fill="#FF0000" stroke="black" stroke-width="0.0248437"/>
<path fill-rule="evenodd" clip-rule="evenodd" d="M15.5825 9.22503C15.5975 9.25503 15.5825 9.29628 15.545 9.31128C15.5075 9.32628 15.47 9.31878 15.455 9.28878C15.44 9.25878 15.455 9.22128 15.4925 9.20253C15.53 9.18378 15.5675 9.19503 15.5825 9.22503Z" fill="#FF0000" stroke="black" stroke-width="0.0248437"/>
<path fill-rule="evenodd" clip-rule="evenodd" d="M13.6792 9.78516C13.6792 10.1967 12.9093 14.7281 14.8363 15.9627C15.6063 16.3742 16.7612 15.5512 16.7612 15.9627L16.3762 12.6682L13.6792 9.78516Z" fill="#0000C4" stroke="black" stroke-width="0.0662132"/>
<path fill-rule="evenodd" clip-rule="evenodd" d="M14.4521 10.6094C14.4521 11.0209 14.0671 14.3154 15.2242 15.1408C15.9942 15.9638 17.9212 15.7407 17.9212 15.7407L16.3791 12.6693L14.4521 10.6094V10.6094Z" fill="#E10000" stroke="black" stroke-width="0.0662132"/>
<path fill-rule="evenodd" clip-rule="evenodd" d="M12.8906 8.92539L16.4456 12.6754L16.5094 12.6154L12.9544 8.86914L12.8944 8.92914L12.8906 8.92539Z" fill="black"/>
<path fill-rule="evenodd" clip-rule="evenodd" d="M12.3458 8.48097L12.5714 8.5208L12.6378 8.58717C12.6287 8.5865 12.7042 8.65355 12.6113 8.74647C12.5183 8.8394 12.3861 8.70612 12.3861 8.70612C12.3861 8.70612 12.4259 8.9318 12.5591 9.06492C12.6922 9.19805 12.8511 9.17112 12.8511 9.17112C12.8511 9.17112 12.6998 9.04715 12.8113 8.94545C12.9229 8.84285 12.9706 8.9189 12.9706 8.9189L13.1033 9.05165L13.1968 8.9582L12.6654 8.42682L12.6256 8.20115L12.2833 8.14445L12.3459 8.48007L12.3458 8.48097Z" fill="#CECECC" stroke="black" stroke-width="0.0184762"/>
<path fill-rule="evenodd" clip-rule="evenodd" d="M12.8687 6.90434L13.1417 7.32764L13.4874 7.42094L13.2617 7.56697L13.6733 7.55369L13.8596 7.68682L13.9264 7.58002L13.7395 7.44652L13.5938 7.03439L13.5536 7.31377L13.3411 7.00747L12.8685 6.90337L12.8687 6.90434Z" fill="#CECECC" stroke="black" stroke-width="0.0198939"/>
<path fill-rule="evenodd" clip-rule="evenodd" d="M13.981 7.15904C13.981 7.18154 13.951 7.20066 13.9165 7.20066C13.882 7.20066 13.8505 7.18154 13.8505 7.15904C13.8505 7.13654 13.8805 7.11629 13.9165 7.11629C13.9525 7.11629 13.981 7.13541 13.981 7.15904ZM13.888 7.24791C13.888 7.65066 14.2015 9.36066 14.227 9.40229C14.2285 9.45291 14.155 9.47429 14.1205 9.41241C14.0215 9.21666 13.8085 7.61241 13.801 7.23779C13.7965 7.08366 13.8565 7.07129 13.9255 7.07466C13.981 7.07691 14.05 7.11629 14.05 7.16354C14.05 7.21979 13.963 7.26141 13.888 7.24791V7.24791Z" fill="#E10000" stroke="black" stroke-width="0.0382495"/>
<path fill-rule="evenodd" clip-rule="evenodd" d="M14.1015 7.55761C14.0902 7.58011 14.0522 7.59174 14.0194 7.58311C13.9866 7.57449 13.9662 7.54749 13.9775 7.52499C13.9887 7.50249 14.0274 7.48974 14.0616 7.49874C14.0958 7.50774 14.1133 7.53399 14.1015 7.55761ZM13.9687 7.62324C14.0722 8.43211 13.725 9.68124 13.7278 9.73036C13.7045 9.78024 13.6234 9.78436 13.6221 9.71274C13.6051 9.66624 14.0048 8.53786 13.8911 7.59136C13.9639 7.43611 14.0271 7.43874 14.0909 7.45936C14.1425 7.47549 14.1884 7.53211 14.1648 7.57936C14.1366 7.63561 14.0332 7.65549 13.9687 7.62324V7.62324Z" fill="#0000C4" stroke="black" stroke-width="0.0400852"/>
<path fill-rule="evenodd" clip-rule="evenodd" d="M13.0023 8.68211C13.0023 8.71961 12.9648 8.75711 12.9198 8.75711C12.8748 8.75711 12.8373 8.71961 12.8373 8.68211C12.8373 8.64461 12.8748 8.61461 12.9198 8.61461C12.9648 8.61461 12.9986 8.64461 12.9986 8.68211H13.0023ZM12.8823 8.83211C12.8823 9.50336 13.2761 12.3534 13.3061 12.4246C13.3061 12.5071 13.2198 12.5446 13.1748 12.4396C13.0511 12.1134 12.7848 9.43961 12.7736 8.81711C12.7698 8.55836 12.8448 8.53961 12.9311 8.54336C13.0023 8.54711 13.0848 8.61461 13.0848 8.69336C13.0848 8.78336 12.9761 8.85461 12.8823 8.83211Z" fill="#E10000" stroke="black" stroke-width="0.0579687"/>
<path fill-rule="evenodd" clip-rule="evenodd" d="M13.2027 9.02752C13.1877 9.06352 13.139 9.08287 13.0976 9.06993C13.0562 9.05699 13.0311 9.01458 13.0461 8.97858C13.0611 8.94258 13.1106 8.92143 13.1538 8.93493C13.197 8.94843 13.2185 8.98972 13.2027 9.02752ZM13.0319 9.13484C13.1384 10.4172 12.6582 12.4094 12.6603 12.4873C12.6291 12.5671 12.5259 12.5755 12.5265 12.4618C12.5063 12.3883 13.0494 10.5868 12.9342 9.08602C13.0316 8.83773 13.1118 8.84043 13.1924 8.8717C13.2575 8.89612 13.314 8.98499 13.2825 9.06059C13.245 9.15059 13.1129 9.18457 13.0319 9.13484V9.13484Z" fill="#0000C4" stroke="black" stroke-width="0.0564642"/>
<path fill-rule="evenodd" clip-rule="evenodd" d="M19.89 13.9057L22.6087 16.7745L22.6575 16.7145L19.9388 13.8457L19.89 13.9057ZM18 14.3745L21.555 18.1245L21.615 18.0645L18.0638 14.3145L18 14.3745V14.3745Z" fill="black"/>
<path fill-rule="evenodd" clip-rule="evenodd" d="M21.543 18.0801L21.8752 18.4123L22.2539 18.6981L21.9681 18.3194L21.6359 17.9872L21.543 18.0801Z" fill="#808080" stroke="black" stroke-width="0.0401739"/>
<path fill-rule="evenodd" clip-rule="evenodd" d="M22.4609 16.6152L22.7932 16.9475L23.1719 17.2333L22.8861 16.8546L22.5539 16.5223L22.4609 16.6152Z" fill="#808080" stroke="black" stroke-width="0.0401739"/>
<path fill-rule="evenodd" clip-rule="evenodd" d="M22.2012 7.30469C22.2012 7.30469 22.4999 15.3831 21.3051 15.3831C20.1104 15.3831 19.5113 14.5335 19.5113 14.5335L19.5248 10.0935L22.2012 7.30469V7.30469Z" fill="#FFDF00" stroke="black" stroke-width="0.0592558"/>
<path fill-rule="evenodd" clip-rule="evenodd" d="M21.4717 8.05859C21.4717 8.48339 21.605 14.5338 21.0076 14.5338C20.4102 14.5338 19.5125 14.109 19.5125 14.109L19.526 10.0938L21.4717 8.05859V8.05859Z" fill="#0000C4" stroke="black" stroke-width="0.0592558"/>
<path fill-rule="evenodd" clip-rule="evenodd" d="M21.082 8.4668C21.082 8.8916 21.0061 13.6844 20.407 13.6844H19.511L19.5245 10.094L21.082 8.4668Z" fill="#E10000" stroke="black" stroke-width="0.0592558"/>
<path fill-rule="evenodd" clip-rule="evenodd" d="M22.2677 7.35102L19.5527 10.2198L19.5039 10.1598L22.2189 7.29102L22.2677 7.35102Z" fill="black"/>
<path fill-rule="evenodd" clip-rule="evenodd" d="M20.1214 9.56628C20.1214 9.56628 20.8825 10.5428 21.2497 11.2975C21.6166 12.0537 22.045 13.2061 22.045 13.2061C22.045 13.2061 21.8002 12.0716 21.3382 11.162C20.7328 10.0178 20.1211 9.63138 20.1214 9.56628Z" fill="#005B00" stroke="black" stroke-width="0.0276486"/>
<path fill-rule="evenodd" clip-rule="evenodd" d="M20.0941 8.79092C20.0941 8.79092 20.9435 9.99861 21.3311 10.8943C21.7183 11.7917 22.1494 13.1368 22.1494 13.1368C22.1494 13.1368 21.9402 11.8427 21.4493 10.7599C20.8023 9.39355 20.0887 8.86274 20.0941 8.79092Z" fill="#005B00" stroke="black" stroke-width="0.0319475"/>
<path fill-rule="evenodd" clip-rule="evenodd" d="M20.8285 7.59791C20.8285 7.59791 21.4294 9.38629 21.6126 10.4922C21.7947 11.599 21.9059 13.1223 21.9059 13.1223C21.9059 13.1223 22.0216 11.8438 21.7762 10.4867C21.4366 8.74916 20.8036 7.65334 20.8285 7.59791Z" fill="#005B00" stroke="black" stroke-width="0.0362876"/>
<path fill-rule="evenodd" clip-rule="evenodd" d="M20.2895 7.51568C20.2895 7.51568 21.1216 9.10392 21.4457 10.1832C21.769 11.264 22.0729 12.8234 22.0729 12.8234C22.0729 12.8234 22.0291 11.4068 21.6104 10.093C21.0487 8.424 20.2713 7.58734 20.2895 7.51568Z" fill="#005B00" stroke="black" stroke-width="0.0367712"/>
<path fill-rule="evenodd" clip-rule="evenodd" d="M21.2894 8.01984C21.2894 8.01984 21.7035 9.72984 21.8075 10.75C21.9107 11.7709 21.9402 13.1483 21.9402 13.1483C21.9402 13.1483 22.0841 12.0335 21.9397 10.7775C21.7344 9.16434 21.2671 8.06424 21.2894 8.01984Z" fill="#005B00" stroke="black" stroke-width="0.0326094"/>
<path fill-rule="evenodd" clip-rule="evenodd" d="M20.1957 8.06836C20.1957 8.06836 21.0007 9.42886 21.3265 10.3799C21.6515 11.3324 21.9715 12.7244 21.9715 12.7244C21.9715 12.7244 21.8937 11.4344 21.475 10.2794C20.9159 8.81536 20.181 8.13586 20.1957 8.06836Z" fill="#005B00" stroke="black" stroke-width="0.033538"/>
<path fill-rule="evenodd" clip-rule="evenodd" d="M20.0433 9.0155C20.0433 9.0155 20.8927 10.094 21.2803 10.92C21.6675 11.7477 22.0986 13.0045 22.0986 13.0045C22.0986 13.0045 21.8894 11.7732 21.3985 10.7771C20.7516 9.52302 20.0379 9.08566 20.0433 9.0155Z" fill="#005B00" stroke="black" stroke-width="0.0315945"/>
<path fill-rule="evenodd" clip-rule="evenodd" d="M20.1527 8.51948C20.1527 8.51948 20.934 9.78829 21.2741 10.7061C21.6137 11.6255 21.9752 12.9894 21.9752 12.9894C21.9752 12.9894 21.8305 11.6969 21.3973 10.5852C20.8236 9.17985 20.1439 8.58956 20.1527 8.51948Z" fill="#005B00" stroke="black" stroke-width="0.0315267"/>
<path fill-rule="evenodd" clip-rule="evenodd" d="M21.0004 7.62332C21.0004 7.62332 21.5027 9.37423 21.6272 10.4436C21.7507 11.5139 21.783 12.9769 21.783 12.9769C21.783 12.9769 21.9624 11.7638 21.7891 10.45C21.5423 8.7661 20.973 7.67451 21.0004 7.62332Z" fill="#005B00" stroke="black" stroke-width="0.0352737"/>
<path fill-rule="evenodd" clip-rule="evenodd" d="M20.309 7.18759C20.309 7.18759 21.0425 8.83695 21.308 9.93837C21.5726 11.0412 21.7976 12.6193 21.7976 12.6193C21.7976 12.6193 21.8174 11.2044 21.4709 9.86175C21.002 8.15367 20.2883 7.25753 20.309 7.18759Z" fill="#005B00" stroke="black" stroke-width="0.0362643"/>
<path fill-rule="evenodd" clip-rule="evenodd" d="M21.4769 8.1468C21.4769 8.1468 21.7924 9.78877 21.8378 10.7614C21.8823 11.7346 21.8329 13.0424 21.8329 13.0424C21.8329 13.0424 22.0404 11.9922 21.9682 10.7939C21.8557 9.25395 21.4521 8.18782 21.4769 8.1468Z" fill="#005B00" stroke="black" stroke-width="0.0313549"/>
<path fill-rule="evenodd" clip-rule="evenodd" d="M20.2153 7.86722C20.2153 7.86722 20.9488 9.28885 21.2143 10.262C21.4789 11.2365 21.7039 12.6473 21.7039 12.6473C21.7039 12.6473 21.7237 11.3589 21.3772 10.175C20.9083 8.67197 20.1946 7.933 20.2153 7.86722Z" fill="#005B00" stroke="black" stroke-width="0.0342706"/>
<path fill-rule="evenodd" clip-rule="evenodd" d="M23.0877 8.96094C23.0877 8.96094 23.8577 16.7869 21.5478 16.7869C19.623 16.7869 19.623 15.5523 19.238 15.5523L19.623 12.6693L23.0899 8.96094H23.0877Z" fill="#FFDF00" stroke="black" stroke-width="0.0662132"/>
<path fill-rule="evenodd" clip-rule="evenodd" d="M22.3169 9.78711C22.3169 10.1986 23.0868 14.7301 21.1598 15.9646C20.3898 16.3762 19.2349 15.5531 19.2349 15.9646L19.6199 12.6701L22.3169 9.78711Z" fill="#0000C4" stroke="black" stroke-width="0.0662132"/>
<path fill-rule="evenodd" clip-rule="evenodd" d="M21.5479 10.6094C21.5479 11.0209 21.9329 14.3154 20.7758 15.1408C20.0058 15.9638 18.0788 15.7407 18.0788 15.7407L19.6209 12.6693L21.5479 10.6094V10.6094Z" fill="#E10000" stroke="black" stroke-width="0.0662132"/>
<path fill-rule="evenodd" clip-rule="evenodd" d="M23.107 8.92539L19.552 12.6754L19.4883 12.6154L23.0433 8.86914L23.107 8.92914V8.92539Z" fill="black"/>
<path fill-rule="evenodd" clip-rule="evenodd" d="M23.6542 8.48097L23.4286 8.5208L23.3622 8.58717C23.3713 8.5865 23.2958 8.65355 23.3887 8.74647C23.4817 8.8394 23.6139 8.70612 23.6139 8.70612C23.6139 8.70612 23.5741 8.9318 23.4409 9.06492C23.3078 9.19805 23.1489 9.17112 23.1489 9.17112C23.1489 9.17112 23.3002 9.04715 23.1887 8.94545C23.0771 8.84285 23.0294 8.9189 23.0294 8.9189L22.8967 9.05165L22.8032 8.9582L23.3346 8.42682L23.3744 8.20115L23.7167 8.14445L23.6541 8.48007L23.6542 8.48097Z" fill="#CECECC" stroke="black" stroke-width="0.0184762"/>
<path fill-rule="evenodd" clip-rule="evenodd" d="M23.1274 6.90434L22.8544 7.32764L22.5087 7.42094L22.7344 7.56697L22.3228 7.55369L22.1365 7.68682L22.0697 7.58002L22.2566 7.44652L22.4023 7.03439L22.4425 7.31377L22.655 7.00747L23.1276 6.90337L23.1274 6.90434Z" fill="#CECECC" stroke="black" stroke-width="0.0198939"/>
<path fill-rule="evenodd" clip-rule="evenodd" d="M22.0229 7.15904C22.0229 7.18154 22.0529 7.20066 22.0874 7.20066C22.1219 7.20066 22.1534 7.18154 22.1534 7.15904C22.1534 7.13654 22.1234 7.11629 22.0874 7.11629C22.0514 7.11629 22.0229 7.13541 22.0229 7.15904ZM22.1159 7.24791C22.1159 7.65066 21.8024 9.36066 21.7769 9.40229C21.7754 9.45291 21.8489 9.47429 21.8834 9.41241C21.9824 9.21666 22.1954 7.61241 22.2029 7.23779C22.2074 7.08366 22.1474 7.07129 22.0784 7.07466C22.0229 7.07691 21.9539 7.11629 21.9539 7.16354C21.9539 7.21979 22.0409 7.26141 22.1159 7.24791V7.24791Z" fill="#E10000" stroke="black" stroke-width="0.0382495"/>
<path fill-rule="evenodd" clip-rule="evenodd" d="M21.8985 7.55957C21.9098 7.58207 21.9478 7.59369 21.9806 7.58507C22.0134 7.57644 22.0338 7.54944 22.0225 7.52694C22.0113 7.50444 21.9726 7.49169 21.9384 7.50069C21.9042 7.50969 21.8867 7.53594 21.8985 7.55957ZM22.0313 7.62519C21.9278 8.43407 22.275 9.68319 22.2722 9.73232C22.2955 9.78219 22.3766 9.78632 22.3779 9.71469C22.3949 9.66819 21.9952 8.53982 22.1089 7.59332C22.0361 7.43807 21.9729 7.44069 21.9091 7.46132C21.8575 7.47744 21.8116 7.53407 21.8352 7.58132C21.8634 7.63757 21.9668 7.65744 22.0313 7.62519V7.62519Z" fill="#0000C4" stroke="black" stroke-width="0.0400852"/>
<path fill-rule="evenodd" clip-rule="evenodd" d="M22.9989 8.68211C22.9989 8.71961 23.0364 8.75711 23.0777 8.75711C23.1227 8.75711 23.1602 8.71961 23.1602 8.68211C23.1602 8.64461 23.1227 8.61461 23.0777 8.61461C23.0327 8.61461 22.9989 8.64461 22.9989 8.68211ZM23.1114 8.83211C23.0216 10.0349 22.8815 11.2335 22.6914 12.4246C22.6914 12.5071 22.7777 12.5446 22.8227 12.4396C22.9464 12.1134 23.2127 9.43961 23.2239 8.81711C23.2277 8.55836 23.1527 8.53961 23.0664 8.54336C22.9952 8.54711 22.9127 8.61461 22.9127 8.69336C22.9127 8.78336 23.0214 8.85461 23.1152 8.83211H23.1114Z" fill="#E10000" stroke="black" stroke-width="0.0579687"/>
<path fill-rule="evenodd" clip-rule="evenodd" d="M22.7934 9.02752C22.8084 9.06352 22.8571 9.08287 22.8985 9.06993C22.9399 9.05699 22.965 9.01458 22.95 8.97858C22.935 8.94258 22.8855 8.92143 22.8423 8.93493C22.7991 8.94843 22.7776 8.98972 22.7934 9.02752ZM22.9642 9.13484C22.8577 10.4172 23.3379 12.4094 23.3358 12.4873C23.367 12.5671 23.4702 12.5755 23.4696 12.4618C23.4898 12.3883 22.9467 10.5868 23.0619 9.08602C22.9645 8.83773 22.8843 8.84043 22.8037 8.8717C22.7386 8.89612 22.6821 8.98499 22.7136 9.06059C22.7511 9.15059 22.8832 9.18457 22.9642 9.13484V9.13484Z" fill="#0000C4" stroke="black" stroke-width="0.0564642"/>
<path fill-rule="evenodd" clip-rule="evenodd" d="M16.7678 18.8453C16.9435 18.9532 17.1426 19.01 17.3453 19.01C17.5479 19.01 17.747 18.9532 17.9227 18.8453V15.5508H17.1528C17.5378 16.7854 17.5378 18.0223 16.7656 18.8453H16.7678Z" fill="#E10000" stroke="black" stroke-width="0.0662132"/>
<path fill-rule="evenodd" clip-rule="evenodd" d="M17.3781 15.6235C17.3781 17.9466 16.8203 18.4637 16.8203 18.931C17.0526 18.931 17.2075 18.7131 17.3781 18.4138C17.6104 17.9466 17.6328 15.5867 17.6104 15.6235H17.3781Z" fill="#0000C4" stroke="black" stroke-width="0.0546535"/>
<path fill-rule="evenodd" clip-rule="evenodd" d="M16.9107 15.6241C16.8989 16.9812 16.3227 18.2386 16.4317 18.5168C16.555 18.7662 16.9107 17.9472 17.3754 18.4118C17.6077 17.9472 17.63 15.5873 17.6077 15.6215H16.9107V15.6241Z" fill="#0000C4" stroke="black" stroke-width="0.0546535"/>
<path fill-rule="evenodd" clip-rule="evenodd" d="M16.9639 15.4261C16.9639 16.9527 16.4297 17.0545 16.4297 17.4616C16.662 17.4616 16.9626 17.239 16.9639 17.2597C17.1962 16.9527 17.2185 15.4019 17.1962 15.4261H16.9639Z" fill="#FFDF00" stroke="black" stroke-width="0.0443045"/>
<path fill-rule="evenodd" clip-rule="evenodd" d="M16.4994 15.4261C16.4876 16.3179 15.9246 17.0769 16.0335 17.2597C16.1582 17.4219 16.4994 16.9527 16.9641 17.2597C17.1964 16.9527 17.2187 15.4019 17.1964 15.4261H16.4994Z" fill="#FFDF00" stroke="black" stroke-width="0.0443045"/>
<path fill-rule="evenodd" clip-rule="evenodd" d="M19.2361 18.8453C19.0604 18.9532 18.8613 19.01 18.6586 19.01C18.456 19.01 18.2569 18.9532 18.0812 18.8453V15.5508H18.8511C18.4662 16.7854 18.4662 18.0223 19.2383 18.8453H19.2361Z" fill="#E10000" stroke="black" stroke-width="0.0662132"/>
<path fill-rule="evenodd" clip-rule="evenodd" d="M18.6258 15.6235C18.6258 17.9466 19.1836 18.4637 19.1836 18.931C18.9513 18.931 18.7964 18.7131 18.6258 18.4138C18.3935 17.9466 18.3712 15.5867 18.3935 15.6235H18.6258Z" fill="#0000C4" stroke="black" stroke-width="0.0546535"/>
<path fill-rule="evenodd" clip-rule="evenodd" d="M19.0932 15.6241C19.105 16.9812 19.6812 18.2386 19.5722 18.5168C19.4489 18.7662 19.0932 17.9472 18.6286 18.4118C18.3962 17.9472 18.3739 15.5873 18.3962 15.6215H19.0932V15.6241Z" fill="#0000C4" stroke="black" stroke-width="0.0546535"/>
<path fill-rule="evenodd" clip-rule="evenodd" d="M19.04 15.4261C19.04 16.9527 19.5742 17.0545 19.5742 17.4616C19.3419 17.4616 19.0413 17.239 19.04 17.2597C18.8077 16.9527 18.7854 15.4019 18.8077 15.4261H19.04Z" fill="#FFDF00" stroke="black" stroke-width="0.0443045"/>
<path fill-rule="evenodd" clip-rule="evenodd" d="M19.5045 15.4261C19.5163 16.3179 20.0793 17.0769 19.9704 17.2597C19.8457 17.4219 19.5045 16.9527 19.0398 17.2597C18.8075 16.9527 18.7852 15.4019 18.8075 15.4261H19.5045Z" fill="#FFDF00" stroke="black" stroke-width="0.0443045"/>
<path fill-rule="evenodd" clip-rule="evenodd" d="M15.0599 15.8091L14.6562 16.1011L15.0599 16.3932L15.2615 16.2471L15.3623 16.3932L15.4631 16.6852L15.5644 16.3932L15.6652 16.2471H21.0737V15.9551H15.6647L15.5639 15.8082C15.5639 15.6622 15.5851 15.5162 15.6652 15.5162H16.0684C16.0684 15.3702 15.8668 15.0781 15.4631 15.0781C15.0599 15.0781 14.8578 15.3702 14.8578 15.5162H15.2615C15.3412 15.5162 15.3623 15.6622 15.3623 15.8091L15.2615 15.9551L15.0595 15.8082L15.0599 15.8091Z" fill="#908F8A" stroke="black" stroke-width="0.0605495"/>
<path fill-rule="evenodd" clip-rule="evenodd" d="M16.2422 16.5177H19.7775V16.6969H16.2432L16.2422 16.5177ZM16.2422 16.3375H19.7775V16.5177H16.2432L16.2422 16.3375ZM16.2422 16.1583H19.7775V16.3385H16.2432L16.2422 16.1583ZM16.2422 15.979H19.7775V16.1583H16.2432L16.2422 15.979ZM16.2422 15.7998H19.7775V15.979H16.2432L16.2422 15.7998ZM16.2422 15.6196H19.7775V15.7998H16.2432L16.2422 15.6196ZM16.2422 15.4414H19.7775V15.6196H16.2432L16.2422 15.4414Z" fill="#B74D00" stroke="black" stroke-width="0.0409854"/>
<path fill-rule="evenodd" clip-rule="evenodd" d="M16.4141 15.4297L17.7059 16.6852H17.8906L16.5997 15.4307H16.415L16.4141 15.4297Z" fill="#908F8A" stroke="black" stroke-width="0.0710005"/>
<path fill-rule="evenodd" clip-rule="evenodd" d="M16.4141 16.7227L17.7059 15.4672H17.8906L16.5997 16.7216H16.415L16.4141 16.7227Z" fill="#908F8A" stroke="black" stroke-width="0.0710005"/>
<path fill-rule="evenodd" clip-rule="evenodd" d="M16.4492 15.4297V16.6852H16.6351V15.4297H16.4492V15.4297Z" fill="#908F8A" stroke="black" stroke-width="0.070586"/>
<path fill-rule="evenodd" clip-rule="evenodd" d="M18.0742 15.4297L19.3661 16.6852H19.5508L18.2598 15.4307H18.0752L18.0742 15.4297Z" fill="#908F8A" stroke="black" stroke-width="0.0710005"/>
<path fill-rule="evenodd" clip-rule="evenodd" d="M18.0742 16.7227L19.3661 15.4672H19.5508L18.2598 16.7216H18.0752L18.0742 16.7227Z" fill="#908F8A" stroke="black" stroke-width="0.0710005"/>
<path fill-rule="evenodd" clip-rule="evenodd" d="M19.4023 15.4297V16.6852H19.5882V15.4297H19.4023V15.4297Z" fill="#908F8A" stroke="black" stroke-width="0.070586"/>
<path fill-rule="evenodd" clip-rule="evenodd" d="M18.1133 15.4297V16.6852H18.2991V15.4297H18.1133V15.4297Z" fill="#908F8A" stroke="black" stroke-width="0.070586"/>
<path fill-rule="evenodd" clip-rule="evenodd" d="M17.7383 15.4297V16.6852H17.9241V15.4297H17.7383V15.4297Z" fill="#908F8A" stroke="black" stroke-width="0.070586"/>
<path fill-rule="evenodd" clip-rule="evenodd" d="M20.6167 11.8451C20.6167 13.8911 19.4074 15.5511 17.9197 15.5511C16.432 15.5511 15.2227 13.8911 15.2227 11.8451C15.2227 9.79909 16.4298 8.13672 17.9197 8.13672C19.4095 8.13672 20.6167 9.79677 20.6167 11.8428V11.8451ZM20.2317 11.8451C20.2317 13.6632 19.1964 15.1396 17.9197 15.1396C16.6429 15.1396 15.6076 13.6632 15.6076 11.8451C15.6076 10.0246 16.6429 8.54824 17.9197 8.54824C19.1964 8.54824 20.2317 10.0246 20.2317 11.8451V11.8451Z" fill="#FFDF00" stroke="black" stroke-width="0.0662132"/>
<path fill-rule="evenodd" clip-rule="evenodd" d="M18.9682 8.42967C18.6442 8.24134 18.2896 8.13672 17.9177 8.13672C17.5458 8.13672 17.1913 8.24134 16.8672 8.42734L17.0194 8.80864C17.293 8.64011 17.6031 8.5514 17.9188 8.5514C18.2345 8.5514 18.5446 8.64011 18.8182 8.80864L18.9682 8.42734V8.42967Z" fill="#FFDF00" stroke="black" stroke-width="0.0662132"/>
<path fill-rule="evenodd" clip-rule="evenodd" d="M18.976 15.1602C18.652 15.3485 18.2974 15.4531 17.9255 15.4531C17.5536 15.4531 17.1991 15.3485 16.875 15.1625L17.0272 14.7812C17.3008 14.9497 17.6109 15.0384 17.9266 15.0384C18.2423 15.0384 18.5525 14.9497 18.826 14.7812L18.976 15.1625V15.1602Z" fill="#FFDF00" stroke="black" stroke-width="0.0662132"/>
<path fill-rule="evenodd" clip-rule="evenodd" d="M20.2331 11.8469C20.2331 13.6656 19.1944 15.1394 17.9194 15.1394C16.6444 15.1394 15.6094 13.6656 15.6094 11.8469C15.6094 10.0281 16.6444 8.54688 17.9194 8.54688C19.1944 8.54688 20.2331 10.0244 20.2331 11.8469V11.8469Z" fill="#A7CFFF"/>
<path fill-rule="evenodd" clip-rule="evenodd" d="M20.2339 11.8462C20.2579 12.4647 20.1339 12.7669 19.9751 13.411C19.9338 13.4807 19.7359 13.2598 19.6184 13.1506C19.501 13.0413 19.4488 13.2482 19.3009 13.0808C19.1551 12.9088 19.0616 13.1273 18.9529 12.9832C18.8441 12.839 17.8371 12.8204 17.8371 12.8065C17.9371 12.7553 18.4504 12.8111 18.3678 12.5484C18.2743 12.274 17.6935 12.5391 17.6152 12.1903C17.5609 11.8416 16.4494 11.8276 16.369 11.7439C16.4016 11.8741 17.2346 11.9299 17.215 12.2671C17.1955 12.4066 16.3951 12.4461 16.3168 12.5623C16.2515 12.7088 16.9475 12.5228 16.9714 12.7018C16.9714 12.7762 16.8692 12.7018 16.5082 12.8181C16.3255 12.8762 16.8431 13.0576 16.6474 13.1575C16.4516 13.2575 16.0318 13.3017 16.0492 13.3435C16.1145 13.5528 17.0215 13.7992 16.9323 13.8341C16.6104 13.9876 16.4407 14.0875 16.2863 14.1759C15.8338 13.4965 15.5968 12.6801 15.6099 11.8462C16.2994 11.5812 16.1536 11.5254 17.4282 11.5254C18.7027 11.5254 19.1247 11.5789 20.2339 11.8462V11.8462Z" fill="#AFFF7B" stroke="black" stroke-width="0.0662132"/>
<path fill-rule="evenodd" clip-rule="evenodd" d="M20.2334 11.8454C20.0594 11.8454 19.8767 11.9244 19.6897 11.9244C19.5004 11.9244 19.309 11.843 19.1133 11.843C18.9175 11.843 18.6935 11.95 18.4934 11.95C18.2911 11.95 18.115 11.8454 17.9127 11.8454C17.7104 11.8454 17.5081 11.9244 17.308 11.9244C17.1079 11.9244 16.91 11.843 16.7164 11.843C16.5229 11.843 16.3315 11.9244 16.1466 11.9244C15.9617 11.9244 15.7812 11.843 15.6094 11.843C15.6094 11.3897 15.6746 10.9572 15.7921 10.562C16.3793 10.6085 16.0313 10.1969 16.3793 10.1969C16.4809 10.1911 16.5825 10.2083 16.6774 10.2476C16.7723 10.2869 16.8582 10.3473 16.9296 10.4248C16.9818 10.4248 17.2428 10.1597 17.5364 10.1969C17.8279 10.2341 17.7213 10.8317 18.1106 10.8619C18.3064 11.02 18.4217 11.12 18.6914 11.1851C19.0763 11.2223 20.179 11.1269 20.1856 11.1804C20.2173 11.4004 20.2333 11.6227 20.2334 11.8454V11.8454Z" fill="white" stroke="black" stroke-width="0.0662132"/>
<path fill-rule="evenodd" clip-rule="evenodd" d="M18.2703 13.7633C18.2703 13.6607 18.3715 13.5923 18.3715 13.4285C18.3715 13.2647 18.2815 13.2611 18.2785 13.1081C18.277 13.0451 18.3558 12.9821 18.3903 12.9749C18.4248 12.9677 18.454 13.1081 18.454 13.1387C18.454 13.1693 18.4188 13.0631 18.3895 13.0613C18.3603 13.0595 18.2973 13.0721 18.2973 13.1027C18.2973 13.1639 18.4083 13.2395 18.4 13.4447C18.3918 13.6463 18.3048 13.7075 18.3048 13.7687C18.3048 13.8299 18.3423 13.9991 18.3423 13.9991C18.3423 13.9991 18.2695 13.8641 18.2695 13.7615L18.2703 13.7633Z" fill="black" stroke="black" stroke-width="0.0342114"/>
<path fill-rule="evenodd" clip-rule="evenodd" d="M18.593 13.7483C18.593 13.6457 18.4917 13.5773 18.4917 13.4135C18.4917 13.2497 18.5817 13.2461 18.5847 13.0931C18.5922 13.0211 18.4962 12.9743 18.4617 12.9689C18.4272 12.9635 18.3867 13.1129 18.3867 13.1417C18.3867 13.1705 18.4273 13.0481 18.4565 13.0463C18.4858 13.0445 18.566 13.0571 18.566 13.0877C18.566 13.1489 18.455 13.2245 18.4632 13.4297C18.4715 13.6313 18.5585 13.6925 18.5585 13.7537C18.5585 13.8149 18.521 13.9841 18.521 13.9841C18.521 13.9841 18.5938 13.8491 18.5938 13.7465L18.593 13.7483Z" fill="black" stroke="black" stroke-width="0.0342114"/>
<path fill-rule="evenodd" clip-rule="evenodd" d="M18.4877 12.9336C18.4877 12.9823 18.4614 13.0236 18.4314 13.0236C18.4014 13.0236 18.3789 12.9823 18.3789 12.9298C18.3789 12.8773 18.4014 12.8398 18.4314 12.8398C18.4614 12.8398 18.4877 12.8811 18.4877 12.9336ZM19.1252 13.2711H19.1402V14.0023H19.1214L19.1252 13.2711ZM19.2789 13.2111H19.2977V13.9498H19.2789V13.2111Z" fill="black"/>
<path fill-rule="evenodd" clip-rule="evenodd" d="M19.2227 13.5441V13.5254L19.3727 13.5516V13.5704L19.2227 13.5441Z" fill="black"/>
<path fill-rule="evenodd" clip-rule="evenodd" d="M17.0803 13.7566C17.0803 13.7566 17.6458 14.0216 17.7698 14.1797C17.8916 14.3378 17.8437 14.3378 17.8437 14.3378L19.0987 14.3913C19.0987 14.3123 19.3205 14.3123 19.3706 14.1263C19.4206 13.9426 19.4206 13.8891 19.4206 13.8891L19.0269 14.0216L19.0487 13.7845H18.705L18.655 14.0216L17.9155 13.9961L17.9655 13.3613L17.8176 13.3869L17.7959 13.9914C17.7698 13.9914 17.1042 13.8077 17.0781 13.7566H17.0803Z" fill="#B74D00" stroke="black" stroke-width="0.0662132"/>
<path fill-rule="evenodd" clip-rule="evenodd" d="M15.9414 9.97186C15.9414 9.97186 16.7614 9.71146 17.9446 9.73006C19.1278 9.74866 19.9478 10.0277 19.9304 10.0277C19.913 10.0277 19.7042 9.59986 19.7042 9.59986C19.7042 9.59986 18.869 9.35573 17.9272 9.33713C16.9876 9.31853 16.1676 9.52313 16.1872 9.54173L15.9414 9.97186V9.97186Z" fill="#FEDE00" stroke="#FEDE00" stroke-width="0.0662132"/>
<path fill-rule="evenodd" clip-rule="evenodd" d="M17.475 9.36656L17.985 9.35906L17.9925 9.65531L17.4825 9.66656L17.475 9.36656ZM16.305 9.52781L16.125 9.82406L16.7325 9.74906L16.6837 9.46031L16.305 9.53531V9.52781ZM16.8187 9.41531L17.3288 9.37406L17.3513 9.66656L16.845 9.71156L16.8187 9.41531ZM18.6525 9.38906L18.1462 9.35156L18.1275 9.65156L18.6337 9.68156L18.6525 9.38906ZM19.7475 9.57656L19.9312 9.93656L19.3837 9.80156L19.4437 9.51281L19.7437 9.57281L19.7475 9.57656ZM19.305 9.46406L18.8025 9.40031L18.765 9.69281L19.2712 9.76031L19.305 9.46406Z" fill="#38A9F9"/>
<path fill-rule="evenodd" clip-rule="evenodd" d="M17.9453 10.1381L17.8909 9.82425L17.7256 10.0916L17.7865 9.77775L17.5407 9.95678L17.706 9.69405L17.4146 9.75915L17.6647 9.58245L17.3711 9.52433L17.6647 9.46388L17.4146 9.28718L17.706 9.35228L17.5386 9.08955L17.7865 9.26858L17.7256 8.9547L17.8909 9.22208L17.9453 8.9082L18.0018 9.22208L18.165 8.9547L18.1062 9.26858L18.352 9.08955L18.1845 9.35228L18.4782 9.28718L18.228 9.46388L18.5217 9.52433L18.228 9.58245L18.4782 9.75915L18.1845 9.69405L18.352 9.95678L18.1062 9.77775L18.1671 10.0916L18.0018 9.82425L17.9453 10.1381Z" fill="#FFDF00" stroke="black" stroke-width="0.0662132"/>
<path fill-rule="evenodd" clip-rule="evenodd" d="M18.3788 9.32859C18.3788 9.50297 18.2377 9.64359 18.0624 9.64359C17.8872 9.64359 17.7461 9.50297 17.7461 9.32859C17.7461 9.15422 17.8872 9.01172 18.0624 9.01172C18.2377 9.01172 18.3788 9.15422 18.3788 9.33047V9.32859Z" fill="#FFDF00" stroke="black" stroke-width="0.0589464"/>
<path fill-rule="evenodd" clip-rule="evenodd" d="M18.0264 9.39687C18.0264 9.41562 17.9777 9.43437 17.9214 9.43437C17.8652 9.43437 17.8164 9.41562 17.8164 9.39687C17.8164 9.37812 17.8614 9.35938 17.9214 9.35938C17.9814 9.35938 18.0264 9.37437 18.0264 9.39687ZM18.2514 9.39687C18.2514 9.41562 18.2177 9.43437 18.1764 9.43437C18.1352 9.43437 18.0939 9.41562 18.0939 9.39687C18.0939 9.37437 18.1314 9.35938 18.1727 9.35938C18.2139 9.35938 18.2514 9.37437 18.2514 9.39687V9.39687Z" fill="black"/>
<path d="M18.0138 9.52733L18.0357 9.53993C17.9831 9.50776 18.0071 9.51968 18.0897 9.60113C18.137 9.57368 18.1459 9.54871 18.1752 9.51473" stroke="black" stroke-width="0.0668749"/>
<path d="M17.804 9.69345L17.8214 9.71205C17.7801 9.66555 17.7997 9.6888 17.891 9.74925C17.978 9.76088 18.0672 9.72135 18.1194 9.65625" stroke="black" stroke-width="0.0662132"/>
<path fill-rule="evenodd" clip-rule="evenodd" d="M16.552 10.3047C16.552 10.3047 16.5895 10.6047 16.3608 10.9797C16.1358 11.3509 16.1695 11.2197 16.1695 11.2197C16.1695 11.2197 16.2745 11.4259 16.2558 11.4259C16.237 11.4259 16.0795 11.2384 16.0795 11.2384L15.892 11.4447C15.892 11.4447 16.0645 11.1259 16.0458 11.1259C16.027 11.1259 15.9933 11.0134 15.9933 11.0134L16.132 10.9572C16.132 10.9572 16.342 10.5672 16.342 10.5859C16.342 10.6047 15.7158 11.0134 15.7158 11.0134L16.552 10.3084V10.3047ZM16.6908 10.4172C16.672 10.4172 16.777 10.7172 16.867 10.8672C16.9533 11.0172 16.9533 11.2009 16.9533 11.2009L17.2495 11.3509L16.867 10.7734L17.1108 10.8634L16.6908 10.4172ZM16.6908 11.2009C16.6908 11.2009 16.9008 11.4259 16.9158 11.5009C16.9308 11.5759 16.9345 11.7409 16.9345 11.7409L16.8483 11.5534L16.7245 11.7222C16.7245 11.7222 16.8145 11.4597 16.7958 11.4409C16.777 11.4222 16.657 11.5347 16.657 11.5347C16.657 11.5347 16.7095 11.3847 16.7095 11.3697C16.7095 11.3547 16.7095 11.2572 16.6908 11.2009V11.2009ZM15.6445 11.7222C15.7158 11.6659 15.8545 11.6284 15.8545 11.6284C15.8545 11.6284 15.7683 11.7784 15.7495 11.7784C15.7308 11.7784 15.682 11.7784 15.6445 11.7222ZM18.0483 10.9047C18.0483 10.9047 18.502 11.1822 18.502 11.2009C18.502 11.2197 18.2058 11.0697 18.2058 11.0697L18.0483 10.9047V10.9047ZM17.2308 10.3234C17.2683 10.3422 17.8945 10.8634 17.8758 10.8634C17.857 10.8634 17.5983 10.7134 17.5983 10.7359V10.8634L17.4558 10.5672L17.422 10.6797L17.2345 10.3234H17.2308ZM17.3883 11.1634L17.5608 11.5159L17.737 11.4784C17.737 11.4784 17.407 11.1634 17.3883 11.1634ZM17.9283 10.9384L17.947 11.2759C17.947 11.2759 18.0483 11.3697 18.0483 11.3509C18.0483 11.3322 17.947 10.9572 17.9283 10.9384Z" fill="#B7E1FF"/>
<path fill-rule="evenodd" clip-rule="evenodd" d="M12.8477 6.35609C12.8477 6.35609 13.6352 5.92109 14.5314 5.59859C15.1908 5.35631 15.8712 5.17554 16.5639 5.05859C16.8264 5.05859 17.2839 5.72609 17.3589 5.72609C17.4339 5.72609 17.7377 5.53859 18.1202 5.53859C18.5027 5.53859 18.7239 5.83859 18.8027 5.83859H19.4852C19.5602 5.83859 19.2564 5.09609 19.4852 5.13359C19.5977 5.15234 20.5652 5.30234 21.4652 5.59109C22.3652 5.88359 23.6402 6.40109 23.6402 6.40109C23.6402 6.40109 21.5589 6.67484 21.0002 6.59609C20.9252 6.63359 21.0002 7.08359 20.8877 6.88484C20.7152 6.84734 20.0739 6.74609 19.9614 6.74609C19.8489 6.74609 19.6352 6.87359 19.3314 6.94859C19.0314 7.02359 18.6489 7.13609 18.6489 7.13609L19.1439 7.91234L18.5364 8.21234C18.5364 8.21234 18.1577 7.31984 18.0039 7.31984C17.8502 7.31984 17.7789 7.94984 17.5877 7.91234C17.4002 7.87484 17.3252 7.31984 17.1714 7.16984C17.0214 7.02359 16.2189 6.96734 15.9152 6.89609C15.6152 6.82109 15.1239 6.76484 14.8577 6.68984C14.5952 6.61484 14.3252 6.87734 14.2127 6.87734C14.1002 6.87734 14.3627 6.65234 14.2502 6.61484C14.1377 6.57734 14.0627 6.72734 13.9877 6.72734C13.9127 6.72734 13.1139 6.57734 13.0389 6.53984C12.9639 6.50234 13.2264 6.35609 13.1514 6.35609H12.8477Z" fill="#984000"/>
<path fill-rule="evenodd" clip-rule="evenodd" d="M18.5065 5.98475C18.5065 6.19145 18.3366 6.35915 18.1279 6.35915C17.9191 6.35915 17.75 6.19145 17.75 5.98475C17.75 5.77805 17.9191 5.61133 18.1279 5.61133C18.3366 5.61133 18.5065 5.77903 18.5065 5.98475Z" fill="#808080" stroke="#772600" stroke-width="0.0732817"/>
<path fill-rule="evenodd" clip-rule="evenodd" d="M16.5859 6.0564C16.6538 5.9772 16.7378 5.8572 16.9575 5.8572C17.0081 5.8368 17.0081 5.7168 17.1256 5.7168C17.2441 5.7168 17.2096 5.8368 17.2947 5.8776C17.3787 5.9172 18.0703 5.8368 18.0703 5.8368C18.0703 5.8368 18.1371 5.8968 18.1371 5.9772C18.1371 6.0576 18.0865 6.1164 18.0703 6.1164C18.0541 6.1164 17.3787 6.0564 17.3281 6.0768C17.2775 6.0972 17.2441 6.1164 17.1256 6.1164C17.0081 6.1164 16.9737 5.9772 16.8897 5.9772C16.8056 5.9772 16.7216 5.9568 16.5859 6.0576V6.0564Z" fill="#984000" stroke="#772600" stroke-width="0.129012"/>
<path d="M18.6414 6.01363H18.9107C19.0079 6.01483 19.0413 6.04963 19.1304 6.05323H19.3663C19.4524 6.04963 19.498 6.02563 19.585 6.01363C19.7319 6.01123 19.6822 5.99803 19.6529 5.89363C19.6266 5.81563 19.6225 5.77843 19.585 5.73403C19.5709 5.63803 19.5385 5.60443 19.5344 5.49403C19.5192 5.41003 19.4909 5.35363 19.5182 5.25403C19.5567 5.32243 19.5719 5.35003 19.6701 5.35483C19.7713 5.35483 19.8108 5.35123 19.8726 5.39443C19.9192 5.45323 19.9819 5.43403 20.0751 5.43403C20.152 5.45083 20.1652 5.49763 20.226 5.53363C20.2978 5.58163 20.3444 5.59363 20.4447 5.59363C20.5257 5.61163 20.5965 5.62483 20.6472 5.65363C20.6907 5.71483 20.7585 5.73043 20.8497 5.73403C20.9003 5.73403 20.9408 5.72803 20.9843 5.71363C21.0623 5.71843 21.1413 5.71363 21.2374 5.71363C21.3002 5.80003 21.3144 5.83243 21.4227 5.83363C21.4977 5.89603 21.5604 5.90563 21.6252 5.93323H21.8784C21.9695 5.94163 21.9978 5.98603 22.0809 6.01363C22.1521 6.05178 22.2251 6.08504 22.2996 6.11323C22.372 6.12878 22.4456 6.13562 22.5193 6.13363C22.581 6.17203 22.657 6.17443 22.7046 6.21283C22.7744 6.23083 22.8696 6.25243 22.9233 6.27283C23.0124 6.28723 23.0468 6.32083 23.1258 6.33283C23.1936 6.35683 23.1035 6.37603 23.0579 6.39283C22.9587 6.38923 22.9516 6.34483 22.8554 6.33283C22.8048 6.29803 22.7278 6.30283 22.6529 6.27283H22.6367C22.7035 6.32083 22.7683 6.35083 22.738 6.43363C22.6519 6.43363 22.582 6.42043 22.5021 6.41323C22.417 6.39403 22.3785 6.37363 22.2834 6.37363C22.3785 6.34603 22.4028 6.37603 22.4686 6.41323C22.4929 6.50923 22.4403 6.47323 22.3502 6.47323C22.2732 6.44083 22.2267 6.40123 22.1315 6.39283H21.929C22.0292 6.39763 22.0505 6.44203 22.1143 6.49363C22.1193 6.52483 22.1133 6.52243 22.0636 6.53323C22.011 6.47923 21.9432 6.46123 21.8611 6.43363C21.7812 6.43003 21.6971 6.42163 21.6252 6.39283C21.5756 6.38923 21.5837 6.31963 21.6931 6.43363C21.7589 6.47923 21.7822 6.51763 21.7771 6.55363C21.69 6.52723 21.6475 6.48643 21.5918 6.45283C21.5161 6.4217 21.436 6.40825 21.3559 6.41323C21.2688 6.38563 21.365 6.37003 21.4227 6.47323C21.5483 6.57883 21.4065 6.53323 21.3559 6.51283C21.28 6.48763 21.201 6.45043 21.1362 6.43363C21.0856 6.41563 21.041 6.39883 20.9843 6.39283C21.0724 6.40243 21.1018 6.43963 21.1362 6.51283C21.2253 6.58483 21.1321 6.55003 21.0522 6.53323C21.0015 6.48043 20.9357 6.45283 20.9003 6.39283C20.8162 6.34363 20.8132 6.28483 20.8669 6.41323C20.88 6.45403 20.877 6.54283 20.8831 6.55363C20.8213 6.47323 20.8345 6.45283 20.7656 6.45283C20.718 6.41443 20.6492 6.38443 20.6137 6.33283C20.5489 6.32563 20.5449 6.29803 20.4791 6.27283C20.5327 6.34843 20.6046 6.42283 20.6472 6.49363C20.7241 6.54403 20.7454 6.58963 20.799 6.63283C20.8203 6.67723 20.88 6.71323 20.8162 6.65323C20.7433 6.56923 20.6897 6.54883 20.5803 6.49363C20.5176 6.43363 20.4953 6.40963 20.4285 6.35323C20.3373 6.31843 20.3728 6.29923 20.4285 6.41323C20.4922 6.48283 20.5408 6.55963 20.5965 6.61363C20.6402 6.67545 20.6914 6.72924 20.7484 6.77323C20.7636 6.79963 20.8092 6.80443 20.7484 6.81283C20.6978 6.75763 20.6229 6.72283 20.5631 6.67243C20.4791 6.64483 20.4396 6.59323 20.3778 6.53323C20.3373 6.46243 20.2725 6.40843 20.226 6.35323C20.1288 6.30763 20.2452 6.39643 20.2766 6.45283C20.2978 6.52603 20.3252 6.58483 20.3434 6.65323C20.3718 6.71923 20.2584 6.63763 20.226 6.61363C20.1593 6.56248 20.0846 6.52817 20.0062 6.51283C19.9391 6.49691 19.8716 6.4837 19.8037 6.47323C19.7278 6.44923 19.8453 6.53083 19.8888 6.61363C19.9738 6.70843 19.8048 6.63043 19.7541 6.61363C19.6705 6.5968 19.5857 6.58996 19.501 6.59323C19.3927 6.60043 19.4706 6.61723 19.501 6.67243C19.5344 6.70363 19.5577 6.76843 19.5516 6.79243C19.4808 6.78043 19.42 6.75643 19.3319 6.75283C19.261 6.78043 19.177 6.77323 19.096 6.77323C19.093 6.82363 19.1112 6.78043 19.1466 6.83323C19.2054 6.86083 19.2438 6.89443 19.2317 6.93283H18.7426C18.689 6.94963 18.7538 6.94123 18.7933 7.01323C18.771 7.07803 18.7426 7.05283 18.6748 7.05283C18.6292 7.03123 18.5371 7.02163 18.4895 6.99283C18.4419 6.99283 18.446 6.97843 18.4055 6.97243C18.5472 7.09243 18.4764 7.06243 18.5574 7.15243C18.5705 7.15843 18.6029 7.17283 18.5736 7.17283M17.4608 7.81243C17.4507 7.81243 17.4284 7.74763 17.394 7.69243C17.3697 7.62043 17.3393 7.66123 17.3089 7.55203C17.313 7.43923 17.316 7.42003 17.3089 7.31203C17.2401 7.25443 17.2107 7.23763 17.1571 7.13203C17.072 7.04803 17.1702 6.90403 17.1864 6.79843C17.1115 6.77923 17.0751 6.93643 16.9606 6.99283C16.8776 7.05883 16.9505 6.85603 16.91 6.73843C16.8827 6.57163 16.8007 6.82243 16.7703 6.89323C16.7146 6.93763 16.6974 6.99523 16.6184 6.91243C16.6184 6.85123 16.668 6.67843 16.6468 6.64483C16.5678 6.69163 16.4645 6.83083 16.3825 6.85243C16.2995 6.83203 16.3997 6.67483 16.3997 6.55843C16.3693 6.54643 16.2509 6.86803 16.2023 6.87043C16.1537 6.87283 16.1749 6.55843 16.1517 6.56563C16.1162 6.62563 16.0443 6.75043 15.9947 6.79363C15.8985 6.77803 16.0089 6.58363 16.0231 6.51163C16.0393 6.42523 15.933 6.67723 15.8763 6.69283C15.8347 6.73603 15.7527 6.76483 15.7244 6.77323C15.7568 6.69883 15.9168 6.54883 15.9066 6.50563C15.8125 6.50923 15.6697 6.65563 15.5897 6.67363C15.5371 6.67363 15.4642 6.69403 15.4551 6.69283C15.4591 6.59683 15.6515 6.51763 15.6819 6.45883C15.5877 6.47683 15.4065 6.57523 15.3538 6.65323C15.291 6.66883 15.2121 6.68923 15.1513 6.65323C15.1604 6.56323 15.3022 6.38923 15.3336 6.33163C15.2475 6.37603 15.205 6.41083 15.1138 6.43123C15.0966 6.45163 15.048 6.49483 15.0632 6.45163C15.0906 6.36763 15.1311 6.33163 15.1645 6.27163C15.0885 6.28843 15.0602 6.34003 14.9792 6.39163C14.9275 6.39403 14.7797 6.57043 14.7301 6.57283C14.6461 6.65128 14.5481 6.70588 14.4436 6.73243C14.3666 6.74923 14.3292 6.76843 14.2917 6.81283C14.3302 6.73243 14.3889 6.65683 14.4436 6.61363C14.4769 6.54079 14.5306 6.48395 14.5954 6.45283C14.6147 6.42523 14.6673 6.41803 14.6116 6.41323C14.5641 6.46363 14.4831 6.52123 14.4436 6.55363C14.3919 6.59203 14.3322 6.63043 14.3079 6.61363C14.3352 6.52723 14.3838 6.50563 14.4264 6.43363C14.5155 6.36643 14.4264 6.40963 14.3585 6.43363C14.315 6.47923 14.237 6.51403 14.1732 6.55363C14.1024 6.57523 14.0548 6.62563 13.9707 6.65323C13.9707 6.68203 13.995 6.60163 14.0052 6.57283C14.074 6.48403 14.0922 6.45883 14.1732 6.43363C14.1935 6.39883 14.2178 6.41323 14.157 6.41323C14.1105 6.46123 14.0477 6.48763 13.9879 6.53323C13.9282 6.54883 13.8502 6.55363 13.7692 6.55363C13.6639 6.56803 13.6731 6.57763 13.7692 6.51283C13.8229 6.45283 13.8675 6.46843 13.8705 6.39283C13.8067 6.44803 13.7287 6.48883 13.6508 6.53323C13.586 6.53563 13.5688 6.55363 13.4989 6.55363C13.5323 6.51283 13.5526 6.46123 13.6002 6.43363C13.671 6.34123 13.5556 6.41563 13.5323 6.43363H13.2792C13.2346 6.50083 13.2772 6.43363 13.3136 6.39283C13.3572 6.36643 13.4027 6.33163 13.3977 6.31363C13.347 6.36523 13.2893 6.38923 13.2458 6.43363C13.1992 6.45043 13.1445 6.45763 13.1445 6.47323C13.182 6.40963 13.2417 6.37003 13.2802 6.31363C13.3369 6.29923 13.3855 6.27763 13.3977 6.25363H13.1617H13.3298C13.4159 6.25363 13.4888 6.24403 13.5667 6.23323C13.7004 6.20683 13.5546 6.19363 13.4817 6.19363C13.4685 6.16243 13.5242 6.14563 13.5829 6.13363C13.6336 6.10483 13.6974 6.07963 13.752 6.05323C13.8003 6.03581 13.8458 6.00905 13.8867 5.97403C13.8361 5.97643 13.8361 5.99083 13.7854 5.99323C13.8614 5.98723 13.915 5.97403 14.0052 5.97403C14.0794 5.94503 14.1524 5.91179 14.2239 5.87443C14.2542 5.83123 14.2664 5.83363 14.1904 5.83363C14.2583 5.80843 14.3545 5.79523 14.4091 5.77363C14.4789 5.7563 14.5469 5.72974 14.6116 5.69443C14.6613 5.65483 14.6896 5.60803 14.7463 5.57443C14.8121 5.62723 14.8131 5.63443 14.9316 5.63443C15.0268 5.63323 15.0855 5.60563 15.1341 5.55403C15.207 5.53003 15.2202 5.48923 15.3032 5.47483C15.3812 5.48935 15.4601 5.49578 15.5391 5.49403C15.6201 5.46883 15.6981 5.42203 15.7578 5.37403C15.8094 5.34403 15.8712 5.30083 15.9269 5.27443C15.9876 5.31163 16.0362 5.34163 16.1122 5.35483C16.1901 5.34043 16.2316 5.29483 16.2975 5.27443C16.338 5.22323 16.3912 5.18839 16.4493 5.17483C16.5475 5.11723 16.5405 5.19283 16.584 5.25403C16.6346 5.31643 16.6994 5.28643 16.7693 5.31403C16.8088 5.38603 16.8371 5.43403 16.8877 5.47363C16.9272 5.53123 16.9738 5.54563 17.0568 5.55403C17.0872 5.60203 17.0629 5.63563 17.1237 5.65363C17.148 5.68483 17.1895 5.69683 17.2249 5.71363" stroke="#772600" stroke-width="0.0851963"/>
<path d="M18.449 7.30414V7.31374C18.449 7.28614 18.449 7.30174 18.4662 7.35454C18.4723 7.39774 18.4581 7.39294 18.4409 7.42414C18.4379 7.46854 18.4328 7.50094 18.4328 7.55374C18.4267 7.59694 18.4065 7.63774 18.3903 7.67374C18.3741 7.71094 18.3042 7.73254 18.3062 7.78414C18.2657 7.79734 18.2647 7.76614 18.2637 7.71334C18.2394 7.68094 18.2313 7.63654 18.2131 7.59334C18.203 7.55254 18.1787 7.52134 18.1625 7.47334C18.1382 7.42894 18.1169 7.41574 18.0956 7.36414C18.0865 7.34014 18.0885 7.30894 18.0703 7.29454C18.043 7.25254 18.0248 7.24654 17.9772 7.24414C17.9407 7.25374 17.9265 7.27294 17.8931 7.28374C17.8668 7.29454 17.8162 7.29094 17.7838 7.30414C17.7757 7.31974 17.8 7.32814 17.8091 7.36414C17.7868 7.38574 17.7787 7.42294 17.7666 7.45414C17.7463 7.48414 17.7332 7.49854 17.724 7.54414C17.7382 7.57174 17.7261 7.60894 17.7078 7.63414C17.7018 7.67974 17.6825 7.70494 17.6734 7.74334C17.6471 7.76614 17.637 7.78654 17.6147 7.82374C17.5955 7.85614 17.5782 7.85374 17.5307 7.85374C17.4932 7.84174 17.4881 7.81774 17.4547 7.80334C17.4517 7.79134 17.4486 7.78774 17.4375 7.78414" stroke="#782600" stroke-width="0.0754596"/>
<path fill-rule="evenodd" clip-rule="evenodd" d="M17.5337 7.70625C17.5337 7.70625 17.5187 7.89375 17.3987 8.0175C17.2787 8.14125 17.0312 8.28375 17.0312 8.28375C17.0312 8.28375 17.365 8.12625 17.3987 8.16C17.4362 8.1975 17.185 8.47125 17.185 8.47125C17.185 8.47125 17.5112 8.1825 17.5525 8.1825C17.5937 8.1825 17.6875 8.46375 17.725 8.45625C17.7588 8.44875 17.65 8.1 17.665 8.04375C17.68 7.99125 17.665 7.695 17.665 7.695L17.5375 7.70625H17.5337ZM18.3025 7.68375C18.3025 7.68375 18.2875 7.8825 18.1675 8.01375C18.0475 8.145 17.8 8.29875 17.8 8.29875C17.8 8.29875 18.1337 8.13 18.1675 8.1675C18.205 8.205 17.9537 8.4975 17.9537 8.4975C17.9537 8.4975 18.28 8.19 18.3212 8.19C18.3625 8.19 18.4563 8.49 18.4938 8.4825C18.5275 8.475 18.4187 8.1 18.4337 8.04375C18.4487 7.98375 18.4337 7.66875 18.4337 7.66875L18.3025 7.68375V7.68375ZM17.2262 5.88375C17.2262 5.9175 17.1887 5.9475 17.1475 5.9475C17.1062 5.9475 17.065 5.9175 17.065 5.88C17.065 5.8425 17.1025 5.8125 17.1475 5.8125C17.1925 5.8125 17.2262 5.8425 17.2262 5.88V5.88375Z" fill="#812E00"/>
</g>
</g>
<defs>
<filter id="filter0_d_336_25076" x="0" y="-2" width="36" height="36" filterUnits="userSpaceOnUse" color-interpolation-filters="sRGB">
<feFlood flood-opacity="0" result="BackgroundImageFix"/>
<feColorMatrix in="SourceAlpha" type="matrix" values="0 0 0 0 0 0 0 0 0 0 0 0 0 0 0 0 0 0 127 0" result="hardAlpha"/>
<feOffset dy="4"/>
<feGaussianBlur stdDeviation="3"/>
<feComposite in2="hardAlpha" operator="out"/>
<feColorMatrix type="matrix" values="0 0 0 0 0 0 0 0 0 0 0 0 0 0 0 0 0 0 0.16 0"/>
<feBlend mode="normal" in2="BackgroundImageFix" result="effect1_dropShadow_336_25076"/>
<feBlend mode="normal" in="SourceGraphic" in2="effect1_dropShadow_336_25076" result="shape"/>
</filter>
<clipPath id="clip0_336_25076">
<rect width="24" height="18" fill="white" transform="translate(6 3)"/>
</clipPath>
</defs>
</svg>
