<svg width="36" height="31" viewBox="0 0 36 31" fill="none" xmlns="http://www.w3.org/2000/svg">
<g filter="url(#filter0_d_336_28282)">
<g clip-path="url(#clip0_336_28282)">
<path d="M6 3H30V21H6V3Z" fill="#00785E"/>
<path d="M17.0625 7.07703L18.5813 8.18328L18 6.39453L17.4188 8.18328L18.9413 7.07703H17.0625Z" fill="#FBD116"/>
<path d="M18.0019 15.4348H14.1581C14.1097 15.3857 14.0622 15.3357 14.0156 15.2848H18.0019C18.0174 15.2902 18.0307 15.3004 18.0401 15.3139C18.0496 15.3273 18.0545 15.3434 18.0544 15.3598C18.0544 15.3898 18.0356 15.4235 18.0019 15.4348ZM18.0019 14.261C18.0453 14.1727 18.061 14.0734 18.0469 13.976C18.0397 13.9264 18.0245 13.8783 18.0019 13.8335C17.6564 14.1623 17.2391 14.4062 16.7831 14.546C16.4974 14.6328 16.2005 14.6771 15.9019 14.6773H13.5356C13.6047 14.7797 13.6772 14.8798 13.7531 14.9773H16.0406C16.7906 14.9773 17.4731 14.7073 18.0019 14.261V14.261ZM13.8919 13.3348C13.7752 13.3783 13.6525 13.4036 13.5281 13.4098C13.8131 13.7337 14.1639 13.9933 14.557 14.1711C14.9501 14.3489 15.3766 14.4409 15.8081 14.441C16.2182 14.4411 16.624 14.3581 17.001 14.197C17.3781 14.0358 17.7185 13.7999 18.0019 13.5035C18.1073 12.7731 18.1636 12.0365 18.1706 11.2985C18.1797 10.4492 18.1232 9.60043 18.0019 8.75977C17.7544 8.98477 17.2894 9.46102 17.0719 10.196C16.9903 10.4775 16.9499 10.7692 16.9519 11.0623C16.9517 11.6633 17.1306 12.2508 17.4656 12.7498C17.0528 12.219 16.8285 11.5659 16.8281 10.8935C16.8281 10.4285 16.9331 9.98602 17.1206 9.59227C16.9901 9.45393 16.8938 9.28698 16.8394 9.10477C16.5801 9.56208 16.4444 10.0791 16.4456 10.6048C16.4456 11.2798 16.6669 11.906 17.0419 12.4085C16.6892 12.0379 16.2607 11.7475 15.7858 11.5573C15.3108 11.367 14.8004 11.2813 14.2894 11.306C14.393 11.4017 14.4793 11.5146 14.5444 11.6398C15.0254 11.6403 15.5013 11.7383 15.9434 11.9278C16.3855 12.1173 16.7847 12.3943 17.1169 12.7423C16.4758 12.2048 15.666 11.9101 14.8294 11.9098C14.357 11.9089 13.8892 12.0019 13.4531 12.1835C13.687 12.8018 14.1157 13.3272 14.6745 13.6803C15.2333 14.0335 15.8918 14.1952 16.5506 14.141C16.3744 14.171 16.1944 14.1898 16.0106 14.1898C15.2212 14.1912 14.4623 13.8844 13.8956 13.3348H13.8919ZM18.0019 16.6648H16.0106C16.6444 16.916 17.3201 17.0445 18.0019 17.0435C18.0328 16.9858 18.0495 16.9215 18.0506 16.856C18.0501 16.7893 18.0334 16.7236 18.0019 16.6648V16.6648ZM18.0019 15.746H14.4919C14.5867 15.8269 14.6842 15.9044 14.7844 15.9785H18.0019C18.0322 15.9473 18.0496 15.9058 18.0506 15.8623C18.0514 15.8405 18.0475 15.8188 18.0391 15.7988C18.0306 15.7787 18.0179 15.7607 18.0019 15.746ZM18.0019 16.2148H15.1256C15.2997 16.325 15.48 16.4252 15.6656 16.5148H18.0019C18.032 16.4678 18.0476 16.413 18.0469 16.3573C18.045 16.3066 18.0295 16.2573 18.0019 16.2148V16.2148Z" fill="white"/>
<path d="M13.5195 9.55484L14.472 10.4398L14.2208 9.16484L13.6733 10.3423L14.8095 9.71234L13.5195 9.55484ZM14.9033 8.35484L16.2045 8.37734L15.1658 7.58984L15.5445 8.83859L15.9683 7.60484L14.9033 8.35484Z" fill="#FBD116"/>
<path d="M18.002 15.4348H21.8458C21.8942 15.3857 21.9417 15.3357 21.9883 15.2848H18.002C17.9866 15.2902 17.9732 15.3004 17.9638 15.3139C17.9544 15.3273 17.9494 15.3434 17.9495 15.3598C17.9495 15.3898 17.9683 15.4235 18.002 15.4348ZM18.002 14.261C17.9586 14.1727 17.9429 14.0734 17.957 13.976C17.9643 13.9264 17.9794 13.8783 18.002 13.8335C18.3475 14.1623 18.7648 14.4062 19.2208 14.546C19.5065 14.6328 19.8034 14.6771 20.102 14.6773H22.4683C22.3992 14.7797 22.3267 14.8798 22.2508 14.9773H19.9633C19.2133 14.9773 18.5308 14.7073 18.002 14.261V14.261ZM22.112 13.3348C22.2287 13.3783 22.3514 13.4036 22.4758 13.4098C22.1908 13.7337 21.84 13.9933 21.4469 14.1711C21.0538 14.3489 20.6273 14.4409 20.1958 14.441C19.7857 14.4411 19.3799 14.3581 19.0029 14.197C18.6258 14.0358 18.2854 13.7999 18.002 13.5035C17.8966 12.7731 17.8403 12.0365 17.8333 11.2985C17.8243 10.4492 17.8807 9.60043 18.002 8.75977C18.2495 8.98477 18.7145 9.46102 18.932 10.196C19.0136 10.4775 19.054 10.7692 19.052 11.0623C19.0522 11.6633 18.8733 12.2508 18.5383 12.7498C18.9511 12.219 19.1754 11.5659 19.1758 10.8935C19.1758 10.4285 19.0708 9.98602 18.8833 9.59227C19.0138 9.45393 19.1101 9.28698 19.1645 9.10477C19.4238 9.56208 19.5595 10.0791 19.5583 10.6048C19.5583 11.2798 19.337 11.906 18.962 12.4085C19.3147 12.0379 19.7432 11.7475 20.2181 11.5573C20.6931 11.367 21.2035 11.2813 21.7145 11.306C21.6109 11.4017 21.5246 11.5146 21.4595 11.6398C20.9785 11.6403 20.5026 11.7383 20.0605 11.9278C19.6184 12.1173 19.2192 12.3943 18.887 12.7423C19.5281 12.2048 20.3379 11.9101 21.1745 11.9098C21.6469 11.9089 22.1147 12.0019 22.5508 12.1835C22.3169 12.8018 21.8882 13.3272 21.3294 13.6803C20.7706 14.0335 20.1121 14.1952 19.4533 14.141C19.6295 14.171 19.8095 14.1898 19.9933 14.1898C20.7827 14.1912 21.5416 13.8844 22.1083 13.3348H22.112ZM18.002 16.6648H19.9933C19.3595 16.916 18.6838 17.0445 18.002 17.0435C17.9711 16.9858 17.9544 16.9215 17.9533 16.856C17.9538 16.7893 17.9705 16.7236 18.002 16.6648V16.6648ZM18.002 15.746H21.512C21.4172 15.8269 21.3197 15.9044 21.2195 15.9785H18.002C17.9717 15.9473 17.9543 15.9058 17.9533 15.8623C17.9525 15.8405 17.9564 15.8188 17.9649 15.7988C17.9733 15.7787 17.986 15.7607 18.002 15.746ZM18.002 16.2148H20.8783C20.7042 16.325 20.5239 16.4252 20.3383 16.5148H18.002C17.9719 16.4678 17.9563 16.413 17.957 16.3573C17.9589 16.3066 17.9745 16.2573 18.002 16.2148V16.2148Z" fill="white"/>
<path d="M22.4844 9.55484L21.5319 10.4398L21.7831 9.16484L22.3306 10.3423L21.1944 9.71234L22.4844 9.55484ZM21.1006 8.35484L19.7994 8.37734L20.8381 7.58984L20.4594 8.83859L20.0356 7.60484L21.1006 8.35484Z" fill="#FBD116"/>
</g>
</g>
<defs>
<filter id="filter0_d_336_28282" x="0" y="-2" width="36" height="36" filterUnits="userSpaceOnUse" color-interpolation-filters="sRGB">
<feFlood flood-opacity="0" result="BackgroundImageFix"/>
<feColorMatrix in="SourceAlpha" type="matrix" values="0 0 0 0 0 0 0 0 0 0 0 0 0 0 0 0 0 0 127 0" result="hardAlpha"/>
<feOffset dy="4"/>
<feGaussianBlur stdDeviation="3"/>
<feComposite in2="hardAlpha" operator="out"/>
<feColorMatrix type="matrix" values="0 0 0 0 0 0 0 0 0 0 0 0 0 0 0 0 0 0 0.16 0"/>
<feBlend mode="normal" in2="BackgroundImageFix" result="effect1_dropShadow_336_28282"/>
<feBlend mode="normal" in="SourceGraphic" in2="effect1_dropShadow_336_28282" result="shape"/>
</filter>
<clipPath id="clip0_336_28282">
<rect width="24" height="18" fill="white" transform="translate(6 3)"/>
</clipPath>
</defs>
</svg>
