<svg width="36" height="32" viewBox="0 0 36 32" fill="none" xmlns="http://www.w3.org/2000/svg">
<g filter="url(#filter0_d_336_15765)">
<g clip-path="url(#clip0_336_15765)">
<path d="M6 3H30V21.1132H6V3Z" fill="#00008B"/>
<path d="M7.40625 3L11.9813 6.41509L16.5375 3H18V4.16981L13.5 7.54717L18 10.9057V12.0566H16.5L12 8.67924L7.51875 12.0566H6V10.9245L10.4813 7.56604L6 4.20755V3H7.40625Z" fill="white"/>
<path d="M13.95 8.30189L18 11.3019V12.0566L12.9188 8.30189H13.95ZM10.5 8.67924L10.6125 9.33962L7.0125 12.0566H6L10.5 8.67924ZM18 3V3.0566L13.3313 6.60377L13.3688 5.77358L17.0625 3H18ZM6 3L10.4813 6.32075H9.35625L6 3.79245V3Z" fill="#FF0000"/>
<path d="M10.5188 3V12.0566H13.5188V3H10.5188ZM6 6.01887V9.03774H18V6.01887H6Z" fill="white"/>
<path d="M6 6.64151V8.45283H18V6.64151H6ZM11.1188 3V12.0566H12.9188V3H11.1188Z" fill="#FF0000"/>
<path d="M25.7642 17.9705L24.9955 18.0686L25.078 18.8422L24.523 18.2988L23.9717 18.846L24.0467 18.0724L23.278 17.9818L23.9267 17.5592L23.518 16.8988L24.253 17.1441L24.5117 16.4083L24.778 17.1403L25.5092 16.8875L25.108 17.5517L25.7605 17.9705H25.7642ZM25.6255 13.5479L25.7267 13.0573L25.3592 12.7177L25.8542 12.6611L26.0605 12.2045L26.2667 12.6611L26.7617 12.7177L26.3942 13.0573L26.4955 13.5479L26.0605 13.2988L25.6255 13.5479V13.5479ZM21.7217 11.2837L20.9605 11.3668L21.028 12.1328L20.488 11.5856L19.933 12.1177L20.023 11.3517L19.2655 11.2498L19.9142 10.8422L19.5205 10.1818L20.2442 10.4385L20.5142 9.7177L20.7655 10.446L21.493 10.2083L21.0842 10.8611L21.7255 11.2837H21.7217ZM29.3642 10.046L28.5805 10.1479L28.6667 10.9366L28.1005 10.3818L27.538 10.9403L27.6167 10.1479L26.833 10.0573L27.4967 9.62336L27.0805 8.94788L27.8305 9.20071L28.093 8.45354L28.363 9.20071L29.1092 8.94034L28.6967 9.61958L29.3642 10.046ZM25.7605 6.89505L24.9842 6.98185L25.0555 7.76675L24.5042 7.20826L23.938 7.75166L24.028 6.97053L23.2517 6.86487L23.9155 6.44977L23.5142 5.7743L24.253 6.03468L24.5267 5.29883L24.7817 6.04222L25.5242 5.79694L25.108 6.46109L25.7605 6.89505V6.89505ZM14.7767 17.5554L13.0592 17.7592L13.2317 19.4913L12.0017 18.2686L10.7642 19.4837L10.948 17.7517L9.23047 17.5328L10.6892 16.5969L9.78922 15.1101L11.4242 15.6762L12.0167 14.0385L12.598 15.68L14.2367 15.1252L13.3255 16.6045L14.7805 17.5517L14.7767 17.5554Z" fill="white"/>
</g>
</g>
<defs>
<filter id="filter0_d_336_15765" x="0" y="-2" width="36" height="36" filterUnits="userSpaceOnUse" color-interpolation-filters="sRGB">
<feFlood flood-opacity="0" result="BackgroundImageFix"/>
<feColorMatrix in="SourceAlpha" type="matrix" values="0 0 0 0 0 0 0 0 0 0 0 0 0 0 0 0 0 0 127 0" result="hardAlpha"/>
<feOffset dy="4"/>
<feGaussianBlur stdDeviation="3"/>
<feComposite in2="hardAlpha" operator="out"/>
<feColorMatrix type="matrix" values="0 0 0 0 0 0 0 0 0 0 0 0 0 0 0 0 0 0 0.16 0"/>
<feBlend mode="normal" in2="BackgroundImageFix" result="effect1_dropShadow_336_15765"/>
<feBlend mode="normal" in="SourceGraphic" in2="effect1_dropShadow_336_15765" result="shape"/>
</filter>
<clipPath id="clip0_336_15765">
<rect width="24" height="18.1132" fill="white" transform="translate(6 3)"/>
</clipPath>
</defs>
</svg>
