<svg width="36" height="31" viewBox="0 0 36 31" fill="none" xmlns="http://www.w3.org/2000/svg">
<g filter="url(#filter0_d_336_29644)">
<g clip-path="url(#clip0_336_29644)">
<path fill-rule="evenodd" clip-rule="evenodd" d="M0 3H36V21H0V3Z" fill="#0071BC"/>
<path fill-rule="evenodd" clip-rule="evenodd" d="M19.8744 16.7139C19.8744 16.7139 20.4444 16.1101 20.9919 16.2264C21.1569 15.5889 21.7794 15.5364 21.7794 15.5364C21.7794 15.5364 21.7157 14.8351 22.5107 14.6814C22.5332 14.2051 23.0169 13.8076 23.0169 13.8076C23.0169 13.8076 22.9194 13.0689 23.4219 12.8964C23.1144 12.3114 23.5269 11.8839 23.5232 11.8726C23.5157 11.8614 22.9982 10.9426 23.4632 10.6801C22.9757 10.2676 23.1332 9.80265 23.1332 9.80265C23.1332 9.80265 22.6007 9.6639 22.7919 9.0264C22.3532 8.9514 22.2669 8.24265 22.2669 8.24265C22.2669 8.24265 21.5919 8.3814 21.5094 7.79265C21.0594 7.8639 21.0144 7.42515 21.0069 7.42515C21.0032 7.42515 20.1257 7.6614 19.9494 6.99765C19.6082 7.1739 19.4619 6.8589 19.4619 6.8589C19.4619 6.8589 18.9744 7.10265 18.6819 6.6339C18.1007 6.99765 17.7744 6.6189 17.7744 6.6189C17.7744 6.6189 17.0132 7.1214 16.7619 6.7314C16.3119 7.1889 15.9069 6.9939 15.9069 6.9939C15.9069 6.9939 15.5694 7.5939 15.0182 7.4439C14.8944 8.00265 14.2607 8.0139 14.2607 8.0139C14.2607 8.0139 14.3282 8.50515 13.5707 8.64015C13.4732 9.2214 13.0757 9.31515 13.0757 9.31515C13.0757 9.31515 13.1132 9.88515 12.7569 10.0651C12.8844 10.3839 12.5544 10.7739 12.5544 10.7739C12.5544 10.7739 12.9069 11.2126 12.4269 11.7076C12.8882 11.8276 12.5544 12.6226 12.5544 12.6226C12.5544 12.6226 13.1919 12.9076 12.7907 13.4364C13.2482 13.5864 13.1057 13.9464 13.1094 14.1601C13.4019 14.2914 13.6569 14.2276 13.5332 14.8126C14.4257 14.9139 14.0057 15.4051 14.0057 15.4051C14.0057 15.4051 14.4182 15.4239 14.2569 15.7539C15.0182 15.7351 15.1307 16.3239 15.1307 16.3239C15.1307 16.3239 15.8357 16.1364 15.9294 16.4101C16.0232 16.6839 15.6219 18.5364 15.6219 18.5364C15.6219 18.5364 15.0219 18.5364 14.5794 18.0564C13.5369 18.0301 13.7694 17.3439 13.7544 17.3439C13.7357 17.3439 13.4057 17.4714 13.2369 16.8976C12.5394 17.0401 12.5619 16.4551 12.5544 16.4476C12.5507 16.4439 12.2432 16.3051 12.3557 16.0164C11.6394 16.0801 11.6919 15.3789 11.6919 15.3789C11.5344 15.3151 11.4782 15.1689 11.5007 15.0226C11.4069 14.9889 10.7694 14.9776 11.0994 14.1376C10.4919 13.7701 10.8707 13.3501 10.8707 13.3501C10.8707 13.3501 10.0307 12.9151 10.6794 12.4126C10.1919 11.7001 10.7169 11.3439 10.7169 11.3439C10.7169 11.3439 10.0457 10.6651 10.7282 10.1814C10.6157 9.15015 11.2307 8.90265 11.2307 8.90265C11.2307 8.90265 10.9082 8.06265 11.7857 7.71015C11.8419 6.8589 12.4569 6.8364 12.4569 6.8364C12.4569 6.8364 12.4719 6.1614 13.4394 6.2289C13.6269 5.62515 14.2832 5.74515 14.2832 5.74515C14.2832 5.74515 14.4857 5.0139 15.3819 5.3664C15.8357 4.47765 16.5144 4.9314 16.5144 4.9314C16.5144 4.9314 16.9419 4.6539 17.1519 4.7439C17.4257 4.27515 18.0069 4.7214 18.3782 4.81515C18.5169 4.7589 19.0007 4.39515 19.3719 4.85265C19.8669 4.5339 20.2907 5.11515 20.2907 5.11515C20.2907 5.11515 20.9694 4.77015 21.2882 5.55765C22.7319 5.4264 22.5257 6.3714 22.5257 6.3714C22.5257 6.3714 23.6582 6.11265 23.4107 7.24515C24.4457 7.3164 24.3407 7.99515 24.3407 7.99515C24.3407 7.99515 24.9932 8.49015 24.7082 8.93265C25.2894 8.96265 25.0757 9.5214 25.0757 9.5214C25.0757 9.5214 25.5219 9.6939 25.1507 10.3839C26.0019 11.0626 25.3157 11.7414 25.3119 11.7339C25.3044 11.7301 25.7657 12.2814 25.3494 12.9189C25.4769 13.9314 24.9669 14.1864 24.9669 14.1864C24.9669 14.1864 25.0982 14.8426 24.5282 15.0264C24.5169 15.7951 23.7894 15.8889 23.7894 15.8889C23.7894 15.8889 23.9844 16.2264 23.2644 16.5751C23.2344 17.0889 22.4844 17.1301 22.4844 17.1301C22.4844 17.1301 22.4132 18.0751 21.4569 17.8201C21.2282 18.5776 20.1069 18.3526 20.0844 18.3451C20.0657 18.3339 19.8707 16.7176 19.8707 16.7139H19.8744Z" fill="white" stroke="black" stroke-width="0.158453"/>
<path fill-rule="evenodd" clip-rule="evenodd" d="M12.9374 7.65039C12.9374 7.65039 13.1774 7.86039 13.1324 8.17539C13.0874 8.48664 12.9074 8.92164 12.9449 9.24414C12.9674 9.37539 12.9562 9.60789 12.9562 9.60789C12.9562 9.60789 12.7424 9.30039 12.7387 8.97039C12.7349 8.64039 12.9712 8.32914 12.9712 8.08539C12.9712 7.84164 12.9299 7.64664 12.9337 7.65414L12.9374 7.65039ZM12.8174 7.74789C12.8174 7.74789 12.5024 8.04789 12.4612 8.33664C12.4312 8.48664 12.4237 9.18789 12.4162 9.49914C12.4087 9.59289 12.3712 9.96789 12.3637 10.1066C12.3524 10.2416 12.5924 9.87414 12.6074 9.57039C12.5999 9.25914 12.5999 8.60289 12.6299 8.50164C12.6599 8.37414 12.6524 8.23539 12.6974 8.10789L12.8174 7.74789V7.74789Z" fill="#217900" stroke="black" stroke-width="0.158453" stroke-linejoin="round"/>
<path fill-rule="evenodd" clip-rule="evenodd" d="M19.7216 6.77039C19.7216 6.77039 20.1266 6.58289 20.2466 6.23039C20.3666 5.87789 19.8903 5.87789 19.8303 5.99039C19.7666 6.10289 19.8828 6.37664 19.8528 6.45164C19.8228 6.52664 19.6578 6.69914 19.7216 6.76664V6.77039Z" fill="#FFD200" stroke="#EF8A10" stroke-width="0.158453"/>
<path fill-rule="evenodd" clip-rule="evenodd" d="M16.1158 6.89699C16.1158 6.89699 16.3783 6.53324 16.3108 6.16949C16.2395 5.80949 15.8308 6.03449 15.8308 6.16199C15.8308 6.28949 16.0633 6.47324 16.0745 6.55199C16.0858 6.63074 16.0258 6.86699 16.112 6.89324L16.1158 6.89699ZM15.3995 7.11074C15.3995 7.11074 15.662 6.74699 15.5945 6.38699C15.527 6.02324 15.1145 6.24824 15.1145 6.37574C15.1145 6.50324 15.3508 6.69074 15.362 6.76949C15.3695 6.84449 15.3133 7.08074 15.3995 7.11074V7.11074ZM14.6083 7.35449C14.6083 7.35449 14.8708 6.99449 14.8033 6.63074C14.732 6.26699 14.3233 6.49199 14.3233 6.61949C14.3233 6.74699 14.5558 6.93449 14.567 7.01324C14.5783 7.08824 14.5183 7.32449 14.6045 7.35449H14.6083ZM14.0458 7.91324C14.0458 7.91324 14.312 7.54949 14.2445 7.18949C14.177 6.82574 13.7645 7.05074 13.7645 7.17824C13.7645 7.30574 14.0008 7.49324 14.0083 7.57199C14.0195 7.64699 13.9595 7.88324 14.0458 7.91324ZM13.4608 8.45324C13.4608 8.45324 13.7233 8.08949 13.6558 7.72574C13.5883 7.36199 13.1758 7.59074 13.1758 7.71824C13.1758 7.84574 13.412 8.02949 13.4233 8.10824C13.4308 8.18699 13.3745 8.42324 13.4608 8.45324V8.45324Z" fill="#FFD200" stroke="#EF8A10" stroke-width="0.208491"/>
<path fill-rule="evenodd" clip-rule="evenodd" d="M14.8109 5.31477C14.8109 5.31477 14.4584 5.59227 14.4284 5.95977C14.3984 6.32727 14.8522 6.22227 14.8859 6.09852C14.9234 5.97477 14.7472 5.73477 14.7584 5.65602C14.7697 5.58102 14.8897 5.36727 14.8109 5.31852V5.31477ZM15.9847 4.95477C15.9847 4.95477 15.6359 5.23227 15.6022 5.59977C15.5722 5.96727 16.0259 5.86227 16.0634 5.73852C16.0972 5.61477 15.9209 5.37102 15.9322 5.29227C15.9434 5.21727 16.0634 5.00352 15.9847 4.95477ZM11.6084 8.12352C11.6084 8.12352 11.6834 8.56602 11.9909 8.77227C12.2984 8.97477 12.4222 8.52477 12.3322 8.43477C12.2422 8.34477 11.9459 8.38227 11.8822 8.33727C11.8184 8.28852 11.6947 8.08227 11.6084 8.12352V8.12352ZM11.0234 9.62352C11.0234 9.62352 11.0234 10.0735 11.2972 10.3248C11.5672 10.5723 11.7622 10.1485 11.6872 10.0473C11.6122 9.94602 11.3122 9.93477 11.2597 9.87852C11.2034 9.81852 11.1097 9.59727 11.0234 9.62727V9.62352ZM12.3734 11.3035C12.3734 11.3035 12.2159 10.8835 11.8747 10.741C11.5334 10.606 11.4997 11.071 11.6047 11.1423C11.7134 11.2098 11.9947 11.116 12.0659 11.1498C12.1409 11.1835 12.3022 11.3598 12.3772 11.2998L12.3734 11.3035ZM12.0959 10.576C12.0959 10.576 12.3659 10.2198 12.3059 9.85977C12.2422 9.49602 11.8297 9.70977 11.8259 9.83727C11.8259 9.96477 12.0509 10.156 12.0622 10.2348C12.0697 10.3135 12.0059 10.546 12.0959 10.5798V10.576ZM20.5559 7.12977C20.5559 7.12977 20.9609 6.94227 21.0809 6.59352C21.2009 6.24477 20.7247 6.24102 20.6647 6.34977C20.6009 6.46227 20.7172 6.73977 20.6872 6.81102C20.6572 6.88602 20.4922 7.06227 20.5559 7.12977ZM21.7859 7.74477C21.7859 7.74477 22.0259 7.36602 21.9322 7.00977C21.8384 6.65352 21.4447 6.90477 21.4522 7.03227C21.4597 7.15602 21.7072 7.32852 21.7222 7.40727C21.7372 7.48227 21.6959 7.72227 21.7859 7.74477V7.74477ZM25.1459 11.2323C25.1459 11.2323 24.9847 10.816 24.6434 10.6735C24.3022 10.5348 24.2684 11.0035 24.3734 11.071C24.4822 11.1423 24.7672 11.0448 24.8347 11.0785C24.9097 11.116 25.0709 11.2923 25.1459 11.2323V11.2323ZM23.5034 11.4948C23.5034 11.4948 23.5109 11.0448 23.7847 10.7973C24.0584 10.5498 24.2497 10.981 24.1747 11.0823C24.0959 11.1835 23.7997 11.1873 23.7397 11.2435C23.6872 11.2998 23.5897 11.521 23.5034 11.491V11.4948ZM23.2409 6.73977C23.2409 6.73977 22.8172 6.57852 22.4909 6.73977C22.1534 6.90477 22.4834 7.24227 22.6034 7.20852C22.7272 7.17102 22.8434 6.89727 22.9184 6.86727C22.9934 6.83727 23.2334 6.82977 23.2372 6.73977H23.2409ZM22.2734 5.93727C22.2734 5.93727 21.8572 5.77602 21.5234 5.93727C21.1934 6.10227 21.5197 6.43977 21.6434 6.40602C21.7634 6.36852 21.8834 6.09477 21.9547 6.06477C22.0297 6.03477 22.2697 6.02727 22.2734 5.93727ZM20.8484 5.17227C20.8484 5.17227 20.4922 5.44602 20.4584 5.80977C20.4209 6.17727 20.8784 6.07602 20.9159 5.95602C20.9534 5.83227 20.7772 5.58852 20.7884 5.50977C20.8034 5.43477 20.9234 5.22477 20.8484 5.17227V5.17227ZM19.9184 4.94727C19.9184 4.94727 19.7534 5.36352 19.9147 5.69727C20.0759 6.03102 20.4134 5.70477 20.3797 5.58477C20.3459 5.46102 20.0722 5.34102 20.0422 5.26977C20.0122 5.19477 20.0084 4.95102 19.9184 4.94727V4.94727ZM17.2747 6.55977C17.2747 6.55977 17.5634 6.21477 17.5222 5.84727C17.4809 5.48352 17.0534 5.67852 17.0459 5.80602C17.0347 5.93352 17.2559 6.13602 17.2597 6.21477C17.2634 6.28977 17.1884 6.52227 17.2747 6.55602V6.55977Z" fill="#FFD200" stroke="#EF8A10" stroke-width="0.158453"/>
<path fill-rule="evenodd" clip-rule="evenodd" d="M18.8548 7.28962C18.8548 7.28962 19.5486 7.33462 19.5823 7.73212C19.6161 8.12962 19.4173 8.37337 19.4173 8.37337C19.4173 8.37337 19.5036 9.23587 18.8248 9.48712C18.0973 9.57337 16.9536 9.50587 16.9536 9.50587C16.9536 9.50587 16.6161 9.58837 16.4811 8.89462C16.4029 8.50291 16.3454 8.10736 16.3086 7.70962C16.3086 7.70962 16.3761 7.31962 16.8673 7.29712C17.3548 7.27087 18.8473 7.29712 18.8548 7.28962V7.28962Z" fill="#8C8A8C" stroke="black" stroke-width="0.158453"/>
<path d="M19.4144 8.36914C19.4144 8.36914 19.0394 8.83414 19.0769 9.02539" stroke="black" stroke-width="0.158453" stroke-linecap="round"/>
<path fill-rule="evenodd" clip-rule="evenodd" d="M18.9102 9.46094C19.0039 9.53969 19.0902 9.62594 19.1089 9.91094L19.1464 10.4884L19.6339 14.8609L20.0614 18.0222L20.0914 18.5097C20.0914 18.5097 19.9902 18.8734 19.7014 18.9034C19.4952 19.3384 18.3627 19.4659 18.2502 19.4622C18.1489 19.4547 17.7889 19.3047 17.5714 19.3234C17.3502 19.3422 16.9714 19.4884 16.8027 19.4659C16.6339 19.4397 16.2477 19.3084 16.1802 19.0309C15.7039 18.8809 15.6289 18.5172 15.6289 18.5172L16.1427 14.8609L16.6414 10.2334C16.6414 10.2334 16.7014 9.61844 16.9489 9.52469C17.2077 9.50219 18.5389 9.55094 18.9102 9.46094Z" fill="#8C8A8C" stroke="black" stroke-width="0.158453"/>
<path d="M16.2887 15.791L16.1875 19.0273M19.4312 16.2185L19.7162 18.8885" stroke="black" stroke-width="0.158453"/>
<path d="M11.1206 14.1123L11.1094 14.1498M24.5606 13.9961L24.5719 14.0336" stroke="black" stroke-width="0.0833964"/>
<path d="M10.7625 9.74219C10.7625 9.74219 10.9725 10.0384 11.0138 10.2072C11.0513 10.3759 11.1225 10.7097 11.2125 10.8447C11.3063 10.9834 11.835 11.7409 11.865 12.0559C11.8688 12.2659 11.6438 12.6184 11.3138 12.6259C11.1038 12.6184 10.5713 12.4834 10.5488 12.0259C10.5263 11.5647 10.71 11.5572 10.7363 11.2759C10.755 10.9984 10.7625 9.74969 10.7625 9.74219V9.74219Z" stroke="#6B18B5" stroke-width="0.158453" stroke-linejoin="round"/>
<path d="M14.4186 5.72958C14.4186 5.72958 14.1936 5.74458 14.0286 5.83833C13.8974 5.91708 13.6724 6.03708 13.5186 6.25083C13.1211 6.55833 12.5249 6.70083 12.3374 6.96333C12.2249 7.13583 12.2324 7.55208 12.5136 7.73208C12.6936 7.83333 13.2261 7.99458 13.4811 7.61583C13.7361 7.23333 13.5824 7.12833 13.7061 6.88083C13.8828 6.46264 14.1232 6.0743 14.4186 5.72958V5.72958ZM19.7624 5.17458C19.7624 5.17458 19.5974 5.02458 19.4136 4.96833C19.2636 4.93083 19.0161 4.94583 18.7574 4.91958C18.2586 4.85208 17.7449 4.49208 17.4336 4.53708C17.2311 4.57458 16.9349 4.87458 17.0024 5.19708C17.0511 5.39958 17.2761 5.80458 17.7299 5.72583C18.1799 5.64708 18.1799 5.54583 18.4424 5.46333C19.0949 5.09958 19.7549 5.17458 19.7624 5.17458V5.17458ZM25.0649 10.3271C25.1024 10.2408 25.0311 10.0796 24.9824 9.89583C24.9374 9.74583 24.8661 9.52083 24.6936 9.31458C24.4911 8.85708 24.5249 8.22708 24.3186 7.98708C24.1799 7.83708 23.7711 7.73958 23.5311 7.97208C23.3849 8.12208 23.1036 8.59458 23.4111 8.93583C23.7186 9.27333 23.8536 9.14958 24.0636 9.32958C24.5699 9.66708 24.8136 10.2671 25.0649 10.3271V10.3271ZM24.8811 14.3246C24.9524 14.2308 25.0761 14.0471 25.0611 13.8933C25.0499 13.7733 25.1174 13.4058 25.1249 13.2446C25.1699 12.7458 25.4811 12.3371 25.3949 11.9058C25.3461 11.7033 25.0499 11.4183 24.7274 11.5008C24.5324 11.5608 24.0899 11.8008 24.1911 12.2508C24.2924 12.7008 24.4386 12.6896 24.5324 12.9521C24.8061 13.4958 24.6336 14.1408 24.8811 14.3246V14.3246Z" stroke="#6B18B5" stroke-width="0.0833964" stroke-linejoin="round"/>
<path d="M21.2064 17.5055C21.2064 17.5055 21.1202 17.6705 21.4614 17.813M21.8852 17.123C21.8852 17.123 22.2602 17.0293 22.5152 17.123M23.0102 16.1705C23.0102 16.178 22.9577 16.3393 23.2577 16.5755M23.2277 15.7505C23.2277 15.7505 23.4489 15.9118 23.8202 15.9005M20.9927 16.223C20.9927 16.223 21.0039 16.6543 20.7827 16.853M21.7352 15.5593C21.7352 15.5593 22.0989 15.6493 22.3989 15.4993M24.0714 14.9255C24.0714 14.9255 24.1502 15.038 24.5552 15.0193M22.4964 14.6705C22.5077 14.678 22.9727 14.828 23.2652 14.693M23.4227 12.9005C23.4227 12.9005 23.4414 12.8743 23.5839 13.3768M23.7789 11.4868C23.7789 11.4868 23.7602 11.753 23.5464 11.8693M25.1552 10.3918C25.1552 10.3918 24.8402 10.6468 24.9002 10.748M23.5989 10.208C23.5989 10.208 23.7602 10.4818 23.4939 10.6693M22.8077 9.03805C22.8077 9.03805 23.0889 9.0268 23.2127 9.2668M22.2827 8.24305H22.4964M23.3964 7.26805C23.3964 7.2718 23.4527 7.3243 23.3439 7.4368M21.3939 7.2943C21.3939 7.2943 21.5439 7.5268 21.5177 7.81555M22.2602 6.4993C22.3277 6.4918 22.5489 6.3943 22.5489 6.3943M21.2964 5.5693C21.2927 5.5693 21.2139 5.85805 21.3564 5.96305M20.9402 6.90055C20.9402 7.21555 21.1877 7.1368 21.0152 7.4368M20.3327 6.63805C20.1886 6.73905 20.0577 6.85745 19.9427 6.99055M19.3277 6.4768C19.3277 6.4768 19.4927 6.63805 19.4514 6.8593M18.8514 6.34555C18.8514 6.34555 18.7689 6.59305 18.6602 6.6568M17.9852 6.2818C17.9814 6.29305 17.8502 6.5743 17.7602 6.62305M16.8002 6.28555C16.8077 6.28555 16.9314 6.54805 16.7702 6.73555M16.5264 4.93555C16.5339 4.94305 16.5527 5.13805 16.4289 5.31055M15.3527 5.3818C15.3527 5.38555 15.4052 5.60305 15.0602 5.6743M14.6889 7.3693C14.6964 7.38055 15.0227 7.43305 15.0227 7.43305M13.8752 8.12305C13.8827 8.11555 14.2727 7.9993 14.2727 7.9993M13.2452 8.61055C13.2564 8.61055 13.5189 8.6593 13.5827 8.62555M13.0577 8.85055C13.0577 8.85055 13.1439 8.8993 13.0727 9.33805M11.7902 7.7068L11.9477 7.9393M11.2539 8.9143C11.2539 8.9068 11.4114 9.1468 11.6214 9.1918M12.4839 10.1368C12.5858 10.1203 12.6862 10.0952 12.7839 10.0618M12.3752 11.018C12.3827 11.018 12.3714 10.8568 12.5702 10.7443M12.1127 11.4268C12.1127 11.4343 12.3002 11.6668 12.4314 11.7005M12.0002 11.8768C12.0227 11.8693 12.2252 11.693 12.4577 11.708M11.9364 12.4805C11.9364 12.4805 11.9439 12.683 12.5439 12.6305M11.9964 13.193C11.9964 13.1855 12.1727 12.788 12.5289 12.638M12.4764 13.703C12.4764 13.703 12.5289 13.5305 12.8289 13.4143M12.8102 14.3705C12.8102 14.3705 13.0239 14.1943 13.1027 14.1718M13.0764 14.8955C13.0764 14.8955 13.2077 15.0305 13.5339 14.7943M11.5089 15.0043C11.5464 14.9968 12.0227 14.888 12.1839 15.1355M11.6964 15.398C11.6964 15.398 12.1989 15.3305 12.2627 15.383M13.4889 15.4993C13.4889 15.4993 13.4214 15.638 14.0402 15.4093M14.2577 15.7468C14.1452 15.9343 14.2839 16.0843 14.1377 16.1705M12.3752 16.0093C12.3939 15.9943 12.6002 15.923 12.5702 15.623M12.5627 16.4593C12.5889 16.4518 12.9339 16.3018 13.0052 16.3805M13.2414 16.8943C13.2414 16.8943 13.2864 16.5868 13.3839 16.5568M13.7589 17.3555C13.7589 17.3555 14.0477 17.3518 14.1714 17.258M14.3139 16.3205C14.3214 16.328 14.5802 16.463 15.1389 16.328M14.5239 17.5655C14.5239 17.5655 14.5989 17.963 14.5989 18.053" stroke="black" stroke-width="0.158453"/>
<path fill-rule="evenodd" clip-rule="evenodd" d="M24.5226 11.4538C24.507 11.3295 24.4432 11.2112 24.3631 11.1581C24.2701 11.1003 24.1735 11.1123 24.1097 11.1897C24.0458 11.2672 24.0063 11.3921 24.0218 11.5164C24.0381 11.6469 24.1012 11.759 24.1821 11.8183C24.2751 11.8761 24.3717 11.8641 24.4355 11.7866C24.4994 11.7092 24.5449 11.5836 24.5234 11.46L24.5226 11.4538Z" fill="#DE2010" stroke="black" stroke-width="0.205876"/>
<path fill-rule="evenodd" clip-rule="evenodd" d="M24.4718 10.7897C24.4563 10.6654 24.3925 10.5471 24.3123 10.494C24.2193 10.4362 24.1227 10.4483 24.0589 10.5257C23.995 10.6031 23.9555 10.728 23.971 10.8523C23.9874 10.9829 24.0504 11.0949 24.1313 11.1543C24.2243 11.2121 24.3209 11.2 24.3847 11.1226C24.4486 11.0452 24.4941 10.9195 24.4726 10.7959L24.4718 10.7897Z" fill="#DE2010" stroke="black" stroke-width="0.205876"/>
<path fill-rule="evenodd" clip-rule="evenodd" d="M24.3319 10.0785C24.3055 9.956 24.2316 9.84378 24.1471 9.79792C24.0493 9.7485 23.9542 9.769 23.8974 9.85174C23.8406 9.93447 23.8122 10.0624 23.8386 10.1848C23.8663 10.3134 23.939 10.4195 24.0248 10.4715C24.1226 10.5209 24.2177 10.5004 24.2745 10.4177C24.3313 10.335 24.3656 10.2058 24.3333 10.0846L24.3319 10.0785Z" fill="#DE2010" stroke="black" stroke-width="0.205877"/>
<path fill-rule="evenodd" clip-rule="evenodd" d="M24.0918 9.34672C24.035 9.23502 23.9349 9.14536 23.8415 9.12256C23.7344 9.09968 23.6476 9.14375 23.6138 9.23824C23.58 9.33272 23.5851 9.46362 23.6419 9.57532C23.7014 9.6926 23.7987 9.77668 23.895 9.80506C24.0021 9.82794 24.0888 9.78387 24.1227 9.68939C24.1565 9.5949 24.1568 9.46125 24.0946 9.3523L24.0918 9.34672Z" fill="#DE2010" stroke="black" stroke-width="0.205877"/>
<path fill-rule="evenodd" clip-rule="evenodd" d="M23.83 8.75102C23.7733 8.63932 23.6732 8.54965 23.5798 8.52686C23.4727 8.50398 23.3859 8.54805 23.3521 8.64253C23.3183 8.73702 23.3234 8.86792 23.3801 8.97962C23.4397 9.0969 23.537 9.18098 23.6333 9.20936C23.7404 9.23223 23.8271 9.18817 23.8609 9.09368C23.8948 8.9992 23.8951 8.86554 23.8329 8.7566L23.83 8.75102Z" fill="#DE2010" stroke="black" stroke-width="0.205877"/>
<path fill-rule="evenodd" clip-rule="evenodd" d="M23.4571 8.1556C23.3911 8.04911 23.2838 7.96825 23.1887 7.95344C23.0801 7.93972 22.9974 7.99097 22.9717 8.08798C22.946 8.18499 22.9622 8.31499 23.0282 8.42148C23.0975 8.5333 23.2015 8.60883 23.2999 8.62896C23.4085 8.64269 23.4912 8.59143 23.5169 8.49442C23.5426 8.39741 23.5316 8.26421 23.4604 8.16093L23.4571 8.1556Z" fill="#DE2010" stroke="black" stroke-width="0.205876"/>
<path fill-rule="evenodd" clip-rule="evenodd" d="M23.0405 7.57776C22.9645 7.47815 22.8499 7.40804 22.7539 7.4025C22.6444 7.39934 22.567 7.45835 22.5508 7.55739C22.5346 7.65643 22.5633 7.78425 22.6393 7.88386C22.7191 7.98845 22.83 8.05358 22.9298 8.0641C23.0392 8.06726 23.1166 8.00825 23.1328 7.90921C23.149 7.81017 23.1252 7.67866 23.0443 7.58274L23.0405 7.57776Z" fill="#DE2010" stroke="black" stroke-width="0.205877"/>
<path fill-rule="evenodd" clip-rule="evenodd" d="M22.5473 7.04432C22.4576 6.95678 22.334 6.90404 22.2382 6.91247C22.1294 6.92521 22.0615 6.99481 22.0598 7.09516C22.0581 7.1955 22.105 7.31781 22.1946 7.40536C22.2888 7.49727 22.4079 7.54564 22.5082 7.54159C22.6169 7.52884 22.6849 7.45925 22.6866 7.3589C22.6883 7.25855 22.6456 7.13189 22.5517 7.0487L22.5473 7.04432Z" fill="#DE2010" stroke="black" stroke-width="0.205877"/>
<path fill-rule="evenodd" clip-rule="evenodd" d="M21.9919 6.55474C21.8946 6.47581 21.7667 6.43466 21.6721 6.45186C21.5649 6.47456 21.5036 6.55012 21.5112 6.65019C21.5188 6.75026 21.5767 6.86774 21.674 6.94667C21.7762 7.02954 21.8993 7.06674 21.9988 7.05349C22.1059 7.03079 22.1672 6.95523 22.1596 6.85516C22.1521 6.75508 22.0979 6.63288 21.9968 6.55868L21.9919 6.55474Z" fill="#DE2010" stroke="black" stroke-width="0.205876"/>
<path fill-rule="evenodd" clip-rule="evenodd" d="M21.402 6.16028C21.2929 6.09861 21.1599 6.07927 21.0695 6.11194C20.9676 6.15211 20.9197 6.23679 20.9438 6.33422C20.9678 6.43165 21.0445 6.53788 21.1536 6.59956C21.2681 6.66432 21.3956 6.68057 21.4915 6.65098C21.5934 6.61081 21.6413 6.52613 21.6172 6.4287C21.5932 6.33127 21.5195 6.21975 21.4074 6.16337L21.402 6.16028Z" fill="#DE2010" stroke="black" stroke-width="0.205877"/>
<path fill-rule="evenodd" clip-rule="evenodd" d="M20.7432 5.81297C20.629 5.76147 20.4948 5.75432 20.4077 5.79509C20.3099 5.84437 20.2699 5.93305 20.3027 6.02789C20.3356 6.12272 20.4216 6.22153 20.5358 6.27303C20.6557 6.3271 20.7842 6.33167 20.877 6.29348C20.9748 6.2442 21.0148 6.15552 20.982 6.06068C20.9491 5.96584 20.8656 5.86149 20.7489 5.81554L20.7432 5.81297Z" fill="#DE2010" stroke="black" stroke-width="0.205877"/>
<path fill-rule="evenodd" clip-rule="evenodd" d="M20.0962 5.5509C19.9788 5.50717 19.8444 5.50904 19.7602 5.55555C19.666 5.61127 19.632 5.70244 19.6711 5.79486C19.7102 5.88729 19.8027 5.9801 19.9201 6.02382C20.0434 6.06973 20.1719 6.06569 20.2619 6.02136C20.3562 5.96563 20.3902 5.87447 20.351 5.78204C20.3119 5.68962 20.2216 5.59111 20.1021 5.55308L20.0962 5.5509Z" fill="#DE2010" stroke="black" stroke-width="0.205877"/>
<path fill-rule="evenodd" clip-rule="evenodd" d="M19.4394 5.34635C19.319 5.31172 19.1851 5.32383 19.1048 5.37663C19.015 5.43939 18.9881 5.53288 19.0342 5.62205C19.0802 5.71121 19.1795 5.79671 19.2999 5.83134C19.4263 5.8677 19.5542 5.85386 19.6406 5.80279C19.7303 5.74003 19.7572 5.64654 19.7111 5.55737C19.6651 5.46821 19.5675 5.37687 19.4454 5.34808L19.4394 5.34635Z" fill="#DE2010" stroke="black" stroke-width="0.205877"/>
<path fill-rule="evenodd" clip-rule="evenodd" d="M18.7181 5.2227C18.5938 5.20703 18.4635 5.23961 18.3922 5.30416C18.3132 5.37999 18.301 5.47651 18.3602 5.55752C18.4195 5.63853 18.5307 5.70772 18.655 5.72339C18.7855 5.73986 18.9097 5.70649 18.9872 5.64272C19.0662 5.56689 19.0784 5.47037 19.0191 5.38936C18.9599 5.30835 18.8494 5.23313 18.7244 5.22349L18.7181 5.2227Z" fill="#DE2010" stroke="black" stroke-width="0.205876"/>
<path fill-rule="evenodd" clip-rule="evenodd" d="M18.002 5.18227C17.8769 5.17724 17.7497 5.22081 17.6842 5.2912C17.6119 5.37349 17.608 5.4707 17.674 5.54637C17.7399 5.62204 17.8566 5.68149 17.9818 5.68652C18.1132 5.6918 18.2341 5.64797 18.3059 5.57783C18.3782 5.49554 18.3821 5.39834 18.3162 5.32267C18.2502 5.247 18.1337 5.18147 18.0083 5.18252L18.002 5.18227Z" fill="#DE2010" stroke="black" stroke-width="0.205877"/>
<path fill-rule="evenodd" clip-rule="evenodd" d="M17.3458 5.2057C17.2206 5.20068 17.0935 5.24425 17.0279 5.31464C16.9557 5.39693 16.9518 5.49414 17.0177 5.5698C17.0836 5.64547 17.2004 5.70493 17.3255 5.70995C17.457 5.71523 17.5779 5.67141 17.6497 5.60127C17.7219 5.51898 17.7258 5.42177 17.6599 5.34611C17.594 5.27044 17.4775 5.20491 17.3521 5.20596L17.3458 5.2057Z" fill="#DE2010" stroke="black" stroke-width="0.205877"/>
<path fill-rule="evenodd" clip-rule="evenodd" d="M16.5831 5.29586C16.461 5.32378 16.3497 5.39912 16.3049 5.48421C16.2567 5.58254 16.2783 5.67738 16.3618 5.73315C16.4452 5.78892 16.5734 5.81574 16.6956 5.78783C16.8238 5.75851 16.929 5.68457 16.9799 5.59809C17.0281 5.49975 17.0065 5.40491 16.923 5.34914C16.8396 5.29337 16.71 5.26062 16.5892 5.29447L16.5831 5.29586Z" fill="#DE2010" stroke="black" stroke-width="0.205876"/>
<path fill-rule="evenodd" clip-rule="evenodd" d="M15.8866 5.47111C15.7671 5.50901 15.6624 5.59327 15.6248 5.68176C15.5849 5.78374 15.6143 5.87646 15.702 5.92516C15.7898 5.97386 15.9198 5.99002 16.0392 5.95212C16.1646 5.91233 16.2633 5.82996 16.307 5.73957C16.3469 5.6376 16.3175 5.54487 16.2297 5.49617C16.142 5.44747 16.0101 5.42552 15.8925 5.46921L15.8866 5.47111Z" fill="#DE2010" stroke="black" stroke-width="0.205877"/>
<path fill-rule="evenodd" clip-rule="evenodd" d="M15.2483 5.74504C15.1343 5.79689 15.0403 5.89303 15.0135 5.98537C14.986 6.09138 15.0263 6.17994 15.1192 6.21784C15.2121 6.25574 15.3431 6.2563 15.4572 6.20445C15.5769 6.15 15.6652 6.05646 15.6977 5.96152C15.7252 5.85551 15.6849 5.76695 15.592 5.72905C15.4991 5.69115 15.3656 5.68506 15.254 5.74245L15.2483 5.74504Z" fill="#DE2010" stroke="black" stroke-width="0.205876"/>
<path fill-rule="evenodd" clip-rule="evenodd" d="M14.6138 6.06878C14.5046 6.13017 14.4192 6.23397 14.4003 6.32827C14.382 6.43623 14.4296 6.52104 14.5255 6.55087C14.6213 6.58071 14.7518 6.57008 14.8611 6.50869C14.9757 6.44423 15.0557 6.3435 15.08 6.24614C15.0983 6.13817 15.0507 6.05336 14.9548 6.02353C14.859 5.99369 14.7255 5.99902 14.6192 6.06571L14.6138 6.06878Z" fill="#DE2010" stroke="black" stroke-width="0.205875"/>
<path fill-rule="evenodd" clip-rule="evenodd" d="M14.011 6.47686C13.9091 6.54976 13.8355 6.66221 13.827 6.758C13.8205 6.86733 13.8771 6.94645 13.9756 6.96569C14.074 6.98494 14.2027 6.96019 14.3046 6.88729C14.4116 6.81075 14.4801 6.70194 14.4937 6.60251C14.5002 6.49318 14.4436 6.41406 14.3451 6.39481C14.2466 6.37557 14.1144 6.39537 14.0161 6.47321L14.011 6.47686Z" fill="#DE2010" stroke="black" stroke-width="0.205876"/>
<path fill-rule="evenodd" clip-rule="evenodd" d="M13.4583 6.89875C13.3629 6.98001 13.2991 7.09829 13.2987 7.19446C13.3015 7.30394 13.3646 7.37798 13.4643 7.38883C13.5641 7.39967 13.6902 7.36413 13.7856 7.28287C13.8857 7.19755 13.9447 7.08333 13.9499 6.9831C13.9471 6.87362 13.884 6.79957 13.7842 6.78873C13.6845 6.77789 13.5544 6.8088 13.463 6.89469L13.4583 6.89875Z" fill="#DE2010" stroke="black" stroke-width="0.205875"/>
<path fill-rule="evenodd" clip-rule="evenodd" d="M12.9686 7.41171C12.8793 7.4996 12.8241 7.62215 12.8306 7.7181C12.8412 7.8271 12.9095 7.89643 13.0098 7.90009C13.1101 7.90375 13.2333 7.85926 13.3226 7.77137C13.4163 7.67909 13.467 7.56093 13.465 7.4606C13.4544 7.35159 13.3861 7.28226 13.2858 7.2786C13.1855 7.27494 13.058 7.3151 12.973 7.40732L12.9686 7.41171Z" fill="#DE2010" stroke="black" stroke-width="0.205876"/>
<path fill-rule="evenodd" clip-rule="evenodd" d="M12.5463 7.98228C12.4646 8.07733 12.4199 8.20408 12.4345 8.29913C12.4542 8.40687 12.528 8.47025 12.6282 8.4655C12.7285 8.46075 12.8475 8.4061 12.9291 8.31105C13.0148 8.21124 13.0555 8.08925 13.045 7.98944C13.0253 7.88171 12.9515 7.81833 12.8513 7.82308C12.751 7.82782 12.6274 7.87851 12.5503 7.97753L12.5463 7.98228Z" fill="#DE2010" stroke="black" stroke-width="0.205876"/>
<path fill-rule="evenodd" clip-rule="evenodd" d="M12.1583 8.56371C12.0873 8.66693 12.0563 8.79772 12.0809 8.89068C12.112 8.9957 12.1921 9.05085 12.2913 9.03544C12.3905 9.02003 12.503 8.95299 12.574 8.84978C12.6486 8.7414 12.676 8.61577 12.655 8.51765C12.6239 8.41263 12.5437 8.35748 12.4446 8.37289C12.3454 8.3883 12.2278 8.45189 12.1618 8.55855L12.1583 8.56371Z" fill="#DE2010" stroke="black" stroke-width="0.205876"/>
<path fill-rule="evenodd" clip-rule="evenodd" d="M11.838 9.2216C11.7857 9.33548 11.7777 9.46964 11.8179 9.557C11.8665 9.65512 11.955 9.69568 12.05 9.66346C12.1451 9.63125 12.2444 9.54587 12.2967 9.43199C12.3515 9.31242 12.3569 9.18395 12.3193 9.0909C12.2707 8.99278 12.1823 8.95222 12.0872 8.98444C11.9922 9.01665 11.8873 9.09949 11.8406 9.2159L11.838 9.2216Z" fill="#DE2010" stroke="black" stroke-width="0.205876"/>
<path fill-rule="evenodd" clip-rule="evenodd" d="M11.5831 9.91569C11.5414 10.0338 11.5455 10.1682 11.5935 10.2515C11.6508 10.3448 11.7426 10.3772 11.8343 10.3365C11.926 10.2958 12.0172 10.2018 12.0589 10.0836C12.1027 9.95957 12.0965 9.83115 12.0506 9.74189C11.9932 9.64858 11.9015 9.6162 11.8098 9.6569C11.718 9.6976 11.6211 9.78961 11.5851 9.90978L11.5831 9.91569Z" fill="#DE2010" stroke="black" stroke-width="0.205876"/>
<path fill-rule="evenodd" clip-rule="evenodd" d="M11.3629 11.2258C11.3513 11.3259 11.3882 11.4296 11.4551 11.485C11.5336 11.5464 11.6305 11.5536 11.7096 11.5039C11.7886 11.4543 11.8542 11.3633 11.8658 11.2632C11.8779 11.1581 11.8405 11.0594 11.7741 10.999C11.6957 10.9376 11.5987 10.9304 11.5196 10.98C11.4406 11.0297 11.369 11.1203 11.3635 11.2208L11.3629 11.2258Z" fill="#DE2010" stroke="black" stroke-width="0.184408"/>
<path fill-rule="evenodd" clip-rule="evenodd" d="M11.4211 10.616C11.3933 10.7382 11.4128 10.8712 11.47 10.9485C11.5377 11.0346 11.6326 11.0562 11.719 11.0052C11.8055 10.9542 11.8853 10.8504 11.9131 10.7282C11.9424 10.5999 11.9214 10.4731 11.8656 10.3897C11.7979 10.3036 11.703 10.282 11.6166 10.3329C11.5301 10.3839 11.4444 10.4864 11.4225 10.6099L11.4211 10.616Z" fill="#DE2010" stroke="black" stroke-width="0.205875"/>
<path fill-rule="evenodd" clip-rule="evenodd" d="M24.001 10.3011C24.0835 10.2149 24.1585 10.1886 24.2522 10.2224C24.2147 9.99363 24.1472 9.91488 24.0572 9.94488C23.971 9.97113 23.9297 10.0874 24.001 10.3011ZM24.1247 10.9836C24.211 10.9049 24.286 10.8861 24.3797 10.9236C24.3647 10.6986 24.2972 10.6124 24.2072 10.6349C24.1172 10.6536 24.0722 10.7699 24.1247 10.9836V10.9836ZM23.8322 9.67113C23.8885 9.56988 23.956 9.52863 24.0572 9.53238C23.9635 9.32238 23.8772 9.26613 23.7947 9.31488C23.7197 9.36363 23.7122 9.48738 23.8322 9.67488V9.67113ZM23.5285 9.04863C23.5847 8.94363 23.6522 8.90238 23.7535 8.90988C23.6597 8.69613 23.5697 8.63988 23.491 8.68863C23.416 8.73738 23.4085 8.86113 23.5285 9.04863ZM22.7972 7.90488C22.8347 7.79238 22.8947 7.73988 22.9922 7.73238C22.8685 7.53738 22.771 7.49613 22.7035 7.55613C22.636 7.61613 22.6472 7.74363 22.7972 7.90488ZM22.3135 7.40613C22.351 7.29363 22.4035 7.24113 22.501 7.22613C22.3735 7.03863 22.276 7.00113 22.2085 7.06113C22.141 7.12488 22.156 7.24863 22.3135 7.40613ZM21.3122 6.56238C21.3122 6.44238 21.3497 6.37488 21.436 6.32988C21.256 6.19113 21.1472 6.18738 21.106 6.26613C21.0647 6.34488 21.1135 6.45738 21.3122 6.56238ZM21.8372 6.95613C21.8522 6.83988 21.901 6.77613 21.9985 6.74988C21.841 6.58113 21.7397 6.55488 21.6835 6.62613C21.6272 6.70113 21.6572 6.81738 21.8335 6.95613H21.8372ZM20.7122 6.23238C20.701 6.11613 20.731 6.04488 20.8135 5.98863C20.6185 5.86863 20.5135 5.87613 20.476 5.95863C20.4422 6.04488 20.506 6.14988 20.716 6.23238H20.7122ZM20.1085 5.96238C20.0785 5.84988 20.0972 5.77488 20.1722 5.70738C19.9622 5.61738 19.8572 5.63613 19.8347 5.72613C19.8122 5.81613 19.891 5.90988 20.1085 5.96238ZM19.4522 5.75988C19.411 5.64738 19.4222 5.57238 19.4935 5.49738C19.276 5.42613 19.1747 5.45613 19.156 5.54613C19.1447 5.63613 19.231 5.72613 19.4522 5.75988ZM18.8035 5.63238C18.7585 5.52738 18.766 5.44488 18.8297 5.36988C18.6047 5.31363 18.5072 5.35113 18.4997 5.44488C18.4885 5.53488 18.5822 5.61738 18.8035 5.63238ZM18.121 5.57988C18.061 5.47863 18.061 5.39988 18.121 5.31738C17.8922 5.28363 17.7947 5.33238 17.7985 5.42238C17.7985 5.51613 17.8997 5.58738 18.121 5.57988ZM16.7822 5.68113C16.6997 5.59863 16.681 5.51988 16.7147 5.42613C16.4897 5.44863 16.4072 5.51613 16.4297 5.60613C16.4522 5.69613 16.5685 5.74113 16.7822 5.68113V5.68113ZM17.4422 5.59488C17.371 5.50113 17.3597 5.42238 17.4085 5.33238C17.1797 5.32488 17.0897 5.38113 17.101 5.47488C17.1122 5.56488 17.221 5.62488 17.4385 5.59488H17.4422ZM16.1335 5.81988C16.0435 5.74863 16.0097 5.67738 16.0322 5.57988C15.8072 5.63613 15.7397 5.71488 15.7735 5.79738C15.811 5.88363 15.931 5.90988 16.1335 5.81988V5.81988ZM14.896 6.38988C14.791 6.33738 14.746 6.27363 14.7497 6.17238C14.5397 6.26988 14.4872 6.35988 14.5397 6.43488C14.5885 6.50988 14.7122 6.51738 14.896 6.38988ZM15.496 6.08613C15.3947 6.02238 15.361 5.95113 15.376 5.85363C15.1547 5.92113 15.091 6.00363 15.1322 6.08613C15.1735 6.16863 15.2972 6.19113 15.4922 6.08613H15.496ZM13.786 7.16613C13.6735 7.13613 13.6135 7.07988 13.5985 6.97863C13.411 7.12113 13.381 7.21863 13.4447 7.28238C13.5122 7.34613 13.6322 7.32738 13.7822 7.16613H13.786ZM14.3147 6.73113C14.2022 6.69363 14.1497 6.63363 14.1422 6.53613C13.9472 6.65613 13.906 6.75363 13.966 6.82488C14.026 6.89238 14.1535 6.88113 14.3147 6.73113V6.73113ZM13.3135 7.63113C13.201 7.60863 13.1372 7.55988 13.111 7.46238C12.9385 7.61613 12.916 7.72113 12.9872 7.77738C13.0585 7.83738 13.1747 7.80363 13.3135 7.62738V7.63113ZM12.8897 8.17488C12.7697 8.16738 12.7022 8.12613 12.6722 8.03238C12.5147 8.20113 12.4997 8.30238 12.5747 8.35488C12.6497 8.40738 12.766 8.36238 12.8897 8.17488V8.17488ZM12.5372 8.73738C12.4172 8.74488 12.3497 8.71113 12.2972 8.62488C12.1697 8.81613 12.1697 8.92488 12.2522 8.96238C12.3347 8.99988 12.4435 8.93988 12.5372 8.73738ZM12.226 9.33738C12.1135 9.35988 12.0385 9.33738 11.9747 9.25488C11.8735 9.46113 11.8885 9.56613 11.9747 9.59238C12.061 9.62238 12.1622 9.54738 12.226 9.33363V9.33738ZM11.9785 9.94863C11.866 9.98988 11.791 9.97863 11.716 9.91113C11.6485 10.1286 11.6785 10.2299 11.7722 10.2449C11.8622 10.2561 11.9485 10.1699 11.9785 9.94488V9.94863ZM11.8097 10.6311C11.7047 10.6799 11.626 10.6761 11.5472 10.6124C11.4947 10.8374 11.5322 10.9311 11.6222 10.9386C11.716 10.9499 11.7985 10.8561 11.8097 10.6311ZM11.7422 11.2011C11.6447 11.2536 11.566 11.2611 11.4797 11.2199C11.4535 11.4036 11.5022 11.4749 11.5922 11.4674C11.6822 11.4599 11.7535 11.3774 11.7422 11.2011ZM23.2547 8.49363C23.296 8.38113 23.356 8.32863 23.4535 8.32113C23.3335 8.12613 23.2397 8.08488 23.1685 8.14113C23.0972 8.20113 23.1085 8.32863 23.2547 8.49363ZM24.1997 11.6811C24.286 11.5986 24.3647 11.5799 24.4547 11.6211C24.4397 11.3924 24.3722 11.3099 24.2822 11.3286C24.196 11.3511 24.1472 11.4636 24.1997 11.6811Z" fill="#FFE300"/>
<path fill-rule="evenodd" clip-rule="evenodd" d="M23.2979 7.94922C23.2979 7.94922 23.0354 8.20797 23.0842 8.51922C23.1292 8.83047 23.3279 9.21672 23.2904 9.54297C23.2529 9.86547 23.1967 10.0792 23.1967 10.0792C23.1967 10.0792 23.4967 9.73797 23.4967 9.40422C23.5042 9.07797 23.2942 8.64297 23.2942 8.40297C23.2942 8.16297 23.3054 7.94547 23.2979 7.95297V7.94922ZM23.7742 8.99922C23.7742 8.99922 23.5754 9.14922 23.5942 9.48672C23.6129 9.82797 23.9692 10.4542 23.9692 10.4542C23.9692 10.4542 24.2242 10.9792 24.2129 11.118C24.2054 11.2567 24.2617 10.9867 24.2354 10.6867C24.2092 10.3867 23.8229 9.71922 23.8229 9.71922C23.8229 9.71922 23.7404 9.58422 23.7479 9.35547C23.7554 9.13047 23.7779 9.00297 23.7779 8.99922H23.7742Z" fill="#217900" stroke="black" stroke-width="0.158453" stroke-linejoin="round"/>
<path fill-rule="evenodd" clip-rule="evenodd" d="M17.739 4.77789C17.739 4.71039 17.6565 4.65039 17.559 4.65039C17.4615 4.65039 17.3828 4.71039 17.3828 4.77789C17.3828 4.84539 17.4578 4.90539 17.559 4.90539C17.6603 4.90539 17.7353 4.84914 17.7353 4.77789H17.739ZM17.814 5.07789C17.814 5.01039 17.7315 4.95414 17.6265 4.95414C17.529 4.95414 17.4465 5.00664 17.4465 5.07414C17.4465 5.14164 17.529 5.19789 17.6303 5.19789C17.7315 5.19789 17.8103 5.14164 17.8103 5.07414L17.814 5.07789ZM18.039 4.72539C18.039 4.72539 17.829 4.87914 17.9153 4.94289C18.0015 5.00664 18.2378 4.80789 18.2378 4.80789L18.039 4.72539ZM24.1628 8.30289C24.1628 8.25789 24.144 8.21664 24.1103 8.19414C24.0938 8.18252 24.0742 8.17628 24.054 8.17628C24.0339 8.17628 24.0142 8.18252 23.9978 8.19414C23.964 8.21664 23.9453 8.25789 23.9453 8.30289C23.9453 8.34789 23.964 8.38914 23.9978 8.41164C24.0142 8.42326 24.0339 8.4295 24.054 8.4295C24.0742 8.4295 24.0938 8.42326 24.1103 8.41164C24.144 8.38914 24.1628 8.34789 24.1628 8.30289ZM24.084 8.00289C24.084 7.92789 24.0315 7.87164 23.9715 7.87164C23.9115 7.87164 23.8553 7.93164 23.8553 8.00664C23.8553 8.08164 23.9078 8.13789 23.9678 8.13789C24.0278 8.13789 24.084 8.07789 24.084 8.00664V8.00289ZM24.1403 8.61039C24.1403 8.57289 24.1178 8.54289 24.0953 8.54289C24.0728 8.54289 24.0503 8.57289 24.0503 8.61039C24.0503 8.64789 24.069 8.68164 24.0953 8.68164C24.1215 8.68164 24.1403 8.64789 24.1403 8.61039ZM24.324 8.07039C24.324 8.02539 24.3015 7.99164 24.279 7.99164C24.2528 7.99164 24.234 8.02539 24.234 8.06664C24.234 8.10789 24.2528 8.14914 24.279 8.14914C24.3015 8.14914 24.324 8.11164 24.324 8.07039ZM23.8215 8.12289C23.8215 8.08539 23.799 8.05914 23.7765 8.05914C23.754 8.05914 23.7315 8.08914 23.7315 8.12289C23.7315 8.15664 23.7503 8.19039 23.7765 8.19039C23.8028 8.19039 23.8215 8.16039 23.8215 8.12289ZM23.9003 8.55039C23.9003 8.49414 23.859 8.44914 23.8065 8.44914C23.754 8.44914 23.7128 8.49414 23.7128 8.55039C23.7128 8.61039 23.7503 8.65539 23.8065 8.65539C23.8628 8.65539 23.9003 8.61039 23.9003 8.55039ZM23.6528 8.36289C23.6528 8.31414 23.6153 8.27289 23.574 8.27289C23.529 8.27289 23.4915 8.31039 23.4915 8.36289C23.4915 8.41539 23.529 8.45289 23.574 8.45289C23.6153 8.45289 23.649 8.41539 23.649 8.36289H23.6528ZM23.6153 8.10789C23.6151 8.09493 23.6115 8.08224 23.6049 8.07107C23.5984 8.0599 23.589 8.05062 23.5778 8.04414C23.5671 8.0375 23.5548 8.03397 23.5422 8.03397C23.5296 8.03397 23.5172 8.0375 23.5065 8.04414C23.496 8.05107 23.4874 8.06055 23.4815 8.07169C23.4756 8.08283 23.4726 8.09528 23.4728 8.10789C23.4723 8.12148 23.4756 8.13495 23.4822 8.14684C23.4888 8.15873 23.4985 8.1686 23.5103 8.17539C23.5206 8.18132 23.5322 8.18443 23.544 8.18443C23.5559 8.18443 23.5675 8.18132 23.5778 8.17539C23.6003 8.16039 23.6153 8.13789 23.6153 8.10789V8.10789ZM24.744 9.39789C24.6428 9.26289 24.4778 9.20664 24.3765 9.27039C24.279 9.33414 24.279 9.49539 24.384 9.63414C24.4853 9.76914 24.6465 9.82539 24.7478 9.76164C24.849 9.69414 24.849 9.53664 24.7478 9.39789H24.744ZM25.0365 11.8991C25.0553 11.7304 24.9765 11.5841 24.8565 11.5691C24.7365 11.5579 24.624 11.6816 24.6015 11.8466C24.5828 12.0116 24.6653 12.1579 24.7853 12.1729C24.9053 12.1879 25.0178 12.0604 25.0365 11.8991V11.8991ZM25.0965 13.3541C25.134 13.1891 25.0628 13.0354 24.9465 13.0091C24.8265 12.9866 24.7028 13.0991 24.669 13.2641C24.6353 13.4254 24.7065 13.5791 24.819 13.6016C24.939 13.6279 25.0628 13.5154 25.0965 13.3504V13.3541ZM25.3778 11.9891C25.3778 11.9254 25.3328 11.8729 25.2803 11.8729C25.2278 11.8729 25.179 11.9254 25.179 11.9891C25.179 12.0566 25.224 12.1091 25.2803 12.1091C25.3365 12.1091 25.3778 12.0566 25.3778 11.9891ZM25.134 12.2629L24.9315 12.4954C24.9315 12.4954 24.7403 12.4991 24.7515 12.5629C24.759 12.6229 25.014 12.8104 25.014 12.8854C25.0103 12.9604 25.179 12.8666 25.179 12.8666L25.3178 12.4504C25.3178 12.4504 25.3103 12.1616 25.2353 12.1654C25.1603 12.1729 25.1415 12.2591 25.134 12.2629V12.2629ZM11.7315 12.1729C11.7344 12.1588 11.734 12.1442 11.7305 12.1302C11.727 12.1162 11.7204 12.1032 11.7113 12.092C11.7021 12.0809 11.6906 12.0719 11.6776 12.0657C11.6646 12.0596 11.6503 12.0564 11.6359 12.0564C11.6215 12.0564 11.6073 12.0596 11.5942 12.0657C11.5812 12.0719 11.5697 12.0809 11.5605 12.092C11.5514 12.1032 11.5448 12.1162 11.5413 12.1302C11.5378 12.1442 11.5375 12.1588 11.5403 12.1729C11.5447 12.195 11.5566 12.2149 11.5741 12.2292C11.5915 12.2435 11.6134 12.2514 11.6359 12.2514C11.6585 12.2514 11.6803 12.2435 11.6978 12.2292C11.7152 12.2149 11.7271 12.195 11.7315 12.1729V12.1729ZM11.8253 11.8729C11.8253 11.8204 11.7803 11.7754 11.7278 11.7754C11.6753 11.7754 11.6303 11.8204 11.6303 11.8766C11.6303 11.9329 11.6753 11.9779 11.7278 11.9779C11.754 11.9769 11.7788 11.9658 11.797 11.9469C11.8152 11.9281 11.8253 11.9029 11.8253 11.8766V11.8729ZM11.0265 10.4704C10.989 10.3879 10.914 10.3429 10.8578 10.3691C10.8015 10.3954 10.7828 10.4816 10.8203 10.5641C10.8578 10.6466 10.9328 10.6916 10.989 10.6654C11.049 10.6391 11.064 10.5529 11.0265 10.4704ZM11.2703 11.3479C11.2178 11.2429 11.1165 11.1829 11.0378 11.2166C10.959 11.2504 10.9365 11.3629 10.9853 11.4679C11.034 11.5729 11.1353 11.6329 11.2178 11.5991C11.3003 11.5654 11.319 11.4529 11.2703 11.3479ZM11.5253 11.9929C11.544 11.8616 11.4878 11.7379 11.4053 11.7229C11.319 11.7041 11.2403 11.7979 11.2215 11.9291C11.2065 12.0604 11.259 12.1804 11.3453 12.1991C11.4278 12.2179 11.5103 12.1241 11.5253 11.9929V11.9929ZM11.1128 12.0866C11.1653 11.9629 11.1465 11.8316 11.0715 11.7941C10.9965 11.7566 10.8915 11.8204 10.839 11.9441C10.7865 12.0679 10.8053 12.1954 10.884 12.2366C10.9628 12.2779 11.0603 12.2104 11.1128 12.0866Z" fill="#6B18B5"/>
<path fill-rule="evenodd" clip-rule="evenodd" d="M10.9219 11.8049C10.9219 11.7412 10.8732 11.6924 10.8132 11.6924C10.7532 11.6924 10.7044 11.7449 10.7044 11.8049C10.7044 11.8649 10.7532 11.9174 10.8169 11.9174C10.8807 11.9174 10.9219 11.8687 10.9219 11.8049ZM10.8357 11.5237C10.8357 11.4674 10.7907 11.4224 10.7382 11.4224C10.7249 11.4229 10.7118 11.426 10.6997 11.4315C10.6876 11.4371 10.6767 11.445 10.6677 11.4547C10.6586 11.4645 10.6516 11.4759 10.647 11.4884C10.6423 11.5009 10.6402 11.5141 10.6407 11.5274C10.6407 11.5799 10.6857 11.6287 10.7382 11.6287C10.7907 11.6287 10.8357 11.5799 10.8357 11.5237ZM10.9257 10.9874C10.9257 10.8899 10.8844 10.8149 10.8319 10.8149C10.7794 10.8149 10.7382 10.8899 10.7382 10.9874C10.7382 11.0812 10.7794 11.1599 10.8319 11.1599C10.8844 11.1599 10.9257 11.0849 10.9257 10.9874ZM11.2182 10.9462C11.2294 10.8524 11.1994 10.7699 11.1432 10.7587C11.0944 10.7549 11.0419 10.8262 11.0307 10.9199C11.0157 11.0137 11.0494 11.0962 11.1019 11.1037C11.1507 11.1112 11.2032 11.0399 11.2144 10.9462H11.2182ZM13.2807 6.82117C13.3219 6.68617 13.2807 6.55117 13.1944 6.52117C13.1082 6.48742 13.0069 6.56992 12.9694 6.70492C12.9319 6.83992 12.9694 6.97492 13.0557 7.00492C13.1419 7.03867 13.2432 6.95617 13.2807 6.82117ZM12.8907 7.41742C13.0032 7.31617 13.0557 7.18117 13.0032 7.11367C12.9469 7.04242 12.8082 7.06867 12.6919 7.16617C12.5757 7.26367 12.5307 7.39867 12.5832 7.46617C12.6394 7.53742 12.7782 7.51492 12.8907 7.41742V7.41742ZM12.6657 7.08742C12.7782 7.00117 12.8232 6.88492 12.7707 6.82492C12.7182 6.76492 12.5832 6.78742 12.4707 6.86992C12.3544 6.95617 12.3057 7.07242 12.3582 7.13242C12.4107 7.19242 12.5457 7.16992 12.6619 7.08742H12.6657ZM13.5469 6.50617C13.6219 6.44617 13.6557 6.36367 13.6219 6.32242C13.5844 6.28492 13.4907 6.29617 13.4119 6.35617C13.3332 6.41617 13.3032 6.49492 13.3407 6.53617C13.3782 6.57742 13.4682 6.56242 13.5469 6.50617Z" fill="#6B18B5"/>
<path fill-rule="evenodd" clip-rule="evenodd" d="M13.0892 7.0688C13.1417 6.9863 13.1455 6.90005 13.0967 6.8738C13.048 6.84755 12.9655 6.8888 12.913 6.9713C12.8605 7.0538 12.8567 7.14005 12.9055 7.1663C12.9542 7.19255 13.0367 7.14755 13.0892 7.0688ZM13.753 6.72005C13.8355 6.6488 13.8655 6.5588 13.828 6.5138C13.783 6.4688 13.678 6.4913 13.5955 6.5588C13.513 6.6263 13.483 6.72005 13.5242 6.76505C13.5692 6.81005 13.6705 6.78755 13.753 6.72005ZM12.553 7.53005C12.628 7.53005 12.688 7.4888 12.6805 7.4438C12.6805 7.40255 12.6092 7.3688 12.5305 7.37255C12.4555 7.3763 12.3955 7.41755 12.403 7.4588C12.4067 7.5038 12.478 7.5338 12.553 7.5338V7.53005ZM14.0042 6.2888C14.0567 6.2063 14.0605 6.12005 14.0117 6.0938C13.9667 6.06755 13.8842 6.1088 13.8317 6.1913C13.7792 6.2738 13.7755 6.36005 13.8242 6.3863C13.873 6.41255 13.9517 6.3713 14.0042 6.2888Z" fill="#6B18B5"/>
<path fill-rule="evenodd" clip-rule="evenodd" d="M22.7559 8.75266C22.7559 8.75266 22.9959 8.37391 22.9059 8.01391C22.8121 7.65766 22.4184 7.91266 22.4259 8.04016C22.4334 8.16391 22.6809 8.33641 22.6959 8.41516C22.7109 8.49016 22.6659 8.72641 22.7559 8.75266Z" fill="#FFD200" stroke="#EF8A10" stroke-width="0.0833964"/>
<path fill-rule="evenodd" clip-rule="evenodd" d="M18.1836 5.59889C18.1836 5.59889 19.0461 5.63264 19.0498 6.19139C19.0498 6.27764 19.0498 6.37889 19.0198 6.63014C19.1923 6.53639 19.3048 6.28139 19.2823 6.11639C19.2861 5.55014 18.5136 5.16014 18.1836 5.59889Z" fill="#217900" stroke="black" stroke-width="0.191812" stroke-linejoin="round"/>
<path fill-rule="evenodd" clip-rule="evenodd" d="M17.6367 5.57264C17.6367 5.57264 18.3305 5.43014 18.338 5.98514C18.3417 6.54764 18.113 6.63389 18.113 6.63389C18.113 6.63389 18.6492 6.52139 18.653 5.95514C18.653 5.38514 17.9667 5.13389 17.6367 5.57264V5.57264Z" fill="#217900" stroke="black" stroke-width="0.191812" stroke-linejoin="round"/>
<path fill-rule="evenodd" clip-rule="evenodd" d="M19.9998 17.6254C19.9998 17.6254 23.2548 16.7029 24.2373 12.7129C23.6636 16.8041 20.1011 18.1129 20.1011 18.1129L19.9961 17.6254H19.9998Z" fill="#F7DF73" stroke="black" stroke-width="0.208491" stroke-linejoin="round"/>
<path fill-rule="evenodd" clip-rule="evenodd" d="M20.3313 17.8725C20.4325 17.8725 20.68 17.595 20.8225 17.565C20.965 17.535 20.98 17.3887 20.8188 17.385C20.6538 17.3775 20.5113 17.5725 20.5113 17.5725C20.5113 17.5725 20.3688 17.6925 20.2188 17.7075C20.0688 17.7225 20.1663 17.91 20.3313 17.8725Z" fill="#8C1800"/>
<path fill-rule="evenodd" clip-rule="evenodd" d="M22.207 16.4745C22.207 16.4745 21.8693 16.6696 21.9143 16.7184C21.9631 16.7672 22.2633 16.5308 22.2708 16.5308C22.2746 16.5232 22.3984 16.3731 22.207 16.4745Z" fill="#8C1800" stroke="#8C1800" stroke-width="0.208491"/>
<path fill-rule="evenodd" clip-rule="evenodd" d="M21.0273 17.3635C21.0273 17.3635 20.9261 17.326 21.1848 17.2285C21.4473 17.1272 21.4286 17.011 21.5148 16.9622C21.5973 16.9135 21.7773 16.786 21.8148 16.861C21.8523 16.936 21.6273 17.086 21.5711 17.101C21.5186 17.116 21.2598 17.356 21.1848 17.3747C21.1098 17.3972 21.0573 17.386 21.0273 17.3635V17.3635Z" fill="#8C1800"/>
<path d="M22.7095 15.9746C22.4844 16.226 22.4844 16.2185 22.4844 16.2185" stroke="#8C1800" stroke-width="0.250189" stroke-linecap="round"/>
<path d="M23.042 15.5703L22.8281 15.8293" stroke="#8C1800" stroke-width="0.23351" stroke-linecap="round"/>
<path d="M23.3769 15.0371L23.1367 15.4199" stroke="#8C1800" stroke-width="0.208491" stroke-linecap="round"/>
<path d="M23.6597 14.498L23.4609 14.8918M23.7834 14.2168L23.7234 14.3518" stroke="#8C1800" stroke-width="0.191812" stroke-linecap="round"/>
<path d="M23.9235 13.8379L23.8711 14.0027" stroke="#8C1800" stroke-width="0.116755" stroke-linecap="round"/>
<path fill-rule="evenodd" clip-rule="evenodd" d="M15.7305 17.5394C15.7305 17.5394 12.5027 16.6019 11.5343 12.5332C12.0992 16.7104 15.6312 18.0305 15.6312 18.0305L15.7305 17.5394Z" fill="#F7DF73" stroke="black" stroke-width="0.209883" stroke-linejoin="round"/>
<path fill-rule="evenodd" clip-rule="evenodd" d="M15.4004 17.7898C15.2991 17.7898 15.0554 17.5085 14.9129 17.4785C14.7704 17.4448 14.7554 17.2985 14.9166 17.291C15.0816 17.291 15.2204 17.4823 15.2204 17.4823C15.2204 17.4823 15.3629 17.606 15.5091 17.6248C15.6591 17.6398 15.5616 17.8273 15.4004 17.7898V17.7898Z" fill="#8C1800"/>
<path fill-rule="evenodd" clip-rule="evenodd" d="M13.5452 16.367C13.5452 16.367 13.8806 16.5713 13.8309 16.6223C13.7874 16.667 13.4893 16.4309 13.483 16.4245C13.4768 16.4181 13.3588 16.2649 13.5452 16.367Z" fill="#8C1800" stroke="#8C1800" stroke-width="0.209883"/>
<path fill-rule="evenodd" clip-rule="evenodd" d="M14.7137 17.2733C14.7137 17.2733 14.8112 17.2358 14.5562 17.1346C14.3012 17.0333 14.3125 16.9096 14.23 16.8646C14.1475 16.8158 13.9675 16.6883 13.93 16.7633C13.8925 16.8383 14.1175 16.9883 14.1737 17.0033C14.2262 17.0221 14.4812 17.2658 14.5562 17.2846C14.6312 17.3071 14.68 17.2958 14.7137 17.2733Z" fill="#8C1800"/>
<path d="M13.0482 15.8633L13.2656 16.1122" stroke="#8C1800" stroke-width="0.25186" stroke-linecap="round"/>
<path d="M12.7146 15.4492L12.9258 15.7109" stroke="#8C1800" stroke-width="0.237868" stroke-linecap="round"/>
<path d="M12.385 14.9062L12.6211 15.2956" stroke="#8C1800" stroke-width="0.209883" stroke-linecap="round"/>
<path d="M12.1061 14.3578L12.3047 14.7596M11.9819 14.0645L12.044 14.2048" stroke="#8C1800" stroke-width="0.195891" stroke-linecap="round"/>
<path d="M11.8387 13.6816L11.8945 13.8536" stroke="#8C1800" stroke-width="0.111938" stroke-linecap="round"/>
<path fill-rule="evenodd" clip-rule="evenodd" d="M24.3889 11.9746C24.4076 12.2259 24.6514 12.4621 24.5539 12.9009C24.4339 13.3996 23.9989 14.5771 24.0739 14.7834C23.9464 14.6071 23.9689 14.4459 23.9614 14.1984C23.9464 13.9546 24.3139 13.0396 24.3476 12.7321C24.3476 12.4546 24.3739 12.0759 24.3889 11.9746V11.9746Z" fill="#217900" stroke="black" stroke-width="0.191812" stroke-linejoin="round"/>
<path fill-rule="evenodd" clip-rule="evenodd" d="M24.3919 11.9785C24.3919 11.9785 24.7931 12.4848 24.7706 12.886C24.7519 13.2873 24.5269 13.756 24.6019 13.9623C24.4832 13.8107 24.4221 13.6221 24.4294 13.4298C24.4181 13.186 24.6281 12.9123 24.5831 12.646C24.5419 12.3835 24.3881 11.9785 24.3956 11.9785H24.3919ZM11.2931 12.091C11.2781 12.3423 11.0906 12.5673 11.1881 13.0023C11.3081 13.501 11.7506 14.1273 11.6756 14.8473C11.8069 14.671 11.8444 14.4723 11.8556 14.2285C11.8631 13.9848 11.3681 13.1598 11.3381 12.8485C11.3381 12.571 11.3081 12.1923 11.2931 12.091V12.091Z" fill="#217900" stroke="black" stroke-width="0.191812" stroke-linejoin="round"/>
<path fill-rule="evenodd" clip-rule="evenodd" d="M11.2903 12.0975C11.2903 12.0975 10.9003 12.585 10.9228 12.9862C10.9266 13.2525 11.4178 14.3663 11.3428 14.5763C11.4741 14.4 11.5078 14.4225 11.5041 14.1563C11.3616 13.47 11.1028 13.035 11.1478 12.7688C11.1891 12.5025 11.2978 12.0938 11.2903 12.0938V12.0975Z" fill="#217900" stroke="black" stroke-width="0.191812" stroke-linejoin="round"/>
<path d="M17.9431 7.61328L18.9044 10.5936H22.0503L19.5161 12.4378L20.4817 15.4181L17.9475 13.5784L15.4133 15.4181L16.3745 12.4378L13.8359 10.5936H16.9731L17.9431 7.61328Z" fill="white" stroke="black" stroke-width="0.165202" stroke-linecap="square" stroke-linejoin="round"/>
</g>
</g>
<defs>
<filter id="filter0_d_336_29644" x="0" y="-2" width="36" height="36" filterUnits="userSpaceOnUse" color-interpolation-filters="sRGB">
<feFlood flood-opacity="0" result="BackgroundImageFix"/>
<feColorMatrix in="SourceAlpha" type="matrix" values="0 0 0 0 0 0 0 0 0 0 0 0 0 0 0 0 0 0 127 0" result="hardAlpha"/>
<feOffset dy="4"/>
<feGaussianBlur stdDeviation="3"/>
<feComposite in2="hardAlpha" operator="out"/>
<feColorMatrix type="matrix" values="0 0 0 0 0 0 0 0 0 0 0 0 0 0 0 0 0 0 0.16 0"/>
<feBlend mode="normal" in2="BackgroundImageFix" result="effect1_dropShadow_336_29644"/>
<feBlend mode="normal" in="SourceGraphic" in2="effect1_dropShadow_336_29644" result="shape"/>
</filter>
<clipPath id="clip0_336_29644">
<rect width="24" height="18" fill="white" transform="translate(6 3)"/>
</clipPath>
</defs>
</svg>
