<svg width="36" height="31" viewBox="0 0 36 31" fill="none" xmlns="http://www.w3.org/2000/svg">
<g filter="url(#filter0_d_336_29209)">
<g clip-path="url(#clip0_336_29209)">
<rect width="24" height="18" transform="translate(6 3)" fill="white"/>
<path fill-rule="evenodd" clip-rule="evenodd" d="M6.23047 20.7715H19.5477L10.8324 11.9332L19.8781 11.9437L6.23398 3.22852V20.7715H6.23047Z" fill="#CE0000" stroke="#000063" stroke-width="1.07894"/>
<path fill-rule="evenodd" clip-rule="evenodd" d="M12.3547 16.0711L11.4055 16.3875L12.1508 17.0836L11.1488 17.0203L11.5602 17.9414L10.6637 17.509L10.6813 18.5145L10.0203 17.7797L9.64414 18.7148L9.3207 17.7902L8.60703 18.5145L8.67031 17.5406L7.72461 17.9414L8.16758 17.0625L7.1375 17.0836L7.89336 16.4402L6.93359 16.0711L7.88281 15.7547L7.13398 15.0586L8.13242 15.1219L7.72461 14.2008L8.62461 14.6332L8.60703 13.6277L9.26797 14.3625L9.64414 13.4273L9.96406 14.352L10.6813 13.6277L10.6145 14.6016L11.5637 14.2008L11.1172 15.0797L12.1508 15.0586L11.3949 15.702L12.3547 16.0711ZM11.2156 9.57773L10.8184 9.87305L11.0152 10.0348C11.4772 9.71204 11.8488 9.27631 12.0945 8.76914C12.1578 9.51797 11.4723 11.1949 9.6793 11.2125C9.35158 11.2167 9.02629 11.1559 8.72218 11.0337C8.41808 10.9115 8.14119 10.7303 7.90749 10.5005C7.67379 10.2707 7.48791 9.99696 7.36058 9.69497C7.23325 9.39297 7.16699 9.06875 7.16562 8.74102C7.51719 9.38086 7.73516 9.69023 8.29062 10.0242L8.45586 9.86953L8.0832 9.55664L8.56484 9.43008L8.30469 8.99414L8.81094 9.0293L8.74766 8.52305L9.19062 8.7832L9.33125 8.30859L9.64766 8.68828L9.94648 8.32617L10.1082 8.81836L10.523 8.53008L10.4703 9.03281L10.9695 8.97305L10.734 9.43711L11.2156 9.57773V9.57773Z" fill="white"/>
</g>
</g>
<defs>
<filter id="filter0_d_336_29209" x="0" y="-2" width="36" height="36" filterUnits="userSpaceOnUse" color-interpolation-filters="sRGB">
<feFlood flood-opacity="0" result="BackgroundImageFix"/>
<feColorMatrix in="SourceAlpha" type="matrix" values="0 0 0 0 0 0 0 0 0 0 0 0 0 0 0 0 0 0 127 0" result="hardAlpha"/>
<feOffset dy="4"/>
<feGaussianBlur stdDeviation="3"/>
<feComposite in2="hardAlpha" operator="out"/>
<feColorMatrix type="matrix" values="0 0 0 0 0 0 0 0 0 0 0 0 0 0 0 0 0 0 0.16 0"/>
<feBlend mode="normal" in2="BackgroundImageFix" result="effect1_dropShadow_336_29209"/>
<feBlend mode="normal" in="SourceGraphic" in2="effect1_dropShadow_336_29209" result="shape"/>
</filter>
<clipPath id="clip0_336_29209">
<rect width="24" height="18" fill="white" transform="translate(6 3)"/>
</clipPath>
</defs>
</svg>
