<svg width="36" height="31" viewBox="0 0 36 31" fill="none" xmlns="http://www.w3.org/2000/svg">
<g filter="url(#filter0_d_336_32774)">
<g clip-path="url(#clip0_336_32774)">
<path d="M6 3H30V21H6V3Z" fill="white"/>
<path d="M15.975 4.99805H30V7.00055H15.975V4.99805ZM15.975 8.9993H30V10.998H15.975V8.9993ZM6 13.0005H30V14.9993H6V13.0005ZM6 16.998H30V19.0005H6V16.998Z" fill="#0038A8"/>
<path d="M10.7737 8.97654L11.1048 9.47085C9.74451 10.4552 10.575 11.0373 9.611 11.3524C10.2105 10.7673 9.5166 10.718 10.0217 9.4985" fill="#FCD116"/>
<path d="M10.7737 8.97654L11.1048 9.47085C9.74451 10.4552 10.575 11.0373 9.611 11.3524C10.2105 10.7673 9.5166 10.718 10.0217 9.4985" stroke="black" stroke-width="0.146667" stroke-miterlimit="20" stroke-linecap="square"/>
<path d="M10.5361 9.11618C9.78562 10.3531 10.2778 11.0333 9.61001 11.352" stroke="black" stroke-width="0.146667" stroke-miterlimit="20"/>
<path d="M10.9998 7.99805H11.6598L10.9998 11.628L10.3398 7.99805H10.9998V11.628Z" fill="#FCD116"/>
<path d="M10.9998 7.99805H11.6598L10.9998 11.628L10.3398 7.99805H10.9998ZM10.9998 7.99805V11.628" stroke="black" stroke-width="0.146667" stroke-miterlimit="20"/>
<path d="M10.1465 8.52959L10.031 9.11319C8.3731 8.84741 8.5487 9.84624 7.64428 9.38743C8.48195 9.39764 8.02613 8.87207 9.24564 8.36693" fill="#FCD116"/>
<path d="M10.1465 8.52959L10.031 9.11319C8.3731 8.84741 8.5487 9.84624 7.64428 9.38743C8.48195 9.39764 8.02613 8.87207 9.24564 8.36693" stroke="black" stroke-width="0.146667" stroke-miterlimit="20" stroke-linecap="square"/>
<path d="M9.87985 8.46189C8.47452 8.80587 8.34163 9.63482 7.64407 9.38798" stroke="black" stroke-width="0.146667" stroke-miterlimit="20"/>
<path d="M10.9979 7.99794L11.4646 8.46463L8.43115 10.5647L10.5312 7.53125L10.9979 7.99794L8.43115 10.5647Z" fill="#FCD116"/>
<path d="M10.9979 7.99794L11.4646 8.46463L8.43115 10.5647L10.5312 7.53125L10.9979 7.99794ZM10.9979 7.99794L8.43115 10.5647" stroke="black" stroke-width="0.146667" stroke-miterlimit="20"/>
<path d="M10.0176 7.77177L9.5233 8.10281C8.53891 6.74256 7.9568 7.57301 7.64171 6.60905C8.22681 7.2086 8.27613 6.51465 9.49564 7.01979" fill="#FCD116"/>
<path d="M10.0176 7.77177L9.5233 8.10281C8.53891 6.74256 7.9568 7.57301 7.64171 6.60905C8.22681 7.2086 8.27613 6.51465 9.49564 7.01979" stroke="black" stroke-width="0.146667" stroke-miterlimit="20" stroke-linecap="square"/>
<path d="M9.87796 7.53611C8.641 6.78562 7.96088 7.27781 7.64217 6.61001" stroke="black" stroke-width="0.146667" stroke-miterlimit="20"/>
<path d="M10.9961 7.99789V8.65789L7.3661 7.99789L10.9961 7.33789V7.99789H7.3661Z" fill="#FCD116"/>
<path d="M10.9961 7.99789V8.65789L7.3661 7.99789L10.9961 7.33789V7.99789ZM10.9961 7.99789H7.3661" stroke="black" stroke-width="0.146667" stroke-miterlimit="20"/>
<path d="M10.4646 7.14646L9.88095 7.03101C10.1467 5.3731 9.1479 5.5487 9.60671 4.64428C9.5965 5.48195 10.1221 5.02613 10.6272 6.24564" fill="#FCD116"/>
<path d="M10.4646 7.14646L9.88095 7.03101C10.1467 5.3731 9.1479 5.5487 9.60671 4.64428C9.5965 5.48195 10.1221 5.02613 10.6272 6.24564" stroke="black" stroke-width="0.146667" stroke-miterlimit="20" stroke-linecap="square"/>
<path d="M10.5342 6.87985C10.1902 5.47452 9.36127 5.34163 9.60811 4.64407" stroke="black" stroke-width="0.146667" stroke-miterlimit="20"/>
<path d="M10.9982 7.99794L10.5315 8.46463L8.43136 5.43115L11.4648 7.53125L10.9982 7.99794L8.43136 5.43115Z" fill="#FCD116"/>
<path d="M10.9982 7.99794L10.5315 8.46463L8.43136 5.43115L11.4648 7.53125L10.9982 7.99794ZM10.9982 7.99794L8.43136 5.43115" stroke="black" stroke-width="0.146667" stroke-miterlimit="20"/>
<path d="M11.2224 7.02151L10.8913 6.5272C12.2516 5.54282 11.4211 4.96071 12.3851 4.64561C11.7855 5.23071 12.4795 5.28003 11.9744 6.49955" fill="#FCD116"/>
<path d="M11.2224 7.02151L10.8913 6.5272C12.2516 5.54282 11.4211 4.96071 12.3851 4.64561C11.7855 5.23071 12.4795 5.28003 11.9744 6.49955" stroke="black" stroke-width="0.146667" stroke-miterlimit="20" stroke-linecap="square"/>
<path d="M11.46 6.88186C12.2105 5.64491 11.7183 4.96478 12.3861 4.64608" stroke="black" stroke-width="0.146667" stroke-miterlimit="20"/>
<path d="M10.9963 8H10.3363L10.9963 4.37L11.6562 8H10.9963V4.37Z" fill="#FCD116"/>
<path d="M10.9963 8H10.3363L10.9963 4.37L11.6562 8H10.9963ZM10.9963 8V4.37" stroke="black" stroke-width="0.146667" stroke-miterlimit="20"/>
<path d="M11.8496 7.46846L11.9651 6.88486C13.623 7.15063 13.4474 6.1518 14.3518 6.61062C13.5141 6.6004 13.97 7.12597 12.7504 7.63112" fill="#FCD116"/>
<path d="M11.8496 7.46846L11.9651 6.88486C13.623 7.15063 13.4474 6.1518 14.3518 6.61062C13.5141 6.6004 13.97 7.12597 12.7504 7.63112" stroke="black" stroke-width="0.146667" stroke-miterlimit="20" stroke-linecap="square"/>
<path d="M12.1162 7.53616C13.5216 7.19218 13.6545 6.36322 14.352 6.61007" stroke="black" stroke-width="0.146667" stroke-miterlimit="20"/>
<path d="M10.9982 8.00011L10.5315 7.53342L13.5649 5.43331L11.4648 8.4668L10.9982 8.00011L13.5649 5.43331Z" fill="#FCD116"/>
<path d="M10.9982 8.00011L10.5315 7.53342L13.5649 5.43331L11.4648 8.4668L10.9982 8.00011ZM10.9982 8.00011L13.5649 5.43331" stroke="black" stroke-width="0.146667" stroke-miterlimit="20"/>
<path d="M11.9785 8.22627L12.4728 7.89524C13.4572 9.25549 14.0393 8.42504 14.3544 9.389C13.7693 8.78945 13.72 9.4834 12.5004 8.97826" fill="#FCD116"/>
<path d="M11.9785 8.22627L12.4728 7.89524C13.4572 9.25549 14.0393 8.42504 14.3544 9.389C13.7693 8.78945 13.72 9.4834 12.5004 8.97826" stroke="black" stroke-width="0.146667" stroke-miterlimit="20" stroke-linecap="square"/>
<path d="M12.1181 8.46194C13.3551 9.21243 14.0352 8.72024 14.3539 9.38803" stroke="black" stroke-width="0.146667" stroke-miterlimit="20"/>
<path d="M11 8.00016V7.34016L14.63 8.00016L11 8.66016V8.00016H14.63Z" fill="#FCD116"/>
<path d="M11 8.00016V7.34016L14.63 8.00016L11 8.66016V8.00016ZM11 8.00016H14.63" stroke="black" stroke-width="0.146667" stroke-miterlimit="20"/>
<path d="M11.5315 8.85159L12.1151 8.96704C11.8494 10.6249 12.8482 10.4493 12.3894 11.3538C12.3996 10.5161 11.874 10.9719 11.3689 9.7524" fill="#FCD116"/>
<path d="M11.5315 8.85159L12.1151 8.96704C11.8494 10.6249 12.8482 10.4493 12.3894 11.3538C12.3996 10.5161 11.874 10.9719 11.3689 9.7524" stroke="black" stroke-width="0.146667" stroke-miterlimit="20" stroke-linecap="square"/>
<path d="M11.4619 9.11819C11.8059 10.5235 12.6348 10.6564 12.388 11.354" stroke="black" stroke-width="0.146667" stroke-miterlimit="20"/>
<path d="M10.9979 8.00011L11.4646 7.53342L13.5647 10.5669L10.5312 8.4668L10.9979 8.00011L13.5647 10.5669Z" fill="#FCD116"/>
<path d="M10.9979 8.00011L11.4646 7.53342L13.5647 10.5669L10.5312 8.4668L10.9979 8.00011ZM10.9979 8.00011L13.5647 10.5669" stroke="black" stroke-width="0.146667" stroke-miterlimit="20"/>
<path d="M10.9991 9.20906C11.6673 9.20906 12.2091 8.66732 12.2091 7.99906C12.2091 7.3308 11.6673 6.78906 10.9991 6.78906C10.3308 6.78906 9.78906 7.3308 9.78906 7.99906C9.78906 8.66732 10.3308 9.20906 10.9991 9.20906Z" fill="#FCD116" stroke="black" stroke-width="0.146667" stroke-miterlimit="20"/>
<path d="M11.8926 7.51482C11.8156 7.60282 11.7716 7.44882 11.4966 7.44882C11.2216 7.44882 11.1776 7.61382 11.1336 7.58082C11.0896 7.54782 11.3646 7.34982 11.4526 7.33882C11.5406 7.32782 11.7936 7.41582 11.8926 7.51482ZM11.5736 7.61382C11.6506 7.67982 11.5846 7.82282 11.5076 7.82282C11.4306 7.82282 11.2876 7.69082 11.3536 7.60282" fill="black"/>
<path d="M11.2109 7.71259C11.2219 7.58059 11.3319 7.55859 11.5079 7.55859C11.6839 7.55859 11.7609 7.69059 11.8269 7.72359C11.7499 7.72359 11.6839 7.61359 11.5079 7.61359C11.3319 7.61359 11.3319 7.61359 11.2109 7.72359M11.2439 7.74559C11.2879 7.67959 11.3429 7.81159 11.4639 7.81159C11.5849 7.81159 11.6509 7.77859 11.7279 7.72359C11.8049 7.66859 11.6179 7.85559 11.4969 7.85559C11.3759 7.85559 11.2109 7.78959 11.2439 7.74559Z" fill="black"/>
<path d="M11.6163 7.81251C11.7593 7.73551 11.6713 7.62552 11.6163 7.60352C11.6383 7.62552 11.7263 7.73551 11.6163 7.81251ZM11.0003 8.47251C11.0663 8.47251 11.0883 8.45051 11.1763 8.45051C11.2643 8.45051 11.4733 8.5715 11.5943 8.52751C11.3413 8.6265 11.4403 8.5605 11.0003 8.5605H10.9453M11.6383 8.6265C11.5943 8.5495 11.6053 8.5715 11.5173 8.45051C11.6053 8.51651 11.6273 8.5495 11.6383 8.6265ZM11.0003 8.7365C11.2753 8.7365 11.2313 8.6815 11.5943 8.52751C11.3303 8.5605 11.2753 8.6485 11.0003 8.6485H10.9453M11.0003 8.32951C11.0773 8.32951 11.0993 8.27451 11.1873 8.27451C11.2753 8.27451 11.3963 8.30751 11.4513 8.35151C11.4623 8.36251 11.4183 8.26351 11.3303 8.25251C11.2423 8.24151 11.2753 8.09851 11.1763 8.07651C11.1763 8.12051 11.2093 8.10951 11.2203 8.17551C11.2203 8.23051 11.1213 8.23051 11.0993 8.17551C11.1213 8.26351 11.0553 8.26351 11.0003 8.26351" fill="black"/>
<path d="M10.1074 7.51482C10.1844 7.60282 10.2284 7.44882 10.5034 7.44882C10.7784 7.44882 10.8224 7.61382 10.8664 7.58082C10.9104 7.54782 10.6354 7.34982 10.5474 7.33882C10.4594 7.32782 10.2064 7.41582 10.1074 7.51482ZM10.4264 7.61382C10.3494 7.67982 10.4154 7.82282 10.4924 7.82282C10.5694 7.82282 10.7124 7.69082 10.6464 7.60282" fill="black"/>
<path d="M10.7891 7.71259C10.7781 7.58059 10.6681 7.55859 10.4921 7.55859C10.3161 7.55859 10.2391 7.69059 10.1731 7.72359C10.2501 7.72359 10.3161 7.61359 10.4921 7.61359C10.6681 7.61359 10.6681 7.61359 10.7891 7.72359M10.7561 7.74559C10.7121 7.67959 10.6571 7.81159 10.5361 7.81159C10.4151 7.81159 10.3491 7.77859 10.2721 7.72359C10.1951 7.66859 10.3821 7.85559 10.5031 7.85559C10.6241 7.85559 10.7891 7.78959 10.7561 7.74559Z" fill="black"/>
<path d="M10.3837 7.81251C10.2407 7.73551 10.3287 7.62552 10.3837 7.60352C10.3617 7.62552 10.2737 7.73551 10.3837 7.81251ZM10.9997 8.47251C10.9337 8.47251 10.9117 8.45051 10.8237 8.45051C10.7357 8.45051 10.5267 8.5715 10.4057 8.52751C10.6587 8.6265 10.5597 8.5605 10.9997 8.5605H11.0547M10.3617 8.6265C10.4057 8.5495 10.3947 8.5715 10.4827 8.45051C10.3947 8.51651 10.3727 8.5495 10.3617 8.6265ZM10.9997 8.7365C10.7247 8.7365 10.7687 8.6815 10.4057 8.52751C10.6697 8.5605 10.7247 8.6485 10.9997 8.6485H11.0547M10.9997 8.32951C10.9227 8.32951 10.9007 8.27451 10.8127 8.27451C10.7247 8.27451 10.6037 8.30751 10.5487 8.35151C10.5377 8.36251 10.5817 8.26351 10.6697 8.25251C10.7577 8.24151 10.7247 8.09851 10.8237 8.07651C10.8237 8.12051 10.7907 8.10951 10.7797 8.17551C10.7797 8.23051 10.8787 8.23051 10.9007 8.17551C10.8787 8.26351 10.9447 8.26351 10.9997 8.26351" fill="black"/>
<path d="M11 8.83398C10.945 8.83398 10.802 8.86698 11 8.86698C11.198 8.86698 11.055 8.83398 11 8.83398Z" fill="black"/>
</g>
</g>
<defs>
<filter id="filter0_d_336_32774" x="0" y="-2" width="36" height="36" filterUnits="userSpaceOnUse" color-interpolation-filters="sRGB">
<feFlood flood-opacity="0" result="BackgroundImageFix"/>
<feColorMatrix in="SourceAlpha" type="matrix" values="0 0 0 0 0 0 0 0 0 0 0 0 0 0 0 0 0 0 127 0" result="hardAlpha"/>
<feOffset dy="4"/>
<feGaussianBlur stdDeviation="3"/>
<feComposite in2="hardAlpha" operator="out"/>
<feColorMatrix type="matrix" values="0 0 0 0 0 0 0 0 0 0 0 0 0 0 0 0 0 0 0.16 0"/>
<feBlend mode="normal" in2="BackgroundImageFix" result="effect1_dropShadow_336_32774"/>
<feBlend mode="normal" in="SourceGraphic" in2="effect1_dropShadow_336_32774" result="shape"/>
</filter>
<clipPath id="clip0_336_32774">
<rect width="24" height="18" fill="white" transform="translate(6 3)"/>
</clipPath>
</defs>
</svg>
