<svg width="36" height="31" viewBox="0 0 36 31" fill="none" xmlns="http://www.w3.org/2000/svg">
<g filter="url(#filter0_d_336_27804)">
<g clip-path="url(#clip0_336_27804)">
<path fill-rule="evenodd" clip-rule="evenodd" d="M2.25 3H33.75V21H2.25V3Z" fill="white"/>
<path fill-rule="evenodd" clip-rule="evenodd" d="M2.25 15.0859H33.75V20.9992H2.25V15.0859Z" fill="#DA0000"/>
<path fill-rule="evenodd" clip-rule="evenodd" d="M8.24219 15.3398H9.96484V15.4559H8.24219V15.3398ZM8.49883 15.9305H8.61836V16.0465H8.49883V15.9305ZM9.97188 15.9305V16.0465H9.62734V15.927L9.97188 15.9305ZM10.1547 15.3398H10.2742V16.043H10.1547V15.3398Z" fill="white"/>
<path fill-rule="evenodd" clip-rule="evenodd" d="M10.8449 15.9262V16.0457H10.191V15.9262H10.8449ZM9.62852 15.6484H9.74102V16.0457H9.625L9.62852 15.6484Z" fill="white"/>
<path fill-rule="evenodd" clip-rule="evenodd" d="M10.7453 15.3398H10.8648V16.043H10.7453V15.3398ZM10.45 15.3398H10.566V16.043H10.45V15.3398ZM8.875 15.6211V15.7406H8.24219V15.6211H8.875ZM10.2566 15.6211V15.7406H9.62383V15.6211H10.2566Z" fill="white"/>
<path fill-rule="evenodd" clip-rule="evenodd" d="M9.62852 15.6523H9.74102V16.0426H9.625L9.62852 15.6523Z" fill="white"/>
<path fill-rule="evenodd" clip-rule="evenodd" d="M9.62852 15.6523H9.74102V16.0426H9.625L9.62852 15.6523Z" fill="white"/>
<path fill-rule="evenodd" clip-rule="evenodd" d="M9.62773 15.6523H9.74023V16.0426H9.62422L9.62773 15.6523ZM8.24609 15.6523H8.36211V16.0426H8.24609V15.6523ZM9.25859 15.6523H9.37813V16.0426H9.25859V15.6523ZM8.75586 15.6523H8.87539V16.0426H8.75586V15.6523Z" fill="white"/>
<path fill-rule="evenodd" clip-rule="evenodd" d="M9.33945 15.927V16.0465H8.80859V15.927H9.33945ZM9.37461 15.6211V15.7406H9.03711V15.6211H9.37461Z" fill="white"/>
<path fill-rule="evenodd" clip-rule="evenodd" d="M5.40625 15.3398H7.12891V15.4559H5.40625V15.3398ZM5.66289 15.9305H5.78242V16.0465H5.65937L5.66289 15.9305ZM7.13594 15.9305V16.0465H6.79141V15.927L7.13594 15.9305ZM7.31875 15.3398H7.43828V16.043H7.31875V15.3398Z" fill="white"/>
<path fill-rule="evenodd" clip-rule="evenodd" d="M8.00937 15.9262V16.0457H7.35547V15.9262H8.00937ZM6.79297 15.6484H6.90898V16.0457H6.79297V15.6484Z" fill="white"/>
<path fill-rule="evenodd" clip-rule="evenodd" d="M7.90937 15.3398H8.02891V16.043H7.90937V15.3398ZM7.61406 15.3398H7.73008V16.043H7.61406V15.3398ZM6.03906 15.6211V15.7406H5.40625V15.6211H6.03906ZM7.4207 15.6211V15.7406H6.78789V15.6211H7.4207Z" fill="white"/>
<path fill-rule="evenodd" clip-rule="evenodd" d="M6.79297 15.6523H6.90898V16.0426H6.79297V15.6523Z" fill="white"/>
<path fill-rule="evenodd" clip-rule="evenodd" d="M6.79297 15.6523H6.90898V16.0426H6.79297V15.6523Z" fill="white"/>
<path fill-rule="evenodd" clip-rule="evenodd" d="M6.7918 15.6523H6.90781V16.0426H6.7918V15.6523ZM5.41016 15.6523H5.52617V16.0426H5.41016V15.6523ZM6.42266 15.6523H6.53867V16.0426H6.42266V15.6523ZM5.91992 15.6523H6.03945V16.0426H5.91992V15.6523Z" fill="white"/>
<path fill-rule="evenodd" clip-rule="evenodd" d="M6.50391 15.927V16.0465H5.97656V15.927H6.50391ZM6.53906 15.6211V15.7406H6.20156V15.6211H6.53906Z" fill="white"/>
<path fill-rule="evenodd" clip-rule="evenodd" d="M11.0508 15.3398H12.7734V15.4559H11.0508V15.3398ZM11.3074 15.9305H11.427V16.0465H11.3074V15.9305ZM12.7805 15.9305V16.0465H12.4359V15.927L12.7805 15.9305ZM12.9668 15.3398H13.0863V16.043H12.9668V15.3398Z" fill="white"/>
<path fill-rule="evenodd" clip-rule="evenodd" d="M13.6539 15.9262V16.0457H13V15.9262H13.6539ZM12.4375 15.6484H12.557V16.0457H12.4375V15.6484Z" fill="white"/>
<path fill-rule="evenodd" clip-rule="evenodd" d="M13.5539 15.3398H13.6734V16.043H13.5539V15.3398ZM13.2586 15.3398H13.3781V16.043H13.2551L13.2586 15.3398ZM11.6836 15.6211V15.7406H11.0508V15.6211H11.6836ZM13.0652 15.6211V15.7406H12.4324V15.6211H13.0652Z" fill="white"/>
<path fill-rule="evenodd" clip-rule="evenodd" d="M12.4375 15.6523H12.557V16.0426H12.4375V15.6523Z" fill="white"/>
<path fill-rule="evenodd" clip-rule="evenodd" d="M12.4375 15.6523H12.557V16.0426H12.4375V15.6523Z" fill="white"/>
<path fill-rule="evenodd" clip-rule="evenodd" d="M12.4363 15.6523H12.5559V16.0426H12.4363V15.6523ZM11.0547 15.6523H11.1742V16.0426H11.0547V15.6523ZM12.0672 15.6523H12.1867V16.0426H12.0672V15.6523ZM11.5645 15.6523H11.684V16.0426H11.5645V15.6523Z" fill="white"/>
<path fill-rule="evenodd" clip-rule="evenodd" d="M12.1516 15.927V16.0465H11.6172V15.927H12.1516ZM12.1867 15.6211V15.7406H11.8492V15.6211H12.1867Z" fill="white"/>
<path fill-rule="evenodd" clip-rule="evenodd" d="M13.875 15.3398H15.6012V15.4559H13.8785L13.875 15.3398ZM14.1352 15.9305H14.2512V16.0465H14.1352V15.9305ZM15.6047 15.9305V16.0465H15.2602V15.927L15.6047 15.9305ZM15.791 15.3398H15.9105V16.043H15.791V15.3398Z" fill="white"/>
<path fill-rule="evenodd" clip-rule="evenodd" d="M16.4816 15.9262V16.0457H15.8277V15.9262H16.4816ZM15.2617 15.6484H15.3812V16.0457H15.2617V15.6484Z" fill="white"/>
<path fill-rule="evenodd" clip-rule="evenodd" d="M16.382 15.3398H16.5016V16.043H16.382V15.3398ZM16.0832 15.3398H16.2027V16.043H16.0832V15.3398ZM14.5082 15.6211V15.7406H13.8789V15.6211H14.5082ZM15.8898 15.6211V15.7406H15.2605V15.6211H15.8898Z" fill="white"/>
<path fill-rule="evenodd" clip-rule="evenodd" d="M15.2617 15.6523H15.3812V16.0426H15.2617V15.6523Z" fill="white"/>
<path fill-rule="evenodd" clip-rule="evenodd" d="M15.2617 15.6523H15.3812V16.0426H15.2617V15.6523Z" fill="white"/>
<path fill-rule="evenodd" clip-rule="evenodd" d="M15.2605 15.6523H15.3801V16.0426H15.2605V15.6523ZM13.8789 15.6523H13.9984V16.0426H13.8789V15.6523ZM14.8914 15.6523H15.0109V16.0426H14.8914V15.6523ZM14.3922 15.6523H14.5082V16.0426H14.3922V15.6523Z" fill="white"/>
<path fill-rule="evenodd" clip-rule="evenodd" d="M14.9762 15.927V16.0465H14.4453V15.927H14.9762ZM15.0113 15.6211V15.7406H14.6738V15.6211H15.0113Z" fill="white"/>
<path fill-rule="evenodd" clip-rule="evenodd" d="M16.7188 15.3398H18.4414V15.4559H16.7188V15.3398ZM16.9754 15.9305H17.0949V16.0465H16.9754V15.9305ZM18.4484 15.9305V16.0465H18.1039V15.927L18.4484 15.9305ZM18.6348 15.3398H18.7508V16.043H18.6348V15.3398Z" fill="white"/>
<path fill-rule="evenodd" clip-rule="evenodd" d="M19.3219 15.9262V16.0457H18.668V15.9262H19.3219ZM18.1055 15.6484H18.225V16.0457H18.1055V15.6484Z" fill="white"/>
<path fill-rule="evenodd" clip-rule="evenodd" d="M19.2219 15.3398H19.3414V16.043H19.2219V15.3398ZM18.9266 15.3398H19.0461V16.043H18.9266V15.3398ZM17.3516 15.6211V15.7406H16.7188V15.6211H17.3516ZM18.7332 15.6211V15.7406H18.1004V15.6211H18.7332Z" fill="white"/>
<path fill-rule="evenodd" clip-rule="evenodd" d="M18.1055 15.6523H18.225V16.0426H18.1055V15.6523Z" fill="white"/>
<path fill-rule="evenodd" clip-rule="evenodd" d="M18.1055 15.6523H18.225V16.0426H18.1055V15.6523Z" fill="white"/>
<path fill-rule="evenodd" clip-rule="evenodd" d="M18.1043 15.6523H18.2238V16.0426H18.1043V15.6523ZM16.7227 15.6523H16.8387V16.0426H16.7227V15.6523ZM17.7352 15.6523H17.8547V16.0426H17.7352V15.6523ZM17.2324 15.6523H17.352V16.0426H17.2289L17.2324 15.6523Z" fill="white"/>
<path fill-rule="evenodd" clip-rule="evenodd" d="M17.8195 15.927V16.0465H17.2852V15.927H17.8195ZM17.8547 15.6211V15.7406H17.5102V15.6211H17.8547Z" fill="white"/>
<path fill-rule="evenodd" clip-rule="evenodd" d="M2.25 3H33.75V8.91328H2.25V3Z" fill="#239F40"/>
<path fill-rule="evenodd" clip-rule="evenodd" d="M19.5703 15.3398H21.293V15.4559H19.5703V15.3398ZM19.827 15.9305H19.9465V16.0465H19.827V15.9305ZM21.3 15.9305V16.0465H20.952V15.927L21.3 15.9305ZM21.4863 15.3398H21.6023V16.043H21.4863V15.3398Z" fill="white"/>
<path fill-rule="evenodd" clip-rule="evenodd" d="M22.173 15.9262V16.0457H21.5191V15.9262H22.173ZM20.9566 15.6484H21.0762V16.0457H20.9531L20.9566 15.6484Z" fill="white"/>
<path fill-rule="evenodd" clip-rule="evenodd" d="M22.077 15.3398H22.193V16.043H22.077V15.3398ZM21.7781 15.3398H21.8977V16.043H21.7781V15.3398ZM20.2031 15.6211V15.7406H19.5703V15.6211H20.2031ZM21.5848 15.6211V15.7406H20.952V15.6211H21.5848Z" fill="white"/>
<path fill-rule="evenodd" clip-rule="evenodd" d="M20.9531 15.6523H21.0762V16.0426H20.9531V15.6523Z" fill="white"/>
<path fill-rule="evenodd" clip-rule="evenodd" d="M20.9531 15.6523H21.0762V16.0426H20.9531V15.6523Z" fill="white"/>
<path fill-rule="evenodd" clip-rule="evenodd" d="M20.9523 15.6523H21.0754V16.0426H20.9523V15.6523ZM19.5742 15.6523H19.6938V16.0426H19.5742V15.6523ZM20.5867 15.6523H20.7063V16.0426H20.5867V15.6523ZM20.084 15.6523H20.2035V16.0426H20.084V15.6523Z" fill="white"/>
<path fill-rule="evenodd" clip-rule="evenodd" d="M20.6711 15.927V16.0465H20.1367V15.927H20.6711ZM20.7063 15.6211V15.7406H20.3688V15.6211H20.7063Z" fill="white"/>
<path fill-rule="evenodd" clip-rule="evenodd" d="M22.4102 15.3398H24.1328V15.4559H22.4102V15.3398ZM22.6668 15.9305H22.7863V16.0465H22.6668V15.9305ZM24.1434 15.9305V16.0465H23.7953V15.927L24.1434 15.9305ZM24.3262 15.3398H24.4457V16.043H24.3262V15.3398Z" fill="white"/>
<path fill-rule="evenodd" clip-rule="evenodd" d="M25.0133 15.9262V16.0457H24.3594V15.9262H25.0133ZM23.7969 15.6484H23.9164V16.0457H23.7969V15.6484Z" fill="white"/>
<path fill-rule="evenodd" clip-rule="evenodd" d="M24.9172 15.3398H25.0332V16.043H24.9172V15.3398ZM24.6184 15.3398H24.7379V16.043H24.6184V15.3398ZM23.0434 15.6211V15.7406H22.4141V15.6211H23.0434ZM24.425 15.6211V15.7406H23.7957V15.6211H24.425Z" fill="white"/>
<path fill-rule="evenodd" clip-rule="evenodd" d="M23.7969 15.6523H23.9164V16.0426H23.7969V15.6523Z" fill="white"/>
<path fill-rule="evenodd" clip-rule="evenodd" d="M23.7969 15.6523H23.9164V16.0426H23.7969V15.6523Z" fill="white"/>
<path fill-rule="evenodd" clip-rule="evenodd" d="M23.7957 15.6523H23.9152V16.0426H23.7957V15.6523ZM22.4141 15.6523H22.5336V16.0426H22.4141V15.6523ZM23.4266 15.6523H23.5461V16.0426H23.4266V15.6523ZM22.9238 15.6523H23.0434V16.0426H22.9273L22.9238 15.6523Z" fill="white"/>
<path fill-rule="evenodd" clip-rule="evenodd" d="M23.5113 15.927V16.0465H22.9805V15.927H23.5113ZM23.5465 15.6211V15.7406H23.2055V15.6211H23.5465Z" fill="white"/>
<path fill-rule="evenodd" clip-rule="evenodd" d="M25.25 15.3398H26.9727V15.4559H25.25V15.3398ZM25.5066 15.9305H25.6262V16.0465H25.5066V15.9305ZM26.9797 15.9305V16.0465H26.6352V15.927L26.9797 15.9305ZM27.1625 15.3398H27.282V16.043H27.1625V15.3398Z" fill="white"/>
<path fill-rule="evenodd" clip-rule="evenodd" d="M27.8527 15.9262V16.0457H27.1988V15.9262H27.8527ZM26.6328 15.6484H26.7523V16.0457H26.6328V15.6484Z" fill="white"/>
<path fill-rule="evenodd" clip-rule="evenodd" d="M27.7531 15.3398H27.8727V16.043H27.7531V15.3398ZM27.4578 15.3398H27.5738V16.043H27.4578V15.3398ZM25.8828 15.6211V15.7406H25.25V15.6211H25.8828ZM27.2645 15.6211V15.7406H26.6316V15.6211H27.2645Z" fill="white"/>
<path fill-rule="evenodd" clip-rule="evenodd" d="M26.6367 15.6523H26.7527V16.0426H26.6367V15.6523Z" fill="white"/>
<path fill-rule="evenodd" clip-rule="evenodd" d="M26.6367 15.6523H26.7527V16.0426H26.6367V15.6523Z" fill="white"/>
<path fill-rule="evenodd" clip-rule="evenodd" d="M26.6352 15.6523H26.7512V16.0426H26.6352V15.6523ZM25.25 15.6523H25.3695V16.0426H25.25V15.6523ZM26.266 15.6523H26.382V16.0426H26.266V15.6523ZM25.7633 15.6523H25.8828V16.0426H25.7633V15.6523Z" fill="white"/>
<path fill-rule="evenodd" clip-rule="evenodd" d="M26.3473 15.927V16.0465H25.8164V15.927H26.3473ZM26.3824 15.6211V15.7406H26.0449V15.6211H26.3824Z" fill="white"/>
<path fill-rule="evenodd" clip-rule="evenodd" d="M28.1055 15.3398H29.8281V15.4559H28.1055V15.3398ZM28.3621 15.9305H28.4816V16.0465H28.3621V15.9305ZM29.8352 15.9305V16.0465H29.4906V15.927L29.8352 15.9305ZM30.018 15.3398H30.1375V16.043H30.018V15.3398Z" fill="white"/>
<path fill-rule="evenodd" clip-rule="evenodd" d="M30.7086 15.9262V16.0457H30.0547V15.9262H30.7086ZM29.4922 15.6484H29.6082V16.0457H29.4922V15.6484Z" fill="white"/>
<path fill-rule="evenodd" clip-rule="evenodd" d="M30.6086 15.3398H30.7281V16.043H30.6086V15.3398ZM30.3133 15.3398H30.4293V16.043H30.3133V15.3398ZM28.7383 15.6211V15.7406H28.1055V15.6211H28.7383ZM30.1199 15.6211V15.7406H29.4871V15.6211H30.1199Z" fill="white"/>
<path fill-rule="evenodd" clip-rule="evenodd" d="M29.4922 15.6523H29.6082V16.0426H29.4922V15.6523Z" fill="white"/>
<path fill-rule="evenodd" clip-rule="evenodd" d="M29.4922 15.6523H29.6082V16.0426H29.4922V15.6523Z" fill="white"/>
<path fill-rule="evenodd" clip-rule="evenodd" d="M29.491 15.6523H29.607V16.0426H29.491V15.6523ZM28.1094 15.6523H28.2254V16.0426H28.1094V15.6523ZM29.1219 15.6523H29.2414V16.0426H29.1219V15.6523ZM28.6191 15.6523H28.7387V16.0426H28.6191V15.6523Z" fill="white"/>
<path fill-rule="evenodd" clip-rule="evenodd" d="M29.2027 15.927V16.0465H28.6719V15.927H29.2027ZM29.2379 15.6211V15.7406H28.9004V15.6211H29.2379Z" fill="white"/>
<path fill-rule="evenodd" clip-rule="evenodd" d="M8.24219 8.04102H9.96484V8.16055H8.24219V8.04102ZM8.49883 8.63867H8.61836V8.75117H8.49883V8.63867ZM9.97188 8.63164V8.75117H9.62734V8.63164H9.97188ZM10.1547 8.04102H10.2742V8.75117H10.1547V8.04102Z" fill="white"/>
<path fill-rule="evenodd" clip-rule="evenodd" d="M10.8449 8.63125V8.75078H10.191V8.63125H10.8449ZM9.62852 8.35352H9.74102V8.75078H9.625L9.62852 8.35352Z" fill="white"/>
<path fill-rule="evenodd" clip-rule="evenodd" d="M10.7453 8.04102H10.8648V8.75117H10.7453V8.04102ZM10.45 8.04102H10.566V8.75117H10.45V8.04102ZM8.875 8.32227V8.4418H8.24219V8.32578L8.875 8.32227ZM10.2566 8.32227V8.4418H9.62383V8.32578L10.2566 8.32227Z" fill="white"/>
<path fill-rule="evenodd" clip-rule="evenodd" d="M9.62852 8.35352H9.74102V8.75078H9.625L9.62852 8.35352Z" fill="white"/>
<path fill-rule="evenodd" clip-rule="evenodd" d="M9.62852 8.35352H9.74102V8.75078H9.625L9.62852 8.35352Z" fill="white"/>
<path fill-rule="evenodd" clip-rule="evenodd" d="M9.62773 8.35352H9.74023V8.75078H9.62422L9.62773 8.35352ZM8.24609 8.35352H8.36211V8.75078H8.24609V8.35352ZM9.25859 8.35352H9.37813V8.75078H9.25859V8.35352ZM8.75586 8.35352H8.87539V8.75078H8.75586V8.35352Z" fill="white"/>
<path fill-rule="evenodd" clip-rule="evenodd" d="M9.33945 8.63203V8.75156H8.80859V8.63203H9.33945ZM9.37461 8.32617V8.44219H9.03711V8.32617H9.37461Z" fill="white"/>
<path fill-rule="evenodd" clip-rule="evenodd" d="M5.40625 8.04102H7.12891V8.16055H5.40625V8.04102ZM5.66289 8.63867H5.78242V8.75117H5.65937L5.66289 8.63867ZM7.13594 8.63164V8.75117H6.79141V8.63164H7.13594ZM7.31875 8.04102H7.43828V8.75117H7.31875V8.04102Z" fill="white"/>
<path fill-rule="evenodd" clip-rule="evenodd" d="M8.00937 8.63125V8.75078H7.35547V8.63125H8.00937ZM6.79297 8.35352H6.90898V8.75078H6.79297V8.35352Z" fill="white"/>
<path fill-rule="evenodd" clip-rule="evenodd" d="M7.90937 8.04102H8.02891V8.75117H7.90937V8.04102ZM7.61406 8.04102H7.73008V8.75117H7.61406V8.04102ZM6.03906 8.32227V8.4418H5.40625V8.32578L6.03906 8.32227ZM7.4207 8.32227V8.4418H6.78789V8.32578L7.4207 8.32227Z" fill="white"/>
<path fill-rule="evenodd" clip-rule="evenodd" d="M6.79297 8.35352H6.90898V8.75078H6.79297V8.35352Z" fill="white"/>
<path fill-rule="evenodd" clip-rule="evenodd" d="M6.79297 8.35352H6.90898V8.75078H6.79297V8.35352Z" fill="white"/>
<path fill-rule="evenodd" clip-rule="evenodd" d="M6.7918 8.35352H6.90781V8.75078H6.7918V8.35352ZM5.41016 8.35352H5.52617V8.75078H5.41016V8.35352ZM6.42266 8.35352H6.53867V8.75078H6.42266V8.35352ZM5.91992 8.35352H6.03945V8.75078H5.91992V8.35352Z" fill="white"/>
<path fill-rule="evenodd" clip-rule="evenodd" d="M6.50391 8.63203V8.75156H5.97656V8.63203H6.50391ZM6.53906 8.32617V8.44219H6.20156V8.32617H6.53906Z" fill="white"/>
<path fill-rule="evenodd" clip-rule="evenodd" d="M11.0508 8.04102H12.7734V8.16055H11.0508V8.04102ZM11.3074 8.63867H11.427V8.75117H11.3074V8.63867ZM12.7805 8.63164V8.75117H12.4359V8.63164H12.7805ZM12.9668 8.04102H13.0863V8.75117H12.9668V8.04102Z" fill="white"/>
<path fill-rule="evenodd" clip-rule="evenodd" d="M13.6539 8.63125V8.75078H13V8.63125H13.6539ZM12.4375 8.35352H12.557V8.75078H12.4375V8.35352Z" fill="white"/>
<path fill-rule="evenodd" clip-rule="evenodd" d="M13.5539 8.04102H13.6734V8.75117H13.5539V8.04102ZM13.2586 8.04102H13.3781V8.75117H13.2551L13.2586 8.04102ZM11.6836 8.32227V8.4418H11.0508V8.32578L11.6836 8.32227ZM13.0652 8.32227V8.4418H12.4324V8.32578L13.0652 8.32227Z" fill="white"/>
<path fill-rule="evenodd" clip-rule="evenodd" d="M12.4375 8.35352H12.557V8.75078H12.4375V8.35352Z" fill="white"/>
<path fill-rule="evenodd" clip-rule="evenodd" d="M12.4375 8.35352H12.557V8.75078H12.4375V8.35352Z" fill="white"/>
<path fill-rule="evenodd" clip-rule="evenodd" d="M12.4363 8.35352H12.5559V8.75078H12.4363V8.35352ZM11.0547 8.35352H11.1742V8.75078H11.0547V8.35352ZM12.0672 8.35352H12.1867V8.75078H12.0672V8.35352ZM11.5645 8.35352H11.684V8.75078H11.5645V8.35352Z" fill="white"/>
<path fill-rule="evenodd" clip-rule="evenodd" d="M12.1516 8.63203V8.75156H11.6172V8.63203H12.1516ZM12.1867 8.32617V8.44219H11.8492V8.32617H12.1867Z" fill="white"/>
<path fill-rule="evenodd" clip-rule="evenodd" d="M13.875 8.04102H15.6012V8.16055H13.8785L13.875 8.04102ZM14.1352 8.63867H14.2512V8.75117H14.1352V8.63867ZM15.6047 8.63164V8.75117H15.2602V8.63164H15.6047ZM15.791 8.04102H15.9105V8.75117H15.791V8.04102Z" fill="white"/>
<path fill-rule="evenodd" clip-rule="evenodd" d="M16.4816 8.63125V8.75078H15.8277V8.63125H16.4816ZM15.2617 8.35352H15.3812V8.75078H15.2617V8.35352Z" fill="white"/>
<path fill-rule="evenodd" clip-rule="evenodd" d="M16.382 8.04102H16.5016V8.75117H16.382V8.04102ZM16.0832 8.04102H16.2027V8.75117H16.0832V8.04102ZM14.5082 8.32227V8.4418H13.8789V8.32578L14.5082 8.32227ZM15.8898 8.32227V8.4418H15.2605V8.32578L15.8898 8.32227Z" fill="white"/>
<path fill-rule="evenodd" clip-rule="evenodd" d="M15.2617 8.35352H15.3812V8.75078H15.2617V8.35352Z" fill="white"/>
<path fill-rule="evenodd" clip-rule="evenodd" d="M15.2617 8.35352H15.3812V8.75078H15.2617V8.35352Z" fill="white"/>
<path fill-rule="evenodd" clip-rule="evenodd" d="M15.2605 8.35352H15.3801V8.75078H15.2605V8.35352ZM13.8789 8.35352H13.9984V8.75078H13.8789V8.35352ZM14.8914 8.35352H15.0109V8.75078H14.8914V8.35352ZM14.3922 8.35352H14.5082V8.75078H14.3922V8.35352Z" fill="white"/>
<path fill-rule="evenodd" clip-rule="evenodd" d="M14.9762 8.63203V8.75156H14.4453V8.63203H14.9762ZM15.0113 8.32617V8.44219H14.6738V8.32617H15.0113Z" fill="white"/>
<path fill-rule="evenodd" clip-rule="evenodd" d="M16.7188 8.04102H18.4414V8.16055H16.7188V8.04102ZM16.9754 8.63867H17.0949V8.75117H16.9754V8.63867ZM18.4484 8.63164V8.75117H18.1039V8.63164H18.4484ZM18.6348 8.04102H18.7508V8.75117H18.6348V8.04102Z" fill="white"/>
<path fill-rule="evenodd" clip-rule="evenodd" d="M19.3219 8.63125V8.75078H18.668V8.63125H19.3219ZM18.1055 8.35352H18.225V8.75078H18.1055V8.35352Z" fill="white"/>
<path fill-rule="evenodd" clip-rule="evenodd" d="M19.2219 8.04102H19.3414V8.75117H19.2219V8.04102ZM18.9266 8.04102H19.0461V8.75117H18.9266V8.04102ZM17.3516 8.32227V8.4418H16.7188V8.32578L17.3516 8.32227ZM18.7332 8.32227V8.4418H18.1004V8.32578L18.7332 8.32227Z" fill="white"/>
<path fill-rule="evenodd" clip-rule="evenodd" d="M18.1055 8.35352H18.225V8.75078H18.1055V8.35352Z" fill="white"/>
<path fill-rule="evenodd" clip-rule="evenodd" d="M18.1055 8.35352H18.225V8.75078H18.1055V8.35352Z" fill="white"/>
<path fill-rule="evenodd" clip-rule="evenodd" d="M18.1043 8.35352H18.2238V8.75078H18.1043V8.35352ZM16.7227 8.35352H16.8387V8.75078H16.7227V8.35352ZM17.7352 8.35352H17.8547V8.75078H17.7352V8.35352ZM17.2324 8.35352H17.352V8.75078H17.2289L17.2324 8.35352Z" fill="white"/>
<path fill-rule="evenodd" clip-rule="evenodd" d="M17.8195 8.63203V8.75156H17.2852V8.63203H17.8195ZM17.8547 8.32617V8.44219H17.5102V8.32617H17.8547Z" fill="white"/>
<path fill-rule="evenodd" clip-rule="evenodd" d="M19.5703 8.04102H21.293V8.16055H19.5703V8.04102ZM19.827 8.63867H19.9465V8.75117H19.827V8.63867ZM21.3 8.63164V8.75117H20.952V8.63164H21.3ZM21.4863 8.04102H21.6023V8.75117H21.4863V8.04102Z" fill="white"/>
<path fill-rule="evenodd" clip-rule="evenodd" d="M22.173 8.63125V8.75078H21.5191V8.63125H22.173ZM20.9566 8.35352H21.0762V8.75078H20.9531L20.9566 8.35352Z" fill="white"/>
<path fill-rule="evenodd" clip-rule="evenodd" d="M22.077 8.04102H22.193V8.75117H22.077V8.04102ZM21.7781 8.04102H21.8977V8.75117H21.7781V8.04102ZM20.2031 8.32227V8.4418H19.5703V8.32578L20.2031 8.32227ZM21.5848 8.32227V8.4418H20.952V8.32578L21.5848 8.32227Z" fill="white"/>
<path fill-rule="evenodd" clip-rule="evenodd" d="M20.9531 8.35352H21.0762V8.75078H20.9531V8.35352Z" fill="white"/>
<path fill-rule="evenodd" clip-rule="evenodd" d="M20.9531 8.35352H21.0762V8.75078H20.9531V8.35352Z" fill="white"/>
<path fill-rule="evenodd" clip-rule="evenodd" d="M20.9523 8.35352H21.0754V8.75078H20.9523V8.35352ZM19.5742 8.35352H19.6938V8.75078H19.5742V8.35352ZM20.5867 8.35352H20.7063V8.75078H20.5867V8.35352ZM20.084 8.35352H20.2035V8.75078H20.084V8.35352Z" fill="white"/>
<path fill-rule="evenodd" clip-rule="evenodd" d="M20.6711 8.63203V8.75156H20.1367V8.63203H20.6711ZM20.7063 8.32617V8.44219H20.3688V8.32617H20.7063Z" fill="white"/>
<path fill-rule="evenodd" clip-rule="evenodd" d="M22.4102 8.04102H24.1328V8.16055H22.4102V8.04102ZM22.6668 8.63867H22.7863V8.75117H22.6668V8.63867ZM24.1434 8.63164V8.75117H23.7953V8.63164H24.1434ZM24.3262 8.04102H24.4457V8.75117H24.3262V8.04102Z" fill="white"/>
<path fill-rule="evenodd" clip-rule="evenodd" d="M25.0133 8.63125V8.75078H24.3594V8.63125H25.0133ZM23.7969 8.35352H23.9164V8.75078H23.7969V8.35352Z" fill="white"/>
<path fill-rule="evenodd" clip-rule="evenodd" d="M24.9172 8.04102H25.0332V8.75117H24.9172V8.04102ZM24.6184 8.04102H24.7379V8.75117H24.6184V8.04102ZM23.0434 8.32227V8.4418H22.4141V8.32578L23.0434 8.32227ZM24.425 8.32227V8.4418H23.7957V8.32578L24.425 8.32227Z" fill="white"/>
<path fill-rule="evenodd" clip-rule="evenodd" d="M23.7969 8.35352H23.9164V8.75078H23.7969V8.35352Z" fill="white"/>
<path fill-rule="evenodd" clip-rule="evenodd" d="M23.7969 8.35352H23.9164V8.75078H23.7969V8.35352Z" fill="white"/>
<path fill-rule="evenodd" clip-rule="evenodd" d="M23.7957 8.35352H23.9152V8.75078H23.7957V8.35352ZM22.4141 8.35352H22.5336V8.75078H22.4141V8.35352ZM23.4266 8.35352H23.5461V8.75078H23.4266V8.35352ZM22.9238 8.35352H23.0434V8.75078H22.9273L22.9238 8.35352Z" fill="white"/>
<path fill-rule="evenodd" clip-rule="evenodd" d="M23.5113 8.63203V8.75156H22.9805V8.63203H23.5113ZM23.5465 8.32617V8.44219H23.2055V8.32617H23.5465Z" fill="white"/>
<path fill-rule="evenodd" clip-rule="evenodd" d="M25.25 8.04102H26.9727V8.16055H25.25V8.04102ZM25.5066 8.63867H25.6262V8.75117H25.5066V8.63867ZM26.9797 8.63164V8.75117H26.6352V8.63164H26.9797ZM27.1625 8.04102H27.282V8.75117H27.1625V8.04102Z" fill="white"/>
<path fill-rule="evenodd" clip-rule="evenodd" d="M27.8527 8.63125V8.75078H27.1988V8.63125H27.8527ZM26.6328 8.35352H26.7523V8.75078H26.6328V8.35352Z" fill="white"/>
<path fill-rule="evenodd" clip-rule="evenodd" d="M27.7531 8.04102H27.8727V8.75117H27.7531V8.04102ZM27.4578 8.04102H27.5738V8.75117H27.4578V8.04102ZM25.8828 8.32227V8.4418H25.25V8.32578L25.8828 8.32227ZM27.2645 8.32227V8.4418H26.6316V8.32578L27.2645 8.32227Z" fill="white"/>
<path fill-rule="evenodd" clip-rule="evenodd" d="M26.6367 8.35352H26.7527V8.75078H26.6367V8.35352Z" fill="white"/>
<path fill-rule="evenodd" clip-rule="evenodd" d="M26.6367 8.35352H26.7527V8.75078H26.6367V8.35352Z" fill="white"/>
<path fill-rule="evenodd" clip-rule="evenodd" d="M26.6352 8.35352H26.7512V8.75078H26.6352V8.35352ZM25.25 8.35352H25.3695V8.75078H25.25V8.35352ZM26.266 8.35352H26.382V8.75078H26.266V8.35352ZM25.7633 8.35352H25.8828V8.75078H25.7633V8.35352Z" fill="white"/>
<path fill-rule="evenodd" clip-rule="evenodd" d="M26.3473 8.63203V8.75156H25.8164V8.63203H26.3473ZM26.3824 8.32617V8.44219H26.0449V8.32617H26.3824Z" fill="white"/>
<path fill-rule="evenodd" clip-rule="evenodd" d="M28.1055 8.04102H29.8281V8.16055H28.1055V8.04102ZM28.3621 8.63867H28.4816V8.75117H28.3621V8.63867ZM29.8352 8.63164V8.75117H29.4906V8.63164H29.8352ZM30.018 8.04102H30.1375V8.75117H30.018V8.04102Z" fill="white"/>
<path fill-rule="evenodd" clip-rule="evenodd" d="M30.7086 8.63125V8.75078H30.0547V8.63125H30.7086ZM29.4922 8.35352H29.6082V8.75078H29.4922V8.35352Z" fill="white"/>
<path fill-rule="evenodd" clip-rule="evenodd" d="M30.6086 8.04102H30.7281V8.75117H30.6086V8.04102ZM30.3133 8.04102H30.4293V8.75117H30.3133V8.04102ZM28.7383 8.32227V8.4418H28.1055V8.32578L28.7383 8.32227ZM30.1199 8.32227V8.4418H29.4871V8.32578L30.1199 8.32227Z" fill="white"/>
<path fill-rule="evenodd" clip-rule="evenodd" d="M29.4922 8.35352H29.6082V8.75078H29.4922V8.35352Z" fill="white"/>
<path fill-rule="evenodd" clip-rule="evenodd" d="M29.4922 8.35352H29.6082V8.75078H29.4922V8.35352Z" fill="white"/>
<path fill-rule="evenodd" clip-rule="evenodd" d="M29.491 8.35352H29.607V8.75078H29.491V8.35352ZM28.1094 8.35352H28.2254V8.75078H28.1094V8.35352ZM29.1219 8.35352H29.2414V8.75078H29.1219V8.35352ZM28.6191 8.35352H28.7387V8.75078H28.6191V8.35352Z" fill="white"/>
<path fill-rule="evenodd" clip-rule="evenodd" d="M29.2027 8.63203V8.75156H28.6719V8.63203H29.2027ZM29.2379 8.32617V8.44219H28.9004V8.32617H29.2379Z" fill="white"/>
<path fill-rule="evenodd" clip-rule="evenodd" d="M6.58125 14.9355H6.79219V15.3047H6.58125V14.9355ZM12.2238 14.9355H12.4348V15.3047H12.2238V14.9355ZM2.25 14.9355H2.46094V15.3047H2.25V14.9355ZM5.11523 14.9355H5.32617V15.3047H5.11523V14.9355ZM7.95937 14.9355H8.17031V15.3047H7.95937V14.9355ZM9.36562 14.9355H9.57656V15.3047H9.36562V14.9355ZM10.8035 14.9355H11.0145V15.3047H10.8035V14.9355ZM13.6301 14.9355H13.841V15.3047H13.6301V14.9355ZM20.7668 14.9355H20.9812V15.3047H20.7703L20.7668 14.9355ZM15.068 14.9355H15.2789V15.3047H15.068V14.9355ZM16.4742 14.9355H16.6852V15.3047H16.4742V14.9355ZM17.898 14.9355H18.109V15.3047H17.898V14.9355ZM19.3184 14.9355H19.5293V15.3047H19.3184V14.9355ZM30.6809 14.9355H30.8918V15.3047H30.6809V14.9355ZM22.1484 14.9355H22.3594V15.3047H22.1484V14.9355ZM23.5828 14.9355H23.7937V15.3047H23.5828V14.9355ZM25.0348 14.9355H25.2457V15.3047H25.0348V14.9355ZM26.3988 14.9355H26.6098V15.3047H26.3988V14.9355ZM27.8508 14.9355H28.0617V15.3047H27.8508V14.9355ZM29.2711 14.9355H29.482V15.3047H29.2711V14.9355ZM33.4793 14.9355H33.6902V15.3047H33.4793V14.9355ZM32.1152 14.9355H32.3262V15.3047H32.1152V14.9355ZM3.67734 14.9355H3.88828V15.3047H3.67734V14.9355Z" fill="#D90000"/>
<path fill-rule="evenodd" clip-rule="evenodd" d="M6.58125 8.7168H6.79219V9.08594H6.58125V8.7168ZM12.2238 8.7168H12.4348V9.08594H12.2238V8.7168ZM2.25 8.7168H2.46094V9.08594H2.25V8.7168ZM5.11523 8.7168H5.32617V9.08594H5.11523V8.7168ZM7.95937 8.7168H8.17031V9.08594H7.95937V8.7168ZM9.36562 8.7168H9.57656V9.08594H9.36562V8.7168ZM10.8035 8.7168H11.0145V9.08594H10.8035V8.7168ZM13.6301 8.7168H13.841V9.08594H13.6301V8.7168ZM20.7668 8.7168H20.9812V9.08594H20.7703L20.7668 8.7168ZM15.068 8.7168H15.2789V9.08594H15.068V8.7168ZM16.4742 8.7168H16.6852V9.08594H16.4742V8.7168ZM17.898 8.7168H18.109V9.08594H17.898V8.7168ZM19.3184 8.7168H19.5293V9.08594H19.3184V8.7168ZM30.6809 8.7168H30.8918V9.08594H30.6809V8.7168ZM22.1484 8.7168H22.3594V9.08594H22.1484V8.7168ZM23.5828 8.7168H23.7937V9.08594H23.5828V8.7168ZM25.0348 8.7168H25.2457V9.08594H25.0348V8.7168ZM26.3988 8.7168H26.6098V9.08594H26.3988V8.7168ZM27.8508 8.7168H28.0617V9.08594H27.8508V8.7168ZM29.2711 8.7168H29.482V9.08594H29.2711V8.7168ZM33.4793 8.7168H33.6902V9.08594H33.4793V8.7168ZM32.1152 8.7168H32.3262V9.08594H32.1152V8.7168ZM3.67734 8.7168H3.88828V9.08594H3.67734V8.7168Z" fill="#239E3F"/>
<path fill-rule="evenodd" clip-rule="evenodd" d="M18.8371 9.94336C19.1324 10.309 20.05 12.3199 18.2852 13.6418C17.452 14.2676 17.9688 14.2957 17.9934 14.4012C19.3293 13.6945 19.7617 12.7312 19.7512 11.8699C19.7442 11.0121 19.2871 10.2527 18.8371 9.94336Z" fill="#DA0000"/>
<path fill-rule="evenodd" clip-rule="evenodd" d="M19.0136 9.84766C19.3398 10.0461 19.6178 10.3146 19.8275 10.6337C20.0372 10.9528 20.1734 11.3145 20.2262 11.6926C20.279 12.0708 20.2472 12.4559 20.1329 12.8202C20.0186 13.1846 19.8248 13.519 19.5655 13.7992C20.5218 13.5883 21.7452 10.7617 19.0136 9.84766V9.84766ZM16.9886 9.84766C16.6627 10.0464 16.385 10.3151 16.1756 10.6344C15.9662 10.9536 15.8304 11.3153 15.7779 11.6935C15.7254 12.0716 15.7576 12.4567 15.8721 12.8208C15.9867 13.185 16.1807 13.5192 16.4401 13.7992C15.4804 13.5883 14.2605 10.7617 16.9886 9.84766V9.84766Z" fill="#DA0000"/>
<path fill-rule="evenodd" clip-rule="evenodd" d="M17.1643 9.94336C16.8689 10.309 15.9514 12.3199 17.7162 13.6418C18.5459 14.2676 18.0326 14.2957 18.008 14.4012C16.6721 13.6945 16.2396 12.7312 16.2502 11.8699C16.2572 11.0121 16.7143 10.2527 17.1643 9.94336Z" fill="#DA0000"/>
<path fill-rule="evenodd" clip-rule="evenodd" d="M19.6953 14.218C19.1715 14.225 18.5141 14.1477 18.0254 13.891C18.1063 14.0492 18.173 14.1477 18.2539 14.3023C18.718 14.348 19.3613 14.4008 19.6953 14.218ZM16.3555 14.218C16.8793 14.225 17.5367 14.1477 18.0254 13.891C17.9445 14.0492 17.8777 14.1477 17.7969 14.3023C17.3328 14.348 16.6895 14.4008 16.3555 14.218ZM17.3152 9.3418C17.4207 9.62305 17.6984 9.66523 17.9938 9.5C18.2117 9.62656 18.5457 9.63711 18.6617 9.35586C18.7496 10.052 18.0184 9.8832 17.9938 9.74961C17.7195 10.0133 17.2133 9.86211 17.3152 9.3418Z" fill="#DA0000"/>
<path fill-rule="evenodd" clip-rule="evenodd" d="M18.0168 14.657L18.291 14.3406L18.3297 10.1184L18.0027 9.83008L17.6758 10.1043L17.7426 14.3582L18.0168 14.657Z" fill="#DA0000"/>
</g>
</g>
<defs>
<filter id="filter0_d_336_27804" x="0" y="-2" width="36" height="36" filterUnits="userSpaceOnUse" color-interpolation-filters="sRGB">
<feFlood flood-opacity="0" result="BackgroundImageFix"/>
<feColorMatrix in="SourceAlpha" type="matrix" values="0 0 0 0 0 0 0 0 0 0 0 0 0 0 0 0 0 0 127 0" result="hardAlpha"/>
<feOffset dy="4"/>
<feGaussianBlur stdDeviation="3"/>
<feComposite in2="hardAlpha" operator="out"/>
<feColorMatrix type="matrix" values="0 0 0 0 0 0 0 0 0 0 0 0 0 0 0 0 0 0 0.16 0"/>
<feBlend mode="normal" in2="BackgroundImageFix" result="effect1_dropShadow_336_27804"/>
<feBlend mode="normal" in="SourceGraphic" in2="effect1_dropShadow_336_27804" result="shape"/>
</filter>
<clipPath id="clip0_336_27804">
<rect width="24" height="18" fill="white" transform="translate(6 3)"/>
</clipPath>
</defs>
</svg>
