<svg width="36" height="32" viewBox="0 0 36 32" fill="none" xmlns="http://www.w3.org/2000/svg">
<g filter="url(#filter0_d_336_15411)">
<g clip-path="url(#clip0_336_15411)">
<path fill-rule="evenodd" clip-rule="evenodd" d="M4.58203 3H31.4168V21.0955H4.58203V3Z" fill="white"/>
<path fill-rule="evenodd" clip-rule="evenodd" d="M4.64023 3.02148H31.3906V10.6665H4.63672L4.64023 3.02148Z" fill="black"/>
<path fill-rule="evenodd" clip-rule="evenodd" d="M9.55078 10.1895H27.3047V14.2154H9.55078V10.1895Z" fill="#0061FF"/>
<path fill-rule="evenodd" clip-rule="evenodd" d="M31.4004 3.06408V21.1136H18.0129L31.4004 3.06055V3.06408ZM4.62891 3.06408V21.1136H18.0129L4.62891 3.06055V3.06408Z" fill="#E20000"/>
<path fill-rule="evenodd" clip-rule="evenodd" d="M24.2836 10.1914L21.5977 9.50859L23.8793 7.7751L21.0773 8.1784L22.5188 5.71967L20.0332 7.17014L20.4832 4.30811L18.7992 6.56519L18.1207 3.94727L17.3578 6.64656L15.6773 4.34703L16.159 7.29043L13.6699 5.75859L15.1113 8.21731L12.3902 7.7751L14.6332 9.46613L11.8242 10.1914H24.2801H24.2836Z" fill="#FFD600"/>
</g>
</g>
<defs>
<filter id="filter0_d_336_15411" x="0" y="-2" width="36" height="36" filterUnits="userSpaceOnUse" color-interpolation-filters="sRGB">
<feFlood flood-opacity="0" result="BackgroundImageFix"/>
<feColorMatrix in="SourceAlpha" type="matrix" values="0 0 0 0 0 0 0 0 0 0 0 0 0 0 0 0 0 0 127 0" result="hardAlpha"/>
<feOffset dy="4"/>
<feGaussianBlur stdDeviation="3"/>
<feComposite in2="hardAlpha" operator="out"/>
<feColorMatrix type="matrix" values="0 0 0 0 0 0 0 0 0 0 0 0 0 0 0 0 0 0 0.16 0"/>
<feBlend mode="normal" in2="BackgroundImageFix" result="effect1_dropShadow_336_15411"/>
<feBlend mode="normal" in="SourceGraphic" in2="effect1_dropShadow_336_15411" result="shape"/>
</filter>
<clipPath id="clip0_336_15411">
<rect width="24" height="18.1132" fill="white" transform="translate(6 3)"/>
</clipPath>
</defs>
</svg>
