<svg width="36" height="31" viewBox="0 0 36 31" fill="none" xmlns="http://www.w3.org/2000/svg">
<g filter="url(#filter0_d_336_30735)">
<g clip-path="url(#clip0_336_30735)">
<path fill-rule="evenodd" clip-rule="evenodd" d="M5.99961 17.3361V6.66992L13.9412 12.003L5.99609 17.3361H5.99961Z" fill="black"/>
<path fill-rule="evenodd" clip-rule="evenodd" d="M11.418 21.0034L20.3334 15.0059H32.9964V20.9999H11.418V21.0034Z" fill="#000C8A"/>
<path fill-rule="evenodd" clip-rule="evenodd" d="M10.8477 3.00044H32.9956V9.005H20.3291C20.3291 9.005 10.9637 2.94067 10.8477 3.00044Z" fill="#E1392D"/>
<path fill-rule="evenodd" clip-rule="evenodd" d="M5.99961 5.25V6.67028L13.9412 11.9999L5.99609 17.3365V18.7532L15.9978 12.0034L5.99609 5.25H5.99961Z" fill="#FFB915"/>
<path fill-rule="evenodd" clip-rule="evenodd" d="M6 5.24995V3H9.33977L19.9286 10.1717H32.9994V13.8349H19.9286L9.33626 20.9996H6V18.7532L15.9982 12.0033L6.00352 5.24995H6Z" fill="#007847"/>
<path fill-rule="evenodd" clip-rule="evenodd" d="M9.33594 3H11.4171L20.3326 9.00104H32.9956V10.1717H19.9283L9.33594 3.00352V3ZM9.33594 21.0031H11.4171L20.3326 15.0056H32.9956V13.8384H19.9283L9.33594 20.9996V21.0031Z" fill="white"/>
</g>
</g>
<defs>
<filter id="filter0_d_336_30735" x="0" y="-2" width="36" height="36" filterUnits="userSpaceOnUse" color-interpolation-filters="sRGB">
<feFlood flood-opacity="0" result="BackgroundImageFix"/>
<feColorMatrix in="SourceAlpha" type="matrix" values="0 0 0 0 0 0 0 0 0 0 0 0 0 0 0 0 0 0 127 0" result="hardAlpha"/>
<feOffset dy="4"/>
<feGaussianBlur stdDeviation="3"/>
<feComposite in2="hardAlpha" operator="out"/>
<feColorMatrix type="matrix" values="0 0 0 0 0 0 0 0 0 0 0 0 0 0 0 0 0 0 0.16 0"/>
<feBlend mode="normal" in2="BackgroundImageFix" result="effect1_dropShadow_336_30735"/>
<feBlend mode="normal" in="SourceGraphic" in2="effect1_dropShadow_336_30735" result="shape"/>
</filter>
<clipPath id="clip0_336_30735">
<rect width="24" height="18" fill="white" transform="translate(6 3)"/>
</clipPath>
</defs>
</svg>
