<svg width="36" height="31" viewBox="0 0 36 31" fill="none" xmlns="http://www.w3.org/2000/svg">
<g filter="url(#filter0_d_336_26471)">
<g clip-path="url(#clip0_336_26471)">
<path d="M6 3H30V21H6V3Z" fill="#012169"/>
<path fill-rule="evenodd" clip-rule="evenodd" d="M6 3H21V10.5H6V3Z" fill="#012169"/>
<path fill-rule="evenodd" clip-rule="evenodd" d="M21.4848 14.5845C21.4636 14.5827 21.4423 14.5827 21.4211 14.5845C21.3086 14.607 21.1361 15.0083 21.0461 15.2445C20.8923 15.447 20.8136 15.6045 20.7536 15.7208C20.7273 15.7658 20.6898 15.8183 20.7011 15.8783C20.4761 15.9383 20.4648 16.1558 20.4648 16.2383C20.4648 16.332 20.4911 16.377 20.4911 16.377L20.6261 16.6583V16.662C20.7686 16.9995 20.9786 17.4458 21.1023 17.4795C21.2673 17.5358 21.7023 17.3558 22.0323 17.0408C22.6648 17.336 23.3424 17.4901 24.0273 17.4945C24.7923 17.4945 25.4786 17.2883 26.0148 17.0408C26.3448 17.3558 26.7798 17.5358 26.9523 17.4795C27.0648 17.442 27.2786 16.992 27.4248 16.662L27.5561 16.377C27.5561 16.377 27.5823 16.332 27.5823 16.242C27.5823 16.1595 27.5711 15.942 27.3461 15.882C27.3573 15.822 27.3236 15.7695 27.2973 15.7208C27.2336 15.6008 27.1548 15.4433 27.0086 15.2333C26.9111 15.0008 26.7386 14.607 26.6336 14.5883C26.4761 14.5583 26.1461 14.6445 26.1461 14.6783V14.6933L25.4823 15.3908C25.4823 15.4095 25.5161 15.9158 25.6436 16.3658C25.1225 16.5742 24.5729 16.6783 24.0198 16.6733C23.3823 16.6733 22.8386 16.5458 22.3998 16.362C22.4828 16.044 22.5368 15.7173 22.5611 15.387L21.9011 14.6933V14.6783C21.9011 14.652 21.6461 14.5845 21.4848 14.5845V14.5845ZM21.6498 15.447C21.7361 15.447 21.8223 15.5295 21.8936 15.612L21.8898 15.6608C21.8629 15.7909 21.8278 15.9187 21.7848 16.0433C21.6214 15.9374 21.4681 15.813 21.3273 15.672C21.3986 15.5858 21.5148 15.4695 21.6348 15.4545H21.6498V15.447ZM26.3973 15.447H26.4123C26.5361 15.4695 26.6486 15.5858 26.7236 15.672C26.5818 15.8146 26.4272 15.9403 26.2623 16.047C26.2192 15.9212 26.1841 15.7922 26.1573 15.6608C26.1543 15.6446 26.1518 15.6284 26.1498 15.612C26.2248 15.5258 26.3111 15.4508 26.3973 15.4508V15.447ZM21.0573 16.437C21.1473 16.512 21.2598 16.602 21.3986 16.692C21.3619 16.7194 21.3213 16.7397 21.2786 16.752C21.2186 16.767 21.1623 16.7633 21.1023 16.752C21.0792 16.6849 21.0666 16.6139 21.0648 16.542C21.0617 16.5071 21.0592 16.4721 21.0573 16.437V16.437ZM26.9898 16.437L26.9861 16.542C26.9838 16.6126 26.9711 16.6823 26.9486 16.7483C26.8978 16.762 26.845 16.7642 26.7934 16.7545C26.7419 16.7448 26.6926 16.7236 26.6486 16.692C26.7873 16.602 26.9036 16.512 26.9898 16.437Z" fill="url(#paint0_linear_336_26471)" stroke="white" stroke-width="0.828125"/>
<path fill-rule="evenodd" clip-rule="evenodd" d="M21.9823 15.7347C21.9823 15.7347 21.7536 15.3185 21.5661 15.3522C21.3748 15.3785 21.1911 15.6447 21.1836 15.6597C21.0775 15.5551 20.9831 15.4354 20.9023 15.3035C20.9136 15.2885 21.1948 14.5197 21.3523 14.486C21.5023 14.4522 21.8286 14.5422 21.8286 14.5722L21.9823 15.7347Z" fill="url(#paint1_linear_336_26471)" stroke="black" stroke-width="0.099375"/>
<path fill-rule="evenodd" clip-rule="evenodd" d="M22.4912 15.2893C22.4912 15.3193 22.4087 16.4218 22.0825 16.8043C21.76 17.1905 21.22 17.4268 21.025 17.3705C20.8375 17.3105 20.4062 16.1968 20.4062 16.1968C20.4062 16.1968 20.8637 16.7293 21.205 16.6393C21.5462 16.553 21.7525 15.8855 21.8162 15.5555C21.88 15.233 21.8275 14.5918 21.8275 14.5918L22.495 15.2893H22.4912Z" fill="url(#paint2_linear_336_26471)" stroke="black" stroke-width="0.099375"/>
<path fill-rule="evenodd" clip-rule="evenodd" d="M25.9844 15.7347C25.9844 15.7347 26.2169 15.3185 26.4044 15.3522C26.5919 15.3785 26.7719 15.6447 26.7869 15.6597C26.8929 15.5551 26.9874 15.4354 27.0681 15.3035C27.0531 15.2885 26.7719 14.5197 26.6181 14.486C26.4644 14.4522 26.1381 14.5422 26.1381 14.5722L25.9844 15.7347Z" fill="url(#paint3_linear_336_26471)" stroke="black" stroke-width="0.099375"/>
<path fill-rule="evenodd" clip-rule="evenodd" d="M25.4725 15.2893C25.4725 15.3193 25.555 16.4218 25.8812 16.8043C26.2075 17.1905 26.7438 17.4268 26.9388 17.3705C27.1263 17.3105 27.5612 16.1968 27.5612 16.1968C27.5612 16.1968 27.1 16.7293 26.7587 16.6393C26.4212 16.553 26.215 15.8855 26.1513 15.5555C26.0838 15.233 26.1362 14.5918 26.1362 14.5918L25.4688 15.2893H25.4725Z" fill="url(#paint4_linear_336_26471)" stroke="black" stroke-width="0.099375"/>
<path fill-rule="evenodd" clip-rule="evenodd" d="M21.0441 15.2324C20.8941 15.4387 20.8154 15.5999 20.7479 15.7199C20.6841 15.8399 20.7254 16.0087 20.8679 16.2449C21.0291 16.4962 22.3304 17.4974 24.0216 17.4974C25.7166 17.4974 27.0141 16.4999 27.1716 16.2449C27.3216 16.0049 27.3591 15.8399 27.2954 15.7199C27.2316 15.5999 27.1491 15.4387 26.9991 15.2324C26.9991 15.5437 25.9229 16.6762 24.0216 16.6762C22.1204 16.6762 21.0441 15.5437 21.0441 15.2324V15.2324Z" fill="url(#paint5_linear_336_26471)" stroke="black" stroke-width="0.124219"/>
<path fill-rule="evenodd" clip-rule="evenodd" d="M26.9136 17.2058L27.2061 16.6395L27.0599 16.5195C27.0224 16.662 26.8536 16.7108 26.8236 16.8945C26.7974 17.0708 26.9361 17.247 26.9136 17.2058Z" fill="url(#paint6_linear_336_26471)" stroke="black" stroke-width="0.099375"/>
<path fill-rule="evenodd" clip-rule="evenodd" d="M27.1817 17.0447C27.1817 17.0447 27.2342 16.7897 27.0692 16.7597C26.9042 16.7297 26.8142 16.9022 26.8404 16.8347C26.8629 16.7597 26.9604 16.6847 26.9792 16.4335C26.9904 16.1822 26.9642 16.0472 26.9642 16.0472C26.9642 16.0472 27.0317 15.721 27.2942 15.766C27.5642 15.8147 27.5754 16.051 27.5754 16.1372C27.5767 16.182 27.5691 16.2267 27.5529 16.2685L27.1817 17.0447Z" fill="url(#paint7_linear_336_26471)" stroke="black" stroke-width="0.099375"/>
<path d="M26.2213 16.1884L26.2775 16.2934L26.315 16.2709L26.2888 16.1959L26.2925 16.1846L26.3562 16.1396L26.5213 16.4659V16.4846L26.4838 16.5109L26.5025 16.5409L26.66 16.4284L26.645 16.3984L26.6075 16.4209H26.5963L26.4312 16.0909L26.4913 16.0459H26.5062L26.5437 16.1059L26.5812 16.0796L26.525 15.9746L26.225 16.1884H26.2213ZM25.8275 16.4396L25.8425 16.4696L25.8763 16.4546L25.8875 16.4584L26.0338 16.7921L26.03 16.8071L26 16.8296L26.0112 16.8596L26.165 16.7659L26.1538 16.7359L26.12 16.7509H26.105L26.0375 16.5896L26.1987 16.4996L26.2663 16.6496V16.6684L26.2288 16.6909L26.2437 16.7246L26.4013 16.6309L26.3862 16.6009L26.3525 16.6159L26.3413 16.6084L26.1987 16.2784V16.2634L26.2288 16.2409L26.2175 16.2109L26.0638 16.3046L26.075 16.3346L26.1125 16.3159L26.1237 16.3234L26.18 16.4584L26.0225 16.5521L25.9625 16.4134L25.97 16.3984L26 16.3796L25.985 16.3459L25.8275 16.4396ZM25.7375 16.7246L25.745 16.7546L25.79 16.7434L25.805 16.7471L25.8388 16.8859L25.8088 16.9009C25.715 16.9309 25.6438 16.8821 25.61 16.7621C25.58 16.6421 25.6175 16.5521 25.7038 16.5221C25.7209 16.5168 25.7387 16.5155 25.7562 16.5184L25.7675 16.5259L25.7975 16.5896L25.8425 16.5746L25.8163 16.4621C25.7675 16.4621 25.7225 16.4696 25.685 16.4846C25.55 16.5334 25.49 16.6534 25.5237 16.7921C25.5612 16.9309 25.67 16.9946 25.7937 16.9534C25.8397 16.9367 25.8829 16.9113 25.9213 16.8784L25.8763 16.7246L25.8838 16.7096L25.9175 16.6946L25.9062 16.6609L25.7375 16.7246ZM25.3737 17.1109L25.55 17.0471L25.5388 17.0134L25.5013 17.0209L25.49 17.0171L25.3925 16.6571L25.3963 16.6459L25.4338 16.6271L25.4263 16.5971L25.25 16.6571L25.2612 16.6909L25.2987 16.6796L25.3138 16.6871L25.4075 17.0434L25.4 17.0584L25.3625 17.0734L25.3737 17.1071V17.1109ZM24.4175 17.2834L24.7288 17.2534L24.7175 17.1259L24.68 17.1296L24.6725 17.2046L24.665 17.2159L24.5338 17.2309L24.5187 17.0471L24.5937 17.0396L24.605 17.0509L24.6125 17.0996H24.65L24.635 16.9346H24.5975V16.9871L24.59 17.0021L24.515 17.0059L24.5 16.8409L24.6163 16.8296L24.6238 16.8371L24.6388 16.9009L24.68 16.8971L24.6725 16.7846L24.38 16.8146V16.8484H24.4175L24.4288 16.8596L24.455 17.2309L24.4513 17.2421L24.4138 17.2496V17.2871L24.4175 17.2834ZM23.9525 16.8221V16.8596H23.99L23.9975 16.8709L24.0013 17.2421L23.9937 17.2534L23.96 17.2609V17.2909H24.125V17.2571H24.0875L24.08 17.2421V17.0621H24.245V17.2346L24.2375 17.2459L24.2038 17.2496V17.2871H24.3687V17.2496H24.3312L24.3275 17.2346L24.32 16.8596L24.3275 16.8484H24.365V16.8109H24.1963V16.8484L24.2338 16.8521L24.2413 16.8634V17.0134L24.08 17.0171L24.0725 16.8671L24.0838 16.8559H24.1175V16.8184L23.9525 16.8221ZM23.6 16.8109V16.9346H23.6375L23.6488 16.8596L23.6562 16.8484H23.7275V17.2309L23.7163 17.2459H23.6788V17.2834H23.8513V17.2496L23.8138 17.2459L23.8025 17.2309L23.8062 16.8559H23.8738L23.885 16.8634L23.8963 16.9384H23.9338V16.8146L23.6 16.8109ZM23.0638 17.2084L23.3638 17.2234L23.3713 17.0996H23.3338L23.3225 17.1709L23.315 17.1784L23.1838 17.1746L23.1913 16.9871L23.2625 16.9946L23.27 17.0059L23.2775 17.0584H23.3075L23.315 16.8971H23.2812L23.2738 16.9421L23.2663 16.9534H23.1913L23.1988 16.7809L23.3113 16.7884L23.3187 16.7959L23.3225 16.8596H23.3638V16.7509L23.0825 16.7359V16.7696L23.12 16.7771L23.1238 16.7884L23.1088 17.1596L23.1013 17.1709H23.0638V17.2046V17.2084ZM22.3663 17.0059L22.5312 17.0659L22.5388 17.0359L22.5013 17.0171V17.0021L22.595 16.6459L22.6062 16.6384L22.6437 16.6496L22.6513 16.6196L22.49 16.5559L22.4825 16.5896L22.5163 16.6046L22.5238 16.6196L22.4225 16.9721L22.415 16.9834L22.3775 16.9721L22.3663 17.0059ZM22.0812 16.8821C22.1103 16.9084 22.1433 16.9287 22.1788 16.9421C22.2688 16.9721 22.34 16.9346 22.3588 16.8596C22.3642 16.8393 22.3653 16.8178 22.3621 16.7969C22.3588 16.776 22.3512 16.7563 22.34 16.7396L22.2725 16.6646C22.25 16.6309 22.2425 16.6046 22.25 16.5709C22.2612 16.5371 22.2913 16.5184 22.3325 16.5334C22.3475 16.5409 22.3625 16.5484 22.37 16.5596V16.5709L22.3625 16.6459L22.4 16.6571L22.43 16.5521C22.4025 16.5246 22.3707 16.503 22.3363 16.4884C22.2613 16.4584 22.1938 16.4996 22.1713 16.5709C22.1669 16.5885 22.166 16.607 22.1686 16.6251C22.1712 16.6432 22.1772 16.6605 22.1863 16.6759C22.2013 16.7134 22.2238 16.7321 22.2425 16.7509C22.2763 16.7884 22.2875 16.8259 22.28 16.8596C22.2688 16.8971 22.235 16.9159 22.19 16.8971C22.1736 16.8902 22.1583 16.88 22.145 16.8671L22.1413 16.8559L22.1562 16.7734L22.115 16.7584L22.0812 16.8821ZM21.7138 16.7096L21.9913 16.8596L22.0363 16.7471L21.9988 16.7284L21.965 16.7921L21.9538 16.7959L21.8375 16.7284L21.905 16.5671L21.9725 16.6046V16.6159L21.9613 16.6646L21.9913 16.6834L22.0513 16.5334L22.0213 16.5184L21.995 16.5596L21.9838 16.5671L21.92 16.5296L21.98 16.3796L22.0812 16.4359L22.085 16.4471L22.07 16.5071L22.1075 16.5259L22.145 16.4284L21.89 16.2821L21.875 16.3121L21.905 16.3346L21.9088 16.3496L21.7738 16.6871H21.7625L21.7288 16.6759L21.7138 16.7096ZM21.6725 16.1471L21.5338 16.0384L21.515 16.0684L21.5413 16.0946L21.545 16.1096L21.3725 16.4171L21.3575 16.4209L21.3312 16.4021L21.3125 16.4321L21.4475 16.5371C21.5 16.5746 21.5413 16.5934 21.5825 16.5896C21.6425 16.5821 21.695 16.5446 21.7325 16.4771C21.8 16.3496 21.7813 16.2296 21.6725 16.1471V16.1471ZM21.6125 16.1471L21.6425 16.1696C21.7175 16.2259 21.725 16.3084 21.6613 16.4171C21.5975 16.5296 21.53 16.5521 21.4588 16.4921L21.4288 16.4771L21.6163 16.1509L21.6125 16.1471ZM22.7113 16.6346L22.7075 16.6646L22.7413 16.6759L22.745 16.6909L22.6812 17.0546L22.67 17.0621H22.6325V17.0921L22.7863 17.1296L22.7937 17.0996L22.7562 17.0846L22.7525 17.0734L22.7788 16.9196H22.79C22.8463 16.9346 22.8575 16.9684 22.8575 17.0396C22.8613 17.0734 22.8612 17.1034 22.8875 17.1409C22.8987 17.1559 22.9138 17.1709 22.94 17.1746C22.9586 17.1787 22.9774 17.1812 22.9963 17.1821L23 17.1521H22.9963C22.9588 17.1409 22.94 17.1259 22.94 17.0846C22.9325 17.0471 22.94 17.0096 22.925 16.9721C22.9149 16.9487 22.8976 16.93 22.8763 16.9196C22.94 16.9196 22.9775 16.8859 22.9888 16.8259C23.0038 16.7509 22.97 16.6946 22.88 16.6759L22.715 16.6346H22.7113ZM22.8238 16.6984L22.8463 16.7059C22.8988 16.7209 22.9213 16.7584 22.91 16.8146C22.8988 16.8784 22.865 16.9009 22.805 16.8821L22.7863 16.8784L22.82 16.6984H22.8238ZM24.8562 16.7359L24.86 16.7734H24.8975L24.9088 16.7809L24.9613 17.1484L24.9538 17.1596L24.9163 17.1709L24.9238 17.2009L25.0925 17.1709V17.1334L25.0513 17.1409L25.04 17.1296L25.0175 16.9796H25.0288C25.0888 16.9609 25.1113 16.9871 25.1413 17.0509C25.1525 17.0809 25.16 17.1109 25.1975 17.1334C25.2125 17.1446 25.235 17.1484 25.265 17.1446C25.2854 17.1399 25.3054 17.1337 25.325 17.1259L25.3213 17.0921H25.3138C25.2725 17.1034 25.25 17.0921 25.2312 17.0584C25.2162 17.0284 25.205 16.9909 25.1825 16.9646C25.1675 16.9459 25.145 16.9346 25.115 16.9346C25.1788 16.9046 25.2088 16.8596 25.2013 16.7959C25.19 16.7209 25.1375 16.6834 25.0437 16.7021L24.8562 16.7359ZM24.9875 16.7546H25.0138C25.0738 16.7396 25.1075 16.7621 25.1187 16.8221C25.1262 16.8821 25.1 16.9196 25.0363 16.9346H25.0138L24.9838 16.7546H24.9875Z" fill="black"/>
<path fill-rule="evenodd" clip-rule="evenodd" d="M21.0581 17.2058L20.7656 16.6395L20.9119 16.5195C20.9494 16.662 21.1181 16.7108 21.1481 16.8945C21.1744 17.0708 21.0356 17.247 21.0581 17.2058Z" fill="url(#paint8_linear_336_26471)" stroke="black" stroke-width="0.099375"/>
<path fill-rule="evenodd" clip-rule="evenodd" d="M20.7844 17.0447C20.7844 17.0447 20.7319 16.7897 20.8969 16.7597C21.0619 16.7297 21.1519 16.9022 21.1294 16.8347C21.1031 16.7597 21.0056 16.6847 20.9906 16.4335C20.9756 16.1822 21.0019 16.0472 21.0019 16.0472C21.0019 16.0472 20.9381 15.721 20.6719 15.766C20.4056 15.8147 20.3906 16.051 20.3906 16.1372C20.3906 16.2197 20.4169 16.2685 20.4169 16.2685L20.7844 17.0447Z" fill="url(#paint9_linear_336_26471)" stroke="black" stroke-width="0.099375"/>
<path fill-rule="evenodd" clip-rule="evenodd" d="M24.0175 16.3535C24.0175 16.3535 20.9425 15.341 20.965 11.501L20.9875 6.41602H27.0362L27.0587 11.471C27.0775 15.311 24.0062 16.3498 24.0062 16.3498L24.0175 16.3535Z" fill="#0072C4" stroke="white" stroke-width="0.322969"/>
<path fill-rule="evenodd" clip-rule="evenodd" d="M21.3845 7.63414L21.4595 7.55914C21.5083 7.52914 21.5495 7.49539 21.5983 7.46914C21.6358 7.44664 21.7108 7.42789 21.737 7.40914C21.7808 7.38356 21.8192 7.34775 21.8495 7.30414C21.857 7.24039 21.8683 7.19164 21.8683 7.11664C21.917 7.07914 21.9583 7.05664 22.0033 7.04164C22.067 7.01914 22.0783 6.98914 22.1458 6.97789C22.1833 6.96289 22.2508 6.96289 22.3108 6.96289C22.3708 6.96289 22.412 7.01539 22.4683 7.02289C22.5358 7.05289 22.5658 7.07539 22.622 7.12789C22.6483 7.17289 22.6708 7.21039 22.7195 7.24039C22.7608 7.26289 22.802 7.30039 22.847 7.31539C22.9033 7.34914 22.9483 7.36789 22.9895 7.42039C23.027 7.45039 23.042 7.49539 23.0758 7.52164C23.1157 7.56038 23.1584 7.59549 23.2033 7.62664C23.2595 7.66789 23.3158 7.70164 23.3983 7.69039C23.447 7.69039 23.4958 7.67914 23.5483 7.69039C23.6158 7.69039 23.6758 7.69039 23.7283 7.70914C23.7958 7.70914 23.8483 7.71664 23.9083 7.72414C23.9645 7.73164 24.0208 7.73539 24.0845 7.73539C24.1408 7.75414 24.197 7.75039 24.2645 7.75039H24.6208C24.6845 7.75039 24.7483 7.75414 24.797 7.76539C24.856 7.76456 24.9149 7.75955 24.9733 7.75039C25.0445 7.75039 25.097 7.73914 25.1608 7.73539H25.3783C25.4345 7.75414 25.5058 7.76539 25.5433 7.79914C25.5958 7.81414 25.6183 7.84039 25.6708 7.85539C25.7083 7.87789 25.7683 7.91539 25.7983 7.96039C25.8384 8.01015 25.8724 8.06563 25.8995 8.12539C25.937 8.18164 25.9483 8.24914 25.9745 8.32039C25.9895 8.38789 26.0008 8.45164 26.0008 8.52664C26.0158 8.59039 26.012 8.66164 26.012 8.73664C26.0008 8.80414 25.997 8.87914 25.9745 8.94289C25.9745 9.01789 25.9595 9.08164 25.9483 9.13789C25.9408 9.19789 25.9258 9.23914 25.922 9.31414V9.52414C25.922 9.59164 25.907 9.64414 25.8995 9.71539C25.8658 9.78843 25.8357 9.86355 25.8095 9.94039C25.7694 9.97314 25.7351 10.0138 25.7083 10.0604C25.682 10.0791 25.667 10.1091 25.6708 10.1204C25.7233 10.1391 25.7083 10.1804 25.7083 10.2516L25.7345 10.4466C25.7383 10.5216 25.7533 10.5591 25.772 10.6116C25.7945 10.6416 25.7983 10.6266 25.7458 10.6266C25.7083 10.6566 25.6708 10.6416 25.6595 10.5816C25.6306 10.5321 25.6126 10.4756 25.607 10.4166C25.5995 10.3491 25.5883 10.2816 25.5695 10.2366C25.562 10.1541 25.5433 10.1541 25.4683 10.1466C25.4308 10.1129 25.3858 10.1054 25.3183 10.1054C25.2433 10.1054 25.2433 10.0979 25.2433 10.1804V10.3904C25.2283 10.4504 25.2058 10.4954 25.187 10.5516C25.1495 10.5816 25.1345 10.6341 25.0858 10.6716C25.067 10.7391 25.0333 10.7466 24.9733 10.7616L24.8983 10.6566C24.9358 10.5891 24.962 10.5816 24.9845 10.5066C25.0145 10.4466 25.0295 10.4091 25.0483 10.3566C25.022 10.3116 24.9995 10.2891 24.9733 10.2254C24.9466 10.1732 24.9252 10.1179 24.9095 10.0604C24.8683 10.0454 24.8008 10.0416 24.7708 10.0154C24.707 10.0004 24.692 10.0791 24.6208 10.0791H24.4408C24.362 10.0791 24.3433 10.1241 24.2758 10.1204C24.257 10.1279 24.2083 10.1204 24.137 10.1204C24.0808 10.1429 24.017 10.1354 23.957 10.1354C23.8933 10.1354 23.8445 10.1166 23.792 10.1054C23.7358 10.0866 23.6795 10.0679 23.6158 10.0604C23.5408 10.0604 23.5145 10.0679 23.4658 10.1054C23.4283 10.1316 23.3683 10.1916 23.327 10.2254C23.3083 10.2741 23.297 10.3566 23.2708 10.4166C23.2595 10.4804 23.237 10.5141 23.2258 10.5666C23.2046 10.6239 23.1919 10.6847 23.1883 10.7466C23.1808 10.8441 23.162 10.8329 23.1095 10.8066C23.087 10.7616 23.0533 10.7204 23.0345 10.6716C23.042 10.5966 23.0608 10.5591 23.0608 10.4804C23.0458 10.4166 23.0195 10.4241 22.9858 10.4616C22.9858 10.5404 22.9858 10.6004 22.9558 10.6416C22.9506 10.6657 22.9414 10.6883 22.9285 10.7083C22.9156 10.7282 22.8994 10.7451 22.8808 10.7579C22.862 10.8141 22.8208 10.8441 22.7795 10.8629C22.772 10.8629 22.7795 10.8441 22.7795 10.8029C22.7495 10.7391 22.7795 10.6791 22.7795 10.5966C22.7795 10.5216 22.772 10.4729 22.7945 10.4054C22.7945 10.3304 22.7645 10.2629 22.757 10.2104C22.7308 10.1541 22.7158 10.1279 22.652 10.1054C22.607 10.0829 22.5395 10.0604 22.5133 10.0116C22.4839 9.9661 22.4435 9.93097 22.397 9.91039C22.3408 9.88789 22.3108 9.86539 22.2695 9.83539C22.232 9.78664 22.1983 9.76789 22.1833 9.70414C22.157 9.65914 22.1533 9.57289 22.1345 9.50914C22.1292 9.44876 22.1166 9.38946 22.097 9.33289C22.0912 9.27138 22.0786 9.21092 22.0595 9.15289L22.0183 8.95789C22.0183 8.88664 22.0183 8.81539 22.0033 8.75164V8.54164C21.9958 8.47789 21.992 8.39164 21.9808 8.34664C21.9808 8.26789 21.9695 8.22289 21.9508 8.16664C21.9245 8.11414 21.9245 8.09164 21.8758 8.08039C21.8458 8.12539 21.7933 8.14789 21.7258 8.15539C21.6808 8.14414 21.6133 8.13289 21.5608 8.11039C21.5083 8.09539 21.4783 8.07289 21.437 8.04664C21.4126 8.00759 21.3863 7.97003 21.3583 7.93414C21.3508 7.85539 21.3358 7.81414 21.332 7.73539C21.332 7.67914 21.332 7.71289 21.3845 7.63414V7.63414Z" fill="#BCBCBC"/>
<path fill-rule="evenodd" clip-rule="evenodd" d="M22.1345 8.17414L22.1458 8.15914C22.1233 8.18539 22.1308 8.17039 22.1833 8.14789C22.2058 8.13289 22.2583 8.09539 22.277 8.07289C22.2995 8.06164 22.3408 8.04664 22.3595 8.02414C22.382 7.99414 22.4083 7.96789 22.442 7.94164C22.4758 7.90414 22.5058 7.89289 22.547 7.86664C22.5958 7.85914 22.6183 7.83664 22.6633 7.85539C22.7083 7.86664 22.727 7.86664 22.7608 7.82164C22.7983 7.79914 22.8395 7.76914 22.8545 7.73164V7.66414C22.8545 7.73164 22.8395 7.75789 22.7983 7.77664C22.772 7.81789 22.7308 7.85914 22.7158 7.89664C22.6895 7.94164 22.682 7.96789 22.6558 7.99039C22.6295 8.02414 22.592 8.04289 22.5808 8.09539C22.5958 8.12164 22.5808 8.13289 22.6108 8.13664C22.637 8.16289 22.6633 8.15164 22.7008 8.13664C22.7306 8.10021 22.7547 8.05837 22.772 8.01289L22.8358 7.90414C22.8658 7.88164 22.8845 7.86289 22.8958 7.82164C22.9333 7.79914 22.9633 7.77289 22.9895 7.74664C23.0158 7.73164 23.027 7.71289 23.0645 7.70539C23.0672 7.74636 23.058 7.78721 23.0383 7.82164C23.0308 7.88164 23.0345 7.90789 23.0495 7.94539C23.0758 7.96789 23.072 7.98289 23.087 8.02039C23.102 7.98289 23.1095 7.91914 23.1133 7.87414V7.86664C23.1133 7.90789 23.1133 7.97164 23.102 8.00164C23.102 8.06164 23.117 8.09164 23.132 8.13664C23.1433 8.16289 23.1583 8.17414 23.1733 8.18914C23.1733 8.12914 23.192 8.09164 23.1958 8.03539L23.2108 8.18164C23.2108 8.23039 23.2295 8.26789 23.2483 8.30539C23.267 8.32039 23.2745 8.36164 23.282 8.32789C23.3045 8.25289 23.3045 8.17789 23.3195 8.09539C23.3195 8.05789 23.3195 7.99789 23.3383 7.97164L23.3158 8.09539C23.3195 8.05789 23.3233 8.00164 23.3383 7.97164V7.95664C23.3482 8.01356 23.3545 8.07121 23.357 8.12914C23.357 8.17414 23.3533 8.21914 23.3645 8.26414C23.3908 8.24914 23.4095 8.21164 23.4283 8.17039C23.4476 8.12842 23.4715 8.08936 23.4995 8.05414L23.4245 8.16664C23.4453 8.12575 23.4705 8.08795 23.4995 8.05414V8.04664C23.4946 8.09394 23.4921 8.14152 23.492 8.18914C23.492 8.23789 23.492 8.29414 23.4995 8.32789C23.5108 8.38414 23.522 8.39164 23.5258 8.45164C23.5258 8.48164 23.522 8.51539 23.5333 8.52664C23.5708 8.53789 23.5708 8.51539 23.5783 8.45164C23.5783 8.38789 23.5933 8.33914 23.597 8.27539C23.597 8.19664 23.6045 8.28664 23.6158 8.31289C23.6322 8.35819 23.6411 8.40649 23.642 8.45539C23.642 8.48539 23.642 8.51539 23.6495 8.53039C23.687 8.51164 23.6983 8.46664 23.7245 8.44414C23.7395 8.39164 23.762 8.36914 23.777 8.33914C23.822 8.32789 23.822 8.30539 23.822 8.24539C23.822 8.19289 23.8183 8.14039 23.8333 8.09539C23.8469 8.0499 23.8581 8.00357 23.867 7.95664C23.882 7.94914 23.9008 7.97539 23.912 8.00164C23.9308 8.03539 23.927 8.08414 23.927 8.13664C23.9383 8.18539 23.9533 8.21914 23.9758 8.26414C23.9914 8.30201 24.0116 8.33734 24.0358 8.36914C24.047 8.40289 24.047 8.46289 24.047 8.50789C24.0845 8.46289 24.0845 8.39539 24.0883 8.32789C24.0845 8.28289 24.0845 8.22289 24.0733 8.17789C24.0733 8.13289 24.062 8.08789 24.0545 8.05414C24.0283 8.03914 24.017 8.02414 24.047 7.97914C24.0733 7.95289 24.107 7.96414 24.152 7.97164C24.1783 7.99789 24.1858 8.01289 24.1895 8.07664C24.1895 8.13289 24.1895 8.17414 24.2083 8.21164C24.2233 8.24164 24.242 8.26414 24.2533 8.31664C24.2645 8.33164 24.2758 8.35414 24.2945 8.32789C24.3058 8.29789 24.3133 8.23789 24.3245 8.20039C24.332 8.16289 24.347 8.14039 24.3658 8.12539C24.3658 8.18539 24.3658 8.21914 24.3883 8.26414L24.4295 8.38039C24.4483 8.39539 24.452 8.42914 24.4783 8.44414L24.4858 8.27539V8.12539C24.4858 8.08039 24.5008 8.05039 24.512 8.01289C24.542 8.05414 24.542 8.06914 24.542 8.12539C24.5683 8.11414 24.572 8.08789 24.5833 8.05414C24.602 8.03164 24.6133 8.02414 24.6208 8.07664C24.6245 8.13289 24.6358 8.18164 24.647 8.23414C24.6658 8.25664 24.6845 8.31664 24.707 8.33914C24.723 8.37004 24.7419 8.39896 24.7633 8.42539C24.7783 8.45539 24.7783 8.47789 24.8195 8.48539C24.8195 8.41414 24.8195 8.34289 24.8083 8.27539C24.8083 8.21539 24.797 8.19289 24.7895 8.13664C24.7745 8.10289 24.767 8.04664 24.7708 8.03164C24.8068 8.06621 24.8351 8.10991 24.8533 8.15914L24.9095 8.29789C24.9352 8.33014 24.9579 8.36534 24.977 8.40289C25.0108 8.43289 25.0258 8.46664 25.0595 8.49664C25.0745 8.51539 25.1158 8.52664 25.1233 8.51539C25.1233 8.45539 25.112 8.40289 25.097 8.35039C25.0963 8.30581 25.086 8.26207 25.067 8.22289C25.0295 8.18914 25.0033 8.16664 24.9845 8.11789C24.9733 8.10289 24.9733 8.09539 24.9695 8.06539C25.0174 8.10792 25.0602 8.15706 25.097 8.21164C25.1147 8.24319 25.1393 8.26903 25.1683 8.28664C25.1833 8.30914 25.2358 8.33914 25.2733 8.34664C25.2956 8.37924 25.3275 8.40184 25.3633 8.41039L25.2733 8.35039C25.2961 8.38159 25.328 8.40282 25.3633 8.41039V8.42539C25.3578 8.36411 25.3398 8.30509 25.3108 8.25289C25.293 8.20759 25.2644 8.16867 25.2283 8.14039C25.2056 8.1014 25.1747 8.06921 25.1383 8.04664C25.1158 8.01289 25.0783 7.95664 25.0558 7.94164C25.097 7.90789 25.142 7.95664 25.1833 7.97914C25.2208 8.02414 25.2508 8.08039 25.2733 8.10664C25.2944 8.15729 25.3222 8.20406 25.3558 8.24539C25.3933 8.27164 25.4195 8.29414 25.4533 8.32789C25.5058 8.34289 25.487 8.32414 25.472 8.27539C25.4533 8.21539 25.472 8.21539 25.5095 8.25289C25.532 8.27539 25.562 8.30539 25.5995 8.32789C25.6108 8.35039 25.637 8.36539 25.6595 8.35039C25.6708 8.33539 25.6708 8.33539 25.6708 8.32039C25.652 8.25289 25.6333 8.20039 25.5883 8.18164C25.5695 8.14789 25.532 8.11789 25.5058 8.08789C25.487 8.05789 25.4683 8.03914 25.4533 8.00164L25.5058 8.08414C25.487 8.05414 25.4683 8.03914 25.4533 8.00164H25.4458C25.4983 8.00164 25.5208 8.02039 25.5583 8.04664C25.5917 8.06221 25.6203 8.08825 25.6408 8.12164C25.6595 8.14414 25.6858 8.17039 25.7045 8.20039L25.7945 8.27539C25.8245 8.32039 25.832 8.35039 25.832 8.41039C25.847 8.44414 25.8508 8.50414 25.8583 8.53789C25.8508 8.59789 25.832 8.54914 25.8283 8.51539C25.8245 8.47039 25.8058 8.47414 25.7758 8.48539C25.7758 8.54914 25.7833 8.56789 25.802 8.61289C25.7981 8.65031 25.7865 8.68622 25.7683 8.71789C25.7458 8.73289 25.742 8.68789 25.7233 8.66539C25.7233 8.60164 25.7045 8.59039 25.667 8.56039V8.60164C25.6895 8.64664 25.712 8.68789 25.712 8.74789C25.7273 8.7921 25.735 8.8392 25.7345 8.88664C25.7345 8.93914 25.7345 8.98789 25.7233 9.03664C25.7233 9.08914 25.712 9.11164 25.712 9.17164V9.46789C25.7058 9.51253 25.7033 9.55772 25.7045 9.60289L25.712 9.46789C25.7045 9.50539 25.7045 9.55039 25.7045 9.60289V9.61039C25.6895 9.55789 25.667 9.51289 25.6595 9.46039C25.6329 9.42802 25.6124 9.38971 25.5995 9.34789C25.5883 9.30289 25.5883 9.25039 25.5808 9.21289C25.5658 9.17539 25.5508 9.13789 25.5245 9.16039C25.5133 9.23539 25.5245 9.28414 25.5508 9.35914C25.5658 9.40789 25.5658 9.45289 25.5808 9.49789C25.5995 9.55414 25.6183 9.55789 25.5808 9.62164C25.5583 9.65914 25.5508 9.66664 25.5433 9.70789C25.5095 9.72664 25.502 9.73789 25.4983 9.78289C25.487 9.74164 25.4608 9.69289 25.4458 9.64414C25.427 9.59164 25.4083 9.53914 25.4008 9.49414C25.3783 9.46039 25.352 9.40414 25.3258 9.38164L25.2583 9.25789C25.2208 9.20914 25.2133 9.18289 25.1833 9.16039C25.1795 9.14164 25.1683 9.11164 25.1458 9.13039C25.1458 9.17914 25.1458 9.23164 25.157 9.27664C25.1683 9.33664 25.1833 9.37039 25.187 9.43414V9.54664C25.1645 9.48664 25.1383 9.43789 25.1233 9.38164C25.1008 9.34789 25.082 9.28789 25.0595 9.26914C25.0445 9.22414 25.0333 9.19039 25.0145 9.16039C25.0108 9.13039 24.9958 9.13039 24.9845 9.10789C24.9845 9.16789 25.0033 9.19039 25.0145 9.23164C25.0333 9.27664 25.037 9.34039 25.0333 9.36289C25.0108 9.28789 24.9883 9.20914 24.9583 9.13789C24.9322 9.0935 24.9096 9.0471 24.8908 8.99914C24.8608 8.96539 24.8345 8.96164 24.8083 8.93914C24.7836 8.92791 24.7617 8.90987 24.7445 8.88664C24.752 8.94289 24.7708 8.98039 24.782 9.02164C24.7895 9.07414 24.8083 9.11914 24.8158 9.16039C24.8083 9.23539 24.7933 9.14164 24.7783 9.10789C24.7708 9.04789 24.752 9.01789 24.737 8.98414C24.7108 8.96164 24.6883 8.92789 24.662 8.90914C24.6358 8.89789 24.647 8.90914 24.647 8.94664C24.647 9.01414 24.647 9.05914 24.6658 9.09664C24.6845 9.12664 24.6845 9.16789 24.6845 9.22414C24.6808 9.27664 24.6733 9.31414 24.6733 9.37414V9.45289C24.6545 9.41164 24.6358 9.38164 24.617 9.32914C24.5908 9.28039 24.5795 9.24289 24.557 9.19039C24.5383 9.18289 24.5008 9.17539 24.482 9.19039C24.4895 9.24289 24.5083 9.26539 24.512 9.32914C24.4745 9.36664 24.482 9.38164 24.4595 9.31789C24.437 9.26914 24.4145 9.27289 24.3845 9.24289C24.3395 9.23914 24.3545 9.20539 24.3433 9.15664C24.3433 9.11914 24.3433 9.08164 24.332 9.04414C24.2833 9.04414 24.257 9.04414 24.2233 9.07414C24.212 9.10414 24.2158 9.16789 24.2233 9.21289V9.35914C24.212 9.39664 24.197 9.39664 24.1858 9.44539C24.1708 9.48664 24.167 9.53914 24.152 9.56914C24.1183 9.60289 24.1333 9.60664 24.1145 9.55039V9.21289C24.1145 9.15664 24.1258 9.12664 24.1258 9.07414C24.107 9.03289 24.1033 9.02164 24.0433 9.02164C24.035 9.05615 24.035 9.09213 24.0433 9.12664C24.0433 9.17914 24.047 9.22789 24.0545 9.26539L24.062 9.40039C24.062 9.45664 24.0508 9.50164 24.0245 9.52414C23.9945 9.53914 24.0245 9.56164 23.9908 9.57289C23.9552 9.55326 23.9224 9.528 23.8933 9.49789C23.8558 9.48664 23.8258 9.47539 23.777 9.47539C23.717 9.47539 23.717 9.46789 23.6945 9.41539C23.6773 9.3593 23.6648 9.30156 23.657 9.24289C23.6383 9.19414 23.6345 9.16039 23.6195 9.10414C23.6079 9.0745 23.5899 9.04869 23.567 9.02914C23.5558 9.08914 23.5445 9.13039 23.5445 9.19039C23.5333 9.21664 23.5295 9.28039 23.522 9.30289C23.507 9.27664 23.4995 9.21289 23.4845 9.17164C23.4733 9.10789 23.4583 9.06664 23.3983 9.08914C23.3383 9.08914 23.3383 9.08914 23.3383 9.16414L23.4095 9.28414V9.43414C23.4095 9.49414 23.4095 9.51289 23.372 9.52414C23.357 9.46414 23.327 9.40039 23.2895 9.34789C23.2895 9.30664 23.2745 9.31789 23.237 9.31789C23.2145 9.31789 23.1883 9.31414 23.1733 9.32914V9.41914C23.1545 9.42664 23.147 9.41914 23.132 9.40039C23.1133 9.43414 23.1245 9.47539 23.132 9.51289C23.124 9.55518 23.1088 9.59577 23.087 9.63289C23.0795 9.61789 23.072 9.62539 23.087 9.62539C23.0233 9.59539 22.9745 9.58039 22.922 9.56164C22.8958 9.56164 22.8695 9.59914 22.8545 9.62539C22.8058 9.64039 22.787 9.65539 22.7345 9.65539L22.622 9.66289C22.5845 9.67414 22.547 9.67789 22.502 9.67789C22.4795 9.66664 22.4345 9.66664 22.4233 9.65539C22.442 9.62539 22.4608 9.61039 22.4758 9.56164C22.5028 9.53925 22.5279 9.51415 22.5508 9.48664L22.6183 9.40039C22.6333 9.34789 22.6558 9.34039 22.682 9.31789C22.7383 9.31789 22.7458 9.34039 22.7983 9.34789C22.8508 9.37039 22.8808 9.38164 22.9108 9.33664C22.9483 9.31789 22.9858 9.28414 23.0308 9.27664L23.1208 9.21289C23.1583 9.18664 23.177 9.15664 23.2108 9.12664C23.222 9.08539 23.2483 9.05164 23.237 9.00289C23.1883 8.98789 23.1583 8.99164 23.1245 9.02164C23.0908 9.05914 23.087 9.07414 23.0383 9.10414C23.0008 9.11914 22.9858 9.13789 22.9408 9.14914C22.9033 9.16414 22.8583 9.15664 22.817 9.15664C22.7758 9.15664 22.7233 9.15664 22.7008 9.17164C22.7383 9.14164 22.787 9.10789 22.8245 9.09664C22.862 9.07039 22.877 9.05914 22.9258 9.05164C22.9483 9.02164 22.967 9.02164 22.9783 8.96914C22.9933 8.90914 22.9408 8.92789 22.9033 8.95039C22.8695 8.95789 22.8283 8.98789 22.7983 8.99914C22.762 9.01275 22.7241 9.02033 22.6858 9.02164C22.6708 9.00289 22.6895 8.98789 22.7008 8.96164C22.7383 8.94289 22.7495 8.93539 22.7533 8.88664C22.7045 8.89414 22.6895 8.91289 22.6445 8.91664C22.598 8.92921 22.5502 8.93675 22.502 8.93914H22.3783C22.3333 8.93914 22.3108 8.92789 22.2583 8.92789C22.2208 8.90539 22.2208 8.89789 22.2208 8.83414C22.2508 8.79664 22.277 8.80414 22.3333 8.80414L22.4308 8.74789C22.4645 8.74039 22.4833 8.72539 22.4758 8.71039H22.352C22.2995 8.68414 22.352 8.67289 22.3783 8.65414C22.4158 8.65414 22.4645 8.65414 22.4908 8.67289C22.547 8.67289 22.5658 8.65414 22.607 8.61289C22.6445 8.58289 22.6633 8.56039 22.7008 8.53789C22.727 8.50414 22.7533 8.48539 22.772 8.45539C22.8095 8.41789 22.8358 8.39164 22.8545 8.35789C22.877 8.34289 22.892 8.32789 22.8808 8.30539C22.8245 8.31289 22.7983 8.33914 22.7608 8.36914C22.7401 8.39337 22.716 8.41364 22.6895 8.42914C22.6556 8.45725 22.6154 8.47414 22.5733 8.47789C22.5283 8.47789 22.4908 8.46664 22.4495 8.46289C22.4008 8.45914 22.442 8.44414 22.457 8.42164C22.4758 8.41039 22.4908 8.37664 22.4758 8.34664C22.4383 8.33539 22.3933 8.33914 22.352 8.33914H22.2245C22.1758 8.33914 22.157 8.32414 22.1233 8.30539C22.1158 8.27539 22.1233 8.28664 22.1608 8.28664C22.2002 8.28436 22.2392 8.27681 22.277 8.26414C22.3183 8.25289 22.3258 8.23414 22.3333 8.18164C22.2883 8.18164 22.2433 8.18164 22.217 8.17039L22.1345 8.17414ZM21.3583 7.93039C21.3508 7.85539 21.332 7.81414 21.332 7.73539C21.332 7.67914 21.332 7.71289 21.3845 7.63414L21.4595 7.55914C21.5083 7.52914 21.5495 7.49539 21.5983 7.46914C21.6358 7.44664 21.7108 7.42789 21.737 7.40914C21.7808 7.38356 21.8192 7.34775 21.8495 7.30414C21.857 7.24039 21.8645 7.19164 21.8645 7.11664C21.917 7.07914 21.9583 7.05664 22.0033 7.04164C22.067 7.01914 22.0783 6.98914 22.1458 6.97789C22.1833 6.96289 22.2508 6.96289 22.3108 6.96289C22.3708 6.96289 22.412 7.01539 22.4683 7.02289C22.5358 7.05289 22.5658 7.07539 22.6183 7.12789C22.6483 7.17289 22.6708 7.21039 22.7195 7.24039C22.7608 7.26289 22.802 7.30039 22.847 7.31539C22.847 7.36789 22.8583 7.36039 22.8245 7.36039C22.8208 7.41664 22.8095 7.40914 22.7608 7.41289C22.7271 7.39261 22.6986 7.36289 22.6783 7.32664C22.7008 7.27414 22.6895 7.37164 22.6783 7.39039C22.6595 7.41289 22.6445 7.43539 22.6183 7.41289C22.6033 7.36039 22.592 7.32664 22.592 7.26289C22.5845 7.19914 22.5658 7.24414 22.5545 7.27414C22.5433 7.33039 22.547 7.34914 22.5658 7.39039C22.517 7.39039 22.4833 7.38289 22.4495 7.37914C22.4158 7.36789 22.3745 7.37914 22.337 7.40164C22.292 7.43539 22.3108 7.43539 22.3295 7.47664C22.3708 7.48789 22.4045 7.51414 22.442 7.53664L22.5658 7.50664C22.607 7.48789 22.6483 7.49914 22.6895 7.50664C22.712 7.52164 22.742 7.52164 22.7533 7.53664C22.7533 7.57039 22.7533 7.60414 22.742 7.62289C22.727 7.63789 22.7045 7.67539 22.6783 7.68289C22.641 7.70815 22.6005 7.72711 22.5583 7.73914C22.502 7.73914 22.4795 7.75414 22.4383 7.77664C22.4345 7.83664 22.4195 7.84789 22.3745 7.86664C22.3358 7.88717 22.2935 7.89743 22.2508 7.89664C22.2245 7.89664 22.1983 7.89664 22.187 7.88539C22.2189 7.84987 22.2443 7.80786 22.262 7.76164C22.2695 7.73539 22.2845 7.72414 22.2695 7.70539C22.217 7.70539 22.202 7.70539 22.1945 7.76539C22.1908 7.82539 22.172 7.83664 22.1345 7.85539C22.1458 7.80289 22.1458 7.76164 22.1608 7.71664C22.1236 7.72386 22.086 7.72763 22.0483 7.72789C22.0183 7.74664 22.007 7.75414 22.0183 7.78789C21.9808 7.80289 21.9358 7.79539 21.8908 7.78789C21.8533 7.78789 21.8758 7.76914 21.8458 7.75039C21.827 7.70914 21.8083 7.69789 21.7633 7.69789C21.7445 7.72789 21.7108 7.73539 21.6883 7.75789C21.647 7.77289 21.6208 7.75789 21.587 7.73914C21.542 7.73914 21.5495 7.75414 21.5608 7.79164C21.5795 7.80289 21.5608 7.81789 21.587 7.82164C21.6133 7.84789 21.6358 7.85539 21.6845 7.85539C21.722 7.84039 21.767 7.84414 21.812 7.84414C21.857 7.84414 21.8495 7.85539 21.8495 7.90414C21.8195 7.93039 21.7745 7.92664 21.7295 7.92664C21.6923 7.92168 21.6558 7.9116 21.6208 7.89664C21.5833 7.89664 21.5458 7.88539 21.5158 7.89664C21.5008 7.91539 21.4595 7.92289 21.5083 7.92664C21.527 7.94914 21.632 7.93789 21.6358 7.97539C21.662 8.00539 21.6545 8.04664 21.6133 8.04664C21.6037 8.0399 21.5927 8.03633 21.5814 8.03633C21.5701 8.03633 21.5591 8.0399 21.5495 8.04664L21.4333 8.05039C21.5008 8.05789 21.3845 7.96789 21.3583 7.93039V7.93039Z" fill="#FEFEFE"/>
<path fill-rule="evenodd" clip-rule="evenodd" d="M21.64 7.58195L21.5875 7.61945L21.4787 7.7057C21.46 7.72445 21.46 7.7357 21.4375 7.7357C21.475 7.73195 21.4975 7.71695 21.535 7.6982C21.58 7.6907 21.625 7.67945 21.6475 7.6532C21.6737 7.6457 21.6475 7.60445 21.64 7.5782V7.58195ZM22.0525 7.08695C22.06 7.08695 22.0712 7.11695 22.09 7.13945C22.105 7.17695 22.1162 7.20695 22.1162 7.25195C22.1275 7.2032 22.1462 7.16195 22.1537 7.1057C22.1387 7.0757 22.1387 7.0682 22.0975 7.06445C22.0975 7.09445 22.105 7.07195 22.0525 7.08695Z" fill="#BCBCBC"/>
<path fill-rule="evenodd" clip-rule="evenodd" d="M21.8054 7.45776C21.785 7.45776 21.8379 7.43401 21.8582 7.42926C21.8745 7.39125 21.8826 7.3675 21.9111 7.34375C21.9558 7.34375 21.9802 7.36275 22.0006 7.396C22.0412 7.41025 22.0534 7.42925 22.0982 7.43876C22.1185 7.45776 22.1388 7.45776 22.0982 7.47201C22.0738 7.48626 22.0372 7.49101 21.9924 7.49101C21.9557 7.49423 21.9198 7.50551 21.8867 7.52426C21.8257 7.52426 21.8338 7.52426 21.8054 7.45776V7.45776Z" fill="#C4C4C2" stroke="black" stroke-width="0.087356"/>
<path fill-rule="evenodd" clip-rule="evenodd" d="M22.2188 7.09359V7.10484C22.2188 7.07484 22.2188 7.08984 22.2263 7.14984C22.2408 7.18895 22.2473 7.23128 22.245 7.27359C22.2713 7.24867 22.2907 7.21622 22.3013 7.17984C22.3013 7.09734 22.2862 7.10109 22.2188 7.09359ZM22.5487 8.30484H22.56C22.53 8.30484 22.5487 8.30484 22.5937 8.27484C22.6237 8.25234 22.65 8.21484 22.6913 8.19984C22.7254 8.16679 22.7649 8.14134 22.8075 8.12484C22.83 8.11359 22.8487 8.09484 22.8712 8.11734C22.8675 8.16609 22.8562 8.19234 22.815 8.21109C22.7962 8.24109 22.7662 8.25984 22.74 8.27109C22.71 8.28984 22.6762 8.28984 22.665 8.32734C22.6162 8.35359 22.6087 8.34609 22.5525 8.30484H22.5487ZM22.7212 8.61234C22.7325 8.59734 22.7925 8.52984 22.8187 8.50734C22.8436 8.46724 22.874 8.4318 22.9087 8.40234C22.935 8.35734 22.9688 8.32734 22.9913 8.28609L23.0625 8.18109C23.0625 8.22609 23.055 8.28609 23.07 8.31609C23.0719 8.3611 23.0614 8.40565 23.04 8.44359C23.0212 8.48109 23.0025 8.50359 22.9575 8.52984C22.92 8.55234 22.8975 8.55984 22.8638 8.58984C22.8373 8.60939 22.8098 8.62693 22.7812 8.64234C22.755 8.65359 22.7662 8.65359 22.7212 8.61234V8.61234ZM22.44 8.85234H22.4513C22.425 8.85234 22.4363 8.85234 22.4888 8.82234C22.5263 8.77734 22.5563 8.75859 22.6013 8.73984C22.6404 8.73761 22.6787 8.72611 22.7138 8.70609C22.7325 8.70234 22.7512 8.68734 22.7625 8.70609C22.7925 8.75109 22.8 8.76234 22.755 8.79234C22.7284 8.81631 22.6978 8.83415 22.665 8.84484C22.6425 8.86359 22.5975 8.86359 22.5525 8.87484C22.5225 8.87484 22.5 8.87859 22.485 8.85234L22.56 8.87484C22.5225 8.87484 22.5037 8.87859 22.44 8.85234V8.85234ZM22.8263 8.85234V8.84484C22.8263 8.87484 22.8263 8.85984 22.845 8.79984C22.8825 8.73984 22.89 8.70609 22.935 8.69484C22.9538 8.66484 22.9913 8.65734 23.0325 8.64234C23.0513 8.67234 23.0363 8.70984 23.0325 8.74734C23.0213 8.78484 22.9912 8.81484 22.9687 8.84484C22.9425 8.86359 22.9312 8.88609 22.8862 8.89734C22.8562 8.89734 22.875 8.89734 22.8263 8.85234V8.85234Z" fill="#BCBCBC"/>
<path fill-rule="evenodd" clip-rule="evenodd" d="M21.9455 7.48805C21.9455 7.5143 21.9267 7.54055 21.9005 7.54055C21.8742 7.54055 21.8555 7.5143 21.8555 7.48805C21.8555 7.45805 21.878 7.43555 21.9005 7.43555C21.9267 7.43555 21.9455 7.4543 21.9455 7.48805Z" fill="black"/>
<path fill-rule="evenodd" clip-rule="evenodd" d="M22.0812 10.3556H22.1178C22.0039 10.3556 22.073 10.3461 22.2601 10.5218C22.3415 10.4458 22.3415 10.4363 22.4025 10.5693C22.4431 10.6406 22.4513 10.5598 22.5123 10.4838C22.5407 10.6358 22.557 10.7926 22.6546 10.6501C22.7685 10.6501 22.8823 10.6406 22.9433 10.6928C23.0165 10.8496 22.9921 10.6643 23.0491 10.7356C23.2118 10.7546 23.2077 10.5741 23.3785 10.5266C23.4842 10.6833 23.533 10.5646 23.6632 10.4886C23.7648 10.5171 23.8584 10.6928 23.8787 10.5218C23.96 10.3698 23.9641 10.3793 24.021 10.5218C24.1024 10.6073 24.1349 10.4838 24.2 10.4411C24.322 10.5218 24.4562 10.5361 24.6311 10.4838C24.6636 10.6216 24.7368 10.5598 24.8141 10.5218C24.9727 10.6026 25.0255 10.6263 25.2086 10.5218C25.298 10.3983 25.2492 10.5266 25.3143 10.6073C25.4485 10.5598 25.4119 10.5503 25.5664 10.5646C25.725 10.5646 25.7372 10.5646 25.782 10.4411C25.8633 10.5313 25.8877 10.5978 25.9975 10.4838C26.1683 10.4838 26.1154 10.5076 26.213 10.4363C26.2903 10.6263 26.3066 10.4933 26.3961 10.5646C26.3458 10.7049 26.2571 10.8218 26.1439 10.8971C26.0748 11.0396 26.03 11.1821 25.8918 11.2391C25.7901 11.3579 25.6803 11.4291 25.5664 11.5336C25.4119 11.5811 25.2411 11.5716 25.0662 11.5716H23.5534C23.4476 11.6381 23.2687 11.6666 23.1223 11.6999C22.9596 11.6999 22.7685 11.6999 22.6546 11.6571C22.5773 11.5669 22.4431 11.4671 22.3699 11.3626C22.2886 11.2914 22.2886 11.1536 22.2235 11.0681C22.1666 10.9493 22.1422 10.7593 22.0812 10.6501V10.3556Z" fill="#005120" stroke="#002B0D" stroke-width="0.129416"/>
<path fill-rule="evenodd" clip-rule="evenodd" d="M25.5666 10.7359V10.7739C25.5666 10.6599 25.5706 10.7216 25.4934 10.9449C25.4812 10.9972 25.4446 11.0114 25.3876 11.0304M25.2453 10.9022H25.2819C25.1477 11.0447 25.0582 11.1159 25.0298 11.2822L25.2819 10.9022C25.1477 11.0447 25.0582 11.1159 25.0298 11.2822M24.741 10.6931C24.741 10.6931 24.737 10.8404 24.7044 10.9022ZM24.5987 10.9877V11.0257V10.9877ZM24.3099 10.7359H24.3465H24.3059C24.3221 10.7359 24.3343 10.7359 24.3059 10.7359H24.3099ZM22.2969 10.7359C22.3131 10.7359 22.3863 10.8689 22.4758 10.9449C22.4555 11.0684 22.4189 11.2109 22.4758 11.3249M22.5856 10.9877C22.6019 10.9877 22.671 11.1207 22.7646 11.1967L22.5856 10.9877C22.6019 10.9877 22.671 11.1207 22.7646 11.1967V11.2394C22.7646 11.1064 22.7564 10.9734 22.8012 10.9022C22.8418 10.9829 22.8906 11.1064 22.9069 10.9877C23.1102 10.9782 23.2078 10.9117 23.338 10.8594C23.338 10.9212 23.3298 10.8927 23.3786 10.9449M25.8187 10.7739H25.8553C25.7862 10.8404 25.7333 10.9782 25.6764 11.0684M24.3465 10.6504H24.6312Z" fill="#005120"/>
<path d="M25.5666 10.7359V10.7739C25.5666 10.6599 25.5706 10.7216 25.4934 10.9449C25.4812 10.9972 25.4446 11.0114 25.3876 11.0304M25.2453 10.9022H25.2819C25.1477 11.0447 25.0582 11.1159 25.0298 11.2822L25.2819 10.9022C25.1477 11.0447 25.0582 11.1159 25.0298 11.2822M24.741 10.6931C24.741 10.6931 24.737 10.8404 24.7044 10.9022M22.2969 10.7359C22.3131 10.7359 22.3863 10.8689 22.4758 10.9449C22.4555 11.0684 22.4189 11.2109 22.4758 11.3249M22.5856 10.9877C22.6019 10.9877 22.671 11.1207 22.7646 11.1967L22.5856 10.9877ZM22.5856 10.9877C22.6019 10.9877 22.671 11.1207 22.7646 11.1967V11.2394C22.7646 11.1064 22.7564 10.9734 22.8012 10.9022C22.8418 10.9829 22.8906 11.1064 22.9069 10.9877C23.1102 10.9782 23.2078 10.9117 23.338 10.8594C23.338 10.9212 23.3298 10.8927 23.3786 10.9449M25.8187 10.7739H25.8553C25.7862 10.8404 25.7333 10.9782 25.6764 11.0684M24.3465 10.6504H24.6312M24.5987 10.9877V11.0257V10.9877ZM24.3099 10.7359H24.3465H24.3059C24.3221 10.7359 24.3343 10.7359 24.3059 10.7359H24.3099Z" stroke="#002B0D" stroke-width="0.129416"/>
<path fill-rule="evenodd" clip-rule="evenodd" d="M21.9727 11.0371C21.5414 11.0371 21.3952 11.5434 20.9639 11.5434H20.9414V11.5734C20.9414 11.9259 20.9639 12.2521 21.0089 12.5559C21.4064 12.5259 21.5527 12.0534 21.9727 12.0534C22.4039 12.0534 22.5464 12.5559 22.9777 12.5559C23.4127 12.5559 23.5552 12.0534 23.9864 12.0534C24.4177 12.0534 24.5639 12.5559 24.9952 12.5559C25.4264 12.5559 25.5689 12.0534 26.0002 12.0534C26.4127 12.0534 26.5627 12.5221 26.9602 12.5559C27.01 12.2213 27.0338 11.8825 27.0314 11.5434H27.0052C26.5739 11.5434 26.4314 11.0409 26.0002 11.0409C25.5689 11.0409 25.4227 11.5471 24.9952 11.5471C24.5639 11.5471 24.4177 11.0409 23.9827 11.0409C23.5552 11.0409 23.4089 11.5471 22.9777 11.5471C22.5502 11.5471 22.4039 11.0409 21.9727 11.0409V11.0371ZM21.9727 13.0134C21.6352 13.0134 21.4777 13.3209 21.2152 13.4559C21.3016 13.7226 21.4095 13.9799 21.5377 14.2246C21.6614 14.1196 21.7889 14.0296 21.9727 14.0296C22.4039 14.0296 22.5464 14.5359 22.9777 14.5359C23.4127 14.5359 23.5552 14.0296 23.9864 14.0296C24.4177 14.0296 24.5639 14.5359 24.9914 14.5359C25.4189 14.5359 25.5689 14.0296 26.0002 14.0296C26.1562 14.036 26.3057 14.1021 26.4239 14.2171C26.5516 13.9735 26.6596 13.7174 26.7464 13.4521C26.4952 13.3134 26.3339 13.0134 25.9964 13.0134C25.5689 13.0134 25.4227 13.5196 24.9914 13.5196C24.5602 13.5196 24.4139 13.0134 23.9864 13.0134C23.5589 13.0134 23.4089 13.5196 22.9777 13.5196C22.5502 13.5196 22.4039 13.0134 21.9727 13.0134V13.0134ZM23.9864 14.9896C23.5552 14.9896 23.4089 15.4959 22.9777 15.4959C22.5689 15.4959 22.4189 15.0459 22.0402 14.9934C22.4457 15.4983 22.9464 15.9187 23.5139 16.2309C23.6489 16.1109 23.7877 16.3659 23.9827 16.3659C24.1814 16.3659 24.3202 16.1071 24.4514 16.2234C25.0037 15.9224 25.5 15.5063 25.9139 14.9971C25.5464 15.0609 25.3889 15.4959 24.9914 15.4959C24.5602 15.4959 24.4177 14.9896 23.9864 14.9896V14.9896Z" fill="white"/>
<path d="M21.3086 13.0599C21.4483 13.0044 21.5904 12.957 21.7342 12.918L22.3948 13.6609L21.8517 13.7886L21.3086 13.0599Z" stroke="#512007" stroke-width="0.0483546"/>
<path d="M22.6133 14.2716C22.6236 14.0991 22.9157 13.1094 22.9157 13.1094M22.713 14.2828L22.9432 13.1169M22.792 14.2866L22.9845 13.1169M22.6236 14.1291C22.6751 14.0991 22.8229 14.0541 22.8229 14.0541M22.6958 13.9567C22.7439 13.9567 22.8436 13.9117 22.8436 13.9117M22.7233 13.8254C22.7722 13.8052 22.8229 13.7902 22.8745 13.7804M22.7439 13.6605L22.9054 13.6305M22.8161 13.518C22.8161 13.5293 22.926 13.5293 22.926 13.5293M22.8436 13.3906L22.9535 13.4093" stroke="#512007" stroke-width="0.0475624"/>
<path d="M24.5 14.9937C24.4878 14.699 24.1433 13.0078 24.1433 13.0078M24.3825 14.936L24.1109 13.0142M24.2609 14.7887C24.2528 14.6798 24.0623 13.0206 24.0623 13.0206M24.4878 14.7503C24.427 14.699 24.2528 14.6221 24.2528 14.6221M24.4027 14.4556C24.346 14.4556 24.2284 14.3787 24.2284 14.3787M24.3703 14.2314C24.3125 14.1969 24.2528 14.1711 24.192 14.1545M24.346 13.9495L24.1555 13.8983M24.2609 13.7061C24.2609 13.7253 24.1312 13.7253 24.1312 13.7253M24.2284 13.4883L24.0987 13.5203" stroke="#512007" stroke-width="0.0450103"/>
<path d="M25.5 14.3868C25.4878 14.1691 25.1433 12.9199 25.1433 12.9199M25.3825 14.3442L25.1109 12.9247M25.2609 14.2354C25.2528 14.1549 25.0623 12.9294 25.0623 12.9294M25.4878 14.207C25.427 14.1691 25.2528 14.1123 25.2528 14.1123M25.4027 13.9893C25.346 13.9893 25.2284 13.9325 25.2284 13.9325M25.3703 13.8237C25.3125 13.7982 25.2528 13.7792 25.192 13.7669M25.346 13.6155L25.1555 13.5776M25.2609 13.4357C25.2609 13.4499 25.1312 13.4499 25.1312 13.4499M25.2284 13.2748L25.0987 13.2985" stroke="#512007" stroke-width="0.0483546"/>
<path fill-rule="evenodd" clip-rule="evenodd" d="M23.8563 14.5171L23.8928 11.0629C23.8928 11.0629 23.9982 11.0488 23.9982 11.0629C23.9982 11.0771 23.986 14.5029 23.9739 14.5171C23.9617 14.5313 23.8442 14.5408 23.8563 14.5171ZM25.0115 11.2144L24.9872 14.1149L24.9061 14.2285L24.9304 11.2144H25.0115Z" fill="#DD8B59" stroke="#512007" stroke-width="0.0483546"/>
<path fill-rule="evenodd" clip-rule="evenodd" d="M22.5454 13.9496C22.5454 13.9496 22.667 15.3691 24.0207 15.3265C25.3745 15.2839 25.7514 13.8975 25.7514 13.8975L25.1637 13.8691C25.1515 13.8691 24.6935 14.5316 24.1018 14.5174C23.5101 14.5032 23.3236 14.3376 23.1939 14.2003C23.0642 14.0584 22.9507 13.8549 22.9507 13.8549L22.2617 13.5379L22.3022 13.8407L22.5454 13.9496ZM26.2053 13.8076L26.1648 13.6183V13.4575L26.2297 13.2871C26.2297 13.2871 25.2042 13.4622 25.2042 13.4764L25.2002 13.7981L26.2053 13.8029V13.8076Z" fill="#DD8B59" stroke="#512007" stroke-width="0.0483546"/>
<path d="M22.5 13.9349C22.5365 13.9349 22.808 14.0059 22.808 14.0059L23.0917 14.446M26.0099 13.457L25.9856 13.7409H26.1518L26.1396 13.457H26.0099ZM25.8357 13.4712L25.8235 13.7741L25.9289 13.7599L25.941 13.4712H25.8357ZM25.6573 13.7741V13.5375L25.7627 13.4949L25.7749 13.7315L25.6573 13.7741ZM25.4547 13.7599L25.479 13.5517L25.6006 13.5659L25.6087 13.7883L25.4547 13.7599ZM25.2318 13.7599L25.2439 13.5801L25.3655 13.5659V13.7741L25.2318 13.7599Z" stroke="#512007" stroke-width="0.0483546"/>
<path d="M22.6992 13.9916C22.7114 14.0058 22.9465 14.9285 24.0773 14.9285C25.2081 14.9285 25.4796 13.8828 25.4796 13.8828" stroke="#512007" stroke-width="0.0483546"/>
<path d="M25.6591 13.9121C25.6591 13.9121 25.116 15.2843 24.0784 15.1897C23.0449 15.0951 22.8787 14.6408 22.7977 14.4042C22.7166 14.1676 22.668 13.9784 22.668 13.9784" stroke="#512007" stroke-width="0.0483546"/>
<path fill-rule="evenodd" clip-rule="evenodd" d="M22.9594 13.855C22.9715 13.7746 22.9715 11.2809 22.9715 11.2809L22.9026 11.2715L22.8905 13.8124L22.9594 13.8598V13.855ZM21.2773 13.0459L22.169 13.5522L22.1487 13.6232C22.1487 13.6232 21.2895 13.15 21.2895 13.1358C21.2895 13.1216 21.2976 13.0648 21.2773 13.0412V13.0459Z" fill="#DD8B59" stroke="#512007" stroke-width="0.0483546"/>
<path fill-rule="evenodd" clip-rule="evenodd" d="M21.6875 12.8934C21.6875 12.9312 21.8172 13.7735 21.8172 13.7735C21.8172 13.7735 21.8983 13.7877 21.8983 13.7735L21.7605 12.9076L21.6875 12.8934ZM22.5143 12.917C22.5589 12.917 23.3655 12.7656 23.3655 12.7656L23.3492 12.917L22.5589 13.0117L22.5143 12.917Z" fill="#DD8B59" stroke="#512007" stroke-width="0.0483546"/>
<path fill-rule="evenodd" clip-rule="evenodd" d="M22.6289 11.7771C22.6573 11.7771 22.9126 11.9285 23.0221 11.8907C23.1315 11.8528 23.0585 11.7487 23.0788 11.7487C23.1031 11.7487 23.1842 11.8197 23.2328 11.7629C23.2814 11.7109 23.3139 11.5453 23.2936 11.5595C23.2693 11.5736 22.6451 11.8339 22.633 11.7771H22.6289Z" fill="#FECF3E" stroke="#512007" stroke-width="0.0483546"/>
<path fill-rule="evenodd" clip-rule="evenodd" d="M22.5273 12.1226C22.5719 12.1368 23.492 11.834 23.492 11.834C23.492 11.834 23.492 11.9286 23.4798 11.9286L22.5273 12.2173V12.1226Z" fill="#DD8B59" stroke="#512007" stroke-width="0.0483546"/>
<path fill-rule="evenodd" clip-rule="evenodd" d="M24.6523 11.6975C24.6523 11.6975 24.7131 11.8631 24.7739 11.8347C24.8347 11.8064 24.8914 11.7496 24.8914 11.7496C24.8914 11.7496 24.94 11.8915 25.0211 11.8631C25.1022 11.8347 25.1508 11.6833 25.1508 11.6833C25.1508 11.6833 25.2319 11.7117 25.2683 11.6975C25.3048 11.6833 25.3494 11.4609 25.3494 11.4609L24.6563 11.6975H24.6523ZM24.5834 13.0319C24.5712 13.0603 24.6442 13.1265 24.705 13.1265C24.7658 13.1265 24.786 13.0319 24.7982 13.0603C24.8103 13.0839 24.8103 13.2117 24.9603 13.1691C25.1103 13.1265 25.1143 13.0035 25.1143 13.0035C25.1143 13.0035 25.0697 13.0461 25.1751 13.0603C25.2805 13.0745 25.3859 12.8805 25.3778 12.8805C25.3616 12.8805 24.6077 13.0461 24.5834 13.0319V13.0319Z" fill="#FECF3E" stroke="#512007" stroke-width="0.0483546"/>
<path fill-rule="evenodd" clip-rule="evenodd" d="M22.5627 11.7201C22.5553 11.7627 22.5581 11.8069 22.5708 11.8479L23.3409 11.545C23.3409 11.545 23.3733 11.474 23.3409 11.474C23.3085 11.474 22.5506 11.7485 22.5587 11.7248L22.5627 11.7201ZM23.576 11.5308C23.5962 11.5308 24.3623 11.2422 24.3623 11.2422C24.3623 11.2422 24.3744 11.3652 24.3623 11.3652L23.6449 11.6113L23.5719 11.5308H23.576Z" fill="#DD8B59" stroke="#512007" stroke-width="0.0483546"/>
<path fill-rule="evenodd" clip-rule="evenodd" d="M24.5842 12.1363C24.5842 12.1363 24.4666 12.2877 24.5031 12.4912C24.5396 12.6994 24.5842 12.8792 24.5963 12.8792C24.6085 12.8792 24.7382 12.6047 24.88 12.5905C25.0219 12.5763 25.2813 12.742 25.2813 12.742C25.2813 12.742 25.2448 12.4107 25.257 12.2593C25.2691 12.1079 25.4677 11.8477 25.4677 11.8477L24.5842 12.1316V12.1363Z" fill="#FECF3E" stroke="#512007" stroke-width="0.0483546"/>
<path fill-rule="evenodd" clip-rule="evenodd" d="M23.5156 11.8861C23.5156 11.8861 23.4912 12.0138 23.5034 12.0138L24.5045 11.711V11.6211L23.5156 11.8813V11.8861Z" fill="#DD8B59" stroke="#512007" stroke-width="0.0483546"/>
<path fill-rule="evenodd" clip-rule="evenodd" d="M22.2429 13.5518C22.2429 13.5518 22.0078 13.5139 22.02 13.5802C22.0321 13.6512 22.1375 13.7174 22.1497 13.76C22.1618 13.8026 22.1132 13.9493 22.1862 13.9398C22.2551 13.9256 22.324 13.8688 22.324 13.8262L22.3118 13.5896L22.2429 13.5518Z" fill="#B6B6B4" stroke="#512007" stroke-width="0.0483546"/>
<path fill-rule="evenodd" clip-rule="evenodd" d="M23.5508 12.8655V12.9601L24.3979 12.8229L24.3736 12.752L23.5508 12.8655Z" fill="#DD8B59" stroke="#512007" stroke-width="0.0483546"/>
<path fill-rule="evenodd" clip-rule="evenodd" d="M22.5453 13.0311C22.5615 13.0311 22.5453 13.1542 22.6426 13.1258C22.7358 13.0974 22.7601 13.0311 22.7601 13.0311C22.7601 13.0311 22.7845 13.1826 22.9142 13.1684C23.0439 13.1542 23.1168 12.9886 23.1168 12.9886C23.1168 12.9886 23.1249 13.1116 23.206 13.069C23.287 13.0264 23.3114 12.9318 23.3114 12.9318L22.5696 13.0548L22.5494 13.0311H22.5453ZM22.5453 12.2173C22.5453 12.2173 22.4399 12.2599 22.4764 12.5059C22.5129 12.752 22.598 12.8939 22.6061 12.8939C22.6183 12.8939 22.7115 12.6573 22.8534 12.6195C22.9952 12.5722 23.2425 12.7425 23.2425 12.7425C23.2425 12.7425 23.2181 12.5201 23.2546 12.3166C23.2806 12.1841 23.3334 12.0608 23.4086 11.957C23.4086 11.957 22.5818 12.2173 22.5494 12.2173H22.5453Z" fill="#FECF3E" stroke="#512007" stroke-width="0.0483546"/>
<path fill-rule="evenodd" clip-rule="evenodd" d="M24.5278 12.9329L24.5399 13.0181C24.5399 13.0181 25.3911 12.8951 25.3911 12.8762C25.3911 12.8667 25.3911 12.7815 25.3749 12.7815C25.3627 12.7815 24.5399 12.9471 24.5237 12.9329H24.5278ZM24.5156 12.0528L24.5278 12.1475L25.5289 11.8352C25.5289 11.8352 25.5532 11.75 25.541 11.75C25.5289 11.75 24.5399 12.0954 24.5156 12.0528Z" fill="#DD8B59" stroke="#512007" stroke-width="0.0483546"/>
<path d="M26.1911 13.2065L25.4616 11.8627M25.3643 12.7949C25.3765 12.757 25.4129 11.9289 25.4129 11.9289M24.6226 11.6119C24.6226 11.6119 24.6104 11.6971 24.6226 11.6971C24.6348 11.6971 25.3643 11.4889 25.3643 11.4747C25.3643 11.4605 25.4373 11.3801 25.3765 11.3943C25.3197 11.4084 24.6469 11.6545 24.6226 11.6119V11.6119Z" stroke="#512007" stroke-width="0.0483546"/>
<path fill-rule="evenodd" clip-rule="evenodd" d="M23.598 11.5745C23.6386 11.5839 23.7237 11.7259 23.7723 11.6975C23.8209 11.6691 23.8898 11.5839 23.8898 11.5839C23.8898 11.5839 23.8777 11.7496 23.9709 11.7259C24.0682 11.6975 24.0803 11.5839 24.0803 11.5839C24.0803 11.5839 24.1492 11.6313 24.21 11.5839C24.2668 11.5461 24.3235 11.3379 24.3033 11.3379C24.283 11.3379 23.6183 11.5839 23.594 11.5745H23.598ZM23.5737 11.9719C23.5737 12.0003 23.4521 12.218 23.4926 12.4262C23.5332 12.6344 23.594 12.8237 23.6061 12.8237C23.6183 12.8237 23.7966 12.606 23.9506 12.5634C24.1006 12.5208 24.3276 12.7006 24.3154 12.7006C24.3033 12.7006 24.2546 12.4924 24.2546 12.341C24.2546 12.1896 24.433 11.7259 24.433 11.7259L23.5737 11.9719ZM23.5737 12.9656C23.5737 12.9751 23.6061 13.0697 23.6912 13.0697C23.7723 13.0697 23.7845 12.9751 23.7845 12.9751C23.7845 12.9751 23.7723 13.1407 23.902 13.1265C24.0317 13.1123 24.0763 12.9609 24.0763 12.9609C24.0763 12.9609 24.0884 13.0461 24.1979 13.0035C24.3033 12.9609 24.4411 12.8237 24.433 12.8237C24.4208 12.8237 23.5818 13.0035 23.5697 12.9656H23.5737Z" fill="#FECF3E" stroke="#512007" stroke-width="0.0483546"/>
<path fill-rule="evenodd" clip-rule="evenodd" d="M23.6732 12.4388C23.6899 12.4395 23.7056 12.448 23.7169 12.4624C23.7283 12.4768 23.7343 12.4959 23.7336 12.5155C23.733 12.5351 23.7257 12.5537 23.7135 12.567C23.7012 12.5804 23.685 12.5875 23.6683 12.5868C23.6516 12.586 23.6359 12.5775 23.6246 12.5631C23.6133 12.5487 23.6073 12.5296 23.6079 12.51C23.6086 12.4904 23.6158 12.4718 23.6281 12.4585C23.6403 12.4451 23.6566 12.438 23.6732 12.4388V12.4388Z" fill="#BE0F17" stroke="#512007" stroke-width="0.0475899"/>
<path fill-rule="evenodd" clip-rule="evenodd" d="M24.099 12.3118C24.1157 12.3125 24.1314 12.321 24.1427 12.3354C24.1541 12.3498 24.16 12.3689 24.1594 12.3886C24.1587 12.4082 24.1515 12.4267 24.1392 12.4401C24.127 12.4534 24.1108 12.4605 24.0941 12.4598C24.0774 12.4591 24.0617 12.4506 24.0504 12.4362C24.0391 12.4218 24.0331 12.4027 24.0337 12.383C24.0344 12.3634 24.0416 12.3449 24.0539 12.3315C24.0661 12.3182 24.0824 12.3111 24.099 12.3118V12.3118Z" fill="#BE0F17" stroke="#512007" stroke-width="0.0475899"/>
<path fill-rule="evenodd" clip-rule="evenodd" d="M23.8881 12.5735C23.9047 12.5743 23.9205 12.5828 23.9318 12.5972C23.9431 12.6115 23.9491 12.6307 23.9485 12.6503C23.9478 12.6699 23.9406 12.6884 23.9283 12.7018C23.9161 12.7152 23.8998 12.7222 23.8832 12.7215C23.8665 12.7208 23.8508 12.7123 23.8394 12.6979C23.8281 12.6835 23.8221 12.6644 23.8228 12.6448C23.8234 12.6251 23.8307 12.6066 23.8429 12.5932C23.8552 12.5799 23.8714 12.5728 23.8881 12.5735V12.5735Z" fill="#BE0F17" stroke="#512007" stroke-width="0.0475899"/>
<path fill-rule="evenodd" clip-rule="evenodd" d="M23.8881 12.1731C23.9047 12.1739 23.9205 12.1824 23.9318 12.1968C23.9431 12.2112 23.9491 12.2303 23.9485 12.2499C23.9478 12.2695 23.9406 12.2881 23.9283 12.3014C23.9161 12.3148 23.8998 12.3219 23.8832 12.3211C23.8665 12.3204 23.8508 12.3119 23.8394 12.2975C23.8281 12.2831 23.8221 12.264 23.8228 12.2444C23.8234 12.2247 23.8307 12.2062 23.8429 12.1928C23.8552 12.1795 23.8714 12.1724 23.8881 12.1731V12.1731Z" fill="#BE0F17" stroke="#512007" stroke-width="0.0475899"/>
<path d="M23.9736 11.1C23.9736 11.0905 24.3384 11.2798 24.3384 11.294C24.3384 11.3082 25.6353 13.3192 25.6475 13.3192M24.999 11.294L25.3314 11.4596L25.4367 11.7624M22.9482 11.2703C22.936 11.2703 23.3129 11.6015 23.3129 11.6015L23.3616 11.8712M21.6674 13.2766C21.8295 13.1961 22.9725 12.0274 22.9725 12.0274M21.3594 13.0542L22.6442 11.7908M23.5034 11.9801L24.7194 14.3365M24.5734 12.9548C24.5734 12.9548 24.7153 13.5084 24.8572 13.5936C24.963 13.6599 25.0658 13.7326 25.1652 13.8113" stroke="#512007" stroke-width="0.0483546"/>
<path d="M24.5547 12.9707C24.5547 12.9707 24.656 13.6237 24.7979 13.7467C24.9397 13.8697 25.0816 14.007 25.0816 14.007" stroke="#512007" stroke-width="0.0483546"/>
<path d="M23.582 12.9648C23.582 12.9648 23.7198 13.8733 24.0035 14.0815C24.1773 14.2077 24.3503 14.3355 24.5223 14.4648" stroke="#512007" stroke-width="0.0483546"/>
<path d="M23.5671 12.9492C23.5671 12.9492 23.871 13.6684 24.1345 13.8861C24.3898 14.1085 24.7425 14.312 24.7425 14.312M22.5781 13.0107C22.6592 13.1763 22.647 13.4934 22.7402 13.6022C22.8259 13.7153 22.9045 13.8355 22.9753 13.9618M22.5984 13.0202C22.647 13.1006 22.7767 13.5123 22.8578 13.6353C22.9186 13.7489 23.5184 14.4492 23.5184 14.4492" stroke="#512007" stroke-width="0.0483546"/>
<path fill-rule="evenodd" clip-rule="evenodd" d="M23.319 14.4843C23.319 14.4979 23.3167 14.5115 23.3122 14.5241C23.3077 14.5367 23.3011 14.5482 23.2928 14.5579C23.2846 14.5675 23.2747 14.5752 23.2639 14.5804C23.2531 14.5857 23.2415 14.5884 23.2298 14.5884C23.2181 14.5884 23.2065 14.5857 23.1957 14.5804C23.1849 14.5752 23.175 14.5675 23.1667 14.5579C23.1585 14.5482 23.1519 14.5367 23.1474 14.5241C23.1429 14.5115 23.1406 14.4979 23.1406 14.4843C23.1406 14.4566 23.15 14.4302 23.1667 14.4106C23.1835 14.3911 23.2061 14.3802 23.2298 14.3802C23.2534 14.3802 23.2761 14.3911 23.2928 14.4106C23.3096 14.4302 23.319 14.4566 23.319 14.4843ZM23.7526 14.7066C23.7526 14.7305 23.7445 14.7534 23.7301 14.7702C23.7156 14.7871 23.6961 14.7965 23.6756 14.7965C23.6552 14.7965 23.6356 14.7871 23.6212 14.7702C23.6067 14.7534 23.5986 14.7305 23.5986 14.7066C23.5986 14.6828 23.6067 14.6599 23.6212 14.6431C23.6356 14.6262 23.6552 14.6167 23.6756 14.6167C23.6961 14.6167 23.7156 14.6262 23.7301 14.6431C23.7445 14.6599 23.7526 14.6828 23.7526 14.7066V14.7066ZM24.3079 14.7634C24.3079 14.7873 24.2998 14.8101 24.2853 14.827C24.2709 14.8439 24.2513 14.8533 24.2309 14.8533C24.2105 14.8533 24.1909 14.8439 24.1764 14.827C24.162 14.8101 24.1539 14.7873 24.1539 14.7634C24.1539 14.7396 24.162 14.7167 24.1764 14.6999C24.1909 14.683 24.2105 14.6735 24.2309 14.6735C24.2513 14.6735 24.2709 14.683 24.2853 14.6999C24.2998 14.7167 24.3079 14.7396 24.3079 14.7634V14.7634ZM24.7902 14.5505C24.7902 14.5978 24.7618 14.6309 24.7254 14.6309C24.6889 14.6309 24.6605 14.5931 24.6605 14.5505C24.6605 14.5079 24.6889 14.4653 24.7254 14.4653C24.7618 14.4653 24.7902 14.5032 24.7902 14.5505ZM25.1793 14.2808C25.1793 14.3234 25.1428 14.3565 25.1023 14.3565C25.0618 14.3565 25.0253 14.3234 25.0253 14.2808C25.0253 14.2382 25.0618 14.2051 25.1023 14.2051C25.1428 14.2051 25.1793 14.2382 25.1793 14.2808Z" fill="black" stroke="#512007" stroke-width="0.0483546"/>
<path fill-rule="evenodd" clip-rule="evenodd" d="M22.8945 11.3265C22.858 11.3549 22.2704 11.5205 22.3514 11.5063C22.4325 11.4921 22.9067 11.6483 22.8945 11.601C22.8824 11.5536 22.8945 11.3549 22.8945 11.3265ZM23.8956 11.123C23.8713 11.123 23.5309 11.2745 23.543 11.2745C23.5552 11.2745 23.9321 11.3975 23.9199 11.3691C23.9078 11.3407 23.9078 11.1609 23.8956 11.123ZM24.921 11.2603C24.8967 11.2745 24.4955 11.3833 24.5684 11.3975C24.6414 11.4117 24.9089 11.5205 24.9089 11.4921C24.9089 11.4685 24.9089 11.2745 24.921 11.2555V11.2603Z" fill="#FF0000" stroke="#512007" stroke-width="0.0483546"/>
<path d="M24.4961 14.4786C24.5083 14.2609 24.8528 13.0117 24.8528 13.0117M24.6136 14.436L24.8852 13.0165M24.7352 14.3272C24.7433 14.2467 24.9338 13.0212 24.9338 13.0212M24.5083 14.2988C24.569 14.2609 24.7433 14.2041 24.7433 14.2041M24.5934 14.0811C24.6501 14.0811 24.7676 14.0243 24.7676 14.0243M24.6258 13.9155C24.6836 13.89 24.7433 13.871 24.8041 13.8587M24.6501 13.7073L24.8406 13.6694M24.7352 13.5275C24.7352 13.5417 24.8649 13.5417 24.8649 13.5417M24.7676 13.3666L24.8973 13.3903" stroke="#512007" stroke-width="0.0483546"/>
<path d="M23.4922 14.6381C23.5043 14.4104 23.8489 13.1035 23.8489 13.1035M23.6097 14.6529L23.8813 13.1134M23.7029 14.6579L23.9299 13.1134M23.5043 14.45C23.5651 14.4104 23.7394 14.351 23.7394 14.351M23.5895 14.2223C23.6462 14.2223 23.7637 14.1628 23.7637 14.1628M23.6219 14.049C23.6797 14.0223 23.7394 14.0024 23.8002 13.9896M23.6462 13.8312L23.8367 13.7916M23.7313 13.6431C23.7313 13.6579 23.861 13.6579 23.861 13.6579M23.7637 13.4748L23.8934 13.4995" stroke="#512007" stroke-width="0.0494578"/>
<path d="M23.4883 14.5382C23.4761 14.3172 23.1316 13.0488 23.1316 13.0488M23.3707 14.495L23.0992 13.0536M23.2492 14.3845C23.241 14.3028 23.0506 13.0584 23.0506 13.0584M23.4761 14.3557C23.4153 14.3172 23.241 14.2596 23.241 14.2596M23.391 14.1347C23.3343 14.1347 23.2167 14.077 23.2167 14.077M23.3586 13.9665C23.3008 13.9406 23.2411 13.9213 23.1802 13.9088M23.3343 13.7551L23.1438 13.7167M23.2492 13.5725C23.2492 13.5869 23.1195 13.5869 23.1195 13.5869M23.2167 13.4092L23.087 13.4332" stroke="#512007" stroke-width="0.0487251"/>
<path fill-rule="evenodd" clip-rule="evenodd" d="M25.1142 13.8691L26.2328 13.8975L26.245 13.8029L25.0898 13.7887L25.1142 13.8691ZM25.1628 13.5237C25.2925 13.5237 26.2693 13.306 26.2693 13.306C26.2693 13.306 26.3058 13.1641 26.2693 13.1641C26.2328 13.1641 25.1628 13.429 25.1628 13.429V13.5237Z" fill="#DD8B59" stroke="#512007" stroke-width="0.0483546"/>
<path fill-rule="evenodd" clip-rule="evenodd" d="M23.8881 12.3723C23.9047 12.3731 23.9205 12.3816 23.9318 12.396C23.9431 12.4104 23.9491 12.4295 23.9485 12.4491C23.9478 12.4687 23.9406 12.4873 23.9283 12.5006C23.9161 12.514 23.8998 12.5211 23.8832 12.5203C23.8665 12.5196 23.8508 12.5111 23.8394 12.4967C23.8281 12.4823 23.8221 12.4632 23.8228 12.4436C23.8234 12.424 23.8307 12.4054 23.8429 12.3921C23.8552 12.3787 23.8714 12.3716 23.8881 12.3723V12.3723Z" fill="#BE0F17" stroke="#512007" stroke-width="0.0475899"/>
<path d="M6 3H18V12H6V3Z" fill="#012169"/>
<path d="M7.40625 3L11.9813 6.39375L16.5375 3H18V4.1625L13.5 7.51875L18 10.8563V12H16.5L12 8.64375L7.51875 12H6V10.875L10.4813 7.5375L6 4.2V3H7.40625Z" fill="white"/>
<path d="M13.95 8.26875L18 11.25V12L12.9188 8.26875H13.95ZM10.5 8.64375L10.6125 9.3L7.0125 12H6L10.5 8.64375ZM18 3V3.05625L13.3313 6.58125L13.3688 5.75625L17.0625 3H18ZM6 3L10.4813 6.3H9.35625L6 3.7875V3Z" fill="#C8102E"/>
<path d="M10.5188 3V12H13.5188V3H10.5188ZM6 6V9H18V6H6Z" fill="white"/>
<path d="M6 6.61875V8.41875H18V6.61875H6ZM11.1188 3V12H12.9188V3H11.1188Z" fill="#C8102E"/>
</g>
</g>
<defs>
<filter id="filter0_d_336_26471" x="0" y="-2" width="36" height="36" filterUnits="userSpaceOnUse" color-interpolation-filters="sRGB">
<feFlood flood-opacity="0" result="BackgroundImageFix"/>
<feColorMatrix in="SourceAlpha" type="matrix" values="0 0 0 0 0 0 0 0 0 0 0 0 0 0 0 0 0 0 127 0" result="hardAlpha"/>
<feOffset dy="4"/>
<feGaussianBlur stdDeviation="3"/>
<feComposite in2="hardAlpha" operator="out"/>
<feColorMatrix type="matrix" values="0 0 0 0 0 0 0 0 0 0 0 0 0 0 0 0 0 0 0.16 0"/>
<feBlend mode="normal" in2="BackgroundImageFix" result="effect1_dropShadow_336_26471"/>
<feBlend mode="normal" in="SourceGraphic" in2="effect1_dropShadow_336_26471" result="shape"/>
</filter>
<linearGradient id="paint0_linear_336_26471" x1="14.1985" y1="24.3508" x2="15.0959" y2="23.8953" gradientUnits="userSpaceOnUse">
<stop stop-color="#A43907"/>
<stop offset="1" stop-color="white"/>
</linearGradient>
<linearGradient id="paint1_linear_336_26471" x1="22.0332" y1="15.5796" x2="20.88" y2="15.017" gradientUnits="userSpaceOnUse">
<stop stop-color="#A43907"/>
<stop offset="1" stop-color="white"/>
</linearGradient>
<linearGradient id="paint2_linear_336_26471" x1="22.589" y1="16.0398" x2="20.1827" y2="15.758" gradientUnits="userSpaceOnUse">
<stop stop-color="#A43907"/>
<stop offset="1" stop-color="white"/>
</linearGradient>
<linearGradient id="paint3_linear_336_26471" x1="27.0759" y1="14.9383" x2="25.9729" y2="14.9906" gradientUnits="userSpaceOnUse">
<stop stop-color="#A43907"/>
<stop offset="1" stop-color="white"/>
</linearGradient>
<linearGradient id="paint4_linear_336_26471" x1="27.6645" y1="15.5925" x2="25.3045" y2="15.7193" gradientUnits="userSpaceOnUse">
<stop stop-color="#A43907"/>
<stop offset="1" stop-color="white"/>
</linearGradient>
<linearGradient id="paint5_linear_336_26471" x1="27.3281" y1="16.3609" x2="20.7181" y2="16.3609" gradientUnits="userSpaceOnUse">
<stop stop-color="#A43907"/>
<stop offset="1" stop-color="white"/>
</linearGradient>
<linearGradient id="paint6_linear_336_26471" x1="20.8454" y1="16.8847" x2="30.4798" y2="16.9154" gradientUnits="userSpaceOnUse">
<stop stop-color="#A43907"/>
<stop offset="1" stop-color="white"/>
</linearGradient>
<linearGradient id="paint7_linear_336_26471" x1="27.672" y1="16.2305" x2="26.8853" y2="16.251" gradientUnits="userSpaceOnUse">
<stop stop-color="#A43907"/>
<stop offset="1" stop-color="white"/>
</linearGradient>
<linearGradient id="paint8_linear_336_26471" x1="20.6936" y1="17.1628" x2="21.4491" y2="17.2073" gradientUnits="userSpaceOnUse">
<stop stop-color="#A43907"/>
<stop offset="1" stop-color="white"/>
</linearGradient>
<linearGradient id="paint9_linear_336_26471" x1="21.2475" y1="16.9716" x2="19.848" y2="16.661" gradientUnits="userSpaceOnUse">
<stop stop-color="#A43907"/>
<stop offset="1" stop-color="white"/>
</linearGradient>
<clipPath id="clip0_336_26471">
<rect width="24" height="18" fill="white" transform="translate(6 3)"/>
</clipPath>
</defs>
</svg>
