<svg width="36" height="31" viewBox="0 0 36 31" fill="none" xmlns="http://www.w3.org/2000/svg">
<g filter="url(#filter0_d_336_26173)">
<g clip-path="url(#clip0_336_26173)">
<path d="M6 3H30V21H6V3Z" fill="#3E5EB9"/>
<path d="M6 6.375H30V17.625H6V6.375Z" fill="#FFD900"/>
<path d="M6 7.5H30V16.5H6V7.5Z" fill="#B10C0C"/>
<path d="M26.5622 9.94336L25.4688 10.3304L26.5577 10.7129L27.6512 10.3304L26.5622 9.94336Z" fill="white" stroke="black" stroke-width="0.099375"/>
<path d="M25.8362 10.1992H10.0457C9.96871 10.1992 9.90625 10.2566 9.90625 10.3275C9.90625 10.3983 9.96871 10.4557 10.0457 10.4557H25.8362C25.9133 10.4557 25.9757 10.3983 25.9757 10.3275C25.9757 10.2566 25.9133 10.1992 25.8362 10.1992Z" fill="#FFD900" stroke="black" stroke-width="0.099375"/>
<path d="M25.5924 10.4557C25.626 10.4547 25.6579 10.4412 25.682 10.4179C25.7061 10.3946 25.7207 10.3632 25.7229 10.3297C25.7218 10.2955 25.7077 10.2629 25.6835 10.2387C25.6592 10.2145 25.6267 10.2003 25.5924 10.1992M25.4664 10.4557C25.4992 10.4536 25.53 10.4396 25.5532 10.4165C25.5764 10.3933 25.5903 10.3624 25.5924 10.3297C25.5914 10.2962 25.5779 10.2643 25.5546 10.2402C25.5313 10.216 25.4999 10.2014 25.4664 10.1992M25.3359 10.4557C25.3695 10.4547 25.4014 10.4412 25.4255 10.4179C25.4496 10.3946 25.4642 10.3632 25.4664 10.3297C25.4653 10.2955 25.4512 10.2629 25.427 10.2387C25.4027 10.2145 25.3702 10.2003 25.3359 10.1992" fill="#FFD900"/>
<path d="M25.5924 10.4557C25.626 10.4547 25.6579 10.4412 25.682 10.4179C25.7061 10.3946 25.7207 10.3632 25.7229 10.3297C25.7218 10.2955 25.7077 10.2629 25.6835 10.2387C25.6592 10.2145 25.6267 10.2003 25.5924 10.1992M25.4664 10.4557C25.4992 10.4536 25.53 10.4396 25.5532 10.4165C25.5764 10.3933 25.5903 10.3624 25.5924 10.3297C25.5914 10.2962 25.5779 10.2643 25.5546 10.2402C25.5313 10.216 25.4999 10.2014 25.4664 10.1992M25.3359 10.4557C25.3695 10.4547 25.4014 10.4412 25.4255 10.4179C25.4496 10.3946 25.4642 10.3632 25.4664 10.3297C25.4653 10.2955 25.4512 10.2629 25.427 10.2387C25.4027 10.2145 25.3702 10.2003 25.3359 10.1992" stroke="black" stroke-width="0.099375"/>
<path d="M25.5115 10.7129L24.418 11.0999L25.507 11.4824L26.6005 11.0999L25.5115 10.7129Z" fill="white" stroke="black" stroke-width="0.099375"/>
<path d="M24.7855 10.9688H8.99497C8.91792 10.9688 8.85547 11.0262 8.85547 11.097C8.85547 11.1678 8.91792 11.2252 8.99497 11.2252H24.7855C24.8625 11.2252 24.925 11.1678 24.925 11.097C24.925 11.0262 24.8625 10.9688 24.7855 10.9688Z" fill="#FFD900" stroke="black" stroke-width="0.099375"/>
<path d="M24.5417 11.2252C24.5752 11.2242 24.6071 11.2107 24.6312 11.1874C24.6553 11.1641 24.6699 11.1327 24.6722 11.0992C24.671 11.065 24.6569 11.0325 24.6327 11.0082C24.6085 10.984 24.5759 10.9699 24.5417 10.9688M24.4157 11.2252C24.4484 11.2231 24.4792 11.2092 24.5024 11.186C24.5256 11.1628 24.5395 11.132 24.5417 11.0992C24.5406 11.0657 24.5271 11.0338 24.5038 11.0097C24.4805 10.9856 24.4491 10.971 24.4157 10.9688M24.2852 11.2252C24.3187 11.2242 24.3506 11.2107 24.3747 11.1874C24.3988 11.1641 24.4134 11.1327 24.4157 11.0992C24.4145 11.065 24.4004 11.0325 24.3762 11.0082C24.352 10.984 24.3194 10.9699 24.2852 10.9688" fill="#FFD900"/>
<path d="M24.5417 11.2252C24.5752 11.2242 24.6071 11.2107 24.6312 11.1874C24.6553 11.1641 24.6699 11.1327 24.6722 11.0992C24.671 11.065 24.6569 11.0325 24.6327 11.0082C24.6085 10.984 24.5759 10.9699 24.5417 10.9688M24.4157 11.2252C24.4484 11.2231 24.4792 11.2092 24.5024 11.186C24.5256 11.1628 24.5395 11.132 24.5417 11.0992C24.5406 11.0657 24.5271 11.0338 24.5038 11.0097C24.4805 10.9856 24.4491 10.971 24.4157 10.9688M24.2852 11.2252C24.3187 11.2242 24.3506 11.2107 24.3747 11.1874C24.3988 11.1641 24.4134 11.1327 24.4157 11.0992C24.4145 11.065 24.4004 11.0325 24.3762 11.0082C24.352 10.984 24.3194 10.9699 24.2852 10.9688" stroke="black" stroke-width="0.099375"/>
<path d="M28.7378 11.8066H7.25931C7.15493 11.8066 7.07031 11.8933 7.07031 12.0001C7.07031 12.107 7.15493 12.1936 7.25931 12.1936H28.7378C28.8422 12.1936 28.9268 12.107 28.9268 12.0001C28.9268 11.8933 28.8422 11.8066 28.7378 11.8066Z" fill="#FFD900" stroke="black" stroke-width="0.109312"/>
<path d="M24.3081 11.9994C23.0219 13.2856 21.3081 15.8581 17.8806 15.8581C14.8806 15.8581 12.7394 13.2856 11.4531 11.9994C12.7356 10.7131 14.8806 8.14062 17.8806 8.14062C21.3081 8.14062 23.0219 10.7131 24.3081 11.9994V11.9994Z" fill="white" stroke="black" stroke-width="0.099375"/>
<path d="M17.4306 9.48687C17.7756 9.86937 17.4869 10.0231 17.8506 10.0494C18.2331 10.0756 18.0156 10.4544 18.3381 10.4694C18.5631 10.4769 18.3156 11.3769 18.5294 11.6694C18.7506 11.9806 18.9344 11.7631 18.9419 11.9844C18.9419 12.2169 18.3419 12.1906 18.3306 12.9031C18.3119 13.3119 17.8206 13.3381 17.7981 13.6006C17.7681 13.8481 18.7656 13.9869 18.7506 14.2081C18.7394 14.4331 17.6744 14.3956 17.6256 14.6469C17.6031 14.8719 19.0881 15.0594 19.2081 15.7156C18.9831 15.7906 18.3569 15.8544 17.8806 15.8581C14.8806 15.8581 12.7394 13.2856 11.4531 11.9956C12.7394 10.7131 14.8806 8.14062 17.8806 8.14062C17.8806 8.14062 16.9919 8.95437 17.4306 9.48312V9.48687Z" fill="black"/>
<path d="M14.0117 11.6575V10.627ZM14.6327 10.627V11.6575ZM15.2537 10.627V11.6575Z" fill="black"/>
<path d="M14.0117 11.6575V10.627M14.6327 10.627V11.6575M15.2537 10.627V11.6575" stroke="white" stroke-width="0.685687"/>
<path d="M14.0117 13.3723V12.3418ZM14.6327 12.3418V13.3723ZM15.2537 12.3418V13.3723Z" fill="black"/>
<path d="M14.0117 13.3723V12.3418M14.6327 12.3418V13.3723M15.2537 12.3418V13.3723" stroke="white" stroke-width="0.685687"/>
<path d="M15.8828 11.6575V10.627ZM16.5038 10.627V11.6575ZM17.1248 10.627V11.6575Z" fill="black"/>
<path d="M15.8828 11.6575V10.627M16.5038 10.627V11.6575M17.1248 10.627V11.6575" stroke="white" stroke-width="0.685687"/>
<path d="M15.8828 13.3723V12.3418ZM16.5038 12.3418V13.3723ZM17.1248 12.3418V13.3723Z" fill="black"/>
<path d="M15.8828 13.3723V12.3418M16.5038 12.3418V13.3723M17.1248 12.3418V13.3723" stroke="white" stroke-width="0.685687"/>
<path d="M18.7266 11.6575V10.627ZM19.3476 10.627V11.6575ZM19.9686 10.627V11.6575Z" fill="black"/>
<path d="M18.7266 11.6575V10.627M19.3476 10.627V11.6575M19.9686 10.627V11.6575" stroke="black" stroke-width="0.685687"/>
<path d="M18.7266 13.3723V12.3418ZM19.3476 12.3418V13.3723ZM19.9686 12.3418V13.3723Z" fill="black"/>
<path d="M18.7266 13.3723V12.3418M19.3476 12.3418V13.3723M19.9686 12.3418V13.3723" stroke="black" stroke-width="0.685687"/>
<path d="M20.5977 11.6575V10.627ZM21.2187 10.627V11.6575ZM21.8397 10.627V11.6575Z" fill="black"/>
<path d="M20.5977 11.6575V10.627M21.2187 10.627V11.6575M21.8397 10.627V11.6575" stroke="black" stroke-width="0.685687"/>
<path d="M20.5977 13.3723V12.3418ZM21.2187 12.3418V13.3723ZM21.8397 12.3418V13.3723Z" fill="black"/>
<path d="M20.5977 13.3723V12.3418M21.2187 12.3418V13.3723M21.8397 12.3418V13.3723" stroke="black" stroke-width="0.685687"/>
<path d="M27.39 11.8514C27.195 12.1852 27.54 11.7389 28.38 12.3014C28.4654 12.372 28.5354 12.4593 28.5857 12.558C28.636 12.6566 28.6656 12.7646 28.6725 12.8752C28.635 12.8489 28.6012 12.7889 28.56 12.7552C28.5 12.8152 28.62 13.0927 28.635 13.2239C28.5037 13.1489 28.515 13.1189 28.4737 13.0289C28.4812 13.1339 28.4475 13.4339 28.5037 13.5539C28.3987 13.5239 28.4062 13.4414 28.3537 13.4227C28.3912 13.5539 28.32 13.6927 28.3388 13.8427C28.2788 13.7827 28.2112 13.7339 28.185 13.7114C28.1775 13.7864 28.0688 13.9664 28.065 14.0339C28.0454 14.0213 28.0286 14.0049 28.0157 13.9855C28.0028 13.9661 27.9941 13.9443 27.99 13.9214C27.871 14.0633 27.7702 14.2195 27.69 14.3864C27.5138 14.2364 27.0675 13.8614 27.0075 13.6589C26.955 13.7714 26.88 13.8089 26.7375 13.8914C26.6775 13.5764 26.4562 13.2239 26.5725 12.9502C26.4937 12.9989 26.4174 13.0514 26.3438 13.1077C26.4108 12.8314 26.5403 12.5741 26.7224 12.3557C26.9044 12.1372 27.1341 11.9635 27.3937 11.8477L27.39 11.8514Z" fill="#333333" stroke="black" stroke-width="0.0828125"/>
<path d="M26.6641 13.5198C26.7466 13.3585 26.8216 13.306 26.8741 13.201C26.9641 13.021 26.9791 12.871 27.0616 12.8935C27.1366 12.916 27.1366 12.991 27.0353 13.171C26.9341 13.351 26.8853 13.3885 26.6641 13.5198ZM27.2116 13.9023C27.2041 13.7823 27.2378 13.7298 27.2341 13.651C27.2191 13.5085 27.1628 13.4148 27.2378 13.4073C27.3128 13.4035 27.3466 13.4485 27.3466 13.5873C27.3466 13.7298 27.3241 13.7673 27.2116 13.9023ZM27.6278 14.1423C27.5941 13.9735 27.6203 13.8985 27.5978 13.786C27.5603 13.591 27.4891 13.4635 27.5603 13.4448C27.6278 13.426 27.6728 13.4898 27.6991 13.6885C27.7216 13.8835 27.7103 13.9398 27.6278 14.146V14.1423ZM28.0591 12.9423C27.9578 12.8673 27.8978 12.8598 27.8341 12.811C27.7216 12.721 27.6616 12.631 27.6241 12.676C27.5866 12.721 27.6128 12.7735 27.7366 12.8523C27.8603 12.931 27.8941 12.9385 28.0591 12.9423V12.9423ZM27.9878 13.5123C27.9353 13.3998 27.8753 13.3735 27.8453 13.3023C27.7853 13.1748 27.7853 13.066 27.7141 13.0923C27.6503 13.1223 27.6428 13.1785 27.7141 13.3023C27.7891 13.4223 27.8266 13.4448 27.9841 13.5123H27.9878Z" fill="#B3B3B3"/>
<path d="M8.01937 12.1731C8.00437 12.0756 8.02687 12.0606 7.96687 11.9856C8.05687 12.0231 8.05687 12.1244 8.16562 12.0531C8.20312 12.0344 8.22187 12.0344 8.17312 11.9219C8.28562 11.9294 8.64937 12.0531 8.70937 12.0569C8.86312 12.0644 9.14437 11.8956 9.33937 12.1019C9.52687 12.2894 9.45937 12.4881 9.45937 12.7469C9.38437 12.7094 9.42187 12.6981 9.33937 12.6006C9.39937 12.8331 9.33937 13.2419 9.33937 13.4856C9.30937 13.4256 9.31312 13.4519 9.28312 13.3919C9.20812 13.6131 9.11062 13.6544 9.11062 13.9206C9.08062 13.8156 9.11062 13.8381 9.07687 13.7856C9.00187 13.9544 8.47687 14.0969 8.67937 14.2656C8.49937 14.1606 8.41687 14.1681 8.34187 14.0781C8.30437 14.0969 8.27437 14.1419 8.24437 14.1981C7.92562 14.0556 8.03812 13.7406 7.79062 13.5269C7.74562 13.6169 7.76437 13.6056 7.71562 13.7481C7.67062 13.5494 7.65562 13.4219 7.59937 13.2756C7.55062 13.3581 7.55437 13.3244 7.46437 13.4481C7.42687 13.2081 7.37062 13.1481 7.38937 12.9869C7.29937 13.0544 7.35937 13.0244 7.26562 13.1069C7.35562 12.4881 7.73812 12.0269 8.01562 12.1694L8.01937 12.1731Z" fill="#333333" stroke="black" stroke-width="0.107656"/>
<path d="M7.62891 13.1895C7.70766 12.987 7.77891 12.927 7.83516 12.7995C7.92891 12.5707 7.94391 12.387 8.02266 12.4132C8.09766 12.4432 8.09766 12.5332 7.99266 12.7582C7.88766 12.9832 7.84266 13.0282 7.62891 13.1895V13.1895ZM7.93641 13.6882C7.96641 13.5082 8.01891 13.4482 8.04141 13.3282C8.07891 13.1257 8.06016 12.9757 8.13141 12.9832C8.20641 12.9907 8.22141 13.0695 8.17266 13.2682C8.12391 13.4745 8.09016 13.5232 7.93266 13.6882H7.93641ZM8.30391 14.0407C8.31516 13.8682 8.35641 13.797 8.36391 13.6845C8.37516 13.4895 8.33391 13.347 8.40141 13.347C8.47641 13.347 8.49891 13.4182 8.47641 13.6132C8.45391 13.8082 8.43141 13.8607 8.30391 14.0407V14.0407ZM9.09891 12.9007C8.94891 12.7507 8.85891 12.7207 8.76141 12.6232C8.58891 12.4507 8.50266 12.2932 8.43891 12.3495C8.37891 12.4057 8.41641 12.4882 8.60016 12.6495C8.78016 12.8182 8.84391 12.8407 9.10266 12.9007H9.09891ZM9.00891 13.4857C8.91141 13.3357 8.83641 13.2945 8.77266 13.1932C8.66016 13.0245 8.62266 12.8782 8.55891 12.912C8.49516 12.9495 8.51016 13.0245 8.63016 13.1932C8.75391 13.3582 8.79891 13.3882 9.00891 13.4857Z" fill="#B3B3B3"/>
<path d="M15.8037 8.82812C15.6237 9.17313 16.115 8.71563 16.8838 9.29313C17.0706 9.49305 17.1911 9.74583 17.2287 10.0169C17.0721 9.96681 16.9213 9.90018 16.7787 9.81813C16.7787 9.81813 17.1162 10.1631 17.1162 10.5531C16.9962 10.4781 16.9362 10.4894 16.8912 10.3994C16.8912 10.5231 17.0037 10.6056 17.0037 10.8006C16.9299 10.7412 16.8508 10.6885 16.7675 10.6431C16.88 10.8419 16.5612 11.2244 16.7225 11.3481C16.5871 11.3295 16.4571 11.2833 16.3403 11.2123C16.2235 11.1414 16.1226 11.0472 16.0437 10.9356C15.9837 10.9731 15.9762 11.0369 15.9725 11.1081C15.9837 11.1119 15.5487 10.7819 15.59 10.6581C15.5404 10.7202 15.5115 10.7963 15.5075 10.8756C15.3431 10.7387 15.2187 10.5599 15.1475 10.3581C15.08 10.4481 15.0725 10.4481 15.0012 10.5456C14.9487 10.2194 14.9487 10.2306 15.0537 9.95313C14.981 10.0033 14.911 10.0571 14.8438 10.1144C14.8986 9.84229 15.0131 9.58577 15.1792 9.36334C15.3452 9.1409 15.5585 8.9581 15.8037 8.82812V8.82812Z" fill="#333333" stroke="black" stroke-width="0.0828125"/>
<path d="M15.3633 10.5088C15.3933 10.2726 15.4533 10.1863 15.4758 10.0288C15.5058 9.76634 15.4683 9.56384 15.5658 9.57134C15.6558 9.57884 15.6858 9.67634 15.6408 9.94634C15.592 10.2126 15.5508 10.2763 15.367 10.5126L15.3633 10.5088ZM15.862 10.9438C15.8433 10.7488 15.8808 10.6588 15.8658 10.5313C15.847 10.3063 15.7758 10.1488 15.8583 10.1376C15.9408 10.1226 15.9858 10.1976 15.9933 10.4301C16.0008 10.6551 15.982 10.7188 15.862 10.9438V10.9438ZM16.642 11.3038C16.5558 11.1276 16.4808 11.0788 16.4283 10.9663C16.3308 10.7676 16.3083 10.6101 16.237 10.6363C16.162 10.6663 16.1658 10.7488 16.2745 10.9438C16.3795 11.1313 16.4283 11.1726 16.6383 11.3038H16.642ZM16.9083 9.74759C16.6908 9.63509 16.582 9.63509 16.4433 9.56009C16.1995 9.43259 16.057 9.29384 16.0083 9.37259C15.9558 9.44759 16.0233 9.52634 16.2745 9.64259C16.5258 9.75884 16.6045 9.76259 16.9045 9.74759H16.9083ZM16.9833 10.3963C16.8333 10.2688 16.7358 10.2463 16.6345 10.1638C16.4545 10.0138 16.3683 9.87509 16.312 9.93134C16.252 9.99134 16.2895 10.0663 16.477 10.2051C16.6645 10.3438 16.7283 10.3588 16.987 10.3963H16.9833Z" fill="#B3B3B3"/>
</g>
</g>
<defs>
<filter id="filter0_d_336_26173" x="0" y="-2" width="36" height="36" filterUnits="userSpaceOnUse" color-interpolation-filters="sRGB">
<feFlood flood-opacity="0" result="BackgroundImageFix"/>
<feColorMatrix in="SourceAlpha" type="matrix" values="0 0 0 0 0 0 0 0 0 0 0 0 0 0 0 0 0 0 127 0" result="hardAlpha"/>
<feOffset dy="4"/>
<feGaussianBlur stdDeviation="3"/>
<feComposite in2="hardAlpha" operator="out"/>
<feColorMatrix type="matrix" values="0 0 0 0 0 0 0 0 0 0 0 0 0 0 0 0 0 0 0.16 0"/>
<feBlend mode="normal" in2="BackgroundImageFix" result="effect1_dropShadow_336_26173"/>
<feBlend mode="normal" in="SourceGraphic" in2="effect1_dropShadow_336_26173" result="shape"/>
</filter>
<clipPath id="clip0_336_26173">
<rect width="24" height="18" fill="white" transform="translate(6 3)"/>
</clipPath>
</defs>
</svg>
