<svg width="36" height="31" viewBox="0 0 36 31" fill="none" xmlns="http://www.w3.org/2000/svg">
<g filter="url(#filter0_d_336_18083)">
<g clip-path="url(#clip0_336_18083)">
<path fill-rule="evenodd" clip-rule="evenodd" d="M-0.117188 3H36.1022V21.048H-0.117188V3Z" fill="#108C00"/>
<path fill-rule="evenodd" clip-rule="evenodd" d="M-0.175781 9.28125H36.2234V11.0473H-0.175781V9.28125Z" fill="#FFD600"/>
<path fill-rule="evenodd" clip-rule="evenodd" d="M15.3711 3H17.0807V21.048H15.3746L15.3711 3Z" fill="#FFD600"/>
<path fill-rule="evenodd" clip-rule="evenodd" d="M17.0195 3H18.7256V21.048H17.0195V3Z" fill="black"/>
<path fill-rule="evenodd" clip-rule="evenodd" d="M-0.175781 10.9883H36.2234V12.7578H-0.175781V10.9883Z" fill="black"/>
<path fill-rule="evenodd" clip-rule="evenodd" d="M-0.175781 12.7578H36.2234V14.5238H-0.175781V12.7578Z" fill="white"/>
<path fill-rule="evenodd" clip-rule="evenodd" d="M18.7266 3H20.4362V21.048H18.7266V3Z" fill="white"/>
<path d="M13.247 12.0379C13.247 14.7147 15.4075 16.8848 18.0727 16.8848C20.7379 16.8848 22.8984 14.7147 22.8984 12.0379C22.8984 9.36104 20.7379 7.19102 18.0727 7.19102C15.4075 7.19102 13.247 9.36104 13.247 12.0379Z" fill="#E72910"/>
<path fill-rule="evenodd" clip-rule="evenodd" d="M17.8195 7.82963L18.0169 7.26562L18.1967 7.81905C18.1967 7.81905 18.7995 7.83667 18.7995 7.8261C18.7995 7.81552 18.3236 8.18917 18.3236 8.18917L18.5386 8.80958C18.5316 8.79195 18.0169 8.42535 18.0169 8.42535C18.0169 8.42535 17.4952 8.79195 17.5058 8.79195C17.5164 8.79195 17.7032 8.1927 17.7032 8.1927L17.2344 7.83667L17.8195 7.8261V7.82963Z" fill="black"/>
<path fill-rule="evenodd" clip-rule="evenodd" d="M17.8471 7.85402L18.0127 7.37109L18.1678 7.85049C18.1678 7.85049 18.6931 7.86459 18.6931 7.85754C18.6931 7.85049 18.2806 8.17479 18.2806 8.17479L18.4639 8.71059C18.4569 8.69297 18.0127 8.37924 18.0127 8.37924C18.0127 8.37924 17.5615 8.69649 17.5686 8.69649C17.5756 8.69649 17.7448 8.17479 17.7448 8.17479L17.3359 7.86459L17.8435 7.85754L17.8471 7.85402Z" fill="#FFE700"/>
<path fill-rule="evenodd" clip-rule="evenodd" d="M17.918 7.9363L18.0167 7.6543L18.1083 7.93277C18.1083 7.93277 18.4079 7.93982 18.4079 7.93277C18.4079 7.92572 18.1718 8.11607 18.1718 8.11607L18.2775 8.42627C18.274 8.4157 18.0167 8.23592 18.0167 8.23592L17.7629 8.41922C17.7699 8.41922 17.8616 8.1196 17.8616 8.1196L17.6289 7.94335L17.918 7.9363V7.9363Z" fill="#108C00"/>
<path fill-rule="evenodd" clip-rule="evenodd" d="M21.5695 10.4663L21.7669 9.90234L21.9432 10.4558C21.9432 10.4558 22.5495 10.4769 22.5495 10.4663C22.5495 10.4558 22.0736 10.8294 22.0736 10.8294L22.2851 11.4498C22.2781 11.4322 21.7669 11.0656 21.7669 11.0656C21.7669 11.0656 21.2452 11.4322 21.2558 11.4322C21.2664 11.4322 21.4532 10.8329 21.4532 10.8329L20.9844 10.4734L21.5695 10.4628V10.4663Z" fill="black"/>
<path fill-rule="evenodd" clip-rule="evenodd" d="M21.5939 10.4939L21.7666 10.0039L21.9217 10.4868C21.9217 10.4868 22.4434 10.5009 22.4434 10.4939C22.4434 10.4868 22.031 10.8111 22.031 10.8111L22.2178 11.3434C22.2108 11.3293 21.7666 11.0121 21.7666 11.0121C21.7666 11.0121 21.3154 11.3293 21.3225 11.3293C21.3295 11.3293 21.4952 10.8076 21.4952 10.8076L21.0898 10.5009L21.5939 10.4939V10.4939Z" fill="#FFE700"/>
<path fill-rule="evenodd" clip-rule="evenodd" d="M21.6676 10.575L21.7663 10.293L21.8544 10.5679L22.1576 10.575L21.9178 10.7547C21.9178 10.7547 22.0306 11.072 22.0236 11.0649C22.0236 11.0544 21.7663 10.8746 21.7663 10.8746L21.509 11.0544L21.6077 10.7547L21.375 10.5785L21.6676 10.575Z" fill="#108C00"/>
<path fill-rule="evenodd" clip-rule="evenodd" d="M20.4758 14.6538L20.6732 14.0898L20.8494 14.6468C20.8494 14.6468 21.4557 14.6644 21.4557 14.6574C21.4557 14.6503 20.9799 15.0204 20.9799 15.0204L21.1914 15.6373C21.1843 15.6197 20.6732 15.2566 20.6732 15.2566C20.6732 15.2566 20.1515 15.6197 20.1585 15.6197C20.1656 15.6197 20.3595 15.0204 20.3595 15.0204L19.8906 14.6679L20.4758 14.6574V14.6538Z" fill="black"/>
<path fill-rule="evenodd" clip-rule="evenodd" d="M20.5002 14.6818L20.6729 14.1953L20.828 14.6747C20.828 14.6747 21.3497 14.6923 21.3497 14.6818C21.3497 14.6712 20.9373 14.999 20.9373 14.999L21.1241 15.5348C21.117 15.5172 20.6729 15.2035 20.6729 15.2035C20.6729 15.2035 20.2217 15.5207 20.2287 15.5207C20.2358 15.5207 20.4015 14.999 20.4015 14.999L19.9961 14.6923L20.5002 14.6818V14.6818Z" fill="#FFE700"/>
<path fill-rule="evenodd" clip-rule="evenodd" d="M20.5738 14.7625L20.6725 14.4805L20.7607 14.7589C20.7607 14.7589 21.0638 14.7695 21.0638 14.7625C21.0638 14.7554 20.8241 14.9458 20.8241 14.9458L20.9298 15.2524C20.9298 15.2454 20.6725 15.0621 20.6725 15.0621L20.4152 15.2454L20.5139 14.9458L20.2812 14.7695L20.5738 14.7625Z" fill="#108C00"/>
<path fill-rule="evenodd" clip-rule="evenodd" d="M15.2336 14.6538L15.431 14.0898L15.6072 14.6468C15.6072 14.6468 16.21 14.6644 16.21 14.6574C16.21 14.6503 15.7341 15.0204 15.7341 15.0204L15.9527 15.6373C15.9421 15.6197 15.431 15.2566 15.431 15.2566C15.431 15.2566 14.9093 15.6197 14.9163 15.6197C14.9234 15.6197 15.1173 15.0204 15.1173 15.0204L14.6484 14.6679L15.2336 14.6574V14.6538Z" fill="black"/>
<path fill-rule="evenodd" clip-rule="evenodd" d="M15.2615 14.6818L15.4307 14.1953L15.5858 14.6747C15.5858 14.6747 16.1075 14.6923 16.1075 14.6818C16.1075 14.6712 15.6951 14.999 15.6951 14.999L15.8819 15.5348C15.8749 15.5172 15.4307 15.2035 15.4307 15.2035C15.4307 15.2035 14.9795 15.5207 14.9866 15.5207C14.9936 15.5207 15.1593 14.999 15.1593 14.999L14.7539 14.6923L15.258 14.6818H15.2615Z" fill="#FFE700"/>
<path fill-rule="evenodd" clip-rule="evenodd" d="M15.3316 14.7625L15.4303 14.4805L15.5185 14.7589C15.5185 14.7589 15.8216 14.7695 15.8216 14.7625C15.8216 14.7554 15.5819 14.9458 15.5819 14.9458L15.6877 15.2524C15.6877 15.2454 15.4303 15.0621 15.4303 15.0621L15.173 15.2454L15.2717 14.9458L15.0391 14.7695L15.3316 14.7625Z" fill="#108C00"/>
<path fill-rule="evenodd" clip-rule="evenodd" d="M14.2766 10.357L14.474 9.79297L14.6537 10.3499C14.6537 10.3499 15.2565 10.3675 15.2565 10.357C15.2565 10.3464 14.7806 10.7236 14.7806 10.7236L14.9957 11.3404C14.9851 11.3228 14.474 10.9597 14.474 10.9597C14.474 10.9597 13.9523 11.3193 13.9628 11.3193C13.9734 11.3193 14.1602 10.72 14.1602 10.72L13.6914 10.3675L14.2766 10.357V10.357Z" fill="black"/>
<path fill-rule="evenodd" clip-rule="evenodd" d="M14.3045 10.3849L14.4737 9.89844L14.6323 10.3778C14.6323 10.3778 15.1505 10.3955 15.1505 10.3849C15.1505 10.3743 14.7381 10.7021 14.7381 10.7021L14.9249 11.2379C14.9178 11.2203 14.4737 10.9066 14.4737 10.9066C14.4737 10.9066 14.0225 11.2238 14.0331 11.2238C14.0436 11.2238 14.2023 10.7021 14.2023 10.7021L13.7969 10.3955L14.3045 10.3849V10.3849Z" fill="#FFE700"/>
<path fill-rule="evenodd" clip-rule="evenodd" d="M14.375 10.4656L14.4737 10.1836L14.5653 10.4621L14.865 10.4656L14.6288 10.6489L14.7345 10.9556C14.731 10.9485 14.4737 10.7652 14.4737 10.7652L14.2199 10.9485C14.2269 10.9485 14.3186 10.6489 14.3186 10.6489L14.0859 10.4726L14.375 10.4656V10.4656Z" fill="#108C00"/>
<path fill-rule="evenodd" clip-rule="evenodd" d="M20.4331 9.1362L20.2357 9.7002L20.0594 9.14677C20.0594 9.14677 19.4531 9.12915 19.4531 9.1362C19.4531 9.14325 19.929 8.77313 19.929 8.77313L19.7175 8.15625C19.7245 8.17388 20.2357 8.53695 20.2357 8.53695C20.2357 8.53695 20.7574 8.17388 20.7468 8.17388C20.7362 8.17388 20.5494 8.77313 20.5494 8.77313L21.0182 9.12563L20.4331 9.1362V9.1362Z" fill="black"/>
<path fill-rule="evenodd" clip-rule="evenodd" d="M20.4081 9.10734C20.4081 9.11791 20.2319 9.59731 20.2319 9.59731L20.0803 9.11791C20.0803 9.11791 19.5586 9.10029 19.5586 9.10734C19.5586 9.11439 19.971 8.79361 19.971 8.79361L19.7842 8.25781C19.7912 8.27544 20.2354 8.58916 20.2354 8.58916C20.2354 8.58916 20.6866 8.27191 20.6795 8.27191C20.6725 8.27191 20.5068 8.79361 20.5068 8.79361L20.9122 9.10029L20.4046 9.10734H20.4081Z" fill="#FFE700"/>
<path fill-rule="evenodd" clip-rule="evenodd" d="M20.3337 9.02747L20.235 9.30947L20.1469 9.03452C20.1469 9.03452 19.8438 9.02394 19.8438 9.03099C19.8438 9.03804 20.0835 8.84769 20.0835 8.84769L19.9777 8.54102C19.9777 8.54807 20.235 8.73137 20.235 8.73137L20.4923 8.54807C20.4853 8.54807 20.3901 8.84769 20.3901 8.84769L20.6263 9.02394L20.3337 9.03099V9.02747Z" fill="#108C00"/>
<path fill-rule="evenodd" clip-rule="evenodd" d="M21.937 13.2335L21.7396 13.7975L21.5633 13.2405C21.5633 13.2405 20.957 13.2229 20.957 13.2335C20.957 13.244 21.4329 12.8704 21.4329 12.8704L21.2214 12.25C21.2285 12.2676 21.7396 12.6307 21.7396 12.6307C21.7396 12.6307 22.2613 12.2676 22.2507 12.2676C22.2401 12.2676 22.0533 12.8669 22.0533 12.8669L22.5257 13.2229L21.9405 13.2335H21.937Z" fill="black"/>
<path fill-rule="evenodd" clip-rule="evenodd" d="M21.912 13.2046L21.7393 13.6911L21.5842 13.2117C21.5842 13.2117 21.0625 13.1976 21.0625 13.2046C21.0625 13.2117 21.4749 12.8874 21.4749 12.8874L21.2881 12.3516C21.2951 12.3692 21.7393 12.6829 21.7393 12.6829C21.7393 12.6829 22.1905 12.3657 22.1834 12.3657C22.1764 12.3657 22.0107 12.8874 22.0107 12.8874L22.4161 13.1976L21.9085 13.2046H21.912Z" fill="#FFE700"/>
<path fill-rule="evenodd" clip-rule="evenodd" d="M21.8376 13.1247L21.7389 13.4067L21.6508 13.1283C21.6508 13.1283 21.3477 13.1212 21.3477 13.1283C21.3477 13.1353 21.5874 12.945 21.5874 12.945L21.4816 12.6348C21.4816 12.6453 21.7389 12.8251 21.7389 12.8251L21.9963 12.6418C21.9892 12.6418 21.894 12.945 21.894 12.945L22.1302 13.1212L21.8376 13.1247V13.1247Z" fill="#108C00"/>
<path fill-rule="evenodd" clip-rule="evenodd" d="M18.2026 16.2296L18.0052 16.7936L17.829 16.2366C17.829 16.2366 17.2227 16.219 17.2227 16.226C17.2227 16.2331 17.6985 15.863 17.6985 15.863L17.487 15.2461C17.4941 15.2637 18.0052 15.6268 18.0052 15.6268C18.0052 15.6268 18.5269 15.2637 18.5163 15.2637C18.5058 15.2637 18.3189 15.863 18.3189 15.863L18.7878 16.219L18.2026 16.2296Z" fill="black"/>
<path fill-rule="evenodd" clip-rule="evenodd" d="M18.1777 16.1972L18.0049 16.6907L17.8498 16.2078C17.8498 16.2078 17.3281 16.1901 17.3281 16.2007C17.3281 16.2113 17.7405 15.8835 17.7405 15.8835L17.5537 15.3477C17.5608 15.3653 18.0049 15.679 18.0049 15.679C18.0049 15.679 18.4561 15.3618 18.4491 15.3618C18.442 15.3618 18.2763 15.8835 18.2763 15.8835L18.6817 16.1901L18.1777 16.2007V16.1972Z" fill="#FFE700"/>
<path fill-rule="evenodd" clip-rule="evenodd" d="M18.1033 16.1208L18.0046 16.4028L17.9164 16.1244C17.9164 16.1244 17.6133 16.1138 17.6133 16.1208C17.6133 16.1279 17.853 15.9375 17.853 15.9375L17.7472 15.6309C17.7472 15.6379 18.0046 15.8212 18.0046 15.8212L18.2619 15.6379L18.1632 15.9375L18.3958 16.1138L18.1033 16.1208Z" fill="#108C00"/>
<path fill-rule="evenodd" clip-rule="evenodd" d="M14.6983 13.2335L14.4974 13.7975L14.3211 13.2405C14.3211 13.2405 13.7148 13.2229 13.7148 13.2335C13.7148 13.244 14.1907 12.8704 14.1907 12.8704L13.9792 12.25C13.9863 12.2676 14.4974 12.6307 14.4974 12.6307L15.0156 12.2712L14.8146 12.8704L15.2835 13.2264L14.6983 13.237V13.2335Z" fill="black"/>
<path fill-rule="evenodd" clip-rule="evenodd" d="M14.6698 13.2046L14.4971 13.6911L14.342 13.2117C14.342 13.2117 13.8203 13.1976 13.8203 13.2046C13.8203 13.2117 14.2327 12.8874 14.2327 12.8874L14.0459 12.3516C14.053 12.3692 14.4971 12.6829 14.4971 12.6829C14.4971 12.6829 14.9483 12.3657 14.9413 12.3657C14.9342 12.3657 14.7685 12.8874 14.7685 12.8874L15.1739 13.1976L14.6698 13.2046V13.2046Z" fill="#FFE700"/>
<path fill-rule="evenodd" clip-rule="evenodd" d="M14.5954 13.1247L14.4967 13.4067L14.4086 13.1283C14.4086 13.1283 14.1055 13.1212 14.1055 13.1283C14.1055 13.1353 14.3452 12.945 14.3452 12.945L14.2394 12.6348C14.2394 12.6453 14.4967 12.8251 14.4967 12.8251L14.7541 12.6418L14.6554 12.945L14.888 13.1212L14.5954 13.1247V13.1247Z" fill="#108C00"/>
<path fill-rule="evenodd" clip-rule="evenodd" d="M15.9917 9.19675L15.7943 9.76075L15.611 9.20732C15.611 9.20732 15.0117 9.1897 15.0117 9.19675C15.0117 9.2038 15.4876 8.83367 15.4876 8.83367L15.2726 8.2168C15.2796 8.23442 15.7907 8.5975 15.7907 8.5975C15.7907 8.5975 16.3124 8.23442 16.3054 8.23442C16.2983 8.23442 16.108 8.83367 16.108 8.83367L16.5733 9.18617L15.9917 9.20027V9.19675Z" fill="black"/>
<path fill-rule="evenodd" clip-rule="evenodd" d="M15.9628 9.16788L15.7901 9.66138L15.635 9.17846C15.635 9.17846 15.1133 9.16083 15.1133 9.17141C15.1133 9.18198 15.5257 8.85416 15.5257 8.85416L15.3389 8.31836C15.3459 8.33598 15.7901 8.64971 15.7901 8.64971C15.7901 8.64971 16.2413 8.33246 16.2342 8.33246C16.2272 8.33246 16.065 8.85416 16.065 8.85416L16.4669 9.16083L15.9628 9.17141V9.16788Z" fill="#FFE700"/>
<path fill-rule="evenodd" clip-rule="evenodd" d="M15.8888 9.09154L15.7901 9.37354L15.702 9.09506C15.702 9.09506 15.4023 9.08449 15.4023 9.09154C15.4023 9.09859 15.6385 8.90824 15.6385 8.90824L15.5328 8.60156C15.5328 8.60861 15.7901 8.79191 15.7901 8.79191L16.0474 8.60861L15.9487 8.90824L16.1814 9.08449L15.8888 9.09154V9.09154Z" fill="#108C00"/>
<path d="M18.3623 14.319C18.502 14.3015 18.6152 13.7266 18.6152 13.0349C18.6152 12.3432 18.502 11.7966 18.3623 11.8141C18.2226 11.8315 18.1094 12.4064 18.1094 13.0982C18.1094 13.7899 18.2226 14.3365 18.3623 14.319Z" fill="#009200" stroke="black" stroke-width="0.0407982"/>
<path d="M18.6851 14.2992C18.8347 14.2804 18.956 13.7045 18.956 13.0128C18.956 12.3211 18.8347 11.7755 18.6851 11.7943C18.5354 11.813 18.4141 12.3889 18.4141 13.0806C18.4141 13.7723 18.5354 14.3179 18.6851 14.2992Z" fill="#009200" stroke="black" stroke-width="0.0422301"/>
<path d="M18.5566 14.4783C18.6764 14.4633 18.7734 13.8344 18.7734 13.0735C18.7734 12.3126 18.6764 11.7079 18.5566 11.7229C18.4369 11.7379 18.3398 12.3668 18.3398 13.1277C18.3398 13.8886 18.4369 14.4933 18.5566 14.4783Z" fill="#009200" stroke="black" stroke-width="0.0396154"/>
<path fill-rule="evenodd" clip-rule="evenodd" d="M17.0703 13.3667C17.2903 13.3557 17.195 13.2457 17.3049 13.1834C17.4149 13.1247 17.5726 13.1614 17.6202 13.2347C17.6679 13.308 17.6312 13.3813 17.6935 13.3813C17.7559 13.3813 19.4166 13.2897 19.4752 13.3483C19.5339 13.4107 19.5485 13.5316 19.4862 13.5793C19.4276 13.6306 17.3269 13.6893 17.2536 13.638C17.1803 13.5866 17.0703 13.3813 17.0703 13.3667V13.3667Z" fill="#A95600" stroke="black" stroke-width="0.0404788"/>
<path fill-rule="evenodd" clip-rule="evenodd" d="M18.2178 13.8017C18.2178 13.9483 18.4686 13.9036 18.4752 14.026C18.4713 14.1558 18.0534 14.0388 18.043 13.8017C18.0534 13.5641 18.4554 13.4424 18.4647 13.578C18.4713 13.6902 18.2173 13.655 18.2173 13.8017H18.2178Z" fill="#FFFF00" stroke="black" stroke-width="0.0386694"/>
<path fill-rule="evenodd" clip-rule="evenodd" d="M18.3663 13.8056C18.3663 13.9522 18.617 13.9075 18.6236 14.0299C18.6198 14.1597 18.2019 14.0427 18.1914 13.8056C18.2019 13.568 18.6038 13.4463 18.6132 13.5819C18.6198 13.6941 18.3657 13.6589 18.3657 13.8056H18.3663Z" fill="#FFFF00" stroke="black" stroke-width="0.0386694"/>
<path fill-rule="evenodd" clip-rule="evenodd" d="M18.5225 13.7977C18.5225 13.9444 18.7733 13.8997 18.7799 14.0221C18.776 14.1519 18.3581 14.0349 18.3477 13.7977C18.3581 13.5602 18.7601 13.4385 18.7694 13.5741C18.776 13.6863 18.522 13.6511 18.522 13.7977H18.5225Z" fill="#FFFF00" stroke="black" stroke-width="0.0386694"/>
<path fill-rule="evenodd" clip-rule="evenodd" d="M18.671 13.7977C18.671 13.9444 18.9217 13.8997 18.9283 14.0221C18.9245 14.1519 18.5065 14.0349 18.4961 13.7977C18.5065 13.5602 18.9085 13.4385 18.9179 13.5741C18.9245 13.6863 18.6704 13.6511 18.6704 13.7977H18.671Z" fill="#FFFF00" stroke="black" stroke-width="0.0386694"/>
<path d="M19.3744 14.2443C19.4524 14.2457 19.5167 14.1827 19.5181 14.1036C19.5194 14.0244 19.4574 13.9591 19.3794 13.9576C19.3015 13.9562 19.2372 14.0193 19.2358 14.0984C19.2344 14.1776 19.2965 14.2429 19.3744 14.2443Z" fill="#A95600" stroke="black" stroke-width="0.0364276"/>
<path d="M18.4986 14.1178C18.5698 14.1106 18.6148 13.9788 18.599 13.8234C18.5832 13.6681 18.5127 13.548 18.4415 13.5553C18.3702 13.5625 18.3253 13.6943 18.3411 13.8496C18.3569 14.005 18.4274 14.125 18.4986 14.1178Z" fill="#009200" stroke="black" stroke-width="0.0472059"/>
<path d="M18.2799 14.0983C18.3511 14.091 18.396 13.9592 18.3803 13.8039C18.3645 13.6486 18.2939 13.5285 18.2227 13.5357C18.1515 13.543 18.1065 13.6748 18.1223 13.8301C18.1381 13.9854 18.2086 14.1055 18.2799 14.0983Z" fill="#009200" stroke="black" stroke-width="0.0472059"/>
<path d="M18.1275 13.8229C18.1987 13.8157 18.2437 13.6839 18.2279 13.5285C18.2121 13.3732 18.1416 13.2531 18.0704 13.2603C17.9991 13.2676 17.9542 13.3994 17.97 13.5547C17.9858 13.7101 18.0563 13.8301 18.1275 13.8229Z" fill="#009200" stroke="black" stroke-width="0.0472059"/>
<path d="M18.2854 13.7729C18.3525 13.7661 18.3928 13.6228 18.3756 13.4529C18.3583 13.283 18.29 13.1508 18.2229 13.1576C18.1559 13.1644 18.1156 13.3077 18.1328 13.4776C18.1501 13.6475 18.2184 13.7797 18.2854 13.7729Z" fill="#009200" stroke="black" stroke-width="0.0478951"/>
<path d="M18.5866 13.81C18.6536 13.8032 18.6947 13.6678 18.6785 13.5076C18.6622 13.3474 18.5947 13.223 18.5276 13.2299C18.4606 13.2367 18.4194 13.3721 18.4357 13.5323C18.452 13.6924 18.5195 13.8168 18.5866 13.81Z" fill="#009200" stroke="black" stroke-width="0.0465065"/>
<path d="M18.4225 13.7084C18.4895 13.7016 18.5307 13.5662 18.5144 13.406C18.4981 13.2458 18.4306 13.1215 18.3636 13.1283C18.2965 13.1351 18.2554 13.2705 18.2717 13.4307C18.2879 13.5909 18.3555 13.7152 18.4225 13.7084Z" fill="#009200" stroke="black" stroke-width="0.0465065"/>
<path d="M18.2155 13.5639C18.2825 13.5571 18.3237 13.4217 18.3074 13.2615C18.2911 13.1013 18.2236 12.977 18.1565 12.9838C18.0895 12.9906 18.0483 13.126 18.0646 13.2862C18.0809 13.4464 18.1484 13.5707 18.2155 13.5639Z" fill="#009200" stroke="black" stroke-width="0.0465065"/>
<path d="M18.0241 13.4799C18.0911 13.4731 18.1322 13.3377 18.116 13.1775C18.0997 13.0173 18.0322 12.893 17.9651 12.8998C17.8981 12.9066 17.8569 13.042 17.8732 13.2022C17.8895 13.3624 17.957 13.4867 18.0241 13.4799Z" fill="#009200" stroke="black" stroke-width="0.0465065"/>
<path fill-rule="evenodd" clip-rule="evenodd" d="M17.8484 10.4998C17.8484 10.4998 17.4195 10.8664 17.4782 11.8525C17.5442 12.8423 18.4497 13.3006 18.4497 13.3006C18.4497 13.3006 18.6769 13.0183 18.6403 12.2191C18.567 11.0533 18.1344 10.5438 18.1344 10.5438L17.8484 10.4961V10.4998Z" fill="#804BFF" stroke="black" stroke-width="0.0404788"/>
<path d="M18.745 14.1579C18.8164 14.1635 18.8842 14.0418 18.8964 13.8862C18.9087 13.7305 18.8608 13.5998 18.7894 13.5942C18.718 13.5885 18.6502 13.7102 18.638 13.8658C18.6257 14.0215 18.6737 14.1522 18.745 14.1579Z" fill="#009200" stroke="black" stroke-width="0.0472059"/>
<path d="M18.5341 14.1012C18.6055 14.1068 18.6732 13.9852 18.6855 13.8295C18.6977 13.6739 18.6498 13.5431 18.5784 13.5375C18.5071 13.5319 18.4393 13.6535 18.427 13.8092C18.4148 13.9649 18.4627 14.0956 18.5341 14.1012Z" fill="#009200" stroke="black" stroke-width="0.0472059"/>
<path d="M18.4325 13.8024C18.5039 13.808 18.5717 13.6864 18.5839 13.5307C18.5962 13.375 18.5483 13.2443 18.4769 13.2387C18.4055 13.2331 18.3377 13.3547 18.3255 13.5104C18.3132 13.666 18.3612 13.7968 18.4325 13.8024Z" fill="#009200" stroke="black" stroke-width="0.0472059"/>
<path d="M18.5965 13.7824C18.6637 13.7877 18.729 13.6539 18.7424 13.4837C18.7558 13.3134 18.7122 13.1711 18.6451 13.1658C18.5779 13.1605 18.5126 13.2943 18.4992 13.4645C18.4858 13.6348 18.5294 13.7771 18.5965 13.7824Z" fill="#009200" stroke="black" stroke-width="0.0478951"/>
<path d="M18.8884 13.8721C18.9556 13.8774 19.0202 13.7516 19.0329 13.5911C19.0455 13.4305 19.0013 13.2961 18.9341 13.2908C18.867 13.2855 18.8023 13.4114 18.7896 13.5719C18.777 13.7324 18.8212 13.8669 18.8884 13.8721Z" fill="#009200" stroke="black" stroke-width="0.0465065"/>
<path d="M18.7438 13.7432C18.811 13.7485 18.8757 13.6227 18.8884 13.4621C18.901 13.3016 18.8568 13.1672 18.7896 13.1619C18.7224 13.1566 18.6577 13.2825 18.6451 13.443C18.6325 13.6035 18.6767 13.7379 18.7438 13.7432Z" fill="#009200" stroke="black" stroke-width="0.0465065"/>
<path d="M18.5681 13.5635C18.6352 13.5688 18.6999 13.443 18.7126 13.2825C18.7252 13.1219 18.681 12.9875 18.6138 12.9822C18.5466 12.9769 18.4819 13.1028 18.4693 13.2633C18.4567 13.4238 18.5009 13.5583 18.5681 13.5635Z" fill="#009200" stroke="black" stroke-width="0.0465065"/>
<path d="M18.3923 13.4464C18.4595 13.4516 18.5242 13.3258 18.5368 13.1653C18.5494 13.0047 18.5052 12.8703 18.438 12.865C18.3709 12.8598 18.3062 12.9856 18.2935 13.1461C18.2809 13.3067 18.3251 13.4411 18.3923 13.4464Z" fill="#009200" stroke="black" stroke-width="0.0465065"/>
<path d="M19.1116 13.337C19.3005 13.2661 19.2699 12.7496 19.0434 12.1832C18.8168 11.6167 18.48 11.215 18.2912 11.2858C18.1023 11.3566 18.1329 11.8732 18.3594 12.4396C18.586 13.006 18.9228 13.4078 19.1116 13.337Z" fill="#C90000" stroke="black" stroke-width="0.017935"/>
<path d="M18.4893 11.4603C18.5768 11.4618 18.6488 11.3996 18.6502 11.3212C18.6515 11.2429 18.5817 11.1781 18.4943 11.1766C18.4068 11.1751 18.3348 11.2373 18.3335 11.3157C18.3321 11.394 18.4019 11.4588 18.4893 11.4603Z" fill="#009200" stroke="black" stroke-width="0.0420668"/>
<path d="M18.5399 11.2588C18.6164 11.2601 18.6795 11.1977 18.6809 11.1193C18.6822 11.041 18.6213 10.9764 18.5448 10.9751C18.4683 10.9737 18.4051 11.0362 18.4038 11.1145C18.4024 11.1929 18.4633 11.2574 18.5399 11.2588Z" fill="#009200" stroke="black" stroke-width="0.0419732"/>
<path d="M18.3484 11.2568C18.425 11.2582 18.4881 11.1957 18.4895 11.1174C18.4908 11.039 18.4299 10.9745 18.3534 10.9731C18.2769 10.9718 18.2137 11.0342 18.2124 11.1126C18.211 11.1909 18.2719 11.2555 18.3484 11.2568Z" fill="#009200" stroke="black" stroke-width="0.0419732"/>
<path d="M18.4233 10.9415C18.5042 10.9429 18.5707 10.8869 18.572 10.8164C18.5732 10.7459 18.5086 10.6876 18.4277 10.6862C18.3468 10.6847 18.2803 10.7408 18.279 10.8113C18.2778 10.8818 18.3424 10.9401 18.4233 10.9415Z" fill="#009200" stroke="black" stroke-width="0.0409411"/>
<path d="M18.4076 10.7774C18.4885 10.7788 18.5551 10.7228 18.5563 10.6523C18.5576 10.5818 18.493 10.5235 18.4121 10.5221C18.3312 10.5207 18.2646 10.5767 18.2634 10.6472C18.2622 10.7177 18.3267 10.776 18.4076 10.7774Z" fill="#009200" stroke="black" stroke-width="0.0409411"/>
<path d="M18.1688 11.1494C18.2453 11.1507 18.3084 11.0883 18.3098 11.01C18.3112 10.9316 18.2502 10.867 18.1737 10.8657C18.0972 10.8644 18.034 10.9268 18.0327 11.0051C18.0313 11.0835 18.0922 11.1481 18.1688 11.1494Z" fill="#009200" stroke="black" stroke-width="0.0419732"/>
<path d="M18.2078 11.0478C18.2843 11.0492 18.3475 10.9868 18.3488 10.9084C18.3502 10.8301 18.2893 10.7655 18.2128 10.7641C18.1363 10.7628 18.0731 10.8252 18.0717 10.9036C18.0704 10.9819 18.1313 11.0465 18.2078 11.0478Z" fill="#009200" stroke="black" stroke-width="0.0419732"/>
<path d="M18.0518 10.9759C18.1393 10.9774 18.2113 10.9152 18.2127 10.8368C18.214 10.7585 18.1442 10.6937 18.0568 10.6922C17.9693 10.6907 17.8973 10.753 17.896 10.8313C17.8946 10.9096 17.9644 10.9744 18.0518 10.9759Z" fill="#009200" stroke="black" stroke-width="0.0420668"/>
<path d="M18.3022 10.5743C18.3831 10.5757 18.4496 10.5197 18.4509 10.4492C18.4521 10.3787 18.3875 10.3204 18.3066 10.319C18.2257 10.3176 18.1592 10.3736 18.1579 10.4441C18.1567 10.5146 18.2213 10.5729 18.3022 10.5743Z" fill="#009200" stroke="black" stroke-width="0.0409411"/>
<path d="M18.0711 10.8486C18.1476 10.85 18.2108 10.7875 18.2121 10.7092C18.2135 10.6308 18.1526 10.5663 18.0761 10.5649C17.9995 10.5636 17.9364 10.626 17.935 10.7044C17.9337 10.7827 17.9946 10.8473 18.0711 10.8486Z" fill="#009200" stroke="black" stroke-width="0.0419732"/>
<path d="M17.7703 10.9814C17.8468 10.9828 17.91 10.9203 17.9113 10.842C17.9127 10.7637 17.8518 10.6991 17.7753 10.6977C17.6988 10.6964 17.6356 10.7588 17.6342 10.8372C17.6329 10.9155 17.6938 10.9801 17.7703 10.9814Z" fill="#009200" stroke="black" stroke-width="0.0419732"/>
<path d="M17.8211 10.958C17.8976 10.9593 17.9608 10.8969 17.9621 10.8186C17.9635 10.7402 17.9026 10.6756 17.8261 10.6743C17.7495 10.673 17.6864 10.7354 17.685 10.8137C17.6837 10.8921 17.7446 10.9567 17.8211 10.958Z" fill="#009200" stroke="black" stroke-width="0.0419732"/>
<path d="M17.8797 10.8447C17.9562 10.8461 18.0194 10.7836 18.0207 10.7053C18.0221 10.6269 17.9612 10.5623 17.8846 10.561C17.8081 10.5597 17.745 10.6221 17.7436 10.7004C17.7423 10.7788 17.8032 10.8434 17.8797 10.8447Z" fill="#009200" stroke="black" stroke-width="0.0419732"/>
<path d="M19.2174 13.8497C19.4581 13.7678 19.4346 13.1143 19.1648 12.39C18.8951 11.6657 18.4813 11.1449 18.2406 11.2267C17.9998 11.3086 18.0234 11.9622 18.2931 12.6865C18.5628 13.4108 18.9767 13.9316 19.2174 13.8497Z" fill="#009200" stroke="black" stroke-width="0.0376451"/>
<path d="M19.2046 13.0377C19.249 13.0163 19.2372 12.8761 19.1782 12.7244C19.1191 12.5728 19.0352 12.4672 18.9907 12.4886C18.9462 12.51 18.958 12.6503 19.0171 12.8019C19.0761 12.9535 19.1601 13.0591 19.2046 13.0377Z" fill="#009200" stroke="black" stroke-width="0.0384582"/>
<path fill-rule="evenodd" clip-rule="evenodd" d="M19.0374 12.7482C19.3991 13.2474 19.3446 13.5574 19.2996 13.8192C19.1889 13.5127 19.1312 13.3203 18.7694 12.8211C18.4077 12.3218 18.6007 11.9836 18.63 11.8027C18.6826 11.9613 18.6757 12.249 19.0374 12.7482V12.7482Z" fill="#009200" stroke="black" stroke-width="0.0388222"/>
<path fill-rule="evenodd" clip-rule="evenodd" d="M19.0648 13.1447C19.4265 13.6439 19.3719 13.9539 19.327 14.2157C19.2163 13.9092 19.1585 13.7167 18.7968 13.2175C18.4351 12.7183 18.628 12.3801 18.6573 12.1991C18.7099 12.3578 18.703 12.6455 19.0648 13.1447V13.1447Z" fill="#009200" stroke="black" stroke-width="0.0388222"/>
<path fill-rule="evenodd" clip-rule="evenodd" d="M19.0944 13.4614C19.4675 13.9521 19.4198 14.2634 19.3807 14.5263C19.2631 14.2224 19.201 14.0313 18.8278 13.5406C18.4547 13.0498 18.6402 12.7069 18.6655 12.5253C18.7217 12.6827 18.7212 12.9706 19.0944 13.4614V13.4614Z" fill="#009200" stroke="black" stroke-width="0.0388479"/>
<path d="M19.0036 12.8094C19.0909 12.7878 19.0772 12.5507 18.9732 12.2798C18.8691 12.0088 18.714 11.8066 18.6267 11.8282C18.5395 11.8497 18.5531 12.0868 18.6572 12.3578C18.7613 12.6287 18.9164 12.8309 19.0036 12.8094Z" fill="#009200" stroke="black" stroke-width="0.0388119"/>
<path d="M18.844 12.9552C18.923 12.9428 18.9219 12.7519 18.8417 12.5289C18.7614 12.3059 18.6322 12.1351 18.5532 12.1475C18.4742 12.1599 18.4752 12.3507 18.5555 12.5738C18.6358 12.7968 18.765 12.9676 18.844 12.9552Z" fill="#009200" stroke="black" stroke-width="0.0378144"/>
<path d="M18.592 13.1223C18.671 13.1115 18.6748 12.9206 18.6004 12.696C18.5261 12.4713 18.4018 12.2979 18.3227 12.3086C18.2437 12.3194 18.24 12.5103 18.3143 12.735C18.3886 12.9597 18.513 13.1331 18.592 13.1223Z" fill="#009200" stroke="black" stroke-width="0.0377287"/>
<path d="M18.7539 12.3307C18.8169 12.32 18.8113 12.1773 18.7414 12.0121C18.6716 11.8469 18.5638 11.7217 18.5008 11.7325C18.4378 11.7432 18.4434 11.8859 18.5133 12.0511C18.5831 12.2163 18.6909 12.3415 18.7539 12.3307Z" fill="#009200" stroke="black" stroke-width="0.038601"/>
<path d="M18.6251 12.4942C18.6895 12.4872 18.6936 12.3436 18.6341 12.1734C18.5746 12.0032 18.4742 11.8709 18.4097 11.8779C18.3452 11.8849 18.3412 12.0286 18.4007 12.1987C18.4601 12.3689 18.5606 12.5012 18.6251 12.4942Z" fill="#009200" stroke="black" stroke-width="0.0389726"/>
<path fill-rule="evenodd" clip-rule="evenodd" d="M18.3953 12.0092C18.4985 12.3033 18.5368 12.5667 18.4803 12.5971C18.4239 12.6275 18.2946 12.4133 18.1914 12.1191" fill="#009200"/>
<path d="M18.3953 12.0092C18.4985 12.3033 18.5368 12.5667 18.4803 12.5971C18.4239 12.6275 18.2946 12.4133 18.1914 12.1191" stroke="black" stroke-width="0.0390226"/>
<path d="M18.6173 12.1524C18.6817 12.1454 18.6858 12.0018 18.6263 11.8316C18.5668 11.6614 18.4663 11.5291 18.4019 11.5362C18.3374 11.5432 18.3334 11.6868 18.3928 11.8569C18.4523 12.0271 18.5528 12.1594 18.6173 12.1524Z" fill="#009200" stroke="black" stroke-width="0.0389726"/>
<path d="M18.4307 12.2785C18.4952 12.2731 18.5016 12.1294 18.4451 11.9576C18.3886 11.7858 18.2906 11.6509 18.2261 11.6563C18.1616 11.6616 18.1552 11.8053 18.2117 11.9771C18.2682 12.1489 18.3663 12.2839 18.4307 12.2785Z" fill="#009200" stroke="black" stroke-width="0.0389919"/>
<path fill-rule="evenodd" clip-rule="evenodd" d="M18.2264 11.6115C18.3296 11.8109 18.3837 11.9959 18.3471 12.0245C18.3104 12.0531 18.197 11.9143 18.0938 11.7148" fill="#009200"/>
<path d="M18.2264 11.6115C18.3296 11.8109 18.3837 11.9959 18.3471 12.0245C18.3104 12.0531 18.197 11.9143 18.0938 11.7148" stroke="black" stroke-width="0.0389665"/>
<path fill-rule="evenodd" clip-rule="evenodd" d="M18.3006 11.4826C18.4038 11.682 18.458 11.867 18.4213 11.8956C18.3846 11.9242 18.2712 11.7854 18.168 11.5859" fill="#009200"/>
<path d="M18.3006 11.4826C18.4038 11.682 18.458 11.867 18.4213 11.8956C18.3846 11.9242 18.2712 11.7854 18.168 11.5859" stroke="black" stroke-width="0.0389665"/>
<path fill-rule="evenodd" clip-rule="evenodd" d="M18.6353 11.5526C18.7789 11.8268 18.8539 12.0808 18.8024 12.1198C18.7509 12.1587 18.5928 11.9676 18.4492 11.6934" fill="#009200"/>
<path d="M18.6353 11.5526C18.7789 11.8268 18.8539 12.0808 18.8024 12.1198C18.7509 12.1587 18.5928 11.9676 18.4492 11.6934" stroke="black" stroke-width="0.0390239"/>
<path fill-rule="evenodd" clip-rule="evenodd" d="M18.4178 11.3622C18.521 11.5816 18.5752 11.7852 18.5385 11.8168C18.5018 11.8485 18.3884 11.6959 18.2852 11.4766" fill="#009200"/>
<path d="M18.4178 11.3622C18.521 11.5816 18.5752 11.7852 18.5385 11.8168C18.5018 11.8485 18.3884 11.6959 18.2852 11.4766" stroke="black" stroke-width="0.0384702"/>
<path fill-rule="evenodd" clip-rule="evenodd" d="M18.5686 10.5971C18.4964 10.6713 18.5709 10.8004 18.639 10.8447C18.7152 10.9068 19.1469 11.3141 19.4384 10.9415C19.1991 10.948 18.7422 10.4318 18.5686 10.5971Z" fill="#804BFF" stroke="black" stroke-width="0.0379724"/>
<path fill-rule="evenodd" clip-rule="evenodd" d="M18.5139 10.3803C18.4417 10.4545 18.5162 10.5836 18.5843 10.6279C18.6605 10.69 19.0922 11.0973 19.3837 10.7247C19.1444 10.7312 18.6875 10.215 18.5139 10.3803Z" fill="#804BFF" stroke="black" stroke-width="0.0379724"/>
<path fill-rule="evenodd" clip-rule="evenodd" d="M18.4514 10.1753C18.3792 10.2495 18.4537 10.3785 18.5218 10.4229C18.598 10.485 19.0297 10.8923 19.3212 10.5196C19.0819 10.5261 18.625 10.0099 18.4514 10.1753Z" fill="#804BFF" stroke="black" stroke-width="0.0379724"/>
<path fill-rule="evenodd" clip-rule="evenodd" d="M18.3068 9.94088C18.2347 10.0151 18.3092 10.1441 18.3772 10.1885C18.4535 10.2506 18.8852 10.6579 19.1767 10.2853C18.9374 10.2917 18.4805 9.77554 18.3068 9.94088Z" fill="#804BFF" stroke="black" stroke-width="0.0379724"/>
<path fill-rule="evenodd" clip-rule="evenodd" d="M17.6528 9.8378C17.7918 9.7292 18.0523 9.69708 18.2583 9.8054C18.4302 9.89214 18.7207 10.2433 18.9349 10.3266C18.879 10.3396 18.8204 10.3424 18.7626 10.3348C18.7048 10.3272 18.649 10.3093 18.5983 10.2823C18.4131 10.4236 18.3467 10.444 18.1545 10.472C17.8887 10.5106 17.665 10.4382 17.5845 10.2938C17.5007 10.1577 17.5296 9.93934 17.6528 9.8378V9.8378Z" fill="#804BFF" stroke="black" stroke-width="0.0395073"/>
<path d="M18.0573 10.0749C18.1292 10.0762 18.188 10.0452 18.1887 10.0057C18.1894 9.96623 18.1317 9.93321 18.0598 9.93196C17.9879 9.9307 17.9291 9.96169 17.9284 10.0012C17.9278 10.0406 17.9855 10.0737 18.0573 10.0749Z" fill="#FF0000" stroke="black" stroke-width="0.0364871"/>
<path d="M17.7423 10.392C17.8373 10.356 17.8968 10.282 17.8753 10.2269C17.8537 10.1718 17.7592 10.1564 17.6642 10.1925C17.5692 10.2286 17.5097 10.3025 17.5313 10.3576C17.5528 10.4127 17.6473 10.4281 17.7423 10.392Z" fill="#FFFF00" stroke="black" stroke-width="0.0402769"/>
<path d="M17.8535 10.2733C17.877 10.2737 17.8964 10.255 17.8968 10.2315C17.8972 10.208 17.8785 10.1887 17.855 10.1882C17.8315 10.1878 17.8122 10.2065 17.8118 10.23C17.8113 10.2535 17.8301 10.2729 17.8535 10.2733Z" fill="black"/>
<path fill-rule="evenodd" clip-rule="evenodd" d="M17.9105 10.0949C17.9258 10.148 17.8838 10.2206 17.7865 10.247C17.6876 10.284 17.6154 10.3666 17.5779 10.5015C17.4101 10.1959 17.5011 10.0652 17.6616 10.0328C17.7994 9.99293 17.8836 9.99734 17.9105 10.0949Z" fill="#FFFF00" stroke="black" stroke-width="0.047791"/>
<path d="M17.4979 10.4206C17.5168 10.421 17.5324 10.4059 17.5327 10.387C17.5331 10.3681 17.518 10.3525 17.4991 10.3522C17.4802 10.3518 17.4646 10.3669 17.4642 10.3858C17.4639 10.4047 17.479 10.4203 17.4979 10.4206Z" fill="black"/>
</g>
</g>
<defs>
<filter id="filter0_d_336_18083" x="0" y="-2" width="36" height="36" filterUnits="userSpaceOnUse" color-interpolation-filters="sRGB">
<feFlood flood-opacity="0" result="BackgroundImageFix"/>
<feColorMatrix in="SourceAlpha" type="matrix" values="0 0 0 0 0 0 0 0 0 0 0 0 0 0 0 0 0 0 127 0" result="hardAlpha"/>
<feOffset dy="4"/>
<feGaussianBlur stdDeviation="3"/>
<feComposite in2="hardAlpha" operator="out"/>
<feColorMatrix type="matrix" values="0 0 0 0 0 0 0 0 0 0 0 0 0 0 0 0 0 0 0.16 0"/>
<feBlend mode="normal" in2="BackgroundImageFix" result="effect1_dropShadow_336_18083"/>
<feBlend mode="normal" in="SourceGraphic" in2="effect1_dropShadow_336_18083" result="shape"/>
</filter>
<clipPath id="clip0_336_18083">
<rect width="24" height="18" fill="white" transform="translate(6 3)"/>
</clipPath>
</defs>
</svg>
