<svg width="36" height="31" viewBox="0 0 36 31" fill="none" xmlns="http://www.w3.org/2000/svg">
<g filter="url(#filter0_d_336_18021)">
<g clip-path="url(#clip0_336_18021)">
<path fill-rule="evenodd" clip-rule="evenodd" d="M4.51562 3H31.4894V7.4625H4.51562V3Z" fill="#0000FF"/>
<path fill-rule="evenodd" clip-rule="evenodd" d="M4.51562 16.4844H31.4894V20.9994H4.51562V16.4844Z" fill="#FFFF00"/>
<path fill-rule="evenodd" clip-rule="evenodd" d="M4.51562 11.9746H31.4894V16.4859H4.51562V11.9746Z" fill="#009A00"/>
<path fill-rule="evenodd" clip-rule="evenodd" d="M4.51562 7.46289H31.4894V11.9741H4.51562V7.46289Z" fill="white"/>
<path fill-rule="evenodd" clip-rule="evenodd" d="M15.7539 3.01953H20.2502V21.0008H15.7539V3.01953Z" fill="#FF0000"/>
<path fill-rule="evenodd" clip-rule="evenodd" d="M10.1877 6.96367L9.00641 6.14617L7.83266 6.97117L8.24141 5.58742L7.09766 4.72492L8.53016 4.68742L8.99891 3.32617L9.47516 4.68742L10.9039 4.71367L9.77141 5.58742" fill="#FFFF00"/>
</g>
</g>
<defs>
<filter id="filter0_d_336_18021" x="0" y="-2" width="36" height="36" filterUnits="userSpaceOnUse" color-interpolation-filters="sRGB">
<feFlood flood-opacity="0" result="BackgroundImageFix"/>
<feColorMatrix in="SourceAlpha" type="matrix" values="0 0 0 0 0 0 0 0 0 0 0 0 0 0 0 0 0 0 127 0" result="hardAlpha"/>
<feOffset dy="4"/>
<feGaussianBlur stdDeviation="3"/>
<feComposite in2="hardAlpha" operator="out"/>
<feColorMatrix type="matrix" values="0 0 0 0 0 0 0 0 0 0 0 0 0 0 0 0 0 0 0.16 0"/>
<feBlend mode="normal" in2="BackgroundImageFix" result="effect1_dropShadow_336_18021"/>
<feBlend mode="normal" in="SourceGraphic" in2="effect1_dropShadow_336_18021" result="shape"/>
</filter>
<clipPath id="clip0_336_18021">
<rect width="24" height="18" fill="white" transform="translate(6 3)"/>
</clipPath>
</defs>
</svg>
