<svg width="36" height="31" viewBox="0 0 36 31" fill="none" xmlns="http://www.w3.org/2000/svg">
<g filter="url(#filter0_d_336_30620)">
<g clip-path="url(#clip0_336_30620)">
<path d="M6 3H30V21H6V3Z" fill="#20603D"/>
<path d="M6 3H30V16.5H6V3Z" fill="#FAD201"/>
<path d="M6 3H30V12H6V3Z" fill="#00A1DE"/>
<path d="M28.0681 7.70273L26.0581 7.82024L27.9681 8.45524L25.9981 8.04774L27.6806 9.15274L25.8806 8.24774L27.2156 9.75524L25.7131 8.41774L26.6181 10.2177L25.5106 8.53524L25.9156 10.5027L25.2831 8.59524L25.1656 10.6052L25.1406 7.67773L28.0681 7.70273Z" fill="#E5BE01"/>
<path d="M28.0681 7.70352L26.0581 7.58601L27.9681 6.95101L25.9981 7.35851L27.6806 6.25351L25.8806 7.15851L27.2156 5.65101L25.7131 6.98851L26.6181 5.1885L25.5106 6.87101L25.9156 4.9035L25.2831 6.81101L25.1656 4.801L25.1406 7.72852L28.0681 7.70352Z" fill="#E5BE01"/>
<path d="M22.26 7.70273L24.27 7.82024L22.36 8.45524L24.33 8.04774L22.6475 9.15274L24.4475 8.24774L23.1125 9.75524L24.615 8.41774L23.71 10.2177L24.8175 8.53524L24.4125 10.5027L25.045 8.59524L25.1625 10.6052L25.1875 7.67773L22.26 7.70273Z" fill="#E5BE01"/>
<path d="M22.26 7.70352L24.27 7.58601L22.36 6.95101L24.33 7.35851L22.6475 6.25351L24.4475 7.15851L23.1125 5.65101L24.615 6.98851L23.71 5.1885L24.8175 6.87101L24.4125 4.9035L25.045 6.81101L25.1625 4.801L25.1875 7.72852L22.26 7.70352Z" fill="#E5BE01"/>
<path d="M25.1661 8.56071C25.6397 8.56071 26.0236 8.17679 26.0236 7.70321C26.0236 7.22962 25.6397 6.8457 25.1661 6.8457C24.6925 6.8457 24.3086 7.22962 24.3086 7.70321C24.3086 8.17679 24.6925 8.56071 25.1661 8.56071Z" fill="#E5BE01" stroke="#00A1DE" stroke-width="0.18889"/>
</g>
</g>
<defs>
<filter id="filter0_d_336_30620" x="0" y="-2" width="36" height="36" filterUnits="userSpaceOnUse" color-interpolation-filters="sRGB">
<feFlood flood-opacity="0" result="BackgroundImageFix"/>
<feColorMatrix in="SourceAlpha" type="matrix" values="0 0 0 0 0 0 0 0 0 0 0 0 0 0 0 0 0 0 127 0" result="hardAlpha"/>
<feOffset dy="4"/>
<feGaussianBlur stdDeviation="3"/>
<feComposite in2="hardAlpha" operator="out"/>
<feColorMatrix type="matrix" values="0 0 0 0 0 0 0 0 0 0 0 0 0 0 0 0 0 0 0.16 0"/>
<feBlend mode="normal" in2="BackgroundImageFix" result="effect1_dropShadow_336_30620"/>
<feBlend mode="normal" in="SourceGraphic" in2="effect1_dropShadow_336_30620" result="shape"/>
</filter>
<clipPath id="clip0_336_30620">
<rect width="24" height="18" fill="white" transform="translate(6 3)"/>
</clipPath>
</defs>
</svg>
