<svg width="36" height="31" viewBox="0 0 36 31" fill="none" xmlns="http://www.w3.org/2000/svg">
<g filter="url(#filter0_d_336_29232)">
<g clip-path="url(#clip0_336_29232)">
<path fill-rule="evenodd" clip-rule="evenodd" d="M13.3047 3H22.6947V21H13.3047V3Z" fill="white"/>
<path fill-rule="evenodd" clip-rule="evenodd" d="M6 3H13.305V21H6V3ZM22.695 3H30V21H22.695V3Z" fill="#198200"/>
<path fill-rule="evenodd" clip-rule="evenodd" d="M17.7558 16.1732V18.1457L18.5546 18.1532C18.5546 18.1532 18.2996 16.4357 18.4383 16.2032C18.5771 15.9782 18.7083 16.0082 18.7083 16.0082C18.7083 16.0082 19.2296 16.1657 19.2858 16.1395C19.3421 16.117 19.2783 15.9445 19.5558 15.967C19.6458 15.9332 19.5971 15.7795 19.6796 15.772C19.7621 15.7607 21.3483 16.2145 21.6933 15.787C21.6033 15.547 21.2921 15.7682 21.2096 15.7795C21.1346 15.7795 20.8233 15.6295 20.6433 15.7795C20.4783 15.6557 19.7283 15.5732 19.7283 15.5732C19.6308 15.4757 21.5133 15.622 21.6221 15.547C21.8433 15.3257 21.2096 15.352 21.1121 15.4232C21.0323 15.3751 20.9418 15.3478 20.8487 15.3439C20.7556 15.3399 20.6631 15.3595 20.5796 15.4007C20.5158 15.247 19.9046 15.3107 19.5671 15.2695C19.4546 15.2057 19.4733 15.1682 19.5483 15.127C20.2608 15.157 20.9658 15.2507 21.6783 15.2207C21.8696 14.9695 21.4346 14.872 21.1683 15.0895C21.0108 14.827 20.6921 15.0782 20.4783 15.052C20.2646 15.0295 20.3658 14.767 20.6358 14.8082C20.9058 14.8457 21.3896 14.7932 21.4796 14.6695C21.5696 14.5457 21.4271 14.4182 20.9808 14.5382C20.8308 14.3882 20.4933 14.5382 20.3396 14.587C20.1296 14.4707 19.6458 14.5682 19.4846 14.6095C19.3233 14.512 20.3283 14.347 20.3283 14.347C20.7183 14.3395 20.9396 14.272 21.0596 14.242C21.6483 13.927 21.0521 13.8932 20.7446 14.122C20.5533 13.972 20.3696 14.1332 20.1971 14.1895C20.0354 14.2442 19.8652 14.2696 19.6946 14.2645C19.6946 14.242 20.1671 13.9532 20.1671 13.9532C20.1671 13.9532 20.7408 13.912 20.8571 13.897C20.9696 13.8782 21.5621 13.5782 20.7558 13.7807C20.4783 13.8032 20.3133 13.7882 20.2046 13.7957C19.5858 13.732 20.2646 13.672 20.2646 13.672C20.2646 13.672 21.1421 13.5932 21.1533 13.5482C21.1683 13.2107 20.4371 13.3682 20.4296 13.3682C20.4296 13.1245 19.7471 13.3757 19.7471 13.3682C19.6158 13.2932 19.8221 13.2145 19.8221 13.2145C20.0021 13.1695 20.2721 13.1545 20.3433 13.0982C20.3433 13.0982 20.8533 13.0945 20.9133 12.9595C20.7896 12.6107 19.8333 13.0195 19.7058 13.0795C19.5333 13.0795 19.8183 12.802 19.8296 12.7945C19.8371 12.7832 20.6171 12.7532 20.9883 12.2507C21.0146 11.947 20.5533 12.4232 20.5533 12.4232C20.5158 12.0257 20.0508 12.4495 19.7808 12.4795C19.5071 12.517 19.4996 12.3557 19.6871 12.3295C19.8746 12.307 20.0921 12.3257 20.1971 12.037C20.3058 11.7482 20.6246 12.052 20.6846 11.947C20.7408 11.8382 20.5683 11.7482 20.5683 11.7482C20.5683 11.7482 20.8083 11.5007 20.4183 11.512C20.0358 11.5195 19.5333 11.4595 19.5333 11.4595C19.5333 11.4595 19.9346 11.3057 20.3133 11.3095C20.6883 11.3207 20.4858 11.0432 20.1258 11.0432C19.7621 11.0432 19.5746 10.9195 19.5746 10.9195L20.1896 10.687L20.1521 10.5145C20.1521 10.5145 20.5121 10.2257 20.0021 10.2932L19.4321 10.3682L18.4046 10.522C18.3971 10.522 18.1271 10.4395 18.3896 10.372C18.6521 10.3045 19.5821 10.1207 19.7208 10.1695C19.8596 10.2182 19.7058 9.82445 19.2108 9.7757C18.7196 9.72695 18.4121 9.89945 18.4121 9.89945C18.4121 9.89945 18.0933 9.7832 18.3896 9.6857C18.6858 9.58445 19.1546 9.71945 19.1546 9.71945C19.1546 9.71945 19.6796 9.56195 19.2446 9.49445C18.8096 9.4307 18.6708 9.55445 18.4721 9.56195C18.3933 9.4607 19.1546 9.4382 19.2033 9.3557C19.1208 9.2057 18.6483 9.3557 18.3708 9.3557C18.2583 9.30695 18.2471 9.22445 18.3821 9.1757C18.6633 9.16445 18.9296 9.17945 19.2108 9.1682C19.2033 9.0182 19.2108 8.84195 19.2033 8.6882C18.8433 8.62445 18.4233 8.73695 18.2246 8.7257C18.2771 8.56445 19.0496 8.51945 19.1358 8.47445C19.3158 8.24945 18.3821 8.47445 18.3708 8.47445C18.2096 8.45195 18.2208 8.34695 18.3221 8.28695C18.5621 8.2607 19.0946 8.32445 19.0571 8.15945C19.0271 8.00945 18.6821 8.0882 18.5471 8.12195C18.4046 8.1557 18.1983 8.12945 18.1983 8.12945C18.1121 8.00945 19.0046 8.0582 18.9971 7.96445C18.9858 7.85945 18.4308 7.93445 18.2396 7.94195C18.0933 7.8407 18.9521 7.7732 18.9633 7.76195C18.9971 7.4882 18.3896 7.76195 18.2733 7.76195C18.1608 7.76195 18.2171 7.58945 18.2171 7.58945C18.2171 7.58945 18.4533 7.4807 18.4458 7.4657C18.3843 7.43254 18.3187 7.40734 18.2508 7.3907C18.2321 7.3907 18.2508 7.2032 18.2508 7.2032C18.2508 7.2032 18.4458 7.0532 18.4308 7.01195C18.4121 6.9707 18.1983 7.0457 18.1983 7.0457V6.8807C18.1983 6.8807 18.3558 6.8657 18.3708 6.7907C18.3896 6.7157 18.1833 6.7082 18.1833 6.7082L18.1008 5.8457L18.0258 6.65195L17.7558 6.68945C17.7558 6.68945 17.9433 6.7982 17.9808 6.90695C18.0108 7.01195 17.7483 6.98195 17.7483 6.98195C17.7483 6.98195 17.9621 7.16195 17.9771 7.2257C17.9958 7.2932 17.6808 7.3082 17.6808 7.3082C17.6808 7.3082 17.9433 7.4957 17.9621 7.60445C17.9771 7.70945 17.9621 7.76945 17.9621 7.76945C17.9621 7.76945 17.5271 7.3907 17.2496 7.4957C17.0996 7.5707 17.5796 7.6082 17.8946 7.88195C17.8946 7.9457 17.1258 7.69445 17.0996 7.85195C17.1146 7.8932 17.9208 8.00945 17.9771 8.11445C17.6846 8.1257 17.0771 8.0507 17.0996 8.1482C17.0358 8.2607 17.6696 8.19695 17.9358 8.28695C18.0146 8.37695 18.0071 8.45195 17.8721 8.45945C17.6133 8.3357 17.0433 8.2457 17.0396 8.4032C17.0433 8.4407 17.6321 8.4182 17.8458 8.55695C17.5608 8.62445 16.5933 8.4257 16.5896 8.51945C16.6158 8.5682 16.7696 8.7632 17.0321 8.7557C17.2946 8.7482 17.9058 8.8607 17.9471 8.9432C17.9846 9.0257 17.1558 8.7707 16.8446 8.9207C16.5296 9.0707 17.7408 8.97695 17.9358 9.15695C18.1346 9.3407 17.5421 9.14195 17.5421 9.14195C17.5421 9.14195 16.7171 9.02945 16.5971 9.0857C16.4733 9.14195 16.3346 9.2732 16.3346 9.2732C16.3346 9.2732 16.4171 9.4382 16.4996 9.40445C16.5821 9.3707 16.4733 9.5057 16.4733 9.5057C16.4733 9.5057 17.6246 9.7832 17.8796 10.0307C18.1346 10.2782 16.4171 9.64445 16.4171 9.64445C16.4171 9.64445 15.7233 9.89945 16.4546 9.91445C16.3721 10.0382 16.4996 10.1132 16.4996 10.1132C16.4996 10.1132 17.7146 10.3682 17.8383 10.5632C17.9621 10.762 17.0096 10.3757 16.7921 10.267C16.5783 10.162 15.9708 10.3345 15.9783 10.3757C15.9896 10.4132 16.2783 10.4732 16.2821 10.5482C16.2933 10.6232 15.9296 10.6457 15.9296 10.7132C15.9296 10.777 17.4671 11.0995 17.8796 11.4445C18.2921 11.7895 16.6721 11.032 16.6721 11.032C16.6721 11.032 16.7621 11.1557 16.6721 11.1895C16.5783 11.2232 16.2596 10.7282 15.7346 11.032C15.6371 11.1595 16.1921 11.257 16.3346 11.272C16.2858 11.3957 16.2446 11.437 16.4396 11.5607C16.6346 11.6845 16.0533 11.3807 16.0533 11.3957L16.0946 11.6095C15.9146 11.4595 15.6933 11.4182 15.4871 11.5682C15.4871 11.5682 15.4796 11.7182 15.6933 11.8082C15.5771 12.0445 15.8246 11.9695 16.2183 12.1945C15.6333 12.0407 15.5846 12.3257 16.0046 12.3895C16.4246 12.4532 17.5758 12.4982 17.8458 12.8507C18.1196 13.2032 17.4596 12.7157 17.3846 12.7007C17.3696 12.712 17.3546 12.8845 17.3546 12.8845C17.1783 12.7832 17.0171 12.6895 16.8071 12.6482C16.7883 12.682 16.7958 12.727 16.7771 12.7607C16.5896 12.622 16.4208 12.5282 16.1433 12.5132L16.1096 12.6445C16.1096 12.6445 15.8808 12.3557 15.4271 12.6445C15.1758 12.8282 16.3833 12.712 16.5783 12.9257C16.7771 13.1395 16.6196 13.1732 16.6196 13.1732L16.1283 12.9895C16.1283 12.9895 15.5433 12.8845 15.3783 13.0157C15.2133 13.147 17.7783 13.4657 17.8533 13.822C17.9058 14.0095 17.2533 13.6195 16.6871 13.4507L16.6196 13.6382C16.6196 13.6382 16.3946 13.4132 16.1433 13.3757C16.1358 13.3757 16.1921 13.6007 16.1921 13.6007C16.1921 13.6007 15.5621 13.3007 15.2396 13.4582C14.9208 13.6157 16.3571 13.6982 16.4883 13.8445C16.6196 13.9945 16.0533 13.747 16.0008 13.8445C15.9558 13.9457 15.2546 13.6645 15.2658 13.7957C15.2733 13.927 15.3633 14.002 15.3633 14.002C15.3633 14.002 16.8183 14.1407 16.8671 14.3132C16.9158 14.4857 16.0608 14.2157 16.0608 14.2157C16.0608 14.2157 15.9783 14.3395 16.0458 14.3957C16.1096 14.4557 15.5508 14.0695 15.6033 14.3207C15.4196 14.2495 14.9508 14.0282 15.0183 14.2007C15.0821 14.3732 16.3421 14.6207 16.3421 14.6207C16.3421 14.6207 15.7908 14.6582 15.8171 14.8007C15.1046 14.3695 15.1233 14.6432 15.1421 14.6507C15.1571 14.6582 14.2271 14.422 14.9283 14.8007C15.6296 15.1795 15.3033 15.112 15.3146 15.1195C15.3221 15.127 15.3896 15.307 15.3708 15.307C15.3558 15.307 14.8946 15.0632 14.7371 15.0445C14.5833 15.0295 13.8408 15.2507 14.6321 15.5995C15.4233 15.9482 15.9071 15.517 16.3421 15.562C16.7771 15.6145 16.9796 15.6895 16.9421 15.8245C16.9008 15.967 16.4958 15.3707 16.0721 15.8882C15.5846 15.7907 15.2583 15.7382 15.5096 16.0907C14.7221 15.7945 14.2346 16.1807 15.2321 16.3382C16.2071 16.3682 16.8071 16.0982 16.8071 16.0982C16.8071 16.0982 16.9758 16.402 17.2121 16.1882C17.4521 15.9745 17.4596 16.2707 17.4671 16.2707L17.6996 16.1732H17.7558V16.1732Z" fill="#198200" stroke="black" stroke-width="0.0583775" stroke-linecap="round" stroke-linejoin="round"/>
<path fill-rule="evenodd" clip-rule="evenodd" d="M17.85 15.0071V14.8684C17.85 14.8684 17.5425 14.8121 17.3888 14.8421C17.3025 14.7934 17.2163 14.7259 17.1075 14.7821C17.0888 14.8271 17.3062 14.9434 17.3775 14.9434C17.5319 14.9894 17.6926 15.0109 17.8538 15.0071H17.85ZM17.85 15.2321C17.85 15.2321 17.5387 15.1159 17.415 15.2471C17.4337 15.3859 17.7788 15.4534 17.8538 15.4159C17.925 15.3784 17.8538 15.2359 17.85 15.2284V15.2321ZM18.375 15.2846V15.3821C18.375 15.3821 18.7425 15.4534 18.81 15.3746C18.8738 15.2959 18.51 15.2434 18.3712 15.2846H18.375ZM18.3563 14.9021L18.3675 15.0109C18.3675 15.0109 18.69 15.0821 18.8138 14.9059C18.9375 14.7296 18.5325 14.9059 18.3563 14.9021V14.9021ZM18.3712 14.5271V14.6021C18.3712 14.6021 18.615 14.6396 18.6712 14.5346C18.7237 14.4296 18.3787 14.5346 18.3712 14.5271ZM17.8688 14.3021C17.8313 14.2534 17.7 14.1221 17.3513 14.0846C17.1075 14.0846 17.79 14.4409 17.8688 14.3059V14.3021ZM18.3638 13.9384L18.3563 14.0396C18.3563 14.0396 19.1813 13.7921 19.3725 13.8109C19.545 13.7621 19.5825 13.6421 19.575 13.6421C19.425 13.5334 18.7163 13.7284 18.3638 13.9384V13.9384ZM18.3825 13.6459L18.3712 13.7434C18.3712 13.7434 18.9525 13.6309 19.11 13.5184C19.2638 13.4059 18.39 13.6496 18.3825 13.6459ZM18.36 13.3609V13.4584C18.36 13.4584 18.7463 13.4434 18.8288 13.3684C18.8775 13.2896 18.4838 13.3571 18.36 13.3609V13.3609ZM19.17 14.1746C19.17 14.1746 19.3725 14.2046 19.41 14.1446C19.4025 14.0396 19.17 14.1821 19.17 14.1746ZM18.375 12.9971L18.3788 13.2109C18.3788 13.2109 19.3125 12.9146 19.3725 12.8621C19.4288 12.8059 19.56 12.6371 18.375 12.9971ZM18.3487 12.7009V12.8584C18.3487 12.8584 18.7237 12.8284 18.8962 12.6896C19.0687 12.5471 18.3487 12.7046 18.3487 12.7009ZM17.8987 12.3521L17.9212 12.4909L16.6875 12.0934C16.6913 12.0934 16.6275 11.8909 17.8987 12.3521V12.3521ZM17.9175 11.8534C17.9175 11.8684 17.9175 11.9884 17.91 11.9846C17.91 11.9846 17.055 11.6284 17.0212 11.6584C16.9087 11.3959 17.9212 11.8609 17.9212 11.8534H17.9175ZM18.3337 12.0784L18.3487 12.1946C18.3487 12.1946 18.8738 12.0859 18.9038 12.0334C18.9338 11.9809 18.3337 12.0784 18.3337 12.0746V12.0784ZM18.345 12.3559C18.3525 12.3821 18.36 12.4796 18.36 12.4796C18.36 12.4796 18.57 12.4609 18.6038 12.4121C18.6338 12.3634 18.345 12.3559 18.345 12.3559ZM18.315 11.7184V11.8309C18.315 11.8309 18.8925 11.7184 18.9525 11.6659C19.0162 11.6096 18.3037 11.7184 18.315 11.7184ZM18.315 11.3996C18.315 11.4071 18.2962 11.5159 18.3112 11.5159C18.3262 11.5159 19.0087 11.4034 19.1175 11.3021C19.2225 11.2084 18.33 11.4109 18.3188 11.3996H18.315ZM18.3075 10.8409V10.9646C18.3075 10.9646 18.75 10.8709 18.8325 10.7771C18.915 10.6834 18.3075 10.8521 18.3075 10.8409ZM18.2325 10.0309L18.24 10.2109C18.24 10.2109 18.84 10.1284 18.9225 10.0309C19.0088 9.92961 18.2288 10.0309 18.2325 10.0309ZM17.955 8.66211V8.77461C17.955 8.77461 17.6738 8.76336 17.7413 8.71461C17.8088 8.66586 17.955 8.67336 17.955 8.66211ZM18.2175 8.81211L18.225 8.96961C18.225 8.96961 18.5887 8.93211 18.615 8.87586C18.645 8.81961 18.225 8.81586 18.2175 8.81586V8.81211ZM18.195 9.03711C18.195 9.03711 18.2025 9.13461 18.21 9.13461C18.2175 9.13461 18.3562 9.12336 18.3862 9.08586C18.4162 9.04836 18.21 9.04836 18.1987 9.03711H18.195ZM17.8875 9.47961C17.8875 9.49086 17.8988 9.62961 17.8875 9.62211C17.8763 9.61461 17.0925 9.39336 17.0175 9.39711C16.9462 9.39711 16.9275 9.21336 17.8875 9.47961ZM17.9513 9.73836C17.9513 9.76461 17.97 9.91086 17.94 9.90336C17.9137 9.89586 17.4038 9.73461 17.4563 9.68586C17.5088 9.63711 17.9513 9.74961 17.9513 9.73836ZM17.9063 10.8259L17.91 10.9571C17.91 10.9571 17.0213 10.6871 16.9913 10.6421C16.9613 10.5971 16.875 10.3871 17.9063 10.8259ZM17.9438 11.1446V11.2684L16.7362 10.8446C16.7362 10.8446 16.6387 10.5296 17.94 11.1446H17.9438Z" fill="white" stroke="black" stroke-width="0.0667171" stroke-linecap="round" stroke-linejoin="round"/>
<path fill-rule="evenodd" clip-rule="evenodd" d="M16.5106 15.3254L16.503 15.4568C16.503 15.4568 16.2704 15.3892 16.1953 15.2579C16.3304 15.2204 16.5143 15.3292 16.5106 15.3254Z" fill="white" stroke="black" stroke-width="0.0667171" stroke-linejoin="round"/>
</g>
</g>
<defs>
<filter id="filter0_d_336_29232" x="0" y="-2" width="36" height="36" filterUnits="userSpaceOnUse" color-interpolation-filters="sRGB">
<feFlood flood-opacity="0" result="BackgroundImageFix"/>
<feColorMatrix in="SourceAlpha" type="matrix" values="0 0 0 0 0 0 0 0 0 0 0 0 0 0 0 0 0 0 127 0" result="hardAlpha"/>
<feOffset dy="4"/>
<feGaussianBlur stdDeviation="3"/>
<feComposite in2="hardAlpha" operator="out"/>
<feColorMatrix type="matrix" values="0 0 0 0 0 0 0 0 0 0 0 0 0 0 0 0 0 0 0.16 0"/>
<feBlend mode="normal" in2="BackgroundImageFix" result="effect1_dropShadow_336_29232"/>
<feBlend mode="normal" in="SourceGraphic" in2="effect1_dropShadow_336_29232" result="shape"/>
</filter>
<clipPath id="clip0_336_29232">
<rect width="24" height="18" fill="white" transform="translate(6 3)"/>
</clipPath>
</defs>
</svg>
