<svg width="36" height="31" viewBox="0 0 36 31" fill="none" xmlns="http://www.w3.org/2000/svg">
<g filter="url(#filter0_d_336_17288)">
<g clip-path="url(#clip0_336_17288)">
<path d="M6 3H30V21H6V3Z" fill="#003399"/>
<path d="M17.9994 13.5066C18.629 13.5066 19.1394 12.9962 19.1394 12.3666C19.1394 11.737 18.629 11.2266 17.9994 11.2266C17.3698 11.2266 16.8594 11.737 16.8594 12.3666C16.8594 12.9962 17.3698 13.5066 17.9994 13.5066Z" stroke="#FFCC00" stroke-width="2.32031"/>
<path d="M17.9987 15.6791C19.8275 15.6791 21.31 14.1966 21.31 12.3679C21.31 10.5391 19.8275 9.05664 17.9987 9.05664C16.17 9.05664 14.6875 10.5391 14.6875 12.3679C14.6875 14.1966 16.17 15.6791 17.9987 15.6791Z" stroke="#FFCC00" stroke-width="2.32031"/>
<path d="M21.1763 9.19141L24.3525 12.3677L21.1763 15.5439L18 12.3677L21.1763 9.19141Z" fill="#003399"/>
<path d="M12.5898 11.8535H14.8098V12.8848H12.5898V11.8535ZM22.3061 11.8535H25.6173V12.8848H22.3061V11.8535ZM19.6136 10.0273L21.0686 8.57227L21.7961 9.30352L20.3448 10.7548L19.6136 10.0273ZM17.4873 4.82227H18.5186V8.83852H17.4873V4.82227Z" fill="#FFCC00"/>
<path d="M14.4395 9.4982C14.7233 9.4982 14.9533 9.26819 14.9533 8.98445C14.9533 8.70072 14.7233 8.4707 14.4395 8.4707C14.1558 8.4707 13.9258 8.70072 13.9258 8.98445C13.9258 9.26819 14.1558 9.4982 14.4395 9.4982Z" fill="#FFCC00"/>
<path d="M11.4122 12.881C11.6959 12.881 11.9259 12.651 11.9259 12.3673C11.9259 12.0835 11.6959 11.8535 11.4122 11.8535C11.1285 11.8535 10.8984 12.0835 10.8984 12.3673C10.8984 12.651 11.1285 12.881 11.4122 12.881Z" fill="#FFCC00"/>
<path d="M17.9981 17.8166C18.2819 17.8166 18.5119 17.5865 18.5119 17.3028C18.5119 17.0191 18.2819 16.7891 17.9981 16.7891C17.7144 16.7891 17.4844 17.0191 17.4844 17.3028C17.4844 17.5865 17.7144 17.8166 17.9981 17.8166Z" fill="#FFCC00"/>
<path d="M17.9981 19.4709C18.2819 19.4709 18.5119 19.2408 18.5119 18.9571C18.5119 18.6734 18.2819 18.4434 17.9981 18.4434C17.7144 18.4434 17.4844 18.6734 17.4844 18.9571C17.4844 19.2408 17.7144 19.4709 17.9981 19.4709Z" fill="#FFCC00"/>
<path d="M21.3106 12.881C21.5944 12.881 21.8244 12.651 21.8244 12.3673C21.8244 12.0835 21.5944 11.8535 21.3106 11.8535C21.0269 11.8535 20.7969 12.0835 20.7969 12.3673C20.7969 12.651 21.0269 12.881 21.3106 12.881Z" fill="#FFCC00"/>
<path d="M13.8125 15.8056L14.5437 15.0781L15.2712 15.8056L14.5437 16.5369L13.8125 15.8056ZM21.4887 16.5931L22.22 15.8619L22.9512 16.5931L22.22 17.3206L21.4887 16.5931Z" fill="#FFCC00"/>
</g>
</g>
<defs>
<filter id="filter0_d_336_17288" x="0" y="-2" width="36" height="36" filterUnits="userSpaceOnUse" color-interpolation-filters="sRGB">
<feFlood flood-opacity="0" result="BackgroundImageFix"/>
<feColorMatrix in="SourceAlpha" type="matrix" values="0 0 0 0 0 0 0 0 0 0 0 0 0 0 0 0 0 0 127 0" result="hardAlpha"/>
<feOffset dy="4"/>
<feGaussianBlur stdDeviation="3"/>
<feComposite in2="hardAlpha" operator="out"/>
<feColorMatrix type="matrix" values="0 0 0 0 0 0 0 0 0 0 0 0 0 0 0 0 0 0 0.16 0"/>
<feBlend mode="normal" in2="BackgroundImageFix" result="effect1_dropShadow_336_17288"/>
<feBlend mode="normal" in="SourceGraphic" in2="effect1_dropShadow_336_17288" result="shape"/>
</filter>
<clipPath id="clip0_336_17288">
<rect width="24" height="18" fill="white" transform="translate(6 3)"/>
</clipPath>
</defs>
</svg>
