<svg width="36" height="31" viewBox="0 0 36 31" fill="none" xmlns="http://www.w3.org/2000/svg">
<g filter="url(#filter0_d_336_28012)">
<g clip-path="url(#clip0_336_28012)">
<path d="M6 9H30V15H6V9Z" fill="white"/>
<path d="M6 3H30V9H6V3Z" fill="#CE1126"/>
<path d="M6 15H30V21H6V15Z" fill="black"/>
<path d="M20.6577 10.8975C20.6235 10.8811 20.5923 10.8588 20.5657 10.8318C20.546 10.7989 20.5591 10.7989 20.6445 10.8186C20.7956 10.8646 20.8942 10.8449 20.9927 10.7661L21.0781 10.6938L21.1767 10.7398C21.2358 10.7727 21.2949 10.7924 21.3081 10.7858C21.354 10.7727 21.446 10.6544 21.4394 10.615C21.4394 10.569 21.4789 10.5821 21.5051 10.6347C21.5445 10.7398 21.4854 10.8646 21.3737 10.8909C21.3278 10.904 21.2818 10.8975 21.2029 10.8712C21.111 10.8384 21.0913 10.8384 21.0453 10.8712C20.9902 10.9128 20.9242 10.9374 20.8554 10.9421C20.7866 10.9468 20.7178 10.9313 20.6577 10.8975V10.8975ZM21.0387 10.5493C20.9942 10.469 20.9716 10.3784 20.973 10.2865C20.9796 10.2471 20.9927 10.234 21.0256 10.2471C21.0913 10.2668 21.1044 10.3128 21.0913 10.4442C21.0913 10.5624 21.0716 10.5953 21.0387 10.5493ZM16.5978 10.4245C16.5913 10.5099 16.7555 10.7267 16.8278 10.7661C16.7752 10.7858 16.7161 10.7792 16.6701 10.7989C16.4073 11.0617 15.4614 11.9814 15.2905 12.2048C15.803 12.2179 16.3679 12.1982 16.8475 12.1785C16.8475 11.8303 17.1759 11.8106 17.3993 11.6858C17.511 11.8632 17.7935 11.85 17.8329 12.1194V13.2756H13.4643C13.4478 13.3632 13.413 13.4465 13.3623 13.5198C13.3116 13.5932 13.246 13.6552 13.1698 13.7016C13.0937 13.748 13.0086 13.778 12.9201 13.7895C12.8316 13.8009 12.7418 13.7937 12.6562 13.7683C12.7876 13.6369 13.011 13.5843 13.0898 13.3938C13.1555 12.9734 12.9584 12.7172 12.8271 12.4741C12.9923 12.4211 13.1477 12.3412 13.2869 12.2376C13.1358 12.6975 13.6942 12.6515 14.1015 12.6383C14.1146 12.4807 14.1081 12.2967 13.9898 12.2705C14.1409 12.2113 14.1672 12.1916 14.4234 11.9814V12.6121L17.4519 12.6055C17.4519 12.4084 17.5044 12.0865 17.3467 12.0865C17.2022 12.0865 17.3467 12.4938 17.2285 12.4938H14.8833V12.0997C14.9818 11.9946 14.9687 12.0011 15.6453 11.3245C15.711 11.2588 16.1905 10.8252 16.6044 10.4245H16.5978ZM22.4511 10.4048C22.6153 10.4967 22.7467 10.615 22.9438 10.6676C22.9241 10.753 22.8453 10.7858 22.8256 10.8712V12.6449C23.0489 12.6909 23.1015 12.5595 23.2066 12.4938C23.2329 12.7763 23.4168 13.0522 23.4037 13.2821H22.4511V10.4113V10.4048ZM21.1767 11.3573C21.1767 11.3573 21.5248 11.0617 21.5248 11.0486V12.5924H21.7745L21.7679 10.8646C21.8664 10.7595 22.0701 10.615 22.1161 10.5099V13.269H19.9219C19.8891 12.6975 19.8825 12.1062 20.5526 12.2311V12.0011C20.5329 11.9617 20.4935 12.0077 20.4869 11.9551C20.592 11.85 20.6248 11.8238 20.9139 11.5741L20.9205 12.5924H21.1767V11.3573V11.3573ZM20.3489 12.5792C20.3949 12.6449 20.5591 12.6449 20.546 12.5267C20.5263 12.4281 20.3161 12.461 20.3489 12.5792Z" fill="#007A3D"/>
<path d="M13.9908 13.7354C14.0633 13.7354 14.1221 13.6766 14.1221 13.604C14.1221 13.5315 14.0633 13.4727 13.9908 13.4727C13.9182 13.4727 13.8594 13.5315 13.8594 13.604C13.8594 13.6766 13.9182 13.7354 13.9908 13.7354Z" fill="#007A3D"/>
<path d="M18.1289 10.4121C18.2931 10.4975 18.4245 10.6223 18.6282 10.6749C18.6019 10.7537 18.5296 10.7866 18.5099 10.872V12.6457C18.7333 12.6917 18.7793 12.5668 18.8844 12.4946C18.9172 12.7771 19.0946 13.0595 19.088 13.2829H18.1289V10.4121Z" fill="#007A3D"/>
</g>
</g>
<defs>
<filter id="filter0_d_336_28012" x="0" y="-2" width="36" height="36" filterUnits="userSpaceOnUse" color-interpolation-filters="sRGB">
<feFlood flood-opacity="0" result="BackgroundImageFix"/>
<feColorMatrix in="SourceAlpha" type="matrix" values="0 0 0 0 0 0 0 0 0 0 0 0 0 0 0 0 0 0 127 0" result="hardAlpha"/>
<feOffset dy="4"/>
<feGaussianBlur stdDeviation="3"/>
<feComposite in2="hardAlpha" operator="out"/>
<feColorMatrix type="matrix" values="0 0 0 0 0 0 0 0 0 0 0 0 0 0 0 0 0 0 0.16 0"/>
<feBlend mode="normal" in2="BackgroundImageFix" result="effect1_dropShadow_336_28012"/>
<feBlend mode="normal" in="SourceGraphic" in2="effect1_dropShadow_336_28012" result="shape"/>
</filter>
<clipPath id="clip0_336_28012">
<rect width="24" height="18" fill="white" transform="translate(6 3)"/>
</clipPath>
</defs>
</svg>
