<svg width="36" height="31" viewBox="0 0 36 31" fill="none" xmlns="http://www.w3.org/2000/svg">
<g filter="url(#filter0_d_336_29832)">
<g clip-path="url(#clip0_336_29832)">
<path d="M6 3H30V12H6V3Z" fill="#0038A8"/>
<path d="M6 12H30V21H6V12Z" fill="#CE1126"/>
<path d="M21.5887 12L6 21V3" fill="white"/>
<path d="M6.99969 4.58984L7.53594 5.06234L8.15844 4.71734L7.88094 5.37359L8.40594 5.86109L7.69344 5.80109L7.38969 6.44609L7.22844 5.75234L6.52344 5.66234L7.13469 5.28734L6.99969 4.58984ZM19.1422 11.0511L19.1572 11.7636L19.8322 11.9998L19.1572 12.2323L19.1422 12.9448L18.7109 12.3786L18.0284 12.5848L18.4334 11.9998L18.0284 11.4148L18.7109 11.6211L19.1422 11.0511ZM7.39344 17.5536L7.69344 18.1986L8.40594 18.1386L7.88469 18.6261L8.16219 19.2823L7.53969 18.9411L6.99969 19.4061L7.13469 18.7048L6.52344 18.3373L7.23219 18.2473L7.39344 17.5536ZM11.6759 8.21609L11.4434 8.44859L11.5597 10.2111L11.4472 10.2223L11.2334 8.61359L11.0422 8.80109L11.3272 10.2411C11.0967 10.2865 10.8775 10.3769 10.6822 10.5073L9.86844 9.29234H9.59844L10.5884 10.5786C10.5576 10.6026 10.5276 10.6276 10.4984 10.6536L9.33219 9.32234H9.00219V9.65234L10.3297 10.8148L10.2547 10.9086L8.96844 9.92234V10.1886L10.1872 11.0023C10.0597 11.1973 9.96594 11.4148 9.92094 11.6473L8.48469 11.3623L8.29344 11.5498L9.90219 11.7636C9.89469 11.8011 9.89094 11.8423 9.89094 11.8798L8.12844 11.7673L7.89594 11.9998L8.12844 12.2323L9.89094 12.1161L9.90219 12.2323L8.29344 12.4461L8.48094 12.6336L9.92094 12.3486C9.9663 12.579 10.0568 12.7982 10.1872 12.9936L8.96844 13.8073V14.0773L10.2547 13.0911C10.2787 13.1219 10.3037 13.1519 10.3297 13.1811L9.00219 14.3436V14.6736H9.33594L10.4984 13.3461L10.5922 13.4211L9.59844 14.7073H9.86844L10.6822 13.4886C10.8734 13.6161 11.0947 13.7098 11.3272 13.7548L11.0422 15.1948L11.2297 15.3823L11.4434 13.7736C11.4809 13.7811 11.5184 13.7848 11.5597 13.7848L11.4472 15.5473L11.6759 15.7798L11.9122 15.5473L11.7959 13.7848L11.9084 13.7736L12.1222 15.3861L12.3134 15.1948L12.0284 13.7548C12.2589 13.7095 12.4781 13.619 12.6734 13.4886L13.4872 14.7073H13.7572L12.7672 13.4211C12.798 13.3971 12.828 13.3721 12.8572 13.3461L14.0234 14.6736H14.3534V14.3436L13.0259 13.1811L13.1009 13.0911L14.3872 14.0773V13.8073L13.1684 12.9936C13.2959 12.8023 13.3897 12.5811 13.4347 12.3486L14.8709 12.6336L15.0622 12.4461L13.4534 12.2323C13.4609 12.1948 13.4647 12.1573 13.4647 12.1161L15.2272 12.2286L15.4597 11.9998L15.2272 11.7673L13.4647 11.8798L13.4534 11.7673L15.0622 11.5536L14.8747 11.3661L13.4347 11.6473C13.3893 11.4169 13.2988 11.1977 13.1684 11.0023L14.3872 10.1886V9.92234L13.1009 10.9086C13.0769 10.8778 13.0519 10.8478 13.0259 10.8186L14.3534 9.65609V9.32234H14.0234L12.8609 10.6536C12.8305 10.6276 12.7993 10.6025 12.7672 10.5786L13.7572 9.29234H13.4872L12.6734 10.5073C12.4822 10.3798 12.2609 10.2861 12.0284 10.2411L12.3134 8.80484L12.1259 8.61734L11.9122 10.2223L11.7959 10.2111L11.9084 8.44859L11.6759 8.21609Z" fill="#FCD116"/>
</g>
</g>
<defs>
<filter id="filter0_d_336_29832" x="0" y="-2" width="36" height="36" filterUnits="userSpaceOnUse" color-interpolation-filters="sRGB">
<feFlood flood-opacity="0" result="BackgroundImageFix"/>
<feColorMatrix in="SourceAlpha" type="matrix" values="0 0 0 0 0 0 0 0 0 0 0 0 0 0 0 0 0 0 127 0" result="hardAlpha"/>
<feOffset dy="4"/>
<feGaussianBlur stdDeviation="3"/>
<feComposite in2="hardAlpha" operator="out"/>
<feColorMatrix type="matrix" values="0 0 0 0 0 0 0 0 0 0 0 0 0 0 0 0 0 0 0.16 0"/>
<feBlend mode="normal" in2="BackgroundImageFix" result="effect1_dropShadow_336_29832"/>
<feBlend mode="normal" in="SourceGraphic" in2="effect1_dropShadow_336_29832" result="shape"/>
</filter>
<clipPath id="clip0_336_29832">
<rect width="24" height="18" fill="white" transform="translate(6 3)"/>
</clipPath>
</defs>
</svg>
