<svg width="36" height="31" viewBox="0 0 36 31" fill="none" xmlns="http://www.w3.org/2000/svg">
<g filter="url(#filter0_d_336_26566)">
<g clip-path="url(#clip0_336_26566)">
<path d="M6 3H30V21H6V3Z" fill="white"/>
<path d="M9 3H27V21H9V3Z" fill="white"/>
<path fill-rule="evenodd" clip-rule="evenodd" d="M16.3971 15.7793C16.3971 15.7793 16.8021 15.4493 17.1996 15.4493C17.5971 15.4493 17.7021 15.723 17.9796 15.7455C18.2533 15.768 18.4821 15.4718 18.8233 15.4605C19.1646 15.4493 19.5921 15.7005 19.5921 15.7005L18.0996 16.1505L16.3971 15.7755V15.7793ZM15.5383 15.2918L20.6158 15.318C20.6158 15.318 20.1771 14.8418 19.6596 14.8305C19.1421 14.823 19.2846 15.0555 18.8908 15.0855C18.4933 15.1193 18.3958 14.8455 18.0321 14.853C17.6721 14.8643 17.4621 15.0855 17.1883 15.0968C16.9108 15.108 16.5621 14.823 16.3521 14.8343C16.1421 14.8455 15.3958 15.1605 15.3958 15.1605L15.5383 15.2955V15.2918ZM14.8896 14.6918L21.1521 14.7105C21.2533 14.568 20.8446 14.2268 20.4733 14.1968C20.1658 14.208 19.9483 14.5155 19.6933 14.5268C19.4383 14.538 19.1533 14.208 18.8683 14.2193C18.5833 14.2305 18.2871 14.5268 18.0021 14.5268C17.7133 14.5268 17.5071 14.208 17.1433 14.208C16.7796 14.208 16.6183 14.5568 16.3408 14.538C16.0671 14.5155 15.8233 14.1855 15.5608 14.1855C15.2983 14.1855 14.8596 14.5793 14.7733 14.5605C14.6833 14.5343 14.8821 14.7218 14.8896 14.688V14.6918Z" fill="#083D9C" stroke="#083D9C" stroke-width="0.220833"/>
<path fill-rule="evenodd" clip-rule="evenodd" d="M17.3003 11.2088L18.7403 11.5913V9.53631C18.0803 9.57381 17.5328 8.28381 18.6953 8.19756C17.5516 8.03256 17.4203 8.32881 17.2891 8.64756L17.3003 11.2088V11.2088Z" fill="#FF0000" stroke="black" stroke-width="0.207031" stroke-linejoin="round"/>
<path fill-rule="evenodd" clip-rule="evenodd" d="M16.3867 12.7012L19.638 12.7124Z" fill="#083D9C"/>
<path d="M16.3867 12.7012L19.638 12.7124" stroke="#083D9C" stroke-width="0.414062" stroke-linecap="round"/>
<path d="M16.543 11.9242L16.9292 12.438M16.543 12.438L16.9592 11.9317M16.7642 11.8867L16.753 12.2055M17.158 11.9205L17.5442 12.438M17.158 12.438L17.5742 11.9317M17.3792 11.8867L17.368 12.2055M17.7842 11.9205L18.1705 12.438M17.7842 12.438L18.2005 11.9317M18.0055 11.8867L17.9942 12.2055M18.433 11.9205L18.8155 12.438M18.433 12.438L18.8492 11.9317M18.6505 11.8867L18.643 12.2055M19.0555 11.9205L19.4417 12.438M19.0592 12.438L19.4755 11.9317M19.2767 11.8867L19.2655 12.2055" stroke="black" stroke-width="0.33125" stroke-linecap="round"/>
<path fill-rule="evenodd" clip-rule="evenodd" d="M14.2027 12.7345L15.5864 12.7458V11.8795L14.0039 11.8008L14.2027 12.7345ZM14.1352 11.5345L15.6089 11.6808L15.5977 11.0658L14.1577 10.492L14.1352 11.5383V11.5345ZM14.4352 10.3083L15.5639 10.8558L15.7252 10.687C15.7252 10.687 15.6202 10.6158 15.6277 10.5483C15.6277 10.4845 15.7327 10.4733 15.7327 10.3983C15.7327 10.3345 15.6202 10.3233 15.6164 10.2595C15.6089 10.1845 15.7064 10.1095 15.7064 10.1095L14.6864 9.22078L14.4314 10.3083H14.4352ZM21.8602 12.7458H20.3977L20.3864 11.8983L21.9914 11.7783L21.8602 12.7458ZM20.4089 11.6995L22.1452 11.4895L21.7702 10.4883L20.3977 11.0733L20.4089 11.6995ZM21.6727 10.2145L20.4202 10.8745C20.4014 10.7995 20.3864 10.732 20.3002 10.6758C20.3002 10.6758 20.3752 10.6308 20.3752 10.5558C20.3752 10.4808 20.2777 10.4658 20.2777 10.4245C20.2777 10.3833 20.3677 10.342 20.3752 10.2408C20.3639 10.1733 20.2777 10.0758 20.2927 10.057L21.2677 9.31453L21.6727 10.2145V10.2145ZM18.9577 11.6808L19.5839 11.6545L19.5952 11.4033L18.9577 11.6808V11.6808ZM17.0452 11.662L16.3889 11.6433V11.3808L17.0489 11.662H17.0452ZM17.0452 11.587L16.3889 11.2495V10.807C16.3889 10.807 16.3139 10.8183 16.3214 10.732C16.3252 10.5483 16.8052 11.0658 17.0489 11.2345L17.0452 11.587V11.587ZM18.9577 11.5458V11.257C18.9577 11.257 19.5502 10.7245 19.6739 10.6233C19.6739 10.7358 19.6064 10.8183 19.6064 10.8183V11.2383L18.9577 11.5458V11.5458ZM15.1139 9.14203L15.7814 9.88078C15.7964 9.81328 15.9502 9.80203 16.1039 9.81328C16.2539 9.82453 16.3777 9.80203 16.3777 9.91078C16.3777 10.0195 16.3027 10.0045 16.3027 10.0833C16.3027 10.162 16.4152 10.1545 16.4152 10.252C16.4152 10.3495 16.3327 10.3308 16.3327 10.4058C16.3327 10.4695 16.4227 10.4733 16.4227 10.4733L17.0452 11.077V10.432L15.7627 8.41828L15.1139 9.14203V9.14203ZM16.1414 8.37703L17.0152 10.1583C17.0152 10.1583 17.0227 8.51578 17.1689 8.42953L16.9252 7.97953L16.1414 8.37703V8.37703ZM19.9289 8.44828L18.9539 10.1808V9.44953C18.9539 9.44953 19.0364 9.32953 18.9089 9.33703C18.7814 9.34828 18.6277 9.32953 18.6277 9.32953L19.0177 7.95703L19.9289 8.44453V8.44828ZM20.9264 9.18703C20.9152 9.20578 20.2702 9.86203 20.2702 9.86203C20.2402 9.78703 20.0452 9.82453 19.8577 9.82453C19.6739 9.82453 19.6477 9.88453 19.6589 9.93328C19.6777 10.057 19.7414 9.96328 19.7414 10.0833C19.7414 10.1995 19.6514 10.1583 19.6402 10.2408C19.6514 10.342 19.7827 10.3158 19.7039 10.3908L18.9577 11.1108V10.4283L20.3489 8.26828L20.9264 9.18703Z" fill="#EF7D08"/>
<path fill-rule="evenodd" clip-rule="evenodd" d="M17.6191 13.0659C17.3078 13.5834 16.4716 13.4297 16.2728 13.0659C16.2166 13.0509 16.2503 10.8347 16.2503 10.8347C16.2503 10.8347 16.1566 10.7934 16.1528 10.7222C16.1491 10.6547 16.2803 10.6472 16.2803 10.5609C16.2803 10.4747 16.1453 10.5084 16.1416 10.4184C16.1416 10.3359 16.2878 10.3434 16.2803 10.2684C16.2728 10.1784 16.1191 10.1934 16.1116 10.1109C16.1116 10.0472 16.2241 9.99094 16.2541 9.96094C16.2191 9.96174 16.1841 9.96174 16.1491 9.96094L15.9091 9.96469C15.7366 9.96469 15.9091 10.0022 15.9091 10.0997C15.9091 10.1634 15.8228 10.2084 15.8153 10.2609C15.8116 10.3209 15.9353 10.3584 15.9391 10.4297C15.9391 10.4897 15.8153 10.4934 15.8191 10.5534C15.8266 10.6472 15.9316 10.6697 15.9278 10.7297C15.9278 10.7859 15.7928 10.8084 15.7891 10.8534C15.7966 10.9434 15.8116 13.1334 15.8116 13.1334C16.0253 14.2509 17.2666 14.5322 17.6191 13.0659ZM18.4403 13.0659C18.7516 13.5834 19.5878 13.4297 19.7828 13.0659C19.8428 13.0509 19.8091 10.8347 19.8091 10.8347C19.8091 10.8347 19.9028 10.7934 19.9066 10.7222C19.9103 10.6547 19.7866 10.6472 19.7866 10.5609C19.7866 10.4747 19.9141 10.5084 19.9141 10.4184C19.9141 10.3359 19.7828 10.3434 19.7903 10.2609C19.7978 10.1747 19.9028 10.1859 19.9066 10.1034C19.9103 10.0322 19.8428 9.99094 19.8091 9.96094H19.9103L20.1503 9.96469C20.3191 9.96469 20.1503 10.0022 20.1503 10.0997C20.1503 10.1634 20.2366 10.2084 20.2441 10.2609C20.2441 10.3209 20.1241 10.3584 20.1203 10.4297C20.1203 10.4897 20.2441 10.4934 20.2403 10.5534C20.2328 10.6472 20.1278 10.6697 20.1278 10.7297C20.1316 10.7859 20.2666 10.8084 20.2666 10.8534L20.2478 13.1334C20.0341 14.2509 18.7891 14.5322 18.4403 13.0659V13.0659Z" fill="#FF0000" stroke="black" stroke-width="0.207031" stroke-linejoin="round"/>
<path fill-rule="evenodd" clip-rule="evenodd" d="M17.3131 14.0846H18.7119C18.7231 14.0734 18.3969 13.5971 18.0144 13.6346C17.5831 13.6459 17.2906 14.0846 17.3131 14.0846ZM21.7719 14.0471H19.8594C19.8594 14.0471 20.1069 13.9046 20.1744 13.7696C20.2981 13.8371 20.2644 13.9046 20.5119 13.9159C20.7594 13.9271 20.9956 13.6346 21.2319 13.6459C21.4681 13.6571 21.7719 14.0584 21.7719 14.0509V14.0471ZM14.2344 14.0471H16.1469C16.1469 14.0471 15.8994 13.9046 15.8319 13.7696C15.7081 13.8371 15.7419 13.9046 15.4944 13.9159C15.2469 13.9271 15.0069 13.6346 14.7744 13.6459C14.5381 13.6571 14.2344 14.0584 14.2344 14.0509V14.0471ZM14.3769 13.4471L15.7381 13.4584C15.7381 13.4584 15.6519 13.2709 15.6406 13.0421C15.2881 12.9221 15.0031 13.3046 14.7481 13.3159C14.4969 13.3271 14.2344 13.0421 14.2344 13.0421L14.3769 13.4471ZM21.6519 13.4471L20.2869 13.4584C20.2869 13.4584 20.3731 13.2709 20.3844 13.0421C20.7369 12.9221 21.0219 13.3046 21.2769 13.3159C21.5281 13.3271 21.7906 13.0421 21.7906 13.0421L21.6481 13.4471H21.6519ZM17.6619 13.4621L18.3519 13.4434C18.3519 13.4434 18.3631 13.2334 18.0031 13.2334C17.6431 13.2334 17.6731 13.4734 17.6619 13.4621V13.4621ZM17.2419 13.1659C17.3736 13.1082 17.4819 13.0078 17.5494 12.8809L17.0769 12.8921C17.0769 12.8921 16.8594 13.0234 16.7506 13.1659H17.2419ZM18.7719 13.1659C18.6402 13.1082 18.5318 13.0078 18.4644 12.8809L18.9369 12.8921C18.9369 12.8921 19.1544 13.0234 19.2631 13.1659H18.7719Z" fill="#083D9C" stroke="#083D9C" stroke-width="0.220833"/>
<path fill-rule="evenodd" clip-rule="evenodd" d="M4.5 16.5H31.5V21H4.5V16.5ZM4.5 3H31.5V7.5H4.5V3Z" fill="#DE2010"/>
</g>
</g>
<defs>
<filter id="filter0_d_336_26566" x="0" y="-2" width="36" height="36" filterUnits="userSpaceOnUse" color-interpolation-filters="sRGB">
<feFlood flood-opacity="0" result="BackgroundImageFix"/>
<feColorMatrix in="SourceAlpha" type="matrix" values="0 0 0 0 0 0 0 0 0 0 0 0 0 0 0 0 0 0 127 0" result="hardAlpha"/>
<feOffset dy="4"/>
<feGaussianBlur stdDeviation="3"/>
<feComposite in2="hardAlpha" operator="out"/>
<feColorMatrix type="matrix" values="0 0 0 0 0 0 0 0 0 0 0 0 0 0 0 0 0 0 0.16 0"/>
<feBlend mode="normal" in2="BackgroundImageFix" result="effect1_dropShadow_336_26566"/>
<feBlend mode="normal" in="SourceGraphic" in2="effect1_dropShadow_336_26566" result="shape"/>
</filter>
<clipPath id="clip0_336_26566">
<rect width="24" height="18" fill="white" transform="translate(6 3)"/>
</clipPath>
</defs>
</svg>
