<svg width="36" height="31" viewBox="0 0 36 31" fill="none" xmlns="http://www.w3.org/2000/svg">
<g filter="url(#filter0_d_336_16907)">
<g clip-path="url(#clip0_336_16907)">
<path d="M6 3H30V21H6V3Z" fill="#CF142B"/>
<path d="M26.9881 7.89844V13.9584C26.9881 15.5747 23.7556 16.1034 23.7556 16.1034C23.7556 16.1034 20.5156 15.5784 20.5156 13.9509V7.89844H26.9844H26.9881Z" fill="white"/>
<path d="M26.9881 13.9571C26.9881 15.5734 23.7556 16.1021 23.7556 16.1021C23.7556 16.1021 20.5156 15.5771 20.5156 13.9496C20.5156 13.9496 20.5156 13.8184 20.5831 13.7471C20.5831 13.7471 20.5456 14.0134 20.7519 14.2196C20.7519 14.2196 20.5906 13.9271 20.7519 13.6459C20.7519 13.6459 20.6881 14.0134 20.9169 14.2196C20.9169 14.2196 20.7931 13.9234 20.9319 13.5934C20.9319 13.5934 20.8644 14.1296 21.1081 14.2421C21.1081 14.2421 21.1756 13.9271 21.0781 13.7321C21.0781 13.7321 21.2469 13.7996 21.2394 14.2496C21.2394 14.2496 21.2919 14.1821 21.3069 13.8559C21.3069 13.8559 21.3144 14.2309 21.4381 14.3171C21.4381 14.3171 21.4831 14.2796 21.4269 14.1109C21.3669 13.9459 21.4494 13.8859 21.4644 13.8859C21.4644 13.8859 21.4344 14.0734 21.5919 14.2159C21.5919 14.2159 21.5244 13.9196 21.6181 13.8784C21.6181 13.8784 21.5956 14.1296 21.7981 14.1821C21.7981 14.1821 21.8094 14.1109 21.7681 14.0321C21.7681 14.0321 21.7306 13.9384 21.7569 13.8634C21.7569 13.8634 21.8206 14.0884 21.9069 14.1259C21.9069 14.1259 21.8544 13.9909 21.9069 13.8634C21.9069 13.8634 21.9144 14.0509 22.0831 14.1296C22.0831 14.1296 21.9706 13.9796 22.0119 13.8221L23.0881 13.8746L23.6506 13.9009L25.3269 13.7884L25.6119 13.5371C25.6119 13.5371 25.7281 13.6909 25.5444 13.9421C25.5444 13.9421 25.7244 13.9121 25.7806 13.6309C25.7806 13.6309 25.8556 13.7846 25.7544 13.9609C25.7544 13.9609 25.9531 13.7584 25.9794 13.5371C25.9794 13.5371 26.0581 13.7546 25.8706 13.9871C25.8706 13.9871 26.0356 13.9271 26.1069 13.6834C26.1069 13.6834 26.1669 13.8334 26.0056 14.0396C26.0056 14.0396 26.3094 13.8859 26.3019 13.5521C26.3019 13.5521 26.4256 13.7321 26.2831 13.9871C26.2831 13.9871 26.4331 13.8484 26.4519 13.6384C26.4519 13.6384 26.5381 13.7321 26.4444 13.9909C26.4444 13.9909 26.6319 13.8109 26.6619 13.6196C26.6619 13.6196 26.6994 13.7996 26.5419 14.0246C26.5419 14.0246 26.6506 13.9946 26.7556 13.7771C26.7556 13.7771 26.7819 13.8671 26.6881 14.0246C26.6881 14.0246 26.7931 14.0059 26.8606 13.8034C26.8606 13.8034 26.8719 13.9234 26.8419 14.0284C26.8419 14.0284 26.9206 13.9796 26.9394 13.7546C26.94 13.8126 26.9555 13.8694 26.9844 13.9196V13.9496L26.9881 13.9571Z" fill="#2F8F22"/>
<path d="M25.3278 10.4514C25.3278 10.4514 25.2153 10.4739 25.0653 10.4289C24.9228 10.3839 24.8666 10.4027 24.8216 10.4289C24.8216 10.4289 24.8778 10.3127 24.7353 10.2189C24.7353 10.2189 24.7803 10.3389 24.7166 10.3914C24.7166 10.3914 24.6903 10.4177 24.6566 10.3802C24.6566 10.3802 24.6078 10.3239 24.5516 10.2902C24.5516 10.2902 24.6753 10.2452 24.6528 10.1214C24.6303 9.99766 24.5628 9.98641 24.5291 9.96766C24.523 9.99735 24.523 10.028 24.5291 10.0577C24.5291 10.0577 24.3978 9.98266 24.5741 9.88141C24.7541 9.78016 24.7241 9.71641 24.6903 9.66391C24.6557 9.61086 24.6111 9.56502 24.5591 9.52891C24.5591 9.52891 24.5966 9.58891 24.5853 9.63766C24.5816 9.68266 24.4953 9.71266 24.5103 9.63391C24.5291 9.54391 24.5103 9.55891 24.5103 9.47266C24.5103 9.47266 24.6678 9.52516 24.7353 9.36766C24.7353 9.36766 24.7953 9.20641 24.5928 9.12766C24.5928 9.12766 24.6416 9.19516 24.6191 9.24016C24.6191 9.24016 24.5741 9.32266 24.5253 9.26266C24.4766 9.19891 24.4428 9.18016 24.4466 9.10516C24.4466 9.10516 24.6303 9.13141 24.5816 8.92891C24.5816 8.92891 24.5478 9.06391 24.3116 8.88391C24.3116 8.88391 24.4691 8.72641 24.4053 8.59891C24.4053 8.59891 24.3866 8.54266 24.2216 8.57266C24.2216 8.57266 24.3641 8.48266 24.3078 8.40391C24.3078 8.40391 24.2741 8.35516 24.1353 8.41891C24.1353 8.41891 24.1916 8.33266 24.0566 8.23141C24.0566 8.23141 23.9666 8.27641 23.9216 8.32141C23.9216 8.32141 23.8316 8.20891 23.7716 8.16016C23.7716 8.16016 23.6666 8.20141 23.6403 8.32141C23.6403 8.32141 23.5916 8.26516 23.4791 8.23141C23.4791 8.23141 23.4266 8.33641 23.4978 8.41891C23.4978 8.41891 23.4453 8.41891 23.3478 8.37766C23.3478 8.37766 23.2428 8.33266 23.2616 8.41891C23.2728 8.50891 23.2841 8.53141 23.3066 8.57641C23.3066 8.57641 23.0628 8.52016 23.0741 8.65141C23.0762 8.69573 23.0873 8.73917 23.1066 8.77912C23.126 8.81907 23.1531 8.85471 23.1866 8.88391C23.1866 8.88391 23.0553 9.06391 22.9391 8.92891C22.9391 8.92891 22.8941 8.97391 22.9841 9.08641C22.9841 9.08641 23.0741 9.18016 22.9953 9.24391C22.9953 9.24391 22.9016 9.31891 22.8566 9.16891C22.8566 9.16891 22.7028 9.32266 22.8866 9.43891C22.8866 9.43891 22.9991 9.50641 23.1228 9.40141C23.1228 9.40141 23.0853 9.70141 22.9728 9.64141C22.9728 9.64141 22.9016 9.59641 23.0253 9.53266C23.0253 9.53266 22.8453 9.51016 22.8191 9.68266C22.8191 9.68266 22.7966 9.81391 22.9503 9.87016C22.9503 9.87016 23.0666 9.91516 22.9503 10.0052C22.9503 10.0052 22.8566 10.0689 22.9166 10.1702C22.9166 10.1702 22.9841 10.2752 22.8078 10.2902C22.8078 10.2902 22.7178 10.2902 22.6841 10.2752C22.6841 10.2752 22.6466 10.3502 22.6691 10.4252C22.6691 10.4252 22.5828 10.3614 22.3878 10.4327C22.1928 10.5077 22.2041 10.4552 22.1928 10.4777L22.1328 10.5677C22.1328 10.5677 22.2378 10.7027 22.2416 10.6914L22.2191 10.8414L22.2716 10.8639L22.6766 10.6839L23.0891 10.4702L23.4228 10.4852L23.6328 10.5339L23.9028 10.5564L24.1053 10.4514H24.3903L24.7053 10.6089L25.0616 10.8227L25.2491 10.8602L25.3953 10.8489V10.5564L25.3278 10.4514Z" fill="#D40000" stroke="black" stroke-width="0.10125" stroke-linejoin="round"/>
<path d="M22.0588 10.7889C22.0588 10.7889 22.2163 10.8714 22.2838 10.7776C22.2838 10.7776 22.3663 10.6126 22.1788 10.5526C22.1788 10.5526 22.2838 10.4326 22.1713 10.3201C22.1713 10.3201 22.1113 10.2601 22.0138 10.3014C22.0138 10.3014 21.9688 10.2151 21.875 10.2189C21.875 10.2189 21.785 10.2189 21.7625 10.3126C21.7625 10.3126 21.6425 10.2676 21.5788 10.3351C21.5788 10.3351 21.4663 10.4551 21.62 10.5526L21.7288 10.5639L21.8338 10.5114L21.9575 10.5451C21.9575 10.5451 21.9238 10.6651 22.0588 10.7889V10.7889Z" fill="#D40000" stroke="black" stroke-width="0.10125" stroke-linejoin="round"/>
<path d="M25.5613 10.504C25.6139 10.4974 25.6673 10.5076 25.7138 10.5332C25.7603 10.5588 25.7975 10.5985 25.82 10.6465C25.9175 10.879 25.7075 11.0065 25.7075 11.0065C25.7225 11.0553 25.7263 11.1265 25.7263 11.1265C26.0188 11.164 25.9663 11.494 25.9663 11.494L25.8688 11.4115C25.7 11.344 25.52 11.494 25.3963 11.734C25.2688 11.9815 25.3288 12.0903 25.3513 12.3828C25.3738 12.6715 25.8388 12.8478 25.8388 12.8478L25.475 13.7853C25.3325 14.1603 25.025 14.0065 24.9388 13.924C24.8525 13.849 24.83 13.894 24.7888 13.924C24.7475 13.9615 24.9875 14.149 24.545 14.329C24.1063 14.5053 24.0313 14.6403 23.9563 14.6853C23.8813 14.7303 23.5813 14.704 23.5513 14.6628C23.5138 14.6253 23.5363 14.6253 23.42 14.554C23.3075 14.4903 23.1125 14.4228 22.9025 14.3215C22.6925 14.2203 22.7 14.089 22.7038 14.0628C22.7038 14.0365 22.775 13.819 22.5275 13.9915C22.2838 14.1678 22.0738 13.909 22.0738 13.909C22.0288 13.8453 21.8188 13.294 21.8188 13.294C21.7754 13.1405 21.7216 12.9901 21.6575 12.844C21.6575 12.844 21.6425 12.874 21.8263 12.769C22.0063 12.6678 22.0888 12.4953 22.1525 12.3228C22.2163 12.1503 22.1525 11.854 22.13 11.7978C22.1075 11.7378 21.9725 11.464 21.8038 11.4078C21.6388 11.3478 21.5225 11.4978 21.5225 11.4978C21.5225 11.4978 21.4738 11.1603 21.77 11.1228C21.77 11.1228 21.77 11.0553 21.785 11.0065C21.785 11.0065 21.575 10.879 21.6725 10.6465C21.6725 10.6465 21.74 10.4853 21.9275 10.504L21.8863 10.594C21.8863 10.594 21.8413 11.0665 22.5313 10.7515C23.225 10.429 23.2063 10.369 23.6075 10.5715L23.8925 10.5678C23.8925 10.5678 24.305 10.369 24.4438 10.4553C24.575 10.5415 25.055 10.8078 25.055 10.8078C25.055 10.8078 25.52 10.984 25.6138 10.6578L25.5613 10.504Z" fill="#64B4D1" stroke="black" stroke-width="0.10125"/>
<path d="M23.4656 12.5627C23.4656 12.5627 23.4431 12.4164 23.4206 12.3227C23.4206 12.3227 23.3644 12.1764 23.4581 12.0677L23.5631 11.9439C23.5631 11.9439 23.6306 11.8539 23.7131 11.8427C23.7131 11.8427 23.7994 11.8427 23.8031 11.8239C23.8144 11.8052 23.9081 11.6552 24.1256 11.8239C24.1256 11.8239 24.1931 11.7114 24.3056 11.6889C24.3056 11.6889 24.4181 11.6589 24.4744 11.7414C24.4744 11.7414 24.6056 11.6439 24.7144 11.8052C24.7144 11.8052 24.8681 11.7152 24.9844 11.8914C24.9844 11.8914 25.1344 11.8164 25.2244 11.9702C25.3181 12.1314 25.2994 12.1952 25.2994 12.1952L25.3744 12.4502L25.6181 12.7502L25.0481 12.9677H24.7856L24.2719 13.1027L23.3606 13.1739L23.1094 12.8739L23.4694 12.5627H23.4656Z" fill="white" stroke="#00247D" stroke-width="0.10125" stroke-miterlimit="10"/>
<path d="M22.6995 14.0807C22.6995 14.0807 22.5645 14.0845 22.4933 14.1257C22.4258 14.1557 22.3695 14.1932 22.2908 14.2457C22.2908 14.2457 22.2533 14.2945 22.0958 14.2645C22.0958 14.2645 21.8258 14.2007 21.8258 14.4145C21.8258 14.4145 21.4958 14.437 21.6308 14.7257C21.6308 14.7257 21.717 14.9507 21.9045 14.7932C21.9045 14.7932 21.7845 14.962 22.017 15.0295C22.017 15.0295 22.182 15.0745 22.2345 14.8982C22.2345 14.8982 22.2608 14.8307 22.197 14.7482C22.197 14.7482 22.2758 14.7332 22.332 14.647C22.332 14.647 22.1595 14.8645 22.3508 14.947C22.3508 14.947 22.587 15.0032 22.5983 14.7595C22.5983 14.7595 22.5758 14.6395 22.6733 14.5982C22.6733 14.5982 22.8608 14.5532 22.9358 14.3507C22.9358 14.3507 22.6733 14.2045 22.6995 14.0807V14.0807ZM22.1483 11.9245C22.1483 11.9245 21.9383 11.8307 21.8333 11.9245C21.8333 11.9245 21.702 11.842 21.552 11.9245C21.552 11.9245 21.4133 12.0145 21.3158 12.1195C21.3158 12.1195 21.2483 12.1757 21.2708 12.3595C21.2708 12.3595 21.3083 12.4907 21.2895 12.5507C21.2895 12.5507 21.2445 12.5432 21.1508 12.6557C21.1508 12.6557 21.0345 12.787 20.9258 12.667C20.9258 12.667 20.9633 12.8395 21.1545 12.8095C21.1545 12.8095 21.0608 12.8845 21.1433 13.072C21.1433 13.072 21.2033 13.207 21.1058 13.3795C21.1058 13.3795 21.2745 13.312 21.2708 13.1095C21.2708 13.1095 21.252 12.9745 21.3083 12.8845C21.3083 12.8845 21.252 12.967 21.3683 13.1507C21.3683 13.1507 21.4583 13.2857 21.387 13.4207C21.387 13.4207 21.552 13.3607 21.537 13.1582C21.522 12.9557 21.4245 13.0382 21.4845 12.8507C21.4845 12.8507 21.5033 12.9482 21.552 13.0007C21.5894 13.0322 21.6175 13.0733 21.6333 13.1195C21.6492 13.1658 21.6522 13.2154 21.642 13.2632C21.642 13.2632 21.7395 13.1357 21.717 13.0082C21.7106 12.9508 21.6941 12.8949 21.6683 12.8432L21.9833 12.6632L22.1445 12.382L22.1483 11.9245Z" fill="#D40000" stroke="black" stroke-width="0.10125" stroke-linejoin="round"/>
<path d="M21.6678 12.7308C21.6678 12.7308 21.5366 12.7233 21.5178 12.6183M21.2891 12.5508C21.2891 12.5508 21.3341 12.5508 21.3791 12.5958C21.3791 12.5958 21.4053 12.6408 21.4503 12.6333" stroke="black" stroke-width="0.10125" stroke-miterlimit="10"/>
<path d="M21.8634 12.3449C21.8634 12.3449 21.7959 12.3449 21.7509 12.3149C21.7509 12.3149 21.7172 12.2886 21.6947 12.3299C21.6947 12.3299 21.6572 12.3899 21.7247 12.4161C21.7247 12.4161 21.8072 12.4611 21.6797 12.5436C21.6797 12.5436 21.8297 12.4836 21.7697 12.4086C21.7697 12.4086 21.7022 12.3636 21.7247 12.3449C21.7247 12.3449 21.7322 12.3299 21.7622 12.3449C21.7847 12.3674 21.8372 12.3599 21.8634 12.3449V12.3449Z" fill="black"/>
<path d="M23.9105 12.7131L23.9892 12.6906L23.4642 10.8906H23.4492L23.9105 12.7131Z" fill="#784421" stroke="black" stroke-width="0.10125"/>
<path d="M22.1703 14.7108C22.1703 14.7108 22.0503 14.6396 21.9453 14.7221C21.9453 14.7221 21.9603 14.6771 22.0353 14.6583C22.0353 14.6583 22.0803 14.5383 22.1966 14.5496C22.1966 14.5496 22.1478 14.6096 22.0841 14.6546C22.0841 14.6546 22.1516 14.6621 22.1741 14.7108H22.1703Z" fill="black"/>
<path d="M21.7403 14.9919C21.7403 14.9919 21.5453 14.8719 21.6541 14.6656C21.6541 14.6656 21.6841 14.6094 21.7403 14.6206C21.7403 14.6206 21.8641 14.6581 21.7703 14.8269C21.7703 14.8269 21.7178 14.9356 21.7403 14.9956V14.9919ZM22.1341 15.1906C22.1341 15.1906 21.8566 15.0631 21.9428 14.8456C21.9428 14.8456 21.9691 14.7706 22.0328 14.7781C22.0328 14.7781 22.1378 14.7856 22.1191 14.9281C22.1191 14.9281 22.0853 15.0631 22.1341 15.1906V15.1906Z" fill="#64B4D1" stroke="#00247D" stroke-width="0.10125" stroke-miterlimit="2.6"/>
<path d="M22.0777 14.3848C22.0777 14.3848 21.9914 14.4485 21.9614 14.4898C21.9614 14.4898 21.9239 14.4448 21.8789 14.4223C21.8789 14.4223 21.9352 14.411 21.9614 14.4335C21.9614 14.4335 22.0064 14.396 22.0739 14.3848H22.0777Z" fill="black"/>
<path d="M22.3203 15.1349C22.3203 15.1349 22.5453 15.0824 22.5003 14.8536C22.5003 14.8536 22.4778 14.7561 22.3878 14.7711C22.3878 14.7711 22.2753 14.8011 22.3503 14.9436C22.3503 14.9436 22.3916 15.0411 22.3203 15.1349V15.1349Z" fill="#64B4D1" stroke="#00247D" stroke-width="0.10125" stroke-miterlimit="2.6"/>
<path d="M23.3086 10.3766L23.5223 10.4479C23.5223 10.4479 23.7248 10.5341 23.9836 10.4479L24.1786 10.3729L24.0473 10.5754V10.6841L24.1261 10.8041C24.1261 10.8041 24.0773 10.8266 23.9236 10.7291C23.9236 10.7291 23.7586 10.6016 23.5636 10.7291C23.5636 10.7291 23.4511 10.8041 23.3611 10.8041L23.4923 10.6616L23.4436 10.5304L23.3086 10.3691V10.3766Z" fill="#F5CE00" stroke="black" stroke-width="0.10125" stroke-miterlimit="2.6"/>
<path d="M22.4077 14.8684C22.4077 14.8684 22.4152 14.8534 22.4077 14.8496L22.3889 14.8571C22.3889 14.8571 22.3664 14.8946 22.3889 14.9471C22.3889 14.9471 22.4077 14.9809 22.4002 15.0146V15.0296C22.4002 15.0296 22.4114 15.0259 22.4114 15.0146C22.4114 15.0146 22.4264 14.9846 22.4039 14.9471C22.4039 14.9471 22.3814 14.8946 22.4077 14.8684V14.8684Z" fill="white"/>
<path d="M25.425 10.7889C25.425 10.7889 25.2675 10.8714 25.2 10.7776C25.2 10.7776 25.1213 10.6126 25.3088 10.5526C25.3088 10.5526 25.2038 10.4326 25.3125 10.3201C25.3125 10.3201 25.3725 10.2601 25.47 10.3014C25.47 10.3014 25.515 10.2151 25.6088 10.2189C25.6088 10.2189 25.6988 10.2189 25.7213 10.3126C25.7213 10.3126 25.845 10.2676 25.9088 10.3351C25.9088 10.3351 26.0138 10.4551 25.8638 10.5526L25.755 10.5639L25.6463 10.5114L25.5338 10.5451C25.5338 10.5451 25.5638 10.6651 25.4213 10.7889H25.425Z" fill="#D40000" stroke="black" stroke-width="0.10125" stroke-linejoin="round"/>
<path d="M24.1801 10.6655C24.1801 10.6655 24.1801 10.6955 24.1501 10.703C24.1501 10.703 24.1126 10.7142 24.0938 10.6692V10.658C24.0938 10.6392 24.0826 10.583 24.1463 10.5342C24.1463 10.5342 24.2438 10.4555 24.4313 10.553C24.6122 10.6547 24.7974 10.7485 24.9863 10.8342C24.9863 10.8342 25.1026 10.8942 25.2826 10.9017C25.2826 10.9017 25.5263 10.9205 25.6313 10.748C25.6313 10.748 25.7101 10.6167 25.6313 10.5305C25.6313 10.5305 25.5976 10.493 25.5451 10.5005C25.5178 10.5066 25.4937 10.5226 25.4776 10.5455C25.4776 10.5455 25.4401 10.598 25.4813 10.6392C25.4813 10.6392 25.5413 10.6767 25.5638 10.6017C25.5638 10.6092 25.5826 10.6655 25.5488 10.7105C25.5488 10.7105 25.3988 10.9355 24.9901 10.7067L24.4538 10.403C24.4538 10.403 24.1876 10.2642 24.0188 10.4817C24.0188 10.4817 23.8913 10.6617 24.0601 10.778C24.0601 10.778 24.1876 10.853 24.2626 10.733C24.2626 10.733 24.3301 10.6167 24.2251 10.568C24.2251 10.568 24.1351 10.523 24.1013 10.613C24.0638 10.703 24.1688 10.7255 24.1763 10.6617C24.1763 10.6617 24.1763 10.6467 24.1876 10.6617L24.1801 10.6655Z" fill="#F5CE00" stroke="black" stroke-width="0.10125" stroke-miterlimit="2.6"/>
<path d="M22.0506 11.5959V11.2584C22.0506 11.2284 22.0506 11.2134 22.0956 11.1759C22.1331 11.1459 22.1744 11.0897 22.2344 11.2397C22.2344 11.2397 22.3544 11.1084 22.3919 11.0897C22.3919 11.0897 22.4669 11.0334 22.5156 11.1159C22.5156 11.1159 22.5756 11.0184 22.6281 10.9959C22.6281 10.9959 22.7481 10.9209 22.7519 11.1534L22.8456 11.0634C22.8456 11.0634 22.9206 11.0072 23.0031 11.0897C23.0031 11.0897 23.1344 11.2247 23.1531 11.2622C23.1531 11.2622 23.1831 11.2997 23.1906 11.3634C23.1906 11.3634 23.1906 11.4384 23.2281 11.4759C23.2281 11.4759 23.2694 11.5134 23.3106 11.5209C23.3106 11.5209 23.4044 11.5247 23.4456 11.6184C23.4456 11.6184 23.4569 11.5997 23.5056 12.0384V12.8447L22.9656 13.4859L22.0994 13.2384L21.7544 13.0922L21.6719 12.8447L22.0094 12.6234L22.1894 12.1359L22.1331 11.7872L22.0506 11.5922V11.5959Z" fill="#E4CB5E" stroke="black" stroke-width="0.10125" stroke-miterlimit="2.6"/>
<path d="M24.4336 12.0141L24.4786 11.9578L24.5723 11.8828C24.5723 11.8828 24.7223 12.2728 24.7298 12.3591V12.4791C24.7298 12.4791 24.9548 12.5391 24.9998 12.8803L24.8123 13.2253L24.5198 13.0603L24.4336 13.0041V12.0178V12.0141Z" fill="#784421" stroke="black" stroke-width="0.10125"/>
<path d="M21.6868 14.7159C21.6868 14.7159 21.6943 14.7046 21.6868 14.6934L21.668 14.7084C21.668 14.7084 21.6118 14.7721 21.6605 14.8734C21.6605 14.8734 21.6605 14.8884 21.6718 14.8809C21.6718 14.8809 21.683 14.8809 21.6718 14.8696C21.6718 14.8696 21.6305 14.7796 21.6868 14.7196V14.7159Z" fill="white"/>
<path d="M22.5623 14.6473C22.5623 14.6473 22.5661 14.6173 22.5473 14.5873C22.5473 14.5873 22.5361 14.5648 22.5398 14.5311M22.7498 11.1523C22.7498 11.1523 22.7498 11.2386 22.7761 11.3023C22.7986 11.3623 22.8848 11.4711 22.8886 11.5236" stroke="black" stroke-width="0.10125" stroke-miterlimit="10"/>
<path d="M24.7869 14.082C24.7869 14.082 24.9219 14.0858 24.9931 14.127C25.0681 14.157 25.1206 14.1945 25.1994 14.247C25.1994 14.247 25.2369 14.2958 25.3944 14.2658C25.3944 14.2658 25.6644 14.202 25.6644 14.4158C25.6644 14.4158 25.9906 14.4383 25.8594 14.727C25.8594 14.727 25.7694 14.952 25.5819 14.7945C25.5819 14.7945 25.7019 14.9633 25.4694 15.0308C25.4694 15.0308 25.3044 15.0758 25.2556 14.8995C25.2556 14.8995 25.2256 14.832 25.2931 14.7495C25.2931 14.7495 25.2144 14.7345 25.1619 14.6483C25.1619 14.6483 25.3306 14.8658 25.1431 14.9483C25.1431 14.9483 24.9069 15.0045 24.8919 14.7608C24.8919 14.7608 24.9106 14.6408 24.8169 14.5995C24.8169 14.5995 24.6294 14.5545 24.5469 14.352C24.5469 14.352 24.8169 14.2058 24.7906 14.082H24.7869Z" fill="#D40000" stroke="black" stroke-width="0.10125" stroke-linejoin="round"/>
<path d="M22.6406 11.5269L22.8656 13.3194M22.6969 11.5231L22.9444 13.1956M22.7381 11.5156L23.0306 13.1731" stroke="black" stroke-width="0.10125" stroke-miterlimit="10"/>
<path d="M23.1956 13.0313L23.2781 13.0051L22.7531 11.2051H22.7344L23.1956 13.0313Z" fill="#784421" stroke="black" stroke-width="0.10125"/>
<path d="M22.9009 11.4492L23.4297 12.7805M22.8672 11.468L23.3772 12.8555" stroke="black" stroke-width="0.10125" stroke-miterlimit="10"/>
<path d="M22.0341 15.0607C22.0341 15.0607 21.9704 15.0045 21.9816 14.8995C21.9816 14.8995 21.9816 14.877 21.9704 14.8732C21.9704 14.8732 21.9591 14.8695 21.9591 14.8957C21.9591 14.8957 21.9404 15.0045 22.0154 15.0645C22.0154 15.0645 22.0191 15.0757 22.0304 15.072C22.0304 15.072 22.0379 15.072 22.0304 15.0607H22.0341Z" fill="white"/>
<path d="M22.9312 11.4297L23.4675 12.6447M22.7812 11.5047L23.1187 13.1434" stroke="black" stroke-width="0.10125" stroke-miterlimit="10"/>
<path d="M25.4999 12.7133C25.2636 12.5783 25.2111 12.2858 25.2111 12.2858C25.1772 12.105 25.1981 11.9183 25.2711 11.7495C25.4211 11.427 25.6874 11.3633 25.6874 11.3633C25.6874 11.3633 25.4286 11.5433 25.3574 11.7833C25.3574 11.7833 25.3049 11.9895 25.3349 12.1845C25.3649 12.3908 25.3536 12.3383 25.4024 12.4958L25.4999 12.7208V12.7133Z" fill="#F5CE00" stroke="black" stroke-width="0.10125" stroke-miterlimit="2.6"/>
<path d="M24.477 11.9512L23.4795 12.2699L23.427 12.7199C23.1908 13.0612 22.707 13.1212 22.707 13.1212L23.082 13.5224L23.7945 13.6724L24.177 13.3799L24.522 13.0649C24.4845 12.8962 24.5033 12.6449 24.5033 12.6449C24.5033 12.5999 24.522 12.5024 24.522 12.5024C24.522 12.5024 24.4658 12.1012 24.477 11.9587V11.9512Z" fill="#784421" stroke="black" stroke-width="0.10125"/>
<path d="M23.4361 12.6074C23.4361 12.6074 24.0961 12.4012 24.4861 12.2324M23.1211 12.9824C23.1211 12.9824 23.9461 12.8324 24.5198 12.5024L24.7298 12.3599" stroke="black" stroke-width="0.10125" stroke-miterlimit="10"/>
<path d="M24.7317 12.4805L24.5067 12.6455C24.5067 12.6455 23.588 13.0655 22.8867 13.0805M24.503 12.9455C24.503 12.9455 23.798 13.313 23.4005 13.313" stroke="black" stroke-width="0.10125" stroke-miterlimit="10"/>
<path d="M25.3438 11.9245C25.3438 11.9245 25.5538 11.8307 25.6588 11.9245C25.6588 11.9245 25.7937 11.842 25.9437 11.9245C25.9437 11.9245 26.0788 12.0145 26.1763 12.1195C26.1763 12.1195 26.2438 12.1757 26.2213 12.3595C26.2213 12.3595 26.1838 12.4907 26.21 12.5507C26.21 12.5507 26.2513 12.5432 26.3413 12.6557C26.3413 12.6557 26.465 12.787 26.5663 12.667C26.5663 12.667 26.5363 12.8395 26.3413 12.8095C26.3413 12.8095 26.4313 12.8845 26.3525 13.072C26.3525 13.072 26.2925 13.207 26.39 13.3795C26.39 13.3795 26.2175 13.312 26.225 13.1095C26.225 13.1095 26.24 12.9745 26.1875 12.8845C26.1875 12.8845 26.24 12.967 26.1237 13.1507C26.1237 13.1507 26.0338 13.2857 26.1088 13.4207C26.1088 13.4207 25.94 13.3607 25.9588 13.1582C25.97 12.9557 26.0713 13.0382 26.0075 12.8507C26.0075 12.8507 25.9925 12.9482 25.9437 13.0007C25.9064 13.0322 25.8783 13.0733 25.8624 13.1195C25.8466 13.1658 25.8436 13.2154 25.8538 13.2632C25.8538 13.2632 25.7563 13.1357 25.7788 13.0082C25.8013 12.877 25.8237 12.8432 25.8237 12.8432L25.5125 12.6632L25.355 12.382L25.3438 11.9245Z" fill="#D40000" stroke="black" stroke-width="0.10125" stroke-linejoin="round"/>
<path d="M21.7733 13.0647C21.7733 13.0647 21.8033 12.9259 21.9345 12.9747C21.9345 12.9747 21.9795 12.7497 22.2233 12.7422C22.467 12.7347 22.4783 12.9822 22.4783 12.9972C22.4783 12.9972 22.5533 12.8922 22.6695 12.9034C22.6695 12.9034 22.8758 12.8922 22.8045 13.2222L22.842 13.2672C22.842 13.2672 22.9958 12.8959 23.3183 12.9897C23.3183 12.9897 23.6333 13.0872 23.4308 13.3909C23.4308 13.3909 23.5883 13.5972 23.7158 13.5784C23.8508 13.5597 23.967 13.5184 24.0983 13.2859C24.2333 13.0534 24.537 13.0159 24.612 13.0309C24.687 13.0422 24.7508 13.0984 24.762 13.1509C24.762 13.1509 24.9233 12.6147 25.5045 12.6934L25.737 12.8172L25.827 12.8547L25.692 13.2297L25.377 13.9497L25.1295 14.0247L24.8745 13.8784L24.7845 13.9234V14.1447L24.447 14.3847L24.2145 14.4784L23.9595 14.6584L23.8958 14.8159C23.8958 14.8159 23.757 14.7522 23.5958 14.8159L23.5433 14.6809L23.3933 14.5422L22.8083 14.2647L22.707 13.9272L22.5983 13.8784L22.4783 14.0134L22.3095 14.0359L22.047 13.8559L21.7695 13.0684L21.7733 13.0647Z" fill="white" stroke="#00247D" stroke-width="0.10125" stroke-miterlimit="10"/>
<path d="M24.3079 10.4258C24.3079 10.4258 24.0829 10.4183 24.0942 10.6508" stroke="black" stroke-width="0.10125" stroke-miterlimit="2.6"/>
<path d="M25.764 12.8733C25.3815 12.7533 25.2765 12.3371 25.2765 12.3371C25.2307 12.1434 25.2464 11.9402 25.3215 11.7558C25.5015 11.3433 25.7978 11.3433 25.7978 11.3433C25.8359 11.3378 25.8747 11.3472 25.9062 11.3696C25.9376 11.3919 25.9592 11.4255 25.9665 11.4633C25.9815 11.5533 25.9178 11.5871 25.9178 11.5871C25.8165 11.6433 25.749 11.5683 25.749 11.5683C25.704 11.5083 25.7378 11.4596 25.7378 11.4596C25.764 11.4221 25.8128 11.4446 25.8128 11.4446C25.8615 11.4521 25.8503 11.5046 25.8503 11.5046C25.8503 11.5046 25.8653 11.4446 25.8053 11.4371C25.8053 11.4371 25.6853 11.4108 25.5503 11.5796C25.5503 11.5796 25.374 11.8083 25.374 12.1083C25.374 12.1083 25.3515 12.6633 25.9253 12.8058C25.9253 12.8058 25.8653 12.8958 25.7528 13.2221C25.7528 13.2221 25.629 13.6421 25.5128 13.8708C25.5128 13.8708 25.3515 14.1933 24.9915 14.0621C24.9915 14.0621 24.7815 13.9683 24.7815 13.8183C24.7815 13.8183 24.7703 13.6758 24.894 13.6683C24.894 13.6683 25.0178 13.6571 25.0178 13.7621C25.0178 13.7621 25.0178 13.8746 24.8865 13.8521C24.8865 13.8521 24.8415 13.8408 24.8453 13.7958C24.8453 13.7958 24.8528 13.7508 24.9128 13.7733C24.969 13.7958 24.9128 13.7733 24.9128 13.7696C24.9128 13.7696 24.8903 13.7583 24.8678 13.7696C24.8678 13.7696 24.8453 13.7696 24.8453 13.8071C24.8453 13.8071 24.8453 13.8296 24.8715 13.8483L24.9353 13.8558C24.9353 13.8558 24.9728 13.9308 25.0478 13.9571C25.0926 13.9709 25.14 13.9741 25.1862 13.9662C25.2325 13.9584 25.2762 13.9399 25.314 13.9121C25.3643 13.8685 25.403 13.8131 25.4265 13.7508C25.5022 13.5864 25.5674 13.4173 25.6215 13.2446C25.6215 13.2446 25.689 13.0308 25.749 12.9183L25.764 12.8733Z" fill="#F5CE00" stroke="black" stroke-width="0.10125" stroke-miterlimit="2.6"/>
<path d="M24.675 13.9266C24.675 13.9266 24.75 13.9191 24.75 13.9829C24.75 13.9829 24.7463 14.0729 24.63 14.0541C24.63 14.0541 24.5175 14.0316 24.555 13.9041C24.555 13.9041 24.585 13.8179 24.69 13.8291C24.69 13.8291 24.795 13.8291 24.84 13.9716C24.84 13.9716 24.8775 14.0954 24.8138 14.1966C24.7463 14.3091 24.5813 14.3841 24.4988 14.4216C24.4988 14.4216 24.1725 14.5454 24.075 14.6204C24.075 14.6204 23.925 14.7291 23.9925 14.8304C23.9925 14.8304 24.0188 14.8716 24.0563 14.8716C24.0563 14.8716 24.1013 14.8716 24.105 14.8266C24.105 14.8266 24.105 14.8529 24.0788 14.8641C24.0788 14.8641 24.0488 14.8791 24.015 14.8529C24.015 14.8529 23.9775 14.8154 24.0075 14.7629C24.0075 14.7629 24.045 14.7029 24.1425 14.7404C24.1425 14.7404 24.2175 14.7816 24.1875 14.8641C24.1875 14.8641 24.1538 14.9429 24.06 14.9391C24.06 14.9391 23.9888 14.9391 23.94 14.8941C23.865 14.8154 23.865 14.6691 23.9325 14.5941C23.9325 14.5941 23.9888 14.5154 24.1088 14.4591L24.4463 14.3279C24.5438 14.2866 24.63 14.2416 24.6863 14.1741C24.6863 14.1741 24.735 14.1216 24.7538 14.0241C24.7538 14.0241 24.7688 13.9491 24.7238 13.9341L24.6788 13.9229L24.675 13.9266Z" fill="#F5CE00" stroke="black" stroke-width="0.10125" stroke-miterlimit="2.6"/>
<path d="M24.6836 13.9269C24.6836 13.9269 24.7623 13.9119 24.8148 14.0094C24.8148 14.0094 24.8411 14.0656 24.8448 14.1031M24.8711 13.7656C24.8711 13.7656 24.7923 13.7769 24.8336 13.8931C24.8748 14.0019 24.9461 14.0319 24.9648 14.0506" stroke="black" stroke-width="0.10125" stroke-miterlimit="2.6"/>
<path d="M23.3084 10.6644C23.3084 10.6644 23.3084 10.6944 23.3459 10.7019C23.3459 10.7019 23.3759 10.7094 23.3947 10.6681V10.6569C23.3947 10.6381 23.4059 10.5819 23.3497 10.5331C23.3497 10.5331 23.2447 10.4544 23.0572 10.5519C23.0572 10.5519 22.9072 10.6269 22.8059 10.6869C22.8059 10.6869 22.5397 10.8294 22.5059 10.8369C22.5059 10.8369 22.3859 10.8969 22.2059 10.9044C22.2059 10.9044 21.9622 10.9231 21.8609 10.7506C21.8609 10.7506 21.7784 10.6194 21.8609 10.5331C21.8609 10.5331 21.8909 10.4956 21.9434 10.5031C21.9659 10.5069 21.9884 10.5181 22.0109 10.5481C22.0109 10.5481 22.0484 10.6006 22.0072 10.6419C22.0072 10.6419 21.9472 10.6794 21.9247 10.6044C21.9247 10.6119 21.9134 10.6644 21.9434 10.7169C21.9434 10.7169 22.0934 10.9381 22.4984 10.7056L23.0347 10.4056C23.0347 10.4056 23.3047 10.2669 23.4697 10.4806C23.4697 10.4806 23.5972 10.6606 23.4322 10.7806C23.4322 10.7806 23.3084 10.8556 23.2259 10.7356C23.2259 10.7356 23.1659 10.6231 23.2634 10.5706C23.2634 10.5706 23.3534 10.5256 23.3947 10.6156C23.4322 10.7056 23.3197 10.7281 23.3122 10.6644C23.3122 10.6644 23.3122 10.6494 23.3084 10.6644V10.6644ZM21.9884 12.7156C22.2247 12.5844 22.2809 12.2844 22.2809 12.2844C22.3334 11.9844 22.2172 11.7481 22.2172 11.7481C22.0672 11.4256 21.8047 11.3619 21.8047 11.3619C21.8047 11.3619 22.0597 11.5419 22.1309 11.7819C22.1309 11.7819 22.1909 11.9881 22.1534 12.1831C22.1234 12.3894 22.1347 12.3369 22.0859 12.4944L21.9884 12.7156Z" fill="#F5CE00" stroke="black" stroke-width="0.10125" stroke-miterlimit="2.6"/>
<path d="M23.1914 10.4258C23.1914 10.4258 23.4164 10.4183 23.4014 10.6508" stroke="black" stroke-width="0.10125" stroke-miterlimit="2.6"/>
<path d="M21.7236 12.8733C22.1098 12.7533 22.2111 12.3371 22.2111 12.3371C22.2581 12.1438 22.2437 11.9406 22.1698 11.7558C21.9898 11.3433 21.6936 11.3433 21.6936 11.3433C21.6554 11.3378 21.6166 11.3472 21.5852 11.3696C21.5538 11.3919 21.5322 11.4255 21.5248 11.4633C21.5136 11.5533 21.5736 11.5871 21.5736 11.5871C21.6786 11.6433 21.7461 11.5683 21.7461 11.5683C21.7873 11.5083 21.7536 11.4596 21.7536 11.4596C21.7273 11.4221 21.6786 11.4446 21.6786 11.4446C21.6336 11.4521 21.6411 11.5046 21.6411 11.5046C21.6411 11.5046 21.6298 11.4446 21.6861 11.4371C21.6861 11.4371 21.8061 11.4108 21.9411 11.5796C21.9411 11.5796 22.1211 11.8083 22.1211 12.1083C22.1211 12.1083 22.1436 12.6633 21.5661 12.8058C21.5661 12.8058 21.6298 12.8958 21.7386 13.2221C21.7386 13.2221 21.8661 13.6421 21.9861 13.8708C21.9861 13.8708 22.1436 14.1933 22.4998 14.0621C22.4998 14.0621 22.7098 13.9683 22.7098 13.8183C22.7098 13.8183 22.7248 13.6758 22.5973 13.6683C22.5973 13.6683 22.4736 13.6571 22.4736 13.7621C22.4736 13.7621 22.4736 13.8746 22.6086 13.8521C22.6086 13.8521 22.6536 13.8408 22.6461 13.7958C22.6461 13.7958 22.6386 13.7508 22.5823 13.7733C22.5223 13.7958 22.5823 13.7733 22.5823 13.7696C22.5823 13.7696 22.6011 13.7583 22.6236 13.7696C22.6236 13.7696 22.6461 13.7696 22.6461 13.8071C22.6461 13.8071 22.6461 13.8296 22.6198 13.8483L22.5636 13.8558C22.5636 13.8558 22.5261 13.9308 22.4436 13.9571C22.3995 13.9719 22.3525 13.9755 22.3067 13.9676C22.2609 13.9598 22.2177 13.9407 22.1811 13.9121C22.1308 13.8685 22.0921 13.8131 22.0686 13.7508C21.9916 13.5865 21.9252 13.4174 21.8698 13.2446C21.8698 13.2446 21.8023 13.0308 21.7498 12.9183L21.7273 12.8733H21.7236Z" fill="#F5CE00" stroke="black" stroke-width="0.10125" stroke-miterlimit="2.6"/>
<path d="M22.8183 13.9266C22.8183 13.9266 22.7433 13.9191 22.7433 13.9829C22.7433 13.9829 22.7433 14.0729 22.8633 14.0541C22.8633 14.0541 22.9758 14.0316 22.9346 13.9041C22.9346 13.9041 22.9083 13.8179 22.7996 13.8291C22.7996 13.8291 22.6983 13.8291 22.6496 13.9716C22.6496 13.9716 22.6158 14.0954 22.6796 14.1966C22.7471 14.3091 22.9121 14.3841 22.9908 14.4216C22.9908 14.4216 23.3171 14.5454 23.4183 14.6204C23.4183 14.6204 23.5646 14.7291 23.4971 14.8304C23.4971 14.8304 23.4746 14.8716 23.4333 14.8716C23.4333 14.8716 23.3883 14.8716 23.3846 14.8266C23.3846 14.8266 23.3846 14.8529 23.4108 14.8641C23.4108 14.8641 23.4446 14.8791 23.4746 14.8529C23.4746 14.8529 23.5121 14.8154 23.4821 14.7629C23.4821 14.7629 23.4446 14.7029 23.3546 14.7404C23.3546 14.7404 23.2721 14.7816 23.3096 14.8641C23.3096 14.8641 23.3358 14.9429 23.4296 14.9391C23.4296 14.9391 23.5046 14.9391 23.5496 14.8941C23.6246 14.8154 23.6246 14.6691 23.5646 14.5941C23.5646 14.5941 23.5008 14.5154 23.3846 14.4591C23.3133 14.4366 23.1783 14.3804 23.0471 14.3279C22.9458 14.2866 22.8596 14.2416 22.8033 14.1741C22.8033 14.1741 22.7546 14.1216 22.7358 14.0241C22.7358 14.0241 22.7246 13.9491 22.7696 13.9341L22.8146 13.9229L22.8183 13.9266Z" fill="#F5CE00" stroke="black" stroke-width="0.10125" stroke-miterlimit="2.6"/>
<path d="M22.8083 13.9283C22.8083 13.9283 22.7295 13.9133 22.6808 14.0108C22.6808 14.0108 22.6545 14.067 22.647 14.1045M22.6208 13.767C22.6208 13.767 22.7033 13.7783 22.662 13.8945C22.617 14.0033 22.5495 14.0333 22.527 14.052M23.5545 10.6358C23.5545 10.6358 23.7495 10.512 23.9445 10.647M22.4558 11.8208C22.4558 11.8208 22.482 11.7083 22.3583 11.5208C22.3583 11.5208 22.2758 11.3445 22.2383 11.2395M22.5158 11.1158L22.602 11.3633L22.7145 11.6183" stroke="black" stroke-width="0.10125" stroke-miterlimit="2.6"/>
<path d="M22.5442 11.9358C22.5442 11.9358 22.6192 12.0145 22.6117 12.1458M22.308 11.8495C22.308 11.8495 22.3867 11.887 22.3792 12.1045C22.3792 12.1045 22.3755 12.2545 22.4917 12.337M22.293 12.3895C22.293 12.3895 22.5442 12.3633 22.563 12.5208C22.563 12.5208 22.563 12.6708 22.653 12.682C22.653 12.682 22.7767 12.6933 22.803 12.817M22.3755 12.562C22.3755 12.562 22.4205 12.6258 22.4655 12.6595M22.698 12.397C22.698 12.397 22.758 12.4983 22.773 12.5508M22.9717 11.2383C22.9717 11.2383 23.0317 11.317 23.088 11.3508M23.2042 11.7108C23.2042 11.7108 23.3317 11.7708 23.3167 12.0858C23.3167 12.0858 23.2942 12.2733 23.3505 12.3745" stroke="black" stroke-width="0.10125" stroke-miterlimit="10"/>
<path d="M22.6172 11.4982L22.6322 11.5282C22.6322 11.5282 22.8572 11.5394 22.9734 11.3857L22.9622 11.3557C22.9622 11.3557 22.7634 11.3444 22.6247 11.4982H22.6172Z" fill="#784421" stroke="black" stroke-width="0.10125"/>
<path d="M23.4258 12.694C23.4258 12.694 24.1983 12.469 24.4983 12.334" stroke="black" stroke-width="0.10125" stroke-miterlimit="10"/>
<path d="M23.3434 11.2682L23.3359 11.2457L23.7147 11.0957L23.7259 11.1257L23.3434 11.2682Z" fill="#784421" stroke="black" stroke-width="0.10125"/>
<path d="M23.3789 11.253L23.6339 12.5017M23.4239 11.2417L23.7127 12.4792M23.4727 11.2192L23.7877 12.453M23.6002 11.1742L24.0314 12.0967M23.6564 11.1592L24.1177 12.0667M23.6939 11.1367L24.1964 12.048M23.6152 12.513L23.8102 12.453M23.4689 12.393C23.4689 12.393 24.0389 12.2242 24.4814 12.048M23.4539 12.4492C23.4539 12.4492 24.1852 12.2617 24.4739 12.1192M23.6789 13.0417L23.7164 13.1655L23.8214 13.128L23.7839 13.0117M23.9714 12.963L24.0089 13.0755L24.1139 13.0417L24.0764 12.9292M23.4764 12.2692L23.4689 12.1117L24.4252 11.823L24.4739 11.958M23.8739 11.988L23.9227 12.1305M24.2077 11.8905L24.2677 12.0255M24.2864 11.8642L24.3464 11.988M24.3614 11.838L24.4214 11.973M24.4214 11.823L24.5264 11.763L24.5714 11.8792M24.4739 11.793L24.5264 11.9167" stroke="black" stroke-width="0.10125" stroke-miterlimit="10"/>
<path d="M22.1059 13.616C22.1059 13.616 21.9184 13.4248 22.1059 13.241C22.1059 13.241 21.8997 13.1435 21.9334 12.9785M22.4434 13.766C22.4434 13.766 22.2447 13.7923 22.3047 13.4135C22.3047 13.4135 22.2222 13.5635 22.1959 13.6385C22.1842 13.6758 22.1852 13.7159 22.1988 13.7526C22.2124 13.7893 22.2377 13.8204 22.2709 13.841C22.3047 13.8635 22.4772 13.9085 22.5334 13.796M22.2222 13.1885C22.2222 13.1885 22.1434 13.2598 22.1997 13.391M22.3047 13.2035C22.3047 13.2035 22.3122 13.3348 22.3797 13.406M22.3609 13.1548C22.3609 13.1548 22.3609 13.3048 22.4697 13.4023M22.4134 13.1023C22.4134 13.1023 22.4134 13.271 22.5409 13.3798M23.0472 13.3535C23.0472 13.3535 23.1072 13.2073 23.2422 13.2185C23.2422 13.2185 23.1784 13.2485 23.1784 13.3123C23.1784 13.3123 23.1709 13.4248 23.2872 13.4323C23.2872 13.4323 23.3809 13.4473 23.4297 13.3948" stroke="#00247D" stroke-width="0.10125" stroke-miterlimit="10"/>
<path d="M23.3664 13.9904C23.3664 13.9904 23.0327 13.8329 23.0664 13.6116C23.0664 13.6116 23.0814 13.4766 23.2164 13.4091M23.1414 13.5516C23.1414 13.5516 23.1114 13.6454 23.1789 13.7129M23.2202 13.4879C23.2202 13.4879 23.1752 13.5929 23.2464 13.6679M23.3027 13.4316C23.3027 13.4316 23.2502 13.5216 23.3102 13.6004M22.9952 14.0129C22.9952 14.0129 23.1752 14.1741 23.3177 14.1741M22.9389 14.0654C22.9389 14.0654 23.1077 14.2004 23.2164 14.2229M22.8789 14.1029C22.8789 14.1029 23.0852 14.2866 23.2164 14.2979M23.7302 14.4704C23.7302 14.4704 23.5239 14.5829 23.6852 14.7029M23.5952 14.3504L23.9327 14.1779M23.6814 14.4104C23.6814 14.4104 24.0189 14.2041 24.1202 14.1591M23.8577 14.4291C23.8577 14.4291 24.1464 14.2341 24.3039 14.1479M24.0489 14.4141C24.0489 14.4141 24.2477 14.2641 24.4427 14.1479M24.5064 13.9566C24.5064 13.9566 24.4089 13.8104 24.0864 13.9566C24.0864 13.9566 24.2102 13.8479 24.4427 13.7616M24.7614 13.1504C24.7614 13.1504 24.7914 13.2666 24.7614 13.3379" stroke="#00247D" stroke-width="0.10125" stroke-miterlimit="10"/>
<path d="M24.2438 13.7143C24.2438 13.7143 24.3112 13.6168 24.48 13.5643C24.48 13.5643 24.525 13.6768 24.66 13.6581C24.66 13.6581 24.855 13.6168 24.795 13.3956C24.795 13.3956 24.7538 13.2381 24.525 13.2193M25.2037 12.9456C25.2037 12.9456 25.4325 12.9906 25.4287 13.1743C25.4287 13.1743 25.4513 13.4593 25.1513 13.5118M25.3987 13.0618C25.3987 13.0618 25.4587 12.9231 25.605 12.8668M25.4325 12.7843C25.4325 12.7843 25.4963 12.8893 25.5375 12.9006M25.4025 12.8631C25.4025 12.8631 25.4588 12.9418 25.4775 12.9568M25.38 12.9381C25.3959 12.9606 25.4148 12.9808 25.4362 12.9981M24.1875 11.8431C24.1875 11.8431 24.2325 11.7681 24.3487 11.7981M24.8025 12.3906C24.8025 12.3906 24.8775 12.0981 25.1212 12.2031M25.0237 12.1806C25.0237 12.1806 25.0462 12.0456 24.9862 11.9743M24.8513 12.1693C24.8513 12.1693 24.885 12.2256 24.855 12.2706" stroke="#00247D" stroke-width="0.10125" stroke-miterlimit="10"/>
<path d="M25.3592 15.1866C25.3592 15.1866 25.6367 15.0629 25.5505 14.8454C25.5505 14.8454 25.5242 14.7704 25.4605 14.7779C25.4605 14.7779 25.3555 14.7816 25.3742 14.9279C25.3742 14.9279 25.4117 15.0704 25.3555 15.1904L25.3592 15.1866Z" fill="#64B4D1" stroke="#00247D" stroke-width="0.10125" stroke-miterlimit="2.6"/>
<path d="M25.4531 15.0607C25.4531 15.0607 25.5169 15.0045 25.5094 14.8995C25.5094 14.8995 25.5019 14.877 25.5094 14.8732C25.5094 14.8732 25.5244 14.8695 25.5244 14.8957C25.5244 14.8957 25.5431 15.0045 25.4719 15.0645C25.4719 15.0645 25.4681 15.0757 25.4569 15.072C25.4569 15.072 25.4494 15.072 25.4569 15.0607H25.4531Z" fill="white"/>
<path d="M25.7496 14.9919C25.7496 14.9919 25.9446 14.8719 25.8396 14.6656C25.8396 14.6656 25.8058 14.6094 25.7496 14.6206C25.7496 14.6206 25.6296 14.6581 25.7233 14.8269C25.7233 14.8269 25.7683 14.9356 25.7496 14.9956V14.9919Z" fill="#64B4D1" stroke="#00247D" stroke-width="0.10125" stroke-miterlimit="2.6"/>
<path d="M25.8002 14.7159C25.8002 14.7159 25.7927 14.7046 25.8002 14.6934L25.8152 14.7084C25.8152 14.7084 25.8715 14.7721 25.8265 14.8734C25.8265 14.8734 25.8227 14.8884 25.8077 14.8809V14.8696C25.8077 14.8696 25.8527 14.7796 25.8002 14.7196V14.7159Z" fill="white"/>
<path d="M25.1619 15.1349C25.1619 15.1349 24.9444 15.0824 24.9857 14.8536C24.9857 14.8536 25.0082 14.7561 25.1019 14.7711C25.1019 14.7711 25.2144 14.8011 25.1394 14.9436C25.1394 14.9436 25.0982 15.0411 25.1657 15.1349H25.1619Z" fill="#64B4D1" stroke="#00247D" stroke-width="0.10125" stroke-miterlimit="2.6"/>
<path d="M25.0813 14.8684V14.8496C25.0813 14.8496 25.0963 14.8496 25.1001 14.8571C25.1001 14.8571 25.1226 14.8946 25.1038 14.9471C25.1038 14.9471 25.0851 14.9809 25.0963 15.0146C25.0963 15.0146 25.0963 15.0259 25.0851 15.0296L25.0776 15.0146C25.0776 15.0146 25.0663 14.9846 25.0851 14.9471C25.0851 14.9471 25.1076 14.8946 25.0851 14.8684H25.0813Z" fill="white"/>
<path d="M25.3194 14.711C25.3194 14.711 25.4469 14.6398 25.5444 14.7223C25.5444 14.7223 25.5369 14.6773 25.4544 14.6585C25.4544 14.6585 25.4169 14.5385 25.2969 14.5498C25.2969 14.5498 25.3419 14.6098 25.4094 14.6548C25.4094 14.6548 25.3419 14.6623 25.3194 14.711V14.711ZM25.4094 14.3848C25.4094 14.3848 25.4994 14.4485 25.5294 14.4898C25.5294 14.4898 25.5631 14.4448 25.6044 14.4223C25.6044 14.4223 25.5594 14.411 25.5294 14.4335C25.5294 14.4335 25.4881 14.396 25.4169 14.3848H25.4094Z" fill="black"/>
<path d="M24.9286 14.647C24.9286 14.647 24.9173 14.617 24.9398 14.587C24.9398 14.587 24.9548 14.5645 24.9473 14.5308M25.8248 12.7308C25.8248 12.7308 25.9561 12.7233 25.9748 12.6183M26.1998 12.5508C26.1998 12.5508 26.1548 12.5508 26.1173 12.5958C26.1173 12.5958 26.0836 12.6408 26.0423 12.6333" stroke="black" stroke-width="0.10125" stroke-miterlimit="10"/>
<path d="M25.6367 12.3449C25.6367 12.3449 25.7042 12.3449 25.738 12.3149C25.738 12.3149 25.7792 12.2886 25.8017 12.3299C25.8017 12.3299 25.8392 12.3899 25.7717 12.4161C25.7717 12.4161 25.6892 12.4611 25.8205 12.5436C25.8205 12.5436 25.663 12.4836 25.7305 12.4086C25.7305 12.4086 25.798 12.3636 25.768 12.3449C25.768 12.3449 25.7605 12.3299 25.7342 12.3449C25.708 12.3674 25.6555 12.3599 25.6367 12.3449V12.3449Z" fill="black"/>
<path d="M25.7266 10.7107C25.7266 10.7107 25.7566 10.6657 25.7453 10.5457C25.7303 10.4257 25.8428 10.407 25.8803 10.4407C25.8803 10.4407 25.9253 10.4782 25.8803 10.557C25.8492 10.625 25.7946 10.6796 25.7266 10.7107V10.7107Z" fill="#64B4D1" stroke="#00247D" stroke-width="0.10125" stroke-miterlimit="2.6"/>
<path d="M25.7617 10.6132C25.7617 10.6132 25.8067 10.572 25.7842 10.4782L25.7917 10.4707H25.803C25.803 10.4707 25.8255 10.5757 25.7805 10.6282C25.7805 10.6282 25.773 10.6395 25.7617 10.6282V10.6132Z" fill="white"/>
<path d="M25.6916 10.6652C25.6916 10.6652 25.6916 10.6127 25.6053 10.5302C25.5153 10.4402 25.5866 10.3652 25.6428 10.3652C25.6428 10.3652 25.6916 10.3652 25.7178 10.4515C25.7348 10.5236 25.7255 10.5994 25.6916 10.6652V10.6652Z" fill="#64B4D1" stroke="#00247D" stroke-width="0.10125" stroke-miterlimit="2.6"/>
<path d="M25.6802 10.5528C25.6802 10.5528 25.6802 10.4928 25.5977 10.4291V10.4141H25.6127C25.6127 10.4141 25.6989 10.4816 25.6989 10.5566C25.6989 10.5566 25.6989 10.5678 25.6877 10.5678C25.6877 10.5678 25.6802 10.5678 25.6802 10.5528V10.5528Z" fill="white"/>
<path d="M25.5749 10.6241C25.5749 10.6241 25.5487 10.5866 25.4437 10.5454C25.3349 10.5079 25.3612 10.4141 25.4062 10.3954C25.4062 10.3954 25.4549 10.3766 25.5037 10.4366C25.548 10.4889 25.572 10.5555 25.5712 10.6241H25.5749Z" fill="#64B4D1" stroke="#00247D" stroke-width="0.10125" stroke-miterlimit="2.6"/>
<path d="M25.522 10.5479C25.522 10.5479 25.4995 10.4954 25.402 10.4692C25.402 10.4692 25.3945 10.4692 25.3945 10.4579C25.3945 10.4579 25.3945 10.4504 25.4058 10.4542C25.4058 10.4542 25.5145 10.4767 25.5445 10.5442L25.5408 10.5554C25.5408 10.5554 25.5295 10.5554 25.5258 10.5479H25.522Z" fill="white"/>
<path d="M25.6371 10.6658C25.6371 10.6658 25.5883 10.6846 25.4721 10.6283C25.3558 10.5721 25.3071 10.6696 25.3296 10.7146C25.3296 10.7146 25.3483 10.7746 25.4346 10.7596C25.5108 10.7554 25.5829 10.7234 25.6371 10.6696V10.6658Z" fill="#64B4D1" stroke="#00247D" stroke-width="0.10125" stroke-miterlimit="2.6"/>
<path d="M25.3738 10.7031C25.3738 10.7031 25.4263 10.7406 25.5201 10.7031H25.5313C25.5313 10.7031 25.5313 10.7106 25.5238 10.7144C25.5238 10.7144 25.4263 10.7594 25.3588 10.7181C25.3588 10.7181 25.3513 10.7181 25.3588 10.7069H25.3738V10.7031Z" fill="white"/>
<path d="M25.4727 10.3008C25.4727 10.3008 25.5252 10.3308 25.5177 10.3945" stroke="black" stroke-width="0.10125" stroke-miterlimit="2.6"/>
<path d="M25.7266 10.3125C25.7266 10.3125 25.7491 10.3837 25.7266 10.425" stroke="black" stroke-width="0.10125" stroke-miterlimit="10"/>
<path d="M21.7584 10.7101C21.7584 10.7101 21.7284 10.6651 21.7396 10.5451C21.7546 10.4176 21.6459 10.4064 21.6084 10.4401C21.6084 10.4401 21.5634 10.4776 21.6009 10.5564C21.6329 10.6251 21.6889 10.6798 21.7584 10.7101V10.7101Z" fill="#64B4D1" stroke="#00247D" stroke-width="0.10125" stroke-miterlimit="2.6"/>
<path d="M21.7172 10.6132C21.7172 10.6132 21.6797 10.572 21.6947 10.4782V10.4707H21.6797C21.6797 10.4707 21.6609 10.5757 21.7059 10.6282C21.7059 10.6282 21.7134 10.6395 21.7172 10.6282V10.6132Z" fill="white"/>
<path d="M21.7937 10.6652C21.7937 10.6652 21.7937 10.6127 21.8837 10.5302C21.97 10.4402 21.8987 10.3652 21.8462 10.3652C21.8462 10.3652 21.7862 10.3652 21.7712 10.4515C21.7531 10.5231 21.7611 10.5989 21.7937 10.6652V10.6652Z" fill="#64B4D1" stroke="#00247D" stroke-width="0.10125" stroke-miterlimit="2.6"/>
<path d="M21.8077 10.5528C21.8077 10.5528 21.8077 10.4928 21.8827 10.4291C21.8827 10.4291 21.8939 10.4178 21.8827 10.4141H21.8752C21.8752 10.4141 21.7852 10.4816 21.7852 10.5566C21.7852 10.5566 21.7852 10.5678 21.8002 10.5678C21.8002 10.5678 21.8077 10.5678 21.8077 10.5528Z" fill="white"/>
<path d="M21.9102 10.6241C21.9102 10.6241 21.9327 10.5866 22.0414 10.5454C22.1464 10.5079 22.1164 10.4141 22.0752 10.3954C22.0752 10.3954 22.0302 10.3766 21.9777 10.4366C21.9333 10.4889 21.9094 10.5555 21.9102 10.6241V10.6241Z" fill="#64B4D1" stroke="#00247D" stroke-width="0.10125" stroke-miterlimit="2.6"/>
<path d="M21.9602 10.5479C21.9602 10.5479 21.9827 10.4954 22.0802 10.4692C22.0802 10.4692 22.0877 10.4692 22.0877 10.4579C22.0877 10.4579 22.0877 10.4504 22.0802 10.4542C22.0802 10.4542 21.9714 10.4767 21.9414 10.5442V10.5554C21.9414 10.5554 21.9564 10.5554 21.9602 10.5479V10.5479Z" fill="white"/>
<path d="M21.8438 10.6658C21.8438 10.6658 21.8962 10.6846 22.0087 10.6283C22.1212 10.5721 22.1737 10.6696 22.1587 10.7146C22.1587 10.7146 22.1325 10.7746 22.0462 10.7596C21.97 10.7554 21.8979 10.7234 21.8438 10.6696V10.6658Z" fill="#64B4D1" stroke="#00247D" stroke-width="0.10125" stroke-miterlimit="2.6"/>
<path d="M22.1108 10.7031C22.1108 10.7031 22.062 10.7406 21.9645 10.7031H21.957V10.7144C21.957 10.7144 22.062 10.7594 22.1258 10.7181C22.1258 10.7181 22.1333 10.7181 22.1258 10.7069H22.1108V10.7031Z" fill="white"/>
<path d="M22.0113 10.3008C22.0113 10.3008 21.9551 10.3308 21.9663 10.3945" stroke="black" stroke-width="0.10125" stroke-miterlimit="2.6"/>
<path d="M21.7561 10.3125C21.7561 10.3125 21.7336 10.3837 21.7561 10.425" stroke="black" stroke-width="0.10125" stroke-miterlimit="10"/>
<path d="M24.2502 9.65939C24.2502 9.65939 24.2877 9.76064 24.2727 9.85439C24.2614 9.94439 24.2802 9.96314 24.3102 9.98189C24.3364 9.99314 24.4002 9.96689 24.4039 9.89939C24.4039 9.89939 24.4789 10.0419 24.3364 10.1356C24.3364 10.1356 24.2352 10.1994 24.1489 10.1206C24.1189 10.0869 24.1039 10.0081 24.1227 9.93314C24.1227 9.93314 24.1452 9.83189 24.1039 9.72689C24.1039 9.72689 24.1639 9.78689 24.1489 9.91064C24.1489 9.91064 24.1189 10.1356 24.2839 10.1206C24.2839 10.1206 24.3964 10.1206 24.3964 9.98564C24.3964 9.98564 24.3552 10.0306 24.3064 10.0156C24.2838 10.0103 24.2641 9.99632 24.2515 9.97675C24.2389 9.95717 24.2344 9.93348 24.2389 9.91064C24.2427 9.85064 24.2614 9.74939 24.2502 9.65939V9.65939ZM24.0739 10.0119C24.0739 10.0119 24.0589 10.1919 23.9014 10.2331C23.9014 10.2331 23.9239 10.1994 23.8902 10.1094C23.8902 10.1094 23.8527 10.0644 23.8527 9.98564C23.8527 9.98564 23.8077 10.0231 23.8639 10.1281C23.9014 10.1919 23.8639 10.2631 23.8602 10.2669C23.8452 10.2706 24.1189 10.2294 24.0702 10.0156L24.0739 10.0119ZM23.8639 9.84314C23.8639 9.84314 23.8227 9.79814 23.8189 9.70064C23.8189 9.59939 23.8002 9.57314 23.7852 9.56564C23.7852 9.56564 23.8039 9.65189 23.8002 9.70064C23.7969 9.73879 23.802 9.77718 23.8152 9.81314C23.8152 9.81314 23.7252 9.82439 23.6689 9.70064C23.6202 9.57689 23.5677 9.58814 23.5414 9.58814C23.5414 9.58814 23.5714 9.59189 23.6314 9.70064C23.6914 9.81314 23.7102 9.83939 23.8639 9.83939V9.84314ZM23.4589 9.58064C23.4589 9.58064 23.5039 9.70064 23.5114 9.76064C23.5114 9.76064 23.3952 9.72314 23.3614 9.62939C23.3614 9.62939 23.2414 9.66689 23.2864 9.80564C23.2864 9.80564 23.1777 9.76814 23.1289 9.68564C23.1289 9.68564 23.1889 9.73064 23.2452 9.74939C23.2452 9.74939 23.2377 9.63314 23.3802 9.59189C23.3802 9.59189 23.4027 9.69314 23.4777 9.71564L23.4589 9.58064ZM23.6464 9.37814C23.6464 9.37814 23.6914 9.43439 23.7739 9.43439C23.7971 9.43612 23.8203 9.43186 23.8413 9.42201C23.8623 9.41215 23.8804 9.39704 23.8939 9.37814C23.8939 9.37814 23.8902 9.47564 23.7739 9.47939C23.7739 9.47939 23.6502 9.47939 23.6502 9.37814H23.6464ZM23.1439 10.0719L23.2189 10.1431C23.2189 10.1431 23.2639 10.1881 23.2939 10.1319C23.2939 10.1319 23.3427 10.0419 23.4027 10.0494C23.4027 10.0494 23.3577 10.0756 23.3127 10.1619C23.3127 10.1619 23.3052 10.1881 23.2677 10.1919C23.2489 10.1919 23.2302 10.1994 23.2002 10.1656C23.2002 10.1656 23.1739 10.1319 23.1439 10.0756V10.0719ZM23.7702 8.96939C23.6502 8.96939 23.7514 9.05939 23.7514 9.05939C23.7514 9.20939 23.6352 9.26189 23.5527 9.21689C23.4702 9.17189 23.5377 9.06689 23.5377 9.06689C23.5377 9.06689 23.4477 9.12314 23.5002 9.21314C23.5602 9.30314 23.7139 9.25814 23.7702 9.17939C23.8264 9.26189 23.9839 9.30314 24.0364 9.21314C24.1002 9.12314 24.0064 9.06314 24.0064 9.06314C24.0064 9.06314 24.0739 9.17189 23.9877 9.21314C23.9089 9.26189 23.7852 9.21314 23.7927 9.06314C23.7927 9.06314 23.8939 8.96939 23.7739 8.96939H23.7702ZM23.8452 8.80439C23.8452 8.80439 23.8902 8.87939 23.8827 8.99189C23.8827 8.99189 23.9164 8.87939 23.8452 8.80814V8.80439ZM23.4702 8.98064C23.4702 8.98064 23.4589 8.89814 23.3802 8.89064C23.3802 8.89064 23.4514 8.93939 23.4702 8.98064ZM24.0702 8.98064C24.0702 8.98064 24.0814 8.89814 24.1639 8.89064C24.1639 8.89064 24.0964 8.93939 24.0739 8.98064H24.0702ZM23.3502 9.10064C23.3502 9.10064 23.4102 9.11939 23.4477 9.07439L23.3502 9.10064ZM23.1477 8.60939C23.1477 8.60939 23.2189 8.60564 23.2902 8.71064C23.2902 8.71064 23.2189 8.74814 23.2002 8.77064C23.2002 8.77064 23.2002 8.73314 23.2377 8.70689C23.2377 8.70689 23.2227 8.65439 23.1477 8.61314V8.60939ZM24.3477 8.60939C24.3477 8.60939 24.2727 8.60564 24.2014 8.71064C24.2014 8.71064 24.2764 8.74814 24.2914 8.77064C24.2914 8.77064 24.2914 8.73314 24.2539 8.70689C24.2539 8.70689 24.2689 8.65439 24.3477 8.61314V8.60939ZM23.7964 8.69189C23.7964 8.69189 23.8602 8.71064 23.9389 8.66564C23.9389 8.66564 24.0364 8.61314 24.1002 8.66564C24.1002 8.66564 24.0477 8.63939 23.9389 8.69189C23.9389 8.69189 23.8377 8.75189 23.7964 8.69189Z" fill="black"/>
<path d="M23.8633 8.75912C23.8633 8.75912 23.9158 8.66537 24.0883 8.68412C24.0883 8.68412 24.0395 8.81912 23.8633 8.75912Z" fill="white"/>
<path d="M23.9792 8.77195C23.9958 8.77195 24.0092 8.75349 24.0092 8.7307C24.0092 8.70792 23.9958 8.68945 23.9792 8.68945C23.9626 8.68945 23.9492 8.70792 23.9492 8.7307C23.9492 8.75349 23.9626 8.77195 23.9792 8.77195Z" fill="#784421"/>
<path d="M23.9758 8.75562C23.9861 8.75562 23.9945 8.74387 23.9945 8.72937C23.9945 8.71488 23.9861 8.70312 23.9758 8.70312C23.9654 8.70312 23.957 8.71488 23.957 8.72937C23.957 8.74387 23.9654 8.75562 23.9758 8.75562Z" fill="black"/>
<path d="M23.5039 8.55352C23.5039 8.55352 23.6089 8.56477 23.6764 8.59852C23.6764 8.59852 23.7439 8.64352 23.8189 8.58727C23.8189 8.58727 23.9014 8.53477 23.9577 8.47102C23.9577 8.47102 23.8264 8.55727 23.7777 8.57227C23.7777 8.57227 23.7327 8.53477 23.7214 8.48602C23.7214 8.48602 23.7214 8.44852 23.7964 8.38477C23.7964 8.38477 23.7027 8.41477 23.6839 8.49352C23.6958 8.52531 23.7136 8.55457 23.7364 8.57977C23.7364 8.57977 23.7214 8.59102 23.6764 8.55727C23.6764 8.55727 23.5714 8.52727 23.5039 8.55727V8.55352ZM23.7739 9.19102C23.6839 9.26977 23.7739 9.26227 23.7739 9.26227C23.7739 9.26227 23.8639 9.26977 23.7739 9.18727V9.19102ZM23.7214 8.69602C23.7214 8.69602 23.6539 8.71477 23.5714 8.66977C23.5714 8.66977 23.4739 8.61727 23.4102 8.66977C23.4102 8.66977 23.4664 8.64352 23.5714 8.69602C23.5714 8.69602 23.6802 8.75602 23.7214 8.69602Z" fill="black"/>
<path d="M23.6547 8.75912C23.6547 8.75912 23.5984 8.66537 23.4297 8.68412C23.4297 8.68412 23.4747 8.81912 23.6547 8.75912Z" fill="white"/>
<path d="M23.5378 8.77195C23.5544 8.77195 23.5678 8.75349 23.5678 8.7307C23.5678 8.70792 23.5544 8.68945 23.5378 8.68945C23.5212 8.68945 23.5078 8.70792 23.5078 8.7307C23.5078 8.75349 23.5212 8.77195 23.5378 8.77195Z" fill="#784421"/>
<path d="M23.5383 8.75562C23.5486 8.75562 23.557 8.74387 23.557 8.72937C23.557 8.71488 23.5486 8.70312 23.5383 8.70312C23.5279 8.70312 23.5195 8.71488 23.5195 8.72937C23.5195 8.74387 23.5279 8.75562 23.5383 8.75562Z" fill="black"/>
<path d="M26.9998 7.89844V13.9584C26.9998 15.5747 23.7673 16.1034 23.7673 16.1034C23.7673 16.1034 20.5273 15.5784 20.5273 13.9584V7.89844H27.0036H26.9998Z" stroke="black" stroke-width="0.10125"/>
<path d="M6 3H18V12H6V3Z" fill="#000066"/>
<path d="M7.40625 3L11.9813 6.39375L16.5375 3H18V4.1625L13.5 7.51875L18 10.8563V12H16.5L12 8.64375L7.51875 12H6V10.875L10.4813 7.5375L6 4.2V3H7.40625Z" fill="white"/>
<path d="M13.95 8.26875L18 11.25V12L12.9188 8.26875H13.95ZM10.5 8.64375L10.6125 9.3L7.0125 12H6L10.5 8.64375ZM18 3V3.05625L13.3313 6.58125L13.3688 5.75625L17.0625 3H18ZM6 3L10.4813 6.3H9.35625L6 3.7875V3Z" fill="#C8102E"/>
<path d="M10.5188 3V12H13.5188V3H10.5188ZM6 6V9H18V6H6Z" fill="white"/>
<path d="M6 6.61875V8.41875H18V6.61875H6ZM11.1188 3V12H12.9188V3H11.1188Z" fill="#C8102E"/>
</g>
</g>
<defs>
<filter id="filter0_d_336_16907" x="0" y="-2" width="36" height="36" filterUnits="userSpaceOnUse" color-interpolation-filters="sRGB">
<feFlood flood-opacity="0" result="BackgroundImageFix"/>
<feColorMatrix in="SourceAlpha" type="matrix" values="0 0 0 0 0 0 0 0 0 0 0 0 0 0 0 0 0 0 127 0" result="hardAlpha"/>
<feOffset dy="4"/>
<feGaussianBlur stdDeviation="3"/>
<feComposite in2="hardAlpha" operator="out"/>
<feColorMatrix type="matrix" values="0 0 0 0 0 0 0 0 0 0 0 0 0 0 0 0 0 0 0.16 0"/>
<feBlend mode="normal" in2="BackgroundImageFix" result="effect1_dropShadow_336_16907"/>
<feBlend mode="normal" in="SourceGraphic" in2="effect1_dropShadow_336_16907" result="shape"/>
</filter>
<clipPath id="clip0_336_16907">
<rect width="24" height="18" fill="white" transform="translate(6 3)"/>
</clipPath>
</defs>
</svg>
