<svg width="36" height="31" viewBox="0 0 36 31" fill="none" xmlns="http://www.w3.org/2000/svg">
<g filter="url(#filter0_d_336_16886)">
<g clip-path="url(#clip0_336_16886)">
<path fill-rule="evenodd" clip-rule="evenodd" d="M3 3L18.075 12L3 21V3ZM33.15 3L18.075 12L33.15 21V3Z" fill="#18B637"/>
<path fill-rule="evenodd" clip-rule="evenodd" d="M3 3L18.075 12L33.15 3H3ZM3 21L18.075 12L33.15 21H3Z" fill="#CF0921"/>
<path fill-rule="evenodd" clip-rule="evenodd" d="M33.15 3H30.341L3 19.323V21H5.80898L33.15 4.67695V3Z" fill="white"/>
<path fill-rule="evenodd" clip-rule="evenodd" d="M23.2809 12C23.2809 13.3804 22.7325 14.7043 21.7564 15.6804C20.7803 16.6565 19.4564 17.2049 18.076 17.2049C16.6956 17.2049 15.3717 16.6565 14.3956 15.6804C13.4195 14.7043 12.8711 13.3804 12.8711 12C12.8711 10.62 13.4193 9.29661 14.3951 8.32083C15.3708 7.34506 16.6943 6.79688 18.0742 6.79688C19.4542 6.79688 20.7776 7.34506 21.7534 8.32083C22.7292 9.29661 23.2773 10.62 23.2773 12H23.2809Z" fill="white"/>
<path fill-rule="evenodd" clip-rule="evenodd" d="M3 3V4.67695L30.341 21H33.15V19.323L5.80898 3H3Z" fill="white"/>
<path fill-rule="evenodd" clip-rule="evenodd" d="M19.102 10.0387L18.4234 10.0492L18.0719 10.6258L17.7238 10.0492L17.0488 10.0352L17.3758 9.44102L17.0523 8.85039L17.7273 8.83633L18.0789 8.25977L18.427 8.83984L19.102 8.85391L18.775 9.44453L19.102 10.0387ZM16.8309 13.9621L16.1559 13.9727L15.8043 14.5492L15.4562 13.9727L14.7812 13.9586L15.1082 13.3645L14.7848 12.7738L15.4598 12.7598L15.8113 12.1832L16.1594 12.7633L16.8344 12.7773L16.5074 13.368L16.8309 13.9621ZM21.4223 13.9621L20.7473 13.9727L20.3957 14.5492L20.0441 13.9727L19.3727 13.9586L19.6996 13.3645L19.3727 12.7738L20.0477 12.7598L20.3992 12.1832L20.7508 12.7633L21.4258 12.7773L21.0953 13.368L21.4223 13.9621Z" fill="#CF0921" stroke="#18B637" stroke-width="0.308496"/>
</g>
</g>
<defs>
<filter id="filter0_d_336_16886" x="0" y="-2" width="36" height="36" filterUnits="userSpaceOnUse" color-interpolation-filters="sRGB">
<feFlood flood-opacity="0" result="BackgroundImageFix"/>
<feColorMatrix in="SourceAlpha" type="matrix" values="0 0 0 0 0 0 0 0 0 0 0 0 0 0 0 0 0 0 127 0" result="hardAlpha"/>
<feOffset dy="4"/>
<feGaussianBlur stdDeviation="3"/>
<feComposite in2="hardAlpha" operator="out"/>
<feColorMatrix type="matrix" values="0 0 0 0 0 0 0 0 0 0 0 0 0 0 0 0 0 0 0.16 0"/>
<feBlend mode="normal" in2="BackgroundImageFix" result="effect1_dropShadow_336_16886"/>
<feBlend mode="normal" in="SourceGraphic" in2="effect1_dropShadow_336_16886" result="shape"/>
</filter>
<clipPath id="clip0_336_16886">
<rect width="24" height="18" fill="white" transform="translate(6 3)"/>
</clipPath>
</defs>
</svg>
