<svg width="36" height="32" viewBox="0 0 36 32" fill="none" xmlns="http://www.w3.org/2000/svg">
<g filter="url(#filter0_d_336_15434)">
<g clip-path="url(#clip0_336_15434)">
<path d="M6 3H30V21.1132H6V3Z" fill="#74ACDF"/>
<path d="M6 9.03711H30V15.0748H6V9.03711Z" fill="white"/>
<path d="M17.8828 12.1037L18.9088 14.3497C18.9088 14.3497 18.9268 14.3932 18.9556 14.3823C18.9844 14.3678 18.9664 14.3243 18.9664 14.3243L18.1132 12.0059M18.088 12.8825C18.0736 13.2231 18.2824 13.4114 18.2572 13.7157C18.2284 14.0237 18.394 14.1939 18.4372 14.3135C18.4732 14.433 18.394 14.5019 18.4264 14.52C18.4624 14.5381 18.5344 14.4439 18.5128 14.2736C18.4876 14.107 18.3616 14.0563 18.3904 13.6831C18.4192 13.31 18.2392 13.2231 18.2824 12.8862" fill="#F6B40E"/>
<path d="M17.8828 12.1037L18.9088 14.3497C18.9088 14.3497 18.9268 14.3932 18.9556 14.3823C18.9844 14.3678 18.9664 14.3243 18.9664 14.3243L18.1132 12.0059M18.088 12.8825C18.0736 13.2231 18.2824 13.4114 18.2572 13.7157C18.2284 14.0237 18.394 14.1939 18.4372 14.3135C18.4732 14.433 18.394 14.5019 18.4264 14.52C18.4624 14.5381 18.5344 14.4439 18.5128 14.2736C18.4876 14.107 18.3616 14.0563 18.3904 13.6831C18.4192 13.31 18.2392 13.2231 18.2824 12.8862" stroke="#85340A" stroke-width="0.0869"/>
<path d="M17.873 12.0552L17.9667 14.5254C17.9667 14.5254 17.9668 14.5725 17.9975 14.5735C18.0297 14.5712 18.0296 14.5241 18.0296 14.5241L18.123 12.0536M17.7663 12.8538C17.6235 13.1629 17.7448 13.4173 17.6058 13.6888C17.4621 13.9621 17.5503 14.1832 17.5448 14.3103C17.5326 14.4346 17.4332 14.4677 17.4563 14.4969C17.4827 14.5275 17.585 14.4682 17.6298 14.3026C17.6699 14.1389 17.5728 14.0436 17.7413 13.7099C17.9098 13.3763 17.7765 13.2266 17.9446 12.932" fill="#F6B40E"/>
<path d="M17.873 12.0552L17.9667 14.5254C17.9667 14.5254 17.9668 14.5725 17.9975 14.5735C18.0297 14.5712 18.0296 14.5241 18.0296 14.5241L18.123 12.0536M17.7663 12.8538C17.6235 13.1629 17.7448 13.4173 17.6058 13.6888C17.4621 13.9621 17.5503 14.1832 17.5448 14.3103C17.5326 14.4346 17.4332 14.4677 17.4563 14.4969C17.4827 14.5275 17.585 14.4682 17.6298 14.3026C17.6699 14.1389 17.5728 14.0436 17.7413 13.7099C17.9098 13.3763 17.7765 13.2266 17.9446 12.932" stroke="#85340A" stroke-width="0.0869"/>
<path d="M17.8844 12.0067L17.0316 14.3249C17.0316 14.3249 17.0138 14.3685 17.0418 14.3813C17.0724 14.3915 17.0902 14.348 17.0902 14.348L18.116 12.1014M17.4822 12.7034C17.2327 12.934 17.248 13.2157 17.0164 13.413C16.7796 13.6102 16.7771 13.8484 16.7236 13.9637C16.6651 14.0739 16.5607 14.0662 16.5709 14.102C16.5836 14.1405 16.7007 14.1251 16.8051 13.9893C16.9043 13.8536 16.8509 13.7281 17.1334 13.4847C17.416 13.2414 17.3498 13.0518 17.6171 12.8443" fill="#F6B40E"/>
<path d="M17.8844 12.0067L17.0316 14.3249C17.0316 14.3249 17.0138 14.3685 17.0418 14.3813C17.0724 14.3915 17.0902 14.348 17.0902 14.348L18.116 12.1014M17.4822 12.7034C17.2327 12.934 17.248 13.2157 17.0164 13.413C16.7796 13.6102 16.7771 13.8484 16.7236 13.9637C16.6651 14.0739 16.5607 14.0662 16.5709 14.102C16.5836 14.1405 16.7007 14.1251 16.8051 13.9893C16.9043 13.8536 16.8509 13.7281 17.1334 13.4847C17.416 13.2414 17.3498 13.0518 17.6171 12.8443" stroke="#85340A" stroke-width="0.0869"/>
<path d="M17.9102 11.9671L16.2407 13.7805C16.2407 13.7805 16.2077 13.8139 16.2287 13.8365C16.253 13.8577 16.2861 13.8243 16.2861 13.8243L18.0882 12.1439M17.2736 12.456C16.9555 12.5729 16.8624 12.8391 16.5734 12.9321C16.2797 13.0232 16.1867 13.2423 16.0935 13.3282C15.9975 13.4074 15.904 13.3601 15.8998 13.3972C15.897 13.4376 16.011 13.4685 16.159 13.3832C16.3024 13.296 16.3007 13.1595 16.6543 13.0435C17.0079 12.9275 17.0189 12.7268 17.3447 12.6381" fill="#F6B40E"/>
<path d="M17.9102 11.9671L16.2407 13.7805C16.2407 13.7805 16.2077 13.8139 16.2287 13.8365C16.253 13.8577 16.2861 13.8243 16.2861 13.8243L18.0882 12.1439M17.2736 12.456C16.9555 12.5729 16.8624 12.8391 16.5734 12.9321C16.2797 13.0232 16.1867 13.2423 16.0935 13.3282C15.9975 13.4074 15.904 13.3601 15.8998 13.3972C15.897 13.4376 16.011 13.4685 16.159 13.3832C16.3024 13.296 16.3007 13.1595 16.6543 13.0435C17.0079 12.9275 17.0189 12.7268 17.3447 12.6381" stroke="#85340A" stroke-width="0.0869"/>
<path d="M18.1538 12.9408C18.1718 13.2669 18.3554 13.4118 18.3194 13.7124C18.3986 13.477 18.2078 13.2922 18.2186 12.9444M17.9414 12.0823L18.6434 13.6255L18.0566 12.0352" fill="#85340A"/>
<path d="M17.8049 12.9322C17.6976 13.2403 17.8121 13.4449 17.6645 13.7088C17.8272 13.5218 17.7212 13.2776 17.8634 12.9605M17.9352 12.0572L17.9969 13.7533L18.0596 12.058" fill="#85340A"/>
<path d="M17.4864 12.7915C17.2701 13.0349 17.2981 13.268 17.0613 13.455C17.2828 13.3448 17.2777 13.0784 17.5297 12.8402M17.9396 12.0333L17.3515 13.6241L18.0541 12.082" fill="#85340A"/>
<path d="M17.2459 12.5382C16.9534 12.6797 16.8907 12.9058 16.6008 12.9874C16.8473 12.971 16.9439 12.7229 17.2674 12.5998M17.9529 12.0122L16.8046 13.2554L18.0402 12.1012" fill="#85340A"/>
<path d="M17.9536 11.9414L15.7216 12.9739C15.7216 12.9739 15.6784 12.992 15.6892 13.021C15.7036 13.0499 15.7468 13.0318 15.7468 13.0318L18.0508 12.1733M17.1796 12.1479C16.8412 12.1334 16.654 12.3435 16.3516 12.3182C16.0456 12.2892 15.8764 12.4558 15.7576 12.4993C15.6388 12.5355 15.5704 12.4558 15.5524 12.4884C15.5344 12.5247 15.628 12.5971 15.7972 12.5754C15.9628 12.55 16.0132 12.4232 16.384 12.4522C16.7548 12.4812 16.8412 12.3 17.176 12.3435" fill="#F6B40E"/>
<path d="M17.9536 11.9414L15.7216 12.9739C15.7216 12.9739 15.6784 12.992 15.6892 13.021C15.7036 13.0499 15.7468 13.0318 15.7468 13.0318L18.0508 12.1733M17.1796 12.1479C16.8412 12.1334 16.654 12.3435 16.3516 12.3182C16.0456 12.2892 15.8764 12.4558 15.7576 12.4993C15.6388 12.5355 15.5704 12.4558 15.5524 12.4884C15.5344 12.5247 15.628 12.5971 15.7972 12.5754C15.9628 12.55 16.0132 12.4232 16.384 12.4522C16.7548 12.4812 16.8412 12.3 17.176 12.3435" stroke="#85340A" stroke-width="0.0869"/>
<path d="M18 11.9313L15.5453 12.0257C15.5453 12.0257 15.4985 12.0258 15.4975 12.0567C15.4997 12.089 15.5465 12.0889 15.5465 12.0889L18.0017 12.183M17.2064 11.824C16.8993 11.6803 16.6464 11.8024 16.3767 11.6625C16.105 11.5179 15.8853 11.6067 15.759 11.6011C15.6355 11.5888 15.6026 11.4888 15.5736 11.512C15.5432 11.5386 15.6021 11.6415 15.7667 11.6866C15.9293 11.727 16.0241 11.6292 16.3557 11.7988C16.6872 11.9684 16.8359 11.8343 17.1287 12.0034" fill="#F6B40E"/>
<path d="M18 11.9313L15.5453 12.0257C15.5453 12.0257 15.4985 12.0258 15.4975 12.0567C15.4997 12.089 15.5465 12.0889 15.5465 12.0889L18.0017 12.183M17.2064 11.824C16.8993 11.6803 16.6464 11.8024 16.3767 11.6625C16.105 11.5179 15.8853 11.6067 15.759 11.6011C15.6355 11.5888 15.6026 11.4888 15.5736 11.512C15.5432 11.5386 15.6021 11.6415 15.7667 11.6866C15.9293 11.727 16.0241 11.6292 16.3557 11.7988C16.6872 11.9684 16.8359 11.8343 17.1287 12.0034" stroke="#85340A" stroke-width="0.0869"/>
<path d="M18.0485 11.9406L15.7447 11.0825C15.7447 11.0825 15.7014 11.0645 15.6887 11.0927C15.6785 11.1235 15.7218 11.1414 15.7218 11.1414L17.9543 12.1737M17.3561 11.5359C17.127 11.2848 16.8469 11.3002 16.6509 11.0671C16.4549 10.8289 16.2182 10.8263 16.1036 10.7725C15.9942 10.7136 16.0018 10.6086 15.9662 10.6188C15.928 10.6316 15.9433 10.7495 16.0782 10.8545C16.2131 10.9544 16.3378 10.9006 16.5797 11.1849C16.8215 11.4693 17.0099 11.4027 17.2161 11.6716" fill="#F6B40E"/>
<path d="M18.0485 11.9406L15.7447 11.0825C15.7447 11.0825 15.7014 11.0645 15.6887 11.0927C15.6785 11.1235 15.7218 11.1414 15.7218 11.1414L17.9543 12.1737M17.3561 11.5359C17.127 11.2848 16.8469 11.3002 16.6509 11.0671C16.4549 10.8289 16.2182 10.8263 16.1036 10.7725C15.9942 10.7136 16.0018 10.6086 15.9662 10.6188C15.928 10.6316 15.9433 10.7495 16.0782 10.8545C16.2131 10.9544 16.3378 10.9006 16.5797 11.1849C16.8215 11.4693 17.0099 11.4027 17.2161 11.6716" stroke="#85340A" stroke-width="0.0869"/>
<path d="M18.0878 11.9682L16.2858 10.2883C16.2858 10.2883 16.2526 10.255 16.2301 10.2762C16.209 10.3006 16.2422 10.3339 16.2422 10.3339L17.9121 12.1473M17.602 11.3277C17.4858 11.0075 17.2213 10.9139 17.1288 10.623C17.0383 10.3275 16.8206 10.2339 16.7352 10.1401C16.6565 10.0435 16.7035 9.94945 16.6667 9.94519C16.6265 9.94232 16.5958 10.0571 16.6805 10.2061C16.7672 10.3503 16.9029 10.3486 17.0182 10.7045C17.1335 11.0603 17.3328 11.0713 17.421 11.3992" fill="#F6B40E"/>
<path d="M18.0878 11.9682L16.2858 10.2883C16.2858 10.2883 16.2526 10.255 16.2301 10.2762C16.209 10.3006 16.2422 10.3339 16.2422 10.3339L17.9121 12.1473M17.602 11.3277C17.4858 11.0075 17.2213 10.9139 17.1288 10.623C17.0383 10.3275 16.8206 10.2339 16.7352 10.1401C16.6565 10.0435 16.7035 9.94945 16.6667 9.94519C16.6265 9.94232 16.5958 10.0571 16.6805 10.2061C16.7672 10.3503 16.9029 10.3486 17.0182 10.7045C17.1335 11.0603 17.3328 11.0713 17.421 11.3992" stroke="#85340A" stroke-width="0.0869"/>
<path d="M17.1195 12.2118C16.7955 12.2299 16.6515 12.4147 16.3527 12.3784C16.5867 12.4581 16.7703 12.2661 17.1159 12.277M17.9727 11.998L16.4391 12.7045L18.0195 12.114" fill="#85340A"/>
<path d="M17.1302 11.8626C16.824 11.7546 16.6207 11.8698 16.3584 11.7213C16.5443 11.885 16.7869 11.7783 17.1021 11.9215M17.9997 11.9937L16.3142 12.0558L17.9989 12.1188" fill="#85340A"/>
<path d="M17.2681 11.542C17.0263 11.3242 16.7946 11.3524 16.6088 11.1142C16.7183 11.3371 16.983 11.3319 17.2197 11.5855M18.0216 11.9979L16.4408 11.4062L17.9732 12.1132" fill="#85340A"/>
<path d="M17.5219 11.2998C17.3812 11.0055 17.1565 10.9423 17.0754 10.6506C17.0918 10.8987 17.3383 10.9959 17.4606 11.3214M18.0446 12.0112L16.8091 10.8557L17.9561 12.0991" fill="#85340A"/>
<path d="M18.1172 12.0096L17.0912 9.76357C17.0912 9.76357 17.0732 9.7201 17.0444 9.73097C17.0156 9.74546 17.0336 9.78893 17.0336 9.78893L17.8868 12.1074M17.912 11.2307C17.9264 10.8902 17.7176 10.7018 17.7428 10.3975C17.7716 10.0896 17.606 9.91935 17.5628 9.7998C17.5268 9.68025 17.606 9.61142 17.5736 9.59331C17.5376 9.5752 17.4656 9.66938 17.4872 9.83965C17.5124 10.0063 17.6384 10.057 17.6096 10.4301C17.5808 10.8033 17.7608 10.8902 17.7176 11.2271" fill="#F6B40E"/>
<path d="M18.1172 12.0096L17.0912 9.76357C17.0912 9.76357 17.0732 9.7201 17.0444 9.73097C17.0156 9.74546 17.0336 9.78893 17.0336 9.78893L17.8868 12.1074M17.912 11.2307C17.9264 10.8902 17.7176 10.7018 17.7428 10.3975C17.7716 10.0896 17.606 9.91935 17.5628 9.7998C17.5268 9.68025 17.606 9.61142 17.5736 9.59331C17.5376 9.5752 17.4656 9.66938 17.4872 9.83965C17.5124 10.0063 17.6384 10.057 17.6096 10.4301C17.5808 10.8033 17.7608 10.8902 17.7176 11.2271" stroke="#85340A" stroke-width="0.0869"/>
<path d="M18.127 12.0581L18.0333 9.5879C18.0333 9.5879 18.0332 9.54081 18.0025 9.53976C17.9703 9.54205 17.9704 9.58915 17.9704 9.58915L17.877 12.0597M18.2337 11.2595C18.3765 10.9504 18.2552 10.696 18.3942 10.4245C18.5379 10.1511 18.4497 9.93006 18.4552 9.80298C18.4674 9.67867 18.5668 9.64558 18.5437 9.61637C18.5173 9.58577 18.415 9.64506 18.3702 9.81068C18.3301 9.97434 18.4272 10.0697 18.2587 10.4034C18.0902 10.737 18.2235 10.8866 18.0554 11.1813" fill="#F6B40E"/>
<path d="M18.127 12.0581L18.0333 9.5879C18.0333 9.5879 18.0332 9.54081 18.0025 9.53976C17.9703 9.54205 17.9704 9.58915 17.9704 9.58915L17.877 12.0597M18.2337 11.2595C18.3765 10.9504 18.2552 10.696 18.3942 10.4245C18.5379 10.1511 18.4497 9.93006 18.4552 9.80298C18.4674 9.67867 18.5668 9.64558 18.5437 9.61637C18.5173 9.58577 18.415 9.64506 18.3702 9.81068C18.3301 9.97434 18.4272 10.0697 18.2587 10.4034C18.0902 10.737 18.2235 10.8866 18.0554 11.1813" stroke="#85340A" stroke-width="0.0869"/>
<path d="M18.1156 12.1066L18.9684 9.78838C18.9684 9.78838 18.9862 9.74483 18.9582 9.73202C18.9276 9.72177 18.9098 9.76532 18.9098 9.76532L17.884 12.0118M18.5178 11.4099C18.7673 11.1793 18.752 10.8975 18.9836 10.7003C19.2204 10.5031 19.2229 10.2648 19.2764 10.1496C19.3349 10.0394 19.4393 10.0471 19.4291 10.0112C19.4164 9.97281 19.2993 9.98818 19.1949 10.1239C19.0957 10.2597 19.1491 10.3852 18.8666 10.6286C18.584 10.8719 18.6502 11.0615 18.3829 11.269" fill="#F6B40E"/>
<path d="M18.1156 12.1066L18.9684 9.78838C18.9684 9.78838 18.9862 9.74483 18.9582 9.73202C18.9276 9.72177 18.9098 9.76532 18.9098 9.76532L17.884 12.0118M18.5178 11.4099C18.7673 11.1793 18.752 10.8975 18.9836 10.7003C19.2204 10.5031 19.2229 10.2648 19.2764 10.1496C19.3349 10.0394 19.4393 10.0471 19.4291 10.0112C19.4164 9.97281 19.2993 9.98818 19.1949 10.1239C19.0957 10.2597 19.1491 10.3852 18.8666 10.6286C18.584 10.8719 18.6502 11.0615 18.3829 11.269" stroke="#85340A" stroke-width="0.0869"/>
<path d="M18.0898 12.1462L19.7593 10.3328C19.7593 10.3328 19.7923 10.2994 19.7713 10.2768C19.747 10.2556 19.7139 10.2889 19.7139 10.2889L17.9118 11.9694M18.7264 11.6573C19.0445 11.5404 19.1376 11.2742 19.4266 11.1812C19.7203 11.0901 19.8133 10.871 19.9065 10.7851C20.0025 10.7059 20.096 10.7532 20.1002 10.7161C20.103 10.6757 19.989 10.6448 19.841 10.73C19.6976 10.8172 19.6993 10.9538 19.3457 11.0698C18.9921 11.1858 18.9811 11.3864 18.6553 11.4752" fill="#F6B40E"/>
<path d="M18.0898 12.1462L19.7593 10.3328C19.7593 10.3328 19.7923 10.2994 19.7713 10.2768C19.747 10.2556 19.7139 10.2889 19.7139 10.2889L17.9118 11.9694M18.7264 11.6573C19.0445 11.5404 19.1376 11.2742 19.4266 11.1812C19.7203 11.0901 19.8133 10.871 19.9065 10.7851C20.0025 10.7059 20.096 10.7532 20.1002 10.7161C20.103 10.6757 19.989 10.6448 19.841 10.73C19.6976 10.8172 19.6993 10.9538 19.3457 11.0698C18.9921 11.1858 18.9811 11.3864 18.6553 11.4752" stroke="#85340A" stroke-width="0.0869"/>
<path d="M17.8462 11.1725C17.8282 10.8464 17.6446 10.7015 17.6806 10.4008C17.6014 10.6363 17.7922 10.8211 17.7814 11.1688M18.0586 12.031L17.3566 10.4878L17.9434 12.0781" fill="#85340A"/>
<path d="M18.1951 11.1811C18.3024 10.8729 18.1879 10.6684 18.3355 10.4044C18.1728 10.5915 18.2788 10.8357 18.1366 11.1528M18.0648 12.0561L18.0031 10.36L17.9404 12.0552" fill="#85340A"/>
<path d="M18.5136 11.3217C18.7299 11.0784 18.7019 10.8453 18.9387 10.6583C18.7172 10.7684 18.7223 11.0348 18.4703 11.2731M18.0604 12.08L18.6485 10.4892L17.9459 12.0313" fill="#85340A"/>
<path d="M18.7541 11.5751C19.0466 11.4336 19.1093 11.2074 19.3992 11.1258C19.1527 11.1423 19.0561 11.3904 18.7326 11.5135M18.0471 12.1011L19.1954 10.8579L17.9598 12.012" fill="#85340A"/>
<path d="M18.0464 12.1719L20.2784 11.1394C20.2784 11.1394 20.3216 11.1213 20.3108 11.0923C20.2964 11.0633 20.2532 11.0815 20.2532 11.0815L17.9492 11.94M18.8204 11.9654C19.1588 11.9799 19.346 11.7698 19.6484 11.7951C19.9544 11.8241 20.1236 11.6575 20.2424 11.614C20.3612 11.5778 20.4296 11.6575 20.4476 11.6249C20.4656 11.5886 20.372 11.5162 20.2028 11.5379C20.0372 11.5633 19.9868 11.6901 19.616 11.6611C19.2452 11.6321 19.1588 11.8132 18.824 11.7698" fill="#F6B40E"/>
<path d="M18.0464 12.1719L20.2784 11.1394C20.2784 11.1394 20.3216 11.1213 20.3108 11.0923C20.2964 11.0633 20.2532 11.0815 20.2532 11.0815L17.9492 11.94M18.8204 11.9654C19.1588 11.9799 19.346 11.7698 19.6484 11.7951C19.9544 11.8241 20.1236 11.6575 20.2424 11.614C20.3612 11.5778 20.4296 11.6575 20.4476 11.6249C20.4656 11.5886 20.372 11.5162 20.2028 11.5379C20.0372 11.5633 19.9868 11.6901 19.616 11.6611C19.2452 11.6321 19.1588 11.8132 18.824 11.7698" stroke="#85340A" stroke-width="0.0869"/>
<path d="M18 12.182L20.4547 12.0876C20.4547 12.0876 20.5015 12.0875 20.5025 12.0566C20.5003 12.0243 20.4535 12.0244 20.4535 12.0244L17.9983 11.9303M18.7936 12.2892C19.1007 12.433 19.3536 12.3109 19.6233 12.4508C19.895 12.5954 20.1147 12.5066 20.241 12.5122C20.3645 12.5245 20.3974 12.6245 20.4264 12.6013C20.4568 12.5747 20.3979 12.4717 20.2333 12.4267C20.0707 12.3863 19.9759 12.4841 19.6443 12.3145C19.3128 12.1449 19.1641 12.279 18.8713 12.1099" fill="#F6B40E"/>
<path d="M18 12.182L20.4547 12.0876C20.4547 12.0876 20.5015 12.0875 20.5025 12.0566C20.5003 12.0243 20.4535 12.0244 20.4535 12.0244L17.9983 11.9303M18.7936 12.2892C19.1007 12.433 19.3536 12.3109 19.6233 12.4508C19.895 12.5954 20.1147 12.5066 20.241 12.5122C20.3645 12.5245 20.3974 12.6245 20.4264 12.6013C20.4568 12.5747 20.3979 12.4717 20.2333 12.4267C20.0707 12.3863 19.9759 12.4841 19.6443 12.3145C19.3128 12.1449 19.1641 12.279 18.8713 12.1099" stroke="#85340A" stroke-width="0.0869"/>
<path d="M17.9515 12.1727L20.2553 13.0308C20.2553 13.0308 20.2986 13.0487 20.3113 13.0206C20.3215 12.9898 20.2782 12.9719 20.2782 12.9719L18.0457 11.9396M18.6439 12.5774C18.873 12.8284 19.1531 12.8131 19.3491 13.0462C19.5451 13.2844 19.7818 13.287 19.8964 13.3408C20.0058 13.3997 19.9982 13.5047 20.0338 13.4945C20.072 13.4817 20.0567 13.3638 19.9218 13.2588C19.7869 13.1589 19.6622 13.2127 19.4203 12.9283C19.1785 12.644 18.9901 12.7106 18.7839 12.4416" fill="#F6B40E"/>
<path d="M17.9515 12.1727L20.2553 13.0308C20.2553 13.0308 20.2986 13.0487 20.3113 13.0206C20.3215 12.9898 20.2782 12.9719 20.2782 12.9719L18.0457 11.9396M18.6439 12.5774C18.873 12.8284 19.1531 12.8131 19.3491 13.0462C19.5451 13.2844 19.7818 13.287 19.8964 13.3408C20.0058 13.3997 19.9982 13.5047 20.0338 13.4945C20.072 13.4817 20.0567 13.3638 19.9218 13.2588C19.7869 13.1589 19.6622 13.2127 19.4203 12.9283C19.1785 12.644 18.9901 12.7106 18.7839 12.4416" stroke="#85340A" stroke-width="0.0869"/>
<path d="M17.9122 12.1451L19.7142 13.825C19.7142 13.825 19.7474 13.8582 19.7699 13.8371C19.791 13.8126 19.7578 13.7794 19.7578 13.7794L18.0879 11.966M18.398 12.7856C18.5142 13.1058 18.7787 13.1994 18.8712 13.4902C18.9617 13.7858 19.1794 13.8793 19.2648 13.9732C19.3435 14.0697 19.2965 14.1638 19.3333 14.1681C19.3735 14.171 19.4042 14.0562 19.3195 13.9072C19.2328 13.763 19.0971 13.7646 18.9818 13.4088C18.8665 13.053 18.6672 13.042 18.579 12.7141" fill="#F6B40E"/>
<path d="M17.9122 12.1451L19.7142 13.825C19.7142 13.825 19.7474 13.8582 19.7699 13.8371C19.791 13.8126 19.7578 13.7794 19.7578 13.7794L18.0879 11.966M18.398 12.7856C18.5142 13.1058 18.7787 13.1994 18.8712 13.4902C18.9617 13.7858 19.1794 13.8793 19.2648 13.9732C19.3435 14.0697 19.2965 14.1638 19.3333 14.1681C19.3735 14.171 19.4042 14.0562 19.3195 13.9072C19.2328 13.763 19.0971 13.7646 18.9818 13.4088C18.8665 13.053 18.6672 13.042 18.579 12.7141" stroke="#85340A" stroke-width="0.0869"/>
<path d="M18.8805 11.9015C19.2045 11.8834 19.3485 11.6986 19.6473 11.7349C19.4133 11.6552 19.2297 11.8472 18.8841 11.8363M18.0273 12.1152L19.5609 11.4088L17.9805 11.9993" fill="#85340A"/>
<path d="M18.8698 12.2507C19.176 12.3587 19.3793 12.2435 19.6416 12.392C19.4557 12.2283 19.2131 12.3349 18.8979 12.1918M18.0003 12.1196L19.6858 12.0575L18.0011 11.9945" fill="#85340A"/>
<path d="M18.7319 12.5713C18.9737 12.789 19.2054 12.7609 19.3912 12.9991C19.2817 12.7762 19.017 12.7813 18.7803 12.5277M17.9784 12.1153L19.5592 12.7071L18.0268 12.0001" fill="#85340A"/>
<path d="M18.4781 12.8135C18.6188 13.1078 18.8435 13.171 18.9246 13.4626C18.9082 13.2146 18.6617 13.1174 18.5394 12.7919M17.9554 12.1021L19.1909 13.2575L18.0439 12.0142" fill="#85340A"/>
<path d="M18.0013 13.0639C18.5542 13.0639 19.0025 12.6128 19.0025 12.0564C19.0025 11.4999 18.5542 11.0488 18.0013 11.0488C17.4483 11.0488 17 11.4999 17 12.0564C17 12.6128 17.4483 13.0639 18.0013 13.0639Z" fill="#F6B40E" stroke="#85340A" stroke-width="0.115208"/>
<path d="M18.3367 11.8418C18.273 11.8418 18.2055 11.872 18.168 11.9324C18.243 12.0041 18.4155 12.0078 18.5317 11.9248C18.5072 11.8986 18.4775 11.8777 18.4446 11.8634C18.4117 11.8491 18.3763 11.8418 18.3405 11.8418H18.3367ZM18.3367 11.8569C18.4042 11.8569 18.468 11.8871 18.4755 11.9173C18.4005 12.0041 18.2767 11.9927 18.198 11.9324C18.2355 11.8795 18.288 11.8569 18.3405 11.8569H18.3367Z" fill="#843511"/>
<path d="M18.3509 11.793C18.2497 11.793 18.2272 11.8156 18.1822 11.8571C18.1372 11.8949 18.1109 11.8873 18.1072 11.8949C18.0959 11.9024 18.1072 11.925 18.1184 11.9175C18.1372 11.9099 18.1672 11.8949 18.2122 11.8571C18.2572 11.8194 18.3059 11.8194 18.3509 11.8194C18.4897 11.8194 18.5647 11.9326 18.5797 11.925C18.5984 11.9175 18.5047 11.793 18.3509 11.793Z" fill="#85340A"/>
<path d="M18.6289 11.8419C18.4527 11.6872 18.2277 11.6608 18.1039 11.7778C18.0754 11.8155 18.0561 11.8595 18.0477 11.9061C18.0327 11.9967 18.0589 12.091 18.1264 12.1891L18.0964 12.2042C18.0364 12.0872 18.0139 11.9665 18.0364 11.8495L18.0589 11.7627C18.2277 11.6231 18.4602 11.6118 18.6289 11.8382V11.8419Z" fill="#85340A"/>
<path d="M18.337 11.9855C18.3743 11.9855 18.4045 11.955 18.4045 11.9175C18.4045 11.88 18.3743 11.8496 18.337 11.8496C18.2998 11.8496 18.2695 11.88 18.2695 11.9175C18.2695 11.955 18.2998 11.9855 18.337 11.9855Z" fill="#85340A"/>
<path d="M18.5352 11.9624C18.4039 12.0642 18.2727 12.0567 18.1977 12.0114C18.1227 11.9624 18.1227 11.9473 18.1377 11.9473C18.1527 11.9473 18.1677 11.9624 18.2277 11.9963C18.2914 12.0265 18.3814 12.0265 18.5352 11.9624V11.9624Z" fill="#85340A"/>
<path d="M17.8511 12.1953C17.8407 12.1978 17.831 12.2027 17.8228 12.2097C17.8147 12.2167 17.8083 12.2255 17.8042 12.2355C17.8001 12.2454 17.7985 12.2562 17.7993 12.267C17.8002 12.2777 17.8036 12.2881 17.8093 12.2972C17.8149 12.3064 17.8226 12.3141 17.8318 12.3196C17.841 12.3252 17.8513 12.3285 17.862 12.3292C17.8727 12.3299 17.8834 12.3281 17.8932 12.3238C17.9031 12.3196 17.9118 12.313 17.9186 12.3047C17.9433 12.3202 17.972 12.3281 18.0011 12.3274H18.0086C18.0311 12.3274 18.0686 12.3236 18.0948 12.3047C18.1061 12.3236 18.1286 12.3312 18.1511 12.3312C18.169 12.3327 18.1868 12.3269 18.2005 12.3153C18.2142 12.3036 18.2227 12.2869 18.2242 12.2689C18.2257 12.2509 18.22 12.233 18.2084 12.2192C18.1968 12.2054 18.1802 12.1968 18.1623 12.1953C18.1811 12.2029 18.1923 12.218 18.1923 12.2406C18.1923 12.2526 18.1876 12.2641 18.1792 12.2726C18.1707 12.2811 18.1593 12.2859 18.1473 12.2859C18.1354 12.2859 18.124 12.2811 18.1155 12.2726C18.1071 12.2641 18.1023 12.2526 18.1023 12.2406C18.0935 12.2592 18.0797 12.2751 18.0625 12.2864C18.0453 12.2977 18.0254 12.304 18.0048 12.3047C17.985 12.3034 17.9658 12.2967 17.9494 12.2854C17.9329 12.2742 17.9197 12.2587 17.9111 12.2406C17.9111 12.267 17.8886 12.2859 17.8623 12.2859C17.8398 12.2859 17.8173 12.2632 17.8173 12.2406C17.8173 12.218 17.8286 12.2029 17.8473 12.1953H17.8511ZM17.9261 12.3991C17.8473 12.3991 17.8136 12.4746 17.7461 12.5161C17.7836 12.501 17.8136 12.4708 17.8698 12.4406C17.9223 12.4104 17.9673 12.4481 18.0011 12.4481C18.0311 12.4481 18.0761 12.4104 18.1323 12.4406C18.1848 12.4708 18.2186 12.501 18.2561 12.5161C18.1848 12.4708 18.1548 12.4029 18.0761 12.4029C18.0611 12.4029 18.0311 12.4104 18.0011 12.4255L17.9261 12.3991Z" fill="#85340A"/>
<path d="M17.8931 12.4945C17.8631 12.4945 17.8256 12.502 17.7656 12.5171C17.9044 12.487 17.9344 12.536 17.9981 12.536C18.0581 12.536 18.0919 12.487 18.2269 12.5171C18.0769 12.4719 18.0431 12.502 17.9981 12.502C17.9681 12.502 17.9456 12.4907 17.8931 12.4945Z" fill="#85340A"/>
<path d="M17.7761 12.5172H17.7461C17.9073 12.536 17.8323 12.6304 18.0011 12.6304C18.1698 12.6304 18.0948 12.536 18.2561 12.5172C18.0873 12.5021 18.1398 12.6039 18.0011 12.6039C17.8698 12.6039 17.9111 12.5172 17.7761 12.5172Z" fill="#85340A"/>
<path d="M18.1369 12.7705C18.1369 12.7335 18.1223 12.6979 18.0962 12.6718C18.0702 12.6456 18.0349 12.6309 17.9981 12.6309C17.9613 12.6309 17.926 12.6456 17.9 12.6718C17.874 12.6979 17.8594 12.7335 17.8594 12.7705C17.8667 12.739 17.8844 12.7109 17.9096 12.6908C17.9348 12.6707 17.966 12.6598 17.9981 12.6598C18.0303 12.6598 18.0615 12.6707 18.0867 12.6908C18.1119 12.7109 18.1295 12.739 18.1369 12.7705Z" fill="#85340A"/>
<path d="M17.3789 11.8419C17.5552 11.6872 17.7802 11.6608 17.9039 11.7778C17.9324 11.8155 17.9517 11.8595 17.9602 11.9061C17.9752 11.9967 17.9489 12.091 17.8814 12.1891L17.9114 12.2042C17.9714 12.0872 17.9939 11.9665 17.9714 11.8495L17.9489 11.7627C17.7802 11.6231 17.5477 11.6118 17.3789 11.8382V11.8419Z" fill="#85340A"/>
<path d="M17.6569 11.793C17.7582 11.793 17.7807 11.8156 17.8257 11.8571C17.8707 11.8949 17.8969 11.8873 17.9007 11.8949C17.9119 11.9024 17.9007 11.925 17.8894 11.9175C17.8707 11.9099 17.8407 11.8949 17.7957 11.8571C17.7507 11.8194 17.7019 11.8194 17.6569 11.8194C17.5182 11.8194 17.4432 11.9326 17.4282 11.925C17.4094 11.9175 17.5032 11.793 17.6569 11.793Z" fill="#85340A"/>
<path d="M17.6492 11.8418C17.5855 11.8418 17.518 11.872 17.4805 11.9324C17.5555 12.0041 17.728 12.0078 17.8442 11.9248C17.8197 11.8986 17.79 11.8777 17.7571 11.8634C17.7242 11.8491 17.6888 11.8418 17.653 11.8418H17.6492ZM17.6492 11.8569C17.7167 11.8569 17.7805 11.8871 17.788 11.9173C17.713 12.0041 17.5892 11.9927 17.5105 11.9324C17.548 11.8795 17.6005 11.8569 17.653 11.8569H17.6492Z" fill="#843511"/>
<path d="M17.6573 11.9855C17.6946 11.9855 17.7248 11.955 17.7248 11.9175C17.7248 11.88 17.6946 11.8496 17.6573 11.8496C17.6201 11.8496 17.5898 11.88 17.5898 11.9175C17.5898 11.955 17.6201 11.9855 17.6573 11.9855Z" fill="#85340A"/>
<path d="M17.4727 11.9624C17.6039 12.0642 17.7352 12.0567 17.8102 12.0114C17.8852 11.9624 17.8852 11.9473 17.8702 11.9473C17.8552 11.9473 17.8402 11.9624 17.7802 11.9963C17.7164 12.0265 17.6264 12.0265 17.4727 11.9624V11.9624Z" fill="#85340A"/>
</g>
</g>
<defs>
<filter id="filter0_d_336_15434" x="0" y="-2" width="36" height="36" filterUnits="userSpaceOnUse" color-interpolation-filters="sRGB">
<feFlood flood-opacity="0" result="BackgroundImageFix"/>
<feColorMatrix in="SourceAlpha" type="matrix" values="0 0 0 0 0 0 0 0 0 0 0 0 0 0 0 0 0 0 127 0" result="hardAlpha"/>
<feOffset dy="4"/>
<feGaussianBlur stdDeviation="3"/>
<feComposite in2="hardAlpha" operator="out"/>
<feColorMatrix type="matrix" values="0 0 0 0 0 0 0 0 0 0 0 0 0 0 0 0 0 0 0.16 0"/>
<feBlend mode="normal" in2="BackgroundImageFix" result="effect1_dropShadow_336_15434"/>
<feBlend mode="normal" in="SourceGraphic" in2="effect1_dropShadow_336_15434" result="shape"/>
</filter>
<clipPath id="clip0_336_15434">
<rect width="24" height="18.1132" fill="white" transform="translate(6 3)"/>
</clipPath>
</defs>
</svg>
