<svg width="36" height="31" viewBox="0 0 36 31" fill="none" xmlns="http://www.w3.org/2000/svg">
<g filter="url(#filter0_d_336_26749)">
<g clip-path="url(#clip0_336_26749)">
<path d="M6 3H30V21H6V3Z" fill="#CE1126"/>
<path d="M8.51953 5.51953H27.4795V18.4795H8.51953V5.51953Z" fill="#007A5E"/>
<path d="M8.51953 5.52344H27.4795L8.51953 18.4834H27.4795L8.51953 5.52344Z" fill="#FCD116"/>
<path d="M17.9959 14.1638C19.1889 14.1638 20.1559 13.1967 20.1559 12.0038C20.1559 10.8108 19.1889 9.84375 17.9959 9.84375C16.803 9.84375 15.8359 10.8108 15.8359 12.0038C15.8359 13.1967 16.803 14.1638 17.9959 14.1638Z" fill="#CE1126"/>
<path d="M18 10.0195L17.3881 11.9026L18.3297 12.2086" fill="#FCD116"/>
<path d="M18 10.0195L18.6119 11.9026L17.6703 12.2086" fill="#FCD116"/>
<path d="M19.8789 11.3867L17.8989 11.3867V12.3767" fill="#FCD116"/>
<path d="M19.8789 11.3867L18.2771 12.5505L17.6951 11.7496" fill="#FCD116"/>
<path d="M19.1602 13.6016L18.5483 11.7185L17.6068 12.0244" fill="#FCD116"/>
<path d="M19.1602 13.6016L17.5583 12.4377L18.1402 11.6368" fill="#FCD116"/>
<path d="M16.8359 13.6016L18.4378 12.4377L17.8559 11.6368" fill="#FCD116"/>
<path d="M16.8359 13.6016L17.4478 11.7185L18.3893 12.0244" fill="#FCD116"/>
<path d="M16.1133 11.3867L17.7151 12.5505L18.297 11.7496" fill="#FCD116"/>
<path d="M16.1133 11.3867L18.0933 11.3867L18.0933 12.3767" fill="#FCD116"/>
<path d="M13.1094 3.08984L12.7478 4.20258L13.3042 4.38335" fill="#FCD116"/>
<path d="M13.1094 3.08984L13.4709 4.20258L12.9146 4.38335" fill="#FCD116"/>
<path d="M14.2266 3.89844L13.0566 3.89844V4.48344" fill="#FCD116"/>
<path d="M14.2266 3.89844L13.28 4.58615L12.9362 4.11287" fill="#FCD116"/>
<path d="M13.8008 5.20508L13.4392 4.09234L12.8829 4.27312" fill="#FCD116"/>
<path d="M13.8008 5.20508L12.8542 4.51737L13.1981 4.04409" fill="#FCD116"/>
<path d="M12.4258 5.20703L13.3723 4.51932L13.0285 4.04605" fill="#FCD116"/>
<path d="M12.4258 5.20703L12.7873 4.0943L13.3437 4.27507" fill="#FCD116"/>
<path d="M12 3.89844L12.9466 4.58615L13.2904 4.11287" fill="#FCD116"/>
<path d="M12 3.89844L13.17 3.89844V4.48344" fill="#FCD116"/>
<path d="M17.9961 3.08984L17.6345 4.20258L18.1909 4.38335" fill="#FCD116"/>
<path d="M17.9961 3.08984L18.3576 4.20258L17.8013 4.38335" fill="#FCD116"/>
<path d="M19.1133 3.89844L17.9433 3.89844V4.48344" fill="#FCD116"/>
<path d="M19.1133 3.89844L18.1667 4.58615L17.8229 4.11287" fill="#FCD116"/>
<path d="M18.6875 5.20508L18.326 4.09234L17.7696 4.27312" fill="#FCD116"/>
<path d="M18.6875 5.20508L17.741 4.51737L18.0848 4.04409" fill="#FCD116"/>
<path d="M17.3125 5.20703L18.259 4.51932L17.9152 4.04605" fill="#FCD116"/>
<path d="M17.3125 5.20703L17.674 4.0943L18.2304 4.27507" fill="#FCD116"/>
<path d="M16.8867 3.89844L17.8333 4.58615L18.1771 4.11287" fill="#FCD116"/>
<path d="M16.8867 3.89844L18.0567 3.89844V4.48344" fill="#FCD116"/>
<path d="M22.8828 3.08984L22.5213 4.20258L23.0776 4.38335" fill="#FCD116"/>
<path d="M22.8828 3.08984L23.2444 4.20258L22.688 4.38335" fill="#FCD116"/>
<path d="M24 3.89844L22.83 3.89844V4.48344" fill="#FCD116"/>
<path d="M24 3.89844L23.0535 4.58615L22.7096 4.11287" fill="#FCD116"/>
<path d="M23.5742 5.20508L23.2127 4.09234L22.6563 4.27312" fill="#FCD116"/>
<path d="M23.5742 5.20508L22.6277 4.51737L22.9715 4.04409" fill="#FCD116"/>
<path d="M22.1992 5.20703L23.1458 4.51932L22.8019 4.04605" fill="#FCD116"/>
<path d="M22.1992 5.20703L22.5608 4.0943L23.1171 4.27507" fill="#FCD116"/>
<path d="M21.7734 3.89844L22.72 4.58615L23.0638 4.11287" fill="#FCD116"/>
<path d="M21.7734 3.89844L22.9434 3.89844L22.9434 4.48344" fill="#FCD116"/>
<path d="M9.83594 12.0265C10.1208 12.5577 10.5584 12.9914 11.0922 13.2715C11.0714 12.6854 10.927 12.1104 10.6684 11.584L9.83594 12.0265V12.0265Z" fill="#CE1126"/>
<path d="M9.3773 10.3008C9.7673 11.1145 8.36105 13.0645 10.7085 13.522C10.3916 13.0627 10.2468 12.5063 10.2998 11.9508C10.8215 12.192 11.2497 12.5977 11.5185 13.1058C12.1335 10.8745 9.94355 11.0133 9.3773 10.3008Z" fill="#FCD116"/>
<path d="M13.1094 18.6367L12.7478 19.7495L13.3042 19.9302" fill="#FCD116"/>
<path d="M13.1094 18.6367L13.4709 19.7495L12.9146 19.9302" fill="#FCD116"/>
<path d="M14.2266 19.4453L13.0566 19.4453L13.0566 20.0303" fill="#FCD116"/>
<path d="M14.2266 19.4453L13.28 20.133L12.9362 19.6597" fill="#FCD116"/>
<path d="M13.8008 20.752L13.4392 19.6392L12.8829 19.82" fill="#FCD116"/>
<path d="M13.8008 20.752L12.8542 20.0642L13.1981 19.591" fill="#FCD116"/>
<path d="M12.4258 20.7539L13.3723 20.0662L13.0285 19.5929" fill="#FCD116"/>
<path d="M12.4258 20.7539L12.7873 19.6412L13.3437 19.8219" fill="#FCD116"/>
<path d="M12 19.4453L12.9466 20.133L13.2904 19.6597" fill="#FCD116"/>
<path d="M12 19.4453L13.17 19.4453L13.17 20.0303" fill="#FCD116"/>
<path d="M17.9961 18.6367L17.6345 19.7495L18.1909 19.9302" fill="#FCD116"/>
<path d="M17.9961 18.6367L18.3576 19.7495L17.8013 19.9302" fill="#FCD116"/>
<path d="M19.1133 19.4453L17.9433 19.4453L17.9433 20.0303" fill="#FCD116"/>
<path d="M19.1133 19.4453L18.1667 20.133L17.8229 19.6597" fill="#FCD116"/>
<path d="M18.6875 20.752L18.326 19.6392L17.7696 19.82" fill="#FCD116"/>
<path d="M18.6875 20.752L17.741 20.0642L18.0848 19.591" fill="#FCD116"/>
<path d="M17.3125 20.7539L18.259 20.0662L17.9152 19.5929" fill="#FCD116"/>
<path d="M17.3125 20.7539L17.674 19.6412L18.2304 19.8219" fill="#FCD116"/>
<path d="M16.8867 19.4453L17.8333 20.133L18.1771 19.6597" fill="#FCD116"/>
<path d="M16.8867 19.4453L18.0567 19.4453L18.0567 20.0303" fill="#FCD116"/>
<path d="M22.8828 18.6367L22.5213 19.7495L23.0776 19.9302" fill="#FCD116"/>
<path d="M22.8828 18.6367L23.2444 19.7495L22.688 19.9302" fill="#FCD116"/>
<path d="M24 19.4453L22.83 19.4453L22.83 20.0303" fill="#FCD116"/>
<path d="M24 19.4453L23.0535 20.133L22.7096 19.6597" fill="#FCD116"/>
<path d="M23.5742 20.752L23.2127 19.6392L22.6563 19.82" fill="#FCD116"/>
<path d="M23.5742 20.752L22.6277 20.0642L22.9715 19.591" fill="#FCD116"/>
<path d="M22.1992 20.7539L23.1458 20.0662L22.8019 19.5929" fill="#FCD116"/>
<path d="M22.1992 20.7539L22.5608 19.6412L23.1171 19.8219" fill="#FCD116"/>
<path d="M21.7734 19.4453L22.72 20.133L23.0638 19.6597" fill="#FCD116"/>
<path d="M21.7734 19.4453L22.9434 19.4453L22.9434 20.0303" fill="#FCD116"/>
</g>
</g>
<defs>
<filter id="filter0_d_336_26749" x="0" y="-2" width="36" height="36" filterUnits="userSpaceOnUse" color-interpolation-filters="sRGB">
<feFlood flood-opacity="0" result="BackgroundImageFix"/>
<feColorMatrix in="SourceAlpha" type="matrix" values="0 0 0 0 0 0 0 0 0 0 0 0 0 0 0 0 0 0 127 0" result="hardAlpha"/>
<feOffset dy="4"/>
<feGaussianBlur stdDeviation="3"/>
<feComposite in2="hardAlpha" operator="out"/>
<feColorMatrix type="matrix" values="0 0 0 0 0 0 0 0 0 0 0 0 0 0 0 0 0 0 0.16 0"/>
<feBlend mode="normal" in2="BackgroundImageFix" result="effect1_dropShadow_336_26749"/>
<feBlend mode="normal" in="SourceGraphic" in2="effect1_dropShadow_336_26749" result="shape"/>
</filter>
<clipPath id="clip0_336_26749">
<rect width="24" height="18" fill="white" transform="translate(6 3)"/>
</clipPath>
</defs>
</svg>
