<svg width="36" height="31" viewBox="0 0 36 31" fill="none" xmlns="http://www.w3.org/2000/svg">
<g filter="url(#filter0_d_336_28190)">
<g clip-path="url(#clip0_336_28190)">
<path d="M6 3H30V21H6V3Z" fill="white"/>
<path d="M6 15.5996H30V20.9996H6V15.5996Z" fill="#009543"/>
<path d="M6 3H30V8.4H6V3Z" fill="#00209F"/>
<path d="M17.9867 8.73822C17.8855 8.73822 17.7842 8.85072 17.7842 8.85072L17.7955 10.0657L17.4092 10.467H17.7205V11.1607L15.883 13.6357L15.613 13.5382L15.1367 14.5507C15.1367 14.5507 16.3105 15.2857 18.013 15.2632C19.8805 15.2445 20.8967 14.517 20.8967 14.517L20.4092 13.5195L20.1655 13.6245L18.3055 11.1645V10.4482H18.613L18.193 10.0507V8.84322C18.193 8.84322 18.0917 8.73072 17.9867 8.73447V8.73822Z" fill="black" stroke="black" stroke-width="0.133624"/>
<path d="M18.626 11.6406H17.3547C17.3547 11.6406 16.8972 10.6693 16.9685 9.99058C17.0435 9.30058 17.441 8.97433 17.966 8.96683C18.5885 8.96308 18.911 9.27058 19.0085 9.96433C19.106 10.6506 18.626 11.6406 18.626 11.6406V11.6406Z" stroke="black" stroke-width="0.668122"/>
<path d="M15.77 13.9528C15.7475 13.9791 15.5938 14.2866 15.5938 14.2866L15.8562 14.2303L15.77 13.9528ZM15.92 14.3466L15.6425 14.4366L15.9762 14.5678L15.92 14.3466ZM16.0437 13.9603L16.1825 14.3691L16.52 14.2716L16.4338 14.0766L16.0437 13.9603V13.9603ZM16.2613 14.5153L16.3062 14.6803L16.7562 14.7928L16.5762 14.4103L16.2613 14.5153ZM16.7562 14.1666L16.9175 14.5491L17.255 14.4178L17.1425 14.2491L16.7562 14.1666ZM16.9812 14.6878L17.0338 14.8303L17.5588 14.9053L17.3375 14.5603L16.9775 14.6878H16.9812ZM17.4838 14.2753L17.6787 14.6166L18.1662 14.4366L18.1137 14.3053L17.4838 14.2791V14.2753ZM17.7687 14.7403L17.87 14.9203L18.4775 14.9016L18.2525 14.5641L17.765 14.7403H17.7687ZM18.41 14.2903L18.575 14.5753L18.965 14.3878L18.86 14.2378L18.41 14.2903V14.2903ZM19.0475 14.5078L18.6613 14.6991L18.7625 14.8678L19.28 14.7853L19.0475 14.5078V14.5078ZM19.1713 14.2078L19.37 14.4591L19.6963 14.2003L19.5838 14.0878L19.1713 14.2078ZM19.7675 14.3391L19.4562 14.5753L19.5388 14.7216L19.9662 14.6091L19.7675 14.3391V14.3391ZM20.195 13.8516L20.27 13.9603L20.0562 14.2791L19.835 13.9941L20.195 13.8516V13.8516ZM20.3412 14.1253L20.4725 14.3878L20.21 14.4778L20.1875 14.3541L20.3375 14.1291L20.3412 14.1253Z" fill="white"/>
</g>
</g>
<defs>
<filter id="filter0_d_336_28190" x="0" y="-2" width="36" height="36" filterUnits="userSpaceOnUse" color-interpolation-filters="sRGB">
<feFlood flood-opacity="0" result="BackgroundImageFix"/>
<feColorMatrix in="SourceAlpha" type="matrix" values="0 0 0 0 0 0 0 0 0 0 0 0 0 0 0 0 0 0 127 0" result="hardAlpha"/>
<feOffset dy="4"/>
<feGaussianBlur stdDeviation="3"/>
<feComposite in2="hardAlpha" operator="out"/>
<feColorMatrix type="matrix" values="0 0 0 0 0 0 0 0 0 0 0 0 0 0 0 0 0 0 0.16 0"/>
<feBlend mode="normal" in2="BackgroundImageFix" result="effect1_dropShadow_336_28190"/>
<feBlend mode="normal" in="SourceGraphic" in2="effect1_dropShadow_336_28190" result="shape"/>
</filter>
<clipPath id="clip0_336_28190">
<rect width="24" height="18" fill="white" transform="translate(6 3)"/>
</clipPath>
</defs>
</svg>
