<svg width="36" height="31" viewBox="0 0 36 31" fill="none" xmlns="http://www.w3.org/2000/svg">
<g filter="url(#filter0_d_336_32186)">
<g clip-path="url(#clip0_336_32186)">
<path fill-rule="evenodd" clip-rule="evenodd" d="M4.5 3H31.5V21H4.5V3Z" fill="#005430"/>
<path fill-rule="evenodd" clip-rule="evenodd" d="M11.303 8.10147C11.2749 8.52335 11.2327 9.26163 11.5948 9.33897C12.0272 9.38116 11.7881 8.60772 11.9463 8.4671C11.9745 8.39678 12.0272 8.39678 12.0307 8.48467V9.1421C12.0307 9.35303 12.1713 9.41631 12.2768 9.4585C12.3893 9.45147 12.4666 9.4585 12.5088 9.56397L12.5651 10.6995C12.5651 10.6995 12.8252 10.7769 12.8393 10.0632C12.8499 9.64131 12.7549 9.29327 12.8112 9.21241C12.8112 9.13155 12.9166 9.12803 12.987 9.1667C13.0995 9.24405 13.1487 9.34249 13.3245 9.30733C13.5916 9.22999 13.7534 9.09991 13.7569 8.896C13.7516 8.69562 13.7099 8.49787 13.6338 8.31241C13.6479 8.27725 13.5846 8.18233 13.5987 8.14717C13.6444 8.22452 13.7182 8.21749 13.7323 8.14717C13.6866 7.99952 13.6163 7.85538 13.5038 7.79561C13.4088 7.71124 13.2682 7.7253 13.2225 7.90108C13.1944 8.10147 13.2928 8.33702 13.437 8.53389C13.4686 8.60772 13.5108 8.73428 13.4932 8.84678C13.4159 8.89249 13.3385 8.87139 13.2717 8.8046C13.2717 8.8046 13.0608 8.64639 13.0608 8.60772C13.117 8.24913 13.0713 8.20694 13.0397 8.10499C13.0186 7.96788 12.9518 7.92217 12.8991 7.83077C12.8463 7.77452 12.776 7.77452 12.7409 7.83077C12.6459 7.99249 12.6916 8.34053 12.7584 8.49874C12.8077 8.64288 12.8815 8.73428 12.8463 8.73428C12.8182 8.81514 12.7584 8.79405 12.7127 8.69913C12.6613 8.49936 12.6365 8.29368 12.6389 8.08741C12.6213 7.92569 12.6002 7.58116 12.4913 7.48975C12.428 7.40538 12.3331 7.44756 12.2979 7.52491C12.2886 7.68196 12.2921 7.83952 12.3084 7.996C12.3788 8.25616 12.4034 8.48819 12.4385 8.75186C12.4491 9.10694 12.2346 8.90655 12.2452 8.72725C12.2913 8.50185 12.2877 8.26909 12.2346 8.04522C12.1995 7.95381 12.1608 7.93272 12.0729 7.94678C12.0061 7.94678 11.8338 8.13311 11.7846 8.44952C11.7846 8.44952 11.7424 8.61124 11.7249 8.75538C11.7002 8.9171 11.5948 9.03663 11.5174 8.73428C11.4541 8.5128 11.412 7.97491 11.3065 8.10147H11.303Z" fill="white"/>
<path fill-rule="evenodd" clip-rule="evenodd" d="M12.4805 9.82773L11.3555 10.3691C11.366 10.1125 11.8863 9.65195 12.2449 9.64844C12.4734 9.65195 12.4172 9.73633 12.477 9.82773H12.4805Z" fill="white"/>
<path fill-rule="evenodd" clip-rule="evenodd" d="M12.2791 10.1789C11.6884 11.7082 13.6677 11.9226 13.8892 10.2422C13.9103 10.1719 13.9947 10.1051 14.0087 10.2176C13.963 11.7398 12.4759 11.8418 12.2228 11.3637C12.1633 11.1991 12.1335 11.0253 12.1349 10.8504C12.0998 10.5516 11.9416 10.6676 11.9169 10.9629C11.8923 11.1281 11.8994 11.1738 11.8994 11.332C11.9767 12.5344 13.8927 12.0176 14.2056 11.0262C14.3709 10.4777 14.1775 10.0734 14.2654 10.0734C14.4552 10.2773 14.7224 10.1016 14.7822 10.0312C14.8068 9.99608 14.8701 9.97147 14.9123 10.0172C15.0599 10.1226 15.3201 10.0734 15.3763 9.8871C15.408 9.70077 15.4326 9.51093 15.4396 9.31757C15.3166 9.35272 15.2287 9.37733 15.2181 9.43007L15.1935 9.59179C15.183 9.64452 15.081 9.64452 15.074 9.57772C15.0283 9.36679 14.8384 9.34218 14.7224 9.66561C14.6486 9.7289 14.508 9.74296 14.4939 9.64804C14.5115 9.43007 14.4236 9.40194 14.2478 9.5039L14.0791 8.23124C14.1494 8.23124 14.2197 8.28397 14.2865 8.1996C14.2162 7.97108 14.058 7.50702 13.9701 7.47186C13.9314 7.42265 13.8962 7.45429 13.84 7.46835C13.7486 7.49647 13.6642 7.57382 13.6923 7.7285C13.7978 8.38944 13.8681 8.89218 13.9771 9.55663C13.9947 9.63046 13.9314 9.73241 13.847 9.72186C13.7064 9.62694 13.6712 9.43358 13.4251 9.44061C13.2494 9.44061 13.0525 9.63397 13.0279 9.81679C12.9962 9.96444 12.9857 10.1226 13.0279 10.2492C13.1509 10.3969 13.2986 10.3828 13.4287 10.3512C13.5341 10.3055 13.622 10.2 13.6607 10.2246C13.6853 10.2562 13.6642 10.6078 13.158 10.875C12.8521 11.0156 12.606 11.0437 12.4759 10.7941C12.3951 10.6359 12.483 10.0418 12.2791 10.1789V10.1789Z" fill="white"/>
<path fill-rule="evenodd" clip-rule="evenodd" d="M14.801 8.62537C14.917 8.58318 15.4795 7.93631 15.4795 7.93631L15.3951 7.866C15.3635 7.84139 15.367 7.81326 15.3951 7.78865C15.5357 7.70428 15.49 7.5285 15.4197 7.44412C15.372 7.42085 15.3195 7.40905 15.2664 7.40966C15.2133 7.41027 15.161 7.42328 15.1138 7.44764C15.0154 7.54256 14.9943 7.69373 15.0717 7.78514C15.1455 7.82029 15.2193 7.89764 15.1701 7.93982C14.9381 8.18592 14.3088 8.61131 14.3826 8.62537C14.3967 8.64646 14.7869 8.64646 14.7974 8.62537H14.801ZM11.3908 10.9105C11.1799 11.248 11.1623 11.7508 11.2783 11.9019C11.3416 11.9722 11.4435 12.0039 11.5174 11.9793C11.651 11.923 11.7107 11.6523 11.6791 11.5574C11.6334 11.4871 11.5982 11.4765 11.5525 11.5328C11.4611 11.7226 11.4224 11.5926 11.4119 11.4871C11.4018 11.3085 11.4112 11.1293 11.44 10.9527C11.4646 10.8051 11.44 10.8472 11.3908 10.9105V10.9105ZM20.4295 10.3726C20.2256 9.92967 19.9408 9.49373 19.8529 9.3285C19.5789 8.89539 19.2881 8.47319 18.981 8.06287C18.7631 7.80271 19.3396 8.17186 18.9107 7.65154L18.5978 7.38787C18.5275 7.33865 18.3588 7.24725 18.3306 7.3949C18.3166 7.5285 18.3236 7.59881 18.3447 7.70779C18.3623 7.77811 18.4678 7.90115 18.5205 7.97146C19.2412 8.92612 19.8743 9.94393 20.4119 11.0125C20.5033 10.9668 20.4822 10.4465 20.4295 10.3726V10.3726Z" fill="white"/>
<path fill-rule="evenodd" clip-rule="evenodd" d="M19.531 11.8428C19.4888 11.8885 19.6294 12.0818 19.8122 12.0818C20.1146 12.0467 20.3818 11.8779 20.6278 11.4279C20.7278 11.2782 20.7916 11.1073 20.8142 10.9287C20.8439 10.0753 20.7755 9.22121 20.6103 8.38339C20.5997 8.31308 20.6103 8.2287 20.6173 8.20761C20.6384 8.183 20.7052 8.20761 20.7403 8.14784C20.7931 8.09511 20.5997 7.65566 20.4943 7.49042C20.4591 7.41308 20.4415 7.36386 20.3782 7.49745C20.3019 7.64486 20.2655 7.80972 20.2728 7.97558C20.4169 8.97753 20.4626 9.85292 20.554 10.8549C20.5646 10.9533 20.5505 11.0939 20.4837 11.1502C20.2184 11.4455 19.8938 11.6816 19.531 11.8428V11.8428ZM23.6267 11.8392C23.4087 11.9658 23.4087 12.11 23.5845 12.1135C23.8868 12.0783 24.2454 12.0537 24.4915 11.681C24.5784 11.5055 24.6287 11.3141 24.6392 11.1185C24.6834 10.2782 24.628 9.43565 24.4739 8.60839C24.4669 8.53808 24.4353 8.37284 24.4458 8.35175C24.4669 8.30253 24.5653 8.35526 24.6005 8.29901C24.6497 8.24628 24.3439 7.85253 24.2349 7.68378C24.1997 7.60644 24.1857 7.55722 24.1189 7.69081C24.0481 7.83958 24.0259 8.00687 24.0556 8.16894C24.2173 9.25878 24.3368 10.0744 24.3614 11.0377C24.3474 11.1291 24.3439 11.1783 24.3017 11.2943C24.2068 11.4139 24.1013 11.5685 24.0028 11.6424C23.9044 11.7127 23.6935 11.783 23.6267 11.8392V11.8392Z" fill="white"/>
<path fill-rule="evenodd" clip-rule="evenodd" d="M23.7921 10.864C23.7921 10.6074 23.7956 10.3894 23.7886 10.1961C23.7863 10.0323 23.7504 9.87075 23.6831 9.72144C23.6199 9.5773 23.6585 9.46128 23.6269 9.3066C23.5988 9.15191 23.6058 8.91988 23.5636 8.74058C23.5495 8.67027 23.5144 8.44175 23.5249 8.41714C23.5425 8.36793 23.6093 8.41714 23.6445 8.36089C23.6937 8.30816 23.4687 7.72808 23.3562 7.56285C23.3175 7.48902 23.2402 7.51363 23.1523 7.63316C23.0644 7.71402 23.096 7.89332 23.1312 8.06558C23.3456 9.20113 23.5109 10.2312 23.4757 11.3105C23.4617 11.4019 23.7921 11.0363 23.7921 10.864V10.864ZM22.1855 9.45777C22.0484 9.45074 21.7636 9.18707 21.6792 9.03589C21.6654 8.99895 21.6595 8.95951 21.662 8.92014C21.6644 8.88077 21.6751 8.84235 21.6933 8.80738C21.746 8.77222 21.8234 8.73707 21.8831 8.77222C21.8831 8.77222 21.9429 8.8566 21.9324 8.86714C22.0027 8.9023 22.0378 8.88472 22.0449 8.85308C22.0484 8.80035 22.0238 8.76871 22.0238 8.71246C22.0554 8.55074 22.2347 8.52613 22.305 8.62808C22.3542 8.69136 22.3753 8.82144 22.3788 8.90933C22.3788 8.95503 22.3085 8.9023 22.2628 8.90933C22.2242 8.92339 22.2136 8.97261 22.2101 9.0148C22.2031 9.13082 22.189 9.31714 22.1855 9.45425V9.45777ZM19.6613 11.1453C19.6964 10.8007 19.6472 10.1855 19.6437 9.9816C19.6249 9.45719 19.5815 8.93396 19.5136 8.41363C19.4714 8.11832 19.6331 8.44527 19.612 8.273C19.5593 7.98121 19.3976 7.78082 19.2042 7.51714C19.1445 7.42925 19.1445 7.41168 19.0495 7.53824C18.9441 7.77378 19.0355 7.93902 19.0636 8.12535C19.2007 8.73003 19.2816 9.2855 19.3202 9.83746C19.3607 10.4108 19.3654 10.9862 19.3343 11.5601C19.4398 11.5636 19.6015 11.3949 19.6613 11.1453Z" fill="white"/>
<path fill-rule="evenodd" clip-rule="evenodd" d="M24.2571 10.593C24.0145 10.1852 23.6524 9.74926 23.554 9.58402C23.228 9.12877 22.8856 8.68551 22.5274 8.25511C22.2286 7.93871 22.6681 8.20238 22.4712 7.95629C22.3059 7.77699 22.2602 7.71722 22.1161 7.60824C22.0458 7.56254 22.0036 7.47465 21.9755 7.62582C21.9643 7.75676 21.9619 7.88831 21.9684 8.01957C21.9684 8.07933 22.0317 8.19535 22.088 8.26566C22.8157 9.16215 23.6138 10.0762 24.2536 11.2258C24.345 11.1801 24.3134 10.6633 24.2536 10.593H24.2571Z" fill="white"/>
<path fill-rule="evenodd" clip-rule="evenodd" d="M13.3108 9.84544C13.2933 9.87708 13.2546 9.91575 13.2686 9.95443C13.2933 9.98958 13.3179 10.0001 13.36 10.0001C13.3987 10.0001 13.455 10.0107 13.4655 9.98958C13.4866 9.96497 13.5007 9.91927 13.4866 9.87357C13.4444 9.7681 13.3319 9.81029 13.3108 9.84544V9.84544Z" fill="#1BA400"/>
<path fill-rule="evenodd" clip-rule="evenodd" d="M21.4539 15.7449C21.7773 15.7589 21.9883 15.7625 22.273 15.7941L22.6105 15.7589C22.9832 15.7238 22.9973 16.2898 22.9973 16.2898C22.9973 16.6238 22.8672 16.6414 22.702 16.6765C22.607 16.6906 22.5613 16.6203 22.5086 16.55C22.4291 16.5754 22.3444 16.5803 22.2625 16.564C22.1254 16.557 21.9918 16.557 21.8582 16.5464C21.7176 16.5359 21.6402 16.564 21.4961 16.55C21.468 16.5957 21.4258 16.6589 21.3414 16.6414C21.2711 16.6308 21.1832 16.4304 21.2078 16.2722C21.2605 16.1597 21.243 16.1984 21.243 16.1492C19.9211 16.114 18.5887 16.0543 17.2949 16.0718C16.2824 16.0753 15.284 16.1175 14.282 16.1597C13.7477 16.1527 13.3398 16.0683 13.0586 15.657C13.0867 15.657 14.4227 15.7308 14.8129 15.7062C15.5336 15.6992 16.1945 15.6394 16.9293 15.6183C18.3777 15.6429 19.8156 15.6429 21.2641 15.7449C21.1234 15.65 21.1234 15.4285 21.3344 15.3722C21.352 15.3582 21.3625 15.4812 21.3941 15.4777C21.5664 15.4671 21.4891 15.6992 21.4539 15.7449V15.7449ZM15.632 7.75738C15.4141 8.38316 15.7586 9.07222 15.9977 9.00542C16.1734 9.07573 16.2789 8.74527 16.3492 8.38667C16.402 8.28472 16.4371 8.27417 16.4617 8.32691C16.4547 8.80503 16.4969 8.91402 16.6199 9.05816C16.8941 9.26909 17.1227 9.08628 17.1402 9.0687L17.3512 8.85425C17.4004 8.80152 17.4637 8.80152 17.5305 8.8437C17.5973 8.90347 17.5867 9.00542 17.7273 9.07573C17.8469 9.12495 18.0965 9.0898 18.1562 8.98784C18.2336 8.85073 18.2547 8.80503 18.2898 8.75581C18.3461 8.68198 18.441 8.71363 18.441 8.73823C18.4305 8.78042 18.3742 8.81909 18.4129 8.89644C18.4832 8.94566 18.4973 8.91402 18.5359 8.90347C18.6766 8.83316 18.782 8.53081 18.782 8.53081C18.7855 8.41831 18.7223 8.42534 18.6801 8.45347L18.5711 8.5273C18.5008 8.53784 18.3707 8.58355 18.3039 8.48159C18.2371 8.36206 18.2371 8.1898 18.1879 8.06675C18.1879 8.05972 18.0965 7.87339 18.1809 7.86284C18.223 7.86988 18.3109 7.89448 18.325 7.82066C18.3672 7.74683 18.2336 7.53941 18.1387 7.43394C18.0578 7.34605 17.9453 7.3355 17.8363 7.42691C17.759 7.49722 17.7695 7.57456 17.7555 7.64839C17.7421 7.7013 17.7416 7.75662 17.7538 7.80979C17.766 7.86297 17.7907 7.91248 17.8258 7.95425C17.9031 8.10191 18.0402 8.29527 17.9945 8.56948C17.9945 8.56948 17.9137 8.69605 17.773 8.67847C17.7133 8.66792 17.6184 8.64331 17.5691 8.26363C17.5305 7.98238 17.5762 7.58159 17.4566 7.39527C17.4109 7.27925 17.3793 7.17027 17.2738 7.36363C17.2457 7.44097 17.1227 7.55698 17.2105 7.79253C17.2937 8.00479 17.318 8.23558 17.2809 8.4605C17.2281 8.53784 17.2176 8.56245 17.1508 8.63628C17.0594 8.74175 16.9574 8.71363 16.8801 8.67495C16.8098 8.62925 16.7535 8.60464 16.7184 8.44644C16.7254 8.20034 16.7395 7.79605 16.6938 7.71167C16.627 7.57808 16.518 7.6273 16.4723 7.66948C16.2631 7.90181 16.1231 8.18797 16.068 8.49566C16.0047 8.69956 15.9379 8.6398 15.8922 8.55894C15.7797 8.45347 15.7691 7.62027 15.632 7.75738V7.75738Z" fill="white"/>
<path fill-rule="evenodd" clip-rule="evenodd" d="M16.2897 9.12132C16.3916 9.05101 16.3459 9.00179 16.4936 9.14945C16.6842 9.48667 16.7948 9.86313 16.817 10.2498C16.81 10.3412 16.8733 10.3975 16.9049 10.3764C16.919 10.1655 17.4358 9.87015 17.9104 9.82796C17.9807 9.81039 17.9455 9.67328 17.9561 9.60296C17.928 9.33929 18.1038 9.10023 18.3498 9.08265C18.6873 9.13187 18.7998 9.31117 18.8069 9.58187C18.7682 10.1092 18.2198 10.1971 17.9139 10.2393C17.8682 10.2569 17.8471 10.278 17.9139 10.3026L19.2006 10.3096L19.2674 10.3448C19.2745 10.3799 19.2463 10.3518 19.1971 10.4362C19.1263 10.5605 19.082 10.6982 19.067 10.8405C18.6838 10.967 18.2866 11.0162 17.8858 11.069C17.7452 11.1393 17.6748 11.2342 17.703 11.3397C17.7522 11.4557 18.0616 11.5752 18.0616 11.5787C18.1213 11.6139 18.1881 11.7018 18.044 11.8811C17.4182 11.853 16.9295 11.5858 16.7608 11.2096C16.7116 11.1709 16.6553 11.2096 16.6202 11.2588C16.3741 11.5752 16.135 11.8565 15.7166 12.0112C15.4705 12.0744 15.2139 11.9725 15.0944 11.8108C15.0135 11.7159 15.017 11.6139 14.9889 11.5928C14.8518 11.6526 13.6916 12.1448 13.8393 11.9127C14.1205 11.6139 14.6127 11.3889 15.0416 11.0936C15.0733 10.9916 15.1295 10.6541 15.2983 10.5452C15.3088 10.5452 15.2737 10.742 15.2772 10.8264C15.2772 10.8967 15.2702 10.9213 15.2842 10.9037C15.3159 10.8862 15.8362 10.4748 15.8819 10.3483C15.9311 10.278 15.8924 10.0952 15.8924 10.0881C15.794 9.835 15.6569 9.8139 15.6077 9.68734C15.562 9.5221 15.583 9.33226 15.678 9.27601C15.7623 9.20218 15.8608 9.20921 15.9557 9.29359C16.0612 9.38851 16.1526 9.57484 16.1807 9.71195C16.1631 9.76468 16.0401 9.67679 16.0049 9.7014C16.0726 9.77916 16.1176 9.87402 16.135 9.97562C16.2053 10.2639 16.1842 10.3764 16.1139 10.5627C15.8819 11.0514 15.5866 11.1955 15.3264 11.3784C15.3194 11.3784 15.3159 11.5014 15.4108 11.5682C15.4459 11.6034 15.583 11.6209 15.7413 11.5682C16.0792 11.3805 16.3525 11.0949 16.5252 10.7491C16.5551 10.4859 16.5263 10.2193 16.4409 9.96859C16.3389 9.73304 16.2194 9.39906 16.2194 9.39203C16.2159 9.24437 16.2264 9.19515 16.2897 9.12132V9.12132ZM12.9217 7.76429C13.0694 7.8346 13.3506 7.80296 13.3366 7.5639L13.3295 7.45492C13.3014 7.3846 13.217 7.40218 13.1995 7.4725C13.1924 7.4971 13.21 7.53578 13.1889 7.54632C13.1748 7.56039 13.1291 7.55335 13.1291 7.48656C13.1291 7.46546 13.1151 7.44437 13.1045 7.43031C13.0975 7.42328 13.0905 7.42328 13.0729 7.42328C13.0518 7.42328 13.0518 7.42679 13.0413 7.44437C13.0377 7.46195 13.0307 7.47953 13.0307 7.50062C13.0307 7.52523 13.0166 7.53226 13.0026 7.53578C12.9815 7.53578 12.985 7.53578 12.9674 7.52875C12.9604 7.5182 12.9498 7.51468 12.9498 7.49359L12.9393 7.43734C12.9323 7.42679 12.9182 7.41976 12.9041 7.41625C12.8233 7.41625 12.8163 7.51117 12.8233 7.54632C12.8163 7.55335 12.8127 7.71859 12.9217 7.76429V7.76429Z" fill="white"/>
<path fill-rule="evenodd" clip-rule="evenodd" d="M17.2633 9.5988C17.411 9.66911 17.7661 9.63044 17.6782 9.40192L17.6711 9.28942C17.6395 9.21911 17.5586 9.23669 17.5411 9.31052C17.534 9.33161 17.5516 9.37028 17.527 9.38083C17.5165 9.39489 17.4672 9.38786 17.4708 9.32458C17.4708 9.30348 17.4567 9.27888 17.4461 9.26481C17.4356 9.2613 17.4321 9.25778 17.411 9.25778C17.3934 9.25778 17.3934 9.26481 17.3829 9.28239C17.3758 9.29997 17.3723 9.31755 17.3723 9.33864C17.3688 9.35974 17.3583 9.36677 17.3407 9.3738C17.3231 9.3738 17.3266 9.3738 17.3126 9.36325C17.302 9.3527 17.2915 9.34919 17.2915 9.33161L17.2809 9.27536C17.2739 9.26481 17.2598 9.25778 17.2458 9.25427C17.1649 9.25427 17.1579 9.34567 17.1614 9.38083C17.1579 9.38786 17.1543 9.55661 17.2668 9.5988H17.2633ZM19.7946 8.83942C19.9422 8.90974 20.22 8.87809 20.2094 8.64255L20.2024 8.53005C20.1708 8.45974 20.0899 8.47731 20.0723 8.54763C20.0653 8.57224 20.0829 8.61091 20.0583 8.62497C20.0477 8.63552 19.9985 8.62849 20.002 8.56169C20.002 8.54059 19.9879 8.5195 19.9774 8.50544C19.9668 8.49841 19.9633 8.49841 19.9422 8.49841C19.9247 8.49841 19.9247 8.50544 19.9141 8.52302L19.9036 8.57575C19.9001 8.60036 19.8895 8.61091 19.8719 8.61091C19.8543 8.61091 19.8579 8.61091 19.8438 8.60388C19.8333 8.59333 19.8227 8.58981 19.8227 8.57224C19.8227 8.55466 19.8192 8.52653 19.8122 8.51247C19.8051 8.50192 19.7911 8.49841 19.777 8.49489C19.6961 8.49489 19.6891 8.5863 19.6926 8.62145C19.6891 8.62849 19.6856 8.79372 19.7981 8.83942H19.7946ZM21.1059 10.7484C20.8493 11.0402 20.9618 11.5218 21.0215 11.6273C21.1059 11.7961 21.1727 11.905 21.3379 11.9894C21.4891 12.0984 21.6086 12.0316 21.6719 11.9543C21.8231 11.7961 21.8266 11.3918 21.8969 11.3144C21.9461 11.1668 22.0727 11.1914 22.1325 11.2582C22.1884 11.3375 22.2633 11.4016 22.3504 11.4445C22.4911 11.5675 22.6598 11.5922 22.8286 11.4797C22.9411 11.4129 23.0149 11.332 23.0817 11.1668C23.152 10.9699 23.1168 10.0558 23.0993 9.51442L22.9516 8.75856C22.9516 8.75153 22.934 8.39997 22.9165 8.31911C22.9165 8.28395 22.9059 8.27341 22.9411 8.27692C22.9797 8.31208 22.9833 8.31208 23.0114 8.32263C23.0465 8.32966 23.0817 8.26286 23.0571 8.20661L22.7055 7.5527C22.6774 7.52458 22.6387 7.49645 22.593 7.55974C22.5661 7.58415 22.5446 7.61401 22.53 7.64734C22.5155 7.68068 22.5082 7.71673 22.5086 7.75309C22.5192 7.90778 22.5438 8.06599 22.5543 8.22067L22.695 9.0152C22.7407 9.5777 22.7512 10.0418 22.7969 10.6078C22.7899 10.8468 22.7161 11.0543 22.6458 11.0859C22.6458 11.0859 22.5403 11.1457 22.47 11.0789C22.4172 11.0578 22.2098 10.7308 22.2098 10.7308C22.1043 10.6359 22.034 10.6605 21.9602 10.7308C21.7493 10.9347 21.6579 11.3074 21.5137 11.5675C21.4786 11.6273 21.3731 11.673 21.2606 11.564C20.9723 11.1668 21.1411 10.6043 21.1059 10.7484V10.7484ZM19.8614 7.45427C19.995 7.507 20.0864 7.7777 20.0583 7.9113C20.0301 8.0695 19.9598 8.24528 19.9106 8.22419C19.8543 8.2031 19.9458 8.06247 19.893 7.91481C19.8649 7.81638 19.6821 7.6406 19.7032 7.59138C19.668 7.48239 19.7805 7.43317 19.8614 7.45075V7.45427Z" fill="white"/>
<path fill-rule="evenodd" clip-rule="evenodd" d="M21.5354 10.9102C21.56 10.5868 21.5143 10.3899 21.5073 10.2C21.5002 10.0102 21.2928 8.56175 21.2506 8.42113C21.1979 8.14691 21.451 8.38597 21.4229 8.22425C21.335 8.02738 21.1205 7.73558 21.0538 7.56332C21.0116 7.493 21.0291 7.42269 20.9377 7.54574C20.859 7.76148 20.8314 7.99251 20.8569 8.22074C21.0748 9.35628 21.2963 10.2985 21.2612 11.3778C21.3666 11.3778 21.4827 11.1422 21.5354 10.9102V10.9102ZM23.7995 7.91136C23.9225 7.97113 23.9928 8.30863 23.9788 8.40355C23.9541 8.57933 23.8909 8.76917 23.8452 8.74457C23.7924 8.72347 23.8557 8.48441 23.8311 8.41058C23.803 8.30511 23.6377 8.11527 23.6553 8.05902C23.6202 7.93949 23.7256 7.89027 23.7995 7.91136V7.91136ZM14.81 10.2985C14.926 10.3442 14.9963 10.5903 14.9858 10.6606C14.9577 10.7907 14.8979 10.9313 14.8522 10.9102C14.8065 10.8961 14.8627 10.7203 14.8416 10.6641C14.8311 10.534 14.6694 10.4637 14.6729 10.4075C14.6448 10.302 14.7432 10.2844 14.8135 10.2985H14.81Z" fill="white"/>
<path fill-rule="evenodd" clip-rule="evenodd" d="M17.6111 10.6707C17.7587 10.6777 17.8326 10.7973 17.6955 10.8465C17.5548 10.8922 17.4248 10.9309 17.4212 11.1277C17.474 11.409 17.3509 11.3105 17.2806 11.2754C17.1962 11.2121 16.9572 11.0645 16.922 10.748C16.9185 10.6742 16.9783 10.6074 17.0732 10.6074C17.2138 10.6461 17.4248 10.6496 17.6111 10.6707V10.6707Z" fill="#1B9D00"/>
<path fill-rule="evenodd" clip-rule="evenodd" d="M11.7212 7.37327C11.8899 7.42249 11.9005 7.67561 11.8899 7.74944C11.8653 7.88303 11.8055 8.02717 11.7634 8.0096C11.7141 7.99202 11.7634 7.80921 11.7388 7.75296C11.7141 7.67561 11.57 7.52796 11.5841 7.48577C11.5524 7.39788 11.6544 7.35569 11.7212 7.37327V7.37327ZM15.0927 8.55452C14.9591 8.62483 14.9098 8.83577 14.9907 8.96233C15.068 9.0678 15.1876 9.02913 15.2016 9.02913C15.3317 9.04319 15.4091 8.78655 15.4091 8.78655C15.4091 8.78655 15.4126 8.71624 15.2614 8.85335C15.1946 8.86389 15.1911 8.83928 15.1735 8.80413C15.1574 8.7372 15.1636 8.66684 15.1911 8.60374C15.2157 8.54046 15.1665 8.51233 15.0927 8.55452ZM16.077 7.27483C16.0067 7.32053 15.8766 7.45764 15.8731 7.61233C15.8696 7.70022 15.852 7.70022 15.9083 7.75296C15.954 7.81624 15.9927 7.81272 16.077 7.76702C16.0981 7.75378 16.1161 7.73632 16.13 7.71575C16.1439 7.69517 16.1534 7.67193 16.1579 7.64749C16.179 7.54905 16.0524 7.69671 16.0384 7.58421C16.0102 7.47874 16.0911 7.43655 16.1684 7.33811C16.1684 7.2678 16.1684 7.2221 16.0735 7.27483H16.077ZM16.8645 7.41546C16.8335 7.54347 16.8147 7.67413 16.8083 7.80569C16.7872 7.90413 16.9138 7.94631 16.9665 7.81975C17.0509 7.59124 17.0509 7.4928 17.0579 7.39788C17.0333 7.24671 16.9313 7.25022 16.8645 7.41546ZM21.8567 9.95725C21.8708 9.93967 22.5598 9.451 22.5598 9.451C22.6302 9.42639 22.6126 9.70413 22.5809 9.70061C22.3672 9.90656 22.1215 10.0764 21.8532 10.2033C21.818 10.228 21.7864 10.017 21.8532 9.95725H21.8567ZM22.479 9.95022C22.602 10.01 22.6512 10.3651 22.6372 10.46C22.6372 10.6498 22.5212 10.7975 22.472 10.7764C22.4227 10.7518 22.479 10.5408 22.4544 10.467C22.4263 10.3615 22.3243 10.1682 22.3419 10.1119C22.3067 9.99241 22.4052 9.92913 22.4825 9.95022H22.479ZM18.4009 11.476C18.4579 11.4094 18.5242 11.3514 18.5977 11.3037C18.668 11.2686 18.7313 11.3319 18.7278 11.3283C18.7384 11.3987 18.6856 11.4584 18.7032 11.5498C18.7173 11.585 18.7278 11.6272 18.7946 11.6131C18.9036 11.5252 19.0055 11.5182 19.111 11.5147C19.1989 11.5182 19.2024 11.6623 19.1462 11.6623C18.9458 11.7045 18.8579 11.7608 18.7137 11.8135C18.6434 11.8557 18.5872 11.803 18.5872 11.7994C18.5872 11.7959 18.5485 11.7608 18.5731 11.6694C18.5802 11.599 18.552 11.5569 18.4888 11.5639C18.4466 11.592 18.4044 11.6061 18.3833 11.5533C18.3727 11.5182 18.3692 11.4971 18.4009 11.476V11.476ZM23.2032 11.6658C23.2313 11.701 23.2524 11.7362 23.1997 11.7994L23.0696 11.9119C23.0485 11.9471 23.0345 12.0104 23.1048 12.028C23.2313 12.0631 23.5266 11.8698 23.5266 11.8662C23.5759 11.8311 23.5618 11.7608 23.5548 11.7608C23.5266 11.7291 23.4634 11.7502 23.4212 11.7432C23.4001 11.7432 23.3333 11.7362 23.3649 11.6729C23.3885 11.6418 23.4075 11.6075 23.4212 11.5709C23.4388 11.5287 23.4212 11.5006 23.3509 11.476C23.277 11.4619 23.2454 11.469 23.1645 11.476C23.1223 11.483 23.1083 11.5041 23.0977 11.5569C23.1012 11.6377 23.1505 11.6342 23.2032 11.6623V11.6658Z" fill="white"/>
<path fill-rule="evenodd" clip-rule="evenodd" d="M18.4249 9.66985C18.4073 9.70501 18.344 9.70501 18.2843 9.66985C18.2245 9.6347 18.1893 9.57845 18.2104 9.5468C18.2315 9.51516 18.2913 9.51516 18.3511 9.5468C18.4108 9.57845 18.4425 9.63821 18.4249 9.66985ZM15.296 7.78548C15.2608 7.79602 15.2116 7.76438 15.1905 7.71516C15.1694 7.66595 15.18 7.62376 15.2151 7.61321C15.2503 7.60266 15.296 7.63782 15.3206 7.68352C15.3452 7.72923 15.3311 7.77845 15.2925 7.78899L15.296 7.78548Z" fill="#259F00"/>
<path fill-rule="evenodd" clip-rule="evenodd" d="M21.4871 16.1836C21.8175 16.1977 22.1269 16.1836 22.4539 16.2012C22.5136 16.2539 22.4715 16.377 22.4328 16.3699L22.1586 16.3594C22.155 16.2539 21.8879 16.2715 21.8949 16.3629C21.7507 16.3805 21.6207 16.3594 21.473 16.3523C21.4308 16.2996 21.4379 16.2047 21.4871 16.1836V16.1836Z" fill="#209000"/>
</g>
</g>
<defs>
<filter id="filter0_d_336_32186" x="0" y="-2" width="36" height="36" filterUnits="userSpaceOnUse" color-interpolation-filters="sRGB">
<feFlood flood-opacity="0" result="BackgroundImageFix"/>
<feColorMatrix in="SourceAlpha" type="matrix" values="0 0 0 0 0 0 0 0 0 0 0 0 0 0 0 0 0 0 127 0" result="hardAlpha"/>
<feOffset dy="4"/>
<feGaussianBlur stdDeviation="3"/>
<feComposite in2="hardAlpha" operator="out"/>
<feColorMatrix type="matrix" values="0 0 0 0 0 0 0 0 0 0 0 0 0 0 0 0 0 0 0.16 0"/>
<feBlend mode="normal" in2="BackgroundImageFix" result="effect1_dropShadow_336_32186"/>
<feBlend mode="normal" in="SourceGraphic" in2="effect1_dropShadow_336_32186" result="shape"/>
</filter>
<clipPath id="clip0_336_32186">
<rect width="24" height="18" fill="white" transform="translate(6 3)"/>
</clipPath>
</defs>
</svg>
