<svg width="36" height="31" viewBox="0 0 36 31" fill="none" xmlns="http://www.w3.org/2000/svg">
<g filter="url(#filter0_d_336_16673)">
<g clip-path="url(#clip0_336_16673)">
<path d="M6 3H30V21H6V3Z" fill="#F7E017"/>
<path d="M6 4.24805V12.2505L30 16.0005V11.748L6 4.24805Z" fill="white"/>
<path d="M6 8.50195V12.252L30 19.752V16.002L6 8.50195Z" fill="black"/>
<path d="M17.3914 17.2412C16.9526 17.1927 16.5304 17.0458 16.1564 16.8112C16.0964 16.7712 16.0414 16.7362 16.0314 16.7362C16.0214 16.7362 16.0164 16.7837 16.0164 16.8387C16.0164 16.9987 15.9514 17.0787 15.7914 17.1212C15.6364 17.1612 15.4013 17.0812 15.2113 16.9212C15.0312 16.7671 14.8209 16.6521 14.5938 16.5837C14.3573 16.5274 14.1084 16.5594 13.8938 16.6737C13.8726 16.6886 13.8489 16.6996 13.8238 16.7062C13.7963 16.7062 13.7988 16.5337 13.8288 16.4812C13.8663 16.4062 13.9563 16.3362 14.0638 16.2987C14.1188 16.2787 14.1638 16.2537 14.1638 16.2412C14.1638 16.2312 14.1438 16.1912 14.1213 16.1512C14.0488 16.0237 14.0788 15.9012 14.2063 15.8037C14.3363 15.7037 14.5563 15.6887 14.7488 15.7612C14.7814 15.7751 14.8148 15.7868 14.8488 15.7962C14.8738 15.7962 14.8588 15.7587 14.7888 15.6562C14.7088 15.5387 14.6913 15.4812 14.7013 15.3387C14.7082 15.2515 14.746 15.1696 14.8078 15.1077C14.8697 15.0458 14.9516 15.0081 15.0388 15.0012C15.1838 14.9912 15.2738 15.0412 15.4888 15.2437C16.0663 15.8249 16.8247 16.1918 17.6389 16.2837C17.8464 16.3087 18.2589 16.2962 18.5014 16.2587C19.2696 16.1305 19.9818 15.7753 20.5464 15.2387C20.7064 15.0887 20.7814 15.0487 20.9139 15.0487C21.0264 15.0487 21.1064 15.0837 21.1889 15.1737C21.2639 15.2562 21.2889 15.3337 21.2789 15.4612C21.2739 15.5412 21.2614 15.5787 21.2139 15.6587C21.1439 15.7712 21.1564 15.7837 21.2939 15.7287C21.4839 15.6537 21.7164 15.6887 21.8414 15.8087C21.9514 15.9137 21.9614 16.0187 21.8764 16.1587C21.8439 16.2112 21.8189 16.2587 21.8189 16.2687C21.8189 16.2837 21.8439 16.2887 21.9564 16.3087C22.1064 16.3337 22.1939 16.4437 22.1939 16.6137C22.1939 16.6637 22.1864 16.7062 22.1789 16.7062C22.1714 16.7062 22.1139 16.6837 22.0539 16.6587C21.8789 16.5862 21.7789 16.5687 21.5739 16.5712C21.4189 16.5712 21.3664 16.5787 21.2589 16.6137C21.0789 16.6763 20.9132 16.774 20.7714 16.9012C20.6114 17.0437 20.5114 17.0887 20.3564 17.0862C20.2114 17.0862 20.1139 17.0437 20.0614 16.9612C20.0339 16.9162 20.0289 16.8912 20.0364 16.7912C20.0414 16.7262 20.0389 16.6737 20.0364 16.6737C20.0289 16.6737 19.9739 16.7087 19.9114 16.7512C19.7687 16.8535 19.6132 16.9367 19.4489 16.9987C18.7909 17.237 18.0867 17.32 17.3914 17.2412Z" fill="#CF1126"/>
<path d="M17.6576 16.1283C17.1741 16.0839 16.7055 15.9366 16.2834 15.6965C15.8613 15.4563 15.4954 15.1288 15.2101 14.7358C14.6001 13.9058 14.4101 12.8083 14.5951 11.8058C14.6951 11.3483 14.8951 10.8908 15.2326 10.5658C14.9544 11.1432 14.8778 11.7972 15.0151 12.4233C15.2401 13.6683 16.2901 14.7208 17.5476 14.9033C18.0477 15.0458 18.5602 14.8933 19.0352 14.7408C20.0852 14.3708 20.8852 13.3758 20.9802 12.2633C21.0627 11.6633 20.9727 11.0358 20.7002 10.4883C20.8552 10.5708 21.0502 10.8933 21.1652 11.1083C21.5652 11.8833 21.5827 12.8108 21.3477 13.6383C21.0277 14.6908 20.2227 15.6133 19.1602 15.9483C18.6754 16.0997 18.167 16.1608 17.6601 16.1283H17.6576Z" fill="#CF1126"/>
<path d="M12.8002 14.7472C12.7377 14.7372 12.6677 14.7997 12.6927 14.8647C12.7377 14.9297 12.8177 14.9647 12.8877 14.9947C13.0721 15.0667 13.2701 15.0974 13.4677 15.0847C13.6127 15.0847 13.7565 15.0593 13.8927 15.0097C13.9677 14.9847 14.0627 14.9597 14.0927 14.8747C14.1252 14.8222 14.0677 14.7672 14.0152 14.7772C13.9402 14.7947 13.8652 14.8272 13.7902 14.8497C13.6253 14.8963 13.4535 14.9133 13.2827 14.8997C13.1584 14.8816 13.0372 14.8462 12.9227 14.7947C12.8827 14.7772 12.8452 14.7522 12.8002 14.7472V14.7472Z" fill="#CF1126"/>
<path d="M12.8682 14.4872C12.8057 14.4772 12.7507 14.5522 12.7757 14.6122C12.8257 14.6822 12.9082 14.7197 12.9857 14.7522C13.1209 14.8053 13.2656 14.8299 13.4107 14.8247H13.4482C13.5716 14.8253 13.694 14.8015 13.8082 14.7547C13.8757 14.7272 13.9607 14.6997 13.9907 14.6247C14.0132 14.5822 13.9957 14.5222 13.9407 14.5172C13.8957 14.5172 13.8532 14.5472 13.8082 14.5597C13.6453 14.627 13.4688 14.6544 13.2932 14.6397C13.1832 14.6272 13.0807 14.5872 12.9807 14.5397C12.9432 14.5222 12.9107 14.4947 12.8682 14.4897V14.4872Z" fill="#CF1126"/>
<path d="M12.9591 14.2389C12.9041 14.2314 12.8666 14.2939 12.8766 14.3414C12.8841 14.3864 12.9216 14.4164 12.9541 14.4414C13.0902 14.5357 13.2537 14.5823 13.4191 14.5739H13.4591C13.5631 14.5731 13.6656 14.5492 13.7591 14.5039C13.8216 14.4789 13.8941 14.4464 13.9166 14.3739C13.9266 14.3414 13.9316 14.2939 13.8941 14.2739C13.8541 14.2539 13.8166 14.2864 13.7816 14.2989C13.662 14.3617 13.5292 14.3952 13.3941 14.3964C13.2782 14.3918 13.1654 14.3573 13.0666 14.2964C13.0291 14.2789 12.9991 14.2464 12.9591 14.2389V14.2389Z" fill="#CF1126"/>
<path d="M12.0373 10.5664C11.9573 10.6489 12.0198 10.7989 12.0123 10.9039C12.0573 11.2339 12.1098 11.5664 12.2323 11.8789C12.3823 12.1789 12.7023 12.3414 12.8948 12.6089C12.9648 12.7364 12.9398 12.8914 12.9548 13.0339C12.9648 13.4164 12.9623 13.8014 12.9548 14.1839C13.1298 14.2739 13.3173 14.3589 13.5173 14.3264C13.6348 14.2989 13.8548 14.2814 13.8798 14.1639L13.8548 12.1764C13.7873 11.9739 13.5798 11.8689 13.4273 11.7389C13.2998 11.6131 13.1812 11.4786 13.0723 11.3364C13.0073 11.2239 12.7498 11.1864 12.8423 11.3764C12.8973 11.5439 13.0348 11.6664 13.0698 11.8414C13.0773 11.9389 13.1948 12.1164 13.0948 12.1714C13.0332 12.0628 12.9399 11.9755 12.8273 11.9214C12.7173 11.8389 12.5348 11.8039 12.4948 11.6589C12.4588 11.4527 12.3632 11.2615 12.2198 11.1089C12.2573 10.9239 12.2198 10.6914 12.0598 10.5714L12.0373 10.5664V10.5664Z" fill="#CF1126"/>
<path d="M12.2866 10.6035C12.2116 10.616 12.2166 10.7085 12.2491 10.7585C12.2861 10.8661 12.2956 10.9813 12.2766 11.0935C12.4137 11.2462 12.5054 11.4341 12.5416 11.636C12.5416 11.711 12.6216 11.736 12.6741 11.7735C12.7966 11.851 12.9316 11.9085 13.0416 12.006C13.0641 12.031 13.0816 12.056 13.0666 12.006C13.0491 11.941 13.0416 11.871 12.9916 11.8235C12.9216 11.7485 12.8366 11.6835 12.7366 11.6635C12.7291 11.5585 12.6791 11.4635 12.6341 11.3735C12.5841 11.286 12.5316 11.1935 12.4466 11.1385C12.4466 10.986 12.4466 10.826 12.3816 10.6835C12.3616 10.6485 12.3316 10.606 12.2866 10.6035Z" fill="#CF1126"/>
<path d="M12.4903 10.6641C12.4403 10.6791 12.4503 10.7441 12.4653 10.7816C12.4872 10.8901 12.4956 11.001 12.4903 11.1116C12.5878 11.1866 12.6453 11.2966 12.7003 11.4016C12.7353 11.4716 12.7653 11.5466 12.7778 11.6241C12.8553 11.6491 12.9228 11.6991 12.9828 11.7491C12.9578 11.6791 12.9078 11.6241 12.8703 11.5566C12.8328 11.4891 12.7953 11.4166 12.7778 11.3391C12.7028 11.2616 12.6628 11.1491 12.6778 11.0391C12.6828 10.9216 12.6453 10.7991 12.5653 10.7091C12.5453 10.6891 12.5203 10.6666 12.4903 10.6641Z" fill="#CF1126"/>
<path d="M12.7293 10.6999C12.6993 10.7049 12.6843 10.7299 12.6693 10.7524C12.6618 10.7749 12.6893 10.7974 12.6943 10.8224C12.7269 10.9049 12.7389 10.9942 12.7293 11.0824C12.7268 11.1449 12.7493 11.2074 12.7793 11.2574C12.7849 11.2381 12.7963 11.2211 12.8119 11.2086C12.8276 11.196 12.8467 11.1886 12.8668 11.1874C12.8793 11.1874 12.9018 11.1924 12.8918 11.1699C12.8818 11.0499 12.8643 10.9299 12.8218 10.8199C12.8094 10.7766 12.7852 10.7376 12.7518 10.7074C12.7468 10.7024 12.7368 10.6974 12.7268 10.6999H12.7293Z" fill="#CF1126"/>
<path d="M23.1998 14.7472C23.2623 14.7372 23.3323 14.7997 23.3073 14.8647C23.2623 14.9297 23.1823 14.9647 23.1123 14.9947C22.9279 15.0667 22.7299 15.0974 22.5323 15.0847C22.3873 15.0847 22.2435 15.0593 22.1073 15.0097C22.0323 14.9847 21.9373 14.9597 21.9073 14.8747C21.8748 14.8222 21.9323 14.7672 21.9848 14.7772C22.0598 14.7947 22.1348 14.8272 22.2098 14.8497C22.3747 14.8963 22.5465 14.9133 22.7173 14.8997C22.8416 14.8816 22.9628 14.8462 23.0773 14.7947C23.1173 14.7772 23.1548 14.7522 23.1998 14.7472V14.7472Z" fill="#CF1126"/>
<path d="M23.1318 14.4872C23.1943 14.4772 23.2493 14.5522 23.2243 14.6122C23.1743 14.6822 23.0918 14.7197 23.0143 14.7522C22.8791 14.8053 22.7344 14.8299 22.5893 14.8247H22.5518C22.4284 14.8253 22.306 14.8015 22.1918 14.7547C22.1243 14.7272 22.0393 14.6997 22.0093 14.6247C21.9868 14.5822 22.0043 14.5222 22.0593 14.5172C22.1043 14.5172 22.1468 14.5472 22.1918 14.5597C22.3547 14.627 22.5312 14.6544 22.7068 14.6397C22.8168 14.6272 22.9193 14.5872 23.0193 14.5397C23.0568 14.5222 23.0893 14.4947 23.1318 14.4897V14.4872Z" fill="#CF1126"/>
<path d="M23.0409 14.2389C23.0959 14.2314 23.1334 14.2939 23.1234 14.3414C23.1159 14.3864 23.0784 14.4164 23.0459 14.4414C22.9098 14.5357 22.7463 14.5823 22.5809 14.5739H22.5409C22.4369 14.5731 22.3344 14.5492 22.2409 14.5039C22.1784 14.4789 22.1059 14.4464 22.0834 14.3739C22.0734 14.3414 22.0684 14.2939 22.1059 14.2739C22.1459 14.2539 22.1834 14.2864 22.2184 14.2989C22.338 14.3617 22.4708 14.3952 22.6059 14.3964C22.7218 14.3918 22.8346 14.3573 22.9334 14.2964C22.9709 14.2789 23.0009 14.2464 23.0409 14.2389V14.2389Z" fill="#CF1126"/>
<path d="M23.9627 10.5664C24.0427 10.6489 23.9802 10.7989 23.9877 10.9039C23.9427 11.2339 23.8902 11.5664 23.7677 11.8789C23.6177 12.1789 23.2977 12.3414 23.1052 12.6089C23.0352 12.7364 23.0602 12.8914 23.0452 13.0339C23.0352 13.4164 23.0377 13.8014 23.0452 14.1839C22.8702 14.2739 22.6827 14.3589 22.4827 14.3264C22.3652 14.2989 22.1452 14.2814 22.1202 14.1639L22.1452 12.1764C22.2127 11.9739 22.4202 11.8689 22.5727 11.7389C22.7002 11.6131 22.8188 11.4786 22.9277 11.3364C22.9927 11.2239 23.2502 11.1864 23.1577 11.3764C23.1027 11.5439 22.9652 11.6664 22.9302 11.8414C22.9227 11.9389 22.8052 12.1164 22.9052 12.1714C22.9668 12.0628 23.0601 11.9755 23.1727 11.9214C23.2827 11.8389 23.4652 11.8039 23.5052 11.6589C23.5412 11.4527 23.6368 11.2615 23.7802 11.1089C23.7427 10.9239 23.7802 10.6914 23.9402 10.5714L23.9627 10.5664V10.5664Z" fill="#CF1126"/>
<path d="M23.7134 10.6035C23.7884 10.616 23.7834 10.7085 23.7509 10.7585C23.7139 10.8661 23.7044 10.9813 23.7234 11.0935C23.5863 11.2462 23.4946 11.4341 23.4584 11.636C23.4584 11.711 23.3784 11.736 23.3259 11.7735C23.2034 11.851 23.0684 11.9085 22.9584 12.006C22.9359 12.031 22.9184 12.056 22.9334 12.006C22.9509 11.941 22.9584 11.871 23.0084 11.8235C23.0784 11.7485 23.1634 11.6835 23.2634 11.6635C23.2709 11.5585 23.3209 11.4635 23.3659 11.3735C23.4159 11.286 23.4684 11.1935 23.5534 11.1385C23.5534 10.986 23.5534 10.826 23.6184 10.6835C23.6384 10.6485 23.6684 10.606 23.7134 10.6035Z" fill="#CF1126"/>
<path d="M23.5058 10.6641C23.5558 10.6791 23.5458 10.7441 23.5308 10.7816C23.5089 10.8901 23.5005 11.001 23.5058 11.1116C23.4083 11.1866 23.3508 11.2966 23.2958 11.4016C23.2608 11.4716 23.2308 11.5466 23.2183 11.6241C23.1408 11.6491 23.0733 11.6991 23.0133 11.7491C23.0383 11.6791 23.0883 11.6241 23.1258 11.5566C23.1633 11.4891 23.2008 11.4166 23.2183 11.3391C23.2933 11.2616 23.3333 11.1491 23.3183 11.0391C23.3133 10.9216 23.3508 10.7991 23.4308 10.7091C23.4508 10.6891 23.4758 10.6666 23.5058 10.6641Z" fill="#CF1126"/>
<path d="M23.2707 10.6999C23.3007 10.7049 23.3157 10.7299 23.3307 10.7524C23.3382 10.7749 23.3107 10.7974 23.3057 10.8224C23.2731 10.9049 23.2611 10.9942 23.2707 11.0824C23.2732 11.1449 23.2507 11.2074 23.2207 11.2574C23.2151 11.2381 23.2037 11.2211 23.1881 11.2086C23.1724 11.196 23.1533 11.1886 23.1332 11.1874C23.1207 11.1874 23.0982 11.1924 23.1082 11.1699C23.1182 11.0499 23.1357 10.9299 23.1782 10.8199C23.1906 10.7766 23.2148 10.7376 23.2482 10.7074C23.2532 10.7024 23.2632 10.6974 23.2732 10.6999H23.2707Z" fill="#CF1126"/>
<path d="M17.892 14.8988C17.7232 14.8805 17.5631 14.8143 17.4306 14.708C17.2982 14.6017 17.1989 14.4597 17.1445 14.2988C17.152 14.2438 17.2195 14.3288 17.252 14.3363C17.313 14.3726 17.3813 14.3948 17.452 14.4013C17.5395 14.4388 17.5945 14.5263 17.6795 14.5738C17.7195 14.6038 17.8595 14.6638 17.832 14.5663C17.7995 14.5163 17.777 14.4513 17.807 14.3913C17.852 14.2888 17.9245 14.1988 17.9995 14.1113C18.052 14.0938 18.0895 14.2013 18.127 14.2363C18.1795 14.3188 18.2445 14.4188 18.212 14.5188C18.182 14.5563 18.162 14.6688 18.2445 14.6338C18.3445 14.5888 18.427 14.5138 18.5095 14.4438C18.5845 14.3938 18.677 14.3913 18.752 14.3438C18.7895 14.3363 18.862 14.2663 18.877 14.3038C18.8323 14.4155 18.7698 14.5194 18.692 14.6113C18.5718 14.754 18.4056 14.8504 18.222 14.8838C18.112 14.9038 18.002 14.9088 17.892 14.8988V14.8988Z" fill="#CF1126"/>
<path d="M18.2873 14.5044C18.2948 14.4369 18.2798 14.3694 18.2448 14.3044C18.1923 14.1994 18.1198 14.1044 18.0448 14.0069C17.9748 13.9669 17.9373 14.0994 17.8923 14.1369C17.8198 14.2444 17.7298 14.3544 17.7248 14.4869C17.6848 14.5494 17.6098 14.4369 17.5773 14.3994C17.5107 14.3137 17.4754 14.2079 17.4773 14.0994C17.4713 13.9233 17.5019 13.7479 17.5673 13.5844C17.6173 13.4444 17.6948 13.3094 17.6873 13.1594C17.6923 13.0419 17.6698 12.9169 17.5773 12.8394C17.4873 12.7694 17.6348 12.7544 17.6798 12.7894C17.7598 12.7969 17.8023 12.9269 17.8748 12.8944C17.9023 12.8269 17.9098 12.7444 17.9698 12.6919C18.0273 12.6119 18.0873 12.7244 18.1073 12.7794C18.1498 12.8244 18.1073 12.9419 18.1723 12.9444C18.2523 12.8869 18.3098 12.7944 18.4123 12.7719C18.4548 12.7469 18.5248 12.7719 18.4698 12.8169C18.3948 12.8894 18.3298 12.9769 18.3148 13.0844C18.2923 13.2169 18.3248 13.3519 18.3823 13.4694C18.4948 13.7044 18.5823 13.9694 18.5248 14.2319C18.4998 14.3469 18.4198 14.4469 18.3248 14.5144C18.3123 14.5219 18.2923 14.5219 18.2873 14.5044V14.5044Z" fill="#CF1126"/>
<path d="M18.1686 12.7399C18.1349 12.6722 18.0872 12.6125 18.0286 12.5649C17.9686 12.5649 17.9311 12.6399 17.8911 12.6799C17.8636 12.7324 17.8286 12.8199 17.7586 12.7524C17.6461 12.6874 17.6286 12.5449 17.6286 12.4274C17.6211 12.2374 17.6986 12.0599 17.7661 11.8874C17.8086 11.7798 17.7986 11.6573 17.7711 11.5473C17.7386 11.4223 17.6361 11.3323 17.5586 11.2323C17.5636 11.1948 17.6636 11.2148 17.7011 11.2223C17.7861 11.2448 17.8361 11.3173 17.8986 11.3723C17.9436 11.3573 17.9236 11.2673 17.9461 11.2248C17.9461 11.1648 18.0261 11.0873 18.0586 11.1723C18.1086 11.2273 18.0586 11.3348 18.1211 11.3673C18.1811 11.3448 18.2111 11.2798 18.2661 11.2498C18.2948 11.2313 18.3278 11.2204 18.362 11.2182C18.3961 11.216 18.4302 11.2226 18.4611 11.2373C18.4836 11.2923 18.3961 11.3373 18.3711 11.3873C18.3211 11.4497 18.2865 11.5229 18.27 11.601C18.2535 11.6792 18.2556 11.7601 18.2761 11.8373C18.3111 11.9624 18.3711 12.0749 18.3936 12.1999C18.4206 12.3424 18.4163 12.4891 18.3811 12.6299C18.3586 12.7149 18.2861 12.7699 18.2111 12.8049C18.1911 12.7874 18.1811 12.7624 18.1686 12.7399V12.7399Z" fill="#CF1126"/>
<path d="M17.7902 11.1718C17.7052 11.1093 17.6777 11.0518 17.6777 10.9343C17.6777 10.8768 17.6902 10.8443 17.7277 10.7893C17.7877 10.7093 17.7777 10.6843 17.6952 10.7068C17.5627 10.7443 17.5002 10.7118 17.4952 10.5993C17.4952 10.5443 17.5052 10.5218 17.5777 10.4318C17.6377 10.3618 17.6602 10.3243 17.6477 10.3118C17.6352 10.3018 17.5652 10.3618 17.4227 10.5068C17.3334 10.601 17.2382 10.6895 17.1377 10.7718C16.8927 10.9368 16.6577 10.9618 16.5502 10.8343C16.4952 10.7693 16.4977 10.7343 16.5602 10.6943C16.6 10.6674 16.6369 10.6364 16.6702 10.6018C16.7927 10.4899 16.9278 10.3926 17.0727 10.3118C17.1627 10.2668 17.1827 10.2368 17.1252 10.2368C17.0502 10.2368 16.8127 10.3918 16.6302 10.5568C16.5777 10.6068 16.5002 10.6618 16.4602 10.6818C16.349 10.7224 16.2286 10.731 16.1127 10.7068C16.0577 10.6893 15.9552 10.5943 15.9552 10.5593C15.9552 10.5518 15.9802 10.5318 16.0052 10.5143C16.0459 10.4913 16.0845 10.4645 16.1202 10.4343C16.2652 10.3093 16.5402 10.1768 16.7577 10.1293C16.8277 10.1168 16.8002 10.0793 16.7227 10.0843C16.4932 10.1281 16.2784 10.2287 16.0977 10.3768C15.8902 10.5493 15.5777 10.5318 15.4777 10.3443C15.4602 10.3118 15.4477 10.2818 15.4527 10.2768C15.6298 10.2321 15.801 10.1666 15.9627 10.0818C16.102 9.99969 16.2555 9.94456 16.4152 9.91929C16.4852 9.90679 16.4902 9.87179 16.4227 9.86429C16.3327 9.85429 16.1977 9.89929 15.9602 10.0143C15.6527 10.1668 15.5652 10.1943 15.4052 10.1843C15.2552 10.1743 15.1727 10.1368 15.0552 10.0243C14.9752 9.94929 14.8652 9.76179 14.8852 9.73929C15.015 9.76658 15.1477 9.7775 15.2802 9.77179C15.4877 9.77179 15.5452 9.76679 15.6552 9.73429C15.8701 9.66619 16.0727 9.56406 16.2552 9.43179C16.5125 9.2141 16.8382 9.09376 17.1752 9.09178C17.4852 9.09178 17.6802 9.16179 17.8552 9.33929C17.9152 9.39929 17.9652 9.43679 17.9727 9.42929C17.9802 9.42179 17.9877 9.31679 17.9902 9.19678C17.9902 9.19678 18.0827 9.18679 18.1027 9.21429C18.1027 9.40679 18.1027 9.42429 18.1327 9.42429C18.1502 9.42429 18.1702 9.40429 18.1827 9.37429C18.2077 9.31179 18.3077 9.22429 18.4127 9.16929C18.6377 9.05678 19.0302 9.05178 19.3452 9.16178C19.4958 9.21892 19.6367 9.29904 19.7627 9.39929C19.9466 9.52864 20.1489 9.62976 20.3627 9.69929C20.5327 9.74929 20.8377 9.76179 20.9902 9.72429C21.0348 9.71396 21.0799 9.70562 21.1252 9.69929C21.1827 9.69929 21.0852 9.88929 20.9702 10.0018C20.7602 10.2068 20.4877 10.2043 20.1052 9.99929C19.8652 9.86929 19.5802 9.79929 19.5802 9.86929C19.5802 9.88429 19.5952 9.89429 19.6177 9.89429C19.7002 9.89429 19.8602 9.94929 20.0852 10.0568C20.2266 10.1383 20.3816 10.1934 20.5427 10.2193C20.6002 10.2193 20.6027 10.2568 20.5477 10.3368C20.4902 10.4218 20.3927 10.4618 20.2552 10.4618C20.1227 10.4618 20.0477 10.4343 19.9302 10.3368C19.7302 10.1718 19.2402 9.98679 19.2577 10.0868C19.2627 10.1043 19.2852 10.1168 19.3377 10.1243C19.5489 10.1702 19.7465 10.2643 19.9152 10.3993L20.0627 10.5068C20.0902 10.5218 20.0902 10.5268 20.0677 10.5693C20.0327 10.6393 19.9377 10.6918 19.8377 10.7018C19.7077 10.7168 19.5927 10.6768 19.4752 10.5768C19.2252 10.3693 18.9927 10.2193 18.9177 10.2193C18.8552 10.2193 18.8827 10.2543 18.9927 10.3118C19.135 10.3872 19.2676 10.4795 19.3877 10.5868C19.4377 10.6343 19.4952 10.6793 19.5127 10.6893C19.5602 10.7143 19.5577 10.7493 19.5077 10.8143C19.4577 10.8793 19.3727 10.9093 19.2652 10.8968C19.0502 10.8743 18.8802 10.7718 18.6152 10.4968C18.5522 10.4264 18.4837 10.3612 18.4102 10.3018C18.3752 10.3018 18.3977 10.3493 18.4652 10.4268C18.5502 10.5193 18.5652 10.5718 18.5327 10.6518C18.5052 10.7168 18.4577 10.7343 18.3627 10.7068C18.2627 10.6818 18.2477 10.7068 18.3127 10.7843C18.4077 10.9068 18.3952 11.0518 18.2752 11.1543C18.2504 11.1782 18.2216 11.1977 18.1902 11.2118C18.1802 11.2118 18.1552 11.1868 18.1327 11.1518C18.0577 11.0368 17.9902 11.0368 17.9152 11.1518C17.8994 11.1773 17.8827 11.2024 17.8652 11.2268C17.8399 11.2089 17.8149 11.1905 17.7902 11.1718V11.1718Z" fill="#CF1126"/>
<path d="M18.1669 8.82422L18.0369 8.92422L17.9219 8.83922V9.53422H18.1669V8.82422Z" fill="#CF1126"/>
<path d="M17.3734 8.10625C17.3507 8.38732 17.2743 8.66143 17.1484 8.91375L17.4259 8.65625L17.6184 8.88625L17.8284 8.65125L18.0409 8.85125L18.2459 8.64375L18.4584 8.89375L18.6434 8.68875L18.9584 8.91375C18.8434 8.66375 18.6909 8.44875 18.7084 8.09375C18.4059 8.31875 17.6834 8.35875 17.3734 8.10375V8.10625Z" fill="#CF1126"/>
<path d="M17.9245 7.94C17.812 7.94 17.6945 7.9425 17.5895 7.965C17.52 7.97606 17.4536 8.00161 17.3945 8.04C17.402 8.255 18.4195 8.3425 18.692 8.045C18.6307 8.00256 18.5607 7.97437 18.487 7.9625C18.387 7.9425 18.272 7.9425 18.1645 7.9375V8.115H17.9245V7.94V7.94Z" fill="#CF1126"/>
<path d="M18.1223 6.84961H17.9648V8.08462H18.1248L18.1223 6.84961Z" fill="#CF1126"/>
<path d="M18.122 6.87906L18.062 7.47157L18.6695 7.76907L18.362 7.35657L18.782 7.21906L18.122 6.87906ZM18.0545 6.72656C17.962 6.72656 17.8945 6.76156 17.8945 6.80156C17.8945 6.84156 17.962 6.87656 18.0545 6.87656C18.147 6.87656 18.2145 6.84156 18.2145 6.80156C18.2145 6.76156 18.147 6.72656 18.0545 6.72656Z" fill="#CF1126"/>
<path d="M17.7781 17.0971C17.8793 17.0634 17.9356 17.0034 17.9768 16.8871C17.9956 16.8271 18.0106 16.7671 18.0068 16.7521C17.9993 16.7146 17.9543 16.7146 17.9093 16.7559C17.8756 16.7821 17.8718 16.7971 17.8793 16.8534C17.9056 16.9921 17.8531 17.0296 17.5906 17.0559C17.5643 17.0559 17.4856 17.0559 17.4218 17.0446C17.2943 17.0296 17.2493 17.0446 17.2943 17.0821C17.3186 17.0976 17.3452 17.109 17.3731 17.1159C17.4443 17.1346 17.7031 17.1234 17.7781 17.0971V17.0971ZM18.3293 17.0746C18.3443 17.0596 18.3931 17.0371 18.4418 17.0184C18.5056 16.9996 18.5393 16.9809 18.5656 16.9359C18.6443 16.8234 18.6293 16.7221 18.5168 16.5871C18.4531 16.5121 18.4268 16.5159 18.3781 16.5984C18.3331 16.6659 18.3368 16.6734 18.3968 16.6884C18.4306 16.6959 18.4606 16.7184 18.4756 16.7484C18.5431 16.8646 18.5243 16.9359 18.4231 16.9359C18.3331 16.9359 18.3106 16.9509 18.2843 17.0109L18.2618 17.0821C18.2618 17.1046 18.2993 17.1009 18.3293 17.0746V17.0746ZM18.1493 16.9434C18.1643 16.8946 18.1718 16.8121 18.1681 16.6434C18.1721 16.5632 18.1684 16.4828 18.1568 16.4034C18.1418 16.3884 18.0706 16.4334 18.0593 16.4671C18.0556 16.4948 18.0623 16.5228 18.0781 16.5459C18.1006 16.5909 18.1043 16.6359 18.0968 16.8084C18.0856 17.0334 18.1006 17.0709 18.1493 16.9434V16.9434Z" fill="#F7E017"/>
<path d="M17.7247 16.8393L17.751 16.6518C17.7547 16.5881 17.7697 16.5093 17.7772 16.4756C17.8035 16.3893 17.7772 16.3668 17.7097 16.4156L17.661 16.4531L17.6685 16.5768C17.6797 16.6893 17.661 16.8956 17.6347 16.9781C17.6272 17.0006 17.6385 16.9931 17.6685 16.9593C17.691 16.9331 17.7172 16.8768 17.7247 16.8356V16.8393ZM17.3497 16.8993C17.4397 16.8243 17.4285 16.6893 17.451 16.5843C17.451 16.5131 17.496 16.4306 17.466 16.3668C17.3797 16.3818 17.3272 16.4643 17.3722 16.5431C17.3722 16.6368 17.3722 16.7381 17.3235 16.8206C17.286 16.8768 17.1585 16.8618 17.166 16.7831C17.196 16.6706 17.0572 16.7268 17.0047 16.7568C16.9635 16.7868 16.8735 16.7906 16.9072 16.7193C16.8847 16.6181 16.761 16.6818 16.6935 16.6818C16.6297 16.6818 16.6897 16.5506 16.596 16.5693C16.4272 16.5581 16.2397 16.5731 16.0897 16.4718C16.0035 16.4306 16.0147 16.3256 16.0635 16.2581C16.116 16.1681 16.131 16.0518 16.2135 15.9806C16.2997 15.9018 16.1385 15.9356 16.101 15.9618C16.0185 16.0068 16.0935 16.1231 16.026 16.1868C15.9885 16.2543 15.936 16.3443 15.846 16.3331C15.7147 16.3068 15.6397 16.1831 15.546 16.1081C15.4635 16.0893 15.5085 16.2356 15.5535 16.2656C15.6366 16.3277 15.7308 16.3735 15.831 16.4006C15.9285 16.3818 15.9322 16.5131 16.0185 16.5318C16.1685 16.6068 16.341 16.6256 16.5097 16.6368C16.5772 16.6406 16.5397 16.7606 16.626 16.7343C16.6747 16.7493 16.7872 16.7156 16.791 16.7718C16.716 16.8618 16.8622 16.8581 16.9147 16.8468C16.986 16.8318 17.0722 16.8093 17.091 16.8993C17.1472 16.9631 17.2522 16.9518 17.3235 16.9181L17.3497 16.8993V16.8993Z" fill="#F7E017"/>
<path d="M15.8566 16.1408C15.8919 16.0915 15.9221 16.0387 15.9466 15.9833C15.9657 15.9352 15.9909 15.8899 16.0216 15.8483C16.0666 15.8033 16.0404 15.7733 15.9691 15.7883C15.9316 15.7958 15.9166 15.8108 15.9129 15.8445C15.8961 15.9365 15.8644 16.0252 15.8191 16.107C15.7554 16.2008 15.7554 16.2045 15.7816 16.2045C15.7929 16.2045 15.8266 16.1745 15.8566 16.1408ZM14.9191 15.552C14.8479 15.552 14.8441 15.597 14.9116 15.6195C14.9491 15.6308 14.9754 15.657 14.9979 15.7058C15.0616 15.837 15.1029 15.8633 15.2791 15.8783L15.3916 15.8858L15.3991 15.957C15.3991 15.9945 15.4104 16.0245 15.4179 16.0245L15.5154 15.987C15.5979 15.942 15.6766 15.8445 15.6766 15.7808C15.6766 15.7433 15.6091 15.6983 15.5491 15.6983C15.5229 15.6983 15.4741 15.7208 15.4329 15.7508C15.3054 15.8408 15.1704 15.8258 15.0954 15.7058C15.0391 15.6083 14.9754 15.5558 14.9191 15.5558V15.552ZM15.5304 15.7958C15.5641 15.7958 15.5679 15.822 15.5529 15.8708C15.5506 15.8774 15.5463 15.8831 15.5406 15.8872C15.5349 15.8913 15.528 15.8934 15.521 15.8934C15.514 15.8934 15.5072 15.8913 15.5015 15.8872C15.4958 15.8831 15.4915 15.8774 15.4891 15.8708C15.4741 15.8333 15.4929 15.7958 15.5266 15.7958H15.5304ZM20.2741 15.6458C20.2254 15.6458 20.2141 15.6533 20.1841 15.6983C20.1354 15.7695 20.1316 15.9233 20.1766 15.9758C20.2029 16.0095 20.2066 16.0095 20.2629 15.9833C20.3454 15.9495 20.3604 15.9533 20.3566 15.9945C20.3566 16.107 20.1991 16.3208 20.0341 16.4333C20.0003 16.4533 19.9699 16.4786 19.9441 16.5083C19.9329 16.5383 19.9929 16.5345 20.0679 16.4933C20.1921 16.4221 20.2945 16.3183 20.3641 16.1933C20.4054 16.107 20.4129 16.0808 20.4204 15.9308C20.4204 15.7883 20.4204 15.7433 20.3979 15.6983C20.3679 15.6458 20.3604 15.642 20.2929 15.642H20.2741V15.6458ZM20.2779 15.7395C20.3154 15.7395 20.3154 15.747 20.3229 15.7995C20.3229 15.837 20.3191 15.8633 20.2966 15.8858C20.2666 15.912 20.2591 15.912 20.2366 15.8708C20.1991 15.8108 20.2216 15.7395 20.2779 15.7395V15.7395ZM19.5204 16.8083C19.6666 16.7333 19.7529 16.6545 19.8054 16.5383C19.8249 16.501 19.8412 16.4621 19.8541 16.422C19.8541 16.3995 19.7829 16.3658 19.7416 16.3658C19.7004 16.3658 19.6891 16.3358 19.7041 16.2533C19.7229 16.1745 19.7041 16.0733 19.6666 16.0733C19.6554 16.0733 19.6291 16.092 19.6179 16.1145C19.5954 16.152 19.5916 16.167 19.6104 16.2158C19.6366 16.2908 19.6141 16.3508 19.5466 16.3995C19.5129 16.422 19.4979 16.4483 19.4979 16.4745L19.5016 16.512L19.5804 16.4745L19.6554 16.4295L19.6966 16.467C19.7229 16.482 19.7416 16.512 19.7416 16.5308C19.7416 16.6208 19.4866 16.7708 19.3141 16.7858C19.2204 16.7933 19.2016 16.7858 19.1716 16.7558C19.1454 16.7295 19.1379 16.707 19.1454 16.6808L19.1641 16.5833C19.1791 16.5045 19.1491 16.5158 19.0891 16.6058C19.0441 16.6808 19.0291 16.7595 19.0554 16.8008C19.0779 16.8383 19.2204 16.8683 19.3254 16.8608C19.3891 16.8608 19.4529 16.842 19.5204 16.8083V16.8083ZM20.4954 16.2645C20.5854 16.1708 20.6266 16.0583 20.6266 15.8895V15.7583L20.7016 15.7208C20.8029 15.6758 20.8966 15.582 20.8966 15.5295C20.8966 15.477 20.8704 15.477 20.8291 15.537C20.7954 15.5783 20.7541 15.6045 20.6041 15.6758C20.5666 15.6908 20.5629 15.702 20.5516 15.8633C20.5441 16.0508 20.5141 16.1183 20.4129 16.2458C20.3491 16.3208 20.3454 16.3358 20.3904 16.3358C20.4091 16.3358 20.4579 16.302 20.4954 16.2608V16.2645ZM19.4941 16.1595C19.5016 16.1333 19.4491 16.1145 19.4304 16.137C19.4191 16.1445 19.4154 16.1595 19.4229 16.1708C19.4379 16.1933 19.4829 16.1858 19.4941 16.1595V16.1595ZM20.8741 15.8033C20.8854 15.7733 20.8329 15.7545 20.8104 15.777C20.8029 15.7883 20.7991 15.8033 20.8066 15.8145C20.8216 15.837 20.8666 15.8295 20.8741 15.8033ZM19.2129 14.832C19.1754 14.8508 19.1566 14.8883 19.1341 14.9183C19.1154 14.9295 19.1304 14.9408 19.1379 14.9558C19.2016 15.0195 19.2279 15.1133 19.2579 15.1995C19.2879 15.3008 19.3254 15.4095 19.2954 15.5145C19.2841 15.552 19.2504 15.5933 19.2054 15.582C19.1304 15.5783 19.0554 15.5558 18.9804 15.5558C18.9091 15.5595 18.8566 15.6233 18.7891 15.6158C18.7441 15.6158 18.7441 15.5258 18.7066 15.552C18.6841 15.6008 18.6954 15.6533 18.6916 15.702C18.6991 15.7133 18.7216 15.7058 18.7329 15.7095H18.8716C18.8791 15.7545 18.8791 15.8108 18.9091 15.8483C18.9579 15.8633 19.0141 15.8483 19.0591 15.8295C19.1041 15.807 19.1116 15.7508 19.1266 15.7058C19.1416 15.657 19.2016 15.6683 19.2391 15.6495C19.2843 15.6355 19.3234 15.6069 19.3506 15.5682C19.3777 15.5296 19.3913 15.483 19.3891 15.4358C19.3816 15.2895 19.3291 15.1583 19.2841 15.0233C19.2654 14.9633 19.2504 14.8995 19.2279 14.8395L19.2129 14.832V14.832ZM18.9879 15.6495C19.0366 15.6495 19.0591 15.7095 19.0479 15.7508C19.0291 15.807 18.9579 15.7733 18.9466 15.732C18.9204 15.6945 18.9354 15.6458 18.9841 15.6495H18.9879Z" fill="#F7E017"/>
<path d="M17.1028 15.1816C17.0803 15.1816 17.0541 15.1891 17.0278 15.2079C16.8966 15.3016 16.8591 15.4104 16.9528 15.4554C17.0166 15.4854 17.0016 15.5229 16.8966 15.5754C16.7466 15.6504 16.6153 15.6391 16.3641 15.5379C16.3041 15.5116 16.2891 15.5229 16.3003 15.5754C16.3153 15.6316 16.3678 15.6616 16.4916 15.6879C16.6266 15.7254 16.7916 15.7141 16.8966 15.6691C16.9582 15.6377 17.013 15.5944 17.0578 15.5416L17.1403 15.4554L17.2341 15.4666C17.3503 15.4816 17.3541 15.4816 17.3541 15.5379C17.3541 15.5829 17.3541 15.5829 17.4628 15.5941L17.6391 15.6016C17.6878 15.6016 17.7141 15.6129 17.7291 15.6354C17.7516 15.6616 17.7628 15.6654 17.9391 15.6504C18.1041 15.6354 18.1341 15.6354 18.2091 15.6616C18.2616 15.6766 18.3216 15.6841 18.3628 15.6804C18.4903 15.6654 18.6628 15.5641 18.6891 15.4891C18.6891 15.4779 18.7378 15.4629 18.7903 15.4516C18.9178 15.4254 18.9216 15.3991 18.8053 15.3841C18.7466 15.3764 18.6887 15.3626 18.6328 15.3429C18.591 15.3252 18.5468 15.3138 18.5016 15.3091C18.4378 15.3091 18.3778 15.3466 18.3778 15.3916C18.3778 15.4179 18.3853 15.4216 18.4641 15.4141C18.5316 15.4066 18.5541 15.4104 18.5916 15.4404C18.6178 15.4591 18.6328 15.4816 18.6291 15.4891C18.6103 15.5191 18.4603 15.5866 18.3966 15.5979C18.358 15.6043 18.3185 15.5977 18.2841 15.5791C18.2241 15.5491 18.1416 15.5454 18.1228 15.5716C18.1153 15.5829 18.1003 15.5754 18.0741 15.5529L18.0366 15.5154L17.9466 15.5529C17.8566 15.5904 17.8228 15.5904 17.8228 15.5454C17.8228 15.5266 17.7966 15.5229 17.6653 15.5341C17.5191 15.5416 17.5041 15.5379 17.4778 15.5079C17.4516 15.4816 17.4516 15.4704 17.4703 15.4441C17.4853 15.4141 17.4853 15.4066 17.4703 15.3879C17.4553 15.3729 17.4328 15.3729 17.3766 15.3879C17.2303 15.4254 17.1891 15.4066 17.1891 15.2941C17.1891 15.2229 17.1516 15.1816 17.1028 15.1816V15.1816ZM17.0653 15.2866C17.0728 15.2866 17.0803 15.2904 17.0916 15.3016C17.1028 15.3129 17.1103 15.3391 17.1028 15.3504C17.0916 15.3841 17.0278 15.3841 17.0166 15.3504C17.0091 15.3316 17.0166 15.3129 17.0353 15.3016L17.0653 15.2866Z" fill="#F7E017"/>
<path d="M16.7997 15.3913C16.8897 15.335 16.8897 15.3388 16.901 15.185C16.9085 15.0725 16.9085 15.065 16.8785 15.065C16.8335 15.065 16.811 15.1138 16.811 15.2038C16.811 15.2638 16.8035 15.29 16.7735 15.3163C16.6985 15.3913 16.5185 15.3575 16.4922 15.2675C16.4847 15.2375 16.496 15.2075 16.5335 15.155C16.6122 15.0425 16.5972 15.0125 16.496 15.0988C16.4322 15.1588 16.421 15.1588 16.4322 15.11C16.4435 15.0613 16.421 15.0425 16.3647 15.0575C16.3385 15.065 16.3197 15.08 16.316 15.1175C16.3085 15.1475 16.2935 15.1663 16.2672 15.1738C16.2222 15.185 16.1472 15.1437 16.1472 15.1062C16.1472 15.08 16.2597 14.9413 16.406 14.7913C16.4585 14.735 16.5035 14.6787 16.5035 14.675C16.5035 14.6675 16.4735 14.66 16.4397 14.66C16.3872 14.66 16.3722 14.6675 16.3722 14.69C16.3722 14.705 16.301 14.8025 16.211 14.9038C16.0235 15.1138 16.0085 15.155 16.0985 15.2113C16.1359 15.2343 16.1794 15.2459 16.2233 15.2446C16.2673 15.2433 16.31 15.2291 16.346 15.2038L16.406 15.1625V15.2375C16.406 15.3312 16.4247 15.3687 16.4997 15.4062C16.5466 15.4303 16.5991 15.4416 16.6517 15.439C16.7044 15.4364 16.7554 15.4199 16.7997 15.3913V15.3913ZM20.7147 14.0938C20.6472 14.135 20.6997 14.2212 20.7147 14.2812C20.6847 14.3562 20.5835 14.3787 20.5085 14.3937C20.4035 14.4125 20.3285 14.4988 20.291 14.5925C20.2685 14.6525 20.216 14.7425 20.1597 14.6525C20.111 14.6038 20.021 14.5625 19.9647 14.6225C19.9197 14.6638 19.9085 14.7238 19.8897 14.78C19.8635 14.7388 19.8522 14.675 19.7997 14.66C19.7097 14.6713 19.7435 14.7838 19.7847 14.8288C19.8222 14.885 19.8597 14.9525 19.8222 15.0163C19.7847 15.0913 19.6722 15.1438 19.6085 15.08C19.5485 15.0463 19.5897 14.93 19.526 14.9225C19.496 14.945 19.496 15.0688 19.4472 15.0013C19.4097 14.945 19.4322 14.8663 19.3872 14.8175C19.3385 14.825 19.2972 14.9112 19.3122 14.9562C19.3797 15.0462 19.4097 15.1588 19.436 15.2675C19.451 15.3125 19.4322 15.3988 19.4735 15.4175C19.4997 15.3463 19.4735 15.2675 19.496 15.1963C19.5635 15.1888 19.6347 15.2188 19.7022 15.2038C19.8035 15.1925 19.8785 15.1063 19.9122 15.02C19.9235 14.9525 19.9122 14.885 19.9085 14.8175C19.9835 14.8325 20.066 14.8325 20.141 14.855C20.1785 14.9113 20.1297 14.9938 20.1185 15.0538C20.081 15.1813 19.9797 15.2713 19.886 15.3538C19.8447 15.38 19.841 15.4438 19.8972 15.41C20.0255 15.3491 20.1259 15.2419 20.1785 15.11C20.2197 15.0125 20.186 14.9037 20.216 14.8062C20.2535 14.7312 20.3472 14.7463 20.4185 14.7463C20.4897 14.7463 20.5497 14.66 20.5272 14.5888C20.5047 14.5063 20.591 14.4688 20.6472 14.4388C20.726 14.4013 20.786 14.3225 20.7785 14.2325C20.7785 14.1838 20.7785 14.0975 20.7147 14.0938V14.0938ZM20.441 14.5625C20.5235 14.585 20.426 14.7425 20.381 14.6413C20.366 14.6038 20.3997 14.5625 20.441 14.5625ZM20.0547 14.675C20.1635 14.6712 20.1222 14.825 20.0322 14.7575C19.9835 14.7313 19.9985 14.675 20.0547 14.675ZM16.1247 15.2863C16.1247 15.2713 16.1172 15.26 16.1022 15.26C16.076 15.26 16.0572 15.2863 16.0685 15.3088C16.0835 15.335 16.1172 15.32 16.1247 15.2863ZM17.3997 15.1513C17.3997 15.125 17.3885 15.1175 17.3697 15.1213C17.3285 15.1288 17.321 15.185 17.366 15.185C17.3885 15.185 17.3997 15.1738 17.3997 15.1475V15.1513ZM15.8247 14.3863C15.776 14.375 15.7422 14.42 15.7235 14.4613C15.686 14.525 15.641 14.5888 15.5735 14.6225C15.5247 14.6375 15.4722 14.6188 15.4272 14.5925C15.3785 14.5663 15.3897 14.5063 15.3672 14.465C15.3297 14.435 15.266 14.4763 15.2697 14.5213C15.266 14.5813 15.3185 14.615 15.3672 14.6375C15.4047 14.6637 15.4647 14.675 15.4797 14.7238C15.4797 14.765 15.4947 14.8138 15.5435 14.7988C15.5997 14.7988 15.6185 14.8663 15.5922 14.9075C15.5672 14.9532 15.5579 15.006 15.566 15.0575C15.5922 15.0838 15.6185 15.02 15.641 15.005L15.6785 14.9525C15.7797 14.9563 15.8772 14.9713 15.9785 14.9675C16.0535 14.9675 16.1097 14.9225 16.1547 14.87C16.2222 14.8025 16.2747 14.7238 16.346 14.6675C16.3985 14.6525 16.3722 14.555 16.316 14.585C16.2672 14.6038 16.2522 14.66 16.2185 14.6937C16.1638 14.7658 16.1008 14.8313 16.031 14.8888C15.9747 14.9113 15.9147 14.9 15.8585 14.8888C15.836 14.87 15.9035 14.8513 15.9147 14.8288C15.9447 14.7988 15.9822 14.7688 16.001 14.7275C15.9822 14.69 15.9297 14.69 15.8922 14.69C15.8022 14.6975 15.731 14.7763 15.6372 14.7838C15.566 14.7838 15.6035 14.7088 15.6372 14.6825C15.6972 14.6075 15.7647 14.54 15.8285 14.4687C15.8472 14.4462 15.9147 14.4237 15.8735 14.3937C15.8585 14.3862 15.8397 14.3863 15.8247 14.3863V14.3863ZM15.8697 14.7613C15.9185 14.7875 15.8397 14.8287 15.8097 14.825C15.7685 14.8362 15.7647 14.795 15.8022 14.7875C15.8247 14.7725 15.8472 14.7613 15.8697 14.7613ZM15.7272 14.8588C15.7535 14.8588 15.8097 14.885 15.7572 14.9C15.7197 14.93 15.6822 14.87 15.7272 14.8588Z" fill="#F7E017"/>
<path d="M16.854 14.9184C16.854 14.8809 16.794 14.8884 16.7865 14.9259C16.779 14.9484 16.7865 14.9521 16.8165 14.9484C16.839 14.9484 16.854 14.9334 16.854 14.9184ZM19.6552 14.6709C19.6627 14.6371 19.6177 14.6146 19.5915 14.6409C19.5652 14.6634 19.5915 14.7121 19.6215 14.7046C19.6365 14.7046 19.6515 14.6859 19.659 14.6709H19.6552ZM15.3015 14.3296C15.3427 14.2921 15.3465 14.2884 15.3277 14.2059C15.2977 14.0896 15.3015 14.0746 15.3465 14.0634C15.4027 14.0521 15.5452 14.1271 15.5715 14.1871C15.6015 14.2359 15.5977 14.2396 15.5565 14.2771C15.5115 14.3184 15.5115 14.3671 15.5565 14.3671C15.594 14.3671 15.6952 14.2696 15.6952 14.2359C15.6952 14.1871 15.5827 14.0709 15.4927 14.0296C15.4387 14.0045 15.3798 13.9916 15.3202 13.9921C15.204 13.9921 15.189 14.0184 15.219 14.1496C15.2565 14.3071 15.2077 14.3296 15.0802 14.2096C15.0348 14.1697 14.9994 14.1198 14.9766 14.0638C14.9538 14.0079 14.9444 13.9474 14.949 13.8871C14.949 13.7371 15.009 13.6584 15.1402 13.6396C15.2302 13.6284 15.2265 13.6059 15.1402 13.5946C15.0052 13.5721 14.8927 13.6621 14.8515 13.8196C14.8027 13.9959 14.9115 14.2096 15.1027 14.3184C15.204 14.3746 15.2415 14.3784 15.3015 14.3296V14.3296ZM20.5215 14.1346C20.5327 14.1271 20.5402 14.1009 20.5402 14.0821C20.5402 14.0634 20.559 14.0221 20.5815 13.9921C20.604 13.9621 20.619 13.9321 20.619 13.9246C20.619 13.8946 20.5702 13.8946 20.5327 13.9246C20.4915 13.9584 20.4577 13.9621 20.4577 13.9246L20.5027 13.8909C20.5627 13.8646 20.5665 13.8346 20.5177 13.8121C20.454 13.7821 20.3865 13.8346 20.3827 13.9246C20.379 13.9846 20.3827 13.9921 20.4277 14.0184C20.469 14.0446 20.4765 14.0559 20.469 14.0934C20.4577 14.1534 20.484 14.1759 20.5215 14.1346V14.1346ZM21.009 14.0821C21.0465 14.0446 21.0765 14.0109 21.0765 13.9996C21.0765 13.9884 21.1102 13.9546 21.1477 13.9246C21.2527 13.8496 21.279 13.7746 21.2302 13.6509C21.2115 13.6021 21.1552 13.5384 21.024 13.4259C20.9642 13.362 20.8961 13.3065 20.8215 13.2609C20.7877 13.2609 20.7952 13.3884 20.829 13.3996C20.8927 13.4221 20.934 13.4484 21.0315 13.5384C21.1515 13.6434 21.204 13.7446 21.174 13.8009C21.1477 13.8534 21.1102 13.8384 21.0052 13.7259C20.9712 13.6835 20.9307 13.6468 20.8852 13.6171C20.874 13.6171 20.8665 13.6396 20.8665 13.6696C20.8665 13.7071 20.8852 13.7446 20.9415 13.8009C21.0277 13.8984 21.0352 13.9546 20.9677 14.0071C20.9525 14.0225 20.9347 14.0352 20.9152 14.0446C20.8295 13.8979 20.7146 13.7703 20.5777 13.6696C20.5665 13.6696 20.559 13.6846 20.559 13.7221C20.559 13.7709 20.5665 13.7859 20.604 13.8046C20.7025 13.8803 20.7908 13.9685 20.8665 14.0671L20.934 14.1421C20.9619 14.1246 20.9872 14.1032 21.009 14.0784V14.0821ZM21.234 13.4521C21.2152 13.4071 20.919 13.0996 20.8852 13.0996C20.8702 13.0996 20.8665 13.1184 20.8702 13.1671C20.8702 13.2271 20.8815 13.2346 20.9227 13.2459C20.9868 13.2833 21.0449 13.3301 21.0952 13.3846C21.1359 13.4284 21.1827 13.4663 21.234 13.4971V13.4521V13.4521ZM19.4415 16.9246C19.4435 16.9302 19.4439 16.9361 19.4426 16.9419C19.4414 16.9476 19.4386 16.9531 19.4344 16.9577C19.4302 16.9624 19.4248 16.9662 19.4185 16.9688C19.4122 16.9715 19.4053 16.9728 19.3983 16.9728C19.3913 16.9728 19.3844 16.9715 19.3781 16.9688C19.3719 16.9662 19.3664 16.9624 19.3623 16.9577C19.3581 16.9531 19.3552 16.9476 19.354 16.9419C19.3528 16.9361 19.3532 16.9302 19.3552 16.9246C19.3532 16.919 19.3528 16.9131 19.354 16.9074C19.3552 16.9016 19.3581 16.8962 19.3623 16.8915C19.3664 16.8868 19.3719 16.883 19.3781 16.8804C19.3844 16.8778 19.3913 16.8764 19.3983 16.8764C19.4053 16.8764 19.4122 16.8778 19.4185 16.8804C19.4248 16.883 19.4302 16.8868 19.4344 16.8915C19.4386 16.8962 19.4414 16.9016 19.4426 16.9074C19.4439 16.9131 19.4435 16.919 19.4415 16.9246V16.9246ZM19.599 16.8721C19.599 16.877 19.5978 16.8819 19.5955 16.8865C19.5933 16.891 19.59 16.8951 19.5858 16.8986C19.5816 16.9021 19.5766 16.9049 19.5712 16.9068C19.5657 16.9086 19.5599 16.9096 19.554 16.9096C19.548 16.9096 19.5422 16.9086 19.5367 16.9068C19.5313 16.9049 19.5263 16.9021 19.5221 16.8986C19.518 16.8951 19.5146 16.891 19.5124 16.8865C19.5101 16.8819 19.509 16.877 19.509 16.8721C19.509 16.8672 19.5101 16.8623 19.5124 16.8578C19.5146 16.8532 19.518 16.8491 19.5221 16.8456C19.5263 16.8421 19.5313 16.8393 19.5367 16.8375C19.5422 16.8356 19.548 16.8346 19.554 16.8346C19.5599 16.8346 19.5657 16.8356 19.5712 16.8375C19.5766 16.8393 19.5816 16.8421 19.5858 16.8456C19.59 16.8491 19.5933 16.8532 19.5955 16.8578C19.5978 16.8623 19.599 16.8672 19.599 16.8721V16.8721Z" fill="#F7E017"/>
</g>
</g>
<defs>
<filter id="filter0_d_336_16673" x="0" y="-2" width="36" height="36" filterUnits="userSpaceOnUse" color-interpolation-filters="sRGB">
<feFlood flood-opacity="0" result="BackgroundImageFix"/>
<feColorMatrix in="SourceAlpha" type="matrix" values="0 0 0 0 0 0 0 0 0 0 0 0 0 0 0 0 0 0 127 0" result="hardAlpha"/>
<feOffset dy="4"/>
<feGaussianBlur stdDeviation="3"/>
<feComposite in2="hardAlpha" operator="out"/>
<feColorMatrix type="matrix" values="0 0 0 0 0 0 0 0 0 0 0 0 0 0 0 0 0 0 0.16 0"/>
<feBlend mode="normal" in2="BackgroundImageFix" result="effect1_dropShadow_336_16673"/>
<feBlend mode="normal" in="SourceGraphic" in2="effect1_dropShadow_336_16673" result="shape"/>
</filter>
<clipPath id="clip0_336_16673">
<rect width="24" height="18" fill="white" transform="translate(6 3)"/>
</clipPath>
</defs>
</svg>
