<svg width="61" height="60" viewBox="0 0 61 60" fill="none" xmlns="http://www.w3.org/2000/svg">
<path d="M15.7144 6.46875C15.2456 7.5 14.7769 11.3438 14.7769 15C14.7769 23.625 15.7144 25.3125 20.3081 25.3125C22.3706 25.3125 24.4331 24.75 25.0894 23.9063C26.6831 21.9375 34.7456 22.0313 36.3394 23.9063C37.1831 24.9375 38.8706 25.3125 41.4019 25.125L45.2456 24.8438L46.0894 16.9688C47.1206 6.84375 46.2769 4.6875 41.1206 4.6875C39.0581 4.6875 36.9956 5.25 36.3394 6.09375C35.5894 6.9375 33.5269 7.5 30.7144 7.5C27.9019 7.5 25.8394 6.9375 25.0894 6.09375C23.3081 3.9375 16.9331 4.21875 15.7144 6.46875Z" fill="#00BA61"/>
<path d="M26.4956 25.3125C26.1206 25.9688 26.8706 27.4688 28.2769 28.9688C33.3394 34.3125 29.8706 38.5312 24.4331 33.4688C20.9644 30.1875 19.4644 30.75 19.4644 35.3438C19.4644 39.9375 24.5269 45 29.0269 45C31.6519 45 33.0581 45.9375 37.2769 50.1562L42.3394 55.3125H49.1831C54.0581 55.3125 56.0269 54.9375 56.0269 54.0938C56.0269 53.4375 52.4644 49.4062 48.1519 45.0938C41.4956 38.4375 40.2769 36.75 39.8081 33.4688C39.5269 31.2188 38.4019 28.7812 36.9956 27.4688C34.4644 24.8438 27.6206 23.4375 26.4956 25.3125Z" fill="#00BA61"/>
</svg>
