<svg width="24" height="24" viewBox="0 0 24 24" fill="none" xmlns="http://www.w3.org/2000/svg">
<rect width="24" height="24" rx="4" fill="white"/>
<rect x="0.5" y="0.5" width="23" height="23" rx="3.5" stroke="black" stroke-opacity="0.35"/>
<path d="M8 5.725C7.875 6 7.75 7.025 7.75 8C7.75 10.3 8 10.75 9.225 10.75C9.775 10.75 10.325 10.6 10.5 10.375C10.925 9.85 13.075 9.875 13.5 10.375C13.725 10.65 14.175 10.75 14.85 10.7L15.875 10.625L16.1 8.525C16.375 5.825 16.15 5.25 14.775 5.25C14.225 5.25 13.675 5.4 13.5 5.625C13.3 5.85 12.75 6 12 6C11.25 6 10.7 5.85 10.5 5.625C10.025 5.05 8.325 5.125 8 5.725Z" fill="#00BA61"/>
<path d="M10.875 10.75C10.775 10.925 10.975 11.325 11.35 11.725C12.7 13.15 11.775 14.275 10.325 12.925C9.4 12.05 9 12.2 9 13.425C9 14.65 10.35 16 11.55 16C12.25 16 12.625 16.25 13.75 17.375L15.1 18.75H16.925C18.225 18.75 18.75 18.65 18.75 18.425C18.75 18.25 17.8 17.175 16.65 16.025C14.875 14.25 14.55 13.8 14.425 12.925C14.35 12.325 14.05 11.675 13.675 11.325C13 10.625 11.175 10.25 10.875 10.75Z" fill="#00BA61"/>
</svg>
