<svg width="24" height="24" viewBox="0 0 24 24" fill="none" xmlns="http://www.w3.org/2000/svg">
<rect width="24" height="24" rx="4" fill="white"/>
<rect x="0.5" y="0.5" width="23" height="23" rx="3.5" stroke="black" stroke-opacity="0.35"/>
<path d="M11.4938 5.14085C11.4938 5.15435 11.4296 5.18473 11.3486 5.20498C10.8929 5.32988 10.6701 5.73157 10.6263 6.51469L10.6094 6.886L10.9064 7.05815C11.0718 7.14929 11.541 7.42271 11.9495 7.66237C13.1241 8.3476 13.195 8.38811 13.2187 8.3611C13.2524 8.3206 13.4246 7.64211 13.4043 7.62186C13.3942 7.61174 13.222 7.50372 13.0229 7.37882L12.6583 7.15266L12.6482 6.74085L12.6381 6.32903H13.3165C13.6879 6.32903 13.9917 6.31891 13.9917 6.30878C13.9917 6.2514 13.6136 5.82271 13.4212 5.66406C13.195 5.4784 12.6516 5.18135 12.5368 5.18135C12.503 5.18135 12.4727 5.16448 12.4727 5.1476C12.4727 5.12735 12.287 5.11384 11.9832 5.11384C11.7132 5.11384 11.4938 5.12735 11.4938 5.14085Z" fill="#00BA61"/>
<path d="M12.7427 6.76447V7.06489L12.9047 7.15941C12.9925 7.21004 13.0971 7.27418 13.1376 7.29781C13.2085 7.34506 13.2152 7.34169 13.2659 7.22017C13.3334 7.06152 13.3671 6.74759 13.3368 6.58557L13.3131 6.46405H13.0296H12.7427V6.76447Z" fill="#00BA61"/>
<path d="M10.9567 7.34506C11.0648 7.55772 11.301 7.79063 11.5137 7.89527C11.7365 8.00666 12.101 8.07417 12.2057 8.03029C12.2664 8.00329 12.1821 7.94253 11.5981 7.6016C11.2268 7.38556 10.9129 7.20666 10.9027 7.20666C10.8926 7.20666 10.9162 7.2708 10.9567 7.34506Z" fill="#00BA61"/>
<path d="M10.2718 7.99316C9.72497 8.22608 9.46167 8.66152 9.21526 9.75856C9.08024 10.3594 9.04648 10.8657 9.09037 11.4936C9.15113 12.2835 9.27602 12.6143 9.60007 12.8269C9.87011 13.0092 9.97138 13.0227 11.1663 13.0396C11.9663 13.0497 12.2701 13.0632 12.2701 13.0936C12.2701 13.1138 12.1857 13.4716 12.0845 13.8902C11.6288 15.7332 11.6524 15.6117 11.6963 15.8075C11.7435 16.0202 11.8887 16.2024 12.0845 16.2902C12.4085 16.4387 12.8338 16.297 12.9925 15.9898C13.0735 15.8345 13.8904 12.4792 13.8904 12.3105C13.8904 12.2227 13.8634 12.0978 13.8296 12.0337C13.7722 11.9189 13.7655 11.9155 13.384 11.8446C13.1714 11.8041 12.898 11.7366 12.7764 11.6995C12.584 11.6387 12.4726 11.6286 11.8414 11.6286H11.1224L11.1258 11.4328C11.1258 11.3282 11.1393 11.1493 11.1528 11.0379L11.1798 10.8387L10.9267 10.5687C10.4372 10.0455 10.0423 9.3265 10.0423 8.95856C10.0423 8.49274 10.5891 8.22608 10.9503 8.51637C11.0819 8.62439 11.0988 8.64802 11.2777 9.05308C11.3452 9.20835 11.4127 9.33325 11.4262 9.33325C11.4971 9.33325 11.5174 8.76616 11.4566 8.54C11.4026 8.34084 11.2372 8.09781 11.0954 8.01342C10.903 7.89865 10.5216 7.88852 10.2718 7.99316Z" fill="#00BA61"/>
<path d="M4.21603 8.38811C4.17553 8.40499 4.12152 8.44887 4.09451 8.486C4.06751 8.52651 4.03376 8.54676 4.02363 8.53326C4.01013 8.52313 4 9.50878 4 10.7307C4 12.0269 4.0135 12.9417 4.03038 12.9316C4.04726 12.9214 4.06751 12.9349 4.07764 12.9619C4.08776 12.9856 4.14515 13.0328 4.20253 13.0632C4.29367 13.1105 4.54684 13.1138 6.45063 13.1071L8.59747 13.097L8.69536 12.9856L8.79325 12.8776V10.751C8.79325 9.54592 8.77975 8.59402 8.76287 8.54676C8.74599 8.50288 8.67848 8.44212 8.61435 8.41174C8.5097 8.3611 8.28354 8.35435 6.38987 8.35773C5.23544 8.35773 4.25316 8.37123 4.21603 8.38811Z" fill="#00BA61"/>
<path d="M10.3901 8.59064C10.1403 8.73916 10.1066 8.94507 10.2618 9.31637C10.785 10.5687 11.845 11.3957 13.2998 11.6961C13.6981 11.7771 13.7623 11.7805 13.9142 11.7062C14.2382 11.5543 14.2348 11.0885 13.9074 10.913C13.8703 10.8927 13.7251 10.8556 13.5834 10.832C12.3985 10.6261 11.5142 9.96447 11.0922 8.96532C10.9977 8.74591 10.9403 8.65815 10.8526 8.60076C10.7142 8.50625 10.5353 8.50287 10.3901 8.59064Z" fill="#00BA61"/>
<path d="M16.5334 9.99483C16.3376 10.0657 16.108 10.2818 16.0034 10.4877C15.892 10.7104 15.8819 11.0953 15.9798 11.3113C16.1317 11.6421 16.4321 11.8615 16.773 11.8885C16.9621 11.9054 16.9924 11.8986 17.0566 11.8277C17.2118 11.6623 17.276 11.4092 17.2794 10.9535C17.2827 10.4775 17.2253 10.221 17.0768 10.0455C17.0026 9.95433 16.9688 9.94083 16.8338 9.9442C16.746 9.9442 16.611 9.96783 16.5334 9.99483Z" fill="#00BA61"/>
<path d="M14.9031 10.4066C14.8187 10.4269 13.9917 10.7577 13.9917 10.7678C13.9917 10.7746 14.0423 10.8286 14.1065 10.8927C14.1706 10.9568 14.2415 11.075 14.2651 11.156C14.2887 11.2404 14.3124 11.3113 14.3157 11.318C14.3191 11.3248 14.417 11.291 14.5352 11.2438C14.6499 11.1931 14.7478 11.156 14.7512 11.156C14.7647 11.156 14.8761 11.4733 15.5107 13.3332C15.8651 14.3729 16.1723 15.2674 16.1925 15.318L16.2297 15.4125L16.3343 15.3146C16.7765 14.9028 17.2963 14.7003 17.8938 14.7003C18.5014 14.7003 19.028 14.913 19.4364 15.318C19.5714 15.453 19.7166 15.6016 19.7571 15.6522C19.8212 15.7366 19.8381 15.74 19.9157 15.7062C19.9799 15.6758 20.0001 15.6421 20.0001 15.5577C20.0001 15.4969 19.99 15.4429 19.9765 15.4362C19.9596 15.4294 19.8752 15.3146 19.7841 15.1796C19.3757 14.5686 18.7377 14.2041 17.9343 14.1163L17.5765 14.0792L17.536 13.9408C17.3098 13.1847 16.7056 12.4893 15.9394 12.1146L15.7537 12.0235L15.5951 11.5644C15.5073 11.3113 15.3959 10.994 15.3487 10.8556C15.2238 10.5011 15.082 10.356 14.9031 10.4066Z" fill="#00BA61"/>
<path d="M5.43455 13.5358C5.35354 13.6134 5.35016 13.6337 5.35016 14.0522C5.35016 14.4438 5.35691 14.4978 5.42105 14.5788C5.45818 14.6261 5.51894 14.6666 5.55607 14.6666C5.58983 14.6666 5.62021 14.6801 5.62021 14.697C5.62021 14.7105 5.53582 14.9535 5.43455 15.2303C5.13413 16.0607 4.96535 16.729 4.93835 17.1813L4.92822 17.3839L5.47168 17.394L6.01514 17.4008L6.01177 17.0227C6.00839 16.5603 6.05227 16.3678 6.25143 15.9493C6.53835 15.3484 7.09869 14.9062 7.76367 14.7476C7.93582 14.7071 8.09784 14.697 8.37126 14.7105C8.97548 14.7341 9.4143 14.9231 9.83962 15.3417C10.0894 15.5847 10.3021 15.9189 10.4168 16.2531C10.4843 16.4387 10.4945 16.5434 10.4978 16.9349V17.4008H13.07C14.4843 17.4008 15.6455 17.3906 15.6523 17.3771C15.659 17.3603 15.659 17.1813 15.6523 16.9788L15.6421 16.6075L13.5865 16.6176L11.5274 16.6244L11.4464 16.4657C11.2776 16.1248 11.0616 15.3484 11.0042 14.8624C10.9873 14.6936 10.9907 14.6666 11.0481 14.6362C11.1729 14.5687 11.1865 14.4539 11.1561 13.6269C11.1561 13.6067 11.1257 13.556 11.0886 13.5189C11.021 13.4514 10.9772 13.4514 8.26999 13.4514H5.51556L5.43455 13.5358Z" fill="#00BA61"/>
<path d="M8.01705 15.0278C7.21705 15.1493 6.60946 15.686 6.40018 16.4556C6.2179 17.1138 6.40693 17.8193 6.89975 18.3088C7.13267 18.5417 7.49722 18.7611 7.73351 18.805C7.79764 18.8151 7.84828 18.8387 7.84828 18.8556C7.84828 18.8725 8.03731 18.886 8.27022 18.886C8.50313 18.886 8.69216 18.8759 8.69216 18.859C8.69216 18.8455 8.7833 18.8083 8.89807 18.7712C9.64068 18.5383 10.1875 17.7754 10.1875 16.9619C10.1875 16.4151 10.0052 15.9729 9.6238 15.5915C9.19511 15.1628 8.56389 14.94 8.01705 15.0278ZM8.493 16.2227C8.76642 16.3071 9.02971 16.648 9.02971 16.9248C9.02971 17.2117 8.83393 17.5223 8.57739 17.6404C8.27697 17.7754 7.85503 17.6775 7.66937 17.4278C7.2238 16.8269 7.78077 16.01 8.493 16.2227Z" fill="#00BA61"/>
<path d="M17.6201 15.0278C17.1137 15.1054 16.6007 15.4261 16.3239 15.8345C15.9458 16.3848 15.8648 17.0025 16.0842 17.6303C16.2631 18.1367 16.7357 18.5957 17.2656 18.7713C17.3669 18.8084 17.4581 18.8455 17.4614 18.859C17.4783 18.8962 18.3121 18.8928 18.3121 18.859C18.3121 18.8455 18.3829 18.8118 18.4741 18.7881C18.9298 18.6666 19.4024 18.2616 19.6218 17.7991C20.226 16.54 19.3889 15.1054 18.0049 15.0278C17.8496 15.0177 17.6775 15.0177 17.6201 15.0278ZM18.1703 16.2396C18.5922 16.4151 18.7644 16.8911 18.5585 17.3029C18.3222 17.7654 17.6977 17.843 17.3399 17.4548C17.053 17.1409 17.0631 16.7257 17.3669 16.4219C17.5897 16.1957 17.9002 16.1248 18.1703 16.2396Z" fill="#00BA61"/>
</svg>
