<svg width="24" height="24" viewBox="0 0 24 24" fill="none" xmlns="http://www.w3.org/2000/svg">
<rect width="24" height="24" rx="4" fill="white"/>
<rect x="0.5" y="0.5" width="23" height="23" rx="3.5" stroke="black" stroke-opacity="0.35"/>
<g clip-path="url(#clip0_84_19116)">
<path d="M15.5625 4.02188C15.1438 4.0875 14.6469 4.2375 14.3438 4.39063C13.625 4.75313 12.9406 5.42813 12.5938 6.125C12.5563 6.20313 12.5188 6.27188 12.5094 6.27813C12.5031 6.2875 12.1656 5.9625 11.7563 5.55625C11.35 5.15 10.975 4.8 10.9281 4.78438C10.8156 4.74063 10.6219 4.74063 10.5094 4.78438C10.3938 4.825 6.53751 8.675 6.48126 8.80313C6.45001 8.87813 6.44689 8.925 6.47189 8.99688C6.51251 9.1125 6.58126 9.15625 6.72501 9.15625C6.81876 9.15625 6.98751 8.99688 8.77189 7.2125L10.7188 5.26563L11.5188 6.06563L12.3156 6.8625L12.2656 7.08125C12.2344 7.20938 12.2063 7.49375 12.1969 7.77813L12.1781 8.25625L11.4969 7.575C10.9 6.97813 10.8063 6.89688 10.7188 6.89688C10.6281 6.89688 10.3656 7.15 8.00626 9.50625C6.56876 10.9438 5.35939 12.1344 5.32189 12.1531C5.28439 12.1719 5.19689 12.1875 5.12501 12.1875C5.00939 12.1875 4.97501 12.1688 4.79376 11.9938C4.57501 11.7844 4.51564 11.6594 4.56564 11.4938C4.58439 11.425 4.84689 11.1375 5.43751 10.5469C6.19064 9.7875 6.28126 9.6875 6.28126 9.59688C6.28126 9.45625 6.16251 9.34375 6.00939 9.34375C5.89689 9.34375 5.85626 9.38125 5.02814 10.2094C4.24064 11.0031 4.15939 11.0938 4.09689 11.2594C4.01876 11.475 4.01251 11.6844 4.08126 11.8938C4.15314 12.1 4.63751 12.5906 4.83751 12.6531L4.96876 12.6969V15.0219V17.3438H4.72189C4.44064 17.3438 4.31564 17.4031 4.20626 17.5938C4.14376 17.6969 4.14064 17.75 4.14064 18.6875C4.14064 19.7813 4.14064 19.7844 4.35626 19.9313C4.45626 20 4.47814 20 5.42814 20C6.33126 20 6.40314 19.9969 6.47189 19.9406C6.56876 19.8625 6.57189 19.6813 6.47501 19.5844C6.40626 19.5156 6.38751 19.5156 5.53126 19.5063L4.65626 19.4969V19.1406V18.7813H10.5625H16.4688V19.1406V19.5H11.8625C8.72814 19.5 7.22814 19.5094 7.16564 19.5313C7.00314 19.5906 6.95314 19.7781 7.06564 19.9188L7.12814 20H11.8875H16.6469L16.75 19.9281C16.9625 19.7844 16.9688 19.7531 16.9688 18.6844C16.9688 17.75 16.9656 17.725 16.8969 17.5938C16.825 17.4531 16.6656 17.3438 16.5406 17.3438H16.4688V15.0219V12.6969L16.5969 12.6594C16.75 12.6125 17.2219 12.175 17.3156 11.9938C17.3469 11.9313 17.3844 11.8031 17.3938 11.7063C17.4094 11.5656 17.4281 11.5281 17.4813 11.5125C17.6313 11.4656 18.1156 11.2094 18.3063 11.0719C18.5719 10.8844 18.9656 10.5063 19.1531 10.2656C19.5125 9.80313 19.7469 9.28125 19.8938 8.625C19.9594 8.3375 19.9688 7.4875 19.9094 7.1875C19.775 6.49063 19.45 5.80625 19.025 5.33438C18.9188 5.21563 18.8688 5.18125 18.7906 5.18125C18.6625 5.17813 18.5313 5.2625 18.5281 5.35313C18.5188 5.49688 18.5406 5.55 18.6531 5.6875C19.2375 6.39375 19.5438 7.35625 19.4406 8.17813C19.3188 9.18125 18.9094 9.93438 18.1625 10.5344C17.7875 10.8375 17.4094 11.0219 16.8906 11.1625C16.5438 11.2563 15.6656 11.2656 15.3125 11.175C14.0406 10.8531 13.0906 9.9 12.7813 8.625C12.65 8.09375 12.6844 7.35938 12.8625 6.81563C12.9531 6.54063 13.1844 6.10938 13.3719 5.85313C13.8531 5.2125 14.5375 4.775 15.375 4.57188C15.7281 4.4875 16.5188 4.49375 16.8594 4.5875C17.1656 4.66875 17.4906 4.8 17.7594 4.95C17.9875 5.07813 18.0844 5.0875 18.2 4.99688C18.2625 4.94688 18.2813 4.90625 18.2813 4.8125C18.2813 4.65938 18.2 4.59063 17.8063 4.39688C17.225 4.10938 16.7219 3.99688 16.0625 4.00313C15.8313 4.00625 15.6063 4.0125 15.5625 4.02188ZM11.6156 8.4125C12.0688 8.8625 12.4375 9.24688 12.4375 9.26563C12.4375 9.34063 12.7813 9.975 12.9406 10.1875C13.35 10.7375 13.9375 11.2063 14.5313 11.4531C14.7094 11.525 14.7969 11.6 15.25 12.0469C15.5344 12.325 15.8125 12.5781 15.8688 12.6063L15.9688 12.6594V13.625V14.5938H15.4125C14.6563 14.5938 14.675 14.575 14.6938 15.3125C14.7063 15.9063 14.6656 15.875 15.4094 15.875H15.9688V16.6094V17.3438H14.125H12.2844L12.275 15.7625L12.2656 14.1813L12.1781 14.1063C12.0656 14.0125 11.9656 14.0125 11.8531 14.1063L11.7656 14.1813L11.7563 15.7625L11.7469 17.3438H10.6563H9.56251V15.0156V12.6875H10.6531H11.7438L11.7531 13.0625C11.7656 13.4 11.7719 13.4438 11.8344 13.5063C11.9281 13.6 12.1031 13.6 12.1969 13.5063C12.2594 13.4406 12.2656 13.4031 12.275 12.9781C12.2875 12.4594 12.2719 12.3344 12.1844 12.2469C12.1281 12.1906 12.0688 12.1875 10.675 12.1875C9.29376 12.1875 9.22189 12.1906 9.15314 12.2469L9.07814 12.3063L9.06876 14.825L9.06251 17.3438H7.26564H5.46876V16.8125V16.2813H5.85939H6.25001V16.6063C6.25001 17.0813 6.21564 17.0625 7.12501 17.0625C7.79689 17.0625 7.84064 17.0594 7.91876 16.9969L8.00001 16.9344V16.4188C8.00001 15.7344 8.05001 15.7813 7.31251 15.7813H6.75001V15.4719C6.75001 15.2094 6.74064 15.1531 6.68439 15.0813L6.62189 15H6.04376H5.46876V13.8281V12.6563L5.55626 12.6219C5.60314 12.6063 6.76564 11.4656 8.14064 10.0906C10.0813 8.15313 10.6594 7.59375 10.7188 7.59375C10.775 7.59375 10.9938 7.79063 11.6156 8.4125ZM16.875 11.725C16.875 11.7906 16.4563 12.1781 16.3688 12.1938C16.2281 12.2188 16.0594 12.1375 15.8688 11.9469L15.6875 11.7656L16.1188 11.7594C16.3531 11.7594 16.6094 11.7406 16.6875 11.725C16.8813 11.6844 16.875 11.6844 16.875 11.725ZM15.9688 15.2344V15.375H15.5781H15.1875V15.2344V15.0938H15.5781H15.9688V15.2344ZM6.25001 15.6406V15.7813H5.85939H5.46876V15.6406V15.5H5.85939H6.25001V15.6406ZM7.50001 16.4219V16.5625H7.12501H6.75001V16.4219V16.2813H7.12501H7.50001V16.4219ZM16.4688 18.0625V18.2813H10.5625H4.65626V18.0625V17.8438H10.5625H16.4688V18.0625Z" fill="#00BA61"/>
<path d="M9.23125 9.3437C9.08438 9.40308 9.0625 9.48433 9.0625 9.95933C9.0625 10.225 9.07813 10.4343 9.09688 10.4812C9.14375 10.5781 9.27188 10.625 9.50313 10.625H9.68125L9.69375 10.9375C9.70938 11.4062 9.67813 11.3875 10.5219 11.4C10.8969 11.4062 11.2344 11.4031 11.2719 11.3906C11.4344 11.35 11.4688 11.275 11.4688 10.9406V10.6312L11.7219 10.6187C12.0875 10.6031 12.0938 10.5937 12.0938 9.97808C12.0938 9.71245 12.0813 9.4687 12.0625 9.43745C12.0469 9.4062 11.9875 9.36558 11.9344 9.34683C11.8125 9.3062 9.33125 9.30308 9.23125 9.3437ZM10.3438 9.9687V10.0937H9.95313H9.5625V9.9687V9.8437H9.95313H10.3438V9.9687ZM11.5938 9.9687V10.0937H11.2188H10.8438V9.9687V9.8437H11.2188H11.5938V9.9687ZM10.9688 10.7656V10.9062H10.5938H10.2188V10.7656V10.625H10.5938H10.9688V10.7656Z" fill="#00BA61"/>
<path d="M6.65627 12.1812C6.59689 12.2094 6.51564 12.2844 6.47502 12.3438C6.40314 12.45 6.40314 12.4594 6.41252 13.2719L6.42189 14.0906L6.51564 14.1906C6.68127 14.3625 6.74064 14.375 7.52502 14.375C8.20002 14.375 8.24377 14.3719 8.37502 14.3031C8.47814 14.2531 8.53439 14.1969 8.58752 14.0938C8.65627 13.9562 8.65939 13.9313 8.65002 13.1969C8.64064 12.3563 8.63752 12.3531 8.40627 12.1937C8.30627 12.1281 8.28127 12.125 7.53439 12.125C6.86564 12.125 6.75314 12.1312 6.65627 12.1812ZM8.15002 13.2406L8.14064 13.8594L7.52502 13.8687L6.90627 13.875V13.25V12.625H7.53127H8.15627L8.15002 13.2406Z" fill="#00BA61"/>
<path d="M12.9843 12.1563C12.8968 12.1938 12.7906 12.3 12.7343 12.4094C12.6906 12.4875 12.6843 12.625 12.6937 13.2813C12.7031 14.1375 12.7031 14.1344 12.9187 14.2938C13 14.3563 13.0437 14.3594 13.8125 14.3594C14.5812 14.3594 14.625 14.3563 14.7062 14.2938C14.9218 14.1344 14.9218 14.1375 14.9312 13.2781L14.9406 12.4938L14.8625 12.3625C14.7312 12.1344 14.6812 12.125 13.8062 12.1281C13.3906 12.1281 13.0187 12.1406 12.9843 12.1563ZM14.4375 13.25V13.875H13.8125H13.1875V13.25V12.625H13.8125H14.4375V13.25Z" fill="#00BA61"/>
<path d="M16.422 5.1687C16.247 5.23433 16.1563 5.34995 16.1563 5.50308C16.1563 5.6437 16.2032 5.69995 16.5095 5.92808C16.6063 5.99995 16.7095 6.09683 16.7376 6.14058L16.7907 6.22495L16.2563 6.75933L15.7188 7.29683L15.5345 7.10933L15.347 6.92183L15.3782 6.7687C15.4938 6.16558 14.9938 5.54058 14.3688 5.5062C13.9751 5.4812 13.8126 5.56245 13.8126 5.77495C13.8126 5.86245 13.847 5.91558 14.0032 6.07808C14.1813 6.26558 14.1938 6.28433 14.1751 6.38745C14.1563 6.4812 14.1376 6.49995 14.047 6.5187C13.9438 6.53745 13.922 6.52495 13.7345 6.34683C13.5688 6.1937 13.5095 6.1562 13.4282 6.1562C13.2188 6.1562 13.1376 6.32183 13.1626 6.71245C13.2001 7.3437 13.8188 7.83745 14.4251 7.72183L14.5782 7.69058L14.7657 7.87808L14.9532 8.06245L14.2907 8.72808C13.9251 9.09058 13.6126 9.4312 13.5938 9.47808C13.5063 9.7187 13.5876 9.92495 13.8688 10.1625C14.0313 10.3031 14.0532 10.3125 14.2157 10.3125C14.3282 10.3125 14.422 10.2937 14.4688 10.2625C14.5126 10.2343 14.8345 9.92495 15.1876 9.57183L15.8313 8.93745L15.9501 9.05933L16.072 9.18433L16.0751 9.5062C16.0782 9.78433 16.0907 9.84995 16.1595 9.99995C16.2688 10.2343 16.4657 10.425 16.7126 10.5406C16.8938 10.625 16.9563 10.6375 17.1782 10.6375C17.5063 10.6375 17.6032 10.5781 17.6188 10.3781C17.6282 10.2562 17.6157 10.2343 17.4376 10.05C17.2595 9.86245 17.247 9.8437 17.2657 9.74058C17.2845 9.64683 17.3032 9.62808 17.397 9.60933C17.5001 9.59058 17.5188 9.60308 17.7032 9.77808C17.8782 9.94683 17.9157 9.9687 18.0251 9.9687C18.1813 9.9687 18.2501 9.8937 18.2845 9.6812C18.3595 9.21245 18.1001 8.72495 17.6595 8.5062C17.5063 8.4312 17.447 8.42183 17.1626 8.4187L16.8376 8.41558L16.7157 8.2937L16.5938 8.17183L16.9345 7.8312L17.2782 7.49058L17.3907 7.59058C17.4532 7.6437 17.5438 7.69683 17.5938 7.7062C17.6595 7.72183 17.6845 7.74683 17.7001 7.82183C17.7251 7.9437 18.1407 8.36558 18.2532 8.3812C18.4532 8.40933 18.5063 8.37495 18.9251 7.9562C19.3563 7.52495 19.3938 7.46245 19.3407 7.26558C19.3032 7.13433 18.9126 6.7562 18.7876 6.7312C18.7126 6.71558 18.6907 6.69058 18.6751 6.61558C18.647 6.47183 17.4845 5.3187 17.2657 5.2187C17.0657 5.12495 16.6126 5.09995 16.422 5.1687ZM17.6376 6.2312L18.1563 6.7437L18.1063 6.84058C18.0438 6.9687 18.0688 7.04683 18.2438 7.22495C18.397 7.38433 18.5188 7.41558 18.6626 7.34058C18.7001 7.32183 18.7376 7.3187 18.7532 7.33433C18.7907 7.37183 18.3595 7.79683 18.3157 7.7687C18.2907 7.75308 18.2907 7.72808 18.3126 7.68745C18.3845 7.54995 18.3501 7.42495 18.197 7.27495C18.0188 7.10308 17.9376 7.07495 17.8157 7.13433L17.7251 7.17808L17.4376 6.89058L17.1501 6.60308L17.2157 6.49683C17.2938 6.37183 17.3032 6.1437 17.2376 5.98745C17.2157 5.9312 17.147 5.8312 17.0907 5.76558C16.847 5.49058 17.1438 5.74058 17.6376 6.2312ZM14.8157 6.3562C14.8782 6.49683 14.8907 6.69995 14.847 6.82183C14.8001 6.9437 14.6251 7.12495 14.5063 7.17183C14.3501 7.23745 14.1438 7.2312 13.9907 7.14995L13.8595 7.08433L13.9532 7.06245C14.0063 7.04995 14.1282 7.02183 14.2282 7.00308C14.3282 6.9812 14.447 6.9312 14.5001 6.88433C14.6032 6.79995 14.6845 6.5687 14.697 6.33433C14.7032 6.17183 14.7345 6.17495 14.8157 6.3562ZM16.8532 7.0562C16.9001 7.10933 16.8845 7.1312 16.5626 7.45308C16.222 7.79058 16.222 7.7937 16.1563 7.73433L16.0907 7.67495L16.4282 7.33745C16.6126 7.15308 16.772 6.99995 16.7845 6.99995C16.7938 6.99995 16.8251 7.02495 16.8532 7.0562ZM14.8345 9.17808L14.2188 9.79683L14.1501 9.72495L14.0782 9.65308L14.7001 9.04058L15.3188 8.4312L15.3876 8.49683L15.4532 8.56245L14.8345 9.17808ZM17.4251 8.96558C17.6032 9.04683 17.6251 9.0937 17.4876 9.0937C17.0001 9.0937 16.7501 9.3437 16.7501 9.8312C16.7501 9.9687 16.7032 9.94683 16.622 9.7687C16.5095 9.52183 16.5782 9.2062 16.7751 9.06558C17.0095 8.89995 17.2095 8.8687 17.4251 8.96558Z" fill="#00BA61"/>
</g>
<defs>
<clipPath id="clip0_84_19116">
<rect width="16" height="16" fill="white" transform="translate(4 4)"/>
</clipPath>
</defs>
</svg>
