<svg width="30" height="30" viewBox="0 0 30 30" fill="none" xmlns="http://www.w3.org/2000/svg">
<path d="M21 22H18C16.6778 21.9972 15.3835 21.6201 14.2667 20.9122C13.15 20.2043 12.2566 19.1946 11.69 18H18C18.2652 18 18.5196 17.8946 18.7071 17.7071C18.8946 17.5196 19 17.2652 19 17C19 16.7348 18.8946 16.4804 18.7071 16.2929C18.5196 16.1054 18.2652 16 18 16H11.08C10.9733 15.3376 10.9733 14.6624 11.08 14H19C19.2652 14 19.5196 13.8946 19.7071 13.7071C19.8946 13.5196 20 13.2652 20 13C20 12.7348 19.8946 12.4804 19.7071 12.2929C19.5196 12.1054 19.2652 12 19 12H11.69C12.2566 10.8054 13.15 9.7957 14.2667 9.0878C15.3835 8.37991 16.6778 8.00275 18 8H21C21.2652 8 21.5196 7.89464 21.7071 7.70711C21.8946 7.51957 22 7.26522 22 7C22 6.73478 21.8946 6.48043 21.7071 6.29289C21.5196 6.10536 21.2652 6 21 6H18C16.1415 6.00316 14.3295 6.58162 12.8129 7.65594C11.2963 8.73026 10.1495 10.2477 9.53 12H7C6.73478 12 6.48043 12.1054 6.29289 12.2929C6.10536 12.4804 6 12.7348 6 13C6 13.2652 6.10536 13.5196 6.29289 13.7071C6.48043 13.8946 6.73478 14 7 14H9.06C8.97997 14.6643 8.97997 15.3357 9.06 16H6C5.73478 16 5.48043 16.1054 5.29289 16.2929C5.10536 16.4804 5 16.7348 5 17C5 17.2652 5.10536 17.5196 5.29289 17.7071C5.48043 17.8946 5.73478 18 6 18H9.53C10.1495 19.7523 11.2963 21.2697 12.8129 22.3441C14.3295 23.4184 16.1415 23.9968 18 24H21C21.2652 24 21.5196 23.8946 21.7071 23.7071C21.8946 23.5196 22 23.2652 22 23C22 22.7348 21.8946 22.4804 21.7071 22.2929C21.5196 22.1054 21.2652 22 21 22Z" fill="black"/>
</svg>
