<svg width="32" height="14" viewBox="0 0 32 14" fill="none" xmlns="http://www.w3.org/2000/svg">
<path d="M12.1496 0.179298L7.96 9.9987H5.22675L3.165 2.16189C3.04 1.68037 2.93138 1.50316 2.551 1.29954C1.92925 0.967719 0.9025 0.657386 0 0.464333L0.060875 0.179298H4.46138C5.02138 0.179298 5.52562 0.545632 5.65387 1.17993L6.74325 6.86258L9.43275 0.179298H12.1496ZM15.8446 0.179298L13.7067 9.9987H11.1208L13.2589 0.179298H15.8446ZM22.8591 6.7927C22.8699 4.2016 19.2124 4.05779 19.2362 2.90009C19.245 2.54812 19.5863 2.17344 20.3333 2.07765C20.7033 2.03061 21.7255 1.99316 22.8834 2.5173L23.3364 0.433754C22.7142 0.212702 21.9136 0 20.9177 0C18.3615 0 16.5634 1.33393 16.549 3.24554C16.5322 4.65954 17.8334 5.4476 18.8119 5.91856C19.8197 6.39947 20.1578 6.70858 20.1531 7.1384C20.1459 7.79726 19.3481 8.08893 18.6065 8.09974C17.306 8.12 16.5521 7.7544 15.9508 7.47919L15.4814 9.63175C16.0864 9.90414 17.2014 10.1408 18.3563 10.1528C21.0738 10.1528 22.8511 8.83412 22.8591 6.7927ZM29.6091 9.99882H32L29.9112 0.179298H27.7054C27.2079 0.179298 26.7897 0.462982 26.6042 0.89907L22.7243 9.9987H25.4396L25.9783 8.53189H29.2957L29.6091 9.99882ZM26.7229 6.51982L28.0844 2.8323L28.8665 6.51982H26.7229ZM19.1541 12.7017H18.1034V13.6624H19.2786V13.9512H17.7494V11.286H19.2184V11.5748H18.1034V12.4169H19.154L19.1541 12.7017ZM19.8215 11.1438H20.1755V13.9511H19.8215V11.1438ZM21.0688 13.0575C21.0767 13.5282 21.3787 13.7218 21.7367 13.7218C21.9905 13.7218 22.1474 13.6784 22.2764 13.6231L22.3406 13.8723C22.2159 13.9275 21.9986 13.9947 21.6885 13.9947C21.089 13.9947 20.7309 13.6033 20.7309 13.0259C20.7309 12.4487 21.0767 11.9978 21.6444 11.9978C22.2844 11.9978 22.4494 12.5436 22.4494 12.8955C22.4494 12.9666 22.4452 13.0179 22.4371 13.0576L21.0688 13.0575ZM22.1071 12.8084C22.1112 12.591 22.0146 12.2469 21.6161 12.2469C21.2539 12.2469 21.1009 12.5672 21.0726 12.8084H22.1071ZM24.3764 13.8839C24.2839 13.9275 24.0785 13.9948 23.817 13.9948C23.2294 13.9948 22.847 13.6033 22.847 13.018C22.847 12.4288 23.2574 11.9979 23.8934 11.9979C24.1026 11.9979 24.2878 12.0491 24.3844 12.1007L24.3041 12.3656C24.2192 12.3221 24.0865 12.2744 23.8934 12.2744C23.4465 12.2744 23.2052 12.6027 23.2052 12.9984C23.2052 13.4411 23.495 13.714 23.8814 13.714C24.0826 13.714 24.2154 13.6666 24.316 13.6231L24.3764 13.8839ZM25.3699 11.5786V12.0373H25.8769V12.3021H25.3699V13.3343C25.3699 13.5718 25.4384 13.706 25.6355 13.706C25.732 13.706 25.7885 13.6983 25.8409 13.6822L25.857 13.9474C25.7885 13.971 25.6799 13.9947 25.543 13.9947C25.3779 13.9947 25.245 13.9393 25.1606 13.8486C25.064 13.7416 25.0238 13.5718 25.0238 13.3463V12.3021H24.7218V12.0373H25.0238V11.6814L25.3699 11.5786ZM26.3715 12.6345C26.3715 12.409 26.3673 12.2154 26.3554 12.0373H26.6654L26.6816 12.4168H26.6934C26.7821 12.16 26.9993 11.9978 27.2366 11.9978C27.273 11.9978 27.3013 12.0018 27.3335 12.0056V12.334C27.2973 12.3259 27.2611 12.3259 27.2125 12.3259C26.9632 12.3259 26.7859 12.5078 26.7377 12.769C26.7294 12.8226 26.7254 12.8768 26.7256 12.9311V13.9514H26.3715V12.6345ZM29.5104 12.9784C29.5104 13.6862 29.0071 13.9947 28.5404 13.9947C28.017 13.9947 27.6066 13.615 27.6066 13.0102C27.6066 12.3734 28.0372 11.9979 28.5726 11.9979C29.132 11.9979 29.5104 12.3969 29.5104 12.9784ZM27.9688 12.9984C27.9688 13.4175 28.2103 13.734 28.5564 13.734C28.8946 13.734 29.148 13.4213 29.148 12.9904C29.148 12.6662 28.983 12.2587 28.5644 12.2587C28.15 12.2587 27.9688 12.6386 27.9688 12.9984ZM30.0531 12.5554C30.0531 12.3539 30.0489 12.1956 30.0369 12.0375H30.3509L30.371 12.3539H30.379C30.4756 12.1758 30.701 11.998 31.023 11.998C31.2925 11.998 31.7113 12.1562 31.7113 12.8123V13.9514H31.3571V12.8481C31.3571 12.5398 31.2404 12.2825 30.9064 12.2825C30.6769 12.2825 30.4956 12.4448 30.4315 12.6384C30.4152 12.682 30.4072 12.7412 30.4072 12.8007V13.9514H30.0531V12.5554Z" fill="#1A1F71"/>
</svg>
