<svg width="60" height="61" viewBox="0 0 60 61" fill="none" xmlns="http://www.w3.org/2000/svg">
<g clip-path="url(#clip0_40_4435)">
<path d="M12.8435 5.93776C11.0622 7.90651 10.8747 10.1565 12.1872 12.6878C12.9372 14.094 12.7497 14.2815 11.2497 13.9065C8.43724 13.1565 4.96849 15.969 2.34349 21.1253C-0.46901 26.7503 -0.65651 31.719 1.87474 34.9065C4.40599 38.094 4.31224 44.2815 1.68724 49.6253C-0.000259757 53.094 -0.0940097 54.0315 0.93724 55.2503C3.93724 59.0003 7.40599 55.9065 10.3122 47.1878L11.8122 42.5003L13.5935 48.4065C14.531 51.6878 15.7497 54.969 16.2185 55.5315C17.3435 57.1253 21.281 57.1253 21.8435 55.5315C22.2185 54.594 22.406 54.594 22.406 55.5315C22.4997 56.1878 22.8747 56.7503 23.4372 56.7503C23.906 56.7503 24.4685 54.1253 24.656 50.844L24.9372 45.0315L25.1247 50.844C25.2185 54.1253 25.781 56.7503 26.2497 56.7503C26.8122 56.7503 27.1872 55.9065 27.1872 54.8753C27.1872 53.094 27.8435 53.0003 41.2497 53.0003C54.656 53.0003 55.3122 53.094 55.3122 54.8753C55.3122 55.9065 55.781 56.7503 56.2497 56.7503C56.8122 56.7503 57.1872 53.0003 57.1872 47.2815C57.1872 40.1565 57.5622 37.5315 58.5935 36.5003C60.9372 34.1565 60.281 32.3753 57.1872 32.3753C55.6872 32.3753 54.3747 31.9065 54.3747 31.4378C54.3747 30.8753 53.531 30.5003 52.4997 30.5003C50.8122 30.5003 50.6247 29.844 50.6247 23.469C50.6247 17.094 50.4372 16.4378 48.7497 16.4378C47.7185 16.4378 46.8747 15.969 46.8747 15.5003C46.8747 14.094 41.531 14.3753 40.9685 15.6878C40.6872 16.4378 40.1247 15.969 39.5622 14.5628C38.8122 12.7815 38.531 12.6878 38.531 13.9065C38.4372 14.9378 37.9685 15.3128 37.406 14.9378C36.8435 14.6565 35.3435 14.844 34.1247 15.594C32.3435 16.5315 31.8747 17.469 31.8747 20.3753C31.8747 23.6565 31.5935 24.1253 28.4997 25.4378C24.281 27.219 18.656 26.469 16.2185 23.7503C14.531 21.7815 14.531 21.7815 16.6872 22.9065C18.5622 23.844 20.0622 23.844 24.9372 22.4378C30.1872 21.0315 30.9372 20.5628 30.9372 18.6878C30.9372 16.1565 29.6247 15.8753 24.281 17.5628C21.3747 18.4065 20.0622 18.3128 17.9997 17.3753L15.4685 16.1565L18.1872 15.4065C19.6872 15.0315 21.281 14.094 21.656 13.4378C22.8747 11.6565 22.6872 6.68776 21.3747 5.37526C19.6872 3.68776 14.531 4.06276 12.8435 5.93776ZM19.6872 30.6878C24.7497 31.719 25.031 31.6253 27.3747 29.2815C29.9997 26.6565 31.8747 26.0003 31.8747 27.6878C31.8747 28.1565 31.031 28.6253 29.9997 28.6253C28.781 28.6253 28.1247 29.2815 28.1247 30.5003C28.1247 32.0003 27.4685 32.3753 24.8435 32.3753C21.0935 32.3753 20.531 33.969 23.4372 36.1253C25.406 37.5315 25.9685 39.8753 24.3747 39.8753C23.906 39.8753 23.4372 41.844 23.3435 44.2815C23.2497 52.5315 22.1247 52.8128 19.8747 45.219C18.0935 38.9378 17.3435 37.8128 13.2185 34.5315C8.71849 30.969 8.71849 30.7815 10.031 28.344C11.3435 25.719 11.3435 25.719 12.9372 27.6878C13.8747 28.8128 16.5935 30.0315 19.6872 30.6878ZM55.3122 44.094V51.1253H41.2497H27.1872V44.094V37.0628H41.2497H55.3122V44.094Z" fill="#00BA61"/>
</g>
<defs>
<clipPath id="clip0_40_4435">
<rect width="60" height="60" fill="white" transform="translate(0 0.5)"/>
</clipPath>
</defs>
</svg>
