<svg width="46" height="46" viewBox="0 0 46 46" fill="none" xmlns="http://www.w3.org/2000/svg">
<path d="M28.0527 26.1728C28.0527 28.9628 25.7909 31.2245 23.0009 31.2245C20.211 31.2245 17.9492 28.9628 17.9492 26.1728C17.9492 23.3828 20.211 21.1211 23.0009 21.1211C25.7909 21.1211 28.0527 23.3828 28.0527 26.1728Z" fill="#B4DBFF" stroke="#B4DBFF"/>
<path d="M32.4738 11.7623L32.4738 11.7623C32.6122 12.1779 32.8779 12.5394 33.2333 12.7955C33.5886 13.0516 34.0155 13.1894 34.4535 13.1893C34.4535 13.1893 34.4535 13.1893 34.4536 13.1893H39.6546C40.3634 13.1893 41.0431 13.4708 41.5443 13.972C42.0455 14.4732 42.327 15.1529 42.327 15.8617V34.8962C42.327 35.6049 42.0455 36.2847 41.5443 36.7859C41.0431 37.287 40.3634 37.5686 39.6546 37.5686H6.34429C5.63552 37.5686 4.95578 37.287 4.45461 36.7859C3.95343 36.2847 3.67188 35.6049 3.67188 34.8962V15.8617C3.67188 15.1529 3.95343 14.4732 4.45461 13.972C4.95578 13.4708 5.63552 13.1893 6.34429 13.1893H11.5453C11.5454 13.1893 11.5454 13.1893 11.5455 13.1893C11.9834 13.1894 12.4104 13.0516 12.7657 12.7955C13.121 12.5394 13.3867 12.178 13.5251 11.7624C13.5251 11.7624 13.5251 11.7624 13.5252 11.7623L14.0264 10.2587L14.0264 10.2586C14.2036 9.72645 14.5438 9.26356 14.9987 8.93549C15.4536 8.60745 16.0002 8.43084 16.561 8.43066C16.5611 8.43066 16.5611 8.43066 16.5612 8.43066L29.4363 8.43066L29.4365 8.43066C29.9974 8.43044 30.5442 8.60673 30.9994 8.93456C31.4545 9.26234 31.795 9.72498 31.9725 10.257C31.9725 10.257 31.9725 10.257 31.9725 10.257C31.9726 10.2571 31.9726 10.2572 31.9726 10.2573L32.4738 11.7623ZM13.7753 26.172C13.7753 31.2576 17.9139 35.3962 22.9995 35.3962C28.085 35.3962 32.2236 31.2576 32.2236 26.172C32.2236 21.0865 28.085 16.9479 22.9995 16.9479C17.9139 16.9479 13.7753 21.0865 13.7753 26.172ZM31.0415 18.9231C31.4328 19.3143 31.9634 19.5341 32.5167 19.5341C33.07 19.5341 33.6006 19.3143 33.9919 18.9231C34.3831 18.5318 34.6029 18.0012 34.6029 17.4479C34.6029 16.8946 34.3831 16.364 33.9919 15.9727C33.6006 15.5815 33.07 15.3617 32.5167 15.3617C31.9634 15.3617 31.4328 15.5815 31.0415 15.9727C30.6503 16.364 30.4305 16.8946 30.4305 17.4479C30.4305 18.0012 30.6503 18.5318 31.0415 18.9231Z" fill="#B4DBFF" stroke="#B4DBFF"/>
<path d="M8.72333 10.6038H5.55092C5.47318 10.6038 5.39863 10.5729 5.34366 10.5179C5.28869 10.463 5.25781 10.3884 5.25781 10.3107C5.25781 10.2329 5.28869 10.1584 5.34366 10.1034C5.39863 10.0485 5.47318 10.0176 5.55092 10.0176H8.72333C8.80107 10.0176 8.87562 10.0485 8.93058 10.1034C8.98555 10.1584 9.01643 10.2329 9.01643 10.3107C9.01643 10.3884 8.98555 10.463 8.93058 10.5179C8.87562 10.5729 8.80107 10.6038 8.72333 10.6038Z" fill="#B4DBFF" stroke="#B4DBFF"/>
</svg>
