<svg width="60" height="61" viewBox="0 0 60 61" fill="none" xmlns="http://www.w3.org/2000/svg">
<path d="M12.2106 2.48009C12.0906 2.60009 12.0006 4.2501 12.0006 6.1101V9.56009L10.2006 11.7501L8.40058 13.9401V17.8701V21.8001H6.33058C4.92058 21.8001 4.17058 21.9201 3.93058 22.2201C3.69058 22.4901 3.60058 23.5701 3.66058 25.1601L3.75058 27.6501L5.19058 27.7401C5.97058 27.8001 6.60058 27.9501 6.60058 28.1001C6.60058 28.8801 10.2606 56.4501 10.3806 56.6601C10.4706 56.7801 15.6606 56.9001 21.9006 56.9001C29.2506 56.9001 33.3306 57.0201 33.4506 57.2001C33.5706 57.3801 34.1706 57.7701 34.8006 58.1001C36.4506 58.9401 39.7506 58.9101 42.1806 58.0401L44.0106 57.3801L45.9606 58.0401C50.0106 59.4201 53.7906 58.7001 55.4406 56.2101C56.1906 55.0701 56.2506 54.7401 56.3706 50.9301C56.4606 46.4601 56.2206 45.1401 54.9906 43.6701C53.2506 41.6001 49.6806 41.0001 46.2906 42.2001C45.3306 42.5301 44.3106 42.8001 44.0106 42.8001C43.1406 42.8001 40.5006 41.8101 40.5006 41.4801C40.5006 40.9701 42.0006 29.1501 42.1506 28.4901C42.2706 27.9501 42.5406 27.8301 43.5906 27.7401L44.8506 27.6501L44.9406 24.9801C45.0006 23.0301 44.9106 22.2201 44.6406 22.0401C44.4306 21.9201 43.4106 21.8001 42.3906 21.8001H40.5006V20.2701C40.5006 18.7401 40.4706 18.6801 38.1006 16.2801C35.8806 14.0001 35.7006 13.7001 35.7006 12.5601C35.7006 11.6301 35.8506 11.2101 36.3606 10.8801C36.9906 10.4301 37.0506 10.4601 38.1306 12.8001L39.2706 15.2001L40.3206 14.7201L41.3706 14.2101L40.0506 11.5701C38.4606 8.42009 38.5506 8.24009 41.8206 8.0001L43.9506 7.85009V5.15009V2.45009H37.5006C31.4106 2.45009 30.9906 2.48009 29.8206 3.1101C27.1506 4.5201 25.0506 8.0001 25.2606 10.6101C25.3506 11.7201 25.3806 11.7501 26.6406 11.8401C27.8706 11.9301 27.9006 11.9601 27.9006 13.0401C27.9006 14.0001 27.6606 14.3901 26.5506 15.5001L25.2006 16.8201V19.3101C25.2006 21.7701 25.2006 21.8001 24.4506 21.8001H23.7006V18.0801V14.3601L22.5906 12.8901C21.9906 12.1101 21.1206 10.9701 20.6706 10.4001C19.8606 9.4101 19.8306 9.17009 19.7406 5.90009L19.6506 2.45009L16.0206 2.3601C14.0406 2.33009 12.3306 2.39009 12.2106 2.48009ZM17.7006 6.65009V8.90009H15.9006H14.1006V6.65009V4.40009H15.9006H17.7006V6.65009ZM38.4006 5.39009C38.4006 6.29009 38.1606 6.5901 36.2706 8.0901L34.1106 9.80009H30.8706C27.0906 9.80009 26.9706 9.6801 28.4706 7.3401C29.0706 6.38009 29.7906 5.7501 30.9306 5.1801C32.3106 4.49009 32.8806 4.40009 35.4606 4.40009H38.4006V5.39009ZM19.1706 12.2001L20.1306 13.4001H16.0506C13.8306 13.4001 12.0006 13.3401 12.0006 13.2201C12.0006 13.1301 12.3606 12.5901 12.8406 12.0201C13.6506 11.0301 13.6806 11.0001 15.9306 11.0001H18.2106L19.1706 12.2001ZM21.3006 18.6501V21.8001H15.9006H10.5006V18.6501V15.5001H15.9006H21.3006V18.6501ZM36.2106 17.6601C38.0406 19.4901 38.4006 20.0001 38.4006 20.8101V21.8001H32.8506H27.3006V19.9401C27.3006 18.1401 27.3606 18.0201 28.5606 16.7901C29.8206 15.5001 29.8506 15.5001 31.9206 15.5001H34.0506L36.2106 17.6601ZM27.9606 27.7101L28.0506 31.2501L31.3506 32.9601C33.1806 33.8901 34.6806 34.8501 34.7406 35.0601C34.8006 35.3001 34.6206 35.6901 34.3506 35.9001C33.9306 36.2301 33.5106 36.1401 31.4706 35.1501C28.0206 33.4401 28.0806 33.3501 27.9006 39.9801C27.8106 42.9201 27.6306 45.5301 27.5106 45.7101C27.3606 45.9201 27.0606 46.1001 26.8206 46.1001C26.4906 46.1001 26.4006 45.3801 26.4006 42.0501V38.0001H25.3506H24.3006V42.2001V46.4001H23.4006H22.5006V42.2001V38.0001H21.4506H20.4006V42.2001V46.4001H19.6506H18.9006V42.2001V38.0001H17.8506H16.8306L16.7406 42.2301L16.6506 46.4601L15.9006 45.8601L15.1506 45.2601L15.0606 34.7301L14.9706 24.2001H21.4206H27.8706L27.9606 27.7101ZM42.9006 24.9501V25.7001H36.4506H30.0006V24.9501V24.2001H36.4506H42.9006V24.9501ZM12.9006 36.5901C12.9006 46.4001 12.9906 46.8501 15.0306 47.9601C15.9306 48.4701 16.6506 48.5001 21.9906 48.4401L27.9606 48.3501L28.9806 47.2401L30.0006 46.1001V41.6001C30.0006 39.1401 30.0606 37.1001 30.1506 37.1001C30.2406 37.1001 30.8406 37.3701 31.5006 37.7001C32.7906 38.3601 34.5006 38.4801 35.4306 38.0001C36.1506 37.6101 36.9006 36.1701 36.9006 35.1501C36.9006 33.5301 36.1806 32.8101 33.0306 31.2501C30.1206 29.8401 30.0006 29.7501 30.0006 28.7901V27.8001H34.9506C39.9006 27.8001 39.9006 27.8001 39.8706 28.4601C39.8706 28.8501 39.5106 31.9101 39.0606 35.3001L38.2506 41.4501L36.8106 41.6601C34.8606 41.9301 33.2106 43.0701 32.4306 44.6601C31.8906 45.8301 31.8006 46.5201 31.8006 50.3901V54.8001H22.0506H12.3006L12.1506 54.1101C12.0906 53.7501 11.3406 48.0501 10.5006 41.4501C9.66058 34.8501 8.91058 29.0901 8.82058 28.6101L8.64058 27.8001H10.7706H12.9006V36.5901ZM41.0106 44.3001C41.9706 44.6301 43.3806 44.9001 44.1606 44.9001C44.9406 44.9001 46.2606 44.6301 47.1006 44.3001C50.0406 43.1301 52.6806 43.7901 53.7906 45.9201C54.3006 46.8801 54.3306 47.2101 54.0306 48.2001C53.8506 48.8301 53.2806 49.7001 52.7706 50.1201C51.9906 50.7801 51.5706 50.9001 49.9206 50.9001C48.8106 50.9001 47.6106 50.7201 47.1306 50.4801C45.5706 49.6401 43.5306 49.5801 41.5506 50.2701C38.1306 51.4701 35.3106 50.9601 34.3506 48.9201C33.7506 47.6301 33.7806 46.7301 34.5006 45.5601C35.6406 43.7001 38.0106 43.2501 41.0106 44.3001ZM46.5906 52.6701C47.8206 53.1501 52.1706 53.0601 53.1006 52.5501C54.1206 51.9801 54.3006 52.0101 54.3006 52.7001C54.3006 53.8701 53.4306 55.4001 52.4406 56.0001C51.1506 56.7801 48.9306 56.7801 46.8606 56.0001C44.8506 55.2201 43.3506 55.2501 41.0706 56.0301C37.2906 57.3501 34.3806 56.2401 33.9906 53.3601L33.8106 52.1001L34.8906 52.5501C36.4206 53.1801 40.2306 53.1201 42.2406 52.4301C43.8606 51.8601 44.7006 51.9201 46.5906 52.6701Z" fill="#00BA61"/>
</svg>
