<svg width="60" height="61" viewBox="0 0 60 61" fill="none" xmlns="http://www.w3.org/2000/svg">
<path d="M11.5307 1.4375C7.49944 3.03125 7.87444 11.6562 11.9057 11.75C12.8432 11.8438 11.9994 12.4062 10.0307 13.1562C8.06194 13.8125 6.18694 14.6562 5.90569 14.9375C4.96819 15.7812 5.24944 20.8438 6.46819 28.1562C7.12444 31.8125 7.49944 40.0625 7.31194 46.9062L7.03069 59.0938H9.84319H12.6557L13.1244 52.0625C13.6869 44.1875 14.8119 44.9375 15.1869 53.4688C15.4682 58.8125 15.5619 59.0938 18.0932 59.375C21.0932 59.75 20.9057 60.7812 20.6244 43.8125L20.4369 30.3125L27.4682 30.9688C33.7494 31.5312 34.5932 31.4375 35.5307 29.9375C36.3744 28.3438 36.4682 28.4375 36.5619 30.6875C36.5619 32.6562 36.0932 33.3125 34.6869 33.3125C32.6244 33.3125 32.2494 34.25 33.8432 35.8438C34.4994 36.5 34.1244 39.4062 32.4369 45.5938C29.9057 54.875 29.4369 58.625 30.8432 58.625C31.6869 58.625 32.4369 56.8438 34.8744 48.3125L36.0932 44.0938L36.5619 51.5938C37.0307 58.625 37.1244 59.0938 39.2807 59.375C42.2807 59.8438 43.1244 58.25 43.1244 51.3125C43.1244 43.25 44.8119 44 45.1869 52.3438C45.4682 58.9062 45.5619 59.0938 48.0932 59.375L50.6244 59.6562V52.1562C50.6244 46.25 50.9057 44.4688 52.1244 43.8125C53.4369 43.0625 53.5307 42.3125 52.6869 38.6562C52.0307 35.2812 52.1244 34.0625 53.0619 33.2188C56.9994 30.0312 54.1869 19.3438 48.7494 17C46.2182 15.9688 46.0307 15.6875 47.2494 14.5625C49.6869 12.6875 49.1244 8.28125 46.3119 6.40625C44.0619 5 43.5932 5 41.3432 6.21875C38.4369 7.90625 37.7807 11 39.7494 14.0938C41.0619 16.0625 41.0619 16.25 39.0932 16.9062C37.9682 17.2812 36.7494 17.5625 36.3744 17.4688C35.9994 17.4688 34.2182 18.0312 32.2494 18.875C28.8744 20.2812 28.7807 20.2812 25.0307 17.2812C22.9682 15.5938 19.7807 13.7188 17.9057 13.0625C16.0307 12.4062 15.2807 11.8438 16.1244 11.75C17.9057 11.75 19.6869 9.03125 19.6869 6.40625C19.6869 2.46875 15.3744 -0.0625 11.5307 1.4375Z" fill="#00BA61"/>
</svg>
