<svg width="60" height="61" viewBox="0 0 60 61" fill="none" xmlns="http://www.w3.org/2000/svg">
<path d="M21.938 4.15588C13.1255 9.49963 11.9068 21.6871 19.4068 28.7184L22.9693 31.9996L22.688 44.8434C22.5005 55.7184 22.688 57.7809 23.9068 58.2496C26.5318 59.2809 31.8755 57.5934 34.9693 54.8746L37.9693 52.1559L35.9068 50.1871C33.2818 47.8434 33.2818 47.8434 35.813 45.4996L37.8755 43.6246L35.813 41.7496C33.2818 39.4059 33.2818 39.4059 35.7193 37.1559C36.7505 36.2184 37.5005 34.6246 37.313 33.6871C37.1255 32.6559 38.438 30.6871 40.5943 28.7184C48.2818 21.4996 46.5943 8.46838 37.5005 3.78088C33.6568 1.81213 25.5005 1.99963 21.938 4.15588Z" fill="#00BA61"/>
</svg>
