<svg width="60" height="61" viewBox="0 0 60 61" fill="none" xmlns="http://www.w3.org/2000/svg">
<path d="M4.21973 14.5625C2.29786 16.4844 3.75098 19.7188 6.51661 19.7188C8.90723 19.7188 10.4541 17.1875 8.34473 16.7656C7.64161 16.625 7.82911 16.5313 8.95411 16.4844C9.84473 16.4844 11.0166 16.1563 11.5322 15.7813C12.376 15.125 12.376 15.0781 11.0166 14.7969C10.2197 14.6563 9.14161 14.2813 8.53223 14.0469C6.79786 13.3438 5.25098 13.5313 4.21973 14.5625Z" fill="#00BA61"/>
<path d="M51.3278 14.0938C50.8122 14.3281 49.781 14.6562 48.9841 14.7969C47.6247 15.0781 47.6247 15.125 48.4685 15.7812C48.9841 16.1562 50.156 16.4844 51.0466 16.4844C52.1716 16.5312 52.3591 16.625 51.7028 16.7656C49.5466 17.1875 51.0935 19.7188 53.4841 19.7188C55.1716 19.7188 56.7184 18.2656 56.7184 16.6719C56.7184 14.2812 53.9528 12.9688 51.3278 14.0938Z" fill="#00BA61"/>
<path d="M2.81265 20.7972C1.12515 21.6409 -0.0467237 25.2503 0.140776 29.0003C0.281401 31.5315 0.468901 32.1409 1.45328 32.844C2.5314 33.6878 2.57828 33.9222 2.48453 38.7972C2.43765 41.5628 2.3439 44.6097 2.25015 45.5003C2.10953 47.0003 2.25015 47.1409 3.42203 47.2815C4.54703 47.4222 4.82828 47.1878 5.43765 45.6409C6.6564 42.8284 6.79703 36.969 5.76578 33.0784L4.92203 29.7972L6.60953 31.4847C7.5939 32.469 8.7189 33.3597 9.23453 33.5003C9.98453 33.7347 10.0783 34.2034 9.93765 37.2034C9.70328 42.594 8.10953 42.219 30.0002 42.219C51.8908 42.219 50.297 42.594 50.0627 37.2034C49.922 34.2034 50.0158 33.7347 50.7658 33.5003C51.2814 33.3597 52.4533 32.4222 53.3908 31.4847L55.1252 29.7503L54.2345 32.7972C53.2033 36.5003 53.3439 42.8284 54.5158 45.6409C55.172 47.1878 55.4533 47.4222 56.5783 47.2815C57.7502 47.1409 57.8908 47.0003 57.7502 45.5003C57.6564 44.6097 57.5627 41.5628 57.5158 38.7972C57.422 33.9222 57.4689 33.6878 58.547 32.8909C59.4377 32.1878 59.7189 31.4847 59.9064 29.469C60.1408 26.7034 59.0627 22.0628 58.0314 21.2659C55.6408 19.344 53.6252 20.6097 54.0939 23.844C54.2814 25.2034 54.1408 26.3284 53.672 27.2659C52.8283 28.8128 52.5002 29.0472 52.8283 27.7347C53.1564 26.5159 51.4689 25.6722 49.6408 26.0472C47.4845 26.5159 46.8752 28.2503 46.8752 34.0159V38.9378H30.0002H13.1252V34.0159C13.1252 28.2503 12.5158 26.5159 10.3595 26.0472C8.5314 25.6722 6.8439 26.5159 7.17203 27.7347C7.50015 29.0472 7.17203 28.8128 6.32828 27.2659C5.85953 26.3284 5.7189 25.2034 5.9064 23.844C6.14078 22.2503 6.00015 21.594 5.39078 20.9847C4.45328 20.0472 4.31265 20.0472 2.81265 20.7972ZM5.06265 22.1565C5.39078 22.4847 5.62515 23.1409 5.57828 23.6565C5.5314 24.5003 5.48453 24.4534 5.20328 23.469C4.9689 22.6722 4.54703 22.2972 3.8439 22.344C3.32828 22.344 2.95328 22.2034 3.0939 21.969C3.42203 21.4065 4.4064 21.5003 5.06265 22.1565ZM56.9064 21.969C57.047 22.2034 56.672 22.344 56.1564 22.344C55.4533 22.2972 55.0314 22.6722 54.797 23.469C54.5158 24.4534 54.4689 24.5003 54.422 23.6565C54.3283 22.1565 56.2033 20.844 56.9064 21.969ZM3.14078 25.4378C3.00015 25.8128 2.85953 25.6722 2.85953 25.1565C2.81265 24.6409 2.95328 24.3597 3.0939 24.5472C3.23453 24.6878 3.2814 25.1097 3.14078 25.4378ZM57.047 25.4378C56.9064 25.8128 56.7658 25.6722 56.7658 25.1565C56.7189 24.6409 56.8595 24.3597 57.0002 24.5472C57.1408 24.6878 57.1877 25.1097 57.047 25.4378ZM8.48453 29.8909C9.0939 30.6409 9.04703 30.6878 8.3439 30.0784C7.54703 29.469 7.31265 29.094 7.68765 29.094C7.7814 29.094 8.1564 29.469 8.48453 29.8909ZM52.5002 29.2815C52.5002 29.3753 52.1252 29.7503 51.7033 30.0784C50.9533 30.6878 50.9064 30.6409 51.5158 29.8909C52.1252 29.1409 52.5002 28.9065 52.5002 29.2815Z" fill="#00BA61"/>
<path d="M13.125 27.9687C13.4062 28.625 13.5938 31.25 13.5938 33.8281V38.4688H30H46.4062V33.8281C46.4062 31.25 46.5938 28.625 46.875 27.9687L47.3438 26.75H30H12.6562L13.125 27.9687ZM29.5312 35.8906V38H21.7969H14.0625V35.8906V33.7812H21.7969H29.5312V35.8906ZM45.9375 35.8906V38H38.2031H30.4688V35.8906V33.7812H38.2031H45.9375V35.8906Z" fill="#00BA61"/>
<path d="M11.6258 43.0156C11.907 43.1094 12.4695 43.1094 12.7976 43.0156C13.0789 42.875 12.8445 42.7812 12.1883 42.7812C11.532 42.7812 11.2976 42.875 11.6258 43.0156Z" fill="#00BA61"/>
<path d="M29.4383 43.0156C29.7195 43.1094 30.282 43.1094 30.6101 43.0156C30.8914 42.875 30.657 42.7812 30.0008 42.7812C29.3445 42.7812 29.1101 42.875 29.4383 43.0156Z" fill="#00BA61"/>
<path d="M47.2508 43.0156C47.532 43.1094 48.0945 43.1094 48.4226 43.0156C48.7039 42.875 48.4695 42.7812 47.8133 42.7812C47.157 42.7812 46.9226 42.875 47.2508 43.0156Z" fill="#00BA61"/>
</svg>
