<svg width="60" height="61" viewBox="0 0 60 61" fill="none" xmlns="http://www.w3.org/2000/svg">
<path d="M15 6.96875C14.5312 8 14.0625 11.8438 14.0625 15.5C14.0625 24.125 15 25.8125 19.5938 25.8125C21.6562 25.8125 23.7188 25.25 24.375 24.4063C25.9688 22.4375 34.0312 22.5313 35.625 24.4063C36.4688 25.4375 38.1562 25.8125 40.6875 25.625L44.5312 25.3438L45.375 17.4688C46.4062 7.34375 45.5625 5.1875 40.4062 5.1875C38.3438 5.1875 36.2812 5.75 35.625 6.59375C34.875 7.4375 32.8125 8 30 8C27.1875 8 25.125 7.4375 24.375 6.59375C22.5938 4.4375 16.2188 4.71875 15 6.96875Z" fill="#00BA61"/>
<path d="M25.7812 25.8125C25.4062 26.4688 26.1562 27.9688 27.5625 29.4688C32.625 34.8125 29.1562 39.0312 23.7188 33.9688C20.25 30.6875 18.75 31.25 18.75 35.8438C18.75 40.4375 23.8125 45.5 28.3125 45.5C30.9375 45.5 32.3438 46.4375 36.5625 50.6562L41.625 55.8125H48.4688C53.3438 55.8125 55.3125 55.4375 55.3125 54.5938C55.3125 53.9375 51.75 49.9062 47.4375 45.5938C40.7812 38.9375 39.5625 37.25 39.0938 33.9688C38.8125 31.7188 37.6875 29.2812 36.2812 27.9688C33.75 25.3438 26.9062 23.9375 25.7812 25.8125Z" fill="#00BA61"/>
</svg>
