<svg width="60" height="61" viewBox="0 0 60 61" fill="none" xmlns="http://www.w3.org/2000/svg">
<g clip-path="url(#clip0_40_4443)">
<path d="M2.19122 2.70282C0.468567 4.42548 -0.0119019 4.97626 0.0232543 5.17548C0.0466918 5.38642 0.492004 4.9997 2.51935 2.96064C4.57013 0.909855 4.93341 0.499699 4.68732 0.499699C4.46466 0.499699 3.87872 1.01532 2.19122 2.70282Z" fill="#00BA61"/>
<path d="M3.36255 3.87486C0.702393 6.53502 -0.0124509 7.32017 0.0227054 7.51939C0.0461429 7.71861 0.714112 7.10923 3.69067 4.13267C6.67896 1.14439 7.26489 0.49986 7.03052 0.49986C6.79614 0.49986 5.98755 1.24986 3.36255 3.87486Z" fill="#00BA61"/>
<path d="M4.53609 5.04724C0.938432 8.64489 -0.0107863 9.65271 0.0243699 9.86364C0.0478074 10.0629 0.950151 9.21911 4.86421 5.30505C8.79 1.37927 9.61031 0.500362 9.37593 0.500362C9.14156 0.500362 8.09859 1.48474 4.53609 5.04724Z" fill="#00BA61"/>
<path d="M5.70779 6.2188C1.16092 10.7657 -0.0109573 11.9961 0.0241989 12.2071C0.0476364 12.4063 1.18436 11.3399 6.03592 6.47661C10.8992 1.61333 11.9539 0.500051 11.7195 0.500051C11.4851 0.500051 10.2078 1.7188 5.70779 6.2188Z" fill="#00BA61"/>
<path d="M6.87955 7.39014C1.39517 12.8745 -0.0110804 14.3394 0.0240759 14.5503C0.0475134 14.7495 1.40689 13.4487 7.20767 7.64795C13.0085 1.84717 14.2975 0.499512 14.0631 0.499512C13.8288 0.499512 12.317 1.95264 6.87955 7.39014Z" fill="#00BA61"/>
<path d="M12.6562 3.95703C9.53906 7.07422 9.16406 7.41406 8.82422 7.41406C8.46094 7.41406 8.4375 7.4375 8.4375 7.80078C8.4375 8.14062 8.03906 8.57422 4.21875 12.3945C0.925781 15.6875 0 16.6719 0 16.9062C0 17.1406 0.761719 16.4375 4.21875 12.9805L8.4375 8.76172V9.64062V10.5195L4.21875 14.7383C0.925781 18.0312 0 19.0156 0 19.25C0 19.4844 0.761719 18.7812 4.21875 15.3242L8.4375 11.1055V11.9844V12.8633L4.21875 17.082C0.925781 20.375 0 21.3594 0 21.5938C0 21.8281 0.761719 21.125 4.21875 17.668L8.4375 13.4492V14.3281V15.207L4.21875 19.4258C0.925781 22.7188 0 23.7031 0 23.9375C0 24.1719 0.761719 23.4688 4.21875 20.0117L8.4375 15.793V16.6719V17.5508L4.21875 21.7695C0.925781 25.0625 0 26.0469 0 26.2812C0 26.5156 0.761719 25.8125 4.21875 22.3555L8.4375 18.1367V19.0156V19.8945L4.21875 24.1133C0.925781 27.4062 0 28.3906 0 28.625C0 28.8594 0.761719 28.1562 4.21875 24.6992L8.4375 20.4805V21.3594V22.2383L4.21875 26.457C0.925781 29.75 0 30.7344 0 30.9688C0 31.2031 0.761719 30.5 4.21875 27.043L8.4375 22.8242V23.7031V24.582L4.21875 28.8008C0.925781 32.0938 0 33.0781 0 33.3125C0 33.5469 0.761719 32.8438 4.21875 29.3867L8.4375 25.168V26.0469V26.9258L4.21875 31.1445C0.925781 34.4375 0 35.4219 0 35.6562C0 35.8906 0.761719 35.1875 4.21875 31.7305L8.4375 27.5117V28.3906V29.2695L4.21875 33.4883C0.925781 36.7812 0 37.7656 0 38C0 38.2344 0.761719 37.5312 4.21875 34.0742L8.4375 29.8555V30.7344V31.6133L4.21875 35.832C0.925781 39.125 0 40.1094 0 40.3438C0 40.5781 0.761719 39.875 4.21875 36.418L8.4375 32.1992V33.0781V33.957L4.21875 38.1758C0.925781 41.4688 0 42.4531 0 42.6875C0 42.9219 0.761719 42.2188 4.21875 38.7617L8.4375 34.543V35.4219V36.3008L4.21875 40.5195C0.925781 43.8125 0 44.7969 0 45.0312C0 45.2656 0.761719 44.5625 4.21875 41.1055L8.4375 36.8867V37.7656V38.6445L4.21875 42.8633C0.925781 46.1562 0 47.1406 0 47.375C0 47.6094 0.761719 46.9062 4.21875 43.4492L8.4375 39.2305V40.1094V40.9883L4.21875 45.207C0.925781 48.5 0 49.4844 0 49.7188C0 49.9531 0.761719 49.25 4.21875 45.793L8.4375 41.5742V42.4531V43.332L4.21875 47.5508C0.925781 50.8438 0 51.8281 0 52.0625C0 52.2969 0.761719 51.5938 4.21875 48.1367L8.4375 43.918V44.7969V45.6758L4.21875 49.8945C0.925781 53.1875 0 54.1719 0 54.4062C0 54.6406 0.761719 53.9375 4.21875 50.4805L8.4375 46.2617V47.1406V48.0195L4.21875 52.2383C0.925781 55.5312 0 56.5156 0 56.75C0 56.9844 0.761719 56.2812 4.21875 52.8242L8.4375 48.6055V49.4844V50.3633L4.21875 54.582C0.925781 57.875 0 58.8594 0 59.0938C0 59.3281 0.761719 58.625 4.21875 55.168L8.4375 50.9492V51.8281V52.707L4.54688 56.5977C1.35938 59.7852 0.703125 60.5 0.9375 60.5C1.16016 60.5 2.03906 59.6914 4.82812 56.9023C6.82031 54.9102 8.4375 53.3633 8.4375 53.4453C8.4375 53.5391 8.66016 53.5859 9.16406 53.5859H9.90234L6.44531 57.043C3.59766 59.8906 3.04688 60.5 3.28125 60.5C3.51562 60.5 4.34766 59.7266 7.03125 57.043C8.94141 55.1328 10.582 53.5859 10.6875 53.5859C10.8164 53.5859 10.8984 53.5039 10.8984 53.375C10.8984 53.2695 12.3398 51.7344 14.0977 49.9766L17.2852 46.7891H18.1641H19.043L12.1875 53.6445C6.62109 59.2109 5.39062 60.5 5.625 60.5C5.85938 60.5 7.37109 59.0469 12.7734 53.6445L19.6289 46.7891H20.5078H21.3867L14.5312 53.6445C8.96484 59.2109 7.73438 60.5 7.96875 60.5C8.20312 60.5 9.71484 59.0469 15.1172 53.6445L21.9727 46.7891H22.8516H23.7305L16.875 53.6445C11.3086 59.2109 10.0781 60.5 10.3125 60.5C10.5469 60.5 12.0586 59.0469 17.4609 53.6445L24.3164 46.7891H25.1953H26.0742L19.2188 53.6445C13.6523 59.2109 12.4219 60.5 12.6562 60.5C12.8906 60.5 14.4023 59.0469 19.8047 53.6445L26.6602 46.7891H27.5391H28.418L21.5625 53.6445C15.9961 59.2109 14.7656 60.5 15 60.5C15.2344 60.5 16.7461 59.0469 22.1484 53.6445L29.0039 46.7891H29.8828H30.7617L23.9062 53.6445C18.3398 59.2109 17.1094 60.5 17.3438 60.5C17.5781 60.5 19.0898 59.0469 24.4922 53.6445L31.3477 46.7891H32.2266H33.1055L26.25 53.6445C20.6836 59.2109 19.4531 60.5 19.6875 60.5C19.9219 60.5 21.4336 59.0469 26.8359 53.6445L33.6914 46.7891H34.5703H35.4492L28.5938 53.6445C23.0273 59.2109 21.7969 60.5 22.0312 60.5C22.2656 60.5 23.7773 59.0469 29.1797 53.6445L36.0352 46.7891H36.9141H37.793L30.9375 53.6445C25.3711 59.2109 24.1406 60.5 24.375 60.5C24.6094 60.5 26.1211 59.0469 31.5234 53.6445L38.3789 46.7891H39.2578H40.1367L33.2812 53.6445C27.7148 59.2109 26.4844 60.5 26.7188 60.5C26.9531 60.5 28.4648 59.0469 33.8672 53.6445L40.7227 46.7891H41.6016H42.4805L35.625 53.6445C30.0586 59.2109 28.8281 60.5 29.0625 60.5C29.2969 60.5 30.8086 59.0469 36.2109 53.6445L43.0664 46.7891H43.9453H44.8242L37.9688 53.6445C32.4023 59.2109 31.1719 60.5 31.4062 60.5C31.6406 60.5 33.1523 59.0469 38.5547 53.6445L45.4102 46.7891H46.2891H47.168L40.3125 53.6445C34.7461 59.2109 33.5156 60.5 33.75 60.5C33.9844 60.5 35.4961 59.0469 40.8984 53.6445L47.7539 46.7891H48.4219C48.9961 46.7891 49.1016 46.8242 49.1016 46.9883C49.1016 47.1055 46.1602 50.1406 42.457 53.8438C37.0664 59.2344 35.8594 60.5 36.0938 60.5C36.3281 60.5 37.7461 59.1406 42.7383 54.1484L49.1016 47.7852V48.6641V49.543L43.6289 55.0156C39.1758 59.4688 38.2031 60.5 38.4375 60.5C38.6719 60.5 39.8555 59.375 43.9102 55.3203L49.1016 50.1289V51.0078V51.8867L44.8008 56.1875C41.2852 59.7031 40.5469 60.5 40.7812 60.5C41.0039 60.5 41.9648 59.6094 45.082 56.4922L49.1016 52.4727V53.0352C49.1016 53.5625 49.1133 53.5859 49.418 53.5859C49.6992 53.5859 49.3008 54.0312 46.2891 57.043C43.4414 59.8906 42.8906 60.5 43.125 60.5C43.3594 60.5 44.1914 59.7266 46.875 57.043L50.332 53.5859H50.9414H51.5625V52.9648V52.3555L55.7812 48.1367C59.0742 44.8438 60 43.8594 60 43.625C60 43.3906 59.2383 44.0938 55.7812 47.5508L51.5625 51.7695V50.8906V50.0117L55.7812 45.793C59.0742 42.5 60 41.5156 60 41.2812C60 41.0469 59.2383 41.75 55.7812 45.207L51.5625 49.4258V48.5469V47.668L55.7812 43.4492C59.0742 40.1562 60 39.1719 60 38.9375C60 38.7031 59.2383 39.4062 55.7812 42.8633L51.5625 47.082V46.2031V45.3242L55.7812 41.1055C59.0742 37.8125 60 36.8281 60 36.5938C60 36.3594 59.2383 37.0625 55.7812 40.5195L51.5625 44.7383V43.8594V42.9805L55.7812 38.7617C59.0742 35.4688 60 34.4844 60 34.25C60 34.0156 59.2383 34.7188 55.7812 38.1758L51.5625 42.3945V41.5156V40.6367L55.7812 36.418C59.0742 33.125 60 32.1406 60 31.9062C60 31.6719 59.2383 32.375 55.7812 35.832L51.5625 40.0508V39.1719V38.293L55.7812 34.0742C59.0742 30.7812 60 29.7969 60 29.5625C60 29.3281 59.2383 30.0312 55.7812 33.4883L51.5625 37.707V36.8281V35.9492L55.7812 31.7305C59.0742 28.4375 60 27.4531 60 27.2188C60 26.9844 59.2383 27.6875 55.7812 31.1445L51.5625 35.3633V34.4844V33.6055L55.7812 29.3867C59.0742 26.0938 60 25.1094 60 24.875C60 24.6406 59.2383 25.3438 55.7812 28.8008L51.5625 33.0195V32.1406V31.2617L55.7812 27.043C59.0742 23.75 60 22.7656 60 22.5312C60 22.2969 59.2383 23 55.7812 26.457L51.5625 30.6758V29.7969V28.918L55.7812 24.6992C59.0742 21.4062 60 20.4219 60 20.1875C60 19.9531 59.2383 20.6562 55.7812 24.1133L51.5625 28.332V27.4531V26.5742L55.7812 22.3555C59.0742 19.0625 60 18.0781 60 17.8438C60 17.6094 59.2383 18.3125 55.7812 21.7695L51.5625 25.9883V25.1094V24.2305L55.7812 20.0117C59.0742 16.7188 60 15.7344 60 15.5C60 15.2656 59.2383 15.9688 55.7812 19.4258L51.5625 23.6445V22.7656V21.8867L55.7812 17.668C59.0742 14.375 60 13.3906 60 13.1562C60 12.9219 59.2383 13.625 55.7812 17.082L51.5625 21.3008V20.4219V19.543L55.7812 15.3242C59.0742 12.0312 60 11.0469 60 10.8125C60 10.5781 59.2383 11.2812 55.7812 14.7383L51.5625 18.957V18.0781V17.1992L55.7812 12.9805C59.0742 9.6875 60 8.70312 60 8.46875C60 8.23438 59.2383 8.9375 55.7812 12.3945L51.5625 16.6133V15.7344V14.8555L55.7812 10.6367C59.0742 7.34375 60 6.35938 60 6.125C60 5.89062 59.2383 6.59375 55.7812 10.0508L51.5625 14.2695V13.3906V12.5117L55.7812 8.29297C59.0742 5 60 4.01562 60 3.78125C60 3.54688 59.2383 4.25 55.7812 7.70703L51.5625 11.9258V11.0469V10.168L55.7812 5.94922C59.0742 2.65625 60 1.67188 60 1.4375C60 1.20312 59.2383 1.90625 55.7812 5.36328L51.5625 9.58203V8.70312V7.82422L55.2188 4.16797C58.2305 1.15625 58.8281 0.5 58.5938 0.5C58.3594 0.5 57.5273 1.27344 54.8438 3.95703L51.3867 7.41406H50.5078H49.6289L53.0859 3.95703C55.9219 1.10938 56.4844 0.5 56.25 0.5C56.0156 0.5 54.7852 1.67188 50.5078 5.94922L45.0586 11.3984H44.1797H43.3008L48.75 5.94922C53.1914 1.50781 54.1406 0.5 53.9062 0.5C53.6719 0.5 52.4414 1.67188 48.1641 5.94922L42.7148 11.3984H41.8359H40.957L46.4062 5.94922C50.8477 1.50781 51.7969 0.5 51.5625 0.5C51.3281 0.5 50.0977 1.67188 45.8203 5.94922L40.3711 11.3984H39.4922H38.6133L44.0625 5.94922C48.5039 1.50781 49.4531 0.5 49.2188 0.5C48.9844 0.5 47.7539 1.67188 43.4766 5.94922L38.0273 11.3984H37.1484H36.2695L41.7188 5.94922C46.1602 1.50781 47.1094 0.5 46.875 0.5C46.6406 0.5 45.4102 1.67188 41.1328 5.94922L35.6836 11.3984H34.8047H33.9258L39.375 5.94922C43.8164 1.50781 44.7656 0.5 44.5312 0.5C44.2969 0.5 43.0664 1.67188 38.7891 5.94922L33.3398 11.3984H32.4609H31.582L37.0312 5.94922C41.4727 1.50781 42.4219 0.5 42.1875 0.5C41.9531 0.5 40.7227 1.67188 36.4453 5.94922L30.9961 11.3984H30.1172H29.2383L34.6875 5.94922C39.1289 1.50781 40.0781 0.5 39.8438 0.5C39.6094 0.5 38.3789 1.67188 34.1016 5.94922L28.6523 11.3984H27.7734H26.8945L32.3438 5.94922C36.7852 1.50781 37.7344 0.5 37.5 0.5C37.2656 0.5 36.0352 1.67188 31.7578 5.94922L26.3086 11.3984H25.4297H24.5508L30 5.94922C34.4414 1.50781 35.3906 0.5 35.1562 0.5C34.9219 0.5 33.6914 1.67188 29.4141 5.94922L23.9648 11.3984H23.0859H22.207L27.6562 5.94922C32.0977 1.50781 33.0469 0.5 32.8125 0.5C32.5781 0.5 31.3477 1.67188 27.0703 5.94922L21.6211 11.3984H20.7422H19.8633L25.3125 5.94922C29.7539 1.50781 30.7031 0.5 30.4688 0.5C30.2344 0.5 29.0039 1.67188 24.7266 5.94922L19.2773 11.3984H18.3984H17.5195L22.9688 5.94922C27.4102 1.50781 28.3594 0.5 28.125 0.5C27.8906 0.5 26.6602 1.67188 22.3828 5.94922L16.9336 11.3984H16.0547H15.1758L20.625 5.94922C25.0664 1.50781 26.0156 0.5 25.7812 0.5C25.5469 0.5 24.3164 1.67188 20.0391 5.94922L14.5898 11.3984H13.7109H12.832L18.2812 5.94922C22.7227 1.50781 23.6719 0.5 23.4375 0.5C23.2031 0.5 21.9727 1.67188 17.6953 5.94922L12.2461 11.3984H11.5781C11.0039 11.3984 10.8984 11.3633 10.8984 11.1992C10.8984 11.082 13.2305 8.65625 16.1367 5.75C20.4023 1.48438 21.3281 0.5 21.0938 0.5C20.8711 0.5 19.7227 1.57812 15.8555 5.44531L10.8984 10.4023V9.52344V8.64453L14.9648 4.57812C18.293 1.25 18.9844 0.5 18.75 0.5C18.5273 0.5 17.6133 1.34375 14.6836 4.27344C11.4023 7.55469 10.8984 8.01172 10.8984 7.73047C10.8984 7.42578 10.875 7.41406 10.3477 7.41406H9.78516L13.2422 3.95703C16.0898 1.10938 16.6406 0.5 16.4062 0.5C16.1719 0.5 15.3398 1.27344 12.6562 3.95703ZM48.2578 10.543L47.4141 11.3984H46.5234H45.6445L47.3438 9.69922L49.043 8L49.0781 8.84375L49.1133 9.6875L48.2578 10.543ZM14.2969 14.0352C13.8164 14.5273 13.7344 14.5625 13.1836 14.5625C12.8555 14.5625 12.5273 14.6211 12.4453 14.7031C12.3633 14.7852 12.3047 15.1133 12.3047 15.4414C12.3047 16.0156 12.2812 16.0625 11.6016 16.7305L10.8984 17.4219V16.5547V15.6758L11.9766 14.5977L13.0664 13.5078H13.9336H14.8125L14.2969 14.0352ZM20.7422 14.6211L19.6289 15.7461L19.5586 15.2422C19.5234 14.9727 19.4062 14.6914 19.3008 14.6328C19.1367 14.5273 19.1719 14.4453 19.5938 14.0117L20.0859 13.5078H20.9648H21.8555L20.7422 14.6211ZM29.5312 15.207L27.832 16.9062L27.7969 16.0625L27.7617 15.2188L28.6172 14.3633L29.4609 13.5078H30.3516H31.2305L29.5312 15.207ZM30.7031 16.3789L27.832 19.25L27.7969 18.4062L27.7617 17.5625L29.7891 15.5352L31.8164 13.5078H32.6953H33.5742L30.7031 16.3789ZM31.4648 17.9609L27.0117 22.4141H26.1445H25.2773L25.5469 22.1211C25.793 21.8633 25.9219 21.8281 26.6602 21.8281C27.1523 21.8281 27.5508 21.7695 27.6328 21.6875C27.7148 21.6055 27.7734 21.207 27.7734 20.7266V19.8945L30.9609 16.707L34.1602 13.5078H35.0391H35.918L31.4648 17.9609ZM33.8086 17.9609L29.3555 22.4141H28.4766H27.5977L32.0508 17.9609L36.5039 13.5078H37.3828H38.2617L33.8086 17.9609ZM36.1523 17.9609L31.6992 22.4141H30.8203H29.9414L34.3945 17.9609L38.8477 13.5078H39.7266H40.6055L36.1523 17.9609ZM38.4961 17.9609L34.043 22.4141H33.1641H32.2852L36.7383 17.9609L41.1914 13.5078H42.0703H42.9492L38.4961 17.9609ZM40.8398 17.9609L36.3867 22.4141H35.5078H34.6289L39.082 17.9609L43.5352 13.5078H44.4141H45.293L40.8398 17.9609ZM43.1836 17.9609L38.7305 22.4141H37.8516H36.9727L41.4258 17.9609L45.8789 13.5078H46.7578H47.6367L43.1836 17.9609ZM49.1016 13.9414C49.1016 14.3633 48.9375 14.5508 45.0938 18.3945L41.0742 22.4141H40.1953H39.3164L43.7695 17.9609C48.0469 13.6836 48.2344 13.5078 48.6562 13.5078C49.0898 13.5078 49.1016 13.5195 49.1016 13.9414ZM46.2656 19.5664L43.418 22.4141H42.5391H41.6602L45.3516 18.7227L49.043 15.0312L49.0781 15.875L49.1133 16.7188L46.2656 19.5664ZM11.6016 19.0625L10.8984 19.7773V18.8984V18.0312L11.5781 17.3398L12.2461 16.6602L12.2812 17.5156L12.3164 18.3594L11.6016 19.0625ZM47.4375 20.7383L45.7617 22.4141H44.8828H44.0039L46.5234 19.8945L49.043 17.375L49.0781 18.2188L49.1133 19.0625L47.4375 20.7383ZM11.6016 21.4062L10.8984 22.1211V21.2422V20.375L11.5781 19.6836L12.2461 19.0039L12.2812 19.8594L12.3164 20.7031L11.6016 21.4062ZM48.6094 21.9102L48.1172 22.4141H47.2383H46.3477L47.6953 21.0664L49.043 19.7188L49.0781 20.5508L49.1133 21.3945L48.6094 21.9102ZM20.2852 22.0859C20.0156 22.3906 19.9219 22.4141 19.1133 22.4141H18.2461L18.5039 22.1328C18.6562 21.9688 18.9141 21.8281 19.0898 21.8047C19.3125 21.7812 19.4297 21.6758 19.5117 21.3945C19.582 21.1836 19.8281 20.8203 20.0391 20.5859L20.4492 20.1758L20.5078 20.9727C20.5664 21.6992 20.543 21.8047 20.2852 22.0859ZM12.0117 25.6953L10.957 26.7617L10.9219 25.918C10.875 24.7695 10.9922 24.6406 12.1758 24.6406H13.0664L12.0117 25.6953ZM13.1836 26.8672L10.957 29.0938L10.9219 28.25L10.8867 27.4062L12.2695 26.0234L13.6523 24.6406H14.5312H15.4102L13.1836 26.8672ZM14.3555 28.0391L10.957 31.4375L10.9219 30.5938L10.8867 29.75L13.4414 27.1953L15.9961 24.6406H16.875H17.7539L14.3555 28.0391ZM15.5859 29.1523C13.1016 31.6367 11.0391 33.6641 10.9922 33.6641C10.9336 33.6641 10.8984 33.3125 10.8984 32.8789V32.082L14.6133 28.3672L18.3398 24.6406H19.2188H20.0977L15.5859 29.1523ZM17.9297 29.1523L13.418 33.6641H12.5391H11.6602L16.1719 29.1523L20.6836 24.6406H21.5625H22.4414L17.9297 29.1523ZM20.2734 29.1523L15.7617 33.6641H14.8828H14.0039L18.5156 29.1523L23.0273 24.6406H23.9062H24.7852L20.2734 29.1523ZM22.6172 29.1523L18.1055 33.6641H17.2266H16.3477L20.8594 29.1523L25.3711 24.6406H26.25H27.1289L22.6172 29.1523ZM24.9609 29.1523L20.4492 33.6641H19.5703H18.6914L23.2031 29.1523L27.7148 24.6406H28.5938H29.4727L24.9609 29.1523ZM27.3047 29.1523L22.793 33.6641H21.9141H21.0352L25.5469 29.1523L30.0586 24.6406H30.9375H31.8164L27.3047 29.1523ZM33.6328 25.168C33.3516 25.4609 33.0234 25.6953 32.9062 25.6953C32.7773 25.6953 32.6367 25.8242 32.5664 26.0117C32.5078 26.1992 30.8086 27.9922 28.793 29.9961L25.1367 33.6641H24.2578H23.3789L27.8906 29.1523L32.4023 24.6406H33.2812H34.1484L33.6328 25.168ZM43.0078 25.168C42.5156 25.6719 42.4805 25.6836 41.6719 25.7188L40.8398 25.7539L40.8047 26.5859C40.7695 27.3828 40.7461 27.4297 40.3125 27.8633L39.8438 28.3203V27.4531V26.5742L40.8047 25.6133L41.7773 24.6406H42.6445H43.5234L43.0078 25.168ZM29.9766 31.168L27.4805 33.6641H26.6016H25.7227L29.0625 30.3242L32.4023 26.9844L32.4375 27.8281L32.4727 28.6719L29.9766 31.168ZM31.1484 32.3398L29.8242 33.6641H28.9453H28.0664L30.2344 31.4961L32.4023 29.3281L32.4375 30.1719L32.4727 31.0156L31.1484 32.3398ZM39.9961 32.8672L39.2109 33.6641H38.332H37.4531L37.793 33.3125C38.0859 32.9961 38.2031 32.9609 38.8008 32.9609C39.6797 32.9609 39.8438 32.7969 39.8438 31.9297C39.8438 31.332 39.8789 31.2383 40.2891 30.8164L40.7227 30.3711L40.7578 31.2148L40.793 32.0703L39.9961 32.8672ZM48.8555 33.3828C48.6211 33.6289 48.4922 33.6641 47.707 33.6641L46.8164 33.6523L47.2852 33.2422C47.8477 32.75 47.7773 32.8203 48.4805 32.0352L49.043 31.4023L49.0781 32.2578C49.1133 33.0078 49.0781 33.1484 48.8555 33.3828ZM32.7188 32.8555C32.8242 32.9258 32.7773 33.043 32.5195 33.3125C32.2031 33.6406 32.1328 33.6641 31.3008 33.6641H30.4102L31.4062 32.668L32.4023 31.6602L32.4844 32.2109C32.5312 32.5156 32.6367 32.8086 32.7188 32.8555ZM12.3047 37.1211L10.957 38.4688L10.9219 37.6367L10.8867 36.793L11.3906 36.2773L11.8828 35.7734H12.7617H13.6523L12.3047 37.1211ZM13.4766 38.293L10.957 40.8125L10.9219 39.9688L10.8867 39.125L12.5625 37.4492L14.2383 35.7734H15.1172H15.9961L13.4766 38.293ZM17.8711 36.2422C17.4727 36.6523 17.3438 36.7109 16.875 36.7109C16.1953 36.7109 16.0547 36.8516 16.0547 37.5312V38.0586L13.4766 40.6367L10.8984 43.2148V42.3359V41.457L13.7344 38.6211L16.582 35.7734H17.4492H18.3281L17.8711 36.2422ZM24.375 36.7695L23.3789 37.7773L23.3203 37.2734C23.2734 36.8516 23.2148 36.7578 22.9805 36.7344C22.7109 36.6875 22.7227 36.6758 23.1562 36.2305C23.6016 35.7734 23.6133 35.7734 24.4805 35.7734H25.3711L24.375 36.7695ZM34.2773 36.2422C33.8672 36.6641 33.7617 36.7109 33.2578 36.7109C32.6133 36.7109 32.4609 36.8867 32.4609 37.6133C32.4609 37.9883 32.3789 38.1523 31.9922 38.5273L31.5234 38.9844V38.1172V37.25L32.25 36.5117L32.9766 35.7734H33.8555H34.7344L34.2773 36.2422ZM40.8398 36.7109L39.9023 37.6602L39.832 37.3203C39.7383 36.8398 39.6328 36.7109 39.3398 36.7109C39.1172 36.7109 39.1406 36.6523 39.5508 36.2422C40.0078 35.7734 40.0195 35.7734 40.8867 35.7734H41.7773L40.8398 36.7109ZM13.9219 42.5352C11.9062 44.5508 11.7539 44.6797 11.3438 44.6797C10.9102 44.6797 10.8984 44.668 10.8984 44.2461C10.8984 43.8242 11.0391 43.6602 13.4531 41.2461L15.9961 38.7031L16.0312 39.5469L16.0664 40.3906L13.9219 42.5352ZM15.0938 43.707L14.1211 44.6797H13.2422H12.3633L14.1797 42.8633L15.9961 41.0469L16.0312 41.8906L16.0664 42.7344L15.0938 43.707ZM40.3477 44.2344C39.9258 44.668 39.9023 44.6797 39.0352 44.6797H38.1562L38.4961 44.3281C38.707 44.1055 38.9531 43.9766 39.1523 43.9766C39.5156 43.9766 39.8438 43.6133 39.8438 43.2266C39.8438 43.0977 40.043 42.793 40.2891 42.5352L40.7227 42.0898L40.7578 42.9336C40.793 43.7656 40.793 43.7891 40.3477 44.2344ZM23.918 44.2344C23.5195 44.668 23.4961 44.6797 22.6289 44.6797H21.75L22.0898 44.3281C22.2773 44.1289 22.5234 43.9766 22.6523 43.9766C23.0391 43.9766 23.3203 43.7539 23.3203 43.4258C23.3203 43.2148 23.4727 42.9453 23.7656 42.6523L24.1992 42.207L24.2695 43.0039C24.3281 43.7891 24.3281 43.8008 23.918 44.2344ZM12.6562 48.4883L10.957 50.1875L10.9219 49.3438L10.8867 48.5L11.7422 47.6445L12.5859 46.7891H13.4766H14.3555L12.6562 48.4883ZM13.8281 49.6602L10.957 52.5312L10.9219 51.6875L10.8867 50.8438L12.9141 48.8164L14.9414 46.7891H15.8203H16.6992L13.8281 49.6602Z" fill="#00BA61"/>
<path d="M52.5583 53.1172C46.57 59.1055 45.2341 60.5 45.4684 60.5C45.902 60.5 60.0348 46.3555 59.9762 45.9805C59.9528 45.7812 58.5466 47.1289 52.5583 53.1172Z" fill="#00BA61"/>
<path d="M53.7304 54.2891C48.6797 59.3398 47.5781 60.5 47.8125 60.5C48.2461 60.5 60.0351 48.6992 59.9765 48.3242C59.9531 48.125 58.7695 49.2383 53.7304 54.2891Z" fill="#00BA61"/>
<path d="M54.9023 55.4609C50.7891 59.5742 49.9219 60.5 50.1562 60.5C50.5898 60.5 60.0352 51.043 59.9766 50.668C59.9531 50.4688 59.0039 51.3594 54.9023 55.4609Z" fill="#00BA61"/>
<path d="M56.0733 56.6328C52.8975 59.8086 52.2647 60.5 52.4991 60.5C52.9327 60.5 60.0343 53.3867 59.9757 53.0117C59.9522 52.8125 59.2374 53.4688 56.0733 56.6328Z" fill="#00BA61"/>
<path d="M57.2466 57.8047C55.0083 60.043 54.5981 60.5 54.8442 60.5C55.2778 60.5 60.0356 55.7305 59.977 55.3555C59.9536 55.1445 59.4614 55.5781 57.2466 57.8047Z" fill="#00BA61"/>
</g>
<defs>
<clipPath id="clip0_40_4443">
<rect width="60" height="60" fill="white" transform="translate(0 0.5)"/>
</clipPath>
</defs>
</svg>
