<svg width="60" height="61" viewBox="0 0 60 61" fill="none" xmlns="http://www.w3.org/2000/svg">
<g clip-path="url(#clip0_40_4434)">
<path d="M15.8444 4.06239C12.0944 6.07801 12.3288 12.0311 16.2194 13.8593C18.1413 14.7499 19.4069 14.7499 21.3756 13.8124C23.3913 12.828 23.3913 12.1718 21.3288 10.6249C20.4381 9.92176 19.4538 8.89051 19.1725 8.32801C18.7038 7.48426 18.8444 7.53114 20.2038 8.65614C23.1569 11.1874 27.5631 12.5468 28.4069 11.2343C28.735 10.6718 26.485 8.14051 25.2194 7.71864C24.7506 7.57801 24.0475 6.82801 23.6725 6.07801C22.36 3.54676 18.5631 2.56239 15.8444 4.06239Z" fill="#00BA61"/>
<path d="M7.96875 13.7191C4.6875 15.9691 0 25.2034 0 29.4691C0 31.6253 0.984375 32.7503 7.03125 37.6722L12.8438 42.4534L15.2344 49.7191C17.2969 56.1409 17.7188 57.0316 18.7969 57.4066C20.5781 58.0159 22.2656 57.4534 22.9219 56.0003C23.3906 54.9222 23.2031 53.8909 21.3281 47.8909C20.1563 44.1409 18.9375 40.4847 18.6563 39.7816C18.4219 39.0784 16.1719 36.8753 13.7344 34.9066C11.2969 32.9847 9.1875 31.0628 9.04688 30.6878C8.90625 30.3597 9.42188 28.7191 10.2188 27.0784L11.5781 24.1253L9.79688 21.1253C8.76563 19.4847 7.96875 17.9378 7.96875 17.7503C7.96875 17.1409 10.1719 15.0316 10.7813 15.0316C11.3906 15.0316 13.6406 17.1409 14.3438 18.3597C14.5781 18.7816 16.0313 19.9066 17.5313 20.8441L20.2969 22.6253L24.2344 21.5472C26.5313 20.9378 28.4063 20.1409 28.7344 19.6722C29.1563 19.1097 29.8594 18.8753 30.9375 18.9222C32.3906 19.0159 32.5781 18.8753 32.7188 17.7972C32.8125 17.0941 32.5313 16.3441 32.1094 15.9691C31.4531 15.4534 30.5625 15.5472 26.1563 16.7659L20.9531 18.2191L16.7344 15.4534C12.0469 12.3597 10.4531 12.0316 7.96875 13.7191Z" fill="#00BA61"/>
<path d="M9.23345 16.2976C8.34283 17.1413 9.23345 19.4382 12.0928 23.657L15.2335 28.3445L20.1553 29.657C26.3897 31.2976 27.046 31.2976 27.7491 29.7507C28.546 28.0163 27.421 27.2195 21.9835 25.8601L17.5303 24.7351L14.7647 20.3288C12.421 16.5788 11.8585 15.9695 10.7803 15.9695C10.0772 15.9695 9.37408 16.1101 9.23345 16.2976Z" fill="#00BA61"/>
<path d="M29.5312 19.9062C29.5312 20.3281 29.7656 20.6562 30 20.6562C30.2812 20.6562 30.4688 20.4688 30.4688 20.2344C30.4688 19.9531 30.2812 19.625 30 19.4844C29.7656 19.3438 29.5312 19.5312 29.5312 19.9062Z" fill="#00BA61"/>
<path d="M32.3438 24.1719V28.1562H46.1719H60V24.1719V20.1875H46.1719H32.3438V24.1719ZM58.5 24.2656L58.6406 26.75H53.25H47.8125V24.1719V21.5469L53.1094 21.6875L58.3594 21.8281L58.5 24.2656ZM41.625 24.0312C41.3438 24.875 40.3125 25.0156 40.3125 24.2188C40.3125 23.7969 40.6406 23.4688 41.0625 23.4688C41.4844 23.4688 41.7188 23.7031 41.625 24.0312ZM43.9688 24.0312C43.6875 24.875 42.6563 25.0156 42.6563 24.2188C42.6563 23.7969 42.9844 23.4688 43.4063 23.4688C43.8281 23.4688 44.0625 23.7031 43.9688 24.0312ZM46.4063 24.1719C46.4063 24.5469 46.0781 24.875 45.7031 24.875C45.3281 24.875 45 24.5469 45 24.1719C45 23.7969 45.3281 23.4688 45.7031 23.4688C46.0781 23.4688 46.4063 23.7969 46.4063 24.1719Z" fill="#00BA61"/>
<path d="M49.0781 23.2811C48.8906 23.4686 48.75 24.0311 48.75 24.4998C48.75 25.1561 49.0312 25.3904 49.8281 25.2498C50.4844 25.1561 50.8594 24.7811 50.8594 24.1717C50.8594 23.2342 49.6875 22.6717 49.0781 23.2811Z" fill="#00BA61"/>
<path d="M52.5 24.1719C52.5 25.25 52.6406 25.3438 54.8438 25.3438C57.0469 25.3438 57.1875 25.25 57.1875 24.1719C57.1875 23.0938 57.0469 23 54.8438 23C52.6406 23 52.5 23.0938 52.5 24.1719Z" fill="#00BA61"/>
<path d="M27.8904 23.7969C26.9997 25.7656 26.8591 26.5156 27.281 26.7969C27.656 27.0312 28.0779 26.4219 28.6404 24.9688C29.0622 23.75 29.5779 22.3906 29.7654 21.9219C29.9529 21.4531 29.906 21.125 29.5779 21.125C29.2966 21.125 28.4997 22.3438 27.8904 23.7969Z" fill="#00BA61"/>
<path d="M32.3438 42.4534C32.3438 54.4065 32.4375 55.9065 33.1406 56.7503C34.125 57.8753 37.0313 58.0628 37.0313 56.9846C37.0313 56.3753 38.3438 56.2815 46.1719 56.2815C54 56.2815 55.3125 56.3753 55.3125 56.9846C55.3125 58.0628 58.2188 57.8753 59.2031 56.7503C59.9063 55.9065 60 54.4065 60 42.4534V29.094H46.1719H32.3438V42.4534ZM49.6406 35.1878C54.5625 37.6721 55.8281 43.8596 52.2188 47.844C50.1094 50.1409 48.4219 50.844 45.2344 50.5628C41.3906 50.2346 38.8125 47.9846 37.9688 44.2815C37.125 40.6721 38.9063 36.9221 42.2813 35.2346C44.8125 34.0159 47.3438 33.969 49.6406 35.1878Z" fill="#00BA61"/>
<path d="M40.3594 41.1413C39.375 41.3288 39.2812 41.5631 39.5156 43.4381C40.0781 48.4069 45.9375 50.8444 50.0625 47.8913C51.4219 46.9538 53.3906 42.9694 52.8281 42.4069C52.6875 42.2663 52.1719 42.36 51.6562 42.6413C50.25 43.3913 48.7031 43.2506 46.7812 42.2194C44.9062 41.235 42.1875 40.7663 40.3594 41.1413Z" fill="#00BA61"/>
<path d="M24.1397 31.8597C23.8115 32.4222 25.499 33.4066 25.9678 32.9847C26.1084 32.8441 26.249 32.4222 26.249 32.0472C26.249 31.3441 24.5615 31.2034 24.1397 31.8597Z" fill="#00BA61"/>
<path d="M3.98407 36.5476C4.12469 36.782 4.40594 38.0476 4.68719 39.3132C5.29657 42.5945 4.54657 46.4851 2.57782 50.5632C1.54657 52.5788 0.937194 54.4538 1.03094 55.2038C1.21844 56.9382 3.23407 58.0632 4.96844 57.4538C7.26532 56.657 10.5466 49.7195 11.0622 44.6101L11.3434 41.9851L7.78094 39.032C4.40594 36.2663 3.37469 35.6101 3.98407 36.5476Z" fill="#00BA61"/>
</g>
<defs>
<clipPath id="clip0_40_4434">
<rect width="60" height="60" fill="white" transform="translate(0 0.5)"/>
</clipPath>
</defs>
</svg>
