<svg width="46" height="47" viewBox="0 0 46 47" fill="none" xmlns="http://www.w3.org/2000/svg">
<g clip-path="url(#clip0_43_7659)">
<path d="M9.73904 0.967049C6.64841 2.5483 6.75623 6.93267 9.88279 8.26236C11.8234 9.05299 13.5484 8.47799 14.8422 6.60924C16.9984 3.48267 13.1531 -0.793889 9.73904 0.967049Z" fill="#00BA61"/>
<path d="M41.6875 5.17188V9.84375H39.5672C38.1297 9.84375 37.3031 9.66406 37.0156 9.30469C36.1891 8.29844 35.5781 8.65781 35.5781 10.2031C35.5781 11.2094 35.7219 11.6406 36.0813 11.6406C36.3688 11.6406 36.7281 11.4609 36.8359 11.2812C36.9438 11.0656 38.0938 10.9219 39.3875 10.9219H41.6875V28.7109V46.5H43.125H44.5625V23.5V0.5H43.125H41.6875V5.17188Z" fill="#00BA61"/>
<path d="M24.6882 8.69386C23.3586 10.1673 24.3648 12.3235 25.9101 11.3532C26.9882 10.6704 27.8867 10.8501 28.5336 11.8204C29.1086 12.6829 29.2882 12.7548 31.732 12.647L34.3195 12.5392L34.4273 10.2751L34.5351 8.04698H29.8992C25.8742 8.04698 25.1914 8.11886 24.6882 8.69386ZM28.3898 10.2032C28.3898 10.3829 27.8148 10.5626 27.0961 10.5626C26.3414 10.5626 25.9101 10.4189 26.0539 10.2032C26.1617 9.98761 26.7367 9.84386 27.3476 9.84386C27.9226 9.84386 28.3898 9.98761 28.3898 10.2032Z" fill="#00BA61"/>
<path d="M7.61836 10.0958C6.36055 10.5989 6.10898 12.2161 6.10898 19.2239V26.1598L3.73711 35.288L1.36523 44.4161L2.04805 45.3864C2.44336 45.8895 3.16211 46.3567 3.66523 46.4286C5.49805 46.6442 5.9293 45.7098 8.08555 37.3364C9.19961 32.988 10.2777 28.8192 10.4574 28.0645C11.0324 25.8723 11.7871 26.4833 13.3684 30.5083C14.5902 33.563 14.9137 34.9286 15.4887 39.6723C16.0637 44.5598 16.2434 45.3145 16.9262 45.8895C17.9684 46.752 19.3699 46.5364 20.1605 45.4223C20.8074 44.5598 20.8074 44.3442 20.1246 38.7739C19.5496 33.8864 19.2262 32.4848 17.9684 29.3223C16.6746 26.0161 16.5309 25.2614 16.5309 22.5661C16.5309 19.6552 16.5668 19.5473 17.2137 19.9067C18.3277 20.4817 18.9387 20.338 20.1965 19.188L21.3824 18.1458L20.1246 18.1098C19.4059 18.1098 18.2559 17.7145 17.4293 17.2114L15.9918 16.277L17.2496 16.5645C18.9027 16.9598 26.8809 16.7442 27.7074 16.277C28.8934 15.6661 29.2168 14.588 28.5699 13.5458L27.959 12.6114L23.8262 12.863C19.8012 13.0786 16.5309 12.6833 16.5309 11.9286C16.5309 11.7489 16.1355 11.2098 15.6324 10.7427C14.8418 9.9161 14.5184 9.84422 11.4277 9.88016C9.59492 9.88016 7.86992 9.98797 7.61836 10.0958Z" fill="#00BA61"/>
<path d="M25.4068 17.6422C24.149 17.7859 24.0412 17.8938 24.149 18.7563C24.2568 19.7266 24.2927 19.7266 26.9521 19.7266H29.6474L29.7552 18.5406C29.8631 17.3906 29.8631 17.3906 28.3177 17.4625C27.4552 17.4984 26.1615 17.5703 25.4068 17.6422Z" fill="#00BA61"/>
</g>
<defs>
<clipPath id="clip0_43_7659">
<rect width="46" height="46" fill="white" transform="translate(0 0.5)"/>
</clipPath>
</defs>
</svg>
