<svg width="60" height="61" viewBox="0 0 60 61" fill="none" xmlns="http://www.w3.org/2000/svg">
<path d="M52 32.4996C52 45.7396 43.24 56.4996 30 56.4996C16.76 56.4996 8 45.7396 8 32.4996C12.4191 32.5368 16.7175 33.9464 20.3005 36.5333C23.8835 39.1203 26.574 42.7567 28 46.9396V28.4996H18C16.4087 28.4996 14.8826 27.8675 13.7574 26.7422C12.6321 25.617 12 24.0909 12 22.4996V10.4996C12 10.0798 12.1321 9.6707 12.3775 9.33017C12.623 8.98964 12.9693 8.73497 13.3675 8.60223C13.7658 8.46948 14.1957 8.46541 14.5963 8.59057C14.997 8.71573 15.3481 8.96378 15.6 9.29959L21.72 17.2996L28.32 5.29959C28.5013 5.0189 28.7501 4.78811 29.0435 4.6283C29.337 4.46849 29.6658 4.38477 30 4.38477C30.3342 4.38477 30.663 4.46849 30.9565 4.6283C31.2499 4.78811 31.4987 5.0189 31.68 5.29959L38.28 17.2996L44.4 9.29959C44.6519 8.96378 45.003 8.71573 45.4037 8.59057C45.8043 8.46541 46.2342 8.46948 46.6325 8.60223C47.0307 8.73497 47.377 8.98964 47.6225 9.33017C47.8679 9.6707 48 10.0798 48 10.4996V22.4996C48 24.0909 47.3679 25.617 46.2426 26.7422C45.1174 27.8675 43.5913 28.4996 42 28.4996H32V46.9396C33.426 42.7567 36.1165 39.1203 39.6995 36.5333C43.2825 33.9464 47.5809 32.5368 52 32.4996Z" fill="#00BA61"/>
</svg>
