<svg width="60" height="81" viewBox="0 0 60 81" fill="none" xmlns="http://www.w3.org/2000/svg">
<g clip-path="url(#clip0_40_4422)">
<path d="M6.19135 0.110741C5.44532 0.268944 3.74691 1.12324 2.90564 1.75605C2.01675 2.45215 0.889762 4.00254 0.397699 5.2207C0.207223 5.69531 0.0961115 6.50215 0.0484924 7.67285C-0.0149997 9.12832 0.0326194 9.58711 0.302461 10.4414C0.588175 11.3748 0.604048 11.5014 0.381826 11.8336C0.254842 12.0393 0.159604 12.3398 0.19135 12.5297L0.238969 12.8461L0.635794 12.5297L1.01675 12.2133L1.44532 12.7828L1.87389 13.3523L1.01675 14.2857C0.461191 14.8711 0.159604 15.3457 0.159604 15.5988C0.159604 15.8045 0.207223 15.9785 0.254842 15.9785C0.302461 15.9785 0.82627 15.5197 1.3977 14.966L2.46119 13.9535L3.00087 14.4123L3.55643 14.8711L1.85802 16.5955C0.588175 17.8928 0.159604 18.4307 0.159604 18.7312C0.159604 18.9527 0.207223 19.1426 0.270715 19.1426C0.318334 19.1426 1.23897 18.2883 2.31833 17.2283L4.25484 15.3141L4.87389 15.5039C5.20722 15.6146 5.54056 15.7412 5.60405 15.7729C5.68341 15.8203 4.49294 17.1176 2.95325 18.668C0.746905 20.867 0.159604 21.5631 0.159604 21.8953C0.159604 22.1168 0.207223 22.3066 0.270715 22.3066C0.334207 22.3066 1.8104 20.8986 3.55643 19.1742L6.74691 16.0418L7.68341 16.1051L8.60405 16.1684L4.38183 20.3924C0.969128 23.8096 0.159604 24.7113 0.159604 25.0436C0.159604 25.2809 0.207223 25.4707 0.270715 25.4707C0.334207 25.4707 2.5723 23.3033 5.23897 20.6613C9.15961 16.7695 10.2072 15.8203 10.7152 15.6621C12.7945 15.0293 14.8739 12.9885 15.6358 10.8369C15.8898 10.1408 16.5406 9.41309 20.7469 5.2207C23.3818 2.56289 25.5564 0.332226 25.5564 0.268944C25.5564 0.205664 25.366 0.158201 25.1279 0.158201C24.7945 0.158201 23.8898 0.965038 20.4771 4.36641L16.239 8.55879L16.1437 7.64121L16.0485 6.72363L19.2072 3.54375C20.9533 1.80351 22.3818 0.332226 22.3818 0.268944C22.3818 0.205664 22.1914 0.158201 21.9691 0.158201C21.6358 0.158201 20.9374 0.759375 18.7152 2.9584C17.1596 4.49297 15.858 5.72695 15.8263 5.67949C15.7945 5.64785 15.6675 5.31562 15.5247 4.96758L15.2707 4.30312L17.0961 2.51543C19.2231 0.411327 19.3977 0.158201 18.8104 0.158201C18.4929 0.158201 17.9533 0.58535 16.6199 1.88262L14.8421 3.60703L14.4136 3.02168L13.985 2.42051L14.858 1.56621C16.0167 0.442968 16.1755 0.158201 15.6517 0.158201C15.3977 0.158201 14.9374 0.458788 14.3183 1.02832L13.3818 1.88262L12.8104 1.47129L12.239 1.05996L12.5564 0.648632L12.8898 0.237303L12.5723 0.189842C12.3818 0.158201 12.0644 0.253124 11.8421 0.395506C11.4771 0.632811 11.3977 0.632811 10.6834 0.379686C9.92151 0.110741 7.04849 -0.063282 6.19135 0.110741Z" fill="#00BA61"/>
<path d="M14.3189 13.6369C6.87444 21.0566 0.636347 27.3215 0.461744 27.5746C0.28714 27.8119 0.160156 28.16 0.191902 28.3656C0.239521 28.6504 0.96968 28.0018 4.81095 24.2049L9.36651 19.7119L9.27127 20.8035L9.17603 21.9109L4.66809 26.4356C1.0173 30.09 0.160156 31.0393 0.160156 31.3715C0.160156 31.6088 0.207775 31.7986 0.271267 31.7986C0.334759 31.7986 2.36651 29.8369 4.7792 27.4322C8.25539 23.9676 9.1919 23.1133 9.25539 23.3506C9.65222 24.7586 10.0173 24.2523 4.85857 29.4098C1.0173 33.2699 0.160156 34.1875 0.160156 34.5514C0.160156 34.8994 0.207775 34.9469 0.445871 34.8203C0.588728 34.7412 2.7792 32.6055 5.31889 30.0742L9.90619 25.4705L10.2078 26.2141L10.4935 26.9418L5.31889 32.115C1.11254 36.3232 0.160156 37.3516 0.160156 37.6996C0.160156 37.9369 0.207775 38.1268 0.271267 38.1268C0.334759 38.1268 2.73159 35.8012 5.58873 32.9535L10.7792 27.7803L11.0332 28.3656C11.1602 28.682 11.2713 29.0301 11.2713 29.1408C11.2713 29.2516 8.7792 31.8303 5.71571 34.8836C1.12841 39.4715 0.160156 40.5156 0.160156 40.8637C0.160156 41.2275 0.207775 41.275 0.445871 41.1484C0.588728 41.0693 3.17603 38.5381 6.1919 35.5322L11.6522 30.0742L11.9379 30.8178L12.2236 31.5613L6.1919 37.5731C1.23952 42.5248 0.160156 43.6797 0.160156 44.0277C0.160156 44.265 0.207775 44.4549 0.271267 44.4549C0.334759 44.4549 3.11254 41.7496 6.44587 38.4273L12.4935 32.3998L12.7633 33.1592L13.0173 33.9186L6.58873 40.3416C1.30301 45.6256 0.160156 46.8438 0.160156 47.1918C0.160156 47.4291 0.207775 47.6189 0.271267 47.6189C0.334759 47.6189 3.28714 44.7238 6.82682 41.1959L13.2713 34.7887L13.4617 35.4057C13.5729 35.7537 13.6522 36.1176 13.6522 36.2441C13.6522 36.3549 10.6205 39.4873 6.90619 43.1893C1.35063 48.7422 0.160156 50.0078 0.160156 50.3559C0.160156 50.5932 0.207775 50.783 0.271267 50.783C0.334759 50.783 3.44587 47.7455 7.16016 44.0436L13.9379 37.2883L14.1125 37.9053C14.2078 38.2375 14.2871 38.633 14.2871 38.7596C14.2871 38.8861 11.1125 42.1609 7.22365 46.0369C1.39825 51.8588 0.160156 53.1719 0.160156 53.5199C0.160156 53.7572 0.207775 53.9471 0.271267 53.9471C0.334759 53.9471 3.57285 50.7672 7.47762 46.8912L14.557 39.8354L14.6681 40.7529L14.7792 41.6705L7.46174 48.9637C1.43 54.9754 0.160156 56.3359 0.160156 56.684C0.160156 56.9213 0.207775 57.1111 0.271267 57.1111C0.334759 57.1111 3.65222 53.868 7.63635 49.8971L14.8744 42.683L14.9697 43.6006L15.049 44.534L7.6046 51.9695C1.46174 58.1236 0.160156 59.5 0.160156 59.848C0.160156 60.0854 0.207775 60.2752 0.271267 60.2752C0.334759 60.2752 3.73159 56.9529 7.81095 52.8871L15.2236 45.499L15.3983 45.9736C15.4776 46.2268 15.6205 46.5432 15.6998 46.6697C15.811 46.8596 14.0967 48.6631 8.00143 54.7381C1.52524 61.2244 0.160156 62.6641 0.160156 63.0121C0.160156 63.2494 0.207775 63.4393 0.271267 63.4393C0.334759 63.4393 3.96968 59.8797 8.35063 55.5133L16.303 47.5873L16.7951 47.8404C17.0649 47.9828 17.4141 48.0936 17.5729 48.0936C17.7316 48.0936 14.2871 51.6531 9.00143 56.9213C1.62047 64.2936 0.160156 65.8123 0.160156 66.1762C0.160156 66.54 0.207775 66.5875 0.445871 66.4609C0.588728 66.3818 4.82682 62.2053 9.8427 57.2061C14.8586 52.191 19.0967 48.0936 19.2395 48.0936C19.4459 48.0936 19.5252 48.2518 19.557 48.758L19.6046 49.4383L9.89032 59.1678C1.81095 67.252 0.160156 68.9764 0.160156 69.3402C0.160156 69.5775 0.207775 69.7674 0.271267 69.7674C0.334759 69.7674 4.76333 65.4168 10.0967 60.1012L19.7951 50.435L19.8903 51.3684L19.9856 52.2859L10.0808 62.1736C1.82682 70.4002 0.160156 72.1404 0.160156 72.5043C0.160156 72.7416 0.207775 72.9314 0.271267 72.9314C0.334759 72.9314 4.82682 68.5176 10.2554 63.107L20.1125 53.2826L20.2395 54.1844L20.3506 55.102L10.2554 65.1637C1.85857 73.5484 0.160156 75.3045 0.160156 75.6684C0.160156 75.9057 0.207775 76.0955 0.271267 76.0955C0.334759 76.0955 4.90619 71.6025 10.4141 66.1129C21.2236 55.3393 20.6205 55.8455 20.6363 57.4275C20.6363 57.9496 20.0332 58.5666 10.3983 68.1854C1.87444 76.6809 0.160156 78.4686 0.160156 78.8324C0.160156 79.0697 0.207775 79.2596 0.271267 79.2596C0.334759 79.2596 2.89032 76.7916 5.93793 73.7699C9.00143 70.7324 10.3189 69.4826 8.85857 70.9697C6.6046 73.2795 6.1919 73.8016 5.89032 74.5768C5.71571 75.0672 5.55698 75.6367 5.55698 75.8266C5.55698 76.0639 4.89032 76.8391 3.39825 78.3104C0.922061 80.7625 0.747458 80.9998 1.36651 80.9998C1.68397 80.9998 2.23952 80.541 3.74746 79.0697C4.96968 77.8832 5.71571 77.2504 5.71571 77.4244C5.71571 77.5668 5.82682 77.9148 5.96968 78.168L6.20778 78.6584L5.17603 79.7342C4.6046 80.3195 4.12841 80.8574 4.12841 80.9049C4.12841 80.9523 4.30301 80.9998 4.50936 80.9998C4.74746 80.9998 5.22365 80.6992 5.7792 80.193L6.65222 79.402L7.20778 79.8133C7.74746 80.2246 7.76333 80.2563 7.50936 80.6201C7.27127 80.984 7.28714 80.9998 7.63635 80.9998C7.8427 80.9998 8.16016 80.8891 8.31889 80.7625C8.47762 80.6359 8.66809 80.5727 8.73159 80.6043C8.79508 80.6359 9.35063 80.7467 9.95381 80.8416L11.0649 81.0156L12.0808 80.3828C12.8427 79.9082 14.811 77.9781 19.9538 72.6625C23.7316 68.7707 28.1284 64.2619 29.7475 62.6482C32.303 60.117 32.7316 59.7531 32.9221 59.9588C33.0332 60.0854 33.176 60.4176 33.2237 60.6865C33.3189 61.1453 32.9221 61.5566 23.6363 70.8115C18.303 76.1113 13.8744 80.5727 13.7951 80.715C13.6681 80.9523 13.7157 80.9998 14.0808 80.9998C14.4459 80.9998 16.0649 79.4652 23.9856 71.5709C29.1919 66.3818 33.4935 62.2053 33.5411 62.2686C33.5729 62.3477 33.6681 62.7273 33.7316 63.107L33.8427 63.8031L25.3348 72.2828C20.6522 76.9498 16.8268 80.8258 16.8268 80.8891C16.8268 80.9523 17.0173 80.9998 17.2554 80.9998C17.6205 80.9998 19.0967 79.5918 25.8903 72.8365L34.0808 64.6732L34.2554 65.5275L34.43 66.366L27.2078 73.5643C23.2395 77.5352 20.0014 80.8258 20.0014 80.8891C20.0014 80.9523 20.1919 80.9998 20.43 80.9998C20.7792 80.9998 22.0649 79.7975 27.7157 74.1813C31.4776 70.4318 34.6046 67.426 34.6522 67.4893C34.684 67.5684 34.7792 67.948 34.8427 68.3277L34.9538 69.008L29.0649 74.8932C25.8268 78.1205 23.176 80.8258 23.176 80.8891C23.176 80.9523 23.3665 80.9998 23.6046 80.9998C23.9538 80.9998 25.049 79.9873 29.6046 75.4627L35.176 69.9098L35.3665 70.7482L35.5729 71.5709L30.9538 76.1746C28.43 78.7059 26.3506 80.8258 26.3506 80.8891C26.3506 80.9523 26.5411 80.9998 26.7792 80.9998C27.1125 80.9998 28.0173 80.193 31.4459 76.7916C33.7633 74.4818 35.7157 72.6467 35.7633 72.7416C35.8268 72.8207 35.9062 73.1846 35.9697 73.5484L36.0808 74.2287L32.7951 77.5035C31.0014 79.307 29.5252 80.8258 29.5252 80.8891C29.5252 80.9523 29.7157 80.9998 29.9379 80.9998C30.2713 80.9998 30.9856 80.3828 33.3348 78.0572L36.3189 75.1146L36.4935 75.9531L36.684 76.7916L34.684 78.785C33.5887 79.8924 32.6998 80.8416 32.6998 80.8891C32.6998 80.9523 32.8903 80.9998 33.1125 80.9998C33.4141 80.9998 33.9379 80.5885 35.176 79.3861C36.0808 78.516 36.8427 77.8199 36.8744 77.8516C36.8903 77.8832 37.049 78.1838 37.1919 78.5318L37.4776 79.133L36.6681 79.9873C36.2395 80.4461 35.8744 80.8574 35.8744 80.9049C35.8744 80.9523 36.049 80.9998 36.2554 80.9998C36.4617 80.9998 36.9221 80.7309 37.3189 80.3828L38.0173 79.7816L38.6205 80.1771C38.9538 80.3986 39.1919 80.6676 39.1443 80.7625C39.0967 80.9049 39.557 80.9682 41.0014 80.984L42.9379 80.9998L43.6522 80.3986C44.049 80.0664 47.8903 76.2695 52.1919 71.9664C58.6205 65.5275 60.0014 64.0563 60.0014 63.7082C60.0014 63.4709 59.9538 63.2811 59.8903 63.2811C59.8268 63.2811 56.6205 66.4135 52.7792 70.242L45.7951 77.2029L45.7633 76.2063L45.7157 75.2254L52.8586 68.1063C58.7475 62.2211 60.0014 60.8922 60.0014 60.5441C60.0014 60.3068 59.9538 60.117 59.8903 60.117C59.8268 60.117 56.5411 63.3285 52.6046 67.252L45.4459 74.3869L45.2713 73.5326L45.0967 72.6941L52.557 65.2586C58.6998 59.1045 60.0014 57.7281 60.0014 57.3801C60.0014 57.1428 59.9538 56.9529 59.8903 56.9529C59.8268 56.9529 56.4459 60.2752 52.3665 64.3252C48.2871 68.3752 44.9221 71.6342 44.8744 71.5709C44.8427 71.4918 44.7475 71.1121 44.684 70.7324L44.5729 70.0521L52.2871 62.3477C58.6681 55.9879 60.0014 54.5641 60.0014 54.216C60.0014 53.9787 59.9538 53.7889 59.8903 53.7889C59.8268 53.7889 56.303 57.2377 52.0649 61.4775L44.3506 69.1504L44.1602 68.3277L43.9538 67.4893L51.9856 59.4842C58.6681 52.808 60.0014 51.4158 60.0014 51.052C60.0014 50.6881 59.9538 50.6406 59.7316 50.7672C59.5729 50.8463 55.9538 54.4059 51.684 58.6773C47.3983 62.933 43.8586 66.3977 43.7951 66.3502C43.7316 66.3186 43.6205 65.9547 43.557 65.5592L43.4459 64.8314L51.7316 56.5732C58.5729 49.7389 60.0014 48.2518 60.0014 47.8879C60.0014 47.6506 59.9538 47.4607 59.8903 47.4607C59.8268 47.4607 56.049 51.1785 51.4935 55.7031L43.2078 63.9613L43.0332 63.107L42.8427 62.2686L51.43 53.7098C58.5887 46.559 60.0014 45.0877 60.0014 44.7238C60.0014 44.36 59.9538 44.3125 59.7316 44.4391C59.5729 44.5182 55.6998 48.3309 51.1284 52.9029C46.5411 57.475 42.7475 61.177 42.684 61.1295C42.6205 61.0979 42.5094 60.734 42.4459 60.3385L42.3348 59.6107L51.176 50.7988C58.4935 43.4898 60.0014 41.9236 60.0014 41.5598C60.0014 41.3225 59.9538 41.1326 59.8903 41.1326C59.8268 41.1326 55.7951 45.0877 50.9379 49.9287L42.0967 58.7406L41.9221 57.8863L41.7316 57.0479L50.8744 47.9354C58.5094 40.3258 60.0014 38.7596 60.0014 38.3957C60.0014 38.0318 59.9538 37.9844 59.7316 38.1109C59.5729 38.19 55.4141 42.2875 50.4935 47.1918L41.5411 56.1303L41.1919 55.4658L40.8268 54.8172L49.6522 46.0053C58.4141 37.2566 58.4776 37.1934 59.2237 37.0984L59.9856 36.9877L59.9697 35.8961C59.9697 35.2791 59.9221 34.8361 59.8586 34.8836C59.811 34.9469 59.684 34.5672 59.5729 34.0609C59.4141 33.2383 59.43 33.1117 59.6998 32.732C59.8586 32.4947 60.0014 32.1467 60.0014 31.9568C60.0014 31.6246 59.9856 31.6088 59.6046 31.8619C59.3824 32.0043 59.2078 32.0676 59.2078 32.0043C59.1919 31.9252 59.1284 31.5613 59.0649 31.1658C58.9221 30.5172 58.9538 30.4381 59.4617 29.8369C59.7633 29.4889 60.0014 29.0459 60.0014 28.8402C60.0014 28.3815 59.9697 28.3815 59.303 28.951L58.7633 29.4414L58.5887 28.6188L58.4141 27.8119L59.2078 26.9418C59.6998 26.4039 60.0014 25.9293 60.0014 25.692C60.0014 25.4863 59.9697 25.3123 59.9221 25.3123C59.8744 25.3123 59.4776 25.6445 59.049 26.04C58.303 26.7361 58.2713 26.752 58.1919 26.3881C58.1443 26.1982 58.0808 25.8186 58.0173 25.5813C57.9379 25.1857 58.0649 24.9801 58.9697 24.0309C59.6681 23.2873 60.0014 22.8127 60.0014 22.5438C60.0014 22.3223 59.9538 22.1482 59.9062 22.1482C59.8586 22.1482 59.3665 22.5912 58.811 23.1133L57.7951 24.0783L57.6998 23.6354C57.6363 23.3822 57.5729 23.0025 57.5252 22.8127C57.4617 22.5121 57.6998 22.1641 58.7316 21.1041C59.6363 20.1707 60.0014 19.6645 60.0014 19.3797C60.0014 19.1582 59.9538 18.9842 59.9062 18.9842C59.8427 18.9842 59.2554 19.5221 58.5729 20.1865C57.2395 21.468 57.303 21.468 57.0649 20.2814C56.9538 19.7752 57.0332 19.6803 58.4776 18.1932C59.5887 17.0383 60.0014 16.5162 60.0014 16.2315C60.0014 15.9941 59.9538 15.8201 59.9062 15.8201C59.8427 15.8201 59.1284 16.4688 58.3189 17.2756C57.3506 18.2248 56.811 18.6361 56.7633 18.4938C56.7316 18.3672 56.6522 18.0033 56.5887 17.6711C56.4935 17.0541 56.5094 17.0383 58.2395 15.2664C59.557 13.9217 60.0014 13.368 60.0014 13.0674C60.0014 12.8459 59.9538 12.6561 59.9062 12.6561C59.8427 12.6561 59.0332 13.4154 58.0967 14.333C57.1602 15.2506 56.3506 15.9467 56.303 15.8676C56.2713 15.8043 56.176 15.4404 56.1125 15.0607L56.0014 14.3805L58.0014 12.3397C59.5411 10.7893 60.0014 10.2197 60.0014 9.90333C60.0014 9.30215 59.7475 9.47617 57.6998 11.5328C56.7475 12.4979 55.9062 13.2889 55.8586 13.2889C55.7951 13.2889 55.7157 12.925 55.6522 12.482L55.5411 11.6594L57.7633 9.4129C59.5094 7.65684 60.0014 7.05567 60.0014 6.73927C60.0014 6.12227 59.7633 6.31211 57.4617 8.60606C56.3665 9.69766 55.43 10.5994 55.3824 10.5994C55.3189 10.5994 55.2237 10.2355 55.1602 9.79258L55.049 8.98575L57.5252 6.48614C59.4776 4.52442 60.0014 3.90742 60.0014 3.5752C60.0014 3.22716 59.9538 3.1797 59.7316 3.30626C59.5729 3.38536 58.4459 4.46114 57.2237 5.6793C56.0014 6.91328 54.9538 7.90997 54.8903 7.90997C54.811 7.90997 54.7633 7.76759 54.7633 7.60938C54.7633 7.11895 54.5887 6.80254 54.3189 6.80254C54.176 6.80254 55.3983 5.45782 57.0332 3.81251C59.0332 1.81915 60.0014 0.727547 60.0014 0.490242C60.0014 0.316216 59.9221 0.158012 59.811 0.158012C59.7157 0.158012 58.049 1.72423 56.1284 3.62267L52.6205 7.08731L51.684 7.26133C51.1602 7.35625 50.6205 7.43536 50.4935 7.43536C50.3665 7.43536 51.8427 5.85332 53.7792 3.90742C55.7157 1.96153 57.303 0.332039 57.303 0.268753C57.303 0.205475 57.1125 0.158012 56.8744 0.158012C56.5411 0.158012 55.6998 0.901566 52.6363 3.95489C48.8586 7.68848 48.7951 7.73594 47.9379 7.90997C47.4617 8.00489 46.8903 8.11563 46.6681 8.16309C46.3824 8.22637 47.43 7.08731 50.2078 4.31876C52.3665 2.15137 54.1284 0.332039 54.1284 0.268753C54.1284 0.205475 53.9379 0.158012 53.6998 0.158012C53.3665 0.158012 52.4617 0.964851 49.0649 4.33458L44.8427 8.51114L43.7951 8.68516C43.2237 8.78008 42.684 8.85918 42.6046 8.85918C42.5411 8.85918 44.3824 6.94492 46.7157 4.61934C49.049 2.29375 50.9538 0.332039 50.9538 0.268753C50.9538 0.205475 50.7633 0.158012 50.5252 0.158012C50.1919 0.158012 49.2395 1.01231 45.557 4.6668L41.0173 9.17559L40.0808 9.33379C39.557 9.42872 38.9856 9.55527 38.811 9.60274C38.6363 9.6502 40.5887 7.59356 43.1443 5.03067C45.684 2.46778 47.7792 0.332039 47.7792 0.268753C47.7792 0.205475 47.5887 0.158012 47.3506 0.158012C47.0014 0.158012 46.0014 1.07559 42.0014 5.04649C37.5094 9.492 37.0014 9.93497 36.43 10.0299C36.0808 10.0773 35.5411 10.1564 35.2395 10.2197C34.7475 10.3147 35.1919 9.8084 39.6522 5.34708C42.3665 2.62598 44.6046 0.332039 44.6046 0.268753C44.6046 0.205475 44.4141 0.158012 44.176 0.158012C43.8268 0.158012 42.7792 1.12305 38.5094 5.3629L33.2554 10.5678L32.0173 10.8051L30.7633 11.0266L36.0967 5.71095C39.0332 2.78419 41.43 0.332039 41.43 0.268753C41.43 0.205475 41.2395 0.158012 41.0014 0.158012C40.6522 0.158012 39.557 1.17052 34.9856 5.71095L29.4141 11.2639L28.2395 11.4854C27.5887 11.6119 27.0332 11.7068 26.9856 11.7068C26.9538 11.7068 29.4617 9.15977 32.5887 6.04317C35.6998 2.92657 38.2554 0.332039 38.2554 0.268753C38.2554 0.205475 38.0649 0.158012 37.8268 0.158012C37.4776 0.158012 36.3189 1.21797 31.4459 6.07481C26.176 11.2955 25.4141 12.0074 24.8744 12.0865C24.3189 12.1973 24.2713 12.2289 24.3665 12.6244C24.4459 13.0041 24.2078 13.2889 22.0014 15.4879L19.557 17.9084L19.0332 17.5445C18.7316 17.3389 18.4617 17.149 18.4141 17.1174C18.3824 17.1016 22.1125 13.3205 26.7157 8.73262C31.3189 4.14473 35.0808 0.332039 35.0808 0.268753C35.0808 0.205475 34.8903 0.158012 34.6522 0.158012C34.2871 0.158012 32.7792 1.58184 25.8744 8.43204L17.5411 16.7061L16.7951 16.4529L16.049 16.1998L23.8268 8.44785C28.1125 4.19219 31.684 0.585159 31.7633 0.426956C31.8903 0.205475 31.8427 0.158012 31.4776 0.158012C31.1125 0.158012 29.7157 1.48692 23.0173 8.13145L15.0014 16.1049L13.9062 16.184L12.811 16.2631L20.7792 8.3213C25.1443 3.95489 28.7316 0.332039 28.7316 0.268753C28.7316 0.205475 28.5411 0.158012 28.303 0.158012C27.9379 0.158012 25.6363 2.37286 14.3189 13.6369ZM24.8268 15.0924L24.9538 15.7094L23.0808 17.5762L21.2078 19.4588L20.684 18.9525L20.1602 18.4463L22.3348 16.2631C23.7316 14.8709 24.557 14.159 24.6205 14.2856C24.684 14.3805 24.7792 14.7602 24.8268 15.0924ZM25.303 17.7186L25.3983 18.4305L23.9062 19.9176L22.4141 21.4047L22.0173 20.7877L21.6205 20.1707L23.303 18.4779C24.2395 17.5445 25.0332 16.8326 25.0967 16.8959C25.1602 16.9592 25.2554 17.3231 25.303 17.7186ZM25.7792 20.3605L25.8744 21.1041L24.7316 22.259C24.0967 22.8918 23.5411 23.4139 23.4776 23.4139C23.43 23.4139 23.2554 23.1291 23.0967 22.7652L22.7951 22.1324L24.1284 20.8035C24.8586 20.0758 25.5094 19.5063 25.557 19.5379C25.6205 19.5854 25.7157 19.9492 25.7792 20.3605ZM26.2713 23.0975C26.3665 23.8094 26.3665 23.8094 25.4141 24.7428L24.4776 25.6762L24.1284 24.9959L23.7792 24.3156L24.8586 23.2398C25.4617 22.6387 25.9856 22.2115 26.049 22.2748C26.1125 22.3381 26.2078 22.702 26.2713 23.0975ZM48.6681 45.8629L40.2713 54.2318L39.7316 53.8205C39.4459 53.5832 39.2078 53.3617 39.2078 53.3143C39.2078 53.2668 42.6522 49.8022 46.8744 45.5939L54.5411 37.9686L55.6363 37.7471C56.2554 37.6205 56.811 37.5098 56.9062 37.5098C56.9856 37.4939 53.2871 41.2592 48.6681 45.8629ZM45.8744 45.4832C41.9062 49.4383 38.6046 52.6814 38.5411 52.6814C38.4776 52.6814 38.2078 52.4916 37.9379 52.2385L37.4459 51.8113L44.049 45.2459C50.5252 38.7754 50.6522 38.6805 51.4617 38.5064C53.3348 38.0951 53.557 37.8262 45.8744 45.4832ZM43.0649 45.1193L36.8586 51.3051L36.303 50.8305L35.7475 50.3559L41.2713 44.8504L46.7792 39.3607L47.7951 39.1551C48.3506 39.0443 48.9221 38.9494 49.049 38.9336C49.176 38.9336 46.4935 41.7022 43.0649 45.1193ZM40.3189 44.6922L35.176 49.818L34.6998 49.4541C34.4459 49.2643 34.2078 49.027 34.176 48.9479C34.1443 48.8688 36.1125 46.8279 38.5411 44.4232L42.9538 40.041L44.1443 39.8195C44.7951 39.6772 45.3506 39.5664 45.3983 39.5664C45.4459 39.5506 43.1602 41.8604 40.3189 44.6922ZM30.6681 40.6738C31.2395 40.9586 31.2871 41.0219 31.0808 41.2275C30.8744 41.4332 30.7792 41.4332 30.2713 41.1959C29.9538 41.0377 29.6522 40.9586 29.6046 41.0061C29.557 41.0377 29.5887 41.4016 29.6681 41.8129L29.7951 42.5406L28.9697 43.3475L28.1443 44.1701L28.0332 43.6639C27.8268 42.5723 27.9062 42.3666 28.9221 41.3383C29.4617 40.7846 29.9379 40.3416 29.9697 40.3416C29.9856 40.3416 30.303 40.484 30.6681 40.6738ZM32.9062 41.7338L33.5094 42.0027L31.7792 43.7271L30.049 45.4357L29.5094 44.9611L28.9697 44.4707L30.1602 43.2842C30.811 42.6197 31.4459 42.0818 31.5729 42.0818C31.6998 42.0818 31.7475 42.0344 31.6998 41.9711C31.557 41.8445 31.8903 41.449 32.1284 41.449C32.2237 41.449 32.5729 41.5756 32.9062 41.7338ZM34.9538 42.7305L35.6046 43.0627L33.6998 44.9611L31.7792 46.8754L31.1919 46.4324L30.6205 45.9895L32.4141 44.1859C33.3983 43.2051 34.2237 42.3982 34.2554 42.3982C34.2713 42.3982 34.5887 42.5406 34.9538 42.7305ZM37.5252 43.7746C37.9538 43.8537 37.9221 43.917 35.6998 46.1318L33.43 48.41L32.9062 47.9037L32.3824 47.3975L34.3189 45.4357C36.0173 43.743 36.3189 43.5057 36.6681 43.5848C36.8903 43.6322 37.2713 43.7271 37.5252 43.7746Z" fill="#00BA61"/>
<path d="M52.7941 73.4063C48.8894 77.2822 45.6195 80.5729 45.5401 80.7152C45.4132 80.9525 45.4608 81 45.8259 81C46.1751 81 47.3814 79.8768 52.8259 74.482C56.429 70.8908 59.5243 67.7584 59.6989 67.5053C59.8735 67.268 60.0005 66.9199 59.9687 66.7143C59.9052 66.4295 58.7465 67.5053 52.7941 73.4063Z" fill="#00BA61"/>
<path d="M54.3812 74.9883C51.3494 77.9941 48.7939 80.5729 48.7145 80.7152C48.5875 80.9525 48.6351 81 48.9844 81C49.3494 81 50.3177 80.1141 54.4129 76.0482C57.1431 73.343 59.5399 70.9225 59.6986 70.6693C59.8732 70.432 60.0002 70.084 59.9685 69.8783C59.905 69.5936 59.0161 70.4004 54.3812 74.9883Z" fill="#00BA61"/>
<path d="M55.9697 76.5703C53.8109 78.7061 51.9697 80.5729 51.8903 80.7152C51.7633 80.9525 51.8109 81 52.1601 81C52.5093 81 53.2554 80.3355 55.9855 77.6303C59.7316 73.9441 60.049 73.5803 59.9697 73.0424C59.922 72.7418 59.303 73.2955 55.9697 76.5703Z" fill="#00BA61"/>
<path d="M57.5563 78.1523C54.9055 80.7469 54.6991 81 55.3182 81C55.6357 81 56.1753 80.5729 57.5722 79.2123C59.6674 77.1715 60.0483 76.7127 59.969 76.2064C59.9214 75.9059 59.5722 76.1906 57.5563 78.1523Z" fill="#00BA61"/>
</g>
<defs>
<clipPath id="clip0_40_4422">
<rect width="60" height="81" fill="white"/>
</clipPath>
</defs>
</svg>
