<svg width="60" height="61" viewBox="0 0 60 61" fill="none" xmlns="http://www.w3.org/2000/svg">
<g clip-path="url(#clip0_40_4433)">
<path d="M43.36 0.582031C41.7897 0.828125 39.9264 1.39062 38.7897 1.96484C36.0944 3.32422 33.528 5.85547 32.2272 8.46875C32.0866 8.76172 31.946 9.01953 31.9108 9.04297C31.8874 9.07812 30.6217 7.85938 29.0866 6.33594C27.5632 4.8125 26.1569 3.5 25.9811 3.44141C25.5592 3.27734 24.8327 3.27734 24.4108 3.44141C23.9772 3.59375 9.51628 18.0312 9.30534 18.5117C9.18816 18.793 9.17644 18.9688 9.27019 19.2383C9.42253 19.6719 9.68034 19.8359 10.2194 19.8359C10.571 19.8359 11.2038 19.2383 17.8952 12.5469L25.196 5.24609L28.196 8.24609L31.1842 11.2344L30.9967 12.0547C30.8796 12.5352 30.7741 13.6016 30.7389 14.668L30.6686 16.4609L28.1139 13.9062C25.8757 11.668 25.5241 11.3633 25.196 11.3633C24.8561 11.3633 23.8717 12.3125 15.0241 21.1484C9.63347 26.5391 5.09831 31.0039 4.95769 31.0742C4.81706 31.1445 4.48894 31.2031 4.21941 31.2031C3.78581 31.2031 3.65691 31.1328 2.97722 30.4766C2.15691 29.6914 1.93425 29.2227 2.12175 28.6016C2.19206 28.3438 3.17644 27.2656 5.39128 25.0508C8.2155 22.2031 8.55534 21.8281 8.55534 21.4883C8.55534 20.9609 8.11003 20.5391 7.53581 20.5391C7.11394 20.5391 6.96159 20.6797 3.85613 23.7852C0.903 26.7617 0.598313 27.1016 0.363938 27.7227C0.070969 28.5312 0.0475315 29.3164 0.305344 30.1016C0.574875 30.875 2.39128 32.7148 3.14128 32.9492L3.63347 33.1133V41.832V50.5391H2.70769C1.653 50.5391 1.18425 50.7617 0.774094 51.4766C0.539719 51.8633 0.528 52.0625 0.528 55.5781C0.528 59.6797 0.528 59.6914 1.33659 60.2422C1.71159 60.5 1.79363 60.5 5.35613 60.5C8.74284 60.5 9.01238 60.4883 9.27019 60.2773C9.63347 59.9844 9.64519 59.3047 9.28191 58.9414C9.02409 58.6836 8.95378 58.6836 5.74284 58.6484L2.46159 58.6133V57.2773V55.9297H24.61H46.7585V57.2773V58.625H29.485C17.7311 58.625 12.1061 58.6602 11.8718 58.7422C11.2624 58.9648 11.0749 59.668 11.4968 60.1953L11.7311 60.5H29.5788H47.4264L47.8132 60.2305C48.61 59.6914 48.6335 59.5742 48.6335 55.5664C48.6335 52.0625 48.6217 51.9688 48.3639 51.4766C48.0944 50.9492 47.4967 50.5391 47.028 50.5391H46.7585V41.832V33.1133L47.2389 32.9727C47.8132 32.7969 49.5827 31.1562 49.9342 30.4766C50.0514 30.2422 50.1921 29.7617 50.2272 29.3984C50.2858 28.8711 50.3561 28.7305 50.5553 28.6719C51.1178 28.4961 52.9342 27.5352 53.6491 27.0195C54.6452 26.3164 56.1217 24.8984 56.8249 23.9961C58.1725 22.2617 59.0514 20.3047 59.6022 17.8438C59.8483 16.7656 59.8835 13.5781 59.6608 12.4531C59.1569 9.83984 57.9382 7.27344 56.3444 5.50391C55.946 5.05859 55.7585 4.92969 55.4655 4.92969C54.985 4.91797 54.4928 5.23438 54.4811 5.57422C54.446 6.11328 54.528 6.3125 54.9499 6.82812C57.1413 9.47656 58.2897 13.0859 57.903 16.168C57.446 19.9297 55.9108 22.7539 53.11 25.0039C51.7038 26.1406 50.2858 26.832 48.3405 27.3594C47.0397 27.7109 43.7467 27.7461 42.4225 27.4062C37.653 26.1992 34.0905 22.625 32.9303 17.8438C32.4382 15.8516 32.5671 13.0977 33.235 11.0586C33.5749 10.0273 34.4421 8.41016 35.1452 7.44922C36.9499 5.04688 39.5163 3.40625 42.6569 2.64453C43.9811 2.32812 46.946 2.35156 48.2233 2.70312C49.3717 3.00781 50.5905 3.5 51.5983 4.0625C52.4538 4.54297 52.8171 4.57812 53.2507 4.23828C53.485 4.05078 53.5553 3.89844 53.5553 3.54688C53.5553 2.97266 53.2507 2.71484 51.7741 1.98828C49.5944 0.910156 47.7077 0.488281 45.235 0.511719C44.3678 0.523438 43.5241 0.546875 43.36 0.582031ZM28.5592 17.0469C30.2585 18.7344 31.6413 20.1758 31.6413 20.2461C31.6413 20.5273 32.9303 22.9062 33.528 23.7031C35.0632 25.7656 37.2663 27.5234 39.4928 28.4492C40.1608 28.7188 40.4889 29 42.1882 30.6758C43.2546 31.7188 44.2975 32.668 44.5085 32.7734L44.8835 32.9727V36.5938V40.2266H42.7975C39.9616 40.2266 40.0319 40.1562 40.1022 42.9219C40.1491 45.1484 39.9967 45.0312 42.7858 45.0312H44.8835V47.7852V50.5391H37.9694H31.0671L31.0319 44.6094L30.9967 38.6797L30.6686 38.3984C30.2467 38.0469 29.8717 38.0469 29.4499 38.3984L29.1217 38.6797L29.0866 44.6094L29.0514 50.5391H24.9616H20.86V41.8086V33.0781H24.9499H29.0397L29.0749 34.4844C29.1217 35.75 29.1452 35.9141 29.3796 36.1484C29.7311 36.5 30.3874 36.5 30.7389 36.1484C30.9733 35.9023 30.9967 35.7617 31.0319 34.168C31.0788 32.2227 31.0202 31.7539 30.6921 31.4258C30.4811 31.2148 30.2585 31.2031 25.0319 31.2031C19.8522 31.2031 19.5827 31.2148 19.3249 31.4258L19.0436 31.6484L19.0085 41.0938L18.985 50.5391H12.2467H5.50847V48.5469V46.5547H6.97331H8.43816V47.7734C8.43816 49.5547 8.30925 49.4844 11.7194 49.4844C14.2389 49.4844 14.403 49.4727 14.696 49.2383L15.0007 49.0039V47.0703C15.0007 44.5039 15.1882 44.6797 12.4225 44.6797H10.3132V43.5195C10.3132 42.5352 10.278 42.3242 10.0671 42.0547L9.83269 41.75H7.66472H5.50847V37.3555V32.9609L5.83659 32.832C6.01238 32.7734 10.3717 28.4961 15.528 23.3398C22.8053 16.0742 24.9733 13.9766 25.196 13.9766C25.4069 13.9766 26.2272 14.7148 28.5592 17.0469ZM48.2819 29.4688C48.2819 29.7148 46.7116 31.168 46.3835 31.2266C45.8561 31.3203 45.2233 31.0156 44.5085 30.3008L43.8288 29.6211L45.446 29.5977C46.3249 29.5977 47.2858 29.5273 47.5788 29.4688C48.3053 29.3164 48.2819 29.3164 48.2819 29.4688ZM44.8835 42.6289V43.1562H43.4186H41.9538V42.6289V42.1016H43.4186H44.8835V42.6289ZM8.43816 44.1523V44.6797H6.97331H5.50847V44.1523V43.625H6.97331H8.43816V44.1523ZM13.1257 47.082V47.6094H11.7194H10.3132V47.082V46.5547H11.7194H13.1257V47.082ZM46.7585 53.2344V54.0547H24.61H2.46159V53.2344V52.4141H24.61H46.7585V53.2344Z" fill="#00BA61"/>
<path d="M19.6172 20.5391C19.0664 20.7617 18.9844 21.0664 18.9844 22.8477C18.9844 23.8438 19.043 24.6289 19.1133 24.8047C19.2891 25.168 19.7695 25.3438 20.6367 25.3438H21.3047L21.3516 26.5156C21.4102 28.2734 21.293 28.2031 24.457 28.25C25.8633 28.2734 27.1289 28.2617 27.2695 28.2148C27.8789 28.0625 28.0078 27.7812 28.0078 26.5273V25.3672L28.957 25.3203C30.3281 25.2617 30.3516 25.2266 30.3516 22.918C30.3516 21.9219 30.3047 21.0078 30.2344 20.8906C30.1758 20.7734 29.9531 20.6211 29.7539 20.5508C29.2969 20.3984 19.9922 20.3867 19.6172 20.5391ZM23.7891 22.8828V23.3516H22.3242H20.8594V22.8828V22.4141H22.3242H23.7891V22.8828ZM28.4766 22.8828V23.3516H27.0703H25.6641V22.8828V22.4141H27.0703H28.4766V22.8828ZM26.1328 25.8711V26.3984H24.7266H23.3203V25.8711V25.3438H24.7266H26.1328V25.8711Z" fill="#00BA61"/>
<path d="M9.96149 31.1797C9.73884 31.2852 9.43415 31.5664 9.28181 31.7891C9.01227 32.1875 9.01227 32.2227 9.04743 35.2695L9.08259 38.3398L9.43415 38.7148C10.0552 39.3594 10.2779 39.4062 13.2193 39.4062C15.7506 39.4062 15.9146 39.3945 16.4068 39.1367C16.7935 38.9492 17.0045 38.7383 17.2037 38.3516C17.4615 37.8359 17.4732 37.7422 17.4381 34.9883C17.4029 31.8359 17.3912 31.8242 16.524 31.2266C16.149 30.9805 16.0552 30.9688 13.2545 30.9688C10.7466 30.9688 10.3248 30.9922 9.96149 31.1797ZM15.5631 35.1523L15.5279 37.4727L13.2193 37.5078L10.899 37.5312V35.1875V32.8438H13.2427H15.5865L15.5631 35.1523Z" fill="#00BA61"/>
<path d="M33.6918 31.0859C33.3637 31.2266 32.9653 31.625 32.7543 32.0352C32.5903 32.3281 32.5668 32.8438 32.602 35.3047C32.6372 38.5156 32.6372 38.5039 33.4457 39.1016C33.7504 39.3359 33.9145 39.3477 36.7973 39.3477C39.6801 39.3477 39.8442 39.3359 40.1489 39.1016C40.9575 38.5039 40.9575 38.5156 40.9926 35.293L41.0278 32.3516L40.7348 31.8594C40.2426 31.0039 40.0551 30.9688 36.7739 30.9805C35.2153 30.9805 33.8207 31.0273 33.6918 31.0859ZM39.1411 35.1875V37.5312H36.7973H34.4536V35.1875V32.8438H36.7973H39.1411V35.1875Z" fill="#00BA61"/>
<path d="M46.5828 4.88281C45.9266 5.12891 45.5867 5.5625 45.5867 6.13672C45.5867 6.66406 45.7625 6.875 46.9109 7.73047C47.2742 8 47.6609 8.36328 47.7664 8.52734L47.9656 8.84375L45.9617 10.8477L43.9461 12.8633L43.2547 12.1602L42.5516 11.457L42.6688 10.8828C43.1024 8.62109 41.2274 6.27734 38.8836 6.14844C37.407 6.05469 36.7977 6.35938 36.7977 7.15625C36.7977 7.48438 36.9266 7.68359 37.5125 8.29297C38.1805 8.99609 38.2274 9.06641 38.157 9.45312C38.0867 9.80469 38.0164 9.875 37.6766 9.94531C37.2899 10.0156 37.2078 9.96875 36.5047 9.30078C35.8836 8.72656 35.6609 8.58594 35.3563 8.58594C34.5711 8.58594 34.2664 9.20703 34.3602 10.6719C34.5008 13.0391 36.8211 14.8906 39.0945 14.457L39.6688 14.3398L40.3719 15.043L41.075 15.7344L38.5906 18.2305C37.2195 19.5898 36.0477 20.8672 35.9774 21.043C35.6492 21.9453 35.9539 22.7188 37.0086 23.6094C37.618 24.1367 37.7 24.1719 38.3094 24.1719C38.7313 24.1719 39.0828 24.1016 39.2586 23.9844C39.4227 23.8789 40.6297 22.7188 41.9539 21.3945L44.368 19.0156L44.8133 19.4727L45.2703 19.9414L45.282 21.1484C45.2938 22.1914 45.3406 22.4375 45.5984 23C46.0086 23.8789 46.7469 24.5938 47.6727 25.0273C48.3524 25.3438 48.5867 25.3906 49.4188 25.3906C50.6492 25.3906 51.0125 25.168 51.0711 24.418C51.1063 23.9609 51.0594 23.8789 50.3914 23.1875C49.7234 22.4844 49.6766 22.4141 49.7469 22.0273C49.8172 21.6758 49.8875 21.6055 50.2391 21.5352C50.6258 21.4648 50.6961 21.5117 51.3875 22.168C52.0438 22.8008 52.1844 22.8828 52.5945 22.8828C53.1805 22.8828 53.4383 22.6016 53.5672 21.8047C53.8484 20.0469 52.8758 18.2188 51.2234 17.3984C50.6492 17.1172 50.4266 17.082 49.3602 17.0703L48.1414 17.0586L47.6844 16.6016L47.2274 16.1445L48.5047 14.8672L49.7938 13.5898L50.2156 13.9648C50.45 14.1641 50.7899 14.3633 50.9774 14.3984C51.2234 14.457 51.3172 14.5508 51.3758 14.832C51.4695 15.2891 53.0281 16.8711 53.45 16.9297C54.2 17.0352 54.3992 16.9062 55.9695 15.3359C57.5867 13.7188 57.7274 13.4844 57.5281 12.7461C57.3875 12.2539 55.9227 10.8359 55.4539 10.7422C55.1727 10.6836 55.0906 10.5898 55.032 10.3086C54.9266 9.76953 50.5672 5.44531 49.7469 5.07031C48.9969 4.71875 47.2977 4.625 46.5828 4.88281ZM51.1414 8.86719L53.0867 10.7891L52.8992 11.1523C52.6649 11.6328 52.7586 11.9258 53.4149 12.5938C53.9891 13.1914 54.4461 13.3086 54.9852 13.0273C55.1258 12.957 55.2664 12.9453 55.325 13.0039C55.4656 13.1445 53.8484 14.7383 53.6844 14.6328C53.5906 14.5742 53.5906 14.4805 53.6727 14.3281C53.9422 13.8125 53.8133 13.3438 53.2391 12.7812C52.5711 12.1367 52.2664 12.0312 51.8094 12.2539L51.4695 12.418L50.3914 11.3398L49.3133 10.2617L49.5594 9.86328C49.8524 9.39453 49.8875 8.53906 49.6414 7.95312C49.5594 7.74219 49.3016 7.36719 49.0906 7.12109C48.1766 6.08984 49.2899 7.02734 51.1414 8.86719ZM40.5594 9.33594C40.7938 9.86328 40.8406 10.625 40.6766 11.082C40.5008 11.5391 39.8445 12.2188 39.3992 12.3945C38.8133 12.6406 38.0399 12.6172 37.4656 12.3125L36.9734 12.0664L37.325 11.9844C37.5242 11.9375 37.9813 11.832 38.3563 11.7617C38.7313 11.6797 39.1766 11.4922 39.3758 11.3164C39.7625 11 40.0672 10.1328 40.1141 9.25391C40.1375 8.64453 40.2547 8.65625 40.5594 9.33594ZM48.2 11.9609C48.3758 12.1602 48.3172 12.2422 47.1102 13.4492C45.8328 14.7148 45.8328 14.7266 45.5867 14.5039L45.3406 14.2812L46.6063 13.0156C47.2977 12.3242 47.8953 11.75 47.9422 11.75C47.9774 11.75 48.0945 11.8438 48.2 11.9609ZM40.6297 19.918L38.3211 22.2383L38.0633 21.9688L37.7938 21.6992L40.1258 19.4023L42.4461 17.1172L42.7039 17.3633L42.95 17.6094L40.6297 19.918ZM50.3445 19.1211C51.0125 19.4258 51.0945 19.6016 50.5789 19.6016C48.7508 19.6016 47.8133 20.5391 47.8133 22.3672C47.8133 22.8828 47.6375 22.8008 47.3328 22.1328C46.9109 21.207 47.1688 20.0234 47.907 19.4961C48.7859 18.875 49.5359 18.7578 50.3445 19.1211Z" fill="#00BA61"/>
</g>
<defs>
<clipPath id="clip0_40_4433">
<rect width="60" height="60" fill="white" transform="translate(0 0.5)"/>
</clipPath>
</defs>
</svg>
