<svg width="60" height="61" viewBox="0 0 60 61" fill="none" xmlns="http://www.w3.org/2000/svg">
<g clip-path="url(#clip0_40_4427)">
<path d="M10.8281 13.9062C8.71875 15.6406 8.71875 18.6406 10.8281 20.375C11.625 21.0781 12.8438 21.5938 13.5938 21.5938C15 21.5938 17.8125 19.5781 17.8125 18.5469C17.8125 18.2187 17.1094 17.7969 16.2656 17.6562C15.375 17.5156 14.2969 17.0469 13.7812 16.7187C13.0312 16.1562 13.2656 16.1562 15.4688 16.7187C18.5156 17.5156 21.2344 17.1875 21 16.0156C20.9062 15.6406 20.2031 15.125 19.4531 14.8906C18.6562 14.6562 17.25 14.0937 16.3125 13.5781C13.9688 12.3594 12.5156 12.4531 10.8281 13.9062Z" fill="#00BA61"/>
<path d="M33.75 18.3125C33.75 18.5469 34.5 18.7812 35.3906 18.7812C36.2813 18.7812 37.0313 18.5469 37.0313 18.3125C37.0313 18.0312 36.2813 17.8438 35.3906 17.8438C34.5 17.8438 33.75 18.0312 33.75 18.3125Z" fill="#00BA61"/>
<path d="M38.9062 18.3125C38.9062 18.5469 39.6563 18.7812 40.5469 18.7812C41.4375 18.7812 42.1875 18.5469 42.1875 18.3125C42.1875 18.0312 41.4375 17.8438 40.5469 17.8438C39.6563 17.8438 38.9062 18.0312 38.9062 18.3125Z" fill="#00BA61"/>
<path d="M31.4062 20.6562C31.4062 20.8906 31.6406 21.125 31.875 21.125C32.1562 21.125 32.3438 22.8594 32.3438 25.3438C32.3438 27.8281 32.1562 29.5625 31.875 29.5625C31.6406 29.5625 31.4062 29.75 31.4062 30.0312C31.4062 30.3125 36.4688 30.5 45.7031 30.5C54.9375 30.5 60 30.3125 60 30.0312C60 29.75 59.8125 29.5625 59.5312 29.5625C59.25 29.5625 59.0625 27.8281 59.0625 25.3438C59.0625 22.8594 59.25 21.125 59.5312 21.125C59.8125 21.125 60 20.8906 60 20.6562C60 20.375 54.9375 20.1875 45.7031 20.1875C36.4688 20.1875 31.4062 20.375 31.4062 20.6562ZM58.125 25.3438V29.5625H45.7031H33.2812V25.3438V21.125H45.7031H58.125V25.3438Z" fill="#00BA61"/>
<path d="M19.7351 21.9685C19.3601 22.2498 19.2195 22.7654 19.3601 23.1404C19.6883 23.9373 23.3914 24.4998 24.2351 23.8435C24.5633 23.5623 26.157 23.2342 27.7508 23.0935L30.7039 22.7654L28.1258 22.4842C26.7195 22.2967 24.3758 22.0154 22.9695 21.8748C21.5633 21.6873 20.1101 21.7342 19.7351 21.9685Z" fill="#00BA61"/>
<path d="M7.82812 22.9998C6.04688 24.4061 4.96875 28.1561 4.92188 32.8436C4.92188 39.5936 6.75 40.8592 13.6875 39.0311C15.7031 38.5155 17.4375 38.2342 17.5312 38.4217C17.625 38.5623 17.9062 40.2967 18.0938 42.2186C18.5156 46.7186 18.8906 47.7498 20.3906 48.1248C22.4062 48.6405 22.9688 47.6561 22.9688 43.9061C22.9219 38.4217 22.2188 34.2498 21.1406 33.1717L20.2031 32.2342L16.5 33.2186C14.4375 33.7811 12.6094 34.2498 12.4219 34.2498C12.2344 34.2498 12.1875 33.2655 12.2812 32.0936C12.4219 30.0311 12.3281 29.8436 10.4531 28.2967C8.20312 26.4217 7.82812 24.7811 9.42188 23.9373C10.1719 23.5155 10.6406 23.5623 11.5781 24.1717C13.0312 25.1092 13.4531 24.7811 12.75 23.2342C12.0469 21.7342 9.5625 21.6405 7.82812 22.9998Z" fill="#00BA61"/>
<path d="M9.46875 24.5004C9.14062 24.8285 8.90625 25.391 8.90625 25.766C8.90625 26.4691 13.7812 30.6879 15.1406 31.2504C15.4688 31.3441 17.3906 30.4066 19.4062 29.0941C22.3594 27.1723 23.0156 26.516 22.875 25.6723C22.6406 24.1254 20.9531 24.1254 18.6562 25.7191C17.5312 26.4691 16.4062 27.1723 16.125 27.3598C15.8438 27.5473 14.4844 26.8441 13.125 25.8129C10.3125 23.7504 10.2656 23.7035 9.46875 24.5004Z" fill="#00BA61"/>
<path d="M21.8434 27.9219C20.9528 28.5781 20.9997 28.625 22.4059 28.625C23.4372 28.625 23.9059 28.3906 23.9059 27.9219C23.9059 27.0312 23.0153 27.0312 21.8434 27.9219Z" fill="#00BA61"/>
<path d="M32.3438 34.7187V38H45.7031H59.0625V34.7187V31.4375H45.7031H32.3438V34.7187ZM46.4062 33.7812C46.4062 34.2969 46.125 34.7187 45.75 34.7187C44.9062 34.7187 44.3906 33.9687 44.7656 33.3125C45.2812 32.4687 46.4062 32.7969 46.4062 33.7812Z" fill="#00BA61"/>
<path d="M31.4062 39.4062C31.4062 39.6875 36.4688 39.875 45.7031 39.875C54.9375 39.875 60 39.6875 60 39.4062C60 39.125 54.9375 38.9375 45.7031 38.9375C36.4688 38.9375 31.4062 39.125 31.4062 39.4062Z" fill="#00BA61"/>
<path d="M7.5 40.4375C7.5 40.625 7.6875 41.2812 7.96875 41.9375L8.4375 43.1562H5.25C1.6875 43.1562 0 43.9531 0 45.6875C0 47.8906 1.21875 48.3125 7.35938 48.3125C12.1875 48.3125 13.0781 48.1719 13.7344 47.4688C14.7656 46.3438 14.7188 45.9219 13.5938 42.7344L12.6094 40.1094H10.0781C8.67188 40.1094 7.5 40.25 7.5 40.4375Z" fill="#00BA61"/>
<path d="M56.4374 41.5625C56.5781 41.9844 56.7187 43.5312 56.7187 45.0781C56.7187 47.2344 56.8593 47.8438 57.4218 47.8438C57.9374 47.8438 58.1249 47.3281 58.1249 46.0625C58.1249 45.125 58.2656 43.5312 58.4062 42.5469C58.6874 40.9062 58.6406 40.8125 57.4218 40.8125C56.4374 40.8125 56.2031 41 56.4374 41.5625Z" fill="#00BA61"/>
<path d="M23.9062 44.5625V47.8438H37.5H51.0938V44.5625V41.2812H37.5H23.9062V44.5625ZM38.2031 43.625C38.2031 44.6562 36.8438 44.4687 36.6562 43.4844C36.5156 42.8281 36.7031 42.6406 37.3594 42.7812C37.8281 42.875 38.2031 43.25 38.2031 43.625Z" fill="#00BA61"/>
</g>
<defs>
<clipPath id="clip0_40_4427">
<rect width="60" height="60" fill="white" transform="translate(0 0.5)"/>
</clipPath>
</defs>
</svg>
