<svg width="60" height="61" viewBox="0 0 60 61" fill="none" xmlns="http://www.w3.org/2000/svg">
<g clip-path="url(#clip0_40_4442)">
<path d="M46.9347 39.2723C44.5585 42.5358 40.7095 44.6613 36.3728 44.6613H30.2878C28.1857 44.6613 26.3957 43.3268 25.7178 41.4589C24.8811 41.2093 24.0606 40.8854 23.26 40.4875C21.5644 39.6451 20.0248 38.5037 18.6695 37.0898C9.8784 39.0212 3.29883 46.8545 3.29883 56.2258V57.4507C3.29883 59.1345 4.6639 60.4996 6.34772 60.4996H53.6518C55.3356 60.4996 56.7007 59.1345 56.7007 57.4507V56.2258C56.7006 48.9864 52.7739 42.6646 46.9347 39.2723Z" fill="#00BA61"/>
<path d="M15.4287 30.806C16.7391 30.806 17.8797 30.0797 18.4706 29.0079C18.4861 29.0503 18.5019 29.0925 18.5178 29.1347C18.5225 29.1473 18.5272 29.16 18.5319 29.1726C19.9181 32.8215 22.6154 35.8803 26.172 37.2168C27.0322 35.85 28.5533 34.941 30.2876 34.941H36.3726C36.9796 34.941 37.5445 34.7697 38.0397 34.4929C38.8715 34.0278 39.6194 32.848 40.0056 32.2226C40.6237 31.2218 41.1026 30.1618 41.5272 29.0061C41.7658 29.4395 42.094 29.8164 42.4871 30.1118V31.6039C42.4871 34.9754 39.7442 37.7185 36.3725 37.7185H30.2875C29.1371 37.7185 28.2045 38.6511 28.2045 39.8015C28.2045 40.952 29.1371 41.8845 30.2875 41.8845H36.3725C42.0412 41.8845 46.6531 37.2726 46.6531 31.6039V30.1118C47.4963 29.4783 48.0418 28.4701 48.0418 27.3344V21.0535V18.645C48.0418 17.4859 47.4733 16.4603 46.6005 15.8297C45.9235 7.26349 38.7366 0.5 29.9994 0.5C21.262 0.5 14.0753 7.26349 13.3983 15.8296C12.5255 16.4602 11.957 17.4859 11.957 18.6448V27.3341C11.957 29.257 13.5191 30.806 15.4287 30.806ZM29.9994 4.66609C36.4674 4.66609 41.8022 9.60896 42.4258 15.9157C42.0164 16.2377 41.6811 16.6493 41.4501 17.1216C39.4846 11.9936 35.0969 8.42337 29.9993 8.42337C24.7917 8.42337 20.4744 12.1163 18.5562 17.1011C18.5536 17.1079 18.5511 17.1148 18.5485 17.1217C18.3174 16.6494 17.9821 16.2379 17.5728 15.9159C18.1967 9.60896 23.5314 4.66609 29.9994 4.66609Z" fill="#00BA61"/>
</g>
<defs>
<clipPath id="clip0_40_4442">
<rect width="60" height="60" fill="white" transform="translate(0 0.5)"/>
</clipPath>
</defs>
</svg>
