<svg width="60" height="61" viewBox="0 0 60 61" fill="none" xmlns="http://www.w3.org/2000/svg">
<path d="M10.875 14.3281C7.3594 17.2813 9.37502 22.5312 14.0625 22.5312C15.75 22.5312 18.0938 20.6094 18.4219 18.9219C19.2656 14.5156 14.2031 11.5156 10.875 14.3281Z" fill="#00BA61"/>
<path d="M6.46873 21.875C3.23436 23.6093 0.0937313 34.7187 1.87498 38C2.15623 38.5156 3.32811 39.5 4.54686 40.2031C6.65623 41.4218 6.70311 41.5156 5.62498 41.7968C4.96873 41.9843 3.79686 42.125 2.99998 42.1718C0.328106 42.2656 -0.937519 44.9843 0.937481 46.6718C1.82811 47.4687 2.34373 47.4687 9.42186 46.9531C16.125 46.4375 17.0625 46.4375 17.7656 47.0937C19.4531 48.6406 22.0312 47.375 22.0312 45.0312V43.9531L23.0156 45.1718C24.0469 46.5781 27.1406 47.6093 28.7344 47.0937C29.2969 46.9531 30.2344 46.3437 30.8437 45.8281L31.875 44.8906V45.9218C31.875 47.0937 33.1875 47.7968 33.75 46.9062C33.9844 46.5312 34.3125 44.5156 34.4531 42.3593C34.6406 40.2031 34.9219 38.4687 35.0625 38.4687C35.1562 38.4687 36.0469 38.9375 36.9375 39.5C38.1094 40.2031 38.6719 40.3437 38.8125 39.9687C38.9062 39.6406 39.1875 39.4062 39.4219 39.4062C39.7031 39.4062 39.6562 39.7812 39.375 40.3437C38.8125 41.375 39.2344 42.5468 40.5 43.625C41.6719 44.5625 41.3906 44.8906 39.375 45.2187C37.4531 45.5 36.8437 46.5312 38.25 47.0937C38.6719 47.2343 40.875 47.375 43.125 47.375C46.4531 47.375 47.3906 47.2343 47.7187 46.625C48.0937 45.9687 48.4687 45.9218 50.8125 46.4375C53.625 47 59.0625 46.6718 59.0625 45.9218C59.0625 45.4531 55.2656 44.2812 51.2344 43.4843C48.7031 43.0156 48.2812 42.7812 48.2812 41.9375C48.2812 39.0312 45.4687 34.1562 40.9687 29.1406L38.2969 26.1875L37.0312 28.9531C36.3281 30.5 35.0156 32.4687 34.0781 33.3593C32.4844 34.9062 32.4375 35.1406 32.1094 39.3125C31.7812 43.0156 31.5469 43.9062 30.6094 45.0781C29.6719 46.2031 29.1094 46.4375 27.4219 46.4375C24.75 46.4375 22.4062 44.6562 23.2969 43.25C23.625 42.6875 23.6719 41.7968 23.4375 40.7656L23.0625 39.1718L22.9687 41.0468C22.9219 42.6406 22.8281 42.7812 22.4531 41.9843C22.1719 41.4687 21 40.7187 19.7812 40.2968C18.5625 39.875 17.2031 39.4062 16.7812 39.2187C16.1719 38.9375 16.0781 39.0781 16.2656 39.8281C16.5937 41.0937 16.3125 41.0468 13.7344 39.5937C12.3281 38.75 11.8594 38.2343 12.2344 38C12.6094 37.7656 12.1406 37.2968 10.875 36.6406C9.84373 36.125 8.81248 35.4218 8.62498 35.1406C8.01561 34.1562 6.14061 24.875 6.37498 24.1718C7.07811 22.4375 10.125 22.8593 10.5937 24.7812C11.0156 26.5625 11.2969 26.9375 11.7187 26.2812C11.9531 25.8593 12.8906 26 15.3281 26.7031C17.1562 27.2656 18.9844 27.6875 19.4531 27.6875C21.0937 27.6875 23.4375 26.5625 23.4375 25.7656C23.4375 25.25 24 24.9218 25.2656 24.6875C26.25 24.5468 27.3281 24.0781 27.6562 23.7031C27.9844 23.3281 28.6875 23 29.2969 23C30.5625 23 30.9375 22.625 30.6094 21.7812C30.2344 20.75 28.6406 20.9843 23.7187 22.8125C19.2187 24.4531 19.1719 24.5 17.0156 23.75C15.7969 23.3281 14.1562 23 13.3594 23C12.5156 23 11.2969 22.5781 10.6406 22.0625C9.23436 20.9375 8.20311 20.8906 6.46873 21.875Z" fill="#00BA61"/>
<path d="M7.35904 23.7966C6.79654 24.3591 7.07779 27.3591 8.10904 31.3903L9.14029 35.3278L14.9997 37.8591C21.234 40.5309 22.6403 40.6716 22.4059 38.5622C22.2653 37.4841 21.6559 37.0622 17.0622 35.0466L11.859 32.7497L11.0622 28.9528C10.5934 26.8434 10.0309 24.7341 9.79654 24.2653C9.32779 23.4684 7.92154 23.1872 7.35904 23.7966Z" fill="#00BA61"/>
<path d="M28.1257 24.1719C27.7976 24.5469 26.7195 25.0156 25.6882 25.1563C23.532 25.5313 23.5789 26.1875 25.8289 27.3125C27.3757 28.1563 27.3757 28.1563 26.157 28.1563C25.4539 28.1563 24.7976 28.3438 24.657 28.5781C24.282 29.1406 25.5007 29.5625 27.657 29.5625C29.2976 29.5625 29.532 29.75 30.7039 31.7188L31.9695 33.875L33.3757 32.5156C34.8757 31.1094 36.2351 28.7188 36.7507 26.6094C36.9851 25.5313 36.8914 25.3438 36.0945 25.3438C35.5789 25.3438 35.0164 25.6719 34.8757 26.0469C34.6882 26.4219 34.1257 26.75 33.5632 26.7031H32.5789L33.5632 26.2813C34.9695 25.7188 35.2976 24.5 34.2195 23.9375C32.8601 23.1875 28.782 23.375 28.1257 24.1719Z" fill="#00BA61"/>
<path d="M15.937 31.25C14.7651 31.625 13.4995 32 13.1245 32.1406C12.7495 32.3281 14.1558 33.1719 16.6401 34.2969C18.937 35.2812 20.8589 36.125 20.9526 36.125C21.0464 36.125 21.0933 35.375 21.0933 34.4844C21.0933 33.3125 20.7183 32.4219 19.9214 31.6719C18.6558 30.3594 18.7964 30.3594 15.937 31.25Z" fill="#00BA61"/>
</svg>
