<svg width="60" height="61" viewBox="0 0 60 61" fill="none" xmlns="http://www.w3.org/2000/svg">
<g clip-path="url(#clip0_40_4421)">
<path d="M18.3327 28L16.666 33.1667H19.9993L18.3327 28Z" fill="#00BA61"/>
<path d="M50.5007 5.5H23.834V13.8333H30.5007V17.1667H8.83398C6.00065 17.1667 3.83398 19.3333 3.83398 22.1667V40.5C3.83398 43.3333 6.00065 45.5 8.83398 45.5H10.5007V54L21.0007 45.5H32.1673V33.8333H50.5007C53.334 33.8333 55.5007 31.6667 55.5007 28.8333V10.5C55.5007 7.66667 53.334 5.5 50.5007 5.5ZM21.834 38.6667L21.0007 36H15.834L14.834 38.6667H10.834L16.334 23.8333H20.334L25.834 38.6667H21.834ZM47.1673 25.5V28.8333C45.0007 28.8333 42.6673 28.1667 40.6673 27.1667C38.6673 28.1667 36.334 28.6667 34.0007 28.8333L33.834 25.5C35.0007 25.5 36.1673 25.3333 37.334 25C35.834 23.5 34.834 21.6667 34.334 19.6667H37.834C38.334 21.1667 39.334 22.3333 40.5007 23.3333C42.334 21.8333 43.5007 19.6667 43.6673 17.1667H33.6673V13.8333H38.6673V10.5H42.0007V13.8333H47.5007L47.6673 15.5C47.834 19 46.5007 22.5 44.0007 25C45.1673 25.3333 46.1673 25.5 47.1673 25.5Z" fill="#00BA61"/>
</g>
<defs>
<clipPath id="clip0_40_4421">
<rect width="60" height="60" fill="white" transform="translate(0 0.5)"/>
</clipPath>
</defs>
</svg>
