<svg width="24" height="24" viewBox="0 0 24 24" fill="none" xmlns="http://www.w3.org/2000/svg">
<path d="M12 1.5C7.05 1.5 3 5.475 3 10.425V13.05C3 13.125 3 13.125 3 13.2C3 13.275 3 13.425 3 13.5C3 15.6 4.65 17.25 6.75 17.25C7.2 17.25 7.5 16.95 7.5 16.5V10.5C7.5 10.05 7.2 9.75 6.75 9.75C5.925 9.75 5.1 10.05 4.5 10.5V10.35C4.5 6.3 7.875 3 12 3C16.125 3 19.5 6.3 19.5 10.425V10.5C18.9 10.05 18.075 9.75 17.25 9.75C16.8 9.75 16.5 10.05 16.5 10.5V16.5C16.5 16.95 16.8 17.25 17.25 17.25C17.775 17.25 18.3 17.1 18.75 16.95C18 18.525 16.65 19.725 15 20.4C15 20.325 15 20.325 15 20.25C15 19.8 14.7 19.5 14.25 19.5H12C11.55 19.5 11.25 19.8 11.25 20.25V21.75C11.25 22.2 11.55 22.5 12 22.5C16.95 22.5 21 18.6 21 13.8V13.05V11.25V10.425C21 5.475 16.95 1.5 12 1.5Z" fill="black"/>
</svg>
