<svg width="24" height="24" viewBox="0 0 24 24" fill="none" xmlns="http://www.w3.org/2000/svg">
<path d="M7.95031 18.4866C7.93594 18.4866 7.92025 18.484 7.90456 18.4801C6.33004 18.0001 4.62478 16.2792 4.2547 14.7975C4.23376 14.7138 4.28476 14.6301 4.36714 14.6092C4.45084 14.5883 4.53454 14.6393 4.55548 14.7217C4.89679 16.0882 6.53668 17.7373 7.99477 18.1832C8.07718 18.208 8.12293 18.2944 8.09809 18.3767C8.07847 18.4434 8.017 18.4866 7.95031 18.4866Z" fill="#975500"/>
<path d="M8.70129 20.4386C8.68953 20.4386 8.67777 20.4373 8.66598 20.4347C7.3635 20.1313 5.84916 19.1584 4.51266 17.7643C3.26247 16.4618 2.45299 15.0756 2.40068 14.1472C2.39545 14.0621 2.46084 13.9876 2.54715 13.9837C2.63215 13.9785 2.70669 14.0438 2.71061 14.1302C2.75769 14.975 3.55278 16.3167 4.73628 17.5499C6.03222 18.902 7.49034 19.8423 8.7366 20.1326C8.8203 20.1522 8.87262 20.2359 8.853 20.3196C8.83599 20.3902 8.77191 20.4386 8.70129 20.4386Z" fill="#975500"/>
<path d="M15.3774 6.84981C15.3081 6.84981 15.2454 6.80406 15.2271 6.73473C15.0087 5.90565 14.0161 4.71561 13.1125 4.48284C13.0301 4.4619 12.9791 4.37691 13.0013 4.29321C13.0236 4.20951 13.1072 4.15983 13.1909 4.18206C14.2083 4.44492 15.2833 5.72778 15.5278 6.65628C15.5501 6.73866 15.5004 6.82365 15.4167 6.84588C15.4036 6.84852 15.3905 6.84981 15.3774 6.84981Z" fill="#975500"/>
<path d="M17.3352 7.12618C17.2659 7.12618 17.2031 7.07911 17.1848 7.00978C16.6029 4.71865 14.4268 2.931 13.1845 2.70868C13.0995 2.69299 13.0445 2.61322 13.0589 2.52822C13.0746 2.44321 13.1544 2.38829 13.2394 2.40268C14.5929 2.64591 16.8631 4.48849 17.4856 6.93262C17.5065 7.01632 17.4568 7.10002 17.3731 7.12096C17.36 7.12486 17.3483 7.12618 17.3352 7.12618Z" fill="#975500"/>
<path d="M13.4707 11.1967C13.7205 11.4726 13.9455 11.8349 13.85 11.9303C13.7545 12.0258 13.4616 11.8532 13.238 11.6282C13.0143 11.4046 12.4795 13.7847 12.4272 13.905C12.3879 13.9952 11.7655 14.7092 11.4399 15.388C11.3313 15.6142 11.347 16.2968 11.3064 16.3374C11.143 16.5008 10.9351 16.4838 10.4865 16.0876C10.038 15.6913 9.80519 18.0518 10.3401 18.4245C11.2542 19.0627 13.0824 21.5983 15.4977 21.5983C18.2923 21.5983 20.8803 18.6834 20.8803 16.544C20.8803 14.4046 20.2526 13.5937 20.2944 11.8009C20.3284 10.2826 21.4335 9.55812 21.4335 8.79966C21.4335 8.16147 20.4854 8.00586 20.1741 8.00586C19.6223 8.00586 18.2073 8.71335 18.2073 10.5755C18.2073 11.3 18.0007 11.9552 17.2592 11.9552C16.5177 11.9552 15.69 10.9378 15.1891 10.144" fill="url(#paint0_linear_259_8594)"/>
<path d="M21.4323 8.80041C21.4323 8.45388 21.1511 8.24985 20.8451 8.13477C21.2126 9.35226 19.3491 9.40458 19.3491 13.5527C19.3491 17.7008 16.9337 18.9078 15.9333 19.1157C14.9329 19.3224 13.1701 19.3825 11.8284 17.7361C11.4164 17.23 10.858 16.6807 10.2369 16.1616C9.97401 16.5997 9.91779 18.131 10.3402 18.4252C11.2543 19.0634 13.0825 21.5991 15.4978 21.5991C18.2924 21.5991 20.8804 18.6842 20.8804 16.5448C20.8804 14.4053 20.2527 13.5945 20.2946 11.8016C20.3286 10.2834 21.4323 9.5589 21.4323 8.80041Z" fill="url(#paint1_linear_259_8594)"/>
<path d="M10.4854 16.0876C10.0369 15.6914 8.97629 14.5615 8.28584 14.0083C7.59536 13.4565 6.99248 13.463 6.57794 14.0724C6.1634 14.6818 7.37174 15.7515 7.64765 16.0274C8.07005 16.4498 9.80408 18.0518 10.339 18.4258" fill="url(#paint2_linear_259_8594)"/>
<path d="M12.426 13.905C12.3737 14.0253 12.0219 14.109 11.3223 13.3479C10.7874 12.766 9.35546 11.0934 8.51066 10.3349C7.66586 9.57646 7.0094 9.26521 6.45752 9.66277C5.90567 10.0603 6.21953 10.8868 6.83678 11.5773C7.60049 12.4312 8.47928 13.3022 9.32015 14.1391C9.97793 14.7929 11.4674 16.1752 11.304 16.3387" fill="url(#paint3_linear_259_8594)"/>
<path d="M9.32115 14.1385C9.94233 14.7557 11.3024 16.0203 11.3167 16.2988C11.5129 15.9928 11.1546 15.0827 10.7753 14.7636C8.5836 12.9184 6.46641 9.9433 6.19701 10.0322C6.08193 10.4651 6.37356 11.0588 6.83649 11.5779C7.6002 12.4306 8.47899 13.3029 9.32115 14.1385Z" fill="url(#paint4_linear_259_8594)"/>
<path d="M15.1881 10.1459C14.6873 9.35215 12.6341 6.79948 12.1346 6.07501C11.6337 5.35051 10.9615 5.35051 10.496 5.67877C10.0305 6.007 9.89184 6.66217 10.9406 8.05489C11.6023 8.93368 12.1516 9.74185 13.4724 11.1986L15.0076 11.0914L15.1881 10.1459Z" fill="url(#paint5_linear_259_8594)"/>
<path d="M13.2374 11.6286C13.0138 11.405 11.03 9.05368 10.5814 8.5489C9.7406 7.60471 8.67479 5.58166 7.40369 6.48268C6.73544 6.95608 7.09769 7.64263 7.28729 7.91857C7.47692 8.19451 9.94328 11.0414 10.1852 11.282C10.4272 11.524 12.479 13.7837 12.428 13.904" fill="url(#paint6_linear_259_8594)"/>
<path d="M13.4711 11.1971C13.7117 11.4626 13.9275 11.8065 13.8595 11.9177C14.6598 11.2743 12.9676 9.38329 12.0091 8.24818C11.2676 7.36939 11.0649 6.25129 10.5339 5.65234C10.5208 5.6602 10.5091 5.66935 10.496 5.67718C10.0305 6.00544 9.89184 6.66061 10.9406 8.05333C11.601 8.93212 12.1516 9.74161 13.4711 11.1971Z" fill="url(#paint7_linear_259_8594)"/>
<path d="M10.183 11.2832C10.425 11.5252 12.4768 13.7849 12.4258 13.9052C13.06 13.0513 10.6015 10.5418 9.41147 9.27328C8.37968 8.17348 8.20313 7.21099 7.19618 6.6709C6.82217 7.12339 7.11902 7.67785 7.2851 7.91977C7.47473 8.19571 9.94241 11.0426 10.183 11.2832Z" fill="url(#paint8_linear_259_8594)"/>
<path d="M12.3802 13.9567C12.3083 14.0012 12.1605 14.0051 11.9316 13.873C12.1017 14.0104 12.2586 14.0626 12.3802 13.9567Z" fill="url(#paint9_linear_259_8594)"/>
<path d="M20.3179 8.26479C20.8449 8.17062 20.9377 8.2308 20.8435 8.13402C20.5872 8.03856 20.3126 8.00586 20.1714 8.00586C19.6195 8.00586 18.2046 8.71335 18.2046 10.5755C18.2046 11.3 17.998 11.9552 17.2552 11.9552C16.9622 11.9552 16.6575 11.797 16.3633 11.5563C17.6658 12.9988 18.6871 11.64 18.8427 10.7089C18.9984 9.77784 18.7721 8.54202 20.3179 8.26479Z" fill="url(#paint10_radial_259_8594)"/>
<path d="M10.3363 5.81836C10.0146 6.18322 10.025 6.8371 10.9391 8.05327C11.6008 8.93206 12.1501 9.74023 13.4709 11.197C13.7206 11.473 13.9456 11.8352 13.8501 11.9307C14.0711 10.4216 11.9225 8.93728 11.2242 7.79956C10.6711 6.89725 10.5612 6.36499 10.3363 5.81836Z" fill="url(#paint11_linear_259_8594)"/>
<path d="M10.1835 11.2835C10.4254 11.5254 12.4773 13.7852 12.4263 13.9055C12.8787 13.5825 12.5701 13.079 11.8705 12.3794C10.4359 10.9448 8.43902 9.0172 7.63607 7.42963C7.56023 7.27924 7.41899 7.16809 7.25291 7.14715C6.82004 7.09093 7.14176 7.70947 7.2869 7.92001C7.47521 8.19595 9.94289 11.0429 10.1835 11.2835Z" fill="url(#paint12_linear_259_8594)"/>
<path d="M6.83729 11.5776C7.601 12.4316 8.47979 13.3025 9.32066 14.1395C9.97844 14.7933 11.4679 16.1756 11.3045 16.3391C12.2277 15.5623 7.9397 12.7546 6.19652 10.0332C6.08273 10.4635 6.37436 11.0585 6.83729 11.5776Z" fill="url(#paint13_linear_259_8594)"/>
<path d="M11.1168 16.4932C11.2044 16.4592 11.2502 16.4187 11.2646 16.3742C11.1063 16.4959 10.8984 16.4527 10.4865 16.0878C10.0379 15.6916 8.97737 14.5617 8.28689 14.0086C7.9835 13.7666 7.69712 13.6319 7.43555 13.6084C7.80956 13.8425 7.63565 13.9262 8.46737 14.5643C8.91461 14.907 10.5466 16.7168 11.1168 16.4932Z" fill="url(#paint14_linear_259_8594)"/>
<path d="M10.0303 12.3527C10.6357 13.0903 11.8179 14.3078 12.3489 13.9717C12.2024 14.0214 11.8689 13.9403 11.3249 13.3479C10.7901 12.766 9.35811 11.0934 8.51331 10.3349C7.82937 9.72028 7.26837 9.39988 6.78711 9.51103C8.18769 9.97135 9.45618 11.6557 10.0303 12.3527Z" fill="url(#paint15_linear_259_8594)"/>
<path d="M10.6838 9.17944C11.6502 10.2309 13.0848 12.3167 13.8119 11.9518C13.6929 11.9884 13.4366 11.8302 13.2365 11.6288C13.0129 11.4052 11.0291 9.05392 10.5805 8.54914C9.9973 7.89526 9.3081 6.72355 8.51562 6.36523C9.31465 6.99556 9.90052 8.32813 10.6838 9.17944Z" fill="url(#paint16_linear_259_8594)"/>
<path d="M16.3635 11.5576C16.3648 11.5576 16.3648 11.5576 16.3635 11.5576C15.9123 11.1888 15.4886 10.6252 15.1852 10.1452C14.6857 9.35145 12.6325 6.79878 12.133 6.07431C11.98 5.8533 11.8126 5.7003 11.6387 5.60352C11.8714 5.93829 12.0035 6.41562 12.5305 7.00671C13.3753 7.9548 14.4803 9.66269 14.8596 10.2499C15.2375 10.8344 15.8495 12.0715 16.3635 11.5576Z" fill="url(#paint17_linear_259_8594)"/>
<path d="M19.1304 19.9769C18.8166 19.2132 18.3576 18.7477 17.6946 19.1845C15.886 20.3758 13.8054 19.973 11.1965 17.865C8.87005 15.9832 7.66693 14.6388 6.53446 14.1523C6.26245 14.7709 7.38187 15.7635 7.64602 16.0276C8.06842 16.45 9.80245 18.052 10.3373 18.426C11.2514 19.0642 13.0796 21.5998 15.495 21.5998C16.8459 21.5985 18.1457 20.9198 19.1304 19.9769Z" fill="url(#paint18_linear_259_8594)"/>
<path d="M20.2922 11.8012C20.3262 10.283 21.4313 9.55851 21.4313 8.80002C21.4313 8.5764 21.3149 8.41296 21.1501 8.29395C21.3515 8.88504 20.8715 9.40944 20.1549 10.3013C19.3781 11.2677 19.2068 12.7677 19.7404 14.2689C20.2752 15.7702 19.6017 17.8403 18.515 18.4955C17.4283 19.1507 15.9846 22.0316 11.8508 18.7767C11.8496 18.7753 11.8496 18.7753 11.8482 18.774C11.5958 18.54 11.3461 18.332 11.0937 18.1751C9.34788 17.0936 8.35269 16.1207 7.60074 15.3034C7.45299 15.1425 7.05543 14.5266 6.58203 14.7292C6.81873 15.2654 7.4556 15.8369 7.64652 16.0278C8.06892 16.4502 9.80295 18.0522 10.3378 18.4262C10.4071 18.4746 10.483 18.5347 10.5627 18.604C10.5837 18.6223 10.6046 18.6406 10.6255 18.6589C10.6307 18.6642 10.6373 18.6694 10.6425 18.6733C10.6556 18.6851 10.67 18.6982 10.6831 18.71C10.6857 18.7126 10.6896 18.7152 10.6922 18.7191C11.2349 19.2121 11.9816 20.0281 12.897 20.665C12.897 20.665 12.8984 20.665 12.8984 20.6663C12.9781 20.7226 13.0605 20.7775 13.1429 20.8298C13.1442 20.8311 13.1455 20.8311 13.1468 20.8324C13.2292 20.8847 13.3129 20.9357 13.3966 20.9841C13.3979 20.9841 13.3979 20.9854 13.3992 20.9854C14.0321 21.349 14.7344 21.6 15.4929 21.6C18.2875 21.6 20.8754 18.6851 20.8754 16.5457C20.8754 14.4062 20.2517 13.5955 20.2922 11.8012Z" fill="url(#paint19_radial_259_8594)"/>
<defs>
<linearGradient id="paint0_linear_259_8594" x1="19.5217" y1="22.1518" x2="17.2189" y2="16.7566" gradientUnits="userSpaceOnUse">
<stop offset="0.00132565" stop-color="#FFCB4B"/>
<stop offset="1" stop-color="#FFD748"/>
</linearGradient>
<linearGradient id="paint1_linear_259_8594" x1="19.9801" y1="18.4001" x2="15.1501" y2="12.6386" gradientUnits="userSpaceOnUse">
<stop offset="0.00132565" stop-color="#FFCB4B"/>
<stop offset="1" stop-color="#FFD748"/>
</linearGradient>
<linearGradient id="paint2_linear_259_8594" x1="7.06877" y1="14.5636" x2="9.91502" y2="16.6594" gradientUnits="userSpaceOnUse">
<stop offset="0.00132565" stop-color="#FFCB4B"/>
<stop offset="1" stop-color="#FFD748"/>
</linearGradient>
<linearGradient id="paint3_linear_259_8594" x1="6.0323" y1="9.01621" x2="11.0262" y2="14.243" gradientUnits="userSpaceOnUse">
<stop offset="0.00132565" stop-color="#FFCB4B"/>
<stop offset="1" stop-color="#FFD748"/>
</linearGradient>
<linearGradient id="paint4_linear_259_8594" x1="9.86568" y1="12.1207" x2="8.21487" y2="13.6758" gradientUnits="userSpaceOnUse">
<stop stop-color="#FFBC47" stop-opacity="0"/>
<stop offset="1" stop-color="#FFA754"/>
</linearGradient>
<linearGradient id="paint5_linear_259_8594" x1="11.4278" y1="6.55087" x2="14.3258" y2="11.1049" gradientUnits="userSpaceOnUse">
<stop offset="0.00132565" stop-color="#FFCB4B"/>
<stop offset="1" stop-color="#FFD748"/>
</linearGradient>
<linearGradient id="paint6_linear_259_8594" x1="8.43542" y1="7.30708" x2="12.3684" y2="12.6201" gradientUnits="userSpaceOnUse">
<stop offset="0.00132565" stop-color="#FFCB4B"/>
<stop offset="1" stop-color="#FFD748"/>
</linearGradient>
<linearGradient id="paint7_linear_259_8594" x1="13.1138" y1="7.94824" x2="10.6298" y2="10.1907" gradientUnits="userSpaceOnUse">
<stop stop-color="#FFBC47" stop-opacity="0"/>
<stop offset="1" stop-color="#FFA754"/>
</linearGradient>
<linearGradient id="paint8_linear_259_8594" x1="10.8272" y1="9.54574" x2="7.41167" y2="12.0427" gradientUnits="userSpaceOnUse">
<stop stop-color="#FFBC47" stop-opacity="0"/>
<stop offset="1" stop-color="#FFA754"/>
</linearGradient>
<linearGradient id="paint9_linear_259_8594" x1="13.3717" y1="13.0266" x2="9.95616" y2="15.5235" gradientUnits="userSpaceOnUse">
<stop stop-color="#FFBC47" stop-opacity="0"/>
<stop offset="1" stop-color="#FFA754"/>
</linearGradient>
<radialGradient id="paint10_radial_259_8594" cx="0" cy="0" r="1" gradientUnits="userSpaceOnUse" gradientTransform="translate(17.8531 8.9721) scale(4.10043)">
<stop stop-color="#FFBC47" stop-opacity="0"/>
<stop offset="1" stop-color="#FFA754"/>
</radialGradient>
<linearGradient id="paint11_linear_259_8594" x1="13.5682" y1="7.50778" x2="11.4464" y2="9.47428" gradientUnits="userSpaceOnUse">
<stop offset="0.3118" stop-color="#FFBC47" stop-opacity="0"/>
<stop offset="1" stop-color="#FF8900"/>
</linearGradient>
<linearGradient id="paint12_linear_259_8594" x1="11.9424" y1="8.57377" x2="9.14789" y2="11.0923" gradientUnits="userSpaceOnUse">
<stop offset="0.3118" stop-color="#FFBC47" stop-opacity="0"/>
<stop offset="1" stop-color="#FF8900"/>
</linearGradient>
<linearGradient id="paint13_linear_259_8594" x1="10.9982" y1="11.2977" x2="7.5482" y2="14.1957" gradientUnits="userSpaceOnUse">
<stop offset="0.3118" stop-color="#FFBC47" stop-opacity="0"/>
<stop offset="1" stop-color="#FF8900"/>
</linearGradient>
<linearGradient id="paint14_linear_259_8594" x1="7.23437" y1="13.4028" x2="11.245" y2="16.6631" gradientUnits="userSpaceOnUse">
<stop stop-color="#FFBC47" stop-opacity="0"/>
<stop offset="1" stop-color="#FFBC47"/>
</linearGradient>
<linearGradient id="paint15_linear_259_8594" x1="8.0022" y1="9.36142" x2="11.1331" y2="14.1224" gradientUnits="userSpaceOnUse">
<stop stop-color="#FFBC47" stop-opacity="0"/>
<stop offset="1" stop-color="#FFBC47"/>
</linearGradient>
<linearGradient id="paint16_linear_259_8594" x1="10.453" y1="9.7021" x2="11.3328" y2="9.02935" gradientUnits="userSpaceOnUse">
<stop stop-color="#FFBC47" stop-opacity="0"/>
<stop offset="1" stop-color="#FFA754"/>
</linearGradient>
<linearGradient id="paint17_linear_259_8594" x1="14.7945" y1="12.3594" x2="13.6215" y2="6.77037" gradientUnits="userSpaceOnUse">
<stop stop-color="#FFBC47" stop-opacity="0"/>
<stop offset="1" stop-color="#FFBC47"/>
</linearGradient>
<linearGradient id="paint18_linear_259_8594" x1="12.1166" y1="17.7236" x2="10.3571" y2="19.3408" gradientUnits="userSpaceOnUse">
<stop offset="0.3118" stop-color="#FFBC47" stop-opacity="0"/>
<stop offset="1" stop-color="#FF8900"/>
</linearGradient>
<radialGradient id="paint19_radial_259_8594" cx="0" cy="0" r="1" gradientUnits="userSpaceOnUse" gradientTransform="translate(13.2825 12.3792) rotate(48.1401) scale(11.8853 10.7882)">
<stop offset="0.6134" stop-color="#FFBC47" stop-opacity="0"/>
<stop offset="1" stop-color="#FF8900"/>
</radialGradient>
</defs>
</svg>
