<svg width="36" height="36" viewBox="0 0 36 36" fill="none" xmlns="http://www.w3.org/2000/svg">
<rect width="36" height="36" rx="4.90909" fill="#464646"/>
<path d="M11.2686 16.5002C11.2661 15.6146 11.4384 14.7373 11.7755 13.9184C12.1127 13.0996 12.6081 12.3553 13.2335 11.7282C13.8588 11.1012 14.6017 10.6037 15.4196 10.2642C16.2375 9.92474 17.1143 9.75 17.9999 9.75C18.8854 9.75 19.7623 9.92474 20.5802 10.2642C21.3981 10.6037 22.141 11.1012 22.7663 11.7282C23.3916 12.3553 23.8871 13.0996 24.2242 13.9184C24.5614 14.7373 24.7337 15.6146 24.7312 16.5002V16.5002C24.7312 19.8579 25.4337 21.8063 26.0524 22.8712C26.1191 22.985 26.1546 23.1144 26.1553 23.2462C26.156 23.3781 26.1219 23.5078 26.0565 23.6223C25.991 23.7368 25.8966 23.8321 25.7826 23.8984C25.6686 23.9647 25.5392 23.9998 25.4073 24.0002H10.5917C10.4598 23.9998 10.3304 23.9647 10.2164 23.8984C10.1024 23.832 10.0079 23.7368 9.94252 23.6223C9.8771 23.5077 9.84303 23.378 9.84376 23.2461C9.84449 23.1142 9.87999 22.9849 9.94667 22.8711C10.5657 21.8061 11.2685 19.8577 11.2685 16.5002H11.2686Z" stroke="white" stroke-width="1.5" stroke-linecap="round" stroke-linejoin="round"/>
<path d="M15 24V24.75C15 25.5456 15.3161 26.3087 15.8787 26.8713C16.4413 27.4339 17.2044 27.75 18 27.75C18.7956 27.75 19.5587 27.4339 20.1213 26.8713C20.6839 26.3087 21 25.5456 21 24.75V24" stroke="white" stroke-width="1.5" stroke-linecap="round" stroke-linejoin="round"/>
<path d="M23.1973 8.24902C24.7234 9.21245 25.9536 10.5788 26.7521 12.1974" stroke="white" stroke-width="1.5" stroke-linecap="round" stroke-linejoin="round"/>
<path d="M9.24805 12.1974C10.0466 10.5788 11.2768 9.21245 12.8029 8.24902" stroke="white" stroke-width="1.5" stroke-linecap="round" stroke-linejoin="round"/>
</svg>
