<svg width="36" height="36" viewBox="0 0 36 36" fill="none" xmlns="http://www.w3.org/2000/svg">
<rect width="36" height="36" rx="4.90909" fill="#957BF9"/>
<path d="M22.2456 14.2929C22.6361 13.9024 23.2693 13.9024 23.6598 14.2929C24.0504 14.6834 24.0504 15.3166 23.6598 15.7071L17.9048 21.4611C17.1237 22.242 15.8575 22.242 15.0765 21.461L13.2934 19.6779C12.9029 19.2874 12.9029 18.6542 13.2934 18.2637C13.6839 17.8732 14.3171 17.8732 14.7076 18.2637L15.7841 19.3402C16.1746 19.7307 16.8078 19.7307 17.1983 19.3402L22.2456 14.2929Z" fill="white"/>
<path fill-rule="evenodd" clip-rule="evenodd" d="M18.0005 7.00195C17.0273 7.00195 16.3027 7.39456 15.6868 7.72824C15.5434 7.80594 15.4059 7.88044 15.2725 7.94605C14.4975 8.32729 13.3231 8.78014 10.9359 8.94144C9.36885 9.04732 7.97469 10.323 8.03718 12.0378C8.13996 14.8585 8.46718 17.7444 9.12526 20.1763C9.76919 22.5559 10.7888 24.7274 12.4458 25.8321C14.0304 26.8885 15.3338 27.8042 16.2058 28.4293C17.2765 29.1969 18.7245 29.1969 19.7952 28.4293C20.6672 27.8042 21.9706 26.8885 23.5552 25.8321C25.2122 24.7274 26.2318 22.5559 26.8758 20.1763C27.5338 17.7445 27.8611 14.8586 27.9638 12.0378C28.0263 10.323 26.6322 9.04732 25.0651 8.94144C22.6779 8.78014 21.5035 8.32729 20.7285 7.94605C20.5951 7.88045 20.4577 7.80596 20.3143 7.72828C19.6984 7.39459 18.9737 7.00195 18.0005 7.00195ZM11.0707 10.9369C13.7033 10.759 15.1336 10.2433 16.1553 9.74068C16.4472 9.5971 16.6729 9.47746 16.8582 9.37923C17.3653 9.11045 17.5699 9.00195 18.0005 9.00195C18.4311 9.00195 18.6357 9.11045 19.1428 9.37923C19.3281 9.47746 19.5538 9.5971 19.8457 9.74068C20.8674 10.2433 22.2977 10.759 24.9303 10.9369C25.5673 10.9799 25.9831 11.4722 25.9652 11.965C25.8655 14.7007 25.5492 17.4218 24.9452 19.6539C24.327 21.9383 23.4658 23.4879 22.4458 24.1679C20.839 25.2392 19.5168 26.1681 18.63 26.8038C18.2558 27.072 17.7452 27.072 17.371 26.8038C16.4843 26.1681 15.162 25.2392 13.5552 24.1679C12.5352 23.4879 11.674 21.9383 11.0558 19.6538C10.4518 17.4217 10.1355 14.7006 10.0359 11.965C10.0179 11.4722 10.4337 10.9799 11.0707 10.9369Z" fill="white"/>
</svg>
