<svg width="24" height="16" viewBox="0 0 24 16" fill="none" xmlns="http://www.w3.org/2000/svg">
<g clip-path="url(#clip0_172_8493)">
<path d="M0 2C0 0.895431 0.895431 0 2 0H22C23.1046 0 24 0.895431 24 2V14C24 15.1046 23.1046 16 22 16H2C0.89543 16 0 15.1046 0 14V2Z" fill="#D8DDF3"/>
<path d="M16.1266 5.01562C16.1266 5.0798 16.1266 5.14397 16.0625 5.20814C15.5491 7.77499 13.8807 8.60921 11.6988 8.60921H10.6079C10.3512 8.60921 10.0946 8.80172 10.0946 9.05841L9.51701 12.652L9.38867 13.6787C9.38867 13.8712 9.51701 13.9996 9.64535 13.9996H11.6347C11.8913 13.9996 12.0839 13.8071 12.0839 13.6146V13.4862L12.4689 11.1761V11.0477C12.5331 10.791 12.7256 10.6627 12.9181 10.6627H13.2389C15.1641 10.6627 16.64 9.89263 17.025 7.64664C17.2175 6.68408 17.0892 5.91402 16.64 5.40065C16.5117 5.27231 16.3192 5.14397 16.1266 5.01562Z" fill="#2199D6"/>
<path d="M15.6144 4.82337C15.5502 4.82337 15.4861 4.7592 15.3577 4.7592C15.2936 4.7592 15.1652 4.69503 15.101 4.69503C14.7802 4.63086 14.4593 4.63086 14.1385 4.63086H11.1866C11.1224 4.63086 11.0583 4.63086 10.9941 4.69503C10.8658 4.7592 10.7374 4.88754 10.7374 5.01589L10.0957 8.9945V9.12284C10.1599 8.86615 10.3524 8.67364 10.6091 8.67364H11.7C13.8818 8.67364 15.5502 7.77524 16.0636 5.27257C16.0636 5.2084 16.0636 5.14423 16.1278 5.08006C15.9994 5.01589 15.8711 4.95172 15.7428 4.88754C15.6786 4.82337 15.6144 4.82337 15.6144 4.82337Z" fill="#252C5E"/>
<path d="M10.737 5.01604C10.737 4.8877 10.8653 4.75936 10.9937 4.69519C11.0578 4.69519 11.122 4.63102 11.1862 4.63102H14.138C14.4589 4.63102 14.8439 4.63101 15.1006 4.69519C15.1648 4.69519 15.2931 4.69519 15.3573 4.75936C15.4215 4.75936 15.4856 4.82353 15.614 4.82353C15.6782 4.82353 15.6782 4.82353 15.7423 4.8877C15.8707 4.95187 15.999 5.01604 16.1274 5.08021C16.2557 4.11765 16.1274 3.47593 15.614 2.89839C15.0364 2.25668 14.0097 2 12.7263 2H8.94019C8.68351 2 8.42682 2.19251 8.42682 2.4492L6.88672 12.3316C6.88672 12.5241 7.01506 12.7166 7.20757 12.7166H9.51773L10.0953 8.99465L10.737 5.01604Z" fill="#263577"/>
</g>
<defs>
<clipPath id="clip0_172_8493">
<rect width="24" height="16" fill="white"/>
</clipPath>
</defs>
</svg>
