<svg width="18" height="18" viewBox="0 0 18 18" fill="none" xmlns="http://www.w3.org/2000/svg">
<g clip-path="url(#clip0_258_8902)">
<path d="M17.9652 7.13672C17.9301 7.01953 17.8627 6.92578 17.7631 6.85547C17.6635 6.78516 17.5551 6.75 17.4379 6.75H11.4086L9.52773 1.03711C9.49258 0.919922 9.4252 0.826172 9.32559 0.755859C9.22598 0.685547 9.11758 0.650391 9.00039 0.650391C8.8832 0.650391 8.7748 0.685547 8.6752 0.755859C8.57559 0.826172 8.5082 0.919922 8.47305 1.03711L6.59219 6.75H0.562891C0.445703 6.75 0.337305 6.78516 0.237695 6.85547C0.138086 6.92578 0.0707031 7.01953 0.0355469 7.13672C-0.0113281 7.25391 -0.0142578 7.37109 0.0267578 7.48828C0.0677734 7.60547 0.135156 7.69922 0.228906 7.76953L5.11562 11.3027L3.25234 17.0156C3.21719 17.1328 3.21719 17.2471 3.25234 17.3584C3.2875 17.4697 3.35195 17.5664 3.4457 17.6484C3.55117 17.7188 3.66543 17.7539 3.78848 17.7539C3.91152 17.7539 4.01992 17.7188 4.11367 17.6484L9.00039 14.1152L13.8871 17.6484C13.934 17.6836 13.9867 17.71 14.0453 17.7275C14.1039 17.7451 14.1625 17.7539 14.2211 17.7539C14.2797 17.7539 14.3354 17.7451 14.3881 17.7275C14.4408 17.71 14.4965 17.6836 14.5551 17.6484C14.6488 17.5664 14.7133 17.4697 14.7484 17.3584C14.7836 17.2471 14.7836 17.1328 14.7484 17.0156L12.8852 11.3027L17.7719 7.76953C17.8656 7.69922 17.933 7.60547 17.974 7.48828C18.015 7.37109 18.0121 7.25391 17.9652 7.13672Z" fill="#B1B9C3"/>
</g>
<defs>
<clipPath id="clip0_258_8902">
<rect width="18" height="18" fill="white" transform="matrix(1 0 0 -1 0 18)"/>
</clipPath>
</defs>
</svg>
