<svg width="24" height="24" viewBox="0 0 24 24" fill="none" xmlns="http://www.w3.org/2000/svg">
<g opacity="0.3">
<path fill-rule="evenodd" clip-rule="evenodd" d="M2.33303 8.2752C2.29522 8.50202 2.2669 8.7103 2.24566 8.8954C2.07176 8.94878 1.88436 9.01996 1.69395 9.11517C1.29181 9.31624 0.856484 9.63497 0.524127 10.1336C0.187222 10.6389 0 11.2636 0 12C0 12.7364 0.187222 13.3611 0.524127 13.8664C0.856484 14.365 1.29181 14.6837 1.69395 14.8848C1.88436 14.98 2.07176 15.0512 2.24566 15.1046C2.26689 15.2897 2.29522 15.498 2.33303 15.7248C2.48129 16.6144 2.77988 17.8173 3.38789 19.0333C3.99806 20.2536 4.93043 21.5072 6.34942 22.4532C7.77524 23.4037 9.62729 24 12 24C14.3727 24 16.2248 23.4037 17.6506 22.4532C19.0695 21.5072 20.0019 20.2536 20.6121 19.0333C21.2201 17.8173 21.5187 16.6144 21.667 15.7248C21.7047 15.498 21.7331 15.2897 21.7544 15.1046C21.9283 15.0512 22.1157 14.98 22.306 14.8848C22.7081 14.6837 23.1435 14.365 23.4759 13.8664C23.8128 13.3611 24 12.7364 24 12C24 11.2636 23.8128 10.6389 23.4759 10.1336C23.1435 9.63497 22.7081 9.31624 22.306 9.11517C22.1157 9.01996 21.9283 8.94878 21.7544 8.8954C21.7331 8.7103 21.7047 8.50202 21.667 8.2752C21.5187 7.38557 21.2201 6.18273 20.6121 4.96667C20.0019 3.74636 19.0695 2.49285 17.6506 1.54685C16.2248 0.596313 14.3727 0 12 0C9.62729 0 7.77524 0.596313 6.34942 1.54685C4.93044 2.49285 3.99806 3.74636 3.38791 4.96668C2.77988 6.18273 2.48129 7.38557 2.33303 8.2752ZM19.53 15.2727H4.47003C4.58879 16.0276 4.83605 17.0509 5.33938 18.0576C5.82012 19.0191 6.52412 19.9474 7.55967 20.6377C8.5884 21.3236 10.0091 21.8182 12 21.8182C13.9909 21.8182 15.4116 21.3236 16.4403 20.6377C17.4759 19.9474 18.1799 19.0191 18.6607 18.0576C19.1639 17.0509 19.4112 16.0276 19.53 15.2727ZM19.53 8.72727H18.5455C17.9429 8.72727 17.4545 9.21568 17.4545 9.81818C17.4545 10.4207 17.9429 10.9091 18.5455 10.9091H20.7273C21.0637 10.9222 21.4646 11.0499 21.6604 11.3437C21.7327 11.452 21.8182 11.6455 21.8182 12C21.8182 12.3545 21.7327 12.548 21.6604 12.6563C21.4646 12.9501 21.0637 13.0778 20.7273 13.0909H3.27273C2.93624 13.0778 2.53543 12.9501 2.33951 12.6563C2.26732 12.548 2.18182 12.3545 2.18182 12C2.18182 11.6455 2.26732 11.452 2.33951 11.3437C2.53543 11.0499 2.93624 10.9222 3.27273 10.9091H5.45455C6.05703 10.9091 6.54545 10.4207 6.54545 9.81818C6.54545 9.21568 6.05703 8.72727 5.45455 8.72727H4.47003C4.58879 7.97241 4.83607 6.94905 5.33938 5.94241C5.82013 4.98092 6.52412 4.05261 7.55968 3.36224C7.90301 3.13335 8.29 2.92576 8.72727 2.75075V5.45455C8.72727 6.05703 9.21568 6.54545 9.81818 6.54545C10.4207 6.54545 10.9091 6.05703 10.9091 5.45455V2.23497C11.2523 2.20027 11.6156 2.18182 12 2.18182C12.3844 2.18182 12.7477 2.20027 13.0909 2.23497V5.45455C13.0909 6.05703 13.5793 6.54545 14.1818 6.54545C14.7843 6.54545 15.2727 6.05703 15.2727 5.45455V2.75075C15.71 2.92576 16.097 3.13335 16.4403 3.36224C17.4759 4.05261 18.1799 4.98092 18.6607 5.94241C19.1639 6.94905 19.4112 7.97241 19.53 8.72727Z" fill="#0F0F0F"/>
</g>
</svg>
