<svg width="60" height="61" viewBox="0 0 60 61" fill="none" xmlns="http://www.w3.org/2000/svg">
<path d="M22.5 53V45.5H5V40.5H22.5C23.875 40.5 25.0525 40.99 26.0325 41.97C27.0125 42.95 27.5017 44.1267 27.5 45.5V53H22.5ZM32.5 53V45.5C32.5 44.125 32.99 42.9483 33.97 41.97C34.95 40.9917 36.1267 40.5017 37.5 40.5H55V45.5H37.5V53H32.5ZM15 38C12.9167 38 11.1458 37.2708 9.6875 35.8125C8.22917 34.3542 7.5 32.5833 7.5 30.5V20.5H52.5V30.5C52.5 32.5833 51.7708 34.3542 50.3125 35.8125C48.8542 37.2708 47.0833 38 45 38H15ZM7.5 18V13H22.5V10.5C22.5 9.79167 22.74 9.19833 23.22 8.72C23.7 8.24167 24.2933 8.00167 25 8H35C35.7083 8 36.3025 8.24 36.7825 8.72C37.2625 9.2 37.5017 9.79333 37.5 10.5V13H52.5V18H7.5Z" fill="#00BA61"/>
</svg>
