<svg width="60" height="51" viewBox="0 0 60 51" fill="none" xmlns="http://www.w3.org/2000/svg">
<g clip-path="url(#clip0_40_4432)">
<path d="M28.1016 0.100243C28.1016 0.150243 27.8611 0.262743 27.5573 0.337743C25.8484 0.800243 25.013 2.28774 24.8484 5.18774L24.7852 6.56274L25.8991 7.20024C26.5193 7.53774 28.2788 8.55024 29.8105 9.43774C34.2155 11.9752 34.4814 12.1252 34.57 12.0252C34.6965 11.8752 35.3421 9.36274 35.2662 9.28774C35.2282 9.25024 34.5826 8.85024 33.8358 8.38774L32.4687 7.55024L32.4307 6.02524L32.3928 4.50024H34.9371C36.3295 4.50024 37.4687 4.46274 37.4687 4.42524C37.4687 4.21274 36.051 2.62524 35.3295 2.03774C34.4814 1.35024 32.4434 0.250243 32.013 0.250243C31.8864 0.250243 31.7725 0.187743 31.7725 0.125243C31.7725 0.0502434 31.0763 0.000243187 29.9371 0.000243187C28.9244 0.000243187 28.1016 0.0502434 28.1016 0.100243Z" fill="#00BA61"/>
<path d="M32.7852 6.11279V7.22529L33.3928 7.57529C33.7219 7.76279 34.1143 8.00029 34.2662 8.08779C34.532 8.26279 34.5573 8.25029 34.7472 7.80029C35.0003 7.21279 35.1269 6.05029 35.013 5.45029L34.9244 5.00029H33.8611H32.7852V6.11279Z" fill="#00BA61"/>
<path d="M26.0883 8.26297C26.4933 9.05047 27.3794 9.91297 28.1769 10.3005C29.0123 10.713 30.3794 10.963 30.7718 10.8005C30.9996 10.7005 30.6832 10.4755 28.4933 9.21297C27.1009 8.41297 25.9237 7.75047 25.8857 7.75047C25.8477 7.75047 25.9364 7.98797 26.0883 8.26297Z" fill="#00BA61"/>
<path d="M23.5197 10.6629C21.4691 11.5254 20.4818 13.1379 19.5577 17.2004C19.0514 19.4254 18.9248 21.3004 19.0894 23.6254C19.3172 26.5504 19.7856 27.7754 21.0008 28.5629C22.0134 29.2379 22.3932 29.2879 26.8742 29.3504C29.8742 29.3879 31.0134 29.4379 31.0134 29.5504C31.0134 29.6254 30.697 30.9504 30.3172 32.5004C28.6083 39.3254 28.697 38.8754 28.8615 39.6004C29.0387 40.3879 29.583 41.0629 30.3172 41.3879C31.5324 41.9379 33.1273 41.4129 33.7223 40.2754C34.0261 39.7004 37.0894 27.2754 37.0894 26.6504C37.0894 26.3254 36.9881 25.8629 36.8615 25.6254C36.6463 25.2004 36.621 25.1879 35.1906 24.9254C34.3932 24.7754 33.3678 24.5254 32.9121 24.3879C32.1906 24.1629 31.7729 24.1254 29.4058 24.1254H26.7096L26.7223 23.4004C26.7223 23.0129 26.7729 22.3504 26.8235 21.9379L26.9248 21.2004L25.9754 20.2004C24.14 18.2629 22.659 15.6004 22.659 14.2379C22.659 12.5129 24.7096 11.5254 26.064 12.6004C26.5577 13.0004 26.621 13.0879 27.2919 14.5879C27.5451 15.1629 27.7982 15.6254 27.8489 15.6254C28.1147 15.6254 28.1906 13.5254 27.9628 12.6879C27.7602 11.9504 27.14 11.0504 26.6083 10.7379C25.8868 10.3129 24.4565 10.2754 23.5197 10.6629Z" fill="#00BA61"/>
<path d="M0.810127 12.1246C0.658228 12.1871 0.455696 12.3496 0.35443 12.4871C0.253165 12.6371 0.126582 12.7121 0.0886076 12.6621C0.0379747 12.6246 0 16.2746 0 20.7996C0 25.5996 0.0506329 28.9871 0.113924 28.9496C0.177215 28.9121 0.253165 28.9621 0.291139 29.0621C0.329114 29.1496 0.544304 29.3246 0.759494 29.4371C1.10127 29.6121 2.05063 29.6246 9.18987 29.5996L17.2405 29.5621L17.6076 29.1496L17.9747 28.7496V20.8746C17.9747 16.4121 17.9241 12.8871 17.8608 12.7121C17.7975 12.5496 17.5443 12.3246 17.3038 12.2121C16.9114 12.0246 16.0633 11.9996 8.96203 12.0121C4.63291 12.0121 0.949367 12.0621 0.810127 12.1246Z" fill="#00BA61"/>
<path d="M23.9619 12.8746C23.0252 13.4246 22.8986 14.1871 23.4809 15.5621C25.4429 20.1996 29.4176 23.2621 34.8733 24.3746C36.367 24.6746 36.6075 24.6871 37.1771 24.4121C38.3923 23.8496 38.3796 22.1246 37.1518 21.4746C37.0126 21.3996 36.4682 21.2621 35.9366 21.1746C31.4936 20.4121 28.1771 17.9621 26.5948 14.2621C26.2404 13.4496 26.0252 13.1246 25.6961 12.9121C25.1771 12.5621 24.5062 12.5496 23.9619 12.8746Z" fill="#00BA61"/>
<path d="M46.9997 18.0751C46.2656 18.3376 45.4048 19.1376 45.0124 19.9001C44.5947 20.7251 44.5567 22.1501 44.9238 22.9501C45.4934 24.1751 46.62 24.9876 47.8985 25.0876C48.6073 25.1501 48.7213 25.1251 48.9618 24.8626C49.544 24.2501 49.7845 23.3126 49.7972 21.6251C49.8099 19.8626 49.5947 18.9126 49.0377 18.2626C48.7592 17.9251 48.6326 17.8751 48.1263 17.8876C47.7972 17.8876 47.2909 17.9751 46.9997 18.0751Z" fill="#00BA61"/>
<path d="M40.8865 19.5998C40.57 19.6748 37.4688 20.8998 37.4688 20.9373C37.4688 20.9623 37.6586 21.1623 37.8991 21.3998C38.1396 21.6373 38.4055 22.0748 38.4941 22.3748C38.5827 22.6873 38.6713 22.9498 38.6839 22.9748C38.6966 22.9998 39.0637 22.8748 39.5067 22.6998C39.9371 22.5123 40.3042 22.3748 40.3169 22.3748C40.3675 22.3748 40.7852 23.5498 43.165 30.4373C44.4941 34.2873 45.646 37.5998 45.7219 37.7873L45.8612 38.1373L46.2536 37.7748C47.9118 36.2498 49.8612 35.4998 52.1017 35.4998C54.3801 35.4998 56.3548 36.2873 57.8865 37.7873C58.3928 38.2873 58.9371 38.8373 59.089 39.0248C59.3295 39.3373 59.3928 39.3498 59.6839 39.2248C59.9244 39.1123 60.0004 38.9873 60.0004 38.6748C60.0004 38.4498 59.9624 38.2498 59.9118 38.2248C59.8485 38.1998 59.532 37.7748 59.1903 37.2748C57.6586 35.0123 55.2662 33.6623 52.2536 33.3373L50.9118 33.1998L50.7599 32.6873C49.9118 29.8873 47.646 27.3123 44.7725 25.9248L44.0763 25.5873L43.4814 23.8873C43.1523 22.9498 42.7346 21.7748 42.5574 21.2623C42.089 19.9498 41.5574 19.4123 40.8865 19.5998Z" fill="#00BA61"/>
<path d="M5.3792 31.1875C5.07541 31.475 5.06275 31.55 5.06275 33.1C5.06275 34.55 5.08806 34.75 5.32857 35.05C5.46781 35.225 5.69566 35.375 5.8349 35.375C5.96148 35.375 6.07541 35.425 6.07541 35.4875C6.07541 35.5375 5.75895 36.4375 5.3792 37.4625C4.25262 40.5375 3.61971 43.0125 3.51844 44.6875L3.48047 45.4375L5.51844 45.475L7.55642 45.5L7.54376 44.1C7.5311 42.3875 7.69566 41.675 8.44249 40.125C9.51844 37.9 11.6197 36.2625 14.1134 35.675C14.759 35.525 15.3665 35.4875 16.3919 35.5375C18.6577 35.625 20.3033 36.325 21.8982 37.875C22.8349 38.775 23.6324 40.0125 24.0627 41.25C24.3159 41.9375 24.3539 42.325 24.3665 43.775V45.5H34.0121C39.3159 45.5 43.6703 45.4625 43.6957 45.4125C43.721 45.35 43.721 44.6875 43.6957 43.9375L43.6577 42.5625L35.9488 42.6L28.2273 42.625L27.9235 42.0375C27.2906 40.775 26.4805 37.9 26.2653 36.1C26.202 35.475 26.2146 35.375 26.4298 35.2625C26.8982 35.0125 26.9488 34.5875 26.8349 31.525C26.8349 31.45 26.721 31.2625 26.5817 31.125C26.3286 30.875 26.164 30.875 16.0121 30.875H5.683L5.3792 31.1875Z" fill="#00BA61"/>
<path d="M15.063 36.7125C12.063 37.1625 9.78449 39.15 8.99968 42C8.31614 44.4375 9.025 47.05 10.8731 48.8625C11.7465 49.725 13.1136 50.5375 13.9997 50.7C14.2402 50.7375 14.4301 50.825 14.4301 50.8875C14.4301 50.95 15.1389 51 16.0123 51C16.8858 51 17.5946 50.9625 17.5946 50.9C17.5946 50.85 17.9364 50.7125 18.3668 50.575C21.1516 49.7125 23.2022 46.8875 23.2022 43.875C23.2022 41.85 22.5187 40.2125 21.0883 38.8C19.4807 37.2125 17.1136 36.3875 15.063 36.7125ZM16.8478 41.1375C17.8731 41.45 18.8604 42.7125 18.8604 43.7375C18.8604 44.8 18.1263 45.95 17.1642 46.3875C16.0377 46.8875 14.4554 46.525 13.7592 45.6C12.0883 43.375 14.1769 40.35 16.8478 41.1375Z" fill="#00BA61"/>
<path d="M51.076 36.7121C49.1773 36.9996 47.2532 38.1871 46.2153 39.6996C44.7975 41.7371 44.4938 44.0246 45.3165 46.3496C45.9874 48.2246 47.7596 49.9246 49.7469 50.5746C50.1267 50.7121 50.4684 50.8496 50.4811 50.8996C50.5444 51.0371 53.671 51.0246 53.671 50.8996C53.671 50.8496 53.9368 50.7246 54.2786 50.6371C55.9874 50.1871 57.7596 48.6871 58.5824 46.9746C60.8482 42.3121 57.7089 36.9996 52.5191 36.7121C51.9368 36.6746 51.2912 36.6746 51.076 36.7121ZM53.1393 41.1996C54.7216 41.8496 55.3672 43.6121 54.595 45.1371C53.7089 46.8496 51.3672 47.1371 50.0254 45.6996C48.9494 44.5371 48.9874 42.9996 50.1267 41.8746C50.9621 41.0371 52.1267 40.7746 53.1393 41.1996Z" fill="#00BA61"/>
</g>
<defs>
<clipPath id="clip0_40_4432">
<rect width="60" height="51" fill="white"/>
</clipPath>
</defs>
</svg>
