<svg width="60" height="61" viewBox="0 0 60 61" fill="none" xmlns="http://www.w3.org/2000/svg">
<g clip-path="url(#clip0_43_7658)">
<path d="M30.5631 0.921875C30.0943 1.20313 30.235 1.53125 31.2193 2.28125L32.5787 3.21875L33.8912 2.28125C34.9225 1.53125 35.11 1.20313 34.5943 0.921875C33.7975 0.40625 31.36 0.40625 30.5631 0.921875Z" fill="#00BA61"/>
<path d="M32.8118 5.1877C32.8118 6.17207 30.8899 8.0002 29.8587 8.0002C29.1087 8.0002 27.9368 11.0471 28.3587 11.7971C28.8274 12.5002 30.4212 11.6096 30.7024 10.4846C30.843 9.82832 31.4524 8.65645 32.0149 7.8127C32.5774 7.01582 33.093 6.26582 33.1399 6.17207C33.1868 6.07832 33.6555 6.26582 34.0774 6.64082C34.8274 7.2502 34.8743 7.20332 34.2649 6.5002C33.9368 6.03145 33.7493 5.3752 33.8899 5.04707C34.0305 4.67207 33.843 4.39082 33.468 4.39082C33.093 4.39082 32.8118 4.76582 32.8118 5.1877Z" fill="#00BA61"/>
<path d="M38.0153 8.9373C38.6715 10.3904 38.9059 10.6248 38.9059 10.0623C38.9059 9.78105 38.5778 9.17168 38.1559 8.65605C37.4996 7.8123 37.4996 7.8123 38.0153 8.9373Z" fill="#00BA61"/>
<path d="M30.3276 12.0781C30.1401 12.2187 29.2964 12.3593 28.4057 12.3124C24.8432 12.1718 23.0151 15.7812 25.6401 17.8437C27.7495 19.4843 30.4682 18.2187 30.4682 15.6406C30.4682 15.0312 30.187 14.5624 29.9057 14.5624C29.5776 14.5156 29.8589 14.1874 30.6089 13.8124C31.9214 13.1093 32.3432 11.7499 31.2651 11.7499C30.8901 11.7499 30.4682 11.8906 30.3276 12.0781Z" fill="#00BA61"/>
<path d="M38.6244 14.6566C38.8119 16.1097 38.5307 16.8129 36.8901 19.1097C35.8588 20.6097 34.7807 21.8754 34.5932 21.9691C33.9838 22.2504 34.1713 23.3285 34.9682 24.1254C36.4213 25.6254 42.5151 24.4535 44.4838 22.3441C45.4682 21.3129 45.5151 21.1254 44.8119 19.8597C43.9213 18.0316 42.9838 17.3285 41.1557 16.9535C39.8901 16.6722 39.5151 16.2972 39.0463 14.7972L38.4369 12.9222L38.6244 14.6566ZM44.2963 21.1254C44.2963 22.2504 40.4057 23.9379 37.8744 23.9379C35.6244 23.9379 34.9682 23.5629 35.5307 22.7191C36.8432 20.6566 44.2963 19.3441 44.2963 21.1254Z" fill="#00BA61"/>
<path d="M36.7497 14.9378C36.4684 15.1253 35.5778 16.2503 34.7341 17.469L33.2341 19.719H30.3278C26.4841 19.719 25.5466 19.3909 24.8903 18.0315L24.3747 16.8596L23.0153 17.7971C21.7966 18.6878 21.4684 19.4846 20.4372 23.9846L19.1716 29.2346L20.1559 32.6565C20.6716 34.5784 21.0934 36.5003 21.0466 36.969C20.9997 37.4846 20.9059 37.3909 20.6716 36.6409C20.4841 35.844 19.5466 39.1253 17.6247 47.5628C16.0778 54.1721 14.9997 59.7034 15.1872 59.8909C15.6559 60.4065 16.3122 59.1409 16.6403 57.1253L16.9684 55.344H21.4216H25.9216L25.5934 57.9221C25.3591 59.9846 25.4528 60.5003 25.9684 60.5003C26.3903 60.5003 26.7184 59.8909 26.8591 58.9534L27.0466 57.4534L27.0934 58.9534C27.1403 59.7971 27.4216 60.5003 27.6559 60.5003C28.2184 60.5003 28.2184 60.594 27.6559 58.6253C27.2809 57.4534 27.3278 55.6721 27.7028 52.5315L28.2653 48.0315L31.3591 48.219C33.0466 48.3128 34.4997 48.4534 34.5466 48.5003C34.5934 48.5471 34.9684 49.9065 35.3434 51.5003L35.9997 54.4065H32.1091C26.6247 54.4065 26.5309 55.2971 31.9684 55.4378L36.3278 55.5784L36.7497 57.7815C37.0309 59.2346 37.4528 60.0315 37.8747 60.0315C38.3434 60.0315 38.4372 59.7034 38.2966 58.9534C38.1559 58.3909 36.8434 52.5784 35.3434 46.0628C33.5153 38.0471 32.4372 34.2503 32.0153 34.2503C31.2653 34.2503 31.2653 34.3909 32.1091 37.5315C32.4841 38.9378 32.8122 40.1565 32.8122 40.2034C32.8122 40.2503 32.1091 40.3909 31.3122 40.4846L29.7653 40.6721L31.2653 40.719C32.8591 40.8128 33.1403 41.3284 34.0309 45.8753L34.3591 47.3753H31.4528C28.1247 47.3753 28.3122 47.9378 29.2966 40.9534C30.3278 33.6878 30.3278 33.7815 31.6403 33.7815C32.2966 33.7815 32.8122 33.5471 32.8122 33.3128C32.8122 33.0315 32.2028 32.844 31.4528 32.844C30.1872 32.844 30.0466 33.0315 29.7653 34.8128C29.6247 35.9378 29.1091 37.6253 28.6872 38.5628C27.9841 40.0628 27.6559 40.2971 26.0153 40.4846L24.1403 40.6721L26.1559 40.719C28.1247 40.8128 28.1716 40.8596 27.9372 42.0784C27.7966 42.8284 27.5622 44.2815 27.4216 45.3596L27.0934 47.3753H23.0153H18.9372L19.2653 44.469C19.4528 42.8284 19.8747 40.6721 20.1091 39.6409L20.6247 37.7659L20.3434 39.6409C19.4997 46.2971 19.4997 46.2971 20.6247 46.6721C21.4216 46.9065 21.8903 46.8128 22.3122 46.2503C23.0622 45.1721 24.4684 37.4378 24.2809 35.3284C24.1403 33.8284 24.3278 33.5471 25.9684 32.5159L27.7497 31.344L26.9059 32.5159C26.3903 33.1721 25.9216 33.6409 25.7809 33.5471C25.4059 33.3128 25.5466 37.719 25.9216 38.3284C26.3903 39.0784 27.9841 39.1253 28.4059 38.3753C28.5934 38.0471 29.1091 35.7503 29.5309 33.2659C30.3747 28.4378 30.1403 27.219 28.5934 27.219C27.5153 27.219 27.5153 27.4065 28.1716 24.4534L28.6403 22.1096L31.5466 21.969L34.4059 21.8284L36.5153 18.8753C38.2497 16.344 38.4841 15.7815 37.9216 15.2659C37.5466 14.8909 37.0309 14.7503 36.7497 14.9378ZM25.3122 50.1409C25.3122 51.1721 25.5466 52.1565 25.7809 52.2971C26.0622 52.4378 26.2497 53.0003 26.2497 53.5159C26.2497 54.3128 25.8747 54.4065 21.7497 54.4065H17.2497L17.5309 53.094C17.7184 52.3909 18.0934 51.0315 18.3278 50.0471L18.7966 48.3128H22.0309H25.3122V50.1409ZM26.8122 50.1878C26.7184 51.219 26.5309 52.0628 26.4372 52.0628C26.3434 52.0628 26.2497 51.219 26.2497 50.1878C26.2497 49.1565 26.3903 48.3128 26.6247 48.3128C26.8122 48.3128 26.9059 49.1565 26.8122 50.1878Z" fill="#00BA61"/>
<path d="M24.4213 39.2188C24.4213 39.7344 24.5619 39.875 24.7026 39.5C24.8432 39.1719 24.7963 38.75 24.6557 38.6094C24.5151 38.4219 24.3744 38.7032 24.4213 39.2188Z" fill="#00BA61"/>
<path d="M24.0943 42.3125C24.2349 42.9219 24.4693 44.1875 24.6099 45.125C24.7506 46.1094 25.1724 46.9062 25.5006 46.9062C25.9693 46.9062 26.0162 46.3906 25.7349 44.6562C25.5474 43.4375 25.3599 42.1719 25.3599 41.8438C25.3131 41.5625 24.9849 41.2812 24.6099 41.2812C24.0943 41.2812 23.9537 41.6094 24.0943 42.3125Z" fill="#00BA61"/>
</g>
<defs>
<clipPath id="clip0_43_7658">
<rect width="60" height="60" fill="white" transform="translate(0 0.5)"/>
</clipPath>
</defs>
</svg>
