<svg width="60" height="61" viewBox="0 0 60 61" fill="none" xmlns="http://www.w3.org/2000/svg">
<path d="M15.5366 4.78613C13.6895 4.78613 11.9181 5.51987 10.6121 6.82592C9.306 8.13198 8.57227 9.90337 8.57227 11.7504V49.2504C8.57227 51.0975 9.306 52.8689 10.6121 54.1749C11.9181 55.481 13.6895 56.2147 15.5366 56.2147H36.0394L31.4173 51.5926C30.9696 51.1448 30.6144 50.6133 30.3721 50.0284C30.1298 49.4434 30.0051 48.8164 30.0051 48.1833C30.0051 47.5501 30.1298 46.9231 30.3721 46.3382C30.6144 45.7532 30.9696 45.2217 31.4173 44.774C31.865 44.3263 32.3965 43.9711 32.9815 43.7288C33.5664 43.4865 34.1934 43.3618 34.8266 43.3618C35.4597 43.3618 36.0867 43.4865 36.6716 43.7288C37.2566 43.9711 37.7881 44.3263 38.2358 44.774L41.2508 47.789L50.6987 38.3411C50.9273 38.1126 51.1708 37.9126 51.4294 37.7411V11.7504C51.4294 9.90337 50.6957 8.13198 49.3896 6.82592C48.0836 5.51987 46.3122 4.78613 44.4651 4.78613H15.5366ZM22.5008 19.2504C22.5008 19.9608 22.2186 20.6421 21.7163 21.1445C21.214 21.6468 20.5327 21.929 19.8223 21.929C19.1119 21.929 18.4306 21.6468 17.9282 21.1445C17.4259 20.6421 17.1437 19.9608 17.1437 19.2504C17.1437 18.54 17.4259 17.8587 17.9282 17.3564C18.4306 16.8541 19.1119 16.5718 19.8223 16.5718C20.5327 16.5718 21.214 16.8541 21.7163 17.3564C22.2186 17.8587 22.5008 18.54 22.5008 19.2504ZM19.8223 33.179C19.1119 33.179 18.4306 32.8968 17.9282 32.3945C17.4259 31.8921 17.1437 31.2108 17.1437 30.5004C17.1437 29.79 17.4259 29.1087 17.9282 28.6064C18.4306 28.1041 19.1119 27.8218 19.8223 27.8218C20.5327 27.8218 21.214 28.1041 21.7163 28.6064C22.2186 29.1087 22.5008 29.79 22.5008 30.5004C22.5008 31.2108 22.2186 31.8921 21.7163 32.3945C21.214 32.8968 20.5327 33.179 19.8223 33.179ZM19.8223 44.429C19.1119 44.429 18.4306 44.1468 17.9282 43.6445C17.4259 43.1421 17.1437 42.4608 17.1437 41.7504C17.1437 41.04 17.4259 40.3587 17.9282 39.8564C18.4306 39.354 19.1119 39.0718 19.8223 39.0718C20.5327 39.0718 21.214 39.354 21.7163 39.8564C22.2186 40.3587 22.5008 41.04 22.5008 41.7504C22.5008 42.4608 22.2186 43.1421 21.7163 43.6445C21.214 44.1468 20.5327 44.429 19.8223 44.429ZM27.3223 17.6433H41.2508C41.6771 17.6433 42.0859 17.8126 42.3873 18.114C42.6887 18.4154 42.858 18.8242 42.858 19.2504C42.858 19.6767 42.6887 20.0854 42.3873 20.3868C42.0859 20.6882 41.6771 20.8576 41.2508 20.8576H27.3223C26.896 20.8576 26.4872 20.6882 26.1858 20.3868C25.8844 20.0854 25.7151 19.6767 25.7151 19.2504C25.7151 18.8242 25.8844 18.4154 26.1858 18.114C26.4872 17.8126 26.896 17.6433 27.3223 17.6433ZM25.7151 30.5004C25.7151 30.0742 25.8844 29.6654 26.1858 29.364C26.4872 29.0626 26.896 28.8933 27.3223 28.8933H41.2508C41.6771 28.8933 42.0859 29.0626 42.3873 29.364C42.6887 29.6654 42.858 30.0742 42.858 30.5004C42.858 30.9267 42.6887 31.3354 42.3873 31.6368C42.0859 31.9382 41.6771 32.1076 41.2508 32.1076H27.3223C26.896 32.1076 26.4872 31.9382 26.1858 31.6368C25.8844 31.3354 25.7151 30.9267 25.7151 30.5004ZM27.3223 40.1433H41.2508C41.6771 40.1433 42.0859 40.3126 42.3873 40.614C42.6887 40.9154 42.858 41.3242 42.858 41.7504C42.858 42.1767 42.6887 42.5854 42.3873 42.8868C42.0859 43.1882 41.6771 43.3576 41.2508 43.3576H27.3223C26.896 43.3576 26.4872 43.1882 26.1858 42.8868C25.8844 42.5854 25.7151 42.1767 25.7151 41.7504C25.7151 41.3242 25.8844 40.9154 26.1858 40.614C26.4872 40.3126 26.896 40.1433 27.3223 40.1433ZM42.3866 55.7433L55.2437 42.8861C55.4016 42.739 55.5282 42.5616 55.6161 42.3644C55.7039 42.1673 55.7512 41.9545 55.755 41.7387C55.7588 41.5229 55.7191 41.3085 55.6382 41.1084C55.5574 40.9083 55.4371 40.7265 55.2845 40.5739C55.1319 40.4213 54.9501 40.301 54.75 40.2202C54.5499 40.1393 54.3355 40.0996 54.1197 40.1034C53.9039 40.1072 53.6911 40.1545 53.494 40.2423C53.2968 40.3302 53.1194 40.4568 52.9723 40.6147L41.2508 52.3361L35.9623 47.0476C35.6576 46.7637 35.2546 46.6091 34.8383 46.6165C34.4219 46.6238 34.0247 46.7925 33.7302 47.0869C33.4358 47.3814 33.2671 47.7787 33.2597 48.195C33.2524 48.6114 33.4069 49.0143 33.6908 49.319L40.1151 55.7433C40.4165 56.0442 40.8249 56.2133 41.2508 56.2133C41.6767 56.2133 42.0852 56.0442 42.3866 55.7433Z" fill="#00BA61"/>
</svg>
