<svg width="60" height="61" viewBox="0 0 60 61" fill="none" xmlns="http://www.w3.org/2000/svg">
<path d="M26.5781 4.64218C26.1855 4.75937 25.916 4.94101 25.5703 5.32187C25.1426 5.79062 24.9902 6.21835 24.9902 6.97421C24.9902 7.48984 25.0078 7.60117 25.1484 7.89413C25.3418 8.31015 25.7695 8.77304 26.1035 8.93124C26.5312 9.13046 27.0645 9.20077 27.5156 9.11874C28.2773 8.97812 28.7578 8.63242 29.0918 7.97031C29.291 7.57773 29.3203 7.4664 29.3438 7.01523C29.373 6.40585 29.25 5.9957 28.9102 5.53281C28.3418 4.75937 27.3926 4.39609 26.5781 4.64218Z" fill="#00BA61"/>
<path d="M12.0293 4.99414C12.0527 5.2168 12.0703 6.0957 12.0703 6.95703V8.52734H12.5684H13.0664V7.30859C13.0664 6.64062 13.0488 5.76172 13.0254 5.3457L12.9902 4.60156H12.4922H11.9941L12.0293 4.99414Z" fill="#00BA61"/>
<path d="M13.8281 5.66797C13.8281 6.25977 13.8457 7.10938 13.8691 7.56641L13.9043 8.39258L14.4199 8.375C14.707 8.36328 14.9414 8.33984 14.9473 8.32227C14.9531 8.30469 14.9355 8.10547 14.9121 7.88281C14.8535 7.29688 14.9355 7.17969 15.4102 7.17969C15.7441 7.17969 15.7676 7.19141 15.8262 7.33789C15.8613 7.43164 15.8789 7.68359 15.8613 7.92969C15.8379 8.26367 15.8438 8.35156 15.9023 8.33398C15.9434 8.31641 16.1309 8.28711 16.3242 8.26367C16.7227 8.21094 16.9746 8.12305 17.3438 7.88281C17.7715 7.60742 17.8535 7.40234 17.8945 6.47656C17.9414 5.58008 17.9238 5.5332 17.4902 5.18164C17.1387 4.90039 16.6875 4.72461 16.1895 4.67188L15.75 4.625L15.7852 5.04102C15.8086 5.28711 15.7969 5.52734 15.7676 5.62109C15.709 5.76172 15.6797 5.77344 15.3867 5.77344C14.9766 5.77344 14.918 5.67969 14.918 5.05273L14.9121 4.60156H14.373H13.8281V5.66797Z" fill="#00BA61"/>
<path d="M5.19635 4.74837C4.66315 4.94759 4.17682 5.46322 4.03619 5.97298C4.00104 6.10775 3.98346 6.41243 4.00104 6.65853C4.05963 7.56673 4.54596 8.22884 5.31354 8.46908C5.52447 8.53353 5.74127 8.58626 5.79401 8.58626C5.96979 8.58626 6.36822 8.9847 6.47955 9.26009C6.59088 9.55892 6.5733 9.68783 5.99908 12.6585C5.58893 14.7972 5.56549 14.9144 5.56549 14.9964C5.56549 15.0667 5.67682 15.0726 6.16901 15.0492C6.49713 15.0316 6.77252 15.014 6.77838 15.0081C6.8194 14.9788 7.14752 13.4144 7.52838 11.4281C7.73346 10.3851 7.83893 9.95736 7.9444 9.76986C8.09088 9.5179 8.45416 9.20736 8.6944 9.13704C8.75885 9.11947 9.04596 9.00814 9.32721 8.90267C9.70221 8.75618 9.93072 8.70345 10.1827 8.70345C10.376 8.70345 10.6924 8.68587 10.8917 8.66829L11.2491 8.62728V7.70736C11.2491 7.20345 11.2315 6.30697 11.2081 5.72689L11.1729 4.66048L8.29596 4.66634C5.99908 4.66634 5.37213 4.68392 5.19635 4.74837ZM7.41119 5.86165C7.54596 5.99056 7.55768 6.04329 7.55768 6.58236C7.55768 7.14486 7.55182 7.16243 7.3819 7.3265C7.21783 7.4847 7.20611 7.4847 7.06549 7.39095C6.86627 7.2679 6.77252 6.89876 6.81354 6.41829C6.85455 5.94954 6.89557 5.83822 7.05377 5.77376C7.23541 5.69759 7.25885 5.70345 7.41119 5.86165ZM5.96979 5.92611C6.07526 6.06087 6.09283 6.16634 6.09283 6.64681C6.09283 7.139 6.07526 7.23275 5.97565 7.34408C5.81158 7.51986 5.65924 7.50814 5.48346 7.29134C5.34283 7.12728 5.33111 7.06868 5.33111 6.56478C5.33111 6.04329 5.33697 6.00814 5.48346 5.89681C5.6944 5.73275 5.8233 5.74447 5.96979 5.92611ZM9.11041 5.96712C9.45026 6.30697 9.46197 6.98665 9.13385 7.26204C8.89947 7.46126 8.75885 7.4554 8.54205 7.23861C8.36627 7.06283 8.36627 7.05111 8.38971 6.52962C8.40729 6.05501 8.42486 5.9847 8.54791 5.88509C8.74127 5.72689 8.88776 5.74447 9.11041 5.96712Z" fill="#00BA61"/>
<path d="M41.1562 4.93555L36.5156 4.95312L36.5215 7.40234V9.8457H41.3027H46.084L46.0723 7.38477L46.0605 4.92383H45.9258C45.8496 4.92383 43.7051 4.92969 41.1562 4.93555ZM43.0254 7.28516C43.2305 7.48438 43.2363 7.71875 43.0312 7.87695C42.8789 7.99414 42.8027 8 41.3027 8H39.7324L39.6152 7.84766C39.4805 7.67188 39.4629 7.52539 39.5566 7.34961C39.6855 7.10352 39.8906 7.07422 41.4199 7.10352L42.8613 7.13281L43.0254 7.28516Z" fill="#00BA61"/>
<path d="M46.9219 7.37305L46.9043 9.8457H51.7266H56.543V7.4082V4.96484L55.9746 4.93555C55.6582 4.91797 53.4961 4.90039 51.1699 4.90039H46.9336L46.9219 7.37305ZM53.291 7.15625C53.4199 7.20898 53.5664 7.51367 53.5254 7.64844C53.5078 7.71289 53.4199 7.81836 53.3379 7.88281C53.1973 7.99414 53.1035 8 51.668 8C50.7363 8 50.1035 7.97656 50.0332 7.94141C49.8926 7.86523 49.7285 7.54883 49.7812 7.45508C49.8047 7.41406 49.875 7.32617 49.9395 7.25C50.0566 7.12109 50.0742 7.12109 51.627 7.12109C52.4883 7.12109 53.2383 7.13867 53.291 7.15625Z" fill="#00BA61"/>
<path d="M18.6738 6.10742C18.6504 6.125 18.6328 6.33594 18.6328 6.57617V7.00391L20.3496 6.99219L22.0605 6.97461L22.0898 6.51758L22.1191 6.06641H20.4141C19.4766 6.06641 18.6914 6.08398 18.6738 6.10742Z" fill="#00BA61"/>
<path d="M10.7337 9.75192C10.5989 10.5839 10.5286 11.5214 10.5872 11.58C10.6282 11.6211 10.7923 11.6269 11.0501 11.6035C11.3782 11.5683 11.4778 11.5273 11.6126 11.3925L11.7767 11.2343V10.291V9.34176L11.2845 9.35348L10.7981 9.35934L10.7337 9.75192Z" fill="#00BA61"/>
<path d="M9.52129 9.52935C9.15801 9.7227 8.80645 9.97466 8.6834 10.1329C8.61309 10.2266 8.51348 10.5782 8.41387 11.1172C8.32598 11.5801 8.19707 12.2188 8.13848 12.5411C8.07402 12.8633 7.9334 13.502 7.81621 13.9649C7.66387 14.5801 7.62871 14.8262 7.67559 14.8848C7.7752 15.002 8.05645 15.0313 8.6834 14.9903C9.12871 14.961 9.2752 14.9317 9.31035 14.8614C9.37481 14.7442 9.57988 13.7774 9.69707 13.0391C9.81426 12.2774 9.96074 10.6075 9.96074 9.94536C9.96074 9.33013 9.93731 9.30669 9.52129 9.52935Z" fill="#00BA61"/>
<path d="M29.0332 9.58203C28.9336 9.59961 28.6582 9.7168 28.418 9.83984C27.5859 10.25 26.7598 10.25 25.793 9.83398C25.3066 9.62305 25.2539 9.61133 24.6094 9.61133C24.1289 9.61133 23.8418 9.64062 23.6074 9.71094C23.1973 9.83984 22.4824 10.3086 21.4453 11.123C20.1562 12.1367 19.9102 12.3418 19.4883 12.752C19.1016 13.127 19.0898 13.1562 19.1191 13.373C19.1367 13.4961 19.1836 14.1641 19.2188 14.8555C19.2539 15.5469 19.2949 16.1738 19.3066 16.2383C19.3477 16.4375 19.6816 16.7188 19.9863 16.8184C20.3262 16.9355 20.6367 16.8711 20.9238 16.6309C21.2988 16.3145 21.3516 15.8809 21.1523 14.8145C21.082 14.4688 21.0176 14.1348 21 14.082C20.9824 14.0117 21.0352 13.9531 21.1875 13.8828C21.3047 13.8242 21.6738 13.5312 22.0137 13.2207C22.8457 12.459 23.2617 12.1074 23.4434 12.0137C23.584 11.9375 23.6191 11.9434 23.7539 12.0488C24.1113 12.3301 24.1113 12.3301 24.1289 14.7969L24.1465 17.0527L25.4766 17.0059C26.209 16.9824 27.6035 16.9648 28.5762 16.9766L30.3398 16.9941L30.3633 14.8848C30.3809 13.3789 30.4102 12.7285 30.457 12.6055L30.5332 12.4297L30.7969 12.6992L31.0664 12.9629L31.0605 15.0254C31.0488 17.0352 31.0547 17.0938 31.1719 17.2871C31.2422 17.3984 31.3887 17.5625 31.4941 17.6504L31.6875 17.8145H24.7969H17.9004L17.8828 18.3594L17.8652 18.8984L26.0098 18.8867C31.3477 18.875 34.1719 18.8516 34.207 18.8105C34.2363 18.7754 34.248 18.5234 34.2305 18.2363L34.207 17.7266H33.4805C32.6602 17.7266 32.6426 17.7148 32.7773 17.334C32.8477 17.1406 32.8652 16.6191 32.877 14.7148C32.8887 12.4531 32.8828 12.3301 32.7773 12.207C32.7188 12.1309 32.5195 11.9141 32.3438 11.7207C32.1621 11.5273 31.8574 11.1582 31.6582 10.9004C31.0723 10.1211 30.627 9.77539 30.0527 9.64648C29.6777 9.56445 29.2383 9.53516 29.0332 9.58203Z" fill="#00BA61"/>
<path d="M36.5156 12.9453L36.5332 15.2363L41.291 15.2656L46.0547 15.2949L46.0664 13.0098C46.0781 11.5332 46.0605 10.707 46.0254 10.6836C45.9961 10.6543 43.8398 10.6426 41.2324 10.6426L36.5039 10.6484L36.5156 12.9453ZM42.9727 12.6348C43.1719 12.793 43.1836 13.0977 42.9961 13.2734C42.873 13.3848 42.7969 13.3906 41.3027 13.3906H39.7324L39.6152 13.2383C39.4512 13.0273 39.4629 12.8867 39.6621 12.6816L39.832 12.5117H41.3262C42.7441 12.5117 42.8262 12.5176 42.9727 12.6348Z" fill="#00BA61"/>
<path d="M46.8809 12.9863L46.875 15.3359L47.0566 15.3008C47.1562 15.2832 49.3359 15.2656 51.8906 15.2656H56.543L56.5312 12.9629L56.5137 10.666L51.7031 10.6484L46.8867 10.6367L46.8809 12.9863ZM53.3145 12.6641C53.5312 12.8457 53.5488 13.0625 53.3672 13.2559C53.2441 13.3906 53.2383 13.3906 51.6562 13.3906C50.1152 13.3906 50.0742 13.3848 49.9395 13.2617C49.7578 13.0918 49.7695 12.8867 49.9746 12.6816L50.1445 12.5117H51.6387H53.1328L53.3145 12.6641Z" fill="#00BA61"/>
<path d="M11.25 15.6934C11.2324 15.7109 9.91406 15.7402 8.31445 15.7578C6.71484 15.7754 5.33203 15.8047 5.23828 15.8281C4.72266 15.9277 4.2832 16.4902 4.23047 17.1113L4.20117 17.5039L9.01758 17.4863L13.8281 17.4629V17.3223C13.8281 16.918 13.1719 16.1152 12.627 15.8516C12.4043 15.7402 12.2109 15.7051 11.8066 15.6875C11.5195 15.6758 11.2676 15.6816 11.25 15.6934Z" fill="#00BA61"/>
<path d="M36.5039 17.8555V19.707L36.873 19.748C37.0723 19.7715 37.3535 19.7773 37.5 19.7656L37.7637 19.748L37.793 18.3125C37.8105 17.5215 37.8164 16.6895 37.8047 16.4551L37.7754 16.0332L37.1426 16.0156L36.5039 15.998V17.8555Z" fill="#00BA61"/>
<path d="M53.6484 17.3284C53.625 18.0491 53.625 18.682 53.6484 18.7464C53.6836 18.8343 53.7363 18.8519 54.0059 18.8284C54.1816 18.8109 54.3457 18.7698 54.3691 18.7288C54.3926 18.6937 54.4453 18.1253 54.4863 17.4749C54.5215 16.8245 54.5684 16.2327 54.5859 16.1566C54.6094 16.0335 54.5977 16.0277 54.1523 16.0277H53.6895L53.6484 17.3284Z" fill="#00BA61"/>
<path d="M55.2994 17.7969C55.2876 18.7754 55.2935 19.6191 55.3052 19.6719C55.3228 19.7656 55.399 19.7773 55.9263 19.7773C56.4244 19.7773 56.5357 19.7598 56.565 19.6836C56.5826 19.6309 56.6001 18.7871 56.6001 17.8086V16.0273H55.9615H55.3228L55.2994 17.7969Z" fill="#00BA61"/>
<path d="M4.21875 18.5117C4.21875 18.7988 4.47656 19.373 4.74023 19.6777C4.8457 19.7891 5.03906 19.9414 5.17969 20.0059C5.41992 20.123 5.52539 20.1289 9.08789 20.1406L12.7441 20.1582L13.043 20C13.3711 19.8242 13.752 19.4434 13.793 19.2383C13.8105 19.1621 13.834 18.9277 13.8516 18.7168L13.8809 18.3242L13.2832 18.2891C12.9551 18.2715 10.7812 18.2598 8.45508 18.2656L4.21875 18.2773V18.5117Z" fill="#00BA61"/>
<path d="M24.1523 23.5391C24.1699 27.1133 24.1816 27.4414 24.2754 27.6582C24.7559 28.7363 26.2676 28.7363 26.7715 27.6582C26.8945 27.4004 26.8945 27.3301 26.8945 23.5391V19.6836L25.5117 19.666L24.1289 19.6543L24.1523 23.5391Z" fill="#00BA61"/>
<path d="M27.75 23.5391C27.7852 27.2012 27.791 27.4414 27.9023 27.6875C28.125 28.2031 28.5 28.4434 29.0801 28.4492C29.6426 28.4492 30.0234 28.2031 30.252 27.6934C30.3633 27.4355 30.3691 27.2773 30.3984 23.5566L30.4277 19.6895L29.0684 19.6719L27.709 19.6602L27.75 23.5391Z" fill="#00BA61"/>
<path d="M42.7148 23.7789V25.3258L44.8477 25.3727C46.793 25.4078 51.5684 25.3785 53.7539 25.3141L54.6328 25.2848L54.6562 23.7965L54.6797 22.3141L48.7617 22.3082C45.5039 22.3082 42.8145 22.2906 42.7793 22.273C42.7324 22.2437 42.7148 22.6832 42.7148 23.7789ZM50.4961 23.6031C50.6602 23.7555 50.6602 23.9781 50.4961 24.1539L50.373 24.2887H48.5801C47.5957 24.2887 46.7578 24.2652 46.7227 24.2418C46.6348 24.1773 46.4648 23.9195 46.4648 23.8434C46.4648 23.8082 46.5176 23.7086 46.582 23.6324L46.6934 23.4859L48.5273 23.4801C50.3027 23.4801 50.3672 23.4859 50.4961 23.6031Z" fill="#00BA61"/>
<path d="M15.6441 22.3381C14.4957 22.4729 12.8609 23.3459 12.0113 24.2717C11.109 25.2502 10.8336 25.6311 10.693 26.0881C10.6461 26.258 10.6871 26.258 10.9156 26.0823C11.4078 25.7131 11.5777 25.6663 12.3922 25.6663H13.1481L13.1305 25.1155L13.1129 24.5647L13.9273 24.6116C14.3727 24.635 14.7477 24.676 14.7711 24.7053C14.7887 24.7346 14.8473 24.6584 14.9 24.5354C14.9527 24.4123 15.0816 24.2366 15.1754 24.1428C15.357 23.967 15.357 23.967 16.0953 23.967H16.8336L16.7926 23.3577C16.775 23.0237 16.7574 22.6487 16.7574 22.5198V22.2971L16.3063 22.3088C16.0543 22.3088 15.7555 22.3264 15.6441 22.3381Z" fill="#00BA61"/>
<path d="M40.8984 26.9434C40.8984 30.4766 40.916 31.6074 40.9688 31.6602C41.0156 31.707 41.2324 31.7305 41.5547 31.7305C41.9648 31.7305 42.0762 31.7129 42.1172 31.6367C42.1758 31.5312 42.1523 23.3281 42.0938 22.6602L42.0586 22.2969H41.4785H40.8984V26.9434Z" fill="#00BA61"/>
<path d="M55.2998 26.9379C55.2881 29.4926 55.2881 31.6196 55.2998 31.6547C55.335 31.7661 56.4424 31.7602 56.5361 31.6489C56.583 31.5903 56.5947 30.3129 56.5889 26.9496L56.5713 22.3266L55.9443 22.309L55.3232 22.2914L55.2998 26.9379Z" fill="#00BA61"/>
<path d="M6.38672 24.3535C6.31055 24.3887 6.22266 24.4414 6.19922 24.4824C6.17578 24.5234 6.15234 27.5 6.15234 31.0977V37.6484H6.65039H7.14844V31.0625V24.4707L7.01953 24.3828C6.87305 24.2773 6.60938 24.2656 6.38672 24.3535Z" fill="#00BA61"/>
<path d="M14.7176 25.2617C14.7059 25.4844 14.6121 25.5195 14.0496 25.5195C13.6629 25.5195 13.5164 25.584 13.6453 25.7129C13.6922 25.7598 13.7098 26.3047 13.7098 27.4648V29.1523H14.1902H14.6649L14.6238 27.4297C14.5887 25.9004 14.5945 25.6953 14.6766 25.6133C14.741 25.5488 14.7645 25.4492 14.7469 25.3027C14.7293 25.0977 14.7234 25.0977 14.7176 25.2617Z" fill="#00BA61"/>
<path d="M42.8086 28.0685C42.8145 29.1818 42.832 30.1076 42.8496 30.1252C42.8672 30.1427 43.0547 30.1427 43.2656 30.1193L43.6465 30.0783L43.6934 29.7443C43.752 29.3166 43.752 26.4162 43.6934 26.2052C43.6523 26.0529 43.6406 26.047 43.2246 26.047H42.8027L42.8086 28.0685Z" fill="#00BA61"/>
<path d="M53.4715 28.0098C53.4481 29.0879 53.4481 30.002 53.4657 30.0312C53.4832 30.0664 53.7352 30.0898 54.0164 30.0898C54.5028 30.0898 54.5379 30.084 54.5731 29.9551C54.5907 29.8848 54.6082 28.9766 54.6082 27.9336V26.0469H54.0633H53.5125L53.4715 28.0098Z" fill="#00BA61"/>
<path d="M20.2554 27.2598C20.0152 27.6172 19.9215 27.8047 19.9449 27.8867C19.9625 27.957 19.9976 28.2617 20.0152 28.5664C20.0386 28.8711 20.0914 29.2109 20.1324 29.3223C20.2027 29.4805 20.2086 29.9258 20.1734 31.7363L20.1383 33.957H20.5484H20.9644L21.0054 33.3301C21.0289 32.9844 21.0347 31.9531 21.023 31.0332C20.9996 29.7734 21.0113 29.3164 21.064 29.1816C21.1402 29.0059 21.2867 28.1387 21.2867 27.8633C21.2867 27.7344 20.7008 26.7559 20.6246 26.7559C20.607 26.7559 20.4429 26.9785 20.2554 27.2598Z" fill="#00BA61"/>
<path d="M9.91294 27.8452C9.87193 27.8628 9.80162 27.9448 9.7606 28.0327C9.66099 28.2202 9.75474 28.4956 9.96568 28.648C10.1766 28.7944 10.3583 28.7651 10.5809 28.5425C10.827 28.2964 10.827 28.1968 10.6102 27.9741C10.4754 27.8452 10.3876 27.8042 10.2118 27.8101C10.0887 27.8101 9.95396 27.8276 9.91294 27.8452Z" fill="#00BA61"/>
<path d="M15.4084 29.5156C15.1798 29.5683 13.2287 29.5917 12.5666 29.5507L12.3322 29.5331L12.3146 29.8202C12.297 30.0781 12.3146 30.1249 12.4962 30.3183C12.7716 30.6054 12.8302 30.7343 12.8302 31.0859C12.8302 31.414 12.7658 31.5663 12.4201 32.0585L12.1857 32.3925V35.8554C12.1857 39.7929 12.1623 39.5644 12.6955 40.0976C13.2345 40.6366 13.9611 40.8593 14.6701 40.7011C15.0568 40.6132 15.6017 40.1855 15.883 39.7519L16.0822 39.4413L16.1291 36.0077C16.1525 34.121 16.1759 32.5214 16.1818 32.4452C16.1818 32.3749 16.0763 32.1757 15.9474 32.0058C15.6427 31.6073 15.4669 31.2499 15.4669 31.0273C15.4669 30.7636 15.6017 30.4823 15.7951 30.3417C15.9474 30.2304 15.965 30.1894 15.965 29.8437C15.965 29.4921 15.9591 29.4745 15.8185 29.4628C15.7365 29.4628 15.5548 29.4804 15.4084 29.5156ZM14.424 32.2636L14.6056 32.4452L14.5705 35.3281L14.5294 38.2167L14.7052 38.4452C14.799 38.5683 14.881 38.7148 14.881 38.7616C14.881 38.8964 14.6818 39.1718 14.4943 39.2948C14.2306 39.4648 14.0724 39.4355 13.7912 39.1484C13.5041 38.8671 13.4806 38.7323 13.6271 38.3749C13.7091 38.1816 13.715 37.8007 13.7033 35.2695L13.6857 32.3808L13.8263 32.2284C14.008 32.0292 14.2072 32.0409 14.424 32.2636Z" fill="#00BA61"/>
<path d="M9.87807 29.8903C9.68471 30.0837 9.67885 30.3239 9.86049 30.5348C10.0538 30.7575 10.3117 30.7516 10.5519 30.5231C10.6984 30.3825 10.7218 30.3181 10.6984 30.1774C10.6515 29.9548 10.4113 29.738 10.2003 29.738C10.1007 29.738 9.97182 29.7966 9.87807 29.8903Z" fill="#00BA61"/>
<path d="M25.3292 30.3711C25.2238 30.5879 25.0597 30.9043 24.9659 31.0684C24.8136 31.3438 24.8019 31.4023 24.8546 31.5957C24.8898 31.7188 24.9777 31.8945 25.0538 31.9824C25.1886 32.1406 25.1945 32.1934 25.1945 32.9023C25.1945 33.3125 25.212 33.7344 25.2296 33.834C25.2648 34.0098 25.2765 34.0156 25.5812 34.0156H25.8976V33.1191C25.8976 32.252 25.9034 32.2168 26.0734 31.8594C26.173 31.6543 26.2491 31.4141 26.2491 31.332C26.2491 31.1738 25.6632 30.0195 25.5695 29.9902C25.5402 29.9785 25.4288 30.1484 25.3292 30.3711Z" fill="#00BA61"/>
<path d="M9.90685 31.5901C9.67248 31.7834 9.66662 32.0061 9.88927 32.217C10.1178 32.4397 10.3697 32.428 10.569 32.1936C10.7682 31.9592 10.7623 31.8186 10.5514 31.6077C10.3404 31.3967 10.1412 31.3909 9.90685 31.5901Z" fill="#00BA61"/>
<path d="M31.2304 32.4746C30.5683 32.8086 29.9648 33.1426 29.8945 33.2129C29.748 33.3477 29.4726 33.7695 29.209 34.2734C29.0566 34.5488 29.0566 34.584 29.0742 35.4453L29.0918 36.3301L29.332 36.8574C29.4668 37.1445 29.6074 37.4902 29.6484 37.6191C29.6894 37.748 29.7422 37.877 29.7656 37.9062C29.7949 37.9297 30.0058 38.0176 30.2461 38.0996C30.6855 38.2461 31.3652 38.5918 32.08 39.0371C32.3027 39.1777 32.5429 39.2891 32.6133 39.2891C32.6836 39.2891 33.0527 39.1016 33.4336 38.873C34.2246 38.3984 34.6465 38.1816 35.0683 38.0293C35.4609 37.8828 35.5312 37.8125 35.6894 37.4258C35.7597 37.2441 35.9355 36.8633 36.0761 36.582C36.3105 36.1074 36.3281 36.0312 36.3281 35.6035C36.3281 35.1758 36.3105 35.1055 36.0879 34.6836C35.959 34.4258 35.7539 33.9746 35.6367 33.6758L35.4199 33.1309L34.541 32.7617C34.0605 32.5625 33.4336 32.2695 33.1582 32.123C32.8828 31.9707 32.6074 31.8477 32.5429 31.8535C32.4843 31.8535 31.8925 32.1348 31.2304 32.4746ZM32.7304 33.459C32.8593 33.7695 33.205 34.1211 33.4453 34.1914C33.5683 34.2207 33.7734 34.25 33.914 34.25H34.1601V34.6719C34.166 35.082 34.2304 35.8965 34.3125 36.6055L34.3535 36.9453H33.9023C33.3633 36.9453 33.205 37.0156 32.9062 37.3789C32.7832 37.5254 32.6425 37.6484 32.5957 37.6484C32.5429 37.6484 32.3203 37.4727 32.0976 37.2617L31.6933 36.8691L31.2246 36.9043C30.6562 36.9512 30.6152 36.8984 30.8379 36.4414C31.0312 36.0488 31.0371 35.9023 30.8496 35.5391C30.6679 35.1758 30.6679 35.123 30.8554 34.9473C30.9375 34.8711 31.084 34.6719 31.1836 34.502C31.3008 34.291 31.4004 34.1914 31.5117 34.168C31.8633 34.0859 32.0039 33.9863 32.2851 33.6289C32.4492 33.4238 32.5957 33.2539 32.6133 33.2539C32.6308 33.2539 32.6836 33.3477 32.7304 33.459Z" fill="#00BA61"/>
<path d="M47.7066 33.2423C47.4253 33.5528 47.3726 33.6876 47.4195 34.0274C47.4546 34.2794 47.7183 34.754 47.8823 34.8595C48.1636 35.0294 48.5327 34.6075 48.6089 34.0333C48.6792 33.4473 48.5034 33.0782 48.1167 33.002C47.9878 32.9786 47.9175 33.0196 47.7066 33.2423Z" fill="#00BA61"/>
<path d="M20.2031 34.1738L18.8086 34.1914V34.4727C18.8086 34.7129 18.8438 34.7891 19.0488 35.041C19.4766 35.5566 19.4883 35.7324 19.1543 36.4238L18.9141 36.916L18.9609 38.6738L19.0137 40.4375L19.2246 40.7246C19.3418 40.8945 19.5645 41.0996 19.752 41.2109L20.0684 41.4043L20.8008 41.3867C21.6445 41.3691 21.7148 41.334 22.0957 40.7949L22.3125 40.4902L22.3301 38.5859L22.3535 36.6816L22.1074 36.2656C21.9668 36.0371 21.8555 35.7793 21.8555 35.6914C21.8555 35.5039 21.9844 35.2402 22.2129 34.9473C22.3477 34.7715 22.3828 34.6719 22.3828 34.4316V34.1328L21.9902 34.1445C21.7676 34.1562 20.9648 34.168 20.2031 34.1738ZM20.7656 36.0195C21.0879 36.1602 21.0938 36.2129 21.1055 38.1348C21.1113 39.3828 21.0938 39.9395 21.0469 40.0332C20.8477 40.4023 20.5957 40.4434 20.3027 40.1504L20.1094 39.957L20.1328 38.3457C20.168 36.4121 20.1797 36.2715 20.3613 36.0898C20.5195 35.9316 20.5605 35.9258 20.7656 36.0195Z" fill="#00BA61"/>
<path d="M25.5159 34.2503L23.8167 34.2796L23.7991 34.5199C23.7815 34.7308 23.8108 34.7952 24.0511 35.0765C24.4964 35.598 24.5081 35.8792 24.1097 36.5472L23.9046 36.8929V38.6097V40.3265L24.0862 40.6019C24.2972 40.9183 24.6956 41.2464 25.0003 41.346C25.1409 41.387 25.4046 41.3988 25.8089 41.3695C26.3597 41.3343 26.43 41.3167 26.6233 41.1527C26.7405 41.0589 26.9163 40.8597 27.0159 40.7132L27.2034 40.4495L27.2444 38.7093L27.2913 36.9749L27.0979 36.6527C26.8343 36.2132 26.764 35.932 26.8401 35.6097C26.9046 35.305 26.9749 35.1644 27.1624 34.9359C27.262 34.8187 27.303 34.6956 27.303 34.514C27.303 34.3734 27.2854 34.2503 27.262 34.2386C27.2327 34.2269 26.4534 34.2327 25.5159 34.2503ZM25.7034 36.2542C25.9788 36.5589 25.9847 36.5999 26.0022 38.3402L26.0198 39.9984L25.8382 40.1683C25.639 40.3558 25.5452 40.3792 25.3636 40.2855C25.1058 40.1449 25.0823 39.9808 25.0706 38.2581C25.0589 36.7992 25.0647 36.5941 25.1585 36.3714C25.2464 36.1663 25.2933 36.1253 25.4222 36.1253C25.5159 36.1253 25.6331 36.1839 25.7034 36.2542Z" fill="#00BA61"/>
<path d="M39.14 35.4336C39.0814 35.457 39.0053 35.5273 38.9701 35.5918C38.8705 35.7675 38.8822 55.6484 38.976 55.7422C39.0873 55.8535 40.2768 55.8359 40.3705 55.7246C40.4291 55.6543 40.4408 55.3027 40.4057 54.0957C40.3822 53.2519 40.3822 52.3496 40.4057 52.0918L40.4408 51.623L47.8178 51.6054L55.1947 51.5879L55.2006 53.3633C55.2064 54.3418 55.224 55.2851 55.2416 55.4609L55.2826 55.7832L55.892 55.8008C56.2436 55.8125 56.5248 55.7949 56.56 55.7597C56.601 55.7187 56.6186 52.291 56.6068 45.6347C56.5951 36.2949 56.5893 35.5625 56.4955 35.4629C56.4135 35.3691 56.3256 35.3574 55.8803 35.375C55.435 35.3925 55.3529 35.4101 55.2943 35.5097C55.2475 35.5918 55.2299 36.8925 55.224 40.1797C55.224 42.6816 55.2006 44.75 55.1772 44.7793C55.101 44.8554 40.4818 44.873 40.4057 44.7968C40.3588 44.75 40.3471 43.414 40.3588 40.2031C40.3764 37.0097 40.3647 35.6328 40.3178 35.5508C40.265 35.4453 40.183 35.4277 39.7494 35.4101C39.474 35.3984 39.1986 35.4101 39.14 35.4336ZM55.1654 45.9218C55.224 45.9746 55.2826 50.123 55.2299 50.3281L55.1947 50.4804H48.0522C44.1264 50.4804 40.7924 50.4629 40.64 50.4453L40.3705 50.4043V48.3769C40.3705 47.2636 40.3881 46.25 40.4057 46.1328L40.4467 45.9101L46.3119 45.8984C54.6381 45.875 55.1244 45.875 55.1654 45.9218Z" fill="#00BA61"/>
<path d="M41.191 47.3691C41.191 47.8437 41.1734 48.4003 41.1559 48.5996C41.1031 49.0976 41.191 49.0742 41.7184 48.4414C41.9527 48.1601 42.2164 47.873 42.2984 47.8085C42.4449 47.6855 42.4508 47.6679 42.4332 47.0878L42.4156 46.496H41.8004H41.191V47.3691Z" fill="#00BA61"/>
<path d="M53.2031 47.0698C53.2031 47.5854 53.2148 47.6733 53.3145 47.7378C53.3789 47.7847 53.6133 48.0483 53.8418 48.3237C54.0703 48.5991 54.293 48.8394 54.3457 48.8628C54.4219 48.8921 54.4336 48.7515 54.4336 47.7261V46.5542H53.9531C53.6836 46.5542 53.4082 46.5366 53.3379 46.519C53.2031 46.4839 53.2031 46.4897 53.2031 47.0698Z" fill="#00BA61"/>
<path d="M42.6961 48.2302C42.0985 48.8865 41.4891 49.6892 41.5535 49.7478C41.5652 49.7537 44.4481 49.7771 47.9695 49.7888C53.7762 49.8123 54.3621 49.8064 54.2977 49.7244C54.2625 49.6716 54.0047 49.3845 53.7293 49.0798C53.4539 48.781 53.1141 48.3943 52.9735 48.2302L52.7156 47.9314H47.8406H42.9715L42.6961 48.2302Z" fill="#00BA61"/>
<path d="M53.332 37.1973C53.2031 37.332 53.2031 37.3379 53.2031 40.0977C53.2031 41.6211 53.2207 42.8633 53.25 42.8633C53.2734 42.8633 53.5313 43.0332 53.8184 43.2441C54.1055 43.4551 54.3691 43.625 54.3984 43.625C54.4453 43.625 54.457 42.6523 54.4453 40.4492C54.4277 36.7695 54.4805 37.0625 53.8242 37.0625C53.5195 37.0625 53.4375 37.0859 53.332 37.1973Z" fill="#00BA61"/>
<path d="M41.3262 37.209L41.1973 37.3027L41.1914 40.4609C41.1914 43.0508 41.2031 43.625 41.2676 43.625C41.3086 43.625 41.5488 43.4551 41.8008 43.2441C42.0527 43.0391 42.2988 42.8516 42.3516 42.834C42.4453 42.8105 42.4512 42.5703 42.4336 40.0391C42.416 37.543 42.4043 37.2617 42.3223 37.1914C42.1816 37.0859 41.4844 37.0977 41.3262 37.209Z" fill="#00BA61"/>
<path d="M6.08204 38.2756L4.63477 38.2931L4.42969 38.4924C4.23633 38.6681 4.21876 38.715 4.21876 39.0021C4.21876 39.3537 4.28321 39.4767 4.71094 39.9924C5.06837 40.4201 5.15626 40.7014 5.15626 41.4103C5.15626 42.1135 5.10352 42.2599 4.62891 42.8107C4.42969 43.0392 4.24805 43.2912 4.2129 43.3732C4.1836 43.4553 4.16016 45.5646 4.16016 48.5705C4.16016 54.0666 4.1543 54.0021 4.49415 54.5764C4.83985 55.1623 5.33204 55.4904 6.15235 55.6721C6.52735 55.7599 6.6504 55.7599 7.00196 55.7014C7.86915 55.5549 8.43751 55.1096 8.85938 54.2482L9.09376 53.7736L9.08204 48.5822C9.08204 45.7228 9.0586 43.3439 9.04102 43.2853C9.01758 43.2326 8.86524 42.9982 8.69532 42.7756C8.21485 42.1252 8.20313 42.09 8.20313 41.2697C8.20313 40.4553 8.2793 40.2092 8.64844 39.799C8.76563 39.6701 8.91212 39.4474 8.97657 39.3068C9.12891 38.9611 9.08204 38.7033 8.81251 38.4396L8.60743 38.2346L8.06837 38.2463C7.76954 38.258 6.87891 38.2697 6.08204 38.2756ZM6.95508 43.3674L7.10743 43.5197L7.06641 47.3107C7.03126 51.049 7.0254 51.0959 6.90821 51.1955C6.74415 51.3361 6.53321 51.3303 6.32227 51.1779L6.15235 51.0549L6.16407 47.2873L6.18165 43.5197L6.32227 43.3674C6.50977 43.1681 6.75587 43.1681 6.95508 43.3674ZM7.08399 52.7365C7.54102 53.1232 7.59962 53.5217 7.25977 53.9084C6.91407 54.301 6.33399 54.301 5.98829 53.9142C5.74219 53.633 5.70704 53.4162 5.85352 53.1291C6.12305 52.6017 6.70313 52.4201 7.08399 52.7365Z" fill="#00BA61"/>
<path d="M42.1348 43.7422C41.8066 44 41.543 44.2168 41.543 44.2285C41.543 44.2344 44.3906 44.2402 47.8711 44.2402C51.3516 44.2402 54.1992 44.2344 54.1992 44.2285C54.1992 44.1934 53.0566 43.3789 52.9336 43.332C52.8398 43.2969 50.8945 43.2734 47.7539 43.2734H42.7207L42.1348 43.7422Z" fill="#00BA61"/>
<path d="M32.8707 43.5725C32.3551 43.6604 31.8863 43.924 31.3648 44.4338C30.4332 45.3361 30.064 46.1389 30.0172 47.3459C29.982 48.1897 30.1168 48.9221 30.4332 49.5725C30.6558 50.0412 31.3355 50.8557 31.734 51.1252C32.4078 51.594 33.2281 51.7815 34.1129 51.6643C34.9332 51.5588 35.4312 51.2541 36.023 50.4983C36.8785 49.385 36.8843 49.4318 35.9644 49.4143C35.6011 49.4026 34.9332 49.4084 34.482 49.4201L33.6617 49.4377L33.4039 49.2443C32.8179 48.7932 32.4488 47.5217 32.7183 46.8772C32.8355 46.6018 33.1461 46.2209 33.3687 46.0861C33.5269 45.9924 33.7144 45.9748 35.0093 45.9397C35.8179 45.9221 36.5328 45.8928 36.5972 45.8811C36.9664 45.8049 36.7379 45.2483 36.0758 44.592C35.4136 43.9358 34.8394 43.6486 34.0426 43.5666C33.4039 43.5022 33.3101 43.5022 32.8707 43.5725Z" fill="#00BA61"/>
<path d="M13.8855 43.7593C12.8308 43.9995 11.9695 45.1773 11.6941 46.7593C11.5007 47.8667 11.6003 48.6988 12.0281 49.5073C12.3269 50.0757 12.7371 50.5034 13.241 50.773C13.7976 51.0718 13.9675 51.1128 14.6472 51.1187C15.7957 51.1304 16.2468 50.9253 17.1375 49.9995L17.7468 49.3667H23.6765C29.2957 49.3667 29.6003 49.3609 29.5593 49.2613C29.5359 49.2085 29.4656 48.9214 29.4011 48.6343C29.3015 48.189 29.2898 47.9722 29.3132 47.2573C29.3425 46.4488 29.4539 45.8042 29.5945 45.6402C29.6414 45.5816 28.4226 45.564 23.7761 45.5464L17.8992 45.5288L17.6296 45.3706C17.4832 45.2827 17.0671 44.937 16.7039 44.5972C16.2 44.1226 15.9714 43.9527 15.7253 43.8589C15.3093 43.7066 14.3484 43.6538 13.8855 43.7593ZM15.0222 46.5542C15.3796 46.689 15.7898 47.0874 15.8484 47.357C15.8718 47.4448 15.8953 47.5503 15.907 47.5855C15.9187 47.6206 15.9011 47.773 15.8718 47.9312C15.7371 48.646 14.9812 49.0855 14.2546 48.8687C13.8621 48.7515 13.6394 48.5581 13.4519 48.1831C13.1179 47.5093 13.3757 46.771 14.032 46.5308C14.3601 46.4077 14.6531 46.4195 15.0222 46.5542ZM24.0281 47.0816C27.5085 47.0816 27.948 47.0933 28.03 47.1753C28.1648 47.3042 28.1472 47.6089 27.9949 47.7671L27.8718 47.9019H23.5476H19.2234L19.1003 47.773C18.9539 47.6148 18.948 47.3101 19.0886 47.187C19.2351 47.0523 19.3757 47.0288 19.7683 47.0581C19.9558 47.0698 21.8718 47.0816 24.0281 47.0816Z" fill="#00BA61"/>
<path d="M53.2031 53.0824C53.2031 53.6801 53.2207 53.8793 53.2852 53.932C53.3379 53.9789 53.5547 53.9965 53.8887 53.9848L54.4043 53.9672L54.4219 53.1293L54.4395 52.2973H53.8184H53.2031V53.0824Z" fill="#00BA61"/>
<path d="M41.1722 53.1291C41.1547 53.5569 41.1547 53.926 41.1664 53.9495C41.2132 54.0256 42.2679 54.008 42.35 53.926C42.3968 53.8791 42.4203 53.6096 42.4203 53.1057V52.3557H41.8168H41.2074L41.1722 53.1291Z" fill="#00BA61"/>
<path d="M12.4219 53.9137C12.1934 54.066 12.1289 54.1774 12.1289 54.4235C12.1289 54.8922 12.6973 55.1793 12.9961 54.857C13.2012 54.6403 13.2539 54.4293 13.1602 54.2067C13.0137 53.8492 12.7031 53.7262 12.4219 53.9137Z" fill="#00BA61"/>
<path d="M14.3773 54.0367C14.1839 54.2476 14.1488 54.4176 14.2601 54.6344C14.5413 55.1676 15.2913 55.0094 15.2913 54.4117C15.2913 53.943 14.6937 53.6969 14.3773 54.0367Z" fill="#00BA61"/>
<path d="M16.6399 53.9725C16.2942 54.2069 16.2532 54.4764 16.5168 54.7694C16.8157 55.1034 17.2961 54.9803 17.3782 54.5409C17.4309 54.2655 17.3254 54.0663 17.0793 53.9608C16.8274 53.8553 16.8157 53.8553 16.6399 53.9725Z" fill="#00BA61"/>
<path d="M18.603 54.0609C18.3276 54.307 18.3276 54.5062 18.603 54.7875C18.9136 55.0922 19.2183 55.0336 19.4292 54.6293C19.5405 54.4184 19.4644 54.1781 19.23 53.9965C19.0249 53.8324 18.8433 53.85 18.603 54.0609Z" fill="#00BA61"/>
<path d="M20.7349 54.0492C20.4947 54.2894 20.5064 54.5355 20.7642 54.7934C21.022 55.0512 21.2213 55.057 21.4498 54.8109C21.6842 54.5648 21.6842 54.2836 21.4498 54.0492C21.2154 53.8207 20.9693 53.8207 20.7349 54.0492Z" fill="#00BA61"/>
<path d="M22.9149 54.0308C22.6571 54.2476 22.663 54.5113 22.9384 54.7866C23.161 55.0034 23.2489 55.0327 23.454 54.9273C23.8349 54.7339 23.8876 54.3765 23.5888 54.0777C23.3485 53.8374 23.161 53.8257 22.9149 54.0308Z" fill="#00BA61"/>
</svg>
