<svg width="60" height="61" viewBox="0 0 60 61" fill="none" xmlns="http://www.w3.org/2000/svg">
<g clip-path="url(#clip0_40_4447)">
<path d="M27.0886 0.613922C27.0886 0.664555 26.6835 0.753162 26.1899 0.803795C22.8228 1.10759 18.2405 2.68987 14.8354 4.71519C8.26582 8.61392 3.39241 14.9051 1.21519 22.2722C0.797468 23.7152 0.405063 25.6013 0.303797 26.6899C0.253165 27.1835 0.164557 27.5886 0.113924 27.5886C0.0506329 27.5886 0 28.8924 0 30.5C0 32.0949 0.0506329 33.4114 0.101266 33.4114C0.151899 33.4114 0.265823 33.9937 0.35443 34.7152C0.443038 35.424 0.696203 36.7785 0.936709 37.7152C2.26582 43.0063 4.79747 47.538 8.53165 51.3734C12.2658 55.1962 16.6203 57.8418 21.6329 59.3481C23.0506 59.7658 25.3418 60.2468 25.962 60.2468C26.1646 60.2468 26.3291 60.2975 26.3291 60.3734C26.3291 60.4494 27.6582 60.5 30.0633 60.5C32.1139 60.5 33.7975 60.4494 33.7975 60.3861C33.7975 60.3354 34.1519 60.2468 34.5949 60.1962C35.6076 60.0949 38.0633 59.5 39.6203 58.981C48.2532 56.0823 55.3924 49.019 58.3544 40.4367C59.0886 38.2848 59.7468 35.5759 59.7468 34.6392C59.7468 34.4494 59.8101 34.2975 59.8734 34.2975C59.9494 34.2975 60 32.9684 60 30.5633C60 28.5127 59.9494 26.8291 59.8861 26.8291C59.8354 26.8291 59.7468 26.4494 59.6962 25.9937C59.6456 25.5253 59.3797 24.2595 59.1139 23.1835C57.1772 15.6266 52.3291 9.06962 45.5696 4.8924C44.2658 4.09494 41.4684 2.77848 39.8734 2.20886C38.1646 1.61392 35.7595 1.0443 34.1646 0.84177C33.481 0.76582 32.9114 0.651897 32.9114 0.601265C32.9114 0.550632 31.6076 0.5 30 0.5C28.4051 0.5 27.0886 0.550632 27.0886 0.613922ZM34.3671 4.23418C38.4051 4.98101 41.5696 6.24683 44.8101 8.41139C51.9873 13.2089 56.3544 21.0063 56.6709 29.5506C56.9367 37.0443 54.1899 44.0316 48.8608 49.3734C40.6709 57.5759 28.2152 59.5506 17.9114 54.2595C10.4051 50.4114 5.27848 43.3987 3.72152 34.8671C3.44304 33.3481 3.34177 29.3987 3.53165 27.7025C4.46835 19.5253 9.01266 12.3228 16.0127 7.90506C19.038 5.99367 22.7848 4.63924 26.4684 4.12025C28.2278 3.86709 32.7595 3.93038 34.3671 4.23418Z" fill="#00BA61"/>
<path d="M15.0244 14.2215C13.3915 14.8165 12.3535 16.3228 12.3535 18.0949C12.3662 20.3354 13.9611 22.019 16.2016 22.1203C20.6447 22.3354 22.189 16.424 18.2016 14.4367C17.5307 14.0949 17.2902 14.0443 16.4674 14.0443C15.9358 14.057 15.2902 14.1329 15.0244 14.2215Z" fill="#00BA61"/>
<path d="M25.4042 14.1831C24.6954 14.3477 23.784 14.854 23.3283 15.335C22.6194 16.0818 22.341 16.778 22.2903 17.9426C22.2523 18.9173 22.2777 19.0565 22.6448 19.8034C23.1004 20.7148 23.6954 21.297 24.6321 21.7274L25.2903 22.0186H34.9992H44.7207L45.3663 21.7274C46.2903 21.297 46.8853 20.7274 47.341 19.8413C47.6574 19.1831 47.7207 18.9173 47.7207 18.1072C47.7207 16.4489 46.9106 15.1831 45.3283 14.3983L44.746 14.1072L35.3156 14.0818C30.0372 14.0692 25.6701 14.1198 25.4042 14.1831Z" fill="#00BA61"/>
<path d="M15.2269 26.6264C14.4674 26.8796 13.8725 27.272 13.3029 27.9175C12.67 28.6391 12.3535 29.5631 12.3535 30.6391C12.3535 32.1707 13.3535 33.677 14.8092 34.3226C15.6447 34.7024 17.189 34.7024 18.0371 34.3226C19.9105 33.4745 20.9105 31.31 20.3282 29.3479C19.8598 27.7403 18.3535 26.5758 16.6573 26.4872C16.1257 26.4619 15.5434 26.5251 15.2269 26.6264Z" fill="#00BA61"/>
<path d="M24.9121 26.766C22.8235 27.5381 21.7602 29.766 22.469 31.8926C22.7475 32.7407 23.7222 33.7913 24.583 34.1837L25.2539 34.4875L34.8235 34.5255L44.4058 34.5508L45.1399 34.285C46.1526 33.9052 47.2159 32.8419 47.5323 31.9052C47.8235 31.0191 47.7475 29.5128 47.3678 28.7786C47.0134 28.0951 46.1906 27.285 45.469 26.9305L44.8741 26.6394L35.1273 26.6141C27.102 26.6014 25.2918 26.6267 24.9121 26.766Z" fill="#00BA61"/>
<path d="M15.67 38.9806C14.8978 39.1198 13.8852 39.6768 13.3915 40.2338C12.7079 41.0186 12.3535 41.9553 12.3535 43.0312C12.3662 44.1831 12.6447 44.9047 13.4295 45.7528C14.9485 47.3983 17.4801 47.5376 19.151 46.0566C20.3535 45.0059 20.8219 43.1198 20.2649 41.6262C19.556 39.7401 17.6447 38.6388 15.67 38.9806Z" fill="#00BA61"/>
<path d="M25.1892 39.1459C21.7335 40.0953 21.1892 44.7788 24.3285 46.5256L24.9994 46.8927L34.7589 46.9307C44.3158 46.956 44.5437 46.956 45.2146 46.7029C46.1639 46.3484 46.8728 45.7029 47.3285 44.7788C48.1133 43.2218 47.7462 41.2345 46.4551 40.0699C46.1639 39.8041 45.6576 39.4623 45.3285 39.3104C44.7462 39.0446 44.6576 39.0446 35.2525 39.0193C28.012 39.0067 25.6196 39.032 25.1892 39.1459Z" fill="#00BA61"/>
</g>
<defs>
<clipPath id="clip0_40_4447">
<rect width="60" height="60" fill="white" transform="translate(0 0.5)"/>
</clipPath>
</defs>
</svg>
