<svg width="60" height="61" viewBox="0 0 60 61" fill="none" xmlns="http://www.w3.org/2000/svg">
<path d="M42.5 5.5C44.413 5.49989 46.2538 6.23081 47.6456 7.54321C49.0375 8.85561 49.8753 10.6503 49.9875 12.56L50 13C51.9891 13 53.8968 13.7902 55.3033 15.1967C56.7098 16.6032 57.5 18.5109 57.5 20.5C57.5001 24.381 55.9961 28.1109 53.3038 30.9062C50.6116 33.7015 46.9407 35.3445 43.0625 35.49L42.5 35.5H32.5L32.875 35.5125C34.0654 35.602 35.1846 36.1144 36.0301 36.9571C36.8756 37.7999 37.3917 38.9174 37.485 40.1075L37.5 40.5V50.5C37.5004 51.7614 37.024 52.9764 36.1663 53.9014C35.3085 54.8263 34.1329 55.3929 32.875 55.4875L32.5 55.5H27.5C26.2386 55.5004 25.0236 55.024 24.0986 54.1663C23.1737 53.3085 22.6071 52.1329 22.5125 50.875L22.5 50.5V40.5C22.4996 39.2386 22.976 38.0236 23.8337 37.0986C24.6915 36.1737 25.8671 35.6071 27.125 35.5125L27.5 35.5V33C27.5001 32.3877 27.7249 31.7967 28.1318 31.3391C28.5387 30.8815 29.0994 30.5891 29.7075 30.5175L30 30.5H42.5C45.1522 30.5 47.6957 29.4464 49.5711 27.5711C51.4464 25.6957 52.5 23.1522 52.5 20.5C52.4999 19.8877 52.2751 19.2967 51.8682 18.8391C51.4613 18.3815 50.9006 18.0891 50.2925 18.0175L50 18L49.9875 18.44C49.8798 20.274 49.1027 22.0046 47.8037 23.3037C46.5046 24.6027 44.774 25.3798 42.94 25.4875L42.5 25.5H17.5C15.587 25.5001 13.7462 24.7692 12.3543 23.4568C10.9625 22.1444 10.1247 20.3497 10.0125 18.44L10 18V13C9.99989 11.087 10.7308 9.24621 12.0432 7.85435C13.3556 6.46248 15.1503 5.62473 17.06 5.5125L17.5 5.5H42.5Z" fill="#00BA61"/>
</svg>
