<svg width="60" height="61" viewBox="0 0 60 61" fill="none" xmlns="http://www.w3.org/2000/svg">
<path d="M47.5 15.5H43.535L41.035 13C39.5875 11.5525 37.0475 10.5 35 10.5H25C22.9525 10.5 20.4125 11.5525 18.965 13L16.465 15.5H12.5C8.365 15.5 5 18.865 5 23V43C5 47.135 8.365 50.5 12.5 50.5H47.5C51.635 50.5 55 47.135 55 43V23C55 18.865 51.635 15.5 47.5 15.5ZM30 40.5C27.679 40.4997 25.4532 39.5773 23.8123 37.9359C22.1714 36.2945 21.2497 34.0685 21.25 31.7475C21.2503 29.4265 22.1727 27.2007 23.8141 25.5598C25.4555 23.9189 27.6815 22.9972 30.0025 22.9975C32.3235 22.9978 34.5493 23.9202 36.1902 25.5616C37.8311 27.203 38.7528 29.429 38.7525 31.75C38.7522 34.071 37.8298 36.2968 36.1884 37.9377C34.547 39.5786 32.321 40.5003 30 40.5ZM45 28.7475C44.5732 28.7475 44.1506 28.6634 43.7563 28.5001C43.362 28.3368 43.0037 28.0974 42.7019 27.7956C42.4001 27.4938 42.1607 27.1355 41.9974 26.7412C41.8341 26.3469 41.75 25.9243 41.75 25.4975C41.75 25.0707 41.8341 24.6481 41.9974 24.2538C42.1607 23.8595 42.4001 23.5012 42.7019 23.1994C43.0037 22.8976 43.362 22.6582 43.7563 22.4949C44.1506 22.3316 44.5732 22.2475 45 22.2475C45.862 22.2475 46.6886 22.5899 47.2981 23.1994C47.9076 23.8089 48.25 24.6355 48.25 25.4975C48.25 26.3595 47.9076 27.1861 47.2981 27.7956C46.6886 28.4051 45.862 28.7475 45 28.7475Z" fill="#00BA61"/>
</svg>
