<svg width="60" height="61" viewBox="0 0 60 61" fill="none" xmlns="http://www.w3.org/2000/svg">
<g clip-path="url(#clip0_40_4448)">
<path d="M0.65625 2.93761C0.28125 3.31261 0 4.62511 0 5.84386C0 7.62511 0.46875 8.00011 3.09375 8.00011C4.6875 8.00011 6.5625 8.37511 7.125 8.75011C7.6875 9.12511 10.0312 15.3126 12.375 22.5314C15.75 32.8439 16.5938 36.5939 16.2188 40.0626C15.8438 43.6251 16.125 44.7501 17.7188 46.3439C19.6875 48.3126 20.4375 48.3126 37.3125 48.1251L54.8438 47.8439V45.5001V43.1564L38.25 42.8751C25.5 42.6876 21.5625 42.4064 21.5625 41.4689C21.5625 38.4689 23.8125 38.0001 38.0625 38.0001H52.3125L56.1562 26.6564C58.2188 20.4689 59.625 14.7501 59.3438 14.0001C58.9688 12.8751 55.2188 12.6876 37.3125 12.6876H15.8438L14.4375 9.12511C12.0938 3.03136 11.8125 2.84386 6.46875 2.56261C3.65625 2.37511 1.03125 2.56261 0.65625 2.93761Z" fill="#00BA61"/>
</g>
<defs>
<clipPath id="clip0_40_4448">
<rect width="60" height="60" fill="white" transform="translate(0 0.5)"/>
</clipPath>
</defs>
</svg>
