<svg width="24" height="24" viewBox="0 0 24 24" fill="none" xmlns="http://www.w3.org/2000/svg">
<path d="M19.3409 14.49L18.3409 12.83C18.1309 12.46 17.9409 11.76 17.9409 11.35V8.82C17.9409 6.47 16.5609 4.44 14.5709 3.49C14.0509 2.57 13.0909 2 11.9909 2C10.9009 2 9.92092 2.59 9.40092 3.52C7.45092 4.49 6.10092 6.5 6.10092 8.82V11.35C6.10092 11.76 5.91092 12.46 5.70092 12.82L4.69092 14.49C4.29092 15.16 4.20092 15.9 4.45092 16.58C4.69092 17.25 5.26092 17.77 6.00092 18.02C7.94092 18.68 9.98092 19 12.0209 19C14.0609 19 16.1009 18.68 18.0409 18.03C18.7409 17.8 19.2809 17.27 19.5409 16.58C19.8009 15.89 19.7309 15.13 19.3409 14.49Z" fill="#011014"/>
<path d="M14.8307 20.01C14.4107 21.17 13.3007 22 12.0007 22C11.2107 22 10.4307 21.68 9.88066 21.11C9.56066 20.81 9.32066 20.41 9.18066 20C9.31066 20.02 9.44066 20.03 9.58066 20.05C9.81066 20.08 10.0507 20.11 10.2907 20.13C10.8607 20.18 11.4407 20.21 12.0207 20.21C12.5907 20.21 13.1607 20.18 13.7207 20.13C13.9307 20.11 14.1407 20.1 14.3407 20.07C14.5007 20.05 14.6607 20.03 14.8307 20.01Z" fill="#011014"/>
</svg>
