<svg width="46" height="46" viewBox="0 0 46 46" fill="none" xmlns="http://www.w3.org/2000/svg">
<path d="M20.605 4.69578C21.9275 3.56495 24.0933 3.56495 25.435 4.69578L28.4633 7.30265C29.0383 7.80099 30.1116 8.20343 30.8783 8.20343H34.1367C36.1683 8.20343 37.8358 9.8708 37.8358 11.9025V15.1609C37.8358 15.9084 38.2383 17.001 38.7366 17.576L41.3433 20.6042C42.4742 21.9267 42.4742 24.0926 41.3433 25.4342L38.7366 28.4625C38.2383 29.0375 37.8358 30.1108 37.8358 30.8775V34.136C37.8358 36.1677 36.1683 37.835 34.1367 37.835H30.8783C30.1308 37.835 29.0383 38.2375 28.4633 38.7358L25.435 41.3424C24.1125 42.4733 21.9467 42.4733 20.605 41.3424L17.5767 38.7358C17.0017 38.2375 15.9283 37.835 15.1617 37.835H11.8458C9.81415 37.835 8.14666 36.1677 8.14666 34.136V30.8583C8.14666 30.1108 7.74418 29.0375 7.26501 28.4625L4.6775 25.4151C3.56583 24.0926 3.56583 21.9459 4.6775 20.6234L7.26501 17.576C7.74418 17.001 8.14666 15.9276 8.14666 15.1801V11.9025C8.14666 9.8708 9.81415 8.20343 11.8458 8.20343H15.1617C15.9092 8.20343 17.0017 7.80099 17.5767 7.30265L20.605 4.69578Z" stroke="#282828" stroke-width="3.5" stroke-linecap="round" stroke-linejoin="round"/>
<path d="M18.9563 28.4048L21.7355 30.5515C22.0996 30.9156 22.9047 31.0882 23.4413 31.0882H26.8338C27.9071 31.0882 29.0763 30.2832 29.3446 29.2099L31.4913 22.6548C31.9321 21.409 31.1272 20.3165 29.7855 20.3165H26.2013C25.6647 20.3165 25.2238 19.8758 25.3005 19.2433L25.7413 16.3683C25.9138 15.5633 25.3772 14.6624 24.5722 14.3941C23.863 14.1258 22.9622 14.4898 22.598 15.0265L18.918 20.489" stroke="#282828" stroke-width="3.5" stroke-miterlimit="10"/>
<path d="M14.375 28.405V19.6268C14.375 18.3618 14.9117 17.9209 16.1767 17.9209H17.0775C18.3233 17.9209 18.8792 18.3618 18.8792 19.6268V28.405C18.8792 29.6508 18.3425 30.1109 17.0775 30.1109H16.1767C14.9117 30.1109 14.375 29.67 14.375 28.405Z" stroke="#282828" stroke-width="3.5" stroke-linecap="round" stroke-linejoin="round"/>
</svg>
