<svg width="48" height="48" viewBox="0 0 48 48" fill="none" xmlns="http://www.w3.org/2000/svg">
<path d="M29.4007 12.6004C29.0342 12.9743 28.829 13.4769 28.829 14.0004C28.829 14.524 29.0342 15.0266 29.4007 15.4004L32.6007 18.6004C32.9745 18.9669 33.4772 19.1722 34.0007 19.1722C34.5242 19.1722 35.0268 18.9669 35.4007 18.6004L42.9407 11.0604C43.9464 13.2828 44.2509 15.7589 43.8136 18.1587C43.3763 20.5586 42.2181 22.7681 40.4932 24.493C38.7684 26.2179 36.5588 27.3761 34.159 27.8134C31.7592 28.2506 29.2831 27.9461 27.0607 26.9404L13.2407 40.7604C12.445 41.5561 11.3659 42.0031 10.2407 42.0031C9.11547 42.0031 8.03634 41.5561 7.24069 40.7604C6.44504 39.9648 5.99805 38.8857 5.99805 37.7604C5.99805 36.6352 6.44504 35.5561 7.24069 34.7604L21.0607 20.9404C20.055 18.7181 19.7505 16.242 20.1878 13.8422C20.625 11.4423 21.7833 9.23276 23.5081 7.50789C25.233 5.78302 27.4426 4.62479 29.8424 4.18753C32.2422 3.75028 34.7183 4.05478 36.9407 5.06045L29.4007 12.6004Z" stroke="#282828" stroke-width="3.5" stroke-linecap="round" stroke-linejoin="round"/>
</svg>
