<svg width="23" height="16" viewBox="0 0 23 16" fill="none" xmlns="http://www.w3.org/2000/svg">
<g clip-path="url(#clip0_172_8594)">
<path d="M20.9762 8.27109C22.0903 8.28709 23.0002 9.21909 23.0002 10.3441C23.0002 11.4701 22.0903 12.4171 20.9762 12.4331H14.9303C15.6863 12.1181 16.0583 11.4891 16.4403 10.7541H20.9473C21.1843 10.7541 21.3773 10.5791 21.3773 10.3421C21.3773 10.2858 21.3661 10.23 21.3445 10.178C21.3228 10.126 21.2911 10.0788 21.2511 10.0391C21.2112 9.9994 21.1637 9.96801 21.1116 9.94672C21.0594 9.92544 21.0036 9.91469 20.9473 9.91509H18.8463C18.3004 9.91297 17.7777 9.69451 17.3927 9.30761C17.0076 8.92071 16.7917 8.39693 16.7922 7.85109C16.7922 6.71609 17.7132 5.78809 18.8452 5.78809H22.0893V7.39709H18.8463C18.7304 7.40074 18.6206 7.44953 18.5403 7.53305C18.4599 7.61657 18.4154 7.7282 18.4163 7.84409C18.4163 8.08109 18.6083 8.27109 18.8463 8.27109H20.9762ZM12.8082 5.78809C14.6142 5.78809 16.0763 7.27009 16.0763 9.09809C16.0763 10.9251 14.6112 12.4331 12.8053 12.4331H11.1663V16.0001H9.53125V9.10309C9.53125 7.27609 11.0022 5.78809 12.8082 5.78809ZM12.8082 10.7541C13.7172 10.7541 14.4563 10.0241 14.4563 9.09809C14.4563 8.17209 13.7172 7.41809 12.8082 7.41809C11.8992 7.41809 11.1663 8.17209 11.1663 9.09809V10.7541H12.8082Z" fill="#5F6360"/>
<path d="M4.355 12.433H8.677C8.62434 12.7276 8.46958 12.9942 8.23989 13.1861C8.0102 13.3779 7.72026 13.4827 7.421 13.482H1.276C0.574 13.482 0 12.887 0 12.182V6.004C0 5.3 0.574 4.74 1.276 4.74H7.421C8.122 4.74 8.697 5.317 8.697 6.023L8.691 10.755H4.355C3.691 10.755 3.115 10.44 2.83 9.881H7.653V9.078C7.65142 8.20167 7.3028 7.36164 6.68342 6.7417C6.06404 6.12176 5.22433 5.77238 4.348 5.77C3.61079 5.77281 2.89572 6.02224 2.3167 6.47857C1.73769 6.9349 1.32803 7.57186 1.153 8.288C1.153 8.288 1.056 8.771 1.056 9.086C1.056 9.401 1.158 9.879 1.158 9.879C1.51 11.326 2.809 12.434 4.355 12.434V12.433ZM4.348 7.339C5.01 7.339 5.585 7.746 5.871 8.271H2.825C3.111 7.746 3.687 7.339 4.348 7.339ZM7.131 2.729V3.494C7.131 3.593 7.045 3.69 6.945 3.69H5.921C5.821 3.69 5.74 3.593 5.74 3.494V2.73C5.74 1.977 5.116 1.364 4.348 1.364C3.581 1.364 2.957 1.977 2.957 2.73V3.494C2.957 3.593 2.869 3.69 2.769 3.69H1.745C1.645 3.69 1.565 3.593 1.565 3.494V2.655C1.606 1.182 2.836 0 4.349 0C5.885 0 7.13 1.222 7.13 2.73L7.131 2.729Z" fill="#A41760"/>
</g>
<defs>
<clipPath id="clip0_172_8594">
<rect width="23" height="16" fill="white"/>
</clipPath>
</defs>
</svg>
