<svg width="36" height="36" viewBox="0 0 36 36" fill="none" xmlns="http://www.w3.org/2000/svg">
<rect width="36" height="36" rx="4.90909" fill="#FFA033"/>
<path d="M21.8752 8.21875H26.0938C26.3175 8.21875 26.5321 8.30764 26.6904 8.46588C26.8486 8.62411 26.9375 8.83872 26.9375 9.0625V26.7812C26.9375 27.005 26.8486 27.2196 26.6904 27.3779C26.5321 27.5361 26.3175 27.625 26.0938 27.625H10.9062C10.6825 27.625 10.4679 27.5361 10.3096 27.3779C10.1514 27.2196 10.0625 27.005 10.0625 26.7812V9.0625C10.0625 8.83872 10.1514 8.62411 10.3096 8.46588C10.4679 8.30764 10.6825 8.21875 10.9062 8.21875H15.1248" stroke="white" stroke-width="2" stroke-linecap="round" stroke-linejoin="round"/>
<path d="M14.2812 11.5938V10.75C14.2813 9.63112 14.7257 8.55806 15.5169 7.76689C16.3081 6.97572 17.3811 6.53125 18.5 6.53125C19.6189 6.53125 20.6919 6.97572 21.4831 7.76689C22.2743 8.55806 22.7188 9.63112 22.7188 10.75V11.5938H14.2812Z" stroke="white" stroke-width="2" stroke-linecap="round" stroke-linejoin="round"/>
<mask id="mask0_13_10740" style="mask-type:alpha" maskUnits="userSpaceOnUse" x="12" y="14" width="13" height="12">
<path d="M25 16.7857L24.0714 14H21.75L18.0357 17.7143L15.7143 15.3929L12 17.7143L13.8571 22.8214L18.5 25.6071L21.2857 23.2857L25 16.7857Z" fill="#D9D9D9"/>
</mask>
<g mask="url(#mask0_13_10740)">
<path d="M22.4415 16.1295C22.8041 15.7669 23.3921 15.7669 23.7547 16.1295C24.1173 16.4922 24.1173 17.0801 23.7547 17.4427L18.4107 22.7857C17.6855 23.5109 16.5097 23.5108 15.7845 22.7856L14.1287 21.1299C13.7661 20.7673 13.7661 20.1793 14.1287 19.8167C14.4914 19.4541 15.0793 19.4541 15.4419 19.8167L16.4415 20.8163C16.8042 21.1789 17.3921 21.1789 17.7547 20.8163L22.4415 16.1295Z" fill="white"/>
<path fill-rule="evenodd" clip-rule="evenodd" d="M18.4996 9.35938C17.5959 9.35938 16.9231 9.72394 16.3512 10.0338C16.218 10.1059 16.0903 10.1751 15.9665 10.236C15.2468 10.59 14.1563 11.0105 11.9396 11.1603C10.4845 11.2586 9.18995 12.4432 9.24797 14.0355C9.34341 16.6548 9.64726 19.3345 10.2583 21.5927C10.8563 23.8023 11.803 25.8187 13.3417 26.8445C14.8131 27.8254 16.0234 28.6758 16.8331 29.2562C17.8274 29.969 19.1719 29.969 20.1662 29.2562C20.9758 28.6758 22.1861 27.8254 23.6576 26.8445C25.1962 25.8187 26.143 23.8023 26.7409 21.5927C27.352 19.3346 27.6559 16.6548 27.7513 14.0355C27.8093 12.4432 26.5147 11.2586 25.0596 11.1603C22.843 11.0105 21.7524 10.59 21.0328 10.236C20.9089 10.1751 20.7813 10.106 20.6481 10.0338C20.0763 9.72397 19.4033 9.35938 18.4996 9.35938ZM12.0648 13.0132C14.5093 12.8481 15.8375 12.3692 16.7862 11.9025C17.0573 11.7692 17.2668 11.6581 17.4389 11.5668C17.9098 11.3173 18.0998 11.2165 18.4996 11.2165C18.8994 11.2165 19.0895 11.3173 19.5603 11.5668C19.7324 11.6581 19.942 11.7692 20.2131 11.9025C21.1618 12.3692 22.4899 12.8481 24.9344 13.0132C25.526 13.0532 25.9121 13.5103 25.8954 13.9679C25.8028 16.5082 25.5092 19.0349 24.9483 21.1076C24.3742 23.2289 23.5746 24.6678 22.6274 25.2992C21.1354 26.2939 19.9076 27.1565 19.0841 27.7468C18.7367 27.9959 18.2625 27.9959 17.9151 27.7468C17.0917 27.1565 15.8639 26.2939 14.3719 25.2992C13.4247 24.6678 12.625 23.2288 12.051 21.1076C11.4901 19.0348 11.1964 16.5081 11.1039 13.9679C11.0872 13.5103 11.4733 13.0532 12.0648 13.0132Z" fill="white"/>
</g>
</svg>
