<svg width="24" height="16" viewBox="0 0 24 16" fill="none" xmlns="http://www.w3.org/2000/svg">
<path d="M18.6523 8.72735H20.0083L19.3328 6.23828L18.6523 8.72735Z" fill="#016FD0"/>
<path d="M1 0C0.447716 0 0 0.447715 0 1V3.06667V4.24587V11.4165V13.5664V13.8667V15C0 15.5523 0.447715 16 1 16H23C23.5523 16 24 15.5523 24 15V13.8667V13.5669V11.4171V11.2139V11.1669V8.93333V3.06667V2.66667V1C24 0.447716 23.5523 0 23 0H1ZM6.4065 10.0832C6.14754 10.8339 5.2181 10.8869 5.2071 10.8875C5.20682 10.8875 5.207 10.8872 5.207 10.887C5.207 10.8867 5.20675 10.8864 5.20645 10.8865C4.80903 10.9375 4.33231 10.9211 4.24395 10.9174C4.23424 10.917 4.22464 10.9168 4.21492 10.9168H3.61906C3.61682 10.9168 3.615 10.915 3.615 10.9127C3.615 10.9105 3.61322 10.9087 3.61103 10.9087C3.04162 10.8919 2.63812 10.8137 2.2605 10.5168C1.84029 10.1859 1.86243 9.30147 1.86484 9.23207C1.86495 9.22884 1.865 9.22612 1.865 9.2229C1.865 9.10274 1.96241 9.00533 2.08257 9.00533H3.06395C3.16118 9.00533 3.24 9.08416 3.24 9.18139C3.24 9.18277 3.23999 9.18396 3.23998 9.18534C3.23979 9.21454 3.24357 9.57555 3.54447 9.66804C3.59045 9.68217 3.63915 9.68373 3.68725 9.68373H4.521C4.6915 9.67573 4.9255 9.64427 4.99 9.52747C5.01375 9.48389 5.05855 9.45245 5.06586 9.40337C5.0755 9.33863 5.0745 9.2277 5.0735 9.00533C5.0725 8.73707 4.9045 8.65227 4.768 8.6256C4.76054 8.62507 4.70561 8.62085 4.61549 8.61451C4.61451 8.61444 4.6135 8.61445 4.61252 8.61454C4.60519 8.61524 4.59945 8.61592 4.59655 8.61627C4.59542 8.61641 4.59438 8.61561 4.59422 8.61448C4.59409 8.6135 4.59335 8.61275 4.59237 8.61269C4.23194 8.58704 3.42319 8.52593 3.07361 8.48121C3.07284 8.48111 3.07291 8.48113 3.07214 8.48101C3.06727 8.48028 3.06155 8.47961 3.05666 8.47903C3.0521 8.4785 3.04755 8.47803 3.043 8.47733C3.035 8.47627 3.0295 8.47467 3.0185 8.47307C2.98971 8.4691 2.96049 8.46422 2.94205 8.46098C2.93935 8.46051 2.93708 8.45905 2.9345 8.45813C2.677 8.40373 2.134 8.2336 2.0005 7.7376C1.8325 7.11573 1.7485 6.07627 2.201 5.5408C2.2115 5.5248 2.2135 5.50933 2.2295 5.49333C2.236 5.4864 2.246 5.4832 2.253 5.4768C2.2605 5.46933 2.265 5.45973 2.2725 5.4528C2.4225 5.31307 2.6045 5.2352 2.7895 5.19093C3.07 5.10667 3.369 5.07307 3.594 5.05973C3.98471 5.03763 4.80133 5.05914 4.82306 5.05972C4.82374 5.05974 4.82383 5.05982 4.82449 5.06C4.82516 5.06018 4.8258 5.06027 4.82649 5.06029C4.98837 5.06414 5.44436 5.09758 5.865 5.3488C6.3535 5.64034 6.35628 6.35198 6.35473 6.43963C6.35462 6.44557 6.3545 6.45151 6.3545 6.45745C6.3545 6.70407 6.15457 6.904 5.90795 6.904H5.563C5.23939 6.904 5.07029 6.5594 4.82719 6.3458C4.77813 6.30269 4.72179 6.2822 4.667 6.2704C4.573 6.25013 4.3825 6.2384 4.2445 6.232C4.1985 6.22987 3.5565 6.20107 3.396 6.42613C3.2295 6.65973 3.344 6.99253 3.344 7.02613C3.344 7.05935 3.35426 7.31978 3.89783 7.31546C3.91027 7.31536 3.92308 7.31723 3.93428 7.32264C3.94323 7.32696 3.95286 7.32884 3.96277 7.32948C4.25844 7.34835 4.77392 7.38242 5.125 7.41493C5.1255 7.41493 5.1255 7.41493 5.1255 7.41493C5.126 7.41493 5.126 7.41493 5.1265 7.41493C5.2915 7.4304 5.4195 7.44533 5.468 7.4576C5.47244 7.45855 5.4729 7.46396 5.47734 7.4649C6.29142 7.63664 6.45238 8.19752 6.47637 8.30757C6.47913 8.32022 6.48108 8.33212 6.48325 8.34489C6.50699 8.48459 6.64621 9.38777 6.4065 10.0832ZM11.9393 6.67455C11.9391 6.67498 11.939 6.67544 11.939 6.67591C11.939 6.67918 11.9348 6.68052 11.9329 6.67787C11.5741 6.1808 11.0169 5.85493 10.3835 5.85493C10.2323 5.85493 10.0853 5.87337 9.94441 5.90821C9.23831 6.08278 9.59907 6.88267 10.3264 6.88267H11.1401C11.4625 6.88267 11.6749 7.21869 11.5365 7.50993C11.4638 7.66299 11.3095 7.76053 11.1401 7.76053H8.62706C8.5212 7.76053 8.4225 7.8408 8.4225 7.94667C8.4225 8.12803 8.587 8.2608 8.76836 8.2608H10.5425C10.8561 8.2608 11.0659 8.58368 10.9384 8.87025C10.8688 9.02667 10.7137 9.12747 10.5425 9.12747H10.2854C9.62944 9.12747 9.33051 9.84421 9.96968 9.99143C10.1032 10.0222 10.2418 10.0384 10.384 10.0384C10.6822 10.0384 10.9637 9.96627 11.2155 9.83799C11.4845 9.70093 11.9395 9.87473 11.9395 10.1766C11.9395 10.2685 11.8994 10.3565 11.826 10.4117C11.3763 10.7501 10.8282 10.9509 10.236 10.9509C9.18254 10.9509 8.26795 10.3228 7.80074 9.39852C7.72003 9.23885 7.56201 9.12747 7.3831 9.12747C7.07326 9.12747 6.86329 8.81174 6.98341 8.52614L7.03802 8.39628C7.07255 8.31419 7.15292 8.2608 7.24197 8.2608C7.37126 8.2608 7.47121 8.1504 7.47009 8.02112C7.47003 8.01427 7.47 8.00741 7.47 8.00053C7.47 7.87059 7.37064 7.76053 7.2407 7.76053H7.15684C6.93469 7.76053 6.78831 7.52908 6.88354 7.32837L6.97602 7.13345C7.04868 6.98029 7.2037 6.88267 7.37323 6.88267C7.5558 6.88267 7.71747 6.76864 7.79961 6.60559C8.26612 5.67955 9.18207 5.0496 10.236 5.0496C10.8296 5.0496 11.3788 5.25019 11.8288 5.59041C12.107 5.80076 12.1569 6.18356 12.0156 6.50243L11.9393 6.67455ZM15.0903 9.38744C15.0578 9.38505 15.0257 9.38347 14.993 9.38347H14.7079C14.2827 9.38347 13.938 9.72815 13.938 10.1533V10.1887C13.938 10.5944 13.6092 10.9232 13.2035 10.9232C12.7978 10.9232 12.469 10.5944 12.469 10.1887V6.05013C12.469 5.49785 12.9167 5.05013 13.469 5.05013H13.7085H13.9375H15.1146C15.1285 5.05013 15.1425 5.04984 15.1564 5.04956C15.1788 5.04913 15.2183 5.04881 15.2705 5.05013H15.292C15.6615 5.06133 16.586 5.14987 16.8755 5.74933C17.1525 6.3232 17.1585 6.96533 17.146 7.24213C17.145 7.26453 17.114 8.0864 17.052 8.32693C16.9895 8.5712 16.854 8.98293 16.396 9.2272C16.0016 9.43753 15.2825 9.40151 15.0903 9.38744ZM21.1317 10.9227C20.8205 10.9227 20.548 10.7142 20.4665 10.4139C20.385 10.1136 20.1125 9.90507 19.8013 9.90507H18.8585C18.547 9.90507 18.274 10.1134 18.1917 10.4139C18.1095 10.7143 17.8365 10.9227 17.525 10.9227H17.4956C17.0117 10.9227 16.6618 10.4605 16.7931 9.99478L17.9821 5.77771C18.1036 5.34673 18.4968 5.04907 18.9445 5.04907H19.6948C20.1408 5.04907 20.5328 5.34434 20.656 5.77293L21.8673 9.98904C22.0016 10.4566 21.6506 10.9227 21.1641 10.9227H21.1317Z" fill="#016FD0"/>
<path d="M15 6.29395H13.9375V8.04968H14.915C15.0515 8.04861 15.5185 8.02461 15.5625 7.74995C15.611 7.44861 15.6085 7.11314 15.608 7.07048C15.6005 6.95315 15.586 6.79048 15.5525 6.61661C15.4895 6.29395 15 6.29395 15 6.29395Z" fill="#016FD0"/>
</svg>
