<svg width="319" height="240" viewBox="0 0 319 240" fill="none" xmlns="http://www.w3.org/2000/svg">
<g clip-path="url(#clip0_84_8493)">
<path d="M13.2658 238.234C9.31671 224.965 2.95138 196.747 11.7556 163.493C15.2139 150.395 26.3664 108.164 66.1894 87.6683C70.818 85.2826 103.068 69.3027 139.213 80.697C187.199 95.7705 181.498 139.984 229.966 155.941C261.272 166.212 282.913 154.082 300.287 173.447C307.973 182.079 312.645 193.087 313.569 204.74C314.493 216.393 311.616 228.03 305.391 237.823L13.2658 238.234Z" fill="#EDEDED"/>
<path d="M260.17 200.163C261.313 200.681 262.405 201.308 263.432 202.037C267.517 204.927 268.045 207.677 271.836 209.474C273.008 210.031 274.26 210.392 275.543 210.543C277.68 210.78 279.84 210.463 281.826 209.621C281.826 209.621 285.14 201.294 270.107 197.537L269.578 200.07C269.178 199.396 268.77 198.722 268.37 198.041C267.309 197.768 266.209 197.694 265.123 197.824C263.279 198.071 261.552 198.887 260.17 200.163Z" fill="#7DD956"/>
<path d="M265.048 171.355C265.939 174.303 267.578 176.955 269.797 179.039C272.115 181.154 273.693 181.255 277.152 184.369C278.994 186.026 280.225 187.149 281.153 189.016C282.265 191.406 282.617 194.094 282.158 196.7C277.588 196.189 273.256 194.351 269.669 191.402L271.179 188.451L268.43 190.124C266.661 187.392 265.449 184.32 264.867 181.095C264.286 177.869 264.347 174.556 265.048 171.355Z" fill="#7DD956"/>
<path d="M286.009 184.291C274.72 181.766 270.522 169.783 270.522 169.783C270.854 169.14 275.808 167.614 275.808 167.614L269.231 166.677C269.231 166.677 268 164.818 268.68 160.744C269.359 156.669 266.648 151.03 266.648 151.03C270.362 151.889 273.927 153.323 277.22 155.283C280.708 157.374 285.994 160.535 288.153 166.677C288.503 167.682 288.756 168.72 288.908 169.775L286.643 173.013L289.105 171.797C289.202 176.173 288.132 180.494 286.009 184.291Z" fill="#7DD956"/>
<path d="M296.006 190.713C296.006 190.713 286.311 172.169 311.357 165.26C311.357 165.26 308.586 168.428 309.046 174.601C309.507 180.775 307.695 181.79 307.695 181.79L303.021 181.154L306.872 184.756C306.872 184.756 301.835 191.565 296.006 190.713Z" fill="#7DD956"/>
<path d="M312.045 196.878C312.045 196.878 295.169 191.037 295.834 206.243C295.834 206.243 301.187 211.185 306.201 203.694L304.849 200.82L307.182 201.308C307.182 201.308 310.354 197.35 312.045 196.878Z" fill="#7DD956"/>
<path d="M289.656 221.255C289.615 221.251 289.575 221.237 289.539 221.216C289.503 221.195 289.471 221.166 289.447 221.132C289.422 221.098 289.404 221.059 289.395 221.018C289.385 220.976 289.384 220.933 289.392 220.891C291.906 203.161 306.003 198.35 306.147 198.304C306.226 198.278 306.312 198.286 306.385 198.325C306.459 198.364 306.515 198.432 306.54 198.513C306.565 198.594 306.557 198.682 306.519 198.758C306.481 198.833 306.415 198.89 306.336 198.916C306.2 198.962 292.465 203.664 290.003 220.984C289.99 221.066 289.947 221.14 289.882 221.191C289.818 221.241 289.737 221.264 289.656 221.255Z" fill="#231F20"/>
<path d="M289.362 224.678C289.28 224.67 289.205 224.63 289.151 224.567C289.098 224.503 289.07 224.421 289.075 224.337C290.003 206.704 294.889 189.529 303.353 174.151C303.393 174.077 303.46 174.023 303.54 174C303.619 173.976 303.704 173.986 303.776 174.027C303.848 174.069 303.901 174.137 303.924 174.219C303.947 174.3 303.937 174.387 303.897 174.461C295.485 189.758 290.627 206.839 289.701 224.376C289.696 224.461 289.657 224.54 289.595 224.597C289.533 224.653 289.452 224.682 289.369 224.678H289.362Z" fill="#231F20"/>
<path d="M288.652 231.704C288.612 231.698 288.573 231.684 288.538 231.662C288.502 231.641 288.472 231.612 288.448 231.578C288.424 231.544 288.407 231.505 288.398 231.464C288.389 231.423 288.388 231.381 288.396 231.34C291.744 209.841 288.691 187.807 279.637 168.117C279.602 168.04 279.598 167.952 279.626 167.872C279.655 167.792 279.713 167.727 279.788 167.691C279.863 167.655 279.949 167.651 280.027 167.68C280.105 167.709 280.168 167.769 280.203 167.846C289.301 187.655 292.37 209.816 289.007 231.44C289.001 231.481 288.987 231.521 288.965 231.556C288.944 231.592 288.916 231.623 288.883 231.647C288.85 231.672 288.813 231.689 288.773 231.699C288.734 231.709 288.693 231.71 288.652 231.704Z" fill="#231F20"/>
<path d="M289.21 226.119C289.131 226.113 289.058 226.075 289.006 226.015C288.954 225.954 288.927 225.874 288.931 225.793C289.12 217.358 287.783 201.541 276.744 190.356C274.983 188.579 273.053 186.988 270.983 185.608C270.915 185.56 270.867 185.488 270.851 185.406C270.834 185.323 270.849 185.237 270.892 185.166C270.913 185.13 270.942 185.099 270.976 185.074C271.009 185.05 271.047 185.033 271.088 185.024C271.128 185.016 271.17 185.015 271.21 185.024C271.25 185.032 271.289 185.049 271.322 185.073C273.432 186.474 275.396 188.093 277.182 189.907C288.387 201.254 289.739 217.273 289.55 225.809C289.55 225.851 289.542 225.893 289.526 225.932C289.51 225.971 289.486 226.007 289.457 226.036C289.427 226.066 289.392 226.089 289.354 226.105C289.315 226.12 289.274 226.128 289.233 226.127L289.21 226.119Z" fill="#231F20"/>
<path d="M290.775 226.266C290.708 226.258 290.645 226.23 290.595 226.184C290.545 226.138 290.51 226.078 290.495 226.011C289.477 220.852 287.153 216.06 283.755 212.117C280.358 208.173 276.008 205.217 271.142 203.547C271.064 203.519 270.999 203.46 270.962 203.383C270.925 203.307 270.92 203.218 270.946 203.137C270.973 203.058 271.03 202.993 271.104 202.957C271.177 202.921 271.262 202.916 271.339 202.943C276.31 204.652 280.755 207.675 284.225 211.707C287.696 215.739 290.069 220.638 291.107 225.91C291.123 225.993 291.106 226.079 291.061 226.15C291.016 226.221 290.946 226.271 290.865 226.289L290.775 226.266Z" fill="#231F20"/>
<path d="M277.568 222.587L280.589 238.327H298.711L301.731 222.587H277.568ZM298.046 237.49H281.246L278.565 223.423H300.727L298.046 237.49Z" fill="#231F20"/>
<path d="M300.726 223.424L298.046 237.49H281.245L278.564 223.424H300.726Z" fill="white"/>
<path d="M302.484 223.005H276.797L275.324 217.847H303.964L302.484 223.005Z" fill="#231F20"/>
<path d="M318.659 238.326C318.676 238.533 318.652 238.741 318.588 238.938C318.525 239.135 318.424 239.317 318.291 239.473C318.158 239.629 317.996 239.756 317.814 239.846C317.632 239.937 317.434 239.989 317.232 240H1.42752C1.03314 239.944 0.671612 239.744 0.40987 239.437C0.148129 239.129 0.00390625 238.735 0.00390625 238.326C0.00390625 237.918 0.148129 237.524 0.40987 237.216C0.671612 236.908 1.03314 236.709 1.42752 236.653H317.247C317.448 236.666 317.644 236.72 317.824 236.811C318.004 236.902 318.165 237.03 318.296 237.186C318.428 237.341 318.528 237.523 318.59 237.718C318.652 237.914 318.676 238.121 318.659 238.326Z" fill="#231F20"/>
<path d="M71.1445 219.706L71.6278 230.225L78.1743 229.334L77.2229 216.956L71.1445 219.706Z" fill="white"/>
<path d="M71.6268 230.682C71.5216 230.682 71.42 230.643 71.3398 230.574C71.2938 230.533 71.256 230.483 71.2288 230.427C71.2016 230.371 71.1854 230.311 71.1813 230.248L70.7056 219.729C70.7014 219.638 70.7244 219.548 70.7717 219.47C70.8189 219.393 70.888 219.332 70.9698 219.296L77.0105 216.546C77.0732 216.511 77.1432 216.493 77.2144 216.493C77.2855 216.493 77.3556 216.511 77.4182 216.546C77.4795 216.583 77.5313 216.635 77.5693 216.697C77.6074 216.759 77.6306 216.829 77.6372 216.902L78.5886 229.296C78.5973 229.412 78.5623 229.527 78.4907 229.618C78.4191 229.709 78.3163 229.768 78.2035 229.784L71.657 230.682H71.6268ZM71.6268 220.001L72.0647 229.706L77.7127 228.932L76.8444 217.63L71.6268 220.001Z" fill="#231F20"/>
<path d="M28.573 221.836L27.4102 228.365H33.1412L34.44 220.325L28.573 221.836Z" fill="white"/>
<path d="M33.1403 228.83H27.4093C27.3438 228.83 27.2793 228.814 27.2205 228.785C27.1617 228.755 27.1101 228.712 27.0695 228.66C27.0277 228.609 26.9973 228.549 26.9803 228.485C26.9634 228.421 26.9603 228.353 26.9713 228.288L28.1341 221.758C28.1486 221.672 28.1869 221.592 28.2445 221.527C28.302 221.463 28.3764 221.417 28.4588 221.394L34.3333 219.922C34.4049 219.907 34.4788 219.909 34.5496 219.928C34.6203 219.947 34.6858 219.982 34.7411 220.031C34.7946 220.083 34.8349 220.147 34.8586 220.219C34.8823 220.29 34.8886 220.367 34.877 220.441L33.5783 228.443C33.5636 228.551 33.511 228.65 33.4304 228.721C33.3499 228.792 33.2467 228.831 33.1403 228.83ZM27.9529 227.916H32.7703L33.8954 220.945L28.9572 222.246L27.9529 227.916Z" fill="#231F20"/>
<path d="M34.9234 228.389V235.415H12.1426C12.1784 235.047 12.325 234.701 12.5618 234.423C12.7986 234.146 13.114 233.951 13.464 233.865C18.2971 232.613 22.8517 230.423 26.8818 227.413H33.9946C34.2424 227.421 34.4775 227.527 34.6506 227.709C34.8238 227.891 34.9215 228.135 34.9234 228.389Z" fill="#231F20"/>
<path d="M93.7288 235.593H70.2383C70.2987 233.269 70.344 230.883 70.4044 228.521C70.4103 228.255 70.5168 228.002 70.7015 227.816C70.8862 227.629 71.1344 227.524 71.3936 227.522L79.2011 227.421C79.4596 227.418 79.7108 227.509 79.9109 227.677C83.5728 230.68 87.834 232.819 92.3923 233.943C92.7632 234.025 93.0965 234.231 93.3389 234.531C93.5813 234.83 93.7186 235.204 93.7288 235.593Z" fill="#231F20"/>
<path d="M34.9219 235.414V236.708H12.0958V235.608C12.0879 235.543 12.0879 235.478 12.0958 235.414H34.9219Z" fill="#231F20"/>
<path d="M93.7288 235.593V236.693L70.2383 236.964C70.2383 236.507 70.2383 236.042 70.2383 235.585L93.7288 235.593Z" fill="#231F20"/>
<path d="M26.873 223.23L35.5489 154.291L42.0124 89.334H77.2445L78.9434 161.828V222.053L69.6786 223.401C67.7204 202.099 65.7622 180.798 63.804 159.497L59.3415 124.462C56.4269 136.675 53.5148 148.872 50.6052 161.054L36.3342 223.401L26.873 223.23Z" fill="#231F20"/>
<path d="M65.8428 29.7909C65.2086 30.1937 63.94 30.6275 61.403 29.636L62.4072 40.8289L54.0183 43.6872L49.888 40.0853C51.2547 34.2568 51.6429 28.232 51.0357 22.2696C49.0725 21.4331 47.8342 19.9459 47.9399 18.5593C47.9601 18.2367 48.0458 17.9219 48.1914 17.6351C48.3371 17.3484 48.5394 17.0959 48.7856 16.894C49.1089 16.6861 49.4741 16.5565 49.8534 16.5149C50.2328 16.4733 50.6165 16.5208 50.9753 16.6538C51.3981 14.8645 51.8134 13.0675 52.2287 11.2782L59.5077 10.7669L66.7942 10.124C66.983 11.9985 67.2171 14.6167 67.353 17.7538C67.8136 27.7538 66.764 29.21 65.8428 29.7909Z" fill="white"/>
<path d="M54.018 44.1445C53.9106 44.1441 53.8067 44.1058 53.7235 44.0361L49.6008 40.4342C49.5372 40.3798 49.49 40.3079 49.4646 40.227C49.4392 40.1461 49.4367 40.0595 49.4573 39.9772C50.1071 37.211 50.5364 34.3951 50.741 31.5574C50.9449 28.556 50.8994 25.5423 50.6051 22.5489C48.6116 21.6194 47.3658 20.0082 47.4866 18.49C47.5078 18.1027 47.6097 17.7246 47.7856 17.3811C47.9614 17.0377 48.2071 16.737 48.5059 16.4993C48.8128 16.2808 49.1602 16.1295 49.5266 16.0549C49.8929 15.9803 50.2703 15.9839 50.6353 16.0655L51.7754 11.1469C51.7977 11.0507 51.8492 10.9643 51.9225 10.9003C51.9958 10.8362 52.0871 10.7978 52.1832 10.7905L59.4622 10.2793L66.7411 9.63641C66.8513 9.62681 66.9609 9.65954 67.0488 9.72826C67.1367 9.79697 67.1966 9.89675 67.2168 10.0082C67.4811 12.5256 67.6699 15.105 67.7831 17.6767C68.2513 27.8858 67.1866 29.435 66.0616 30.1476C65.0347 30.7983 63.6377 30.837 61.8935 30.2716L62.8374 40.7518C62.8445 40.8557 62.8181 40.9591 62.7621 41.0459C62.7061 41.1328 62.6238 41.1982 62.5278 41.2321L54.1539 44.0903C54.112 44.1162 54.066 44.1345 54.018 44.1445ZM50.3861 39.9153L54.1086 43.1685L61.9313 40.5117L60.9572 29.6674C60.95 29.5906 60.9622 29.5132 60.9926 29.4427C61.023 29.3721 61.0707 29.3108 61.1309 29.2646C61.1921 29.2187 61.2634 29.1891 61.3385 29.1783C61.4136 29.1675 61.4901 29.1758 61.5613 29.2026C63.3433 29.8998 64.7024 29.9772 65.6085 29.3963C66.4618 28.8463 67.3376 27.0493 66.9148 17.7541C66.8015 15.3529 66.6279 12.9439 66.3938 10.5892L59.5452 11.1933L52.5834 11.6891L51.413 16.7317C51.3986 16.7947 51.3718 16.8541 51.3341 16.9061C51.2964 16.958 51.2488 17.0015 51.194 17.0338C51.1371 17.0603 51.0753 17.074 51.0128 17.074C50.9503 17.074 50.8885 17.0603 50.8316 17.0338C50.539 16.924 50.226 16.8837 49.916 16.9159C49.6061 16.9481 49.3072 17.052 49.042 17.2197C48.8468 17.3796 48.6872 17.5806 48.5739 17.809C48.4606 18.0375 48.3962 18.2882 48.3851 18.5442C48.2945 19.7294 49.4271 21.0384 51.2016 21.8053C51.2761 21.8352 51.341 21.8858 51.389 21.9515C51.4371 22.0172 51.4663 22.0953 51.4734 22.1771C51.7992 25.3109 51.8498 28.4685 51.6244 31.6116C51.4241 34.4085 51.0101 37.1849 50.3861 39.9153Z" fill="#231F20"/>
<path d="M104.283 43.5944C104.374 42.7719 104.746 42.009 105.333 41.4411C106.322 40.5735 107.515 40.8214 108.587 40.5813C109.788 40.3102 111.374 39.2645 112.853 35.6239C112.957 35.4769 113.024 35.3067 113.051 35.1275C113.077 34.9484 113.061 34.7653 113.004 34.5937C112.907 34.441 112.775 34.3143 112.62 34.2241C112.465 34.1339 112.291 34.0827 112.113 34.0747C111.049 33.943 110.49 35.2443 109.093 36.1351C107.236 37.3512 104.744 37.7385 104.261 37.0259C103.777 36.3133 105.416 34.7486 105.091 34.431C104.767 34.1134 101.58 35.9802 100.629 38.2033C100.531 38.4279 100.251 39.1638 99.9642 40.0778C99.7453 40.7827 99.5943 41.3791 99.4961 41.8129L104.283 43.5944Z" fill="white"/>
<path d="M104.284 44.09C104.234 44.098 104.183 44.098 104.133 44.09L99.3833 42.3084C99.281 42.2698 99.1962 42.1941 99.1447 42.0956C99.0932 41.9971 99.0787 41.8827 99.1039 41.774C99.2398 41.193 99.3983 40.5966 99.5796 40.0079C99.8589 39.1016 100.146 38.358 100.259 38.0869C101.19 36.2006 102.781 34.7451 104.714 34.0125C104.842 33.9665 104.979 33.9566 105.112 33.9838C105.245 34.0111 105.368 34.0745 105.469 34.1675C105.869 34.5625 105.537 35.1047 105.19 35.7166C105.039 35.9645 104.586 36.7159 104.691 36.8708C104.926 37.2116 107.032 37.0954 108.92 35.8561C109.359 35.5516 109.767 35.2011 110.136 34.8104C110.755 34.1984 111.321 33.6175 112.197 33.7337C112.433 33.7399 112.664 33.8106 112.865 33.9387C113.066 34.0667 113.229 34.2474 113.339 34.4621C113.449 34.6768 113.502 34.9178 113.491 35.1601C113.48 35.4024 113.406 35.6373 113.277 35.8406C112.038 38.877 110.506 40.6198 108.746 41.0226C108.393 41.0957 108.034 41.1423 107.674 41.162C106.96 41.1395 106.259 41.3601 105.681 41.7895C105.173 42.2848 104.855 42.9494 104.782 43.664C104.771 43.7304 104.747 43.7937 104.71 43.8497C104.674 43.9058 104.626 43.9533 104.571 43.9893C104.488 44.0536 104.387 44.0889 104.284 44.09ZM100.063 41.5571L103.951 43.0211C104.116 42.2937 104.496 41.6364 105.039 41.1388C105.757 40.5742 106.641 40.2765 107.546 40.2945C107.865 40.2742 108.183 40.2328 108.497 40.1706C110.007 39.8375 111.321 38.2573 112.439 35.523L112.484 35.4455C112.544 35.3526 112.695 35.0582 112.605 34.8723C112.54 34.7882 112.458 34.7205 112.363 34.6748C112.269 34.6291 112.165 34.6066 112.061 34.609C111.638 34.5548 111.306 34.8568 110.725 35.4378C110.316 35.8715 109.863 36.2584 109.373 36.5919C107.508 37.8158 104.661 38.4355 103.936 37.3665C103.491 36.7159 103.997 35.8793 104.405 35.2054L104.495 35.0582C103.034 35.7938 101.837 36.9839 101.075 38.4587C100.992 38.6601 100.712 39.3882 100.425 40.2945C100.297 40.6508 100.169 41.0846 100.063 41.5184V41.5571Z" fill="#231F20"/>
<path d="M98.847 41.2704L91.6209 59.5818L80.1135 40.1472C79.5669 39.2332 78.7453 38.5263 77.7727 38.1333C72.4569 36.1142 67.1387 34.0822 61.8179 32.0372C61.4455 33.3138 60.6862 34.4353 59.6502 35.2391C58.6141 36.0428 57.3554 36.4868 56.0566 36.5066C54.6835 36.5648 53.3383 36.0984 52.2812 35.1976C51.3641 34.3481 50.7702 33.1927 50.6049 31.9365L34.9521 40.8134C33.732 41.5035 32.6778 42.4648 31.8665 43.6267C31.0552 44.7887 30.5074 46.122 30.263 47.5291C28.7831 56.2768 27.3056 65.0194 25.8307 73.7568C25.6932 74.646 25.7962 75.5568 26.1285 76.39C26.4608 77.2233 27.0097 77.947 27.7153 78.4823C28.4209 79.0176 29.2562 79.344 30.1302 79.4258C31.0042 79.5077 31.8833 79.3419 32.6717 78.9466L42.299 74.299C42.4274 76.1503 42.518 78.3114 42.5029 80.7282C42.5029 81.3401 42.5029 81.9753 42.5029 82.6259V82.7886C42.5029 83.7568 42.4349 84.7018 42.3745 85.6081C42.3745 86.2278 42.2915 86.8242 42.2462 87.4129C42.1254 88.9079 41.9668 90.3176 41.7931 91.6344C53.5142 94.2552 65.6607 94.1281 77.3272 91.2626C77.3272 90.2789 77.3272 89.2797 77.2819 88.2804C77.2819 87.7305 77.2819 87.1728 77.2819 86.6228C77.2819 85.5281 77.2819 84.4281 77.2819 83.323C77.2819 82.7731 77.2819 82.2231 77.2819 81.6654C77.2819 81.2394 77.2819 80.8134 77.2819 80.3796C77.4027 73.4083 77.7727 66.8474 78.3164 60.6042L91.5076 77.1108C91.8774 77.5715 92.3643 77.9182 92.9145 78.1123C93.4646 78.3064 94.0564 78.3403 94.6242 78.2103C95.192 78.0803 95.7136 77.7915 96.1311 77.376C96.5486 76.9604 96.8457 76.4342 96.9895 75.856C99.5517 64.9497 102.111 54.0434 104.669 43.1371L98.847 41.2704ZM37.0135 68.5825L40.0338 59.5663C40.668 62.1534 41.1437 64.5856 41.4911 66.8242L37.0135 68.5825Z" fill="#7DD956"/>
<path d="M67.9264 12.5944C70.8183 10.1312 71.3393 8.37288 71.143 7.17226C70.841 5.26677 68.538 2.92749 68.5606 2.95848C65.6536 0.410066 63.3355 -0.0314526 61.7649 0.022769C59.258 0.107974 58.9635 1.479 55.0749 2.20712C51.8054 2.81905 50.4915 2.14515 49.0342 3.42323C48.2792 4.10488 47.9167 5.11185 47.1767 7.12579C46.4368 9.13973 46.0215 10.2784 46.18 11.4635C46.472 13.1262 47.3117 14.6356 48.5585 15.7393C49.4044 16.2915 50.1066 17.0465 50.6048 17.9391C50.8058 18.3686 50.9359 18.8292 50.9899 19.3024C51.4929 18.0496 51.8061 16.7252 51.9186 15.3752C51.9479 14.8257 51.9479 14.2749 51.9186 13.7253C51.9097 13.4503 52.0029 13.182 52.1796 12.9749C52.3563 12.7677 52.6031 12.6373 52.87 12.6099C55.1353 12.1606 60.2019 13.9112 66.1746 12.9817C66.7656 12.8891 67.3506 12.7598 67.9264 12.5944Z" fill="#231F20"/>
<path d="M56.9108 19.5585C57.0089 20.2556 57.4016 20.7823 57.7791 20.7204C58.1567 20.6584 58.3832 20.0542 58.2775 19.3571C58.1718 18.6599 57.7867 18.1332 57.4091 18.1874C57.0316 18.2417 56.8051 18.8613 56.9108 19.5585Z" fill="#231F20"/>
<path d="M63.4418 18.7296C63.5475 19.4344 63.9401 19.9534 64.3177 19.8992C64.6952 19.845 64.9142 19.2253 64.816 18.5282C64.7179 17.831 64.3252 17.3043 63.9401 17.3663C63.555 17.4283 63.3059 18.0324 63.4418 18.7296Z" fill="#231F20"/>
<path d="M63.2541 24.9336C61.8692 25.2754 60.456 25.4829 59.0332 25.5533C59.201 26.039 59.5275 26.4501 59.9574 26.7168C60.3872 26.9836 60.8937 27.0894 61.391 27.0164C61.8883 26.9434 62.3455 26.696 62.6852 26.3164C63.0248 25.9367 63.2258 25.4481 63.2541 24.9336Z" fill="#231F20"/>
<path d="M55.1364 17.9008C55.0619 17.8993 54.989 17.878 54.925 17.8389C54.8851 17.8116 54.8509 17.7765 54.8244 17.7355C54.7978 17.6946 54.7794 17.6487 54.7703 17.6004C54.7612 17.5521 54.7615 17.5025 54.7712 17.4543C54.7809 17.4062 54.7998 17.3605 54.8268 17.3199C55.2194 16.7349 55.7705 16.2808 56.412 16.0137C57.0534 15.7467 57.7572 15.6783 58.4361 15.8172C58.483 15.8289 58.5271 15.8501 58.5659 15.8796C58.6046 15.909 58.6373 15.9461 58.6619 15.9887C58.6865 16.0313 58.7026 16.0784 58.7092 16.1275C58.7158 16.1765 58.7128 16.2264 58.7004 16.2742C58.6739 16.3705 58.6115 16.4522 58.5267 16.5015C58.4418 16.5508 58.3414 16.5638 58.2473 16.5376C57.7089 16.4334 57.1526 16.493 56.6468 16.7091C56.141 16.9251 55.7078 17.2882 55.4007 17.7537C55.3702 17.7969 55.3306 17.8326 55.2849 17.8581C55.2391 17.8836 55.1884 17.8982 55.1364 17.9008Z" fill="#231F20"/>
<path d="M61.9309 16.4602C61.8784 16.4611 61.8264 16.4505 61.7782 16.4291C61.73 16.4077 61.6869 16.3761 61.6515 16.3363C61.6177 16.3018 61.5909 16.2607 61.5726 16.2155C61.5543 16.1703 61.5449 16.1219 61.5449 16.0729C61.5449 16.024 61.5543 15.9755 61.5726 15.9304C61.5909 15.8852 61.6177 15.8441 61.6515 15.8096C63.3505 14.2991 65.4269 15.4455 65.5477 15.4997C65.6317 15.5472 65.6939 15.6268 65.7208 15.7211C65.7477 15.8155 65.737 15.9169 65.6912 16.0032C65.6421 16.0904 65.5618 16.1545 65.4673 16.182C65.3729 16.2095 65.2717 16.1982 65.1853 16.1504C64.7135 15.8896 64.1792 15.7715 63.6445 15.8099C63.1098 15.8483 62.5968 16.0416 62.165 16.3673C62.0999 16.4253 62.0171 16.4582 61.9309 16.4602Z" fill="#231F20"/>
<path d="M60.7318 23.6791C60.6542 23.6791 60.5785 23.6545 60.515 23.6088C60.4515 23.563 60.4033 23.4983 60.3769 23.4235C60.3615 23.3772 60.3551 23.3283 60.3582 23.2794C60.3612 23.2306 60.3736 23.1829 60.3946 23.139C60.4157 23.0951 60.4449 23.0559 60.4808 23.0236C60.5166 22.9914 60.5583 22.9667 60.6035 22.951L62.4836 22.2848C60.6488 19.1865 60.6186 19.0858 60.6035 19.0393C60.5747 18.9448 60.5831 18.8425 60.6268 18.7542C60.6705 18.6659 60.7462 18.5987 60.8375 18.5668C60.9251 18.5368 61.0202 18.5408 61.1051 18.5779C61.1899 18.615 61.2586 18.6827 61.2981 18.7682C61.3963 18.9618 62.5742 20.9835 63.352 22.3003C63.3743 22.3501 63.3859 22.4043 63.3859 22.4591C63.3859 22.5139 63.3743 22.5681 63.352 22.6179C63.3331 22.6704 63.303 22.7179 63.2637 22.7568C63.2245 22.7957 63.1772 22.825 63.1254 22.8425L60.8224 23.6559L60.7318 23.6791Z" fill="#231F20"/>
<path d="M58.2089 48.4353L55.1357 69.6514C55.1226 69.7402 55.1284 69.8309 55.1529 69.9172C55.1773 70.0034 55.2197 70.0832 55.2771 70.151C55.3346 70.2188 55.4057 70.273 55.4856 70.3098C55.5655 70.3465 55.6523 70.3651 55.7398 70.364H71.5965C71.7431 70.366 71.8854 70.3139 71.9977 70.2172C72.1099 70.1205 72.1846 69.9857 72.2081 69.8373L75.319 48.629C75.3323 48.5395 75.3263 48.4481 75.3015 48.3613C75.2766 48.2745 75.2335 48.1943 75.1752 48.1263C75.1169 48.0584 75.0448 48.0044 74.964 47.9681C74.8832 47.9319 74.7956 47.9142 74.7074 47.9163H58.8507C58.7002 47.9064 58.5514 47.9539 58.4329 48.0497C58.3145 48.1455 58.2347 48.2828 58.2089 48.4353Z" fill="white"/>
<path d="M71.5656 70.813H55.7089C55.5553 70.8142 55.4034 70.7808 55.2638 70.7152C55.1242 70.6497 55.0003 70.5535 54.9009 70.4334C54.8009 70.3189 54.7267 70.1832 54.6836 70.0359C54.6405 69.8887 54.6297 69.7335 54.6518 69.5814L57.7702 48.3653C57.8084 48.1087 57.9357 47.875 58.1285 47.7071C58.3214 47.5391 58.5668 47.4483 58.8198 47.4512H74.6765C74.831 47.451 74.9837 47.4847 75.1244 47.5502C75.2651 47.6157 75.3904 47.7114 75.492 47.8308C75.5904 47.9475 75.6625 48.0851 75.7029 48.2338C75.7434 48.3824 75.7513 48.5384 75.7261 48.6906L72.6151 69.899C72.5769 70.1555 72.4497 70.3892 72.2568 70.5572C72.064 70.7251 71.8185 70.816 71.5656 70.813ZM58.6461 48.5047L55.5352 69.7131C55.5267 69.7339 55.5223 69.7563 55.5223 69.7789C55.5223 69.8015 55.5267 69.8239 55.5352 69.8447C55.5532 69.8626 55.5745 69.8766 55.5978 69.8859C55.6212 69.8952 55.6461 69.8996 55.6711 69.899H71.5278C71.568 69.9 71.6073 69.8866 71.639 69.8612C71.6707 69.8357 71.6927 69.7998 71.7015 69.7595L74.8124 48.5512C74.8164 48.5289 74.815 48.506 74.8084 48.4844C74.8019 48.4628 74.7903 48.4432 74.7746 48.4272C74.7582 48.4068 74.7374 48.3905 74.7138 48.3798C74.6902 48.369 74.6645 48.364 74.6387 48.3653H58.782C58.7422 48.3657 58.7036 48.3796 58.6722 48.4048C58.6408 48.43 58.6183 48.4651 58.6084 48.5047H58.6461Z" fill="#231F20"/>
<path d="M66.0474 60.8216C66.9732 60.8216 67.7237 60.0655 67.7237 59.1329C67.7237 58.2003 66.9732 57.4443 66.0474 57.4443C65.1216 57.4443 64.3711 58.2003 64.3711 59.1329C64.3711 60.0655 65.1216 60.8216 66.0474 60.8216Z" fill="white"/>
<path d="M66.0553 61.2784C65.6426 61.2738 65.2404 61.1441 64.8995 60.9056C64.5585 60.667 64.294 60.3304 64.1391 59.9379C63.9843 59.5455 63.9461 59.1148 64.0293 58.7001C64.1126 58.2855 64.3135 57.9053 64.6069 57.6076C64.9003 57.3098 65.273 57.1078 65.6781 57.0269C66.0832 56.9459 66.5026 56.9898 66.8835 57.1528C67.2643 57.3159 67.5897 57.5909 67.8185 57.9432C68.0473 58.2955 68.1694 58.7094 68.1695 59.1328C68.1655 59.7046 67.9407 60.2515 67.5445 60.6537C67.1482 61.0558 66.6127 61.2805 66.0553 61.2784ZM66.0553 57.9012C65.8192 57.9073 65.5901 57.9847 65.3967 58.1237C65.2033 58.2626 65.0541 58.457 64.9678 58.6826C64.8816 58.9081 64.8621 59.1547 64.9117 59.3915C64.9614 59.6283 65.0781 59.8449 65.2471 60.014C65.4162 60.1832 65.6301 60.2975 65.8621 60.3425C66.0941 60.3876 66.334 60.3615 66.5516 60.2674C66.7692 60.1733 66.955 60.0155 67.0856 59.8137C67.2162 59.6119 67.286 59.3751 67.286 59.1328C67.2841 58.969 67.2507 58.8073 67.1877 58.6567C67.1248 58.5062 67.0336 58.3698 66.9193 58.2555C66.805 58.1411 66.6699 58.051 66.5216 57.9902C66.3734 57.9294 66.2149 57.8992 66.0553 57.9012Z" fill="#231F20"/>
<path d="M52.1543 63.6405C52.8037 63.5004 53.4278 63.2573 54.0042 62.9201C54.7962 62.4583 55.4774 61.8205 55.9977 61.0533C56.1042 60.9035 56.241 60.7789 56.3986 60.688C56.5562 60.5971 56.7311 60.5421 56.9113 60.5266C58.9047 60.3562 59.2445 59.9224 60.4602 59.295C62.1289 58.4429 62.3554 57.1726 63.4805 57.2656C63.8392 57.2999 64.179 57.4458 64.4546 57.6838C65.3531 58.5127 64.9605 60.1935 64.7868 60.9217C64.4226 62.3551 63.6683 63.6527 62.6122 64.6629C61.744 65.5311 60.7177 66.2155 59.5918 66.6769C59.2784 66.8066 58.9391 66.8571 58.6027 66.8241C56.9759 66.6761 55.3411 66.9981 53.8834 67.7536C53.3146 66.38 52.7382 65.0089 52.1543 63.6405Z" fill="white"/>
<path d="M53.9048 68.211C53.8547 68.2176 53.804 68.2176 53.7538 68.211C53.6968 68.1898 53.6447 68.1568 53.6005 68.1142C53.5564 68.0716 53.5212 68.0202 53.4971 67.9631L51.7453 63.85C51.7175 63.7881 51.7031 63.7207 51.7031 63.6525C51.7031 63.5843 51.7175 63.5169 51.7453 63.455C51.7756 63.3956 51.8184 63.3439 51.8707 63.3037C51.9229 63.2635 51.9833 63.2358 52.0473 63.2226C52.6515 63.094 53.2324 62.8692 53.7689 62.5565C54.5043 62.1273 55.1365 61.5344 55.6189 60.8214C55.7607 60.6157 55.9455 60.4451 56.1597 60.3218C56.3739 60.1985 56.6122 60.1257 56.8572 60.1088C57.8171 60.0799 58.7535 59.7971 59.5755 59.2877C59.7794 59.1715 59.9908 59.0476 60.2475 58.9236C60.8126 58.6288 61.3236 58.2357 61.7577 57.7617C61.9182 57.5154 62.1287 57.3076 62.3747 57.1523C62.6206 56.997 62.8964 56.898 63.1831 56.862C63.4697 56.8259 63.7606 56.8538 64.0359 56.9435C64.3111 57.0333 64.5642 57.1829 64.778 57.3822C65.8729 58.3814 65.4349 60.2559 65.2537 61.0538C64.8631 62.5708 64.0651 63.9449 62.9507 65.0197C62.0395 65.9318 60.9618 66.6504 59.7794 67.1343C59.4008 67.2889 58.9921 67.3499 58.5863 67.3125C58.1591 67.2777 57.7299 67.2777 57.3027 67.3125C56.1902 67.3845 55.1036 67.6875 54.1087 68.2033C54.0425 68.2235 53.9723 68.2262 53.9048 68.211ZM52.7722 63.9507L54.1314 67.1421C55.1159 66.6982 56.169 66.436 57.2423 66.3675C57.7147 66.3288 58.1894 66.3288 58.6618 66.3675C58.9195 66.3872 59.1781 66.3448 59.4169 66.2435C60.4927 65.8086 61.4733 65.1582 62.3013 64.3303C63.2977 63.3789 64.01 62.1566 64.3552 60.8059C64.5062 60.163 64.8535 58.6603 64.1588 58.0174C63.9555 57.8436 63.7051 57.7382 63.4415 57.7153C63.0413 57.7153 62.8072 57.8934 62.3391 58.3737C61.8473 58.9109 61.2703 59.3588 60.6326 59.6982L59.9908 60.0468C59.0611 60.622 58.0028 60.9421 56.9176 60.9763C56.803 60.9816 56.691 61.0137 56.5903 61.0701C56.4895 61.1265 56.4026 61.2056 56.3362 61.3016C55.7756 62.1247 55.0462 62.8121 54.1993 63.3156C53.7478 63.5804 53.2692 63.7934 52.7722 63.9507Z" fill="#231F20"/>
<path d="M50.281 32.021L49.1031 32.5787C49.0101 32.6258 48.9372 32.7062 48.8982 32.8047C48.8592 32.9032 48.8569 33.013 48.8917 33.1132C49.4886 34.637 50.5196 35.9406 51.85 36.8539C53.1804 37.7672 54.7484 38.2477 56.3491 38.2327C57.9499 38.2176 59.509 37.7077 60.8229 36.7695C62.1368 35.8313 63.1443 34.5085 63.7139 32.9738C63.74 32.8701 63.7264 32.7601 63.6758 32.6665C63.6252 32.5728 63.5416 32.5026 63.4421 32.4703L62.3925 32.0908C62.1692 32.0124 61.9256 32.0212 61.7083 32.1155C61.491 32.2098 61.3152 32.383 61.2146 32.602C60.7697 33.5283 60.0809 34.3084 59.2262 34.8539C58.3715 35.3994 57.3849 35.6885 56.3783 35.6885C55.3716 35.6885 54.3851 35.3994 53.5304 34.8539C52.6756 34.3084 51.9868 33.5283 51.542 32.602C51.4474 32.3554 51.2625 32.1566 51.0268 32.048C50.7912 31.9395 50.5235 31.9298 50.281 32.021Z" fill="#97BCFF"/>
<path d="M51.7082 62.8115L48.7559 63.9734C49.6846 65.9022 50.6134 67.8464 51.5497 69.7519L54.3359 68.4351L51.7082 62.8115Z" fill="#97BCFF"/>
<path d="M98.7878 41.1699C98.4405 42.1382 98.0932 43.1064 97.7383 44.0746L103.87 45.9569L104.693 43.1529L98.7878 41.1699Z" fill="#97BCFF"/>
<path d="M77.2303 88.242C76.417 88.2201 75.6285 87.9505 74.965 87.4675C74.5036 87.1136 73.9402 86.9282 73.3643 86.9407C72.7876 86.9227 72.2224 87.1087 71.7635 87.4675C71.032 87.9817 70.166 88.2569 69.2793 88.2569C68.3925 88.2569 67.5265 87.9817 66.7951 87.4675C66.3283 87.1244 65.7685 86.9399 65.1943 86.9399C64.6201 86.9399 64.0603 87.1244 63.5935 87.4675C62.862 87.9817 61.996 88.2569 61.1093 88.2569C60.2226 88.2569 59.3565 87.9817 58.6251 87.4675C58.1583 87.1244 57.5985 86.9399 57.0243 86.9399C56.4501 86.9399 55.8903 87.1244 55.4235 87.4675C54.6921 87.9817 53.8261 88.2569 52.9393 88.2569C52.0526 88.2569 51.1866 87.9817 50.4551 87.4675C49.9895 87.125 49.431 86.9409 48.8581 86.9409C48.2852 86.9409 47.7267 87.125 47.2611 87.4675C46.5304 87.98 45.6659 88.2542 44.7807 88.2542C43.8955 88.2542 43.0309 87.98 42.3002 87.4675L42.1719 87.39C42.2172 86.8013 42.2625 86.2049 42.3002 85.5852C42.6109 85.7181 42.907 85.8842 43.1837 86.0809C43.6493 86.4234 44.2078 86.6075 44.7807 86.6075C45.3536 86.6075 45.9121 86.4234 46.3777 86.0809C47.1087 85.5619 47.9766 85.2839 48.8657 85.2839C49.7547 85.2839 50.6226 85.5619 51.3537 86.0809C51.8193 86.4234 52.3778 86.6075 52.9507 86.6075C53.5235 86.6075 54.082 86.4234 54.5476 86.0809C55.2771 85.5615 56.1439 85.2832 57.0319 85.2832C57.9198 85.2832 58.7866 85.5615 59.5161 86.0809C59.9828 86.424 60.5426 86.6085 61.1168 86.6085C61.6911 86.6085 62.2508 86.424 62.7176 86.0809C63.4471 85.5615 64.3139 85.2832 65.2018 85.2832C66.0898 85.2832 66.9566 85.5615 67.686 86.0809C68.1528 86.424 68.7126 86.6085 69.2868 86.6085C69.861 86.6085 70.4208 86.424 70.8876 86.0809C71.6171 85.5615 72.4838 85.2832 73.3718 85.2832C74.2598 85.2832 75.1265 85.5615 75.856 86.0809C76.2443 86.381 76.7079 86.561 77.1925 86.5999C77.2227 87.1499 77.2227 87.7076 77.2303 88.242Z" fill="#97BCFF"/>
<path d="M77.229 81.6419C77.229 82.1996 77.229 82.7496 77.229 83.2995C76.4323 83.2633 75.6621 82.9946 75.0091 82.5249C74.5477 82.1711 73.9842 81.9857 73.4083 81.9982C72.8316 81.9802 72.2664 82.1662 71.8075 82.5249C71.0761 83.0392 70.2101 83.3144 69.3233 83.3144C68.4366 83.3144 67.5706 83.0392 66.8391 82.5249C66.3723 82.1819 65.8125 81.9974 65.2383 81.9974C64.6641 81.9974 64.1043 82.1819 63.6376 82.5249C62.9061 83.0392 62.0401 83.3144 61.1533 83.3144C60.2666 83.3144 59.4006 83.0392 58.6691 82.5249C58.2024 82.1819 57.6426 81.9974 57.0684 81.9974C56.4942 81.9974 55.9344 82.1819 55.4676 82.5249C54.7361 83.0392 53.8701 83.3144 52.9834 83.3144C52.0966 83.3144 51.2306 83.0392 50.4992 82.5249C50.0336 82.1825 49.4751 81.9984 48.9022 81.9984C48.3293 81.9984 47.7708 82.1825 47.3052 82.5249C46.5796 83.0499 45.7086 83.3214 44.821 83.2995C43.9869 83.3205 43.1669 83.0771 42.4727 82.6024C42.4727 81.9517 42.4727 81.3166 42.4727 80.7047C42.7343 80.8242 42.9867 80.9641 43.2277 81.1229C43.6933 81.4654 44.2518 81.6495 44.8247 81.6495C45.3976 81.6495 45.9561 81.4654 46.4217 81.1229C47.1528 80.6039 48.0207 80.3259 48.9097 80.3259C49.7988 80.3259 50.6667 80.6039 51.3977 81.1229C51.8633 81.4654 52.4218 81.6495 52.9947 81.6495C53.5676 81.6495 54.1261 81.4654 54.5917 81.1229C55.3212 80.6035 56.1879 80.3252 57.0759 80.3252C57.9639 80.3252 58.8307 80.6035 59.5601 81.1229C60.0269 81.466 60.5867 81.6505 61.1609 81.6505C61.7351 81.6505 62.2949 81.466 62.7617 81.1229C63.4911 80.6035 64.3579 80.3252 65.2459 80.3252C66.1339 80.3252 67.0006 80.6035 67.7301 81.1229C68.189 81.4817 68.7542 81.6677 69.3309 81.6497C69.9068 81.6622 70.4703 81.4767 70.9316 81.1229C71.6611 80.6035 72.5279 80.3252 73.4159 80.3252C74.3038 80.3252 75.1706 80.6035 75.9001 81.1229C76.2858 81.4223 76.7469 81.6024 77.229 81.6419Z" fill="#97BCFF"/>
<path d="M42.5781 74.0276L51.8354 69.5117" stroke="#231F20" stroke-width="0.682416" stroke-miterlimit="10" stroke-linecap="round"/>
<path d="M41.4473 66.8241L48.7564 63.9658" stroke="#231F20" stroke-width="0.682416" stroke-miterlimit="10" stroke-linecap="round"/>
<path d="M39.9883 59.5662L41.136 54.7637" stroke="#231F20" stroke-width="0.682416" stroke-miterlimit="10" stroke-linecap="round"/>
<path d="M78.2793 60.5808L75.7422 57.2578" stroke="#231F20" stroke-width="0.682416" stroke-miterlimit="10" stroke-linecap="round"/>
<path d="M250.838 56.9863H236.703V65.321H250.838V56.9863Z" fill="#7DD956"/>
<path d="M236.702 56.9863H131.58V65.321H236.702V56.9863Z" fill="#7DD956"/>
<path d="M250.838 104.5H236.703V115.608H250.838V104.5Z" fill="#7DD956"/>
<path d="M236.702 104.5H131.58V115.608H236.702V104.5Z" fill="#7DD956"/>
<path d="M258.116 67.7996V103.779C258.112 104.935 257.663 106.042 256.867 106.859C256.07 107.676 254.991 108.136 253.865 108.14H147.935C146.808 108.138 145.728 107.678 144.931 106.861C144.134 106.043 143.686 104.935 143.684 103.779V67.7996C143.69 66.6463 144.14 65.5422 144.936 64.7282C145.733 63.9141 146.81 63.4561 147.935 63.4541H253.865C254.989 63.4582 256.065 63.9168 256.861 64.7304C257.657 65.544 258.108 66.6469 258.116 67.7996Z" fill="#231F20"/>
<path d="M236.702 67.8082V103.788C236.7 104.459 236.44 105.102 235.977 105.577C235.514 106.051 234.888 106.319 234.233 106.321H128.303C127.649 106.319 127.022 106.051 126.559 105.577C126.097 105.102 125.836 104.459 125.834 103.788V67.8082C125.833 67.4745 125.896 67.1439 126.02 66.8353C126.143 66.5267 126.325 66.246 126.554 66.0094C126.783 65.7727 127.056 65.5847 127.356 65.4561C127.656 65.3275 127.978 65.2608 128.303 65.2598H234.233C234.559 65.2608 234.88 65.3275 235.181 65.4561C235.481 65.5847 235.753 65.7727 235.982 66.0094C236.212 66.246 236.393 66.5267 236.517 66.8353C236.64 67.1439 236.703 67.4745 236.702 67.8082Z" fill="white"/>
<path d="M234.234 63.4541H128.304C127.175 63.4582 126.094 63.9211 125.297 64.7414C124.5 65.5617 124.053 66.6725 124.053 67.8305V103.81C124.057 104.966 124.506 106.073 125.302 106.89C126.099 107.707 127.178 108.167 128.304 108.171H234.234C235.36 108.167 236.439 107.707 237.236 106.89C238.032 106.073 238.481 104.966 238.485 103.81V67.8073C238.479 66.6533 238.029 65.5484 237.233 64.7332C236.437 63.9179 235.359 63.4582 234.234 63.4541ZM236.703 103.81C236.701 104.482 236.44 105.125 235.978 105.599C235.515 106.074 234.888 106.341 234.234 106.343H128.304C127.65 106.341 127.023 106.074 126.56 105.599C126.097 105.125 125.837 104.482 125.835 103.81V67.8073C125.834 67.4737 125.897 67.1431 126.02 66.8344C126.144 66.5258 126.326 66.2452 126.555 66.0085C126.784 65.7719 127.057 65.5839 127.357 65.4553C127.657 65.3266 127.979 65.2599 128.304 65.2589H234.234C234.559 65.2599 234.881 65.3266 235.181 65.4553C235.481 65.5839 235.754 65.7719 235.983 66.0085C236.212 66.2452 236.394 66.5258 236.518 66.8344C236.641 67.1431 236.704 67.4737 236.703 67.8073V103.81Z" fill="#231F20"/>
<path d="M144.106 93.7873C142.563 93.7888 141.054 93.3206 139.77 92.442C138.486 91.5634 137.485 90.3138 136.894 88.8514C136.303 87.389 136.148 85.7795 136.448 84.2266C136.749 82.6737 137.492 81.2473 138.583 80.1278C139.675 79.0083 141.065 78.2461 142.579 77.9376C144.093 77.6291 145.662 77.7882 147.087 78.3947C148.513 79.0013 149.731 80.0281 150.587 81.3451C151.444 82.6622 151.9 84.2103 151.899 85.7935C151.897 87.9129 151.075 89.945 149.614 91.4437C148.153 92.9424 146.172 93.7852 144.106 93.7873ZM144.106 79.62C142.912 79.62 141.744 79.9834 140.75 80.6643C139.757 81.3452 138.983 82.313 138.526 83.4453C138.068 84.5776 137.949 85.8236 138.182 87.0256C138.415 88.2277 138.99 89.3318 139.835 90.1985C140.68 91.0651 141.756 91.6553 142.928 91.8944C144.1 92.1335 145.314 92.0108 146.418 91.5418C147.522 91.0727 148.465 90.2785 149.129 89.2594C149.793 88.2404 150.147 87.0423 150.147 85.8167C150.147 84.1732 149.511 82.5971 148.378 81.435C147.245 80.2728 145.708 79.62 144.106 79.62Z" fill="#231F20"/>
<path d="M206.145 82.2695H163.378C161.768 82.2695 160.463 83.6082 160.463 85.2595V86.3207C160.463 87.9719 161.768 89.3106 163.378 89.3106H206.145C207.755 89.3106 209.06 87.9719 209.06 86.3207V85.2595C209.06 83.6082 207.755 82.2695 206.145 82.2695Z" fill="#7DD956"/>
<path d="M221.895 89.3105C223.792 89.3105 225.33 87.7326 225.33 85.7861C225.33 83.8396 223.792 82.2617 221.895 82.2617C219.997 82.2617 218.459 83.8396 218.459 85.7861C218.459 87.7326 219.997 89.3105 221.895 89.3105Z" fill="#231F20"/>
<path d="M252.424 154.856L251.314 160.86C251.163 161.6 250.765 162.263 250.189 162.735C249.613 163.208 248.895 163.459 248.158 163.447H236.703V154.856H252.424Z" fill="#7DD956"/>
<path d="M236.702 154.856V163.447H134.261C133.524 163.458 132.806 163.206 132.23 162.734C131.655 162.262 131.257 161.599 131.104 160.86L130.002 154.856H236.702Z" fill="#7DD956"/>
<path d="M258.116 118.148V154.128C258.112 155.283 257.663 156.39 256.867 157.207C256.07 158.024 254.991 158.485 253.865 158.489H147.935C146.808 158.487 145.728 158.027 144.931 157.209C144.134 156.392 143.686 155.284 143.684 154.128V118.148C143.69 116.995 144.14 115.891 144.936 115.077C145.733 114.263 146.81 113.805 147.935 113.803H253.865C254.989 113.807 256.065 114.265 256.861 115.079C257.657 115.893 258.108 116.996 258.116 118.148Z" fill="#231F20"/>
<path d="M236.702 118.157V154.137C236.7 154.808 236.44 155.451 235.977 155.925C235.514 156.4 234.888 156.668 234.233 156.67H128.303C127.649 156.668 127.022 156.4 126.559 155.925C126.097 155.451 125.836 154.808 125.834 154.137V118.157C125.833 117.823 125.896 117.493 126.02 117.184C126.143 116.875 126.325 116.595 126.554 116.358C126.783 116.121 127.056 115.933 127.356 115.805C127.656 115.676 127.978 115.609 128.303 115.608H234.233C234.559 115.609 234.88 115.676 235.181 115.805C235.481 115.933 235.753 116.121 235.982 116.358C236.212 116.595 236.393 116.875 236.517 117.184C236.64 117.493 236.703 117.823 236.702 118.157Z" fill="white"/>
<path d="M234.234 113.803H128.304C127.175 113.807 126.094 114.27 125.297 115.09C124.5 115.91 124.053 117.021 124.053 118.179V154.159C124.057 155.314 124.506 156.421 125.302 157.238C126.099 158.055 127.178 158.516 128.304 158.52H234.234C235.36 158.516 236.439 158.055 237.236 157.238C238.032 156.421 238.481 155.314 238.485 154.159V118.156C238.479 117.002 238.029 115.897 237.233 115.082C236.437 114.267 235.359 113.807 234.234 113.803ZM236.703 154.159C236.701 154.83 236.44 155.473 235.978 155.948C235.515 156.422 234.888 156.69 234.234 156.692H128.304C127.65 156.69 127.023 156.422 126.56 155.948C126.097 155.473 125.837 154.83 125.835 154.159V118.156C125.834 117.822 125.897 117.492 126.02 117.183C126.144 116.874 126.326 116.594 126.555 116.357C126.784 116.121 127.057 115.933 127.357 115.804C127.657 115.675 127.979 115.609 128.304 115.608H234.234C234.559 115.609 234.881 115.675 235.181 115.804C235.481 115.933 235.754 116.121 235.983 116.357C236.212 116.594 236.394 116.874 236.518 117.183C236.641 117.492 236.704 117.822 236.703 118.156V154.159Z" fill="#231F20"/>
<path d="M144.106 144.136C142.563 144.137 141.054 143.669 139.77 142.791C138.486 141.912 137.485 140.662 136.894 139.2C136.303 137.738 136.148 136.128 136.448 134.575C136.749 133.022 137.492 131.596 138.583 130.476C139.675 129.357 141.065 128.595 142.579 128.286C144.093 127.978 145.662 128.137 147.087 128.743C148.513 129.35 149.731 130.377 150.587 131.694C151.444 133.011 151.9 134.559 151.899 136.142C151.897 138.262 151.075 140.294 149.614 141.792C148.153 143.291 146.172 144.134 144.106 144.136ZM144.106 129.969C142.912 129.969 141.744 130.332 140.75 131.013C139.757 131.694 138.983 132.662 138.526 133.794C138.068 134.926 137.949 136.172 138.182 137.374C138.415 138.576 138.99 139.68 139.835 140.547C140.68 141.414 141.756 142.004 142.928 142.243C144.1 142.482 145.314 142.359 146.418 141.89C147.522 141.421 148.465 140.627 149.129 139.608C149.793 138.589 150.147 137.391 150.147 136.165C150.147 134.522 149.511 132.946 148.378 131.784C147.245 130.621 145.708 129.969 144.106 129.969Z" fill="#231F20"/>
<path d="M206.145 132.618H163.378C161.768 132.618 160.463 133.957 160.463 135.608V136.669C160.463 138.321 161.768 139.659 163.378 139.659H206.145C207.755 139.659 209.06 138.321 209.06 136.669V135.608C209.06 133.957 207.755 132.618 206.145 132.618Z" fill="#7DD956"/>
<path d="M221.895 139.659C223.792 139.659 225.33 138.081 225.33 136.135C225.33 134.188 223.792 132.61 221.895 132.61C219.997 132.61 218.459 134.188 218.459 136.135C218.459 138.081 219.997 139.659 221.895 139.659Z" fill="#231F20"/>
<path d="M258.116 17.4519V53.4318C258.112 54.5871 257.663 55.694 256.867 56.5109C256.07 57.3279 254.991 57.7886 253.865 57.7927H147.935C146.808 57.7907 145.728 57.3306 144.931 56.5132C144.134 55.6958 143.686 54.5877 143.684 53.4318V17.4519C143.69 16.2986 144.14 15.1946 144.936 14.3805C145.733 13.5665 146.81 13.1085 147.935 13.1064H253.865C254.989 13.1105 256.065 13.5691 256.861 14.3827C257.657 15.1964 258.108 16.2993 258.116 17.4519Z" fill="#231F20"/>
<path d="M236.702 17.4595V53.4394C236.7 54.1105 236.44 54.7536 235.977 55.2282C235.514 55.7028 234.888 55.9703 234.233 55.9723H128.303C127.649 55.9703 127.022 55.7028 126.559 55.2282C126.097 54.7536 125.836 54.1105 125.834 53.4394V17.4595C125.833 17.1259 125.896 16.7953 126.02 16.4867C126.143 16.178 126.325 15.8974 126.554 15.6608C126.783 15.4241 127.056 15.2361 127.356 15.1075C127.656 14.9789 127.978 14.9121 128.303 14.9111H234.233C234.559 14.9121 234.88 14.9789 235.181 15.1075C235.481 15.2361 235.753 15.4241 235.982 15.6608C236.212 15.8974 236.393 16.178 236.517 16.4867C236.64 16.7953 236.703 17.1259 236.702 17.4595Z" fill="white"/>
<path d="M234.234 13.1064H128.304C127.175 13.1105 126.094 13.5734 125.297 14.3937C124.5 15.214 124.053 16.3249 124.053 17.4829V53.4628C124.057 54.6181 124.506 55.725 125.302 56.5419C126.099 57.3589 127.178 57.8196 128.304 57.8237H234.234C235.36 57.8196 236.439 57.3589 237.236 56.5419C238.032 55.725 238.481 54.6181 238.485 53.4628V17.4597C238.479 16.3057 238.029 15.2008 237.233 14.3855C236.437 13.5702 235.359 13.1105 234.234 13.1064ZM236.703 53.4628C236.701 54.1339 236.44 54.777 235.978 55.2515C235.515 55.7261 234.888 55.9936 234.234 55.9957H128.304C127.65 55.9936 127.023 55.7261 126.56 55.2515C126.097 54.777 125.837 54.1339 125.835 53.4628V17.4597C125.834 17.126 125.897 16.7954 126.02 16.4868C126.144 16.1782 126.326 15.8975 126.555 15.6609C126.784 15.4242 127.057 15.2362 127.357 15.1076C127.657 14.979 127.979 14.9123 128.304 14.9112H234.234C234.559 14.9123 234.881 14.979 235.181 15.1076C235.481 15.2362 235.754 15.4242 235.983 15.6609C236.212 15.8975 236.394 16.1782 236.518 16.4868C236.641 16.7954 236.704 17.126 236.703 17.4597V53.4628Z" fill="#231F20"/>
<path d="M144.106 43.4386C142.563 43.4402 141.054 42.972 139.77 42.0934C138.486 41.2147 137.485 39.9651 136.894 38.5027C136.303 37.0403 136.148 35.4308 136.448 33.878C136.749 32.3251 137.492 30.8986 138.583 29.7791C139.675 28.6596 141.065 27.8974 142.579 27.5889C144.093 27.2804 145.662 27.4395 147.087 28.0461C148.513 28.6527 149.731 29.6795 150.587 30.9965C151.444 32.3135 151.9 33.8616 151.899 35.4448C151.897 37.5643 151.075 39.5964 149.614 41.095C148.153 42.5937 146.172 43.4366 144.106 43.4386ZM144.106 29.2713C142.912 29.2713 141.744 29.6348 140.75 30.3157C139.757 30.9966 138.983 31.9644 138.526 33.0967C138.068 34.229 137.949 35.475 138.182 36.677C138.415 37.8791 138.99 38.9832 139.835 39.8498C140.68 40.7165 141.756 41.3067 142.928 41.5458C144.1 41.7849 145.314 41.6621 146.418 41.1931C147.522 40.7241 148.465 39.9299 149.129 38.9108C149.793 37.8918 150.147 36.6937 150.147 35.4681C150.147 33.8246 149.511 32.2484 148.378 31.0863C147.245 29.9242 145.708 29.2713 144.106 29.2713Z" fill="#231F20"/>
<path d="M206.145 31.9209H163.378C161.768 31.9209 160.463 33.2595 160.463 34.9108V35.972C160.463 37.6233 161.768 38.962 163.378 38.962H206.145C207.755 38.962 209.06 37.6233 209.06 35.972V34.9108C209.06 33.2595 207.755 31.9209 206.145 31.9209Z" fill="#7DD956"/>
<path d="M221.895 38.9619C223.792 38.9619 225.33 37.384 225.33 35.4375C225.33 33.491 223.792 31.9131 221.895 31.9131C219.997 31.9131 218.459 33.491 218.459 35.4375C218.459 37.384 219.997 38.9619 221.895 38.9619Z" fill="#231F20"/>
</g>
<defs>
<clipPath id="clip0_84_8493">
<rect width="318.667" height="240" fill="white"/>
</clipPath>
</defs>
</svg>
