<svg width="24" height="16" viewBox="0 0 24 16" fill="none" xmlns="http://www.w3.org/2000/svg">
<rect width="24" height="16" rx="2" fill="#F4B6C7"/>
<path fill-rule="evenodd" clip-rule="evenodd" d="M3.06684 9.59938H2.06836V6.62109H3.06684V9.59938ZM5.56069 6.62109H4.58356C4.58356 7.16918 4.21532 7.67224 3.57336 8.00134L3.18624 8.19974L4.68618 9.59949H5.91945L4.53928 8.31149C5.19353 7.86567 5.56069 7.26587 5.56069 6.62109ZM7.15346 9.59856H6.21051V6.62167H7.15346V9.59856ZM10.0035 7.53933V7.67105C9.74902 7.55224 9.44182 7.48242 9.1105 7.48242C8.23359 7.48242 7.52277 7.96887 7.52277 8.56898C7.52277 9.16909 8.23359 9.65558 9.1105 9.65558C9.44182 9.65558 9.74902 9.58576 10.0035 9.46697V9.59856H10.9045V7.53933H10.0035ZM10.0005 8.56898C10.0005 8.86159 9.63502 9.09883 9.18419 9.09883C8.73337 9.09883 8.36786 8.86159 8.36786 8.56898C8.36786 8.27638 8.73337 8.03922 9.18419 8.03922C9.63502 8.03922 10.0005 8.27638 10.0005 8.56898ZM19.5078 7.67105V7.53933H20.4087V9.59856H19.5078V9.46697C19.2534 9.58576 18.9462 9.65558 18.6148 9.65558C17.7379 9.65558 17.0271 9.16909 17.0271 8.56898C17.0271 7.96887 17.7379 7.48242 18.6148 7.48242C18.9462 7.48242 19.2534 7.55224 19.5078 7.67105ZM18.6885 9.09883C19.1394 9.09883 19.5048 8.86159 19.5048 8.56898C19.5048 8.27638 19.1394 8.03922 18.6885 8.03922C18.2377 8.03922 17.8722 8.27638 17.8722 8.56898C17.8722 8.86159 18.2377 9.09883 18.6885 9.09883ZM20.7997 9.25508C20.7997 9.0414 21.0529 8.86818 21.3651 8.86818C21.6773 8.86818 21.9304 9.0414 21.9304 9.25508C21.9304 9.46874 21.6773 9.64198 21.3651 9.64198C21.0529 9.64198 20.7997 9.46874 20.7997 9.25508ZM15.4262 7.48394C15.0663 7.48394 14.7258 7.5604 14.498 7.77136V7.53944H13.601V9.59856H14.509V8.51643C14.509 8.20327 14.8159 8.04995 15.1853 8.04995C15.5813 8.04995 15.8089 8.2118 15.8089 8.51216V9.59856H16.7087V8.28904C16.7087 7.80984 16.152 7.48394 15.4262 7.48394ZM12.2981 7.53936V7.80755C12.4787 7.64667 12.8152 7.53947 13.1811 7.53947V8.13869L13.1782 8.13861L13.176 8.13856L13.1737 8.13847L13.1703 8.13842C12.8139 8.13842 12.3002 8.31276 12.3002 8.63715V9.59856H11.3757V7.53936H12.2981Z" fill="#17120F"/>
</svg>
