<svg width="24" height="16" viewBox="0 0 24 16" fill="none" xmlns="http://www.w3.org/2000/svg">
<rect width="24" height="16" rx="2" fill="white"/>
<path fill-rule="evenodd" clip-rule="evenodd" d="M3.23633 9.75162L3.41947 9.73931C3.43048 9.78047 3.45285 9.81068 3.48653 9.83002C3.52027 9.84933 3.56573 9.85898 3.62297 9.85898C3.68358 9.85898 3.72922 9.8504 3.76 9.83327C3.79072 9.81609 3.80605 9.79603 3.80605 9.77305C3.80605 9.75832 3.7996 9.74582 3.78675 9.73542C3.77385 9.72508 3.75136 9.71611 3.71922 9.70842C3.69719 9.70342 3.64712 9.6944 3.56893 9.68147C3.46824 9.66489 3.39769 9.64442 3.35708 9.62014C3.30002 9.58604 3.27149 9.54442 3.27149 9.49531C3.27149 9.46376 3.28492 9.43418 3.31186 9.40671C3.33873 9.3792 3.37756 9.35824 3.42817 9.34387C3.47884 9.32949 3.53998 9.32227 3.61161 9.32227C3.72857 9.32227 3.81659 9.33942 3.87572 9.37371C3.93485 9.408 3.96587 9.45377 3.96882 9.51101L3.78018 9.51595C3.77213 9.48398 3.75485 9.461 3.72833 9.44696C3.70187 9.43294 3.66215 9.42591 3.60918 9.42591C3.55449 9.42591 3.51175 9.43341 3.48079 9.44842C3.46084 9.45799 3.4509 9.47087 3.4509 9.48698C3.4509 9.50171 3.46025 9.51427 3.4789 9.52478C3.50258 9.53802 3.56017 9.55189 3.65168 9.56621C3.74313 9.58058 3.81078 9.59548 3.85465 9.61096C3.89845 9.62638 3.93278 9.64751 3.95758 9.67427C3.98232 9.70113 3.99475 9.73421 3.99475 9.7736C3.99475 9.80938 3.97989 9.84282 3.95018 9.87402C3.92046 9.90519 3.8785 9.92839 3.82422 9.94353C3.76994 9.95871 3.70228 9.96632 3.62125 9.96632C3.50334 9.96632 3.41278 9.94803 3.34956 9.91148C3.28641 9.87493 3.24864 9.82166 3.23633 9.75162Z" fill="#0B4A8E"/>
<path fill-rule="evenodd" clip-rule="evenodd" d="M4.19141 9.50451H4.37083V9.95483H4.19141V9.50451ZM4.19141 9.33301H4.37083V9.44283H4.19141V9.33301Z" fill="#0B4A8E"/>
<path fill-rule="evenodd" clip-rule="evenodd" d="M5.20777 9.95555H5.02835V9.72523C5.02835 9.67651 5.0245 9.64501 5.01693 9.63069C5.00927 9.6164 4.99698 9.60523 4.97985 9.59731C4.96276 9.5894 4.94216 9.58542 4.91811 9.58542C4.88729 9.58542 4.85964 9.59111 4.83515 9.60244C4.81065 9.61375 4.79389 9.62876 4.78483 9.64749C4.77573 9.66617 4.77122 9.70071 4.77122 9.75116V9.95555H4.5918V9.50523H4.75827V9.57141C4.81715 9.51988 4.89138 9.49414 4.98076 9.49414C5.02016 9.49414 5.05624 9.49891 5.08884 9.5084C5.12145 9.51786 5.14611 9.52998 5.16287 9.54471C5.17963 9.55944 5.1913 9.57615 5.19788 9.59486C5.20442 9.61353 5.20777 9.64029 5.20777 9.67513V9.95555Z" fill="#0B4A8E"/>
<path fill-rule="evenodd" clip-rule="evenodd" d="M5.56986 9.72068C5.56986 9.76862 5.5836 9.80371 5.6112 9.82595C5.63872 9.84824 5.67269 9.85933 5.71312 9.85933C5.7564 9.85933 5.79298 9.84793 5.82286 9.82512C5.85269 9.80228 5.86767 9.76846 5.86767 9.72363C5.86767 9.6769 5.85335 9.64217 5.82476 9.61946C5.79608 9.59679 5.76 9.58542 5.71626 9.58542C5.67377 9.58542 5.63872 9.5966 5.6112 9.61883C5.5836 9.64112 5.56986 9.67505 5.56986 9.72068ZM5.40894 9.98518L5.61236 9.99996C5.61579 10.0168 5.62366 10.0283 5.63599 10.0346C5.65304 10.0436 5.67985 10.0481 5.71643 10.0481C5.76323 10.0481 5.79836 10.0434 5.82178 10.0341C5.83746 10.0279 5.84942 10.0179 5.85753 10.004C5.86304 9.99406 5.86581 9.97585 5.86581 9.94923L5.86635 9.88349C5.81346 9.93155 5.7463 9.95555 5.66487 9.95555C5.574 9.95555 5.50217 9.92997 5.44912 9.87869C5.40749 9.83817 5.38672 9.78771 5.38672 9.72738C5.38672 9.65174 5.41395 9.59398 5.46848 9.55403C5.52298 9.51411 5.59084 9.49414 5.67186 9.49414C5.75545 9.49414 5.82439 9.51866 5.87872 9.5676V9.50523H6.04523V9.91003C6.04523 9.9633 6.03865 10.0031 6.02545 10.0294C6.01233 10.0558 5.99388 10.0764 5.97008 10.0914C5.94625 10.1064 5.91455 10.1182 5.87483 10.1267C5.8351 10.1352 5.78491 10.1394 5.72425 10.1394C5.60959 10.1394 5.52828 10.1262 5.48024 10.0999C5.43224 10.0736 5.40828 10.0402 5.40828 9.99969C5.40828 9.99571 5.40853 9.99089 5.40894 9.98518Z" fill="#0B4A8E"/>
<path fill-rule="evenodd" clip-rule="evenodd" d="M6.26172 9.33301H6.44114V9.95483H6.26172V9.33301Z" fill="#0B4A8E"/>
<path fill-rule="evenodd" clip-rule="evenodd" d="M7.06438 9.69276C7.06314 9.6577 7.04969 9.63111 7.02408 9.61282C6.99851 9.59458 6.96739 9.58542 6.93069 9.58542C6.89142 9.58542 6.85902 9.59511 6.83344 9.61433C6.80779 9.63356 6.79525 9.65971 6.79566 9.69276H7.06438ZM7.05515 9.8137L7.23271 9.83345C7.20975 9.87684 7.1735 9.90992 7.12393 9.93262C7.0744 9.95535 7.01237 9.96669 6.93797 9.96669C6.82012 9.96669 6.73293 9.94098 6.67641 9.88962C6.63172 9.84849 6.60938 9.79657 6.60938 9.73378C6.60938 9.65894 6.63867 9.60024 6.69739 9.55778C6.75606 9.51535 6.83022 9.49414 6.91989 9.49414C7.02073 9.49414 7.10022 9.5164 7.15844 9.5609C7.2167 9.60548 7.24451 9.67367 7.24198 9.76556H6.79252C6.79376 9.80104 6.80833 9.8286 6.83613 9.84832C6.86398 9.86799 6.89866 9.87786 6.9402 9.87786C6.96842 9.87786 6.99222 9.87282 7.01146 9.86266C7.0307 9.85254 7.04535 9.83621 7.05515 9.8137Z" fill="#0B4A8E"/>
<path fill-rule="evenodd" clip-rule="evenodd" d="M7.83008 9.95483V9.33301H8.52008V9.43789H8.01877V9.57607H8.48491V9.68095H8.01877V9.84997H8.53853V9.95483H7.83008Z" fill="#0B4A8E"/>
<path fill-rule="evenodd" clip-rule="evenodd" d="M9.17997 9.95422V9.88678C9.15527 9.91083 9.12291 9.92995 9.08273 9.9441C9.04251 9.95825 9.00014 9.96534 8.95553 9.96534C8.91001 9.96534 8.86925 9.95866 8.83309 9.94537C8.79701 9.93207 8.77086 9.91334 8.75468 9.88931C8.73854 9.86523 8.73047 9.83193 8.73047 9.78945V9.50391H8.90989V9.71102C8.90989 9.77442 8.91312 9.81326 8.91978 9.82752C8.92632 9.84189 8.93828 9.85318 8.9557 9.86156C8.97308 9.86989 8.99513 9.87403 9.02186 9.87403C9.0524 9.87403 9.07983 9.86851 9.10396 9.85729C9.12816 9.84611 9.14468 9.83227 9.15361 9.81569C9.16251 9.79913 9.16702 9.75858 9.16702 9.69409V9.50391H9.3464V9.95422H9.17997Z" fill="#0B4A8E"/>
<path fill-rule="evenodd" clip-rule="evenodd" d="M9.73997 9.95555H9.56055V9.50523H9.72697V9.56929C9.75544 9.53902 9.78102 9.51897 9.80377 9.50904C9.82649 9.49911 9.85223 9.49414 9.88111 9.49414C9.92183 9.49414 9.96114 9.50167 9.99892 9.51673L9.94434 9.62098C9.91413 9.60802 9.886 9.60148 9.86005 9.60148C9.83489 9.60148 9.81366 9.60611 9.7962 9.61527C9.77874 9.62451 9.765 9.64112 9.75499 9.66518C9.74497 9.6892 9.73997 9.73963 9.73997 9.81629V9.95555Z" fill="#0B4A8E"/>
<path fill-rule="evenodd" clip-rule="evenodd" d="M10.2554 9.73039C10.2554 9.77527 10.2713 9.80959 10.3032 9.83345C10.3351 9.85729 10.3745 9.8692 10.4213 9.8692C10.468 9.8692 10.5073 9.85729 10.5389 9.83345C10.5706 9.80959 10.5865 9.77497 10.5865 9.72956C10.5865 9.68531 10.5706 9.65119 10.5389 9.62738C10.5073 9.60355 10.468 9.59163 10.4213 9.59163C10.3745 9.59163 10.3351 9.60355 10.3032 9.62738C10.2713 9.65119 10.2554 9.68559 10.2554 9.73039ZM10.0723 9.72399C10.0723 9.68429 10.0869 9.64584 10.1162 9.60862C10.1454 9.57149 10.1868 9.54311 10.2406 9.52352C10.2942 9.50393 10.3541 9.49414 10.4203 9.49414C10.5226 9.49414 10.6063 9.51632 10.6716 9.56073C10.7369 9.60515 10.7696 9.66131 10.7696 9.72912C10.7696 9.79751 10.7366 9.85425 10.6707 9.89922C10.6047 9.94418 10.5216 9.96669 10.4215 9.96669C10.3596 9.96669 10.3006 9.95729 10.2444 9.93861C10.1882 9.91988 10.1454 9.89243 10.1162 9.85621C10.0869 9.82002 10.0723 9.77599 10.0723 9.72399Z" fill="#0B4A8E"/>
<path fill-rule="evenodd" clip-rule="evenodd" d="M11.5422 9.43789V9.61557H11.645C11.7189 9.61557 11.7684 9.61232 11.7934 9.60578C11.8183 9.59921 11.8379 9.58895 11.8521 9.57497C11.8662 9.56104 11.8733 9.54481 11.8733 9.5263C11.8733 9.50352 11.8634 9.48473 11.8434 9.46992C11.8236 9.4551 11.7984 9.44586 11.768 9.44217C11.7455 9.43933 11.7006 9.43789 11.6329 9.43789H11.5422ZM11.3535 9.95483V9.33301H11.6555C11.77 9.33301 11.8446 9.33615 11.8793 9.34236C11.9327 9.35166 11.9774 9.37202 12.0135 9.40327C12.0495 9.4345 12.0675 9.47488 12.0675 9.5244C12.0675 9.56258 12.0571 9.59464 12.0364 9.62073C12.0157 9.64672 11.9893 9.66716 11.9573 9.682C11.9253 9.6969 11.8928 9.70669 11.8598 9.71149C11.8149 9.71745 11.7499 9.72043 11.6648 9.72043H11.5422V9.95483H11.3535Z" fill="#0B4A8E"/>
<path fill-rule="evenodd" clip-rule="evenodd" d="M12.6308 9.73969C12.6079 9.74482 12.5718 9.75089 12.5223 9.758C12.4728 9.76506 12.4404 9.77204 12.4252 9.77883C12.4019 9.78992 12.3904 9.80399 12.3904 9.82101C12.3904 9.83778 12.3996 9.85224 12.4182 9.86449C12.4369 9.87668 12.4605 9.8828 12.4893 9.8828C12.5215 9.8828 12.5521 9.87569 12.5813 9.86151C12.6029 9.85069 12.6171 9.83751 12.6239 9.82186C12.6285 9.81166 12.6308 9.79218 12.6308 9.76349V9.73969ZM12.3904 9.6422L12.2294 9.62244C12.2477 9.57883 12.279 9.54658 12.3236 9.52562C12.3681 9.50465 12.4343 9.49414 12.5221 9.49414C12.6018 9.49414 12.6613 9.50046 12.7002 9.51301C12.7393 9.52567 12.7668 9.54167 12.7826 9.56106C12.7986 9.58046 12.8066 9.6161 12.8066 9.66793L12.8047 9.8073C12.8047 9.84694 12.8076 9.87624 12.8133 9.89502C12.819 9.91386 12.8297 9.93403 12.8454 9.95555H12.6678C12.6631 9.94777 12.6574 9.93621 12.6506 9.9209C12.6477 9.91389 12.6455 9.90931 12.6443 9.90708C12.6138 9.92694 12.5812 9.94186 12.5464 9.9518C12.5117 9.96173 12.4747 9.96669 12.4353 9.96669C12.3658 9.96669 12.311 9.95406 12.2709 9.92887C12.2309 9.90363 12.2109 9.87174 12.2109 9.8332C12.2109 9.80774 12.22 9.78501 12.2382 9.76501C12.2565 9.74504 12.2821 9.72973 12.3149 9.71911C12.3478 9.70851 12.3952 9.69916 12.4571 9.69122C12.5407 9.68076 12.5986 9.67102 12.6308 9.66195V9.64989C12.6308 9.62666 12.6223 9.61014 12.6052 9.60024C12.5882 9.59036 12.556 9.58542 12.5087 9.58542C12.4767 9.58542 12.4518 9.58964 12.4338 9.598C12.4159 9.60642 12.4014 9.62115 12.3904 9.6422Z" fill="#0B4A8E"/>
<path fill-rule="evenodd" clip-rule="evenodd" d="M12.9355 9.50391H13.126L13.2879 9.8236L13.4461 9.50391H13.6311L13.3497 10.0165C13.3339 10.0429 13.3189 10.0629 13.3047 10.0768C13.2905 10.0907 13.2741 10.102 13.2557 10.1106C13.2371 10.1192 13.2145 10.126 13.1875 10.1308C13.1605 10.1357 13.1301 10.1381 13.0961 10.1381C13.0617 10.1381 13.0278 10.1357 12.9948 10.1309L12.978 10.0375C13.0062 10.0412 13.0316 10.0431 13.0542 10.0431C13.096 10.0431 13.1268 10.0348 13.1469 10.0184C13.167 10.0019 13.1823 9.9809 13.193 9.95549L12.9355 9.50391Z" fill="#0B4A8E"/>
<path fill-rule="evenodd" clip-rule="evenodd" d="M13.7715 9.50523H13.9361V9.56675C13.9952 9.51833 14.0656 9.49414 14.1473 9.49414C14.1906 9.49414 14.2283 9.50007 14.2602 9.51193C14.2921 9.52388 14.3182 9.54186 14.3386 9.56592C14.3683 9.54186 14.4005 9.52388 14.4348 9.51193C14.4692 9.50007 14.5058 9.49414 14.5449 9.49414C14.5946 9.49414 14.6367 9.50084 14.6711 9.51436C14.7055 9.52774 14.7312 9.54752 14.7482 9.57362C14.7605 9.59284 14.7666 9.62399 14.7666 9.66708V9.95555H14.5872V9.69762C14.5872 9.65284 14.581 9.62399 14.5688 9.61097C14.5522 9.59392 14.5268 9.58542 14.4926 9.58542C14.4675 9.58542 14.4439 9.59053 14.4219 9.60073C14.3999 9.61097 14.3841 9.62589 14.3743 9.64559C14.3646 9.66526 14.3596 9.69637 14.3596 9.73883V9.95555H14.1803V9.70829C14.1803 9.66429 14.1771 9.63604 14.1707 9.62324C14.1644 9.6105 14.1546 9.60101 14.1412 9.59477C14.1278 9.58857 14.1098 9.58542 14.0868 9.58542C14.0593 9.58542 14.0345 9.59039 14.0125 9.60029C13.9905 9.61022 13.9747 9.62454 13.9651 9.64322C13.9556 9.66195 13.9509 9.69293 13.9509 9.73626V9.95555H13.7715V9.50523Z" fill="#0B4A8E"/>
<path fill-rule="evenodd" clip-rule="evenodd" d="M15.3828 9.69276C15.3815 9.6577 15.3681 9.63111 15.3424 9.61282C15.3169 9.59458 15.2857 9.58542 15.249 9.58542C15.2098 9.58542 15.1773 9.59511 15.1518 9.61433C15.1262 9.63356 15.1137 9.65971 15.1141 9.69276H15.3828ZM15.3736 9.8137L15.5511 9.83345C15.5281 9.87684 15.4919 9.90992 15.4423 9.93262C15.3928 9.95535 15.3308 9.96669 15.2563 9.96669C15.1385 9.96669 15.0513 9.94098 14.9947 9.88962C14.95 9.84849 14.9277 9.79657 14.9277 9.73378C14.9277 9.65894 14.9572 9.60024 15.0157 9.55778C15.0745 9.51535 15.1486 9.49414 15.2383 9.49414C15.3391 9.49414 15.4185 9.5164 15.4768 9.5609C15.535 9.60548 15.5629 9.67367 15.5604 9.76556H15.1109C15.1122 9.80104 15.1267 9.8286 15.1545 9.84832C15.1823 9.86799 15.217 9.87786 15.2586 9.87786C15.2868 9.87786 15.3106 9.87282 15.3298 9.86266C15.3492 9.85254 15.3637 9.83621 15.3736 9.8137Z" fill="#0B4A8E"/>
<path fill-rule="evenodd" clip-rule="evenodd" d="M16.3601 9.95555H16.1807V9.72523C16.1807 9.67651 16.1768 9.64501 16.1693 9.63069C16.1617 9.6164 16.1493 9.60523 16.1322 9.59731C16.1151 9.5894 16.0945 9.58542 16.0705 9.58542C16.0397 9.58542 16.0119 9.59111 15.9875 9.60244C15.963 9.61375 15.9463 9.62876 15.9371 9.64749C15.9281 9.66617 15.9235 9.70071 15.9235 9.75116V9.95555H15.7441V9.50523H15.9106V9.57141C15.9695 9.51988 16.0437 9.49414 16.1331 9.49414C16.1725 9.49414 16.2086 9.49891 16.2411 9.5084C16.2738 9.51786 16.2985 9.52998 16.3153 9.54471C16.332 9.55944 16.3436 9.57615 16.3502 9.59486C16.3568 9.61353 16.3601 9.64029 16.3601 9.67513V9.95555Z" fill="#0B4A8E"/>
<path fill-rule="evenodd" clip-rule="evenodd" d="M16.8888 9.50411V9.59912H16.7667V9.78129C16.7667 9.81818 16.7678 9.83969 16.7701 9.84579C16.7723 9.85189 16.7776 9.85691 16.7857 9.86091C16.7938 9.86485 16.8037 9.86687 16.8153 9.86687C16.8316 9.86687 16.8551 9.86303 16.886 9.85542L16.9017 9.94772C16.8603 9.95961 16.8135 9.96557 16.7612 9.96557C16.7291 9.96557 16.7003 9.96193 16.6745 9.9547C16.6488 9.94753 16.6299 9.93812 16.6178 9.92665C16.6058 9.9152 16.5976 9.89967 16.5929 9.88014C16.5891 9.86623 16.5873 9.83815 16.5873 9.79594V9.59912H16.5059V9.50411H16.5873V9.41407L16.7667 9.34375V9.50411H16.8888Z" fill="#0B4A8E"/>
<path fill-rule="evenodd" clip-rule="evenodd" d="M16.9902 9.82851L17.1697 9.81C17.1773 9.83301 17.1927 9.85044 17.216 9.86242C17.2393 9.87439 17.2719 9.88029 17.3138 9.88029C17.36 9.88029 17.3948 9.87461 17.418 9.86324C17.4337 9.85524 17.4416 9.84462 17.4416 9.83119C17.4416 9.82211 17.4373 9.81453 17.4287 9.8086C17.4197 9.80289 17.3997 9.79764 17.3686 9.79279C17.2236 9.77141 17.1317 9.75196 17.093 9.73439C17.0392 9.71003 17.0124 9.6761 17.0124 9.63279C17.0124 9.59364 17.0356 9.56073 17.082 9.53414C17.1286 9.50749 17.2006 9.49414 17.2982 9.49414C17.3911 9.49414 17.4601 9.50413 17.5054 9.52407C17.5506 9.54404 17.5817 9.57353 17.5988 9.6126L17.4304 9.63356C17.4231 9.61604 17.4093 9.60258 17.3889 9.59329C17.3685 9.58391 17.3395 9.57927 17.3017 9.57927C17.2542 9.57927 17.22 9.58363 17.1994 9.59251C17.1857 9.59878 17.1789 9.60686 17.1789 9.61682C17.1789 9.62537 17.1848 9.63265 17.1968 9.63864C17.2129 9.64658 17.2688 9.65784 17.3644 9.67235C17.46 9.68689 17.5268 9.70465 17.5647 9.7257C17.6022 9.74702 17.621 9.77673 17.621 9.81486C17.621 9.85635 17.595 9.89204 17.5434 9.92189C17.4916 9.95177 17.4151 9.96669 17.3138 9.96669C17.2218 9.96669 17.149 9.95425 17.0954 9.92951C17.0418 9.90468 17.0067 9.87108 16.9902 9.82851Z" fill="#0B4A8E"/>
<path fill-rule="evenodd" clip-rule="evenodd" d="M18.713 9.70934L18.5827 9.47861L18.4568 9.70934H18.713ZM19.059 9.95483H18.8559L18.7753 9.81419H18.3995L18.3227 9.95483H18.123L18.4842 9.33301H18.6826L19.059 9.95483Z" fill="#0B4A8E"/>
<path fill-rule="evenodd" clip-rule="evenodd" d="M19.3669 9.95555H19.1875V9.50523H19.354V9.56929C19.3824 9.53902 19.4079 9.51897 19.4307 9.50904C19.4534 9.49911 19.4791 9.49414 19.5081 9.49414C19.5488 9.49414 19.5881 9.50167 19.6259 9.51673L19.5713 9.62098C19.541 9.60802 19.5129 9.60148 19.487 9.60148C19.4618 9.60148 19.4405 9.60611 19.4231 9.61527C19.4056 9.62451 19.3919 9.64112 19.3819 9.66518C19.3719 9.6892 19.3669 9.73963 19.3669 9.81629V9.95555Z" fill="#0B4A8E"/>
<path fill-rule="evenodd" clip-rule="evenodd" d="M20.1445 9.69276C20.1432 9.6577 20.1298 9.63111 20.1042 9.61282C20.0786 9.59458 20.0475 9.58542 20.0108 9.58542C19.9715 9.58542 19.9391 9.59511 19.9136 9.61433C19.888 9.63356 19.8753 9.65971 19.8758 9.69276H20.1445ZM20.1353 9.8137L20.3129 9.83345C20.2899 9.87684 20.2536 9.90992 20.2041 9.93262C20.1546 9.95535 20.0925 9.96669 20.0181 9.96669C19.9002 9.96669 19.813 9.94098 19.7565 9.88962C19.7118 9.84849 19.6895 9.79657 19.6895 9.73378C19.6895 9.65894 19.7188 9.60024 19.7776 9.55778C19.8361 9.51535 19.9104 9.49414 20 9.49414C20.1008 9.49414 20.1803 9.5164 20.2386 9.5609C20.2968 9.60548 20.3247 9.67367 20.3221 9.76556H19.8726C19.8739 9.80104 19.8885 9.8286 19.9162 9.84832C19.9441 9.86799 19.9788 9.87786 20.0203 9.87786C20.0486 9.87786 20.0723 9.87282 20.0916 9.86266C20.1109 9.85254 20.1254 9.83621 20.1353 9.8137Z" fill="#0B4A8E"/>
<path fill-rule="evenodd" clip-rule="evenodd" d="M20.8769 9.73969C20.854 9.74482 20.8178 9.75089 20.7683 9.758C20.7188 9.76506 20.6865 9.77204 20.6713 9.77883C20.648 9.78992 20.6365 9.80399 20.6365 9.82101C20.6365 9.83778 20.6457 9.85224 20.6643 9.86449C20.6829 9.87668 20.7066 9.8828 20.7354 9.8828C20.7675 9.8828 20.7982 9.87569 20.8274 9.86151C20.8489 9.85069 20.8632 9.83751 20.8699 9.82186C20.8745 9.81166 20.8769 9.79218 20.8769 9.76349V9.73969ZM20.6365 9.6422L20.4755 9.62244C20.4937 9.57883 20.5251 9.54658 20.5696 9.52562C20.6142 9.50465 20.6804 9.49414 20.7682 9.49414C20.8479 9.49414 20.9073 9.50046 20.9463 9.51301C20.9853 9.52567 21.0128 9.54167 21.0287 9.56106C21.0446 9.58046 21.0526 9.6161 21.0526 9.66793L21.0508 9.8073C21.0508 9.84694 21.0536 9.87624 21.0593 9.89502C21.0651 9.91386 21.0758 9.93403 21.0914 9.95555H20.9139C20.9091 9.94777 20.9035 9.93621 20.8966 9.9209C20.8937 9.91389 20.8916 9.90931 20.8904 9.90708C20.8599 9.92694 20.8273 9.94186 20.7925 9.9518C20.7578 9.96173 20.7207 9.96669 20.6813 9.96669C20.6118 9.96669 20.557 9.95406 20.517 9.92887C20.4771 9.90363 20.457 9.87174 20.457 9.8332C20.457 9.80774 20.4661 9.78501 20.4843 9.76501C20.5025 9.74504 20.5281 9.72973 20.561 9.71911C20.5939 9.70851 20.6413 9.69916 20.7032 9.69122C20.7867 9.68076 20.8446 9.67102 20.8769 9.66195V9.64989C20.8769 9.62666 20.8684 9.61014 20.8513 9.60024C20.8343 9.59036 20.8021 9.58542 20.7547 9.58542C20.7228 9.58542 20.6978 9.58964 20.6799 9.598C20.662 9.60642 20.6475 9.62115 20.6365 9.6422Z" fill="#0B4A8E"/>
<path fill-rule="evenodd" clip-rule="evenodd" d="M7.19907 6.89002H5.97748C5.97748 6.75631 5.95393 6.66658 5.90705 6.62089C5.83439 6.55331 5.6337 6.51946 5.30531 6.51946C4.9864 6.51946 4.77495 6.53893 4.67179 6.57789C4.56868 6.61698 4.51708 6.702 4.51708 6.83286C4.51708 6.95135 4.56276 7.02936 4.65437 7.06674C4.72004 7.09328 4.80673 7.10889 4.9149 7.11353L5.16123 7.12514C5.68923 7.14851 6.01898 7.16498 6.15052 7.17433C6.56804 7.20241 6.87073 7.27648 7.05855 7.39651C7.20636 7.49016 7.2945 7.61253 7.32263 7.76368C7.33906 7.85408 7.34725 7.9564 7.34725 8.07005C7.34725 8.33204 7.30977 8.52393 7.2347 8.64553C7.09869 8.86864 6.79314 9.00955 6.31774 9.06873C6.11854 9.09375 5.81382 9.10627 5.404 9.10627C4.71983 9.10627 4.24306 9.0791 3.97386 9.02451C3.64345 8.95764 3.42562 8.82213 3.3202 8.61808C3.26148 8.50451 3.23242 8.31535 3.23242 8.05055H4.45401C4.45401 8.08006 4.45414 8.10266 4.45414 8.11822C4.45414 8.25951 4.51505 8.35041 4.63658 8.39088C4.72079 8.4188 4.8225 8.43344 4.94204 8.43518H5.39113C5.62033 8.43518 5.76661 8.42735 5.82967 8.41165C5.94197 8.38219 6.01567 8.33477 6.05088 8.26914C6.06959 8.22875 6.0789 8.17648 6.0789 8.11253C6.0789 7.96925 6.00044 7.88208 5.8439 7.85082C5.78535 7.83846 5.51295 7.82125 5.02674 7.7994C4.63633 7.78081 4.36513 7.76293 4.21323 7.74558C3.81327 7.69568 3.54673 7.59309 3.41373 7.43728C3.29682 7.30489 3.23834 7.10462 3.23834 6.8367C3.23834 6.63267 3.26995 6.46906 3.33311 6.346C3.39632 6.22288 3.49819 6.12944 3.63877 6.0655C3.8447 5.9674 4.10822 5.9098 4.42898 5.89259C4.69588 5.87706 4.99194 5.86914 5.31764 5.86914C5.83033 5.86914 6.19571 5.88878 6.41357 5.92776C6.94517 6.02302 7.21091 6.28989 7.21091 6.7284C7.21091 6.76437 7.20698 6.81813 7.19907 6.89002Z" fill="#0B4A8E"/>
<path fill-rule="evenodd" clip-rule="evenodd" d="M13.8834 7.51076H14.7021C14.9616 7.50453 15.1195 7.4912 15.1763 7.47038C15.2539 7.44191 15.306 7.38494 15.3319 7.29945C15.3485 7.24257 15.3568 7.15799 15.3568 7.04563C15.3568 6.908 15.3403 6.80599 15.3072 6.73934C15.26 6.64599 15.1469 6.58914 14.9677 6.5685C14.9323 6.56538 14.8475 6.56373 14.7131 6.56373H13.8834V7.51076ZM12.5703 9.10591V5.85156H15.0168C15.3523 5.85156 15.6084 5.86985 15.7843 5.90635C16.1867 5.99046 16.4567 6.16262 16.5949 6.42285C16.6663 6.55942 16.702 6.76502 16.702 7.03959C16.702 7.36969 16.6624 7.60693 16.5841 7.75134C16.4272 8.03697 16.1042 8.20149 15.6165 8.24411C15.5591 8.25051 15.315 8.25625 14.8843 8.26083L14.6663 8.26569H13.8834V9.10591H12.5703Z" fill="#0B4A8E"/>
<path fill-rule="evenodd" clip-rule="evenodd" d="M19.2456 7.90947L18.6303 6.49876L18.0333 7.90947H19.2456ZM19.5064 8.54345H17.7507L17.5148 9.10591H16.1562L17.6222 5.85156H19.603L21.0869 9.10591H19.7569L19.5064 8.54345Z" fill="#0B4A8E"/>
<path fill-rule="evenodd" clip-rule="evenodd" d="M10.7586 6.30974C11.3002 6.30974 11.7835 6.47614 12.1013 6.7368L12.3843 6.332C11.9416 6.05291 11.3391 5.88086 10.6746 5.88086C9.63991 5.88086 8.7548 6.29766 8.39153 6.88767H7.83958L7.51367 7.35371H8.22374C8.2184 7.39694 8.21497 7.4402 8.21497 7.48434C8.21497 7.53777 8.21911 7.59054 8.22705 7.64271H7.8702L7.54433 8.10889H8.40846C8.78207 8.68398 9.65613 9.08773 10.6746 9.08773C11.1878 9.08773 11.6641 8.98513 12.0584 8.80993V8.2386C11.7409 8.47976 11.2764 8.63214 10.7586 8.63214C10.1533 8.63214 9.62083 8.42395 9.31078 8.10889H11.1203L11.4462 7.64271H9.04454C9.03217 7.5866 9.02555 7.52927 9.02555 7.47087C9.02555 7.4314 9.02861 7.39231 9.03432 7.35371H11.6481L11.974 6.88767H9.26037C9.56046 6.54221 10.1189 6.30974 10.7586 6.30974Z" fill="#F6BC25"/>
</svg>
