<svg width="24" height="16" viewBox="0 0 24 16" fill="none" xmlns="http://www.w3.org/2000/svg">
<g clip-path="url(#clip0_172_8557)">
<path d="M22 0H2C0.89543 0 0 0.89543 0 2V14C0 15.1046 0.89543 16 2 16H22C23.1046 16 24 15.1046 24 14V2C24 0.89543 23.1046 0 22 0Z" fill="#016FD0"/>
<path fill-rule="evenodd" clip-rule="evenodd" d="M13.7637 13.3938V7.69238L23.9112 7.70149V9.27638L22.7383 10.5298L23.9112 11.7947V13.403H22.0386L21.0434 12.3048L20.0553 13.4071L13.7637 13.3938Z" fill="#FFFFFE"/>
<path fill-rule="evenodd" clip-rule="evenodd" d="M14.4414 12.7692V8.32031H18.2137V9.3452H15.6628V10.0409H18.1529V11.0487H15.6628V11.732H18.2137V12.7692H14.4414Z" fill="#016FD0"/>
<path fill-rule="evenodd" clip-rule="evenodd" d="M18.1954 12.7691L20.2827 10.5421L18.1953 8.32031H19.811L21.0865 9.73035L22.3656 8.32031H23.9117V8.35532L21.8689 10.5421L23.9117 12.706V12.7691H22.35L21.0519 11.3449L19.7671 12.7691H18.1954Z" fill="#016FD0"/>
<path fill-rule="evenodd" clip-rule="evenodd" d="M14.2369 2.63184H16.6829L17.5421 4.58269V2.63184H20.5619L21.0827 4.09341L21.6052 2.63184H23.9111V8.33323H11.7246L14.2369 2.63184Z" fill="#FFFFFE"/>
<path fill-rule="evenodd" clip-rule="evenodd" d="M14.7006 3.25195L12.7266 7.69712H14.0805L14.4529 6.80696H16.4708L16.843 7.69712H18.2306L16.2648 3.25195H14.7006ZM14.8702 5.80939L15.4622 4.39432L16.0538 5.80939H14.8702Z" fill="#016FD0"/>
<path fill-rule="evenodd" clip-rule="evenodd" d="M18.2129 7.69606V3.25098L20.116 3.25752L21.0953 5.99025L22.0809 3.25098H23.9125V7.69606L22.7339 7.70649V4.65314L21.6213 7.69606H20.5455L19.4099 4.64271V7.69606H18.2129Z" fill="#016FD0"/>
</g>
<defs>
<clipPath id="clip0_172_8557">
<rect width="24" height="16" fill="white"/>
</clipPath>
</defs>
</svg>
